<?xml version="1.0" encoding="UTF-8" standalone="no"?>
<svg
   viewBox="0 0 161.89 158.50998"
   version="1.1"
   id="svg21"
   sodipodi:docname="heart-body.svg"
   inkscape:version="1.4.2 (2aeb623e1d, 2025-05-12)"
   width="161.89"
   height="158.50999"
   xmlns:inkscape="http://www.inkscape.org/namespaces/inkscape"
   xmlns:sodipodi="http://sodipodi.sourceforge.net/DTD/sodipodi-0.dtd"
   xmlns="http://www.w3.org/2000/svg"
   xmlns:svg="http://www.w3.org/2000/svg">
  <sodipodi:namedview
     id="namedview21"
     pagecolor="#ffffff"
     bordercolor="#000000"
     borderopacity="0.25"
     inkscape:showpageshadow="2"
     inkscape:pageopacity="0.0"
     inkscape:pagecheckerboard="0"
     inkscape:deskcolor="#d1d1d1"
     showgrid="false"
     inkscape:zoom="1.7326875"
     inkscape:cx="60.599502"
     inkscape:cy="159.00155"
     inkscape:window-width="1600"
     inkscape:window-height="836"
     inkscape:window-x="0"
     inkscape:window-y="27"
     inkscape:window-maximized="1"
     inkscape:current-layer="Layer_26" />
  <defs
     id="defs1">
    <style
       id="style1">.cls-1,.cls-9{fill:none;}.cls-2{fill:#ee96c5;}.cls-2,.cls-4{stroke:#221f20;}.cls-2,.cls-4,.cls-9{stroke-linecap:round;stroke-linejoin:round;stroke-width:5px;}.cls-3{fill:#221f20;}.cls-4{fill:#e74856;}.cls-5{opacity:0.38;}.cls-6{clip-path:url(#clip-path);}.cls-7{fill:#ebfef3;}.cls-8{fill:#84263d;}.cls-9{stroke:#5b1a33;}.cls-10{fill:#fff;}</style>
    <clipPath
       id="clip-path">
      <path
         class="cls-1"
         d="M 71.78,80.08 C 73.26,85.71 118.58,40 144.55,65 c 34.07,32.75 -15.48,68.61 -15.48,68.61 0,0 -53.42,54.49 -57.29,66.1 C 67.91,211.32 12.17,171 3.65,113 c -7.92,-54 31,-60.84 31,-60.84 0,0 27.84,-7.28 37.13,27.92 z"
         id="path1" />
    </clipPath>
  </defs>
  <g
     id="Calque_2"
     data-name="Calque 2">
    <g
       id="Layer_26"
       data-name="Layer 26">
      <path
         class="cls-2"
         d="m 73.112862,32.573227 c 1.49,5.63 46.809998,-40.0899997 72.779998,-15.12 34.06,32.75 -15.49,68.6 -15.49,68.6 0,0 -53.419998,54.500003 -57.289998,66.110003 -3.87,11.61 -59.61,-28.64 -68.1300001,-86.710003 -7.91,-54 31.0000001,-60.8399997 31.0000001,-60.8399997 0,0 27.84,-7.24 37.13,27.9599997 z"
         id="path2" />
      <path
         class="cls-3"
         d="m 54.332862,43.983227 c -2.43,2.64 -3,5.24 -3.1,8.84 -0.08,3.27 0.34,6.8 2.59,9.3 1.17,1.3 3.08,0.18 3.2,-1.33 0.22,-2.65 -0.65,-5.3 -0.7,-8 -0.05,-2.7 0.36,-5.23 0.17,-7.95 a 1.28,1.28 0 0 0 -2.16,-0.86 z"
         id="path7" />
      <path
         class="cls-3"
         d="m 83.772862,47.053227 c -2.7,3.78 -5.09,9.55 -3.39,14.21 0.84,2.32 4.62,2.83 5.24,0 0.42,-1.94 0.23,-3.91 0.56,-5.87 a 26.67,26.67 0 0 1 1.56,-6 2.3120554,2.3120554 0 0 0 -4,-2.32 z"
         id="path8" />
      <path
         class="cls-4"
         d="m 47.562862,79.673227 c 0,0 26.54,3.23 32.22,-0.88 5.68,-4.11 4.87,31.800003 -10.07,27.690003 -14.94,-4.11 -22.15,-26.810003 -22.15,-26.810003 z"
         id="path9" />
      <g
         class="cls-5"
         id="g16"
         transform="translate(1.4228619,-47.016773)">
        <g
           class="cls-6"
           clip-path="url(#clip-path)"
           id="g15">
          <path
             class="cls-7"
             d="M 49.55,48.36 C 22.31,44.09 5.55,71.69 2.33,95.19 a 104.54,104.54 0 0 0 2.21,39.19 c 3.17,12.76 8.58,26.24 18.75,35 4.63,4 14.15,0.3 11.44,-6.66 -3.8,-9.75 -9,-18.92 -12.08,-29 a 89.17,89.17 0 0 1 -3.81,-31.6 C 20,82.05 29.32,63 49.55,56.5 c 3.6,-1.16 4.4,-7.45 0,-8.14 z"
             id="path10" />
          <path
             class="cls-7"
             d="M 45.89,77.57 46.58,76.5 A 9,9 0 0 0 48,72 9.19,9.19 0 0 0 47.79,67.18 9.18,9.18 0 0 0 45.62,63.07 9.09,9.09 0 0 0 42.24,60 12.26,12.26 0 0 0 32.92,58.78 13.14,13.14 0 0 0 25.69,64.34 L 25,65.36 a 8.93,8.93 0 0 0 -1.44,4.5 9.09,9.09 0 0 0 0.22,4.82 9,9 0 0 0 2.22,4.11 9.2,9.2 0 0 0 3.4,3.12 12.23,12.23 0 0 0 9.31,1.22 13.11,13.11 0 0 0 7.23,-5.56 z"
             id="path11" />
          <path
             class="cls-7"
             d="m 86.07,80.78 c 5.65,-2.52 11.71,-3.65 17.59,-5.47 5.88,-1.82 12.12,-3.3 18.24,-4.63 5.4,-1.18 10.85,-2.54 16.4,-2.67 5.75,-0.12 10.26,2.43 15.78,3.22 6.53,0.94 14.11,-5.59 9.53,-12.39 -9,-13.34 -30.16,-10.35 -43.19,-5.5 -14.15,5.26 -28.06,11 -37.76,23 a 2.83,2.83 0 0 0 3.41,4.42 z"
             id="path12" />
          <path
             class="cls-8"
             d="m 70,132.19 a 21.64,21.64 0 0 1 -1.8,8.05 c -1.23,2.73 -3.13,5 -3.07,8.08 a 4.64,4.64 0 0 0 5.87,4.43 c 7.49,-2.26 9.24,-13.88 9,-20.56 -0.23,-6.4 -9.69,-6.4 -9.94,0 z"
             id="path13" />
          <path
             class="cls-8"
             d="M 70.15,205.9 C 83.8,182.23 107.85,166 128,149.24 c 10.51,-8.77 21.06,-17.63 30.22,-27.84 a 119.9,119.9 0 0 0 13.21,-17.69 c 4,-6.59 8.38,-14.25 7.79,-22.16 C 178.54,72.76 167.75,66.9 161,74 c -5.07,5.29 -7.4,12.32 -11.26,18.48 a 95.89,95.89 0 0 1 -11.17,14.67 c -9.11,10.35 -19.57,19.23 -29.65,28.58 -20.25,18.8 -40,39.39 -44.71,67.64 -0.58,3.47 4,6 6,2.53 z"
             id="path14" />
          <path
             class="cls-8"
             d="m 81.68,175.76 c -3.27,5.36 -11.13,16.11 -18.65,13.69 -4.32,-1.38 -8.31,-4.74 -12.32,-6.86 -4.8,-2.54 -10.18,-5.67 -15.73,-5.47 a 7.49,7.49 0 0 0 -6.4,11.14 c 3.29,6.24 11.42,10.56 17.42,13.88 6.27,3.47 13.12,6.43 20.42,5.65 6.87,-0.74 12.31,-4.39 16.16,-10.06 4.15,-6.11 4.21,-12.34 5.26,-19.37 0.54,-3.6 -4,-6.09 -6.17,-2.6 z"
             id="path15" />
        </g>
      </g>
      <path
         class="cls-9"
         d="m 73.202862,33.063227 c 1.48,5.63 46.799998,-40.0799997 72.769998,-15.08 34.07,32.75 -15.48,68.61 -15.48,68.61 0,0 -53.419998,54.490003 -57.289998,66.100003 -3.87,11.61 -59.61,-28.71 -68.1300001,-86.710003 -7.92,-54 31.0000001,-60.8399997 31.0000001,-60.8399997 0,0 27.84,-7.28 37.13,27.9199997 z"
         id="path16" />
      <path
         class="cls-9"
         d="m 47.562862,79.163227 c 0,0 26.54,3.24 32.22,-0.88 5.68,-4.12 4.87,31.810003 -10.07,27.700003 -14.94,-4.11 -22.15,-26.820003 -22.15,-26.820003 z"
         id="path17" />
      <path
         class="cls-10"
         d="m 30.172862,22.583227 c 0.22,0.37 0.34,0.14 0.34,-0.72 0.43,-0.76 0.46,-1 0.08,-0.77 -0.1,0 -0.72,0.34 -0.05,0 -0.5,0.22 0.58,0 0,0 0.41,0 0.55,0.09 0.07,-0.1 l 2.28,4 c 0,-0.16 0.08,-0.32 0.12,-0.48 0.09,-0.4 -0.35,0.68 -0.06,0.17 0.29,-0.51 -0.43,0.48 -0.15,0.16 l 0.34,-0.38 c 0.33,-0.37 -0.16,0.14 -0.3,0.2 a 3.48,3.48 0 0 0 0.44,-0.27 c 0.27,-0.14 0.11,-0.08 -0.48,0.19 l -0.68,0.09 c 0.49,-0.08 1,-0.12 1.5,-0.19 l -1.11,0.15 a 2.69,2.69 0 0 1 0.4,0 l -3.64,-6.35 a 8.43,8.43 0 0 1 -0.59,1.06 c -0.25,0.41 0.74,-0.9 0.2,-0.3 -0.54,0.6 0.94,-0.53 0.21,-0.22 l 1.14,-0.48 a 6,6 0 0 0 -1.83,0.93 l -0.84,0.66 1,-0.76 a 5.35,5.35 0 0 1 -0.76,0.47 l 5.91,0.77 -0.11,-0.13 0.76,1 a 1.24,1.24 0 0 1 -0.17,-0.27 l 0.49,1.17 a 1.91,1.91 0 0 1 -0.12,-0.47 l 0.15,1.27 a 5.49,5.49 0 0 1 0,-0.81 l -0.18,1.29 a 2.64,2.64 0 0 1 0.13,-0.46 l -0.49,1.14 a 1.56,1.56 0 0 1 0.16,-0.28 l -0.74,1 c 0.33,-0.44 0.71,-0.84 1,-1.31 1.92,-3 -0.6,-6.9 -4,-6.9 a 6.06,6.06 0 0 0 -5.56,4.42 6.37,6.37 0 0 0 1.69,6.24 5,5 0 0 0 5.9,0.76 13.12,13.12 0 0 0 1.88,-1.43 6.36,6.36 0 0 0 1.6,-2.85 l -0.46,1.09 a 9.54,9.54 0 0 0 1.26,-3.34 4.45,4.45 0 0 0 -1.08,-4.11 4.22,4.22 0 0 0 -4.11,-1.08 8.08,8.08 0 0 0 -4.29,3.45 7.06,7.06 0 0 0 -0.82,5.18 3.3,3.3 0 0 0 1.5,2 3.81,3.81 0 0 0 2.51,0.33 4.59,4.59 0 0 0 3.59,-3.6 c 0.2,-1.53 -0.34,-3.36 -2.07,-3.68 a 1.78,1.78 0 0 0 -1.83,0.62 1.72,1.72 0 0 0 -0.13,1.94 z"
         id="path20" />
      <path
         class="cls-10"
         d="m 20.812862,35.753227 c -4.79,5.73 -6.17,13.23 -6.39,20.52 -0.23,6.7 0.13,16.85 4.16,22.47 1.56,2.17 5.23,1.55 5.24,-1.42 0,-3.14 -1.1,-6.1 -1.57,-9.2 a 57,57 0 0 1 -0.53,-11 c 0.29,-6.76 2.19,-13.23 2.48,-20 0.07,-1.62 -2.26,-2.71 -3.36,-1.39 z"
         id="path21" />
    </g>
  </g>
</svg>
