<?xml version="1.0" encoding="UTF-8" standalone="no"?>
<svg
   viewBox="0 0 52 77.999996"
   version="1.1"
   id="svg21"
   sodipodi:docname="heart-left-hand.svg"
   inkscape:version="1.4.2 (2aeb623e1d, 2025-05-12)"
   width="52"
   height="78"
   xmlns:inkscape="http://www.inkscape.org/namespaces/inkscape"
   xmlns:sodipodi="http://sodipodi.sourceforge.net/DTD/sodipodi-0.dtd"
   xmlns="http://www.w3.org/2000/svg"
   xmlns:svg="http://www.w3.org/2000/svg">
  <sodipodi:namedview
     id="namedview21"
     pagecolor="#ffffff"
     bordercolor="#000000"
     borderopacity="0.25"
     inkscape:showpageshadow="2"
     inkscape:pageopacity="0.0"
     inkscape:pagecheckerboard="0"
     inkscape:deskcolor="#d1d1d1"
     showgrid="false"
     inkscape:zoom="1.7326875"
     inkscape:cx="110.81052"
     inkscape:cy="150.92162"
     inkscape:window-width="1600"
     inkscape:window-height="836"
     inkscape:window-x="0"
     inkscape:window-y="27"
     inkscape:window-maximized="1"
     inkscape:current-layer="Layer_26" />
  <defs
     id="defs1">
    <style
       id="style1">.cls-1,.cls-9{fill:none;}.cls-2{fill:#ee96c5;}.cls-2,.cls-4{stroke:#221f20;}.cls-2,.cls-4,.cls-9{stroke-linecap:round;stroke-linejoin:round;stroke-width:5px;}.cls-3{fill:#221f20;}.cls-4{fill:#e74856;}.cls-5{opacity:0.38;}.cls-6{clip-path:url(#clip-path);}.cls-7{fill:#ebfef3;}.cls-8{fill:#84263d;}.cls-9{stroke:#5b1a33;}.cls-10{fill:#fff;}</style>
    <clipPath
       id="clip-path">
      <path
         class="cls-1"
         d="M 71.78,80.08 C 73.26,85.71 118.58,40 144.55,65 c 34.07,32.75 -15.48,68.61 -15.48,68.61 0,0 -53.42,54.49 -57.29,66.1 C 67.91,211.32 12.17,171 3.65,113 c -7.92,-54 31,-60.84 31,-60.84 0,0 27.84,-7.28 37.13,27.92 z"
         id="path1" />
    </clipPath>
  </defs>
  <g
     id="Calque_2"
     data-name="Calque 2">
    <g
       id="Layer_26"
       data-name="Layer 26">
      <path
         class="cls-3"
         d="M 9.18,73.23 C 7.72,61 9.81,49.18 17,39 A 47.62,47.62 0 0 1 28.13,27.75 c 4.26,-3.06 9,-4.88 13.5,-7.43 3.33,-1.89 0.88,-6.23 -2.42,-5.75 -11.42,1.66 -21.95,11.83 -28,21.08 A 52.17,52.17 0 0 0 3.84,74 c 0.56,3 5.71,2.34 5.34,-0.72 z"
         id="path3" />
      <path
         class="cls-3"
         d="M 35.4,2.16 C 30.69,5 26.87,7.87 23.6,12.42 c -2.75,3.81 -5.92,9.39 -5.31,14.28 1.8,14.18 20.36,3.87 27.91,5.76 2.89,0.73 4.75,-3.35 2.06,-4.88 A 12.86,12.86 0 0 0 38.48,26.42 C 34.69,27.29 29.57,30.57 25.73,28.59 17.54,24.37 32.36,7 36.39,3.86 c 1,-0.74 0.12,-2.38 -1,-1.7 z"
         id="path4" />
    </g>
  </g>
</svg>
