<?xml version="1.0" encoding="UTF-8" standalone="no"?>
<svg
   viewBox="0 0 95 78.999997"
   version="1.1"
   id="svg21"
   sodipodi:docname="heart-right-hand.svg"
   inkscape:version="1.4.2 (2aeb623e1d, 2025-05-12)"
   width="95"
   height="79"
   xmlns:inkscape="http://www.inkscape.org/namespaces/inkscape"
   xmlns:sodipodi="http://sodipodi.sourceforge.net/DTD/sodipodi-0.dtd"
   xmlns="http://www.w3.org/2000/svg"
   xmlns:svg="http://www.w3.org/2000/svg">
  <sodipodi:namedview
     id="namedview21"
     pagecolor="#ffffff"
     bordercolor="#000000"
     borderopacity="0.25"
     inkscape:showpageshadow="2"
     inkscape:pageopacity="0.0"
     inkscape:pagecheckerboard="0"
     inkscape:deskcolor="#d1d1d1"
     showgrid="false"
     inkscape:zoom="1.7326875"
     inkscape:cx="60.599502"
     inkscape:cy="158.42441"
     inkscape:window-width="1600"
     inkscape:window-height="836"
     inkscape:window-x="0"
     inkscape:window-y="27"
     inkscape:window-maximized="1"
     inkscape:current-layer="Layer_26" />
  <defs
     id="defs1">
    <style
       id="style1">.cls-1,.cls-9{fill:none;}.cls-2{fill:#ee96c5;}.cls-2,.cls-4{stroke:#221f20;}.cls-2,.cls-4,.cls-9{stroke-linecap:round;stroke-linejoin:round;stroke-width:5px;}.cls-3{fill:#221f20;}.cls-4{fill:#e74856;}.cls-5{opacity:0.38;}.cls-6{clip-path:url(#clip-path);}.cls-7{fill:#ebfef3;}.cls-8{fill:#84263d;}.cls-9{stroke:#5b1a33;}.cls-10{fill:#fff;}</style>
    <clipPath
       id="clip-path">
      <path
         class="cls-1"
         d="M 71.78,80.08 C 73.26,85.71 118.58,40 144.55,65 c 34.07,32.75 -15.48,68.61 -15.48,68.61 0,0 -53.42,54.49 -57.29,66.1 C 67.91,211.32 12.17,171 3.65,113 c -7.92,-54 31,-60.84 31,-60.84 0,0 27.84,-7.28 37.13,27.92 z"
         id="path1" />
    </clipPath>
  </defs>
  <g
     id="Calque_2"
     data-name="Calque 2">
    <g
       id="Layer_26"
       data-name="Layer 26">
      <path
         class="cls-3"
         d="m 5.2053714,75.988818 c 11.2899996,-14.12 23.6299996,-27.3 38.6299996,-37.47 a 143.82,143.82 0 0 1 23,-12.69 137,137 0 0 1 12.89,-4.84 c 4.14,-1.32 8.76,-1.92 12.5,-4.17 2.74,-1.64 1.43,-5.57 -1.56,-5.77 -4.35,-0.28 -8.8,1.6 -12.85,3 -4.43,1.52 -8.78,3.28 -13,5.22 a 144.6,144.6 0 0 0 -24.77,14.32 c -15,10.76 -28.51,24.16 -37.2699996,40.49 -0.79,1.47 1.28,3.3 2.43,1.87 z"
         id="path18" />
      <path
         class="cls-3"
         d="m 81.725371,1.2788179 a 30.76,30.76 0 0 0 -12.45,8.12 c -2.86,2.9100001 -7.36,7.4800001 -8,11.6400001 -0.64,4.16 3.26,5.54 6.62,6.46 a 124.41,124.41 0 0 0 18.94,3.55 c 2.76,0.32 3.43,-4.43 0.67,-4.88 -4.29,-0.7 -8.56,-1.48 -12.82,-2.31 a 42.2,42.2 0 0 1 -5.47,-1.16 c -2.72,-1 -3.38,-1.17 -1.78,-3.78 4,-6.5 9.67,-10.9300001 15.27,-15.9100001 a 1,1 0 0 0 -1,-1.73 z"
         id="path19" />
    </g>
  </g>
</svg>
