<?xml version="1.0" encoding="UTF-8" standalone="no"?>
<svg
   viewBox="0 0 89 80.999996"
   version="1.1"
   id="svg21"
   sodipodi:docname="heart-legs.svg"
   inkscape:version="1.4.2 (2aeb623e1d, 2025-05-12)"
   width="89"
   height="81"
   xmlns:inkscape="http://www.inkscape.org/namespaces/inkscape"
   xmlns:sodipodi="http://sodipodi.sourceforge.net/DTD/sodipodi-0.dtd"
   xmlns="http://www.w3.org/2000/svg"
   xmlns:svg="http://www.w3.org/2000/svg">
  <sodipodi:namedview
     id="namedview21"
     pagecolor="#ffffff"
     bordercolor="#000000"
     borderopacity="0.25"
     inkscape:showpageshadow="2"
     inkscape:pageopacity="0.0"
     inkscape:pagecheckerboard="0"
     inkscape:deskcolor="#d1d1d1"
     showgrid="false"
     inkscape:zoom="1.7326875"
     inkscape:cx="60.599502"
     inkscape:cy="158.42441"
     inkscape:window-width="1600"
     inkscape:window-height="836"
     inkscape:window-x="0"
     inkscape:window-y="27"
     inkscape:window-maximized="1"
     inkscape:current-layer="Layer_26" />
  <defs
     id="defs1">
    <style
       id="style1">.cls-1,.cls-9{fill:none;}.cls-2{fill:#ee96c5;}.cls-2,.cls-4{stroke:#221f20;}.cls-2,.cls-4,.cls-9{stroke-linecap:round;stroke-linejoin:round;stroke-width:5px;}.cls-3{fill:#221f20;}.cls-4{fill:#e74856;}.cls-5{opacity:0.38;}.cls-6{clip-path:url(#clip-path);}.cls-7{fill:#ebfef3;}.cls-8{fill:#84263d;}.cls-9{stroke:#5b1a33;}.cls-10{fill:#fff;}</style>
    <clipPath
       id="clip-path">
      <path
         class="cls-1"
         d="M 71.78,80.08 C 73.26,85.71 118.58,40 144.55,65 c 34.07,32.75 -15.48,68.61 -15.48,68.61 0,0 -53.42,54.49 -57.29,66.1 C 67.91,211.32 12.17,171 3.65,113 c -7.92,-54 31,-60.84 31,-60.84 0,0 27.84,-7.28 37.13,27.92 z"
         id="path1" />
    </clipPath>
  </defs>
  <g
     id="Calque_2"
     data-name="Calque 2">
    <g
       id="Layer_26"
       data-name="Layer 26">
      <path
         class="cls-3"
         d="m 2.740365,13.404322 c 3.75,10.21 9.45,20 17.86,27.13 1.81,1.52 4.7,2.74 6.13,4.55 2,2.55 2.3,7.32 3,10.39 1.56,7 2.66,14.29 5,21 1.37,3.85 7.81,3.57 7.55,-1 -0.39,-7.16 -2.39,-14.38 -4.26,-21.28 -1.4,-5.19 -2.16,-11.66 -6.6,-15.23 -4.66,-3.75 -9.86,-6.45 -14.2,-10.7 a 53.37,53.37 0 0 1 -11.34,-16.2 c -0.8,-1.77 -3.85,-0.51 -3.17,1.34 z"
         id="path5" />
      <path
         class="cls-3"
         d="m 37.200365,4.014322 c 4.24,10.17 9.4,18.44 18.25,25.15 2.27,1.71 4.65,3.25 7,4.89 2.87,2 3.53,5.23 5,8.3 a 62.31,62.31 0 0 0 13,17.75 c 3.16,3 8,-0.79 6,-4.6 -3.24,-6.2 -7.53,-11.75 -10.75,-18 -1.45,-2.8 -2.34,-6.23 -4.58,-8.55 -2.24,-2.32 -5,-3.52 -7.57,-5.07 -9.39,-5.76 -16,-13.36 -22.85,-21.93 -1.25,-1.56999996 -4.22,0.14 -3.45,2 z"
         id="path6" />
    </g>
  </g>
</svg>
