<?xml version="1.0" encoding="UTF-8"?>
<svg id="Calque_2" data-name="Calque 2" xmlns="http://www.w3.org/2000/svg" xmlns:xlink="http://www.w3.org/1999/xlink" viewBox="0 0 80.97 164.76">
  <defs>
    <style>
      .cls-1 {
        fill: #ffce62;
      }

      .cls-1, .cls-2 {
        stroke: #733d00;
        stroke-linecap: round;
        stroke-linejoin: round;
        stroke-width: 2.51px;
      }

      .cls-3, .cls-4, .cls-5, .cls-6, .cls-7, .cls-8, .cls-9 {
        stroke-width: 0px;
      }

      .cls-3, .cls-2 {
        fill: none;
      }

      .cls-10 {
        clip-path: url(#clippath-1);
      }

      .cls-11 {
        opacity: .34;
      }

      .cls-4 {
        fill: #f0e7dd;
      }

      .cls-5 {
        fill: #83273e;
      }

      .cls-12 {
        clip-path: url(#clippath);
      }

      .cls-6 {
        fill: #f1dfe4;
      }

      .cls-7 {
        fill: #eafdf1;
      }

      .cls-13 {
        opacity: .42;
      }

      .cls-8 {
        fill: #82263e;
      }

      .cls-9 {
        fill: #f7f1eb;
      }
    </style>
    <clipPath id="clippath">
      <path class="cls-3" d="m26.74,162.62c-4.65,1.98-14.5.28-17.16-1.42-5.13-3.28-12.38-11.55-5.53-24.05,4.17-7.61,9.48-10.51,14.23-11.31,6.47-1.1,14.04,1.35,17.77,6.76,6.1,8.84,8.89,22.29-9.31,30.02Z"/>
    </clipPath>
    <clipPath id="clippath-1">
      <path class="cls-3" d="m73.91,16.99l-3.92,2.39s10.04,9.52-.39,38.64c-11.04,30.81-30.32,42.37-37.6,56.88-.34.68-.67,1.34-.98,1.99-.07-2.68-.27-5.73-.63-9.2-1.68-16.14-15.62-33.78-15.03-66.5C15.91,10.26,28.67,4.91,28.67,4.91l-2.82-3.62c-.8,1.56-30.29,18.95-9.35,78.7,20.94,59.75,1.24,51.98,1.24,51.98,0,0,3.64,3.36,7.12,2.93-1.1,11.81,10.38,7.18,10.38,7.18,0,0-21.17.29,19.56-48.18,40.73-48.46,19.31-75.18,19.12-76.92Z"/>
    </clipPath>
  </defs>
  <g id="Layer_1" data-name="Layer 1">
    <g>
      <path class="cls-1" d="m73.91,16.99l-3.92,2.39s10.04,9.52-.39,38.64c-11.04,30.81-30.32,42.37-37.6,56.88-.34.68-.67,1.34-.98,1.99-.07-2.68-.27-5.73-.63-9.2-1.68-16.14-15.62-33.78-15.03-66.5C15.91,10.26,28.67,4.91,28.67,4.91l-2.82-3.62c-.8,1.56-30.29,18.95-9.35,78.7,20.94,59.75,1.24,51.98,1.24,51.98,0,0,3.64,3.36,7.12,2.93-1.1,11.81,10.38,7.18,10.38,7.18,0,0-21.17.29,19.56-48.18,40.73-48.46,19.31-75.18,19.12-76.92Z"/>
      <path class="cls-1" d="m26.74,162.3c-4.65,1.98-14.5.28-17.16-1.42-5.13-3.28-12.38-11.55-5.53-24.05,4.17-7.61,9.48-10.51,14.23-11.31,6.47-1.1,14.04,1.35,17.77,6.76,6.1,8.84,8.89,22.29-9.31,30.02Z"/>
      <g class="cls-13">
        <g class="cls-12">
          <path class="cls-8" d="m12.11,151.91c-3.91-7.53,1.94-18.68,11.29-15.39,7.71,2.71,6.85,13.67-.82,15.62-2.71.69-5.93.39-8.31-1.19-3.61-2.39-3.19-7.43-.97-10.6,5.61-8.01,14.99-2.42,16.85,5.27.15.63,1,.43,1.06-.14.85-8.01-8.48-13.73-15.5-10.76-6.82,2.88-10.71,13.07-4.24,18.39,5.74,4.72,16.16,3.29,19.59-3.56s-1.89-15.38-9.5-15.67c-9.93-.38-14.69,10.34-9.73,18.21.11.18.38.02.28-.17h0Z"/>
          <path class="cls-8" d="m4.19,151.94c1.97,4.63,3,8.6,8,10.79,4.67,2.05,10.11,1.75,14.81.01,9.61-3.54,19.45-13.44,18-24.42-.26-1.98-1.13-3.26-3.02-3.96l-1.85-1.02c-2.49-1.63-5.9.52-5.86,3.36.11,8.93-5.2,15.99-13.19,19.55-4.06,1.81-1.13,8.93,3.06,7.25,10.98-4.41,17.99-14.95,17.92-26.8l-5.86,3.36c.81.69,1.68,1.29,2.61,1.81l-2.04-3.55c-.55,7.43-5.72,13.6-12.59,16.32-5.13,2.03-16.04,2.34-19.67-2.9-.14-.2-.42-.03-.32.19h0Z"/>
          <path class="cls-7" d="m1.11,146.55c1.33-2.8,3.41-5.4,4.97-8.12s3.45-5.45,6.23-7.2c5.34-3.37,10.32-2.13,15.78-.1,2.59.96,4.8-2.9,2.72-4.67-5.36-4.57-13.77-4.26-19.82-1.23-3.13,1.56-5.82,3.99-7.46,7.1-2.4,4.56-1.39,9.38-3.05,13.95-.14.37.47.63.64.27h0Z"/>
          <path class="cls-7" d="m14.6,143.24c.94-.69,1.97-1.36,3.16-1.45l-.49-.2c.28.23.53.36.84.54l-.72-1.77s.37-.34-.03.03l1.5-.62c-.82-.1-1.47.07-2.21.43l4.02,1.05c.48,1.25.25,2.22-.68,2.93l-1.54.42.18-.02-2.16-5.21c-.22.21-.25.25-.07.11.29-.21.62-.34.99-.37l1.59.43.94,1.33v1.71l.03-.2-.83,1.42.09-.11-1.42.83-1.94-.23-1.15-1.15.08.1-.44-1.61v.11c.22,1.65,1.34,3.28,3.21,3.19,1.61-.07,3.35-1.41,3.19-3.19-.16-1.88-1.53-3.56-3.54-3.56-1.86,0-3.3,1.29-3.55,3.12s1.07,3.65,2.89,4.02c1.65.34,3.2-.34,4.23-1.63.82-1.04,1.26-2.48.48-3.7s-2.06-1.66-3.44-1.4c-2.88.53-3.63,4.26-1.76,6.22,1.18,1.23,2.94.98,4.15,0,1.67-1.35,1.07-3.83-.2-5.14-.73-.75-1.92-.51-2.46.32-.21.32-.35.54-.46.92l.32-.42c-1.08.74-2.25,1.31-3.3,2.12-.35.28.12.89.48.63h0Z"/>
          <path class="cls-7" d="m22.87,147.28c.57.18,1.16.34,1.71.56l-.23-.18c.08.1.14.19.24.27.3.27.79.17.9-.24.12-.43-.27-.73-.66-.66-.29.05-.55-.06-.84-.14l-.94-.25c-.41-.11-.58.51-.17.63h0Z"/>
          <path class="cls-7" d="m24.27,148.13c.16-.02.3-.07.41-.19.03-.03.04-.07.07-.09.01-.02.02-.03.03-.05h.04c.06-.03.12-.08.17-.13.21-.22.3-.53.23-.83-.08-.34-.45-.59-.77-.68-.56-.14-1.15.17-1.4.67s-.25,1.21.23,1.59c.37.29.87.33,1.19-.08s.16-.89-.22-1.17c.06.03.1.07.13.12.04.06.05.07.03.03-.05-.08.06.19.03.06.01.05.01.2.02.07,0-.09-.03.22,0,.07.02-.11,0,.06-.03.07,0,0,.1-.16,0-.03-.05.06-.05.06,0,.02l-.1.07c.11-.07-.15.04-.06.02.08-.02-.22.01-.07.01-.08,0-.17-.02-.24-.06.12.07-.12-.07-.05-.04.05.05.11.1.17.13l.19.08c.07.02.17.03.24.03.06,0-.2-.04-.1-.01.07.02-.07-.03-.07-.03.03.02.04.02.06.04l-.07-.25c-.02.11-.05.17-.15.21-.16.08-.09.37.09.35h0Z"/>
        </g>
      </g>
      <path class="cls-2" d="m26.74,162.62c-4.65,1.98-14.5.28-17.16-1.42-5.13-3.28-12.38-11.55-5.53-24.05,4.17-7.61,9.48-10.51,14.23-11.31,6.47-1.1,14.04,1.35,17.77,6.76,6.1,8.84,8.89,22.29-9.31,30.02Z"/>
      <path class="cls-4" d="m18.81,139.89c-.29-.36-.72-.49-1.13-.65l.59.25h0c-.39-.23-.81-.34-1.26-.34-.45,0-.87.11-1.26.34-.37.22-.67.52-.89.89-.18.29-.28.59-.3.93-.07.33-.06.66.04.99.12.42.33.79.64,1.1.31.31.68.52,1.1.64.44.12.88.12,1.32,0,.48-.18.77-.29,1.14-.66.24-.22.41-.49.51-.79.07-.09.11-.19.13-.3.12-.44.12-.87,0-1.31-.12-.42-.33-.78-.63-1.08h0Z"/>
      <path class="cls-4" d="m6.27,147.68c.92-5.74,3.16-12.12,9.76-13,.86-.11,1.3-1.55.23-1.71-8.26-1.19-11.46,7.89-11.33,14.52.01.73,1.21.97,1.34.18h0Z"/>
      <path class="cls-4" d="m18.1,157.82c9.45,3.52,19.81-5.71,18.09-15.59-.16-.89-1.52-.81-1.72,0-.95,3.76-1.43,7.41-4.25,10.36-2.98,3.13-7.48,4.67-11.74,3.87-.9-.17-1.23,1.04-.37,1.36h0Z"/>
      <g class="cls-11">
        <g class="cls-10">
          <path class="cls-5" d="m30.93,125.67c3.75-5.34,9.75-9.54,14.3-14.24,4.77-4.94,9.36-10.09,13.73-15.38s8.4-10.49,12.28-15.95c3.65-5.12,8.45-11.6,9.56-17.88.35-1.98-1.64-3.96-3.59-2.76-5.66,3.5-10.16,10.21-14.28,15.37-4.65,5.83-9.47,11.52-14.36,17.17-4.69,5.43-9.56,10.7-14.48,15.92-4.53,4.82-9.09,9.05-9.83,15.95-.41,3.86,4.85,4.37,6.65,1.8h0Z"/>
          <path class="cls-6" d="m25.69,4.64l.09.1c.25.29.77.34,1.09.14l.1-.06c1.02-.65.78-2.09-.32-2.47-4.8-1.7-10.75,8.05-12.65,11.32-4.11,7.09-6.21,15.22-6.92,23.35-1.67,19.16,5.04,39.38,13.79,56.16,1.36,2.62,5.4.79,4.68-1.97-4.33-16.71-11.63-32.78-11.29-50.38.14-7.31,1.39-14.47,4.09-21.29,1.36-3.45,3.19-6.65,5.25-9.73.65-.97,2.37-2.56,2.52-3.63.46-3.29-1.03-2.23-.41-1.53h0Z"/>
          <path class="cls-6" d="m71.02,18.49c2.19,8.98.92,17.86.08,26.89-.18,1.88,2.59,2.04,3.14.42,3.16-9.22,1.62-18.82-.63-28.03-.41-1.67-2.99-.96-2.58.71h0Z"/>
        </g>
      </g>
      <path class="cls-2" d="m31.38,128.51c2.76-7.13,9.45-18.02,23.42-34.64,40.73-48.46,19.31-75.18,19.12-76.92l-3.92,2.39s10.04,9.52-.39,38.64c-11.04,30.81-30.32,42.37-37.6,56.88-.34.68-.67,1.34-.98,1.99-.07-2.68-.27-5.73-.63-9.2-1.68-16.14-15.62-33.78-15.03-66.5C15.91,10.23,28.67,4.88,28.67,4.88l-2.82-3.62c-.8,1.56-30.29,18.95-9.35,78.7,9.08,25.91,10.52,39.13,9.23,45.78"/>
      <path class="cls-9" d="m12.14,29.96c-1.72,7.76-2.28,15.14-.5,22.96.17.76,1.33.58,1.34-.18.03-7.52-.18-15.1.5-22.6.07-.76-1.17-.93-1.34-.18h0Z"/>
      <path class="cls-9" d="m25.2,99.35l.33.66c.08.16.32.02.24-.14l-.33-.66c-.08-.16-.32-.02-.24.14h0Z"/>
      <path class="cls-9" d="m24.17,97.42c.32,2.11.32,5.22,1.66,6.97.53.69,1.47.44,1.58-.43.27-2.19-1.31-4.87-2.11-6.85-.28-.7-1.25-.44-1.13.31h0Z"/>
      <path class="cls-9" d="m27.23,111.12l.31.74c.05.13.1.28.17.4.08.13.2.21.32.31.29.23.65.14.79-.21.1-.27.12-.46.08-.74l-.09-.71c-.06-.47-.38-.85-.9-.78-.42.06-.85.54-.66,1h0Z"/>
      <path class="cls-9" d="m37.05,112.71c1.6-1.95,3.33-3.83,4.75-5.91.6-.88-.65-1.62-1.36-1.05-1.98,1.58-3.45,3.8-4.56,6.06-.35.71.61,1.61,1.18.91h0Z"/>
      <path class="cls-9" d="m73.58,57.14c3.17-6.32,5.66-14.04,4.19-21.14-.09-.44-.75-.41-.86,0-1.86,6.79-2.29,13.98-4.01,20.86-.1.4.49.68.69.29h0Z"/>
    </g>
  </g>
</svg>