<?xml version="1.0" encoding="UTF-8"?>
<svg id="Calque_2" data-name="Calque 2" xmlns="http://www.w3.org/2000/svg" xmlns:xlink="http://www.w3.org/1999/xlink" viewBox="0 0 98.8 119.93">
  <defs>
    <style>
      .cls-1 {
        fill: #ffce62;
      }

      .cls-1, .cls-2, .cls-3, .cls-4, .cls-5, .cls-6 {
        stroke-linecap: round;
        stroke-linejoin: round;
        stroke-width: 2.51px;
      }

      .cls-1, .cls-4 {
        stroke: #733d00;
      }

      .cls-7 {
        clip-path: url(#clippath-2);
      }

      .cls-8 {
        opacity: .35;
      }

      .cls-9, .cls-10, .cls-11, .cls-12 {
        stroke-width: 0px;
      }

      .cls-9, .cls-2, .cls-4, .cls-5 {
        fill: none;
      }

      .cls-13 {
        clip-path: url(#clippath-1);
      }

      .cls-14 {
        clip-path: url(#clippath-4);
      }

      .cls-15 {
        opacity: .54;
      }

      .cls-10 {
        fill: #fff;
      }

      .cls-2, .cls-3 {
        stroke: #6d002a;
      }

      .cls-16 {
        clip-path: url(#clippath);
      }

      .cls-3 {
        fill: #fc3352;
      }

      .cls-17 {
        clip-path: url(#clippath-3);
      }

      .cls-11 {
        fill: #eafdf1;
      }

      .cls-5, .cls-6 {
        stroke: #231f20;
      }

      .cls-12 {
        fill: #82263e;
      }

      .cls-6 {
        fill: #57d653;
      }

      .cls-18 {
        opacity: .71;
      }
    </style>
    <clipPath id="clippath">
      <path class="cls-9" d="m59.25,81.33c53.91-20.07,24.8-68.65,24.8-68.65,0,0-5.99,64.65-39.74,49.75C13.64,48.88,38.49,1.62,38.49,1.62c-49.83,35.36-15.12,70.06,3.68,77.97-4.33,2.95-7.97,8.54-9.5,15.45-2.52,11.35,1.6,21.91,9.21,23.6,7.61,1.69,15.81-6.14,18.33-17.48,1.69-7.63.38-14.9-2.97-19.36.75-.1,1.43-.25,2-.46Z"/>
    </clipPath>
    <clipPath id="clippath-1">
      <ellipse class="cls-9" cx="74.34" cy="90.69" rx="7.91" ry="13.4" transform="translate(-15.98 15.9) rotate(-11.03)"/>
    </clipPath>
    <clipPath id="clippath-2">
      <path class="cls-9" d="m96.99,74.05c-1.18-6.08-5.17-10.41-8.9-9.69-3.73.73-5.79,6.24-4.61,12.32,1.18,6.08,5.17,10.41,8.9,9.69,3.73-.73,5.79-6.24,4.61-12.32Z"/>
    </clipPath>
    <clipPath id="clippath-3">
      <ellipse class="cls-9" cx="21.9" cy="83.22" rx="13.4" ry="7.91" transform="translate(-63.69 74.24) rotate(-69.26)"/>
    </clipPath>
    <clipPath id="clippath-4">
      <path class="cls-9" d="m12.78,54.96c-3.55-1.34-8.21,2.26-10.4,8.05-2.19,5.79-1.09,11.57,2.46,12.92,3.55,1.34,8.21-2.26,10.4-8.05,2.19-5.79,1.09-11.57-2.46-12.92Z"/>
    </clipPath>
  </defs>
  <g id="Layer_1" data-name="Layer 1">
    <g>
      <path class="cls-1" d="m45.25,80.43C27.54,75.18-13.77,38.67,38.72,1.43c0,0-24.84,47.26,5.82,60.8,33.75,14.9,39.74-49.75,39.74-49.75,0,0,29.11,48.58-24.8,68.65-3.46,1.29-10.69.34-14.23-.71Z"/>
      <ellipse class="cls-1" cx="46.67" cy="97.9" rx="21.04" ry="14.11" transform="translate(-59.02 122.25) rotate(-77.48)"/>
      <ellipse class="cls-6" cx="46.67" cy="99.7" rx="14.05" ry="8.6" transform="translate(-60.77 123.65) rotate(-77.48)"/>
      <ellipse class="cls-3" cx="74.57" cy="90.5" rx="7.91" ry="13.4" transform="translate(-15.94 15.94) rotate(-11.03)"/>
      <ellipse class="cls-3" cx="90.46" cy="75.18" rx="6.88" ry="11.21" transform="translate(-12.72 18.7) rotate(-11.03)"/>
      <ellipse class="cls-3" cx="22.13" cy="83.03" rx="13.4" ry="7.91" transform="translate(-63.36 74.33) rotate(-69.26)"/>
      <ellipse class="cls-3" cx="9.04" cy="65.25" rx="11.21" ry="6.88" transform="translate(-55.19 50.61) rotate(-69.26)"/>
      <g class="cls-8">
        <g class="cls-16">
          <path class="cls-12" d="m29.35,103.22c1,2.74-.32,5.52,1.05,8.26,1.19,2.39,3.49,4.5,5.73,5.88,4.98,3.05,10.98,2.68,16.14.29,12.71-5.9,11.57-19.13,11.58-30.98,0-1.14-1.68-1.38-1.99-.27-2.12,7.66-5.65,14.58-12.11,19.54-2.92,2.24-6.01,3.17-9.64,1.97-1.46-.48-2.67-1.46-4.04-2.1-1.85-.87-4.77-1.08-6.03-2.87-.23-.33-.86-.14-.7.3h0Z"/>
          <path class="cls-12" d="m17.77,17.46c-2.71,14.85-8.39,29.5-.64,43.85,5.86,10.85,17.43,17.73,29.62,18.44,2.94.17,2.89-4.31,0-4.55-11.31-.95-21.18-8.22-26.5-18.12-3.14-5.85-3.83-12.28-3.48-18.83.37-6.88.73-13.89,1.49-20.74.03-.27-.43-.34-.48-.07h0Z"/>
          <path class="cls-12" d="m38.72,76.86c4.39,1.03,7.84,3.07,12.46,3.43,4.2.33,8.41-.44,12.43-1.63,8.55-2.52,16.53-7.15,22.71-13.61,6.54-6.85,10.91-15.47,13.7-24.46,1.46-4.71,2.47-9.53,3.21-14.4.61-4.03,2.05-9.07-1.06-12.3-.61-.63-1.8-.85-2.56-.33-3.07,2.11-3.15,5.44-3.68,8.92-.65,4.33-1.48,8.64-2.59,12.88-2.13,8.14-5.45,16.19-10.95,22.66-4.94,5.82-11.46,10.36-18.59,13.07-3.67,1.39-7.47,2.15-11.29,2.97-4.11.88-9.42,2.74-13.59,2.12-.44-.07-.65.58-.19.69h0Z"/>
          <path class="cls-12" d="m87.21,10.82c-1.04,10.24.9,20.49-1.16,30.78-.99,4.96-2.43,9.82-4.57,14.41s-5.4,8.7-6.83,13.51c-.59,1.97,1.67,3.55,3.38,2.6,9.37-5.17,13.92-20.24,15.42-30.07,1.59-10.41,1.58-23.32-6.05-31.31-.07-.07-.18-.01-.19.08h0Z"/>
          <path class="cls-11" d="m36.08,3.37c-.52,3.45-5.71,7.94-7.46,11.16-1.52,2.79-2.82,5.78-3.89,8.77-2.43,6.78-3.96,14.52-2.91,21.7,1.69,11.58,11.51,20.55,23,22,13.23,1.67,25.48-6,31.72-17.39,3.41-6.23,5.62-13.23,7.35-20.1s3.74-15.14-.09-21.35c-1.58-2.57-5.85-2.24-6.61.86-1.37,5.57-.91,11.39-2.3,17.03-1.32,5.35-2.73,10.84-4.93,15.9-4.4,10.15-13.86,18.85-25.7,16.52-11.52-2.27-16.02-12.75-14.75-23.49.66-5.62,2.13-11.2,3.92-16.55.9-2.69,2.14-5.35,2.75-8.13.49-2.24.29-4.58.45-6.87.02-.31-.51-.39-.55-.07h0Z"/>
          <path class="cls-11" d="m5.65,37.26c2.92-1.23,4.61-3.2,6.49-5.68,3.2-4.22,6.47-8.44,10.17-12.25,3.36-3.45,7.01-6.6,10.79-9.58,3.54-2.8,8.75-5.3,10.99-9.28,1.31-2.33-.85-5.02-3.39-4.42-3.99.95-7.46,4.75-10.55,7.34-3.69,3.09-7.29,6.3-10.61,9.8-2.89,3.04-5.67,6.29-7.87,9.87-1.09,1.77-2.01,3.54-2.74,5.49-.88,2.36-1.16,6.55-3.6,7.94-.4.23-.13.96.33.77h0Z"/>
          <path class="cls-11" d="m41.02,94.99l1.08-.58h-.35c.94.71,1.69.88,2.84.58l-2.85-1.62c-.14-.51.05-1.05.32-1.49.15-.17.18-.22.08-.13-.16.13-.06.06.29-.23.29-.17.61-.2.94-.23-.93.09-.99.12-.17.1.36-.07.7,0,1.02.18l-2.16,5.12c-.85-.21-1.54-1.28-1.51-1.94,0,.14.01.08.03-.21,0-.18.04-.35.13-.5.08-.27.25-.48.5-.63.46-.37.56-.48.3-.35-1.32.65-1.8,2.64-1.01,3.86.86,1.34,2.45,1.74,3.86,1.01,2.73-1.41,2.19-5.95-.82-6.64-1.37-.31-2.75.31-3.3,1.62s-.07,2.79,1.15,3.5c1.68.97,3.77.41,4.75-1.27.44-.75.58-1.65.38-2.49s-.7-1.38-1.38-1.89c-.72-.55-2.24-.37-2.81.36-.33.42-.71.8-.85,1.33-.16.59-.04,1.17.11,1.75l.09-.34-.94.76c-.21.17.06.49.28.37h0Z"/>
          <path class="cls-11" d="m47.99,103.29c.09.2.31.31.52.29l-.23-.09.02.02c.25.24.69.26.93,0,.18-.19.29-.42.31-.69s-.1-.52-.29-.73c-.3-.34-.86-.26-1.12.08s-.2.91.21,1.1c.02.01.04.02.07.04l-.15-.12s.02.02.04.04l-.11-.15s.02.04.03.06l-.07-.17s.01.04.02.06l-.02-.19s0,.06,0,.09l.02-.18s-.01.06-.02.09c-.05.2-.02.4.09.57l.11-.44s-.09.04,0,0c-.06.03.01,0,0,0-.07,0,.05,0,0,0,.03.02.04.02.01,0-.02-.01-.02-.01,0,0-.21-.17-.48.04-.37.28h0Z"/>
          <path class="cls-11" d="m46.8,103.37l.15-.04-.28-.07c.3.36.39.41.77.62-.21-.11.17.09.18.09.45.19.92.1,1.37-.04.73-.22,1.26-1.03,1.02-1.79s-1.01-1.26-1.79-1.02c-.51.16-.99.34-1.28.81-.23.36-.3.69-.34,1.12l.21-.28-.14.05c-.34.12-.21.63.15.54h0Z"/>
        </g>
      </g>
      <g class="cls-15">
        <g class="cls-13">
          <path class="cls-12" d="m66.02,97.26c1.84,2.47,2.56,5.44,5.31,7.14s6.34,1.51,9.08-.14c6.25-3.75,9.69-13.33,7.25-20.12-.48-1.34-2.44-1.83-3.21-.42-2.24,4.12-2.8,9.15-5.55,12.99-3.01,4.21-8.79,3.32-12.2.03-.34-.33-1,.12-.69.53h0Z"/>
          <path class="cls-11" d="m68.14,90.12l.48-.36h-.31c.46.3.94.63,1.53.6.35-.02.65-.11.98-.24.51-.21.91-.59,1.34-.93.86-.68.77-2.11.17-2.88s-1.93-1.2-2.83-.57c-1.34.94-2.47,2.94-1.42,4.51.5.75,1.29,1.18,2.2,1.05s1.52-.74,1.83-1.58c.1-.26.12-.53.12-.8,0-.17.06-.49-.03.1.04-.28,0,.02-.06.14-.24.4-.15.17.03.02l-3.11-3.11c-.35.33-.71.66-.95,1.09-.48.89-.3,1.6.1,2.47l.05-.37-.43.43c-.2.2.07.59.31.41h0Z"/>
        </g>
      </g>
      <g class="cls-15">
        <g class="cls-7">
          <path class="cls-12" d="m84.36,81.07c1.84,2.25,2.55,5.03,5.41,6.3s6.13-.11,8.12-2.33c4.49-5.01,6.6-13.65,4.74-20.02-.33-1.13-1.84-1.29-2.45-.32-2.18,3.44-3.32,7.02-4.79,10.81-.64,1.65-1.13,3.8-2.32,5.15-2.07,2.35-5.96,1.88-8.29-.02-.3-.25-.67.12-.43.43h0Z"/>
          <path class="cls-11" d="m86.66,74.79c.13.06.27.12.41.17l-.36-.15.07.05c.26.15.55.23.85.23.31,0,.59-.08.85-.23,1.05-.67,1.44-2.14.75-3.22-.39-.61-1.01-1-1.74-1-.64,0-1.2.3-1.58.79s-.53,1.13-.36,1.76.73,1.27,1.41,1.41c.03,0,.06.01.09.03l-.47-.2s.06.03.08.05l-.39-.3s.08.07.11.11l-.29-.38s.05.07.06.11l-.18-.43s.03.08.04.12l-.06-.47s0,.08,0,.12l.06-.45c-.07.34-.1.66.02,1l.38-1.45s-.03.03-.04.05c-.33.33-.46.76-.4,1.21.06.42.29.86.69,1.06h0Z"/>
        </g>
      </g>
      <g class="cls-15">
        <g class="cls-17">
          <path class="cls-12" d="m8.49,85.05c3,2.34,2.21,6.31,4.35,9.16,1.74,2.32,4.71,3.1,7.48,2.61,6.13-1.08,13.48-6.72,12.98-13.48-.08-1.1-1.39-2.24-2.47-1.42-3.77,2.85-6.59,7.85-11.48,8.95s-6.71-4.42-10.26-6.59c-.47-.28-1.05.42-.6.77h0Z"/>
          <path class="cls-11" d="m17.67,79.18c.49-.11.89-.2,1.4-.14l-.7-.29-.09-.13.26.34c.22.22.53.38.83.46.4.11.82.11,1.23.14l-1.51-3.65c-.34.35.37-.23,0,.01-.22.14-.43.31-.61.5-.16.15-.16.15,0,.02.16-.12.16-.13-.03-.01.33-.12.4-.16.22-.1-.67.1.49.01-.05,0l2.53,1.93c-3.95,1.14-5.22.77-3.81-1.09-1.01,1.04-1.11,2.9,0,3.92s2.84,1.11,3.92,0c.75-.77,1.12-1.79.98-2.85-.18-1.37-1.25-2.47-2.64-2.66-1.05-.14-2.1.21-2.81,1.02-.37.42-.62.87-.77,1.41-.22.81,0,1.54.33,2.27.5,1.14,1.9,1.37,2.96,1.21,1.87-.28,3.67-2.1,3.44-4.05-.11-.88-.45-1.59-1.32-1.96-.75-.32-1.77-.19-2.34.44s-1.32,1.44-.96,2.37v-.64l-.02.14.25-.44c-.32.4-.66.62-1.09.88-.5.31-.17,1.08.4.94h0Z"/>
        </g>
      </g>
      <g class="cls-15">
        <g class="cls-14">
          <path class="cls-12" d="m-2.8,61.08c2.28,2.19,1.37,6.37,2.6,9.19,1.04,2.4,2.89,4.21,5.34,5.16,4.78,1.86,11.47-.42,11.31-6.26-.03-1.2-1.39-1.65-2.25-.93-3.61,3.03-7.75,4.08-11.18.13-2.13-2.45-2.43-5.89-5.12-7.99-.49-.38-1.17.25-.7.7h0Z"/>
          <path class="cls-11" d="m4.67,62.35c.38-.4,1.01-1.21,1.63-.84l-.28-1.06c-.19.3-.32.59-.37.94-.1.77.14-.3-.05.17l3.38-.89c.23.22.34.49.32.79,0-.2,0-.2-.01-.01-.13.32-.17.58-.5.79l-3.16-3.16c-.37.5-.73.99-1.07,1.51l3.95-.51.26.3.35,1.28c-.05-.6-.24-.19-.56,1.22-3.22-.28-4.33-1.12-3.32-2.51.38-.61.32-.57-.17.11-.14.23-.24.47-.29.73-.34,1.54.73,3.38,2.49,3.27s2.89-1.42,2.92-3.1c.02-1.36-.9-2.71-2.26-3.03s-2.83.27-3.5,1.52-.57,2.85.52,3.78c.63.53,1.28.8,2.11.69.72-.1,1.52-.5,1.84-1.2.34-.75.65-1.51.95-2.27.35-.91-.23-2.17-1.06-2.61-.89-.47-2.08-.41-2.8.36-1.51,1.61-1.22,3.98.55,5.25.57.41,1.46.34,2.04,0,.67-.39.91-1.01,1-1.74.04-.32-.02-.65-.11-.96-.33-1.11-1.82-1.94-2.88-1.17-.22.16-.46.19-.7.31s-.45.31-.66.48c-.41.32-.76.66-1.09,1.06-.31.36.19.89.53.53h0Z"/>
        </g>
      </g>
      <path class="cls-4" d="m42.15,79.22c-18.8-7.92-53.49-42.61-3.67-77.96,0,0-24.84,47.26,5.82,60.8,33.75,14.9,39.74-49.75,39.74-49.75,0,0,29.11,48.58-24.8,68.65-.48.18-1.04.32-1.66.42"/>
      <ellipse class="cls-4" cx="46.44" cy="97.73" rx="21.04" ry="14.11" transform="translate(-59.03 121.88) rotate(-77.48)"/>
      <ellipse class="cls-5" cx="46.44" cy="99.52" rx="14.05" ry="8.6" transform="translate(-60.78 123.28) rotate(-77.48)"/>
      <ellipse class="cls-2" cx="74.34" cy="90.32" rx="7.91" ry="13.4" transform="translate(-15.91 15.9) rotate(-11.03)"/>
      <ellipse class="cls-2" cx="90.23" cy="75" rx="6.88" ry="11.21" transform="translate(-12.69 18.65) rotate(-11.03)"/>
      <ellipse class="cls-2" cx="21.9" cy="82.86" rx="13.4" ry="7.91" transform="translate(-63.35 74) rotate(-69.26)"/>
      <ellipse class="cls-2" cx="8.81" cy="65.08" rx="11.21" ry="6.88" transform="translate(-55.17 50.28) rotate(-69.26)"/>
      <g class="cls-18">
        <path class="cls-10" d="m18.99,78.3c.03.17.14.34.26.46l-.13-.17.03.06c.07.12.16.22.27.3.1.09.22.16.36.19l.28.04c.19,0,.37-.05.53-.14.29-.13.53-.45.62-.75.09-.34.05-.7-.12-1.01l.15.57c.03-.34-.13-.71-.37-.95,0,0-.01,0-.02-.01-.07-.06-.2-.16-.28-.21-.11-.06-.24-.11-.36-.15-.13-.04-.28-.07-.41-.06l-.37.05-.33.14c-.05.03-.11.07-.15.12-.1.06-.19.14-.25.25-.11.14-.08.09-.12.17s-.12.26-.14.34c-.02.06-.03.17-.03.21,0,.06-.03.14-.03.21s.03.3.05.37c0,.01,0,.03.01.04l.13.31.21.27.27.21c.15.1.31.15.49.16.12.03.23.03.35,0,.12,0,.23-.03.33-.09.11-.03.21-.09.29-.17.14-.09.26-.22.34-.37,0-.01.01-.02.02-.04l-.21.27s.02-.02.03-.03l-.27.21s.02-.01.04-.02l-.33.14s.02,0,.03,0l.33-.14c.05-.04.1-.08.15-.12.1-.06.19-.14.25-.25.09-.09.14-.19.18-.3.03-.08.05-.12.08-.19l-.14.33s.02-.03.03-.05l-.2.26s.02-.02.03-.03l-.26.2c.1-.07.21-.15.3-.24l-1.37.18h.01c-.08-.05-.15-.11-.23-.17.01.01.02.02.03.03l-.17-.23s.01.02.02.03l-.11-.26s0,.03.01.05l-.04-.29s0,.02,0,.03l.04-.29s0,.04-.02.06l.11-.26s-.02.03-.02.04l.17-.22c-.06.08-.13.12-.19.24-.09.17-.16.38-.14.58l.63-.83s-.02,0-.03,0l.22-.03s-.02,0-.03,0l.22.03s-.03,0-.04-.01l.19.08h-.01c-.13-.07-.26-.12-.4-.12-.18,0-.34.06-.48.17-.11.09-.19.19-.25.32-.04.06-.05.13-.05.2-.02.11-.02.21.01.32h0Z"/>
      </g>
      <g class="cls-18">
        <path class="cls-10" d="m17.54,81.09c-1.11,2.45-1.41,4.8-.96,7.45.21,1.26,2.09.71,1.9-.52-.32-2.09-.17-4.33.39-6.36.21-.77-.98-1.33-1.33-.56h0Z"/>
      </g>
      <g class="cls-18">
        <path class="cls-10" d="m7.38,62.66c.27.01.52-.05.76-.17.24-.08.46-.22.63-.41.19-.18.33-.39.41-.63.12-.24.18-.49.17-.76l-.07-.52c-.09-.33-.26-.62-.51-.87l-.4-.31c-.31-.18-.64-.27-1-.27-.27-.01-.52.05-.76.17-.24.08-.46.22-.63.41-.19.18-.33.39-.41.63-.12.24-.18.49-.17.76l.07.52c.09.33.26.62.51.87l.4.31c.31.18.64.27,1,.27h0Z"/>
      </g>
      <g class="cls-18">
        <path class="cls-10" d="m4.35,65.53c-.76,2.16-.89,4.3-.13,6.48.3.85,1.52.51,1.35-.37-.38-1.9-.52-3.91-.16-5.81.13-.69-.82-.96-1.06-.29h0Z"/>
      </g>
      <g class="cls-18">
        <path class="cls-10" d="m70.21,88.68c1.16,0,1.17-1.81,0-1.81s-1.17,1.81,0,1.81h0Z"/>
      </g>
      <g class="cls-18">
        <path class="cls-10" d="m71.06,93.59c-.43,2.7.98,6.2,3.94,6.79,1.36.27,2.26-1.55.97-2.3-1.75-1.02-3.35-2.1-3.6-4.31-.08-.68-1.19-.99-1.32-.18h0Z"/>
      </g>
      <g class="cls-18">
        <path class="cls-10" d="m70.46,87.63s0-.02,0-.03l.02.15s0-.04,0-.06l-.02.16h0c-.25.13-.5.27-.75.41l.05.02-.21-.09h0c-.14-.33-.27-.67-.41-1,0,0,0,.01,0,.02l.09-.22s0,.01-.01.02l.15-.19s-.01.02-.02.02l1.18-.15-.03-.02.24.19c-.07-.09-.18-.15-.27-.21l.25.19s-.02-.02-.03-.03l.2.25s-.01-.02-.02-.04l.13.3s0-.03,0-.04l.05.35s0-.03,0-.04l-.05.35s0-.02,0-.03l-.14.32s0-.01.01-.02l-.21.28s.01-.02.02-.02l-.28.22h0c.1-.08.19-.15.29-.23l.22-.29c.1-.16.16-.34.17-.52.03-.13.03-.25,0-.38,0-.13-.03-.25-.1-.36-.03-.12-.09-.22-.18-.31-.06-.11-.15-.19-.25-.25-.14-.12-.3-.21-.48-.25l-.38-.05-.38.05-.34.14-.29.22-.22.29c-.1.16-.16.34-.17.52-.03.13-.03.25,0,.38,0,.19.06.36.17.52.18.24.27.39.55.54l-.27-.21c.1.08.19.16.29.22,0,0,.02,0,.02.01l.31.13c.13.04.27.06.41.06.23,0,.48-.06.68-.18.29-.17.49-.42.59-.75.06-.21.06-.42,0-.64-.06-.2-.16-.38-.31-.53-.15-.13-.3-.26-.5-.29l-.24-.03c-.12,0-.24.02-.34.08-.16.07-.35.2-.43.36h0c-.06.11-.1.22-.1.34-.03.12-.02.23.02.35.07.22.2.4.4.53h.01c-.07-.06-.15-.14-.22-.21.08.11.16.22.29.27.09.04.18.08.28.08.13,0,.24-.05.34-.12.17-.13.27-.38.2-.59h0Z"/>
      </g>
      <g class="cls-18">
        <path class="cls-10" d="m86.41,72.39c.07-.03.08-.03.03-.02.09,0,.1-.01.05-.01.09.01.11.02.05,0,.08.04.09.04.05.02-.08-.05.1.09,0,0-.08-.07.08.11,0,0,0-.01-.02-.03-.02-.04.04.05.06.12.06.18,0-.02,0-.04,0-.06-.02.12-.02.15,0,.09-.05.11-.06.14-.03.09-.08.1-.1.12-.05.08-.09.09-.16.13-.35.14l-.39-.11c.12.07-.16-.16-.09-.07.02.02.04.04.06.07l-.15-.19s.04.07.06.11l-.11-.25v.02c0-.19,0-.38,0-.57-.15.35.02.68.16.99l-.12-.28s.02.07.03.11l-.04-.32s0,.05,0,.08l.04-.32s0,.05-.02.08l.13-.3s-.02.05-.04.07l.2-.26-.02.02c-.16.16-.27.35-.33.56-.06.23-.06.45,0,.68.11.38.38.67.74.83s.78.14,1.13-.06c.19-.11.34-.27.46-.46.12-.2.17-.41.17-.64.02-.15-.01-.32-.05-.46s-.1-.28-.18-.4c-.15-.24-.37-.46-.62-.58-.24-.11-.45-.17-.72-.13s-.46.14-.65.31h0c.25-.1.5-.2.75-.31-.25.03-.46.06-.69.19-.24.15-.38.35-.48.61l.2-.34c-.19.24-.33.48-.31.79.02.29.15.52.35.72.37.36.91.45,1.31.1.18-.16.17-.45.04-.63-.15-.2-.4-.23-.62-.12h0Z"/>
      </g>
      <g class="cls-18">
        <path class="cls-10" d="m87.01,77.81c.81,2.57,1.69,5.89,4.81,6.43,1.64.28,2.37-2.12.7-2.54-2.18-.55-3.33-2.29-4.13-4.27-.33-.83-1.66-.52-1.37.38h0Z"/>
      </g>
      <g class="cls-18">
        <path class="cls-10" d="m43.28,92.55c-.45-.06-.87.2-1.26.38l.41-.17c-.35.13-.62.25-.88.52l2.99,1.74c.02-.12.06-.23.1-.34l-.18.44c.06-.13.13-.25.22-.36l-.68.68.04-.03-.46.19s.06-.02.09-.03l-1.93-3.31c-.32.33-.7.86-.78,1.31-.1.54-.1,1.14.21,1.62l.33.43c.19.21.42.35.68.44.42.18.93.25,1.37.11.5-.16,1.03-.48,1.26-.97.08-.18.19-.38.24-.57.06-.2.07-.45.08-.66,0-.1,0-.2,0-.3.01-.27-.05-.53-.17-.76-.08-.25-.22-.46-.41-.64-.34-.34-.91-.6-1.4-.58s-1.04.19-1.4.58-.58.86-.58,1.4c0,.03,0,.07,0,.1l.07-.51v.06c.05-.15.11-.3.18-.45-.24.56-.42,1.07-.39,1.69.03.45.18.95.52,1.26.3.27.63.44,1.03.49s.81,0,1.14-.21l.36-.28c.22-.22.38-.49.46-.79.11-.27.1-.67.09-.98,0-.28-.07-.59-.22-.83-.06-.1-.14-.2-.22-.29-.24-.27-.57-.33-.91-.38h0Z"/>
      </g>
      <g class="cls-18">
        <path class="cls-10" d="m41.85,98.5c-1.67,3.56-1.27,7.95.69,11.32.47.8,1.91.27,1.55-.65-1.35-3.51-1.64-6.69-1.35-10.42.04-.46-.69-.67-.89-.24h0Z"/>
      </g>
      <g class="cls-18">
        <path class="cls-10" d="m36.8,92.39c1.24-6.11,5.92-10.27,11.57-12.43.38-.15.38-.83-.11-.78-6.73.72-11.4,6.67-12.27,13.1-.06.46.72.56.81.11h0Z"/>
      </g>
      <g class="cls-18">
        <path class="cls-10" d="m30.06,11.74c-8.16,4.11-12.61,14.21-13.7,22.88-1.3,10.31,2.02,20.44,8.9,28.15.76.86,2.32-.3,1.61-1.25-5.71-7.67-8.85-17.11-7.59-26.71,1.19-9.05,6.27-15.35,11.28-22.57.23-.33-.2-.66-.51-.51h0Z"/>
      </g>
      <g class="cls-18">
        <path class="cls-10" d="m32.81,68.33c3.08,3.24,6.99,5.51,11.43,6.24.99.16,1.44-1.29.42-1.53-4.12-.98-7.9-2.66-11.19-5.37-.46-.38-1.08.22-.66.66h0Z"/>
      </g>
      <g class="cls-18">
        <path class="cls-10" d="m71.49,60.49c4.55-4.1,7.8-9.1,10.08-14.78,2.46-6.14,4.9-13.75,4.48-20.43-.05-.71-.93-.78-1.18-.16-2.27,5.59-2.65,11.93-4.6,17.68-2.11,6.23-5.2,11.97-9.49,16.98-.42.49.23,1.16.72.72h0Z"/>
      </g>
    </g>
  </g>
</svg>