<?xml version="1.0" encoding="UTF-8"?>
<svg id="Calque_2" data-name="Calque 2" xmlns="http://www.w3.org/2000/svg" xmlns:xlink="http://www.w3.org/1999/xlink" viewBox="0 0 106.72 153.86">
  <defs>
    <style>
      .cls-1, .cls-2, .cls-3, .cls-4 {
        stroke-linecap: round;
        stroke-linejoin: round;
        stroke-width: 2.51px;
      }

      .cls-1, .cls-5 {
        fill: #ffce62;
      }

      .cls-1, .cls-4 {
        stroke: #733d00;
      }

      .cls-2, .cls-6, .cls-4 {
        fill: none;
      }

      .cls-2, .cls-3 {
        stroke: #451806;
      }

      .cls-6, .cls-7, .cls-8, .cls-5, .cls-9, .cls-10, .cls-11, .cls-12 {
        stroke-width: 0px;
      }

      .cls-7 {
        fill: #fff;
      }

      .cls-8 {
        fill: #231f20;
      }

      .cls-13 {
        clip-path: url(#clippath);
      }

      .cls-3 {
        fill: #9a673d;
      }

      .cls-9 {
        fill: #eafdf1;
      }

      .cls-14 {
        opacity: .42;
      }

      .cls-10 {
        fill: #82263e;
      }

      .cls-11 {
        fill: #733d00;
      }

      .cls-12 {
        fill: #451806;
      }
    </style>
    <clipPath id="clippath">
      <path class="cls-6" d="m105.27,91.87c-18.58,17.97-32.25,14.5-39.17,10.67,2.25-5.23,2.79-11.32,2.61-17.71,2.45.28,5.29-.32,8.1-2.98,2.09-1.98,2.72-5.31,0-12.95-3.23-9.06-8.71-13.71-10.24-9.31-.4-7.17-4.16-11.64-8.27-14.47.99-2.66,1.45-4.83,1.63-5.62.01-.05.02-.1.03-.14,3.92,13.33,11.44,22.85,25.1,8.74,28.5-29.43-1.5-15.12-1.5-15.12,0,0-9.64,2.98-22.2-16.88-2.57-12.94-12.04-13.39-13.07-14.42-1.03-1.03-9.09,1.6-13.16,6.74-.1-.11-.18-.09-.22.1-.02.09-.04.17-.06.25-1.5,2.04-2.38,4.44-1.97,7.16.02.14.03.28.05.41-7.03,23.82-17.52,23.4-17.52,23.4,0,0-32.67-6.11,2.44,14.99,5.4,3.24,9.56,4.3,12.73,3.78.71.27,1.47.52,2.3.75.44.13.88.24,1.31.34-.21,2.84-.42,5.63-.62,8.29-5.26-1.97-12.42-2.51-14.1,8.07-2.72,17.18,4.91,13.23,5.69,14.04.38.4,3.68-.44,7-3.25-.09,1.16-.13,1.8-.13,1.8,0,0-8.4,13.14-5.17,21.69-4.71,5.95-9.67,15.16-2.73,21.95,11.12,10.86-1.96,7.91-1.96,7.91,0,0-15.37,6.7-3.28,9.16,7.18,1.46,13.47,1.6,17.69.41-.2,1.34.99,2.43,4.94,2.73,12.3.94,21.63-1.53,22.42-6.71s-1.8-8.77-3.39-14.43c-1.6-5.66.7-19.63.7-19.63l.75-2.68h0c2.02,5.77,7.4,11.92,21.16,11.87,25.89-.09,22.11-28.97,22.11-28.97Zm-63.13,25.53c-.15.34-.29.67-.42,1.02.08-.34.15-.68.23-1.01.06,0,.13,0,.2,0Zm1.51,25.53s-.54.32-1.33.85c.62-4.29-1.13-7.94-1.92-13.12-.12-.79-.15-1.72-.11-2.73.44,2.56,1.73,4.95,4.31,6.91,12.38,9.4-.96,8.09-.96,8.09Z"/>
    </clipPath>
  </defs>
  <g id="Layer_1" data-name="Layer 1">
    <g>
      <path class="cls-3" d="m60.71,98.86c.87.07,17.45,18.69,44.22-7.2,0,0,3.78,28.87-22.11,28.97-25.89.09-22.11-21.76-22.11-21.76Z"/>
      <path class="cls-1" d="m39.04,70.71s-17.19-12.12-19.9,5.06,4.91,13.23,5.69,14.04,13.55-3.45,14.21-19.1Z"/>
      <path class="cls-3" d="m32.08,104.07s-19.41,17.07-8.29,27.93c11.12,10.86-1.96,7.91-1.96,7.91,0,0-15.37,6.7-3.28,9.16,12.09,2.46,21.66,1.16,23.08-3.88,1.42-5.04-.69-8.92-1.58-14.74-.88-5.82,3.13-19.39,3.13-19.39l-11.11-6.98Z"/>
      <path class="cls-3" d="m60.91,111.43l.75-2.68c10.9-11.99,5.53-32.29,4.57-49.37-.8-14.23-14.8-17.86-18.65-19.06,0,0-11.52-10.53-12.91,8.2-1.39,18.73-2.97,39.84-2.97,39.84,0,0-17.63,27.58,7.99,28.82.72.03,1.42.03,2.11,0-2.59,5.91-3.56,12.86,2.47,17.43,12.38,9.4-.96,8.09-.96,8.09,0,0-14.42,8.56-2.12,9.49,12.3.94,21.63-1.53,22.42-6.71.79-5.18-1.8-8.77-3.39-14.43-1.6-5.66.7-19.63.7-19.63Z"/>
      <path class="cls-3" d="m34.57,8.32c.88-4.08,18.06,67.32-17.05,46.22-35.11-21.1-2.44-14.99-2.44-14.99,0,0,12.68.5,19.5-31.23Z"/>
      <path class="cls-3" d="m59.58,39.29c-.67,2.96-5.49,25.89-27.04,19.78-21.54-6.11-3.92-23.85-3.92-23.85,0,0,5.39-9.6,3.92-19.49C31.07,5.84,46.49.02,47.95,1.47c1.45,1.45,19.78,1.75,11.64,37.82Z"/>
      <path class="cls-1" d="m56.33,7.62c-1.9-3.72-.12,69.7,28.38,40.27,28.5-29.43-1.5-15.12-1.5-15.12,0,0-12.12,3.75-26.88-25.16Z"/>
      <path class="cls-3" d="m59.8,71.06c-2.49-1.62-5.67-1.77-8.28-.35-4.11,2.24-8.78,6.46-5.19,13.23,1.53,2.88,2.95,4.78,4.21,6.02,2.24,2.2,5.99,1.54,7.35-1.3l3.51-7.31s7.67,7.28,15.07.28c2.09-1.98,2.72-5.31,0-12.95-3.23-9.06-8.71-13.71-10.24-9.31-1.52,4.4,3.15,15.77-.48,14.74-1.79-.51-4.09-1.84-5.95-3.06Z"/>
      <path class="cls-8" d="m36.98,47.23c-1.11-.12-.82-.34-1.45-1.06-.43-.5-1-.9-1.52-1.3l.91.91-.14-.22.28,2.11c.09-.4.14-.82.14-1.23l-.43,1.57c-1.33.62-1.63.89-.9.8.27-.02.54-.03.82-.02.37,0,.79-.01,1.16.02s.76.14,1.13.23c.53.14.77.46.22-.12l-1.16-2.8.03.34.54-2.01c.66-.58.78-.74.36-.47-.25.11-.28.14-.08.09.03,0-1.23.33-.75.22-.58.13-.17.07-.77-.04s-.29-.29-.07,0l1.21,2.93-.03-.37-1.21,2.91c-.88.41-1.05.52-.53.34.25-.08.5-.15.75-.2-.14.02.66-.03.76-.02.78.05,1.52.31,2.25.61l-2.29-5.63c.4-.57-.2.06-.45.21.38-.15.15-.06-.69.29-.31.21-.6.45-.88.7-1.2,1.27-1.14,3.05,0,4.33s3.14,1.62,4.75,1.24c1.72-.41,2.85-1.55,3.88-2.9,1.18-1.54.34-4.45-1.37-5.24-3.58-1.66-11.63-3-13.07,2.26-1.73,6.3,7.04,7.73,11.16,6.06,2.42-.98,4.71-2.98,4.41-5.84s-2.9-3.96-5.48-4.32c-2.3-.31-4.58-.1-6.71.88s-3.64,3.5-2.23,5.77c.94,1.51,2.61,1.77,4.15,1.09-.66.29.21.04.45-.04.31-.1.75-.26,1.03-.42.73-.42.87-.86,1.8-.96.45-.05.45-.65,0-.7h0Z"/>
      <path class="cls-5" d="m90.2,104.3c2.36,1.88,3.82,5.64,4.41,8.57.53,2.58,4.86,2.04,4.64-.63-.34-4.19-2.36-7.55-6.07-9.6-2.82-1.56-5.07,2.46-2.49,4.26,2.17,1.51,3.61,3.83,3.75,6.49.14,2.44,3.69,2.45,3.8,0,.15-3.31.81-6.42,2.16-9.46.7-1.56-.84-3.74-2.59-2.59l-2.56.65v4c1.49-.57,2.98-1.14,4.2-2.22,1.6-1.42,2.2-3.47,3.52-5.12l-1.78-1.03c-1.09,2.79-2.09,5.6-3.05,8.44l2.72.75c.58-2.36,1.17-4.73,1.75-7.09.48-1.93-2.49-2.76-2.99-.82-.76,2.93-1.52,5.85-2.27,8.78-.48,1.84,2.21,3.09,3.15,1.33s1.6-3.47,2.08-5.4-2.34-3.24-3.24-1.37c-1.01,2.1-1.59,4.09-1.77,6.42-.15,1.98,3.17,2.47,3.5.47.25-1.47,2.29-10.75,1.38-10.97l-1.04-1.83c-.66,4.17-1.8,8.14-3.38,12.05l3.2.88c.98-2.67,1.49-5.28,1.62-8.12.09-1.98-3.23-2.5-3.53-.48-.42,2.82-1.18,5.37-2.65,7.84h3.33c-.86-1.71-1.23-3.01-1.34-4.92-.11-1.8-1.97-3.03-3.63-2.08s-2.48,2.07-3.21,3.87c-.8,1.96,1.92,3.9,3.59,2.76.3.19.47.47.53.82l3-1.71-.39-.06,1.71,1.71-.16-.41-1.12,2.76.24-.14-3.59-1.46-.14.58,2.36-1.79.72.34.63,2.38.16-.44-4.8-.65c-.12,1.37-.82,2.46-1.42,3.64l3.75,1.02c0-4.69-1.13-8.61-4.52-11.97-1.22-1.21-3.62,0-3.01,1.75,1.38,4,2.61,8.04,3.66,12.14.56,2.16,3.91,1.25,3.35-.92-1.05-4.09-2.23-8.15-3.54-12.17l-3.01,1.75c2.28,2.34,3.8,5.55,3.11,8.89-.35,1.7,1.36,3.16,2.96,2.27,2.49-1.38,3.31-3.67,3.55-6.39.26-2.93-3.89-3.04-4.8-.65l-.16.44c-.3.79.05,1.81.63,2.38.85.84,1.54,1.19,2.74,1.09s1.92-.72,2.36-1.79c.5-1.24.41-1.88.14-3.18-.32-1.57-2.3-2.2-3.59-1.46l-.24.14c-.85.49-1.51,1.77-1.12,2.76.45,1.13.96,1.97,2.25,2.18,1.4.23,2.49-.36,3-1.71,1.61-4.23-3.86-8.97-7.7-6.33l3.59,2.76.93-1.01-3.54-1.44c.5,2.32,1.36,4.28,2.74,6.22.76,1.07,2.65,1.42,3.33,0,1.45-3.03,2.42-5.98,2.84-9.31h-3.59c-.06,2.54-.45,4.84-1.23,7.23-.67,2.05,2.48,2.86,3.2.88,1.43-3.95,2.42-7.99,3.05-12.14.12-.77-.18-1.63-1.04-1.83-1.64-.38-2.54.42-3.17,1.96-1.35,3.29-1.67,7.45-2.44,10.93l3.5.47c.2-1.72.53-3.05,1.26-4.63l-3.24-1.37c-.39,1.69-.85,3.02-1.63,4.61l3.15,1.33c.65-2.96,1.29-5.91,1.94-8.87l-2.99-.82c-.5,2.39-.99,4.78-1.49,7.17-.37,1.77,2.2,2.5,2.72.75.85-2.86,1.66-5.72,2.38-8.62.29-1.17-1.31-1.86-1.94-.82-1.31,2.14-5.41,3.77-7.64,4.84-2.04.97-.79,3.69,1.05,3.86,2.21.21,3.69-.4,5.41-1.75l-2.97-2.29c-1.56,3.7-2.49,7.36-2.69,11.37h3.8c.03-4.16-1.3-7.67-4.57-10.36l-2.99,3.87c2.16,1.13,3.58,2.87,3.84,5.34l4.64-.63c-1.1-4.86-3.93-6.83-8.58-7.98-.36-.09-.72.4-.39.67h0Z"/>
      <g class="cls-14">
        <g class="cls-13">
          <path class="cls-10" d="m47.77,87.6c2.97,2.3,4.22,6.32,8.65,5.37,4.79-1.04,4.69-4.3,5.83-8.16l-1.83,2.39c-2.22-.73-2.66-.36-1.32,1.1.47.63.96,1.25,1.47,1.85.85.85,1.9,1.54,2.97,2.08,2.82,1.41,6.25,1.52,9.23.6,6.89-2.13,9.89-9.08,9.95-15.79h-10.04c-.05,6.16-9.82,2.25-13.22,3.35-2.36.76-4.39,4.02-2.59,6.36,7.69,10.02,26.09,2.67,25.85-9.71-.13-6.45-10.16-6.47-10.04,0,.05,2.85-1,8.03-5.06,7.23-2.6-.51-3.56-4.06-6.39-4.81-1.92-.51-4.27-.04-5.64,1.46-2.25,2.45-1.16,10.21-7.28,5.99-.4-.28-.93.38-.53.69h0Z"/>
          <path class="cls-10" d="m17.64,85.93c1.54.87,2.11,3.27,3.46,4.54,1.53,1.43,3.49,2.13,5.56,1.85,3.79-.52,7.46-3.87,7.14-7.91-.18-2.27-1.81-4.23-4.23-4.23-2.19,0-4.36,1.94-4.23,4.23.07,1.22.39-.11-.15-.02s-1.09.24-1.64.34c-1.67.31-3.95.89-5.54.31-.53-.19-.86.63-.38.9h0Z"/>
          <path class="cls-10" d="m56.4,20.55c1.95,4.51.54,8.68.79,13.32.16,2.91.7,5.86,1.67,8.6,2.01,5.7,6.48,10.55,12.35,12.34,6.64,2.02,12.32-.57,17.17-5.1,4.53-4.23,10.35-10.54,12.3-16.54,1.77-5.42-6.03-8.3-8.92-3.76-4.09,6.41-12.48,21.42-21.37,14.2-3.51-2.85-5.2-7.41-6.98-11.42s-4.08-8.1-6.2-12.1c-.29-.54-1.04-.07-.8.47h0Z"/>
          <path class="cls-10" d="m.73,40.98c1.66,2.54,1.73,5.54,3.62,7.98s4.16,4.38,6.89,5.59c4.79,2.12,10.35.62,11.38-5.01h-6.65c1,3.43,2.54,6.77,5.13,9.29,2.31,2.25,6.44-.68,4.58-3.54s-3.33-6.03-4.28-9.34c-.24-.85-1.18-1.18-1.94-.79-5.69,2.94-11.54-1.66-16.96-2.86-1.68-.37-2.96,2.11-1.23,2.93,6.76,3.2,15.46,4.3,21.88-.41,1.09-.8.49-3.01-1.01-2.4-6.44,2.62-12.93,3.89-19.25.05l-1.94,2.51c5.58,4.77,13.4,5.79,19.85,2.46l-1.98-1.14c-.39,4.03.06,7.44,1.53,11.24l5.34-2.25c-1.41-2.52-2.54-4.71-3.06-7.59-.64-3.49-5.76-3.07-6.65,0-.21.71-13.66-6.12-14.56-7.26-.31-.39-.96.12-.69.53h0Z"/>
          <path class="cls-10" d="m60.97,41.26c1.32,1.7-8.25,11.11-9.72,12.57-5.63,5.62-10.83,5.41-18.09,3.24-4.12-1.23-7.92,4.59-4.39,7.53,13.28,11.03,37.59-2.19,41.86-17.2,1-3.52-3.98-6.92-6.5-3.79-3.85,4.77-6.8,9.55-12.25,12.74-3.98,2.33-12.91,6.22-16.73,1.87l-5.46,7.08c5.26,2.34,10.62,4.59,16.49,3.4,4.89-.99,8.94-4.11,12.27-7.69s6.21-7.24,6.88-12c.26-1.87.32-3.9-.59-5.62-1.05-1.99-1.39-1-3.25-2.64-.35-.31-.78.15-.5.5h0Z"/>
          <path class="cls-10" d="m26.33,115.28c4.09,2.49,4.31,6.89,5.04,11.04.56,3.16,5.99,3.24,6.46,0,.27-1.84.9-3.11,2.27-4.37,2-1.86.88-5.11-1.55-5.86-2.73-.84-5.45-1.75-8.23-2.43-4.3-1.04-5.9,5.1-1.81,6.56,3.54,1.26,3.41,6.36,3.93,9.27.61,3.35,1.98,7.29.73,10.65-2.57,6.93-11.41,5.34-16.45,2.7l-2.14,7.91c7.72-.86,15.42-2.24,22.8-4.67,4.61-1.52,4.92-8.29,0-9.68-1.64-.46-4.49-.89-5.6-2.29-.81-1.01-.61-2.11-.35-3.39.16-.82,1.31-2.48.42-1.94l-7.9-3.21.17,1.04.54-4.15-1.52-2.55,5.26-4,2.54,2.98c1.49-6.75-8.66-9.63-10.41-2.87-1.22,4.72,1.3,9.84,6.42,10.6,3.05.45,5.67-.73,6.71-3.81,1.65-4.87-1.65-10.06-6.83-10.5-5.59-.48-9.55,4.65-9.38,9.84.16,4.79,3.65,9.82,8.68,10.28,5.77.53,9.08-4.51,8.19-9.72-.58-3.42-5.18-4.9-7.9-3.21-5.12,3.18-7.31,11.67-5.38,17.24,2.05,5.93,7.98,8.32,13.68,9.34-.4-3.06-.8-6.12-1.2-9.17-6.1,2.79-12.26,4.65-18.93,5.35-3.83.4-6.23,5.78-2.14,7.91,8.92,4.66,21.51,4.74,26.88-5.33,5.31-9.95-1.77-21.37-6.97-29.63l-3.84,5c2.68,1.01,5.44,1.79,8.17,2.63l-1.55-5.86c-2.53,2.36-3.6,5.04-3.89,8.44l6.58-.89c-1.83-5.44-6.32-7.48-11.14-9.87-.41-.2-.76.37-.36.62h0Z"/>
          <path class="cls-10" d="m32.08,131.32c.81,1.01,1.25,2.16.45,3.26l2.86,1.21c.39-1.81,0-3.55-.08-5.37-.08-1.69-1.7-3.21-3.46-2.63-3.8,1.25-4.88,7.86-1.83,10.41,2.2,1.84,5.34.62,5.55-2.3.05-.64-.08-1.31-.23-1.94-.05-.2-.1-.51-.06-.12-.03-.29-.02-.6-.04-.89-.01-.24-.04-.47-.04-.71,0-.07.05-.63.02-.44.06-.5.17-1.37-.02-2.11l-4.57,2.66c1.01,1,1.34,2.54,1.88,3.81.78,1.82,3.57.25,2.7-1.58-.66-1.4-1.3-2.91-2.34-4.07-.5-.56-1.27.25-.81.81h0Z"/>
          <path class="cls-10" d="m61.54,88.73l.9.41,1.08-1.89c-4.75,3.07-6.91,10.3-8.78,15.36-2.31,6.25-4.24,12.78-3.49,19.52s5.32,12.65,6.16,19.47c.51,4.1-3.27,15.27,4.87,14.42,2.67-.28,4.63-1.6,5.5-4.19,1.93-5.7,1.7-12.03-.27-17.7s-5.15-10.57-4.64-16.72c.72-8.79,9.86-21.7,3.3-29.82-.88-1.08-2.82-.71-3.43.44l-.96-.17c-.46-.04-.64.67-.24.87h0Z"/>
          <path class="cls-10" d="m61.61,106.92c.65,2.17.15,4.03,1.27,6.1,1.05,1.94,2.67,3.49,4.4,4.83,3.75,2.92,8.11,4.45,12.86,4.75,9.81.62,23.24-4.39,27.73-13.75.98-2.03.82-4.26-.77-5.94-.28-.3-.65-.55-.99-.77-1.46-.92-3.48-.87-4.94,0-6.79,4.04-11.94,9.05-20.35,9.26-3.05.07-6.23-.22-9.19-1.01-2.4-.64-7.49-2.04-9.14-3.98-.34-.4-1.01.03-.87.51h0Z"/>
          <path class="cls-9" d="m52.26,4.86c-3.28-4.01-8.87-4.68-13.31-2.15-6.12,3.49-6.84,10.48-6.17,16.82.48,4.55.58,8.64-1.04,13-1.76,4.74-5.41,8.3-7.33,12.89-1.66,3.95-1.21,8.98,3.27,10.55,1.04.37,1.79-1.08,1.05-1.81-5.19-5.11,1.36-11.04,4.03-15.57,2.22-3.76,3.85-7.91,4.24-12.28.46-5.06-.65-10.81,1.22-15.62,2.06-5.32,8.76-6.72,13.8-5.39.27.07.41-.24.25-.43h0Z"/>
          <path class="cls-9" d="m33.24,70.01c.92,3.8-.38,7.64-.84,11.42-.53,4.33-1.13,8.26-2.86,12.3-1.84,4.3-4.06,8.38-3.15,13.21,1.33,7.03,13.68,13.25,19.18,7.4.71-.76.5-2.3-.66-2.51-3.93-.7-10.29-.33-12.86-4.14-2.77-4.1.66-9.99,2.04-13.93,2.68-7.61,3.19-16.57-.51-23.89-.1-.2-.39-.06-.34.14h0Z"/>
          <path class="cls-9" d="m20.04,84.81c1.1-2.99,1.4-6.04,2.35-9.04s3.36-4.76,5.09-7.3c.76-1.12-.49-2.39-1.64-2.14-2.86.63-5.02,3.5-6.08,6.11-.56,1.37-.96,2.87-1.03,4.35-.12,2.58,1.1,5.24.51,7.79-.12.54.63.73.82.22h0Z"/>
          <path class="cls-9" d="m48.73,85.14c.4-2.82.81-6.77,2.49-9.16s5.74-3.38,8.56-3.39c.71,0,1.14-.93.6-1.44-3.49-3.26-8.09-2.79-11.44.57-1.52,1.52-2.72,3.61-2.96,5.78-.32,2.93,1.41,4.94,1.94,7.66.08.39.76.41.82,0h0Z"/>
          <path class="cls-9" d="m40.12,150.5c-.6-2.2,3.72-3.78,5.15-4.11,2.09-.47,4.32-.52,5.84-2.2.76-.85.24-2.21-.93-2.25-2.01-.06-4.27.63-6.19,1.18-1.69.49-3.39,1.24-4.58,2.57-.92,1.03-1.5,2.47-1.15,3.86.2.82.8,1.61,1.7,1.26.13-.05.22-.17.18-.32h0Z"/>
          <path class="cls-9" d="m42.69,119.13c.44,1.26-1.81,4.03-2.1,5.54-.32,1.68-.15,3.48.25,5.12.71,2.91,2.84,7.12,6.31,6.94.81-.04,1.32-.73,1.15-1.52-.31-1.48-1.23-2.33-2.06-3.54-1.15-1.68-1.79-3.57-1.96-5.59-.22-2.71,1.01-5.12-1.17-7.2-.18-.17-.52,0-.43.25h0Z"/>
        </g>
      </g>
      <path class="cls-8" d="m39.04,28.75c.96-.83,1.41-2.12,1.53-3.34s.27-2.59.15-3.82c-.36-3.44-4.89-3.38-5.31,0-.3,2.44-.05,5.2,1.5,7.16.53.67,1.57.48,2.13,0h0Z"/>
      <path class="cls-8" d="m48.93,28.75c.96-.83,1.41-2.12,1.53-3.34s.27-2.59.15-3.82c-.36-3.44-4.89-3.38-5.31,0-.3,2.44-.05,5.2,1.5,7.16.53.67,1.57.48,2.13,0h0Z"/>
      <path class="cls-2" d="m66.11,102.53c6.92,3.83,20.59,7.31,39.17-10.67,0,0,3.78,28.87-22.11,28.97-13.75.05-19.13-6.1-21.16-11.87"/>
      <path class="cls-4" d="m33.58,67.91c-5.26-1.97-12.42-2.51-14.1,8.07-2.72,17.18,4.91,13.23,5.69,14.04.38.4,3.68-.43,7-3.25"/>
      <path class="cls-3" d="m42.33,143.77c.63-4.3-1.14-7.94-1.92-13.12-.49-3.24.54-8.89,1.54-13.26"/>
      <path class="cls-2" d="m26.87,110.25c-4.71,5.95-9.68,15.17-2.73,21.95,11.12,10.86-1.96,7.91-1.96,7.91,0,0-15.37,6.7-3.28,9.16,7.18,1.46,13.47,1.6,17.69.41"/>
      <path class="cls-2" d="m34.2,59.62c-1.13,15.17-2.16,28.95-2.16,28.95,0,0-17.63,27.58,7.99,28.82.72.03,1.42.03,2.11,0-2.59,5.91-3.56,12.86,2.47,17.43,12.38,9.4-.96,8.09-.96,8.09,0,0-14.42,8.56-2.12,9.49,12.3.94,21.63-1.53,22.42-6.71.79-5.18-1.8-8.77-3.39-14.43-1.6-5.66.7-19.63.7-19.63l.75-2.68c5.74-6.3,6.97-14.91,6.71-24.14"/>
      <path class="cls-2" d="m66.57,59.59c-.4-7.11-4.1-11.58-8.18-14.41"/>
      <path class="cls-2" d="m27.28,58.53c-2.61-.37-5.72-1.57-9.41-3.78-35.11-21.1-2.44-14.99-2.44-14.99,0,0,9.67.38,16.66-20.65"/>
      <path class="cls-2" d="m59.93,39.5c-.67,2.96-5.49,25.89-27.04,19.78-21.54-6.11-3.92-23.85-3.92-23.85,0,0,5.39-9.6,3.92-19.49C31.42,6.05,46.84.23,48.29,1.68c1.01,1.01,10.23,1.46,12.96,13.86"/>
      <path class="cls-4" d="m56.68,7.83c-1.9-3.72-.12,69.7,28.38,40.27,28.5-29.43-1.5-15.12-1.5-15.12,0,0-12.12,3.75-26.88-25.16Z"/>
      <path class="cls-2" d="m60.14,71.27c-2.49-1.62-5.67-1.77-8.28-.35-4.11,2.24-8.78,6.46-5.19,13.23,1.53,2.88,2.95,4.78,4.21,6.02,2.24,2.2,5.99,1.54,7.35-1.3l3.51-7.31s7.67,7.28,15.07.28c2.09-1.98,2.72-5.31,0-12.95-3.23-9.06-8.71-13.71-10.24-9.31s3.15,15.77-.48,14.74c-1.79-.51-4.09-1.84-5.95-3.06Z"/>
      <path class="cls-7" d="m37.34,22.25c.76,0,.76-1.17,0-1.17s-.76,1.17,0,1.17h0Z"/>
      <path class="cls-7" d="m47.48,22.02c.45,0,.45-.7,0-.7s-.45.7,0,.7h0Z"/>
      <path class="cls-7" d="m46.1,20.85l-.34.45c-.12.18-.18.38-.19.59-.05.21-.04.42.03.64.05.21.14.39.29.54.11.17.26.31.45.41.37.2.82.29,1.23.16s.72-.37.95-.73l.3-.47c.11-.18.18-.38.19-.59.05-.21.04-.42-.03-.63-.05-.2-.14-.38-.28-.54-.11-.17-.26-.31-.44-.41-.37-.19-.81-.29-1.21-.16l-.38.16c-.24.14-.42.33-.56.56h0Z"/>
      <path class="cls-7" d="m36.74,23.49l.06.03.33.14c.18.06.37.07.55.02.13,0,.24-.03.35-.09.17-.06.32-.15.45-.29l.22-.28.14-.33c.06-.18.07-.37.02-.55,0-.18-.06-.36-.16-.52l-.03-.06c-.13-.21-.29-.38-.5-.5-.22-.13-.46-.19-.71-.19l-.37.05c-.24.07-.45.19-.62.36-.14.13-.23.28-.29.45-.09.17-.13.35-.12.54,0,.25.06.49.19.71.13.21.29.38.5.5h0Z"/>
      <path class="cls-7" d="m31.93,44.53c-.15.09-.08.09.2-.02.3-.05.36-.07.18-.08v3.22c.66-.03,1.58-.14,2.14-.53s.99-1.13.76-1.86-.83-1.14-1.59-1.21c-.68-.07-1.53.3-2.12.6-.71.37-.95,1.31-.66,2.01s1.14,1.2,1.9.93c.54-.19.97-.48,1.26-.98.32-.56.26-1.38-.24-1.83-.47-.43-1.28-.63-1.83-.24h0Z"/>
      <path class="cls-12" d="m50.63,87.86c-.38-1.18-.43-2.3-.22-3.52.17-1,.54-1.85.2-2.85-.11-.31-.44-.56-.78-.44-2.9,1.01-1.74,5.48-.61,7.42.43.74,1.69.26,1.42-.6h0Z"/>
      <path class="cls-12" d="m55.52,90.54c-.05-1.72.27-3.4.36-5.1.07-1.39-1.96-1.57-2.35-.32-.6,1.88-.29,3.81.33,5.65.29.87,1.69.77,1.66-.22h0Z"/>
      <path class="cls-12" d="m43.48,151.76c.24-1.31,1.13-2.24,1.86-3.31.48-.71-.31-1.64-1.09-1.41-1.93.55-2.76,2.58-2.75,4.46,0,1.1,1.78,1.42,1.98.27h0Z"/>
      <path class="cls-12" d="m19.55,148.37c.38-.99,1.34-1.81,2.25-2.32,1.1-.62.37-2.46-.87-2.06-1.85.59-2.94,2.25-2.85,4.18.04.88,1.18.98,1.48.2h0Z"/>
      <path class="cls-11" d="m26.3,88.36c-.72-1.78-.33-3.32-.27-5.15.03-.92-1.16-1.1-1.62-.44-1.28,1.84-.52,4.43.73,6.08.39.51,1.45.24,1.16-.49h0Z"/>
    </g>
  </g>
</svg>