<?xml version="1.0" encoding="UTF-8" standalone="no"?>
<svg
   viewBox="0 0 34 38.999999"
   version="1.1"
   id="svg43"
   sodipodi:docname="creature-right-eye.svg"
   inkscape:version="1.4.2 (2aeb623e1d, 2025-05-12)"
   width="34"
   height="39"
   xmlns:inkscape="http://www.inkscape.org/namespaces/inkscape"
   xmlns:sodipodi="http://sodipodi.sourceforge.net/DTD/sodipodi-0.dtd"
   xmlns="http://www.w3.org/2000/svg"
   xmlns:svg="http://www.w3.org/2000/svg">
  <sodipodi:namedview
     id="namedview43"
     pagecolor="#ffffff"
     bordercolor="#000000"
     borderopacity="0.25"
     inkscape:showpageshadow="2"
     inkscape:pageopacity="0.0"
     inkscape:pagecheckerboard="0"
     inkscape:deskcolor="#d1d1d1"
     inkscape:zoom="4.7937399"
     inkscape:cx="52.151348"
     inkscape:cy="54.1331"
     inkscape:window-width="1600"
     inkscape:window-height="836"
     inkscape:window-x="0"
     inkscape:window-y="27"
     inkscape:window-maximized="1"
     inkscape:current-layer="Blorbo" />
  <defs
     id="defs3">
    <style
       id="style1">.cls-1,.cls-13,.cls-14,.cls-15,.cls-19,.cls-2,.cls-24,.cls-25{fill:none;}.cls-2,.cls-21,.cls-24,.cls-25{stroke:#871e6e;}.cls-11,.cls-13,.cls-14,.cls-15,.cls-19,.cls-2,.cls-21,.cls-24{stroke-miterlimit:10;}.cls-2,.cls-21{stroke-width:0;}.cls-3{clip-path:url(#clip-path);}.cls-21,.cls-4{fill:#fed3f0;}.cls-5{fill:#b679e2;}.cls-6{fill:#753fa0;}.cls-11,.cls-7{fill:#fe9cdf;}.cls-8{fill:#fefefe;}.cls-9{opacity:0.57;}.cls-10{opacity:0.4;}.cls-11{stroke:#6f1e5f;}.cls-11,.cls-13,.cls-14,.cls-15,.cls-19,.cls-24,.cls-25{stroke-width:3px;}.cls-12{fill:#1d1d1b;}.cls-13{stroke:#1d1d1b;}.cls-14{stroke:#7e2082;}.cls-15{stroke:#29183d;}.cls-16{fill:#3ad9c6;}.cls-17{fill:#32a0bc;}.cls-18{fill:#40ebe0;}.cls-19{stroke:#036573;}.cls-20{clip-path:url(#clip-path-2);}.cls-22{fill:#871e6e;}.cls-23{opacity:0.58;}.cls-25{stroke-linecap:round;stroke-linejoin:round;}.cls-26{clip-path:url(#clip-path-3);}.cls-27{opacity:0.59;}.cls-28{fill:#fff;}</style>
    <clipPath
       id="clip-path"
       transform="translate(3.92)">
      <path
         class="cls-1"
         d="m 56,28.71 c 0,0 -22.08,-4.84 -33.12,10.82 -11.04,15.66 -20.5,41.55 2.36,60.69 22.86,19.14 54.6,16.81 64.85,2.51 C 100.34,88.43 103.69,65 95.41,52.87 87.13,40.74 75.5,29.87 56,28.71 Z"
         id="path1" />
    </clipPath>
    <clipPath
       id="clip-path-2"
       transform="translate(3.92)">
      <path
         class="cls-2"
         d="m 26.89,92 c 0,0 -7.49,-13.25 -18.13,-9 -6.43,2.59 -8.26,11.51 -5,18.16 2.1,4.37 6.37,7.77 12.93,7.77 C 33.19,109 30.74,96.88 26.89,92 Z"
         id="path2" />
    </clipPath>
    <clipPath
       id="clip-path-3"
       transform="translate(3.92)">
      <path
         class="cls-2"
         d="m 64.47,107.6 c 0,0 -11.63,-9.91 -20.14,-2.32 -5.15,4.57 -3.76,13.57 1.57,18.76 3.49,3.4 8.69,5.17 14.85,3 15.57,-5.56 9.06,-16.1 3.72,-19.44 z"
         id="path3" />
    </clipPath>
  </defs>
  <g
     id="Calque_2"
     data-name="Calque 2">
    <g
       id="Blorbo"
       transform="translate(-1.043027,1.043027)">
      <path
         class="cls-12"
         d="m 5.0188203,14.338717 c -2.911062,5.662669 -0.03109,12.581098 4.38347,16.69417 4.4145597,4.113071 12.9761177,4.897882 15.9795117,-1.563582 l -6.800866,2.735822 1.880556,0.63813 c 4.702646,1.600163 7.957009,-3.097807 7.374641,-7.213465 -0.735327,-5.222729 -5.79161,-9.220942 -9.596501,-12.417769 l -7.030799,9.056173 -0.06776,0.01758 c 5.071642,5.450922 13.129795,-2.632089 8.21768,-8.145068 a 12.55,12.55 0 0 0 -2.299206,-1.893212 c -5.321183,-3.7848395 -11.9806647,4.751406 -7.030798,9.056174 1.322084,1.113639 2.542718,2.274265 3.746872,3.490823 0.545777,0.55057 1.110914,1.096116 1.605783,1.649564 0.340674,0.397167 0.810909,1.452903 0.727175,0.493169 l 7.556019,-5.638536 -1.827503,-0.672558 c -2.310122,-0.939912 -5.660873,0.559744 -6.791186,2.733311 0.510325,-0.979575 2.27467,-0.590233 2.544169,-1.104403 L 16.708595,21.047738 A 12.49,12.49 0 0 1 14.559953,15.633854 C 13.728006,11.273021 6.9941443,10.365218 5.0209653,14.307167 Z"
         id="path13" />
      <path
         class="cls-13"
         d="m 26.321905,31.539548 a 14.66,14.66 0 0 0 4.912931,-6.109797 11.92,11.92 0 0 0 0.882126,-6.076335 C 31.353216,13.662828 29.33773,5.4972945 24.820288,3.1775485 20.302847,0.85780253 12.423082,-0.44484947 6.2543533,9.5447245 0.08562329,19.534298 8.5278743,32.799124 12.636402,34.140203 c 2.05552,0.675379 6.032323,3.021767 13.685503,-2.600655 z"
         id="path17" />
      <path
         class="cls-13"
         d="m 4.3497223,13.830478 c 0,0 18.4518707,-11.8234285 25.0182927,14.955741"
         id="path22" />
      <path
         class="cls-28"
         d="m 16.999869,18.348042 c 0,0 6.98433,-1.47137 7.779802,-0.117774 0.795473,1.353597 -5.31597,5.7908 -5.31597,5.7908 0,0 2.951129,4.28618 2.512597,5.701698 -0.438532,1.415517 -7.464457,-2.329891 -7.464457,-2.329891 0,0 -3.577146,4.130863 -4.6957307,4.080185 -1.118585,-0.05068 0.7576657,-8.068949 0.7576657,-8.068949 0,0 -6.4424147,-2.77072 -6.4797597,-4.785939 -0.03735,-2.015218 7.9817187,0.222418 7.9817187,0.222418 0,0 0.627137,-4.749768 2.71473,-6.737821 2.087593,-1.988054 2.209404,6.245273 2.209404,6.245273 z"
         id="path42" />
    </g>
  </g>
</svg>
