<?xml version="1.0" encoding="UTF-8" standalone="no"?>
<svg
   viewBox="0 0 98.5 131.63"
   version="1.1"
   id="svg43"
   sodipodi:docname="creature-empty.svg"
   inkscape:version="1.4.2 (2aeb623e1d, 2025-05-12)"
   width="98.5"
   height="131.63"
   xmlns:inkscape="http://www.inkscape.org/namespaces/inkscape"
   xmlns:sodipodi="http://sodipodi.sourceforge.net/DTD/sodipodi-0.dtd"
   xmlns="http://www.w3.org/2000/svg"
   xmlns:svg="http://www.w3.org/2000/svg">
  <sodipodi:namedview
     id="namedview43"
     pagecolor="#ffffff"
     bordercolor="#000000"
     borderopacity="0.25"
     inkscape:showpageshadow="2"
     inkscape:pageopacity="0.0"
     inkscape:pagecheckerboard="0"
     inkscape:deskcolor="#d1d1d1"
     inkscape:zoom="4.7937399"
     inkscape:cx="52.151348"
     inkscape:cy="65.815002"
     inkscape:window-width="1600"
     inkscape:window-height="836"
     inkscape:window-x="0"
     inkscape:window-y="27"
     inkscape:window-maximized="1"
     inkscape:current-layer="Blorbo" />
  <defs
     id="defs3">
    <style
       id="style1">.cls-1,.cls-13,.cls-14,.cls-15,.cls-19,.cls-2,.cls-24,.cls-25{fill:none;}.cls-2,.cls-21,.cls-24,.cls-25{stroke:#871e6e;}.cls-11,.cls-13,.cls-14,.cls-15,.cls-19,.cls-2,.cls-21,.cls-24{stroke-miterlimit:10;}.cls-2,.cls-21{stroke-width:0;}.cls-3{clip-path:url(#clip-path);}.cls-21,.cls-4{fill:#fed3f0;}.cls-5{fill:#b679e2;}.cls-6{fill:#753fa0;}.cls-11,.cls-7{fill:#fe9cdf;}.cls-8{fill:#fefefe;}.cls-9{opacity:0.57;}.cls-10{opacity:0.4;}.cls-11{stroke:#6f1e5f;}.cls-11,.cls-13,.cls-14,.cls-15,.cls-19,.cls-24,.cls-25{stroke-width:3px;}.cls-12{fill:#1d1d1b;}.cls-13{stroke:#1d1d1b;}.cls-14{stroke:#7e2082;}.cls-15{stroke:#29183d;}.cls-16{fill:#3ad9c6;}.cls-17{fill:#32a0bc;}.cls-18{fill:#40ebe0;}.cls-19{stroke:#036573;}.cls-20{clip-path:url(#clip-path-2);}.cls-22{fill:#871e6e;}.cls-23{opacity:0.58;}.cls-25{stroke-linecap:round;stroke-linejoin:round;}.cls-26{clip-path:url(#clip-path-3);}.cls-27{opacity:0.59;}.cls-28{fill:#fff;}</style>
    <clipPath
       id="clip-path"
       transform="translate(3.92)">
      <path
         class="cls-1"
         d="m 56,28.71 c 0,0 -22.08,-4.84 -33.12,10.82 -11.04,15.66 -20.5,41.55 2.36,60.69 22.86,19.14 54.6,16.81 64.85,2.51 C 100.34,88.43 103.69,65 95.41,52.87 87.13,40.74 75.5,29.87 56,28.71 Z"
         id="path1" />
    </clipPath>
    <clipPath
       id="clip-path-2"
       transform="translate(3.92)">
      <path
         class="cls-2"
         d="m 26.89,92 c 0,0 -7.49,-13.25 -18.13,-9 -6.43,2.59 -8.26,11.51 -5,18.16 2.1,4.37 6.37,7.77 12.93,7.77 C 33.19,109 30.74,96.88 26.89,92 Z"
         id="path2" />
    </clipPath>
    <clipPath
       id="clip-path-3"
       transform="translate(3.92)">
      <path
         class="cls-2"
         d="m 64.47,107.6 c 0,0 -11.63,-9.91 -20.14,-2.32 -5.15,4.57 -3.76,13.57 1.57,18.76 3.49,3.4 8.69,5.17 14.85,3 15.57,-5.56 9.06,-16.1 3.72,-19.44 z"
         id="path3" />
    </clipPath>
  </defs>
  <g
     id="Calque_2"
     data-name="Calque 2">
    <g
       id="Blorbo"
       transform="translate(-1.043027,1.043027)">
      <g
         class="cls-3"
         clip-path="url(#clip-path)"
         id="g11"
         transform="rotate(-14.546338,56.906018,93.819095)">
        <path
           class="cls-4"
           d="m 54.75,28.24 c 0,0 -22.07,-4.83 -33.11,10.83 C 10.6,54.73 1.14,80.62 24,99.76 46.86,118.9 78.59,116.57 88.84,102.27 99.09,87.97 102.44,64.58 94.16,52.4 85.88,40.22 74.26,29.4 54.75,28.24 Z"
           transform="translate(3.92)"
           id="path4" />
        <path
           class="cls-5"
           d="m 35.67,96.51 a 4,4 0 0 0 4.25,1.57 3,3 0 0 0 2,-3.58 3,3 0 0 0 -3.58,-2 l -2.22,0.4 a 3,3 0 0 0 -1.79,1.37 3.1,3.1 0 0 0 -0.33,1.88 3,3 0 0 0 3,2.59 c 0.91,0 1.8,0.06 2.7,0 a 3,3 0 0 0 0,-6 c -0.9,-0.05 -1.79,0 -2.7,0 l 0.8,5.87 2.17,-0.55 -1.54,-5.61 a 4.29,4.29 0 0 0 -1.15,0.58 c -0.35,0.27 -0.4,0.3 -0.13,0.11 0.27,-0.19 0.22,-0.17 0,0 -0.22,0.17 0.1,0 0.19,-0.06 -0.23,0.15 -0.58,0.21 -0.83,0.34 a 2.3,2.3 0 0 0 -0.82,3.11 z"
           transform="translate(3.92)"
           id="path5" />
        <path
           class="cls-6"
           d="m 37.69,102.83 v 0.07 l -0.35,-0.83 a 11.26,11.26 0 0 0 0.48,1.13 l -0.36,-0.85 v 0.07 L 42.76,98.35 42.08,98 41.91,97.92 a 2.7,2.7 0 0 0 -1.39,-0.45 3.52,3.52 0 0 0 -1.7,0.11 3.64,3.64 0 0 0 -2.34,2.09 3.43,3.43 0 0 0 0.18,3.22 4.09,4.09 0 0 0 2.56,1.9 l 0.81,0.15 a 4.15,4.15 0 0 0 1.92,0 3.52,3.52 0 0 0 1.87,-1.29 3.66,3.66 0 0 0 0.28,-4 4.25,4.25 0 0 0 -1.44,-1.48 4.47,4.47 0 0 0 -2,-0.52 3.45,3.45 0 0 0 -3,1.71 3.38,3.38 0 0 0 -0.47,1.73 3.42,3.42 0 0 0 0.47,1.74 z"
           transform="translate(3.92)"
           id="path6" />
        <ellipse
           class="cls-7"
           cx="21.85"
           cy="85.080002"
           rx="6.4699998"
           ry="8.25"
           id="ellipse6" />
        <circle
           class="cls-7"
           cx="75.370003"
           cy="103.41"
           r="9.4099998"
           id="circle6" />
        <g
           class="cls-9"
           id="g9">
          <path
             class="cls-8"
             d="m 45.22,25.88 c -12.4,-1.45 -22.36,9 -28.45,18.61 -6.88,10.86 -12.33,24 -10.55,37 0.69,5.07 9.31,3.9 9,-1.22 -0.7,-10.57 4.33,-21.19 9.56,-30.12 5.23,-8.93 12.83,-14.7 21.55,-20.15 2,-1.25 1,-3.89 -1.11,-4.13 z"
             transform="translate(3.92)"
             id="path9" />
        </g>
        <g
           class="cls-10"
           id="g10">
          <path
             class="cls-6"
             d="m 89,44.32 c -1.05,4.25 0.16,8.86 0.43,13.18 a 56.31,56.31 0 0 1 -0.93,15 c -1.82,8.65 -5.34,17.5 -11.59,23.89 -13.87,14.28 -33.38,11.1 -48.67,1 -5.1,-3.36 -9.67,4.7 -4.75,8.12 13.53,9.38 32,11.24 48.05,9.39 C 88,113 97.42,97.37 99.26,82 c 0.78,-6.5 -10,-7.85 -11.39,-1.54 -1.35,6 -2.86,11.65 -6.33,16.8 -3.67,5.44 -8.66,7.41 -15.07,7.81 -11.92,0.74 -28,2.05 -37.28,-6.91 l -6.65,6.65 c 16.82,14.27 43.68,16.71 60.72,1.18 A 50,50 0 0 0 98.37,77.12 62.08,62.08 0 0 0 98.43,59.32 C 97.72,53.98 96.86,47.32 93,43.26 a 2.41,2.41 0 0 0 -4,1.06 z"
             transform="translate(3.92)"
             id="path10" />
        </g>
      </g>
      <path
         class="cls-11"
         d="m 29.574991,49.111428 a 3.28,3.28 0 0 1 2.616061,-3.654193 c 2.030907,-0.454663 4.733791,-0.350177 4.825638,3.42786 0.125096,5.060805 -6.763212,4.513343 -7.441699,0.226333 z"
         id="path11" />
      <path
         class="cls-11"
         d="m 58.013324,47.46603 a 3.21,3.21 0 0 1 1.243508,4.274704 c -0.919935,1.829705 -2.731113,3.808021 -5.792599,1.565054 -4.065502,-3.046555 0.775615,-7.959964 4.549091,-5.839758 z"
         id="path12" />
      <path
         class="cls-14"
         d="m 40.566562,30.793571 c 0,0 -22.578171,0.858313 -29.331071,18.789168 C 4.4825921,67.513593 1.8284421,94.949686 28.772598,107.73205 55.716754,120.51442 85.82722,110.26318 92.164558,93.876192 98.501898,77.4892 95.852228,53.939818 84.791043,44.278276 73.729854,34.616735 59.742514,27.016199 40.566562,30.793571 Z"
         id="path18" />
      <path
         class="cls-13"
         d="m 38.586399,104.78264 c 0,0 -4.225839,-6.889462 1.117217,-8.275881 5.343055,-1.386419 9.656975,6.678611 8.58497,9.952811 -1.072005,3.2742 -5.549745,5.68616 -9.702187,-1.67693 z"
         id="path19" />
      <path
         class="cls-15"
         d="m 39.705331,106.50688 c 0,0 -2.363694,-8.591733 8.209178,-4.19636"
         id="path20" />
      <path
         class="cls-16"
         d="M 63.212922,9.5341718 C 59.887948,2.2146536 51.240628,1.0595115 43.556015,2.0617273 35.871403,3.0639431 20.529863,10.62969 26.708995,26.599641 c 2.527106,6.514095 7.802906,9.287926 13.16474,10.283133 a 3.16,3.16 0 0 1 2.392292,-0.455454 c 3.491382,0.674722 7.058558,0.327655 10.588485,0.155551 0.125832,-0.03265 0.262079,0.01465 0.388279,0.02322 1.486713,-0.282461 2.391558,-0.537913 2.391558,-0.537913 l -0.857298,-0.397415 a 3,3 0 0 1 -3.072114,0.104965 38.69,38.69 0 0 1 -9.227099,-6.614524 3,3 0 0 1 -0.81232,-1.338894 C 37.942604,24.025666 38.046123,20.124617 39.602487,15.133732 a 4.56,4.56 0 0 1 0.960121,-1.674833 c 3.995817,-4.5081097 7.555941,-4.2851333 10.166493,-3.381852 l 0.05808,-0.01507 a 2.49,2.49 0 0 1 1.229347,-0.04005 2.35,2.35 0 0 1 1.131201,0.378001 3.91,3.91 0 0 1 0.896073,0.666298 3.63,3.63 0 0 1 0.904883,1.655804 3.22,3.22 0 0 1 -0.04591,1.654567 l -0.31606,0.732875 a 3,3 0 0 1 -1.125154,1.118449 l -0.775766,0.314939 a 2.41,2.41 0 0 1 -1.236516,0.05224 2.82,2.82 0 0 1 -2.001848,-1.185202 v 0 l -0.02261,-0.08711 c -2.635128,-0.122066 -4.063958,0.940875 -4.510701,2.523822 -0.480746,1.85005 -0.783014,6.856449 8.483309,7.251764 9.266322,0.395316 13.142973,-8.235001 9.815487,-15.5641991 z"
         id="path23" />
      <path
         class="cls-17"
         d="m 31.038723,24.453375 c 0.114645,3.069602 1.314857,6.022819 2.023194,9.03135 l 6.59746,3.567314 a 3.11,3.11 0 0 1 2.60665,-0.624719 c 3.491382,0.674722 7.058558,0.327655 10.588485,0.155551 a 4.11,4.11 0 0 1 0.555708,0.03143 l -0.195482,-0.434837 a 3.08,3.08 0 0 1 -1.540983,-0.364651 38.69,38.69 0 0 1 -9.2271,-6.614524 2.8,2.8 0 0 1 -0.86346,-2.451721 8.06,8.06 0 0 1 -0.460865,-0.820551 C 38.418656,20.286231 38.803789,12.055668 48.834866,10.899161 a 2.74,2.74 0 0 1 0.677561,-0.175814 v 0 C 38.525154,8.2744427 30.679119,14.029557 31.038723,24.453375 Z"
         id="path24" />
      <path
         class="cls-18"
         d="m 54.625434,15.099426 a 3,3 0 0 1 -1.125154,1.118449 l -0.775766,0.314939 a 2.41,2.41 0 0 1 -1.236516,0.05224 2.82,2.82 0 0 1 -2.001848,-1.185202 v 0 l -0.200815,-0.216502 -2.948503,1.457267 c 0.149403,1.252629 0.310997,2.512426 0.562391,4.596076 l 4.015463,2.057416 c 1.564594,-1.614728 3.640478,-3.010867 4.555022,-4.90116 a 2.86,2.86 0 0 0 -0.700551,-3.496117 z"
         id="path25" />
      <path
         class="cls-19"
         d="M 63.348434,9.499009 C 60.004101,2.1845141 51.37614,1.0243486 43.691528,2.0265645 36.006916,3.0287803 20.665375,10.594528 26.844508,26.564478 c 6.179132,15.969951 28.925353,9.46854 28.925353,9.46854 L 53.607809,35.10634 A 3.53,3.53 0 0 1 52.64624,34.983927 17.76,17.76 0 0 1 46.593399,31.564568 C 38.099773,26.423039 37.659968,21.702174 39.708961,15.106104 a 4.56,4.56 0 0 1 0.960121,-1.674833 c 5.09371,-5.6918032 9.335355,-3.837714 11.997241,-2.617156 2.661886,1.220558 1.987279,5.269793 -1.651806,4.623066 -3.639086,-0.646728 -5.503858,0.488008 -5.982093,2.347737 -0.478235,1.859729 -0.763655,6.851425 8.502667,7.246741 9.266323,0.395315 13.140829,-8.203452 9.813343,-15.53265 z"
         id="path26" />
      <g
         class="cls-20"
         clip-path="url(#clip-path-2)"
         id="g30"
         transform="rotate(-14.546338,56.906018,93.819095)">
        <path
           class="cls-21"
           d="m 26.23,91.18 c 0,0 -7.49,-13.18 -18.14,-8.91 -6.42,2.58 -8.25,11.5 -5,18.16 2.1,4.36 6.37,7.76 12.93,7.76 16.51,0 14.06,-12.08 10.21,-17.01 z"
           transform="translate(3.92)"
           id="path27" />
        <g
           class="cls-10"
           id="g28">
          <path
             class="cls-22"
             d="m -0.8,94.6 c -1.46,5.59 3.87,10.5 8.33,13 6.25,3.54 14.44,4.11 20.79,0.6 4.31,-2.39 1.16,-8.16 -3.14,-7.46 -5,0.82 -9.73,1.68 -14.71,-0.12 -3.92,-1.42 -5.91,-4.53 -9,-7 A 1.52,1.52 0 0 0 -0.8,94.6 Z"
             transform="translate(3.92)"
             id="path28" />
        </g>
        <g
           class="cls-23"
           id="g29">
          <path
             class="cls-22"
             d="M 26.07,92.73 C 24.59,88.39 23.49,85.65 19.26,83.09 A 16.25,16.25 0 0 0 5.1,81.66 C -0.88,84.05 -8,94.26 -1,99.39 A 1.71,1.71 0 0 0 1.08,99.12 C 3.83,96 4.26,91.07 8.6,89.36 c 2.91,-1.14 6.25,-0.35 8.92,1 a 69.63,69.63 0 0 1 6.84,3.64 1.17,1.17 0 0 0 1.71,-1.31 z"
             transform="translate(3.92)"
             id="path29" />
        </g>
      </g>
      <path
         class="cls-2"
         d="m 29.253734,99.114989 c 0,0 -10.577816,-10.944059 -19.8093059,-4.15792 -5.573374,4.121955 -5.104339,13.215651 -0.278606,18.833691 3.1302659,3.70247 8.1173449,5.92102 14.4670629,4.27339 15.988671,-4.07643 10.573111,-15.19257 5.620849,-18.949161 z"
         id="path30" />
      <path
         class="cls-24"
         d="m 28.494332,98.816143 c 0,0 -10.565257,-10.895661 -19.7988929,-4.077972 -5.563693,4.119443 -5.097171,13.203459 -0.278605,18.833689 3.1302659,3.70248 8.1173439,5.92102 14.4670619,4.27339 15.98077,-4.1467 10.575257,-15.22412 5.610436,-19.029107 z"
         id="path31" />
      <path
         class="cls-25"
         d="m 13.396517,104.33506 c 0,0 -6.2926269,2.06672 -4.2395239,10.09852"
         id="path32" />
      <path
         class="cls-25"
         d="m 21.860313,109.12274 a 8.89,8.89 0 0 0 -3.436246,9.3322"
         id="path33" />
      <g
         class="cls-26"
         clip-path="url(#clip-path-3)"
         id="g37"
         transform="rotate(-14.546338,58.1233,90.341505)">
        <path
           class="cls-21"
           d="m 64.68,108.27 c 0,0 -11.63,-9.9 -20.15,-2.27 -5.14,4.58 -3.76,13.57 1.57,18.76 3.5,3.4 8.69,5.17 14.86,3 15.56,-5.61 9.04,-16.14 3.72,-19.49 z"
           transform="translate(3.92)"
           id="path34" />
        <g
           class="cls-10"
           id="g35">
          <path
             class="cls-22"
             d="m 63.21,114.79 c -2.32,4 -4.77,5 -9.44,5.37 -3.93,0.27 -6.14,-2.29 -9.5,-3.73 -2.53,-1.09 -6.39,0.09 -6.11,3.51 0.69,8.43 9.6,12.37 17.2,11.59 8.9,-0.91 15.64,-5 15.22,-14.74 -0.16,-3.83 -5.35,-5.52 -7.37,-2 z"
             transform="translate(3.92)"
             id="path35" />
        </g>
        <g
           class="cls-27"
           id="g36">
          <path
             class="cls-22"
             d="m 41.94,114.32 c 2.67,-4.52 7,-5.86 12,-5.55 3.87,0.24 6.39,2.41 9.58,4.32 3,1.78 6.33,-1.74 4.67,-4.67 -3.11,-5.5 -10,-7.26 -15.93,-6.21 -6.51,1.16 -11.22,4.42 -13.21,10.89 a 1.59,1.59 0 0 0 2.89,1.22 z"
             transform="translate(3.92)"
             id="path36" />
        </g>
      </g>
      <path
         class="cls-2"
         d="m 69.547242,104.77622 c 0,0 -13.746223,-6.671302 -20.077107,2.81279 -3.837101,5.717 -0.231192,14.07939 6.23149,17.76432 4.232081,2.41445 9.709953,2.82167 15.127469,-0.82593 13.674435,-9.29238 4.725857,-17.85945 -1.281852,-19.75118 z"
         id="path37" />
      <path
         class="cls-24"
         d="m 69.858375,106.21417 c 0,0 -13.743712,-6.661624 -20.086787,2.8153 -3.82491,5.72417 -0.231191,14.07939 6.23149,17.76432 4.241761,2.41194 9.709953,2.82167 15.137149,-0.82845 13.677314,-9.24147 4.725857,-17.85944 -1.281852,-19.75117 z"
         id="path38" />
      <path
         class="cls-25"
         d="m 57.521403,116.44057 c 0,0 -5.21021,4.04838 -0.482818,10.88003"
         id="path39" />
      <path
         class="cls-25"
         d="m 67.174825,118.08882 a 8.77,8.77 0 0 0 -0.02628,9.85242"
         id="path40" />
      <path
         class="cls-6"
         d="m 36.444175,90.554613 a 3.78,3.78 0 0 0 0.812069,1.855517 l -0.515812,-1.271196 0.01758,0.06776 a 2.14,2.14 0 0 0 1.490055,1.999859 8.7,8.7 0 0 0 1.108596,0.290886 l -0.938712,-0.551925 a 3.35,3.35 0 0 0 2.370711,0.934522 c 2.75416,0.142835 3.34484,-4.070583 0.694893,-4.76735 -0.756156,-0.206708 -1.514824,-0.423095 -2.280292,-0.586061 l 0.612257,4.748435 0.154871,-0.04019 0.251666,-0.0653 c -0.17423,0.04521 -0.17423,0.04521 0,0 l 0.373576,0.0064 c 0,0 0.687299,0.1006 0.924996,0.10091 2.561247,-0.0034 3.835729,-3.691732 1.39647,-4.970058 a 5.8,5.8 0 0 0 -5.74909,0.458661 2.62,2.62 0 0 0 1.255815,4.839724 c 0.772269,0.109546 1.558507,0.153481 2.340088,0.219286 l -0.566004,-4.729466 a 3.31,3.31 0 0 0 -1.780226,0.823525 l 1.541853,-0.627367 a 9.66,9.66 0 0 1 -1.169861,-0.08903 2,2 0 0 0 -1.805285,1.005657 l -0.04552,0.06347 1.079326,-0.817285 a 1.72,1.72 0 0 0 -1.277572,0.889388 l 0.631251,-0.473732 q -0.319422,0.08288 -0.638843,0.165767 a 0.47,0.47 0 0 0 -0.32972,0.56079 z"
         id="path43" />
    </g>
  </g>
</svg>
