<?xml version="1.0" encoding="UTF-8" standalone="no"?>
<svg
   viewBox="0 0 33 39.999998"
   version="1.1"
   id="svg43"
   sodipodi:docname="creature-left-eye.svg"
   inkscape:version="1.4.2 (2aeb623e1d, 2025-05-12)"
   width="33"
   height="40"
   xmlns:inkscape="http://www.inkscape.org/namespaces/inkscape"
   xmlns:sodipodi="http://sodipodi.sourceforge.net/DTD/sodipodi-0.dtd"
   xmlns="http://www.w3.org/2000/svg"
   xmlns:svg="http://www.w3.org/2000/svg">
  <sodipodi:namedview
     id="namedview43"
     pagecolor="#ffffff"
     bordercolor="#000000"
     borderopacity="0.25"
     inkscape:showpageshadow="2"
     inkscape:pageopacity="0.0"
     inkscape:pagecheckerboard="0"
     inkscape:deskcolor="#d1d1d1"
     inkscape:zoom="4.7937399"
     inkscape:cx="52.151348"
     inkscape:cy="54.1331"
     inkscape:window-width="1600"
     inkscape:window-height="836"
     inkscape:window-x="0"
     inkscape:window-y="27"
     inkscape:window-maximized="1"
     inkscape:current-layer="Blorbo" />
  <defs
     id="defs3">
    <style
       id="style1">.cls-1,.cls-13,.cls-14,.cls-15,.cls-19,.cls-2,.cls-24,.cls-25{fill:none;}.cls-2,.cls-21,.cls-24,.cls-25{stroke:#871e6e;}.cls-11,.cls-13,.cls-14,.cls-15,.cls-19,.cls-2,.cls-21,.cls-24{stroke-miterlimit:10;}.cls-2,.cls-21{stroke-width:0;}.cls-3{clip-path:url(#clip-path);}.cls-21,.cls-4{fill:#fed3f0;}.cls-5{fill:#b679e2;}.cls-6{fill:#753fa0;}.cls-11,.cls-7{fill:#fe9cdf;}.cls-8{fill:#fefefe;}.cls-9{opacity:0.57;}.cls-10{opacity:0.4;}.cls-11{stroke:#6f1e5f;}.cls-11,.cls-13,.cls-14,.cls-15,.cls-19,.cls-24,.cls-25{stroke-width:3px;}.cls-12{fill:#1d1d1b;}.cls-13{stroke:#1d1d1b;}.cls-14{stroke:#7e2082;}.cls-15{stroke:#29183d;}.cls-16{fill:#3ad9c6;}.cls-17{fill:#32a0bc;}.cls-18{fill:#40ebe0;}.cls-19{stroke:#036573;}.cls-20{clip-path:url(#clip-path-2);}.cls-22{fill:#871e6e;}.cls-23{opacity:0.58;}.cls-25{stroke-linecap:round;stroke-linejoin:round;}.cls-26{clip-path:url(#clip-path-3);}.cls-27{opacity:0.59;}.cls-28{fill:#fff;}</style>
    <clipPath
       id="clip-path"
       transform="translate(3.92)">
      <path
         class="cls-1"
         d="m 56,28.71 c 0,0 -22.08,-4.84 -33.12,10.82 -11.04,15.66 -20.5,41.55 2.36,60.69 22.86,19.14 54.6,16.81 64.85,2.51 C 100.34,88.43 103.69,65 95.41,52.87 87.13,40.74 75.5,29.87 56,28.71 Z"
         id="path1" />
    </clipPath>
    <clipPath
       id="clip-path-2"
       transform="translate(3.92)">
      <path
         class="cls-2"
         d="m 26.89,92 c 0,0 -7.49,-13.25 -18.13,-9 -6.43,2.59 -8.26,11.51 -5,18.16 2.1,4.37 6.37,7.77 12.93,7.77 C 33.19,109 30.74,96.88 26.89,92 Z"
         id="path2" />
    </clipPath>
    <clipPath
       id="clip-path-3"
       transform="translate(3.92)">
      <path
         class="cls-2"
         d="m 64.47,107.6 c 0,0 -11.63,-9.91 -20.14,-2.32 -5.15,4.57 -3.76,13.57 1.57,18.76 3.49,3.4 8.69,5.17 14.85,3 15.57,-5.56 9.06,-16.1 3.72,-19.44 z"
         id="path3" />
    </clipPath>
  </defs>
  <g
     id="Calque_2"
     data-name="Calque 2">
    <g
       id="Blorbo"
       transform="translate(-1.043027,1.043027)">
      <path
         class="cls-12"
         d="m 4.8127057,17.472458 a 15.2,15.2 0 0 0 0.385167,4.032523 c 0.872191,4.794631 7.4470863,5.01017 9.7770523,1.368226 a 7.89,7.89 0 0 0 0.994067,-2.220863 c 0.09637,-0.345272 0.675263,-2.613373 0.0083,-1.241906 l -2.014814,1.989831 0.591123,-0.349677 -4.280943,0.542608 c -0.6820243,-0.597866 -0.5891523,-0.518653 0.268937,0.24015 a 18.19,18.19 0 0 1 1.327166,1.411925 10.13,10.13 0 0 1 1.382228,2.420423 l 10.811944,-2.80549 q -1.213137,-3.042844 -2.448144,-6.090344 l -8.215574,6.202262 a 3.56,3.56 0 0 1 0.957994,1.900302 c 0.150698,0.580767 0.301396,1.161534 0.452093,1.742301 0.110512,0.425895 0.02332,1.801903 0.122085,0.908457 l 0.789948,-2.80843 -0.291736,0.468284 2.079691,-2.058321 c -0.693984,0.510673 0.03767,0.145192 -0.492184,0.293011 a 9.91,9.91 0 0 0 -2.239816,0.963442 8,8 0 0 0 -3.234019,4.258782 l 9.534256,-2.473955 A 20.91,20.91 0 0 1 16.457941,20.546121 C 13.498428,15.590591 4.8254477,18.636561 6.7354077,24.4843 a 22.67,22.67 0 0 0 6.2473933,9.743207 c 2.438389,2.270343 7.370174,2.364686 9.000341,-1.14733 q -3.036237,1.955267 -1.131955,1.17187 c 0.66966,-0.246082 1.329272,-0.530882 1.981351,-0.84472 a 7.9,7.9 0 0 0 2.474345,-2.408674 8.1,8.1 0 0 0 0.670899,-6.372786 C 24.932875,20.041364 22.894609,16.127852 19.04248,13.346198 15.190351,10.564544 9.0774977,15.115755 10.826907,19.54846 q 1.196289,3.057547 2.419106,6.097879 c 1.130987,2.805881 3.620594,4.835648 6.814812,4.006811 2.652169,-0.688187 5.104104,-3.979526 3.997132,-6.812301 -1.73005,-4.437728 -4.464676,-8.924723 -8.805376,-11.279999 a 6.78,6.78 0 0 0 -7.9771403,1.109115 7.59,7.59 0 0 0 -1.757526,3.100823 c -0.209219,0.746476 -0.04432,2.377338 -0.262177,2.971088 l 10.3575883,0.101822 a 15.57,15.57 0 0 0 -1.701572,-3.690942 4.88,4.88 0 0 0 -9.0212463,2.340838 z"
         id="path14" />
      <path
         class="cls-13"
         d="m 25.578553,32.085263 a 14.65,14.65 0 0 0 5.219679,-6.798931 11.69,11.69 0 0 0 0.65747,-5.429165 C 30.691956,14.166579 28.67647,6.0010466 24.159028,3.6813006 19.641587,1.3615546 11.745342,0.11483459 5.5766117,10.104409 c -6.16872893,9.989573 3.614115,23.722703 6.3845623,24.605157 2.057664,0.643829 6.01762,3.00492 13.617379,-2.624303 z"
         id="path15" />
      <path
         class="cls-12"
         d="m 2.7843307,16.30447 c 0.488588,3.117207 2.093192,5.996486 3.027036,8.998159 1.575661,5.076996 9.7153433,2.882257 7.9565063,-2.06456 A 72.78,72.78 0 0 0 9.1062467,13.713588 c -1.972596,-3.620616 -6.89988,-1.030023 -6.321916,2.590882 z"
         id="path16" />
      <path
         class="cls-13"
         d="m 4.2607277,12.956329 c 0,0 19.7225063,-11.5849194 23.3011473,17.415885"
         id="path21" />
      <path
         class="cls-28"
         d="m 10.85237,21.318813 c 0,0 -0.373979,-7.134776 1.097973,-7.713012 1.471953,-0.578235 4.942003,6.145756 4.942003,6.145756 0,0 4.685356,-2.248876 6.020617,-1.562233 1.335261,0.686642 -3.449634,7.011164 -3.449634,7.011164 0,0 3.520071,4.169544 3.289773,5.27275 -0.230298,1.103205 -7.854455,-2.001408 -7.854455,-2.001408 0,0 -2.355276,4.3407 -4.358728,4.065057 -2.0034533,-0.275643 0.04063,-6.333218 0.04063,-6.333218 0,0 -4.5961143,-1.348865 -6.2447113,-3.720832 -1.648596,-2.371968 6.5165293,-1.164024 6.5165293,-1.164024 z"
         id="path41" />
    </g>
  </g>
</svg>
