<?xml version="1.0" encoding="UTF-8" standalone="no"?>
<svg
   id="Calque_2"
   data-name="Calque 2"
   viewBox="0 0 40.46 56.509996"
   version="1.1"
   sodipodi:docname="blue_candy.svg"
   inkscape:version="1.4.2 (f4327f4, 2025-05-13)"
   width="40.459999"
   height="56.509998"
   xmlns:inkscape="http://www.inkscape.org/namespaces/inkscape"
   xmlns:sodipodi="http://sodipodi.sourceforge.net/DTD/sodipodi-0.dtd"
   xmlns="http://www.w3.org/2000/svg"
   xmlns:svg="http://www.w3.org/2000/svg">
  <sodipodi:namedview
     id="namedview51"
     pagecolor="#ffffff"
     bordercolor="#999999"
     borderopacity="1"
     inkscape:showpageshadow="2"
     inkscape:pageopacity="0"
     inkscape:pagecheckerboard="0"
     inkscape:deskcolor="#d1d1d1"
     inkscape:zoom="7.3263196"
     inkscape:cx="49.683882"
     inkscape:cy="52.755001"
     inkscape:window-width="1920"
     inkscape:window-height="991"
     inkscape:window-x="-9"
     inkscape:window-y="-9"
     inkscape:window-maximized="1"
     inkscape:current-layer="g51" />
  <defs
     id="defs3">
    <style
       id="style1">
      .cls-1 {
        opacity: .74;
      }

      .cls-2 {
        fill: #782d3f;
      }

      .cls-2, .cls-3, .cls-4, .cls-5, .cls-6, .cls-7 {
        stroke-width: 0px;
      }

      .cls-8, .cls-9 {
        stroke: #3d0a0a;
      }

      .cls-8, .cls-9, .cls-10, .cls-11, .cls-12, .cls-13, .cls-14, .cls-15 {
        stroke-linecap: round;
        stroke-linejoin: round;
        stroke-width: 2.52px;
      }

      .cls-8, .cls-3, .cls-12, .cls-13, .cls-14 {
        fill: none;
      }

      .cls-9, .cls-6 {
        fill: #e16969;
      }

      .cls-16 {
        clip-path: url(#clippath-2);
      }

      .cls-17 {
        clip-path: url(#clippath-1);
      }

      .cls-10 {
        fill: #e79450;
      }

      .cls-10, .cls-12 {
        stroke: #70290d;
      }

      .cls-4 {
        fill: #fff;
      }

      .cls-5 {
        fill: #93d073;
      }

      .cls-11 {
        fill: #ffe366;
      }

      .cls-11, .cls-14 {
        stroke: #5f4600;
      }

      .cls-18 {
        clip-path: url(#clippath);
      }

      .cls-19 {
        opacity: .41;
      }

      .cls-7 {
        fill: #effdf3;
      }

      .cls-13, .cls-15 {
        stroke: #005c74;
      }

      .cls-15 {
        fill: #ade9e1;
      }
    </style>
    <clipPath
       id="clippath">
      <path
         class="cls-3"
         d="M 55.71,30.8 39.88,36.88 C 39.95,34.11 39.23,30.04 35.79,25.3 31.63,19.56 26.26,21.5 22.38,24.32 17.74,18.14 9.88,4.57 9.88,4.57 L 1.53,34.33 16.09,32.28 c -1.57,5.03 -2,13.49 7.25,16.68 7.22,2.49 11.37,-0.66 13.59,-3.74 5.28,5.9 12.35,14.63 12.35,14.63 z"
         id="path1" />
    </clipPath>
    <clipPath
       id="clippath-1">
      <path
         class="cls-3"
         d="M 84.59,30.81 91.96,1.77 c 0,0 -12.83,4.85 -14.66,13.83 -1.83,8.98 -16.21,-2.46 -16.21,-2.46 0,0 9.25,12.37 15.86,19.3 -7.94,5.35 -4.82,21.11 -4.05,21.29 14.33,3.34 25.28,-8.25 25.28,-8.25 0,0 -4.16,-13.32 -13.59,-14.68 z"
         id="path2" />
    </clipPath>
    <clipPath
       id="clippath-2">
      <path
         class="cls-3"
         d="m 87.14,100.27 c 0,0 -6.67,-26.69 -8.89,-30.62 L 64.51,78.51 C 60.32,73.5 52.17,73.24 47.78,78.75 47.11,79.59 46.43,80.54 45.75,81.63 45.67,81.76 45.6,81.88 45.53,82 L 34.47,74.75 c 0,0 -12.17,22.05 0,29.64 l 12.29,-10.4 c 2.01,1.43 4.56,2.23 6.47,2.66 1.79,0.4 3.66,0.33 5.42,-0.2 3.8,-1.14 6.12,-2.82 7.42,-4.73 l 1.84,1.86 19.24,6.68 z"
         id="path3" />
    </clipPath>
  </defs>
  <g
     id="Layer_1"
     data-name="Layer 1">
    <g
       id="g51">
      <path
         class="cls-15"
         d="m 23.675031,36.985977 c -3.19,1.28 -21.9399999,-23.81 -21.9399999,-23.81 0,0 14.3799999,11.43 16.2099999,2.46 1.83,-8.9700003 14.66,-13.8300003 14.66,-13.8300003 z"
         id="path6" />
      <path
         class="cls-15"
         d="m 13.545031,53.765977 c -0.86,-0.2 -4.7099999,-20.17 7.62,-22.77 12.33,-2.6 17.67,14.52 17.67,14.52 0,0 -10.95,11.59 -25.28,8.25 z"
         id="path8" />
      <g
         id="g32"
         transform="translate(-59.374969,0.54597673)">
        <path
           class="cls-5"
           d="m 72.43,52.6 c 3.44,2.84 7.86,1.25 11.7,-0.08 4.46,-1.54 8.72,-3.66 12.11,-7 3.7,-3.65 -1.84,-9.09 -5.67,-5.67 -4.9,4.38 -10.79,5.94 -16.88,7.98 -1.85,0.62 -3.03,3.31 -1.26,4.77 z"
           id="path29" />
        <path
           class="cls-5"
           d="m 80.76,7.03 c -1.27,5.86 -0.89,13.87 1.12,19.54 0.62,1.73 3.26,1.52 3.29,-0.45 0.04,-3.31 -0.55,-6.72 -0.8,-10.04 -0.23,-3.02 -0.25,-6.07 -0.75,-9.06 -0.24,-1.46 -2.57,-1.38 -2.87,0 v 0 z"
           id="path30" />
        <path
           class="cls-5"
           d="m 73.44,19.88 c 0.75,3.72 1.92,7.23 3.63,10.62 1.13,2.24 4.58,0.25 3.38,-1.98 -1.63,-3.03 -3.03,-6.17 -4.05,-9.46 -0.59,-1.9 -3.35,-1.11 -2.96,0.81 v 0 z"
           id="path31" />
        <path
           class="cls-5"
           d="m 82.69,29.67 h 0.05 C 82.42,29.12 82.1,28.55 81.78,27.99 l -0.03,0.1 1.33,-1.02 H 83 c 0.46,0.47 0.93,0.93 1.39,1.4 -0.51,0.69 -0.59,0.88 -0.24,0.57 0.12,-0.07 0.21,-0.16 0.28,-0.28 0.19,-0.24 0.32,-0.53 0.41,-0.82 0.18,-0.53 0.25,-1.11 0.27,-1.67 0.04,-1.07 0.12,-2.43 -0.14,-3.46 -0.36,-1.44 -2.58,-1.82 -3.28,-0.43 -0.62,1.23 -0.27,2.41 -0.02,3.7 0.08,0.4 0.1,0.76 0.05,1.17 -0.07,0.57 -0.28,1.02 -0.07,1.6 0.25,0.7 0.95,1.2 1.71,0.97 l 0.08,-0.02 c 0.63,-0.18 0.96,-0.71 1.02,-1.33 v -0.1 C 84.54,27.65 83.78,26.97 83.1,27 h -0.05 c -1.46,0.07 -1.96,2.42 -0.36,2.69 v 0 z"
           id="path32" />
      </g>
      <g
         class="cls-19"
         id="g36"
         transform="translate(-59.374969,0.54597673)">
        <g
           class="cls-17"
           clip-path="url(#clippath-1)"
           id="g35">
          <path
             class="cls-7"
             d="m 66.93,20.13 c 2.58,4.47 8.44,4.66 12.36,1.74 5.54,-4.13 5.36,-12.15 11.57,-15.61 1.94,-1.08 1.18,-4.54 -1.18,-4.35 -4.04,0.33 -6.94,3.31 -8.97,6.66 -1.64,2.7 -5.6,14.18 -10.57,9.07 -1.63,-1.68 -4.39,0.47 -3.22,2.49 v 0 z"
             id="path33" />
          <path
             class="cls-7"
             d="m 76.86,49.94 c -0.8,-5.01 1.59,-8.69 4.3,-12.6 1.03,-1.48 -0.97,-3.3 -2.42,-2.42 -5.25,3.19 -6.57,10.34 -5.16,15.92 0.55,2.16 3.61,1.21 3.27,-0.9 v 0 z"
             id="path34" />
          <path
             class="cls-2"
             d="m 78.68,53.66 c 6.06,3.17 15.25,0.24 17.66,-6.43 1.15,-3.17 0.33,-6.42 -1.15,-9.34 -1.48,-2.92 -5.89,-8.23 -1.26,-10.32 2.75,-1.24 1.12,-5.14 -1.43,-5.27 -5.92,-0.31 -7.74,6.7 -6.49,11.39 0.95,3.57 4.7,6.69 4.66,10.4 -0.07,5.9 -8.05,5.15 -11.99,6.89 -1.07,0.47 -0.96,2.18 0,2.69 v 0 z"
             id="path35" />
        </g>
      </g>
      <g
         class="cls-19"
         id="g38"
         transform="translate(-59.374969,0.54597673)" />
      <path
         class="cls-13"
         d="m 17.095031,32.085977 c -6.58,-6.99 -15.4999999,-18.91 -15.4999999,-18.91 0,0 14.3799999,11.43 16.2099999,2.46 1.83,-8.9800003 14.66,-13.8300003 14.66,-13.8300003 l -7.27,28.6600003"
         id="path40" />
      <path
         class="cls-13"
         d="m 13.405031,53.765977 c -0.86,-0.2 -4.7099999,-20.17 7.62,-22.77 12.33,-2.6 17.67,14.52 17.67,14.52 0,0 -10.95,11.59 -25.28,8.25 z"
         id="path42" />
      <g
         class="cls-1"
         id="g50"
         transform="translate(-59.374969,0.54597673)">
        <path
           class="cls-4"
           d="m 79.7,42.37 c 0.38,0.01 0.74,-0.07 1.07,-0.24 0.34,-0.11 0.64,-0.3 0.89,-0.57 0.27,-0.25 0.46,-0.55 0.57,-0.89 0.17,-0.33 0.25,-0.69 0.24,-1.07 l -0.1,-0.74 C 82.24,38.39 82,37.98 81.66,37.64 L 81.1,37.21 c -0.43,-0.25 -0.9,-0.38 -1.4,-0.38 -0.38,-0.01 -0.74,0.07 -1.07,0.24 -0.34,0.11 -0.64,0.3 -0.89,0.57 -0.27,0.25 -0.46,0.55 -0.57,0.89 -0.17,0.33 -0.25,0.69 -0.24,1.07 l 0.1,0.74 c 0.13,0.47 0.37,0.88 0.71,1.22 l 0.56,0.43 c 0.43,0.25 0.9,0.38 1.4,0.38 z"
           id="path50" />
      </g>
    </g>
  </g>
</svg>
