<svg xmlns="http://www.w3.org/2000/svg" xmlns:xlink="http://www.w3.org/1999/xlink" viewBox="0 0 251.28 260.74"><defs><style>.cls-1,.cls-14,.cls-15,.cls-16,.cls-17,.cls-20,.cls-21{fill:none;}.cls-18,.cls-2{fill:#f391bc;}.cls-14,.cls-2{stroke:#563822;}.cls-14,.cls-15,.cls-16,.cls-17,.cls-2,.cls-20,.cls-21,.cls-3,.cls-4,.cls-5,.cls-6,.cls-7,.cls-8{stroke-linecap:round;stroke-linejoin:round;stroke-width:5px;}.cls-3{fill:#86cb9b;}.cls-15,.cls-3{stroke:#231f20;}.cls-4,.cls-6{fill:#ddf1f3;}.cls-16,.cls-4{stroke:#1a2c2d;}.cls-5{fill:#3cc6f4;}.cls-17,.cls-5{stroke:#1c3026;}.cls-20,.cls-6{stroke:#016673;}.cls-7{fill:#67469c;}.cls-21,.cls-7{stroke:#221d3d;}.cls-8{fill:#ef4340;stroke:#622736;}.cls-9{opacity:0.32;}.cls-10{clip-path:url(#clip-path);}.cls-11{fill:#901a3d;}.cls-12{fill:#e6fff2;}.cls-13{fill:#231f20;}.cls-19{fill:#563822;}</style><clipPath id="clip-path"><path class="cls-1" d="M248.78,103.63,192.24,34.34c-68.14-13.69-134.31,0-134.31,0-7.89,27.08-4.7,66.76-2.1,88H31.23l-2.38,35.93C16,169.72,2.64,194.38,3,247.5c0,0,83.1,21.42,150.45,3.62,0,0-7.35-40.7,3-77.91h40.32V164l41.94-9.87Z"/></clipPath></defs><g id="Calque_2" data-name="Calque 2"><g id="Layer_17" data-name="Layer 17"><polygon class="cls-2" points="248.31 103.69 191.78 34.39 177.09 103.69 188.91 165.75 238.25 154.13 248.31 103.69"/><path class="cls-2" d="M57.47,137.1S46.23,73,57.47,34.39c0,0,66.16-13.68,134.31,0,0,0,5.65,66.55-2.31,102.71"/><path class="cls-3" d="M135.13,126.66s30.7-5.94,29.55-47c-.76-26.88-21.26-35.87-46.52-35.36-17.82.37-30.47,2-41.12,16.17C67.61,73,62.42,94.62,77,115.7,93.51,139.45,135.13,126.66,135.13,126.66Z"/><path class="cls-4" d="M131.41,123.17s25.78-5,24.81-39.86c-.63-22.79-17.84-30.41-39.06-30-15,.31-25.59,1.69-34.53,13.7-7.92,10.63-12.28,29,0,46.84C96.46,134,131.41,123.17,131.41,123.17Z"/><path class="cls-5" d="M140.09,116.48s15.71-4.41,15.12-34.9c-.39-20-10.88-26.62-23.8-26.24-9.12.27-15.6,1.48-21,12-4.82,9.31-7.48,25.37,0,41C118.79,126,140.09,116.48,140.09,116.48Z"/><polygon class="cls-3" points="30.76 122.39 181.51 122.39 181.51 173.26 27.39 173.26 30.76 122.39"/><polygon class="cls-3" points="181.51 173.26 181.51 122.39 196.32 126.26 196.32 173.26 181.51 173.26"/><path class="cls-3" d="M45.34,155.43c-.25-1.81,0-14.46,0-14.46l126.42-1.8v16.26Z"/><path class="cls-5" d="M165.44,57.59c-4.67-2.19-7-7.69-4.69-12.31,1.49-3,4.93-5.74,12.47-5.73,8.47,0,10.47,5.77,10.44,10.44a7.38,7.38,0,0,1-4.3,6.67C176.29,58.05,171,60.19,165.44,57.59Z"/><path class="cls-6" d="M51.8,148.46s-49.94-3.1-49.29,99.09c0,0,83.09,21.42,150.45,3.62,0,0-11-60.65,12.77-101.55Z"/><path class="cls-7" d="M55,150.06S15.8,184.33,20.44,231.81c0,0,54.07,13.55,104.52,2.84,0,0-4.38-42.16,14.71-83.72"/><path class="cls-8" d="M71.34,216.67s-27.27-20.85-15.59-39.59c9-14.5,22.45,7.69,22.45,7.69s8.37-15.52,19.37-8.59c7.58,4.77,7.25,11.82-1.63,23C87.55,209.66,71.34,216.67,71.34,216.67Z"/><g class="cls-9"><g class="cls-10"><path class="cls-11" d="M79.76,84.07C87.2,71.93,100.24,67.21,114,67.32a62.32,62.32,0,0,1,21,3.9c5.85,2.14,10.63,6.09,16.36,8.25,3,1.14,5.52-1.72,5.75-4.38.77-8.57-8.75-15-15.63-17.92a58.65,58.65,0,0,0-29.24-4.36c-16.34,2-31.33,13.72-35.87,29.82a1.88,1.88,0,0,0,3.42,1.44Z"/><path class="cls-11" d="M199.15,123.23a23.07,23.07,0,0,0,1.76-2.31l-8.65-1.13.36,1.48c.8,3.27,4.1,4.52,7.11,4,2.47-.4,5.37.36,7.83.56,3.51.29,7,.54,10.54.81,6.84.52,14.16.36,20.9,1.63L235.48,115c-6,5.58-10.25,15.33-11,23.48a2.7,2.7,0,0,1-.64,1.68c1.63-1,1.52-1.21-.35-.54a45.38,45.38,0,0,0-5.94.31,112.87,112.87,0,0,0-15.83,2.61L214.07,152c1.1-9.59,2.32-19.16,3.57-28.72l-17.78,4.81c2.79,6.62,4.9,14.92,12.75,17.07,4.14,1.13,8.74-.44,11.8-3.29a18.47,18.47,0,0,0,2.87-3.66,11.73,11.73,0,0,0,.91-1.67c.88-1.44.76-1.39-.37.17l-14-5.68c2,9.29,10.52,13.38,18.84,8.82l-7.26.95.46.07-5.51-4.23.27.37v-9.09l-.17.28c-4.44,7.21,2.87,14.12,10,13l.35,0c3-.46,5.6-3.54,6.3-6.3a10.09,10.09,0,0,0-1.05-7.91c-2.37-3.89-6.4-5-10.65-4.33a10.72,10.72,0,0,0-3.76,1.52l4.82-1.3-1,.12,4.82,1.3-.91-.53,3.43,3.42c-.78-.39-1-.79-.58-1.18-1.42-6.31-8.78-8.35-14-5.69a14,14,0,0,0-5.21,4.68c-.32.47-2.58,3.42-1.32,2.66l4.81-1.3h.08l4.21,2.45c-1.6-1.57-2.63-6-3.48-8-4.26-10.15-17.29-8.39-18.75,2.54q-1.74,13.06-3.68,26.12c-1.12,7.44,4.17,13.72,12,12,5.58-1.21,11.14-1.93,16.8-2.62,6.15-.75,11.92-2.63,15.53-8,2.73-4.08,3.11-8.55,4.11-13.19,1.12-5.23,3.56-9.85,5.47-14.8,1.79-4.65-2.85-10.45-7.69-10.09-9.08.68-18.69-.5-27.8-.83-7.26-.25-17.79-2.41-20.69,6.38l5.57-4.24-1.37-.16c-3.45-.4-6.06,4.36-4.08,7.12a20.48,20.48,0,0,0,1.84,2.31,3.25,3.25,0,0,0,4.57,0Z"/><path class="cls-11" d="M183,125.92c-2.86,6.43-2.19,14-1.88,20.87.33,7.33,1.14,14.62,1.88,21.91,1,9.45,15.32,9.9,15.09,0-.17-7.31-.27-14.62-.85-21.91-.53-6.73-.53-15-4.12-20.87-2.08-3.43-8.25-4.2-10.12,0Z"/><path class="cls-11" d="M47.68,145.49c6.69,5.34,17.68,4.86,25.82,4.85,10.39,0,20.73-1.44,31.1-2.09,10.2-.64,20.31-.6,30.35,1.51,4.75,1,9.44,2.28,14.26,2.88a36,36,0,0,0,8.17.21c1.14-.11,2.27-.28,3.4-.48.6-.1,1.19-.23,1.78-.38q3.57-.37-1-5c-3.68,5.43,4.76,12,9.13,7,3.1-3.51,3.33-8.51-.15-12-4.63-4.6-10.48-1.32-15.84-.79-6,.59-11.93-1-17.75-2.12a101.6,101.6,0,0,0-17.74-1.94c-11.94-.25-23.78,1.43-35.64,2.56-6.07.58-12.13,1.31-18.23,1.49-5.38.15-11.6-.69-16.76,1-1.28.41-2.1,2.31-.87,3.29Z"/><path class="cls-11" d="M187.57,154.19c-3.34-6.07-13.35-5-18.89-3.33a14.17,14.17,0,0,0-8.4,6.37,21.66,21.66,0,0,0-1.61,3.81c-.71,2.05-.78,1.28.35.14-5.55,5.63-1.81,17.2,6.86,16.56,4-.31,9.16-.26,12.9-1.82s6.74-4.44,6.74-8.85c0-3.88-2.83-8-6.74-8.86-4.26-.92-8.61-.35-12.9.12l6.86,16.56a16.7,16.7,0,0,0,4.13-7.51c.11-.41.23-.82.34-1.23a5.27,5.27,0,0,1-3.47,3.08c.78.2,2.73-.75,3.43-1,5.28-1.85,14.18-7.16,10.4-14Z"/><path class="cls-11" d="M43.59,151.34c13.77,5,28,8,42.39,10.78,11.24,2.12,20.67,6.08,27.34,15.5,6.36,9,9.57,19.57,12.5,30.06,3.91,14,6.82,28.22,10.59,42.23,3.12,11.63,22.81,9.75,21.63-2.92-3.46-37.23-6.34-75.82-33.28-104.53L114.4,160.25l15.5,4.12,7.29,1.95,3.63,1,1.53.43q3.59,1.25-3-4.37c-.83.94-1,3.75-1.23,5a74,74,0,0,0-1.05,8.39,62.87,62.87,0,0,0,1.67,17.66c2.21,9.94,19.3,10.73,20.9,0,.93-6.22,1.87-12.45,2.77-18.67.4-2.81.8-5.61,1.21-8.42.22-1.55.42-3.12.67-4.67l.27-1.87q1.32-4.26-3.74,2.44H155l1,.35c5.55,2,12-2.26,13.44-7.63,1.66-6.07-2.06-11.43-7.63-13.44-11.67-4.21-17.64,7.89-19,17.15q-2.08,14.49-4.08,29h20.9a39,39,0,0,1-.29-17.33c1.5-6.81,2.41-13.77-2.84-19.35-4.22-4.47-10.81-5.36-16.45-6.87-6.68-1.79-13.35-3.62-20-5.43-10.5-2.85-17.49,10.12-10.35,17.79,22,23.62,25,58.78,26.3,89.48l21.64-2.93A397,397,0,0,0,147,197.6c-3.77-12.9-9.07-25.51-17.59-36C120,150,106.68,144.7,92.14,143.2c-16-1.65-32.89-.23-48.55,3-2.79.57-2.26,4.32,0,5.15Z"/><path class="cls-12" d="M117.71,87l-.92.45h1.75l-.94-.65.72,5.56c1.72-1.4,2-3.62,2.67-5.57a29.6,29.6,0,0,1,1.38-3c.21-.37.42-.74.64-1.11.86-1.2.81-1.23-.17-.11l-6.11.8.62.18-3.54-2.06s-.47-.76-.42-.86,0,2.64.07,1.89c0,.27-.78,2.65-.43,1.82l-.51.94q-1.59,2.3,1.08-.82l5-1.35-.69,0,7,2.91-.51-.48L127,89.92c-.61-1.53.38.61-.25-.29,0-.61,0-.61-.09,0s-.11.58.11-.46,0-1,0-.12c.56-.89.65-1,.26-.46a1.53,1.53,0,0,1-.9.75L112,85.62c-.85-1.76.48-.58-.25-.21l.07-.7a5.93,5.93,0,0,1,2.1-2.24l7.93-1-.57-.12,4.51,2.62c.9,1.38,1.11,1.6.62.67-2.5-5.17-11.1-6.38-14.81-1.91-3.34,4-4.6,8.79-1.85,13.61,3.28,5.75,11.48,6.82,16.52,2.92,7.32-5.65,7.34-16.4,3.51-24-3.29-6.5-11.34-5.9-16.17-2.08-7.21,5.7-10.35,19.36-3.26,26.45a11.2,11.2,0,0,0,17.35-2.06,23.72,23.72,0,0,0,3.5-13.14c-.13-4.29-1.21-9.16-4-12.54-3.63-4.43-10.17-5.58-14.45-1.31-2.91,2.9-4.14,8.72-3.83,12.69.3,3.67,1.91,9.07,6,10a3.59,3.59,0,0,0,4.48-3.41l.05-.91-.86,1.5.92-.45c2-1,.25-4-1.75-3Z"/><path class="cls-12" d="M162.32,44.27s0,0,0,0l.51-1.21,0,0,.8-1,0,0,1-.8,0,0,1.22-.51h-.06l1.36-.18H167a5.1,5.1,0,0,0-2.58.7l-1,.8a5.09,5.09,0,0,0-1.32,2.25,3.93,3.93,0,0,0-.09,2,3.84,3.84,0,0,0,.61,1.9,3.92,3.92,0,0,0,1.31,1.43,4,4,0,0,0,1.74.92,5.23,5.23,0,0,0,2.72,0l0,0c.08,0,1.17-.48,1.23-.52h0l0,0c.05,0,1-.77,1-.8a3.93,3.93,0,0,0,.82-1.05,4.15,4.15,0,0,0,.27-.64,5.19,5.19,0,0,0,.27-.63l.18-1.36v0c0-.05-.18-1.31-.18-1.36l-.51-1.21a3.89,3.89,0,0,0-1.31-1.42,2.53,2.53,0,0,0-1.12-.65,3.83,3.83,0,0,0-2-.43l-1.34.18-1.21.51a3.79,3.79,0,0,0-1.42,1.3,3.87,3.87,0,0,0-.91,1.72Z"/><path class="cls-12" d="M58.28,41.48c4.67-1.11,10.15-.75,15-1.39,4.56-.6,9.13-1,13.7-1.54,9.21-1,18.43-1.78,27.7-2a290.45,290.45,0,0,1,53.45,3c7.65,1.23,14.38,3.42,20,8.94,5.37,5.28,9.65,11.37,14,17.47,5.37,7.52,10.87,14.93,16.43,22.31,5.87,7.78,11.46,16.16,18.1,23.31,5.25,5.64,14.48-1.62,10.6-8.18-5.32-9-12.26-17.27-18.47-25.67Q220,65.81,210.82,54.2C200.47,41,189.37,30.6,172.1,28.07a274,274,0,0,0-57.46-1.95c-9.36.62-18.73,1.62-28,3.11-5,.81-10,1.89-15,3.14s-9.64,3.79-14.53,5c-2.7.64-1.56,4.8,1.14,4.16Z"/><path class="cls-12" d="M56.59,38.71c-4,4-3.94,11.46-4.48,16.82-.75,7.42-1,14.91-1.08,22.36-.11,7.12.16,14.26.5,21.37S52,114.07,53.73,121c1.51,6,9.94,4.33,10.32-1.39.45-7-.61-14.33-1-21.33-.36-6.8-.49-13.6-.7-20.4s-.2-13.61-.34-20.41c-.11-5.56.94-13.71-2.56-18.4a1.86,1.86,0,0,0-2.87-.37Z"/><path class="cls-12" d="M35.18,148.69c.87-3,1.87-6,2.67-9,.36-1.38,1-7.77,2-8.47s6,.26,7.48.3c3.29.09,6.59.14,9.88.2q19.76.42,39.52.81c12.84.24,25.68.46,38.52.8,6.56.17,13.1.35,19.67.2,6.8-.15,13.91.34,20.65-.54,3.73-.49,5.61-6.61,1-7.37-7.07-1.17-14.5-1-21.65-1.35-7.54-.41-15.08-.4-22.63-.45-14.82-.1-29.63-.36-44.45-.54s-29.65-.6-44.46-.48c-4.6,0-9,.41-11,5.18-2.54,6-2.13,13.74-1.8,20.1.13,2.59,3.85,3.24,4.6.62Z"/><path class="cls-12" d="M57.19,183.52a2.19,2.19,0,0,1,.3-1.87,1.33,1.33,0,0,0,.36-.35l-.24.15c.48-.27.47-.29,0,0a2.27,2.27,0,0,1-1.24-.05,3.48,3.48,0,0,1-2.21-2,2.93,2.93,0,0,1-.37-1.68c0,.75,0,.44.19-.93-.1.33-.58,1.81,0,.43.32-.7.35-.8.09-.28-.44.7-.22.43.68-.8q-.84.83.81-.54c1.51-.49,1.82-.64.91-.45l2.46-.33-.45,0,2.5.34a7.92,7.92,0,0,1,4.15,3.28c-.12-.27-.24-.54-.35-.81l1,2.38-.11-.42.35,2.65a3.29,3.29,0,0,1,0-1l-.36,2.67a4.25,4.25,0,0,1,.32-1l-1,2.41a10.12,10.12,0,0,1,.87-1.45l-1.59,2.06a6.6,6.6,0,0,1,.64-.76l-2.07,1.61.34-.27-2.45,1,.38-.15-2.73.37.39,0-5.2-1.4.34.25-3.7-3.71.21.39-1-2.47.11.44-.37-2.76a7.64,7.64,0,0,1,0,1.51l.37-2.77a8.22,8.22,0,0,1-.37,1.46l1.06-2.51a7.47,7.47,0,0,1-.73,1.33l1.65-2.14-.32.39L63.59,174a16.28,16.28,0,0,0-6-1.65l2.76.37-.34-.06c-3.3-.61-6.16-.27-8.85,1.81-2.29,1.77-4.37,4.9-4,8a13.14,13.14,0,0,0,1.61,5.88c1.63,2.73,3.87,3.89,6.71,5l2.81.38a8.07,8.07,0,0,0,4.08-.91,11.57,11.57,0,0,0,5-4.33c3.27-4.44,3.39-11,.87-15.75a11.23,11.23,0,0,0-12.65-5.31,12.73,12.73,0,0,0-7.37,6c-3.16,5.24-3.21,12.4,1.43,16.83,5.34,5.11,14.25,4.18,17.87-2.47S68,170.07,59.21,170a8.43,8.43,0,0,0-8.11,6.21,7,7,0,0,0,.43,5c.63,1.33,1.68,2.39,2.41,3.67,1,1.8,3.68.56,3.25-1.37Z"/><path class="cls-12" d="M72,205.82a4.2,4.2,0,0,0,2.88-1.19,3,3,0,0,0,.84-1.32,3,3,0,0,0,.36-1.57,4.13,4.13,0,0,0-1.2-2.88,4.09,4.09,0,0,0-5.77,0,3.11,3.11,0,0,0-.84,1.31,3.15,3.15,0,0,0-.35,1.57,4.15,4.15,0,0,0,1.19,2.89A4.25,4.25,0,0,0,72,205.82Z"/></g></g><path class="cls-13" d="M106.73,53.48c.69-4.07-2.23-8-3.57-11.76a35.31,35.31,0,0,1-2.26-14.94,36.62,36.62,0,0,1,4-13.15c1.93-3.85,4.48-7.2,5-11.57A1.93,1.93,0,0,0,108,.14C96.78,1,92.06,16.82,91.31,26a39.76,39.76,0,0,0,2.84,18.2c1.83,4.38,5.09,10.65,10.37,11a2.31,2.31,0,0,0,2.21-1.69Z"/><path class="cls-13" d="M85.73,60.67c-8.81,0-16.84-7.31-22.18-13.61a38,38,0,0,1-7.1-12c-1.39-4.15-.67-8.18-1.48-12.32a2.26,2.26,0,0,0-3.76-1c-7.32,9,0,24,6.33,31.33,6.78,7.86,18.65,18.31,29.28,11.63a2.17,2.17,0,0,0-1.09-4Z"/><path class="cls-13" d="M142.16,54.22c-2.58-6.36.79-13.65,3.73-19.25a95.83,95.83,0,0,1,9.47-14.69,2.24,2.24,0,0,0-1-3.68c-9-3.54-15.64,7.73-18.51,14.41-4,9.25-5.37,17.92,1.26,26.14,1.84,2.28,6.14-.19,5-2.93Z"/><polyline class="cls-14" points="196.78 163.87 238.72 154 248.78 103.55 192.24 34.25"/><path class="cls-14" d="M55.83,122.26c-2.6-21.24-5.79-60.92,2.1-88,0,0,66.17-13.68,134.31,0,0,0,4.55,53.5-.25,90.63"/><path class="cls-15" d="M148.24,120.48c8.31-6.13,17.54-18.11,16.9-41-.75-26.89-21.25-35.87-46.51-35.36-17.83.36-30.48,2-41.13,16.16-9.43,12.55-14.62,34.19,0,55.27A29.51,29.51,0,0,0,82.39,121"/><path class="cls-16" d="M135.67,121.79c7.13-3,21.75-12.23,21-38.61-.63-22.79-17.85-30.41-39.06-30-15,.3-25.59,1.68-34.54,13.69-7.92,10.64-12.27,29,0,46.84A25.05,25.05,0,0,0,90.82,121"/><path class="cls-17" d="M140.55,116.35s15.71-4.41,15.12-34.9c-.38-20-10.87-26.63-23.8-26.25-9.12.27-15.59,1.48-21,12-4.83,9.31-7.48,25.37,0,41C119.26,125.84,140.55,116.35,140.55,116.35Z"/><path class="cls-13" d="M107.2,53.35c.68-4.07-2.24-8-3.58-11.77a35.26,35.26,0,0,1-2.25-14.94,36.18,36.18,0,0,1,4-13.14c1.93-3.85,4.47-7.2,5-11.57A1.92,1.92,0,0,0,108.42,0C97.24.82,92.52,16.69,91.78,25.87a39.75,39.75,0,0,0,2.83,18.2c1.84,4.38,5.1,10.65,10.37,11a2.29,2.29,0,0,0,2.22-1.68Z"/><path class="cls-13" d="M86.2,60.54c-8.82,0-16.85-7.32-22.19-13.62a37.93,37.93,0,0,1-7.1-12c-1.39-4.15-.67-8.17-1.47-12.32a2.26,2.26,0,0,0-3.76-1c-7.32,9,0,24,6.33,31.33,6.77,7.85,18.65,18.3,29.27,11.63a2.17,2.17,0,0,0-1.08-4Z"/><path class="cls-13" d="M142.63,54.09c-2.59-6.37.79-13.65,3.72-19.26a97,97,0,0,1,9.47-14.68,2.26,2.26,0,0,0-1-3.69c-9-3.53-15.65,7.74-18.52,14.41-4,9.26-5.37,17.92,1.27,26.14,1.84,2.28,6.14-.18,5-2.92Z"/><polyline class="cls-15" points="28.85 158.19 31.23 122.26 181.97 122.26 181.97 173.13 156.46 173.13"/><polygon class="cls-15" points="181.97 173.13 181.97 122.26 196.78 126.13 196.78 173.13 181.97 173.13"/><path class="cls-15" d="M45.7,148.31c0-3.71.11-7.47.11-7.47L172.22,139v16.26h-9.11"/><path class="cls-18" d="M201.52,111.79q17,1.24,34.1,1.23"/><path class="cls-19" d="M201.1,113.33c5.45,2,11.71,1.92,17.46,2.07s12,.87,17.59-.43a2,2,0,0,0,0-3.89c-5.6-1.33-11.84-.79-17.59-1s-11.8-1-17.46.23c-1.66.34-1.36,2.58,0,3.07Z"/><path class="cls-17" d="M165.9,57.45c-4.66-2.18-7-7.69-4.69-12.3,1.49-3,4.93-5.74,12.47-5.73,8.47,0,10.47,5.77,10.44,10.43a7.36,7.36,0,0,1-4.29,6.67C176.76,57.91,171.45,60.05,165.9,57.45Z"/><path class="cls-20" d="M52.26,148.32S2.33,145.23,3,247.42c0,0,83.1,21.42,150.45,3.61,0,0-11-60.64,12.78-101.55Z"/><path class="cls-21" d="M55.49,149.93s-39.23,34.26-34.58,81.75c0,0,54.06,13.55,104.51,2.84,0,0-4.38-42.16,14.72-83.73"/><path class="cls-12" d="M126.27,75.8c.1-.36,0,.16-.11.19s.34-.52,0-.1,0,.08,0,0-.6.4-.16.15h-3a5.21,5.21,0,0,0,2,.54l-3-5.14a4,4,0,0,1-.48.8l.58-.76a4.18,4.18,0,0,1-.67.66l.83-.64a5,5,0,0,1-.81.46l5.38.69-.18-.17.71.91a1.5,1.5,0,0,1-.19-.32l.45,1.08a2.11,2.11,0,0,1-.09-.36l.16,1.23a2.41,2.41,0,0,1,0-.38l-.17,1.24a1.48,1.48,0,0,1,.1-.36l-.48,1.13a2.14,2.14,0,0,1,.2-.32l-.75,1,.08-.09-1,.76.1-.06-7.31-4.2a1.16,1.16,0,0,1,0,.32l.18-1.35a.66.66,0,0,1-.06.2l.52-1.24a1.48,1.48,0,0,1-.16.27l.84-1.1a1.87,1.87,0,0,1-.31.32l1.15-.89a1,1,0,0,1-.2.11l1.38-.58a1.25,1.25,0,0,1-.32.08A5.89,5.89,0,0,0,119,71.38,6,6,0,0,0,117.5,74a6,6,0,0,0,5.72,7.52,5.89,5.89,0,0,0,5.13-2.94A6.89,6.89,0,0,0,129,73.2,6.34,6.34,0,0,0,124.79,69a4.94,4.94,0,0,0-3.74.49,5.52,5.52,0,0,0-2.24,2.91l0,.11.49-1.15a6,6,0,0,0-.79,2.88,5.58,5.58,0,0,0,.49,2.42,5.88,5.88,0,0,0,3.69,3.4l1.18.16a3.36,3.36,0,0,0,1.71-.39A4.16,4.16,0,0,0,127.67,78a8,8,0,0,0,.71-5.78,3.43,3.43,0,0,0-2.84-2.45,3.39,3.39,0,0,0-3.4,1.63,4,4,0,0,0-.37,2.85l.29-2.26a5,5,0,0,0-.49,3.77,2.44,2.44,0,0,0,4.7,0Z"/><path class="cls-12" d="M143.12,101.67c2.53,0,2.53-3.93,0-3.93a2,2,0,0,0,0,3.93Z"/></g></g></svg>