<svg xmlns="http://www.w3.org/2000/svg" xmlns:xlink="http://www.w3.org/1999/xlink" viewBox="0 0 118.95 168.9"><defs><style>.cls-1,.cls-10,.cls-11{fill:none;}.cls-2{fill:#f7d074;}.cls-10,.cls-11,.cls-2,.cls-3,.cls-4{stroke:#221f20;stroke-width:5px;}.cls-10,.cls-2,.cls-4{stroke-linecap:round;stroke-linejoin:round;}.cls-3{fill:#e3f9fe;}.cls-11,.cls-3{stroke-miterlimit:10;}.cls-4{fill:#634c3d;}.cls-5{fill:#221f20;}.cls-6{opacity:0.4;}.cls-7{clip-path:url(#clip-path);}.cls-8{fill:#ebfef3;}.cls-9{fill:#84263d;}.cls-12{fill:#fff;}</style><clipPath id="clip-path"><path class="cls-1" d="M112.67,147.53l-6.94-38.29h0l-9-49.68h0L93.16,39.9V38.73c0-4-.18-17.55-4-20.33C87.89,17.42,83.34,17,77.6,17a53.45,53.45,0,0,0-2.4-8.13,9.41,9.41,0,0,0-8.41-6.08,163.14,163.14,0,0,0-23,.35C31.65,4.42,9.5,14.19,8.41,19.13a5.11,5.11,0,0,0-.07,1.43C8.1,23.1,9.88,27,11.75,30.36c-5.38,3-9.25,6.22-9.25,9.47,0,.23,0,.47,0,.71,0,.07,0,.15,0,.22C2.5,51.4,13.75,64,13.75,64h0c7.2,20.45,34.91,98,41.63,99.05,7.75,1.23,57.29-14.63,57.29-14.63l-.16-.88Z"/></clipPath></defs><g id="Calque_2" data-name="Calque 2"><g id="Layer_19" data-name="Layer 19"><path class="cls-2" d="M12,58.66C16.67,54.56,47.64,31.8,92.54,37l20.13,111s-49.54,15.86-57.29,14.63S12,58.66,12,58.66Z"/><path class="cls-3" d="M15.75,36.22S7.32,24.53,8.41,19.59s23.24-14.71,35.42-16a163.24,163.24,0,0,1,23-.36A9.41,9.41,0,0,1,75.2,9.29c1.89,5.06,3.93,12.1,2,15.06C74.15,29.21,15.75,36.22,15.75,36.22Z"/><path class="cls-3" d="M13.75,63.57S2.5,50.93,2.5,40.29c0-4.65,8-9.33,16.91-13.13A122.2,122.2,0,0,1,61.6,17.78c11.62-.54,25.16-.73,27.61,1.08,4.42,3.28,3.94,21.43,3.94,21.43s-75.23,13-79.4,23.28"/><path class="cls-4" d="M20.22,81.69S52.48,51.9,96.72,60l9,49.68s-43.18,4.21-65.24,24.9Z"/><ellipse class="cls-3" cx="94.3" cy="85.59" rx="21.46" ry="14.33"/><ellipse class="cls-3" cx="32.32" cy="99.92" rx="21.46" ry="14.33" transform="translate(-40.39 24.15) rotate(-25.9)"/><path class="cls-5" d="M35,90.73c.81,3.69,2,7.29,2.68,11l11.48-6.68c.28.29.13,1.53.21.69s-.76,1.28.24-.2L38.67,97c-.74-.76-.11-2.83-.7-1.32l11.32-3A25.79,25.79,0,0,1,46,86.89c-1.53-3.64-5.5-6.22-9.39-3.82-4.54,2.81-4.2,7.48-2.82,12s2.76,10,6.94,12.58c3,1.81,8.42.31,9-3.65a9.73,9.73,0,0,0-.57-5.91c-.55-1.26-1.1-2.52-1.64-3.78-.45-1.06-.88-2.12-1.28-3.2-.24-.64-.47-1.29-.69-1.94q0,1.17.09.09l-.88,3.23.22-.43-2.29,2.29.41-.23-9.39-3.82a36,36,0,0,0,4.94,10.58c2.59,3.81,9.39,5,11.69,0a12,12,0,0,0-1.83-13.74c-2.23-2.61-7.66-2.82-9.84,0s-3.47,5.46-3.27,9a12.71,12.71,0,0,0,4,8.66A6.92,6.92,0,0,0,50.9,98.1a26.31,26.31,0,0,0-6.6-12.79c-4.08-4.09-10.47.14-9.32,5.42Z"/><path class="cls-5" d="M100.92,74.81c-4.11,2.31-5,7.86-4.67,12.21A12.07,12.07,0,0,0,99,94.15a8.74,8.74,0,0,0,8.73,2.64c5.19-1.43,7.22-7,7-11.86-.26-5.16-2.67-8.82-6.73-11.8-2.3-1.7-6-1-8,.56s-3.55,4.89-2.59,7.61c.57,1.6,1,3.2,2.42,4.3,1.9,1.48,3.89,2.36,6.36,1.68a6.71,6.71,0,0,0,4.57-4.57,13.19,13.19,0,0,0,.45-2.8l-2,4.91.32-.33L98.1,83c-.74-1.53,0,0,.09.46.2.68.34,1.38.5,2.08a6.77,6.77,0,0,1,.21.89c-.12-1-.16-1.22-.13-.61-.3,2,.15-.37.47-.91l2.84-2.84-.41.26,4-1.08h-.42l4,1.07q3.28,5.56,2.41,2.6-.21-.66-.39-1.32c-.08-.32-.48-2.28-.23-.73-.45-2.81-.57-4.84-2.63-7.11a6.24,6.24,0,0,0-7.46-1Z"/><g class="cls-6"><g class="cls-7"><path class="cls-8" d="M34.92,117.68c2.3,8.45,4.43,17,7.22,25.27,2.57,7.69,4.26,17.36,9.11,23.94,2.38,3.23,8.72,2.64,8.38-2.27-.58-8.56-5.53-17.19-8.69-25.1-3.26-8.16-7.16-16.05-10.88-24-1.37-2.94-6-.84-5.14,2.17Z"/><path class="cls-8" d="M15.64,66.35c.81,6.07,1.39,13.12,5,18.28C23.07,88.16,29,87.08,29,82.36c0-6.32-3.36-12.46-6.2-18-1.65-3.22-7.67-1.9-7.16,1.94Z"/><path class="cls-9" d="M12.21,64.35c13.89-4,28.31-6.78,42.52-9.42a184.88,184.88,0,0,1,21.1-2.66c7.25-.49,14.58,0,21.79-.82,12.24-1.33,12.33-17.87,0-19.13-8-.81-16.34.64-24.25,1.8a207.09,207.09,0,0,0-22.19,4.49C36,42.57,22.55,49.28,9.47,57.84,6.19,60,8.19,65.51,12.21,64.35Z"/><path class="cls-9" d="M12,30.76c10.6-3.53,21.48-6.81,32.5-8.71a160.7,160.7,0,0,1,16.34-2.21c4.75-.33,11.83.9,15.73-2.05,1.48-1.12,2.15-3.25.61-4.71-3.79-3.6-10.55-2.79-15.45-2.65A122.17,122.17,0,0,0,43.6,12.18,92.64,92.64,0,0,0,9.74,25.45c-2.64,1.71-1,6.4,2.24,5.31Z"/><path class="cls-9" d="M68.41,165a58.3,58.3,0,0,0,23.77-2.84c7-2.29,14.73-5.09,20.2-10.26,6.08-5.76,7.23-13.74,6.28-21.68-1.07-8.91-2.34-18.12-4.87-26.75-3.49-12-20.72-6.89-18.44,5.08,1.24,6.53,2.91,13,4,19.51.68,4,2.57,9.87-1,12.91-3.84,3.25-9.19,5.65-13.75,7.67-5.72,2.54-11.61,5-17.43,7.34-4.8,1.9-4.14,8.59,1.22,9Z"/></g></g><path class="cls-10" d="M103.81,98.66l8.86,48.87s-49.54,15.85-57.29,14.63c-3.52-.56-12.79-22.09-21.87-45.41"/><line class="cls-10" x1="93.03" y1="39.22" x2="98.56" y2="69.72"/><path class="cls-10" d="M22.42,87.26c-4.19-11.44-7.58-21-9.25-25.8"/><path class="cls-11" d="M12,29.92c-2.1-3.66-4.2-8.17-3.62-10.79,1.09-4.94,23.24-14.71,35.42-16a163.14,163.14,0,0,1,23-.35A9.41,9.41,0,0,1,75.2,8.82a59.22,59.22,0,0,1,2.09,6.67"/><path class="cls-11" d="M92.52,39.92c-.25-5.6-.56-19.49-3.31-21.52-2.45-1.81-16-1.62-27.61-1.09a122.66,122.66,0,0,0-42.19,9.38C10.46,30.49,2.5,35.17,2.5,39.83c0,6.53,7.39,17,10.67,21.63,0,0,40.28-17.63,80.35-20.54"/><path class="cls-10" d="M105.73,109.24s-43.18,4.2-65.24,24.9l-6.7-17.5"/><path class="cls-10" d="M22.52,87.22l-2.3-6s32.26-29.78,76.5-21.66l2.12,11.69"/><ellipse class="cls-11" cx="93.38" cy="85.59" rx="21.46" ry="14.33"/><ellipse class="cls-11" cx="31.41" cy="99.92" rx="21.46" ry="14.33" transform="translate(-40.49 23.75) rotate(-25.9)"/><path class="cls-12" d="M33,98.17l.93.08A4,4,0,0,0,35.4,98l-3.13-3.13.16-.39c.29-.33.36-.42.22-.28s.57-.37.18-.17l.62-.27a1.4,1.4,0,0,1-.35.1l.71-.1h-.12l.71.09a.68.68,0,0,1-.23-.07V99c1.56-.36,3.51-1,3.86-2.79a3.14,3.14,0,0,0-.15-1.89A2.66,2.66,0,0,0,36.69,93a8.16,8.16,0,0,0-.81-.34,3.14,3.14,0,0,0-1.61,0,4.68,4.68,0,0,0-1.22.62,12,12,0,0,0-1.53,1.24,2.77,2.77,0,0,0-.43,3.3,3.39,3.39,0,0,0,1,1,2.9,2.9,0,0,0,2.1.27,3.7,3.7,0,0,0,3-2.83,2.55,2.55,0,0,0-3.73-2.87,4.42,4.42,0,0,0-1.18.83c-.22.23-.41.48-.61.72A1.93,1.93,0,0,0,33,98.17Z"/><path class="cls-12" d="M95.76,86.06a4,4,0,0,1,1-.26l-.81.1.66,0-3.11-4.08a2.68,2.68,0,0,1-.07.27l.33-.78a2.36,2.36,0,0,1-.24.4L94,81a2.23,2.23,0,0,1-.27.26l.7-.54-.33.19.84-.36a1.48,1.48,0,0,1-.36.1l1-.13h-.09a2.74,2.74,0,0,0-1.38.31,2.71,2.71,0,0,0-1.16.75,3.63,3.63,0,0,0-1.06,2.54,3.6,3.6,0,0,0,3.6,3.6c.32,0,.63,0,1-.07a3.72,3.72,0,0,0,1.87-.5l.74-.58a3.56,3.56,0,0,0,1-3.11,3.49,3.49,0,0,0-1.39-2.41,3.65,3.65,0,0,0-3.22-.66c-.31.09-.62.16-.92.26l2.77,6.58a4.7,4.7,0,0,0,1.13-.86,4.92,4.92,0,0,0,.83-1.13A5,5,0,0,0,99.7,84a5.1,5.1,0,0,0,0-2.2,3.06,3.06,0,0,0-1.87-2.09,3.26,3.26,0,0,0-2.87.16,5.35,5.35,0,0,0-1.29,1,7.12,7.12,0,0,0-1,1.22,2.62,2.62,0,0,0-.38,1.37A2.78,2.78,0,0,0,94,85.92a2.57,2.57,0,0,0,1.77.14Z"/></g></g></svg>