<?xml version="1.0" encoding="UTF-8"?>
<svg id="Calque_2" data-name="Calque 2" xmlns="http://www.w3.org/2000/svg" xmlns:xlink="http://www.w3.org/1999/xlink" viewBox="0 0 90.5 95.76">
  <defs>
    <style>
      .cls-1 {
        fill: #782d3e;
      }

      .cls-1, .cls-2, .cls-3, .cls-4 {
        stroke-width: 0px;
      }

      .cls-2, .cls-5 {
        fill: none;
      }

      .cls-6 {
        clip-path: url(#clippath-1);
      }

      .cls-7 {
        fill: #e79450;
      }

      .cls-7, .cls-5 {
        stroke: #70290d;
        stroke-linecap: round;
        stroke-linejoin: round;
        stroke-width: 2.52px;
      }

      .cls-3 {
        fill: #e16969;
      }

      .cls-8 {
        clip-path: url(#clippath);
      }

      .cls-9 {
        opacity: .41;
      }

      .cls-4 {
        fill: #effdf3;
      }

      .cls-10 {
        opacity: .37;
      }
    </style>
    <clipPath id="clippath">
      <path class="cls-2" d="m42.24,47.47S10.69,38.83,25.29,1.52l63.09,14.4s4.09,41.77-46.15,31.55Z"/>
    </clipPath>
    <clipPath id="clippath-1">
      <path class="cls-2" d="m48.61,47.81s30.91,10.7,13.88,46.96L.48,76.25s-1.33-41.95,48.13-28.44Z"/>
    </clipPath>
  </defs>
  <g id="Layer_1" data-name="Layer 1">
    <g>
      <path class="cls-7" d="m43.01,47.2S11.47,38.56,26.07,1.26l63.09,14.4s4.09,41.77-46.15,31.55Z"/>
      <path class="cls-7" d="m49.39,47.54s30.91,10.7,13.88,46.96L1.26,75.98S-.07,34.03,49.39,47.54Z"/>
      <g>
        <path class="cls-3" d="m53.49,9.04c-4.08,10.32-6.18,21.19-8.4,32.04-1.16,5.65,6.46,7.59,8.52,2.35,3.35-8.54,6.69-17.08,10.04-25.62h-8.88c1.79,6.75-3.36,14.58-3.93,21.43-.5,5.99,7.93,6.2,9.78,1.32,2.85-7.5,5.04-15.19,6.72-23.03l-10.2-1.38c.74,6.58-.36,12.84-1.7,19.26-1.07,5.17,5.08,9.32,9.11,5.3,5.17-5.16,6.22-14.13,8.16-20.87l-10.82-1.46c.52,4.5.5,8.84-.05,13.33-.79,6.46,9.01,7.08,10.87,1.47,1.53-4.62,3.06-9.24,4.59-13.87l-10.93-1.48c.05,3.38.1,6.76.16,10.14.1,6.3,9.17,7.57,10.97,1.48.94-3.19,1.77-6.4,2.51-9.64l-11-1.49c.14,2.09.26,4.17.48,6.25.51,4.71,7.93,8.49,10.34,2.8l.37-.87c2.67-6.31-5.89-11.89-9.49-5.55l-.46.81,10.34,2.8c-.06-2.09-.23-4.16-.38-6.25-.42-5.96-9.55-8.02-11-1.49-.72,3.25-1.54,6.46-2.47,9.65l10.97,1.48c-.07-3.38-.13-6.76-.2-10.14-.12-6.37-8.99-7.42-10.93-1.48-1.51,4.63-3.02,9.25-4.53,13.88l10.87,1.47c.53-4.5.53-8.84,0-13.33-.69-5.83-9-7.88-10.82-1.46-.84,2.97-1.69,5.94-2.53,8.91-.66,2.34-.99,5.37-2.72,7.18l9.11,5.3c1.33-7.36,2.53-14.68,1.58-22.16-.67-5.24-8.95-7.7-10.2-1.38-1.56,7.87-3.71,15.55-6.3,23.15l9.78,1.32c.4-8.32,5.24-15.34,2.85-23.87-1.3-4.65-7.35-4.08-8.88,0-3.23,8.57-6.45,17.14-9.68,25.71l8.52,2.35c2.13-11.18,4.41-22.35,4.56-33.75.04-2.86-3.74-3-4.68-.63h0Z"/>
        <path class="cls-3" d="m56.28,12.45c4.56,3.14,9.68,5.08,15.03,6.46,3.23.83,10.03,3.42,13.12,1.51,1.44-.89,1.88-2.37,1.61-3.96l-.07-.41c-.36-2.16-2.81-2.93-4.64-2.64l-.41.07c-1.59.26-2.84,2.14-2.8,3.67.08,3.1,1.67,4.01,4.19,5.23l-1.89-4.65c-.84,5.02-5.14,12.22-9.27,15.35-4.77,3.62-11.63,3.91-17.27,2.9-6.99-1.25-10.1,9.07-2.98,10.82,8.72,2.15,19.09.99,26.25-4.82,6.3-5.11,11.28-15.02,11.36-23.16.02-1.84-1.3-3.45-3.02-3.97-.18-.05-2.4-.78-1.49-.31l1.79,2.32-.17-.72-2.66,4.69-1.22-.06-2.45-4.31-.05.29,3.26-2.48c-8.49-.19-16.55-3.3-24.67-5.44-2.25-.59-3.34,2.37-1.53,3.62h0Z"/>
        <path class="cls-3" d="m51.73,46.95c.68.03,1.31-.12,1.9-.42.61-.2,1.14-.54,1.59-1.02.48-.45.82-.97,1.02-1.59.31-.59.45-1.22.42-1.9l-.18-1.31c-.23-.83-.66-1.56-1.27-2.17l-1-.77c-.77-.45-1.6-.67-2.49-.67-.68-.03-1.31.12-1.9.42-.61.2-1.14.54-1.59,1.02-.48.45-.82.97-1.02,1.59-.31.59-.45,1.22-.42,1.9l.18,1.31c.23.83.66,1.56,1.27,2.17l1,.77c.77.45,1.6.67,2.49.67h0Z"/>
      </g>
      <g>
        <path class="cls-3" d="m36.23,85.35c4.86-10.26,7.77-21.18,10.77-32.11,1.28-4.68-5.89-8.05-8.07-3.4-3.9,8.29-7.79,16.58-11.69,24.87l8.42,1.1c-1.28-6.55,4.27-13.4,5.23-19.83.75-5.03-6.53-9.46-9.1-3.84-3.52,7.69-6.42,15.6-8.73,23.74l10.2,1.38c-.31-6.61,1.31-12.79,3.06-19.11,1.53-5.5-5.15-8.76-9.11-5.3-5.39,4.7-7.03,13.94-9.36,20.39l10.82,1.46c-.19-4.01-.02-7.88.73-11.83,1.35-7.11-8.02-9.48-10.67-2.94-1.83,4.51-3.66,9.02-5.49,13.54l10.93,1.48c.17-3.38.34-6.75.51-10.13.34-6.65-8.91-7.07-10.97-1.48-1.15,3.12-2.19,6.27-3.14,9.45l11,1.49c0-2.09.02-4.17-.07-6.26-.22-5.16-7.73-7.99-10.34-2.8l-.42.84c-3.18,6.32,5.59,11.48,9.49,5.55l.52-.78-10.34-2.8c-.08,2.09-.05,4.17-.04,6.26.03,6.34,9.22,7.57,11,1.49.93-3.19,1.96-6.34,3.1-9.46l-10.97-1.48c-.16,3.38-.32,6.75-.47,10.13-.31,6.75,8.75,6.89,10.93,1.48,1.81-4.52,3.62-9.03,5.44-13.55l-10.67-2.94c-.91,4.92-1.34,9.77-1.07,14.77.33,6.32,8.72,7.33,10.82,1.46,1.63-4.56,2.82-12.28,6.45-15.61l-9.11-5.3c-1.81,7.25-3.4,14.49-2.94,22.01.35,5.67,8.63,7.28,10.2,1.38,2.08-7.75,4.72-15.26,7.81-22.67l-9.78-1.32c-.96,8.39-6.18,14.79-4.33,23.6.77,3.68,6.78,4.7,8.42,1.1,3.79-8.35,7.58-16.7,11.37-25.05l-8.07-3.4c-2.85,10.98-5.79,21.93-6.69,33.26-.18,2.31,3.44,3.31,4.44,1.2h0Z"/>
        <path class="cls-3" d="m34.15,81.59c-4.3-3.39-9.05-5.69-14.22-7.45-3.52-1.2-10.26-4.38-13.83-2.48-1,.53-1.85,1.87-1.74,3.03l.04.36c.19,1.88,1.58,3.98,3.77,3.77l.4-.04c2.11-.2,3.72-1.59,3.81-3.81.12-3.07-1.72-4.04-4.07-5.39l1.89,4.65c1.17-4.98,6.09-11.87,10.49-14.61,5.16-3.21,11.82-2.87,17.47-1.47,7.03,1.74,9.86-8.64,2.98-10.82-8.49-2.7-19.11-2.03-26.45,3.4-6.6,4.88-11.96,14.24-12.59,22.42-.15,1.91,1.41,3.36,3.02,3.97.46.2.94.36,1.43.47l-1.79-2.32.12.73,2.66-4.69h1.24c.82,1.45,1.63,2.88,2.45,4.32l.07-.28-3.26,2.48c8.4.74,16.27,4.43,24.16,7.08,1.8.6,3.5-2.07,1.93-3.31h0Z"/>
        <path class="cls-3" d="m40.35,57.07c.68.03,1.31-.12,1.9-.42.61-.2,1.14-.54,1.59-1.02.48-.45.82-.97,1.02-1.59.31-.59.45-1.22.42-1.9l-.18-1.31c-.23-.83-.66-1.56-1.27-2.17l-1-.77c-.77-.45-1.6-.67-2.49-.67-.68-.03-1.31.12-1.9.42-.61.2-1.14.54-1.59,1.02-.48.45-.82.97-1.02,1.59-.31.59-.45,1.22-.42,1.9l.18,1.31c.23.83.66,1.56,1.27,2.17l1,.77c.77.45,1.6.67,2.49.67h0Z"/>
      </g>
      <g class="cls-10">
        <g class="cls-8">
          <path class="cls-1" d="m17.81,25.94c4.18,17.25,23.62,26.68,40.33,24.03,18.2-2.89,31.39-18.62,33.57-36.42h-11.86c.42,6.22-.85,12.14-4.11,17.5-1.48,2.43-3.28,4.61-5.4,6.5-2.48,2.22-5.48,3.53-7.16,6.53-1.95,3.5.56,7.28,4.34,7.56,7.57.56,14.94-8.78,18.47-14.6,4.25-7.02,6.28-15.31,5.72-23.49s-10.95-7.47-11.86,0c-1.52,12.48-12.25,23.56-24.69,25.37-13.22,1.93-25.33-5.47-33.69-15.12-1.5-1.74-4.15.13-3.67,2.13h0Z"/>
          <path class="cls-4" d="m22.53-.02l-.63-.19c-.97-.29-2.23.18-2.71,1.1-4.45,8.64,18.23,11.17,22.82,12.09,6.32,1.26,12.71,2.26,19.09,3.14,5.83.81,12.58,2.16,18.09-.33,2.71-1.22,1.89-4.74,0-6.15-3.78-2.83-9.41-3.12-13.98-3.83-5.17-.8-10.35-1.49-15.52-2.33s-10.33-1.76-15.51-2.55c-2.34-.36-4.74-.78-7.11-.91-1.28-.08-2.55-.07-3.83.03-1.52-.39-1.44-.09.23.89-.08-.46-.53-.83-.96-.96h0Z"/>
          <path class="cls-4" d="m22.19,22.68c.57-4.14,1.33-8.19,3.14-12s4.88-6.59,7.52-9.99c1.67-2.16-.33-4.96-2.91-3.78C21.18.91,16.89,13.85,19.05,22.68c.36,1.46,2.91,1.64,3.14,0h0Z"/>
          <path class="cls-4" d="m22.37,20.84c1.5-2.37,2.49-5.06,3.81-7.55s3.01-4.87,4.16-7.44S28.28-.03,25.97,2.48c-3.91,4.25-7.19,11.5-7.73,17.24-.22,2.32,3.05,2.84,4.14,1.12h0Z"/>
        </g>
      </g>
      <g class="cls-9">
        <g class="cls-6">
          <path class="cls-1" d="m18.75,47.42c3.57,2.12,8.26,2.5,12.14,4.13,4.69,1.98,9.02,4.88,12.56,8.54,6.72,6.94,10.18,16.94,8.74,26.55-.95,6.37,7.04,10.65,10.84,4.57,9.12-14.56.11-32.86-9.18-44.98-3.02,2.33-6.03,4.66-9.05,6.98,5.5,5.57,10.81,11.64,14.81,18.4s1.76,14.03-.81,21.23h11.42c-.74-3.34-.48-6.65-.17-10.04.47-5.09-7.52-7.18-9.71-2.63-2.5,5.19-2.73,10.21-1.54,15.82,1.3,6.17,9.59,5.05,11.42,0,3.3-9.1,5.53-18.41,1.07-27.54s-11.64-16.53-18.35-23.39c-4.52-4.63-12.56,1.37-9.05,6.98,5.63,9.02,15.58,22.43,8.89,33.18l10.84,4.57c1.94-13.2-1.33-27.06-10.96-36.73-4.5-4.51-10.17-7.93-16.3-9.69-5.1-1.46-12.99-2.67-17.63.58-1.21.85-1.37,2.65,0,3.46h0Z"/>
          <path class="cls-4" d="m13.97,46.73c-5.17,3.92-8.93,8.98-10.95,15.18-1.48,4.56-3.02,11.98.33,16.07,1.8,2.2,4.81,3.02,7.32,4.07,3.85,1.6,7.74,3.1,11.63,4.6,8.17,3.14,16.89,6.82,25.57,8.14,2.72.42,4.59-3.05,1.96-4.65-10.15-6.21-22.45-9.92-33.5-14.26-2.22-.87-6.36-1.44-7.27-3.91-.77-2.1.43-6.1.92-8.14,1.26-5.22,3.64-9.97,6.75-14.33,1.15-1.6-1.17-3.99-2.77-2.77h0Z"/>
        </g>
      </g>
      <path class="cls-5" d="m43.01,47.2S11.47,38.56,26.07,1.26l63.09,14.4s4.09,41.77-46.15,31.55Z"/>
      <path class="cls-5" d="m49.39,47.54s30.91,10.7,13.88,46.96L1.26,75.98S-.07,34.03,49.39,47.54Z"/>
      <path class="cls-4" d="m29.13,8.25c-3.3,6.51-4.26,14.38-.38,20.86.87,1.46,3.72.99,3.47-.94-.82-6.34-1.6-12.32-.03-18.63.44-1.78-2.17-3.04-3.06-1.29h0Z"/>
      <path class="cls-4" d="m36.99,16.19c-.37,3.18-.55,6.32.52,9.37.49,1.4,2.71,1.25,2.69-.36-.05-3.02-.59-5.97-.56-9.01.01-1.74-2.45-1.64-2.64,0h0Z"/>
      <path class="cls-4" d="m44.99,22.75c.06.13.11.27.18.4.14.26.35.48.55.69.31.32.73.5,1.17.56s.92,0,1.3-.24c.29-.19.54-.44.73-.73.31-.48.29-1.04.21-1.57-.07-.45-.29-.84-.51-1.23-.25-.45-.76-.83-1.25-.96s-1.17-.08-1.62.21-.84.72-.96,1.25l-.07.56c0,.38.1.73.29,1.06h0Z"/>
      <path class="cls-4" d="m10.59,72.76c.11-3.38,1-6.84,2.71-9.78,1.58-2.72,3.97-4.63,5.83-7.12,1.1-1.48-.73-3.7-2.4-3.12-7.83,2.72-10.68,13.12-9.57,20.48.3,2.01,3.37,1.42,3.43-.46h0Z"/>
      <path class="cls-4" d="m18.87,70.57c.81-2.17,2.02-4.08,3.1-6.11.87-1.63-1.34-2.79-2.4-1.4-1.52,1.99-2.36,4.48-2.97,6.89-.38,1.49,1.75,2.03,2.27.63h0Z"/>
      <path class="cls-4" d="m27.5,71.5l1.02-.98c.32-.31.52-.8.52-1.25s-.19-.95-.52-1.25-.78-.54-1.25-.52-.92.18-1.25.52l-.98,1.02c-.31.33-.51.78-.51,1.23,0,.43.19.94.51,1.23.71.65,1.77.68,2.47,0h0Z"/>
    </g>
  </g>
</svg>