<svg xmlns="http://www.w3.org/2000/svg" xmlns:xlink="http://www.w3.org/1999/xlink" viewBox="0 0 175.34 195.33"><defs><style>.cls-1,.cls-12,.cls-8{fill:none;}.cls-2{fill:#f7d074;}.cls-2,.cls-3{stroke:#221f20;}.cls-12,.cls-2,.cls-3,.cls-8{stroke-linecap:round;stroke-linejoin:round;stroke-width:5px;}.cls-3{fill:#ef96c5;}.cls-4{opacity:0.43;}.cls-5{clip-path:url(#clip-path);}.cls-6{fill:#ebfef3;}.cls-7{fill:#84263d;}.cls-8{stroke:#5b1a33;}.cls-9{fill:#7ed266;}.cls-10{fill:#e74855;}.cls-11{fill:#97e5f4;}.cls-12{stroke:#4b271d;}</style><clipPath id="clip-path" transform="translate(0.49 7.3)"><path class="cls-1" d="M161.44,41.37l-2.76-3.9c-.3-1-.61-2-1-3.14C151.8,15,135,7.23,119.1,4.32a85.2,85.2,0,0,0-53.75,8.15C43.86,23.38,12,45.08,4.22,80.34-3.23,114.27,7,130.66,15.83,138.18,25.06,150,75.26,194.07,122.73,150,174.6,101.74,176.92,63.05,161.44,41.37Z"/></clipPath></defs><g id="Calque_2" data-name="Calque 2"><g id="Layer_17" data-name="Layer 17"><path class="cls-2" d="M15.19,135.31c1.38,5.3,56.52,62.35,108.39,14.14s54.19-86.89,38.71-108.58S128.5-11,75.58,11.44C32.22,29.87-3.39,64.08,15.19,135.31Z" transform="translate(0.49 7.3)"/><path class="cls-3" d="M26.74,143.55S-6.88,134.26,5.07,79.84C12.81,44.58,44.7,22.88,66.19,12a85.14,85.14,0,0,1,53.75-8.14c15.9,2.9,32.7,10.71,38.64,30,12.38,40.26,0,27.43,0,27.43s-1.77,1.33-3.1,16.81-22.12,5.75-22.12,5.75-8.85-2.65-12.83,26.11A33.37,33.37,0,0,1,105,134.34,22.06,22.06,0,0,1,77.25,131c-4.63-4.8-10.76-9.11-16.88-7.36C48,127.18,49.31,152.84,26.74,143.55Z" transform="translate(0.49 7.3)"/><g class="cls-4"><g class="cls-5"><path class="cls-6" d="M10.68,122.14a106,106,0,0,1,2.65-26.61,92.7,92.7,0,0,1,8.06-23.24C29.34,57,42.55,44.46,56,34c11.75-9.16,26.66-17,41.06-17.61a44.78,44.78,0,0,1,20,3.11c6.76,2.73,12.92,8.87,21,9.68,4.82.48,9-4.52,9-9C146.9,4,125.22-4.25,112-6.35c-15.94-2.54-31.18.1-45.8,6.79C37.64,13.52,12.24,40.71,3.17,71A86.47,86.47,0,0,0-.48,97c.12,9.23,2.34,17.26,5.45,25.89,1,2.91,5.88,2.71,5.71-.77Z" transform="translate(0.49 7.3)"/><path class="cls-6" d="M123.32,36c-1.64,10.56-4.33,20.79-9.24,30.31a78.6,78.6,0,0,1-8,13.1c-3.47,4.39-7.54,8.17-11,12.57-1.7,2.15-.23,6.3,3,5.17,11.09-3.89,19.94-14.32,25.7-24.32,6.13-10.65,9.33-23.47,8.06-35.68-.45-4.39-7.66-6.37-8.47-1.15Z" transform="translate(0.49 7.3)"/><path class="cls-6" d="M37.34,111.56c5.7,5,16.41,8.82,22,1.61,2.67-3.42,1-7.91-3.44-8.32-5.1-.47-9.63,1.81-14.67,0-3.77-1.37-6.86,4.13-3.92,6.74Z" transform="translate(0.49 7.3)"/><path class="cls-7" d="M154.93,21.19c1.71,6.63,1.55,13.49,1.74,20.29A45.06,45.06,0,0,1,153.36,60a60.25,60.25,0,0,1-10.64,16.36,14.22,14.22,0,0,1-1.31,1c.89-.79,2.05.44.79-.59s-4.63-1.13-6.18-1.14a15.56,15.56,0,0,0-11,4.61c-5.31,5.43-6.24,13.51-6.44,20.71-.22,8-1.29,17.21-6.38,23.77-3.58,4.61-9,7.6-14.85,6.08-7.75-2-14.19-7.84-21.84-10.41-9.5-3.19-21-2.34-28.1,5.42-3.17,3.46-4.75,7.84-6.61,12.07-1,2.26-3.28,6.52-6.3,5.68-9.14-2.53-12.74,11.1-3.88,14.1,9.13,3.1,17-2.68,22.49-9.42,2.45-3,4.68-6.6,7.86-8.88,2.52-1.81,5-1.39,7.84-.54,8.77,2.59,15.79,9.22,24.94,11.07,10,2,19.41-.94,27.14-7.37,7.34-6.1,11.84-15.24,13.71-24.48a92,92,0,0,0,1.58-15.35c0-1.68,0-3.42.2-5.09.13-1.1.88-2.75.83-3.82-.21-4.8.92-.44.35-.82-.39-.25-3.21-.42-1.65.72s5.32,1.35,6.9,1.36c5.36,0,9.42-2.94,13.26-6.34A52.56,52.56,0,0,0,170.68,68.2a60.79,60.79,0,0,0,4-26.72c-.78-9.73-5.22-17.86-11.9-24.85-3.3-3.46-9,.13-7.84,4.56Z" transform="translate(0.49 7.3)"/><path class="cls-7" d="M159.18,66.06C150.77,93,137,119.48,114.94,137.58l17.57,13.55a139.45,139.45,0,0,0,21-55.36c.9-6.1-1.52-12.29-8-14.07a11.62,11.62,0,0,0-14.07,8c-2.47,8.66-4.64,13.31-9.08,21.37-4.1,7.42-8.09,14.79-13.15,21.63,1-1.31.25-.3-.32.4s-1.26,1.54-1.9,2.3c-1.29,1.51-2.62,3-3.93,4.48a122.21,122.21,0,0,1-8.82,9.1c-1.64,1.52-3.34,3-5,4.41-.62.52-1.7,1.38-.44.39-.78.62-1.59,1.2-2.38,1.8-4.12,3.15-7.92,6.61-11.92,9.87-3.69,3-4.34,8.55-3.4,12.85a12.34,12.34,0,0,0,3.4,5.83,13,13,0,0,0,12.84,3.39c20.11-6.55,36.18-21.49,48.12-38.65s17.25-35.5,18.49-56.13l-22.47-3a123.92,123.92,0,0,1-18.27,50.15c-3,4.66-1.4,11.23,2.88,14.43,4.71,3.51,10.28,2.79,14.68-.88,25.25-21.1,42.7-52.25,39.84-85.78-.55-6.39-9.39-8.06-11.42-1.55Z" transform="translate(0.49 7.3)"/><path class="cls-7" d="M69.09,87.67c9-6.5,16.15-15.24,26.16-20.58L87.4,59.24A36,36,0,0,1,80,69.37c-3,2.9-6.8,4.91-9.79,7.9-4.15,4.14.1,10.83,5.56,9.55,10-2.32,17.51-13,21.59-21.79,2.35-5-2.54-10.83-7.85-7.85C79.32,62.85,67.44,70,62.42,81c-1.78,3.92,2.28,9.83,6.67,6.67Z" transform="translate(0.49 7.3)"/></g></g><path class="cls-8" d="M55.65,88.84a40.6,40.6,0,0,0,8.4-.51C75,86.64,93.51,80,100.33,54.78" transform="translate(0.49 7.3)"/><path class="cls-8" d="M70.25,74c-1.33.66-9.31,8.93-6.2,14.3" transform="translate(0.49 7.3)"/><path class="cls-8" d="M85.73,62.3S96.1,56.83,98.66,60" transform="translate(0.49 7.3)"/><path class="cls-9" d="M115.87,18.51c-1.09,6.61-2.11,14.25-.49,20.84.42,1.72,3.28,1.85,3.61,0,1.19-6.53.41-13.82,0-20.42-.1-1.68-2.82-2.3-3.13-.42Z" transform="translate(0.49 7.3)"/><path class="cls-9" d="M27.7,80.39c3.55.48,7.12,1.15,10.7,1.32,3.88.18,4.74-5.94.92-6.82-3.18-.72-6.47-1-9.7-1.46-1.93-.26-3.87.46-4.44,2.52-.46,1.68.58,4.17,2.52,4.44Z" transform="translate(0.49 7.3)"/><path class="cls-9" d="M82.06,109.05c2.57-2.36,5.61-4,8.15-6.43a3.81,3.81,0,0,0,.3-5,3.88,3.88,0,0,0-4.9-1c-3.43,1.61-6.06,4.6-8.59,7.37a3.56,3.56,0,0,0,5,5Z" transform="translate(0.49 7.3)"/><path class="cls-10" d="M64.41,32.3l7.16,7.89c2.72,3,7.44-1.72,4.44-4.44l-7.89-7.16a2.62,2.62,0,0,0-3.71,3.71Z" transform="translate(0.49 7.3)"/><path class="cls-10" d="M37.14,113.26a17.63,17.63,0,0,1,9.63-6c6-1.58,3.43-11-2.57-9.31a21.08,21.08,0,0,0-13.54,11.54,3.76,3.76,0,0,0,6.48,3.79Z" transform="translate(0.49 7.3)"/><path class="cls-10" d="M113.92,66.41a24.8,24.8,0,0,0,5.64,5.08,4,4,0,0,0,5.14-1c1.11-1.44,1.22-4-.31-5.23a49.83,49.83,0,0,1-4.9-4.39,4,4,0,0,0-5.57,0,4,4,0,0,0,0,5.57Z" transform="translate(0.49 7.3)"/><path class="cls-11" d="M91.66,38.05c1.68,1,3,2.61,4.69,3.71,2.15,1.44,4.11,2.21,6.74,1.75s3.29-3.63,2.3-5.65c-1.1-2.24-3.16-3.12-5.39-3.92-1.64-.59-3.6-.62-5.17-1.32a3.25,3.25,0,0,0-4.3,1.13,3.19,3.19,0,0,0,1.13,4.3Z" transform="translate(0.49 7.3)"/><path class="cls-11" d="M41.25,59.36c.82-1.44,1.67-2.86,2.53-4.27a23.15,23.15,0,0,0,2.16-5,4.1,4.1,0,0,0-2.39-4.87A4.15,4.15,0,0,0,38.4,47,22.32,22.32,0,0,0,36,51.79c-.56,1.55-1.13,3.08-1.75,4.61-.7,1.75.63,3.89,2.23,4.53a3.84,3.84,0,0,0,4.8-1.57Z" transform="translate(0.49 7.3)"/><path class="cls-11" d="M135.1,33.11a24.64,24.64,0,0,0,.54,4.19,24.49,24.49,0,0,0,1.89,4.1c1.64,3.27,5.14,6.19,9,4.47,4-1.8,3.91-6.81,1.66-10-.71-1-1.41-2-2.13-3a18.64,18.64,0,0,0-3.09-3.06,4.64,4.64,0,0,0-5-.95,4.52,4.52,0,0,0-2.82,4.2Z" transform="translate(0.49 7.3)"/><path class="cls-11" d="M12.12,102.57a19.39,19.39,0,0,0,3.85,10c1.29,1.63,4.06,1.51,5.54.33a4.29,4.29,0,0,0,1.09-5.44c-1.07-2.33-2.52-4.47-3.67-6.76a3.68,3.68,0,0,0-4.12-1.68c-1.41.38-2.9,2-2.69,3.52Z" transform="translate(0.49 7.3)"/><path class="cls-11" d="M105.2,94.93a50.19,50.19,0,0,0,5.75.16c1.89-.17,3.75-1.55,3.65-3.65-.08-1.83-1.62-3.85-3.65-3.66a58.18,58.18,0,0,0-6.53,1.35c-3.33.7-2.47,5.74.78,5.8Z" transform="translate(0.49 7.3)"/><path class="cls-12" d="M14.34,136.31c1.39,5.3,56.52,62.35,108.39,14.14s54.19-86.89,38.71-108.58" transform="translate(0.49 7.3)"/><path class="cls-8" d="M26.9,143.55S-6.72,134.26,5.22,79.84C13,44.58,44.86,22.88,66.35,12A85.13,85.13,0,0,1,120.1,3.83c15.89,2.9,32.7,10.71,38.63,30,12.39,40.26,0,27.43,0,27.43s-1.77,1.33-3.09,16.81-22.12,5.75-22.12,5.75-8.85-2.65-12.83,26.11a33.4,33.4,0,0,1-15.58,24.41A22.06,22.06,0,0,1,77.4,131c-4.63-4.8-10.75-9.11-16.88-7.36C48.13,127.18,49.46,152.84,26.9,143.55Z" transform="translate(0.49 7.3)"/></g></g></svg>