<?xml version="1.0" encoding="UTF-8"?>
<svg id="Calque_2" data-name="Calque 2" xmlns="http://www.w3.org/2000/svg" xmlns:xlink="http://www.w3.org/1999/xlink" viewBox="0 0 121.94 142.18">
  <defs>
    <style>
      .cls-1, .cls-2, .cls-3, .cls-4, .cls-5, .cls-6 {
        stroke-width: 0px;
      }

      .cls-1, .cls-7 {
        fill: none;
      }

      .cls-2 {
        fill: #fff;
      }

      .cls-8 {
        fill: #eac61f;
      }

      .cls-8, .cls-7, .cls-9 {
        stroke: #6d002a;
        stroke-linecap: round;
        stroke-linejoin: round;
        stroke-width: 2.51px;
      }

      .cls-10 {
        opacity: .32;
      }

      .cls-3 {
        fill: #231f20;
      }

      .cls-11 {
        clip-path: url(#clippath);
      }

      .cls-9 {
        fill: #fc3352;
      }

      .cls-12 {
        opacity: .41;
      }

      .cls-4 {
        fill: #eafdf1;
      }

      .cls-5 {
        fill: #9dfaab;
      }

      .cls-6 {
        fill: #82263e;
      }
    </style>
    <clipPath id="clippath">
      <path class="cls-1" d="m76.43,24.93l-33.03,13.69c-1.83.76-2.14,3.23-.55,4.41l6.14,4.56-27.02,45.03c-1.29,2.16-.63,4.95,1.49,6.3l11.63,7.4c2.1,1.34,4.88.78,6.3-1.27l28.85-41.66,5.64,4.19c1.69,1.25,4.08.05,4.08-2.05V27.28c0-1.82-1.85-3.06-3.53-2.36Z"/>
    </clipPath>
  </defs>
  <g id="Layer_1" data-name="Layer 1">
    <g>
      <path class="cls-3" d="m29.25,100.65c-5.55.46-11.64,2.98-14.56,8.06-3.15,5.49,2.64,7.27,6.59,9.17,5.55,2.68.84,4.98-2.2,6.95-2.02,1.32-3.94,3.03-4.66,5.42-1.72,5.71,3.02,9.88,7.79,11.71,3.59,1.38,5.14-4.39,1.59-5.75-1.67-.64-3.7-3.19-3.1-5.14.24-.77,2.35-1.6,3.08-2.07,1.32-.84,2.68-1.55,3.82-2.64,2.25-2.15,3.43-5.15,2.36-8.19s-3.87-4.75-6.71-5.95c-1.09-.46-2.74-.73-3.64-1.47l.23.96,1.35-1.57c2.19-2.15,5.04-3.29,8.06-3.54,3.8-.31,3.83-6.28,0-5.97h0Z"/>
      <path class="cls-9" d="m22,99.72l11.63,7.4c2.1,1.34,4.89.78,6.3-1.27l29.88-43.15c1.37-1.98,1-4.69-.87-6.22l-13.44-11.04c-2.19-1.8-5.46-1.23-6.92,1.2l-28.07,46.79c-1.29,2.16-.63,4.95,1.49,6.3Z"/>
      <path class="cls-9" d="m41.39,43.84l33.03,24.54c1.69,1.25,4.08.05,4.08-2.05V28.1c0-1.82-1.85-3.06-3.53-2.36l-33.03,13.69c-1.83.76-2.14,3.23-.55,4.41Z"/>
      <path class="cls-5" d="m90.97,23.07c1.57-3.24,3.56-6.06,6.38-8.34s9.33-5.7,11.19-.37l2.88-3.78c-7.82.73-17.16.91-22.52,7.54-2.38,2.95,1.74,7.18,4.22,4.22,3.54-4.24,8.13-6.91,13.69-7.42,3.79-.35,3.83-6.32,0-5.97-7.1.66-13.3,3.66-17.9,9.17l4.22,4.22c4.29-5.31,12.05-5.21,18.3-5.79,1.79-.17,3.57-1.79,2.88-3.78-2.06-5.89-7.96-8.26-13.81-6.52-6.6,1.95-11.75,7.82-14.66,13.82-1.67,3.44,3.47,6.47,5.15,3.01h0Z"/>
      <path class="cls-5" d="m59.11,23.95c2.25-5.36,0-14.38-3.87-18.53S42.89-.92,37.23.4c-4.97,1.16-8.68,6.05-3.1,9.33,7.03,4.13,16.42,2,18.24,12.24.2,1.14,1.68,2.35,2.88,2.19,6.8-.89,2.95-8.22.81-11.88-3.02-5.16-7.95-9.27-14.24-8.65-3.81.38-3.86,5.64,0,5.97l1.4.12c3.82.32,3.8-5.64,0-5.97l-1.4-.12v5.97c6.25-.62,10.48,6.25,11.63,11.69l.3-2.3-.4.6,2.58-1.48-.66.09,2.88,2.19c-.82-4.63-3.47-8.85-7.55-11.31s-11.38-1.77-14.33-5.27l.77,2.9c.45-2.72,11.72,1.09,12.8,1.9,3.35,2.53,5.18,9.88,3.55,13.75-1.49,3.53,4.28,5.08,5.75,1.59h0Z"/>
      <path class="cls-5" d="m33.05,34.44c-5.6-3-11.75-4.32-18.09-3.56-4.33.52-12.89,2.41-14.61,7.21s3.35,7.6,7.42,7.22c7.95-.74,14.69-5.27,22.92-4.8,3.55.2,3.78-4.77.79-5.86s-5.73-1.49-8.84-1.38c-3.83.13-3.85,6.09,0,5.97,2.6-.09,4.82.29,7.25,1.17l.79-5.86c-8.49-.49-15.59,3.44-23.65,5.12-1.26.66-1.07.53.55-.38,1.14-.63,2.34-1.14,3.59-1.53,1.99-.64,4.02-1.01,6.11-1.12,4.52-.23,8.77.82,12.74,2.95,3.38,1.81,6.4-3.34,3.01-5.15h0Z"/>
      <path class="cls-5" d="m94.4,46.56c3.84,0,3.84-5.97,0-5.97s-3.84,5.97,0,5.97h0Z"/>
      <path class="cls-5" d="m94.49,47.79c7.81-2.65,21.69,1.81,19.88,12.28l3.7-2.82c-2.12-.27-3.67-3.73-4.77-5.33-1.31-1.9-2.71-3.82-4.36-5.43-3.23-3.15-6.92-4.82-11.39-5.27-4.74-.48-5.32,6.72-1.09,8.03,5.04,1.56,10.26,3.15,12.91,8.08,2.51,4.66,9.62.51,7.1-4.15-3.73-6.88-10.72-9.63-17.84-11.81-.36,2.68-.72,5.35-1.09,8.03,9.71.95,10.03,15.74,20.52,15.53,2.4-.05,4.48-2.43,3.7-4.86-1.92-6.05-4.22-11.77-9.6-15.57-5.65-3.99-12.81-4.66-19.27-2.47-3.61,1.23-2.06,6.99,1.59,5.75h0Z"/>
      <path class="cls-5" d="m90.16,75.33c-1.18.12.17,5.08.22,5.75.15,1.93.12,3.88-.09,5.81-.35,3.31-1.23,6.55-1.44,9.88-.28,4.35,1.6,9.62,7.01,8.44,12.61-2.75,2.26-25.25-.76-31.61-1.43-3.02-6.65-.87-5.45,2.3,2.97,7.85,4.3,15.86,3.98,24.25l5.86-.79c-.33-2.32-.49-4.57-.57-6.91-.14-3.83-6.1-3.85-5.97,0,.1,2.86.39,5.66.79,8.49.49,3.45,5.74,2.42,5.86-.79.34-8.89-1.04-17.51-4.19-25.84l-5.45,2.3c2.36,4.98,4.26,10.25,5.29,15.67.23,1.19.83,2.95.59,4.14l-1.08,2.01c0-.98.07-1.95.22-2.91.27-2.34.78-4.64,1.08-6.98.56-4.23,1.62-19.96-5.89-19.17-3.78.4-3.82,6.37,0,5.97h0Z"/>
      <path class="cls-8" d="m36.12,67.41c.31-.51,28.74,1.48,28.74,1.48l-16.8,25.22-27.55-.68,15.61-26.02Z"/>
      <path class="cls-4" d="m8.53,38.68c5.5-1.05,11.25-.8,16.8-1.37,1.33-.14,1.89-2.23.34-2.54-6.29-1.27-11.86.48-17.5,3.05-.51.23-.13.95.36.86h0Z"/>
      <path class="cls-4" d="m41.5,4.94c6.34,1.69,11.37,7.59,14.55,13.07.61,1.05,2.3.36,1.97-.83-2.18-7.9-8.7-11.57-16.3-13.05-.53-.1-.76.67-.22.82h0Z"/>
      <path class="cls-4" d="m91.21,18.38c3.16-4.29,7.45-5.91,12.42-7.17.7-.18.54-1.23-.17-1.25-5.34-.09-10.27,3.66-13.18,7.87-.4.58.53,1.1.93.55h0Z"/>
      <path class="cls-4" d="m98.03,45.82c5.28,1.78,9.36,6.25,13.31,10,.85.8,2.21-.22,1.62-1.25-3.22-5.67-8.76-7.84-14.67-9.69-.61-.19-.86.75-.26.95h0Z"/>
      <path class="cls-4" d="m92.03,77.46c1.61,5.23,1.84,10.73,1.61,16.17-.05,1.24,2.02,1.57,2.21.3.9-5.98-.33-11.43-2.92-16.85-.24-.51-1.06-.15-.9.38h0Z"/>
      <g class="cls-12">
        <g class="cls-11">
          <path class="cls-6" d="m33.96,109.25l1.62.96c.92.54,2.21.59,3.13,0,5.64-3.65,9.72-11.55,13.35-17.05,4.65-7.06,9.57-13.95,14.77-20.62,1.56-2.01,1.87-3.94.81-6.27-.64-1.4-1.6-2.1-3.09-2.38-2.53-.47-4.34.4-5.84,2.38-5.2,6.83-10.16,13.83-14.83,21.04-4.16,6.43-8.73,13.87-10.07,21.51-.03.17.02.34.18.43h0Z"/>
          <path class="cls-6" d="m41.06,47.64c1,1.77.67,5.5,2,7.97,1.86,3.46,5,6.63,8.13,8.93,6.57,4.84,15.6,9.38,23.8,10.11,6.78.6,8.21-8.82,3.25-12.01-6.25-4.03-14.05-5.31-20.48-9.34-2.86-1.79-5.61-4.16-8.72-5.47-2.54-1.08-5.06-.33-7.3-1.07-.51-.17-.93.45-.68.89h0Z"/>
          <path class="cls-6" d="m75.53,23.99c1.75,2.63-1.87,8.68-2.53,11.29-.99,3.87-1.57,10.26-5.43,12.49-3.46,2.01-8.57-.45-11.91-1.81-4.39-1.79-8.9-4.07-12.52-7.18l-7.22,7.22c11.89,9.8,23.66,20.51,40.26,18.64,3.46-.39,5.44-2.4,5.86-5.86.13-1.1-.37-2-.8-2.96-.74-1.66-3.24-3.13-5.06-2.9-12.77,1.58-23.91-6.03-33.04-14.14-4.88-4.33-11.86,2.49-7.22,7.22,9.11,9.27,25.72,21.52,38.88,12.52,6.06-4.14,8.66-11.19,9.16-18.26.23-3.22.19-7.5-1.38-10.44s-4.34-4.05-6.29-6.43c-.35-.43-1.08.13-.77.6h0Z"/>
          <path class="cls-6" d="m42.61,97.37s.58-.32-.29.06c-.79.34-1.46.86-2.32,1.1-1.5.42-3.47.35-5.01.14-4.39-.6-7.02-4.17-10.78-5.99-2.29-1.11-5.37-1.38-6.75,1.15-1.75,3.2,1.34,6.99,3.56,8.98,5.2,4.68,13.39,8.14,19.99,4.25,3.43-2.02,8.06-8.59,2.4-10.74-.59-.22-1.11.55-.8,1.05h0Z"/>
          <path class="cls-4" d="m42.82,40.81c3.41-.65,6.87-.49,10.31-1.23s6.62-1.71,9.87-2.77c5.2-1.69,12.83-3.1,16.63-7.19,1.49-1.6.39-4.04-1.73-4.17-3.17-.19-5.75,1.29-8.68,2.42-3.2,1.24-6.39,2.49-9.58,3.75-2.53,1-5.04,2.05-7.53,3.16-3.36,1.5-6.32,3.75-9.63,5.21-.49.22-.12.9.34.82h0Z"/>
          <path class="cls-4" d="m24.36,92.37c4.78-4.35,8.04-9.86,11.55-15.28,3.25-5.02,8.25-10.82,9.02-16.85.11-.89-1.1-1.51-1.8-1.03-5,3.4-7.92,10.63-10.87,15.75-3.21,5.57-6.6,10.97-8.29,17.18-.06.23.22.38.39.23h0Z"/>
        </g>
      </g>
      <path class="cls-7" d="m47.74,48.56l-26.52,44.2c-1.29,2.16-.63,4.95,1.49,6.3l11.63,7.4c2.1,1.34,4.89.78,6.3-1.27l28.85-41.66"/>
      <path class="cls-7" d="m42.1,43.17l33.03,24.54c1.69,1.25,4.08.05,4.08-2.05V27.43c0-1.82-1.85-3.06-3.53-2.36l-33.03,13.69c-1.83.76-2.14,3.23-.55,4.41Z"/>
      <path class="cls-2" d="m47.07,43.35c6.13-.79,12.38-2.26,17.68-5.56,1.15-.72.42-2.62-.94-2.23-5.86,1.67-11.44,4.5-16.93,7.09-.33.15-.18.75.19.7h0Z"/>
      <path class="cls-2" d="m72.68,32.89l-.03-.03.39,3.05.02-.03-.4.51c.17-.18.32-.38.45-.59l-.4.52.02-.02-.52.4s.03-.02.05-.03l-.61.26s.06-.02.1-.03l-.68.09s.07,0,.1,0l-.68-.09s.06.02.1.03l-.61-.26s.04.02.05.03l-.52-.4.02.02c.48.46,1.14.75,1.81.75.63,0,1.38-.28,1.81-.75s.78-1.13.75-1.81-.25-1.33-.75-1.81c-.75-.72-1.83-1.01-2.83-.73-.67.19-1.28.65-1.63,1.24-.5.83-.47,1.85,0,2.68l.39.51c.23.25.5.42.81.52.49.21,1.12.31,1.64.13l.04-.02c.42-.12.79-.33,1.1-.64.31-.31.52-.68.64-1.1.23-.83,0-1.83-.64-2.42h0Z"/>
      <path class="cls-2" d="m46.81,59.45c-6.88,9.1-13.38,19.26-18.22,29.6-.76,1.61,1.37,2.88,2.39,1.4,6.52-9.43,12.02-20.18,16.43-30.75.16-.37-.4-.52-.6-.25h0Z"/>
      <g class="cls-10">
        <path class="cls-2" d="m16.99,112.47c.04-.68.29-1.35.59-1.96.28-.57.74-1.01,1.08-1.54.22-.35-.14-.79-.53-.69-1.78.47-2.28,2.73-1.73,4.27.11.32.58.27.6-.08h0Z"/>
      </g>
      <g class="cls-10">
        <path class="cls-2" d="m25.26,125.15c1.67-1.16,3.15-3.2,2.6-5.32-.15-.57-1.11-.63-1.22,0-.32,1.8-.42,3.44-1.77,4.81-.25.26.08.74.4.52h0Z"/>
      </g>
      <g class="cls-10">
        <path class="cls-2" d="m18.46,135.47c-.13-1.43.11-2.78.25-4.19.08-.78-1.1-1.04-1.44-.39-.85,1.59-.47,3.45.63,4.81.17.22.59.04.56-.23h0Z"/>
      </g>
    </g>
  </g>
</svg>