<svg xmlns="http://www.w3.org/2000/svg" xmlns:xlink="http://www.w3.org/1999/xlink" viewBox="0 0 136.59 325.18"><defs><style>.cls-1,.cls-12,.cls-17,.cls-9{fill:none;}.cls-2{fill:#38a9bf;}.cls-12,.cls-2,.cls-9{stroke:#004355;}.cls-12,.cls-13,.cls-2,.cls-24,.cls-9{stroke-miterlimit:10;}.cls-17,.cls-2,.cls-9{stroke-width:3px;}.cls-3{fill:#3bd9c6;}.cls-4{fill:#b779e7;}.cls-5{opacity:0.72;}.cls-6{fill:#329fbc;}.cls-7{opacity:0.64;}.cls-8{fill:#9d59dc;}.cls-10{fill:#fff;}.cls-11{fill:#dbbcf3;}.cls-12{stroke-width:3px;}.cls-13{fill:#fd9ee0;stroke:#fefdfe;}.cls-14{clip-path:url(#clip-path);}.cls-15{fill:#6b00d4;opacity:0.27;}.cls-16{opacity:0.52;}.cls-17{stroke:#431f52;stroke-linejoin:round;}.cls-18{fill:#9c59db;}.cls-19{clip-path:url(#clip-path-2);}.cls-20{fill:#58d4eb;}.cls-21{opacity:0.44;}.cls-22{opacity:0.53;}.cls-23{opacity:0.46;}.cls-24{fill:#a167c9;stroke:#412563;stroke-width:2px;}</style><clipPath id="clip-path" transform="translate(0 4.63)"><path class="cls-1" d="M98.09,27.41S95.67,3.69,75.6,1.71,47.85,22.88,47.91,26.43a41.34,41.34,0,0,0,.77,8C50,41,53.81,49.48,64.61,53.38,81.48,59.46,93.46,42.9,93.46,42.9l4.44-8.42s29.88,16.94,31.77,21.09c0,0,0-6.11-2.21-8.56S98.09,27.41,98.09,27.41Z"/></clipPath><clipPath id="clip-path-2" transform="translate(0 4.63)"><path class="cls-1" d="M42.79,28S41.18,2,22.36,6.25-8,44.16,13.48,54.65,43.87,48.73,42.79,28Z"/></clipPath></defs><g id="Calque_2" data-name="Calque 2"><g id="Accesories"><path class="cls-2" d="M98.88,286.66s13.84-8.44,16.7-5.18,2.76,10-.74,9.82S104.17,284.35,98.88,286.66Z" transform="translate(0 4.63)"/><path class="cls-3" d="M112.77,271.42c-1.17-2.11-5.6-3.41-8.76-2.29-4.1,1.44-3.17,19.21-3.17,19.21-.18-5.48,9.48-11.14,11.72-14.4A9.34,9.34,0,0,1,112.77,271.42Z" transform="translate(0 4.63)"/><path class="cls-3" d="M65.77,304.51s-3.44-.4-2.79,2.58,5.59,13.13,11.82,12.85,16-2.05,20.77-7.54,8.84-15.27,8.84-20.48c0-4.16-6.63-12.73-9.59-15.27-.75-.65-.92,1.25-1.14,1.29-.54,1.59,1.14,1.31,1.14,5.5s-1.12,13.69-8.38,19S71.82,310.88,65.77,304.51Z" transform="translate(0 4.63)"/><path class="cls-4" d="M61.27,297.13s-3.44-.41-2.79,2.57,5.59,13.13,11.83,12.85,16-2.05,20.76-7.54,8.84-15.27,8.84-20.48c0-4.16-6.63-12.73-9.59-15.27-.75-.65-.92,1.25-1.14,1.29-.53,1.59,1.14,1.32,1.14,5.51s-1.12,13.68-8.38,19S67.33,303.49,61.27,297.13Z" transform="translate(0 4.63)"/><path class="cls-3" d="M67.82,301.68a11,11,0,0,0-.33,3.15c0,.93-.09,1.86-.21,2.78l.09-.66c-.07.49-.15,1-.25,1.48a5.38,5.38,0,0,0-.19,2.52c.46,1.7,2.94,2.56,4.18,1.1a3,3,0,0,0,.78-1.4c0-.15.06-.31.08-.47.09-.54.16-1.08.23-1.62.09-.74.15-1.48.17-2.22a16.26,16.26,0,0,0-.17-2.7,5.19,5.19,0,0,0-.74-2.43,2,2,0,0,0-2-1,2.07,2.07,0,0,0-1.66,1.43Z" transform="translate(0 4.63)"/><path class="cls-3" d="M90.06,272.66c.52,1.31,1,2.64,1.49,3.95.28.71.65,1.37,1,2.06.16.33.31.67.46,1,.08.17.15.34.22.51l.06.15c.52,1.28,1,2.56,1.48,3.87s.71,2.9,1.27,4.24a2.87,2.87,0,0,0,3.09,2,2.78,2.78,0,0,0,2.45-2.77,20,20,0,0,0-1.4-4.7,37.88,37.88,0,0,0-2.07-4.54,28.5,28.5,0,0,0-2.44-3.89,20.43,20.43,0,0,0-3.36-3.21,1.39,1.39,0,0,0-1.62-.21,1.34,1.34,0,0,0-.61,1.51Z" transform="translate(0 4.63)"/><path class="cls-3" d="M86.61,289.73a142.27,142.27,0,0,1,1.76,14.55,2.16,2.16,0,0,0,2.11,2.1,2.12,2.12,0,0,0,2.11-2.1,153,153,0,0,0-1.92-15.67,2.13,2.13,0,0,0-2.59-1.47,2.16,2.16,0,0,0-1.47,2.59Z" transform="translate(0 4.63)"/><path class="cls-3" d="M77.19,299.07V310.9a2,2,0,0,0,4,0V299.07a2,2,0,0,0-4,0Z" transform="translate(0 4.63)"/><g class="cls-5"><path d="M102.55,281.1c2.22-3.35,5.9-5.24,8.72-8.1l-.47.85" transform="translate(0 4.63)"/><path class="cls-6" d="M103.46,282.15a13.67,13.67,0,0,0,2.46-2c.38-.34.77-.67,1.16-1l.27-.22,0,0,.61-.45a57.53,57.53,0,0,0,5-3.91L109,272.38a4,4,0,0,0-.13.91,2.24,2.24,0,0,0,3.35,1.92,4.07,4.07,0,0,0,.69-.55,2.34,2.34,0,1,0-3.31-3.31,54.44,54.44,0,0,1-4.43,4c-1.55,1.35-3.55,3-3.91,5.1a1.49,1.49,0,0,0,2.18,1.68Z" transform="translate(0 4.63)"/></g><g class="cls-7"><path class="cls-6" d="M96.56,279.35c-1.09,1.12-1.23,2.32-1.55,3.79s-.57,3-1,4.44a23.4,23.4,0,0,1-3.49,7,20.15,20.15,0,0,1-2.22,2.6c-.46.47-1,.92-1.45,1.36l-.61.52s-1,.76-.45.37a29.69,29.69,0,0,1-3.34,2.21c-.58.33-1.17.64-1.78.93l-.72.34-.16.07c-.24.11-.49.2-.74.3a7.78,7.78,0,0,0-4,2.79c-1.31,1.92-.86,4.35.16,6.28a10.52,10.52,0,0,0,6.89,5.2c6.53,1.42,11.13-3.58,14.21-8.63,1.88-3.08,3.92-6.15,5.51-9.39,1.74-3.53,2.83-7.43,1.64-11.32a3.84,3.84,0,1,0-7.4,2c.14.56.26,1.12.35,1.69s0-.87,0,.32c0,.26,0,.51,0,.77a16.59,16.59,0,0,1,0,1.73c0,.26,0,.51-.06.77,0,.43.09-.4,0,.3a22.55,22.55,0,0,1-.9,3.34,7.66,7.66,0,0,1-.27.72c.21-.51,0,.07-.15.28-.25.52-.53,1-.82,1.52s-.56.87-.85,1.29c-.7,1,.26-.29-.19.23-.16.2-.33.39-.5.58-.4.44-.82.85-1.26,1.25,0,0-.77.71-.5.48s-.35.24-.41.28a7,7,0,0,1-.88.51c.38-.19.11,0-.13,0s-1.06.17-.62.15-.58-.06-.13,0-.73-.21-.73-.21l-.84-.27a16.2,16.2,0,0,0-2.76-.53c-2-.25-3.66,1.7-3.89,3.43s.88,4.08,2.83,4.35,3.42,1.06,5.27,1.18a10.87,10.87,0,0,0,5.47-1.28,17.58,17.58,0,0,0,6.82-6.89,24.44,24.44,0,0,0,2.58-18.06l-7.4,2a2.76,2.76,0,0,1,.23,1.29,5.32,5.32,0,0,1,0,1.05c0-.22.1-.45-.08.24a13.21,13.21,0,0,1-1.22,3.2c-1.32,2.54-2.91,4.94-4.4,7.38-.61,1-1.2,2-1.85,3-.17.25-.35.5-.52.76-.06.09-.45.59,0,.09a15.24,15.24,0,0,1-1.2,1.35c-.18.18-1.14,1-.54.53-.19.13-.38.26-.58.38,0,0-1,.49-.45.26s-.53.16-.5.15c-.19.07-.73.07,0,0h-.69c-.91,0,.55.23-.31-.06l-.66-.21c.68.26.14.05,0,0s-.4-.24-.58-.37c.6.44,0,0-.12-.17s-.49-.65-.24-.26-.25-.5-.24-.47c.29.58-.1,0,0-.06l-1.14,2.77a3.91,3.91,0,0,1,.57-.31c-.83.43.56-.2.77-.29.69-.28,1.37-.57,2-.88a29.87,29.87,0,0,0,3.34-1.81,28.85,28.85,0,0,0,10.7-11.3,27.43,27.43,0,0,0,2.69-9c.32-2.78.32-6.77-2.33-8.41a1.81,1.81,0,0,0-2.16.27Z" transform="translate(0 4.63)"/></g><path class="cls-8" d="M91.35,292.94a75.09,75.09,0,0,1,.65,8.47,39.3,39.3,0,0,0,4.49-8.47,10.89,10.89,0,0,0,.76-2.58c0-.56-1.26-2.41-1.45-2.94l-1-2.95c-.14-.06-.26.11-.31.25-.61,1.65-.6,3.49-1.32,5.09" transform="translate(0 4.63)"/><path class="cls-8" d="M87.63,297.17c.34,2.25.5,5,.77,7.22,0,.25.65,1.12.51,1.33s-.49.86-.67.94c-2,.93-4.91,1.87-6.94,2.8a8.68,8.68,0,0,1,0-1c-.1,0-.19-.33-.19-.43-.06-1.35.26-2.68.2-4,0-.5-.41-1.23-.14-1.66a5.28,5.28,0,0,1,.94-.68,48.39,48.39,0,0,0,5.6-4" transform="translate(0 4.63)"/><path class="cls-8" d="M77.13,304.16c.09,1.66.17,3.21.26,4.87a6.4,6.4,0,0,1,0,1.31c-.14.27-1.23,1.49-1.48.66-.13-.45-.64-.08-1.11,0-.15,0-.55-.63-.65-.75a.49.49,0,0,1-.09-.36l.13-2.95a2.67,2.67,0,0,1,.85-2.27,4.53,4.53,0,0,1,2.07-.51" transform="translate(0 4.63)"/><path class="cls-9" d="M112.92,273.34c-.73-1.72-3.17-6.54-7.91-5.27-4.19,1.12-4.67,18.9-4.67,18.9.26-5.48,10.06-10.67,12.5-12.73C112.85,273.94,112.88,273.64,112.92,273.34Z" transform="translate(0 4.63)"/><path class="cls-9" d="M65.55,310.9c2.16,3.47,5.84,8.31,9.51,8.15,6.24-.28,16-2.05,20.76-7.54s8.84-15.27,8.84-20.48c0-2.23-1.89-5.71-4.11-8.86" transform="translate(0 4.63)"/><path class="cls-9" d="M64,309.39c1.82,1.9,4,3.26,6.32,3.16,6.23-.28,16-2.05,20.76-7.54s8.84-15.27,8.84-20.48c0-4.16-6.63-12.73-9.59-15.27-.75-.65-.92,1.25-1.14,1.29-.53,1.59,1.14,1.32,1.14,5.51s-1.12,13.68-8.38,19-14.61,8.44-20.67,2.08c0,0-3.44-.41-2.79,2.57A25.11,25.11,0,0,0,64,309.39" transform="translate(0 4.63)"/><path class="cls-10" d="M86.6,256.84c0-3.92-2.79-7.1-6.23-7.1s-6.23,3.18-6.23,7.1a8,8,0,0,0,.23,1.91,6.21,6.21,0,0,1,.61-.2c3.22-.9,6.64,1.26,7.8,4.84A7.16,7.16,0,0,0,86.6,256.84Z" transform="translate(0 4.63)"/><path class="cls-10" d="M78.18,271.28a35.36,35.36,0,0,1,4.11-4.52,2.37,2.37,0,0,0,.8-2.06.51.51,0,0,0,0-.13c-.43-.59-1.43-3.49-1.86-4.08l-6.84-1.74c-2.93,1.2-4.48,4.77-3.5,8.31a7.32,7.32,0,0,0,4.74,5.12A2.43,2.43,0,0,0,78.18,271.28Z" transform="translate(0 4.63)"/><path class="cls-10" d="M75,258.55a6.21,6.21,0,0,0-.61.2" transform="translate(0 4.63)"/><path class="cls-10" d="M71.92,280.09a6.84,6.84,0,0,0,.79,0,57.21,57.21,0,0,1,5.18-8.38,6.33,6.33,0,1,0-6,8.43Z" transform="translate(0 4.63)"/><path class="cls-10" d="M55,294.83a6.29,6.29,0,0,0,3.87-1.33,3.24,3.24,0,0,1,.37-.46c.37-.37.73-.78,1.12-1.18a6.33,6.33,0,1,0-5.36,3Z" transform="translate(0 4.63)"/><path class="cls-10" d="M64.05,289.3a6.12,6.12,0,0,0,2.35-.22c1.21-1.09,2.49-2.14,3.8-3.17.23-.53.45-1.08.66-1.63a4.92,4.92,0,0,0,.1-.67,6.33,6.33,0,1,0-6.91,5.69Z" transform="translate(0 4.63)"/><path class="cls-10" d="M82.78,263.39a7.58,7.58,0,0,0-3.13-4.1" transform="translate(0 4.63)"/><path class="cls-11" d="M84.29,251.66c.16-.22.09-.13-.2.25a1.77,1.77,0,0,0-.23.87c0,.28,0,.58,0,.88a4.82,4.82,0,0,1-.25,1.6,2.37,2.37,0,0,1-.76,1,5.21,5.21,0,0,0-1.42,1.19,6.29,6.29,0,0,0-.57,1.05c-.77,1.71-.78,3.52-1.34,5.27a4,4,0,0,1-.86,1.56c-.24.23-.34.29-.91.35a2.38,2.38,0,0,0-2.26,3,4.65,4.65,0,0,1-2,4.94c-1,.66-2,.59-3,1.06a3.4,3.4,0,0,0-1.81,3.85c.31,1.83.74,4.11-1.31,5.13a6.47,6.47,0,0,1-2.52.59,5.9,5.9,0,0,1-1.2,0,1.32,1.32,0,0,1-.82-.31,2.19,2.19,0,0,0-3.63,1c-.6,1.81-.16,4.27-2.23,4.95a7.47,7.47,0,0,1-3,.34,2.57,2.57,0,0,1-1.82-.71c-1.56-1.79-4.81.64-3.34,2.58,2.11,2.77,6.08,3,9.22,2a6.79,6.79,0,0,0,4.08-3c.9-1.56.77-3.41,1.32-5.08l-3.63,1c2.48,2.38,7,1.94,9.8.43A7.38,7.38,0,0,0,73,283a8.13,8.13,0,0,0,.34-3.06c0-.58-.52-1.89-.36-2.32l-.56.95c-.3.07-.34.08-.11,0l.45-.08a7.16,7.16,0,0,0,.8-.19,8.4,8.4,0,0,0,1.87-.81A9.85,9.85,0,0,0,80,267.38l-2.25,3a6.48,6.48,0,0,0,5.63-3.28,11.22,11.22,0,0,0,1.31-3.56,11.21,11.21,0,0,1,1-3.62l-.88.88c2.91-1.7,4.43-6,2.27-8.86a1.82,1.82,0,0,0-1.94-.79c.38-.08-.15,0-.28.07a1.19,1.19,0,0,0-.55.47Z" transform="translate(0 4.63)"/><path class="cls-12" d="M86.6,256.68c0-3.92-2.79-7.1-6.24-7.1s-6.25,3.18-6.25,7.1a8,8,0,0,0,.24,1.92,6.08,6.08,0,0,1,.6-.21c3.23-.89,6.66,1.27,7.82,4.85A7.19,7.19,0,0,0,86.6,256.68Z" transform="translate(0 4.63)"/><path class="cls-12" d="M78.77,272.08c3.32-.92,5.16-4.73,4.11-8.51a3.19,3.19,0,0,0-.11-.33" transform="translate(0 4.63)"/><path class="cls-12" d="M74.35,258.6c-2.94,1.19-4.5,4.76-3.51,8.31" transform="translate(0 4.63)"/><path class="cls-12" d="M75,258.39a6.08,6.08,0,0,0-.6.21" transform="translate(0 4.63)"/><path class="cls-12" d="M78.24,273.61a6.35,6.35,0,1,1-7.33-6.26" transform="translate(0 4.63)"/><path class="cls-12" d="M70.91,267.35a6.33,6.33,0,0,1,7.33,6.26" transform="translate(0 4.63)"/><path class="cls-12" d="M61.29,288.34a6.32,6.32,0,0,1-1.34,3.9" transform="translate(0 4.63)"/><path class="cls-12" d="M60,292.24c-1.16,1.48-4.62,3.12-6.58,2.59a6.18,6.18,0,0,1-4.79-6.29,6.91,6.91,0,0,1,9.72-6.3" transform="translate(0 4.63)"/><path class="cls-12" d="M71.89,279.94c.56,7.81-3.36,9.47-7.88,9.21a6.26,6.26,0,0,1-5.71-6.91" transform="translate(0 4.63)"/><path class="cls-12" d="M58.3,282.24c.92-4.81,4-7.45,7.44-7.11" transform="translate(0 4.63)"/><path class="cls-12" d="M82.77,263.24a7.55,7.55,0,0,0-3.13-4.1" transform="translate(0 4.63)"/><path class="cls-13" d="M98.09,27.41S95.67,3.69,75.6,1.71,47.85,22.88,47.91,26.43a41.34,41.34,0,0,0,.77,8C50,41,53.81,49.48,64.61,53.38,81.48,59.46,93.46,42.9,93.46,42.9l4.44-8.42s29.88,16.94,31.77,21.09c0,0,0-6.11-2.21-8.56S98.09,27.41,98.09,27.41Z" transform="translate(0 4.63)"/><g class="cls-14"><path class="cls-10" d="M74,24a4.49,4.49,0,0,1,.9,4.37c-.79,1.7-2.63,2-4.27,1.54-3.48-1.06-6-4.71-5.15-8.36.83-3.48,4.32-5.27,7.69-5.21a11.61,11.61,0,0,1,8.4,3.91c4.91,5.48,2.7,14.33-2.41,18.8-5.61,4.91-14.67,4.81-19.53-1.13-2.9-3.55-3.83-8.8-4-13.26a30.59,30.59,0,0,1,.59-7.21c.49-2.4,1.53-4.62,1.64-7.07a1.34,1.34,0,0,0-2.26-.93c-2,1.88-2.67,4.77-3.24,7.38a35.31,35.31,0,0,0-.82,8.26c.13,5.47,1.46,11.34,5,15.64,6.79,8.23,19.52,7.51,26.62.14,6.85-7.1,7.3-19.41-1-25.6A14.51,14.51,0,0,0,69.52,12.8c-4.87,1.5-8.49,5.89-7.95,11.14.56,5.46,6.12,11,11.92,9.67,5.42-1.2,7.31-9.36,1.64-11.57C73.91,21.56,73.39,23.19,74,24Z" transform="translate(0 4.63)"/><path class="cls-15" d="M54.54,58.93s31.91-15.46,47.29-54.3,34.76,57.16,34.76,57.16Z" transform="translate(0 4.63)"/><g class="cls-16"><path class="cls-10" d="M54.6,7.5C48.33,10.64,44.24,17,47.91,24c3.76,7.1,13.89,8,20.54,5a21.65,21.65,0,0,0,12.2-15.9c1.47-8.3-2.27-16.39-11.75-16-7.56.33-13.71,6-16.69,12.59-3.17,7-2,15,6.54,17.22,7.7,2.05,16.35-3.47,16.75-11.64C75.94,6.18,64-.24,58.71,8.77c-1.63,2.81-.79,7.11,2.27,8.65-.42-.21,1.82,1.23,2.25,1.49L60.52,16.2c-.54-.71.68-7.35,3.77-2.47l1,3.78c-.33.4-.36.27-.09-.37a14.24,14.24,0,0,1,.54-1.76,10.73,10.73,0,0,1,1.17-2.06c.49-.64,1.88-1.31,2.21-1.86.71-1.19,1.82,2.29-.67-.53L66.66,7.8c1.24,3.36-1.24,7.51-4.36,8.87-.9.4-3.22,1.19-4.09.39-1.15-1,.06-4.56.62-5.33C60.8,9,57.1,6.25,54.6,7.5Z" transform="translate(0 4.63)"/><path class="cls-10" d="M65.54,5c4.33,1.72,9.21.5,13.61,2.41C83.1,9.1,86.46,12.48,88.9,16c2,2.84,3.88,7.75,7.92,7.88a4.66,4.66,0,0,0,4.76-4.75c.06-3.75-3.42-7.95-5.61-10.68a29.54,29.54,0,0,0-9.26-8c-6.89-3.6-15.85-4.29-22.14.9-1.42,1.17-.4,3.13,1,3.68Z" transform="translate(0 4.63)"/><path class="cls-10" d="M89.19,4.21C83.3-6.3,67-4,62.28,6.17c-1.08,2.37.13,6.24,3.37,5.88a10.08,10.08,0,0,0,4.91-1.55c1.82-1.26,2.87-3.08,5.12-3.67,4-1.06,8.31.94,12.47-.07a1.76,1.76,0,0,0,1-2.55Z" transform="translate(0 4.63)"/><path class="cls-10" d="M79.91,32.33l-.09,0,.59.24a.37.37,0,0,1-.14-.07l.51.4a.68.68,0,0,1-.12-.12l.42.54,0-.07-.42,3.26c.1-.07.19-.16.28-.23l-.55.42a2.43,2.43,0,0,1,.52-.3l-.66.28a2.52,2.52,0,0,1,.47-.13l-.75.1a2.49,2.49,0,0,1,.61,0l-.76-.1h.12l-2-2a.49.49,0,0,1,0,.16l-.1-.76V34l.1-.76a.57.57,0,0,1,0,.14l.3-.7a1.07,1.07,0,0,1-.16.27l.48-.62-.17.17L79,32c-.33.24-.64.51-.95.77l.64-.5a1.79,1.79,0,0,1-.38.22l.76-.32a1.16,1.16,0,0,1-.32.08l.85-.11h-.33l.86.11-.23-.07.76.33-.14-.09.65.51a.68.68,0,0,1-.12-.12l-.66,5.07,1.48-.65L77,33.55a.52.52,0,0,1-.06.16l.34-.79-.09.14.51-.67-.11.11.67-.51a.94.94,0,0,1-.22.12l.79-.33-.24.07.89-.12h-.26l.89.12a.94.94,0,0,1-.24-.06l.8.34a.92.92,0,0,1-.21-.13l.68.53a.45.45,0,0,1-.11-.13l.86,3.27a1.81,1.81,0,0,1,.09-.31l-.34.81a2.69,2.69,0,0,1,.16-.29l-.53.69a2.27,2.27,0,0,1,.31-.31l-.69.53a2.32,2.32,0,0,1,.38-.21l-.81.34a1.57,1.57,0,0,1,.31-.08l-.91.12H80l-1.72-.47.07,0L77.66,36a1.21,1.21,0,0,1,.16.16l-.53-.69a1.14,1.14,0,0,1,.1.19l-.34-.82a1.66,1.66,0,0,1,.06.21L77,34.14a1.5,1.5,0,0,1,0,.3l.13-.91a1.58,1.58,0,0,1-.11.37l.35-.82a1.51,1.51,0,0,1-.2.35l.54-.69a2.37,2.37,0,0,1-.27.28l.69-.54a1,1,0,0,1-.25.16l.82-.34a1.28,1.28,0,0,1-.28.07l.92-.12h-.07l.91.13-.2-.06.83.35a1,1,0,0,1-.2-.13l.71.55L81.19,33l.56.72a.76.76,0,0,1-.12-.19l.36.86a1.46,1.46,0,0,1,0-.2l.12,1a2.17,2.17,0,0,1,0-.44l-.13,1a1.58,1.58,0,0,1,.11-.37l-.37.87a2.33,2.33,0,0,1,.2-.34l-.57.75a2.37,2.37,0,0,1,.27-.28l-.75.58a1.74,1.74,0,0,1,.26-.15l-.89.37.21-.06-1,.13h.22l-1-.14a1.66,1.66,0,0,1,.21.06L78,36.7l.14.07-1.34-1.34a1.28,1.28,0,0,1,.15.25l-.38-.9a2.86,2.86,0,0,1,.07.28l-.14-1a1.41,1.41,0,0,1,0,.29l.13-1a1.29,1.29,0,0,1-.08.28l.38-.9a1.23,1.23,0,0,1-.14.25l.59-.77a1,1,0,0,1-.2.2l.77-.59a1,1,0,0,1-.17.1l2.93-.39-.09,0,.91.39a6.6,6.6,0,0,0-1.21-.55l.89.37L81,31.64l.74.57-.06-.06a3.67,3.67,0,0,0-1.58-.92,3.6,3.6,0,0,0-1.9,0,3.69,3.69,0,0,0-2.5,2.5,4,4,0,0,0,1.8,4.67,4.12,4.12,0,0,0,5.08-.72A4.88,4.88,0,0,0,83,31.35,4.49,4.49,0,0,0,76.4,31a5.24,5.24,0,0,0-1.66,3.82A4.39,4.39,0,0,0,79,39.15a4.79,4.79,0,0,0,4-2.26,4.6,4.6,0,0,0,.23-4.68,4.16,4.16,0,0,0-2.39-1.95,4.45,4.45,0,0,0-4,1.14,4.61,4.61,0,0,0-1.43,2.39,3.56,3.56,0,0,0,.9,3.44,4.17,4.17,0,0,0,1.76,1,4.41,4.41,0,0,0,3.3-.41,4.08,4.08,0,0,0,2-2.54,3.31,3.31,0,0,0-4.83-3.72l-1.42.76a3.12,3.12,0,0,0-1.54,2.36,3.06,3.06,0,0,0,.89,2.71,4.28,4.28,0,0,0,2.87,1.18,4.57,4.57,0,0,0,2.36-.69,4.13,4.13,0,0,0,1.87-2.39,4.21,4.21,0,0,0-.36-2.94l.29.69a5,5,0,0,0-.38-.92,2.85,2.85,0,0,0-2.47-1.42,5.08,5.08,0,0,0-2.48.6,4.16,4.16,0,0,0-1.79,1.71,2.69,2.69,0,0,0,2.33,4.05A3.29,3.29,0,0,0,81,36.37a2.44,2.44,0,0,0-1.06-4Z" transform="translate(0 4.63)"/></g></g><path class="cls-17" d="M98,27.33S95.6,3.6,75.53,1.62,47.78,22.8,47.84,26.35a41.31,41.31,0,0,0,.77,8c1.34,6.54,5.13,15,15.93,18.93,16.87,6.09,28.85-10.48,28.85-10.48l4.44-8.42s29.88,17,31.77,21.1c0,0,0-6.12-2.21-8.57S98,27.33,98,27.33Z" transform="translate(0 4.63)"/><path class="cls-18" d="M42.27,28S40.66,1.91,21.83,6.21-8.55,44.12,13,54.61,43.35,48.7,42.27,28Z" transform="translate(0 4.63)"/><g class="cls-19"><path class="cls-20" d="M37.8,29.51a9.52,9.52,0,0,0-.43-5.07,21,21,0,0,0-2.52-4.66,12.5,12.5,0,0,0-3.77-3.89c-1.73-1-3.8-.89-5.73-.8-3.73.19-7.42,1.15-9.76,4.28S12.48,26.63,12,30.28c-.91,7,1.47,15,8.45,18.09,3.31,1.45,7.44,1.51,9.87-1.53,2-2.51,2.35-6,2-9.12-.36-3.64-1.77-7.92-5.52-9.35a4.25,4.25,0,0,0-5.23,2.11c-1.06,1.83-1,4.23-.76,6.26s3.19,1.32,3.32-.45a11,11,0,0,1,1.15-3.45c.2-.5.21-.14-.17-.32a3.34,3.34,0,0,1,1.13.95c1.27,1.59,1.52,3.88,1.53,5.85,0,1.51-.11,3.85-1.48,4.83s-4-.15-5.24-1.11c-3.92-3-4.67-8.41-3.89-13,.41-2.44,1-5.36,2.37-7.46C20.76,20.86,23,20.38,25,20.14a12.14,12.14,0,0,1,4.12-.05,6.19,6.19,0,0,1,3,2.33,21.4,21.4,0,0,1,2.41,3.68c.71,1.29,1.58,2.42,2.35,3.67a.52.52,0,0,0,1-.26Z" transform="translate(0 4.63)"/><g class="cls-21"><path class="cls-18" d="M36.07,13c-.48,2-.65,4-1,5.94a53.3,53.3,0,0,1-1.4,6,69.12,69.12,0,0,1-4.4,11.17A76.15,76.15,0,0,1,23.6,46c-1.84,2.63-4.18,5-7.3,6A2.52,2.52,0,0,0,17,57c3.73.36,8,.51,11.2-1.73,3.4-2.36,5-6.84,6.43-10.53,3.19-8,4.8-16.49,6.34-24.94H36.2c2,6.73,2.12,14.18-.66,20.72A29.73,29.73,0,0,1,24.45,53.76c-2.49,1.62-.95,5.69,2.06,4.88a21.6,21.6,0,0,0,11.87-8.27c2.71-3.73,4.89-9.32,3.43-13.89-.6-1.91-3.94-2.33-4.3,0a50.37,50.37,0,0,1-.95,5.86,16.67,16.67,0,0,1-2.47,5.11,14.79,14.79,0,0,1-9,6l2.06,4.88a31.54,31.54,0,0,0,13.56-16c3-7.66,2.42-16.05.23-23.84-.62-2.22-4.25-2.46-4.74,0-1.52,7.67-3,15.42-5.65,22.81-.63,1.77-1.33,3.52-2.13,5.23-.69,1.5-1.39,3.28-2.68,4.37-2.32,2-6,1.39-8.77,1.09l.66,4.92c8-2.44,12.31-11,15.75-18a63.27,63.27,0,0,0,4.83-12.6c1.06-4.19,1.93-9.19.6-13.39a1.43,1.43,0,0,0-2.74,0Z" transform="translate(0 4.63)"/></g><g class="cls-22"><path class="cls-10" d="M27.29,32.32c-.1-.2-.2-.4-.29-.61l.12.28a1.75,1.75,0,0,1-.12-.32L27,32a1.22,1.22,0,0,1,0-.27l-.05.38a4.5,4.5,0,0,0,.07-.63c0-.1,0-.2,0-.3l0,.41a1.34,1.34,0,0,1,.07-.27l-.16.39a1.25,1.25,0,0,1,.22-.37l-.27.34a1.34,1.34,0,0,1,.21-.2l-.36.28a1.06,1.06,0,0,1,.2-.12l-.42.18a.83.83,0,0,1,.21-.06l-.48.07h.18L26,31.76l.21.06-.45-.18.2.11-.38-.29a2.16,2.16,0,0,1,.36.38l-.31-.4a6.58,6.58,0,0,1,.81,1.28l-.21-.51a1.8,1.8,0,0,1,.1.4L26.2,32a1.6,1.6,0,0,1,0,.38l.08-.61a1.56,1.56,0,0,1-.1.37l.24-.57a1.38,1.38,0,0,1-.17.29l.38-.49a2.39,2.39,0,0,1-.22.23l.5-.39-.58.45.51-.4-.2.11.62-.26a.79.79,0,0,1-.22.06l.7-.09a2.29,2.29,0,0,1-.37,0l.7.09a1.57,1.57,0,0,1-.29-.08l.63.27a2,2,0,0,1-.37-.22l.54.41a1.85,1.85,0,0,1-.39-.4l.41.54a2.6,2.6,0,0,1-.28-.49l.28.65a2.23,2.23,0,0,1-.16-.6l.09.71a3.1,3.1,0,0,1,0-.61l-2,2.6a1.27,1.27,0,0,1,.38-.11l-.71.1c.15,0,.31,0,.46,0h.21a2.5,2.5,0,0,0,1.83-.78l-2.24.6h.05l.6.08.61-.08A2.26,2.26,0,0,0,29,33a1.2,1.2,0,0,0,.29-.5,1.17,1.17,0,0,0,.15-.58,1,1,0,0,0,0-.6,1.61,1.61,0,0,0-.27-.85l0-.05.23,1.78v-.06a2.5,2.5,0,0,0-.65-2.45,4.48,4.48,0,0,0-.73-.57,2.44,2.44,0,0,0-.41-.18,2,2,0,0,0-.46-.16,4.33,4.33,0,0,0-2,0,2.65,2.65,0,0,0-1.88,1.88,4.48,4.48,0,0,0,.16,2.59,5.35,5.35,0,0,0,.54,1.1,5.12,5.12,0,0,0,.83,1,4.56,4.56,0,0,0,1.66.94l.18,0a4.79,4.79,0,0,0,.76.1,2.86,2.86,0,0,0,1.29-.25,3.32,3.32,0,0,0,1.16-.77,3.72,3.72,0,0,0,.85-1.51,3.67,3.67,0,0,0,0-2.2,5.56,5.56,0,0,0-1.29-2,6.2,6.2,0,0,0-.46-.42,5.61,5.61,0,0,0-.92-.68,2.73,2.73,0,0,0-2.75,0,2.84,2.84,0,0,0-1.31,2.31,2.7,2.7,0,0,0,.3,1.33,2.14,2.14,0,0,0,.65.72l.28.2-.25-.2a6.52,6.52,0,0,0,1,.81,1,1,0,0,0,1.23-.15,1,1,0,0,0,.16-1.23Z" transform="translate(0 4.63)"/></g><g class="cls-23"><path class="cls-10" d="M36.26,9.81C32.88,6.67,28.1,5.72,23.6,6.35a21.22,21.22,0,0,0-6.23,1.9c-2.08,1-4.35,2.45-5,4.79s.5,4.35,2.15,5.87c1.28,1.19,2.46,2,2.35,3.95a8.42,8.42,0,0,1-2.08,4.8,5.9,5.9,0,0,1-1.52,1.17,3.61,3.61,0,0,1-.8.22c-.2,0-1.22,0-1,0a3.57,3.57,0,0,1-2-.81,4.49,4.49,0,0,1-.84-1.16,3.78,3.78,0,0,1,.6-3.74,4.91,4.91,0,0,1,.93-.73c.3-.17.24.22,0-.1.14.17.22.36.19.26.08.28.45,1.53.1,1.67-.11,0,.28-.45.39-.53-1.06.74,1.08-.36.89-.15s-.44-.47-.22-.05-.06-.31-.07-.43a5.63,5.63,0,0,1,.05-1.23,14.72,14.72,0,0,1,.3-1.47,4,4,0,0,1,.33-1c.18-.36.26-.62.43-.65s-1.27.6-1.1.2c0,0,1,1.48,1.07,1.58a5.77,5.77,0,0,1,0,4.21A6,6,0,0,1,10,27.81c-2,1.34-4,2.65-5,4.95-1.23,2.84-.27,5.88.81,8.61A35.59,35.59,0,0,0,14.6,54.49l2.82-4.84c-3.93-1.6-7-5.21-9-9.1a21.24,21.24,0,0,1-1.83-5.92,24.27,24.27,0,0,1-.17-3.41A13.47,13.47,0,0,1,6.7,27.8H2.09c.88,6.49,2,12.87,5.44,18.56,3,4.91,7.37,9.54,12.94,11.35,1.42.46,2.71-1.59,1.51-2.59a25.22,25.22,0,0,1-4.24-4.46l-2.69,2.07a37.6,37.6,0,0,0,7.51,5.59c1.76,1,3.71-1.4,2.19-2.84q-3.24-3.07-6.56-6c-1.69-1.5-4.14.9-2.5,2.5Q18.9,55,22.19,58l2.2-2.84a33.83,33.83,0,0,1-6.92-4.89,1.71,1.71,0,0,0-2.42,2.42,25.35,25.35,0,0,0,5.05,4.82L22,55.12c-1-.89-2-1.7-3-2.58s-1.89-1.92-2.81-2.88a31.82,31.82,0,0,1-4.63-6.08c-3-5.21-4-11.17-4.82-17-.35-2.42-4.06-2.13-4.61,0a30.93,30.93,0,0,0-1,4.35A16.58,16.58,0,0,0,1,34.8a26.88,26.88,0,0,0,2.35,8.52A24.13,24.13,0,0,0,15.18,54.94a2.94,2.94,0,0,0,3.74-.74,2.91,2.91,0,0,0-.23-3.81,31,31,0,0,1-7.93-13.45,4.12,4.12,0,0,1-.2-1.55c.08-.76-.07.07.12-.27s-.46.45.17-.23a10.8,10.8,0,0,1,2.22-1.75,12.75,12.75,0,0,0,5-6,12.32,12.32,0,0,0,.3-7.43c-.7-2.64-2.57-5.61-5.36-6.35-6.47-1.71-9.18,8.89-6.84,13.18A5.79,5.79,0,0,0,13.81,29c2.64-1.46,3-5.19,2.16-7.79a6,6,0,0,0-7-4.32,8.63,8.63,0,0,0-5.9,5.6A9.13,9.13,0,0,0,9.59,34.6a9.27,9.27,0,0,0,7.52-1.41A12.74,12.74,0,0,0,21.6,26c.75-3.06.53-6.39-1.56-8.88a16.51,16.51,0,0,0-2.61-2.49c-.2-.14-.19-.14-.19-.11.12-.46,1-.89,1.33-1.1,5-3,10.91-2.48,16.37-1.33a1.37,1.37,0,0,0,1.32-2.27Z" transform="translate(0 4.63)"/></g></g><path class="cls-17" d="M42.42,27.48S40.81,1.39,22,5.7-8.4,43.61,13.11,54.1,43.5,48.18,42.42,27.48Z" transform="translate(0 4.63)"/><path class="cls-24" d="M47.28,29.7c0-.71-5.84-5.09-8.52,1.59s0,6.47.89,6.27.36-5.62,3.7-4.82S47.56,36.57,47.28,29.7Z" transform="translate(0 4.63)"/></g></g></svg>