<?xml version="1.0" encoding="UTF-8" standalone="no"?>
<svg
   viewBox="0 0 198.65 222.44"
   version="1.1"
   id="svg28"
   sodipodi:docname="globe-earth.svg"
   inkscape:version="1.4.2 (2aeb623e1d, 2025-05-12)"
   xmlns:inkscape="http://www.inkscape.org/namespaces/inkscape"
   xmlns:sodipodi="http://sodipodi.sourceforge.net/DTD/sodipodi-0.dtd"
   xmlns="http://www.w3.org/2000/svg"
   xmlns:svg="http://www.w3.org/2000/svg">
  <sodipodi:namedview
     id="namedview28"
     pagecolor="#ffffff"
     bordercolor="#000000"
     borderopacity="0.25"
     inkscape:showpageshadow="2"
     inkscape:pageopacity="0.0"
     inkscape:pagecheckerboard="0"
     inkscape:deskcolor="#d1d1d1"
     showguides="true"
     inkscape:zoom="2.0058639"
     inkscape:cx="29.164491"
     inkscape:cy="135.85169"
     inkscape:window-width="1600"
     inkscape:window-height="836"
     inkscape:window-x="0"
     inkscape:window-y="27"
     inkscape:window-maximized="1"
     inkscape:current-layer="svg28" />
  <defs
     id="defs2">
    <style
       id="style1">.cls-1,.cls-12,.cls-13{fill:none;}.cls-2{fill:#221f20;}.cls-3{fill:#98e6f3;}.cls-3,.cls-4{stroke:#221f20;}.cls-12,.cls-13,.cls-3,.cls-4{stroke-linecap:round;stroke-linejoin:round;stroke-width:5px;}.cls-4{fill:#f8d174;}.cls-5{fill:#7dd365;}.cls-6{opacity:0.29;}.cls-7{clip-path:url(#clip-path);}.cls-8{fill:#ebfef3;}.cls-9{fill:#84263d;}.cls-10{opacity:0.31;}.cls-11{clip-path:url(#clip-path-2);}.cls-12{stroke:#292e73;}.cls-13{stroke:#4b271d;}.cls-14{fill:#fff;}</style>
    <clipPath
       id="clip-path">
      <path
         class="cls-1"
         d="M88.88,149.42C67.24,146.63,44.5,128.25,36,108.16c-5.15-12.19-6.49-27.54,3-45C52.78,37.94,73.84,28.48,89.55,25a57.12,57.12,0,0,1,38.86,5.36c16.75,8.79,41,27.94,35.18,62.92C156.72,134.64,124.33,154,88.88,149.42Z"
         id="path1" />
    </clipPath>
    <clipPath
       id="clip-path-2">
      <path
         class="cls-1"
         d="M172.13,28.57A52.47,52.47,0,0,0,156,14.33L135.11,2.5l-3.87,11.86,15.48,11.37s62.71,54.93,0,116.48c-43.39,42.59-92.19,6.37-92.19,6.37l-11.55-7-3.51,13.16s2.09,1.9,5.87,4.65L29.8,185.21l-6.18-4.13A11.57,11.57,0,0,0,7.82,184l-5.19,7.21L45.3,219l3.39-3.77a12.72,12.72,0,0,0-2.42-19.08l-7-4.64L55,165.67c23.49,13.68,70,29.74,113.44-20.37C210.2,97.1,186.56,47.91,172.13,28.57Z"
         id="path2" />
    </clipPath>
  </defs>
  <g
     id="Calque_2"
     data-name="Calque 2"
     transform="matrix(0.75392499,-0.4858715,0.4858715,0.75392499,-21.8588,72.751186)">
    <g
       id="Layer_21"
       data-name="Layer 21">
      <path
         class="cls-2"
         d="m 131.07,19.74 c -1,2.09 -1.7,4.29 -2.67,6.39 -0.97,2.1 -2.35,4 -3,6.21 -0.87,3 3.13,5.43 5.33,3.1 1.77,-1.87 2.69,-4.42 3.64,-6.79 a 29.26,29.26 0 0 0 2.07,-7.45 c 0.37,-2.83 -4.21,-4 -5.39,-1.46 z"
         id="path3" />
      <path
         class="cls-2"
         d="m 56.52,153.24 c 4.29,-3.22 9.71,-8.21 8.25,-14.13 a 1.61,1.61 0 0 0 -2.34,-1 c -4.28,2.21 -6.18,7.34 -9,11 -1.59,2.06 0.54,6 3.13,4.05 z"
         id="path4" />
      <path
         class="cls-3"
         d="m 88.74,150.32 c -21.63,-2.79 -44.38,-21.16 -52.86,-41.26 -5.15,-12.18 -6.5,-27.53 3,-45 C 52.64,38.85 73.7,29.38 89.42,25.91 a 57.23,57.23 0 0 1 38.86,5.36 c 16.75,8.8 41,27.94 35.17,62.93 -6.86,41.35 -39.25,60.7 -74.71,56.12 z"
         id="path5" />
      <path
         class="cls-4"
         d="m 131.1,15.26 15.49,11.37 c 0,0 62.71,54.94 0,116.48 -43.4,42.59 -92.19,6.38 -92.19,6.38 l -11.55,-7 -3.52,13.16 c 0,0 67.53,61.34 128.93,-9.47 C 210.07,98 186.43,48.82 172,29.47 A 52.4,52.4 0 0 0 155.83,15.24 L 135,3.41 Z"
         id="path6" />
      <path
         class="cls-4"
         d="m 2.5,192.07 5.19,-7.21 A 11.56,11.56 0 0 1 23.48,182 l 22.66,15.09 a 12.72,12.72 0 0 1 2.41,19.08 l -3.38,3.78 z"
         id="path7" />
      <polygon
         class="cls-4"
         points="54.4,167.29 38.87,192.97 29.35,186.64 45.2,160.32 "
         id="polygon7" />
      <path
         class="cls-5"
         d="M 102.82,92.06 A 48.32,48.32 0 0 1 99,88.74 c -1.26,-1.13 -0.37,-0.72 -0.71,-0.55 -0.13,0.06 -1.29,2.59 -1.41,2.28 -0.12,-0.31 2.12,1 2.66,1.37 0.54,0.37 0.9,0.83 1.34,1.22 0.44,0.39 1,1 1.53,1.45 q 1.38,1.42 -0.82,-1.27 v -6 a 7.24,7.24 0 0 1 -0.77,2.34 l 3,-5.13 c 1,-1.15 5.46,-0.37 1.86,-1.16 C 93,80.45 84.76,97.76 96.63,104.7 l 1,0.56 -4.22,-4.21 c -1,-1.35 0.62,-3.07 -0.84,-0.6 -0.64,1.07 -0.85,2.42 -1.36,3.41 A 27.59,27.59 0 0 1 85,111.32 l 16,16 c 7.27,-8.93 15.46,-17.66 21.09,-27.74 a 9.49,9.49 0 0 0 -2.44,-12.21 c -4.06,-3 -8.61,-2.27 -12.42,0.74 -8.36,6.64 -15.13,15.29 -22.23,23.21 -3.75,4.19 -4.51,10.33 -0.88,14.88 3.35,4.21 9.8,6.07 14.61,2.92 12.23,-8 28.3,-34.36 9.75,-44.7 l -9,21.47 c 5.85,1.16 11.94,1.59 17.16,-1.8 5.6,-3.65 8.78,-10.27 6.94,-16.9 -2.48,-8.9 -15.47,-16.09 -24.3,-16 -8.83,0.09 -17.65,7.56 -16.4,16.88 1.19,8.94 9.78,12.33 17.81,12 4.5,-0.17 5.58,-5.57 2.18,-8 z"
         id="path8" />
      <path
         class="cls-5"
         d="m 132.29,46.22 0.4,1.07 1,-3.76 c 1.22,-1.51 0.26,0.39 -1,0.09 -1.26,-0.3 -2.44,-0.91 -3.63,-1.23 -3.68,-1 -7.6,-1.4 -11.35,-2 -7.24,-1.26 -12.2,4 -11.12,11.11 0.87,5.72 5.18,10.32 10.14,13 4.12,2.22 9.62,2.24 13.38,4.94 3,2.12 4.61,6.07 6.28,9.17 a 78.19,78.19 0 0 0 8.3,12.76 c 2.8,3.38 8.71,3.63 12.31,1.53 4.1,-2.4 5.47,-7 4.66,-11.44 A 136.81,136.81 0 0 0 153,53.68 l -17.48,10.16 a 10.18,10.18 0 0 1 3.62,4.38 c 1.27,3.42 1.12,6.35 4.33,8.88 4.08,3.22 9,3.68 13.06,0 8.52,-7.71 1.1,-22.19 -6.24,-28 -9.49,-7.56 -21.17,1.57 -16.4,12.66 3.49,8.12 5.87,16.61 8.21,25.12 L 159,77 C 153.52,71.34 151.15,63.25 145.62,57.45 A 28.16,28.16 0 0 0 134,50.29 c -2.22,-0.73 -9.48,-1.08 -10,-3.64 l -8.71,11.43 c 7.53,1 16.64,3.31 23.11,-2 5,-4.15 3.85,-11.2 -1.47,-14.49 -2.81,-1.74 -6.65,1.82 -4.68,4.68 z"
         id="path9" />
      <path
         class="cls-5"
         d="m 124.21,144.25 c 2.11,-1.34 3.34,-3.07 4.88,-5 0.67,-0.83 1.4,-1.61 2.12,-2.4 a 16.24,16.24 0 0 0 1.25,-1.37 q 1.92,-1.84 -1.81,0.31 l -4,-1.08 c 1.68,1.09 1.6,0.14 -0.26,-2.82 q -1.24,-6 -1.41,-1 a 9.51,9.51 0 0 0 0.31,3 c 0.83,2.82 2.55,4.46 4.85,6.22 3.67,2.8 9.55,0.57 11.67,-3.06 a 8.66,8.66 0 0 0 -3.06,-11.67 l 0.75,0.49 2.18,3.74 c 0.14,0.5 0.24,2.09 0.2,0.63 a 13,13 0 0 0 -0.43,-2.92 9.57,9.57 0 0 0 -4.53,-5.58 c -4.26,-2.25 -9.74,-2.28 -13.36,1.23 -2.41,2.35 -3.75,5.62 -4.94,8.69 -1.19,3.07 -2.16,6.34 -1.4,9.79 a 4.78,4.78 0 0 0 7,2.83 z"
         id="path10" />
      <path
         class="cls-5"
         d="m 44.12,74.37 c 0.1,-4.35 -0.24,-5.54 -1,-3.58 a 11.06,11.06 0 0 0 -0.5,1.11 24.05,24.05 0 0 0 -2.62,2.94 47.88,47.88 0 0 0 -5.71,7.78 22.14,22.14 0 0 0 -0.44,21 c 2.27,4.71 8.77,6.32 13.26,4.35 5.15,-2.27 7,-7.15 6.15,-12.53 A 74.93,74.93 0 0 1 51.9,81.58 c 0.08,-4.54 2.1,-8.52 2.42,-13 0.36,-4.91 -4.6,-7.11 -8.6,-6.56 -7.54,1 -11.82,9.52 -13.35,16.22 -1.71,7.46 -0.82,15.41 0.41,22.86 L 52.2,93 c 0.67,1.23 -0.27,0.7 0.67,-1.29 a 37.69,37.69 0 0 1 3.55,-5.15 C 58.75,83.12 61,79.16 61.17,75 61.41,66.54 52.26,57.82 44.12,63.52 c -3.89,2.72 -4.23,8.25 0,10.9 z"
         id="path11" />
      <path
         class="cls-5"
         d="m 66.68,49.44 c 5.28,-2.8 10.65,-6 16.47,-7.54 L 75.08,31.41 c -0.71,1.28 -2.45,1.48 -4.09,2.18 -3,1.29 -4.23,5.54 -3.43,8.43 a 7.71,7.71 0 0 0 7.2,5.49 c 6.61,0.32 11.33,-4.9 13.38,-10.6 1.8,-5 -3.83,-10.53 -8.79,-8.79 -8.51,3 -15.64,8 -18.59,16.77 -1.17,3.51 3,6.11 5.92,4.55 z"
         id="path12" />
      <path
         class="cls-5"
         d="m 98.28,79.34 a 125.16,125.16 0 0 0 12.72,7.31 26.09,26.09 0 0 0 9.45,2.65 41.13,41.13 0 0 0 4.84,0 c 4.09,-0.2 -2.86,0.95 -0.77,-4.34 L 127,80.62 c -1.91,2.43 -6.06,3.3 -8.69,5 a 51.89,51.89 0 0 0 -8.93,7.1 A 49.3,49.3 0 0 0 98,113.35 c -1.34,4.81 -1.77,17.13 6.74,14.59 3.81,-1.14 5.81,-5.38 7.76,-8.47 a 51.19,51.19 0 0 1 6.38,-7.93 c 5,-5.23 10.55,-8.6 16.63,-12.34 8.58,-5.27 12,-16.11 4.19,-23.82 a 18.57,18.57 0 0 0 -12.77,-5 c -3.65,-0.08 -6.87,0.6 -10.43,-0.39 -6.38,-1.76 -15.82,-4.51 -19.91,2.76 a 4.9,4.9 0 0 0 1.72,6.56 z"
         id="path13" />
      <path
         class="cls-5"
         d="m 148.9,91 a 5.54,5.54 0 0 1 2,8.42 c -3.52,4.5 -4.43,9 -0.62,13.7 1.77,2.18 5,2 7.26,0.94 l 0.51,-0.24 c 2.84,-1.33 3,-4.86 1.92,-7.31 a 4.35,4.35 0 0 0 -1.22,-1.86 q 0.72,2.77 1.56,0.52 c 0.91,-0.87 1.53,-2.94 1.8,-4.12 a 13.65,13.65 0 0 0 -0.44,-7.44 c -1.78,-5.21 -5.92,-7.84 -11.34,-7.85 -2.63,0 -4,4 -1.42,5.24 z"
         id="path14" />
      <g
         class="cls-6"
         id="g19">
        <g
           class="cls-7"
           clip-path="url(#clip-path)"
           id="g18">
          <path
             class="cls-8"
             d="m 90.57,48.92 c 0.08,-0.2 0.9,-1.55 0.89,-1.56 0.43,0.49 -2.07,0.92 -0.33,0.48 0.67,-0.17 2.41,-0.21 0.18,-0.12 l -1.47,-0.2 q 4.09,1.27 -4.9,-4.05 V 30.32 l -0.28,0.42 5.52,-5.52 A 16.83,16.83 0 0 0 84.35,31 34.66,34.66 0 0 0 82.46,35.9 L 84.11,32 a 4.82,4.82 0 0 1 -0.6,1 l 2.61,-3.38 A 15.43,15.43 0 0 1 84.8,31 l 3.46,-2.67 a 11.34,11.34 0 0 1 -1.93,1.06 l 4.15,-1.75 a 22.24,22.24 0 0 1 -3.4,0.94 l 4.76,-0.64 a 10.14,10.14 0 0 1 -2.27,0 l 4.84,0.65 a 6.2,6.2 0 0 1 -1,-0.26 l 4.39,1.85 a 3.49,3.49 0 0 1 -0.86,-0.44 l 3.75,2.9 A 2.67,2.67 0 0 1 100,32 l 2.9,3.76 -0.19,-0.36 1.87,4.44 -0.08,-0.42 0.66,4.94 v -0.48 l -0.66,4.95 0.21,-0.59 -1.87,4.45 0.37,-0.51 -2.87,3.82 0.48,-0.43 -3.82,2.92 a 14.44,14.44 0 0 1 2,-1.07 l -4.48,1.89 a 14.89,14.89 0 0 1 3,-0.82 l -5,0.67 a 15.29,15.29 0 0 1 3.1,0 l -5,-0.68 a 14.76,14.76 0 0 1 3,0.8 L 89,57.33 l 0.7,0.33 -9.48,-16.47 -0.08,0.67 0.69,-5.08 a 5.29,5.29 0 0 1 -0.37,1.29 l 1.93,-4.58 a 11.24,11.24 0 0 1 -1,1.71 l 3,-3.91 a 11.27,11.27 0 0 1 -1.92,1.86 l 4,-3.06 a 12.51,12.51 0 0 1 -1.75,1 l 4.72,-2 a 13.41,13.41 0 0 1 -2.57,0.71 l 5.31,-0.72 a 9.8,9.8 0 0 1 -2.65,0 L 94.85,29.8 94.2,29.65 108.9,49 v -0.6 l -0.71,5.34 0.15,-0.57 -2,4.8 a 3.66,3.66 0 0 1 0.57,-1 L 103.77,61 a 4.51,4.51 0 0 1 0.85,-0.84 l -4.07,3.15 c 4.71,-3.11 8.84,-7.34 10.18,-13.05 a 20.1,20.1 0 0 0 -1,-12.67 c -1.73,-4.1 -4.29,-6.71 -8,-9.3 -4.34,-3.05 -10.68,-3.4 -15.68,-2.22 A 21.59,21.59 0 0 0 75.87,31.89 25.1,25.1 0 0 0 68.79,49 19.34,19.34 0 0 0 73.1,61.13 c 2.47,3.2 6.29,6.44 10.41,7.19 4.94,0.9 9,1.34 14,0 a 28.92,28.92 0 0 0 12,-6.8 C 115.23,56.1 118,49 118.38,41.19 c 0.22,-4.15 -1.64,-8.38 -4.1,-11.56 -2.7,-3.5 -5.76,-5.23 -9.91,-6.84 -7.84,-3 -17.89,-1.66 -25,2.61 -6,3.58 -10.13,9.1 -11.06,16 -1,7.74 2.41,16.17 9.5,20.08 7.91,4.41 17.68,3.52 25.19,-1.41 3.75,-2.49 7.25,-5.47 9.3,-9.56 3.35,-6.68 2.62,-13 -0.38,-19.5 -2.26,-4.91 -8.59,-8 -13.76,-7.9 A 16.19,16.19 0 0 0 82.38,36.37 23.23,23.23 0 0 0 81.8,42.3 c 0.12,1.82 -0.17,3.2 0.12,5.45 0.63,5 6.73,5.92 8.65,1.17 z"
             id="path15" />
          <path
             class="cls-8"
             d="m 73.17,100.56 a 10.27,10.27 0 0 0 5.24,-1.17 12.22,12.22 0 0 0 7.18,-7.19 10.21,10.21 0 0 0 1.17,-5.2 l -0.49,-3.61 a 13.6,13.6 0 0 0 -3.49,-6 L 80,75.24 a 13.43,13.43 0 0 0 -6.86,-1.85 10.23,10.23 0 0 0 -5.23,1.17 12.16,12.16 0 0 0 -7.18,7.18 10.23,10.23 0 0 0 -1.14,5.26 l 0.48,3.61 a 13.62,13.62 0 0 0 3.5,6 l 2.75,2.12 a 13.53,13.53 0 0 0 6.85,1.86 z"
             id="path16" />
          <path
             class="cls-9"
             d="m 30.17,107.36 c 0.31,13.31 11,25.8 20.91,33.71 a 68.49,68.49 0 0 0 42.51,15.36 c 33.09,0.14 63.93,-20.93 76.51,-51.35 a 72.86,72.86 0 0 0 5.76,-25 c 0.18,-4.69 0.15,-9.66 -1.23,-14.17 A 17.32,17.32 0 0 0 170.83,59 c -0.59,-0.65 -3.25,-3.24 -2.05,-1.81 0.84,1 -1.35,-1.92 -1.56,-2.14 -2.85,-3.1 -8.09,-2.14 -10.14,1.31 -0.68,1.14 -1.16,2.32 -1.88,3.4 l 3.26,-3.26 c -7.62,5.42 -7.8,14.71 -10.34,23 -2.54,8.29 -4,12.21 -8.4,19.61 a 57,57 0 0 1 -29.34,24.12 c -13.5,4.65 -25.91,5.12 -38.93,1.2 A 65.14,65.14 0 0 1 53,116.14 c -5.76,-3.82 -10.55,-8.74 -16.24,-12.59 -2.78,-1.88 -6.7,0.61 -6.63,3.81 z"
             id="path17" />
          <path
             class="cls-9"
             d="m 33,155.54 c 13,18.21 33.6,32.86 56,36.51 a 85.06,85.06 0 0 0 33.3,-0.93 c 10.85,-2.56 24.31,-8.57 28.41,-19.63 2.34,-6.33 -4.44,-10.63 -9.8,-9.8 -5,0.77 -8.89,3.77 -13.21,6.17 a 76.9,76.9 0 0 1 -11.24,5 56.18,56.18 0 0 1 -26.61,3.33 c -19.73,-2.6 -35.27,-16 -51.89,-25.67 -3,-1.74 -7.21,1.92 -5,5 z"
             id="path18" />
        </g>
      </g>
      <g
         class="cls-10"
         id="g23">
        <g
           class="cls-11"
           clip-path="url(#clip-path-2)"
           id="g22">
          <path
             class="cls-8"
             d="M 133.51,13.39 C 139.42,17.3 146,20 152,23.77 a 72.26,72.26 0 0 1 16,13.76 70.37,70.37 0 0 1 11.2,17.69 c 2.52,5.71 3.42,15.87 9.54,18.8 2.31,1.11 5.3,1.11 7.16,-0.92 6,-6.6 0.71,-17.69 -2.5,-24.54 A 83.25,83.25 0 0 0 179,27.49 C 168.55,16.21 152,3.72 135.78,5 a 4.54,4.54 0 0 0 -2.27,8.39 z"
             id="path19" />
          <path
             class="cls-8"
             d="m 15.7,194.65 h 0.12 l -1.3,0.17 a 1.34,1.34 0 0 1 0.28,0 l -1.45,-0.2 a 2.07,2.07 0 0 1 0.33,0.1 l -1.46,-0.62 0.25,0.16 -1.35,-1 0.11,0.12 1.42,1.09 a 5.19,5.19 0 0 0 2.6,0.83 5.53,5.53 0 0 0 2.91,-0.13 l 0.34,-0.08 -1.85,0.25 H 17 L 15.17,195 a 2.11,2.11 0 0 1 0.36,0.09 5.08,5.08 0 0 0 2.73,0.12 5,5 0 0 0 2.54,-0.81 l 1.39,-1.07 a 5.12,5.12 0 0 0 1.41,-2.2 3.38,3.38 0 0 0 0.47,-1.73 5.28,5.28 0 0 0 -0.12,-2.73 l -0.69,-1.63 a 6.9,6.9 0 0 0 -2.46,-2.46 6.9,6.9 0 0 0 -2.18,-1 7.22,7.22 0 0 0 -3.25,-0.19 2.47,2.47 0 0 0 -1,0.17 5.21,5.21 0 0 0 -2.38,1.25 5.31,5.31 0 0 0 -1.8,2 l -0.71,1.67 a 6.71,6.71 0 0 0 -0.27,2.09 c 0,3.47 2.69,7 6.54,6.05 z"
             id="path20" />
          <path
             class="cls-9"
             d="m 42.2,172.28 c -1.3,-1 0.74,0.65 0.63,0.57 a 18,18 0 0 0 1.73,1.15 17.14,17.14 0 0 0 2,1 c 2.62,1.11 -0.85,-0.66 0.8,0.44 2.66,1.76 6.6,3.34 9.58,1.14 l -2.68,0.73 h 0.35 a 4.93,4.93 0 0 0 4.61,-3.51 l 0.15,-0.38 -1.37,2.32 c 2.13,-1.76 2.38,-5.05 1.64,-7.53 -0.74,-2.48 -2.89,-4.3 -5.08,-5.74 a 11.44,11.44 0 0 0 -12.34,-0.39 c -4.18,2.4 -3.41,7.65 0,10.2 z"
             id="path21" />
          <path
             class="cls-9"
             d="m 17.85,205.12 a 19,19 0 0 0 17.61,17.09 c 10.88,0.67 20.41,-7.34 24.18,-17.06 2,-5.29 1.5,-12.77 -5,-14.55 -6.5,-1.78 -9.2,4.22 -11.28,8.9 -1.49,3.34 -3.88,6.46 -7.6,7.38 -4.08,1 -9.47,0.13 -12.13,-3.32 -1.6,-2.09 -6.15,-1.9 -5.76,1.56 z"
             id="path22" />
        </g>
      </g>
      <path
         class="cls-12"
         d="M 88.88,150.42 C 67.24,147.63 44.5,129.25 36,109.16 30.85,96.97 29.51,81.62 39,64.16 52.78,38.94 73.84,29.48 89.55,26 a 57.12,57.12 0 0 1 38.86,5.36 c 17.16,9 40.58,30.39 35.18,62.92 -6.87,41.36 -39.26,60.72 -74.71,56.14 z"
         id="path23" />
      <path
         class="cls-13"
         d="m 131.24,14.36 15.48,11.37 c 0,0 62.71,54.93 0,116.48 -43.39,42.59 -92.19,6.37 -92.19,6.37 l -11.55,-7 -3.51,13.16 c 0,0 67.53,61.37 128.93,-9.44 41.8,-48.2 18.16,-97.39 3.73,-116.73 A 52.47,52.47 0 0 0 156,14.33 L 135.11,2.5 Z"
         id="path24" />
      <path
         class="cls-13"
         d="M 45.3,219 2.63,191.16 7.82,184 a 11.57,11.57 0 0 1 15.8,-2.87 l 22.65,15.1 a 12.72,12.72 0 0 1 2.42,19.08"
         id="path25" />
      <polygon
         class="cls-13"
         points="54.53,166.38 39,192.07 29.49,185.73 45.34,159.42 "
         id="polygon25" />
      <path
         class="cls-14"
         d="m 88.56,47.2 a 0.41,0.41 0 0 1 0.11,0.07 l -0.83,-0.64 a 0.8,0.8 0 0 1 0.13,0.13 l -0.65,-0.83 a 1.19,1.19 0 0 1 0.09,0.15 l -0.42,-1 a 1,1 0 0 1 0,0.17 l -0.15,-1.12 a 0.81,0.81 0 0 1 0,0.31 L 87,43.31 a 1.55,1.55 0 0 1 -0.07,0.23 l 0.43,-1 a 1.09,1.09 0 0 1 -0.08,0.15 l 0.68,-0.88 a 6.73,6.73 0 0 0 -0.74,0.95 9.48,9.48 0 0 0 -0.48,1.14 l 0.45,-1 a 1.19,1.19 0 0 1 -0.09,0.15 l 0.68,-0.88 v 0 l -0.67,0.88 a 3.2,3.2 0 0 0 -0.52,1.6 2.24,2.24 0 0 0 0,1.15 3.23,3.23 0 0 0 0.52,1.61 5.21,5.21 0 0 0 1.55,1.55 3.28,3.28 0 0 0 1.6,0.51 3.24,3.24 0 0 0 1.74,-0.11 6.29,6.29 0 0 0 1.25,-0.54 4.74,4.74 0 0 0 1.62,-1.62 7.52,7.52 0 0 0 0.46,-1.1 6.17,6.17 0 0 0 0.18,-1.28 V 44.7 a 7.61,7.61 0 0 0 -0.17,-1.27 c 0,0 0,-0.1 0,-0.15 a 8.81,8.81 0 0 0 -0.46,-1.1 L 94.8,42.05 a 4.94,4.94 0 0 0 -4.13,-2.38 l -1.07,0.15 a 2.93,2.93 0 0 0 -1.37,0.72 2,2 0 0 0 -0.73,0.73 2.93,2.93 0 0 0 -0.72,1.37 4.88,4.88 0 0 0 0,2.15 4.14,4.14 0 0 0 1.85,2.41 z"
         id="path26" />
      <path
         class="cls-14"
         d="M 80.65,57 C 74.18,58.88 70.65,68.42 68.77,74.25 66.53,81 64,89.85 65.55,97 c 0.44,2 3.36,1.84 3.89,0 1,-3.34 1,-6.91 1.75,-10.31 a 52.58,52.58 0 0 1 3.65,-10.77 c 2.46,-5.3 8.13,-11 8.48,-16.9 a 2.12,2.12 0 0 0 -2.67,-2 z"
         id="path27" />
      <path
         class="cls-14"
         d="m 19.81,187.58 8.34,7.29 c 2.4,2.09 4.74,4.56 7.74,5.73 1.4,0.55 2.5,-1.26 1.85,-2.41 -1.57,-2.8 -4.47,-4.79 -6.87,-6.86 l -7.94,-6.86 c -2.13,-1.85 -5.26,1.24 -3.12,3.11 z"
         id="path28" />
    </g>
  </g>
</svg>
