<?xml version="1.0" encoding="UTF-8"?>
<svg xmlns="http://www.w3.org/2000/svg" xmlns:xlink="http://www.w3.org/1999/xlink" viewBox="0 0 302.29 390.37" style="fill: rgb(0, 0, 0);" original_string_length="18044" width="173.46211079575417px" height="224.48037867685832px"><defs><clipPath id="__id19_shdf78geam" transform="translate(2.09)"><path d="M244.1,136.54c-10.84-6.61-23.23,9.7-23.23,9.7s54.58,18.19,26.32,67.63c-22.86,40-52.81,4.71-63.83-11.63,11.77,2.8,25,2.83,31.32-3.15,12-11.41,4.76-60-12.27-71.62-2.89-2-6.36-2-10.13-.85a91.11,91.11,0,0,0,5.42-31c0-52-43.5-94.08-97.16-94.08S3.38,43.63,3.38,95.59c0,44.7,32.19,82.11,75.35,91.7a14.6,14.6,0,0,0-5.32,4.93C61,212.52,99,245,101.28,246.19s13.55,12,24,3.87c6.41-5,17.6-26.72,19.94-43.63l3.79,6.23c-.63,12.28-2,31.07-5.06,56.67-6,50.19-47.84,26.83-74.32,52-25.31,24,5.91,56.1,8.73,58.9a2.71,2.71,0,0,0,.46.36c2.2,1.31,9.28-8.14,13.42-16.43,10.31-20.64-16.92-22.82,13-37.09,1-.47,11.35,2.14,12.24,2.77,3.6,2.54,15.51,4.92,32.8-10.84,18.52-16.88,15.13-59.24,10.14-87.61,29.93,49,69.72,114.1,69.72,114.1l17-11.9L180.07,221.36c3.4,3.38,7.4,7,12.16,10.9,33.29,27.25,65.41,7.66,88.25-21.74S254.93,143.14,244.1,136.54ZM155.31,180l.35-.43c.41.61.81,1.24,1.21,1.88l-.58.2Z" style="fill: none;"/></clipPath></defs><g data-name="Calque 2"><g data-name="Layer 25"><ellipse cx="101.75" cy="96.58" rx="97.16" ry="94.08" stroke="#231f20" stroke-linecap="round" stroke-linejoin="round" stroke-width="5" style="fill: rgb(255, 137, 155);"/><path d="M61,183.59c11.5,5.36,24.72,6.76,37.3,6.32,11.57-.42,23-2.44,33.37-7.89,19-10,32.77-28.48,38.76-48.85,6.55-22.34,4.42-46.75-7.09-67.17-11.82-21-33.4-40.57-58.87-40.25C80.27,26.06,57.76,41.33,45,61.36a67.11,67.11,0,0,0-4.27,64.91c9.58,20.14,31.43,33.22,53.81,31.23,23.26-2.07,43.42-19.69,44.07-44,.66-25.12-28.89-47.16-51.62-31.79-11.82,8-16.17,25.25-4.9,35.85s30.77,3.11,31.11-12.67c.24-10.7-17.45-13.66-19.15-2.6-.5,3.25.16-.33.69-.15l-.86.82.08-.18a17.55,17.55,0,0,1,1.9.09c-1.18.82.9-3.59.51-3.07,3.27-4.41,9.65-3.45,13.82-1.39,13,6.42,11,22.7,2.11,31.79-9.77,10-26.27,11-38.38,4.79C60.43,128.08,53,113.33,52.77,98.45,52.52,83.13,60.12,69.19,71.22,59A56.53,56.53,0,0,1,91.58,46.83c8.52-2.73,15.76-1.7,23.29,3.1,24.59,15.65,46,49.07,38.27,79.22-4.1,16-14.48,30.51-28.78,39a68.9,68.9,0,0,1-27,8.85c-11.16,1.4-22.82,3.34-33.94.81C60.11,177,57.57,182,61,183.59Z" transform="translate(2.09)" style="fill: rgb(95, 206, 108);"/><path d="M178.19,196.06c.77,2.66,39.87,68.24,68.13,18.8S220,147.23,220,147.23s12.39-16.3,23.23-9.7,59.22,44.58,36.39,74-55,49-88.26,21.74-30.85-42.14-30.85-42.14Z" stroke="#622736" stroke-linecap="round" stroke-linejoin="round" stroke-width="5" transform="translate(2.09)" style="fill: rgb(239, 67, 64);"/><path d="M153.22,204.78a1.83,1.83,0,0,1,.14.32c1.91,5.35,24.11,89.34-3.94,114.9-17.28,15.75-29.2,13.38-32.79,10.83-.9-.63-11.26-3.24-12.25-2.77-29.94,14.27-2.71,16.45-13,37.1-4.14,8.28-11.22,17.73-13.42,16.42a2.71,2.71,0,0,1-.46-.36c-2.82-2.8-34-34.86-8.73-58.9,26.48-25.16,68.36-1.8,74.32-52,3.78-31.8,5-53.12,5.4-64.47a2.52,2.52,0,0,1,4.75-1.07Z" stroke="#622736" stroke-linecap="round" stroke-linejoin="round" stroke-width="5" transform="translate(2.09)" style="fill: rgb(239, 67, 64);"/><path d="M147.21,170.58s37.29-53.73,54.32-42.11,24.27,60.2,12.27,71.61-49.43,1-53.3-9-13.29-20.53-13.29-20.53Z" stroke="#622736" stroke-linecap="round" stroke-linejoin="round" stroke-width="5" transform="translate(2.09)" style="fill: rgb(239, 67, 64);"/><path d="M144.76,202.37a16.88,16.88,0,0,0-14.27-17.09c-15.42-2.37-49.92-5.24-58,7.93-12.39,20.3,25.55,52.81,27.87,54s13.55,12,24,3.87C131.48,245.55,144.37,219.67,144.76,202.37Z" stroke="#622736" stroke-linecap="round" stroke-linejoin="round" stroke-width="5" transform="translate(2.09)" style="fill: rgb(239, 67, 64);"/><path d="M128.66,181.62c1.16,2.32,102.19,167.51,102.19,167.51l17-11.9L148.79,171.56Z" stroke="#231207" stroke-linecap="round" stroke-linejoin="round" stroke-width="5" transform="translate(2.09)" style="fill: rgb(153, 86, 26);"/><path d="M123.51,155s-4.71-23.22,8.15-21.67,9.57,16.25,9.57,16.25Z" stroke="#231f20" stroke-linecap="round" stroke-linejoin="round" stroke-width="5" transform="translate(2.09)" style="fill: rgb(255, 137, 155);"/><path d="M133.75,190s-12.85-.1-9.76-5.59,31.74-24.83,34.07-15.54-8.52,16.56-8.52,16.56,14.32-9,16.26,0-9.29,7.54-11.61,10.59S124.55,205.74,133.75,190Z" stroke="#622736" stroke-linecap="round" stroke-linejoin="round" stroke-width="5" transform="translate(2.09)" style="fill: rgb(239, 67, 64);"/><g opacity=".4"><g clip-path="url(#__id19_shdf78geam)"><path d="M135.54,198a40.82,40.82,0,0,0,25.35-1.31c1.69-.61,5.08-2.81,6.8-2.72-1.49-.45-1.26-.1.68,1,.8.61,1.61,1.2,2.45,1.75A57.43,57.43,0,0,0,181,202.17c15.33,6.42,32.82,4.81,47.25-3.13,10.72-5.9,1.07-22.51-9.61-16.43-11.38,6.48-26.72,7.12-38.53,1.21-3.31-1.66-6.05-4.54-9.74-5.39-4.39-1-8.12,1.44-12,3.11s-7.71,2.92-11.55,4.44a105.19,105.19,0,0,0-12.06,6.15,3.23,3.23,0,0,0,.76,5.83Z" transform="translate(2.09)" style="fill: rgb(144, 26, 61);"/><path d="M128.26,193.29c-1.17,2.78-.69,6.06-1.08,9a34.86,34.86,0,0,1-2.65,9c-2.71,6.32-6.8,12-10.33,17.88-2.94,4.88-5.78,9.89-10,13.81-2.38,2.22-5.78,3.89-7.57,7a11.53,11.53,0,0,0,1.8,14c2.93,2.73,7.26,4.26,11.22,3,15-4.89,24-22.9,29.59-36.49a43.44,43.44,0,0,0,3.22-22.89c-.88-5.94-3.51-14.93-10.26-16.45a3.34,3.34,0,0,0-4,2.25Z" transform="translate(2.09)" style="fill: rgb(144, 26, 61);"/><path d="M12.06,52.17c-2,3.16-4.35,5.65-6,9A78.82,78.82,0,0,0,1.35,72C-.85,79.11-1.62,87-2,94.37a94.9,94.9,0,0,0,9.72,46c11.61,24,37,44.16,63.59,48.16,9.77,1.47,18.79.55,28.52-1.05s19.09-2.3,28.26-6.66c4.53-2.15,3-8.91-1.34-10.19-9.51-2.83-18.75-1.9-28.49-2.08-8.28-.14-16.58-.5-24.6-2.38a71.48,71.48,0,0,1-36.19-20.75c-10.56-11.19-16.78-25.22-19.71-40.19A98.93,98.93,0,0,1,16,80.81c.22-4.18.52-8.35.72-12.54.12-2.28.54-4.53.65-6.8a45.74,45.74,0,0,1,.37-6.91c.68-3.39-3.74-5.46-5.66-2.39Z" transform="translate(2.09)" style="fill: rgb(144, 26, 61);"/><path d="M141.84,206.64c9.08,21.39,21.77,41.38,33.22,61.54,5.59,9.84,11.23,19.65,16.48,29.67,2.7,5.14,5.25,10.4,8.14,15.44,3.07,5.36,6.89,10.13,10.08,15.4,1.31,2.16,5,.77,4.2-1.77-1.81-5.49-2.89-11.11-4.91-16.54-2-5.28-4.31-10.4-6.57-15.56-4.84-11-9.48-22.14-14.32-33.17-9.43-21.5-18.81-43.86-32-63.36-6.11-9-18.39-1.29-14.29,8.35Z" transform="translate(2.09)" style="fill: rgb(144, 26, 61);"/><path d="M171.07,203.68c7.49,23.64,28.67,49.4,55.29,49.81,13.74.22,27.11-6,39.13-12q9-4.47,17.43-9.79c6.83-4.29,13.81-8.77,16.81-16.53,2.12-5.47-3.35-12.27-9-11.85-6.84.5-12,4.32-17.65,7.9-4.85,3.09-9.81,6-14.9,8.71-9.09,4.8-19.58,10.48-30.07,11-22.54,1.1-30.22-25.78-48.33-34-4.35-2-10.37,1.32-8.68,6.67Z" transform="translate(2.09)" style="fill: rgb(144, 26, 61);"/><path d="M144,216.79c.33,6.1-1.06,12.28-1,18.41s1.05,12.51,1.47,18.7c.79,11.63,1.42,23.19-.06,34.79-1.28,10.07-4,19.26-9.53,27.63a42.14,42.14,0,0,1-8.78,9.6,41.74,41.74,0,0,1-4.15,2.71,22.73,22.73,0,0,0-3.21,1.68c-1.92,1.57-2.16-3.56,3.85.77l4.24,4.24-.46-.93-4.24,16.17c16.17-6.93,27.35-21.65,33.81-37.57a103.66,103.66,0,0,0,6.58-28.5c1-9.83,1.84-21.19-2.2-30.36-2.81-6.41-13.9-6.3-16.75,0-3.74,8.25-3.1,17.85-4.14,26.74A98.66,98.66,0,0,1,134.3,304c-4.33,11.62-12.51,21.26-24.09,26.2-6.15,2.62-6.76,11-4.24,16.16,8.25,16.7,30.13,2.64,39-5.63,9.9-9.25,16.69-21.94,20.09-35,3.95-15.15,3.47-30.77,1.53-46.17A158.27,158.27,0,0,0,162,236.4c-2.29-8.12-7.26-14.2-11.11-21.48-1.69-3.19-7.11-1.79-6.9,1.87Z" transform="translate(2.09)" style="fill: rgb(144, 26, 61);"/><path d="M32.9,32.71c9.05-1.82,18.27-2.33,27.36-3.94a231.25,231.25,0,0,1,26.4-2.7c15.43-.92,31.49,1,45.61,7.63,14.31,6.7,25.2,17.59,32.88,31.32a97.09,97.09,0,0,1,9.18,23.11c2.24,8.65,1.9,18.33,5.66,26.42,3.84,8.27,14.82,4.54,17.48-2.28,2.91-7.48.62-17.16-.88-24.77a114.89,114.89,0,0,0-6.73-22c-5.79-14-14-27.1-25.3-37.23C141.73,8,109.15.13,79.22,5a117.05,117.05,0,0,0-25.36,7.48C45.21,16,38,21.52,30.44,26.89a3.2,3.2,0,0,0,2.46,5.82Z" transform="translate(2.09)" style="fill: rgb(230, 255, 242);"/><path d="M82.35,32.94c-3-1-9-5.07-2.78-6.42a12.74,12.74,0,0,1,5.91.43,18.62,18.62,0,0,0,2.06.81c.5.46.55.32.15-.41-.6-1.24-.18-2.4,1.29-3.46-.08-.06-4.55,1.52-4.86,1.57a17.33,17.33,0,0,1-4.93,0c-1-.15-2.32-.93-3.31-.88q5.66,6.62,1.37,9.7c-.39.54-.57.69-.55.44a7.57,7.57,0,0,0,2.12-.06c1.88-.58-.37,1.84-1.9-1.61L75.4,27.4l13.16-1.19v6.25l-.18.73-4.22,4.22-.66.26H77.25l-.83-.43L72.2,33Q71,26.63,72,32.94a11.33,11.33,0,0,0,1.57,3.4,11.27,11.27,0,0,0,15.13,4l.59-.34c3.42-2,6.06-6.11,5.83-10.16C94.4,17.75,81.36,9.7,71.09,18c-10.61,8.59-4.46,26,9.08,26.55C91.39,45,101,34,96.8,23.09c-4-10.41-16.38-11.19-25.68-8.58C61.1,17.32,54.94,28.88,61.26,38c5.49,7.91,17.86,8.34,26.41,6.75,9-1.68,18.11-7.21,17.84-17.41s-9.4-16-18.63-16.58S67,14.64,65.86,24.82c-1,9.32,7.09,12.86,14.5,15.36,4.58,1.54,6.55-5.7,2-7.24Z" transform="translate(2.09)" style="fill: rgb(230, 255, 242);"/><path d="M67,55.71a19.08,19.08,0,0,0-.85,2,12.2,12.2,0,0,0-.31,2.17,7.48,7.48,0,0,0,.8,3.5,5.8,5.8,0,0,0,1.67,2.63A12.29,12.29,0,0,0,70,67.36a11.15,11.15,0,0,0,2,.85c.12,0,.23.07.35.09a9,9,0,0,0,4,0,7.39,7.39,0,0,0,3.87-2.68,3.74,3.74,0,0,0,1-1.64,3.67,3.67,0,0,0,.51-1.89,3.7,3.7,0,0,0,0-2,5.54,5.54,0,0,0-.89-2.77,2.12,2.12,0,0,1-.11-.21l.76,1.81c-.37-.89-.69-1.8-1.1-2.67l.78,1.85A20.77,20.77,0,0,0,80,55.71,7.53,7.53,0,0,0,73.52,52a7.42,7.42,0,0,0-3.82,1A7.65,7.65,0,0,0,67,55.71Z" transform="translate(2.09)" style="fill: rgb(230, 255, 242);"/><path d="M161.23,166.85c10.64-7.89,20.27-16.87,30.71-25,6-4.65,9.34.75,12.27,6a93.06,93.06,0,0,0,12.18,17.46c2.74,3,7.67-.17,6.66-3.88C219.62,148.82,210,123.37,192.48,128c-7.45,2-13.6,9.18-18.95,14.35A114.81,114.81,0,0,0,157,162.62c-1.61,2.48,1.72,6.1,4.24,4.23Z" transform="translate(2.09)" style="fill: rgb(230, 255, 242);"/><path d="M227.33,150.07c2.92-2.15,5.32-3.77,9-2.81a32,32,0,0,1,9.1,4.19,124.49,124.49,0,0,1,15.94,11.85,133.48,133.48,0,0,1,13.5,13.82c3.87,4.54,7.54,12.61,14.35,12.51a4.4,4.4,0,0,0,3.8-2.18c3.89-7.5-4.57-16.25-9-21.75a118.71,118.71,0,0,0-18.33-18.08c-6.64-5.3-14.75-11.5-23.22-13.27-9.28-1.93-14.92,4.24-19.88,11-2,2.72,2,6.68,4.69,4.69Z" transform="translate(2.09)" style="fill: rgb(230, 255, 242);"/><path d="M119.68,187.48c-8.93-3.86-17.84-3-27.21-1.24-8.26,1.55-18.81,3-21.66,12.36-2.64,8.7.74,18.68,4.1,26.69,3.6,8.6,8.68,18.59,16.92,23.5,2.65,1.57,6.87-.41,6.56-3.77C97.12,231.13,85.87,220,84,205.91c-.35-2.59-.36-4.59,1.62-6.07,2.28-1.7,7-2.43,9.73-3.25A119.14,119.14,0,0,1,118.45,192c2.1-.2,3.7-3.47,1.23-4.54Z" transform="translate(2.09)" style="fill: rgb(230, 255, 242);"/><path d="M139.06,178A33.38,33.38,0,0,1,147.4,175c2.75-.41,4.83.52,7.42,1.18,3.32.84,6.62-3.74,3.6-6.19-7.19-5.86-15.81.45-21.06,5.74-1.2,1.2.31,2.83,1.7,2.21Z" transform="translate(2.09)" style="fill: rgb(230, 255, 242);"/><path d="M113.29,299.26c-4.52,2.29-9.78,2.9-14.74,3.61a65.38,65.38,0,0,0-16.36,4.41c-10,4.26-18.91,11.43-23.38,21.57-4.65,10.57-2.72,21.86,1.28,32.33,4.08,10.68,9.9,20.34,18.75,27.7,5,4.14,13.14-1.06,9.42-7.27-4.59-7.68-9.27-15.53-12.58-23.87s-6-17.56-.6-25.63c5-7.51,13.71-11.76,21.77-15.27,7.47-3.26,16.12-6.26,20.09-13.93a2.69,2.69,0,0,0-3.65-3.65Z" transform="translate(2.09)" style="fill: rgb(230, 255, 242);"/><path d="M205.82,259.93c-1.26,8.63,1.36,15.2,4.71,23.08,3.67,8.6,7.78,17.08,12,25.4l6.59,12.93c1.26,2.48,5.29,7.59,4.74,10.33-.37,1.82-3.85,3.74-5.2,4.81-2.72,2.16-5.31,4.6-5.85,8.19-.64,4.38,4,10,8.59,6.6s10.89-8.49,13.35-13.82c3.87-8.37-2.45-16.68-6.27-23.83-4.85-9.09-9.77-18.12-14.9-27.06-4.86-8.47-12-17.11-14.62-26.63-.4-1.44-2.91-1.67-3.16,0Z" transform="translate(2.09)" style="fill: rgb(230, 255, 242);"/></g></g><path d="M29.66,117.49c-.25,6.39,7.65,10,12.69,11.85A55.71,55.71,0,0,0,65.91,132c13.25-1.27,33.52-13.15,26.65-29.21-1.47-3.43-7.1-3.12-8.66,0-2.29,4.58-3.09,9.33-7.18,12.81-4.37,3.71-10.19,5-15.8,5.23A79.32,79.32,0,0,1,45,119.7c-4.61-.77-9-3.76-13.57-4a1.81,1.81,0,0,0-1.78,1.79Z" transform="translate(2.09)" style="fill: rgb(35, 31, 32);"/><path d="M51.76,125.55c-3,.68-4.51,5.87-6.13,8.13-1.12,1.57-2.53,2.91-3.62,4.49s-2.51,2.81-2.85,4.57a2.09,2.09,0,0,0,1.41,2.48c2.18.72,4.88-.6,6.77-1.72a16.1,16.1,0,0,0,5.52-6.72c.84-1.83,4.22-12.45-1.1-11.23Z" transform="translate(2.09)" style="fill: rgb(35, 31, 32);"/><path d="M65,128.58a35.86,35.86,0,0,1,.53,8.71c-.16,2.57-.87,4.79.27,7.19a2.18,2.18,0,0,0,3.39.44c2.23-1.95,2.21-5.4,2.28-8.18a42.57,42.57,0,0,0-1-9.68c-.75-3.62-6.17-2.06-5.51,1.52Z" transform="translate(2.09)" style="fill: rgb(35, 31, 32);"/><path d="M80.42,125A31.27,31.27,0,0,1,86,132.19a3.49,3.49,0,0,0,4.7,1.24c1.77-1,2-3,1.24-4.71A27.25,27.25,0,0,0,85.46,120c-3.33-3.16-8.4,1.92-5,5Z" transform="translate(2.09)" style="fill: rgb(35, 31, 32);"/><path d="M116.63,78.18S116.3,9.77,166.4,44.75C168.5,47.21,175.44,100.37,116.63,78.18Z" stroke="#231f20" stroke-linecap="round" stroke-linejoin="round" stroke-width="5" transform="translate(2.09)" style="fill: rgb(247, 235, 237);"/><path d="M131.68,34.35A15.43,15.43,0,0,0,126,24.56c-2.58-2.15-6.61-4.1-10-2.91-.68.24-1.16,1.26-.48,1.8,2.27,1.81,5.09,2.91,7.37,4.78a21.38,21.38,0,0,1,5.5,7.53c.92,2.05,3.62.45,3.34-1.41Z" transform="translate(2.09)" style="fill: rgb(35, 31, 32);"/><path d="M122.25,55a17.62,17.62,0,0,0-9.22-7.3c-3-1-8-1.27-10.72.66a1.56,1.56,0,0,0,0,2.67,26.48,26.48,0,0,0,3.47,1.23c1.19.51,2.34,1.23,3.53,1.79A38.57,38.57,0,0,1,117,59c2.82,2.26,7.41-.55,5.3-4.09Z" transform="translate(2.09)" style="fill: rgb(35, 31, 32);"/><path d="M159.12,39.66a13.69,13.69,0,0,0,7.63-10.07c.56-3.75-.64-10.93-5.61-10.86a3.1,3.1,0,0,0-2.67,1.53c-1.35,2.42.19,5.34.06,8a8.83,8.83,0,0,1-3.1,6.6c-2.82,2.33.77,6.21,3.69,4.78Z" transform="translate(2.09)" style="fill: rgb(35, 31, 32);"/><path d="M136.54,39.42c.86,2.69.69,5.5,1.47,8.19s2.4,5.18,3.73,7.64c2.7,5,5.42,10,8.24,15s10.35,4.9,13.27,0c6.92-11.59-1.32-24.55-9-33.36l-9.31,12.07c3.08,1.42,5.91,3.38,7.26,6.65l11.3-8.68a1.17,1.17,0,0,1-1.24-1.22L153.55,57,152,56.28l9.46-9.46-3-.6c-5.46-1.1-11.34,3.51-9.46,9.46A108.51,108.51,0,0,1,152.35,69l11.29-8.68c-8.09-4.4-11.08-16.43-14.51-24.33-1.65-3.79-7.13-4.58-10.39-2.72-3.93,2.23-4.33,6.64-2.73,10.39,4.7,11,8.67,23.85,19.87,29.93,6.23,3.38,12.48-2.17,11.3-8.68a108.54,108.54,0,0,0-3.3-13.3l-9.45,9.46,3,.59c6.13,1.24,10.4-3.53,9.46-9.45-.82-5.12-4.58-8.33-9.21-10C150.79,39.66,146.3,48,149,53.45a14.25,14.25,0,0,0,6.75,6.74c5.26,2.52,14.11-1.86,11.29-8.68-2.88-7-7.34-12.62-14.33-15.84-7.87-3.63-15.27,5.27-9.32,12.07,2.61,3,9.19,10.44,6.63,14.73h13.27c-2.82-4.95-5.73-9.84-8.66-14.73a47.47,47.47,0,0,0-4.07-6.37c-2-2.38-4.79-3.77-6.85-6.1-2.82-3.19-8.41.17-7.13,4.15Z" transform="translate(2.09)" style="fill: rgb(35, 31, 32);"/><path d="M77.85,188.28c-43.16-9.59-75.35-47-75.35-91.7C2.5,44.62,46,2.5,99.66,2.5s97.16,42.12,97.16,94.08A91.13,91.13,0,0,1,191.27,128" stroke="#231f20" stroke-linecap="round" stroke-linejoin="round" stroke-width="5" transform="translate(2.09)" style="fill: none;"/><path d="M182.61,203.42c11.13,16.43,40.94,51.28,63.71,11.44C274.57,165.42,220,147.23,220,147.23s12.39-16.3,23.23-9.7,59.22,44.58,36.39,74-55,49-88.26,21.74c-3.22-2.63-6.11-5.16-8.7-7.56" stroke="#622736" stroke-linecap="round" stroke-linejoin="round" stroke-width="5" transform="translate(2.09)" style="fill: none;"/><path d="M159.7,233.2c4.91,28.36,8.07,70.08-10.28,86.8-17.28,15.75-29.2,13.38-32.79,10.83-.9-.63-11.26-3.24-12.25-2.77-29.94,14.27-2.71,16.45-13,37.1-4.14,8.28-11.22,17.73-13.42,16.42a2.71,2.71,0,0,1-.46-.36c-2.82-2.8-34-34.86-8.73-58.9,26.48-25.16,68.36-1.8,74.32-52,3-25.59,4.43-44.39,5.06-56.67" stroke="#622736" stroke-linecap="round" stroke-linejoin="round" stroke-width="5" transform="translate(2.09)" style="fill: none;"/><path d="M150.58,165.94c9.55-12.78,37-47,50.95-37.47,17,11.61,24.27,60.2,12.27,71.61-10.74,10.22-41.88,2.92-51.05-5.86" stroke="#622736" stroke-linecap="round" stroke-linejoin="round" stroke-width="5" transform="translate(2.09)" style="fill: none;"/><path d="M124,184.45c-15.41-2.37-43.42-4.41-51.46,8.76-12.39,20.3,25.55,52.81,27.87,54s13.55,12,24,3.87c6.19-4.82,16.84-25.24,19.66-41.86" stroke="#622736" stroke-linecap="round" stroke-linejoin="round" stroke-width="5" transform="translate(2.09)" style="fill: none;"/><path d="M140.65,201.38c27.31,44.85,88.63,145.1,88.63,145.1l17-11.89L161.62,193" stroke="#231207" stroke-linecap="round" stroke-linejoin="round" stroke-width="5" transform="translate(2.09)" style="fill: none;"/><path d="M133.75,190s-12.85-.1-9.76-5.59,31.74-24.83,34.07-15.54-8.52,16.56-8.52,16.56,14.32-9,16.26,0-9.29,7.54-11.61,10.59S124.55,205.74,133.75,190Z" stroke="#622736" stroke-linecap="round" stroke-linejoin="round" stroke-width="5" transform="translate(2.09)" style="fill: none;"/><path d="M143.4,56.08a1.63,1.63,0,0,1-.87.28c-.37,0-.44,0-.21,0l-2.5-1a4.45,4.45,0,0,0,1.09.85l-.83-.64.08.07-.66-.85.05.08L139,52.7v0l.16-1.19v0l1.18-2c-.17.15-.32.32-.49.46l1-.78a2.74,2.74,0,0,1-.34.19l1.26-.53a.69.69,0,0,1-.24.05l1.44-.19h-.12l1.46.19a.67.67,0,0,1-.24-.07l2.48,1.44a7,7,0,0,0-2.63-1.53l2.5,1.46-.06,0,.89,1.15a.33.33,0,0,1-.07-.13l.57,1.36,0-.09.2,1.52v-.18l-.2,1.52a1.82,1.82,0,0,1,.07-.25l-.58,1.36a.57.57,0,0,1,.08-.13l-.89,1.16.05,0-1.16.89,0,0-2.89.78h0L141,58.9h0l-2.53-1.47.06,0-.9-1.16.05.08V50.6a3.88,3.88,0,0,1-.3.48l.9-1.16a4.18,4.18,0,0,1-.67.66l1.18-.91a3.58,3.58,0,0,1-.66.37l8.6,6.62,0-.16-.59,1.4a1.56,1.56,0,0,1,.16-.28l-.92,1.19a1.67,1.67,0,0,1,.23-.23l-1.19.92a1.91,1.91,0,0,1,.42-.24l-1.42.6a1.25,1.25,0,0,1,.32-.08l-1.58.21a1.71,1.71,0,0,1,.32,0L141,59.77a1.57,1.57,0,0,1,.31.08l-4.17-7.34-.06.17.6-1.43c0,.11-.1.21-.16.32l.94-1.22a3,3,0,0,1-.51.49l1.24-1a3.33,3.33,0,0,1-.61.35l1.5-.63a7.86,7.86,0,0,0-3.33,2,6.29,6.29,0,0,0-1.58,6,6.16,6.16,0,0,0,4.29,4.29,15.85,15.85,0,0,0,1.8.24,6.12,6.12,0,0,0,2.6-.53A7,7,0,0,0,146.26,60a10.23,10.23,0,0,0,2.18-3.76l-.6,1.43a16.36,16.36,0,0,0,.78-1.94c.81-3-1-6.65-4.17-7.34a7.77,7.77,0,0,0-5.67.77,7.2,7.2,0,0,0-3.33,4.43,5.89,5.89,0,0,0,8.6,6.62,8.53,8.53,0,0,0,2.12-1.7,10.09,10.09,0,0,0,2-3.44,5.74,5.74,0,0,0-1.47-5.58c-2.6-2.9-7.48-2-9.35,1.19a6.41,6.41,0,0,0,.92,7.59A5.94,5.94,0,0,0,144,59.77a6.14,6.14,0,0,0,3.64-2.87,6.47,6.47,0,0,0-.1-6.4,4.58,4.58,0,0,0-3.35-2.19,4.71,4.71,0,0,0-3.86,1.26l-.07.07.88-.67a8.25,8.25,0,0,0-1.18.94,4.76,4.76,0,0,0-1,1.74,4.43,4.43,0,0,0,0,2.17V52a4.67,4.67,0,0,0,0,2.29,3,3,0,0,0,1.78,2,3.18,3.18,0,0,0,2.74-.16Z" transform="translate(2.09)" style="fill: rgb(230, 255, 242);"/></g></g></svg>