<?xml version="1.0" encoding="UTF-8" standalone="no"?>
<svg
   id="Calque_2"
   data-name="Calque 2"
   viewBox="0 0 110.22 93.52"
   version="1.1"
   sodipodi:docname="newspaper-image.svg"
   inkscape:version="1.4.2 (f4327f4, 2025-05-13)"
   xmlns:inkscape="http://www.inkscape.org/namespaces/inkscape"
   xmlns:sodipodi="http://sodipodi.sourceforge.net/DTD/sodipodi-0.dtd"
   xmlns="http://www.w3.org/2000/svg"
   xmlns:svg="http://www.w3.org/2000/svg">
  <sodipodi:namedview
     id="namedview24"
     pagecolor="#ffffff"
     bordercolor="#999999"
     borderopacity="1"
     inkscape:showpageshadow="2"
     inkscape:pageopacity="0"
     inkscape:pagecheckerboard="0"
     inkscape:deskcolor="#d1d1d1"
     inkscape:zoom="8.2656119"
     inkscape:cx="55.168329"
     inkscape:cy="46.759998"
     inkscape:window-width="1920"
     inkscape:window-height="991"
     inkscape:window-x="-9"
     inkscape:window-y="-9"
     inkscape:window-maximized="1"
     inkscape:current-layer="Calque_2" />
  <defs
     id="defs1">
    <style
       id="style1">
      .cls-1, .cls-2 {
        fill: none;
      }

      .cls-1, .cls-3 {
        stroke: #131e3e;
        stroke-linecap: round;
        stroke-linejoin: round;
        stroke-width: 2.01px;
      }

      .cls-4 {
        fill: #848484;
      }

      .cls-4, .cls-5, .cls-2 {
        stroke-width: 0px;
      }

      .cls-5 {
        fill: #782d3e;
      }

      .cls-6 {
        opacity: .3;
      }

      .cls-7 {
        clip-path: url(#clippath);
      }

      .cls-3 {
        fill: #fff;
      }
    </style>
    <clipPath
       id="clippath">
      <path
         class="cls-2"
         d="m13.83,87.71c-1.46,0-13.73-3.51-12.85-13.44C1.86,64.34,22.01,2.41,23.18,2.41s76.24-6.43,80.04,8.18c1.82,6.99,3.37,10.5,4.49,12.26,1.16,1.81,1.65,3.97,1.34,6.1-2.03,13.95-9.34,57.03-22.78,61.68-16.07,5.55-72.44-2.92-72.44-2.92Z"
         id="path1" />
    </clipPath>
  </defs>
  <g
     id="Layer_1"
     data-name="Layer 1">
    <g
       id="g24">
      <path
         class="cls-4"
         d="m20.96,39.02c2.35,1.27,4.84,1.86,7.48,2.22.63.09,4.08.02,4.36.41-.99-1.35-1.3,1.8-1.48,2.4-.62,1.97-1.73,5.78-2.97,6.13-1.14.32-2.9-.04-4.08-.05-1.51-.02-3.29.2-4.77-.18l1.75,1.34c-.09-.2,1.1-4.27,1.22-4.92.37-1.96.73-3.93,1.14-5.89l-4.48,1.82.44.3-1.42-1.85c.35,1.27-.5,3.83-.68,5.16-.52,3.7,3.17,6.02,6.16,3.59.76-.62,1.33-1.41,1.8-2.27.19-.41.38-.83.56-1.25.47-.7.38-.79-.28-.27l-4.76-4.76c-.53,2.21-1.2,4.38-1.87,6.55-1.39,4.46,5.43,7.44,7.61,3.21,1.21-2.35,2.5-4.61,4-6.78l-8.12-2.2c-.19,2.14-.7,4.18-1.38,6.22-1.4,4.24,4.48,7.56,7.47,4.35,1.82-1.95,2.97-3.93,3.87-6.44l-8.32,1.09c.51,1.18,1.15,2.12,2.13,2.96,3.77,3.23,9.2-.76,6.89-5.32-.38-.76-.81-1.47-1.16-2.24-1.77-3.78-7.2-2.33-8.32,1.09-.33,1-.72,1.74-1.42,2.53l7.47,4.35c.84-2.81,1.29-5.67,1.47-8.59.27-4.56-5.91-5.59-8.12-2.2-1.65,2.54-2.98,5.15-4.09,7.96l8.03,2.22c.46-2.23.85-4.47,1.29-6.71.54-2.74-1.75-5.7-4.76-4.76-1.55.49-2.8,1.34-3.68,2.73-.63,1.01-.76,2.42-1.56,3.3l6.29,2.61c-.04-2.95.93-8.36-2.49-9.85-1.58-.69-4.15-.33-4.48,1.82-.51,3.36-1.16,6.71-1.74,10.06-.38,2.18-1.03,4.93,1.26,6.36s6.32.56,8.77.54,5.07.35,6.76-1.6c1.6-1.84,2.44-4.84,3.16-7.13.69-2.16,2.07-5.62,1.24-7.91-.69-1.91-2.57-2.38-4.38-2.44-3.68-.13-7.53-.38-11.2-.11-1.19.09-1.83,1.73-.64,2.37h0Z"
         id="path9" />
      <g
         class="cls-6"
         id="g23">
        <g
           class="cls-7"
           clip-path="url(#clippath)"
           id="g22" />
      </g>
    </g>
  </g>
</svg>
