<?xml version="1.0" encoding="UTF-8" standalone="no"?>
<svg
   id="Calque_2"
   data-name="Calque 2"
   viewBox="0 0 110.22 93.52"
   version="1.1"
   sodipodi:docname="newspaper-text1.svg"
   inkscape:version="1.4.2 (f4327f4, 2025-05-13)"
   xmlns:inkscape="http://www.inkscape.org/namespaces/inkscape"
   xmlns:sodipodi="http://sodipodi.sourceforge.net/DTD/sodipodi-0.dtd"
   xmlns="http://www.w3.org/2000/svg"
   xmlns:svg="http://www.w3.org/2000/svg">
  <sodipodi:namedview
     id="namedview24"
     pagecolor="#ffffff"
     bordercolor="#999999"
     borderopacity="1"
     inkscape:showpageshadow="2"
     inkscape:pageopacity="0"
     inkscape:pagecheckerboard="0"
     inkscape:deskcolor="#d1d1d1"
     inkscape:zoom="8.2656119"
     inkscape:cx="55.168329"
     inkscape:cy="46.759998"
     inkscape:window-width="1920"
     inkscape:window-height="991"
     inkscape:window-x="-9"
     inkscape:window-y="-9"
     inkscape:window-maximized="1"
     inkscape:current-layer="Calque_2" />
  <defs
     id="defs1">
    <style
       id="style1">
      .cls-1, .cls-2 {
        fill: none;
      }

      .cls-1, .cls-3 {
        stroke: #131e3e;
        stroke-linecap: round;
        stroke-linejoin: round;
        stroke-width: 2.01px;
      }

      .cls-4 {
        fill: #848484;
      }

      .cls-4, .cls-5, .cls-2 {
        stroke-width: 0px;
      }

      .cls-5 {
        fill: #782d3e;
      }

      .cls-6 {
        opacity: .3;
      }

      .cls-7 {
        clip-path: url(#clippath);
      }

      .cls-3 {
        fill: #fff;
      }
    </style>
    <clipPath
       id="clippath">
      <path
         class="cls-2"
         d="m13.83,87.71c-1.46,0-13.73-3.51-12.85-13.44C1.86,64.34,22.01,2.41,23.18,2.41s76.24-6.43,80.04,8.18c1.82,6.99,3.37,10.5,4.49,12.26,1.16,1.81,1.65,3.97,1.34,6.1-2.03,13.95-9.34,57.03-22.78,61.68-16.07,5.55-72.44-2.92-72.44-2.92Z"
         id="path1" />
    </clipPath>
  </defs>
  <g
     id="Layer_1"
     data-name="Layer 1">
    <g
       id="g24">
      <path
         class="cls-4"
         d="m47.76,42.9c.83.29,1.63,1.08,2.73,1.31.48-.12.97-.21,1.46-.3.24.37.55.67.91.91.74.19,1.37.44,2.14.49,1.43.09,2.28-.78,3.94-.65,1.87.15,2.52.62,4.49.53,3.42-.15,7.55.16,10.73-1.18,1.25-.53,1.64-2.59,0-2.96-3.2-.72-6.09.51-9.34.41-3-.09-5.6-1-8.54-.76-1.23.1-1.14.2-2.22-.04-.41-.09-.86-.45-1.33-.55-1.42-.3-3.69.48-4.97,1-.83.34-.91,1.46,0,1.77h0Z"
         id="path10" />
      <path
         class="cls-4"
         d="m44.02,54.61c1.83.19,3.49.58,5.35.38,1.25-.14,2.05-1.89.7-2.59-2.13-1.11-4.15-.93-6.39-.29-1.46.42-1.04,2.36.34,2.5h0Z"
         id="path11" />
      <path
         class="cls-4"
         d="m55.04,55.5c.67,0,.67-1.04,0-1.04s-.67,1.04,0,1.04h0Z"
         id="path12" />
      <path
         class="cls-4"
         d="m53.7,54.97c.67,1.31,1.55,1.33,2.86,1.38,1.5.06,2.9.66,4.45.66.82,0,1.58-.37,2.37-.49,1.5-.23,1.98.18,3.32.5,1.91.45,4.71-.58,6.36.15,2.18.97,4.99-1.79,2.8-3.63-1.52-1.28-2.74-1.46-4.66-1.29-1.33.12-1.88.33-3.2-.04-.81-.22-1.39-.76-2.3-.86-2.23-.26-4.02,1-6.28.75-.34-.04-4.68.38-3.61,1.25-1.16-.95-2.84.21-2.11,1.63h0Z"
         id="path13" />
      <g
         class="cls-6"
         id="g23">
        <g
           class="cls-7"
           clip-path="url(#clippath)"
           id="g22" />
      </g>
    </g>
  </g>
</svg>
