<?xml version="1.0" encoding="UTF-8" standalone="no"?>
<svg
   id="Calque_2"
   data-name="Calque 2"
   viewBox="0 0 110.22 93.52"
   version="1.1"
   sodipodi:docname="newspaper-text2.svg"
   inkscape:version="1.4.2 (f4327f4, 2025-05-13)"
   xmlns:inkscape="http://www.inkscape.org/namespaces/inkscape"
   xmlns:sodipodi="http://sodipodi.sourceforge.net/DTD/sodipodi-0.dtd"
   xmlns="http://www.w3.org/2000/svg"
   xmlns:svg="http://www.w3.org/2000/svg">
  <sodipodi:namedview
     id="namedview24"
     pagecolor="#ffffff"
     bordercolor="#999999"
     borderopacity="1"
     inkscape:showpageshadow="2"
     inkscape:pageopacity="0"
     inkscape:pagecheckerboard="0"
     inkscape:deskcolor="#d1d1d1"
     inkscape:zoom="8.2656119"
     inkscape:cx="55.168329"
     inkscape:cy="46.759998"
     inkscape:window-width="1920"
     inkscape:window-height="991"
     inkscape:window-x="-9"
     inkscape:window-y="-9"
     inkscape:window-maximized="1"
     inkscape:current-layer="Calque_2" />
  <defs
     id="defs1">
    <style
       id="style1">
      .cls-1, .cls-2 {
        fill: none;
      }

      .cls-1, .cls-3 {
        stroke: #131e3e;
        stroke-linecap: round;
        stroke-linejoin: round;
        stroke-width: 2.01px;
      }

      .cls-4 {
        fill: #848484;
      }

      .cls-4, .cls-5, .cls-2 {
        stroke-width: 0px;
      }

      .cls-5 {
        fill: #782d3e;
      }

      .cls-6 {
        opacity: .3;
      }

      .cls-7 {
        clip-path: url(#clippath);
      }

      .cls-3 {
        fill: #fff;
      }
    </style>
    <clipPath
       id="clippath">
      <path
         class="cls-2"
         d="m13.83,87.71c-1.46,0-13.73-3.51-12.85-13.44C1.86,64.34,22.01,2.41,23.18,2.41s76.24-6.43,80.04,8.18c1.82,6.99,3.37,10.5,4.49,12.26,1.16,1.81,1.65,3.97,1.34,6.1-2.03,13.95-9.34,57.03-22.78,61.68-16.07,5.55-72.44-2.92-72.44-2.92Z"
         id="path1" />
    </clipPath>
  </defs>
  <g
     id="Layer_1"
     data-name="Layer 1">
    <g
       id="g24">
      <path
         class="cls-4"
         d="m15.01,67.6c2.73,2.38,6.59,3.42,10.16,3.59,2.41.12,4.73-.16,7.11.28,1.47.27,2,.59,3.29-.32,1.51-1.06.66-3.87-1.34-3.19-1.02.34-3.42-.07-4.48-.06-1.86.01-3.53-.1-5.39-.4-2.89-.46-5.72-1.36-8.63-1.64-.86-.08-1.35,1.17-.72,1.73h0Z"
         id="path14" />
      <path
         class="cls-4"
         d="m36.91,71.13c1,1.71,3.15,1.71,4.66.64s1.2-.11,2.71.53c.51.22,3.77.12,3.87.36.85,1.99,4.02.56,3.45-1.45-.73-2.59-3.26-2.99-5.61-2.72-1.33.15-2.39-.54-3.72-.38-.74.09-3.38,1.79-3.81,1.47-.95-.69-2.08.63-1.55,1.55h0Z"
         id="path15" />
      <path
         class="cls-4"
         d="m54.37,72.61c4.67.6,9.36,1,14.06,1.25,2.73.14,2.97-3.72.61-4.54-4.31-1.5-10.25-.45-14.67.03-2.11.23-2.07,2.99,0,3.25h0Z"
         id="path16" />
      <path
         class="cls-4"
         d="m15.29,81.33c-.11.33,2.55,1.64,2.92,1.7.57.1,1.01.05,1.55-.12.47-.15,1.07-.84,1.51-.87.71-.05,1.65.91,2.51,1.16,1.27.37,2.26.19,3.41-.41s.52-2.27-.64-2.37c-1.28-.11-1.92-.44-2.98-1.08-.56-.34-.89-.64-1.57-.72-1.37-.18-1.83.84-2.97,1.21-1.22.4-2.65-.89-3.99-.71-1,.14-1.61.69-1.89,1.64-.4,1.38,1.69,1.93,2.14.59h0Z"
         id="path17" />
      <path
         class="cls-4"
         d="m40.19,84.05c2.78,1.28,5.55,1.76,8.61,1.75,1.18,0,3.38.87,4.09-.43.35-.63.19-1.25-.23-1.78-1.02-1.28-2.6-1.54-4.14-1.58-2.63-.06-5.26.08-7.87.33-.8.08-1.38,1.29-.46,1.71h0Z"
         id="path18" />
      <g
         class="cls-6"
         id="g23">
        <g
           class="cls-7"
           clip-path="url(#clippath)"
           id="g22" />
      </g>
    </g>
  </g>
</svg>
