<?xml version="1.0" encoding="UTF-8" standalone="no"?>
<svg
   id="Calque_2"
   data-name="Calque 2"
   viewBox="0 0 61.46 37.999998"
   version="1.1"
   sodipodi:docname="candies.svg"
   width="61.459999"
   height="38"
   inkscape:version="1.4.2 (f4327f4, 2025-05-13)"
   xmlns:inkscape="http://www.inkscape.org/namespaces/inkscape"
   xmlns:sodipodi="http://sodipodi.sourceforge.net/DTD/sodipodi-0.dtd"
   xmlns="http://www.w3.org/2000/svg"
   xmlns:svg="http://www.w3.org/2000/svg">
  <sodipodi:namedview
     id="namedview51"
     pagecolor="#ffffff"
     bordercolor="#999999"
     borderopacity="1"
     inkscape:showpageshadow="2"
     inkscape:pageopacity="0"
     inkscape:pagecheckerboard="0"
     inkscape:deskcolor="#d1d1d1"
     inkscape:zoom="7.3263196"
     inkscape:cx="35.488487"
     inkscape:cy="46.749257"
     inkscape:window-width="1920"
     inkscape:window-height="991"
     inkscape:window-x="-9"
     inkscape:window-y="-9"
     inkscape:window-maximized="1"
     inkscape:current-layer="g51" />
  <defs
     id="defs3">
    <style
       id="style1">
      .cls-1 {
        opacity: .74;
      }

      .cls-2 {
        fill: #782d3f;
      }

      .cls-2, .cls-3, .cls-4, .cls-5, .cls-6, .cls-7 {
        stroke-width: 0px;
      }

      .cls-8, .cls-9 {
        stroke: #3d0a0a;
      }

      .cls-8, .cls-9, .cls-10, .cls-11, .cls-12, .cls-13, .cls-14, .cls-15 {
        stroke-linecap: round;
        stroke-linejoin: round;
        stroke-width: 2.52px;
      }

      .cls-8, .cls-3, .cls-12, .cls-13, .cls-14 {
        fill: none;
      }

      .cls-9, .cls-6 {
        fill: #e16969;
      }

      .cls-16 {
        clip-path: url(#clippath-2);
      }

      .cls-17 {
        clip-path: url(#clippath-1);
      }

      .cls-10 {
        fill: #e79450;
      }

      .cls-10, .cls-12 {
        stroke: #70290d;
      }

      .cls-4 {
        fill: #fff;
      }

      .cls-5 {
        fill: #93d073;
      }

      .cls-11 {
        fill: #ffe366;
      }

      .cls-11, .cls-14 {
        stroke: #5f4600;
      }

      .cls-18 {
        clip-path: url(#clippath);
      }

      .cls-19 {
        opacity: .41;
      }

      .cls-7 {
        fill: #effdf3;
      }

      .cls-13, .cls-15 {
        stroke: #005c74;
      }

      .cls-15 {
        fill: #ade9e1;
      }
    </style>
    <clipPath
       id="clippath">
      <path
         class="cls-3"
         d="M 55.71,30.8 39.88,36.88 C 39.95,34.11 39.23,30.04 35.79,25.3 31.63,19.56 26.26,21.5 22.38,24.32 17.74,18.14 9.88,4.57 9.88,4.57 L 1.53,34.33 16.09,32.28 c -1.57,5.03 -2,13.49 7.25,16.68 7.22,2.49 11.37,-0.66 13.59,-3.74 5.28,5.9 12.35,14.63 12.35,14.63 z"
         id="path1" />
    </clipPath>
    <clipPath
       id="clippath-1">
      <path
         class="cls-3"
         d="M 84.59,30.81 91.96,1.77 c 0,0 -12.83,4.85 -14.66,13.83 -1.83,8.98 -16.21,-2.46 -16.21,-2.46 0,0 9.25,12.37 15.86,19.3 -7.94,5.35 -4.82,21.11 -4.05,21.29 14.33,3.34 25.28,-8.25 25.28,-8.25 0,0 -4.16,-13.32 -13.59,-14.68 z"
         id="path2" />
    </clipPath>
    <clipPath
       id="clippath-2">
      <path
         class="cls-3"
         d="m 87.14,100.27 c 0,0 -6.67,-26.69 -8.89,-30.62 L 64.51,78.51 C 60.32,73.5 52.17,73.24 47.78,78.75 47.11,79.59 46.43,80.54 45.75,81.63 45.67,81.76 45.6,81.88 45.53,82 L 34.47,74.75 c 0,0 -12.17,22.05 0,29.64 l 12.29,-10.4 c 2.01,1.43 4.56,2.23 6.47,2.66 1.79,0.4 3.66,0.33 5.42,-0.2 3.8,-1.14 6.12,-2.82 7.42,-4.73 l 1.84,1.86 19.24,6.68 z"
         id="path3" />
    </clipPath>
  </defs>
  <g
     id="Layer_1"
     data-name="Layer 1">
    <g
       id="g51">
      <path
         class="cls-10"
         d="m 50.732199,1.3994035 c 2.22,3.93 8.89,30.6200005 8.89,30.6200005 l -19.24,-6.68 -10.41,-10.55 20.75,-13.3800005 z"
         id="path7" />
      <path
         class="cls-10"
         d="M 26.692199,19.429404 6.9521987,6.4994035 c 0,0 -12.17,22.0500005 0,29.6400005 z"
         id="path10" />
      <path
         class="cls-10"
         d="m 31.132199,28.199404 c -1.76,0.53 -3.63,0.6 -5.42,0.2 -4.9,-1.11 -14.02,-4.63 -7.48,-15.02 0.68,-1.08 1.36,-2.04 2.03,-2.88 5.1,-6.3900005 15.23,-5.0300005 18.41,2.5 2.18,5.17 2.74,12.11 -7.53,15.2 z"
         id="path11" />
      <g
         id="g22"
         style="display:inline"
         transform="translate(-28.117801,-68.110596)">
        <path
           class="cls-6"
           d="m 55.08,96.24 0.05,0.07 c 0.17,0.29 0.41,0.53 0.7,0.7 0.3,0.18 0.63,0.26 0.98,0.27 0.35,0 0.68,-0.09 0.98,-0.27 0.29,-0.17 0.53,-0.41 0.7,-0.7 l 0.05,-0.07 c 0.18,-0.31 0.27,-0.65 0.27,-1.01 0,-0.36 -0.09,-0.7 -0.27,-1.01 -0.18,-0.3 -0.42,-0.54 -0.72,-0.72 -0.31,-0.18 -0.65,-0.27 -1.01,-0.27 -0.36,0 -0.7,0.09 -1.01,0.27 -0.3,0.18 -0.54,0.42 -0.72,0.72 -0.18,0.31 -0.27,0.65 -0.27,1.01 0,0.36 0.09,0.7 0.27,1.01 z"
           id="path12" />
        <g
           id="g21">
          <path
             class="cls-6"
             d="m 34.44,76.65 c -1.74,1.34 -2.64,3.72 -3.31,5.75 -0.67,2.03 -0.97,4.34 -1.02,6.56 -0.1,4.42 0.86,8.69 2.72,12.69 0.77,1.66 3.06,2.16 4.61,1.51 1.55,-0.65 2.83,-2.64 2.14,-4.35 -0.69,-1.71 -1.21,-3.44 -1.56,-5.23 -0.03,-0.13 -0.26,-1.57 -0.16,-0.8 -0.05,-0.36 -0.08,-0.73 -0.11,-1.09 -0.08,-0.91 -0.1,-1.82 -0.08,-2.73 0,-0.43 0.03,-0.85 0.06,-1.28 0,-0.14 0.15,-1.59 0.06,-0.81 0.07,-0.58 0.17,-1.15 0.24,-1.72 0.05,-0.45 0.05,-0.48 0,-0.1 0.03,-0.24 0.07,-0.48 0.11,-0.72 0.33,-1.9 1,-3.83 0.94,-5.76 -0.03,-1.08 -0.65,-2.07 -1.67,-2.48 -1.11,-0.44 -2.06,-0.14 -2.97,0.56 z"
             id="path13" />
          <path
             class="cls-6"
             d="m 74.27,72.84 c -0.04,2.05 0.63,4.21 1.14,6.19 0.51,1.98 1.08,4.01 1.62,6.02 1.06,3.95 1.95,7.91 3.19,11.81 0.58,1.83 2.59,3.2 4.53,2.57 1.94,-0.63 3.11,-2.54 2.57,-4.53 -1.07,-3.95 -2.46,-7.77 -3.7,-11.67 -0.61,-1.91 -1.21,-3.82 -1.82,-5.72 -0.61,-1.9 -1.27,-4.3 -2.43,-6.04 -1.48,-2.22 -5.05,-1.43 -5.1,1.38 v 0 z"
             id="path14" />
          <path
             class="cls-6"
             d="m 50.93,82.82 c 0.45,0.02 0.87,-0.08 1.26,-0.28 0.41,-0.13 0.76,-0.36 1.05,-0.68 0.32,-0.3 0.54,-0.65 0.68,-1.05 0.2,-0.39 0.3,-0.81 0.28,-1.26 l -0.12,-0.87 c -0.16,-0.55 -0.44,-1.04 -0.84,-1.44 l -0.66,-0.51 c -0.51,-0.3 -1.06,-0.44 -1.65,-0.45 -0.45,-0.02 -0.87,0.08 -1.26,0.28 -0.41,0.13 -0.76,0.36 -1.05,0.68 -0.32,0.3 -0.54,0.65 -0.68,1.05 -0.2,0.39 -0.3,0.81 -0.28,1.26 l 0.12,0.87 c 0.16,0.55 0.44,1.04 0.84,1.44 l 0.66,0.51 c 0.51,0.3 1.06,0.44 1.65,0.45 z"
             id="path15" />
          <path
             class="cls-6"
             d="m 58.35,84.95 c 0.26,0.11 0.52,0.22 0.78,0.33 0.43,0.13 0.86,0.15 1.29,0.06 0.43,-0.02 0.83,-0.15 1.2,-0.38 0.13,-0.06 0.24,-0.14 0.33,-0.25 0.35,-0.23 0.63,-0.53 0.83,-0.91 0.29,-0.51 0.44,-1.05 0.44,-1.64 L 63.1,81.3 c -0.15,-0.55 -0.43,-1.03 -0.83,-1.43 -0.29,-0.32 -0.64,-0.54 -1.04,-0.67 -0.39,-0.2 -0.8,-0.3 -1.25,-0.28 -0.58,0 -1.13,0.15 -1.64,0.44 l -0.66,0.51 c -0.4,0.4 -0.68,0.88 -0.83,1.43 l -0.12,0.86 c 0,0.58 0.15,1.13 0.44,1.64 0.29,0.49 0.68,0.87 1.16,1.16 v 0 z"
             id="path16" />
          <path
             class="cls-6"
             d="m 52.47,93.17 c 1.86,0 3.45,-1.59 3.45,-3.45 0,-1.86 -1.58,-3.45 -3.45,-3.45 -1.87,0 -3.45,1.59 -3.45,3.45 0,1.86 1.58,3.45 3.45,3.45 z"
             id="path17" />
          <path
             class="cls-6"
             d="M 65.14,91.95 V 91.89 C 65.16,91.5 65.08,91.14 64.9,90.8 64.79,90.45 64.59,90.15 64.31,89.89 L 63.74,89.45 C 63.3,89.19 62.82,89.07 62.31,89.06 h -0.06 c -0.26,0.04 -0.51,0.07 -0.77,0.11 l -0.69,0.29 c -0.34,0.18 -0.61,0.43 -0.81,0.74 -0.18,0.18 -0.3,0.39 -0.37,0.64 -0.13,0.23 -0.2,0.47 -0.2,0.73 -0.07,0.26 -0.07,0.51 0,0.77 0,0.26 0.07,0.5 0.2,0.73 0.12,0.36 0.32,0.67 0.6,0.93 l 0.58,0.45 0.69,0.29 0.77,0.1 0.77,-0.1 0.69,-0.29 c 0.34,-0.18 0.61,-0.43 0.81,-0.74 0.18,-0.18 0.3,-0.39 0.37,-0.64 0.18,-0.34 0.26,-0.71 0.25,-1.11 v 0 z"
             id="path18" />
          <path
             class="cls-6"
             d="m 66.32,88.35 c 3.6,0 3.61,-5.6 0,-5.6 -3.61,0 -3.61,5.6 0,5.6 z"
             id="path19" />
          <path
             class="cls-6"
             d="m 45.15,84.4 -0.07,0.08 c -0.12,0.11 -0.21,0.25 -0.26,0.41 -0.08,0.15 -0.12,0.31 -0.11,0.49 l 0.05,0.34 c 0.06,0.21 0.17,0.4 0.33,0.56 l 0.07,0.08 0.28,0.22 0.33,0.14 c 0.18,0.06 0.37,0.07 0.55,0.02 0.13,0 0.24,-0.03 0.35,-0.09 0.12,-0.03 0.22,-0.09 0.31,-0.18 0.1,-0.06 0.19,-0.14 0.25,-0.25 0.09,-0.09 0.15,-0.19 0.18,-0.31 0.09,-0.17 0.13,-0.34 0.12,-0.53 L 47.48,85.01 47.34,84.68 47.12,84.4 46.84,84.18 46.51,84.04 c -0.18,-0.06 -0.37,-0.07 -0.55,-0.02 -0.13,0 -0.24,0.03 -0.35,0.09 -0.17,0.06 -0.32,0.15 -0.45,0.29 v 0 z"
             id="path20" />
          <path
             class="cls-6"
             d="m 57.48,78.12 c 2.47,0 2.47,-3.83 0,-3.83 -2.47,0 -2.47,3.83 0,3.83 z"
             id="path21" />
        </g>
      </g>
      <g
         class="cls-19"
         id="g38"
         transform="translate(-28.117801,-68.110596)">
        <g
           class="cls-16"
           clip-path="url(#clippath-2)"
           id="g37">
          <path
             class="cls-7"
             d="m 33.08,80.06 c 3.5,1.95 9.52,5.8 13.64,5.38 3.57,-0.36 5.46,-4.7 8.71,-6.07 2.44,-1.03 5.22,-1.18 7.76,-0.29 1.98,0.69 3.63,2.56 5.91,2.39 3.81,-0.29 7.52,-6.19 9.78,-8.73 1.75,-1.96 -1.05,-4.81 -2.9,-2.9 -1.66,1.71 -3.18,3.89 -5.02,5.39 -2.4,1.95 -3.5,1.22 -6.19,0.14 -2.85,-1.15 -5.87,-1.32 -8.89,-0.78 -3.4,0.6 -5.56,1.95 -8.16,4.11 -2.01,1.67 -2.64,1.4 -5.23,0.42 -2.59,-0.98 -5.19,-1.91 -7.91,-2.59 -2.09,-0.52 -3.45,2.44 -1.49,3.53 v 0 z"
             id="path36" />
          <path
             class="cls-2"
             d="m 32.88,104.62 c 3.74,-2.37 7.49,-4.72 11.1,-7.29 0.72,-0.52 3.02,-2.73 4.07,-2.74 0.58,0 2.03,1.27 2.79,1.46 2.76,0.69 5.4,-3.03 2.96,-5.09 -0.49,-0.42 -0.95,-0.64 -1.54,-0.85 v 5.88 c -1.58,0.54 -1.51,-0.18 0.2,0.37 1.09,0.35 2.32,0.53 3.45,0.68 2.22,0.3 4.52,0.36 6.71,-0.17 4.27,-1.02 7.36,-3.87 9.55,-7.56 l -5.4,0.7 c 3.63,2.83 7.38,5.29 11.59,7.18 2.49,1.12 10.3,5.3 9.44,-0.83 -0.31,-2.23 -3.74,-3.01 -5.12,-1.35 -5.98,7.17 8.46,13.74 10.14,4.91 0.71,-3.72 -2.31,-6.72 -5.71,-7.32 -5.94,-1.05 -11.29,-4.32 -16.16,-7.98 -1.48,-1.11 -3.87,-0.24 -4.7,1.23 -2.11,3.72 -5.26,5.44 -9.54,5.05 -1.65,-0.15 -4.37,-1.39 -6.06,-0.77 -2.83,1.03 -2.95,4.89 0,5.88 0.55,0.19 0.16,-0.05 -1.15,-0.72 l 2.96,-5.09 c -1.37,-0.32 -2.28,-1.73 -3.77,-1.98 -1.49,-0.25 -2.53,0.31 -3.74,1.05 -5.26,3.22 -9.86,8.23 -14.38,12.38 -1.59,1.46 0.48,4.17 2.31,3 v 0 z"
             id="path37" />
        </g>
      </g>
      <path
         class="cls-12"
         d="m 37.252199,9.9994035 13.34,-8.6 c 2.22,3.93 8.89,30.6200005 8.89,30.6200005 l -19.24,-6.68 -2,-2.02"
         id="path41" />
      <path
         class="cls-12"
         d="M 17.972199,13.809404 6.8121987,6.4994035 c 0,0 -12.17,22.0500005 0,29.6400005 l 12.0500003,-10.2"
         id="path44" />
      <path
         class="cls-12"
         d="m 31.002199,28.199404 c -1.76,0.53 -3.63,0.6 -5.42,0.2 -4.9,-1.11 -14.02,-4.63 -7.48,-15.02 0.68,-1.08 1.36,-2.04 2.03,-2.88 5.1,-6.3900005 15.23,-5.0300005 18.41,2.5 2.18,5.17 2.74,12.11 -7.53,15.2 z"
         id="path45" />
      <g
         class="cls-1"
         id="g48"
         transform="translate(-28.117801,-68.110596)">
        <path
           class="cls-4"
           d="m 51.23,79.87 -0.05,0.05 0.49,-0.38 c -0.07,0.05 -0.15,0.1 -0.23,0.13 l 0.62,-0.26 c 0,0 -0.08,0.03 -0.13,0.04 l 2.57,0.68 c -0.69,-0.64 -1.54,-0.94 -2.47,-0.81 -0.42,0.06 -0.76,0.14 -1.14,0.37 -0.43,0.25 -0.86,0.66 -1.11,1.1 -0.31,0.53 -0.5,1.11 -0.48,1.73 0.02,0.7 0.25,1.33 0.68,1.88 0.29,0.38 0.19,0.28 0.57,0.57 0.08,0.06 0.25,0.22 0.38,0.28 l -0.61,-0.47 0.05,0.07 c 0.4,0.4 0.87,0.67 1.42,0.83 0.57,0.15 1.14,0.15 1.71,0 0.59,-0.13 1.23,-0.52 1.65,-0.95 0.8,-0.81 1.23,-2.12 0.85,-3.23 -0.19,-0.57 -0.46,-1.17 -0.93,-1.58 -0.4,-0.4 -0.87,-0.67 -1.42,-0.82 -0.43,-0.13 -0.85,-0.15 -1.28,-0.06 -0.43,0.02 -0.82,0.15 -1.19,0.38 -0.48,0.29 -0.87,0.67 -1.15,1.15 0,0.02 -0.02,0.05 -0.04,0.07 l 0.51,-0.66 -0.03,0.03 0.67,-0.51 c -0.23,0.18 -0.47,0.36 -0.7,0.54 -0.32,0.3 -0.55,0.66 -0.69,1.07 -0.21,0.4 -0.3,0.82 -0.29,1.28 0,0.03 0,0.06 0,0.09 l 0.12,-0.87 c 0,0 -0.01,0.06 -0.03,0.09 l 0.33,-0.77 c -0.3,0.62 -0.46,1.02 -0.46,1.73 l 2.22,-2.92 H 51.6 c 0.27,-0.03 0.53,-0.06 0.8,-0.1 h -0.05 c 0.27,0.04 0.53,0.07 0.8,0.11 -0.03,0 -0.06,-0.01 -0.09,-0.03 l 0.71,0.3 -0.04,-0.03 0.6,0.46 -0.03,-0.03 0.46,0.59 c 0,0 -0.03,-0.05 -0.04,-0.08 l 0.29,0.69 v -0.05 c 0.02,0.26 0.06,0.51 0.09,0.77 0,-0.05 0,-0.09 0,-0.15 L 55,82.94 c 0,0 0.02,-0.09 0.04,-0.14 l -0.28,0.66 c 0,0 0.03,-0.05 0.05,-0.07 l -0.43,0.55 0.03,-0.03 -0.55,0.42 0.04,-0.02 -0.64,0.27 c 0.48,-0.19 0.89,-0.31 1.25,-0.7 0.33,-0.36 0.56,-0.75 0.7,-1.23 0.11,-0.34 0.16,-0.71 0.14,-1.07 -0.04,-0.97 -0.57,-1.82 -1.48,-2.2 -0.41,-0.17 -0.81,-0.22 -1.25,-0.16 -0.56,0.07 -0.95,0.3 -1.38,0.66 v 0 z"
           id="path48" />
      </g>
      <g
         class="cls-1"
         id="g49"
         transform="translate(-28.117801,-68.110596)">
        <path
           class="cls-4"
           d="m 59.93,89.42 c 2.76,0 2.77,-4.29 0,-4.29 -2.77,0 -2.77,4.29 0,4.29 z"
           id="path49" />
      </g>
      <g
         class="cls-1"
         id="g50">
        <path
           class="cls-4"
           d="m 79.7,42.37 c 0.38,0.01 0.74,-0.07 1.07,-0.24 0.34,-0.11 0.64,-0.3 0.89,-0.57 0.27,-0.25 0.46,-0.55 0.57,-0.89 0.17,-0.33 0.25,-0.69 0.24,-1.07 l -0.1,-0.74 C 82.24,38.39 82,37.98 81.66,37.64 L 81.1,37.21 c -0.43,-0.25 -0.9,-0.38 -1.4,-0.38 -0.38,-0.01 -0.74,0.07 -1.07,0.24 -0.34,0.11 -0.64,0.3 -0.89,0.57 -0.27,0.25 -0.46,0.55 -0.57,0.89 -0.17,0.33 -0.25,0.69 -0.24,1.07 l 0.1,0.74 c 0.13,0.47 0.37,0.88 0.71,1.22 l 0.56,0.43 c 0.43,0.25 0.9,0.38 1.4,0.38 z"
           id="path50"
           style="fill:none" />
      </g>
    </g>
  </g>
</svg>
