<?xml version="1.0" encoding="UTF-8" standalone="no"?>
<svg
   id="Calque_2"
   data-name="Calque 2"
   viewBox="0 0 56.46 58.509996"
   version="1.1"
   sodipodi:docname="red_candy.svg"
   width="56.459999"
   height="58.509998"
   inkscape:version="1.4.2 (f4327f4, 2025-05-13)"
   xmlns:inkscape="http://www.inkscape.org/namespaces/inkscape"
   xmlns:sodipodi="http://sodipodi.sourceforge.net/DTD/sodipodi-0.dtd"
   xmlns="http://www.w3.org/2000/svg"
   xmlns:svg="http://www.w3.org/2000/svg">
  <sodipodi:namedview
     id="namedview51"
     pagecolor="#ffffff"
     bordercolor="#999999"
     borderopacity="1"
     inkscape:showpageshadow="2"
     inkscape:pageopacity="0"
     inkscape:pagecheckerboard="0"
     inkscape:deskcolor="#d1d1d1"
     showgrid="false"
     inkscape:zoom="7.3263196"
     inkscape:cx="49.683882"
     inkscape:cy="52.755001"
     inkscape:window-width="1920"
     inkscape:window-height="991"
     inkscape:window-x="-9"
     inkscape:window-y="-9"
     inkscape:window-maximized="1"
     inkscape:current-layer="g51" />
  <defs
     id="defs3">
    <style
       id="style1">
      .cls-1 {
        opacity: .74;
      }

      .cls-2 {
        fill: #782d3f;
      }

      .cls-2, .cls-3, .cls-4, .cls-5, .cls-6, .cls-7 {
        stroke-width: 0px;
      }

      .cls-8, .cls-9 {
        stroke: #3d0a0a;
      }

      .cls-8, .cls-9, .cls-10, .cls-11, .cls-12, .cls-13, .cls-14, .cls-15 {
        stroke-linecap: round;
        stroke-linejoin: round;
        stroke-width: 2.52px;
      }

      .cls-8, .cls-3, .cls-12, .cls-13, .cls-14 {
        fill: none;
      }

      .cls-9, .cls-6 {
        fill: #e16969;
      }

      .cls-16 {
        clip-path: url(#clippath-2);
      }

      .cls-17 {
        clip-path: url(#clippath-1);
      }

      .cls-10 {
        fill: #e79450;
      }

      .cls-10, .cls-12 {
        stroke: #70290d;
      }

      .cls-4 {
        fill: #fff;
      }

      .cls-5 {
        fill: #93d073;
      }

      .cls-11 {
        fill: #ffe366;
      }

      .cls-11, .cls-14 {
        stroke: #5f4600;
      }

      .cls-18 {
        clip-path: url(#clippath);
      }

      .cls-19 {
        opacity: .41;
      }

      .cls-7 {
        fill: #effdf3;
      }

      .cls-13, .cls-15 {
        stroke: #005c74;
      }

      .cls-15 {
        fill: #ade9e1;
      }
    </style>
    <clipPath
       id="clippath">
      <path
         class="cls-3"
         d="M 55.71,30.8 39.88,36.88 C 39.95,34.11 39.23,30.04 35.79,25.3 31.63,19.56 26.26,21.5 22.38,24.32 17.74,18.14 9.88,4.57 9.88,4.57 L 1.53,34.33 16.09,32.28 c -1.57,5.03 -2,13.49 7.25,16.68 7.22,2.49 11.37,-0.66 13.59,-3.74 5.28,5.9 12.35,14.63 12.35,14.63 z"
         id="path1" />
    </clipPath>
    <clipPath
       id="clippath-1">
      <path
         class="cls-3"
         d="M 84.59,30.81 91.96,1.77 c 0,0 -12.83,4.85 -14.66,13.83 -1.83,8.98 -16.21,-2.46 -16.21,-2.46 0,0 9.25,12.37 15.86,19.3 -7.94,5.35 -4.82,21.11 -4.05,21.29 14.33,3.34 25.28,-8.25 25.28,-8.25 0,0 -4.16,-13.32 -13.59,-14.68 z"
         id="path2" />
    </clipPath>
    <clipPath
       id="clippath-2">
      <path
         class="cls-3"
         d="m 87.14,100.27 c 0,0 -6.67,-26.69 -8.89,-30.62 L 64.51,78.51 C 60.32,73.5 52.17,73.24 47.78,78.75 47.11,79.59 46.43,80.54 45.75,81.63 45.67,81.76 45.6,81.88 45.53,82 L 34.47,74.75 c 0,0 -12.17,22.05 0,29.64 l 12.29,-10.4 c 2.01,1.43 4.56,2.23 6.47,2.66 1.79,0.4 3.66,0.33 5.42,-0.2 3.8,-1.14 6.12,-2.82 7.42,-4.73 l 1.84,1.86 19.24,6.68 z"
         id="path3" />
    </clipPath>
  </defs>
  <g
     id="Layer_1"
     data-name="Layer 1">
    <g
       id="g51">
      <path
         class="cls-11"
         d="m 25.037012,24.376611 c -2.04,0.58 -15.5500004,-22.7300004 -15.5500004,-22.7300004 l -8.37,29.7400004 17.2200004,-2.42 6.69,-4.59 z"
         id="path4" />
      <path
         class="cls-11"
         d="m 31.287012,37.086611 c 2.71,1.44 17.59,19.82 17.59,19.82 l 6.43,-29.05 z"
         id="path5" />
      <path
         class="cls-9"
         d="m 38.737012,37.826611 c 0,0 -3.34,12.49 -15.8,8.2 -12.46,-4.29 -7.35,-18.18 -5.56,-20.32 2.23,-2.67 11.57,-12.24 18.03,-3.34 6.45,8.9 3.34,15.46 3.34,15.46 z"
         id="path9" />
      <g
         class="cls-19"
         id="g29"
         transform="translate(-0.27298836,-2.5933894)">
        <g
           class="cls-18"
           clip-path="url(#clippath)"
           id="g28">
          <path
             class="cls-7"
             d="m 8.11,8.57 c 1.91,4.94 4.04,10.46 7.45,14.58 2.5,3.02 7.37,4.77 10.45,1.58 1.58,-1.63 0,-5.14 -2.41,-4.14 -3.54,1.47 -4.95,-1.86 -6.47,-4.52 -1.77,-3.08 -3.72,-6 -5.87,-8.83 C 10.2,5.85 7.34,6.57 8.11,8.57 Z"
             id="path22" />
          <path
             class="cls-7"
             d="m 20.52,38.73 c -0.65,-3.9 1.43,-8.05 5,-9.84 3.57,-1.79 6.85,-0.6 9.92,1.29 2.55,1.57 5.37,-2.06 3.2,-4.15 -4.29,-4.14 -11.38,-4.54 -16.37,-1.38 -4.99,3.16 -6.71,9.48 -5.26,15.05 0.6,2.3 3.88,1.3 3.5,-0.97 v 0 z"
             id="path23" />
          <path
             class="cls-7"
             d="m 43.46,40.22 c 2.99,0.35 6.18,-0.42 8.44,-2.47 1.71,-1.54 -0.49,-4.28 -2.43,-3.15 -1.94,1.13 -3.71,1.91 -6.02,1.8 -2.51,-0.12 -2.38,3.54 0,3.82 v 0 z"
             id="path24" />
          <path
             class="cls-2"
             d="m 18.51,45.1 c 3.52,3.05 8.18,5.12 12.94,4.34 4.76,-0.78 8.12,-4.18 8.54,-8.79 0.24,-2.7 -3.6,-3.37 -4.85,-1.31 -1.7,2.79 -2.97,4.94 -6.61,4.71 -2.79,-0.17 -5.57,-1.33 -8.31,-1.86 -1.56,-0.31 -3.12,1.68 -1.7,2.92 v 0 z"
             id="path25" />
          <path
             class="cls-2"
             d="m 35.55,41.32 c -1.79,-0.14 -3.67,-0.11 -5.44,-0.38 l 2.22,2.91 c 0.01,0.21 -0.04,0.4 -0.15,0.57 0.18,-0.29 0.17,-0.28 -0.03,0.03 -0.3,0.2 -0.31,0.21 -0.01,0.02 0.31,-0.16 0.3,-0.16 -0.03,0 0.3,-0.07 0.33,-0.08 0.09,-0.05 -0.24,0.02 -0.21,0.03 0.09,0.01 -0.42,-0.08 -0.45,-0.08 -0.11,0 -0.22,-0.05 -0.41,-0.16 -0.57,-0.31 -0.32,-0.31 -0.48,-0.84 -0.37,-1.28 l 0.12,-0.32 c 0.26,-0.3 0.27,-0.33 0.02,-0.08 0.32,-0.24 0.33,-0.27 0.03,-0.08 0.4,-0.16 0.43,-0.18 0.09,-0.08 0.84,-0.16 1.48,0.12 1.99,0.86 l 0.34,2.63 c 0.02,-0.07 0.37,-0.97 0.14,-0.5 0.11,-0.21 0.23,-0.41 0.37,-0.61 -0.14,0.19 -0.14,0.19 0.02,0.02 0.12,-0.13 0.25,-0.25 0.38,-0.37 -0.2,0.14 -0.2,0.15 0,0.02 0.15,-0.1 0.3,-0.19 0.46,-0.27 -0.3,0.12 -0.26,0.11 0.15,-0.03 l -4.48,-3.41 c -0.03,0.43 0,0.45 -0.25,1.05 0.08,-0.2 -0.47,0.75 -0.6,0.92 l 3.17,-1.82 c 1.4,0.12 2.04,0.73 1.93,1.84 0.28,0.88 -0.03,1.61 -0.92,2.17 -0.92,0.54 -1.68,0.31 -2.27,-0.68 -0.87,-0.24 -1.3,-0.73 -1.29,-1.48 0,-0.53 0.22,-0.88 0.55,-1.28 -0.41,0.5 0.4,-0.27 0.63,-0.33 -1.97,0.57 -3.21,2.68 -2.66,4.68 0.59,2.16 2.64,2.99 4.68,2.66 5.82,-0.94 5.84,-10.63 -0.41,-10.85 -2.82,-0.1 -5.46,2.05 -5.62,4.93 -0.17,3.16 2.29,5.55 5.37,5.69 1.3,0.06 2.52,-0.75 3.17,-1.82 1.06,-1.72 1.59,-3.66 1.58,-5.68 0,-2.15 -2.28,-4.21 -4.48,-3.41 -1.88,0.68 -3.42,1.71 -4.63,3.32 -1.33,1.77 -2.44,4.42 -0.98,6.41 2.34,3.19 6.97,1.97 8.82,-1.03 2.02,-3.26 -0.14,-7.3 -3.91,-7.62 -3.34,-0.29 -6.27,2.23 -6.48,5.55 -0.15,2.35 2.66,3.68 4.54,2.61 1.72,-0.98 3.62,-1.71 5.42,-2.54 1.36,-0.63 0.54,-2.5 -0.7,-2.59 v 0 z"
             id="path26" />
          <path
             class="cls-2"
             d="m 38.75,46.52 c 0.79,2.33 2.51,4.3 4.01,6.23 1.6,2.07 3.21,4.08 4.93,6.05 l 4.77,-4.77 c -2.77,-3.07 -5.42,-6.88 -8.94,-9.1 -2.66,-1.67 -5.26,1.54 -4.03,4.03 1.82,3.7 5.46,6.79 8.21,9.84 2.92,3.24 7.61,-1.52 4.77,-4.77 C 50.85,52.17 49.18,50.4 47.45,48.65 45.83,47 44.14,45.03 42.06,43.99 40.44,43.18 38.1,44.54 38.77,46.52 v 0 z"
             id="path27" />
          <path
             class="cls-2"
             d="m 16.11,26.82 c -1.94,0.3 -3.89,0.78 -5.85,1.04 -1.96,0.26 -3.97,-0.13 -5.94,0.07 -2.42,0.25 -4.19,3.91 -1.4,5.19 4.76,2.18 11.6,0.7 15.03,-3.14 1.32,-1.48 0,-3.44 -1.84,-3.15 v 0 z"
             id="path28" />
        </g>
      </g>
      <path
         class="cls-14"
         d="M 21.717012,21.216611 C 17.067012,14.966611 9.3470116,1.6466106 9.3470116,1.6466106 L 0.98701164,31.386611 15.637012,29.326611"
         id="path38" />
      <path
         class="cls-14"
         d="m 36.407012,42.296611 c 5.28,5.9 12.34,14.61 12.34,14.61 l 6.43,-29.05 -15.87,6.1"
         id="path39" />
      <path
         class="cls-8"
         d="m 38.597012,37.826611 c 0,0 -3.34,12.49 -15.8,8.2 -12.46,-4.29 -7.35,-18.18 -5.56,-20.32 2.23,-2.67 11.57,-12.24 18.03,-3.34 6.45,8.9 3.34,15.46 3.34,15.46 z"
         id="path43" />
      <g
         class="cls-1"
         id="g46"
         transform="translate(-0.27298836,-2.5933894)">
        <path
           class="cls-4"
           d="m 26.94,31.73 c 0.03,-0.11 0.06,-0.21 0.1,-0.32 l -0.21,0.5 c 0.04,-0.08 0.07,-0.15 0.12,-0.22 l -0.33,0.43 0.05,-0.06 -0.43,0.33 c 0.07,-0.04 0.13,-0.07 0.2,-0.1 l -0.54,0.23 h 0.06 c -0.41,-0.01 -0.83,-0.01 -1.24,-0.01 h 0.03 c -0.19,-0.07 -0.38,-0.15 -0.58,-0.23 0.03,0.01 0.05,0.03 0.08,0.05 0.5,0.29 0.94,0.39 1.52,0.41 l -2.86,-2.86 v 0.06 c 0.03,-0.26 0.07,-0.51 0.1,-0.77 0,0.04 -0.02,0.08 -0.03,0.11 l 0.3,-0.7 c 0,0 -0.04,0.07 -0.07,0.1 l 0.47,-0.61 c 0,0 -0.06,0.06 -0.09,0.08 l 0.62,-0.48 c 0,0 -0.07,0.04 -0.11,0.06 l 0.75,-0.32 c -0.1,0.03 -0.2,0.06 -0.31,0.07 l 0.86,-0.12 h -0.07 c 0.29,0.04 0.57,0.08 0.86,0.11 h -0.07 c 0.79,1.03 1.59,2.07 2.38,3.11 V 30.5 c -0.04,0.29 -0.07,0.58 -0.11,0.86 0.01,-0.08 0.03,-0.15 0.06,-0.22 l -0.33,0.78 c 0.04,-0.07 0.07,-0.13 0.12,-0.2 l -0.52,0.67 c 0,0 0.07,-0.08 0.11,-0.11 l -0.67,0.52 c 0.06,-0.05 0.12,-0.08 0.2,-0.12 l -0.8,0.34 c 0,0 0.1,-0.03 0.15,-0.04 l -0.89,0.12 h 0.08 c -0.57,-2.1 -1.14,-4.2 -1.71,-6.31 -0.13,0.09 -0.27,0.17 -0.4,0.26 -0.65,0.44 -1.08,0.91 -1.51,1.57 -0.27,0.42 -0.42,0.88 -0.44,1.38 -0.11,0.49 -0.09,0.98 0.07,1.48 0.24,0.86 0.9,1.79 1.7,2.21 0.86,0.45 1.9,0.68 2.85,0.37 0.86,-0.28 1.82,-0.84 2.21,-1.7 0.34,-0.74 0.59,-1.32 0.61,-2.16 0,-0.16 0,-0.32 0,-0.49 0,-1.19 -0.65,-2.32 -1.68,-2.92 -0.53,-0.31 -1.1,-0.46 -1.71,-0.46 -0.61,0 -1.18,0.16 -1.71,0.46 -0.67,0.33 -1.28,0.94 -1.64,1.6 -0.54,0.96 -0.61,1.98 -0.4,3.04 l 0.33,0.77 c 0.2,0.38 0.48,0.68 0.83,0.91 0.55,0.43 1.25,0.72 1.96,0.7 1.6,-0.05 3.02,-1.01 3.44,-2.61 0.16,-0.6 0.16,-1.26 0,-1.87 -0.14,-0.51 -0.48,-1.18 -0.91,-1.51 -0.36,-0.35 -0.78,-0.6 -1.26,-0.74 -0.38,-0.12 -0.76,-0.14 -1.14,-0.05 -0.38,0.02 -0.73,0.13 -1.06,0.34 -0.43,0.25 -0.77,0.6 -1.03,1.03 -0.21,0.49 -0.44,0.92 -0.41,1.49 0,0.22 0.06,0.59 0.12,0.79 0.07,0.24 0.18,0.52 0.32,0.73 l -0.32,-1.18 c 0,0.09 0,0.19 0.01,0.28 l 0.08,-0.57 c -0.06,0.4 -0.17,0.8 -0.14,1.21 0.07,1.01 0.72,1.85 1.76,1.99 0.96,0.13 2,-0.46 2.23,-1.45 v 0 z"
           id="path46" />
      </g>
      <g
         class="cls-1"
         id="g47"
         transform="translate(-0.27298836,-2.5933894)">
        <path
           class="cls-4"
           d="m 28.55,40.56 c 2.03,0 2.04,-3.16 0,-3.16 -2.04,0 -2.04,3.16 0,3.16 z"
           id="path47" />
      </g>
    </g>
  </g>
</svg>
