<?xml version="1.0" encoding="UTF-8" standalone="no"?>
<svg
   id="Calque_2"
   data-name="Calque 2"
   viewBox="0 0 59.73 125.01001"
   version="1.1"
   sodipodi:docname="rocket.svg"
   width="59.73"
   height="125.01"
   inkscape:version="1.4.2 (f4327f4, 2025-05-13)"
   xmlns:inkscape="http://www.inkscape.org/namespaces/inkscape"
   xmlns:sodipodi="http://sodipodi.sourceforge.net/DTD/sodipodi-0.dtd"
   xmlns="http://www.w3.org/2000/svg"
   xmlns:svg="http://www.w3.org/2000/svg">
  <sodipodi:namedview
     id="namedview30"
     pagecolor="#ffffff"
     bordercolor="#999999"
     borderopacity="1"
     inkscape:showpageshadow="2"
     inkscape:pageopacity="0"
     inkscape:pagecheckerboard="0"
     inkscape:deskcolor="#d1d1d1"
     inkscape:zoom="4.6284655"
     inkscape:cx="29.815497"
     inkscape:cy="83.504997"
     inkscape:window-width="1920"
     inkscape:window-height="991"
     inkscape:window-x="-9"
     inkscape:window-y="-9"
     inkscape:window-maximized="1"
     inkscape:current-layer="Calque_2" />
  <defs
     id="defs1">
    <style
       id="style1">
      .cls-1 {
        fill: #ff8fc6;
      }

      .cls-1, .cls-2, .cls-3, .cls-4, .cls-5, .cls-6 {
        stroke-linecap: round;
        stroke-linejoin: round;
        stroke-width: 2.51px;
      }

      .cls-1, .cls-6 {
        stroke: #640f32;
      }

      .cls-7, .cls-8, .cls-9, .cls-10, .cls-11 {
        stroke-width: 0px;
      }

      .cls-7, .cls-5 {
        fill: #fc3352;
      }

      .cls-2, .cls-8, .cls-3, .cls-6 {
        fill: none;
      }

      .cls-2, .cls-4 {
        stroke: #053d58;
      }

      .cls-12 {
        clip-path: url(#clippath-1);
      }

      .cls-3, .cls-5 {
        stroke: #6d002a;
      }

      .cls-4 {
        fill: #e6f4fd;
      }

      .cls-13 {
        clip-path: url(#clippath);
      }

      .cls-14 {
        opacity: .41;
      }

      .cls-9 {
        fill: #eafdf1;
      }

      .cls-10 {
        fill: #82263e;
      }

      .cls-11 {
        fill: #8adedd;
      }
    </style>
    <clipPath
       id="clippath">
      <ellipse
         class="cls-8"
         cx="22.049999"
         cy="148.8"
         rx="5.3400002"
         ry="4.1700001"
         id="ellipse1" />
    </clipPath>
    <clipPath
       id="clippath-1">
      <path
         class="cls-8"
         d="m 44.89,96.99 c 5.39,5.28 9.3,22.63 9.3,22.63 8.89,-23.55 1.01,-29.67 -4.23,-31.24 1.57,-3.9 2.83,-8.75 3.61,-14.75 C 58.51,35.3 32.23,1.11 32.23,1.11 c 0,0 -8.34,0 -21.72,45.97 -5.95,20.43 -4.21,33.68 -0.34,42.13 -5.14,1.16 -14.49,6.58 -5.09,31.47 0,0 4.44,-19.7 10.38,-23.5 3.43,3.67 6.82,5.28 8,5.76 0.06,2.54 0.44,5.46 1.29,8.78 -6.04,0.58 -10.74,5.19 -10.74,10.8 0,6 5.38,10.86 12.02,10.86 0.51,0 1.01,-0.03 1.5,-0.09 0.74,4.34 4.51,7.65 9.07,7.65 5.09,0 9.21,-4.12 9.21,-9.21 0,-4.59 -3.36,-8.39 -7.76,-9.08 0,-0.04 0,-0.08 0,-0.12 0,-3.68 -2.03,-6.93 -5.13,-8.89 0.95,-3.17 1.79,-6.77 2.11,-10.3 3.23,-0.86 6.73,-2.71 9.86,-6.34 z"
         id="path1" />
    </clipPath>
  </defs>
  <g
     id="Layer_1"
     data-name="Layer 1">
    <g
       id="g30">
      <path
         class="cls-5"
         d="m 46.4,87.98 c 0,0 20.44,-1.19 7.99,31.78 0,0 -5.52,-24.54 -12.5,-24.13 -6.98,0.41 4.51,-7.65 4.51,-7.65 z"
         id="path3" />
      <path
         class="cls-5"
         d="m 13.26,89.05 c 0,0 -20.44,-1.19 -7.99,31.78 0,0 5.52,-24.54 12.5,-24.13 6.98,0.41 -4.51,-7.65 -4.51,-7.65 z"
         id="path4" />
      <path
         class="cls-1"
         d="m 24.09,103.25 c 0,0 -27.09,-8.94 -13.38,-56.03 C 24.09,1.24 32.43,1.25 32.43,1.25 c 0,0 26.28,34.19 21.33,72.52 -4.95,38.33 -29.67,29.48 -29.67,29.48 z"
         id="path5" />
      <ellipse
         class="cls-4"
         cx="32.82"
         cy="49.700001"
         rx="9.0699997"
         ry="11.66"
         id="ellipse5" />
      <path
         class="cls-5"
         d="m 29.33,87.98 c 0,0 -12.8,8.46 0,35.82 0,0 13.58,-28.23 0,-35.82 z"
         id="path6" />
      <path
         class="cls-7"
         d="M 32.07,8.93 C 32.63,8.55 33.1,8.08 33.48,7.52 L 30.9,5.53 30.23,6.54 33.88,8.08 34.47,6.6 C 35.48,4.05 31.4,2.43 30.09,4.75 l -0.82,1.46 4.48,2.62 C 34.18,7.82 34.5,7.03 34.79,5.97 35.57,3.05 31.2,0.99 29.77,3.85 28.34,6.71 26.87,9.2 24.92,11.64 l 5.57,4.29 c 0.4,-0.92 0.83,-1.83 1.28,-2.73 l -7.13,-3.01 c -2.52,6.04 -4.03,13.12 -7.63,18.6 -1.49,2.27 1.39,4.74 3.56,3.56 4.13,-2.25 9.18,-3.64 13.92,-3.44 3.77,0.16 6.3,3.02 10.09,3.05 2.01,0.01 3.87,-2.55 2.5,-4.36 -3.14,-4.16 -6.6,-8.03 -9.91,-12.04 -2.31,-2.81 -7.51,0.21 -6.2,3.61 0.45,2.09 2.01,3.11 4.67,3.07 l -5,1.32 -2.1,-1.22 c 1.64,5.55 10.53,4.69 10.33,-1.4 -0.15,-4.36 -1.14,-8.41 -2.23,-12.62 l -9.46,2.61 c 1.72,5.51 5.88,8.88 8.52,13.83 2.64,4.95 10.96,0.42 7.87,-4.6 -0.53,-0.86 -1.05,-1.72 -1.58,-2.58 -2.85,-4.65 -9.71,-0.57 -7.27,4.25 0.95,1.89 1.58,3.87 2.58,5.74 1.66,3.11 7.02,1.77 6.78,-1.84 -0.16,-2.54 -0.89,-4.74 -1.66,-7.15 l -8.12,2.24 c 0.32,0.95 0.63,1.9 0.95,2.84 l 8.33,-3.51 c -2,-4.21 -5.8,-7.21 -6.94,-11.84 -1.29,-5.27 -10.02,-4.29 -9.63,1.3 0.27,3.8 1.24,7.51 1.35,11.31 l 10.33,-1.4 c -1.02,-3.51 -3.92,-7.04 -8.04,-5.9 -4.12,1.14 -5.33,6.7 -3.74,10.24 1.59,3.54 6.01,5.33 9.52,3.44 4.36,-2.35 3.82,-7.49 1.33,-11.01 l -5.08,5.08 c 3.66,2.77 6.83,6.29 9.85,9.73 l 2.82,-4.84 c -4.87,-2.05 -7.69,-4.12 -13.26,-3.58 -5.2,0.5 -9.73,2.47 -14.15,5.17 l 3.56,3.56 c 4.72,-6.23 9.21,-11.17 10.66,-19.16 0.89,-4.9 -6.56,-7.03 -7.53,-2.07 -0.18,1.01 -0.39,2.01 -0.62,3.01 -0.82,3.74 4.56,6.48 6.48,2.73 1.65,-3.23 3.11,-6.54 4.31,-9.96 L 29.5,4.5 c -0.05,0.8 -0.21,1.57 -0.48,2.32 -0.91,3.22 4.1,4.59 5,1.38 l 0.45,-1.61 -4.7,-0.64 0.2,1.58 c 0.31,2.47 3.98,2.65 3.99,0 V 6.34 c 0.02,-2.12 -3.18,-2.1 -3.28,0 -0.04,0.97 0,1.3 0.13,2.23 0.09,0.62 0.87,0.64 1.26,0.33 v 0 z"
         id="path7" />
      <g
         class="cls-14"
         id="g9">
        <g
           class="cls-13"
           clip-path="url(#clippath)"
           id="g8" />
      </g>
      <g
         class="cls-14"
         id="g19">
        <g
           class="cls-12"
           clip-path="url(#clippath-1)"
           id="g18">
          <path
             class="cls-10"
             d="m 11.06,94.93 c -4.53,2.3 -5.06,9.61 -5.65,14.1 -0.59,4.49 -2.49,14.27 2.55,16.76 4.74,2.34 6.3,-3.26 6.18,-6.84 -0.23,-6.94 1.49,-12.98 2.52,-19.71 0.5,-3.29 -2.45,-5.91 -5.6,-4.31 z"
             id="path9" />
          <path
             class="cls-10"
             d="m 48.74,99.61 c 0.3,-1.3 0.17,-1.49 -0.37,-0.56 -0.26,0.44 -0.39,0.92 -0.39,1.44 -0.42,1.67 -0.02,3.46 0.23,5.12 0.65,4.19 1.58,8.38 2.47,12.53 1.07,5.03 8.58,2.87 7.66,-2.11 -0.81,-4.36 -1.75,-8.68 -3.45,-12.79 -1.36,-3.28 -2.27,-7.86 -5.66,-9.5 -1.37,-0.66 -2.9,-0.12 -3.38,1.38 -1.12,3.49 1.16,7.13 2,10.57 1.01,4.14 2.08,8.26 2.84,12.46 l 7.66,-2.11 c -0.95,-4.12 -1.84,-8.32 -3.05,-12.37 -0.78,-2.58 -1.58,-5.44 -4.47,-6.1 -0.69,-0.16 -1.42,0.21 -1.61,0.92 l -0.69,0.83 c -0.15,0.15 0.04,0.42 0.23,0.3 v 0 z"
             id="path10" />
          <path
             class="cls-10"
             d="m 55.66,70.27 c 1.51,2.89 -6.8,10.92 -8.51,13.23 -3.21,4.33 -6.77,8.38 -10.59,12.18 l 7.85,3.25 c 0.19,-3.62 -0.66,-6.7 -2.74,-9.68 -3.12,-4.47 -10.3,-0.5 -7.43,4.34 1.13,1.91 1.24,3.19 0.97,5.33 -0.52,4.15 5.26,5.79 7.85,3.25 5.29,-5.2 10.33,-11.19 13.51,-17.94 2.48,-5.25 3.34,-9.74 -0.31,-14.44 -0.28,-0.36 -0.79,0.1 -0.6,0.46 v 0 z"
             id="path11" />
          <path
             class="cls-10"
             d="m 37.46,92.03 c 6.5,2.36 14.61,-2.42 16.74,-8.72 1.18,-3.5 -3.65,-4.91 -5.55,-2.34 -1.57,2.13 -4.24,4.11 -6.65,5.21 -3.55,1.62 -6.67,0.32 -10.15,-0.38 -3.12,-0.63 -5.8,-0.4 -8.46,1.4 -2.66,1.8 -4.18,3.05 -7.06,0.43 -1.59,-1.45 -2.67,-3.53 -3.7,-5.39 -2.59,-4.68 -4.69,-9.55 -6.3,-14.65 l -5.42,1.5 c 4,11.33 11.63,22.14 24.83,22.11 l -2.88,-3.78 c 1.58,-1.01 1.66,-1.39 0.23,-1.15 -0.59,-0.05 -1.18,-0.02 -1.77,0.1 -1.07,0.26 -2.1,0.59 -2.87,1.46 -2.38,2.72 -0.92,8.31 -0.74,11.52 l 6.17,-1.67 c -1.28,-3.01 -2.58,-6.01 -3.87,-9 -1.12,-2.59 -5.65,-1.92 -6.13,0.8 -0.48,2.72 -0.45,4.97 0.29,7.59 l 5.62,-3.27 c -0.88,-1.65 -1.26,-1.68 -1.13,-0.08 0.16,-0.6 0.16,-1.19 0,-1.79 -0.34,-0.84 -0.46,-1.48 -1.21,-2.11 -1.55,-1.27 -3.66,-1.16 -4.79,0.62 l -0.17,0.26 c -0.86,1.35 -0.26,3.21 1.05,4.01 l 0.19,0.12 c 2.06,1.26 4.97,-0.84 4.19,-3.22 l -0.07,-0.21 -2.05,3.61 0.3,-0.09 -3.75,-2.13 c -0.11,-0.6 0.06,-2.92 -0.25,-0.63 -0.1,0.76 -0.25,1.21 -0.08,2.02 0.36,1.73 1.93,3.07 3.02,4.37 2.22,2.65 6.49,-0.2 5.62,-3.27 -0.52,-1.31 -0.62,-2.64 -0.31,-4.02 l -6.13,0.8 c 1.31,2.99 2.61,5.98 3.94,8.96 1.33,2.98 6.4,1.5 6.17,-1.67 -0.13,-1.85 -1.28,-6.23 -0.56,-7.9 -0.55,1.28 -0.79,0.97 1.11,0.68 1.9,-0.29 3,-1.26 3.73,-3.13 0.73,-1.87 -1.1,-3.78 -2.88,-3.78 C 15.34,85.24 9.3,76.51 6.32,67.59 5.18,64.18 -0.14,65.58 0.9,69.09 c 2.45,8.28 7.92,26.26 19.22,25.29 1.93,-0.16 3.35,-0.95 4.93,-1.95 2.37,-1.5 3.28,-2.45 6.34,-1.78 1.68,0.37 3.28,0.99 5.01,1.19 6.73,0.76 10.99,-3.65 16.39,-6.7 l -3.68,-4.77 c -2.01,1.72 -3.59,3.58 -5.91,4.94 -2,1.17 -4.2,1.87 -6.26,2.92 -1.72,0.88 -1.06,3.24 0.5,3.81 v 0 z"
             id="path12" />
          <path
             class="cls-9"
             d="M 34.05,-3.13 C 28,2.59 23.27,8.12 19.64,15.7 16.01,23.28 13.11,30.55 10.74,38.28 6.4,52.46 2.38,68.78 6.86,83.34 c 0.46,1.49 2.61,0.87 2.31,-0.64 -1.61,-8.14 1.69,-16.25 4.36,-23.79 2.43,-6.86 4.51,-13.85 6.98,-20.7 2.47,-6.85 5.5,-14.12 8.66,-21.04 2.89,-6.31 5.95,-12.96 5.51,-20.04 -0.02,-0.32 -0.4,-0.5 -0.64,-0.27 v 0 z"
             id="path15" />
          <path
             class="cls-9"
             d="m 28.67,3.58 c 1.02,3.24 3.77,5.4 5.63,8.33 2.86,4.51 5.49,9.21 8.01,13.92 5.01,9.37 8.22,19.49 12.93,28.97 0.57,1.14 2.39,0.58 2.36,-0.64 C 57.39,43.58 53.51,33.37 49.33,23.78 46.19,16.6 41.15,2.92 32.31,1.28 31,1.04 29.88,1.46 29.13,2.57 c -0.18,0.26 -0.57,0.67 -0.47,1 v 0 z"
             id="path16" />
          <path
             class="cls-9"
             d="m 6.98,89.6 c -7.94,3.79 -7.81,16.15 -4.92,23.04 0.65,1.55 2.83,1 2.54,-0.7 C 3.87,107.79 3.88,103.19 4.83,99.08 5.55,95.93 7,93.07 7.37,89.83 7.39,89.62 7.14,89.53 6.98,89.61 v 0 z"
             id="path17" />
          <path
             class="cls-9"
             d="m 28.6,91.63 c -0.6,-0.23 -2.51,7.25 -2.59,7.87 -0.41,3.3 -0.1,6.26 0.93,9.42 0.35,1.08 1.85,0.63 1.68,-0.46 -0.93,-5.79 0,-10.94 1.14,-16.6 0.03,-0.17 -0.02,-0.36 -0.18,-0.45 -0.46,-0.25 -0.39,-0.24 -0.92,-0.19 -0.24,0.02 -0.28,0.33 -0.06,0.42 v 0 z"
             id="path18" />
        </g>
      </g>
      <path
         class="cls-6"
         d="m 14.8,34.07 c 0,0 13.63,-9.37 34.13,-0.83"
         id="path19" />
      <path
         class="cls-3"
         d="m 50.23,88.52 c 5.23,1.58 13.12,7.7 4.23,31.25 0,0 -3.77,-16.75 -9.01,-22.34"
         id="path21" />
      <path
         class="cls-3"
         d="m 9.69,89.55 c -5.23,1.52 -13.3,7.56 -4.34,31.28 0,0 4.39,-19.52 10.29,-23.45"
         id="path22" />
      <path
         class="cls-6"
         d="M 22.72,102.63 C 17.3,99.95 -0.98,87.63 10.78,47.22 24.17,1.24 32.51,1.25 32.51,1.25 c 0,0 26.28,34.19 21.33,72.52 -2.72,21.05 -11.4,27.87 -18.67,29.74"
         id="path23" />
      <path
         class="cls-9"
         d="m 21.28,34.65 c -7.94,13.14 -12.73,28.37 -9.19,43.79 0.31,1.37 2.37,1.03 2.4,-0.32 0.15,-7.65 0.32,-15.38 1.95,-22.89 1.48,-6.83 3.6,-13.61 5.32,-20.38 0.07,-0.28 -0.32,-0.45 -0.47,-0.2 v 0 z"
         id="path25" />
      <path
         class="cls-9"
         d="m 13.86,85.66 c 0.22,-0.07 0.38,0.03 0.49,0.22 l 0.08,-0.62 -0.32,0.34 c -0.66,0.7 -0.87,1.69 -0.49,2.58 0.38,0.89 1.21,1.45 2.16,1.45 0.54,0 0.82,-0.13 1.3,-0.35 0.75,-0.34 1.25,-1.34 1.22,-2.13 -0.04,-1.16 -0.72,-2.21 -1.9,-2.5 -1.25,-0.31 -2.74,0.4 -3.04,1.73 -0.3,1.33 0.4,2.64 1.73,3.04 l 0.08,0.03 -1.09,-0.64 0.06,0.07 -0.64,-1.1 0.02,0.09 v -1.32 c 0,0 -0.02,0.1 -0.03,0.15 l 0.62,-1.07 -0.05,0.04 c -0.42,0.35 -0.71,1.13 -0.69,1.67 0.03,0.63 0.24,1.21 0.69,1.67 0.32,0.32 0.72,0.59 1.17,0.68 1.03,0.21 2.28,-0.13 2.79,-1.14 0.4,-0.78 0.48,-1.57 0.14,-2.37 -0.31,-0.72 -0.96,-1.35 -1.75,-1.52 l -1.32,4.77 h 0.06 C 14.66,89.06 14.17,88.68 13.67,88.3 l 0.03,0.04 -0.34,-1.25 c 0.03,0.24 0.06,0.48 0.1,0.72 0.32,0.76 0.33,0.79 0.04,0.09 l 1.65,-2.91 -0.5,0.14 0.39,0.05 c -0.5,-0.22 -0.99,-0.32 -1.44,0.05 -0.2,0.17 0.02,0.5 0.25,0.43 v 0 z"
         id="path26" />
      <path
         class="cls-9"
         d="m 30.44,9.73 c -2.3,4.28 -4.37,8.68 -5.26,13.49 -0.13,0.72 0.83,0.98 1.09,0.3 1.66,-4.45 2.98,-9.02 4.86,-13.39 0.2,-0.46 -0.44,-0.87 -0.69,-0.4 z"
         id="path27" />
      <path
         class="cls-11"
         d="m 32.68,52.45 -0.03,0.05 0.42,-0.55 c -0.05,0.06 -0.1,0.12 -0.17,0.17 l 0.56,-0.43 c -0.08,0.06 -0.16,0.11 -0.26,0.15 l 0.69,-0.29 c -0.08,0.03 -0.15,0.05 -0.23,0.06 l 0.78,-0.11 c -0.1,0.01 -0.2,0.01 -0.3,0 l 0.81,0.11 c 0,0 -0.08,-0.02 -0.11,-0.03 l 1.84,1.42 -0.02,-0.04 0.31,0.74 c 0,0 -0.03,-0.08 -0.04,-0.13 l 0.11,0.83 c 0,0 0,-0.09 0,-0.13 l -0.11,0.84 c 0,0 0.02,-0.09 0.04,-0.13 l -0.32,0.76 c 0,0 0.04,-0.08 0.07,-0.12 l -0.5,0.65 c 0.04,-0.05 0.08,-0.09 0.13,-0.14 l -0.65,0.5 c 0,0 0.08,-0.05 0.12,-0.07 l -0.77,0.33 c 0,0 0.08,-0.03 0.13,-0.04 l -0.87,0.12 c 0,0 0.06,0 0.09,0 l -0.87,-0.12 c 0,0 0.09,0.02 0.13,0.04 l -0.79,-0.33 c 0,0 0.05,0.03 0.08,0.05 l -0.67,-0.52 0.03,0.03 -0.52,-0.67 0.02,0.03 -0.34,-0.8 c 0,0 0.02,0.07 0.03,0.11 l -0.12,-0.9 c 0,0 0,0.08 0,0.11 l 0.12,-0.91 c 0,0 -0.02,0.08 -0.03,0.11 l 0.35,-0.83 c -0.02,0.05 -0.05,0.09 -0.08,0.14 l 0.55,-0.71 c 0,0 -0.07,0.08 -0.11,0.11 l 0.73,-0.56 c 0,0 -0.09,0.06 -0.14,0.08 l 0.87,-0.37 c 0,0 -0.05,0.02 -0.07,0.02 l 0.98,-0.13 c 0,0 -0.07,0 -0.11,0 l 0.99,0.13 c 0,0 -0.05,-0.01 -0.08,-0.02 l 0.9,0.38 -0.04,-0.02 1.87,3.26 c 0,-0.09 -0.01,-0.18 0,-0.27 l -0.14,1.01 c 0.01,-0.07 0.03,-0.13 0.05,-0.2 l -0.38,0.91 c 0.03,-0.07 0.06,-0.12 0.1,-0.18 l -0.6,0.78 c 0.04,-0.05 0.09,-0.1 0.14,-0.14 l -0.78,0.6 0.06,-0.03 -0.92,0.39 0.06,-0.02 -1.03,0.14 H 34.7 C 34.05,57.5 33.4,57.32 32.75,57.14 l 0.05,0.03 -1.39,-1.39 c 0,0 0.02,0.04 0.04,0.06 l -0.39,-0.92 v 0.03 c -0.03,-0.34 -0.08,-0.68 -0.13,-1.02 v 0.03 c 0.05,-0.34 0.09,-0.67 0.14,-1.01 v 0.02 c 0.32,-0.56 0.64,-1.11 0.96,-1.67 h -0.01 c 0.89,-0.35 1.77,-0.72 2.66,-1.09 h -0.02 c -0.51,-0.02 -0.99,0.09 -1.44,0.32 -0.46,0.15 -0.86,0.41 -1.2,0.77 -0.68,0.74 -1.06,1.62 -1.09,2.64 -0.06,1.7 1.2,3.24 2.8,3.67 1.6,0.43 3.58,-0.28 4.4,-1.81 l 0.39,-0.93 c 0.16,-0.51 0.18,-1.03 0.07,-1.54 0,-0.35 -0.09,-0.68 -0.26,-0.98 -0.16,-0.48 -0.42,-0.9 -0.8,-1.25 -0.41,-0.49 -1.18,-0.88 -1.79,-1.04 -0.36,-0.13 -0.72,-0.18 -1.08,-0.13 l -1.03,0.14 c -1.04,0.24 -1.99,1.06 -2.51,1.97 -0.42,0.73 -0.58,1.42 -0.63,2.26 -0.05,0.84 0.22,1.52 0.57,2.28 l 0.59,0.76 c 0.34,0.37 0.75,0.63 1.21,0.78 0.29,0.17 0.61,0.26 0.95,0.26 0.5,0.11 1,0.09 1.5,-0.07 0.74,-0.24 1.25,-0.53 1.81,-1.06 0.47,-0.44 0.86,-1.16 1.04,-1.78 0.29,-1.03 0.17,-2.22 -0.38,-3.15 -0.55,-0.93 -1.33,-1.48 -2.33,-1.81 -1.23,-0.4 -2.68,0.06 -3.58,0.95 -0.25,0.25 -0.49,0.55 -0.65,0.86 -0.08,0.15 -0.3,0.6 -0.36,0.9 -0.06,0.24 -0.13,0.68 -0.12,0.94 0.01,0.65 0.15,1.24 0.47,1.8 0.42,0.73 1.17,1.32 1.99,1.55 0.88,0.24 1.82,0.06 2.58,-0.42 0.59,-0.37 0.88,-0.7 1.28,-1.26 0.4,-0.56 0.6,-1.35 0.6,-2.06 l -0.1,-0.71 c -0.08,-0.35 -0.24,-0.65 -0.48,-0.91 -0.34,-0.44 -0.83,-0.83 -1.39,-0.96 -0.47,-0.11 -0.95,-0.11 -1.42,0 -0.68,0.15 -1.23,0.68 -1.6,1.23 v 0 z"
         id="path28" />
      <path
         class="cls-11"
         d="m 35.26,45.93 0.15,0.29 -0.07,-0.26 c -0.02,0.23 0.04,0.45 0.22,0.62 0.09,0.08 0.19,0.15 0.29,0.22 0.14,0.11 0.4,0.12 0.56,0.07 0.16,-0.05 0.35,-0.18 0.44,-0.33 0.17,-0.32 0.11,-0.83 -0.26,-1 -0.11,-0.05 -0.23,-0.12 -0.34,-0.15 -0.24,-0.06 -0.45,-0.01 -0.65,0.12 l 0.26,-0.07 h -0.32 c -0.24,0.02 -0.37,0.26 -0.26,0.47 v 0 z"
         id="path29" />
      <path
         class="cls-11"
         d="m 35.4,45.85 0.24,0.56 v -0.38 c -0.18,0.28 -0.18,0.64 0.06,0.89 0.24,0.25 0.71,0.27 0.96,0 0.25,-0.27 0.28,-0.71 0,-0.96 -0.26,-0.24 -0.6,-0.25 -0.89,-0.06 h 0.38 l -0.56,-0.24 c -0.13,-0.06 -0.25,0.06 -0.19,0.19 z"
         id="path30" />
    </g>
  </g>
</svg>
