<?xml version="1.0" encoding="UTF-8"?>
<svg id="Calque_2" data-name="Calque 2" xmlns="http://www.w3.org/2000/svg" xmlns:xlink="http://www.w3.org/1999/xlink" viewBox="0 0 59.73 167.01">
  <defs>
    <style>
      .cls-1 {
        fill: #ff8fc6;
      }

      .cls-1, .cls-2, .cls-3, .cls-4, .cls-5, .cls-6 {
        stroke-linecap: round;
        stroke-linejoin: round;
        stroke-width: 2.51px;
      }

      .cls-1, .cls-6 {
        stroke: #640f32;
      }

      .cls-7, .cls-8, .cls-9, .cls-10, .cls-11 {
        stroke-width: 0px;
      }

      .cls-7, .cls-5 {
        fill: #fc3352;
      }

      .cls-2, .cls-8, .cls-3, .cls-6 {
        fill: none;
      }

      .cls-2, .cls-4 {
        stroke: #053d58;
      }

      .cls-12 {
        clip-path: url(#clippath-1);
      }

      .cls-3, .cls-5 {
        stroke: #6d002a;
      }

      .cls-4 {
        fill: #e6f4fd;
      }

      .cls-13 {
        clip-path: url(#clippath);
      }

      .cls-14 {
        opacity: .41;
      }

      .cls-9 {
        fill: #eafdf1;
      }

      .cls-10 {
        fill: #82263e;
      }

      .cls-11 {
        fill: #8adedd;
      }
    </style>
    <clipPath id="clippath">
      <ellipse class="cls-8" cx="22.05" cy="148.8" rx="5.34" ry="4.17"/>
    </clipPath>
    <clipPath id="clippath-1">
      <path class="cls-8" d="m44.89,96.99c5.39,5.28,9.3,22.63,9.3,22.63,8.89-23.55,1.01-29.67-4.23-31.24,1.57-3.9,2.83-8.75,3.61-14.75C58.51,35.3,32.23,1.11,32.23,1.11c0,0-8.34,0-21.72,45.97-5.95,20.43-4.21,33.68-.34,42.13-5.14,1.16-14.49,6.58-5.09,31.47,0,0,4.44-19.7,10.38-23.5,3.43,3.67,6.82,5.28,8,5.76.06,2.54.44,5.46,1.29,8.78-6.04.58-10.74,5.19-10.74,10.8,0,6,5.38,10.86,12.02,10.86.51,0,1.01-.03,1.5-.09.74,4.34,4.51,7.65,9.07,7.65,5.09,0,9.21-4.12,9.21-9.21,0-4.59-3.36-8.39-7.76-9.08,0-.04,0-.08,0-.12,0-3.68-2.03-6.93-5.13-8.89.95-3.17,1.79-6.77,2.11-10.3,3.23-.86,6.73-2.71,9.86-6.34Z"/>
    </clipPath>
  </defs>
  <g id="Layer_1" data-name="Layer 1">
    <g>
      <path class="cls-4" d="m38.25,122.79s0-.08,0-.12c0-6-5.38-10.86-12.02-10.86s-12.02,4.86-12.02,10.86,5.38,10.86,12.02,10.86c.51,0,1.01-.03,1.5-.09.74,4.34,4.51,7.65,9.07,7.65,5.09,0,9.21-4.12,9.21-9.21,0-4.59-3.36-8.39-7.76-9.08Z"/>
      <ellipse class="cls-4" cx="22.25" cy="148.95" rx="5.34" ry="4.17"/>
      <circle class="cls-4" cx="34.64" cy="162.14" r="3.62"/>
      <path class="cls-5" d="m46.4,87.98s20.44-1.19,7.99,31.78c0,0-5.52-24.54-12.5-24.13s4.51-7.65,4.51-7.65Z"/>
      <path class="cls-5" d="m13.26,89.05s-20.44-1.19-7.99,31.78c0,0,5.52-24.54,12.5-24.13s-4.51-7.65-4.51-7.65Z"/>
      <path class="cls-1" d="m24.09,103.25s-27.09-8.94-13.38-56.03C24.09,1.24,32.43,1.25,32.43,1.25c0,0,26.28,34.19,21.33,72.52-4.95,38.33-29.67,29.48-29.67,29.48Z"/>
      <ellipse class="cls-4" cx="32.82" cy="49.7" rx="9.07" ry="11.66"/>
      <path class="cls-5" d="m29.33,87.98s-12.8,8.46,0,35.82c0,0,13.58-28.23,0-35.82Z"/>
      <path class="cls-7" d="m32.07,8.93c.56-.38,1.03-.85,1.41-1.41l-2.58-1.99-.67,1.01,3.65,1.54.59-1.48c1.01-2.55-3.07-4.17-4.38-1.85l-.82,1.46,4.48,2.62c.43-1.01.75-1.8,1.04-2.86.78-2.92-3.59-4.98-5.02-2.12s-2.9,5.35-4.85,7.79l5.57,4.29c.4-.92.83-1.83,1.28-2.73l-7.13-3.01c-2.52,6.04-4.03,13.12-7.63,18.6-1.49,2.27,1.39,4.74,3.56,3.56,4.13-2.25,9.18-3.64,13.92-3.44,3.77.16,6.3,3.02,10.09,3.05,2.01.01,3.87-2.55,2.5-4.36-3.14-4.16-6.6-8.03-9.91-12.04-2.31-2.81-7.51.21-6.2,3.61.45,2.09,2.01,3.11,4.67,3.07l-5,1.32-2.1-1.22c1.64,5.55,10.53,4.69,10.33-1.4-.15-4.36-1.14-8.41-2.23-12.62l-9.46,2.61c1.72,5.51,5.88,8.88,8.52,13.83s10.96.42,7.87-4.6c-.53-.86-1.05-1.72-1.58-2.58-2.85-4.65-9.71-.57-7.27,4.25.95,1.89,1.58,3.87,2.58,5.74,1.66,3.11,7.02,1.77,6.78-1.84-.16-2.54-.89-4.74-1.66-7.15l-8.12,2.24c.32.95.63,1.9.95,2.84l8.33-3.51c-2-4.21-5.8-7.21-6.94-11.84-1.29-5.27-10.02-4.29-9.63,1.3.27,3.8,1.24,7.51,1.35,11.31l10.33-1.4c-1.02-3.51-3.92-7.04-8.04-5.9s-5.33,6.7-3.74,10.24,6.01,5.33,9.52,3.44c4.36-2.35,3.82-7.49,1.33-11.01l-5.08,5.08c3.66,2.77,6.83,6.29,9.85,9.73l2.82-4.84c-4.87-2.05-7.69-4.12-13.26-3.58-5.2.5-9.73,2.47-14.15,5.17l3.56,3.56c4.72-6.23,9.21-11.17,10.66-19.16.89-4.9-6.56-7.03-7.53-2.07-.18,1.01-.39,2.01-.62,3.01-.82,3.74,4.56,6.48,6.48,2.73,1.65-3.23,3.11-6.54,4.31-9.96l-5.3-1.46c-.05.8-.21,1.57-.48,2.32-.91,3.22,4.1,4.59,5,1.38l.45-1.61-4.7-.64.2,1.58c.31,2.47,3.98,2.65,3.99,0v-1.19c.02-2.12-3.18-2.1-3.28,0-.04.97,0,1.3.13,2.23.09.62.87.64,1.26.33h0Z"/>
      <g class="cls-14">
        <g class="cls-13">
          <path class="cls-10" d="m23.44,148.12c.49-.25.98-.55,1.5-.74.59-.22,1.14-.16,1.75-.24l-.98-1.7c-.33.52-.53.71-.99,1.1-.54.45-.7.88-.97,1.51-.39.88-.93,1.7-1.37,2.56-1.56,3.04,3.03,5.73,4.59,2.68,1.09-2.13,2.63-4.83.69-6.92l.47.81c-.18-.48-.26-.96-.34-1.47-.13-.8-1.38-1.13-1.89-.5-.34.42-.59.99-.98,1.37-.47.45-1.17.78-1.72,1.12-.27.17-.03.57.25.43h0Z"/>
        </g>
      </g>
      <g class="cls-14">
        <g class="cls-12">
          <path class="cls-10" d="m11.06,94.93c-4.53,2.3-5.06,9.61-5.65,14.1s-2.49,14.27,2.55,16.76c4.74,2.34,6.3-3.26,6.18-6.84-.23-6.94,1.49-12.98,2.52-19.71.5-3.29-2.45-5.91-5.6-4.31h0Z"/>
          <path class="cls-10" d="m48.74,99.61c.3-1.3.17-1.49-.37-.56-.26.44-.39.92-.39,1.44-.42,1.67-.02,3.46.23,5.12.65,4.19,1.58,8.38,2.47,12.53,1.07,5.03,8.58,2.87,7.66-2.11-.81-4.36-1.75-8.68-3.45-12.79-1.36-3.28-2.27-7.86-5.66-9.5-1.37-.66-2.9-.12-3.38,1.38-1.12,3.49,1.16,7.13,2,10.57,1.01,4.14,2.08,8.26,2.84,12.46l7.66-2.11c-.95-4.12-1.84-8.32-3.05-12.37-.78-2.58-1.58-5.44-4.47-6.1-.69-.16-1.42.21-1.61.92l-.69.83c-.15.15.04.42.23.3h0Z"/>
          <path class="cls-10" d="m55.66,70.27c1.51,2.89-6.8,10.92-8.51,13.23-3.21,4.33-6.77,8.38-10.59,12.18l7.85,3.25c.19-3.62-.66-6.7-2.74-9.68-3.12-4.47-10.3-.5-7.43,4.34,1.13,1.91,1.24,3.19.97,5.33-.52,4.15,5.26,5.79,7.85,3.25,5.29-5.2,10.33-11.19,13.51-17.94,2.48-5.25,3.34-9.74-.31-14.44-.28-.36-.79.1-.6.46h0Z"/>
          <path class="cls-10" d="m37.46,92.03c6.5,2.36,14.61-2.42,16.74-8.72,1.18-3.5-3.65-4.91-5.55-2.34-1.57,2.13-4.24,4.11-6.65,5.21-3.55,1.62-6.67.32-10.15-.38-3.12-.63-5.8-.4-8.46,1.4s-4.18,3.05-7.06.43c-1.59-1.45-2.67-3.53-3.7-5.39-2.59-4.68-4.69-9.55-6.3-14.65l-5.42,1.5c4,11.33,11.63,22.14,24.83,22.11l-2.88-3.78c1.58-1.01,1.66-1.39.23-1.15-.59-.05-1.18-.02-1.77.1-1.07.26-2.1.59-2.87,1.46-2.38,2.72-.92,8.31-.74,11.52l6.17-1.67c-1.28-3.01-2.58-6.01-3.87-9-1.12-2.59-5.65-1.92-6.13.8s-.45,4.97.29,7.59l5.62-3.27c-.88-1.65-1.26-1.68-1.13-.08.16-.6.16-1.19,0-1.79-.34-.84-.46-1.48-1.21-2.11-1.55-1.27-3.66-1.16-4.79.62l-.17.26c-.86,1.35-.26,3.21,1.05,4.01l.19.12c2.06,1.26,4.97-.84,4.19-3.22l-.07-.21-2.05,3.61.3-.09-3.75-2.13c-.11-.6.06-2.92-.25-.63-.1.76-.25,1.21-.08,2.02.36,1.73,1.93,3.07,3.02,4.37,2.22,2.65,6.49-.2,5.62-3.27-.52-1.31-.62-2.64-.31-4.02l-6.13.8c1.31,2.99,2.61,5.98,3.94,8.96s6.4,1.5,6.17-1.67c-.13-1.85-1.28-6.23-.56-7.9-.55,1.28-.79.97,1.11.68s3-1.26,3.73-3.13-1.1-3.78-2.88-3.78c-10.39.02-16.43-8.71-19.41-17.63-1.14-3.41-6.46-2.01-5.42,1.5,2.45,8.28,7.92,26.26,19.22,25.29,1.93-.16,3.35-.95,4.93-1.95,2.37-1.5,3.28-2.45,6.34-1.78,1.68.37,3.28.99,5.01,1.19,6.73.76,10.99-3.65,16.39-6.7l-3.68-4.77c-2.01,1.72-3.59,3.58-5.91,4.94-2,1.17-4.2,1.87-6.26,2.92-1.72.88-1.06,3.24.5,3.81h0Z"/>
          <path class="cls-10" d="m20.23,98.62c3.03,7.06-.56,17.95,6.5,23.46,3.17,2.48,5.87-.33,7.83-2.74,2.79-3.44,6.44-6.99,6.35-11.71-.02-.9-.84-1.5-1.7-1.29-2.47.58-4.25,2.06-5.9,3.95-.88,1-1.65,2.14-2.44,3.21-.59.79-1.67,3.12-2.48,3.38l2.43.32c-2.65-1.24-3.67-8.35-4.72-10.91-1.36-3.32-3.12-5.36-5.35-8.06-.26-.31-.65.09-.52.4h0Z"/>
          <path class="cls-10" d="m15.15,115.92c.16,2.38-1.81,5.09-2.09,7.46-.32,2.71-.09,5.3,1.7,7.5,3.77,4.65,10.28,3.84,15.37,2.44l-4.69-3.57c-.22,6.48,4.36,12.73,11.05,13.4,4.74.47,14.25-3.45,11.65-9.65-.44-1.05-1.38-1.82-2.6-1.47-2.49.71-3.76,3.1-6.21,3.85-4.16,1.27-6.77-2.36-6.49-6.13.18-2.46-2.51-4.14-4.69-3.57-1.74.45-3.9,1.21-5.71.98-3.06-.38-3.44-2.75-3.83-5.29-.46-2.98-1.33-3.71-2.85-6.1-.16-.26-.64-.18-.61.17h0Z"/>
          <path class="cls-9" d="m34.05-3.13c-6.05,5.72-10.78,11.25-14.41,18.83s-6.53,14.85-8.9,22.58c-4.34,14.18-8.36,30.5-3.88,45.06.46,1.49,2.61.87,2.31-.64-1.61-8.14,1.69-16.25,4.36-23.79,2.43-6.86,4.51-13.85,6.98-20.7s5.5-14.12,8.66-21.04c2.89-6.31,5.95-12.96,5.51-20.04-.02-.32-.4-.5-.64-.27h0Z"/>
          <path class="cls-9" d="m28.67,3.58c1.02,3.24,3.77,5.4,5.63,8.33,2.86,4.51,5.49,9.21,8.01,13.92,5.01,9.37,8.22,19.49,12.93,28.97.57,1.14,2.39.58,2.36-.64-.21-10.58-4.09-20.79-8.27-30.38-3.14-7.18-8.18-20.86-17.02-22.5-1.31-.24-2.43.18-3.18,1.29-.18.26-.57.67-.47,1h0Z"/>
          <path class="cls-9" d="m6.98,89.6c-7.94,3.79-7.81,16.15-4.92,23.04.65,1.55,2.83,1,2.54-.7-.73-4.15-.72-8.75.23-12.86.72-3.15,2.17-6.01,2.54-9.25.02-.21-.23-.3-.39-.22h0Z"/>
          <path class="cls-9" d="m28.6,91.63c-.6-.23-2.51,7.25-2.59,7.87-.41,3.3-.1,6.26.93,9.42.35,1.08,1.85.63,1.68-.46-.93-5.79,0-10.94,1.14-16.6.03-.17-.02-.36-.18-.45-.46-.25-.39-.24-.92-.19-.24.02-.28.33-.06.42h0Z"/>
        </g>
      </g>
      <path class="cls-6" d="m14.8,34.07s13.63-9.37,34.13-.83"/>
      <path class="cls-2" d="m24.57,111.92c-5.82.76-10.29,5.28-10.29,10.75,0,6,5.38,10.86,12.02,10.86.51,0,1.01-.03,1.5-.09.74,4.34,4.51,7.65,9.07,7.65,5.09,0,9.21-4.12,9.21-9.21,0-4.59-3.36-8.39-7.76-9.08,0-.04,0-.08,0-.12,0-3.7-2.05-6.98-5.19-8.94"/>
      <ellipse class="cls-2" cx="22.33" cy="148.95" rx="5.34" ry="4.17"/>
      <path class="cls-3" d="m50.23,88.52c5.23,1.58,13.12,7.7,4.23,31.25,0,0-3.77-16.75-9.01-22.34"/>
      <path class="cls-3" d="m9.69,89.55c-5.23,1.52-13.3,7.56-4.34,31.28,0,0,4.39-19.52,10.29-23.45"/>
      <path class="cls-6" d="m22.72,102.63c-5.42-2.68-23.7-15-11.94-55.41C24.17,1.24,32.51,1.25,32.51,1.25c0,0,26.28,34.19,21.33,72.52-2.72,21.05-11.4,27.87-18.67,29.74"/>
      <path class="cls-3" d="m29.4,87.98s-12.8,8.46,0,35.82c0,0,13.58-28.23,0-35.82Z"/>
      <path class="cls-9" d="m21.28,34.65c-7.94,13.14-12.73,28.37-9.19,43.79.31,1.37,2.37,1.03,2.4-.32.15-7.65.32-15.38,1.95-22.89,1.48-6.83,3.6-13.61,5.32-20.38.07-.28-.32-.45-.47-.2h0Z"/>
      <path class="cls-9" d="m13.86,85.66c.22-.07.38.03.49.22l.08-.62-.32.34c-.66.7-.87,1.69-.49,2.58s1.21,1.45,2.16,1.45c.54,0,.82-.13,1.3-.35.75-.34,1.25-1.34,1.22-2.13-.04-1.16-.72-2.21-1.9-2.5-1.25-.31-2.74.4-3.04,1.73s.4,2.64,1.73,3.04l.08.03-1.09-.64.06.07-.64-1.1.02.09v-1.32s-.02.1-.03.15l.62-1.07-.05.04c-.42.35-.71,1.13-.69,1.67.03.63.24,1.21.69,1.67.32.32.72.59,1.17.68,1.03.21,2.28-.13,2.79-1.14.4-.78.48-1.57.14-2.37-.31-.72-.96-1.35-1.75-1.52l-1.32,4.77h.06c-.49-.37-.98-.75-1.48-1.13l.03.04-.34-1.25c.03.24.06.48.1.72.32.76.33.79.04.09l1.65-2.91-.5.14.39.05c-.5-.22-.99-.32-1.44.05-.2.17.02.5.25.43h0Z"/>
      <path class="cls-9" d="m30.44,9.73c-2.3,4.28-4.37,8.68-5.26,13.49-.13.72.83.98,1.09.3,1.66-4.45,2.98-9.02,4.86-13.39.2-.46-.44-.87-.69-.4h0Z"/>
      <path class="cls-11" d="m32.68,52.45l-.03.05.42-.55c-.05.06-.1.12-.17.17l.56-.43c-.08.06-.16.11-.26.15l.69-.29c-.08.03-.15.05-.23.06l.78-.11c-.1.01-.2.01-.3,0l.81.11s-.08-.02-.11-.03l1.84,1.42-.02-.04.31.74s-.03-.08-.04-.13l.11.83s0-.09,0-.13l-.11.84s.02-.09.04-.13l-.32.76s.04-.08.07-.12l-.5.65c.04-.05.08-.09.13-.14l-.65.5s.08-.05.12-.07l-.77.33s.08-.03.13-.04l-.87.12s.06,0,.09,0l-.87-.12s.09.02.13.04l-.79-.33s.05.03.08.05l-.67-.52.03.03-.52-.67.02.03-.34-.8s.02.07.03.11l-.12-.9s0,.08,0,.11l.12-.91s-.02.08-.03.11l.35-.83c-.02.05-.05.09-.08.14l.55-.71s-.07.08-.11.11l.73-.56s-.09.06-.14.08l.87-.37s-.05.02-.07.02l.98-.13s-.07,0-.11,0l.99.13s-.05-.01-.08-.02l.9.38-.04-.02,1.87,3.26c0-.09-.01-.18,0-.27l-.14,1.01c.01-.07.03-.13.05-.2l-.38.91c.03-.07.06-.12.1-.18l-.6.78c.04-.05.09-.1.14-.14l-.78.6.06-.03-.92.39.06-.02-1.03.14h.06c-.65-.17-1.3-.35-1.95-.53l.05.03-1.39-1.39s.02.04.04.06l-.39-.92v.03c-.03-.34-.08-.68-.13-1.02v.03c.05-.34.09-.67.14-1.01v.02c.32-.56.64-1.11.96-1.67h-.01c.89-.35,1.77-.72,2.66-1.09h-.02c-.51-.02-.99.09-1.44.32-.46.15-.86.41-1.2.77-.68.74-1.06,1.62-1.09,2.64-.06,1.7,1.2,3.24,2.8,3.67s3.58-.28,4.4-1.81l.39-.93c.16-.51.18-1.03.07-1.54,0-.35-.09-.68-.26-.98-.16-.48-.42-.9-.8-1.25-.41-.49-1.18-.88-1.79-1.04-.36-.13-.72-.18-1.08-.13l-1.03.14c-1.04.24-1.99,1.06-2.51,1.97-.42.73-.58,1.42-.63,2.26s.22,1.52.57,2.28l.59.76c.34.37.75.63,1.21.78.29.17.61.26.95.26.5.11,1,.09,1.5-.07.74-.24,1.25-.53,1.81-1.06.47-.44.86-1.16,1.04-1.78.29-1.03.17-2.22-.38-3.15s-1.33-1.48-2.33-1.81c-1.23-.4-2.68.06-3.58.95-.25.25-.49.55-.65.86-.08.15-.3.6-.36.9-.06.24-.13.68-.12.94.01.65.15,1.24.47,1.8.42.73,1.17,1.32,1.99,1.55.88.24,1.82.06,2.58-.42.59-.37.88-.7,1.28-1.26s.6-1.35.6-2.06l-.1-.71c-.08-.35-.24-.65-.48-.91-.34-.44-.83-.83-1.39-.96-.47-.11-.95-.11-1.42,0-.68.15-1.23.68-1.6,1.23h0Z"/>
      <path class="cls-11" d="m35.26,45.93l.15.29-.07-.26c-.02.23.04.45.22.62.09.08.19.15.29.22.14.11.4.12.56.07s.35-.18.44-.33c.17-.32.11-.83-.26-1-.11-.05-.23-.12-.34-.15-.24-.06-.45-.01-.65.12l.26-.07h-.32c-.24.02-.37.26-.26.47h0Z"/>
      <path class="cls-11" d="m35.4,45.85l.24.56v-.38c-.18.28-.18.64.06.89s.71.27.96,0,.28-.71,0-.96c-.26-.24-.6-.25-.89-.06h.38l-.56-.24c-.13-.06-.25.06-.19.19h0Z"/>
    </g>
  </g>
</svg>