<svg xmlns="http://www.w3.org/2000/svg" xmlns:xlink="http://www.w3.org/1999/xlink" viewBox="0 0 140.45 162.44"><defs><style>.cls-1,.cls-11,.cls-12{fill:none;}.cls-2{fill:#57b388;}.cls-12,.cls-2,.cls-3,.cls-9{stroke:#221f20;}.cls-11,.cls-2{stroke-linecap:round;stroke-linejoin:round;}.cls-11,.cls-12,.cls-2,.cls-3,.cls-9{stroke-width:5px;}.cls-3{fill:#e3f9fe;}.cls-12,.cls-3,.cls-9{stroke-miterlimit:10;}.cls-4{fill:#98e5ef;}.cls-5{opacity:0.4;}.cls-6{clip-path:url(#clip-path);}.cls-7{fill:#ebfef3;}.cls-8{fill:#84263d;}.cls-9{fill:#daeef4;}.cls-10{fill:#221f20;}.cls-11{stroke:#1f3c2e;}.cls-13{fill:#fff;}</style><clipPath id="clip-path" transform="translate(7.36 14.71)"><path class="cls-1" d="M116.42,35.86c3.71-5.2-6.53-16.32-22.56-25.37A56.51,56.51,0,0,0,75.08,3.66C64.24.53,55.65,1.91,53.35,6.69c-.41-.19-.74-.18-1,.09C28.68,33.94,13.61,75,7.49,94.11c-2.13,6.65-5.5,17.28-1,22.59C18.94,131.25,57.12,156.52,71,138.4c21.14-27.7,46.11-95,46.11-95-.49-.06-1-.14-1.45-.21C117.26,41.36,117.44,38.81,116.42,35.86Z"/></clipPath></defs><g id="Calque_2" data-name="Calque 2"><g id="Layer_4" data-name="Layer 4"><path class="cls-2" d="M50.59,7.31c3-3.4,17.07,30.7,64.69,36.66,0,0-25,67.26-46.11,94.95-13.83,18.12-52-7.15-64.42-21.69-4.53-5.31-1.16-16,1-22.6C11.84,75.54,26.9,34.47,50.59,7.31Z" transform="translate(7.36 14.71)"/><path class="cls-3" d="M70.48,31.74S52.36,21.44,51,11s17.24-12.19,37.14-.24,32.29,27.44,25,33.63S83.4,41.54,70.48,31.74Z" transform="translate(7.36 14.71)"/><path class="cls-3" d="M75.7,26.43S59.85,17.93,59,9.92,74.69,1.19,92.09,11s28,22.08,21.31,26.57S86.93,34.37,75.7,26.43Z" transform="translate(7.36 14.71)"/><path class="cls-4" d="M61.08,50.12l0-.16-.22,1.6,0-.13-.63,1.49.05-.1-1,1.31c.54-.59,1-1.26,1.44-1.88l-1.09,1.4a1.87,1.87,0,0,1,.3-.26l-1.45,1.12a1.55,1.55,0,0,1,.36-.19l-1.76.74a1.72,1.72,0,0,1,.39-.1l-2,.27a1.7,1.7,0,0,1,.39,0l-2.06-.27a1.63,1.63,0,0,1,.37.08l-1.9-.8a1.27,1.27,0,0,1,.36.2L51,53.14a3.89,3.89,0,0,1,.44.47L50.14,51.9a1.79,1.79,0,0,1,.22.38l-.87-2.06a2.91,2.91,0,0,1,.18.64l-.32-2.35a2.14,2.14,0,0,1,0,.44l.32-2.4a2.42,2.42,0,0,1-.17.64L50.45,45a2.5,2.5,0,0,1-.21.35l1.48-1.91a4.57,4.57,0,0,1-.45.43l2-1.52a3.32,3.32,0,0,1-.56.3l2.38-1a2.92,2.92,0,0,1-.4.1l2.68-.36c-1,.12-2.08.27-3.11.42l2.72-.37a2,2,0,0,1-.42,0l2.75.37a1.8,1.8,0,0,1-.4-.1l2.51,1.06a2.54,2.54,0,0,1-.53-.31L63,44.09c-.18-.18-.36-.37-.53-.56l1.69,2.18a3.21,3.21,0,0,1-.31-.5L65,47.79a3.7,3.7,0,0,1-.16-.57l.38,2.87a2.81,2.81,0,0,1,0-.58l-.39,2.88a2.34,2.34,0,0,1,.09-.38L63.78,54.6a1.86,1.86,0,0,1,.29-.49l-1.7,2.19a1.45,1.45,0,0,1,.29-.26l-2.2,1.7a1.26,1.26,0,0,1,.33-.16l-2.6,1.09a2.33,2.33,0,0,1,.36-.08L55.66,59H56l-2.9-.39a3.39,3.39,0,0,1,.55.13l-2.6-1.09a3,3,0,0,1,.49.27l-2.21-1.71a2.79,2.79,0,0,1,.38.39L48,54.37l.09.16a11.41,11.41,0,0,0,6.53,5,11.12,11.12,0,0,0,8.41-1.1,11,11,0,0,0,5-6.52c.63-2.76.54-6-1.1-8.42a13.33,13.33,0,0,0-4.73-4.62,12.71,12.71,0,0,0-15.09,1.93,12,12,0,0,0-3.26,5.82,12.51,12.51,0,0,0,0,6.14,12.07,12.07,0,0,0,1.23,3.16,11.94,11.94,0,0,0,19.26,2.74,11.89,11.89,0,0,0,3-11.7A11,11,0,0,0,57,39.2a9.41,9.41,0,0,0-9.22,8.94c-.21,4,3.11,8.32,7.44,7.84a6.24,6.24,0,0,0,4.15-1.72,6.58,6.58,0,0,0,1.71-4.14Z" transform="translate(7.36 14.71)"/><path class="cls-4" d="M59.42,88.84a4.16,4.16,0,0,0,2.14-.48,5,5,0,0,0,3-2.94A4.22,4.22,0,0,0,65,83.27l-.2-1.49a5.57,5.57,0,0,0-1.43-2.46l-1.13-.87a5.47,5.47,0,0,0-2.81-.76,4.17,4.17,0,0,0-2.15.48,4.16,4.16,0,0,0-1.8,1.15,4.22,4.22,0,0,0-1.15,1.8,4.17,4.17,0,0,0-.48,2.15l.2,1.48a5.57,5.57,0,0,0,1.43,2.46l1.13.87a5.48,5.48,0,0,0,2.82.76Z" transform="translate(7.36 14.71)"/><path class="cls-4" d="M30.1,118.14c-.07-.29-.07-.25,0,.11a1.64,1.64,0,0,1-.06,1c.08-.3,0-.25-.11.16a2.64,2.64,0,0,1-.66,1c.5-.54-1.17.73-.49.39-.17.08-1.59.51-.69.35l-1.62.22a2.26,2.26,0,0,1,.52,0l-6.56-6.56c0,.45,0,.91-.08,1.36l.27-2a4,4,0,0,1-.19.78l.82-1.93a5.09,5.09,0,0,1-.38.68L22.21,112a1.82,1.82,0,0,1-.34.34l1.79-1.38a1.52,1.52,0,0,1-.41.24l2.18-.92a1.62,1.62,0,0,1-.43.12l2.5-.34a1.3,1.3,0,0,1-.44,0l2.58.35a1.33,1.33,0,0,1-.43-.13l2.39,1-.19-.12,2.05,1.59c-.81-.71-1.68-1.34-2.54-2L33,112.36l-.14-.15,1.62,2.1a1.69,1.69,0,0,1-.23-.36l1.06,2.49a1.44,1.44,0,0,1-.13-.4l.37,2.79a1.85,1.85,0,0,1,0-.41l-.37,2.81a1,1,0,0,1,.1-.38l-1.07,2.53.2-.34-1.66,2.15.13-.17-10.29,2.72c1,.15,2.09.29,3.14.42q1.55-.15,3.09-.42c3.45-.59,6.34-4,7.23-7.23a10.49,10.49,0,0,0-2.67-10.08,11.79,11.79,0,0,0-2.64-2,10.69,10.69,0,0,0-10.68,0,11.39,11.39,0,0,0-5.64,9.81,12.13,12.13,0,0,0,8.72,11.52,11,11,0,0,0,10.57-2.87,11.28,11.28,0,0,0,2-13.18A10.49,10.49,0,0,0,27,108.25l-1.74.24A4.93,4.93,0,0,0,23,109.66a6.15,6.15,0,0,0-2.35,3.41A7.93,7.93,0,0,0,22,119.78a6.46,6.46,0,0,0,3.87,2.63,3.62,3.62,0,0,0,3.37-.89,3.52,3.52,0,0,0,.89-3.38Z" transform="translate(7.36 14.71)"/><path class="cls-4" d="M56.21,119.14a10.29,10.29,0,0,0-.17,1.18,7.75,7.75,0,0,0-.15,1.18,8.13,8.13,0,0,0,.32,2.35l.84,2,1.31,1.7,1.7,1.31a6.16,6.16,0,0,0,3.12,1,4.22,4.22,0,0,0,2.23,0,4.26,4.26,0,0,0,2.12-.57,4.18,4.18,0,0,0,1.85-1.08,6.46,6.46,0,0,0,2.16-2.36l0-.07-1.32,1.71.06-.06-1.71,1.32,0,0a8.48,8.48,0,0,0,3-11.6,6.4,6.4,0,0,0-2.18-2.38,6.47,6.47,0,0,0-2.88-1.52,8.48,8.48,0,0,0-10.43,5.92Z" transform="translate(7.36 14.71)"/><g class="cls-5"><g class="cls-6"><path class="cls-7" d="M.52,120.18c.67-3,2.42-5.28,3.7-8C5.3,109.85,6.08,107.39,7,105c2-5.11,3.94-10.23,5.9-15.36C16.71,79.73,21.08,70,25.77,60.41s10-18.71,15.47-27.81q4.21-7,8.83-13.79,2.43-3.55,5-7c.68-.93,1.36-1.86,2.05-2.78.51-.69,1-1.38,1.56-2.06Q61.28,3.81,54,8.6C60.25,7.86,65.64,3.78,65.64-3c0-5.65-5.35-12.45-11.62-11.63-8.4,1.1-12.12,5.41-16.9,12Q31.8,4.63,27,12.28A232.9,232.9,0,0,0,9.74,45.09a241.82,241.82,0,0,0-12.25,35A148.94,148.94,0,0,0-6.42,99c-.34,2.77-.7,5.57-.9,8.36-.25,3.59.79,7.22.25,10.76-.76,4.89,6.46,7.14,7.59,2.1Z" transform="translate(7.36 14.71)"/><path class="cls-7" d="M59.8,12a79.46,79.46,0,0,1,26.57,3.6c4.91,1.59,16.6,9,19.26,1a5.16,5.16,0,0,0-1.32-5C93.19-.13,72.77.1,59,5.74,55.89,7,55.89,12.15,59.8,12Z" transform="translate(7.36 14.71)"/><path class="cls-8" d="M3.63,123.4c15.69,25.35,53.15,29.34,76.05,11.67,14.4-11.1,22.93-29.46,31.76-44.95A274,274,0,0,0,124.37,64.8c4.12-9.41,9.51-18.72,8.62-29.23-.48-5.75-6.58-10.5-12.13-7a32,32,0,0,0-10.16,9.59c-2.44,3.66-4.57,7.57-6.88,11.31-4.3,7-8.31,14.14-12.4,21.24-7.66,13.32-14.11,28.2-23.8,40.2a36.94,36.94,0,0,1-25.91,14.11,46.54,46.54,0,0,1-31.41-8.32c-4.05-2.9-9.12,2.7-6.67,6.67Z" transform="translate(7.36 14.71)"/></g></g><path class="cls-9" d="M91,99.85a14.8,14.8,0,0,1-25.66-.62C62.51,94,61.14,84.88,73.12,78,85.51,71,92.63,83.51,93,91.76a14.41,14.41,0,0,1-1.9,7.89Z" transform="translate(7.36 14.71)"/><path class="cls-9" d="M46.84,77.29a14.8,14.8,0,0,1-25.66-.63C18.37,71.45,17,62.31,29,55.47,41.37,48.39,48.5,61,48.86,69.2A14.43,14.43,0,0,1,47,77.09Z" transform="translate(7.36 14.71)"/><path class="cls-10" d="M104.84,30.79c-1.61,1.26-3.28.92-5.23.26-1.5-.51-6.54-2.65-6.2-4.73.17-1,1.48-.73,2.56-.67a15.07,15.07,0,0,1,3.53.59c1.84.53,7,2.84,5.34,5.57-1.52,2.53,2.23,4.59,3.88,2.28,6.7-9.33-15.23-20.21-20.8-11.57-3.4,5.28,2.49,11,7,13.05,3.76,1.67,13.1,3.44,13-3.12a2,2,0,0,0-1.46-1.92,1.76,1.76,0,0,0-1.62.26Z" transform="translate(7.36 14.71)"/><path class="cls-10" d="M25.79,75.05c2.82-5,4.9-10.23,8.15-15l-6.52-3.8a59.16,59.16,0,0,0-8.23,17.54C18,78.23,24.94,81.52,26.9,77L31,67.61c1.18-2.69,2.07-6.22,4.43-8.1L28.81,54.4a63,63,0,0,0-6.24,15.06c-1,3.68-3.53,9-.52,12.29,2,2.16,5,1.18,6.53-.84l.18-.23c1.41-1.87.16-4.44-1.47-5.59L27.12,75c-3.5-2.48-7.26,2.22-5.51,5.51l.1.2,1.46-5.59-.27.14,5.68,1.49c1.08,2.4,1.48-2.6,1.72-3.53.4-1.49.81-3,1.28-4.42A49.26,49.26,0,0,1,36.1,58.66c2.6-4.4-3.08-8-6.63-5.12-2.66,2.13-3.74,5.21-5.06,8.25l-4.8,11L27.32,76a64.6,64.6,0,0,1,6.62-16c2.47-4.19-4-8-6.52-3.8-3.19,5.4-6,11.17-6.52,17.49-.2,2.65,3.66,3.49,4.89,1.32Z" transform="translate(7.36 14.71)"/><path class="cls-10" d="M69.72,100.65A169.79,169.79,0,0,1,79.4,82.43c3-4.87-4.38-9-7.58-4.43a49.1,49.1,0,0,0-8,18.5c-1.28,6.17,6.86,8.07,9.2,2.54s4.27-13.72,9-17.75l-7.43-5.73c-3.46,8.17-7.2,16.21-10.06,24.63-1.8,5.31,6.68,7.65,8.41,2.32,2.51-7.78,5.41-15.26,9.82-22.18,3.06-4.8-3.52-9-7.43-5.73-5.86,4.88-8.16,14-11,20.76L73,99A56,56,0,0,1,79.4,82.43l-8-3.38A72.51,72.51,0,0,0,66,99.63c-.22,2,2.94,2.79,3.76,1Z" transform="translate(7.36 14.71)"/><path class="cls-11" d="M114.25,47.36c-5.67,14.75-26.54,67.36-44.62,91-13.83,18.12-52-7.15-64.42-21.69-4.54-5.32-1.17-15.95,1-22.6,5.93-18.5,20.26-57.64,42.7-84.76" transform="translate(7.36 14.71)"/><path class="cls-12" d="M115.11,35.86c1.14,3.31.77,6.11-1.47,8C106.36,50.08,83.86,41,70.93,31.22c0,0-18.11-10.3-19.45-20.72C50.74,4.77,59.73,2.92,68,3.28" transform="translate(7.36 14.71)"/><path class="cls-12" d="M76.15,25.91S60.3,17.41,59.41,9.4,75.14.67,92.54,10.5s28,22.08,21.32,26.57S87.39,33.85,76.15,25.91Z" transform="translate(7.36 14.71)"/><path class="cls-13" d="M36.08,64.05,36,64l.59.76a.81.81,0,0,1-.1-.18l.38.91a1.09,1.09,0,0,1,0-.17l.14,1a.43.43,0,0,1,0-.16l-.14,1,0-.12-.39.93s0,0,0-.08l-.61.8a.23.23,0,0,1,.07-.07l-.8.62,0,0-4.79-.62a2.17,2.17,0,0,0,.85.67,3,3,0,0,0,1.54.49l.64.08-1.11-.15.09,0-1-.42.11.06-.86-.65a.2.2,0,0,1,.09.09l-.66-.86a1,1,0,0,1,.1.17l-.43-1a1.46,1.46,0,0,1,.05.2l-.16-1.16c0,.49-.18.24.16,1.3a9.14,9.14,0,0,0,.45,1.08c.51,1,.45.61.72.92l-.68-.88a.35.35,0,0,1,.05.08l-.43-1a.2.2,0,0,1,0,.07l-.15-1.12a.11.11,0,0,1,0,.08l.15-1.11v0a4.32,4.32,0,0,0,0,2.2,3.21,3.21,0,0,0,.74,1.4,3.12,3.12,0,0,0,1.16,1.06,4.12,4.12,0,0,0,2.08.57,4.5,4.5,0,0,0,4-6.76,5,5,0,0,0-.79-1c-.16-.15-.34-.27-.51-.41s-.35-.28-.52-.39a5.28,5.28,0,0,0-1.2-.51,4.68,4.68,0,0,0-3.58.48l-.83.65a3,3,0,0,0-.86,1.33,2,2,0,0,0-.28,1,3.15,3.15,0,0,0,.07,1.64v-2a.14.14,0,0,1,0,.06,9.85,9.85,0,0,0-.15,1.09V66a.06.06,0,0,0,0,0l.13,1a4.66,4.66,0,0,0,.23.58,4.27,4.27,0,0,0,.26.57c.15.22.45.61.62.81l.05,0,.06,0c.16.15.61.49.79.62a3.67,3.67,0,0,0,1.15.49l1,.14a2.81,2.81,0,0,0,1.43-.32,1.9,1.9,0,0,0,.82-.48,2.8,2.8,0,0,0,.95-1l.38-.89.13-1a2.81,2.81,0,0,0-.32-1.43,2.76,2.76,0,0,0-.77-1.19Z" transform="translate(7.36 14.71)"/><path class="cls-13" d="M75.42,91.75c.46.45.91.92,1.4,1.35a8.45,8.45,0,0,0,2.71,1.41,2.94,2.94,0,0,0,3.11-1.06,3,3,0,0,0,.23-3.28,6.23,6.23,0,0,0-1.24-2.06c-.42-.43-.87-.84-1.31-1.26a3.46,3.46,0,0,0-4.9,4.9Z" transform="translate(7.36 14.71)"/><path class="cls-13" d="M40,46.2A61.56,61.56,0,0,0,50.67,28.35,1.37,1.37,0,0,0,48.4,27,61.25,61.25,0,0,0,38.08,45.1,1.14,1.14,0,0,0,40,46.2Z" transform="translate(7.36 14.71)"/><path class="cls-13" d="M14.28,113.75a71,71,0,0,1,4.57-13.24C20.5,97,22.54,93.7,23.44,89.87c.16-.64-.61-1.43-1.23-1-6.86,5.24-9.6,15.84-11.36,23.88-.49,2.23,2.88,3.19,3.43,1Z" transform="translate(7.36 14.71)"/></g></g></svg>