<?xml version="1.0" encoding="UTF-8" standalone="no"?>
<svg
   viewBox="0 0 132.97998 117.18001"
   version="1.1"
   id="svg62"
   sodipodi:docname="blue_flower_right_eye.svg"
   width="132.98"
   height="117.18"
   inkscape:version="1.4.2 (f4327f4, 2025-05-13)"
   xmlns:inkscape="http://www.inkscape.org/namespaces/inkscape"
   xmlns:sodipodi="http://sodipodi.sourceforge.net/DTD/sodipodi-0.dtd"
   xmlns="http://www.w3.org/2000/svg"
   xmlns:svg="http://www.w3.org/2000/svg">
  <sodipodi:namedview
     id="namedview62"
     pagecolor="#ffffff"
     bordercolor="#999999"
     borderopacity="1"
     inkscape:showpageshadow="2"
     inkscape:pageopacity="0"
     inkscape:pagecheckerboard="0"
     inkscape:deskcolor="#d1d1d1"
     inkscape:zoom="2.0713865"
     inkscape:cx="196.48675"
     inkscape:cy="105.4849"
     inkscape:window-width="1920"
     inkscape:window-height="991"
     inkscape:window-x="-9"
     inkscape:window-y="-9"
     inkscape:window-maximized="1"
     inkscape:current-layer="Calque_2" />
  <defs
     id="defs1">
    <style
       id="style1">.cls-1,.cls-9{fill:none;}.cls-2,.cls-4{fill:#7ce8f6;}.cls-12,.cls-13,.cls-2,.cls-3,.cls-4{stroke:#231f20;}.cls-12,.cls-2,.cls-3{stroke-miterlimit:10;}.cls-12,.cls-13,.cls-2,.cls-3,.cls-4,.cls-9{stroke-width:5px;}.cls-3{fill:#fdfc80;}.cls-13,.cls-4,.cls-9{stroke-linecap:round;stroke-linejoin:round;}.cls-5{opacity:0.46;}.cls-6{clip-path:url(#clip-path);}.cls-7{fill:#901a3d;}.cls-8{fill:#e6fff2;}.cls-9{stroke:#2b264d;}.cls-10{fill:#2b264d;}.cls-11{fill:#ecbef7;}.cls-12,.cls-15{fill:#ddfaff;}.cls-13,.cls-14{fill:#231f20;}</style>
    <clipPath
       id="clip-path"
       transform="translate(4.35 0.72)">
      <path
         class="cls-1"
         d="m 336.71,67 c -8.08,-4.29 -33,-12.68 -61.73,-7.66 -3.46,-44.39 -60.44,-56.28 -60.44,-56.28 0,0 -65.07,-10.79 -98,49.83 -9.09,16.74 -9.65,32.58 -5.69,46.76 C 84,93.41 52.32,90.31 25.61,112.52 -12.15,143.92 9.3,215 9.3,215 c 0,0 7.75,14.61 36.21,22 C 17.36,254.63 -3.76,279.63 11.6,312.39 46.07,386 141,362.22 141,362.22 a 117.47,117.47 0 0 0 27.6,-16.55 c 12.05,4.23 28.5,6.65 37.51,5.33 12.26,-1.8 52.09,-29.27 53.62,-55.75 l 0.35,-0.59 a 28.41,28.41 0 0 0 22.65,0.14 l 0.46,0.45 c 0,0 14.07,-2 30.17,-12.69 16.1,-10.69 26.79,-11.49 30,-44.25 1.48,-15.11 -6.59,-22.27 -15.71,-25.6 15.68,-7.7 31.3,-19.25 43.13,-36.62 C 406.83,123.24 350.75,74.45 336.71,67 Z"
         id="path1" />
    </clipPath>
  </defs>
  <g
     id="Calque_2"
     data-name="Calque 2">
    <g
       id="Layer_30"
       data-name="Layer 30"
       transform="rotate(38.531808,375.26726,-72.708538)">
      <g
         class="cls-5"
         id="g36">
        <g
           class="cls-6"
           clip-path="url(#clip-path)"
           id="g35" />
      </g>
      <path
         class="cls-12"
         d="m 211.15,200 c 2.72,2.58 39.94,23.44 41.22,-7.81 0.84,-20.7 -16,-31.05 -27.51,-35.68 a 23.18,23.18 0 0 0 -25,4.66 c -6.86,6.9 -9.64,18.95 11.29,38.83 z"
         transform="translate(4.35,0.72)"
         id="path48" />
      <path
         class="cls-13"
         d="M 204.89,157.48 247,204.62 c 0,0 11.09,-18.34 -2.42,-31.77 -13.51,-13.43 -27.76,-18.07 -27.76,-18.07 z"
         transform="translate(4.35,0.72)"
         id="path51" />
      <path
         class="cls-14"
         d="m 252.86,200.7 c 3.37,0.21 6.7,0.73 10.06,1 2,0.17 4.87,0 4.77,-2.69 -0.1,-2.8 -3.67,-3.19 -5.77,-3.46 a 29.2,29.2 0 0 0 -9.68,0.54 c -2.71,0.54 -1.89,4.45 0.62,4.6 z"
         transform="translate(4.35,0.72)"
         id="path54" />
      <path
         class="cls-14"
         d="m 252.27,191.69 a 42.68,42.68 0 0 1 7.9,-1.73 10.85,10.85 0 0 0 6.11,-2.25 1.6,1.6 0 0 0 0,-2.25 c -4.24,-4.29 -11.67,-1.26 -16.21,1 -2.88,1.44 -0.88,6.24 2.2,5.22 z"
         transform="translate(4.35,0.72)"
         id="path55" />
      <path
         class="cls-15"
         d="m 213.33,180.21 0.07,0.07 1.28,1 1.53,0.64 a 6.1,6.1 0 0 0 1.75,0.23 7.76,7.76 0 0 0 1,-0.11 3.21,3.21 0 0 0 1.6,-0.44 3.07,3.07 0 0 0 0.83,-0.36 6.38,6.38 0 0 0 2.25,-2.25 4.54,4.54 0 0 0 0.74,-2.32 4.72,4.72 0 0 0 -0.11,-2.5 6.23,6.23 0 0 0 -1.61,-2.76 l -0.06,-0.07 -1.28,-1 -1.52,-0.64 h -0.16 a 3.08,3.08 0 0 0 -0.91,-0.13 6.45,6.45 0 0 0 -3.3,0.43 l -0.84,0.36 a 6.38,6.38 0 0 0 -2.26,2.27 4.69,4.69 0 0 0 -0.75,2.34 4.77,4.77 0 0 0 0.12,2.51 6.08,6.08 0 0 0 1.62,2.78 z"
         transform="translate(4.35,0.72)"
         id="path62" />
    </g>
  </g>
</svg>
