<?xml version="1.0" encoding="UTF-8" standalone="no"?>
<svg
   viewBox="0 0 105.98 85.18"
   version="1.1"
   id="svg62"
   sodipodi:docname="blue_flower_face.svg"
   width="105.98"
   height="85.18"
   inkscape:version="1.4.2 (f4327f4, 2025-05-13)"
   xmlns:inkscape="http://www.inkscape.org/namespaces/inkscape"
   xmlns:sodipodi="http://sodipodi.sourceforge.net/DTD/sodipodi-0.dtd"
   xmlns="http://www.w3.org/2000/svg"
   xmlns:svg="http://www.w3.org/2000/svg">
  <sodipodi:namedview
     id="namedview62"
     pagecolor="#ffffff"
     bordercolor="#999999"
     borderopacity="1"
     inkscape:showpageshadow="2"
     inkscape:pageopacity="0"
     inkscape:pagecheckerboard="0"
     inkscape:deskcolor="#d1d1d1"
     inkscape:zoom="2.0713865"
     inkscape:cx="196.48675"
     inkscape:cy="186.59"
     inkscape:window-width="1920"
     inkscape:window-height="991"
     inkscape:window-x="-9"
     inkscape:window-y="-9"
     inkscape:window-maximized="1"
     inkscape:current-layer="svg62" />
  <defs
     id="defs1">
    <style
       id="style1">.cls-1,.cls-9{fill:none;}.cls-2,.cls-4{fill:#7ce8f6;}.cls-12,.cls-13,.cls-2,.cls-3,.cls-4{stroke:#231f20;}.cls-12,.cls-2,.cls-3{stroke-miterlimit:10;}.cls-12,.cls-13,.cls-2,.cls-3,.cls-4,.cls-9{stroke-width:5px;}.cls-3{fill:#fdfc80;}.cls-13,.cls-4,.cls-9{stroke-linecap:round;stroke-linejoin:round;}.cls-5{opacity:0.46;}.cls-6{clip-path:url(#clip-path);}.cls-7{fill:#901a3d;}.cls-8{fill:#e6fff2;}.cls-9{stroke:#2b264d;}.cls-10{fill:#2b264d;}.cls-11{fill:#ecbef7;}.cls-12,.cls-15{fill:#ddfaff;}.cls-13,.cls-14{fill:#231f20;}</style>
    <clipPath
       id="clip-path"
       transform="translate(4.35 0.72)">
      <path
         class="cls-1"
         d="m 336.71,67 c -8.08,-4.29 -33,-12.68 -61.73,-7.66 -3.46,-44.39 -60.44,-56.28 -60.44,-56.28 0,0 -65.07,-10.79 -98,49.83 -9.09,16.74 -9.65,32.58 -5.69,46.76 C 84,93.41 52.32,90.31 25.61,112.52 -12.15,143.92 9.3,215 9.3,215 c 0,0 7.75,14.61 36.21,22 C 17.36,254.63 -3.76,279.63 11.6,312.39 46.07,386 141,362.22 141,362.22 a 117.47,117.47 0 0 0 27.6,-16.55 c 12.05,4.23 28.5,6.65 37.51,5.33 12.26,-1.8 52.09,-29.27 53.62,-55.75 l 0.35,-0.59 a 28.41,28.41 0 0 0 22.65,0.14 l 0.46,0.45 c 0,0 14.07,-2 30.17,-12.69 16.1,-10.69 26.79,-11.49 30,-44.25 1.48,-15.11 -6.59,-22.27 -15.71,-25.6 15.68,-7.7 31.3,-19.25 43.13,-36.62 C 406.83,123.24 350.75,74.45 336.71,67 Z"
         id="path1" />
    </clipPath>
  </defs>
  <g
     id="Calque_2"
     data-name="Calque 2"
     transform="translate(-168.96895,-189.72799)">
    <g
       id="Layer_30"
       data-name="Layer 30">
      <g
         class="cls-5"
         id="g36">
        <g
           class="cls-6"
           clip-path="url(#clip-path)"
           id="g35">
          <path
             class="cls-8"
             d="m 49.89,200.59 a 4.75,4.75 0 0 0 2.49,-0.56 4.71,4.71 0 0 0 2.09,-1.34 7.25,7.25 0 0 0 1.9,-4.58 l -0.23,-1.73 a 6.43,6.43 0 0 0 -1.67,-2.86 l -1.31,-1 a 6.47,6.47 0 0 0 -3.27,-0.88 4.77,4.77 0 0 0 -2.5,0.56 4.77,4.77 0 0 0 -2.09,1.34 4.86,4.86 0 0 0 -1.3,2.07 4.77,4.77 0 0 0 -0.56,2.5 l 0.23,1.72 a 6.43,6.43 0 0 0 1.67,2.86 l 1.31,1 a 6.48,6.48 0 0 0 3.28,0.88 z"
             transform="translate(4.35,0.72)"
             id="path27" />
          <path
             class="cls-8"
             d="M 48.34,294.26 C 52,290 56.57,287.2 62.25,287.4 l -5.85,-7.68 a 7.89,7.89 0 0 1 -1.64,2.38 c -1.53,1.12 0.45,-0.14 -1.27,0.57 0.68,-0.08 0.54,-0.11 -0.41,-0.07 0.74,0.08 0.64,0 -0.32,-0.23 l 5.65,9.95 c -0.49,1.49 -1.8,1.61 -3.31,1.36 l -6.17,-10.87 c -0.07,0.49 -0.4,2.91 -0.47,2.37 q 1.45,-4.31 8.53,-2.2 -2.15,-1.22 1.54,1.65 l 1.21,4.46 v -0.54 c -0.21,-8.67 -11.59,-11.71 -16.16,-4.38 -4.73,7.6 1.9,16.94 10.28,16.91 8.8,0 12.31,-8.44 12.45,-15.92 0.08,-4.9 -4.13,-8.68 -8.84,-8.84 -8.26,-0.27 -14.17,6 -14.93,13.85 -0.45,4.64 4.09,7.69 8.09,8.08 10,1 19.78,-8.44 17.49,-18.53 -0.93,-4.11 -5.56,-5.21 -8.91,-3.63 a 38.32,38.32 0 0 0 -16.3,14 c -2,3.28 2.86,7.24 5.45,4.2 z"
             transform="translate(4.35,0.72)"
             id="path28" />
        </g>
      </g>
      <ellipse
         class="cls-11"
         cx="187.48"
         cy="259.32001"
         rx="17.43"
         ry="14.4"
         id="ellipse47" />
      <ellipse
         class="cls-11"
         cx="253.89"
         cy="206.27"
         rx="17.43"
         ry="14.4"
         transform="rotate(-45,256.92025,201.37015)"
         id="ellipse48" />
      <path
         class="cls-14"
         d="m 213.2,246.66 c 5.6,6.37 16.45,9.5 23.39,3.23 3.15,-2.84 4.24,-6.78 4.43,-10.9 0.13,-3 0.53,-8.62 -2.5,-10.3 a 1.35,1.35 0 0 0 -1.59,0.21 c -1.71,1.7 -1.09,3.18 -1,5.48 0.13,3.12 0,6.38 -1.52,9.18 -4.41,8.1 -13.21,3.8 -19.11,0.38 a 1.74,1.74 0 0 0 -2.1,2.72 z"
         transform="translate(4.35,0.72)"
         id="path56" />
    </g>
  </g>
</svg>
