<?xml version="1.0" encoding="UTF-8" standalone="no"?>
<svg
   viewBox="0 0 392.98 373.18"
   version="1.1"
   id="svg62"
   sodipodi:docname="blue_flower_without_face.svg"
   inkscape:version="1.4.2 (f4327f4, 2025-05-13)"
   xmlns:inkscape="http://www.inkscape.org/namespaces/inkscape"
   xmlns:sodipodi="http://sodipodi.sourceforge.net/DTD/sodipodi-0.dtd"
   xmlns="http://www.w3.org/2000/svg"
   xmlns:svg="http://www.w3.org/2000/svg">
  <sodipodi:namedview
     id="namedview62"
     pagecolor="#ffffff"
     bordercolor="#999999"
     borderopacity="1"
     inkscape:showpageshadow="2"
     inkscape:pageopacity="0"
     inkscape:pagecheckerboard="0"
     inkscape:deskcolor="#d1d1d1"
     inkscape:zoom="2.0713865"
     inkscape:cx="196.48675"
     inkscape:cy="186.59"
     inkscape:window-width="1920"
     inkscape:window-height="991"
     inkscape:window-x="-9"
     inkscape:window-y="-9"
     inkscape:window-maximized="1"
     inkscape:current-layer="svg62" />
  <defs
     id="defs1">
    <style
       id="style1">.cls-1,.cls-9{fill:none;}.cls-2,.cls-4{fill:#7ce8f6;}.cls-12,.cls-13,.cls-2,.cls-3,.cls-4{stroke:#231f20;}.cls-12,.cls-2,.cls-3{stroke-miterlimit:10;}.cls-12,.cls-13,.cls-2,.cls-3,.cls-4,.cls-9{stroke-width:5px;}.cls-3{fill:#fdfc80;}.cls-13,.cls-4,.cls-9{stroke-linecap:round;stroke-linejoin:round;}.cls-5{opacity:0.46;}.cls-6{clip-path:url(#clip-path);}.cls-7{fill:#901a3d;}.cls-8{fill:#e6fff2;}.cls-9{stroke:#2b264d;}.cls-10{fill:#2b264d;}.cls-11{fill:#ecbef7;}.cls-12,.cls-15{fill:#ddfaff;}.cls-13,.cls-14{fill:#231f20;}</style>
    <clipPath
       id="clip-path"
       transform="translate(4.35 0.72)">
      <path
         class="cls-1"
         d="M336.71,67c-8.08-4.29-33-12.68-61.73-7.66-3.46-44.39-60.44-56.28-60.44-56.28s-65.07-10.79-98,49.83c-9.09,16.74-9.65,32.58-5.69,46.76C84,93.41,52.32,90.31,25.61,112.52-12.15,143.92,9.3,215,9.3,215s7.75,14.61,36.21,22C17.36,254.63-3.76,279.63,11.6,312.39,46.07,386,141,362.22,141,362.22a117.47,117.47,0,0,0,27.6-16.55c12.05,4.23,28.5,6.65,37.51,5.33,12.26-1.8,52.09-29.27,53.62-55.75l.35-.59a28.41,28.41,0,0,0,22.65.14l.46.45s14.07-2,30.17-12.69,26.79-11.49,30-44.25c1.48-15.11-6.59-22.27-15.71-25.6,15.68-7.7,31.3-19.25,43.13-36.62C406.83,123.24,350.75,74.45,336.71,67Z"
         id="path1" />
    </clipPath>
  </defs>
  <g
     id="Calque_2"
     data-name="Calque 2">
    <g
       id="Layer_30"
       data-name="Layer 30">
      <path
         class="cls-2"
         d="M206.15,290.05l37.27-18.77,10.36,2.87s15.94,5.64,6,21.29-33.54,33.35-33.54,33.35Z"
         transform="translate(4.35 0.72)"
         id="path2" />
      <path
         class="cls-2"
         d="M283.23,240.5l-12.73,8.68-27.08,31.74S261.58,308.5,288.63,292s17.54-40.13,14.64-42.85S283.23,240.5,283.23,240.5Z"
         transform="translate(4.35 0.72)"
         id="path3" />
      <path
         class="cls-2"
         d="M126.49,204.62S-22.87,239,11.6,312.59,141,362.41,141,362.41s82-32.17,43.66-98.81S126.49,204.62,126.49,204.62Z"
         transform="translate(4.35 0.72)"
         id="path4" />
      <path
         class="cls-2"
         d="M233.06,169.08c-1.63,1.08-51.85-47.34-6.83-86.2s98-22.35,110.48-15.7c14,7.46,70.12,56.25,34.12,109.11s-107.15,51.83-107.95,52.34S233.06,169.08,233.06,169.08Z"
         transform="translate(4.35 0.72)"
         id="path5" />
      <path
         class="cls-2"
         d="M176.31,173.5s-5.25-58.79-35.27-65.9S63.37,81.31,25.61,112.71,9.3,215.21,9.3,215.21s15.09,28.46,80.47,25.92C173.26,237.89,176.31,173.5,176.31,173.5Z"
         transform="translate(4.35 0.72)"
         id="path6" />
      <path
         class="cls-2"
         d="M163.26,163.26c-.77-.76-79.66-49.57-46.73-110.19s98-49.83,98-49.83S295,20,270.5,88.2,200,163.26,198.11,163.26Z"
         transform="translate(4.35 0.72)"
         id="path7" />
      <path
         class="cls-3"
         d="M237.12,282c-4.06,1.07,33.38-4.6,41.8-48.26,8.55-44.38-20.9-75.83-20.9-75.83s-22.55-43.66-82.78-23-51.05,72.29-51.05,72.29-5.36,40.34,33.71,64.07S237.12,282,237.12,282Z"
         transform="translate(4.35 0.72)"
         id="path8" />
      <path
         class="cls-2"
         d="M259.77,295.44c.24-4.22-14.36,20.36-26.71,8.82s-1.71-31.63-18.52-30-42.86-3-56.64,21.19c-13.25,23.22-10,38.06,0,45.24s36,12.31,48.25,10.51S258.24,321.92,259.77,295.44Z"
         transform="translate(4.35 0.72)"
         id="path9" />
      <path
         class="cls-4"
         d="M270.5,282.75s18.37-8.42,6.88-22.21c0,0-25.88,6.38-22.13-19.41S305,210.34,305,210.34s41.66-4.6,38.45,28.16-13.91,33.53-30,44.25-30.17,12.69-30.17,12.69"
         transform="translate(4.35 0.72)"
         id="path10" />
      <g
         class="cls-5"
         id="g36">
        <g
           class="cls-6"
           clip-path="url(#clip-path)"
           id="g35">
          <path
             class="cls-7"
             d="M231.6,281.9c-6.55,4.07-9.27,12.4-5.32,19.35a15.54,15.54,0,0,0,20.66,5.83c6.06-3.38,10-10.37,14.93-15.23s10.68-8.65,16.28-12.9L264.6,265.4c-3.17,5.9-6.67,11.58-9.88,17.46-4.45,8.15,4.37,16.55,12.4,12.41,14.21-7.33,28.25-14.43,41.72-23.13A383.37,383.37,0,0,0,347.71,243L330,232.75a67.7,67.7,0,0,1-46,46.71c-13.82,4-28.13,5.38-41.33,11.45-12.18,5.58-20.67,15.54-29.14,25.54-4.27,5-8.7,10.41-14.31,14-6.43,4.15-13.4,5.45-21,5.48a10.7,10.7,0,0,0-10.52,10.52c0,6.15,4.84,10,10.52,10.52,35.91,3.53,62.81-20.05,86-44.28,9.08-9.51-5.35-24-14.45-14.45-9.82,10.28-19.72,21-31.72,28.73-10.65,6.91-24.12,12.44-37,9.34l-5.6,20.29c17,2.3,32.65-3.63,45-15.4,9.43-9,16.41-21.27,27.7-28.08,12.48-7.52,28-8.2,41.7-12.29a88.07,88.07,0,0,0,36.86-21.69,91.21,91.21,0,0,0,23.59-40.8c2.85-10.73-9.91-16.91-17.68-10.28A437.15,437.15,0,0,1,297,255.42c-12.53,8.64-25.46,17.27-39,24.19l12.4,12.4a76.58,76.58,0,0,1,9.79-14.61c7.86-8.76-1.9-20-12-15.55-7.5,3.27-14.44,9.18-20.31,14.79a82.83,82.83,0,0,0-7.8,8.73c-.29.37-3.71,4.26-3.56,4.54-.47-.84,7.52-1.75,5.44,2.32,3.28-6.42-3.58-14.52-10.33-10.33Z"
             transform="translate(4.35 0.72)"
             id="path11" />
          <path
             class="cls-7"
             d="M277,197.86c3.15,10.77,17.84,11.76,27.13,10.73,11-1.23,21.85-3.93,32.59-6.36,10.42-2.35,19.89-5.14,28-12.42,7.63-6.83,14.44-15.38,20.79-23.37,4.11-5.15,4.58-12.14-1.12-16.54-5.08-3.92-13.05-2.75-16.28,3.11-2.08,3.77-6,7.09-9,10.23s-5.86,6.16-8.86,9.17c-5.77,5.77-11.81,12.77-19.2,16.51s-16,1.38-23.73,1.25c-9.34-.16-18.06,1.82-25.08,8.24-8.12,7.43,2.45,21.29,11.82,15.31,6.91-4.41,15.05-2.92,22.82-2.46,9.39.55,18.51-.69,26.66-5.72,7.45-4.6,13.84-11.1,20.14-17.12q5.28-5,10.36-10.26c2.92-3,5.87-7.55,9.2-10l-13.43-17.41c-6.27,6.61-11.78,13.92-18.06,20.51-5.49,5.75-11.49,7.43-19.08,9.22-8.64,2-17.26,4.27-25.94,6.1-8.43,1.77-17,2.06-25.36,3.48-3.34.56-5.31,4.76-4.42,7.78Z"
             transform="translate(4.35 0.72)"
             id="path12" />
          <path
             class="cls-7"
             d="M165.79,275.76c-12.16,5.42-21.33,15.07-31.89,23s-20.88,15.5-32.39,21.69c-21.29,11.45-46.32,16.84-69.72,9.08-5.69-1.89-12.12,2.18-13.65,7.75-1.72,6.27,2.14,11.47,7.75,13.64a283.3,283.3,0,0,0,86.9,18.59c7.29.4,14.52.41,20.34-4.67,4.76-4.15,7.1-10.19,8.38-16.23a154.67,154.67,0,0,1,5-19.52c1.06-3,2.29-5.95,3.25-9,1.08-3.4,1.49-7.15,3-10.41,3.93-8.67-7.41-15.59-12.87-7.53-11.18,16.52-25.83,31.34-43.71,40.3L112.46,355l-.41.83-4,4q2.25-1.46-1.43,0a29.52,29.52,0,0,1,3.12,0c2,0,3.91.14,5.86.23q6.36.29,12.71.78c8.76.67,17.56,1.39,26.28,2.46,10.72,1.3,14.82-15.72,5.49-20.28-7.51-3.67-11.53-9.64-12.85-17.85l-19,8A208.88,208.88,0,0,0,150.84,361l13.46-13.46c-7.2-6-16.38-8.44-25.15-4.18a22,22,0,0,0-12.25,19.8l17.48-4.74-2.23-4c-4.91-8.75-18.72-2.85-16.11,6.79l1.2,4.41a9.37,9.37,0,0,0,10.29,6.72c4.94-.75,7.58-4.44,8.13-9.21.3-2.66,3.07-4.17,5.18-2.16,8.94,8.55,21.47-4.29,13.46-13.46a178.48,178.48,0,0,1-18.11-24.84c-4.95-8.17-20.54-5.55-19.37,5.24,1.54,14.33,9.34,27.08,22.29,33.88l8.38-19.89c-12.31-1.86-24.54-3.34-37-4-9.91-.51-27.22-2.57-29.48,11.12-1.58,9.59,7.21,17.19,16.33,12.55,10.3-5.24,19-13.87,26.05-22.86,7.3-9.27,12.74-19.4,19.31-29.11l-11.7-9c-4.24,5.06-9.07,9.35-12,15.37a93,93,0,0,0-6.55,18.22c-1.09,4.31-2.53,9.94-3.22,13.65-.12.62-.78,1.68-.28.54s2.34-.39-.76-.44c-3.33-.05-6.68-.31-10-.55a262.61,262.61,0,0,1-76.37-17.91l-5.9,21.39c27.62,9.33,58.27,3.06,83.27-10.69a162.45,162.45,0,0,0,34.58-25.89c10.21-9.94,21.13-20.5,27-33.62a3.64,3.64,0,0,0-4.93-4.94Z"
             transform="translate(4.35 0.72)"
             id="path13" />
          <path
             class="cls-7"
             d="M124.34,219.81c-2.39-.91-3.81-1.64-6.45-1.32s-5,.92-7.54,1.29c-5.35.82-10.65,2-16,2.92-10,1.69-20.07,3-30.28,2.52-16.57-.72-33.48-5.87-45.83-17.32-7.23-6.7-19,1.8-13.85,10.68s13.63,14,22.85,17.9A199.25,199.25,0,0,0,59,246.92c22.06,5.09,46.59,5.42,66.44-6.89l-9.34-12.11c-2.7,2.87-7.08,4.41-10.67,5.93a85.46,85.46,0,0,1-12.65,4,189.26,189.26,0,0,1-27,4.44c-20,2-40.06,3.18-60.06,4.73l7.16,17.29c2.22-2.83,6.3-4.22,9.55-5.68a93.64,93.64,0,0,1,10.75-4c8.32-2.58,17.57-2.77,25.53-6,7.24-3,8.9-14.1,0-16.45-10.38-2.74-22.47.6-32.52,3.76a134.89,134.89,0,0,0-14.73,5.69c-4.62,2.07-9.7,4.31-12.91,8.39-2.57,3.27-3.89,7-2.09,11.06,1.52,3.46,5.23,6.54,9.26,6.23,21.73-1.65,43.6-2.73,65.21-5.64,10.17-1.36,20.33-3.18,30-6.75a90.74,90.74,0,0,0,12.7-5.77c4.49-2.51,7.69-6.11,11.81-9,3.17-2.24,4.74-5.88,3.16-9.63-1.34-3.17-5.55-6-9.1-4.46-17.61,7.35-36.39,8.39-55,4.29a199.9,199.9,0,0,1-27.77-8.59c-6.6-2.51-13.78-5.36-17.15-12L5.78,220.36c14.62,15.07,35.16,22.58,55.91,23.51a122.79,122.79,0,0,0,34.59-3.49,124.61,124.61,0,0,0,16.34-5.2c2.92-1.17,5.82-2.5,8.64-3.87s3.8-3,5.49-5.58c1.53-2.36-.11-5.06-2.41-5.92Z"
             transform="translate(4.35 0.72)"
             id="path14" />
          <path
             class="cls-7"
             d="M226.49,135.19c8.32,5.39,16.69-1.88,22.71-7.38,7.39-6.76,13.87-15,19.57-23.23a194.77,194.77,0,0,0,25.89-53.36l-19.58-2.65c.62,6.59-2.92,12.69-5.5,18.55l-9.93,22.57c-6.54,14.85-12.68,29.86-18.92,44.84-3.35,8,8.94,14.51,14.4,8.38A254.28,254.28,0,0,0,276,116.39c6.26-9.19,11.72-18.88,18.28-27.88a93.89,93.89,0,0,1,19.27-20,60,60,0,0,1,12.28-7.25c4.67-2,9.71-2.71,14.57-4,10.26-2.79,7.47-17-2.41-17.77-10.93-.85-22.78,4.62-31.66,10.6a105.34,105.34,0,0,0-23.8,22.56c-7.26,9.26-13.41,19.24-19.63,29.22s-11.8,20.5-19.95,28.92l13.53,10.44c7.33-15.4,14.68-30.78,21.7-46.33,3.51-7.78,7-15.57,10.54-23.34,3.35-7.36,6.84-14.62,6.29-22.93-.73-11.18-16-13.57-19.58-2.65a207.8,207.8,0,0,1-21.06,45.33,225.28,225.28,0,0,1-14.09,20.44c-4.62,5.88-8.95,11.84-14.66,16.73-2.22,1.89-1.29,5.37.87,6.77Z"
             transform="translate(4.35 0.72)"
             id="path15" />
          <path
             class="cls-7"
             d="M202.35,119.16c-3.36-12.47-3.12-24.69-3.11-37.48,0-5.68-8.27-6.77-9.85-1.33-3.94,13.59-2.16,28.48,1.48,42,2,7.39,13.48,4.25,11.48-3.17Z"
             transform="translate(4.35 0.72)"
             id="path16" />
          <path
             class="cls-7"
             d="M67.09,181.39c9.24,2.75,18.78,3.85,28.16,6.09,9.12,2.17,17.23,6,25.93,9.25,4.57,1.73,6.88-5.09,3.18-7.54-7.74-5.12-17.92-7.76-26.88-9.82-9.78-2.25-19.74-3.73-29.76-2.68-2.57.27-3.37,3.88-.63,4.7Z"
             transform="translate(4.35 0.72)"
             id="path17" />
          <path
             class="cls-7"
             d="M204.59,127.18c-.08-5-1.51-10.45-2.19-15.47-.86-6.33-1.41-12.7-2.12-19-.67-5.91-1.39-11.83-2.51-17.66-1.23-6.37-.68-13.14-2.83-19.27-.86-2.46-3.86-2.24-4.79,0-2.55,6.09-2.15,13.27-3,19.76a101.12,101.12,0,0,0-.34,21.93c.58,7,1.6,13.91,2.77,20.78.85,5.07,2,13.1,8.28,14.12,3.3.54,6.81-1.38,6.74-5.14Z"
             transform="translate(4.35 0.72)"
             id="path18" />
          <path
             class="cls-7"
             d="M270.48,178.8c4.79,1.08,8.72-.08,13.34-1.38s9-2.25,13.56-3.35a115.06,115.06,0,0,1,14.07-3c4.69-.54,9.39-.67,14.06-1.4,3.78-.6,3.56-6.65,0-7.42-9.56-2.06-20.82-1.52-30.5-.27-9.08,1.17-21.26,3-26.94,10.89-1.5,2.07,0,5.39,2.41,5.92Z"
             transform="translate(4.35 0.72)"
             id="path19" />
          <path
             class="cls-7"
             d="M96.67,304.47c9.21-6,20.19-10.31,30.17-14.94a62,62,0,0,1,14.92-4.9c5.53-1.05,11.18-1.32,16.68-2.62,6.82-1.62,5.55-13.44-1.69-12.53-11.21,1.42-22.81,6-32.93,10.95-11.19,5.5-21.79,10.66-30.5,19.69-2.12,2.2.64,6.11,3.35,4.35Z"
             transform="translate(4.35 0.72)"
             id="path20" />
          <path
             class="cls-7"
             d="M225.31,283.41c4.83,6.06,13.76,3.95,19.76,1.21,6.16-2.81,11.23-7.37,15.59-12.47,2.69-3.15,3.36-7.55.65-11-2.34-2.93-7.41-4.69-10.76-2.14-6.82,5.17-13.37,11.18-22.11,12.52-5.87.9-6,8.21-3.13,11.84Z"
             transform="translate(4.35 0.72)"
             id="path21" />
          <path
             class="cls-8"
             d="M10,190.92c-.18-3,1.55-5.84,2.3-8.63.7-2.63,1.2-5.34,1.75-8a105,105,0,0,1,5-16.73A80.74,80.74,0,0,1,36,130.6a64.19,64.19,0,0,1,27.37-17.31,54.1,54.1,0,0,1,18.53-2.39,35.68,35.68,0,0,1,8.45,1.5c1.7.51,3.67,1.68,5.42,1.84,1.15.46,1,.32-.3-.44.9.7,1.8,1.4,2.71,2.09,6.15,4.69,13.78-1.84,14.17-8.13.64-10.21-11.26-15-19.47-16.85a66.94,66.94,0,0,0-27.08-.27c-15.44,2.79-29.85,10.92-41.21,21.61A91.51,91.51,0,0,0,.91,149.62a69.87,69.87,0,0,0-3.38,21.72,41,41,0,0,0,1.18,10.29c.91,3.59,3.46,6.64,4.33,10.24.93,3.85,7.24,3.11,7-1Z"
             transform="translate(4.35 0.72)"
             id="path22" />
          <path
             class="cls-8"
             d="M48.23,138.72c-1.79-.5-2.79.05-1.88-1.9a4.66,4.66,0,0,1,2.78-2.61,48.39,48.39,0,0,1,6.61-2.1c1.08-.29,4.31-.3,5.11-.9-.13.1.52-4.79.79-4.7-.36-.12-3.79,1.31-4.46,1.46a28.31,28.31,0,0,1-6.08.66c-1.24,0-2.5-.16-3.73-.11-2,.07-1.17-1.49.17.16l2.77,4.77c.86,2.29-2.29,4.19.95,2a21.69,21.69,0,0,1,4.79-2.4l1.72-.44-.68,0c-.23-.72-2.12-2.1-2.4-3l0-2.75L53.9,128c-.11,0,.16-.14.28-.11,2.1.56,6.79,3.78,4.33,6.17-1,1-3.08.31-4.09-.1q-4.92-.9.3-6.42c-.57-3.78.34-5.73,2.73-5.83.82-.08.9-.11.22-.07s-.6,0,.23.13c.7.64.2-.05-.72-.36-8.24-2.73-14.47,5.63-13,13,1.25,6.47,8.19,10.73,14.44,10.68A16.12,16.12,0,0,0,74,133.38c4.48-16.57-15.53-27.48-28.56-18.75-11.83,7.92-13.78,26.88-.17,34.08,12.92,6.84,28.14-2.93,31.3-16.28a17.54,17.54,0,0,0-7.45-18.6c-6.18-4.15-13.83-4.12-20.62-1.54-6,2.3-12,5.89-16,11.08-4.89,6.43-5.69,15.6.58,21.57,4.7,4.48,11.79,5.2,18,5,6.52-.25,14.07-1.31,19.73-4.85,11.61-7.25,12.55-23.62-.34-30.17-6.83-3.47-14.25-1.85-21,1-6.19,2.57-12,5.91-14.83,12.31-2.34,5.29-1.36,12.38,4.45,14.88,3.54,1.52,8,2.44,10.24-1.47a2,2,0,0,0-1.14-2.83Z"
             transform="translate(4.35 0.72)"
             id="path23" />
          <path
             class="cls-8"
             d="M131.91,124.61c1.17-7.33-2.51-14.83-4.55-21.73C125,95,123.48,87,124,78.71c.83-13.59,7.45-26.68,17-36.26C151.22,32.07,165,25.87,179.24,23.17c14.82-2.81,31.66-2.71,45.8,3a53.52,53.52,0,0,1,18,12.08,70.16,70.16,0,0,1,6.53,7.67c3.32,4.52,5.11,9.46,11.13,11,3.72,1,9.21-.54,10.89-4.43,2.62-6,1.29-10.27-1.66-15.82a63.48,63.48,0,0,0-8.17-11.75,73.46,73.46,0,0,0-20.7-16.47C223.21-1.1,202.13-2.3,182.46.83c-35.61,5.66-71,30.43-75.24,68.63-1.12,10.19.83,20.82,4.5,30.34,3.39,8.77,8.42,21.64,17.51,25.91,1,.44,2.48.17,2.68-1.1Z"
             transform="translate(4.35 0.72)"
             id="path24" />
          <path
             class="cls-8"
             d="M130.14,77.08a41.53,41.53,0,0,1,5.38-16.37c1.7-2.82,6.76-10.28,10.36-9.85l-4.45-1.2c2.18,1.1-.9,6.83-1.76,8.74a51.41,51.41,0,0,1-3.55,6.47c-.18.29-2.46,3.13-2.44,3.34a7,7,0,0,1,4,2.37q4.37,5,3.92.91c.06-.1.23-1.41.26-1.57a30,30,0,0,1,1.77-6,27.58,27.58,0,0,1,8.23-10.76l-5,2.93-.93,0L140.1,54.5a6.94,6.94,0,0,1-3.24-4.73c.07-1,0-.59-.33,1.09a41.3,41.3,0,0,1-1.43,4.63A25.24,25.24,0,0,1,129,64.43l5.18-3-1.23.36L142,63q3.77,9.27,3.34,4.26c-.28,1.05-.23.86.13-.58-.45,1.56.83-1.7.89-1.81a60.11,60.11,0,0,1,3.88-6.56c2.25-3.21.67-8.43-2.67-10.2-10.77-5.7-21.83,2.24-25,12.91a21.83,21.83,0,0,0,1.5,16.4c3.83,6.79,12.23,9.56,19.15,5.51,4.57-2.67,8.08-8.3,10.5-12.89a52.76,52.76,0,0,0,5.45-15.33c.89-5.06.81-10.24-2-14.75A14.06,14.06,0,0,0,138,35.26c-8.52,5.16-14.55,16.43-17.1,25.73C117.85,72.1,118.54,88,132.84,90c12.23,1.77,20.14-9.71,24.45-19.45,4.44-10,8.33-23.08,0-32.25-10.18-11.17-24.18-2.05-29.64,8.79-5,9.84-7.53,20-5,31,1,4.57,7.07,3,7.55-1Z"
             transform="translate(4.35 0.72)"
             id="path25" />
          <path
             class="cls-8"
             d="M215.47,61.31l-.19,0a7.3,7.3,0,0,0-3.76,1A7.43,7.43,0,0,0,208.85,65a4.11,4.11,0,0,0-.42,1,10.2,10.2,0,0,0-.4,1,2,2,0,0,1-.08.22A7.43,7.43,0,0,0,208,71,7.28,7.28,0,0,0,213,76.06a7.43,7.43,0,0,0,3.86,0,12.25,12.25,0,0,0,2.14-.9,7.43,7.43,0,0,0,2.67-2.67,7.3,7.3,0,0,0,1-3.76l0-.19a5.44,5.44,0,0,0-.63-2.78,5.46,5.46,0,0,0-1.49-2.33l-1.46-1.13a7.32,7.32,0,0,0-3.65-1Z"
             transform="translate(4.35 0.72)"
             id="path26" />
          <path
             class="cls-8"
             d="M49.89,200.59a4.75,4.75,0,0,0,2.49-.56,4.71,4.71,0,0,0,2.09-1.34,7.25,7.25,0,0,0,1.9-4.58l-.23-1.73a6.43,6.43,0,0,0-1.67-2.86l-1.31-1a6.47,6.47,0,0,0-3.27-.88,4.77,4.77,0,0,0-2.5.56,4.77,4.77,0,0,0-2.09,1.34A4.86,4.86,0,0,0,44,191.61a4.77,4.77,0,0,0-.56,2.5l.23,1.72a6.43,6.43,0,0,0,1.67,2.86l1.31,1a6.48,6.48,0,0,0,3.28.88Z"
             transform="translate(4.35 0.72)"
             id="path27" />
          <path
             class="cls-8"
             d="M48.34,294.26C52,290,56.57,287.2,62.25,287.4l-5.85-7.68a7.89,7.89,0,0,1-1.64,2.38c-1.53,1.12.45-.14-1.27.57.68-.08.54-.11-.41-.07.74.08.64,0-.32-.23l5.65,9.95c-.49,1.49-1.8,1.61-3.31,1.36l-6.17-10.87c-.07.49-.4,2.91-.47,2.37q1.45-4.31,8.53-2.2-2.15-1.22,1.54,1.65l1.21,4.46,0-.54c-.21-8.67-11.59-11.71-16.16-4.38-4.73,7.6,1.9,16.94,10.28,16.91,8.8,0,12.31-8.44,12.45-15.92.08-4.9-4.13-8.68-8.84-8.84-8.26-.27-14.17,6-14.93,13.85-.45,4.64,4.09,7.69,8.09,8.08,10,1,19.78-8.44,17.49-18.53-.93-4.11-5.56-5.21-8.91-3.63a38.32,38.32,0,0,0-16.3,14c-2,3.28,2.86,7.24,5.45,4.2Z"
             transform="translate(4.35 0.72)"
             id="path28" />
          <path
             class="cls-8"
             d="M157.37,332.62c3.3-10,7.64-20.12,15-27.81A50.07,50.07,0,0,1,200,290.2c5.63-1,5.28-9.79,0-11-10.38-2.45-21.41-.76-30.09,5.64-7.22,5.31-15.44,15.74-13.3,25.3,1,4.62,7,4.57,9.33,1.22,2-2.8,2.6-6.39,4.3-9.39a24.27,24.27,0,0,1,6.27-7.33A24.94,24.94,0,0,1,197,290.2v-11A60,60,0,0,0,162.53,300a54.72,54.72,0,0,0-9.85,17.22c-1.62,5-3.29,13.5,2.9,16.13a1.25,1.25,0,0,0,1.79-.73Z"
             transform="translate(4.35 0.72)"
             id="path29" />
          <path
             class="cls-8"
             d="M171.86,311.23c2.31-.75,3.77-2.71,5.93-3.66h-3.74a4.57,4.57,0,0,0,2.25.66,6.39,6.39,0,0,0,1.3-.2c.81-.16.27-.28-1.63-.35a3.53,3.53,0,0,1-1.32-4.25c.36-.78.51-.81-.1-.06-.77,1-.34,0,.18,0a9.28,9.28,0,0,0-1.26.75c-1.25.69,1.46-.36.07-.05a5.53,5.53,0,0,1,5.85,2.46l.77,5.9a2.59,2.59,0,0,1-.73,1.31c-.44.5-.44.51,0,0-.36.31-2.59,1.24-1.32.9l-7.71-2a5.67,5.67,0,0,1-1.48-3.81c0,.6,0,.47.07-.37a3.61,3.61,0,0,1,.63-2l-.19.32a5.08,5.08,0,0,1,2-2l1.36-.55c1.67-.11,2.06-.18,1.18-.23l7.28,4.18c1.54,2.76-.24-.56-.52-1.14-2.63-5.4-11.3-5.18-14,0a10.25,10.25,0,0,0-.9,7.63c.81,3.39,4.55,6.43,8.13,6.2a11.42,11.42,0,0,0,10.47-7.82c1.32-3.68.6-8.4-2.26-11.2-9.79-9.56-24.08,8.74-12.68,15.7,7.37,4.5,16.85-2.75,17.11-10.65.15-4.35-2.86-8.48-7.48-8.3-2.91.12-7,2.49-6.89,5.72l1.08-2.62a11.48,11.48,0,0,0-1.83,2.92c-.36.82-.55,1.95-1.31,2.54-1.8,1.38-.9,4.87,1.7,4Z"
             transform="translate(4.35 0.72)"
             id="path30" />
          <path
             class="cls-8"
             d="M261.51,253.73c3.49-2,5.2-6.73,7.74-9.73a34.37,34.37,0,0,1,13.59-9.42,123.86,123.86,0,0,1,16.4-5.18,32.39,32.39,0,0,1,8.3-1.2c3.11,0,5.66.61,8.75-.17,4.18-1.05,4.84-6,2.36-8.93-5.08-6.06-15.3-4.26-22.11-2.75a111.17,111.17,0,0,0-22.12,7.16c-6.52,3-12.65,7.5-16.09,13.94-2.45,4.57-4.41,12.89.91,16.28a2.27,2.27,0,0,0,2.27,0Z"
             transform="translate(4.35 0.72)"
             id="path31" />
          <path
             class="cls-8"
             d="M281.52,242.91a11.29,11.29,0,0,1,1.23-.44c.84-.23-.23-.12.62,0l.44,0c-.51-.07-.5-.06,0,0l-2-1.57a16.27,16.27,0,0,0,1.15,1.45v-8.55c-.23.28-.5.52-.74.79-.5.47-.34.38.46-.28-.47.26-.43.27.14,0s.62-.25.1-.1c1.2-.12,1.51-.17.95-.16s-.25,0,1,.18l-2.37-.32,7.25,5.52c.1,1.47.16,1.82.21,1l-.28,2c.19-.74.05-.43-.43.93a3.53,3.53,0,0,1-1.34,1.42c-.63.44-.71.51-.25.22-1.39.5-1.71.66-.95.48l-2.09.28.31,0-2.1-.28c.77.14.44,0-1-.52l-4-7a2.15,2.15,0,0,1,0,.62l.29-2.17a2.41,2.41,0,0,1-.14.59l.83-2c-.35.72-.07.42.83-.89a3.2,3.2,0,0,1-.47.43l1.7-1.32a3,3,0,0,1-.54.33l2-.86a4.07,4.07,0,0,1-.91.24l2.29-.31h-.31l2.3.31a2,2,0,0,1-.6-.14l2.08.88-.29-.14L285,249.63a29.05,29.05,0,0,0,4.86-2.21,8.82,8.82,0,0,0,3.58-10.93c-1.59-3.75-6.2-6.54-10.32-5.06a28.43,28.43,0,0,0-4.85,2.25,8.75,8.75,0,0,0-4.16,8.7,8.65,8.65,0,0,0,6.25,7.25,11,11,0,0,0,11.08-3.28c3.33-3.91,4.24-10,.31-14-3.67-3.67-10.22-2.9-13.67.69-2.52,2.63-4.14,6.86-2.69,10.43.74,1.81,1.64,3.53,3.46,4.5a8.46,8.46,0,0,0,5.79.75,11,11,0,0,0,5.8-3.55,10.65,10.65,0,0,0,2.95-7.07,6,6,0,0,0-3-5.22,6.33,6.33,0,0,0-6.1,0,1.64,1.64,0,0,0-.58.35c.68-.22.73-.22.15,0-.79.27-1.53.51-2.31.86a18.23,18.23,0,0,0-3,1.69,3.93,3.93,0,0,0-1.59,4.85c.7,1.6,2.77,3,4.59,2.26Z"
             transform="translate(4.35 0.72)"
             id="path32" />
          <path
             class="cls-8"
             d="M309.15,115.58l-.27,1.17-2,2c-1,.32-1.13.4-.49.22a5.09,5.09,0,0,0,2.05-1c-.95.33-1,.39-.25.17a4.22,4.22,0,0,1-3.56-.55q-2.83-3.39-1.61-1.5c-.45-1.27-.57-1.56-.37-.87s.12.39-.23-1.11c.25-2.47.17-2.06-.24,1.25a5.18,5.18,0,0,1,.64-2.83c1-1.22,1.17-1.42.38-.6,1.3-.94,1.47-1.11.49-.51,1.55-.59,1.77-.73.66-.39,5-1.22,10.75,4.73,9.67,9.71.36-1.13.2-.86-.46.82.19-.42.39-.84.6-1.25s.43-.83.66-1.23q1-1.5-.58.56c.73-.53,2.19-1.48-.25,0a7,7,0,0,1-3.47.9c-2.07-.39-2.52-.44-1.36-.16-5-1.59-6.89-7.11-4.54-12-1,2,1.55-1.49.05-.06-.32.36-.65.7-1,1a5.62,5.62,0,0,1,2.75-1.51,7.93,7.93,0,0,1,4,0q7.41,2.52,5.14,13.27a10.53,10.53,0,0,0,1.52-3.39l-2.57,4.41.19-.19c2.84-2.8,3.94-8.26,1.51-11.72-2.93-4.19-7.3-6.46-12.5-5.21a12.68,12.68,0,0,0-9.54,11.82c-.21,9.42,9.13,15.66,17.91,13.58,6.27-1.48,12.54-8.26,13.81-14.54a14.83,14.83,0,0,0-11.26-17.43c-7.66-1.92-14.81,2.31-18.75,8.75-3.38,5.53-5.38,12.88-1.9,18.85,4.36,7.48,14.45,8.35,21.18,3.63,6.29-4.42,10.64-13.09,6.27-20.42-3.74-6.27-11.52-9.83-18.32-6a11,11,0,0,0-5.14,7.3,8.72,8.72,0,0,0,3.16,8.35,4.76,4.76,0,0,0,8-3.31Z"
             transform="translate(4.35 0.72)"
             id="path33" />
          <path
             class="cls-8"
             d="M339,153.67c9.84,0,9.85-15.28,0-15.28s-9.85,15.28,0,15.28Z"
             transform="translate(4.35 0.72)"
             id="path34" />
          <path
             class="cls-8"
             d="M134.75,191.31c1.46-7,6.88-13.84,11.79-18.81,5.76-5.83,13.14-9.68,20.24-13.63s14.4-7.84,22.41-9.79a37.23,37.23,0,0,1,11.37-1c4,.26,7.81,1.62,11.82,1.83,4.68.25,7-6,3.78-9.12-7-6.88-19-6.31-28-4.59-10.22,2-19.66,7-28.66,12.05-8.38,4.68-17,10-23.18,17.45a31.87,31.87,0,0,0-6.3,12.35c-1.3,5-.62,8.45.64,13.3.5,1.95,3.63,2.08,4.06,0Z"
             transform="translate(4.35 0.72)"
             id="path35" />
        </g>
      </g>
      <path
         class="cls-9"
         d="M242.69,281.18s13.89,21.1,35.48,15.37"
         transform="translate(4.35 0.72)"
         id="path36" />
      <path
         class="cls-9"
         d="M44.47,237.63c-28,17.63-48.9,42.57-33.61,75.22,34.47,73.57,129.45,49.82,129.45,49.82a117.18,117.18,0,0,0,26.38-15.57"
         transform="translate(4.35 0.72)"
         id="path37" />
      <path
         class="cls-9"
         d="M274,59.82c28.84-5.11,53.86,3.32,62,7.62,14,7.46,70.12,56.25,34.12,109.1-12,17.58-27.83,29.2-43.69,36.89"
         transform="translate(4.35 0.72)"
         id="path38" />
      <path
         class="cls-9"
         d="M105.68,99.1C79.81,93.59,50.13,92,24.88,113c-37.76,31.4-16.31,102.5-16.31,102.5S23.65,243.93,89,241.39c15.13-.58,27.62-3.18,37.93-7"
         transform="translate(4.35 0.72)"
         id="path39" />
      <path
         class="cls-9"
         d="M109.18,99.87l-3.5-.77"
         transform="translate(4.35 0.72)"
         id="path40" />
      <path
         class="cls-9"
         d="M146.09,151c-21.38-18.36-53.43-55.12-30.29-97.7,32.94-60.61,98-49.83,98-49.83s58.73,12.25,60.57,58.31"
         transform="translate(4.35 0.72)"
         id="path41" />
      <path
         class="cls-9"
         d="M274.37,61.81c.32,7.86-1,16.71-4.6,26.65-8.78,24.39-20.29,40.94-31.56,52.13"
         transform="translate(4.35 0.72)"
         id="path42" />
      <path
         class="cls-9"
         d="M279.74,218c.1-35.75-22.45-59.83-22.45-59.83s-22.55-43.66-82.78-23-51,72.29-51,72.29-5.36,40.34,33.7,64.07a96.38,96.38,0,0,0,19.4,9"
         transform="translate(4.35 0.72)"
         id="path43" />
      <path
         class="cls-9"
         d="M259,295.7c.25-4.22-14.35,20.36-26.71,8.82s-1.71-31.63-18.52-30-42.85-3-56.64,21.19c-13.24,23.22-10,38.06,0,45.24s36,12.31,48.26,10.51S257.5,322.18,259,295.7Z"
         transform="translate(4.35 0.72)"
         id="path44" />
      <path
         class="cls-9"
         d="M269.77,283s18.37-8.42,6.88-22.21c0,0-25.88,6.38-22.13-19.41s49.71-30.79,49.71-30.79,41.66-4.6,38.45,28.16-13.92,33.53-30,44.25-30.18,12.69-30.18,12.69"
         transform="translate(4.35 0.72)"
         id="path45" />
      <path
         class="cls-10"
         d="M225.93,286c4.95,3.35,12.93-.13,17.74-2.42,6.42-3.05,12.38-6.33,16.55-12.16a.85.85,0,0,0-1-1.24c-6.29,2.19-11.37,6.33-17.57,8.73-4.94,1.92-11.88,2.09-16,5.47a1,1,0,0,0,.21,1.62Z"
         transform="translate(4.35 0.72)"
         id="path46" />
      <path
         class="cls-10"
         d="M268.85,263.12,269,263a1.1,1.1,0,0,0,.29-1.1l-.08-.23a1.38,1.38,0,0,0-2.49-.33c-.65,1.21-2.53,1.94-3.63,2.84-1.77,1.46-3.27,3.21-4.93,4.8-1.33,1.28-1.84,2.68-2.73,4-1.2,1.8-2.78,2.27-3.57,4.46a.8.8,0,0,0,.77,1c2.52-.34,3.19-1.82,5.29-3,1.74-1,3-1.38,4.49-3a28.84,28.84,0,0,0,4.29-5.51c.54-1,.71-2.35,1.26-3.3-.56-.32-.58-.41-.06-.28.2,0,.4-.06.6-.1l-1.27-.52.14.21a.94.94,0,0,0,1.47.19Z"
         transform="translate(4.35 0.72)"
         id="path47" />
      <path
         class="cls-10"
         d="M195.11,126.15a256.25,256.25,0,0,1-2.92-32.73C192,83,193.6,72.4,192.84,62a1.6,1.6,0,0,0-3.13-.42c-3.48,10.23-3,22.14-2.47,32.79a156.37,156.37,0,0,0,5.06,32.54c.5,1.86,3.08,1,2.81-.77Z"
         transform="translate(4.35 0.72)"
         id="path57" />
      <path
         class="cls-10"
         d="M121,185.55c-5.57-2-10.48-4.05-16.34-5.24-5.58-1.14-11.26-1.88-16.92-2.59s-11.34-1.39-17-1.56c-5.48-.16-11.22-.9-16.63,0-1.71.29-1.51,2.84,0,3.26,5.38,1.5,11.3,1.46,16.82,2.37s11.3,1.56,16.94,2.46c5.34.86,10.64,1.91,16,2.81,5.64,1,11.11,1.12,16.77,1.79,2,.24,2.12-2.72.44-3.31Z"
         transform="translate(4.35 0.72)"
         id="path58" />
      <path
         class="cls-10"
         d="M277.35,173.7a108,108,0,0,1,22.71-5.91c3.87-.55,7.76-1,11.66-1.3s7.78.15,11.51-.71c2.55-.59,2.16-4,0-4.79-6.77-2.43-16.23-1.25-23.24-.18a107.6,107.6,0,0,0-24.31,6.83c-3.66,1.49-2.16,7.49,1.67,6.06Z"
         transform="translate(4.35 0.72)"
         id="path59" />
      <path
         class="cls-10"
         d="M140.52,270.63c-11,1.42-21,7.4-29.66,14-9.06,6.91-18.47,14.63-24.34,24.59-.58,1,.83,2.15,1.62,1.25,7.39-8.39,14.38-16.9,24.14-22.73,9.3-5.56,19.54-8.56,29.4-12.86,2-.89,1.06-4.57-1.16-4.28Z"
         transform="translate(4.35 0.72)"
         id="path60" />
    </g>
  </g>
</svg>
