<svg xmlns="http://www.w3.org/2000/svg" xmlns:xlink="http://www.w3.org/1999/xlink" viewBox="0 0 231.83 204.89"><defs><style>.cls-1,.cls-10,.cls-11,.cls-12,.cls-9{fill:none;}.cls-2{fill:#79ffa3;}.cls-2,.cls-3,.cls-4{stroke:#231f20;}.cls-10,.cls-11,.cls-2,.cls-3{stroke-linecap:round;stroke-linejoin:round;}.cls-10,.cls-11,.cls-12,.cls-2,.cls-3,.cls-4,.cls-9{stroke-width:5px;}.cls-3{fill:#c690ff;}.cls-4{fill:#fdfc80;}.cls-12,.cls-4,.cls-9{stroke-miterlimit:10;}.cls-5{opacity:0.5;}.cls-6{clip-path:url(#clip-path);}.cls-7{fill:#901a3d;}.cls-8{fill:#e6fff2;}.cls-10,.cls-9{stroke:#1b3328;}.cls-11{stroke:#46123f;}.cls-12{stroke:#76411f;}</style><clipPath id="clip-path" transform="translate(6.48 2.9)"><path class="cls-1" d="M205.36,150.22c-11.94-5.39-26.88,2.2-38.15,10.69,7.32-19,11-43-.34-66.88-7.79-16.42-21.93-24.58-36.75-28.32a29.32,29.32,0,0,0,1.16-3c2.6-8,1.53-16.34-11.26-19.85-27.91-7.66-38,15.82-38,15.82L86.14,46S98.4-9.7,69.53,4.6C46,16.26,53.2,44.88,56.67,55.06,49.32,36.39,41.2,29.51,41.2,29.51S6.48,12.26,7.22,47.76c.73,34.81,32.69,27.32,33.94,27-1.74.44-57.29,14.46-33.94,38.08,27.57,27.9,41.66-6.09,44.9-15.55C49,107.51,38.23,147.76,63.67,142c29.11-6.64,18.38-34.21,18.38-34.21L87,115.38a26.08,26.08,0,0,0,20.21,12.09c7.63.45,18.7-5.68,18.78-19.72.13-21.68-18.49-23.28-27-22.88,2.43-.27,4.8-.59,7-.94a32.25,32.25,0,0,0,17.35-8.57c12,3.14,31.21,12.19,36.44,38.14,3.59,17.78-1,33-7.2,45-4.78-5.23-14-10.11-14-10.11s-29.2-9.25-23.89,15.08c3.47,15.89,14.1,20.36,21.06,21.55a8.84,8.84,0,0,0-.71,1.89c-1.77,8.41,9.73,11.95,9.73,11.95A125.39,125.39,0,0,0,156.82,182c10.51,5.38,25,3.36,34.39,1.1a33.33,33.33,0,0,0,19.48-13C215.25,163.67,217.27,155.59,205.36,150.22Z"/></clipPath></defs><g id="Calque_2" data-name="Calque 2"><g id="Warstwa_13" data-name="Warstwa 13"><path class="cls-2" d="M143.62,185.88S121.5,188.32,116.19,164s23.89-15.07,23.89-15.07,16.84,8.88,16.81,15.52C156.8,181.09,143.62,185.88,143.62,185.88Z" transform="translate(6.48 2.9)"/><path class="cls-2" d="M206.88,150.72c-11.94-5.39-26.88,2.21-38.15,10.7,7.32-19,11-43-.34-66.88C147,49.4,77.7,66.67,77.7,66.67l7.08,6.63,30.08.89s38.67,1.24,46.45,39.81-23,65-24.77,73.44,9.73,11.94,9.73,11.94a125.36,125.36,0,0,0,12.06-16.92c10.52,5.37,25,3.35,34.4,1.1a33.33,33.33,0,0,0,19.48-12.95C216.77,164.17,218.79,156.09,206.88,150.72Z" transform="translate(6.48 2.9)"/><path class="cls-3" d="M59.56,59.23S42.19,19.4,71.05,5.1,87.66,46.46,87.66,46.46L83.57,59.23s10.06-23.49,38-15.83c12.79,3.51,13.86,11.85,11.26,19.85a31.56,31.56,0,0,1-25.28,21.18c-3.47.55-7.31,1-11.18,1.35,0,0,31.31-5.61,31.15,22.47-.08,14-11.15,20.17-18.78,19.73a26.07,26.07,0,0,1-20.21-12.1l-4.93-7.63s10.73,27.58-18.38,34.21-10.81-47-10.81-47-13.87,50-45.64,17.87c-23.72-24,34-38.09,34-38.09s-33.24,8.5-34-27S42.72,30,42.72,30,51.89,37.78,59.56,59.23Z" transform="translate(6.48 2.9)"/><circle class="cls-4" cx="75.96" cy="81.62" r="16.94"/><g class="cls-5"><g class="cls-6"><path class="cls-7" d="M76.14,93.74c-1.35,7.14,6.29,15.24,10.31,20.53,4.32,5.68,9,11.39,15.22,15.07,6.06,3.57,13.5,5.12,20.38,3.26,7.13-1.91,15.91-10,12.61-18.06-1.74-4.25-5.79-6.31-10.13-4.12-3.75,1.91-5.09,6.68-9.72,6.81s-8.42-2.81-11.56-5.77c-3.86-3.62-7.36-7.61-11.23-11.23-3.57-3.35-8.16-8.55-13.44-8.34a2.57,2.57,0,0,0-2.44,1.85Z" transform="translate(6.48 2.9)"/><path class="cls-7" d="M47.92,139.73c4.68,3.91,8.32,5.82,14.63,5.3,6-.49,11.33-4.55,15-9.07,7.73-9.62,12.89-25.39,6.21-36.79-2.32-4-7.81-2.76-9.23,1.21-2.75,7.67-2.81,16-6.93,23.25a20.86,20.86,0,0,1-6.34,7.13c-2.46,1.66-7,4.11-10.12,3.49-2.91-.59-5.92,3.21-3.19,5.48Z" transform="translate(6.48 2.9)"/><path class="cls-7" d="M-.77,108.09c2.27,2.34,4,4.86,6.67,6.75a43.75,43.75,0,0,0,9,4.43c6.26,2.5,12.87,4,19.51,2,11.77-3.46,22.25-15.78,19.94-28.35-.54-3-4.24-3.94-6.6-2.69C40.55,94,37.59,104,29.55,106.38c-3.9,1.14-8.62-.44-12.46-1.29-4.56-1-10.09-1.17-14.39-3-3.47-1.44-5.74,3.61-3.47,6Z" transform="translate(6.48 2.9)"/><path class="cls-7" d="M40.08,67.71c-4.61-.61-9.68-.26-14-2s-8.49-5.09-12-8.41C10.79,54.2,8,50.86,6.4,46.6S5.17,37.91,3.46,33.75A2.82,2.82,0,0,0-.6,32.1C-6.67,35-7.18,42.44-5.92,48.36c1.47,6.88,6,13.11,11.1,17.77s11.16,9.19,17.74,11.05c7.31,2.06,13.5-.09,19.18-4.59,2.21-1.75.09-4.6-2-4.88Z" transform="translate(6.48 2.9)"/><path class="cls-7" d="M96.08,84.09c6-.48,11.71.77,17.72-.86A38.75,38.75,0,0,0,128.72,75c6.62-5.71,20.13-20,14-29.5a6.68,6.68,0,0,0-7.38-3c-4.8,1.5-3.93,5.71-5.71,9.35a54.37,54.37,0,0,1-9.7,13.27c-3.81,3.94-8,7.32-13.19,9.19-2.31.84-4.68,1.42-6.92,2.47-2.83,1.34-3.44,2.36-5.14,4.84a1.65,1.65,0,0,0,1.42,2.47Z" transform="translate(6.48 2.9)"/><path class="cls-7" d="M124.52,74.71c6.66,8.91,6.91,25.4,19.38,28.59a5.88,5.88,0,0,0,6.5-2.64c2.79-5.06,2-10.36-.05-15.55-2-5-4.25-10.91-7.6-15.21-3.13-4-7.82-6.9-13.05-5.13-3.41,1.16-8,6.16-5.18,9.94Z" transform="translate(6.48 2.9)"/><path class="cls-7" d="M135.81,172.71c-6-.32-11.71-5.41-14.92-10s-5.85-13.2-11.78-15a3.73,3.73,0,0,0-4.08,1.66c-2.66,3.73-.91,9.71.7,13.59a38.34,38.34,0,0,0,8.37,12.95c5.78,5.7,18.19,13,25.4,5.72,3.29-3.34.75-8.66-3.69-8.9Z" transform="translate(6.48 2.9)"/><path class="cls-7" d="M143.42,199.73c4.32-1.73,8.26-3.13,12.16-5.77,1.88-1.28,3.62-3,5.63-4s3.07-.89,5.36-.91a103,103,0,0,0,26.92-3.44,55.67,55.67,0,0,0,21.89-11.64c5.68-5,13.49-15.25,8.24-22.92a7,7,0,0,0-7.64-3.11c-6.94,2.1-9.86,11-15.48,15.3-5.9,4.55-13.11,6.62-20.28,8.14-7.67,1.63-15.77,1.76-22.82,5.48-7.69,4.06-13.07,10.85-17.9,17.8-1.64,2.36,1.13,6.21,3.92,5.1Z" transform="translate(6.48 2.9)"/><path class="cls-7" d="M57,69.17C46.34,75.4,55.64,91.34,64.53,94a17.8,17.8,0,0,0,16.29-3.39c3.78-3,8.38-9.3,3.91-13.7a2.34,2.34,0,0,0-2.33-.61c-5.67,2.37-6.84,9.88-14.26,9.52-8-.39-8.92-9.76-9.71-15.83A1,1,0,0,0,57,69.17Z" transform="translate(6.48 2.9)"/><path class="cls-7" d="M66.21,72.77c4.29,0,4.29-6.65,0-6.65s-4.29,6.65,0,6.65Z" transform="translate(6.48 2.9)"/><path class="cls-7" d="M68.51,79.29c3.8,0,3.81-5.91,0-5.91s-3.81,5.91,0,5.91Z" transform="translate(6.48 2.9)"/><path class="cls-7" d="M73.87,72.29a1.32,1.32,0,0,0,0-2.63,1.32,1.32,0,0,0,0,2.63Z" transform="translate(6.48 2.9)"/><path class="cls-8" d="M58,24.6a22.4,22.4,0,0,1,6.93-8c1.89-1.4,6.56-4.56,9.11-4.08.5.09,2.36,2.49,3.06,4.1a20.68,20.68,0,0,1,1.3,8.64c-.09,7.25-3.19,19,3,24.72,7.67,7.06,12.25-5,13.28-10.77,2.46-13.86,2.78-34-12.6-40.71-15-6.56-27.61,10.73-31,23.17C50,25.7,56,28.49,58,24.6Z" transform="translate(6.48 2.9)"/><path class="cls-8" d="M87.59,58.55c5-4.39,13.52-7.51,20.13-8.18a37,37,0,0,1,9.69.24c3.45.58,6.62,2.88,10.06,2.88a5.17,5.17,0,0,0,4.84-3.68l.24-.72A5.88,5.88,0,0,0,131,43.27c-6.47-6.26-18.79-5.88-26.87-3.6a37.31,37.31,0,0,0-12.07,5.75c-3.73,2.76-5.89,6.26-8.38,10.12-1.6,2.47,1.87,4.8,3.9,3Z" transform="translate(6.48 2.9)"/><path class="cls-8" d="M13.44,37.8c3.13-8.6,16.84-.64,21.05,2.71C40.13,45,44.25,51,49.91,55.47a1.66,1.66,0,0,0,2.74-.72c3.2-12-7.14-22.7-17.27-27.48C29.82,24.65,23.54,22.79,17.49,25c-5.35,2-8.11,6.77-7.92,12.29a2,2,0,0,0,3.87.52Z" transform="translate(6.48 2.9)"/><path class="cls-8" d="M5,101.43c6.07-1.19,11-5.08,16.6-7.52a69.78,69.78,0,0,1,19.3-5.3c5.45-.65,5.79-9,0-8.77A57.52,57.52,0,0,0,18.19,85C11.73,87.94,4.87,92,2.54,99A2,2,0,0,0,5,101.43Z" transform="translate(6.48 2.9)"/><path class="cls-8" d="M97.62,92a34,34,0,0,1,17,7.44c3.71,3.19,6.34,10.07,11.07,11.5a2.69,2.69,0,0,0,3-1.2c4.47-6.25-4.64-15.43-9.23-18.77a25.13,25.13,0,0,0-22.48-4.13c-3,.87-2.1,4.81.7,5.16Z" transform="translate(6.48 2.9)"/><path class="cls-8" d="M168.44,168.3c3.36-2.14,7.18-3.63,10.69-5.53a71.66,71.66,0,0,1,10.52-5,32,32,0,0,1,11.36-2c3.87.11,7.4,2.07,11.17.82a4.35,4.35,0,0,0,2.57-6.33c-4.8-7.66-18.88-5-26.07-2.46a54.92,54.92,0,0,0-12.54,6.45c-4.15,2.8-7.26,6.54-11,9.72-2.42,2,.72,6,3.35,4.34Z" transform="translate(6.48 2.9)"/><path class="cls-8" d="M118.53,155.72c3.31-.24,7.83,1.33,11,2.25a21.42,21.42,0,0,1,9.29,5.39c6.35,6.12,15.87-3.38,9.68-9.68a27.92,27.92,0,0,0-15.55-8.1,20,20,0,0,0-8.87.49c-3.13.9-4.45,2.37-7,4.14-2.22,1.52-1.66,5.73,1.49,5.51Z" transform="translate(6.48 2.9)"/></g></g><path class="cls-9" d="M137.51,185.25c-7-1.25-17.41-5.8-20.84-21.51-5.31-24.33,23.89-15.08,23.89-15.08s9.26,4.89,14,10.11" transform="translate(6.48 2.9)"/><path class="cls-9" d="M126.08,75.8c12,3.32,30.59,12.53,35.71,38,7.79,38.57-23,65-24.77,73.44s9.73,11.94,9.73,11.94a124.57,124.57,0,0,0,12.07-16.93c10.51,5.38,25,3.36,34.39,1.1a33.33,33.33,0,0,0,19.48-13c4.56-6.43,6.58-14.51-5.33-19.88s-26.88,2.2-38.15,10.69c7.32-19,11-43-.34-66.88C161.08,77.86,147,69.7,132.14,66" transform="translate(6.48 2.9)"/><line class="cls-10" x1="168.23" y1="172.64" x2="175.2" y2="164.31"/><path class="cls-11" d="M59,59S41.67,19.15,70.53,4.85,87.14,46.21,87.14,46.21L83.05,59s10.06-23.49,38-15.83C133.81,46.66,134.88,55,132.28,63A31.58,31.58,0,0,1,107,84.18c-3.47.54-7.31,1-11.18,1.35,0,0,31.31-5.62,31.15,22.47-.08,14-11.15,20.17-18.78,19.72A26.08,26.08,0,0,1,88,115.63L83.05,108s10.73,27.57-18.38,34.21-10.81-47-10.81-47S40,145.25,8.22,113.1C-15.5,89.1,42.2,75,42.2,75S9,83.52,8.22,48s34-18.25,34-18.25S51.37,37.53,59,59Z" transform="translate(6.48 2.9)"/><circle class="cls-12" cx="75.96" cy="81.37" r="16.94"/></g></g></svg>