<svg xmlns="http://www.w3.org/2000/svg" xmlns:xlink="http://www.w3.org/1999/xlink" viewBox="0 0 254.42 803.9"><defs><style>.cls-1,.cls-10,.cls-11,.cls-9{fill:none;}.cls-2{fill:#40f077;}.cls-2,.cls-3,.cls-4{stroke:#231f20;}.cls-10,.cls-2,.cls-3,.cls-9{stroke-linecap:round;stroke-linejoin:round;}.cls-10,.cls-11,.cls-2,.cls-3,.cls-4,.cls-9{stroke-width:5px;}.cls-3{fill:#889ee9;}.cls-4{fill:#fdfc80;}.cls-11,.cls-4{stroke-miterlimit:10;}.cls-5{opacity:0.46;}.cls-6{clip-path:url(#clip-path);}.cls-7{fill:#901a3d;}.cls-8{fill:#e6fff2;}.cls-9{stroke:#1b3328;}.cls-10{stroke:#2b264d;}.cls-11{stroke:#76411f;}</style><clipPath id="clip-path" transform="translate(2.14 0.63)"><path class="cls-1" d="M190.86,187.89c22.9-8,48.14-22.2,38.65-44.26-7.8-18.11-33.29-5.58-52.82,7.67,35.29-28.53,91.94-80,45-82.78-21.87-1.28-38.2,6.77-50.25,18,7.13-10.93,15.08-23.75,23.44-39.32,28.34-52.76,0-43.41,0-43.41-88.08,7.92-73.61,88.43-95.74,154.7,0,0,42.89-157.34-21.45-90-44.48,46.55-30.39,77.21-17.45,91.7-11.64-8.3-28.78-15.34-34.18,9.73-4.73,22,8.5,30,20.62,32.36-23.36,5.34-59.75,23.82-37.16,70,8.88,18.16,20.43,5.58,29.2-9.86C21.89,303.18-.21,373.31,47.06,374.2c58.26,1.11,45.19-130.1,45.19-130.1,9.25,60.39-10.81,110.24-1.9,126.2C81.54,387,68.19,409.44,48.59,443.14,14.12,502.44,4.93,547.31,2.42,619.69s66.85,172,75.28,175.79,22.21-7.66,22.21-7.66c-33.27-44.47-51.62-82.11-61.72-110.89,7-13.41,21.17-31.49,35.68-51.83,18.17-25.47,57.45-60.17,85-93.11S187.23,393.4,187.23,393.4s-32.17,25.23-105.3,110.25C39.41,553.09,30.15,609.41,29.84,647.89,25,626,26.07,614,26.07,614S18.72,525.1,81.93,425.74a482.42,482.42,0,0,0,28.82-51.56,138.67,138.67,0,0,0,20.57-7.65c36.12-16.13,35.68-54.11,27.76-85.41,11.74,21.79,27.76,37,44.24,8.06,16.34-28.67,3.63-46.74-12.43-57.5,22,6,46.53,5.09,43.83-30.84C233.46,184.11,211,184.28,190.86,187.89ZM145,128.66a115.07,115.07,0,0,0-4.49,15A46.73,46.73,0,0,1,145,128.66Z"/></clipPath></defs><g id="Calque_2" data-name="Calque 2"><g id="Layer_26" data-name="Layer 26"><path class="cls-2" d="M135.35,275.94s10,49.77-53.21,149.13-55.86,188.2-55.86,188.2-5.82,67.41,73.83,173.88c0,0-13.78,11.49-22.21,7.66S.11,691.39,2.62,619,14.33,501.76,48.8,442.47c42.9-73.82,55.91-93.45,56.68-118S135.35,275.94,135.35,275.94Z" transform="translate(2.14 0.63)"/><path class="cls-2" d="M34.23,693.39S9,588,82.14,503,187.43,392.72,187.43,392.72s-.76,105.66-28.34,138.6-66.85,67.63-85,93.1C51.8,655.64,30.4,681.54,34.23,693.39Z" transform="translate(2.14 0.63)"/><path class="cls-2" d="M135.93,488.42S49.56,552.76,38.07,659.23" transform="translate(2.14 0.63)"/><path class="cls-3" d="M99.35,157.85C121.48,91.57,107,11.06,195.09,3.14c0,0,28.34-9.35,0,43.42S143,120.73,140.71,143c0,0,16.09-78.94,81.19-75.11s-69.13,101.42-69.13,101.42,63.76-56.93,76.94-26.31c16.38,38-70.62,52.65-70.62,52.65s73.53-26.12,75.83,4.55c4.8,63.94-76.59,17.14-76.59,17.14s76.74,15.85,45.19,71.21c-32.27,56.62-62.81-55.92-62.81-55.92S198,336.18,131.52,365.85c-76.65,34.23-25.28-32.39-39.06-122.43,0,0,13.07,131.21-45.2,130.11-66.64-1.26,4.6-140.17,4.6-140.17s-25.67,72-42.13,38.3c-30.23-61.84,45.19-74,53.62-71.5s-46,10.39-37.07-30.89c8.42-39.15,45.49,0,45.49,0S13.56,135.18,77.9,67.85,99.35,157.85,99.35,157.85Z" transform="translate(2.14 0.63)"/><path class="cls-4" d="M101.23,232.76c-9.51-.14-16.84-9.19-18.5-22.27C81,196.42,82.34,176.75,99,165.33c11.91-8.16,21-8,27.45-5,9.16,4.14,14,17.51,12.1,32-1.67,12.4-6.25,27.54-18.33,34.61C112.58,231.4,106.24,232.83,101.23,232.76Z" transform="translate(2.14 0.63)"/><g class="cls-5"><g class="cls-6"><path class="cls-7" d="M92.71,386.57c1.73.1-1.38-.27.22.08a15.26,15.26,0,0,0,2.7.27c1,0,2,.08,3,.15,3.91.3,7.66-3.66,7.49-7.49a7.65,7.65,0,0,0-7.49-7.5,15.27,15.27,0,0,0-5.2.7A15,15,0,0,0,88.35,376a6.15,6.15,0,0,0-1.28,6.74,6.29,6.29,0,0,0,5.64,3.79Z" transform="translate(2.14 0.63)"/><path class="cls-7" d="M142.65,252.51c-1.71,22.63-6.26,45.47-10.62,67.72-4,20.46-13.1,42.17-35.13,47.93-8.87,2.32-7.06,16,2.16,16,9.63-.07,17.68-4.33,25-10.34,6.46-5.35,11.91-12.84,20.14-15.56l-7.41-12.73c-5.11,4.24-10.08,8.8-15.4,12.76-6.24,4.63-4.13,13.9,3.94,14.53,23.13,1.84,31.92-30.48,34.47-47.91a114.89,114.89,0,0,0-.06-35.17c-1-6.42-6.35-12.45-13.49-10.49-6.91,1.9-8.82,9.32-5.95,15.21,1.9,3.93,6.65,5,10.52,4.29l.43-.08c10.49-1.89,7.74-18.17-2.47-18.23h-.44l9,6.84-.14-.51v5l.18-.59-6.59,6.59.51-.22-7.31-.95.73.45-3.43-3.43c-.73-1.26.12,1.72.18,2.2.23,1.76.38,3.55.5,5.31q.33,4.89.19,9.78a93.41,93.41,0,0,1-2.59,19.47,87.22,87.22,0,0,1-5.65,17.29c-1.54,3.18-4.49,9.27-8.58,9.57l5.51,13.32c5.32-5,11.14-9.53,16.72-14.24,5.81-4.89-.39-15.1-7.41-12.73-8.27,2.79-14.69,8.1-21,13.94-5.62,5.17-11.81,11.32-20,10.37l2.17,16c26.77-3.6,41.32-31.05,46.18-54.89,2.63-12.91,4.28-26.22,5.63-39.33a114.13,114.13,0,0,0,.7-18.11c-.39-6.88-2.38-13.37-4.37-19.93-1.15-3.81-6.43-2.89-6.72.91Z" transform="translate(2.14 0.63)"/><path class="cls-7" d="M138.37,237.16c.7,4.13.51,8.27,1,12.41a99.09,99.09,0,0,0,2.82,14.18c2.52,8.71,6.53,17.44,14.84,22,5.15,2.83,11.14,3.5,16.54,1,4.36-2,8.34-4.79,12.79-6.69A63.79,63.79,0,0,0,213,258.78L194.59,251c-1.82,7.77-4.18,15.41-6.7,23q-1.81,5.46-3.8,10.85c-.67,1.8-1.34,3.6-2,5.39L181,292.91a2.69,2.69,0,0,1,1.08-2l5.43-1.47c.56-.06.12.45,0,.1-.44-1.27-3.36-3.14-4.35-4.18a56.32,56.32,0,0,1-6.26-7.92l-9.52,16.59c2.68.25,5.33,2.41,8,3a17.77,17.77,0,0,0,12-1.24c7.12-3.62,9.69-12.12,4.48-18.45l2.38,5.74a16,16,0,0,0-1.58-5.84c-2.75-5.85-12.18-4.15-13.62,1.79l.09-.05,7-4a15.09,15.09,0,0,0-3.15.08,24.3,24.3,0,0,0-4.07.65c2.56.25,3.06.18,1.52-.2-3.49-2.33-9-3.19-13.09-3.54-8.16-.69-14,9.95-9.51,16.59,4.73,7,10.42,14.28,17.53,19.06,7.52,5.06,18.18,4.75,23.4-3.42,4-6.32,5.9-14.9,8.11-22,2.67-8.54,4.84-17.2,7.12-25.85,2.37-9-10.3-18.12-16.85-9.81a46.6,46.6,0,0,1-17.73,14.12,108.14,108.14,0,0,0-12.35,6.46l-2.66,1.65a7.87,7.87,0,0,1,2.12-.59,22.82,22.82,0,0,1-2.4-1.51c-3.89-3.33-5.76-10.06-8.21-14.49-3.37-6.11-7.55-11.76-10.73-17.92-2.09-4-7.52-1-6.86,2.88Z" transform="translate(2.14 0.63)"/><path class="cls-7" d="M152.83,215c-.39-.6.45,1.41.68,1.8a8.6,8.6,0,0,0,3.31,2.65c3.07,1.71,6.65,3.32,9.87,4.72a66.53,66.53,0,0,0,27.52,5.5c18-.24,35.71-7.56,44.78-23.86l-19.19-8.09a31.54,31.54,0,0,1-7.45,13.56c-4.21,4.47-9.64,7-14.44,10.68H212.1c-1.32-1-2.63-2.07-4-3-3.27-2.35-9-.74-10.71,2.8-.39.75-.74,1.5-1.06,2.28-2.65,6.06.23,16.07,8.67,15.1,17.6-2,31.06-19.44,35-35.8,2.73-11.19-13.5-19-19.19-8.09-6.17,11.81-19,16.27-31.69,16.53-7.84.16-14.71-2.08-22.32-3.39a14.61,14.61,0,0,0-9.09,1.09,16.27,16.27,0,0,0-2.74,1.61c-.51.39-2.68,2.08-1.21,1.54a1.66,1.66,0,0,0-1,2.41Z" transform="translate(2.14 0.63)"/><path class="cls-7" d="M162,195.7c4.22,0,8.33.45,12.52-.24a87,87,0,0,0,12.7-3.35,171.89,171.89,0,0,0,22-8.79c13.51-6.54,25.72-16.88,29.54-32,.64-2.52.14-6-2-7.74-3-2.39-6.17-3.27-9.64-1.24-3.9,2.28-3.68,6.68-5.29,10.35-3,6.91-9.1,11.85-15.42,15.62-7.17,4.28-15,7.54-22.73,10.61-4.09,1.62-8.26,3-12.31,4.78-3.84,1.64-7.21,4-10.92,5.93-2.93,1.49-1.46,6,1.63,6Z" transform="translate(2.14 0.63)"/><path class="cls-7" d="M159.42,166.17a367.79,367.79,0,0,0,58.68-45.28c8.12-7.66,15.83-15.88,22.06-25.17a87.73,87.73,0,0,0,8.28-16.13c2.51-6.22,6.06-13.83,2-20-2.39-3.62-7.48-5.57-11.42-3-6,3.91-6,10-8,16.29a79.28,79.28,0,0,1-6.62,14.56,110.81,110.81,0,0,1-19.15,24.09c-7.58,7.44-15.76,14.2-23.62,21.34A334.64,334.64,0,0,0,154.64,160c-2.82,3.22.78,8.65,4.78,6.19Z" transform="translate(2.14 0.63)"/><path class="cls-7" d="M90.8,250c-2.39,5-4.75,9.63-6.32,15-1.63,5.6-3.53,11.1-5.43,16.62A191.9,191.9,0,0,1,64.9,313c-5.06,9-10.63,18.21-17.67,25.87-5.88,6.4-13.65,13.08-22.66,14-4.86.5-9.19,3.06-10.56,8-1.21,4.42.72,10.28,5,12.37,10.46,5.08,21.29,9.42,33.11,7.27,10.62-1.92,18.65-9.85,24.39-18.51a109.42,109.42,0,0,0,13.07-28.3A89.24,89.24,0,0,0,93,318c.66-5.65-1.22-11-.9-16.59.4-6.92-10.7-8.49-12.15-1.65-.87,4.06-3.19,7-4.89,10.72A130.3,130.3,0,0,0,70.59,323a139.76,139.76,0,0,1-9.23,21.89c-2.73,5.06-6.39,12.06-12.25,14-6.09,2.07-13.68-2-19-4.54l-5.53,20.41c26.89-2.83,43.89-25.41,55.08-48.1A179.3,179.3,0,0,0,93.3,289.17a136.48,136.48,0,0,0,3.12-19.08,53,53,0,0,0-1.77-19.58c-.42-1.66-3.06-2.17-3.85-.5Z" transform="translate(2.14 0.63)"/><path class="cls-7" d="M86.19,217.59c3.35,6.23,7.88,9.37,15.12,9.93,7.45.58,14.2-2.86,20-7.2,10.9-8.12,24.05-21.63,18.74-36.45-2.63-7.3-12.53-5.83-13.25,1.8a38.62,38.62,0,0,1-9.54,21.91,41.37,41.37,0,0,1-8.58,7.54C107,216.24,105,217.61,103,218a4.76,4.76,0,0,1-2,.16c-.55-.11.94,1.49-.58-.76-4.62-6.82-15.43-2.68-13.45,5.67,1.86,7.84,10.48,11.44,17.87,10.05,6.77-1.28,13-6.11,17.91-10.76,10.13-9.69,15.93-22.95,17.63-36.72l-13.25-1.8c-1.38,9.27-5.67,16-12.75,22.08-5.54,4.74-16.4,12.23-24.07,7.6-2.6-1.58-5.4,1.51-4,4Z" transform="translate(2.14 0.63)"/><path class="cls-7" d="M133.49,184.45c4.46.42,6.11-7.1,4.44-10.15l.44,1.64a4.37,4.37,0,0,0-.56-2.62,2.74,2.74,0,0,0-3.72-1,4.3,4.3,0,0,0-1.75,2l1.16-1.16c-3.17,2-5.51,10.8,0,11.31Z" transform="translate(2.14 0.63)"/><path class="cls-7" d="M87.34,203.44l.39.66a3.26,3.26,0,0,0,5.62,0l.39-.66a3.71,3.71,0,1,0-6.4,0Z" transform="translate(2.14 0.63)"/><path class="cls-7" d="M99.14,204.22a5.89,5.89,0,0,0-.11.8,5.41,5.41,0,0,0,.11.8l.3.71a2.31,2.31,0,0,0,.77.84,2.2,2.2,0,0,0,1,.54l.8.11a2.32,2.32,0,0,0,1.16-.26,2.25,2.25,0,0,0,1-.62A3,3,0,0,0,105,205l-.11-.8a2.27,2.27,0,0,0-.53-1,2.33,2.33,0,0,0-.85-.77l-.71-.3a3.28,3.28,0,0,0-2.31.3l-.61.47a2.94,2.94,0,0,0-.77,1.32Z" transform="translate(2.14 0.63)"/><path class="cls-7" d="M99.19,195.74l.68-.19a2.69,2.69,0,1,0-3.31-3.31l-.19.68a2.31,2.31,0,0,0,2.82,2.82Z" transform="translate(2.14 0.63)"/><path class="cls-7" d="M41.84,676.4a298.3,298.3,0,0,1,35.48-44.58c14-14.42,29.54-27.27,44-41.2,15.16-14.57,29.21-30.41,39.63-48.77,11.31-20,18.79-42,23.76-64.34,2.9-13,4.94-26.16,6.67-39.36.87-6.64,1.63-13.3,2.32-20,.75-7.24,1.93-14.73-2.49-21.08-3.28-4.7-9.7-6.12-14.06-1.81-5.15,5.06-5.84,11.06-6.58,17.91-.66,6.1-1.25,12.2-2,18.29-1.28,10.58-2.9,21.12-5,31.58-4.32,21.85-10.57,43.53-21.15,63.23-19.15,35.69-53,58.93-80.29,88.36-7.66,8.26-14.84,17.07-20.46,26.86a73.31,73.31,0,0,0-9.86,32.18c-.43,5.62,7.28,6.8,10,2.69Z" transform="translate(2.14 0.63)"/><path class="cls-7" d="M46.43,645.87c7.53-24,16.55-48.16,28.51-70.32a343.37,343.37,0,0,1,19.75-31.64c7.11-10.31,16.17-19.6,21.67-30.84a1.09,1.09,0,0,0-1.48-1.48c-11.26,6.05-19.38,17-27.13,27a243.55,243.55,0,0,0-20.86,32.28,269.34,269.34,0,0,0-16.18,35,185.14,185.14,0,0,0-9.61,38.6c-.51,3.44,4.24,5,5.33,1.47Z" transform="translate(2.14 0.63)"/><path class="cls-7" d="M37.06,669.59c-6.79,10.32-6.7,24.26-5.23,36.08a240.32,240.32,0,0,0,6.62,33.84C44.56,761.83,54.69,783,71,799.64c9.78,10,24.3-2.64,18.58-14.33a407.63,407.63,0,0,1-21.78-54.42l-22.92,6.32a232.78,232.78,0,0,0,33.05,58.13c2.68,3.47,7.56,3.58,11.4,3l.81-.12c7.58-1.11,10.53-11.38,7-17.22-3.31-5.48-8.25-6.08-14-5.27l13.24,5.39a203.62,203.62,0,0,1-28.54-50.25c-2.31-6-8-10.12-14.62-8.3-6,1.66-10.24,8.48-8.3,14.62a427.38,427.38,0,0,0,24.27,60l18.58-14.34c-13.43-13.68-21.57-31.37-27.41-49.43-3.06-9.48-5.66-19.13-8-28.82-2.63-11-4.79-20.7-4.09-32,.39-6.31-8.13-7.67-11.18-3Z" transform="translate(2.14 0.63)"/><path class="cls-7" d="M76.25,401.63c5.23.42,10.35-3,14.73-5.48,5.1-2.88,9.9-6.25,15-9.15l-8.07-13.82a155.38,155.38,0,0,0-23.33,16.63c-5.1,4.4-16.8,14.08-11.22,21.89s15.89-3.45,19.93-7.13A164.7,164.7,0,0,1,106,387c8.67-5.5.72-19.27-8.07-13.82S74,386.9,73.18,398.56a3.12,3.12,0,0,0,3.07,3.07Z" transform="translate(2.14 0.63)"/><path class="cls-8" d="M65.3,151c-.88-4.06-.22-8.74-.39-12.89A68.74,68.74,0,0,1,65.46,126c1.17-8.44,3.29-16.49,7.67-23.86,8.9-15,23.91-25,37.27-35.54l-16.67-4.4c2.41,8,4.4,16.11,6.25,24.22a131,131,0,0,0,7.38,22c.83,1.93,3.34,1,4-.52,6.85-16.53,4.88-33.88,1.65-51.05-1.17-6.26-9.53-9.19-14.64-6-17.43,11-35.48,24.56-44.52,43.71-4.4,9.35-7.56,20-7.31,30.42a70.6,70.6,0,0,0,2.23,16.11c1.42,5.34,4.5,9.15,7.15,13.85,3,5.24,10.64,1.61,9.43-4Z" transform="translate(2.14 0.63)"/><path class="cls-8" d="M108.5,144.58c.85-4.43,2.46-8.67,3.21-13.16s1.52-9,2.51-13.52A250.52,250.52,0,0,1,121,93c5.54-16.72,15.18-33,25.39-47.27,4.93-6.9,10.21-13,17.64-17.27,7.23-4.16,15.74-5.74,23.85-7.17,2.15-.38,5.68-.47,6.61-.76,1.76.58,1.57.38-.59-.61-.88-2.53-1.38-3.12-1.48-1.77-.6.28-1.12,6.5-1.29,7.37-1,4.86-2.06,9.71-3,14.58a64.53,64.53,0,0,0-1.25,7.44c-.18,2.32.4,4.54.24,6.83-.23,3.65,4.64,5.34,7,2.92,1.43-1.44,3.31-2.36,4.68-3.89a32.74,32.74,0,0,0,3.64-5.27,83.24,83.24,0,0,0,6.19-13c3.17-8.25,7.47-18.7,2.42-27.06-9-14.84-32.56-7.24-45.19-2.25-8.18,3.24-15.82,7.79-21.07,15a215.66,215.66,0,0,0-13.56,21c-8.42,15-13.89,30.6-18.92,46.94a174.83,174.83,0,0,0-6.13,26.92c-.65,4.62-1.17,9.26-1.52,13.91-.38,5.08.65,9.63,1.15,14.62.14,1.4,2.35,2,2.67.36Z" transform="translate(2.14 0.63)"/><path class="cls-8" d="M148.35,138.19c9-14.38,18.25-29.71,30.81-41.28a62.75,62.75,0,0,1,22.32-13.29c4.71-1.63,9.48-3.06,14.18-4.69s10.45-2.57,12.89-7.34c1-1.9.67-4.89-1.55-5.9-5.11-2.32-9.51-.07-14.53,1.67-5.28,1.83-10.57,3.71-15.74,5.83a77.64,77.64,0,0,0-23.9,15.28c-13.78,13-22.31,29.47-30.31,46.31-1.85,3.88,3.49,7.14,5.83,3.41Z" transform="translate(2.14 0.63)"/><path class="cls-8" d="M59.26,158.84c-4.63-3.18-8.61-6.76-14.55-6.91A17.88,17.88,0,0,0,39.36,153c-2,.55-4.24.21-6.26,1.39-6.84,4-7.85,18-7.39,25,.57,8.7,4.25,17.24,12,21.79,6,3.52,14.23,7.4,21,4.14,4-1.95,4.93-7.55,2.93-11.18-2.18-4-6.36-5.35-10.28-7,1.2.51-1.34-.6-1.32-.59-.5-.22-1-.44-1.51-.68a9,9,0,0,1-2.24-1.18c-2.22-2-2.73-5.86-2.82-8.69a34.65,34.65,0,0,1,.33-5.94,28.44,28.44,0,0,0,.65-4.27c0-1,.43-.89-.12-.13l-4.9,3.77c5.29-1.7,10.88-5.5,17.27-4.48,3.69.59,5.81-3.86,2.57-6.08Z" transform="translate(2.14 0.63)"/><path class="cls-8" d="M58,200.84c-9.67-1.59-18.5-.5-27,4.59a54.71,54.71,0,0,0-20.17,21.14A58.1,58.1,0,0,0,4.11,256c.44,10.45,3,22.93,12.4,28.82,3.84,2.41,9.56-.68,9.29-5.33-.47-8.11-4.5-15.32-5.05-23.49a42,42,0,0,1,3.88-21.4A46.92,46.92,0,0,1,37.89,218.7,89.77,89.77,0,0,1,58,206.63c2.36-1,3.29-5.25,0-5.79Z" transform="translate(2.14 0.63)"/><path class="cls-8" d="M49.35,234.25c-10.94,17.19-18.2,36.63-23.84,56.15a278.36,278.36,0,0,0-6.63,29.13c-1.75,10.06-3.94,20.89-2.17,31.08,1.09,6.25,9.88,5.14,11.57,0,3-9.19,3.25-19.53,5-29s4.05-18.88,6.53-28.21c5-18.87,11.7-37.26,16.46-56.19a3.82,3.82,0,0,0-6.94-2.93Z" transform="translate(2.14 0.63)"/><path class="cls-8" d="M103.18,257.38a.66.66,0,0,0,0-1.32.66.66,0,0,0,0,1.32Z" transform="translate(2.14 0.63)"/><path class="cls-8" d="M98.06,255.46c-2.31,8.91.32,18.66-1.32,27.69s-.93,18.55-1.63,27.79a222.3,222.3,0,0,1-3.83,26.2c-.86,4.38-1.08,8.87-2,13.21s-1.47,8.32.7,12.33a3.16,3.16,0,0,0,4.23,1.11c4.06-2,5.92-6,7.26-10.08,1.38-4.29,3.23-8.16,4.19-12.61a194.9,194.9,0,0,0,3.74-28.26c.65-9.68,1.53-20.23-.57-29.69-2-9,.33-18.86-2.34-27.69-1.22-4-7.3-4.27-8.41,0Z" transform="translate(2.14 0.63)"/><path class="cls-8" d="M155.44,423.64c-6.43,5.73-13.81,10.41-20.34,16.11-6.27,5.46-12.3,11.13-18.21,17A481.09,481.09,0,0,0,82.75,494c-20.29,24.74-37.86,52.22-48.49,82.57a177.87,177.87,0,0,0-6.5,22.9c-1.41,6.88-3.71,16.07-1.37,22.9,2.43,7,9.14,4.75,11.62-.74,3.19-7.06,4.19-15.44,6.26-22.9,8.41-30.31,23.87-57.93,42.35-83.2,11-15,23.35-29,35.94-42.68,6.45-7,13.08-13.84,19.5-20.88,3.31-3.63,6.65-7.25,9.83-11s5.88-7.91,9.32-11.5c3.66-3.82-1.87-9.25-5.77-5.77Z" transform="translate(2.14 0.63)"/><path class="cls-8" d="M54,440.37c-23.45,25.37-38.12,58.68-46.86,91.79A280.76,280.76,0,0,0-.22,636.69c2.24,19,4.88,40.75,16.35,56.62,2.1,2.92,7.36,2.21,7.25-2-.45-16.66-5.92-33-8.41-49.44a270.63,270.63,0,0,1-2.68-50.08,306.86,306.86,0,0,1,20.08-97.57c6.74-17.85,15.64-34.87,24.39-51.79.86-1.68-1.33-3.61-2.73-2.1Z" transform="translate(2.14 0.63)"/></g></g><path class="cls-9" d="M38.81,677.7c10.19,28.6,28.5,65.77,61.25,109.55,0,0-13.79,11.49-22.21,7.66S.05,691.5,2.57,619.12" transform="translate(2.14 0.63)"/><path class="cls-9" d="M109.73,376a486.34,486.34,0,0,1-27.65,49.13C18.87,524.52,26.22,613.38,26.22,613.38s-1,11.22,3.3,31.73" transform="translate(2.14 0.63)"/><path class="cls-9" d="M2.57,619.12c2.51-72.38,11.7-117.26,46.17-176.55,19-32.75,32.19-54.83,41-71.41" transform="translate(2.14 0.63)"/><path class="cls-9" d="M34.18,693.49S9,588.1,82.08,503.08s105.3-110.26,105.3-110.26-.77,105.66-28.34,138.6-66.85,67.63-85,93.1C51.75,655.74,30.35,681.64,34.18,693.49Z" transform="translate(2.14 0.63)"/><path class="cls-9" d="M135.87,488.52S49.51,552.87,38,659.33" transform="translate(2.14 0.63)"/><path class="cls-10" d="M9.68,271.76c-30.23-61.84,45.19-74,53.62-71.5s-46,10.39-37.08-30.88c8.43-39.16,45.5,0,45.5,0S13.51,135.29,77.85,68,99.3,158,99.3,158C121.43,91.67,107,11.17,195,3.24c0,0,28.34-9.34,0,43.42s-52.09,74.17-54.38,96.4c0,0,16.08-78.94,81.19-75.11s-69.13,101.43-69.13,101.43,63.76-56.94,76.94-26.32C246,181.1,159,195.71,159,195.71s73.53-26.11,75.83,4.55c4.8,63.94-76.6,17.14-76.6,17.14s76.75,15.85,45.2,71.21c-32.28,56.62-62.81-55.91-62.81-55.91S197.92,336.28,131.47,366c-76.66,34.22-25.28-32.4-39.07-122.44,0,0,13.07,131.21-45.19,130.11-66.64-1.26,4.6-140.17,4.6-140.17s-25.68,72-42.13,38.3" transform="translate(2.14 0.63)"/><path class="cls-11" d="M101.17,232.86c-9.5-.13-16.84-9.19-18.5-22.27-1.78-14.07-.38-33.74,16.32-45.16,11.91-8.15,21-8,27.45-5,9.16,4.13,14,17.5,12.09,32-1.66,12.4-6.24,27.54-18.32,34.61C112.52,231.51,106.18,232.93,101.17,232.86Z" transform="translate(2.14 0.63)"/></g></g></svg>