<svg xmlns="http://www.w3.org/2000/svg" xmlns:xlink="http://www.w3.org/1999/xlink" viewBox="0 0 94.66 166.34"><defs><style>.cls-1,.cls-5{fill:none;}.cls-2{fill:#79ffa3;stroke:#231f20;stroke-linecap:round;stroke-linejoin:round;}.cls-2,.cls-5{stroke-width:5px;}.cls-3{opacity:0.5;}.cls-4{fill:#901a3d;}.cls-5{stroke:#1b3328;stroke-miterlimit:10;}.cls-6{fill:#fdfc80;}.cls-7{opacity:0.47;}.cls-8{clip-path:url(#clip-path);}.cls-9{fill:#e6fff2;}.cls-10{fill:#634021;}</style><clipPath id="clip-path"><path class="cls-1" d="M48.72,85.09S10.93,81.89,9.91,51.76s19.4-39.83,19.4-39.83S64,1.58,75.27,22.08,81.4,58.4,81.4,58.4,77.31,79.61,61.48,85.09Z"/></clipPath></defs><g id="Calque_2" data-name="Calque 2"><g id="Warstwa_11" data-name="Warstwa 11"><path class="cls-2" d="M14.27,163S-7.41,135.18,8.08,100.4,38.6,61.2,38.6,61.2l4,5.76S25.33,83.32,16,112.52c-3.36,10.57-2.49,29.72,6.5,46C27.1,166.78,14.27,163,14.27,163Z"/><g class="cls-3"><path class="cls-4" d="M27.77,83.66l.15-.31-9.18-2.49v.41c0,.08,0,.16,0,.23a5.44,5.44,0,0,0,.49,2.23,7.4,7.4,0,0,0,.51,1.06l.88,1.14.07.09a4.31,4.31,0,0,0,1.81,1.16,4.49,4.49,0,0,0,.76.31,5.68,5.68,0,0,0,3,0,4.2,4.2,0,0,0,1.89-1,4.21,4.21,0,0,0,1.43-1.56,5.6,5.6,0,0,0,.76-2.8l0-.09a4.23,4.23,0,0,0-.48-2.16,2.73,2.73,0,0,0-.72-1.24,7.16,7.16,0,0,0-.48-.61,8,8,0,0,0-.95-.79,2.7,2.7,0,0,0-1.22-.71,3.15,3.15,0,0,0-.71-.3l-.24,0L25,76.11A3.84,3.84,0,0,0,23,76a3.64,3.64,0,0,0-1.83.59l-1,.77a3.69,3.69,0,0,0-1,1.59,2.43,2.43,0,0,0-.34,1.24,3.84,3.84,0,0,0,.09,2l.5,1.18a5,5,0,0,0,1.77,1.77l.27.19a3.33,3.33,0,0,0,1.72.55A3.5,3.5,0,0,0,25,85.78a4.57,4.57,0,0,0,2.76-2.12Z"/></g><path class="cls-5" d="M14.27,163S-7.41,135.18,8.08,100.4,38.6,61.2,38.6,61.2l4,5.76S25.33,83.32,16,112.52c-3.36,10.57-2.49,29.72,6.5,46C27.1,166.78,14.27,163,14.27,163Z"/><path class="cls-6" d="M49,85.09s-37.79-3.2-38.81-33.33,19.4-39.83,19.4-39.83,34.73-10.35,46,10.15S81.68,58.4,81.68,58.4,77.59,79.61,61.76,85.09Z"/><g class="cls-7"><g class="cls-8"><path class="cls-4" d="M38.17,69.73l-7.3.93-2-3.45c-.3-.88,0,.9,0,1.27a22.59,22.59,0,0,0,.44,3.84l17.11-4.71-.33-1v5l-3.25,3.25,1-.49L39.22,75.6l1.46.11-4.62-1.25c-.51-.8-.41-.59.31.64A20.9,20.9,0,0,0,38.49,78a12.37,12.37,0,0,0,6,3.52,11.75,11.75,0,0,0,8.16-1.11c.94-.63,1.84-1.31,2.72-2,1.51-1.28,1-1.47-1.51-.56l-4.26-3.28.51,1.13-.78-5.94-.3,1C45.84,82.15,64.5,85.47,65.47,73a6.27,6.27,0,0,1,2.47-4.49H58.45l.73.53L54.85,63.4l.16,1,1-7.3-.44.86,5.66-4.35-.9.33h5l.48.17,3.4,3.41-.65-1.33,1.29,4.79c-.2-2.08-1-1.07.88-1.91l-4.81,1.3h1.14l-6.74-2.8.84.8-2.8-6.75-.13,1,12.08-9.21-1.12-.21,4.21,2.46.16.14,1,7.37.18-1.09-2.45,4.21.63-.61-4.2,2.45.87-.19h-5l-.69-.24L59.5,52.06l.25.82,2.42-9.15c1.52-1.22-1.19,1-1.56,1.49A7.67,7.67,0,0,0,59,49.68C58.85,52.6,60.2,55,62.17,57c6.74,7,17.78-.28,15.71-9.15-1.94-8.29-12.71-11.31-18.79-5.38-6.44,6.27-2.59,17.77,6.15,19.32,6.64,1.18,11.3-2.67,12.08-9.2C78.45,43.16,67.24,38.87,60,43.07a19.33,19.33,0,0,0-9.24,17.11c.31,8,7.52,14.19,15.43,11.65,9.08-2.91,9.41-14.9,1.72-19.54-3.89-2.34-8.12-1.16-11.39,1.47C49.83,59.17,47.8,67,49.08,75.22L63,67.1c-2.58-2.56-8-4.83-11.67-3-1.51.1-1.77.18-.76.25,2.06,1.73,2.47,1.81,1.25.24-.69-2-3.44-4.27-5.17-5.34C36.58,53,24,63.85,30.17,74.44c5.84,9.93,21.79.37,15.32-9-1.66-2.4-2.27-5.29-5.15-7.11A8.77,8.77,0,0,0,30.2,59a8.92,8.92,0,0,0-2.93,8.95c1,3.85,3.78,4.37,7,5.73,2.55,1.08,5.34-1.19,3.91-3.91Z"/><path class="cls-4" d="M54.46,54.89l.2-.88-1.14,2,.65-.6-8.86-6.83a8.65,8.65,0,0,0-.8,1.78c-.21.58-.22.62,0,.13.41-.9-.52.75-.64.92l4.6-3.54-.23.09,9.23,3.75-.79-1q-2-2.65,1.1,2.05v4.52l-.66,1.46-15.68-2a12.27,12.27,0,0,1,.77,2.85l-.32-2.38c0,.5.06,1,.06,1.47l15.61-6.46,1.15,1.44L60,58.19l0-.25-.33,2.45,0-.25-.93,2.21A1.13,1.13,0,0,1,59,61.9l-1.46,1.88.21-.16L53.6,66l.23-.09-2.5.34h.26l-8.12-4.66c.32.59.63,1.19,1,1.75,2.73,4.16,8.54,6.31,13,3.42,4.21-2.71,6.28-8.54,3.42-13-.36-.57-.79-1.1-1.2-1.64a10.8,10.8,0,0,0-4.49-3.84,10.25,10.25,0,0,0-6.13-.48c-3.52.59-6.51,4.06-7.31,7.41a10.31,10.31,0,0,0,4.69,11.26,9.15,9.15,0,0,0,10.15-.72,9.28,9.28,0,0,0,3.28-9.61,19.86,19.86,0,0,0-4.13-7.85C54,46,50.08,45.35,47.42,46.08a8.63,8.63,0,0,0-6,6,9.62,9.62,0,0,0,2.27,9.17c2.25,2.22,5.75,3.68,8.88,2.44C55.31,62.59,57.47,61,58.29,58A8.11,8.11,0,0,0,56.19,50c.25.22,1,1.5.57.51a7.31,7.31,0,0,0-.69-1.05,9.45,9.45,0,0,0-3-3c-2.58-1.43-6.27-.72-7.72,2-1.35,2.55-.79,6.31,2,7.71l.81.41-1.59-1.59.45.79c1.68,3,6.66,2.47,7.45-1Z"/><path class="cls-9" d="M17.36,33.86a3.17,3.17,0,0,1-.17.69l.92-2.18a4.87,4.87,0,0,1-.54.94l1.49-1.93a3.14,3.14,0,0,1-.52.51l2-1.54a3,3,0,0,1-.61.38l2.42-1a3.18,3.18,0,0,1-.68.22l11.72,4.77c-.28-.57-.6-1.11-.86-1.69l1.07,2.55a8.09,8.09,0,0,1-.47-1.8l.39,2.88a4.51,4.51,0,0,1,0-.9l-.39,2.91a5.28,5.28,0,0,1,.33-1.24l-1.12,2.65a3.24,3.24,0,0,1,.41-.63L31,41.7c.75-.94,1.48-1.9,2.22-2.85l-1.75,2.26a3.78,3.78,0,0,1,.54-.52l-2.24,1.74c.94-.71,1.91-1.41,2.79-2.18a10.65,10.65,0,0,0,2.81-4.82,10.79,10.79,0,0,0-.55-7.11c-1.58-3.74-5.69-7-10-6.72a14.13,14.13,0,0,0-9.43,4.08,13.7,13.7,0,0,0-3.8,9.25,15.89,15.89,0,0,0,1.85,7.72,14,14,0,0,0,3.63,4.73A10.33,10.33,0,0,0,21.66,50a8,8,0,0,0,4.14.19,10.47,10.47,0,0,0,7.58-5,13.11,13.11,0,0,0,.22-13.45,8.88,8.88,0,0,0-8.85-4.24c-3.24.44-6.73,2.94-7.39,6.37Z"/><path class="cls-9" d="M38.8,25.53c0-.11,0-.14,0-.08H30c1.13,1.41,2.72,1.94,4.34,2.56l-5.83-5.84q.48,3.25.64-5.2l3.55-3.55-.37.24,5.09-1.38,1.7.27,4.55,2.66a7,7,0,0,1,1.57,6.7l-2.7,4.63.36-.43L38.3,28.82l-3.91.06-4.67-2.72q-2.17-8-2.13-4.21a10.82,10.82,0,0,0,7.87,10.34c5,1.14,9.18-.91,12.11-4.93l-4.44,3.4-1.6.16-3.62-1q-1.81-1.39.25.19a11.53,11.53,0,0,0,7.92,2.69c4.55-.39,9.19-3,10.29-7.83,1-4.28-.53-10.06-4.9-12-1.88-.85,2.35,2.12-.85-.36a21.22,21.22,0,0,0-2.07-1.49,13.88,13.88,0,0,0-7.35-1.8,14.7,14.7,0,0,0-12.15,7.25L49,22c-.19-3.82-1.08-7.6-3.87-10.39A12.59,12.59,0,0,0,33.23,8.32C24.66,10.68,22.69,20.5,27,27.38a11.57,11.57,0,0,0,12.78,5.09A11.08,11.08,0,0,0,47.63,22a10.84,10.84,0,0,0-5.41-9.44,10.55,10.55,0,0,0-5-1.3,8.89,8.89,0,0,0-4.5,1.22Q29.49,15,31.9,13c-2.28,1.18-4.32,4.36-4,7,.16,1.38.15,2.73.33,4.1.78,6,8.33,7.37,10.59,1.44Z"/><path class="cls-9" d="M58.25,27.94a1.34,1.34,0,0,1,.2-.21l-1.74,1.35a1.23,1.23,0,0,1,.25-.14l-2.06.87.27-.06-2.29.31h.29l-2.29-.31a2.28,2.28,0,0,1,.45.11L49.27,29a2.32,2.32,0,0,1,.41.22l-4.27-7.44a10.49,10.49,0,0,0,1.36,4.95l-.9-2.13a2.79,2.79,0,0,1,.14.57l-.33-2.39a3.64,3.64,0,0,1,0,.66L46,21a5.85,5.85,0,0,1-.37,1.3l4.29-5.58-.13.09a11.55,11.55,0,0,0-3.41,3.41,7,7,0,0,0-1.12,3.53,4.69,4.69,0,0,0,0,2.52,4.72,4.72,0,0,0,.64,2.4,4.86,4.86,0,0,0,1.22,2.09,4.8,4.8,0,0,0,1.71,1.7A7.07,7.07,0,0,0,52,34.16l2.53.34,2.52-.34,2.27-1,1.92-1.48,1.48-1.92a7,7,0,0,0,1.13-3.53,4.69,4.69,0,0,0,0-2.52,7,7,0,0,0-1.13-3.53l-.08-.15L64,24.78a10.65,10.65,0,0,0,0-1.13,11.35,11.35,0,0,0-1-4.35,10.24,10.24,0,0,0-2.21-3.44,10.89,10.89,0,0,0-2-1.54l-2.11-.89a5,5,0,0,0-2.6-.29l4.36,1.18a4,4,0,0,0-.35-.2,15,15,0,0,0-2.2-.92l-.37-.09A14.23,14.23,0,0,0,53,12.8a10.3,10.3,0,0,0-4.7,1.25,7.6,7.6,0,0,0-2.2,1.7,6.46,6.46,0,0,0-1.78,2.77,6.45,6.45,0,0,0-.74,3.32,8.62,8.62,0,0,0,8.62,8.63c2.17-.1,4.65-.8,6.1-2.53Z"/></g></g><path class="cls-10" d="M49.43,24.54c1.42-3.27,2.55-6.84,4.2-10,1.73-3.29,4.25-6,6.07-9.27C61,2.93,58.75-1,55.81.23,47.23,3.78,41.89,15,44.47,23.89c.58,2,4,2.91,5,.65Z"/><path class="cls-10" d="M69.36,34.85a45.3,45.3,0,0,1,11.1-5c3.81-1.06,7.76-.7,11.53-1.74,2.86-.79,3.83-5.33.88-6.73-9.52-4.51-21.7,1.76-27.42,9.52-1.75,2.37,1.6,5.31,3.91,3.91Z"/><path class="cls-10" d="M70.37,58.14A69.64,69.64,0,0,1,80.9,66.38c3,2.78,5,7,8.93,8.52,2.17.81,4-1.25,4.2-3.2.34-4.73-4.89-9.17-8.23-11.92-4.22-3.47-8.39-5-13.62-5.93-2.53-.47-4.19,2.85-1.81,4.29Z"/><path class="cls-10" d="M53,76.33c1,4.17,2.39,8.16,2.47,12.5.07,4-.84,7.65-.19,11.66.29,1.8,2.83,2.7,4.27,1.73,9.61-6.41,6.28-23.27-2-29.38-2.32-1.71-5.1,1.1-4.54,3.49Z"/><path class="cls-10" d="M24.48,58.91c-5.6-.17-10.34.6-15.27,3.51C5.16,64.81.8,68.48,1.31,73.61a1.62,1.62,0,0,0,2,1.54c4-.63,6.71-3.55,10-5.72A44.51,44.51,0,0,1,25.12,63.7a2.45,2.45,0,0,0-.64-4.79Z"/><path class="cls-10" d="M7.7,17.53a106,106,0,0,1,11.2,8.8c3,2.88,5.69,7.29,9.29,9.36a2.65,2.65,0,0,0,3.95-2.27c-.14-5-4.72-9.89-8.31-12.91-4.46-3.77-8.7-6.06-14.46-6.92A2.17,2.17,0,0,0,7.7,17.53Z"/></g></g></svg>