<svg xmlns="http://www.w3.org/2000/svg" xmlns:xlink="http://www.w3.org/1999/xlink" viewBox="0 0 143.37 185.71"><defs><style>.cls-1,.cls-8,.cls-9{fill:none;}.cls-2{fill:#79ffa3;}.cls-2,.cls-3,.cls-8,.cls-9{stroke:#231f20;stroke-width:5px;}.cls-2,.cls-8{stroke-miterlimit:10;}.cls-3{fill:#ff90a2;}.cls-3,.cls-9{stroke-linecap:round;stroke-linejoin:round;}.cls-4{opacity:0.44;}.cls-5{clip-path:url(#clip-path);}.cls-6{fill:#901a3d;}.cls-7{fill:#e6fff2;}</style><clipPath id="clip-path" transform="translate(0.04)"><path class="cls-1" d="M110.91,131.74a30,30,0,0,0-18.24,2c10.25-24.15,5.75-44.72-1.48-58.9C96,68.19,101.82,57.7,102.36,45.31,103.2,26,96.74,5.13,78.87,2.66c-10.18-1.41-18.81,6.93-19.4,7.52C55,6.55,47,2.34,35.55,4.88,16.92,9,22.62,26.93,22.62,26.93l7.53,2.67L28,31.38C11.08,25,2.79,41.74,2.79,41.74S-.79,75.44,29.34,90.25c22,10.81,41.3,1.81,50.13-3.84,6.83,10.87,11.2,26.51-.42,45.33-22.12,35.84-46.45,38-46.45,38s0,9.29,7.52,12.39c3.52,1.44,11.38-1.36,20.29-7.78,6.23,2.52,18.43,6.48,31.92,5.56,19.46-1.32,44.23-26.54,44.23-26.54S135.24,137.05,110.91,131.74Z"/></clipPath></defs><g id="Calque_2" data-name="Calque 2"><g id="Warstwa_9" data-name="Warstwa 9"><path class="cls-2" d="M110.75,132.4a30.06,30.06,0,0,0-18.24,2c11.55-27.21,4.39-49.88-4.32-64-9.29-15-23.45,0-23.45,0,.45,1.77,36.28,26.1,14.16,61.93s-46.45,38-46.45,38,0,9.29,7.52,12.39c3.51,1.44,11.37-1.36,20.28-7.78,6.23,2.52,18.44,6.48,31.92,5.57,19.47-1.33,44.24-26.55,44.24-26.55S135.08,137.71,110.75,132.4Z" transform="translate(0.04)"/><polygon class="cls-3" points="53.31 10.86 26.48 33.22 53.31 75.86 78.37 44.43 53.31 10.86"/><path class="cls-3" d="M59.28,10.88s8.89-9,19.44-7.56C96.59,5.79,103.05,26.67,102.21,46c-.94,21.53-17.78,37.37-17.78,37.37s-25.12,22.38-55.25,7.57S2.63,42.4,2.63,42.4s11.24-22.65,34.21-5.2c0,0,15.83,10.17,18.9,18.92" transform="translate(0.04)"/><path class="cls-3" d="M22.47,27.59s-5.7-17.91,12.92-22,28.17,9.64,28.17,9.64S77.15,29.6,71.68,45" transform="translate(0.04)"/><g class="cls-4"><g class="cls-5"><path class="cls-6" d="M2.49,40.42c-11.07,27.11,16.39,50.92,41,54.15,13.93,1.83,27.82-1.77,40-8.48C94,80.34,112.59,67.42,107.09,53.18c-1.18-3.06-5.21-5.91-8.47-3.45C90.36,56,83.44,63.63,74.37,68.87a53,53,0,0,1-28.21,7.38,42.64,42.64,0,0,1-24.37-8.66C13.07,60.65,8.51,50.89,5.56,40.42a1.61,1.61,0,0,0-3.07,0Z" transform="translate(0.04)"/><path class="cls-6" d="M24,9c-12,15.19,8.8,32.41,22.38,36.51,1.47.44,2.18-1.34,1.37-2.35C40.27,33.87,27.74,24,28.77,11,29,8.72,25.47,7.15,24,9Z" transform="translate(0.04)"/><path class="cls-6" d="M73.7,93.37c4.14,4.52,11.89,3,17.19,2.2,6-.9,12.22-3.07,15.06-9,2.65-5.5,1.07-12-4.89-14.49S89.48,73,87.28,78.74a4.28,4.28,0,0,1,2.4-3.15,30.73,30.73,0,0,0-3.93,1.53c-1.73.77-3.43,1.58-5.08,2.49-3.35,1.83-6.58,4.61-7.81,7.24a5.63,5.63,0,0,0,.84,6.52Z" transform="translate(0.04)"/><path class="cls-6" d="M61.68,178.16c6.83,5,16.18,5.67,24.42,5.18a76.49,76.49,0,0,0,25.1-6.21c13.7-5.77,39.06-21.63,30.36-39.57-2-4.05-8.09-5.46-11.76-3.08-5.6,3.63-8.33,9.89-13.21,14.35a69,69,0,0,1-16.06,10.51c-5.82,2.88-12.14,4.54-18.43,6-6.45,1.51-13,1.75-19.28,4.08-4,1.51-4.53,6.23-1.14,8.72Z" transform="translate(0.04)"/><path class="cls-7" d="M32.29,11.28c9-.7,15,6,20.92,11.78,2.65,2.63,5,5.42,7.39,8.28,2.07,2.48,4.29,6.24,7.29,7.57a2.62,2.62,0,0,0,3-.39c3.57-3.31,2.32-9.71.63-13.69-2.18-5.16-6.47-9.31-10.82-12.71C52.43,5.65,41,1.34,31.06,6.74c-2.06,1.11-1.21,4.73,1.23,4.54Z" transform="translate(0.04)"/><path class="cls-7" d="M7.83,42.43c3.33.29,6.85-.11,10.14.51,3.68.68,6.92,2.75,10.07,4.66C31.55,49.72,35,52,38.51,54.05s7.15,4.55,11.32,4.25c2.54-.18,5.39-2.72,4.24-5.58-2-5-6.61-7.5-11-10.36C38.3,39.23,33.46,36,28.21,33.63c-7.83-3.45-19.72-5.09-23.5,4.71-.82,2.13,1.23,3.93,3.12,4.09Z" transform="translate(0.04)"/><path class="cls-7" d="M68.76,9.1A38,38,0,0,1,85.45,21.55c3.93,5.48,5,13.32,11.43,16.26a2.83,2.83,0,0,0,3.72-1c5.4-7.78-2-19.4-7.49-25.46C86.5,4.07,78.15.75,68.76,4.22a2.55,2.55,0,0,0,0,4.88Z" transform="translate(0.04)"/><path class="cls-7" d="M80.58,151.57c3.24-1,6.74-1,10-2.16s6.66-2.21,10.12-3c7-1.6,13.84-1,20.83-2,6.45-.92,4.71-9.58,0-11.41-7.55-2.93-17.57-1.47-25.18.72a44.49,44.49,0,0,0-11.25,4.77c-3.54,2.23-5.08,5-7.48,8.07-1.68,2.18-.24,6,2.92,5Z" transform="translate(0.04)"/></g></g><path class="cls-8" d="M79.47,86.4c6.83,10.88,11.2,26.52-.42,45.34-22.12,35.84-46.45,38-46.45,38s0,9.29,7.52,12.39c3.52,1.44,11.38-1.36,20.29-7.78,6.23,2.52,18.43,6.48,31.92,5.56,19.46-1.32,44.23-26.54,44.23-26.54s-1.32-16.37-25.65-21.68a30,30,0,0,0-18.24,2c9.61-22.66,6.25-42.17-.17-56.21" transform="translate(0.04)"/><line class="cls-9" x1="69.65" y1="156.74" x2="92.55" y2="134.45"/><path class="cls-9" d="M59.43,10.21s8.89-9,19.44-7.55C96.74,5.13,103.2,26,102.36,45.31c-.94,21.53-17.78,37.37-17.78,37.37s-25.11,22.38-55.24,7.57S2.79,41.74,2.79,41.74,14,19.09,37,36.54c0,0,15.83,10.17,18.89,18.92" transform="translate(0.04)"/><path class="cls-9" d="M22.62,26.93S16.92,9,35.55,4.88s28.16,9.64,28.16,9.64S77.3,28.93,71.83,44.34" transform="translate(0.04)"/></g></g></svg>