<svg xmlns="http://www.w3.org/2000/svg" xmlns:xlink="http://www.w3.org/1999/xlink" viewBox="0 0 251.58 682.58"><defs><style>.cls-1,.cls-10,.cls-11{fill:none;}.cls-2{fill:#40f077;}.cls-2,.cls-3,.cls-4,.cls-5{stroke:#231f20;}.cls-10,.cls-11,.cls-2,.cls-5{stroke-linecap:round;stroke-linejoin:round;}.cls-10,.cls-11,.cls-2,.cls-3,.cls-4,.cls-5{stroke-width:5px;}.cls-3{fill:#f89d36;}.cls-3,.cls-4{stroke-miterlimit:10;}.cls-4,.cls-5{fill:#ffd062;}.cls-6{opacity:0.47;}.cls-7{clip-path:url(#clip-path);}.cls-8{fill:#901a3d;}.cls-9{fill:#e6fff2;}.cls-10{stroke:#1b3328;}.cls-11{stroke:#601b15;}.cls-12{fill:#231f20;}</style><clipPath id="clip-path"><path class="cls-1" d="M241.67,210.53c-8.55-16.94-22.12-25.46-26.44-25-7.66.76-22.21,59-24.51,95.94-1.48,23.85-22.72,54.22-37.61,72.78,9.26-27.8,16.85-53.13,19.38-64.83a112.4,112.4,0,0,0-9.85-74.76,124.37,124.37,0,0,0-14.47-22.14c13.3-12.73,14.06-31.51,12-45.93,7.73-1.5,16.53-3.88,14.9-6.6a2.13,2.13,0,0,0-.26-.49c-1.85-2.36-6.22-2.69-10.09-2.45q.87-1,1.65-2c12.37-5.69,20.63-13.27,18.74-16.41a2,2,0,0,0-.54-.77c-2.17-1.9-7.78-.57-12.23.94,1.82-16.22,10-32-.85-52.39a67.72,67.72,0,0,0-8.75-12.6C139,26.21,118.15,7.06,84.93,12.42l.24.28-.1,0s.49.53,1.29,1.56C68.28,9.4,22.16-2.46,26.31,4.8a4,4,0,0,0,.64,1,6.31,6.31,0,0,1,.77,1.12c3.84,7.58,1.53,28.85-1.44,46.93C19.72,62.2,14.56,72.05,10.66,81.19,1.42,102.87.28,127.27,8.4,149.4a78.94,78.94,0,0,0,4.24,9.65c7.39,14.29,17.29,21.56,27.28,24.88-6,2.13-6.22,4.64-6.22,4.64l.19.1a.67.67,0,0,0,0,.19c20.24,11,40.32,8.57,49.61,5.38,10.2,8.85,27.85,17.31,49.15,8.18a96.79,96.79,0,0,1,12.83,19.32c9.25,18.54,15.58,45.78,6.61,82.66-6.81,28-18,57.74-29.26,86.8-.89-6.23-1.23-15.14-.09-27.7,1.83-20.13-1-34.68-7.8-48.27-4.6-9.26-11.06-18.06-19.16-27.87-16.62-20.11-85.68-26.46-73.67-3,2.11,4.33,7,9.7,15.58,16.2,41.6,31.57,69.35,79.95,80.07,100.91.21.4.41.8.6,1.18-18.9,48.48-36.57,94.1-32.91,125.22,4.51,38.3,13.57,86.54,31.15,121,6.36,12.51,13.83,23.22,22.62,31,0,0,15.4-13.12,13.17-16.23a1.06,1.06,0,0,0-.3-.48c-1.72-1.53-9.18-9-18.55-27.25-7.27-14.24-15.67-35-23.43-64.49a194,194,0,0,1-6.36-40.32c13.41-17,46.14-29.1,47.33-32.27,1-2.78,9.41-13.91,6-20.14-1.51-3.15-5.84-5.16-15.33-4.39-15.84,1.29-29,19-37.62,34.37,2.19-27.18,10.51-52.87,22.07-80.8,5.32-12.82,11-28,16.63-43.67,14.88-2.15,46.86-23.68,57.28-30.61,11.49-7.65,32.17-36,46-88.58C252.07,241.88,248.37,223.65,241.67,210.53Z"/></clipPath></defs><g id="Calque_2" data-name="Calque 2"><g id="Layer_28" data-name="Layer 28"><path class="cls-2" d="M122.09,412S91.39,342.06,37,300.82s38.59-36.7,58.24-12.92C115.2,312,125.15,330,122.09,363.74s4.6,41.12,4.6,41.12"/><path class="cls-2" d="M120.18,191.4s50.56,34.8,31.41,113.53S78.82,476.34,85,528.42,105.63,651,138.57,680.08c0,0,16.08-13.69,13-16.42s-24.3-24.2-42.13-92c-14.18-53.93-3.85-95.41,16.09-143.55C143.79,384,167.05,312,171.88,289.65c5.16-23.88,5.36-65.31-30.25-103.61C105.85,147.56,120.18,191.4,120.18,191.4Z"/><path class="cls-2" d="M138.17,371.62S188,319,190.26,282s16.85-95.18,24.51-96,44.43,26.61,30.64,79.18-34.47,80.93-46,88.58-49.19,33-61.28,30.62"/><path class="cls-2" d="M93,532s19.92-54.88,48.26-57.17S152,494.93,150.43,499,94.51,522.16,97.58,547.5"/><path class="cls-3" d="M42.43,118.85c-.66-.17-1.74-1.32-3.09-3.12C32.83,107,20.2,83.23,20.2,83.23S35.54,16.75,26.34,6,93,16.76,93,16.76l24.68,58.82"/><path class="cls-3" d="M84.47,13s22.68,24.94,19.62,72.59,36.43,68.87,36.43,68.87,29.53-13.11,31-33.25,14.51-39.32-9.24-66.88S117.69,7.59,84.47,13Z"/><path class="cls-3" d="M80.86,181S28.5,206,7.94,149.93C-.18,127.81,1,103.4,10.2,81.72c6-14.17,15.1-30,27.73-39.42,0,0,3.86,14.35,28.37,12.54s37.1,19.34,37.1,19.34,19.16,37,14.39,58.46S80.86,181,80.86,181Z"/><path class="cls-4" d="M73.44,181.5C71.54,185.27,101.8,224,142,197.19c32.37-21.62,12.26-71.29,12.26-71.29"/><path class="cls-5" d="M87.62,192.17c-4.05,3.44-29.11,10.72-54.38-3.07,0,0,.76-7.54,30.64-7.6,0,0-22.22-.06-37.54-17.67,0,0,32.78-13.53,47-5.23,0,0-17.15-20.81-11-57.58,0,0,33.71-5.18,46,17.33,0,0-5.47-5.33-5.8-21.29,0,0,25.72-1.23,35.67,25.49,0,0,14.56-31.06,27.58-37.4,0,0,7.84,15.85,0,36.54,0,0,14.55-6.7,18.38-3.34s-9.27,14.43-26.89,20.24c0,0,13.49-3.24,17.13,1.43s-23.94,8.4-25.47,8.44"/><g class="cls-6"><g class="cls-7"><path class="cls-8" d="M137.54,209.22q-1.18-1.35.42.63a11.78,11.78,0,0,0,1.39,1.05,7.63,7.63,0,0,0,2,.72,9.25,9.25,0,0,0,4.61-.22,10.67,10.67,0,0,0,6.19-4.89,6.31,6.31,0,0,0-2.24-8.53c-3.23-1.71-6.47-.59-8.53,2.24.2-.27.92-1.23.28-.45-.45.54,1.11-.83.55-.41-.21.15-.42.31-.64.45s-1.09.54-.08.11-.43.11-.71.22a8.07,8.07,0,0,0-3.83,3l3.1-2.38-.26.1a5.22,5.22,0,0,0-3.51,3.5,5.08,5.08,0,0,0,1.29,4.88Z"/><path class="cls-8" d="M142.65,383.87c3-.88,6.26-.7,9.31-1.54a46.85,46.85,0,0,0,10.37-4.46,148.63,148.63,0,0,0,16.46-11,175,175,0,0,0,29.87-29.16c17.08-21,31.3-46.17,37.39-72.73A228.08,228.08,0,0,0,250,241.85a64.68,64.68,0,0,0,.76-11.71,14.39,14.39,0,0,0-1.48-5.41c-1-2.15-.88-4-1-6.38-.22-5.43-8.16-5.42-8.44,0a19.78,19.78,0,0,1-.27,4.43c-.36,1.2-1.5,2.1-2,3.27-1.32,2.81-1.39,6.38-1.82,9.42A151.29,151.29,0,0,1,232,254.21a212.08,212.08,0,0,1-12.58,35.38,184.17,184.17,0,0,1-46,60.77,196.35,196.35,0,0,1-16.34,12.85c-2.84,2-5.68,3.92-8.4,6.05-3.13,2.43-5.57,6.22-8.72,8.44-3,2.09-1.29,7.32,2.6,6.17Z"/><path class="cls-8" d="M193.33,355.41c7.52.08,14.09-10.36,17.87-15.86a86.86,86.86,0,0,0,6.66-11.27c1.83-3.79,4.33-7.64,2.12-11.65a3.48,3.48,0,0,0-3.87-1.58c-4,1.22-4.84,4.85-6.63,8.32A118.36,118.36,0,0,1,203.37,334c-2.23,3.41-4.7,6.67-7.16,9.93-2.17,2.9-4.85,5.6-4.94,9.39a2.08,2.08,0,0,0,2.06,2.06Z"/><path class="cls-8" d="M28.2,289.89c8.23,8.68,15.85,17.57,25.22,25.1,9.22,7.42,18.49,14.81,27,23.06a121.91,121.91,0,0,1,19.7,24.26,76.61,76.61,0,0,1,6.84,14.19c1.78,5.11,4.63,10.49,4.8,16l9.41-1.27C115.42,370.52,104.54,353,90.8,336.7c-4.18-5-12.38,1.48-9,6.92,7.86,12.46,20.68,22.94,34.86,12.73l-7.15-4.11c.14,7,.17,13.94.61,20.89s10.43,6.95,10.74,0l.87-18.95.39-8.52c.16-3.67-.64-6-1.23-9.53h-7.24c-1.2,8.08-12.72,11.11-15.1,2l-8.48,6.52c6.7,3.52,15,7.06,22.48,3.62s9.17-11.18,8.19-18.64c-.46-3.5-5.57-4.9-6.63-.9-.94,3.55-2.09,9.14-6.25,10.15s-8.73-2.23-12-4.2c-4.57-2.79-9.43,1.79-8.49,6.52a18.06,18.06,0,0,0,19.7,14.53c8.64-1.05,14.84-10.23,13.91-18.59-.44-4-6.17-5.37-7.37-1-.84,3.09-1.78,5.3-2,8.58s-.33,6.32-.5,9.47l-1,18.95H120.9c-.38-7-1.16-13.93-1.84-20.89a4.83,4.83,0,0,0-8.12-3.36c-2.73,2.31-9-1-11.22-2.69-3.39-2.59-6.17-6.26-8.92-9.49l-8.07,8.07c12.76,14,22.2,31.43,29.18,49,2.3,5.79,10.1,3.55,9.24-2.55-.82-5.84-.36-11.51-2.39-17.14a88.43,88.43,0,0,0-6.6-14.2,119.44,119.44,0,0,0-21.44-26.49c-8.79-8.33-18.53-15.59-28.26-22.78C52,302.8,40,296.54,30.06,288a1.32,1.32,0,0,0-1.86,1.86Z"/><path class="cls-8" d="M154.05,485.8c-5.23,2.86-10.24,6.33-15.69,8.82-5.73,2.62-11.7,4.51-17.35,7.4C110.13,507.6,98.94,514.56,94,526.28c-6.89,16.18-.15,33.52,5.24,49,6.2,17.82,12,35.9,18.79,53.49,3.64,9.37,7.41,18.68,11.38,27.9,2.66,6.18,6,19,15.17,14.77,2.3-1.07,3-4.55,1.72-6.59-1.88-3-3.27-6.2-2.91-9.78l-13.16,1.78c1.52,4.95,4.14,9.13,6.32,13.78l3.17-12.07-6.3,4.68,12.33,3.24a363.08,363.08,0,0,1-41.17-122.89c-1.46-9.93-18.67-7.7-17.68,2.4a305.33,305.33,0,0,0,43.28,129.59c3.27,5.32,9.66,5.52,14.16,1.82l6.07-5c3.08-2.53,3.09-7.47,1.38-10.7-2.82-5.32-6.1-9.88-11.72-12.44-6.34-2.88-11.89,2.9-9.17,9.17,2,4.69,4.09,8.64,7.85,12.23v-6.8l-.75.6,3.32-1.38c.71,0-2.81-9.24-3.14-10.12-1.5-3.89-3-7.78-4.48-11.66-3-7.76-5.92-15.58-9-23.32-5.94-14.92-11.53-29.92-16.55-45.18-4.51-13.71-10-29.71-1.53-42.92,5.4-8.41,14.86-13.11,23.31-17.81a145.08,145.08,0,0,0,15.5-10.52c4.79-3.53,9.12-7.42,11.5-12.95.78-1.81-.87-3.89-2.82-2.82Z"/><path class="cls-8" d="M50.23,178.09c-4.9-3.14-10.08-4.66-14.08-9.25A59,59,0,0,1,27,153.34a108.75,108.75,0,0,1-7.77-34.48c-.71-12,1-23.92,3.3-35.69,1.12-5.7,3.31-11.12,5.32-16.55,1.94-5.22,7.48-10.45,7.37-16.13A3.42,3.42,0,0,0,31,47.23c-6,1.6-9.42,9.92-12.62,14.65A95.76,95.76,0,0,0,8.83,81C3.58,94.47,2.28,109.82,4,124.16s6.12,28.42,14,40.56c5.76,8.89,20.64,22.16,32.29,16.77,1.41-.66,1.13-2.67,0-3.4Z"/><path class="cls-8" d="M29.12,5.51c1.67,11.81,5,23.14.85,34.84-1.28,3.61,3.13,6.31,6.12,4.7,5.17-2.77,11.85,6.5,16.2,8.59C57.18,56,63,56.2,68.27,55.53c6.78-.85,13.43-1.69,19.65,1.88,5.77,3.31,8.59,8.6,12.29,13.82,1.42,2,4.78.86,4.11-1.74-1.58-6.07-6.35-11.45-11.4-15C86.88,50.17,80.24,49.28,73,49c-3.74-.15-7.58-.21-11.29-.67-5.22-.64-8.34-3.28-12.16-6.57-5.13-4.41-11.19-7.22-17.7-3.91L38,42.56c4.85-12.77,1.45-27.13-3.93-39.15-1.37-3.07-5.35-.65-5,2.1Z"/><path class="cls-8" d="M30.86,164.16c8.72,14.19,27.68,19.26,43.37,18.89l-6.54-6.54c.2,1.81-9.12,3.75-10.77,4.12a50.65,50.65,0,0,1-15.87.82V197a303.38,303.38,0,0,1,31.45-1.94c4.32,0,8.76-.21,12.87,1.29,4.7,1.73,9.17,4,13.94,5.59a68.41,68.41,0,0,0,29.13,2.74c8.21-1,19-3.45,20.61-13.09.88-5.37-4.32-10.57-9.64-7.41-6.87,4.07-12.9,4.72-20.92,4.09-8.22-.64-15.93-3.12-23.58-6s-16.13-3.21-24.38-2.91c-9.84.37-19.67,1.16-29.48,2.1S31,196.18,41.05,197c13.81,1.15,42.38-2.63,39.49-22.24-.4-2.67-3.71-4.94-6.31-4.8-14.38.78-25.67-5.14-38.43-10.75-3.06-1.34-7,1.57-4.94,4.94Z"/><path class="cls-8" d="M61.86,100.67c-11.21,13.41-9,37.91-1,52.37a4.28,4.28,0,0,0,3.79,2.17,4,4,0,0,0,3.1-1.28,4.63,4.63,0,0,0,.69-5.32c-3.51-7.73-6.08-15.29-6.5-23.85-.39-8,1.46-15.35,2.1-23.19a1.28,1.28,0,0,0-2.16-.9Z"/><path class="cls-8" d="M80.48,12.42c-.5,4.32,2.41,8.75,4,12.67,1.7,4.23,3.2,8.55,4.51,12.91s2.45,8.8,3.38,13.27c1,4.73,1.29,9.71,2.75,14.32a4.24,4.24,0,0,0,8.29-1.13c.44-9.67-3.37-20.53-6.45-29.6-1.49-4.37-3.18-8.68-5-12.91s-3.49-9.4-7.63-11.71c-1.82-1-3.59.31-3.81,2.18Z"/><path class="cls-8" d="M102.46,60.27c-2.17,11,4,24.16,10.31,33A38,38,0,0,0,126,104.56c5.2,2.82,9.2,5.81,12.18,11,1.58,2.76,5.62,1.41,5.76-1.56.26-5.36-2.75-9.21-6.68-12.64-4.3-3.76-8.78-7.32-12.47-11.73a64.86,64.86,0,0,1-9.32-15.51c-2.38-5.33-4.29-10.89-8.53-15.06-1.35-1.33-4.07-.85-4.47,1.18Z"/><path class="cls-9" d="M36.73,49c-1.64,4.53,2.42,9.7,5.74,12.4,5,4,11.48,5,17.65,5.7,7.21.77,13.76,1.68,20.24,5.13C85.47,75,89.08,80.61,94.47,82.5A2,2,0,0,0,97,81.1c1.69-5.27-2.43-10.71-5.74-14.44a30.77,30.77,0,0,0-15.83-9.55C68.33,55.44,61,56,53.9,54.87a37.43,37.43,0,0,1-7.85-2.16c-2.79-1.12-4.71-3.21-7.32-4.5a1.38,1.38,0,0,0-2,.81Z"/><path class="cls-9" d="M34.47,6.78C40,15.38,48,17.36,57.41,19.62c4.83,1.16,10.07,2.21,13.92,5.56,3.26,2.83,3.85,7.35,7.13,10a2.51,2.51,0,0,0,3,.38c9.4-6.64-3.17-18.78-9.72-21.85-10.56-5-24.38-3.19-33.9-10.28-2-1.48-4.6,1.37-3.33,3.33Z"/><path class="cls-9" d="M95.81,17.82c6.86,4.52,13.77,9.12,20.57,13.76a160.09,160.09,0,0,1,18.81,14.93,147.39,147.39,0,0,1,16.23,17.74c4.92,6.41,9,13.42,15,19,1.63,1.52,5.18.6,4.88-2-1.93-16.66-15.93-32-27.66-43.09a125,125,0,0,0-20.77-16,73.88,73.88,0,0,0-24.71-9.74,3,3,0,0,0-2.31,5.49Z"/><path class="cls-9" d="M62.55,106.3c8.76,4.58,18.51,7,27.06,12a42.84,42.84,0,0,1,9.68,7.46c2.71,2.87,4.66,6.19,8.47,7.67,1.35.53,2.69-.59,3.12-1.77,3.14-8.56-8.49-17.78-14.66-21.67A59.29,59.29,0,0,0,64,101.14c-2.65,0-3.89,3.85-1.4,5.16Z"/><path class="cls-9" d="M108.5,107.12c8.5,4.26,13.87,11.16,20.53,17.57a2.42,2.42,0,0,0,4.08-1.69c.58-12.36-11.93-20.82-23-21.91-3.19-.31-4.41,4.64-1.63,6Z"/><path class="cls-9" d="M159.38,95.38c-.46,5.1-.4,10.21-1.16,15.28-.67,4.44-2,9-2.16,13.43a2.18,2.18,0,0,0,3.68,1.53c8.15-7.23,8.86-22.28,4.44-31.54-1.2-2.53-4.6-1-4.8,1.3Z"/><path class="cls-9" d="M214.66,189.23c-5.58,5.36-7.74,14.32-9.92,21.52a166.76,166.76,0,0,0-5.41,23.66c-1.21,8.05-2.07,16.19-2.49,24.33-.36,7-.89,16.1,2.88,22.27a3.57,3.57,0,0,0,6.08,0c3.78-5.59,4.1-13.85,5-20.38,1.1-7.69,2.56-15.27,4.19-22.86,1.57-7.31,3.19-14.58,5-21.83,1.77-7,5.34-15.31,4.5-22.61-.55-4.84-6-7.85-9.9-4.1Z"/><path class="cls-9" d="M31.58,280.16c6,2.16,12.35,2.93,18.58,4.27a72.76,72.76,0,0,1,17.69,6.42,75.06,75.06,0,0,1,15.71,10.2c4.81,4.19,8.53,10,14.36,12.8,3.84,1.84,7.21-1.18,6.67-5.14-1-7.42-7.81-13-13.35-17.46a78.51,78.51,0,0,0-18.73-11.4c-12.08-5-29.19-9.39-41.3-2.52a1.57,1.57,0,0,0,.37,2.83Z"/><path class="cls-9" d="M132,487c4.15-2.26,9.21-2.3,13.84-2.06,3.55.17,8.32-1.47,6.32-6-1.8-4.12-8.52-3.93-12.19-3.17-4.54.93-8.14,3.76-11.1,7.22a2.59,2.59,0,0,0,3.13,4Z"/><path class="cls-9" d="M56.41,280.26A76,76,0,0,1,79,289a43.2,43.2,0,0,1,9.37,7.16c2.74,2.78,5.31,6.43,8.78,8.3a4.32,4.32,0,0,0,6.44-3.69c-.09-9.54-11-17.9-18.5-22.2a38.08,38.08,0,0,0-28.68-3.9c-2.7.65-2.84,5,0,5.6Z"/></g></g><path class="cls-10" d="M104.05,508.63c2.15-27.29,10.5-53.06,22.1-81.08,5-12.05,10.36-26.2,15.62-40.85"/><path class="cls-10" d="M131.8,201.19c13.66,15.51,33.6,48.91,20.4,103.21-19.15,78.72-72.77,171.4-66.64,223.49s20.68,122.55,53.62,151.66c0,0,16.08-13.69,13-16.42s-24.3-24.21-42.13-92A194.52,194.52,0,0,1,103.76,532"/><path class="cls-10" d="M152.56,355.58c9.51-28.44,17.35-54.54,19.93-66.47,4.87-22.53,5.32-60.71-24.59-97.13"/><path class="cls-10" d="M152.33,356.27c.07-.23.15-.46.23-.69"/><path class="cls-10" d="M138.78,371.08s49.79-52.66,52.09-89.63,16.85-95.18,24.51-95.94S259.8,212.12,246,264.68s-34.47,80.93-46,88.58-49.19,33-61.28,30.63"/><path class="cls-10" d="M93.59,531.45s19.92-54.88,48.26-57.18S152.57,494.4,151,498.5,95.12,521.63,98.19,547"/><path class="cls-11" d="M26.12,55.7C29.45,36,32.21,11.62,27,5.5c-7.72-9,44.61,4.71,61.5,9.31"/><path class="cls-11" d="M172.41,118c2.29-19.19,13.21-37.89-9.5-64.24C139.17,26.21,118.3,7.06,85.07,12.42c0,0,19,20.83,19.88,60.78"/><path class="cls-11" d="M40.51,183.83c-12.16-3.84-24.28-13.48-32-34.43-8.12-22.13-7-46.53,2.26-68.21,6-14.17,15.09-30,27.73-39.42,0,0,3.86,14.35,28.37,12.54S104,73.64,104,73.64A182.91,182.91,0,0,1,114.08,98"/><path class="cls-11" d="M83.07,193.61c11.67,10.32,33.52,20.42,59.54,3,18.6-12.41,19.87-34.09,17.59-50.29"/><path class="cls-11" d="M88.23,191.63c-4,3.44-29.11,10.73-54.38-3.06,0,0,.76-7.54,30.64-7.6,0,0-22.22-.06-37.54-17.68,0,0,32.78-13.52,47-5.23,0,0-17.15-20.81-11-57.57,0,0,33.71-5.18,46,17.32,0,0-5.48-5.32-5.8-21.28,0,0,25.72-1.24,35.67,25.49,0,0,14.56-31.06,27.58-37.41,0,0,7.84,15.85,0,36.55,0,0,14.55-6.7,18.38-3.35s-9.27,14.44-26.89,20.25c0,0,13.49-3.24,17.13,1.42s-23.94,8.41-25.47,8.45"/><path class="cls-10" d="M116.8,399.4C105.46,377.58,78.1,331,37.65,300.28-16.71,259,76.24,263.59,95.89,287.36c19.91,24.09,29.87,42.15,26.81,75.85-1.11,12.23-.81,21,0,27.2"/><path class="cls-12" d="M97.33,192.1a24.39,24.39,0,0,0,10.81-9.34c2.3-3.48,4.73-8.57,2.6-12.61a2.18,2.18,0,0,0-3.38-.43c-2.74,2.19-3.7,6.43-5.55,9.34a37.08,37.08,0,0,1-7.94,8.55c-2.73,2.2.75,5.7,3.46,4.49Z"/><path class="cls-12" d="M95.69,187c-1.74,4-3.26,8.09-4.94,12.14-1.22,3-3.43,7.07-2.14,10.25a1.67,1.67,0,0,0,2,1.11c3.58-.51,6-5,7.37-8A44.18,44.18,0,0,0,102,189.71c.51-3.47-4.63-6.63-6.34-2.67Z"/><path class="cls-12" d="M102.37,187.53c.69,1.79,1.36,3.6,2,5.39a7.42,7.42,0,0,0,1.82,2.68,4.12,4.12,0,0,0,2,1.53,2.26,2.26,0,0,0,2.49-1c.94-1.45.79-3.81.26-5.35l-1.79-5.14a3.66,3.66,0,0,0-4.38-2.49c-1.72.48-3.17,2.58-2.49,4.39Z"/><path class="cls-12" d="M125,164.24c6.86,1.8,19.87,3.21,24.15-4.1a2.23,2.23,0,0,0-1.31-3.24c-3.34-1.11-6.54.13-9.87.72a65.59,65.59,0,0,1-12.2.92c-3.27,0-4,4.87-.77,5.7Z"/><path class="cls-12" d="M136.21,163.56c1.11,3.23,2.18,8.35,5.48,10.06a1.89,1.89,0,0,0,2.75-1.12c1-3.64-2-7.81-3.69-10.85-1.34-2.42-5.48-.79-4.54,1.91Z"/><path class="cls-12" d="M143.84,160.49a8.76,8.76,0,0,0,5.36,3.91c2.42.77,4.25.25,6.37-.93a2.5,2.5,0,0,0,0-4.28c-.6-.3-1.07-.76-1.66-1.07a13.51,13.51,0,0,0-2.46-.85c-1.43-.41-2.7-1-4.17-1.26-2.47-.51-4.92,2.09-3.44,4.48Z"/><path class="cls-12" d="M122.31,187.42c.56,4.56,5.3,6.26,9.22,4.35,4.45-2.17,4.87-7.71,2.36-11.49a1.24,1.24,0,0,0-2.23.29c-.48,1.69-1,4.82-2.61,5.93-.57.42-2,.49-2.46-.24-1.06-1.84-4.56-1.2-4.28,1.16Z"/></g></g></svg>