<svg xmlns="http://www.w3.org/2000/svg" xmlns:xlink="http://www.w3.org/1999/xlink" viewBox="0 0 443.23 688.81"><defs><style>.cls-1,.cls-10,.cls-11,.cls-9{fill:none;}.cls-2{fill:#57d754;}.cls-2,.cls-3,.cls-4{stroke:#231f20;}.cls-10,.cls-2,.cls-9{stroke-linecap:round;stroke-linejoin:round;}.cls-10,.cls-11,.cls-2,.cls-3,.cls-4,.cls-9{stroke-width:5px;}.cls-3{fill:#ffe5fd;}.cls-11,.cls-3,.cls-4{stroke-miterlimit:10;}.cls-4{fill:#fdfc80;}.cls-5{opacity:0.47;}.cls-6{clip-path:url(#clip-path);}.cls-7{fill:#901a3d;}.cls-8{fill:#e6fff2;}.cls-9{stroke:#1b3328;}.cls-10{stroke:#4d0034;}.cls-11{stroke:#4f3905;}.cls-12{fill:#231f20;}</style><clipPath id="clip-path" transform="translate(0 11.64)"><path class="cls-1" d="M381.1,545c-64.14-38-152.51-62.42-183.63-90.11-29.1-25.89-66.6-67.7-75.79-135.45-8.56-63.11,9.63-113.24,28.68-152.68,29,12.13,67.79-35,67.79-35l-1.07-.6a23.54,23.54,0,0,0,6-1.34,25.31,25.31,0,0,0,4.61,6.78c6.66,6.13,19.61,13,34.93,14.5,6.37.62,9.43-1.53,10.82-5,8.38,6.3,17.21,11.75,21.73,14.76,8.8,5.87,41.75,1,45.58-7.1s-7.66-14.86-17.68-26.26c-4.72-5.38-20.47-8.43-36.28-10.23.32-4.82-.78-10.83-1.19-14-.77-5.81-10-8-17.37-14.27-2.88-2.45-9.36-2.15-16.31-.79.07-4-2.12-9-3.09-12.81-1.53-6-15.32-12.34-31.56-18.76a11.44,11.44,0,0,0-3.42-.78c-3.17-5.79-10.45-12.78-26-15.2-11.62-1.81-17.16,1.78-19.76,6.27-1.71-2.3-3.31-4.44-4.61-6.27-7.19-10.15-27.27-22.79-39.53-28.2-5.91-2.61-9.5,0-11.9,3.72C102.49,8.84,86.86,1.81,86.86,1.81S53.47-4.58,60.94,17.21c4.44,12.93,20.44,24.62,32.7,32C75.38,55.61,72.18,63.49,81.05,70.9c10.72,9,36.76,16.4,41.36,17.66,2.36.65,9,1.08,15.78-1.28.11,1-.24,4.25,0,5.25-5.34,8.21-22.9,38.09,1.06,65.73C117.05,184.8,85.41,278.45,103.69,345c11.19,40.73,29.2,65.51,47.77,91.56a178.31,178.31,0,0,0,57.23,51.51,714,714,0,0,0-97.77-16C34.85,465.17.18,526.07,2.15,528c35.24,34.46,96.07,34.56,127.15,33.63,26-.78,92.68-19.08,123.32-29.8,13.84-4.85,27.83-6.09,39-6,15.3,6.57,30.95,13.11,46,19.12,69.7,27.85,88.85,127.43,88.85,127.43l11.41-22.33S445.25,583,381.1,545Zm-201-434.37c.41-.78.82-1.58,1.22-2.4A16.94,16.94,0,0,0,181,111Z"/></clipPath></defs><g id="Calque_2" data-name="Calque 2"><g id="Layer_27" data-name="Layer 27"><path class="cls-2" d="M381.53,546.52c-64.14-38-152.51-62.43-183.63-90.11C168.79,430.52,131.3,388.7,122.11,321c-8.56-63.12,9.63-113.25,28.68-152.69,29.05,12.14,67.79-35,67.79-35L140.45,89.85s-28.54,38-.81,70C117.47,186.36,85.83,280,104.11,346.55c11.2,40.74,29.2,65.51,47.78,91.57a178.73,178.73,0,0,0,71.34,58.74c30.48,13.91,74.81,33.67,114.84,49.66,69.7,27.85,88.85,127.42,88.85,127.42l11.41-22.33S445.67,584.54,381.53,546.52Z" transform="translate(0 11.64)"/><path class="cls-2" d="M315.09,529.57s-31.4-6.89-62,3.83-97.34,29-123.32,29.8c-31.08.93-91.92.84-127.15-33.63-2-1.93,32.69-62.83,108.77-55.92s133.27,25.54,133.27,25.54l36,12" transform="translate(0 11.64)"/><path class="cls-2" d="M49.3,518.27c2.3,2.05,35.24-22.57,186.13-1.83" transform="translate(0 11.64)"/><path class="cls-2" d="M107.52,539.86s16.85-26.23,42.89-30.54" transform="translate(0 11.64)"/><path class="cls-2" d="M81.47,489.8s23.75,9.51,30.64,17.72" transform="translate(0 11.64)"/><path class="cls-3" d="M193.69,85.59s7.72-33.85,24-27.43,30,12.7,31.57,18.75,6.13,14.9,0,18.52-26.22,8-26.22,8Z" transform="translate(0 11.64)"/><path class="cls-3" d="M166.56,60.74s-4.08-22.59,21.7-18.57,28.85,20.67,28.09,23.45-10,19.79-16.09,19.33S166.56,60.74,166.56,60.74Z" transform="translate(0 11.64)"/><path class="cls-3" d="M107.52,28.57c2.29-3.06,4.59-20,16.85-14.6S156.71,32,163.9,42.17,187.53,72,181.38,76.06,140,68.32,140,68.32Z" transform="translate(0 11.64)"/><path class="cls-4" d="M145.47,74.83s17.62-17,40.22-8.51,34.39,17.27,34.39,17.27,13.48,16.2,10.41,21.75-32.93-.12-35.23,0S145.47,74.83,145.47,74.83Z" transform="translate(0 11.64)"/><path class="cls-3" d="M228.08,97.57c2-1.53,33.13-13.35,40.54-7.06S285.22,99,286,104.78,289.81,126,282.15,126s-46.72-13.11-46.72-13.11Z" transform="translate(0 11.64)"/><path class="cls-3" d="M249.22,115.89c4.59.77,64.23,1.71,74.24,13.11s21.5,18.15,17.67,26.26-36.77,13-45.58,7.1-34.08-21-40.2-33.74Z" transform="translate(0 11.64)"/><path class="cls-3" d="M109.11,58.82s-40.26-18.26-47.74-40S87.28,3.37,87.28,3.37,114.34,15.53,119,24.45,144.26,62.7,144.26,62.7Z" transform="translate(0 11.64)"/><path class="cls-3" d="M214.76,107.78c4.43-7.59,10.71-17.93,28.33-8.74s31.4,19.33,31.4,30,3.83,25.09-11.48,23.61-28.27-8.38-34.93-14.51S214.76,107.78,214.76,107.78Z" transform="translate(0 11.64)"/><path class="cls-3" d="M155,72.47S137.39,40.06,107.52,47s-36.77,16.55-26,25.51,36.77,16.4,41.36,17.65S148.11,91.85,155,72.47Z" transform="translate(0 11.64)"/><path class="cls-3" d="M181.56,113.74c-1.51-1.42,6.24-34.58,27.91-20.5s23.9,23,23.35,27.09-4.45,14.14-23,12.27S185.85,117.75,181.56,113.74Z" transform="translate(0 11.64)"/><path class="cls-3" d="M140.61,75.84s12-21,26.36-3.91S194.57,87.3,187.32,99s-9.24,27.75-25.65,21.31S133.34,90.35,140.61,75.84Z" transform="translate(0 11.64)"/><g class="cls-5"><g class="cls-6"><path class="cls-7" d="M134,99.06c-1.28,11,9.58,23.37,18.3,28.94a31.66,31.66,0,0,0,16.06,5.28,26.21,26.21,0,0,0,8.35-1c2.72-.8,4.84-2.88,7.31-3.78h-3.84c.57.11,4.67,4.35,5.82,5.22a46.27,46.27,0,0,0,6.53,4.21c4.38,2.27,12.12,6.21,17,3.32,5.47-3.23,3.32-9.37-1.38-11.82-5.35-2.79-10.68-4.24-15.27-8.44-4.32-4-8.26-8.72-14.73-5.66-2.31,1.09-4.1,2.85-6.66,3.45a15.43,15.43,0,0,1-7.15-.23c-5.87-1.42-10-4.66-13.85-9.23S143.52,99.24,138,96.76a2.71,2.71,0,0,0-4,2.3Z" transform="translate(0 11.64)"/><path class="cls-7" d="M1.28,526.57c8.42,14.24,25.52,22.84,40.32,29a188,188,0,0,0,49.45,12.82c34.91,4.4,70.68-.29,104.3-10.13,17.83-5.22,35-12.14,52-19.51,14.32-6.19,30.71-13,46.54-9.14,14.61,3.55,26.36,14.61,38.58,22.73,13.27,8.83,28.83,14.68,40.78,25.41,11.5,10.33,18.82,24.19,23,38.93a131,131,0,0,1,4.34,22.39c.91,8.8.35,17.72,2.74,26.28,2.32,8.36,13.9,7.86,16.45,0,2.47-7.61,2-15.37,1.35-23.27a177,177,0,0,0-3.32-23.6c-3.12-14.59-8.65-29.32-17.55-41.4-10-13.56-23-22.8-37.71-30.8-7.41-4-14.88-8-21.9-12.71-6.68-4.49-13-9.51-19.64-14.05-15.16-10.33-31.32-15.6-49.72-13S236.58,518.33,219.59,525c-33.41,13.13-68.87,21.93-104.95,21.43a204.89,204.89,0,0,1-54.31-8.29,209.65,209.65,0,0,1-25.68-9.48c-8.73-3.85-17.15-8.8-26.39-11.19-5.17-1.34-9.77,4.38-7,9.09Z" transform="translate(0 11.64)"/><path class="cls-7" d="M313.35,522c6.75,4.54,12.65,10.25,19.2,15.07,6.31,4.65,12.57,9.41,18.53,14.48a252.28,252.28,0,0,1,33.23,34.06A225.42,225.42,0,0,1,409.38,625a202.74,202.74,0,0,1,9.31,21.26q2.1,5.67,3.88,11.46c1.33,4.33,2.09,9.13,5.75,12.17,5.13,4.27,11.84,2.52,14.18-3.74s-1.64-14.62-3.75-20.73c-2.25-6.5-4.83-12.89-7.6-19.18a223.08,223.08,0,0,0-18.94-34.41,233.56,233.56,0,0,0-55.7-58.39A118.64,118.64,0,0,0,338,521.79c-6.86-3.29-14.14-5.26-21.3-7.74-4.88-1.69-7.26,5.34-3.35,8Z" transform="translate(0 11.64)"/><path class="cls-7" d="M231.3,489.38c-5.93-3.28-11.24-8-16.84-11.77s-12-7.24-17.31-11.56c-5.52-4.45-11.64-8.12-17.29-12.41-5.48-4.17-10.76-8.64-15.84-13.27-20.56-18.75-36.75-40.92-49.76-65.45-3.68-6.92-6.84-14.08-10.1-21.21S98.82,338.45,94.31,332c-2.6-3.69-7.48-2.06-8,2.18-.94,7.21,1.43,14.8,3.23,21.72a149.81,149.81,0,0,0,7.56,21.37,198.84,198.84,0,0,0,21.51,37.76,235.39,235.39,0,0,0,64.18,61.29c3.54,2.26,7.45,3.79,11.19,5.69a84.4,84.4,0,0,0,11.7,5.33c8.1,2.63,16.09,3.38,24.35,5.09,1.8.37,3.05-2.12,1.3-3.09Z" transform="translate(0 11.64)"/><path class="cls-7" d="M200.43,133.86c-4.23,1.13-7.42,4.37-10.26,7.55-3.26,3.64-6.78,7.18-10.38,10.47s-16.37,13.53-9.39,19.17c7.31,5.92,18.24-4.18,23-9,6.06-6.08,14.52-15.91,12.3-25.18a4.37,4.37,0,0,0-5.31-3Z" transform="translate(0 11.64)"/><path class="cls-7" d="M227,138.09c5.23,6.48,13,10.65,20.8,13.27,7.38,2.47,18.39,4.49,24.13-2.17,2.22-2.57,2.84-6.85,0-9.35-5.27-4.63-12.1-4-18.54-5.81-6.12-1.74-11.21-5.31-16.33-9-3.33-2.37-8.43-.9-10.71,2.14-2.64,3.54-2,7.58.65,10.9Z" transform="translate(0 11.64)"/><path class="cls-7" d="M276.71,119.51C270.1,123,273,134.36,274.78,140c2.4,7.53,6.67,14.28,13.28,18.76,6.92,4.69,16.22,7.65,24.37,9.06s19.53,3.47,26.76-1.08c3.05-1.92,3.68-7.19,0-8.95s-7.7-1.86-11.78-2.61a89.78,89.78,0,0,1-10.71-2.83c-6.62-2.09-14.78-3.4-20.56-7.41-4.91-3.41-6.77-9.2-8.45-14.66-1.36-4.45-4.24-14.28-11-10.76Z" transform="translate(0 11.64)"/><path class="cls-7" d="M190.48,91.21c-5.88,7-9,14.63-7.46,23.9,1.29,7.7,7,20.12,16.25,19.68,3.58-.16,5.49-3.12,4.93-6.48s-2.49-5.21-4.4-7.68a24.38,24.38,0,0,1-3.9-8.39c-1.63-5.72-2.58-12.4-.41-18.11,1-2.77-3.12-5.16-5-2.92Z" transform="translate(0 11.64)"/><path class="cls-7" d="M136.5,78.63c-3.95-5.27-11.59-5.95-17.71-7.53A171.87,171.87,0,0,1,99.06,65c-6-2.36-11.44-5.66-17.15-8.68-4.8-2.54-14.26-5.63-16.13,2.18C62.38,72.71,87,81.59,96.83,84.91a169.88,169.88,0,0,0,20,5.42C123,91.61,133.19,94,136.5,86.42c1-2.37,1.74-5.47,0-7.79Z" transform="translate(0 11.64)"/><path class="cls-7" d="M103.75,47c-.19-5.66-5.24-9.38-9.13-12.77A73.53,73.53,0,0,1,82.13,20.31a64,64,0,0,1-8-15.8C72.29-1,71.71-7.84,66.24-10.95a4.93,4.93,0,0,0-5,0c-6.65,4.82-5,13.64-2.68,20.53A76.66,76.66,0,0,0,70,31,74.42,74.42,0,0,0,86.86,47.9,18,18,0,0,0,97.4,51.54c2.63,0,6.46-1.3,6.35-4.58Z" transform="translate(0 11.64)"/><path class="cls-7" d="M156.81,62.15c-3.12-4.08-6.55-7.81-9.78-11.79C143.48,46,141,41,138.1,36.19c-5.64-9.48-9.24-19.69-14-29.55-2.49-5.1-10.41-1.48-9,3.8,2.93,11,8.68,22,14.78,31.52,3,4.66,6.81,8.7,10.47,12.83,3.87,4.37,7.86,8.09,13,10.82,2,1.07,5.12-1.3,3.47-3.46Z" transform="translate(0 11.64)"/><path class="cls-7" d="M133.84,89.45c2.44,11.27,9.46,22.07,20,27.26,11,5.43,24.29,4.83,33.83-3.2l-13.1-7.62-.26,1.13c-.88,3.77,1.15,8.84,5.42,9.56,5.22.88,8.24-1.79,10-6.53,2.31-6.37-6-12.48-11.52-8.85-14.8,9.73-28.41-5.59-38.2-15.31-2.69-2.66-6.86.07-6.11,3.56Z" transform="translate(0 11.64)"/><path class="cls-8" d="M76,6.64c7.43,4.43,15.66,8.31,22.29,14a102.09,102.09,0,0,1,9.32,8.81c2.87,3.14,5.4,6.24,9.29,8.13a2,2,0,0,0,3-1.69c1.09-9.4-8.09-18.67-14.88-24C96.8,5.42,88.1.78,77.58.79A3.16,3.16,0,0,0,76,6.64Z" transform="translate(0 11.64)"/><path class="cls-8" d="M135.7,25.05a173.22,173.22,0,0,1,20.49,15.83,116.18,116.18,0,0,1,8.83,9.2c2.46,2.78,4.87,6,8.7,6.72,1.43.28,3.29-.38,3.58-2,1.47-8.5-8.7-16.72-14.47-21.65a65.64,65.64,0,0,0-24.89-13.38c-3.27-.93-4.91,3.53-2.24,5.31Z" transform="translate(0 11.64)"/><path class="cls-8" d="M180.09,49.75c5.18.75,11.77,4.08,16.12,7,4.95,3.27,7.36,8,13.4,9.3a3.13,3.13,0,0,0,3.75-2.13c2.61-8-4.66-14-10.91-17.84a29.8,29.8,0,0,0-11.07-4.34c-4-.56-7.38.45-11.29,1.09-3.42.56-3.47,6.45,0,7Z" transform="translate(0 11.64)"/><path class="cls-8" d="M219.3,70.06c2.94,3.27,7.32,5.79,11.52,8.72,4.47,3.14,7.58,7.59,12,10.8,4.86,3.57,11.75-2.33,10-7.72-3.56-11.25-19.73-22.67-31.61-19.09a4.42,4.42,0,0,0-1.92,7.29Z" transform="translate(0 11.64)"/><path class="cls-8" d="M256.8,96.37c1.76,1,3.25,3,5,4.23,2.16,1.48,4.4,2.84,6.59,4.28,4.42,2.9,7.41,6.73,12.82,7.58a3.22,3.22,0,0,0,3.86-2.19c2.08-7.4-3.55-12.82-9.34-16.57a22.56,22.56,0,0,0-9.57-3.61c-3.57-.41-5.67.91-8.79,1.74a2.51,2.51,0,0,0-.59,4.54Z" transform="translate(0 11.64)"/><path class="cls-8" d="M236.21,102.54c2.23,2.8,3.91,5.23,6.86,7.49s5.57,4.33,8.19,6.71c5.36,4.88,8.87,12.12,15.37,15.44a3.09,3.09,0,0,0,4.58-2.63c.69-8.24-6.57-15.32-12.26-20.5a48.87,48.87,0,0,0-9.69-7c-4.22-2.26-7.41-2.44-12-2.11a1.57,1.57,0,0,0-1.09,2.64Z" transform="translate(0 11.64)"/><path class="cls-8" d="M293.78,127.25a47.59,47.59,0,0,1,19.56,8.08c4.61,3.09,9.24,10.94,15.09,11.06a2.8,2.8,0,0,0,2.66-2c2.11-7-8.15-13.82-13.1-17-6.91-4.41-15.17-6.42-23.26-7.13-4-.35-4.93,6.37-1,7Z" transform="translate(0 11.64)"/><path class="cls-8" d="M174.46,69.44c5.7,3.51,11.35,6.72,17.37,9.69,5.82,2.89,11.43,4.46,17.63,6.16a1.31,1.31,0,0,0,1-2.39,96.66,96.66,0,0,0-17.14-10.1c-5.79-2.54-11.48-4.68-17.46-6.71-2-.68-3.13,2.29-1.41,3.35Z" transform="translate(0 11.64)"/><path class="cls-8" d="M199.35,97.7a90.67,90.67,0,0,1,12.35,11.49c3.69,4,6.43,8.44,10.63,11.9,1.27,1,3.88.53,3.68-1.52-1.25-12.63-13.44-21.41-24.2-26.08a2.44,2.44,0,0,0-2.46,4.21Z" transform="translate(0 11.64)"/><path class="cls-8" d="M151.55,73c2.65,3.71,6.84,6.09,10.27,9s6.49,6.8,10.28,9.59c4.05,3,8-2.59,6.24-6.25-2.15-4.56-6.56-8.23-10.43-11.34s-8-6.23-13.08-6.74C152.07,67,150,70.77,151.55,73Z" transform="translate(0 11.64)"/><path class="cls-8" d="M110.71,54c4,2.29,8.71,2.52,12.84,4.49a34.64,34.64,0,0,1,11.26,8.88c3.08,3.55,9.53-1.29,6.6-5.09-6.2-8.07-20-18.26-30.7-13.06-1.91.93-1.7,3.79,0,4.78Z" transform="translate(0 11.64)"/><path class="cls-8" d="M22.53,516.2c3.81-2,8.16-2.86,12.18-4.4,4.24-1.62,8.36-3.48,12.52-5.26a131.9,131.9,0,0,1,24.24-7.69c18.12-3.85,36.58-2.47,54.84-.41,20.16,2.28,40.38,4.44,60.64,5.47,5.23.27,10.39,1,15.64,1.1s10.34-.19,15.62.27c5.48.48,11,.73,16.42,1.52,4.23.62,7.9,1.43,11.67-1a1.6,1.6,0,0,0,.57-2.18c-4.33-5.69-13.11-5.39-19.57-7.18-4.11-1.14-8.32-1.87-12.42-3s-8-2.82-12.14-4c-16.33-4.58-33.34-7.4-50.06-10.15-32-5.28-66-9.83-97,2.55A97.25,97.25,0,0,0,33.9,493.51a53.54,53.54,0,0,0-8.75,8c-2.76,3.15-4.48,7-7,10.32-2,2.74,1.8,5.72,4.36,4.37Z" transform="translate(0 11.64)"/></g></g><path class="cls-9" d="M138.15,92.53c-4.29,6.31-22.81,39.16,2.21,68-22.16,26.54-53.8,120.2-35.52,186.73C116,388,134,412.8,152.61,438.85a178.18,178.18,0,0,0,50.73,47.66" transform="translate(0 11.64)"/><path class="cls-9" d="M290.41,527.11c16,6.91,32.55,13.82,48.38,20.14,69.7,27.85,88.85,127.42,88.85,127.42l11.41-22.33s7.34-67.06-56.8-105.09-152.51-62.42-183.63-90.11c-29.1-25.89-66.6-67.7-75.79-135.45-8.56-63.12,9.63-113.24,28.68-152.69,27,11.27,62.28-28.54,67.21-34.31" transform="translate(0 11.64)"/><path class="cls-9" d="M315.81,530.3s-31.4-6.89-62,3.83-97.34,29-123.32,29.81c-31.08.93-91.91.83-127.15-33.64-2-1.93,32.7-62.83,108.77-55.91s133.27,25.53,133.27,25.53l36,12" transform="translate(0 11.64)"/><path class="cls-9" d="M50,519c2.29,2,35.23-22.57,186.12-1.84" transform="translate(0 11.64)"/><path class="cls-9" d="M108.24,540.6s16.85-26.23,42.89-30.55" transform="translate(0 11.64)"/><path class="cls-9" d="M82.2,490.53s23.74,9.51,30.63,17.72" transform="translate(0 11.64)"/><path class="cls-10" d="M215.43,58.14a11.57,11.57,0,0,1,2.94.75c16.25,6.42,30,12.71,31.57,18.75.92,3.63,2.94,8.27,3.09,12.18" transform="translate(0 11.64)"/><path class="cls-10" d="M169.34,49c2.65-4.39,8.21-7.85,19.64-6.06,25.79,4,28.85,20.66,28.09,23.44-.43,1.55-3.25,6.35-6.92,11.24" transform="translate(0 11.64)"/><path class="cls-10" d="M113.59,17.81c2.39-3.39,5.91-5.57,11.5-3.1,12.25,5.41,32.34,18,39.53,28.2,4,5.61,10.8,14.15,15,21.35" transform="translate(0 11.64)"/><path class="cls-11" d="M162.86,66.26a36.23,36.23,0,0,1,23.55.79C209,75.56,220.8,84.32,220.8,84.32a84.86,84.86,0,0,1,8.47,12.44" transform="translate(0 11.64)"/><path class="cls-10" d="M232.14,96.75c8.65-3.5,31.06-10.72,37.2-5.5,7.41,6.29,16.6,8.46,17.37,14.27.38,2.9,1.34,8.21,1.24,12.79" transform="translate(0 11.64)"/><path class="cls-10" d="M270.33,117.92c19.71,1.4,47.33,4.38,53.85,11.82,10,11.4,21.51,18.14,17.68,26.26s-36.78,13-45.58,7.09c-4.52-3-13.39-8.47-21.77-14.79" transform="translate(0 11.64)"/><path class="cls-10" d="M94.48,51.32c-12.22-7.38-28-19-32.39-31.82C54.62-2.28,88,4.11,88,4.11s27.05,12.15,31.71,21.07c2.91,5.58,12.05,19.13,18.5,28.51" transform="translate(0 11.64)"/><path class="cls-10" d="M220.64,101.09c4.48-4.79,11.21-7.55,23.17-1.32,17.62,9.2,31.41,19.33,31.41,30s3.83,25.08-11.49,23.6-28.27-8.37-34.93-14.5a24.23,24.23,0,0,1-4.39-6.34" transform="translate(0 11.64)"/><path class="cls-10" d="M145.25,59.78c-8.14-8-20.76-15.84-37-12.09-29.87,6.89-36.77,16.55-26,25.51S119,89.6,123.56,90.86c2.27.62,8.47,1,15-1" transform="translate(0 11.64)"/><path class="cls-10" d="M182.29,114.47c-1.52-1.41,6.23-34.58,27.9-20.49s23.91,23,23.35,27.08-4.45,14.15-23,12.27S186.58,118.48,182.29,114.47Z" transform="translate(0 11.64)"/><path class="cls-10" d="M141.33,76.58s12-21,26.37-3.92S195.29,88,188,99.73,178.8,127.48,162.39,121,134.06,91.09,141.33,76.58Z" transform="translate(0 11.64)"/><path class="cls-12" d="M135.73,123.89c1.22,10.61,16.3,18.45,25,10.79a1.46,1.46,0,0,0-.64-2.42c-3.69-.64-7.11-1.3-10.48-3.11-3.54-1.9-5.6-4.65-8.2-7.59-1.78-2-6-.52-5.63,2.33Z" transform="translate(0 11.64)"/><path class="cls-12" d="M174.38,144.24c2.32,7.37,8.28,11.54,15.91,12.54,3.19.42,7.7.25,9.91-2.47,1.91-2.33,1.7-5.64-1-7.18a2.74,2.74,0,0,0-3.66,1l-.36.5L198,147c-3.18.24-6.16.66-9.28-.31a28,28,0,0,1-9.26-5.37c-2.15-1.88-6.07-.12-5.09,3Z" transform="translate(0 11.64)"/><path class="cls-12" d="M138.09,121.39c-6.29-.22-12.35-1.64-18.59-2.26a1.79,1.79,0,0,0-1.54,2.68c4.68,7.17,14.3,8.06,21.48,4.56,2.51-1.22,1.13-4.89-1.35-5Z" transform="translate(0 11.64)"/><path class="cls-12" d="M138.58,126.7a5.26,5.26,0,0,1-1.09.26,7.52,7.52,0,0,0-1.85.84c-.15.08-1.52.76-.87.46a21.13,21.13,0,0,0-2,1,8.66,8.66,0,0,0-3.31,2.74,4.46,4.46,0,0,0,.56,5.38c2.57,2.66,7.11,1.3,9.51-1a15.32,15.32,0,0,0,2.25-2.82c.85-1.32.66-2.25.94-3.71a2.85,2.85,0,0,0-4.13-3.18Z" transform="translate(0 11.64)"/><path class="cls-12" d="M196.79,154.5a27.09,27.09,0,0,0,9.7,6.5c2.82,1.06,8.39,2.56,10.23-.94,1.59-3-1.9-5.42-4.26-6.5-3.67-1.68-7.4-3.28-11-5.09-3.79-1.9-7.88,2.83-4.66,6Z" transform="translate(0 11.64)"/><path class="cls-12" d="M185.49,153.53c1,4.59,2.71,10.83,7.2,13.23a2,2,0,0,0,2.89-1.17c.76-2.17.35-5.23-.3-7.37a35.54,35.54,0,0,0-3.45-7.36c-2-3.49-7.17-1.11-6.34,2.67Z" transform="translate(0 11.64)"/><path class="cls-12" d="M153.84,151.56c-2.19,3.62.42,8,4.28,9,3.35.85,11.06-1.61,10.63-6a2.1,2.1,0,0,0-1.48-1.94c-2.35-.77-3.9,1.31-5.89,2.17-1.08.46-4.07.39-3.43-1.51.83-2.47-2.82-3.87-4.11-1.73Z" transform="translate(0 11.64)"/></g></g></svg>