<svg xmlns="http://www.w3.org/2000/svg" xmlns:xlink="http://www.w3.org/1999/xlink" viewBox="0 0 160.99 161.91"><defs><style>.cls-1,.cls-8{fill:none;}.cls-2{fill:#f89bf3;}.cls-2,.cls-3,.cls-8{stroke:#231f20;stroke-miterlimit:10;stroke-width:5px;}.cls-3{fill:#ffd062;}.cls-4{opacity:0.51;}.cls-5{clip-path:url(#clip-path);}.cls-6{fill:#901a3d;}.cls-7{fill:#e6fff2;}</style><clipPath id="clip-path"><path class="cls-1" d="M157.88,63.68c-6.28-18.82-37.22-4.5-50.56,2.73C124,54.66,143.51,37.55,131.5,28.33c-10.6-8.13-22,2.46-30.54,14.35,5.41-17.77,8.25-37.21-5-37.62C86.73,4.77,82.39,12,80.6,21.28c-3-7.87-7.44-14.12-14.07-17C46-4.68,49.93,27,59.11,49.42c-12.46-12-27-21.52-39.78-17.62-20.91,6.41,1.1,27.05,22.26,38.33C26.68,69.4,12.65,71.77,6,81.3-5,97.12,17,101.07,38.58,98.93c-12.67,7.72-22.86,17.51-23,29.06-.33,23.44,30,5,46.86-13-6.27,14.19-9.32,28.82-2.45,38.68,12.57,18,25.54-9.6,29.74-33.28,4.69,17.94,12.44,35.93,23.93,29.36,21.28-12.18-14.46-51.35-17.12-54.21,0,0-1.78-2.4-4.81-6,.13-.2.27-.39.39-.6,12.45,10.8,50.79,42,57.67,22.69,8.24-23.1-44.4-29.57-48.28-30l-.26,0C119.8,82.25,164,82.13,157.88,63.68Z"/></clipPath></defs><g id="Calque_2" data-name="Calque 2"><g id="Layer_25" data-name="Layer 25"><path class="cls-2" d="M95.94,95.48c2.66,2.86,38.41,42,17.12,54.2S83.33,89.74,83.33,89.74,94.2,16.54,66,4.22s-10.19,52.24,4.14,64S95.94,95.48,95.94,95.48Z"/><path class="cls-2" d="M81.61,60.16C80.84,56.33,70.88,4.25,95.39,5s-6,66.64-6,66.64-47.57,56.68-30,82,36-39.18,30-56.68S81.61,60.16,81.61,60.16Z"/><path class="cls-2" d="M87.56,65c1.61-3.56,23.92-51.67,43.38-36.74s-43.8,50.59-43.8,50.59S15.43,97.14,15,128s52.11-10.79,57.4-28.54S87.56,65,87.56,65Z"/><path class="cls-2" d="M100.8,69.78c3.33-2,48.75-29.4,56.51-6.14S92.7,81,92.7,81s-69.64-25-87.26.24S54.65,101.51,69,89.76,100.8,69.78,100.8,69.78Z"/><path class="cls-2" d="M100.92,81.52c3.88.45,56.51,6.92,48.27,30S87.61,85.38,87.61,85.38,48.22,22.73,18.76,31.76,45,78.05,63.54,77.63,100.92,81.52,100.92,81.52Z"/><ellipse class="cls-3" cx="79.2" cy="78.82" rx="14.98" ry="17.66"/><g class="cls-4"><g class="cls-5"><path class="cls-6" d="M94.94,84.18c-1,10,13,18.24,20.33,22.67A82.34,82.34,0,0,0,130.68,114c4.93,1.75,11.45,4.45,16.66,3,3.14-.84,3.28-4.83.85-6.51-3.7-2.56-9.36-2.83-13.65-4.27a88.56,88.56,0,0,1-14.25-6.35c-8.59-4.69-15.11-11.39-22.81-17.21-1.14-.86-2.43.35-2.54,1.46Z"/><path class="cls-6" d="M2.44,90.52C9.78,99.17,24,101.06,34.73,101.18a85.21,85.21,0,0,0,17.16-1.62c5.18-1,13-2.71,15.46-7.9,1.4-2.92.16-5.66-2.77-6.82-4.33-1.71-10.12.75-14.48,1.75a68.44,68.44,0,0,1-15.37,1.7c-10.11,0-20.15-3.54-30.14-3a3.09,3.09,0,0,0-2.15,5.2Z"/><path class="cls-6" d="M64.37,73.55c-4,8.12,2.86,19.86,11.34,21.84C86.07,97.81,94.88,92.06,98,81.94c1.48-4.81-4.9-6.64-7.53-3.18-3.68,4.85-5.85,10.12-13.1,8.44-5.55-1.3-7.23-9-9.21-13.65-.64-1.49-3.13-1.39-3.8,0Z"/><path class="cls-6" d="M95.81,77.4c1.49,4.62,5.85,5.77,10.28,6.1a89.21,89.21,0,0,0,19.65-1.09,132.71,132.71,0,0,0,20.36-4.72c5.21-1.65,11.83-3.31,14.54-8.53a3.09,3.09,0,0,0-3.45-4.48c-4.52,1.2-8.78,3.63-13.28,5a131.64,131.64,0,0,1-15.88,4C119,75.38,107.21,78.14,98.23,75a2,2,0,0,0-2.42,2.42Z"/><path class="cls-6" d="M90.5,90.36c-4.13,2.33-4,9-3.69,13.1.47,6.2,1.5,12.39,2.46,18.53,1.83,11.66,4.75,22.64,15.82,28.75,7.4,4.09,19.38-2.91,15.71-12.08-3.59-9-7.22-18-11-26.85-4.49-10.54-22.36-3-18.59,7.83,2.87,8.28,5.91,16.49,9,24.7l15.72-12.08c-3-1.75-4-4.15-5-7.4-1.57-5.19-3.29-10.33-5.22-15.4C104,105,98.19,86,90.5,90.36Z"/><path class="cls-6" d="M87.28,96.47l.08.12c-6-7.94-16.58-4.8-17.85,4.84-.44,3.27-.2,6.62-.65,9.91a57.22,57.22,0,0,1-3,10.8c-2.52,7.25-5.17,14.44-7.62,21.71l22,3c-.53-8.38.48-17.91,3.71-25.73L81.08,126l.58-.72c3.72-4.67,4.55-11.1,0-15.66-4.17-4.16-11.52-4.34-15.66,0-4.32,4.53-5.4,11.5-6.54,17.46a79.89,79.89,0,0,0-1.58,19.75,11.23,11.23,0,0,0,21.95,3c2.78-8.12,5.65-16.26,7.91-24.55s3.86-18.26.59-26.36l-1,7.38c.3-.64.61-1.27.94-1.9,1.45-2.85.9-5.5-1-7.89Z"/><path class="cls-6" d="M32.42,135.54c9.23-13.49,27.93-19.22,39.51-30.92a11.65,11.65,0,0,0,0-16.22c-4.7-4.7-11.47-4-16.22,0q-9.24,7.77-18.2,15.87c-6.09,5.52-14.93,11.72-15,20.6a9.82,9.82,0,0,0,9.66,9.65c8.53.32,15.62-8.74,21.52-14.07s12.07-10.66,18.24-15.83L55.71,88.4c-3.15,3.16-7,5.33-10.7,7.85-4.56,3.15-9,6.45-13.34,9.92-7.21,5.79-18.07,14.15-18,24.3.1,10.42,13.26,13.06,18.73,5.07Z"/><path class="cls-6" d="M12.7,35.84c-.9,4.8,2.82,10.22,5.53,13.95A49.77,49.77,0,0,0,30,62a70.7,70.7,0,0,0,17.76,8.68c5.36,1.8,13.88,5.77,19.4,3.88a3.41,3.41,0,0,0,1.49-5.64c-3.48-3.8-10.35-4.17-15.11-5.67A97.54,97.54,0,0,1,36.7,56.55c-4.35-2.33-9-5-12.66-8.38-4.11-3.78-5.53-9-9.07-12.93a1.37,1.37,0,0,0-2.27.6Z"/><path class="cls-6" d="M77.27,69.82a1.23,1.23,0,0,0,.85-.35,1.26,1.26,0,0,0,.36-.86,1.24,1.24,0,0,0-.36-.86,1.23,1.23,0,0,0-.85-.35,1.21,1.21,0,0,0-.86,2.07,1.3,1.3,0,0,0,.86.35Z"/><path class="cls-6" d="M78.29,74.64a1.44,1.44,0,0,0,.76-.17,2,2,0,0,0,1.21-1.8l-.07-.52a2.13,2.13,0,0,0-.51-.87l-.4-.31a2.16,2.16,0,0,0-1-.27,1.52,1.52,0,0,0-.76.17,1.8,1.8,0,0,0-1,1,1.38,1.38,0,0,0-.17.75l.07.53a1.93,1.93,0,0,0,.51.87l.39.3a2,2,0,0,0,1,.27Z"/><path class="cls-6" d="M82.05,71l.09.06a1.49,1.49,0,0,0,.74.2,1.47,1.47,0,0,0,.74-.2l.09-.06a1.27,1.27,0,0,0,.46-.43.82.82,0,0,0,.21-.36,1.13,1.13,0,0,0,.14-.63l-.06-.44-.16-.39a1.24,1.24,0,0,0-.42-.46,1,1,0,0,0-.36-.21,1.28,1.28,0,0,0-.64-.14l-.43.06-.4.16a1.35,1.35,0,0,0-.46.43.82.82,0,0,0-.21.36,1.22,1.22,0,0,0-.14.63l.06.44.17.39a1.72,1.72,0,0,0,.58.59Z"/><path class="cls-6" d="M61.79,52.5c2.05,3.26,3.69,6.39,7.43,8,3.38,1.45,6.16-.3,9.27.38,3.66.8,6.32,2.51,10.14.93A5.35,5.35,0,0,0,92,55.19,3,3,0,0,0,89.08,53c-1.59.08-3.15.65-4.69.47-2.34-.27-4.36-1.63-6.78-1.71-2.17-.08-3.51,1.27-5.42,1.56-2.51.38-5.79-2.16-7.89-3.31a1.85,1.85,0,0,0-2.51,2.5Z"/><path class="cls-6" d="M87.1,59.67a13.06,13.06,0,0,0,5.76,10.16c3.52,2.34,9,2.84,12.1-.36,2.81-2.85,0-7.82-3.92-6.74-2,.57-2.79,1-4.65-.37a19.16,19.16,0,0,1-4-4.13c-1.51-2.09-5.52-1.65-5.33,1.44Z"/><path class="cls-7" d="M57.33,8.9c3.65,1.74,6.94,2.81,9.52,6.18,2.37,3.1,3.77,7.1,6.89,9.59A1.52,1.52,0,0,0,76.25,24C78.44,14.48,67.86-.49,57.33,4.12c-1.85.82-1.76,3.94,0,4.78Z"/><path class="cls-7" d="M84.46,37.53c1.78-4.31,2-8.8,3-13.29.83-3.57,6-13.87,10.67-7.69,2.11,2.8,6.47,1.24,5.74-2.42A11,11,0,0,0,84,9.92a3.86,3.86,0,0,0,.6,4.66,4.7,4.7,0,0,0,1.7,1,3.84,3.84,0,0,0,3.74-1c2.69-2.79,6.56-3.33,7.85,1.22l5.25-3.06c-3.94-4.43-11.24-3.64-15.16.45-6,6.27-3.93,15.91-6.46,23.52-.65,1.93,2.24,2.61,3,.82Z"/><path class="cls-7" d="M98.82,52.06c4.47-6.35,10.62-14.31,18.31-16.81a14.71,14.71,0,0,1,11.22.64l.36.85q1.18,1.78.09-.81c.33.42.43,1.29.84,1.82.85,1.09,2.42.91,3.5.45l.44-.18a3.54,3.54,0,0,0,1.64-4c-3.06-8-14.79-7-21.18-4.19-9.19,4-13.5,12.27-18.22,20.5-1.13,2,1.73,3.55,3,1.75Z"/><path class="cls-7" d="M117,64.37c11.7-3.24,22.54-2.46,34.27-.24,4.62.87,6.64-5.94,2-7.14C141,53.84,127.45,56,116,60.84c-2.09.88-1.37,4.17,1,3.53Z"/><path class="cls-7" d="M17,37.75c5.49,1.94,11.4,1.37,16.89,3.67,4.73,2,9,7,14.06,7.44A2.88,2.88,0,0,0,50.79,46c-.2-6.39-8.85-10.72-14.09-12.73-6.11-2.35-14.51-4.24-20.36-.41A2.71,2.71,0,0,0,17,37.75Z"/><path class="cls-7" d="M7.58,84.48A132.12,132.12,0,0,1,26.7,81c4.9-.45,11.81,1.27,16-1.7a1.92,1.92,0,0,0,.38-3c-3.91-4.56-12.87-3-18.12-2.32A45,45,0,0,0,6,80.79a2,2,0,0,0,1.55,3.69Z"/><path class="cls-7" d="M126,95.36a49.55,49.55,0,0,1,10.73,6c3.23,2.31,5.72,5.42,9.06,7.57,2.27,1.46,5.74-1,4.75-3.65-3.32-9-14-14.27-22.77-16.39-4.25-1-5.7,4.9-1.77,6.42Z"/></g></g><path class="cls-8" d="M80.35,20.84c-3-7.76-7.42-13.92-14-16.79-19.12-8.33-17,18.55-9.23,40.43"/><path class="cls-8" d="M94.61,93.06c1.12,1.42,1.73,2.25,1.73,2.25,2.66,2.86,38.4,42,17.12,54.2-12.26,7-20.26-13.92-24.84-32.95"/><path class="cls-8" d="M62,115.33c-6.1,14-9,28.38-2.2,38.11,17.62,25.28,34.77-40.79,28.71-58.3"/><path class="cls-8" d="M82,60C81.24,56.16,71.28,4.08,95.79,4.84c12.34.39,10.72,17.29,6.07,34"/><path class="cls-8" d="M38.74,98.51c-12.82,7.76-23.19,17.62-23.36,29.27C14.94,158.59,67.5,117,72.79,99.24c.45-1.52.93-3,1.44-4.51"/><path class="cls-8" d="M88,64.86c1.62-3.56,23.93-51.67,43.38-36.74C146.9,40.06,109.53,65.27,94,74.88"/><path class="cls-8" d="M94.65,73c4-2.15,6.55-3.36,6.55-3.36,3.32-2,48.75-29.4,56.51-6.14S93.09,80.85,93.09,80.85"/><path class="cls-8" d="M5.83,81.09c-17.62,25.27,49.22,20.25,63.55,8.5"/><path class="cls-8" d="M71.53,62.86c-14.16-17-35-36.6-52.37-31.27C-.62,37.65,18,56.44,38,68"/><path class="cls-8" d="M94.84,80.09c4,.7,6.47,1.26,6.47,1.26,3.88.45,56.52,6.92,48.28,30-6.92,19.42-45.74-12.31-57.92-22.91"/><ellipse class="cls-8" cx="79.59" cy="78.65" rx="14.98" ry="17.66"/></g></g></svg>