<svg xmlns="http://www.w3.org/2000/svg" xmlns:xlink="http://www.w3.org/1999/xlink"
  viewBox="0 0 117.06 185.99" style="fill: rgb(0, 0, 0);" original_string_length="4232"
  width="70.26371414740105px" height="112.01461675672631px">
  <defs>
    <clipPath id="__id7_syuqqwrjs">
      <path
        d="M85.37,53.11c-.66,1.66-28.87,12.28-35.5-12S71.76,13.63,71.76,13.63,94.33,12,96.32,29.55,85.37,53.11,85.37,53.11Z"
        style="fill: none;" />
    </clipPath>
    <clipPath id="__id8_syuqqwrjs">
      <path
        d="M15,112.17c0,.33,6,14.93,22.89,3.65s3-22.56,3-22.56-9.7-10.56-21.24-2.33S15,112.17,15,112.17Z"
        style="fill: none;" />
    </clipPath>
  </defs>
  <g data-name="Calque 2">
    <g data-name="Warstwa 4">
      <path d="M79.72,47.45s50,47.78-6.37,133.72" stroke="#4c1216" stroke-linecap="round"
        stroke-miterlimit="10" stroke-width="5" style="fill: none;" />
      <path d="M34.27,108.17s35.83,34.39,21.89,68" stroke="#4c1216" stroke-linecap="round"
        stroke-miterlimit="10" stroke-width="5" style="fill: none;" />
      <path
        d="M86,54.09c-.67,1.66-28.87,12.27-35.51-12S72.42,14.6,72.42,14.6,95,13,97,30.53,86,54.09,86,54.09Z"
        stroke="#231f20" stroke-miterlimit="10" stroke-width="5" style="fill: rgb(254, 222, 0);" />
      <path
        d="M15.69,113.15c0,.33,6,14.93,22.89,3.65s3-22.56,3-22.56-9.71-10.57-21.24-2.33S15.69,113.15,15.69,113.15Z"
        stroke="#231f20" stroke-miterlimit="10" stroke-width="5" style="fill: rgb(254, 222, 0);" />
      <path d="M26.3,157.61c1,1.66,14.6,12.94,14.93,23.56" stroke="#4c1216" stroke-linecap="round"
        stroke-miterlimit="10" stroke-width="5" style="fill: none;" />
      <path d="M28.63,183.49s-2.33-8-12.28-14.1" stroke="#4c1216" stroke-linecap="round"
        stroke-miterlimit="10" stroke-width="5" style="fill: none;" />
      <path d="M97.18,183.49s17-11.61,17.38-23.89" stroke="#4c1216" stroke-linecap="round"
        stroke-miterlimit="10" stroke-width="5" style="fill: none;" />
      <g opacity=".5">
        <g clip-path="url(#__id7_syuqqwrjs)">
          <path
            d="M46.82,20.58s4.61,21.8,22,21.29,33.88-13.17,34.55-14.24-1.61,26.64-1.61,26.64-33.45,7.18-35.49,8.11-25-25.81-25-25.81Z"
            style="fill: rgb(255, 144, 162);" />
          <path
            d="M63.15,7.51c-1,1.68-7.7,22.72,10.2,20.12S110.59,16,100.16,7.51,63.15,7.51,63.15,7.51Z"
            style="fill: rgb(230, 255, 242);" />
        </g>
      </g>
      <g opacity=".5">
        <g clip-path="url(#__id8_syuqqwrjs)">
          <path
            d="M21.22,77.8c-1.45,7,.18,17.27,9.07,18.5S49.13,93.88,47,87.79,21.22,77.8,21.22,77.8Z"
            style="fill: rgb(230, 255, 242);" />
          <path
            d="M6.58,88.77s5.23,18.46,22,18.71,22.8-11.31,22.8-11.31L33.77,132.76S6.66,124.18,6.58,122.09,6.58,88.77,6.58,88.77Z"
            style="fill: rgb(255, 144, 162);" />
        </g>
      </g>
      <path
        d="M85.37,54.32C84.71,56,56.5,66.6,49.87,42.38S71.76,14.84,71.76,14.84s22.57-1.66,24.56,15.92S85.37,54.32,85.37,54.32Z"
        stroke="#4f1917" stroke-miterlimit="10" stroke-width="5" style="fill: none;" />
      <path
        d="M15,113.38c0,.33,6,14.93,22.89,3.65s3-22.56,3-22.56-9.7-10.56-21.24-2.32S15,113.38,15,113.38Z"
        stroke="#4f1917" stroke-miterlimit="10" stroke-width="5" style="fill: none;" />
      <path
        d="M88.79,30.33c5.63-1.06,11.85-5.42,15.57-9.67,2.5-2.86-1.19-6.33-4.08-4.08-2.17,1.7-4.26,3.51-6.53,5.09s-4.68,2.63-6.83,4.2a2.45,2.45,0,0,0,1.87,4.46Z"
        style="fill: rgb(254, 222, 0);" />
      <path
        d="M69.58,19.06A61.37,61.37,0,0,1,65.15,8.75c-1-3-1.6-5.83-3.68-8.27-.83-1-2.2-.3-2.59.68-2.62,6.58,2.67,15.21,6.25,20.5,1.85,2.73,6.08.34,4.45-2.6Z"
        style="fill: rgb(254, 222, 0);" />
      <path
        d="M60.36,27.35c-1.89-2-3.76-4.14-5.76-6.05-.92-.88-2-1.53-3-2.36s-1.87-1.88-3.24-2.11a1.57,1.57,0,0,0-2,1.49c-.12,1.4.62,2.45,1.31,3.63a26.32,26.32,0,0,0,2.41,3.84,34.75,34.75,0,0,0,6.9,5.9c2.68,1.82,5.44-2.12,3.35-4.34Z"
        style="fill: rgb(254, 222, 0);" />
      <path
        d="M68,45.8c-7.16,3.78-10.5,10.8-8.53,18.64.66,2.65,4.46,2,4.6-.62a20.27,20.27,0,0,1,7.11-13.9C73.62,48,70.53,44.47,68,45.8Z"
        style="fill: rgb(254, 222, 0);" />
      <path
        d="M36.84,101.33c2.58.36,4.51-.77,6.66-2.1s4.77-2.7,5.75-5a1.76,1.76,0,0,0-2-2.55c-2.31.53-4.09,2.44-6,3.71s-3.92,2.13-5.13,4.17a1.22,1.22,0,0,0,.73,1.79Z"
        style="fill: rgb(254, 222, 0);" />
      <path
        d="M21.69,96.48a45.54,45.54,0,0,0-4.54-7c-1.48-1.87-3.22-4-5.59-4.73a1.56,1.56,0,0,0-1.9,1.9c.47,2.47,2.7,4.56,4.46,6.23a45.34,45.34,0,0,0,6.22,5c.86.57,1.78-.53,1.35-1.35Z"
        style="fill: rgb(254, 222, 0);" />
      <path
        d="M19.61,102.63c-5.64-1.1-14-2.79-18.93,1A1.47,1.47,0,0,0,1,106.29c5.35,2.13,13.08-.37,18.58-1.12,1.29-.18,1.22-2.3,0-2.54Z"
        style="fill: rgb(254, 222, 0);" />
    </g>
  </g>
</svg>