<svg xmlns="http://www.w3.org/2000/svg" xmlns:xlink="http://www.w3.org/1999/xlink" viewBox="0 0 250.2 289.14"><defs><style>.cls-1,.cls-10,.cls-11,.cls-9{fill:none;}.cls-2{fill:#106c44;}.cls-2,.cls-3,.cls-4{stroke:#231f20;}.cls-10,.cls-2,.cls-3,.cls-9{stroke-miterlimit:10;}.cls-10,.cls-11,.cls-2,.cls-3,.cls-4,.cls-9{stroke-width:5px;}.cls-3,.cls-4{fill:#bd64ea;}.cls-11,.cls-4{stroke-linecap:round;stroke-linejoin:round;}.cls-5{opacity:0.43;}.cls-6{clip-path:url(#clip-path);}.cls-7{fill:#901a3d;}.cls-8{fill:#e6fff2;}.cls-11,.cls-9{stroke:#311f3b;}.cls-10{stroke:#1f2a24;}</style><clipPath id="clip-path"><path class="cls-1" d="M236,184.05S263.53,61.5,230.6,109c-22.71,32.73-24.67,77.46-23.69,102.11C202.07,200,194.55,190.57,188.47,181c-18.46-29.08-51.61-54.07-68.16-65.45,20.1-15.81.17-30.76-5-34.17.44-1.28.94-3.17,1.49-5.53,4.75-5.38,9.5-10.41,13.85-13.76,14.6-11.23,39.4-47.59,15.47-39.73-6.34,2.07-14.84,8.06-23.92,15.73,1.23-18.68-.24-36-9.07-35.57C98.24,3.19,99.1,45,99,59.71l-1.42,1.44c-6-23.93-23.44-68.35-33.9-50.78C55.26,24.59,81.1,76.85,81.1,76.85s-50.92-79.09-44.16-36c5,32,13,42.61,16.73,45.93-11.8-8-68.8-45.83-41.88-9.24,7.79,10.6,15.82,17.68,23.56,22.31-21.89,4.79-44,11.38-26.21,15.74,27.19,6.66,64.5-6.12,74.21-10,1.84,7,8.63,24.78,28.28,15.38a277.68,277.68,0,0,1,58.53,51.66c-.69-.46-1.43-1-2.25-1.67-8.28-6.69-86.45-32.6-66.69-10.2,18.07,20.47,68.38,21.73,76.86,21.8,20.22,26.87,36.56,61.34,35.66,102.06,0,0,8.43,4.05,10,0,1-2.51-1.34-28.79-10.34-56.43C225.78,221.16,236,184.05,236,184.05Z"/></clipPath></defs><g id="Calque_2" data-name="Calque 2"><g id="Layer_24" data-name="Layer 24"><path class="cls-2" d="M235.81,184.28s27.57-122.55-5.36-75.06c-22.7,32.73-24.66,77.47-23.69,102.11-4.84-11.07-12.36-20.53-18.44-30.11-25.28-39.82-78.13-72-78.13-72l-4.4,8.43s34.3,19.71,64.22,55.2c-.68-.46-1.43-1-2.25-1.67-8.28-6.69-86.45-32.59-66.69-10.2,18.07,20.48,68.38,21.74,76.86,21.8,20.22,26.87,36.57,61.35,35.67,102.06,0,0,8.42,4.05,10,0,.95-2.51-1.34-28.79-10.34-56.43C225.63,221.4,235.81,184.28,235.81,184.28Z"/><path class="cls-3" d="M85.53,104.79c-1.81,1.11-45.7,18.58-76.54,11S67.2,94,67.2,94,122,30.44,146,22.58s-.87,28.51-15.47,39.74-33.7,41.36-42.18,40.48"/><path class="cls-4" d="M83.42,103.77s-38.07,19.81-71.78-26c-29.94-40.7,44,10.68,44,10.68S43.55,84.15,36.79,41.07,81,77.09,81,77.09,55.11,24.83,63.58,10.61c10.72-18,28.83,29.23,34.34,52.62C101.27,77.45,93.14,3.66,113,2.74c19.07-.88,3.79,81,1.16,80.78S83.42,103.77,83.42,103.77Z"/><path class="cls-2" d="M82.62,103.2s5.31,33.25,33.5,15.42c30.07-19-2.1-37.74-2.1-37.74Z"/><g class="cls-5"><g class="cls-6"><path class="cls-7" d="M10,115.8c13.47,3.43,27.41,2.88,41.14,1.34,3-.33,5.62-2.28,5.57-5.57a4.94,4.94,0,0,0-.2-1.48c-.94-3.07-3.8-4.44-6.85-3.89-13.13,2.39-26.46,3-39.66,4.81-2.51.35-2.22,4.23,0,4.79Z"/><path class="cls-7" d="M29.24,91.57C41,106.6,64.09,111,81.93,106.68a63.94,63.94,0,0,0,24.6-12.05,48.93,48.93,0,0,0,9.16-9.58c3-4,6.71-8,5.16-13.38-.68-2.35-3.32-4.92-6-4.57-5.16.66-6.53,3.43-9.89,6.85a90.54,90.54,0,0,1-8,6.9A59.13,59.13,0,0,1,78.38,91c-7.76,2.47-15.62,3.14-23.71,3.11-8.26,0-16.27-2.6-24.2-4.62a1.27,1.27,0,0,0-1.23,2.11Z"/><path class="cls-7" d="M118.49,72.33c8.06-6.18,15.23-13.55,23-20.17,3.34-2.85,6.69-5.58,9.21-9.25s2.89-7.09,2.67-11.33a1.79,1.79,0,0,0-3.32-.89c-1.86,2.89-5.56,5.32-8.35,7.42-3.43,2.59-6.8,5.18-10,8.06-6.8,6.12-13.62,13.25-18,21.35-1.5,2.81,1.83,7.11,4.81,4.81Z"/><path class="cls-7" d="M86.87,95c-9.88,8.63.59,21.86,9.72,25.23a16.08,16.08,0,0,0,15.27-1.67c4-2.75,8.15-4.09,9-9.39l-1.6,1.61c3-1.08,5.36-1.19,7.74-3.46,2.21-2.12-.66-5.91-3.3-4.27a37,37,0,0,1-5.66,3.3l2.23.59a9.25,9.25,0,0,0-5-2.65,31.3,31.3,0,0,1-7.81-2.13c-2-.79-4.52-.77-6.2-2.14-1-.82-1.38-2-2.06-3.44-2.36-4.82-8.79-4.66-12.31-1.58Z"/><path class="cls-7" d="M120,110.34l.14.22,2-4.86-1.36.46a6,6,0,0,0-1.84.92,12.65,12.65,0,0,0-1,.89l-.67.86a3.23,3.23,0,0,0-.5,1.58,4.13,4.13,0,0,0,.5,2.71,5.16,5.16,0,0,0,1.53,1.52,4.25,4.25,0,0,0,3.27.43,10.66,10.66,0,0,0,1.74-.73,4.25,4.25,0,0,0-3.27-7.75,10.13,10.13,0,0,0-1.74.72l5.14,6.67c.19-.2.39-.39.57-.6a6.54,6.54,0,0,0,1.26-2.26l.47-1.35a3.31,3.31,0,1,0-6.38,0,2.25,2.25,0,0,0,.19.57Z"/><path class="cls-7" d="M113.41,117.78c1.52,3.28,5.09,5.51,7.93,7.59,2.55,1.88,5.9,4,9.16,2.71a1.23,1.23,0,0,0,.82-1.45c-.48-3.28-3.55-5.24-6-7-2.85-2-5.4-4.73-8.75-5.89-2.49-.87-4,2.07-3.12,4.06Z"/><path class="cls-7" d="M98.39,162.5c20.3,15.64,45.83,20.05,70.9,19.56,7.72-.15,7.74-12.15,0-12-23.21.46-46.06-3.44-64.84-17.92-2.59-2-6.7-.38-8.21,2.15-1.84,3.07-.4,6.24,2.15,8.21Z"/><path class="cls-7" d="M219.88,226.07c16.47-28.22,21.59-60.76,30.08-91.84,2-7.46-9.53-10.65-11.57-3.19-8.2,30-13,61.71-28.87,89-3.91,6.68,6.46,12.73,10.36,6.06Z"/><path class="cls-8" d="M38.12,33.22c5.68,7.19,12.26,13.51,18.22,20.47,3,3.45,5.85,7,8.77,10.46,2.54,3,5,6.84,8.35,9,1.65,1.07,3.17-.7,3-2.28-.57-4.19-3.59-8.51-5.89-12a100.55,100.55,0,0,0-8.39-11c-6.26-7.15-12.91-13.63-21.35-18.12-2.33-1.23-4.18,1.55-2.67,3.46Z"/><path class="cls-8" d="M7.67,67.47A96.07,96.07,0,0,1,28.49,78.9C34.12,82.85,39.94,89,46.93,90.19a2,2,0,0,0,2.17-2.82C46,80.67,37.4,76.06,31.17,72.63a67.81,67.81,0,0,0-22.7-8,1.5,1.5,0,0,0-.8,2.89Z"/><path class="cls-8" d="M63.18,12.24c1.91,3.27,5.7,5.1,8.08,8.11a56.54,56.54,0,0,1,6.22,10.2c3.49,7.12,5.59,17,12.1,22a2,2,0,0,0,3.36-1.39c.82-9.53-4.17-21.17-8.54-29.46C81.08,15.39,72.82,3.39,64.48,7.3c-1.77.83-2.21,3.37-1.3,4.94Z"/><path class="cls-8" d="M108.14,4.64c-.73,2.89.46,5.08,1.06,7.86a75,75,0,0,1,1.31,9.79c.66,7.75.49,16.16,3.74,23.34,1.1,2.45,4.87,2.14,6.07,0,4.52-8.08,3.47-18.84,2.06-27.65-.9-5.59-3.68-16.25-11.12-15.71a3.33,3.33,0,0,0-3.12,2.37Z"/><path class="cls-8" d="M128,41.25c4.76-1.39,8.6-4.61,12.88-7,3.53-2,10.09-2.91,11.3-7.21a2.61,2.61,0,0,0-.67-2.55c-4-3.7-10.89.58-14.72,2.77C132,30,127.25,33.78,126,39.35a1.57,1.57,0,0,0,1.91,1.9Z"/><path class="cls-8" d="M213.24,182.79c4.3-13.37,7.83-26.95,13.12-40,2.71-6.69,5.91-13.16,9.26-19.55,3.1-5.91,7.46-11.56,9.67-17.86,1.37-3.9-3.82-6.2-6.5-3.78-5.28,4.74-8.76,12.28-12,18.49a173.31,173.31,0,0,0-8.64,19.52c-5.14,13.58-9,28-9,42.61a2.12,2.12,0,0,0,4.14.56Z"/></g></g><path class="cls-9" d="M121.72,38.5c9.26-7.88,18-14,24.41-16.15,23.93-7.86-.87,28.5-15.47,39.73-4.17,3.21-8.71,8-13.26,13.09"/><path class="cls-9" d="M72.63,109.35c-15.73,5-42.6,11.35-63.49,6.23-17.86-4.37,4.48-11,26.45-15.79"/><path class="cls-10" d="M111.77,121.05a277.54,277.54,0,0,1,58.39,51.57c-.69-.46-1.43-1-2.25-1.67-8.28-6.69-86.45-32.6-66.69-10.2,18.07,20.47,68.38,21.73,76.86,21.8,20.22,26.87,36.56,61.34,35.66,102.06,0,0,8.43,4.05,10,0,1-2.51-1.34-28.79-10.34-56.43,12.42-7,22.6-44.13,22.6-44.13S263.53,61.5,230.6,109c-22.71,32.73-24.67,77.46-23.69,102.11C202.07,200,194.55,190.57,188.47,181c-18.25-28.75-50.87-53.52-67.6-65.07"/><path class="cls-9" d="M85.68,104.56a110.12,110.12,0,0,1-13.05,4.79"/><path class="cls-11" d="M83.57,103.54s-38.08,19.81-71.78-26c-29.95-40.7,44,10.67,44,10.67S43.7,83.92,36.94,40.84s44.16,36,44.16,36S55.26,24.59,63.72,10.37C74.45-7.66,92.56,39.61,98.07,63c3.34,14.22-4.78-59.58,15.07-60.49,19.08-.88,3.79,81,1.17,80.77S83.57,103.54,83.57,103.54Z"/><path class="cls-10" d="M82.77,103s5.31,33.26,33.5,15.43c30.07-19-2.1-37.74-2.1-37.74Z"/></g></g></svg>