<svg xmlns="http://www.w3.org/2000/svg" xmlns:xlink="http://www.w3.org/1999/xlink" viewBox="0 0 140.01 232.88"><defs><style>.cls-1,.cls-10,.cls-11,.cls-12{fill:none;}.cls-2{fill:#79ffa3;}.cls-2,.cls-3,.cls-4{stroke:#231f20;}.cls-10,.cls-12,.cls-2,.cls-4{stroke-miterlimit:10;}.cls-10,.cls-11,.cls-12,.cls-2,.cls-3,.cls-4{stroke-width:5px;}.cls-3{fill:#ff90c7;}.cls-11,.cls-3{stroke-linecap:round;stroke-linejoin:round;}.cls-4{fill:#fdfc80;}.cls-5{fill:#f8bfd8;}.cls-6{opacity:0.35;}.cls-7{clip-path:url(#clip-path);}.cls-8{fill:#901a3d;}.cls-9{fill:#e6fff2;}.cls-10{stroke:#1b3328;}.cls-11{stroke:#4d0034;}.cls-12{stroke:#4f3905;}</style><clipPath id="clip-path" transform="translate(0.32)"><path class="cls-1" d="M136.13,219.42c-1.74-2.73-15-9.35-28.59-19.46,8.45-7.36,16.21-25.34,19.26-33a21.13,21.13,0,0,0,1.5-7.61c.12-11.36-1.61-41.31-24.91-17.65-14.71,14.94-15.8,30.71-13.46,42.42a60.87,60.87,0,0,1-9.54-14.22c-11.57-24.73-9.47-28.25-6.68-56.25a24.25,24.25,0,0,0,2.72,7.1c7.6,12.09,11.72,17,28.3,12.09S126,111.08,126,111.08s1-17.31-9.75-20.91c-1.24-.42-2.79-.86-4.55-1.32,11-2.3,20.11-7.4,21.28-13.52.46-2.41.33-28.59-22-27.06a56.09,56.09,0,0,0-28.82,10C97.2,28,79.74,5.37,79.74,5.37S69.73-5.86,51.86,16.1C41.66,28.63,45.76,43,51.17,53a30,30,0,0,0-4.83-1.17c-19.5-3.06-34.82-6.13-38.91,0S1.3,64.1,7.43,74.31,16.6,89.17,23.76,90.17a109.77,109.77,0,0,0,12.83,1.17c-9.39,7.73-17.48,18.46-12,30.47,5.72,12.63,19.61,20.4,23.39,18,2.55-1.59,6-4.39,10.1-10.59-1.27,14.9.22,33.25,10.4,49.46C90.12,213.23,131.26,230,131.26,230S139.23,224.29,136.13,219.42Z"/></clipPath></defs><g id="Calque_2" data-name="Calque 2"><g id="Warstwa_7" data-name="Warstwa 7"><path class="cls-2" d="M56.84,131c-1,14.58.75,32.14,10.54,47.72C89.06,213.23,130.2,230,130.2,230s8-5.75,4.86-10.62c-1.73-2.73-15-9.35-28.58-19.46,8.45-7.36,16.2-25.34,19.25-33a21.36,21.36,0,0,0,1.51-7.61c.12-11.36-1.62-41.31-24.91-17.65-14.71,14.94-15.81,30.71-13.47,42.42a61.18,61.18,0,0,1-9.54-14.22c-12.83-27.43-8.85-28.75-5.75-66.36S63.4,100,63.4,100a113.41,113.41,0,0,0-6.56,31" transform="translate(0.32)"/><path class="cls-3" d="M59,65.63s-26-27.58-8.17-49.53S78.68,5.37,78.68,5.37s19.2,24.82,0,57.35S59,65.63,59,65.63Z" transform="translate(0.32)"/><path class="cls-3" d="M131.86,75.33c.46-2.41.33-28.59-22-27.06S75.81,62.72,75.81,62.72s-1,14.32,0,15.25,4,11.66,20.38,12.17S130.21,84,131.86,75.33Z" transform="translate(0.32)"/><path class="cls-3" d="M71.22,81s-2.44,29.31,4.14,39.77c7.6,12.09,11.72,17,28.3,12.09s21.23-21.73,21.23-21.73,1-17.31-9.76-20.91S71.22,81,71.22,81Z" transform="translate(0.32)"/><path class="cls-3" d="M66.1,87.45S47,82.38,37,90.18s-19.21,19-13.49,31.63,19.6,20.4,23.39,18,9.59-7.39,16.47-22.3S66.1,87.45,66.1,87.45Z" transform="translate(0.32)"/><path class="cls-3" d="M65.87,74.31c-1.29-2-1.1-19.4-20.6-22.47s-34.82-6.13-38.9,0S.24,64.1,6.37,74.31,15.54,89.17,22.7,90.17s25.65,3.54,33.89-4.34S65.87,74.31,65.87,74.31Z" transform="translate(0.32)"/><circle class="cls-4" cx="67.64" cy="77.44" r="16.94"/><path class="cls-5" d="M57.18,72l-.06.21a2.69,2.69,0,0,0-.13.87l.11.8a2.86,2.86,0,0,0,.32.74,3,3,0,0,0,5.13,0,1.84,1.84,0,0,0,.17-.38A2.32,2.32,0,0,0,63,73.09a2.8,2.8,0,0,0-.13-.87L62.79,72l-.3-.7a2.14,2.14,0,0,0-.74-.81,1.53,1.53,0,0,0-.65-.38A2.25,2.25,0,0,0,60,69.87l-.77.11-.69.29a2.19,2.19,0,0,0-.82.75,2.25,2.25,0,0,0-.52,1Z" transform="translate(0.32)"/><path class="cls-5" d="M58.41,82.52l.17.15a1.5,1.5,0,0,0,.64.41,1.54,1.54,0,0,0,.76.17l.53-.07a2.11,2.11,0,0,0,.88-.51l.17-.15.35-.45.22-.53a1.69,1.69,0,0,0,0-.89,1.09,1.09,0,0,0-.15-.56,1.07,1.07,0,0,0-.29-.49,1.1,1.1,0,0,0-.4-.4,1.16,1.16,0,0,0-.49-.29,1.67,1.67,0,0,0-.86-.19l-.59.08-.53.23-.45.34-.35.45-.22.54a1.55,1.55,0,0,0,0,.88,1.16,1.16,0,0,0,.15.57,1.65,1.65,0,0,0,.46.71Z" transform="translate(0.32)"/><path class="cls-5" d="M65.06,79.69a4.41,4.41,0,0,0,.59.26,1.35,1.35,0,0,0,.69,0,1.28,1.28,0,0,0,.65-.21l0,0,.1,0a1.8,1.8,0,0,0,.25-.18,1.56,1.56,0,0,0,.53-.58l.21-.5a1.57,1.57,0,0,0,0-.83,1.47,1.47,0,0,0-.25-.78l-.32-.42a2.1,2.1,0,0,0-.92-.54l-.56-.07a1.57,1.57,0,0,0-.8.18,1.55,1.55,0,0,0-.67.43l-.33.42a1.67,1.67,0,0,0-.25.78,1.57,1.57,0,0,0,0,.83l.21.5a2.24,2.24,0,0,0,.75.75Z" transform="translate(0.32)"/><g class="cls-6"><g class="cls-7"><path class="cls-8" d="M130.86,222a1.84,1.84,0,0,0-.66-.12,3.07,3.07,0,0,0-1.59.08l-.21.05,4.63,6a1.43,1.43,0,0,1,.14-.2l-.66.85.1-.11.06-.06a3.35,3.35,0,0,0,.9-1.39c.12-.29.22-.56.33-.84l-.43,1,0-.08a3.14,3.14,0,0,0,.5-1.59,3.18,3.18,0,0,0-.07-1.7l-.43-1a3.26,3.26,0,0,0-1.1-1.2,2.17,2.17,0,0,0-.95-.55,3.17,3.17,0,0,0-1.64-.37,4.33,4.33,0,0,0-3,1.26,6.52,6.52,0,0,0-.84,1.06.35.35,0,0,0-.08.16,3.2,3.2,0,0,0-.52,1.61,4.64,4.64,0,0,0,.1,1.87c0,.1.05.2.08.3a4.81,4.81,0,0,0,1.06,1.81l.83.64A3,3,0,0,0,129,230a2,2,0,0,0,1.09,0,2,2,0,0,0,1-.28,2,2,0,0,0,.91-.52A3.15,3.15,0,0,0,133,228a8.39,8.39,0,0,0,.49-1.16,3.93,3.93,0,0,0-1-3.89l-.44-.35a2.67,2.67,0,0,0-1.2-.63Z" transform="translate(0.32)"/><path class="cls-8" d="M53.66,68.44c-6.92,6.72-5.12,18,2.78,23.35,7.63,5.15,21.23,3.3,24.7-6.08,1.34-3.63-3.41-7.07-6.55-5-4.06,2.65-7.76,6.19-12.93,3.3-4.3-2.41-5.79-9.13-4.74-13.65a2,2,0,0,0-3.26-1.89Z" transform="translate(0.32)"/><path class="cls-8" d="M75.54,90.16C74.25,101.59,80.35,115,90,121.57c9.16,6.24,21.65,5.46,31.55,1.55l-5.1-8.75a24.81,24.81,0,0,1-11.15,7.21c-3.83,1.28-10.13,3.6-13.78,1-3.31-2.34-5.68-7.47-7.45-10.95a26.13,26.13,0,0,1-2.51-6.71c-.51-2.64.16-4.87.28-7.47a4.87,4.87,0,0,0-2.45-4.28l-.46-.25c-2.44-1.32-6.12-.26-6.73,2.75-1.48,7.23-1.15,12.86,2.08,19.67,2.72,5.72,6.51,12.75,12,16.27,5.88,3.8,13.21,2.44,19.56.65,6.84-1.92,13.21-5.22,18-10.51,3.24-3.54.13-10.71-5.1-8.75-7.44,2.79-16.48,4.28-23.52-.42-7.55-5-11.19-15.9-14.79-23.76-1.21-2.65-4.64-.94-4.89,1.32Z" transform="translate(0.32)"/><path class="cls-8" d="M57.28,90c-9.69,10.16-16.87,26-31.56,29.59-3.87,1-4.41,5.52-2.17,8.23a57.25,57.25,0,0,0,19.38,15.06c2.57,1.23,6.77.46,7.31-3a11.07,11.07,0,0,0-1-7.17c-.47-.94-3.18-4.47-3.1-4.8L38.66,131l8,5.87c3.62,2.65,9.15-1.77,7.67-5.89q-2.39-6.63-5.41-13l-8.36,6.45a46,46,0,0,0,10.18,6.85c2.94,1.42,7.18.42,8-3.24a14.67,14.67,0,0,0-.51-8.37c-.9-2.54-2.87-5.1-3.11-7.82l-9.47,3.92,8.23,6.85c3.19,2.67,8.06,1.8,9.33-2.47a13.56,13.56,0,0,0-.23-8.47c-.89-2.69-2.62-5.14-2.49-8l-9.56,4a52.75,52.75,0,0,0,7.91,6.46c4.56,3.08,8.84-2,8.24-6.33a55.32,55.32,0,0,0-2.81-11.41L56,102.68c4.3,1.87,9.49,2.31,12-2.49,3.37-6.41-6.35-12.11-9.71-5.68L61.62,93c-4-1.71-10.13,1.21-8.25,6.35a55.3,55.3,0,0,1,2.84,11.4l8.23-6.33a38.51,38.51,0,0,1-5.65-4.7c-3.55-3.52-9.36-.82-9.56,4a17.38,17.38,0,0,0,1.36,7.25c.75,1.88,2.4,4.25,1.79,6.29l9.34-2.46q-4.11-3.44-8.28-6.79c-3.27-2.62-10-1.4-9.47,3.92a22.17,22.17,0,0,0,1.93,7.19c.76,1.69,2.71,4.2,2.33,6.12l8-3.24a35.94,35.94,0,0,1-8.12-5,5.36,5.36,0,0,0-8.37,6.46,111.26,111.26,0,0,1,4.54,10.38l7.67-5.89-8.08-5.71c-2.59-1.82-6.92,0-7.52,3.06a10.64,10.64,0,0,0,1.08,7.64c1,1.82,3.35,3.62,3.07,5.73l7.49-4.3a46.49,46.49,0,0,1-17.44-13.43l-2.17,8.22c8.2-1.91,14.93-7.15,20.17-13.6,5.45-6.71,10.76-14.7,12.8-23.13.56-2.27-2.31-4.15-4-2.35Z" transform="translate(0.32)"/><path class="cls-8" d="M49.33,84.28c-2.19-2.37-5.11-1.94-8-1.76A90.67,90.67,0,0,1,29,82.89c-8.35-.61-15.32-3.72-19.38-11.25L2.4,78.82C10,83.32,17.29,88,25.89,90.28c6.84,1.83,17.8,3.51,23.2-2.29a3.37,3.37,0,0,0-1.47-5.56c-3-1-6.18-.45-9.33-.53A40.33,40.33,0,0,1,26.93,80,66.87,66.87,0,0,1,7.7,69.76C4.19,67.15-1.73,71.55,0,75.68,4.47,86.45,15,92,26.23,93.07a42.62,42.62,0,0,0,18-1.93c2-.72,7.89-3.89,5.15-6.86Z" transform="translate(0.32)"/><path class="cls-8" d="M32.23,93.46c7.09,6.92,18.76,7,27.65,3.92A4.81,4.81,0,0,0,63.24,94l.19-1a3.54,3.54,0,0,0-1.55-3.81c-3.82-2.73-9,.53-13.19.9-5,.42-9.86-.45-14.82-.61a2.35,2.35,0,0,0-1.64,4Z" transform="translate(0.32)"/><path class="cls-8" d="M83.63,82.38c7.47,6.75,17.12,7,26.72,5.57a70,70,0,0,0,13.88-3.17c4.73-1.75,7.33-5.7,11.59-8l-7.89-7.89c-.61,1.37-1.19,2.75-1.77,4.13-2.49,5.92,7.41,10,10.35,4.37.48-.89.93-1.78,1.37-2.68,2.54-5.07-2.65-10.79-7.88-7.89-3.12,1.73-5.17,4.71-8.15,6.52-3.31,2-8.15,2.59-11.9,3.39a78,78,0,0,1-24.43,1.13c-2.31-.25-3.52,3.09-1.89,4.56Z" transform="translate(0.32)"/><path class="cls-8" d="M67.46,54.81c-5.36-4.46-10.7-8.21-13.42-15a33.05,33.05,0,0,1-1.9-12.71c0-3.8.88-7.52-1.34-10.82a3.3,3.3,0,0,0-5.12-.66c-3.28,3.53-3,8.71-2.84,13.31A39.85,39.85,0,0,0,45.9,44.19C49.11,51.51,56.05,59,64.29,60.26c2.81.42,6-3.11,3.17-5.45Z" transform="translate(0.32)"/><path class="cls-8" d="M68.2,110.16c-3.26,4.47-5.77,9.84-8.59,14.63a104,104,0,0,0-7.78,15.64c-3.17,8.34-6.66,23.18,3.11,28.4A3.09,3.09,0,0,0,59.41,167c1.74-4.64.69-8.88,1.21-13.67.56-5.21,2.56-10.18,4.8-14.88,3.63-7.64,12-18.68,8.61-27.54a3.24,3.24,0,0,0-5.83-.76Z" transform="translate(0.32)"/><path class="cls-8" d="M94.76,196.36c8.46,9.81,22.39-3.74,27.61-10.63a92.88,92.88,0,0,0,9.44-16c2.91-6,6.16-12,6.13-18.89,0-6.53-9.5-7.79-11.33-1.53A77.76,77.76,0,0,1,115.07,173a74.25,74.25,0,0,1-8.17,9.45c-3.25,3.2-7.61,5.7-10.46,9.19-3,3.7-.34,10.74,5.15,8.85,9-3.12,17-13,22.51-20.42a87.12,87.12,0,0,0,13.63-27.66l-11.33-1.54c0,4.67-2.56,9-4.54,13.07s-3.93,7.9-6.22,11.65a53.73,53.73,0,0,1-7.47,9.71c-2.9,3-7.41,7.91-12,7.58-1.91-.13-2.51,2.26-1.45,3.48Z" transform="translate(0.32)"/><path class="cls-8" d="M62.27,183.85c.22,5.21,3.66,8.56,7.94,11.25,5.93,3.74,12.62,6.41,18.94,9.4,14.09,6.68,28,13.81,41.71,21.21l3-11a46.18,46.18,0,0,1-18.8-4.41c-5.75-2.76-10.12-7.78-15.92-10.17-3.44-1.42-7.68,2.86-6.29,6.28,2.87,7.07,11,11.73,17.7,14.79a59.54,59.54,0,0,0,23.31,5.36c5.81.16,8.14-8.26,3-11-12.68-6.85-25.65-13-38.93-18.6-11-4.63-23.32-7.42-33-14.57a1.79,1.79,0,0,0-2.68,1.54Z" transform="translate(0.32)"/><path class="cls-9" d="M76.06,69.66c-.17-.32-.21-.31-.12,0,0-.3,0-.35,0-.14.1-.32.11-.34,0-.09a4.39,4.39,0,0,1,.27-.47l-4.75.61c-.42-.48.35.43.38.47-.35-.47,0,.07.1.17.26.37.52.74.75,1.13l.29.54c.21.41,0,.21,0-.08.13.5.3,1,.39,1.47l1.92-4.71a2.75,2.75,0,0,1,1.16-.28c.17,0,1,.13.4,0l.55.22-.26-.15-.25-.17c.46.37.56.44.31.21s-.3-.3-.44-.45-.59-.67-.1-.09-.14-.49.21.36c.13.36.17.43.1.2q-.61-2.43-1.78,4.2l-2.42.66c-1.51-.58-1.9-.66-1.18-.24.43.3.37.24-.19-.18.28,0,.77.69,1,.89s.29.33.43.5c-.44-.58-.5-.65-.2-.21s.45.75.64,1.15l3-7.43.8-.1c-.41,0-.36,0,.14.06.87.16.2,0,0,0-.59-.19,1.12.53.36.11s.65.66.27.22c-.12-.14-.56-.65-.06,0s.06-.1,0-.17c.12.08.41,1.17.24.47.09.89.12,1.13.1.71s0-.18-.13.7L69.22,72c1.84,1.51,3.76,3.54,6.15,4.08a5,5,0,0,0,5.9-2.9,5,5,0,0,0-2-6.24c.64.57.81.69.5.35l-.39-.44a10.87,10.87,0,0,0-.91-.74l-1.84-1.47a5.47,5.47,0,0,0-5.06-1.34c-1.58.44-3.4,1.91-3.64,3.64a9.56,9.56,0,0,0,.18,4.51,9,9,0,0,0,10.86,6,5.11,5.11,0,0,0,3-7.43,14.83,14.83,0,0,0-5.19-5.25,6.43,6.43,0,0,0-5.84-.72,5.42,5.42,0,0,0-3.37,5c.08,5.76,8.34,10.74,12.79,6.06A4.3,4.3,0,0,0,81,70.11a11.19,11.19,0,0,0-6.56-5.55,3.06,3.06,0,0,0-3.83,2.92A5.88,5.88,0,0,0,73,72a2,2,0,0,0,2.59.16,2,2,0,0,0,.5-2.54Z" transform="translate(0.32)"/><path class="cls-9" d="M59.18,14.16c3.2-1.67,8-1.6,10.51,1.07,2.71,2.88,3.77,7.8,4.75,11.49,1.22,4.58,1.46,9.08,2.12,13.73.49,3.44,1.93,6.93,4.82,9a2,2,0,0,0,2,0c5.85-3.26,5.13-10.65,4.39-16.27a66.27,66.27,0,0,0-5.54-20C79.66,7.87,74.94,2.71,68.7,2.16A12.7,12.7,0,0,0,61,3.86c-2.86,1.7-3.11,3.87-4.95,6.25s.36,5.49,3.12,4.05Z" transform="translate(0.32)"/><path class="cls-9" d="M80.08,63.42c3.68,1.11,8-1.1,11.59-2.14,4.86-1.43,9.72-3,14.8-3.4,4.85-.42,9.22.21,13.3,3,3.56,2.4,6.22,6,10.42,7.26,2.63.81,4.44-1.72,4.06-4.06-1.76-11-16.28-16.75-26-16.27A51.68,51.68,0,0,0,90,52.05c-3.9,1.74-10.16,5-10.9,9.67a1.42,1.42,0,0,0,1,1.7Z" transform="translate(0.32)"/><path class="cls-9" d="M6.11,60.3c2.7-2.31,8.07-1.66,11.3-1.41,4.23.32,8.48.77,12.7,1.23,8.59,1,17.12,3.8,25.71,4.18,3,.14,3.72-3.37,2.2-5.32-6.78-8.72-20.39-9.75-30.51-10.72C17.19,47.27,7.37,47,2,57.14A2.62,2.62,0,0,0,6.11,60.3Z" transform="translate(0.32)"/><path class="cls-9" d="M117.22,100.12c-3.36.07-6.43-1.94-6.93-5.35l-4,5.2a9.91,9.91,0,0,1,5.1.25,7.72,7.72,0,0,1,2,1.14c.28.23.5.6.79.81.56.41.06.73.09-.24l.68-2.51-.29.52,1.79-1.8-.65.35,2.55-.69a7.86,7.86,0,0,1-2.82-.14,7.74,7.74,0,0,1-1.18-.38c-1.26-.87-1.19-.39.22,1.46l-.73,2.7c-.4.72-1.67.75-.91,1.08a5.35,5.35,0,0,0,1.09,0c.11-.26-.48-.62-.56-.84a3.16,3.16,0,0,1,.4-2.72l2.48-1.44c.37-.15,1.13.59.11,0-2.06-1.25.74.09.55,2l-.77,2.84L113.18,104l-3.5-1.44.26.21c2.72,2.27,6.81,1.53,7.91-2.09,1.51-5-4-8.48-8.28-6.61-5.09,2.22-4.78,8.65-.83,11.82,3.59,2.89,9.34,4.53,13.11,1a8.56,8.56,0,0,0,.77-11.39c-2.5-3.39-6.77-4.18-10.74-3.67-4.49.58-9.18,3.74-7.79,9,2.07,7.8,20.27,11.31,20.15.82,0-4.34-4.22-7.84-7.89-9.42a14.58,14.58,0,0,0-12.09.12c-2,.94-2.52,3.84-1.47,5.61,3,5.11,9.15,8.26,14.95,6,1.92-.75,1.83-3.87-.52-3.82Z" transform="translate(0.32)"/><path class="cls-9" d="M91.66,165.88c5-5.39,8.28-12,13.81-17,2.4-2.14,6.47-5.47,9.86-3.39,1,.64,1.75,2.2,2.53,3.07a16.91,16.91,0,0,0,5,4,2.8,2.8,0,0,0,4.16-2.39c.28-11.82-11.25-19-21.54-13-8.61,5.07-16.82,17.75-15.55,28,.11.82,1.1,1.46,1.77.73Z" transform="translate(0.32)"/><path class="cls-9" d="M113.62,142.32c-8.07,9.65-12.4,24.79-12.38,37.22a.89.89,0,0,0,1.75.23c1.8-6.17,3.28-12.43,5.43-18.5s5.11-11.75,7.16-17.81c.36-1.08-1.21-2-2-1.14Z" transform="translate(0.32)"/></g></g><path class="cls-10" d="M57.06,131.28c-1,14.52.83,32,10.55,47.44C89.29,213.23,130.43,230,130.43,230s8-5.75,4.87-10.62c-1.74-2.73-15-9.35-28.59-19.46,8.45-7.36,16.21-25.34,19.26-33a21.35,21.35,0,0,0,1.5-7.61c.12-11.36-1.61-41.31-24.91-17.65-14.71,14.94-15.8,30.71-13.46,42.42a60.87,60.87,0,0,1-9.54-14.22c-12.08-25.82-9.69-24.13-6.73-55.73" transform="translate(0.32)"/><path class="cls-11" d="M49.69,51.78C44.62,41.84,41.24,28.13,51,16.1,68.9-5.86,78.91,5.37,78.91,5.37S95,26.23,83,54.75" transform="translate(0.32)"/><path class="cls-11" d="M112.21,88.55c10.38-2.43,18.77-7.36,19.89-13.22.46-2.41.33-28.59-22-27.06S76.05,62.72,76.05,62.72" transform="translate(0.32)"/><path class="cls-11" d="M71,94.38c.07,9.14,1,20.59,4.57,26.34,7.61,12.09,11.73,17,28.31,12.09s21.22-21.73,21.22-21.73,1-17.31-9.75-20.91c-6.51-2.19-21.3-5.12-31.92-7.08" transform="translate(0.32)"/><path class="cls-11" d="M34.18,92.68c-8.69,7.6-15.59,17.8-10.46,29.13,5.72,12.63,19.61,20.4,23.39,18s9.6-7.39,16.47-22.3a47.11,47.11,0,0,0,3.86-22.67" transform="translate(0.32)"/><path class="cls-11" d="M35.51,91.34c6.08.15,12.79-.42,17.79-3" transform="translate(0.32)"/><path class="cls-11" d="M61.33,61.24c-2.79-4.2-7.53-8.09-15.82-9.4-19.5-3.06-34.82-6.13-38.91,0S.47,64.1,6.6,74.31s9.17,14.86,16.33,15.86a114.93,114.93,0,0,0,12.58,1.17" transform="translate(0.32)"/><circle class="cls-12" cx="67.88" cy="77.44" r="16.94"/></g></g></svg>