<svg xmlns="http://www.w3.org/2000/svg" xmlns:xlink="http://www.w3.org/1999/xlink" viewBox="0 0 322.56 641.29"><defs><style>.cls-1,.cls-10,.cls-11{fill:none;}.cls-2{fill:#106c44;}.cls-2,.cls-3,.cls-4{stroke:#231f20;}.cls-10,.cls-11,.cls-2,.cls-4{stroke-linecap:round;stroke-linejoin:round;}.cls-10,.cls-11,.cls-2,.cls-3,.cls-4{stroke-width:5px;}.cls-3{fill:#d837ba;stroke-miterlimit:10;}.cls-4{fill:#fd3351;}.cls-5{opacity:0.38;}.cls-6{clip-path:url(#clip-path);}.cls-7{fill:#901a3d;}.cls-8{fill:#e6fff2;}.cls-9{fill:#231f20;}.cls-10{stroke:#00311e;}.cls-11{stroke:#551429;}</style><clipPath id="clip-path" transform="translate(1.74)"><path class="cls-1" d="M314.16,440.48A156,156,0,0,0,309,422c.43-26.68-1.67-67.15-12.63-96.39-16.85-44.94,5.11-145.15,5.11-145.15-35.18,20.15-49.78,54.79-55.15,87.06a181.12,181.12,0,0,0,.59,62.28,220,220,0,0,0-16.56-14.66s-52.5-46.88-83.43-87.66a31.5,31.5,0,0,0,5.37-8.94c2.42-5.94.78-19.64.1-24.49a96.74,96.74,0,0,0,21.42-53.33C176,105,162.61,27.25,160.06,33.89c-1.3,3.39-14.57,16.21-28.9,29.08-5.69-11-13.63-20.74-24.68-26.65,0,0,6.31,34.54-14.26,36.7S78.44,5.48,78.44,5.48,33.79,27.38,28.51,77.66c-10.85-7.67-20-15.57-20-15.57S3.29,85,2.78,107s4.09,52.46,15.83,67.27c10,12.6,29.59,46.08,71.05,48.49a57.58,57.58,0,0,0,18.64,10.17c8.5,2.82,17,4.08,24.41,2.62,16.94,23.27,45.89,56.3,94.34,97a193.11,193.11,0,0,1,29.33,30.77,193,193,0,0,0,8.29,18.62C269,390.47,274,399.38,279,407.37h0c1.54,2.43,3.11,4.79,4.67,7,.92,1.31,1.85,2.56,2.77,3.77a230.51,230.51,0,0,1,14.29,63.52c-.34,4.57-1.32,26.05-1.72,33.07-1.7,29.82-9.76,89-29,115,0,0,9.59,13.69,16.21,6.92S329.36,513,314.16,440.48Z"/></clipPath></defs><g id="Calque_2" data-name="Calque 2"><g id="Layer_29" data-name="Layer 29"><path class="cls-2" d="M110.28,196.15c1.53,5.11,21.66,55.46,116.52,135.11,74.63,62.66,73.68,158.8,73.82,149.84s-1.32,23.44-1.83,32.38c-1.69,29.82-9.76,89-29,115,0,0,9.59,13.69,16.21,6.92s43.16-123.69,28-196.21-83.76-125.37-83.76-125.37-88.38-78.91-103.36-121S110.28,196.15,110.28,196.15Z" transform="translate(1.74)"/><path class="cls-2" d="M306.88,447.89c2-7.14,6.13-78.63-10.72-123.57s5.1-145.15,5.1-145.15c-35.18,20.15-49.78,54.79-55.14,87.06-6.5,39.07.29,79.16,18.3,114.42,5.71,11.16,12.32,23,19,32.47,4.78,6.79,9.62,12.43,14.23,15.88" transform="translate(1.74)"/><path class="cls-2" d="M269.09,262s-11.11,79.39,9.69,144.1" transform="translate(1.74)"/><path class="cls-3" d="M78.19,4.22s-72,35.29-44,119.17,68.64,46,68.64,46,40.79-41.71,41.7-46.11S143.47,55,106.23,35.06c0,0,6.31,34.54-14.26,36.7S78.19,4.22,78.19,4.22Z" transform="translate(1.74)"/><path class="cls-2" d="M82.25,214s7.68,11.63,25.8,17.63,36.17,4.92,44-14.41c3-7.28-.17-26.23-.17-26.23Z" transform="translate(1.74)"/><path class="cls-4" d="M121.83,216.84c-.55.27-42.83,14.32-56.22-22.71S83.86,99,96.38,90.54s60.88-51.27,63.43-57.91,15.93,71.14,13.79,106.8C172.74,153.73,164.92,195,121.83,216.84Z" transform="translate(1.74)"/><path class="cls-4" d="M8.23,60.83s-5.18,22.94-5.69,44.9S6.62,158.19,18.37,173s36.76,58.5,95,46.61,0-84.91,0-84.91S77.09,95.21,54.11,90.28C38.55,86.94,8.23,60.83,8.23,60.83Z" transform="translate(1.74)"/><g class="cls-5"><g class="cls-6"><path class="cls-7" d="M4.83,65.69A52.47,52.47,0,0,0,2.62,93a147.56,147.56,0,0,0,7.07,26C16,135.82,23.8,153,33.63,168.16,43.23,183,55.14,195.92,70,205.56a79.31,79.31,0,0,0,23.06,10.56c8.34,2.12,17,2.25,25.5,2.89l2-14.48c-13.07-2.14-25.84-3.8-38.19-9A101.92,101.92,0,0,1,50.23,174a113.89,113.89,0,0,1-22-31.15,133,133,0,0,1-7-17.3c-2.14-6.61-4.64-13.58-5.65-20.46L-1.58,109.8C5.65,157.48,38.36,201,82.9,219.9l6.93-16.43c-12.75-4.26-25.07-12.37-35.29-21a119.17,119.17,0,0,1-26.77-32.16c-6.24-10.95-23.18-1.09-16.92,9.89a134.57,134.57,0,0,0,31,37.11C55,208.1,69.23,215,85.05,220.81c9.46,3.5,16.18-12.15,6.93-16.43-40-18.49-69.2-55.73-76.37-99.32-.78-4.75-6.67-7.41-11-6.23-5.06,1.4-7,6.2-6.22,11,1.22,7.69,1.92,15,4.28,22.53A132.31,132.31,0,0,0,11,152.89,128.51,128.51,0,0,0,37.91,188.6c21.16,19.57,53.19,35.23,82.63,30.14,7.07-1.22,7-12.92,0-14.21-7.24-1.33-13.63-4.57-20.15-7.8a168.91,168.91,0,0,1-19.73-11c-12-8.07-21-19.23-28.59-31.36A259.49,259.49,0,0,1,31,113C24.8,97.51,21.33,81.22,15.4,65.69c-2-5.11-8.67-5.26-10.57,0Z" transform="translate(1.74)"/><path class="cls-7" d="M97.82,227.88c3.84,3.62,8.26,5.45,13.21,7.15,2.5.87,5.06,1.57,7.59,2.34,1.26.38,2.52.79,3.79,1.15.51.14,4.93,1.65,3.35.65-1.34-.85,1,1.6,1.34,1.93a15,15,0,0,0,2.75,2.2,17,17,0,0,0,6.23,2.2c4.85.79,9.51-.34,14.26-1.32,7.48-1.55,6-11.49,0-13.72-3.26-1.22-8.16-.26-11-2.1.93.59-3.06-3.64-3.71-4.06a19.68,19.68,0,0,0-5.57-2.2c-9.17-2.53-20.37-5.86-29.76-3.46a5.57,5.57,0,0,0-2.45,9.24Z" transform="translate(1.74)"/><path class="cls-7" d="M85.27,106.87c5.72,5.58,12.3,10.19,18,15.86a109.16,109.16,0,0,1,15.6,19.47,159,159,0,0,1,12.28,24.38c3.2,7.83,7.77,16.27,8.84,24.72,1.29,10.24,15.51,8.49,14.08-1.9-1.3-9.43-5.85-18.79-10-27.3a190.28,190.28,0,0,0-15.4-26.7c-9.48-13.47-23.53-30.24-40.75-33.15-2.55-.43-4.82,2.54-2.69,4.62Z" transform="translate(1.74)"/><path class="cls-7" d="M77.75,92.57c-3.67-4.7-8.44-8.33-12.48-12.71A53.52,53.52,0,0,1,55.51,65.4c-2-4.61-2.93-10.21-1.46-15.11,1.81-6,4.69-10.64,1.14-16.76a8,8,0,0,0-13.6,0,74.19,74.19,0,0,0-7.94,18.19,71.29,71.29,0,0,0-1.85,9.15c-.27,1.92,0,6.12-.93,7.28l2.92-2.91-.92.47c-4,2.1-4.84,7.38-2.91,11.13,3.82,7.45,14.1,11.88,21.83,13.09,4.7.73,9.25,3.94,13.48,6.15a48.45,48.45,0,0,0,6.22,3.06c2.77,1,5.59,1.18,8.21,2.65s5.51-2.07,3.24-4.19a164.85,164.85,0,0,1-18.31-20c-5.34-7-9.27-15.21-10.4-24-1.18-9.25,1.35-17.43,6.7-25,2.73-3.85,5.73-7.55,8.63-11.29,2.7-3.48,5.64-6.56,7-10.84.93-3-2.56-5.39-5.17-4-4.74,2.57-7.95,7.54-11.43,11.57a95.76,95.76,0,0,0-9,11.59,43.33,43.33,0,0,0-6.18,29.17c1.36,10.1,5.8,19.3,12,27.33,6.47,8.4,14.16,13.91,22.94,19.55l2.7-4.61c-3.91-2.2-6.77-5.94-10.68-8.34-3.54-2.17-7.18-4.19-10.66-6.45-3.66-2.37-5.61-6.17-9.39-8.64C49.48,72.31,45.25,71,44,68.63L41.08,79.75c7-3.74,5.69-11.32,6.73-18a57.34,57.34,0,0,1,7.38-20.3H41.59c-1-1.74-1.18.54-1.66,1.74a26.82,26.82,0,0,0-1.44,4.36,31.23,31.23,0,0,0-.71,9.68A41.53,41.53,0,0,0,44.1,75.71c6.41,10,19.36,18.67,30.68,22,3.2.92,4.7-2.87,3-5.1Z" transform="translate(1.74)"/><path class="cls-7" d="M244.76,274.94c-4.93,12.18-1.11,28.7,7.62,38.22,2.44,2.66,5.13,3.95,5.91,7.59.82,3.8.83,7.88,1.5,11.74A111.42,111.42,0,0,0,278.21,376c4.49,6.1,10,11.68,13.4,18.53,3.55,7.22,3.34,15.72,3.65,23.57.36,8.87.59,17.76.88,26.64l15.72-4.26c-10.12-22.48-20.76-44.8-30.08-67.63-8.88-21.74-17.7-44.15-21.3-67.47-1.49-9.66-18.28-7.5-17.22,2.33,2.74,25.26,9.89,48.72,20.42,71.78,10.68,23.4,22.34,46.39,33.61,69.51,3.64,7.46,16.24,3.94,15.72-4.26-.55-8.88-1.16-17.76-1.64-26.64-.46-8.35-.55-17.09-3.31-25.08-2.63-7.64-7.42-13.83-12.46-20A126.87,126.87,0,0,1,282,353.21a107.37,107.37,0,0,1-8.74-21.8c-2-7-2-16-5.84-22.24-1.76-2.85-4.68-4.5-6.75-7.09a27.11,27.11,0,0,1-4.21-8.43c-2.17-6.34-3.15-13.51-6.3-19.41-1.32-2.47-4.52-1.47-5.4.7Z" transform="translate(1.74)"/><path class="cls-7" d="M307.57,427.94c-4.38,1.14-5.61,5.75-6.89,9.62a109.78,109.78,0,0,0-3.73,14.8c-1.94,10.71-3,21.58-4,32.41-.93,10.19-1.71,20.39-2.7,30.57s-4,21.19-2.68,31.32c.52,3.84,5.26,5.77,7.6,2.06,5.56-8.79,7.27-20.43,9.83-30.42,2.79-10.88,5.59-21.75,7.68-32.8,1.29-6.81,10-61.48-5.09-57.56Z" transform="translate(1.74)"/><path class="cls-7" d="M140.75,234.48c-1,4.44.89,9.06,2.5,13.18A120.73,120.73,0,0,0,150,261.88a77.51,77.51,0,0,0,8.23,12.29c2.68,3.23,6.6,7.81,10.92,8.47a3.4,3.4,0,0,0,4.21-3.21c.4-3.83-2.23-8.34-4-11.7-2-3.88-4.26-7.63-6.43-11.41-4.32-7.54-8.4-15.38-12.28-23.14-2.08-4.17-8.9-3.12-9.93,1.3Z" transform="translate(1.74)"/><path class="cls-8" d="M22.43,81.19c5.37,4,10.35,8.48,15.81,12.39,4.88,3.49,10.2,6.5,15.26,9.73a249,249,0,0,1,31,22.88c8.51,7.51,16.69,15.37,23.6,24.41,7,9.2,11.86,19.65,18.32,29.19,1.59,2.35,6.13,1.77,5.85-1.58-1-11.94-7.25-22.85-14-32.53a150.74,150.74,0,0,0-24.5-27.61A260.35,260.35,0,0,0,60.93,94.18a157.85,157.85,0,0,0-17.27-9.89c-6.32-2.9-12.94-4.94-19.36-7.56-2.76-1.13-3.89,3-1.87,4.46Z" transform="translate(1.74)"/><path class="cls-8" d="M113.81,87.73A202.38,202.38,0,0,0,163.64,44l-11.47-4.75q2.85,30.95,6.49,61.8c1.19,10.15,2.23,20.31,3.77,30.41s2.94,20,7.14,29.38c1.29,2.89,6.16,2.1,6.77-.88,2.09-10.13,1.22-20.21.47-30.44s-2.06-20.3-3.22-30.43q-3.54-30.9-8.22-61.63c-1-6.44-9.27-5.59-12.28-1.61-12.88,17-27.33,32.75-42.4,47.81-2,2,.59,5.6,3.12,4Z" transform="translate(1.74)"/><path class="cls-8" d="M105.51,41.32A49.13,49.13,0,0,1,115,53c2.36,4.09,3.4,8.87,6.34,12.57,2.42,3,6.71.23,7-2.89.44-5.43-3.38-11.25-6.43-15.48a51.34,51.34,0,0,0-11.92-11.66c-3.37-2.43-7.46,3-4.43,5.75Z" transform="translate(1.74)"/><path class="cls-8" d="M72.76,12.8c-2.85,16.88-2.14,40.48,10.66,53.53,1.32,1.34,3.14-.09,2.9-1.69C85,56.21,81.69,48.24,80,39.88a107,107,0,0,1-1.66-26.32c.18-3.17-5.07-4-5.62-.76Z" transform="translate(1.74)"/><path class="cls-8" d="M249.69,263.11C263,238,276.33,209.35,299.61,191.72l-9.27-9.27c-8.34,11.44-11.86,23.44-13,37.49-1.22,14.59-.32,29.38,1.59,43.87a373.14,373.14,0,0,0,9,45.26c1.87,7.12,3.88,14.26,6.39,21.19,2.75,7.63,7.13,13.68,11.43,20.42a2.64,2.64,0,0,0,4.79-2c-1.51-7.25-2.11-14.53-4.17-21.71-1.87-6.51-3.89-12.95-5.53-19.52a260.25,260.25,0,0,1-6.89-42.7c-1.09-13.49-1.92-27.23-1.33-40.76.51-11.6,2.56-25,9.46-34.67,3.81-5.33-3.93-13.39-9.27-9.27-26.32,20.31-38.46,50.11-48.22,80.93-1,3,3.64,5,5.14,2.16Z" transform="translate(1.74)"/></g></g><path class="cls-9" d="M80,179.62a16.27,16.27,0,0,0,15.26.63c4.43-1.94,9.73-6.39,7.62-11.73a2.35,2.35,0,0,0-2.83-1.6c-3.31,1.1-4.85,3.59-7.78,5.28a14.39,14.39,0,0,1-9.85,1.68c-3.37-.66-5.63,3.85-2.42,5.74Z" transform="translate(1.74)"/><path class="cls-9" d="M77.2,176.37c-3.24,2.8-6.5,5.54-9,9-1.88,2.64,1.78,6,4.38,4.38,3.9-2.48,6.6-6.26,8.68-10.31a2.59,2.59,0,0,0-4-3.12Z" transform="translate(1.74)"/><path class="cls-9" d="M83.52,177.52a40.53,40.53,0,0,0-1.9,8.29c-.32,2.56-1,5.48,0,7.93.6,1.46,2.66,2.54,3.92,1,1.81-2.15,2.22-4.87,2.72-7.59a44.43,44.43,0,0,0,.74-8.91,2.82,2.82,0,0,0-5.52-.75Z" transform="translate(1.74)"/><path class="cls-9" d="M111,195.55c-.63,4.82,5.15,7.32,9.21,6.22,4.28-1.17,8.73-6.56,7.15-11.16a1.66,1.66,0,0,0-2.41-1c-2.18,1.45-3,4.36-5.31,5.64a4.31,4.31,0,0,1-5.2-1.15c-1.32-1.43-3.23-.16-3.44,1.43Z" transform="translate(1.74)"/><path class="cls-10" d="M247,329.56c-9.54-9.16-16.12-14.23-16.12-14.23S180.08,270,149,229.67" transform="translate(1.74)"/><path class="cls-10" d="M287.63,420.17c13.93,38,13.65,67.56,13.72,62.41.14-9-1.31,23.44-1.82,32.38-1.7,29.82-9.76,89-29,115,0,0,9.59,13.69,16.21,6.92s43.15-123.69,27.95-196.21a156.5,156.5,0,0,0-5.35-19.18" transform="translate(1.74)"/><path class="cls-10" d="M134.25,237.19c17.08,23.19,45.83,55.7,93.29,95.55a193.3,193.3,0,0,1,27.93,28.95" transform="translate(1.74)"/><path class="cls-10" d="M257.54,365.25q3.39,8.6,7.62,16.88c5.7,11.16,12.32,22.95,19,32.47a79.73,79.73,0,0,0,12.55,14.53" transform="translate(1.74)"/><path class="cls-10" d="M309.5,423.39c.52-26.66-1.48-67.92-12.61-97.59C280,280.86,302,180.65,302,180.65c-35.18,20.15-49.78,54.79-55.15,87.06a183.34,183.34,0,0,0,8.71,92.3" transform="translate(1.74)"/><path class="cls-10" d="M307.61,449.37c.7-2.42,1.63-12.27,1.89-26" transform="translate(1.74)"/><path class="cls-10" d="M269.83,263.5s-11.12,79.39,9.69,144.1" transform="translate(1.74)"/><path class="cls-11" d="M131.35,62.62C125.68,51.89,117.82,42.34,107,36.54c0,0,6.31,34.54-14.26,36.71S78.93,5.7,78.93,5.7s-45.14,22.13-50,73" transform="translate(1.74)"/><path class="cls-10" d="M92.52,224.82a58.22,58.22,0,0,0,16.27,8.32c18.12,6,36.16,4.92,44-14.41,2.05-5,1.19-15.63.46-21.7" transform="translate(1.74)"/><path class="cls-11" d="M84.17,108.15c4.87-8,9.59-13.86,12.94-16.13,12.52-8.51,60.89-51.27,63.44-57.91s15.93,71.14,13.79,106.8c-.86,14.3-8.68,55.54-51.77,77.41a43.75,43.75,0,0,1-5,1.35" transform="translate(1.74)"/><path class="cls-11" d="M9,62.31s-5.18,22.94-5.69,44.9,4.09,52.46,15.83,67.27,36.77,58.5,95,46.61,0-84.91,0-84.91S77.83,96.69,54.85,91.76C39.28,88.42,9,62.31,9,62.31Z" transform="translate(1.74)"/></g></g></svg>