<svg xmlns="http://www.w3.org/2000/svg" xmlns:xlink="http://www.w3.org/1999/xlink" viewBox="0 0 195.95 230.18"><defs><style>.cls-1,.cls-10,.cls-9{fill:none;}.cls-2{fill:#79ffa3;}.cls-2,.cls-3{stroke:#231f20;}.cls-2,.cls-9{stroke-miterlimit:10;}.cls-10,.cls-2,.cls-9{stroke-width:5px;}.cls-3{fill:#f89bf3;stroke-width:4px;}.cls-10,.cls-3{stroke-linecap:round;stroke-linejoin:round;}.cls-4{fill:#f8bfd8;}.cls-5{opacity:0.5;}.cls-6{clip-path:url(#clip-path);}.cls-7{fill:#901a3d;}.cls-8{fill:#e6fff2;}.cls-9{stroke:#1a3428;}.cls-10{stroke:#4e2344;}</style><clipPath id="clip-path" transform="translate(3.17 5.56)"><path class="cls-1" d="M169.7,211.16c-1.33,1.77-75.95-10.18-99.4-48.22-9.9-16.07-5.59-39.2-3.53-47.64a38.82,38.82,0,0,0,15-.14s14.6.88,18.58-19.47,31.41-23.45,31.41-23.45S171.17,71.8,165,49.68c-5.51-19.68-33.09-6.43-39.1-3.28,6.79-3.74,40.61-23.28,21.85-31.67-20.79-9.29-38,17.26-38.49,18.58,0,0,15-35.83-11.94-31.41C87.88,3.45,84,13,88,30.66s-13.28,26.1-13.28,26.1S42,78,49.07,99.67a22.72,22.72,0,0,0,6.84,10.58c-3,7.49-16.37,45.72,18,76.1-26.39-2.17-38.95-37.22-53-47.41C6.44,128.5,2.5,147.83,2.5,147.83s-1,27,28.8,48.16c22.6,16,49.7,8.15,61.54,3.36,17.7,9.6,42.46,17.5,76.86,22C169.7,221.33,171,209.39,169.7,211.16Z"/></clipPath></defs><g id="Calque_2" data-name="Calque 2"><g id="Warstwa_5" data-name="Warstwa 5"><path class="cls-2" d="M169.7,211.63c-1.33,1.77-75.95-10.17-99.4-48.22-12.3-20-2.65-50.88-2.65-50.88V101l-11.21,8.41c-.3.91-20.4,43.92,17.51,77.39-26.39-2.18-38.95-37.23-53-47.42C6.44,129,2.5,148.31,2.5,148.31s-1,27,28.8,48.16c22.6,16.05,49.7,8.14,61.54,3.35,17.7,9.61,42.46,17.5,76.86,22C169.7,221.81,171,209.86,169.7,211.63Z" transform="translate(3.17 5.56)"/><path class="cls-3" d="M109.23,33.79c.44-1.33,17.7-27.87,38.49-18.58s-23,32.29-23,32.29S158.78,28,165,50.16s-33.18,22.56-33.18,22.56-27.42,3.1-31.41,23.45S81.8,115.63,81.8,115.63s-25.66,6.2-32.73-15.48S74.72,57.24,74.72,57.24,92,48.83,88,31.13,87.88,3.92,97.29,2.38C124.27-2,109.23,33.79,109.23,33.79Z" transform="translate(3.17 5.56)"/><path class="cls-4" d="M93.68,13.9a4.76,4.76,0,0,1,1.5-.46H92.46c2.18.58,3.11.19,4.88.89.26.11.44.31,1.29.78-.5-.36-.44-.27.18.28-.39-.61-.35-.56.12.16l.5.93c.25.49.23.41-.06-.25.21.82.25.92.11.29a3.35,3.35,0,0,1,1.94-2.61c2.66-1.29,5.74,1.71,5,4.53-.85,3.18-6.14,3.54-7.35.49-.63-1.6.33-2.84,1.28-3.9l.64-.22c-1,.27-1,.3-.06.08a1.93,1.93,0,0,1,1.23.36c-.91-.54-1-.6-.31-.2,1.07,1.17-.94-1,0,.15q-1.47-6.51-9.39,5.69c.87.54.94.55.22,0,.69.76.78.8.26.12q1.62,2.91-.06-3l2.31-4q4.92-2.44.44-.45c-.24.12-.49.25-.73.39a8.39,8.39,0,0,0-3,11.35,9.78,9.78,0,0,0,13.23,3.45,11,11,0,0,0,5.31-12.62c-2-7.42-10.66-14.4-18.56-12-9.46,2.81-9.59,14.31-4.63,21.1s14.09,9.75,21.67,5.29a14.17,14.17,0,0,0,4.75-20.13c-4.7-6.87-14.25-8.14-20.13-2-5.47,5.74-4.57,15.88,2.6,19.79,6.79,3.71,16.34.58,18.5-7.17C119,5.46,97.73-5,88.23,6.83c-3.1,3.86.69,9.59,5.45,7.07Z" transform="translate(3.17 5.56)"/><path class="cls-4" d="M138.39,25.23a23.5,23.5,0,0,1-6.16-2.52l2,1.95-.59-1.27-1.16,9a28.39,28.39,0,0,0,3.19-3.24c-.32.24-.08.11.71-.41l-1.75.39c1.38-.24.15,0-.61-.32a4.33,4.33,0,0,1-1.89-5.08,1.93,1.93,0,0,1,.83-1.66l-.6.59c-.23-.36,2.62-1-.28-.13-1,.3-2.09.5-3.14.71l7.35,1a5.86,5.86,0,0,1,2.8,4.67,4.25,4.25,0,0,1-1.47,3.31l-.58.34c1-.54,1-.6.15-.2.88-.33,1.79-.48,2.69-.72,1.25-.24,1.2-.26-.12-.07q4.29.09-4.81-3l-1.33-4.92q.59-4.85,5.86-6c.95.07.83,0-.35-.32L146,29.31l.11-.72a4.24,4.24,0,0,1-2.65,3.26,4.08,4.08,0,0,1-3.61.68c4.67.94,9.48-1,11.34-5.57a9.66,9.66,0,0,0-3.94-12,13.1,13.1,0,0,0-13.63,0c-4.42,2.75-6.27,6.7-6.93,11.72-.56,4.29,3.47,8.32,7.22,9.48,7.64,2.35,16.38-.44,18.79-8.67,2.34-8-4.19-15.38-12.16-15.43-5.65,0-12.61,2.32-16.51,6.48-4.72,5.06-5.55,13.23-1.16,18.76,10.12,12.76,33.63-3.8,25.5-18.18-3.18-5.63-9.85-7.71-15.9-6.05-5.81,1.58-10.16,6.71-12.37,12.06-2.77,6.76,7.84,12.79,12.38,7.21l.9-1.11-2.4,1.4a23.25,23.25,0,0,1,6.58-1c3.67-.19,4.5-5.34.88-6.44Z" transform="translate(3.17 5.56)"/><path class="cls-4" d="M147.3,50.26l-.15-.12L149,51.22l-.47-.4,1.1,1.9c.29.87-1.17,1.87-1.5,2.32-.86.43-.88.49,0,.19l.64-.21c-1.2.29.44.26-.36,0-1.16-.32,1.44,1-.49-.1,1.3.72-.48-.59.16.06s-.73-1.54,0,.12a4.13,4.13,0,0,1-.54-1.85c.22-1.15.26-1.39.14-.73a5.19,5.19,0,0,1-.24.94c-.26-.23.86-1.5,1-1.65-.93,1.08.42-.06.83-.3.69-.23.65-.23-.13,0l1-.21a3.33,3.33,0,0,1,2.28.65c.6.46,1,1.63.55.43.59,1.42.27,2.71.19,4.16-.31.6-.35.7-.11.28.35-.58.18-.34-.51.7l-.89.71c-1.2.42-1.48.53-.83.32,1.1-.24-2.34,0-.4.07a5.42,5.42,0,0,1-2.41-.55,4.48,4.48,0,0,1-2-2.14c-.27-.61-.2-2.68-.34-1.25.25-1.37.29-1.7.1-1-.14.47-.09.37.14-.3a6.94,6.94,0,0,1,1.85-2.32c1-.66,2-.53,3.09-.68.74.14.86.14.37,0-.68-.2-.39-.08.87.37,3.83,2.22,2.36,8.61-2.22,8.4a6.32,6.32,0,0,1-3.47-1.52,3.91,3.91,0,0,1-.51-5.44,3.49,3.49,0,0,1,1.29-3.54c1.07-.93.6-.59-1.42,1l-.35.35c-.85.81-.92.26.64-.4-2.32,1-3.62,4-3.65,6.36-.06,5.44,4.64,9.6,10,9.6,6.15,0,10.67-5.67,11.12-11.39.38-4.88-2.7-9.79-6.92-12.1a14,14,0,0,0-13.86.41c-7.94,4.74-9.55,16.34-2.34,22.49,6.77,5.77,17.49,4.68,21.9-3.46A14.49,14.49,0,0,0,154,41c-8.45-2.54-17.57,4-18.19,12.64-.65,9.28,8.36,17,17.41,15.07a15,15,0,0,0,11.13-18.36c-2.42-8.77-13.38-13.26-21.17-8.58a9.94,9.94,0,0,0-4.45,11.31A8,8,0,0,0,148.35,58a4,4,0,0,0-1-7.73Z" transform="translate(3.17 5.56)"/><g class="cls-5"><g class="cls-6"><path class="cls-7" d="M160,39.31c.07.27,1.14,2.52.9,1.28a15.88,15.88,0,0,1-.2,3.39,14.84,14.84,0,0,1-1.56,5.42c-2.39,4.43-7.58,5.9-12.16,7-6.39,1.5-12.88,2.12-19.19,4A99.18,99.18,0,0,0,107.52,69a43.48,43.48,0,0,0-15.26,13.6c-3.35,5.08-4.05,11.5-7.42,16.49-7,10.38-24.83,2.36-34.59,2.9a5.17,5.17,0,0,0-3.61,8.72C58.57,123.91,81.15,127,95.2,115.38c6.23-5.15,8.22-12.33,11.25-19.46,2.92-6.86,9.31-10.29,15.77-13.32,13.94-6.54,32.95-5.4,44.45-16.53,5-4.85,8-12.42,6.86-19.37-.85-5.29-4.93-11.07-10.82-11A2.86,2.86,0,0,0,160,39.31Z" transform="translate(3.17 5.56)"/><path class="cls-7" d="M46.64,113.51c3.61,7.8,8.91,13.76,17.24,16.81,7.57,2.78,15.81,1.64,19-6.42,1.88-4.8-4.58-9.35-8.67-6.66-6,4-17.22-4.49-21.2-8.61-3.36-3.49-8.17.92-6.33,4.88Z" transform="translate(3.17 5.56)"/><path class="cls-7" d="M-3.1,145.36c.59,3.32.35,6.78.89,10.14A58.16,58.16,0,0,0,.54,166a70.7,70.7,0,0,0,10.65,18.91c8,10.26,19.62,18.44,32.3,21.58,15.37,3.81,30.26-.84,45.67-1,15-.17,29.1,6.65,43.12,11.18a125,125,0,0,0,53.33,5.7c10.72-1.26,8.87-16.29-2-14.73-18.83,2.69-36.71-.57-54.5-6.65-16.85-5.75-33.78-11.34-51.85-10-8.56.62-17.25,2.43-25.86,1.23a46.12,46.12,0,0,1-20.59-8.7A59.31,59.31,0,0,1,15.38,166c-2-3.32-3.77-6.77-5.45-10.25-1.88-3.92-4.49-8.23-5.44-12.47-1.11-5-8.47-2.83-7.59,2.1Z" transform="translate(3.17 5.56)"/><path class="cls-7" d="M121.37,47.56c9.15.51,17.95-5.12,24.47-11.06a58.5,58.5,0,0,0,8.86-10.31c2.31-3.4,6.17-8.46,4.6-12.71a3.15,3.15,0,0,0-4.54-1.85c-3.28,1.6-4.09,5.61-5.85,8.6a49,49,0,0,1-8,10.26c-6,5.95-13.49,9.37-20.27,14.27a1.52,1.52,0,0,0,.76,2.8Z" transform="translate(3.17 5.56)"/><path class="cls-8" d="M8.68,145.22A80.47,80.47,0,0,1,18.82,155.3c3.2,3.93,6.08,8.22,9.78,11.73,6.36,6,18.71,12.91,25.49,4a5.26,5.26,0,0,0,0-5.44c-2.25-3.55-6-4.51-9.51-6.43-4-2.17-7.09-5.41-10.06-8.78-5.65-6.39-12.07-15.86-21.8-14.87-4.43.45-8.14,6.19-4,9.74Z" transform="translate(3.17 5.56)"/><path class="cls-8" d="M54.77,98.29c.11-1.91,2.27-4.41,3.18-6.07a37.15,37.15,0,0,1,4.36-6.12,85.44,85.44,0,0,1,11.3-11c7.72-6.38,15.27-13.49,19-23,2-5.07,2.41-10.59,2.37-16s-.9-11.31.77-16.59c2.84-8.92,11.83-9.47,19.61-11.2,5.35-1.2,5.83-8.66,1.47-11.31C107-9,93.6-3.49,86.62,4.6c-9.33,10.83-6.34,23.59-7.56,36.59C78,53,67.06,59.6,59.37,67.3,55.12,71.55,51.16,76.23,49,81.87a26.31,26.31,0,0,0-2,8.87C46.88,94,48.7,96,49.52,99s5.07,2.25,5.25-.71Z" transform="translate(3.17 5.56)"/><path class="cls-8" d="M118.56,29.58c4.54-5.12,12-8.57,18.42-10.88,6.72-2.41,13.81-1.07,20.52-2.75,6.11-1.52,5-9.33,0-11.31-8-3.16-18.18,1.15-25.28,4.67-8,4-12.37,10.35-17,17.72-1.25,2,1.71,4.37,3.31,2.55Z" transform="translate(3.17 5.56)"/></g></g><path class="cls-9" d="M56.73,110c-.31.91-20.36,43.72,17.46,77-26.32-2.17-38.86-37.05-52.93-47.19-14.42-10.39-18.34,8.85-18.34,8.85s-1,26.84,28.73,47.94c22.54,16,49.58,8.1,61.38,3.34,17.66,9.55,42.35,17.41,76.67,21.88,0,0,1.32-11.89,0-10.13s-75.76-10.13-99.15-48C58.27,143.81,67,115.29,67,115.29" transform="translate(3.17 5.56)"/><path class="cls-10" d="M109.65,34.31c.44-1.32,17.69-27.87,38.48-18.58s-23,32.3-23,32.3,34.06-19.47,40.26,2.65-33.18,22.56-33.18,22.56-27.43,3.1-31.41,23.45-18.58,19.47-18.58,19.47-25.66,6.19-32.74-15.49S75.14,57.76,75.14,57.76s17.25-8.41,13.27-26.1S88.3,4.45,97.7,2.9C124.69-1.52,109.65,34.31,109.65,34.31Z" transform="translate(3.17 5.56)"/></g></g></svg>