<?xml version="1.0" encoding="UTF-8" standalone="no"?>
<svg
   viewBox="0 0 231.83 204.89"
   version="1.1"
   id="svg26"
   sodipodi:docname="fleur5-half-stroke.svg"
   inkscape:version="1.4.2 (2aeb623e1d, 2025-05-12)"
   xmlns:inkscape="http://www.inkscape.org/namespaces/inkscape"
   xmlns:sodipodi="http://sodipodi.sourceforge.net/DTD/sodipodi-0.dtd"
   xmlns="http://www.w3.org/2000/svg"
   xmlns:svg="http://www.w3.org/2000/svg">
  <sodipodi:namedview
     id="namedview26"
     pagecolor="#ffffff"
     bordercolor="#000000"
     borderopacity="0.25"
     inkscape:showpageshadow="2"
     inkscape:pageopacity="0.0"
     inkscape:pagecheckerboard="0"
     inkscape:deskcolor="#d1d1d1"
     showgrid="false"
     inkscape:zoom="2.5967303"
     inkscape:cx="115.915"
     inkscape:cy="102.24396"
     inkscape:window-width="1600"
     inkscape:window-height="836"
     inkscape:window-x="0"
     inkscape:window-y="27"
     inkscape:window-maximized="1"
     inkscape:current-layer="Warstwa_13" />
  <defs
     id="defs1">
    <style
       id="style1">.cls-1,.cls-10,.cls-11,.cls-12,.cls-9{fill:none;}.cls-2{fill:#79ffa3;}.cls-2,.cls-3,.cls-4{stroke:#231f20;}.cls-10,.cls-11,.cls-2,.cls-3{stroke-linecap:round;stroke-linejoin:round;}.cls-10,.cls-11,.cls-12,.cls-2,.cls-3,.cls-4,.cls-9{stroke-width:5px;}.cls-3{fill:#c690ff;}.cls-4{fill:#fdfc80;}.cls-12,.cls-4,.cls-9{stroke-miterlimit:10;}.cls-5{opacity:0.5;}.cls-6{clip-path:url(#clip-path);}.cls-7{fill:#901a3d;}.cls-8{fill:#e6fff2;}.cls-10,.cls-9{stroke:#1b3328;}.cls-11{stroke:#46123f;}.cls-12{stroke:#76411f;}</style>
    <clipPath
       id="clip-path"
       transform="translate(6.48 2.9)">
      <path
         class="cls-1"
         d="M205.36,150.22c-11.94-5.39-26.88,2.2-38.15,10.69,7.32-19,11-43-.34-66.88-7.79-16.42-21.93-24.58-36.75-28.32a29.32,29.32,0,0,0,1.16-3c2.6-8,1.53-16.34-11.26-19.85-27.91-7.66-38,15.82-38,15.82L86.14,46S98.4-9.7,69.53,4.6C46,16.26,53.2,44.88,56.67,55.06,49.32,36.39,41.2,29.51,41.2,29.51S6.48,12.26,7.22,47.76c.73,34.81,32.69,27.32,33.94,27-1.74.44-57.29,14.46-33.94,38.08,27.57,27.9,41.66-6.09,44.9-15.55C49,107.51,38.23,147.76,63.67,142c29.11-6.64,18.38-34.21,18.38-34.21L87,115.38a26.08,26.08,0,0,0,20.21,12.09c7.63.45,18.7-5.68,18.78-19.72.13-21.68-18.49-23.28-27-22.88,2.43-.27,4.8-.59,7-.94a32.25,32.25,0,0,0,17.35-8.57c12,3.14,31.21,12.19,36.44,38.14,3.59,17.78-1,33-7.2,45-4.78-5.23-14-10.11-14-10.11s-29.2-9.25-23.89,15.08c3.47,15.89,14.1,20.36,21.06,21.55a8.84,8.84,0,0,0-.71,1.89c-1.77,8.41,9.73,11.95,9.73,11.95A125.39,125.39,0,0,0,156.82,182c10.51,5.38,25,3.36,34.39,1.1a33.33,33.33,0,0,0,19.48-13C215.25,163.67,217.27,155.59,205.36,150.22Z"
         id="path1" />
    </clipPath>
  </defs>
  <g
     id="Calque_2"
     data-name="Calque 2">
    <g
       id="Warstwa_13"
       data-name="Warstwa 13">
      <path
         class="cls-2"
         d="m 143.62,185.88 c 0,0 -22.12,2.44 -27.43,-21.88 -5.31,-24.32 23.89,-15.07 23.89,-15.07 0,0 16.84,8.88 16.81,15.52 -0.09,16.64 -13.27,21.43 -13.27,21.43 z"
         transform="translate(6.48,2.9)"
         id="path2"
         style="stroke-width:2.35464567;stroke-dasharray:none" />
      <path
         class="cls-2"
         d="m 206.88,150.72 c -11.94,-5.39 -26.88,2.21 -38.15,10.7 7.32,-19 11,-43 -0.34,-66.88 C 147,49.4 77.7,66.67 77.7,66.67 l 7.08,6.63 30.08,0.89 c 0,0 38.67,1.24 46.45,39.81 7.78,38.57 -23,65 -24.77,73.44 -1.77,8.44 9.73,11.94 9.73,11.94 a 125.36,125.36 0 0 0 12.06,-16.92 c 10.52,5.37 25,3.35 34.4,1.1 a 33.33,33.33 0 0 0 19.48,-12.95 c 4.56,-6.44 6.58,-14.52 -5.33,-19.89 z"
         transform="translate(6.48,2.9)"
         id="path3"
         style="display:inline;stroke-width:2.35465;stroke-dasharray:none" />
      <path
         class="cls-3"
         d="m 59.56,59.23 c 0,0 -17.37,-39.83 11.49,-54.13 28.86,-14.3 16.61,41.36 16.61,41.36 l -4.09,12.77 c 0,0 10.06,-23.49 38,-15.83 12.79,3.51 13.86,11.85 11.26,19.85 a 31.56,31.56 0 0 1 -25.28,21.18 c -3.47,0.55 -7.31,1 -11.18,1.35 0,0 31.31,-5.61 31.15,22.47 -0.08,14 -11.15,20.17 -18.78,19.73 a 26.07,26.07 0 0 1 -20.21,-12.1 l -4.93,-7.63 c 0,0 10.73,27.58 -18.38,34.21 -29.11,6.63 -10.81,-47 -10.81,-47 0,0 -13.87,50 -45.64,17.87 -23.72,-24 34,-38.09 34,-38.09 0,0 -33.24,8.5 -34,-27 C 8.01,12.74 42.72,30 42.72,30 c 0,0 9.17,7.78 16.84,29.23 z"
         id="path4"
         transform="translate(6.48,2.9)"
         style="display:inline;stroke-width:2.7326;stroke-dasharray:none" />
      <circle
         class="cls-4"
         cx="75.959999"
         cy="81.620003"
         r="16.940001"
         id="circle4"
         style="stroke-width:2.5;stroke-dasharray:none" />
      <g
         class="cls-5"
         id="g24">
        <g
           class="cls-6"
           clip-path="url(#clip-path)"
           id="g23">
          <path
             class="cls-7"
             d="m 76.14,93.74 c -1.35,7.14 6.29,15.24 10.31,20.53 4.32,5.68 9,11.39 15.22,15.07 6.06,3.57 13.5,5.12 20.38,3.26 7.13,-1.91 15.91,-10 12.61,-18.06 -1.74,-4.25 -5.79,-6.31 -10.13,-4.12 -3.75,1.91 -5.09,6.68 -9.72,6.81 -4.63,0.13 -8.42,-2.81 -11.56,-5.77 -3.86,-3.62 -7.36,-7.61 -11.23,-11.23 -3.57,-3.35 -8.16,-8.55 -13.44,-8.34 a 2.57,2.57 0 0 0 -2.44,1.85 z"
             transform="translate(6.48,2.9)"
             id="path5" />
          <path
             class="cls-7"
             d="m 47.92,139.73 c 4.68,3.91 8.32,5.82 14.63,5.3 6,-0.49 11.33,-4.55 15,-9.07 7.73,-9.62 12.89,-25.39 6.21,-36.79 -2.32,-4 -7.81,-2.76 -9.23,1.21 -2.75,7.67 -2.81,16 -6.93,23.25 a 20.86,20.86 0 0 1 -6.34,7.13 c -2.46,1.66 -7,4.11 -10.12,3.49 -2.91,-0.59 -5.92,3.21 -3.19,5.48 z"
             transform="translate(6.48,2.9)"
             id="path6" />
          <path
             class="cls-7"
             d="m -0.77,108.09 c 2.27,2.34 4,4.86 6.67,6.75 a 43.75,43.75 0 0 0 9,4.43 c 6.26,2.5 12.87,4 19.51,2 11.77,-3.46 22.25,-15.78 19.94,-28.35 -0.54,-3 -4.24,-3.94 -6.6,-2.69 -7.2,3.77 -10.16,13.77 -18.2,16.15 -3.9,1.14 -8.62,-0.44 -12.46,-1.29 -4.56,-1 -10.09,-1.17 -14.39,-3 -3.47,-1.44 -5.74,3.61 -3.47,6 z"
             transform="translate(6.48,2.9)"
             id="path7" />
          <path
             class="cls-7"
             d="m 40.08,67.71 c -4.61,-0.61 -9.68,-0.26 -14,-2 -4.32,-1.74 -8.49,-5.09 -12,-8.41 C 10.79,54.2 8,50.86 6.4,46.6 4.8,42.34 5.17,37.91 3.46,33.75 A 2.82,2.82 0 0 0 -0.6,32.1 c -6.07,2.9 -6.58,10.34 -5.32,16.26 1.47,6.88 6,13.11 11.1,17.77 5.1,4.66 11.16,9.19 17.74,11.05 7.31,2.06 13.5,-0.09 19.18,-4.59 2.21,-1.75 0.09,-4.6 -2,-4.88 z"
             transform="translate(6.48,2.9)"
             id="path8" />
          <path
             class="cls-7"
             d="m 96.08,84.09 c 6,-0.48 11.71,0.77 17.72,-0.86 A 38.75,38.75 0 0 0 128.72,75 c 6.62,-5.71 20.13,-20 14,-29.5 a 6.68,6.68 0 0 0 -7.38,-3 c -4.8,1.5 -3.93,5.71 -5.71,9.35 a 54.37,54.37 0 0 1 -9.7,13.27 c -3.81,3.94 -8,7.32 -13.19,9.19 -2.31,0.84 -4.68,1.42 -6.92,2.47 -2.83,1.34 -3.44,2.36 -5.14,4.84 a 1.65,1.65 0 0 0 1.42,2.47 z"
             transform="translate(6.48,2.9)"
             id="path9"
             sodipodi:insensitive="true" />
          <path
             class="cls-7"
             d="m 124.52,74.71 c 6.66,8.91 6.91,25.4 19.38,28.59 a 5.88,5.88 0 0 0 6.5,-2.64 c 2.79,-5.06 2,-10.36 -0.05,-15.55 -2,-5 -4.25,-10.91 -7.6,-15.21 -3.13,-4 -7.82,-6.9 -13.05,-5.13 -3.41,1.16 -8,6.16 -5.18,9.94 z"
             transform="translate(6.48,2.9)"
             id="path10" />
          <path
             class="cls-7"
             d="m 142.29,162.47069 c -6,0.32 -11.71,5.41 -14.92,10 -3.21,4.59 -5.85,13.2 -11.78,15 a 3.73,3.73 0 0 1 -4.08,-1.66 c -2.66,-3.73 -0.91,-9.71 0.7,-13.59 a 38.34,38.34 0 0 1 8.37,-12.95 c 5.78,-5.7 18.19,-13 25.4,-5.72 3.29,3.34 0.75,8.66 -3.69,8.9 z"
             id="path11" />
          <path
             class="cls-7"
             d="m 143.42,199.73 c 4.32,-1.73 8.26,-3.13 12.16,-5.77 1.88,-1.28 3.62,-3 5.63,-4 2.01,-1 3.07,-0.89 5.36,-0.91 a 103,103 0 0 0 26.92,-3.44 55.67,55.67 0 0 0 21.89,-11.64 c 5.68,-5 13.49,-15.25 8.24,-22.92 a 7,7 0 0 0 -7.64,-3.11 c -6.94,2.1 -9.86,11 -15.48,15.3 -5.9,4.55 -13.11,6.62 -20.28,8.14 -7.67,1.63 -15.77,1.76 -22.82,5.48 -7.69,4.06 -13.07,10.85 -17.9,17.8 -1.64,2.36 1.13,6.21 3.92,5.1 z"
             transform="translate(6.48,2.9)"
             id="path12" />
          <path
             class="cls-7"
             d="M 57,69.17 C 46.34,75.4 55.64,91.34 64.53,94 a 17.8,17.8 0 0 0 16.29,-3.39 c 3.78,-3 8.38,-9.3 3.91,-13.7 A 2.34,2.34 0 0 0 82.4,76.3 c -5.67,2.37 -6.84,9.88 -14.26,9.52 -8,-0.39 -8.92,-9.76 -9.71,-15.83 A 1,1 0 0 0 57,69.17 Z"
             transform="translate(6.48,2.9)"
             id="path13" />
          <path
             class="cls-7"
             d="m 66.21,72.77 c 4.29,0 4.29,-6.65 0,-6.65 -4.29,0 -4.29,6.65 0,6.65 z"
             transform="translate(6.48,2.9)"
             id="path14" />
          <path
             class="cls-7"
             d="m 68.51,79.29 c 3.8,0 3.81,-5.91 0,-5.91 -3.81,0 -3.81,5.91 0,5.91 z"
             transform="translate(6.48,2.9)"
             id="path15" />
          <path
             class="cls-7"
             d="m 73.87,72.29 a 1.32,1.32 0 0 0 0,-2.63 1.32,1.32 0 0 0 0,2.63 z"
             transform="translate(6.48,2.9)"
             id="path16" />
          <path
             class="cls-8"
             d="m 58,24.6 a 22.4,22.4 0 0 1 6.93,-8 c 1.89,-1.4 6.56,-4.56 9.11,-4.08 0.5,0.09 2.36,2.49 3.06,4.1 a 20.68,20.68 0 0 1 1.3,8.64 c -0.09,7.25 -3.19,19 3,24.72 7.67,7.06 12.25,-5 13.28,-10.77 2.46,-13.86 2.78,-34 -12.6,-40.71 -15,-6.56 -27.61,10.73 -31,23.17 C 50,25.7 56,28.49 58,24.6 Z"
             transform="translate(6.48,2.9)"
             id="path17"
             sodipodi:insensitive="true" />
          <path
             class="cls-8"
             d="m 87.59,58.55 c 5,-4.39 13.52,-7.51 20.13,-8.18 a 37,37 0 0 1 9.69,0.24 c 3.45,0.58 6.62,2.88 10.06,2.88 a 5.17,5.17 0 0 0 4.84,-3.68 l 0.24,-0.72 A 5.88,5.88 0 0 0 131,43.27 c -6.47,-6.26 -18.79,-5.88 -26.87,-3.6 a 37.31,37.31 0 0 0 -12.07,5.75 c -3.73,2.76 -5.89,6.26 -8.38,10.12 -1.6,2.47 1.87,4.8 3.9,3 z"
             transform="translate(6.48,2.9)"
             id="path18" />
          <path
             class="cls-8"
             d="M 13.44,37.8 C 16.57,29.2 30.28,37.16 34.49,40.51 40.13,45 44.25,51 49.91,55.47 a 1.66,1.66 0 0 0 2.74,-0.72 C 55.85,42.75 45.51,32.05 35.38,27.27 29.82,24.65 23.54,22.79 17.49,25 12.14,27 9.38,31.77 9.57,37.29 a 2,2 0 0 0 3.87,0.52 z"
             transform="translate(6.48,2.9)"
             id="path19" />
          <path
             class="cls-8"
             d="m 5,101.43 c 6.07,-1.19 11,-5.08 16.6,-7.52 a 69.78,69.78 0 0 1 19.3,-5.3 c 5.45,-0.65 5.79,-9 0,-8.77 A 57.52,57.52 0 0 0 18.19,85 C 11.73,87.94 4.87,92 2.54,99 A 2,2 0 0 0 5,101.43 Z"
             transform="translate(6.48,2.9)"
             id="path20" />
          <path
             class="cls-8"
             d="m 97.62,92 a 34,34 0 0 1 17,7.44 c 3.71,3.19 6.34,10.07 11.07,11.5 a 2.69,2.69 0 0 0 3,-1.2 c 4.47,-6.25 -4.64,-15.43 -9.23,-18.77 A 25.13,25.13 0 0 0 96.98,86.84 c -3,0.87 -2.1,4.81 0.7,5.16 z"
             transform="translate(6.48,2.9)"
             id="path21" />
          <path
             class="cls-8"
             d="m 168.44,168.3 c 3.36,-2.14 7.18,-3.63 10.69,-5.53 a 71.66,71.66 0 0 1 10.52,-5 32,32 0 0 1 11.36,-2 c 3.87,0.11 7.4,2.07 11.17,0.82 a 4.35,4.35 0 0 0 2.57,-6.33 c -4.8,-7.66 -18.88,-5 -26.07,-2.46 a 54.92,54.92 0 0 0 -12.54,6.45 c -4.15,2.8 -7.26,6.54 -11,9.72 -2.42,2 0.72,6 3.35,4.34 z"
             transform="translate(6.48,2.9)"
             id="path22" />
          <path
             class="cls-8"
             d="m 118.53,155.72 c 3.31,-0.24 7.83,1.33 11,2.25 a 21.42,21.42 0 0 1 9.29,5.39 c 6.35,6.12 15.87,-3.38 9.68,-9.68 a 27.92,27.92 0 0 0 -15.55,-8.1 20,20 0 0 0 -8.87,0.49 c -3.13,0.9 -4.45,2.37 -7,4.14 -2.22,1.52 -1.66,5.73 1.49,5.51 z"
             transform="translate(6.48,2.9)"
             id="path23" />
        </g>
      </g>
      <path
         class="cls-9"
         d="m 137.51,185.25 c -7,-1.25 -17.41,-5.8 -20.84,-21.51 -5.31,-24.33 23.89,-15.08 23.89,-15.08 0,0 9.26,4.89 14,10.11"
         transform="translate(6.48,2.9)"
         id="path24"
         style="stroke-width:2.35464567;stroke-dasharray:none"
         sodipodi:insensitive="true" />
      <path
         class="cls-9"
         d="m 132.56,78.7 c 12,3.32 30.59,12.53 35.71,38 7.79,38.57 -23,65 -24.77,73.44 -1.77,8.44 9.73,11.94 9.73,11.94 a 124.57,124.57 0 0 0 12.07,-16.93 c 10.51,5.38 25,3.36 34.39,1.1 a 33.33,33.33 0 0 0 19.48,-13 c 4.56,-6.43 6.58,-14.51 -5.33,-19.88 -11.91,-5.37 -26.88,2.2 -38.15,10.69 7.32,-19 11,-43 -0.34,-66.88 C 167.56,80.76 153.48,72.6 138.62,68.9"
         id="path25"
         style="display:inline;stroke-width:2.35465;stroke-dasharray:none" />
      <path
         class="cls-11"
         d="m 65.48,61.9 c 0,0 -17.33,-39.85 11.53,-54.15 28.86,-14.3 16.61,41.36 16.61,41.36 L 89.53,61.9 c 0,0 10.06,-23.49 38,-15.83 12.76,3.49 13.83,11.83 11.23,19.83 a 31.58,31.58 0 0 1 -25.28,21.18 c -3.47,0.54 -7.31,1 -11.18,1.35 0,0 31.31,-5.62 31.15,22.47 -0.08,14 -11.15,20.17 -18.78,19.72 A 26.08,26.08 0 0 1 94.48,118.53 l -4.95,-7.63 c 0,0 10.73,27.57 -18.38,34.21 -29.11,6.64 -10.81,-47 -10.81,-47 0,0 -13.86,50.04 -45.64,17.89 -23.72,-24 33.98,-38.1 33.98,-38.1 0,0 -33.2,8.52 -33.98,-27 -0.78,-35.52 34,-18.25 34,-18.25 0,0 9.15,7.78 16.78,29.25 z"
         id="path26"
         style="stroke-width:0;stroke-dasharray:none"
         sodipodi:insensitive="true" />
      <circle
         class="cls-12"
         cx="75.959999"
         cy="81.370003"
         r="16.940001"
         id="circle26"
         style="stroke-width:2.5;stroke-dasharray:none"
         sodipodi:insensitive="true" />
    </g>
  </g>
</svg>
