<svg xmlns="http://www.w3.org/2000/svg" xmlns:xlink="http://www.w3.org/1999/xlink" viewBox="0 0 165.93 251.63"><defs><style>.cls-1,.cls-6{fill:none;}.cls-2{fill:#79ffa3;stroke:#231f20;}.cls-2,.cls-6{stroke-linecap:round;stroke-linejoin:round;stroke-width:5px;}.cls-3{opacity:0.53;}.cls-4{clip-path:url(#clip-path);}.cls-5{fill:#901a3d;}.cls-6{stroke:#1b3328;}.cls-7{fill:#7ce8f6;}.cls-8{opacity:0.47;}.cls-9{clip-path:url(#clip-path-2);}.cls-10{fill:#e6fff2;}.cls-11{fill:#221e2a;}.cls-12{fill:#0e638b;}</style><clipPath id="clip-path"><path class="cls-1" d="M160.28,137.4c-16.8,8.24-27.18,19-33.59,29.36.8-11.95.46-23.41-1.8-32.9C115.6,94.93,109.4,82.54,75.34,61.75c-34.62-21.13-12.83,8.4-12.83,8.4s44.29,13.18,51.33,77.42c3.54,32.3-15.06,95.12-15.06,95.12s8.85,6.63,10.62,4.42c.61-.76,3.76-9.89,7.24-23.1,9.25-2.34,24.93-8.34,36.12-23.35C169.57,178.1,160.28,137.4,160.28,137.4Z"/></clipPath><clipPath id="clip-path-2"><path class="cls-1" d="M81.19,79S48.24,97.7,31,74.29s-5.61-42.64-5.61-42.64S48.48,3.84,68.89,13.82s24.8,25.46,24.8,25.46,8.14,19.19-2,32.47Z"/></clipPath></defs><g id="Calque_2" data-name="Calque 2"><g id="Warstwa_12" data-name="Warstwa 12"><path class="cls-2" d="M160.65,139c-16.79,8.24-27.17,19-33.58,29.36.8-11.94.45-23.41-1.81-32.9C116,96.5,109.77,84.11,75.71,63.32c-34.62-21.13-12.83,8.4-12.83,8.4s44.29,13.18,51.33,77.43c3.54,32.29-15,95.11-15,95.11s8.85,6.63,10.61,4.42c.62-.76,3.77-9.89,7.24-23.1,9.25-2.34,24.93-8.34,36.12-23.35C169.94,179.67,160.65,139,160.65,139Z"/><g class="cls-3"><g class="cls-4"><path class="cls-5" d="M158.2,141.65c-.19,1.93-1.59,4-1.94,6q-.6,3.53-1.18,7a93.73,93.73,0,0,1-3.37,14.11c-3,9.05-7.3,18-13.59,25.24a65.82,65.82,0,0,1-10,9.54c-4.24,3.2-9.14,5.43-13,9.06-8.39,7.79-11.73,17-14,28-1.32,6.28,8.26,9,9.67,2.66,1.19-5.33,2.33-11.08,5.48-15.67,3.4-5,9.88-6.13,14.9-8.95a65.08,65.08,0,0,0,22-21.09A75,75,0,0,0,164.31,170a75.88,75.88,0,0,0,1.61-15.31,50.65,50.65,0,0,0-.67-7.06c-.42-2.5-2-4.28-2.54-6.61-.65-2.67-4.27-1.83-4.51.61Z"/><path class="cls-5" d="M82,78.89c-.32,2.66,1.83,5.42,4,6.7A11.53,11.53,0,0,0,92,87a7.93,7.93,0,0,0,5.41-2.24A7.65,7.65,0,0,0,92,71.68l-2.66-.07a7.77,7.77,0,0,0-7.12,4.79,7.46,7.46,0,0,0-.54,4,7.19,7.19,0,0,0,2.15,4.48c.55.45,1,1,1.57,1.45a7.64,7.64,0,0,0,10.2.6,7.79,7.79,0,0,0,2-10,12.55,12.55,0,0,0-4.32-4.28L89.37,87.2,92,87V71.68a21.59,21.59,0,0,0-4.68.61,8.85,8.85,0,0,0-3.48,2.08A7.21,7.21,0,0,0,82,78.89Z"/></g></g><path class="cls-6" d="M160.65,139c-16.79,8.24-27.17,19-33.58,29.36.8-11.94.45-23.41-1.81-32.9C116,96.5,109.77,84.11,75.71,63.32c-34.62-21.13-12.83,8.4-12.83,8.4s44.29,13.18,51.33,77.43c3.54,32.29-15,95.11-15,95.11s8.85,6.63,10.61,4.42c.62-.76,3.77-9.89,7.24-23.1,9.25-2.34,24.93-8.34,36.12-23.35C169.94,179.67,160.65,139,160.65,139Z"/><path class="cls-6" d="M118.81,204.08c0-1.32,3.17-30.36,8.88-38.32"/><path class="cls-7" d="M82.23,23a30.81,30.81,0,0,1,7.89,11.92c2,5.35,3.86,9.91,4.62,12.71,2.49,9.1,3.11,25.24-25.4,35C30,96.2,19.12,63.15,19.12,63.15s-10-22.1,12.94-41.5S78,19.1,78,19.1Z"/><g class="cls-8"><g class="cls-9"><path class="cls-5" d="M64.32,72.74l-6.07,4.88-3.46-2c1.09,1,1.91,2.55,2.94,3.7L68.45,65.4l-.81-.62,4.12,5.36v.34l-1.23,4.57.56-1-3.26,3.26q-6.14-.83-2.35.6a13.68,13.68,0,0,0,3.64,1.31A12.2,12.2,0,0,0,77.66,78a11.58,11.58,0,0,0,5-6.2,5.52,5.52,0,0,0,.6-2.39q1.68-5.43-7.89.1l-2-3.48.19.77c2.84,11.56,21.42,4.43,15.26-6.43-1.42-2.51-1.06-4.19,0-6.74l-9.05,6.9h.89L74,57.78l.65.67-2.77-6.7.1.93,1.29-4.78-.56.77,3.4-3.4-.91.4L80,44.38l-1,0,4.79,1.3c.37.2,1,1.59,1.27,1.11l-3.42,3.42.93-.66-4.81,1.3h.77l-4.82-1.31.63.4-4.39-5.7.19.67,4.38-10.78-.81.42,4.82-1.31.76.12,4.21,2.45-.65-.56,2.46,4.22-.3-.81v5.08l.19-.85-2.45,4.2.62-.64-4.19,2.44H78.3l-6.66-2.76.65.51-2.42-9.15c-1.64,5.13.94,10.56,6.57,11.57,4.16.74,8.38-.49,10.61-4.32,2-3.47,1.61-8.62-1.47-11.4-6.75-6.08-18-3.06-19.22,6.58-1.22,10,9.82,14.85,17.75,10.68,3.69-1.94,5.5-6.85,4.39-10.78A11,11,0,0,0,70,35.22c-5.43,5.43-5.4,15.4-1.48,21.62C73.1,64.07,83.93,66,89,58.24c4.59-7-.55-17.14-9.29-16.49a9.77,9.77,0,0,0-9.06,6.89,21.4,21.4,0,0,0,5,21.85l8.12-14c-3.89-1.06-7.6.2-10.64,2.68-.28.23-1.86,1.51-1.89,1.8-.15,1.32,1.21-1,1.46-.19-.35-1.13-6.54-1.5-7-1.49A12.19,12.19,0,0,0,54.44,67c-1.82,5-.13,11.45,5.08,13.7,11.69,5,18.77-11.41,6.82-16.18-3.17-1.26-5.22-3.13-9.1-1.86a8.65,8.65,0,0,0-2.06,15.46c3,1.91,5.38.56,8.46-.15a2.88,2.88,0,0,0,.68-5.22Z"/><path class="cls-5" d="M69.63,51.94l-.31-.79v2.36l.2-.72L58.46,51.3c0-.24.09,2.64.45,2.81-.13-.06-.08-1.76-.12-.81,0,.34,0,.68,0,1L61,48.84l-.11.09,9.85-1.27a9.11,9.11,0,0,0-4.62-1.26l2.23.3-.25-.1,2,.85-.21-.16,1.71,1.32-.16-.21,2.19,3.75-.1-.23.31,2.27v-.26L61,61.33c.34.22.65.44,1,.68l-1.77-1.36a10.79,10.79,0,0,1,1.64,1.67l-1.41-1.83c.15.2.3.41.44.63L71.17,47.7l-.23,0,2.19.92-.19-.1,1.86,1.44-.15-.16,1.44,1.86-.11-.2.94,2.21-.07-.22.33,2.47v-.23l-.33,2.47a.82.82,0,0,1,.12-.43l-2.41,4.13.14-.17-1.9,1.47L73,63H63.49c1.32.66,2.67,1.24,4,1.79,2.15.86,5.43.16,7.34-1a9.52,9.52,0,0,0,3.42-13L76.8,48.86a9.59,9.59,0,0,0-4.21-2.45,10.26,10.26,0,0,0-9.1.34,10,10,0,0,0-4.79,7.43c-.76,5.65,3.88,12,10,11.47,3.72-.32,6.84-2,8.35-5.62a9.08,9.08,0,0,0-1.89-10,18.91,18.91,0,0,0-7.61-4.39C61.48,43.87,55.05,50,57,56.21a9.79,9.79,0,0,0,4.35,5.69,10.21,10.21,0,0,0,7.25.93c2.75-.5,5.18-3.22,5.84-5.83l0-.16a8.26,8.26,0,0,0-2.09-7.91c-2.19-2.19-5-2.62-7.92-2.09h-.05l6,.78a14.18,14.18,0,0,0-3.3-1.54,9.51,9.51,0,0,0-4.53-.22,5.64,5.64,0,0,0-3.37,2.59,5.63,5.63,0,0,0,6.36,8.26l.64-.12-3.41-.44.82.38a4.15,4.15,0,0,0,4.52-.31,4,4,0,0,0,1.47-4.29Z"/><path class="cls-10" d="M28.15,57.37l.15.34-.91-2.15a3.15,3.15,0,0,1,.16.69l-.33-2.47a3.28,3.28,0,0,1,0,.7L27.57,52a4.64,4.64,0,0,1-.29,1l1-2.38a2.92,2.92,0,0,1-.37.61l1.6-2.07-.24.26,12.56-1.62a22.43,22.43,0,0,1-2.18-1.26l2.17,1.67a7.15,7.15,0,0,1-.88-.86l1.7,2.19a5.16,5.16,0,0,1-.61-1l1.11,2.63a3.23,3.23,0,0,1-.2-.72l.4,2.94a2.51,2.51,0,0,1,0-.67l-.4,3A34.67,34.67,0,0,0,43.39,52l-.4,3a11.22,11.22,0,0,1,.45-1.63c1.31-4.16-.59-8.89-3.9-11.46a10.32,10.32,0,0,0-5.16-2.14A10.2,10.2,0,0,0,27.44,41a14.16,14.16,0,0,0-6,8,13.53,13.53,0,0,0,1.48,10.41A16.48,16.48,0,0,0,36.6,67.07,10.5,10.5,0,0,0,47,56.71c0-4.55-2.42-9.44-6.66-11.49-3.45-1.67-8-1.65-10.76,1.39a10.53,10.53,0,0,0-2.28,3.92c-.78,2.4-.05,4.67.89,6.84Z"/><path class="cls-10" d="M40.77,37.48c-.18-1-.24-1-.2.19l-6,4.54c-3.28-.43.63.15,1.28.07l-7.24-4.16a5.68,5.68,0,0,0,.76,1Q32,42.76,28,34.9l1.35-5-.17.37,3.61-3.61a2,2,0,0,1-.82.46l5.21-1.41q7.08.74,7.55,7.9l-1.43,5.3-4.73,3.85H32.89a6.61,6.61,0,0,1-3.69-2.68c-.57-.79-.62-.84-.16-.13,2.44,3.89,7.52,6.41,12.11,4.93A11.12,11.12,0,0,0,49,34.55,7,7,0,0,1,46.22,40c-.41.29-3.26,1.94-3.64,1.42.16.23,1.41,0,1.66,0a12.47,12.47,0,0,0,5.9-1.74A10.77,10.77,0,0,0,41.86,20l1.55-.19c-.42,0-.83-.06-1.25-.06a17.34,17.34,0,0,0-3.59.42,14.78,14.78,0,0,0-11,14.34l20-5.41c-2.29-3.06-4.65-5.74-8.54-6.75a12.51,12.51,0,0,0-11.72,3c-6.33,6.09-3.6,15.7,3.59,19.5a11.67,11.67,0,0,0,13.54-1.58,10.94,10.94,0,0,0,1.93-13.44c-4.72-8.07-18.78-6.49-18.86,4l1.15-4.24c-2.41,3.9-1.39,9.51,2.84,11.72l-2.84-3.7a16.31,16.31,0,0,0,3.11,5.06c3.77,4.22,10.14-.3,9-5.25Z"/><path class="cls-10" d="M58.3,26.67l0-.16L58,28.8l.05-.15-.87,2.06a.92.92,0,0,1,.16-.27L56,32.18a1.21,1.21,0,0,1,.23-.22l-1.75,1.35a1.64,1.64,0,0,1,.29-.16L52.71,34a2.19,2.19,0,0,1,.5-.14l-2.29.31.17,0L45,31.65a10.29,10.29,0,0,0,4.25,2.52l-2.12-.89a1.22,1.22,0,0,1,.29.17l-1.81-1.4a3.2,3.2,0,0,1,.43.47l-1.41-1.83a3.76,3.76,0,0,1,.3.56L44,29.06a6.19,6.19,0,0,1,.3,1l.94-7.19-.05.12-1,2.27-.34,2.53a9.06,9.06,0,0,0,2,5.75,4.77,4.77,0,0,0,1.7,1.7,4.76,4.76,0,0,0,2.1,1.22,4.7,4.7,0,0,0,2.4.65A7.15,7.15,0,0,0,55.91,37a10.55,10.55,0,0,0,4.19-2.44,9.87,9.87,0,0,0,2.44-4.19l.34-2.52a7.09,7.09,0,0,0-.82-3.66,8.74,8.74,0,0,0-3.88-4.54L58,19.56l3.35,3.35a14.66,14.66,0,0,0-4.55-4.72A9.2,9.2,0,0,0,54,17a9.65,9.65,0,0,0-4.89,0l-2.11.9q-1,.73-2,1.53l6.1-2.53a14.62,14.62,0,0,0-2.88.43A10.29,10.29,0,0,0,44,19.77a10.88,10.88,0,0,0-1.67,2.09,10.47,10.47,0,0,0-1.31,4.81c-.26,2,1.15,4.72,2.52,6.1a8.64,8.64,0,0,0,12.2,0L57.12,31a8.61,8.61,0,0,0,1.18-4.35Z"/></g></g><path class="cls-11" d="M25.91,2.68A48.76,48.76,0,0,1,39.4,10.6a24.78,24.78,0,0,1,8.19,13.1"/><path class="cls-12" d="M24,4.57c4.28,3.86,9.41,6.6,13.49,10.71,3.18,3.21,5.24,8.65,9.52,10.46a2,2,0,0,0,2-.55c4.09-5-.8-12.34-4.45-16.11A29.71,29.71,0,0,0,25.91,0C23.62-.17,22.36,3.06,24,4.57Z"/><path class="cls-11" d="M2.81,42.81a37.23,37.23,0,0,1,28.81-1.94"/><path class="cls-12" d="M3.6,45.66a58.61,58.61,0,0,1,20-1.72c3.26.28,11.46,1.67,10.34-4.18-1-5.37-10.26-5.85-14.45-5.72A31.29,31.29,0,0,0,1.32,40.26c-2.57,1.89-1.17,6.31,2.28,5.4Z"/><path class="cls-11" d="M19.5,87.48C22.41,78,31.13,71.7,39.31,66.1"/><path class="cls-12" d="M22.17,89.05a44,44,0,0,1,9.68-12c3.37-3.06,7.7-6,9.5-10.34.53-1.28-.8-2.7-2-2.67-5.34.12-10.67,4.39-14.41,7.9a26.08,26.08,0,0,0-8.39,14.77c-.57,3.22,3.94,5.72,5.66,2.39Z"/><path class="cls-11" d="M68.36,92.19c-1.23,1-3-.34-3.86-1.7a17.65,17.65,0,0,1-1.63-14.66"/><path class="cls-12" d="M68.36,89.23l-.44-.06L70,90.76a20.27,20.27,0,0,1-2.7-7.62c-.5-3-.34-6-1.86-8.8a3,3,0,0,0-4-1.06c-11.55,6,.93,29.8,9.07,21,1.56-1.69.62-5.33-2.09-5Z"/><path class="cls-11" d="M79,45c4.5-.83,9.06-1.66,13.63-1.36s9.22,1.88,12.37,5.2"/><path class="cls-12" d="M79,48.67c8.9-1.18,17-1.19,25.41,2.31,2,.82,3.22-1.72,2.49-3.23-5.33-11-19.23-8.5-28.87-6.26-3.93.91-3.17,7.73,1,7.18Z"/><path class="cls-11" d="M65.59,25.15A35.55,35.55,0,0,1,84.7,6.43"/><path class="cls-12" d="M68.5,26.85a33.63,33.63,0,0,1,8.37-11c1.75-1.51,3.64-3,5.49-4.4s3.37-1.88,4.53-3.75A2.56,2.56,0,0,0,85.37,4c-4.79-1-10.68,3.23-13.94,6.43a40.67,40.67,0,0,0-9.09,13.83c-1.45,3.52,4.49,6,6.16,2.6Z"/></g></g></svg>