<?xml version="1.0" encoding="UTF-8" standalone="no"?>
<svg
   viewBox="0 0 481.23 818.81"
   version="1.1"
   id="svg65"
   sodipodi:docname="fleur-bleue.svg"
   width="481.23001"
   height="818.81"
   inkscape:version="1.4.2 (2aeb623e1d, 2025-05-12)"
   xmlns:inkscape="http://www.inkscape.org/namespaces/inkscape"
   xmlns:sodipodi="http://sodipodi.sourceforge.net/DTD/sodipodi-0.dtd"
   xmlns="http://www.w3.org/2000/svg"
   xmlns:svg="http://www.w3.org/2000/svg">
  <sodipodi:namedview
     id="namedview65"
     pagecolor="#ffffff"
     bordercolor="#000000"
     borderopacity="0.25"
     inkscape:showpageshadow="2"
     inkscape:pageopacity="0.0"
     inkscape:pagecheckerboard="0"
     inkscape:deskcolor="#d1d1d1"
     showgrid="false"
     inkscape:zoom="0.64776118"
     inkscape:cx="245.46083"
     inkscape:cy="419.13595"
     inkscape:window-width="1600"
     inkscape:window-height="836"
     inkscape:window-x="0"
     inkscape:window-y="27"
     inkscape:window-maximized="1"
     inkscape:current-layer="svg65" />
  <defs
     id="defs1">
    <style
       id="style1">.cls-1,.cls-10,.cls-11,.cls-9{fill:none;}.cls-2{fill:#57d754;}.cls-2,.cls-3,.cls-4{stroke:#231f20;}.cls-10,.cls-2,.cls-9{stroke-linecap:round;stroke-linejoin:round;}.cls-10,.cls-11,.cls-2,.cls-3,.cls-4,.cls-9{stroke-width:5px;}.cls-3{fill:#ffe5fd;}.cls-11,.cls-3,.cls-4{stroke-miterlimit:10;}.cls-4{fill:#fdfc80;}.cls-5{opacity:0.47;}.cls-6{clip-path:url(#clip-path);}.cls-7{fill:#901a3d;}.cls-8{fill:#e6fff2;}.cls-9{stroke:#1b3328;}.cls-10{stroke:#4d0034;}.cls-11{stroke:#4f3905;}.cls-12{fill:#231f20;}</style>
    <clipPath
       id="clip-path"
       transform="translate(0 11.64)">
      <path
         class="cls-1"
         d="M 381.1,545 C 316.96,507 228.59,482.58 197.47,454.89 168.37,429 130.87,387.19 121.68,319.44 c -8.56,-63.11 9.63,-113.24 28.68,-152.68 29,12.13 67.79,-35 67.79,-35 l -1.07,-0.6 a 23.54,23.54 0 0 0 6,-1.34 25.31,25.31 0 0 0 4.61,6.78 c 6.66,6.13 19.61,13 34.93,14.5 6.37,0.62 9.43,-1.53 10.82,-5 8.38,6.3 17.21,11.75 21.73,14.76 8.8,5.87 41.75,1 45.58,-7.1 3.83,-8.1 -7.66,-14.86 -17.68,-26.26 -4.72,-5.38 -20.47,-8.43 -36.28,-10.23 0.32,-4.82 -0.78,-10.83 -1.19,-14 -0.77,-5.81 -10,-8 -17.37,-14.27 -2.88,-2.45 -9.36,-2.15 -16.31,-0.79 0.07,-4 -2.12,-9 -3.09,-12.81 -1.53,-6 -15.32,-12.34 -31.56,-18.76 a 11.44,11.44 0 0 0 -3.42,-0.78 c -3.17,-5.79 -10.45,-12.78 -26,-15.2 -11.62,-1.81 -17.16,1.78 -19.76,6.27 -1.71,-2.3 -3.31,-4.44 -4.61,-6.27 -7.19,-10.15 -27.27,-22.79 -39.53,-28.2 -5.91,-2.61 -9.5,0 -11.9,3.72 C 102.49,8.84 86.86,1.81 86.86,1.81 c 0,0 -33.39,-6.39 -25.92,15.4 4.44,12.93 20.44,24.62 32.7,32 -18.26,6.4 -21.46,14.28 -12.59,21.69 10.72,9 36.76,16.4 41.36,17.66 2.36,0.65 9,1.08 15.78,-1.28 0.11,1 -0.24,4.25 0,5.25 -5.34,8.21 -22.9,38.09 1.06,65.73 -22.2,26.54 -53.84,120.19 -35.56,186.74 11.19,40.73 29.2,65.51 47.77,91.56 a 178.31,178.31 0 0 0 57.23,51.51 714,714 0 0 0 -97.77,-16 C 34.85,465.17 0.18,526.07 2.15,528 c 35.24,34.46 96.07,34.56 127.15,33.63 26,-0.78 92.68,-19.08 123.32,-29.8 13.84,-4.85 27.83,-6.09 39,-6 15.3,6.57 30.95,13.11 46,19.12 69.7,27.85 88.85,127.43 88.85,127.43 l 11.41,-22.33 c 0,0 7.37,-67.05 -56.78,-105.05 z m -201,-434.37 c 0.41,-0.78 0.82,-1.58 1.22,-2.4 A 16.94,16.94 0 0 0 181,111 Z"
         id="path1" />
    </clipPath>
    <clipPath
       id="clip-path-3"
       transform="translate(4.35 0.72)">
      <path
         class="cls-1"
         d="m 336.71,67 c -8.08,-4.29 -33,-12.68 -61.73,-7.66 -3.46,-44.39 -60.44,-56.28 -60.44,-56.28 0,0 -65.07,-10.79 -98,49.83 -9.09,16.74 -9.65,32.58 -5.69,46.76 C 84,93.41 52.32,90.31 25.61,112.52 -12.15,143.92 9.3,215 9.3,215 c 0,0 7.75,14.61 36.21,22 C 17.36,254.63 -3.76,279.63 11.6,312.39 46.07,386 141,362.22 141,362.22 a 117.47,117.47 0 0 0 27.6,-16.55 c 12.05,4.23 28.5,6.65 37.51,5.33 12.26,-1.8 52.09,-29.27 53.62,-55.75 l 0.35,-0.59 a 28.41,28.41 0 0 0 22.65,0.14 l 0.46,0.45 c 0,0 14.07,-2 30.17,-12.69 16.1,-10.69 26.79,-11.49 30,-44.25 1.48,-15.11 -6.59,-22.27 -15.71,-25.6 15.68,-7.7 31.3,-19.25 43.13,-36.62 C 406.83,123.24 350.75,74.45 336.71,67 Z"
         id="path1-7" />
    </clipPath>
  </defs>
  <g
     id="Calque_2"
     data-name="Calque 2"
     transform="translate(35.050692,126.58986)">
    <g
       id="Layer_27"
       data-name="Layer 27">
      <path
         class="cls-2"
         d="M 381.53,546.52 C 317.39,508.52 229.02,484.09 197.9,456.41 168.79,430.52 131.3,388.7 122.11,321 c -8.56,-63.12 9.63,-113.25 28.68,-152.69 29.05,12.14 67.79,-35 67.79,-35 L 140.45,89.85 c 0,0 -28.54,38 -0.81,70 -22.17,26.51 -53.81,120.15 -35.53,186.7 11.2,40.74 29.2,65.51 47.78,91.57 a 178.73,178.73 0 0 0 71.34,58.74 c 30.48,13.91 74.81,33.67 114.84,49.66 69.7,27.85 88.85,127.42 88.85,127.42 l 11.41,-22.33 c 0,0 7.34,-67.07 -56.8,-105.09 z"
         transform="translate(0,11.64)"
         id="path2" />
      <path
         class="cls-2"
         d="m 315.09,529.57 c 0,0 -31.4,-6.89 -62,3.83 -30.6,10.72 -97.34,29 -123.32,29.8 -31.08,0.93 -91.92,0.84 -127.15,-33.63 -2,-1.93 32.69,-62.83 108.77,-55.92 76.08,6.91 133.27,25.54 133.27,25.54 l 36,12"
         transform="translate(0,11.64)"
         id="path3" />
      <path
         class="cls-2"
         d="m 49.3,518.27 c 2.3,2.05 35.24,-22.57 186.13,-1.83"
         transform="translate(0,11.64)"
         id="path4" />
      <path
         class="cls-2"
         d="m 107.52,539.86 c 0,0 16.85,-26.23 42.89,-30.54"
         transform="translate(0,11.64)"
         id="path5" />
      <path
         class="cls-2"
         d="m 81.47,489.8 c 0,0 23.75,9.51 30.64,17.72"
         transform="translate(0,11.64)"
         id="path6" />
      <g
         class="cls-5"
         id="g42">
        <g
           class="cls-6"
           clip-path="url(#clip-path)"
           id="g41"
           transform="translate(0,10)">
          <path
             class="cls-7"
             d="m 134,99.06 c -1.28,11 9.58,23.37 18.3,28.94 a 31.66,31.66 0 0 0 16.06,5.28 26.21,26.21 0 0 0 8.35,-1 c 2.72,-0.8 4.84,-2.88 7.31,-3.78 h -3.84 c 0.57,0.11 4.67,4.35 5.82,5.22 a 46.27,46.27 0 0 0 6.53,4.21 c 4.38,2.27 12.12,6.21 17,3.32 5.47,-3.23 3.32,-9.37 -1.38,-11.82 -5.35,-2.79 -10.68,-4.24 -15.27,-8.44 -4.32,-4 -8.26,-8.72 -14.73,-5.66 -2.31,1.09 -4.1,2.85 -6.66,3.45 a 15.43,15.43 0 0 1 -7.15,-0.23 c -5.87,-1.42 -10,-4.66 -13.85,-9.23 -3.85,-4.57 -6.97,-10.08 -12.49,-12.56 a 2.71,2.71 0 0 0 -4,2.3 z"
             transform="translate(0,11.64)"
             id="path18" />
          <path
             class="cls-7"
             d="m 1.28,526.57 c 8.42,14.24 25.52,22.84 40.32,29 a 188,188 0 0 0 49.45,12.82 c 34.91,4.4 70.68,-0.29 104.3,-10.13 17.83,-5.22 35,-12.14 52,-19.51 14.32,-6.19 30.71,-13 46.54,-9.14 14.61,3.55 26.36,14.61 38.58,22.73 13.27,8.83 28.83,14.68 40.78,25.41 11.5,10.33 18.82,24.19 23,38.93 a 131,131 0 0 1 4.34,22.39 c 0.91,8.8 0.35,17.72 2.74,26.28 2.32,8.36 13.9,7.86 16.45,0 2.47,-7.61 2,-15.37 1.35,-23.27 a 177,177 0 0 0 -3.32,-23.6 c -3.12,-14.59 -8.65,-29.32 -17.55,-41.4 -10,-13.56 -23,-22.8 -37.71,-30.8 -7.41,-4 -14.88,-8 -21.9,-12.71 -6.68,-4.49 -13,-9.51 -19.64,-14.05 -15.16,-10.33 -31.32,-15.6 -49.72,-13 -18.4,2.6 -34.71,11.81 -51.7,18.48 -33.41,13.13 -68.87,21.93 -104.95,21.43 a 204.89,204.89 0 0 1 -54.31,-8.29 209.65,209.65 0 0 1 -25.68,-9.48 c -8.73,-3.85 -17.15,-8.8 -26.39,-11.19 -5.17,-1.34 -9.77,4.38 -7,9.09 z"
             transform="translate(0,11.64)"
             id="path19" />
          <path
             class="cls-7"
             d="m 313.35,522 c 6.75,4.54 12.65,10.25 19.2,15.07 6.31,4.65 12.57,9.41 18.53,14.48 a 252.28,252.28 0 0 1 33.23,34.06 225.42,225.42 0 0 1 25.07,39.39 202.74,202.74 0 0 1 9.31,21.26 q 2.1,5.67 3.88,11.46 c 1.33,4.33 2.09,9.13 5.75,12.17 5.13,4.27 11.84,2.52 14.18,-3.74 2.34,-6.26 -1.64,-14.62 -3.75,-20.73 -2.25,-6.5 -4.83,-12.89 -7.6,-19.18 A 223.08,223.08 0 0 0 412.21,591.83 233.56,233.56 0 0 0 356.51,533.44 118.64,118.64 0 0 0 338,521.79 c -6.86,-3.29 -14.14,-5.26 -21.3,-7.74 -4.88,-1.69 -7.26,5.34 -3.35,8 z"
             id="path20"
             transform="translate(0,11.64)" />
          <path
             class="cls-7"
             d="m 231.3,489.38 c -5.93,-3.28 -11.24,-8 -16.84,-11.77 -5.6,-3.77 -12,-7.24 -17.31,-11.56 -5.52,-4.45 -11.64,-8.12 -17.29,-12.41 -5.48,-4.17 -10.76,-8.64 -15.84,-13.27 -20.56,-18.75 -36.75,-40.92 -49.76,-65.45 -3.68,-6.92 -6.84,-14.08 -10.1,-21.21 -3.26,-7.13 -5.34,-15.26 -9.85,-21.71 -2.6,-3.69 -7.48,-2.06 -8,2.18 -0.94,7.21 1.43,14.8 3.23,21.72 a 149.81,149.81 0 0 0 7.56,21.37 198.84,198.84 0 0 0 21.51,37.76 235.39,235.39 0 0 0 64.18,61.29 c 3.54,2.26 7.45,3.79 11.19,5.69 a 84.4,84.4 0 0 0 11.7,5.33 c 8.1,2.63 16.09,3.38 24.35,5.09 1.8,0.37 3.05,-2.12 1.3,-3.09 z"
             transform="translate(0,11.64)"
             id="path21" />
          <path
             class="cls-7"
             d="m 200.43,133.86 c -4.23,1.13 -7.42,4.37 -10.26,7.55 -3.26,3.64 -6.78,7.18 -10.38,10.47 -3.6,3.29 -16.37,13.53 -9.39,19.17 7.31,5.92 18.24,-4.18 23,-9 6.06,-6.08 14.52,-15.91 12.3,-25.18 a 4.37,4.37 0 0 0 -5.31,-3 z"
             transform="translate(0,11.64)"
             id="path22" />
          <path
             class="cls-8"
             d="m 199.35,97.7 a 90.67,90.67 0 0 1 12.35,11.49 c 3.69,4 6.43,8.44 10.63,11.9 1.27,1 3.88,0.53 3.68,-1.52 -1.25,-12.63 -13.44,-21.41 -24.2,-26.08 a 2.44,2.44 0 0 0 -2.46,4.21 z"
             transform="translate(0,11.64)"
             id="path38" />
          <path
             class="cls-8"
             d="m 22.53,516.2 c 3.81,-2 8.16,-2.86 12.18,-4.4 4.24,-1.62 8.36,-3.48 12.52,-5.26 a 131.9,131.9 0 0 1 24.24,-7.69 c 18.12,-3.85 36.58,-2.47 54.84,-0.41 20.16,2.28 40.38,4.44 60.64,5.47 5.23,0.27 10.39,1 15.64,1.1 5.25,0.1 10.34,-0.19 15.62,0.27 5.48,0.48 11,0.73 16.42,1.52 4.23,0.62 7.9,1.43 11.67,-1 a 1.6,1.6 0 0 0 0.57,-2.18 c -4.33,-5.69 -13.11,-5.39 -19.57,-7.18 -4.11,-1.14 -8.32,-1.87 -12.42,-3 -4.1,-1.13 -8,-2.82 -12.14,-4 -16.33,-4.58 -33.34,-7.4 -50.06,-10.15 -32,-5.28 -66,-9.83 -97,2.55 a 97.25,97.25 0 0 0 -21.78,11.67 53.54,53.54 0 0 0 -8.75,8 c -2.76,3.15 -4.48,7 -7,10.32 -2,2.74 1.8,5.72 4.36,4.37 z"
             transform="translate(0,11.64)"
             id="path41" />
        </g>
      </g>
      <path
         class="cls-9"
         d="m 138.15,92.53 c -4.29,6.31 -22.81,39.16 2.21,68 -22.16,26.54 -53.8,120.2 -35.52,186.73 C 116,388 134,412.8 152.61,438.85 a 178.18,178.18 0 0 0 50.73,47.66"
         transform="translate(0,11.64)"
         id="path42" />
      <path
         class="cls-9"
         d="m 290.41,527.11 c 16,6.91 32.55,13.82 48.38,20.14 69.7,27.85 88.85,127.42 88.85,127.42 l 11.41,-22.33 c 0,0 7.34,-67.06 -56.8,-105.09 -64.14,-38.03 -152.51,-62.42 -183.63,-90.11 -29.1,-25.89 -66.6,-67.7 -75.79,-135.45 -8.56,-63.12 9.63,-113.24 28.68,-152.69 27,11.27 62.28,-28.54 67.21,-34.31"
         transform="translate(0,11.64)"
         id="path43" />
      <path
         class="cls-9"
         d="m 315.81,530.3 c 0,0 -31.4,-6.89 -62,3.83 -30.6,10.72 -97.34,29 -123.32,29.81 -31.08,0.93 -91.91,0.83 -127.15,-33.64 -2,-1.93 32.7,-62.83 108.77,-55.91 76.07,6.92 133.27,25.53 133.27,25.53 l 36,12"
         transform="translate(0,11.64)"
         id="path44" />
      <path
         class="cls-9"
         d="m 50,519 c 2.29,2 35.23,-22.57 186.12,-1.84"
         transform="translate(0,11.64)"
         id="path45" />
      <path
         class="cls-9"
         d="m 108.24,540.6 c 0,0 16.85,-26.23 42.89,-30.55"
         transform="translate(0,11.64)"
         id="path46" />
      <path
         class="cls-9"
         d="m 82.2,490.53 c 0,0 23.74,9.51 30.63,17.72"
         transform="translate(0,11.64)"
         id="path47" />
    </g>
  </g>
  <g
     id="Calque_2-5"
     data-name="Calque 2"
     transform="rotate(50.381966,214.99206,221.08698)">
    <g
       id="Layer_30"
       data-name="Layer 30">
      <path
         class="cls-2"
         d="m 206.15,290.05 37.27,-18.77 10.36,2.87 c 0,0 15.94,5.64 6,21.29 -9.94,15.65 -33.54,33.35 -33.54,33.35 z"
         transform="translate(4.35,0.72)"
         id="path2-9"
         style="fill:#7ce8f6;stroke:#231f20;stroke-width:5px;stroke-miterlimit:10" />
      <path
         class="cls-2"
         d="m 283.23,240.5 -12.73,8.68 -27.08,31.74 c 0,0 18.16,27.58 45.21,11.08 27.05,-16.5 17.54,-40.13 14.64,-42.85 -2.9,-2.72 -20.04,-8.65 -20.04,-8.65 z"
         transform="translate(4.35,0.72)"
         id="path3-2"
         style="fill:#7ce8f6;stroke:#231f20;stroke-width:5px;stroke-miterlimit:10" />
      <path
         class="cls-2"
         d="m 126.49,204.62 c 0,0 -149.36,34.38 -114.89,107.97 34.47,73.59 129.4,49.82 129.4,49.82 0,0 82,-32.17 43.66,-98.81 -38.34,-66.64 -58.17,-58.98 -58.17,-58.98 z"
         transform="translate(4.35,0.72)"
         id="path4-2"
         style="fill:#7ce8f6;stroke:#231f20;stroke-width:5px;stroke-miterlimit:10" />
      <path
         class="cls-2"
         d="m 233.06,169.08 c -1.63,1.08 -51.85,-47.34 -6.83,-86.2 45.02,-38.86 98,-22.35 110.48,-15.7 14,7.46 70.12,56.25 34.12,109.11 -36,52.86 -107.15,51.83 -107.95,52.34 -0.8,0.51 -29.82,-59.55 -29.82,-59.55 z"
         transform="translate(4.35,0.72)"
         id="path5-8"
         style="fill:#7ce8f6;stroke:#231f20;stroke-width:5px;stroke-miterlimit:10" />
      <path
         class="cls-2"
         d="m 176.31,173.5 c 0,0 -5.25,-58.79 -35.27,-65.9 -30.02,-7.11 -77.67,-26.29 -115.43,5.11 -37.76,31.4 -16.31,102.5 -16.31,102.5 0,0 15.09,28.46 80.47,25.92 83.49,-3.24 86.54,-67.63 86.54,-67.63 z"
         transform="translate(4.35,0.72)"
         id="path6-9"
         style="fill:#7ce8f6;stroke:#231f20;stroke-width:5px;stroke-miterlimit:10" />
      <path
         class="cls-2"
         d="M 163.26,163.26 C 162.49,162.5 83.6,113.69 116.53,53.07 c 32.93,-60.62 98,-49.83 98,-49.83 0,0 80.47,16.76 55.97,84.96 -24.5,68.2 -70.5,75.06 -72.39,75.06 z"
         transform="translate(4.35,0.72)"
         id="path7"
         style="fill:#7ce8f6;stroke:#231f20;stroke-width:5px;stroke-miterlimit:10" />
      <path
         class="cls-3"
         d="m 237.12,282 c -4.06,1.07 33.38,-4.6 41.8,-48.26 8.55,-44.38 -20.9,-75.83 -20.9,-75.83 0,0 -22.55,-43.66 -82.78,-23 -60.23,20.66 -51.05,72.29 -51.05,72.29 0,0 -5.36,40.34 33.71,64.07 C 196.97,295 237.12,282 237.12,282 Z"
         transform="translate(4.35,0.72)"
         id="path8"
         style="fill:#fdfc80;stroke:#231f20;stroke-width:5px;stroke-miterlimit:10" />
      <path
         class="cls-2"
         d="m 259.77,295.44 c 0.24,-4.22 -14.36,20.36 -26.71,8.82 -12.35,-11.54 -1.71,-31.63 -18.52,-30 -16.81,1.63 -42.86,-3 -56.64,21.19 -13.25,23.22 -10,38.06 0,45.24 10,7.18 36,12.31 48.25,10.51 12.25,-1.8 52.09,-29.28 53.62,-55.76 z"
         transform="translate(4.35,0.72)"
         id="path9"
         style="fill:#7ce8f6;stroke:#231f20;stroke-width:5px;stroke-miterlimit:10" />
      <path
         class="cls-4"
         d="m 270.5,282.75 c 0,0 18.37,-8.42 6.88,-22.21 0,0 -25.88,6.38 -22.13,-19.41 C 259,215.34 305,210.34 305,210.34 c 0,0 41.66,-4.6 38.45,28.16 -3.21,32.76 -13.91,33.53 -30,44.25 -16.09,10.72 -30.17,12.69 -30.17,12.69"
         transform="translate(4.35,0.72)"
         id="path10"
         style="fill:#7ce8f6;stroke:#231f20;stroke-width:5px;stroke-linecap:round;stroke-linejoin:round" />
      <g
         class="cls-5"
         id="g36"
         style="opacity:0.46">
        <g
           class="cls-6"
           clip-path="url(#clip-path)"
           id="g35">
          <path
             class="cls-7"
             d="m 231.6,281.9 c -6.55,4.07 -9.27,12.4 -5.32,19.35 a 15.54,15.54 0 0 0 20.66,5.83 c 6.06,-3.38 10,-10.37 14.93,-15.23 4.93,-4.86 10.68,-8.65 16.28,-12.9 L 264.6,265.4 c -3.17,5.9 -6.67,11.58 -9.88,17.46 -4.45,8.15 4.37,16.55 12.4,12.41 14.21,-7.33 28.25,-14.43 41.72,-23.13 A 383.37,383.37 0 0 0 347.71,243 L 330,232.75 a 67.7,67.7 0 0 1 -46,46.71 c -13.82,4 -28.13,5.38 -41.33,11.45 -12.18,5.58 -20.67,15.54 -29.14,25.54 -4.27,5 -8.7,10.41 -14.31,14 -6.43,4.15 -13.4,5.45 -21,5.48 a 10.7,10.7 0 0 0 -10.52,10.52 c 0,6.15 4.84,10 10.52,10.52 35.91,3.53 62.81,-20.05 86,-44.28 9.08,-9.51 -5.35,-24 -14.45,-14.45 -9.82,10.28 -19.72,21 -31.72,28.73 -10.65,6.91 -24.12,12.44 -37,9.34 l -5.6,20.29 c 17,2.3 32.65,-3.63 45,-15.4 9.43,-9 16.41,-21.27 27.7,-28.08 12.48,-7.52 28,-8.2 41.7,-12.29 a 88.07,88.07 0 0 0 36.86,-21.69 91.21,91.21 0 0 0 23.59,-40.8 c 2.85,-10.73 -9.91,-16.91 -17.68,-10.28 A 437.15,437.15 0 0 1 297,255.42 c -12.53,8.64 -25.46,17.27 -39,24.19 l 12.4,12.4 a 76.58,76.58 0 0 1 9.79,-14.61 c 7.86,-8.76 -1.9,-20 -12,-15.55 -7.5,3.27 -14.44,9.18 -20.31,14.79 a 82.83,82.83 0 0 0 -7.8,8.73 c -0.29,0.37 -3.71,4.26 -3.56,4.54 -0.47,-0.84 7.52,-1.75 5.44,2.32 3.28,-6.42 -3.58,-14.52 -10.33,-10.33 z"
             transform="translate(4.35,0.72)"
             id="path11"
             style="fill:#901a3d" />
          <path
             class="cls-7"
             d="m 277,197.86 c 3.15,10.77 17.84,11.76 27.13,10.73 11,-1.23 21.85,-3.93 32.59,-6.36 10.42,-2.35 19.89,-5.14 28,-12.42 7.63,-6.83 14.44,-15.38 20.79,-23.37 4.11,-5.15 4.58,-12.14 -1.12,-16.54 -5.08,-3.92 -13.05,-2.75 -16.28,3.11 -2.08,3.77 -6,7.09 -9,10.23 -3,3.14 -5.86,6.16 -8.86,9.17 -5.77,5.77 -11.81,12.77 -19.2,16.51 -7.39,3.74 -16,1.38 -23.73,1.25 -9.34,-0.16 -18.06,1.82 -25.08,8.24 -8.12,7.43 2.45,21.29 11.82,15.31 6.91,-4.41 15.05,-2.92 22.82,-2.46 9.39,0.55 18.51,-0.69 26.66,-5.72 7.45,-4.6 13.84,-11.1 20.14,-17.12 q 5.28,-5 10.36,-10.26 c 2.92,-3 5.87,-7.55 9.2,-10 l -13.43,-17.41 c -6.27,6.61 -11.78,13.92 -18.06,20.51 -5.49,5.75 -11.49,7.43 -19.08,9.22 -8.64,2 -17.26,4.27 -25.94,6.1 -8.43,1.77 -17,2.06 -25.36,3.48 -3.34,0.56 -5.31,4.76 -4.42,7.78 z"
             transform="translate(4.35,0.72)"
             id="path12"
             style="fill:#901a3d" />
          <path
             class="cls-7"
             d="m 165.79,275.76 c -12.16,5.42 -21.33,15.07 -31.89,23 -10.56,7.93 -20.88,15.5 -32.39,21.69 -21.29,11.45 -46.32,16.84 -69.72,9.08 -5.69,-1.89 -12.12,2.18 -13.65,7.75 -1.72,6.27 2.14,11.47 7.75,13.64 a 283.3,283.3 0 0 0 86.9,18.59 c 7.29,0.4 14.52,0.41 20.34,-4.67 4.76,-4.15 7.1,-10.19 8.38,-16.23 a 154.67,154.67 0 0 1 5,-19.52 c 1.06,-3 2.29,-5.95 3.25,-9 1.08,-3.4 1.49,-7.15 3,-10.41 3.93,-8.67 -7.41,-15.59 -12.87,-7.53 -11.18,16.52 -25.83,31.34 -43.71,40.3 l 16.28,12.55 -0.41,0.83 -4,4 q 2.25,-1.46 -1.43,0 a 29.52,29.52 0 0 1 3.12,0 c 2,0 3.91,0.14 5.86,0.23 q 6.36,0.29 12.71,0.78 c 8.76,0.67 17.56,1.39 26.28,2.46 10.72,1.3 14.82,-15.72 5.49,-20.28 -7.51,-3.67 -11.53,-9.64 -12.85,-17.85 l -19,8 A 208.88,208.88 0 0 0 150.84,361 l 13.46,-13.46 c -7.2,-6 -16.38,-8.44 -25.15,-4.18 a 22,22 0 0 0 -12.25,19.8 l 17.48,-4.74 -2.23,-4 c -4.91,-8.75 -18.72,-2.85 -16.11,6.79 l 1.2,4.41 a 9.37,9.37 0 0 0 10.29,6.72 c 4.94,-0.75 7.58,-4.44 8.13,-9.21 0.3,-2.66 3.07,-4.17 5.18,-2.16 8.94,8.55 21.47,-4.29 13.46,-13.46 a 178.48,178.48 0 0 1 -18.11,-24.84 c -4.95,-8.17 -20.54,-5.55 -19.37,5.24 1.54,14.33 9.34,27.08 22.29,33.88 l 8.38,-19.89 c -12.31,-1.86 -24.54,-3.34 -37,-4 -9.91,-0.51 -27.22,-2.57 -29.48,11.12 -1.58,9.59 7.21,17.19 16.33,12.55 10.3,-5.24 19,-13.87 26.05,-22.86 7.3,-9.27 12.74,-19.4 19.31,-29.11 l -11.7,-9 c -4.24,5.06 -9.07,9.35 -12,15.37 a 93,93 0 0 0 -6.55,18.22 c -1.09,4.31 -2.53,9.94 -3.22,13.65 -0.12,0.62 -0.78,1.68 -0.28,0.54 0.5,-1.14 2.34,-0.39 -0.76,-0.44 -3.33,-0.05 -6.68,-0.31 -10,-0.55 A 262.61,262.61 0 0 1 31.82,329.48 l -5.9,21.39 c 27.62,9.33 58.27,3.06 83.27,-10.69 a 162.45,162.45 0 0 0 34.58,-25.89 c 10.21,-9.94 21.13,-20.5 27,-33.62 a 3.64,3.64 0 0 0 -4.93,-4.94 z"
             transform="translate(4.35,0.72)"
             id="path13"
             style="fill:#901a3d" />
          <path
             class="cls-7"
             d="m 124.34,219.81 c -2.39,-0.91 -3.81,-1.64 -6.45,-1.32 -2.64,0.32 -5,0.92 -7.54,1.29 -5.35,0.82 -10.65,2 -16,2.92 -10,1.69 -20.07,3 -30.28,2.52 -16.57,-0.72 -33.48,-5.87 -45.83,-17.32 -7.23,-6.7 -19,1.8 -13.85,10.68 5.15,8.88 13.63,14 22.85,17.9 A 199.25,199.25 0 0 0 59,246.92 c 22.06,5.09 46.59,5.42 66.44,-6.89 l -9.34,-12.11 c -2.7,2.87 -7.08,4.41 -10.67,5.93 a 85.46,85.46 0 0 1 -12.65,4 189.26,189.26 0 0 1 -27,4.44 c -20,2 -40.06,3.18 -60.06,4.73 l 7.16,17.29 c 2.22,-2.83 6.3,-4.22 9.55,-5.68 a 93.64,93.64 0 0 1 10.75,-4 c 8.32,-2.58 17.57,-2.77 25.53,-6 7.24,-3 8.9,-14.1 0,-16.45 -10.38,-2.74 -22.47,0.6 -32.52,3.76 a 134.89,134.89 0 0 0 -14.73,5.69 c -4.62,2.07 -9.7,4.31 -12.91,8.39 -2.57,3.27 -3.89,7 -2.09,11.06 1.52,3.46 5.23,6.54 9.26,6.23 21.73,-1.65 43.6,-2.73 65.21,-5.64 10.17,-1.36 20.33,-3.18 30,-6.75 a 90.74,90.74 0 0 0 12.7,-5.77 c 4.49,-2.51 7.69,-6.11 11.81,-9 3.17,-2.24 4.74,-5.88 3.16,-9.63 -1.34,-3.17 -5.55,-6 -9.1,-4.46 -17.61,7.35 -36.39,8.39 -55,4.29 a 199.9,199.9 0 0 1 -27.77,-8.59 c -6.6,-2.51 -13.78,-5.36 -17.15,-12 l -13.8,10.6 c 14.62,15.07 35.16,22.58 55.91,23.51 a 122.79,122.79 0 0 0 34.59,-3.49 124.61,124.61 0 0 0 16.34,-5.2 c 2.92,-1.17 5.82,-2.5 8.64,-3.87 2.82,-1.37 3.8,-3 5.49,-5.58 1.53,-2.36 -0.11,-5.06 -2.41,-5.92 z"
             transform="translate(4.35,0.72)"
             id="path14"
             style="fill:#901a3d" />
          <path
             class="cls-7"
             d="m 226.49,135.19 c 8.32,5.39 16.69,-1.88 22.71,-7.38 7.39,-6.76 13.87,-15 19.57,-23.23 a 194.77,194.77 0 0 0 25.89,-53.36 l -19.58,-2.65 c 0.62,6.59 -2.92,12.69 -5.5,18.55 l -9.93,22.57 c -6.54,14.85 -12.68,29.86 -18.92,44.84 -3.35,8 8.94,14.51 14.4,8.38 A 254.28,254.28 0 0 0 276,116.39 c 6.26,-9.19 11.72,-18.88 18.28,-27.88 a 93.89,93.89 0 0 1 19.27,-20 60,60 0 0 1 12.28,-7.25 c 4.67,-2 9.71,-2.71 14.57,-4 10.26,-2.79 7.47,-17 -2.41,-17.77 -10.93,-0.85 -22.78,4.62 -31.66,10.6 a 105.34,105.34 0 0 0 -23.8,22.56 c -7.26,9.26 -13.41,19.24 -19.63,29.22 -6.22,9.98 -11.8,20.5 -19.95,28.92 l 13.53,10.44 c 7.33,-15.4 14.68,-30.78 21.7,-46.33 3.51,-7.78 7,-15.57 10.54,-23.34 3.35,-7.36 6.84,-14.62 6.29,-22.93 -0.73,-11.18 -16,-13.57 -19.58,-2.65 a 207.8,207.8 0 0 1 -21.06,45.33 225.28,225.28 0 0 1 -14.09,20.44 c -4.62,5.88 -8.95,11.84 -14.66,16.73 -2.22,1.89 -1.29,5.37 0.87,6.77 z"
             transform="translate(4.35,0.72)"
             id="path15"
             style="fill:#901a3d" />
          <path
             class="cls-7"
             d="m 202.35,119.16 c -3.36,-12.47 -3.12,-24.69 -3.11,-37.48 0,-5.68 -8.27,-6.77 -9.85,-1.33 -3.94,13.59 -2.16,28.48 1.48,42 2,7.39 13.48,4.25 11.48,-3.17 z"
             transform="translate(4.35,0.72)"
             id="path16"
             style="fill:#901a3d" />
          <path
             class="cls-7"
             d="m 67.09,181.39 c 9.24,2.75 18.78,3.85 28.16,6.09 9.12,2.17 17.23,6 25.93,9.25 4.57,1.73 6.88,-5.09 3.18,-7.54 -7.74,-5.12 -17.92,-7.76 -26.88,-9.82 -9.78,-2.25 -19.74,-3.73 -29.76,-2.68 -2.57,0.27 -3.37,3.88 -0.63,4.7 z"
             transform="translate(4.35,0.72)"
             id="path17"
             style="fill:#901a3d" />
          <path
             class="cls-7"
             d="m 204.59,127.18 c -0.08,-5 -1.51,-10.45 -2.19,-15.47 -0.86,-6.33 -1.41,-12.7 -2.12,-19 -0.67,-5.91 -1.39,-11.83 -2.51,-17.66 -1.23,-6.37 -0.68,-13.14 -2.83,-19.27 -0.86,-2.46 -3.86,-2.24 -4.79,0 -2.55,6.09 -2.15,13.27 -3,19.76 a 101.12,101.12 0 0 0 -0.34,21.93 c 0.58,7 1.6,13.91 2.77,20.78 0.85,5.07 2,13.1 8.28,14.12 3.3,0.54 6.81,-1.38 6.74,-5.14 z"
             transform="translate(4.35,0.72)"
             id="path18-7"
             style="fill:#901a3d" />
          <path
             class="cls-7"
             d="m 270.48,178.8 c 4.79,1.08 8.72,-0.08 13.34,-1.38 4.62,-1.3 9,-2.25 13.56,-3.35 a 115.06,115.06 0 0 1 14.07,-3 c 4.69,-0.54 9.39,-0.67 14.06,-1.4 3.78,-0.6 3.56,-6.65 0,-7.42 -9.56,-2.06 -20.82,-1.52 -30.5,-0.27 -9.08,1.17 -21.26,3 -26.94,10.89 -1.5,2.07 0,5.39 2.41,5.92 z"
             transform="translate(4.35,0.72)"
             id="path19-3"
             style="fill:#901a3d" />
          <path
             class="cls-7"
             d="m 96.67,304.47 c 9.21,-6 20.19,-10.31 30.17,-14.94 a 62,62 0 0 1 14.92,-4.9 c 5.53,-1.05 11.18,-1.32 16.68,-2.62 6.82,-1.62 5.55,-13.44 -1.69,-12.53 -11.21,1.42 -22.81,6 -32.93,10.95 -11.19,5.5 -21.79,10.66 -30.5,19.69 -2.12,2.2 0.64,6.11 3.35,4.35 z"
             transform="translate(4.35,0.72)"
             id="path20-6"
             style="fill:#901a3d" />
          <path
             class="cls-7"
             d="m 225.31,283.41 c 4.83,6.06 13.76,3.95 19.76,1.21 6.16,-2.81 11.23,-7.37 15.59,-12.47 2.69,-3.15 3.36,-7.55 0.65,-11 -2.34,-2.93 -7.41,-4.69 -10.76,-2.14 -6.82,5.17 -13.37,11.18 -22.11,12.52 -5.87,0.9 -6,8.21 -3.13,11.84 z"
             transform="translate(4.35,0.72)"
             id="path21-1"
             style="fill:#901a3d" />
          <path
             class="cls-8"
             d="m 10,190.92 c -0.18,-3 1.55,-5.84 2.3,-8.63 0.7,-2.63 1.2,-5.34 1.75,-8 a 105,105 0 0 1 5,-16.73 A 80.74,80.74 0 0 1 36,130.6 64.19,64.19 0 0 1 63.37,113.29 54.1,54.1 0 0 1 81.9,110.9 a 35.68,35.68 0 0 1 8.45,1.5 c 1.7,0.51 3.67,1.68 5.42,1.84 1.15,0.46 1,0.32 -0.3,-0.44 0.9,0.7 1.8,1.4 2.71,2.09 6.15,4.69 13.78,-1.84 14.17,-8.13 0.64,-10.21 -11.26,-15 -19.47,-16.85 A 66.94,66.94 0 0 0 65.8,90.64 c -15.44,2.79 -29.85,10.92 -41.21,21.61 a 91.51,91.51 0 0 0 -23.68,37.37 69.87,69.87 0 0 0 -3.38,21.72 41,41 0 0 0 1.18,10.29 c 0.91,3.59 3.46,6.64 4.33,10.24 0.93,3.85 7.24,3.11 7,-1 z"
             transform="translate(4.35,0.72)"
             id="path22-2"
             style="fill:#e6fff2" />
          <path
             class="cls-8"
             d="m 48.23,138.72 c -1.79,-0.5 -2.79,0.05 -1.88,-1.9 a 4.66,4.66 0 0 1 2.78,-2.61 48.39,48.39 0 0 1 6.61,-2.1 c 1.08,-0.29 4.31,-0.3 5.11,-0.9 -0.13,0.1 0.52,-4.79 0.79,-4.7 -0.36,-0.12 -3.79,1.31 -4.46,1.46 a 28.31,28.31 0 0 1 -6.08,0.66 c -1.24,0 -2.5,-0.16 -3.73,-0.11 -2,0.07 -1.17,-1.49 0.17,0.16 l 2.77,4.77 c 0.86,2.29 -2.29,4.19 0.95,2 a 21.69,21.69 0 0 1 4.79,-2.4 l 1.72,-0.44 h -0.68 c -0.23,-0.72 -2.12,-2.1 -2.4,-3 v -2.75 L 53.9,128 c -0.11,0 0.16,-0.14 0.28,-0.11 2.1,0.56 6.79,3.78 4.33,6.17 -1,1 -3.08,0.31 -4.09,-0.1 q -4.92,-0.9 0.3,-6.42 c -0.57,-3.78 0.34,-5.73 2.73,-5.83 0.82,-0.08 0.9,-0.11 0.22,-0.07 -0.68,0.04 -0.6,0 0.23,0.13 0.7,0.64 0.2,-0.05 -0.72,-0.36 -8.24,-2.73 -14.47,5.63 -13,13 1.25,6.47 8.19,10.73 14.44,10.68 A 16.12,16.12 0 0 0 74,133.38 c 4.48,-16.57 -15.53,-27.48 -28.56,-18.75 -11.83,7.92 -13.78,26.88 -0.17,34.08 12.92,6.84 28.14,-2.93 31.3,-16.28 a 17.54,17.54 0 0 0 -7.45,-18.6 c -6.18,-4.15 -13.83,-4.12 -20.62,-1.54 -6,2.3 -12,5.89 -16,11.08 -4.89,6.43 -5.69,15.6 0.58,21.57 4.7,4.48 11.79,5.2 18,5 6.52,-0.25 14.07,-1.31 19.73,-4.85 11.61,-7.25 12.55,-23.62 -0.34,-30.17 -6.83,-3.47 -14.25,-1.85 -21,1 -6.19,2.57 -12,5.91 -14.83,12.31 -2.34,5.29 -1.36,12.38 4.45,14.88 3.54,1.52 8,2.44 10.24,-1.47 a 2,2 0 0 0 -1.14,-2.83 z"
             transform="translate(4.35,0.72)"
             id="path23"
             style="fill:#e6fff2" />
          <path
             class="cls-8"
             d="m 131.91,124.61 c 1.17,-7.33 -2.51,-14.83 -4.55,-21.73 C 125,95 123.48,87 124,78.71 c 0.83,-13.59 7.45,-26.68 17,-36.26 10.22,-10.38 24,-16.58 38.24,-19.28 14.82,-2.81 31.66,-2.71 45.8,3 a 53.52,53.52 0 0 1 18,12.08 70.16,70.16 0 0 1 6.53,7.67 c 3.32,4.52 5.11,9.46 11.13,11 3.72,1 9.21,-0.54 10.89,-4.43 2.62,-6 1.29,-10.27 -1.66,-15.82 A 63.48,63.48 0 0 0 261.76,24.92 73.46,73.46 0 0 0 241.06,8.45 C 223.21,-1.1 202.13,-2.3 182.46,0.83 c -35.61,5.66 -71,30.43 -75.24,68.63 -1.12,10.19 0.83,20.82 4.5,30.34 3.39,8.77 8.42,21.64 17.51,25.91 1,0.44 2.48,0.17 2.68,-1.1 z"
             transform="translate(4.35,0.72)"
             id="path24"
             style="fill:#e6fff2" />
          <path
             class="cls-8"
             d="m 130.14,77.08 a 41.53,41.53 0 0 1 5.38,-16.37 c 1.7,-2.82 6.76,-10.28 10.36,-9.85 l -4.45,-1.2 c 2.18,1.1 -0.9,6.83 -1.76,8.74 a 51.41,51.41 0 0 1 -3.55,6.47 c -0.18,0.29 -2.46,3.13 -2.44,3.34 a 7,7 0 0 1 4,2.37 q 4.37,5 3.92,0.91 c 0.06,-0.1 0.23,-1.41 0.26,-1.57 a 30,30 0 0 1 1.77,-6 27.58,27.58 0 0 1 8.23,-10.76 l -5,2.93 h -0.93 L 140.1,54.5 a 6.94,6.94 0 0 1 -3.24,-4.73 c 0.07,-1 0,-0.59 -0.33,1.09 a 41.3,41.3 0 0 1 -1.43,4.63 25.24,25.24 0 0 1 -6.1,8.94 l 5.18,-3 -1.23,0.36 L 142,63 q 3.77,9.27 3.34,4.26 c -0.28,1.05 -0.23,0.86 0.13,-0.58 -0.45,1.56 0.83,-1.7 0.89,-1.81 a 60.11,60.11 0 0 1 3.88,-6.56 c 2.25,-3.21 0.67,-8.43 -2.67,-10.2 -10.77,-5.7 -21.83,2.24 -25,12.91 a 21.83,21.83 0 0 0 1.5,16.4 c 3.83,6.79 12.23,9.56 19.15,5.51 4.57,-2.67 8.08,-8.3 10.5,-12.89 a 52.76,52.76 0 0 0 5.45,-15.33 c 0.89,-5.06 0.81,-10.24 -2,-14.75 A 14.06,14.06 0 0 0 138,35.26 c -8.52,5.16 -14.55,16.43 -17.1,25.73 -3.05,11.11 -2.36,27.01 11.94,29.01 12.23,1.77 20.14,-9.71 24.45,-19.45 4.44,-10 8.33,-23.08 0,-32.25 -10.18,-11.17 -24.18,-2.05 -29.64,8.79 -5,9.84 -7.53,20 -5,31 1,4.57 7.07,3 7.55,-1 z"
             transform="translate(4.35,0.72)"
             id="path25"
             style="fill:#e6fff2" />
          <path
             class="cls-8"
             d="m 215.47,61.31 h -0.19 a 7.3,7.3 0 0 0 -3.76,1 7.43,7.43 0 0 0 -2.67,2.69 4.11,4.11 0 0 0 -0.42,1 10.2,10.2 0 0 0 -0.4,1 2,2 0 0 1 -0.08,0.22 7.43,7.43 0 0 0 0.05,3.78 7.28,7.28 0 0 0 5,5.06 7.43,7.43 0 0 0 3.86,0 12.25,12.25 0 0 0 2.14,-0.9 7.43,7.43 0 0 0 2.67,-2.67 7.3,7.3 0 0 0 1,-3.76 v -0.19 a 5.44,5.44 0 0 0 -0.63,-2.78 5.46,5.46 0 0 0 -1.49,-2.33 l -1.46,-1.13 a 7.32,7.32 0 0 0 -3.65,-1 z"
             transform="translate(4.35,0.72)"
             id="path26"
             style="fill:#e6fff2" />
          <path
             class="cls-8"
             d="m 49.89,200.59 a 4.75,4.75 0 0 0 2.49,-0.56 4.71,4.71 0 0 0 2.09,-1.34 7.25,7.25 0 0 0 1.9,-4.58 l -0.23,-1.73 a 6.43,6.43 0 0 0 -1.67,-2.86 l -1.31,-1 a 6.47,6.47 0 0 0 -3.27,-0.88 4.77,4.77 0 0 0 -2.5,0.56 4.77,4.77 0 0 0 -2.09,1.34 4.86,4.86 0 0 0 -1.3,2.07 4.77,4.77 0 0 0 -0.56,2.5 l 0.23,1.72 a 6.43,6.43 0 0 0 1.67,2.86 l 1.31,1 a 6.48,6.48 0 0 0 3.28,0.88 z"
             transform="translate(4.35,0.72)"
             id="path27"
             style="fill:#e6fff2" />
          <path
             class="cls-8"
             d="M 48.34,294.26 C 52,290 56.57,287.2 62.25,287.4 l -5.85,-7.68 a 7.89,7.89 0 0 1 -1.64,2.38 c -1.53,1.12 0.45,-0.14 -1.27,0.57 0.68,-0.08 0.54,-0.11 -0.41,-0.07 0.74,0.08 0.64,0 -0.32,-0.23 l 5.65,9.95 c -0.49,1.49 -1.8,1.61 -3.31,1.36 l -6.17,-10.87 c -0.07,0.49 -0.4,2.91 -0.47,2.37 q 1.45,-4.31 8.53,-2.2 -2.15,-1.22 1.54,1.65 l 1.21,4.46 v -0.54 c -0.21,-8.67 -11.59,-11.71 -16.16,-4.38 -4.73,7.6 1.9,16.94 10.28,16.91 8.8,0 12.31,-8.44 12.45,-15.92 0.08,-4.9 -4.13,-8.68 -8.84,-8.84 -8.26,-0.27 -14.17,6 -14.93,13.85 -0.45,4.64 4.09,7.69 8.09,8.08 10,1 19.78,-8.44 17.49,-18.53 -0.93,-4.11 -5.56,-5.21 -8.91,-3.63 a 38.32,38.32 0 0 0 -16.3,14 c -2,3.28 2.86,7.24 5.45,4.2 z"
             transform="translate(4.35,0.72)"
             id="path28"
             style="fill:#e6fff2" />
          <path
             class="cls-8"
             d="m 157.37,332.62 c 3.3,-10 7.64,-20.12 15,-27.81 A 50.07,50.07 0 0 1 200,290.2 c 5.63,-1 5.28,-9.79 0,-11 -10.38,-2.45 -21.41,-0.76 -30.09,5.64 -7.22,5.31 -15.44,15.74 -13.3,25.3 1,4.62 7,4.57 9.33,1.22 2,-2.8 2.6,-6.39 4.3,-9.39 a 24.27,24.27 0 0 1 6.27,-7.33 24.94,24.94 0 0 1 20.49,-4.44 v -11 a 60,60 0 0 0 -34.47,20.8 54.72,54.72 0 0 0 -9.85,17.22 c -1.62,5 -3.29,13.5 2.9,16.13 a 1.25,1.25 0 0 0 1.79,-0.73 z"
             transform="translate(4.35,0.72)"
             id="path29"
             style="fill:#e6fff2" />
          <path
             class="cls-8"
             d="m 171.86,311.23 c 2.31,-0.75 3.77,-2.71 5.93,-3.66 h -3.74 a 4.57,4.57 0 0 0 2.25,0.66 6.39,6.39 0 0 0 1.3,-0.2 c 0.81,-0.16 0.27,-0.28 -1.63,-0.35 a 3.53,3.53 0 0 1 -1.32,-4.25 c 0.36,-0.78 0.51,-0.81 -0.1,-0.06 -0.77,1 -0.34,0 0.18,0 a 9.28,9.28 0 0 0 -1.26,0.75 c -1.25,0.69 1.46,-0.36 0.07,-0.05 a 5.53,5.53 0 0 1 5.85,2.46 l 0.77,5.9 a 2.59,2.59 0 0 1 -0.73,1.31 c -0.44,0.5 -0.44,0.51 0,0 -0.36,0.31 -2.59,1.24 -1.32,0.9 l -7.71,-2 a 5.67,5.67 0 0 1 -1.48,-3.81 c 0,0.6 0,0.47 0.07,-0.37 a 3.61,3.61 0 0 1 0.63,-2 l -0.19,0.32 a 5.08,5.08 0 0 1 2,-2 l 1.36,-0.55 c 1.67,-0.11 2.06,-0.18 1.18,-0.23 l 7.28,4.18 c 1.54,2.76 -0.24,-0.56 -0.52,-1.14 -2.63,-5.4 -11.3,-5.18 -14,0 a 10.25,10.25 0 0 0 -0.9,7.63 c 0.81,3.39 4.55,6.43 8.13,6.2 a 11.42,11.42 0 0 0 10.47,-7.82 c 1.32,-3.68 0.6,-8.4 -2.26,-11.2 -9.79,-9.56 -24.08,8.74 -12.68,15.7 7.37,4.5 16.85,-2.75 17.11,-10.65 0.15,-4.35 -2.86,-8.48 -7.48,-8.3 -2.91,0.12 -7,2.49 -6.89,5.72 l 1.08,-2.62 a 11.48,11.48 0 0 0 -1.83,2.92 c -0.36,0.82 -0.55,1.95 -1.31,2.54 -1.8,1.38 -0.9,4.87 1.7,4 z"
             transform="translate(4.35,0.72)"
             id="path30"
             style="fill:#e6fff2" />
          <path
             class="cls-8"
             d="m 261.51,253.73 c 3.49,-2 5.2,-6.73 7.74,-9.73 a 34.37,34.37 0 0 1 13.59,-9.42 123.86,123.86 0 0 1 16.4,-5.18 32.39,32.39 0 0 1 8.3,-1.2 c 3.11,0 5.66,0.61 8.75,-0.17 4.18,-1.05 4.84,-6 2.36,-8.93 -5.08,-6.06 -15.3,-4.26 -22.11,-2.75 a 111.17,111.17 0 0 0 -22.12,7.16 c -6.52,3 -12.65,7.5 -16.09,13.94 -2.45,4.57 -4.41,12.89 0.91,16.28 a 2.27,2.27 0 0 0 2.27,0 z"
             transform="translate(4.35,0.72)"
             id="path31"
             style="fill:#e6fff2" />
          <path
             class="cls-8"
             d="m 281.52,242.91 a 11.29,11.29 0 0 1 1.23,-0.44 c 0.84,-0.23 -0.23,-0.12 0.62,0 h 0.44 c -0.51,-0.07 -0.5,-0.06 0,0 l -2,-1.57 a 16.27,16.27 0 0 0 1.15,1.45 v -8.55 c -0.23,0.28 -0.5,0.52 -0.74,0.79 -0.5,0.47 -0.34,0.38 0.46,-0.28 -0.47,0.26 -0.43,0.27 0.14,0 0.57,-0.27 0.62,-0.25 0.1,-0.1 1.2,-0.12 1.51,-0.17 0.95,-0.16 -0.56,0.01 -0.25,0 1,0.18 l -2.37,-0.32 7.25,5.52 c 0.1,1.47 0.16,1.82 0.21,1 l -0.28,2 c 0.19,-0.74 0.05,-0.43 -0.43,0.93 a 3.53,3.53 0 0 1 -1.34,1.42 c -0.63,0.44 -0.71,0.51 -0.25,0.22 -1.39,0.5 -1.71,0.66 -0.95,0.48 l -2.09,0.28 h 0.31 l -2.1,-0.28 c 0.77,0.14 0.44,0 -1,-0.52 l -4,-7 a 2.15,2.15 0 0 1 0,0.62 l 0.29,-2.17 a 2.41,2.41 0 0 1 -0.14,0.59 l 0.83,-2 c -0.35,0.72 -0.07,0.42 0.83,-0.89 a 3.2,3.2 0 0 1 -0.47,0.43 l 1.7,-1.32 a 3,3 0 0 1 -0.54,0.33 l 2,-0.86 a 4.07,4.07 0 0 1 -0.91,0.24 l 2.29,-0.31 h -0.31 l 2.3,0.31 a 2,2 0 0 1 -0.6,-0.14 l 2.08,0.88 -0.29,-0.14 -1.89,16.1 a 29.05,29.05 0 0 0 4.86,-2.21 8.82,8.82 0 0 0 3.58,-10.93 c -1.59,-3.75 -6.2,-6.54 -10.32,-5.06 a 28.43,28.43 0 0 0 -4.85,2.25 8.75,8.75 0 0 0 -4.16,8.7 8.65,8.65 0 0 0 6.25,7.25 11,11 0 0 0 11.08,-3.28 c 3.33,-3.91 4.24,-10 0.31,-14 -3.67,-3.67 -10.22,-2.9 -13.67,0.69 -2.52,2.63 -4.14,6.86 -2.69,10.43 0.74,1.81 1.64,3.53 3.46,4.5 a 8.46,8.46 0 0 0 5.79,0.75 11,11 0 0 0 5.8,-3.55 10.65,10.65 0 0 0 2.95,-7.07 6,6 0 0 0 -3,-5.22 6.33,6.33 0 0 0 -6.1,0 1.64,1.64 0 0 0 -0.58,0.35 c 0.68,-0.22 0.73,-0.22 0.15,0 -0.79,0.27 -1.53,0.51 -2.31,0.86 a 18.23,18.23 0 0 0 -3,1.69 3.93,3.93 0 0 0 -1.59,4.85 c 0.7,1.6 2.77,3 4.59,2.26 z"
             transform="translate(4.35,0.72)"
             id="path32"
             style="fill:#e6fff2" />
          <path
             class="cls-8"
             d="m 309.15,115.58 -0.27,1.17 -2,2 c -1,0.32 -1.13,0.4 -0.49,0.22 a 5.09,5.09 0 0 0 2.05,-1 c -0.95,0.33 -1,0.39 -0.25,0.17 a 4.22,4.22 0 0 1 -3.56,-0.55 q -2.83,-3.39 -1.61,-1.5 c -0.45,-1.27 -0.57,-1.56 -0.37,-0.87 0.2,0.69 0.12,0.39 -0.23,-1.11 0.25,-2.47 0.17,-2.06 -0.24,1.25 a 5.18,5.18 0 0 1 0.64,-2.83 c 1,-1.22 1.17,-1.42 0.38,-0.6 1.3,-0.94 1.47,-1.11 0.49,-0.51 1.55,-0.59 1.77,-0.73 0.66,-0.39 5,-1.22 10.75,4.73 9.67,9.71 0.36,-1.13 0.2,-0.86 -0.46,0.82 0.19,-0.42 0.39,-0.84 0.6,-1.25 0.21,-0.41 0.43,-0.83 0.66,-1.23 q 1,-1.5 -0.58,0.56 c 0.73,-0.53 2.19,-1.48 -0.25,0 a 7,7 0 0 1 -3.47,0.9 c -2.07,-0.39 -2.52,-0.44 -1.36,-0.16 -5,-1.59 -6.89,-7.11 -4.54,-12 -1,2 1.55,-1.49 0.05,-0.06 -0.32,0.36 -0.65,0.7 -1,1 a 5.62,5.62 0 0 1 2.75,-1.51 7.93,7.93 0 0 1 4,0 q 7.41,2.52 5.14,13.27 a 10.53,10.53 0 0 0 1.52,-3.39 l -2.57,4.41 0.19,-0.19 c 2.84,-2.8 3.94,-8.26 1.51,-11.72 -2.93,-4.19 -7.3,-6.46 -12.5,-5.21 a 12.68,12.68 0 0 0 -9.54,11.82 c -0.21,9.42 9.13,15.66 17.91,13.58 6.27,-1.48 12.54,-8.26 13.81,-14.54 A 14.83,14.83 0 0 0 314.63,98.41 c -7.66,-1.92 -14.81,2.31 -18.75,8.75 -3.38,5.53 -5.38,12.88 -1.9,18.85 4.36,7.48 14.45,8.35 21.18,3.63 6.29,-4.42 10.64,-13.09 6.27,-20.42 -3.74,-6.27 -11.52,-9.83 -18.32,-6 a 11,11 0 0 0 -5.14,7.3 8.72,8.72 0 0 0 3.16,8.35 4.76,4.76 0 0 0 8,-3.31 z"
             transform="translate(4.35,0.72)"
             id="path33"
             style="fill:#e6fff2" />
          <path
             class="cls-8"
             d="m 339,153.67 c 9.84,0 9.85,-15.28 0,-15.28 -9.85,0 -9.85,15.28 0,15.28 z"
             transform="translate(4.35,0.72)"
             id="path34"
             style="fill:#e6fff2" />
          <path
             class="cls-8"
             d="m 134.75,191.31 c 1.46,-7 6.88,-13.84 11.79,-18.81 5.76,-5.83 13.14,-9.68 20.24,-13.63 7.1,-3.95 14.4,-7.84 22.41,-9.79 a 37.23,37.23 0 0 1 11.37,-1 c 4,0.26 7.81,1.62 11.82,1.83 4.68,0.25 7,-6 3.78,-9.12 -7,-6.88 -19,-6.31 -28,-4.59 -10.22,2 -19.66,7 -28.66,12.05 -8.38,4.68 -17,10 -23.18,17.45 a 31.87,31.87 0 0 0 -6.3,12.35 c -1.3,5 -0.62,8.45 0.64,13.3 0.5,1.95 3.63,2.08 4.06,0 z"
             transform="translate(4.35,0.72)"
             id="path35"
             style="fill:#e6fff2" />
        </g>
      </g>
      <path
         class="cls-9"
         d="m 242.69,281.18 c 0,0 13.89,21.1 35.48,15.37"
         transform="translate(4.35,0.72)"
         id="path36"
         style="fill:none;stroke:#2b264d;stroke-width:5px;stroke-linecap:round;stroke-linejoin:round" />
      <path
         class="cls-9"
         d="m 44.47,237.63 c -28,17.63 -48.9,42.57 -33.61,75.22 34.47,73.57 129.45,49.82 129.45,49.82 a 117.18,117.18 0 0 0 26.38,-15.57"
         transform="translate(4.35,0.72)"
         id="path37"
         style="fill:none;stroke:#2b264d;stroke-width:5px;stroke-linecap:round;stroke-linejoin:round" />
      <path
         class="cls-9"
         d="m 274,59.82 c 28.84,-5.11 53.86,3.32 62,7.62 14,7.46 70.12,56.25 34.12,109.1 -12,17.58 -27.83,29.2 -43.69,36.89"
         transform="translate(4.35,0.72)"
         id="path38-9"
         style="fill:none;stroke:#2b264d;stroke-width:5px;stroke-linecap:round;stroke-linejoin:round" />
      <path
         class="cls-9"
         d="M 105.68,99.1 C 79.81,93.59 50.13,92 24.88,113 -12.88,144.4 8.57,215.5 8.57,215.5 c 0,0 15.08,28.43 80.43,25.89 15.13,-0.58 27.62,-3.18 37.93,-7"
         transform="translate(4.35,0.72)"
         id="path39"
         style="fill:none;stroke:#2b264d;stroke-width:5px;stroke-linecap:round;stroke-linejoin:round" />
      <path
         class="cls-9"
         d="m 109.18,99.87 -3.5,-0.77"
         transform="translate(4.35,0.72)"
         id="path40"
         style="fill:none;stroke:#2b264d;stroke-width:5px;stroke-linecap:round;stroke-linejoin:round" />
      <path
         class="cls-9"
         d="M 146.09,151 C 124.71,132.64 92.66,95.88 115.8,53.3 c 32.94,-60.61 98,-49.83 98,-49.83 0,0 58.73,12.25 60.57,58.31"
         transform="translate(4.35,0.72)"
         id="path41-3"
         style="fill:none;stroke:#2b264d;stroke-width:5px;stroke-linecap:round;stroke-linejoin:round" />
      <path
         class="cls-9"
         d="m 274.37,61.81 c 0.32,7.86 -1,16.71 -4.6,26.65 -8.78,24.39 -20.29,40.94 -31.56,52.13"
         transform="translate(4.35,0.72)"
         id="path42-1"
         style="fill:none;stroke:#2b264d;stroke-width:5px;stroke-linecap:round;stroke-linejoin:round" />
      <path
         class="cls-9"
         d="m 279.74,218 c 0.1,-35.75 -22.45,-59.83 -22.45,-59.83 0,0 -22.55,-43.66 -82.78,-23 -60.23,20.66 -51,72.29 -51,72.29 0,0 -5.36,40.34 33.7,64.07 a 96.38,96.38 0 0 0 19.4,9"
         transform="translate(4.35,0.72)"
         id="path43-9"
         style="fill:none;stroke:#2b264d;stroke-width:5px;stroke-linecap:round;stroke-linejoin:round" />
      <path
         class="cls-9"
         d="m 259,295.7 c 0.25,-4.22 -14.35,20.36 -26.71,8.82 -12.36,-11.54 -1.71,-31.63 -18.52,-30 -16.81,1.63 -42.85,-3 -56.64,21.19 -13.24,23.22 -10,38.06 0,45.24 10,7.18 36,12.31 48.26,10.51 12.26,-1.8 52.11,-29.28 53.61,-55.76 z"
         transform="translate(4.35,0.72)"
         id="path44-4"
         style="fill:none;stroke:#2b264d;stroke-width:5px;stroke-linecap:round;stroke-linejoin:round" />
      <path
         class="cls-9"
         d="m 269.77,283 c 0,0 18.37,-8.42 6.88,-22.21 0,0 -25.88,6.38 -22.13,-19.41 3.75,-25.79 49.71,-30.79 49.71,-30.79 0,0 41.66,-4.6 38.45,28.16 -3.21,32.76 -13.92,33.53 -30,44.25 -16.08,10.72 -30.18,12.69 -30.18,12.69"
         transform="translate(4.35,0.72)"
         id="path45-7"
         style="fill:none;stroke:#2b264d;stroke-width:5px;stroke-linecap:round;stroke-linejoin:round" />
      <path
         class="cls-10"
         d="m 225.93,286 c 4.95,3.35 12.93,-0.13 17.74,-2.42 6.42,-3.05 12.38,-6.33 16.55,-12.16 a 0.85,0.85 0 0 0 -1,-1.24 c -6.29,2.19 -11.37,6.33 -17.57,8.73 -4.94,1.92 -11.88,2.09 -16,5.47 a 1,1 0 0 0 0.21,1.62 z"
         transform="translate(4.35,0.72)"
         id="path46-8"
         style="fill:#2b264d" />
      <path
         class="cls-10"
         d="M 268.85,263.12 269,263 a 1.1,1.1 0 0 0 0.29,-1.1 l -0.08,-0.23 a 1.38,1.38 0 0 0 -2.49,-0.33 c -0.65,1.21 -2.53,1.94 -3.63,2.84 -1.77,1.46 -3.27,3.21 -4.93,4.8 -1.33,1.28 -1.84,2.68 -2.73,4 -1.2,1.8 -2.78,2.27 -3.57,4.46 a 0.8,0.8 0 0 0 0.77,1 c 2.52,-0.34 3.19,-1.82 5.29,-3 1.74,-1 3,-1.38 4.49,-3 a 28.84,28.84 0 0 0 4.29,-5.51 c 0.54,-1 0.71,-2.35 1.26,-3.3 -0.56,-0.32 -0.58,-0.41 -0.06,-0.28 0.2,0 0.4,-0.06 0.6,-0.1 l -1.27,-0.52 0.14,0.21 a 0.94,0.94 0 0 0 1.47,0.19 z"
         transform="translate(4.35,0.72)"
         id="path47-4"
         style="fill:#2b264d" />
      <ellipse
         class="cls-11"
         cx="187.48"
         cy="259.32001"
         rx="17.43"
         ry="14.4"
         id="ellipse47"
         style="fill:#ecbef7" />
      <ellipse
         class="cls-11"
         cx="253.89"
         cy="206.27"
         rx="17.43"
         ry="14.4"
         transform="rotate(-45,256.92025,201.37015)"
         id="ellipse48"
         style="fill:#ecbef7" />
      <path
         class="cls-12"
         d="m 211.15,200 c 2.72,2.58 39.94,23.44 41.22,-7.81 0.84,-20.7 -16,-31.05 -27.51,-35.68 a 23.18,23.18 0 0 0 -25,4.66 c -6.86,6.9 -9.64,18.95 11.29,38.83 z"
         transform="translate(4.35,0.72)"
         id="path48"
         style="fill:#ddfaff;stroke:#231f20;stroke-width:5px;stroke-miterlimit:10" />
      <path
         class="cls-12"
         d="m 154.39,191.11 c 20.85,-3.34 34.79,-0.39 39.44,31.45 4.65,31.84 -26,29.56 -26,29.56 0,0 -28.83,-7.37 -26.83,-36.38 1.72,-23.52 13.39,-24.63 13.39,-24.63 z"
         transform="translate(4.35,0.72)"
         id="path49"
         style="fill:#ddfaff;stroke:#231f20;stroke-width:5px;stroke-miterlimit:10" />
      <path
         class="cls-13"
         d="m 154.39,191.11 37.33,49.53 c 0,0 7.38,-16.07 -0.53,-30.3 -7.91,-14.23 -7.55,-17.78 -16.57,-20.3 -14.44,-4.04 -20.23,1.07 -20.23,1.07 z"
         transform="translate(4.35,0.72)"
         id="path50"
         style="fill:#231f20;stroke:#231f20;stroke-width:5px;stroke-linecap:round;stroke-linejoin:round" />
      <path
         class="cls-13"
         d="M 204.89,157.48 247,204.62 c 0,0 11.09,-18.34 -2.42,-31.77 -13.51,-13.43 -27.76,-18.07 -27.76,-18.07 z"
         transform="translate(4.35,0.72)"
         id="path51"
         style="fill:#231f20;stroke:#231f20;stroke-width:5px;stroke-linecap:round;stroke-linejoin:round" />
      <path
         class="cls-14"
         d="m 171.05,251.74 -2,5.55 c -0.64,1.8 -1.5,3.4 -1,5.31 a 2.08,2.08 0 0 0 3.45,0.91 c 1.36,-1.56 1.31,-3.3 1.5,-5.29 l 0.6,-6.13 c 0.15,-1.57 -2.11,-1.66 -2.58,-0.35 z"
         transform="translate(4.35,0.72)"
         id="path52"
         style="fill:#231f20" />
      <path
         class="cls-14"
         d="m 178.8,250.87 c -1.16,5.08 1.64,13.22 6.17,16 a 1.28,1.28 0 0 0 1.91,-1.09 c 0,-2.64 -1.06,-5.22 -1.95,-7.67 -0.89,-2.45 -1.24,-5.37 -2.62,-7.74 a 1.94,1.94 0 0 0 -3.51,0.46 z"
         transform="translate(4.35,0.72)"
         id="path53"
         style="fill:#231f20" />
      <path
         class="cls-14"
         d="m 252.86,200.7 c 3.37,0.21 6.7,0.73 10.06,1 2,0.17 4.87,0 4.77,-2.69 -0.1,-2.8 -3.67,-3.19 -5.77,-3.46 a 29.2,29.2 0 0 0 -9.68,0.54 c -2.71,0.54 -1.89,4.45 0.62,4.6 z"
         transform="translate(4.35,0.72)"
         id="path54"
         style="fill:#231f20" />
      <path
         class="cls-14"
         d="m 252.27,191.69 a 42.68,42.68 0 0 1 7.9,-1.73 10.85,10.85 0 0 0 6.11,-2.25 1.6,1.6 0 0 0 0,-2.25 c -4.24,-4.29 -11.67,-1.26 -16.21,1 -2.88,1.44 -0.88,6.24 2.2,5.22 z"
         transform="translate(4.35,0.72)"
         id="path55"
         style="fill:#231f20" />
      <path
         class="cls-14"
         d="m 213.2,246.66 c 5.6,6.37 16.45,9.5 23.39,3.23 3.15,-2.84 4.24,-6.78 4.43,-10.9 0.13,-3 0.53,-8.62 -2.5,-10.3 a 1.35,1.35 0 0 0 -1.59,0.21 c -1.71,1.7 -1.09,3.18 -1,5.48 0.13,3.12 0,6.38 -1.52,9.18 -4.41,8.1 -13.21,3.8 -19.11,0.38 a 1.74,1.74 0 0 0 -2.1,2.72 z"
         transform="translate(4.35,0.72)"
         id="path56"
         style="fill:#231f20" />
      <path
         class="cls-10"
         d="M 195.11,126.15 A 256.25,256.25 0 0 1 192.19,93.42 C 192,83 193.6,72.4 192.84,62 a 1.6,1.6 0 0 0 -3.13,-0.42 c -3.48,10.23 -3,22.14 -2.47,32.79 a 156.37,156.37 0 0 0 5.06,32.54 c 0.5,1.86 3.08,1 2.81,-0.77 z"
         transform="translate(4.35,0.72)"
         id="path57"
         style="fill:#2b264d" />
      <path
         class="cls-10"
         d="m 121,185.55 c -5.57,-2 -10.48,-4.05 -16.34,-5.24 -5.58,-1.14 -11.26,-1.88 -16.92,-2.59 -5.66,-0.71 -11.34,-1.39 -17,-1.56 -5.48,-0.16 -11.22,-0.9 -16.63,0 -1.71,0.29 -1.51,2.84 0,3.26 5.38,1.5 11.3,1.46 16.82,2.37 5.52,0.91 11.3,1.56 16.94,2.46 5.34,0.86 10.64,1.91 16,2.81 5.64,1 11.11,1.12 16.77,1.79 2,0.24 2.12,-2.72 0.44,-3.31 z"
         transform="translate(4.35,0.72)"
         id="path58"
         style="fill:#2b264d" />
      <path
         class="cls-10"
         d="m 277.35,173.7 a 108,108 0 0 1 22.71,-5.91 c 3.87,-0.55 7.76,-1 11.66,-1.3 3.9,-0.3 7.78,0.15 11.51,-0.71 2.55,-0.59 2.16,-4 0,-4.79 -6.77,-2.43 -16.23,-1.25 -23.24,-0.18 a 107.6,107.6 0 0 0 -24.31,6.83 c -3.66,1.49 -2.16,7.49 1.67,6.06 z"
         transform="translate(4.35,0.72)"
         id="path59-5"
         style="fill:#2b264d" />
      <path
         class="cls-10"
         d="m 140.52,270.63 c -11,1.42 -21,7.4 -29.66,14 -9.06,6.91 -18.47,14.63 -24.34,24.59 -0.58,1 0.83,2.15 1.62,1.25 7.39,-8.39 14.38,-16.9 24.14,-22.73 9.3,-5.56 19.54,-8.56 29.4,-12.86 2,-0.89 1.06,-4.57 -1.16,-4.28 z"
         transform="translate(4.35,0.72)"
         id="path60-0"
         style="fill:#2b264d" />
      <path
         class="cls-15"
         d="m 165.25,213.2 a 7.5,7.5 0 0 0 2.06,1.42 2.68,2.68 0 0 0 1.35,0.36 q 1.29,0.18 0.24,0 c -1.07,0 -0.14,0.08 0,0.07 -0.11,0 -1.48,-0.54 -0.54,-0.18 0.19,0.07 0.84,0.61 -0.08,-0.08 -0.46,-0.38 -0.54,-0.42 -0.22,-0.13 l -0.66,-0.87 c 0.45,0.69 -0.33,-0.82 -0.34,-0.86 -0.47,-1.38 -0.11,-1.63 -0.2,-0.71 l 0.25,-1.86 a 9.33,9.33 0 0 1 -0.38,1.47 l 0.74,-1.75 a 5.45,5.45 0 0 1 -0.49,0.81 l 1.16,-1.5 a 5.3,5.3 0 0 1 -0.67,0.67 l 1.53,-1.18 a 8,8 0 0 1 -1.09,0.64 l 1.84,-0.78 a 4.71,4.71 0 0 1 -0.91,0.25 l 2.08,-0.28 a 3.7,3.7 0 0 1 -0.94,0 l 2.09,0.29 a 2.69,2.69 0 0 1 -0.57,-0.17 l 1.89,0.8 a 4.76,4.76 0 0 1 -0.69,-0.4 l 1.61,1.25 a 4.3,4.3 0 0 1 -0.57,-0.56 l 1.26,1.63 a 5.33,5.33 0 0 1 -0.55,-0.92 l 0.83,1.94 a 9.52,9.52 0 0 1 -0.51,-2.09 l 0.29,2.15 a 5.21,5.21 0 0 1 0,-0.79 l -0.29,2.12 c 0.07,-0.43 0.22,-0.84 0.32,-1.26 a 7.71,7.71 0 0 0 -2.73,-8 7.81,7.81 0 0 0 -8.49,-0.6 9.84,9.84 0 0 0 -4.78,6.67 11,11 0 0 0 2.09,9.16 c 3.44,4.46 9.9,6.13 14.78,2.78 4.88,-3.35 7.44,-11.17 2.52,-15.81 a 10.08,10.08 0 0 0 -11.84,-1.75 5.45,5.45 0 0 0 -2.46,6 3.9,3.9 0 0 0 1,2 z"
         transform="translate(4.35,0.72)"
         id="path61-3"
         style="fill:#ddfaff" />
      <path
         class="cls-15"
         d="m 213.33,180.21 0.07,0.07 1.28,1 1.53,0.64 a 6.1,6.1 0 0 0 1.75,0.23 7.76,7.76 0 0 0 1,-0.11 3.21,3.21 0 0 0 1.6,-0.44 3.07,3.07 0 0 0 0.83,-0.36 6.38,6.38 0 0 0 2.25,-2.25 4.54,4.54 0 0 0 0.74,-2.32 4.72,4.72 0 0 0 -0.11,-2.5 6.23,6.23 0 0 0 -1.61,-2.76 l -0.06,-0.07 -1.28,-1 -1.52,-0.64 h -0.16 a 3.08,3.08 0 0 0 -0.91,-0.13 6.45,6.45 0 0 0 -3.3,0.43 l -0.84,0.36 a 6.38,6.38 0 0 0 -2.26,2.27 4.69,4.69 0 0 0 -0.75,2.34 4.77,4.77 0 0 0 0.12,2.51 6.08,6.08 0 0 0 1.62,2.78 z"
         transform="translate(4.35,0.72)"
         id="path62-6"
         style="fill:#ddfaff" />
    </g>
  </g>
</svg>
