<svg xmlns="http://www.w3.org/2000/svg" viewBox="0 0 257.49 218.37"><defs><style>.cls-1{fill:#40f077;}.cls-1,.cls-2{stroke:#231f20;}.cls-1,.cls-2,.cls-7,.cls-8{stroke-linecap:round;stroke-linejoin:round;stroke-width:5px;}.cls-2{fill:#ddfaff;}.cls-3{opacity:0.54;}.cls-4{opacity:0.58;}.cls-5{fill:#e6fff2;}.cls-6{fill:#901a3d;}.cls-7,.cls-8{fill:none;}.cls-7{stroke:#17382a;}.cls-8{stroke:#402139;}</style></defs><g id="Calque_2" data-name="Calque 2"><g id="Layer_21" data-name="Layer 21"><path class="cls-1" d="M23.06,67.88C22,66.35,14.89,11.2,72.08,3,99.66-.91,122.72,17.59,139.21,37.8a169.5,169.5,0,0,1,33.93,70.9c6.36,29,18.43,76.12,11.28,105.23,0,0-9.19,4.08-13.27,0s8.17-39.06-13.28-104.81S103.77,26,103.77,26s-23.52-14.3-44.45-2.55-24.51,43.4-24,45.45S23.06,67.88,23.06,67.88Z"/><path class="cls-1" d="M177.78,188.91S164,105.16,229.36,71c46.82-24.51,18.71,31.68-1,65.53A220.5,220.5,0,0,1,201,173.79c-8.54,9.39-18.42,20.84-20.1,25.33"/><path class="cls-2" d="M8.76,112.31,4.68,126.1l17.56-11.24,10,11.24,5.11-10.73,15.32,7.15-4.09-13.4s11-23.9-7.66-35.62S8.25,77.59,8.25,77.59-5,93.42,8.76,112.31Z"/><path class="cls-2" d="M65.65,76.12l-3,10.51,12.78-8.56,7.29,8.56,3.72-8.17,11.14,5.45-3-10.22s8-18.22-5.57-27.15-23.79,3.12-23.79,3.12S55.62,61.72,65.65,76.12Z"/><path class="cls-2" d="M116.26,101.2l-2.3,7.92,9.88-6.45,5.64,6.45,2.87-6.16,8.63,4.11-2.3-7.7s6.18-13.73-4.31-20.46S116,81.25,116,81.25,108.5,90.35,116.26,101.2Z"/><g class="cls-3"><g class="cls-4"><path class="cls-5" d="M20.14,90.93l.15-.21-.91,1.18a5.11,5.11,0,0,1,.48-.55l-4.29,1.77a7.67,7.67,0,0,0,3.3-.86l.64-.31-1.6.68a3.31,3.31,0,0,1,.41-.14L9.75,83.92a1.65,1.65,0,0,1-.11.36l.73-1.72a3.34,3.34,0,0,1-.37.64l1.19-1.54a11,11,0,0,0-1.51,2,6,6,0,0,1-.38.64l1.24-1.6a3.78,3.78,0,0,1-.6.6L11.56,82a3.81,3.81,0,0,1-.55.33L13,81.52l-.2.08,10,5.68a1.48,1.48,0,0,1-.11-.45L22.93,89a1.79,1.79,0,0,1,0-.46l-.29,2.19a1.69,1.69,0,0,1,.12-.44l-.83,2a1.47,1.47,0,0,1,.24-.4l-1.31,1.68.16-.16-8.11,2.14.18.07-2-.84.16.1L9.58,93.55a1.27,1.27,0,0,1,.27.25L8.54,92.1a2.57,2.57,0,0,1,.27.49l-.85-2a2.22,2.22,0,0,1,.09.37l-.3-2.26a2.28,2.28,0,0,1,0,.37l.3-2.26a10.37,10.37,0,0,0-.18,3.58A7.6,7.6,0,0,0,9,93.65a8.83,8.83,0,0,0,5,3.86,9,9,0,0,0,6.46-.85l.11-.06a8.53,8.53,0,0,0,4.22-7.36,9.89,9.89,0,0,0-2.13-6.19A9.43,9.43,0,0,0,20,80.55a9.19,9.19,0,0,0-2.58-1.09,8.57,8.57,0,0,0-5.43.42,8.69,8.69,0,0,0-4,3.41,9.65,9.65,0,0,0-1.47,5.14A10.21,10.21,0,0,0,7.9,93.54a8.24,8.24,0,0,0,4.85,3.73A8,8,0,0,0,19,96.45a11.62,11.62,0,0,0,5-6.58,9.36,9.36,0,0,0-2.57-9,7.07,7.07,0,0,0-6.78-1.79,6.92,6.92,0,0,0-4.87,4.87c-.42,2.11-.61,4.26.58,6.2l-.61-4.68A18.83,18.83,0,0,0,9.43,88a5.84,5.84,0,0,0,4.22,5.54,6.87,6.87,0,0,0,3.06,0,6,6,0,0,0,3.43-2.64Z"/></g><g class="cls-4"><path class="cls-5" d="M74.07,51.33h0l-1.45-.19-1.45.19-1.3.55a4.1,4.1,0,0,0-1.52,1.4,2.71,2.71,0,0,0-.7,1.2,2.78,2.78,0,0,0-.38,1.38,2.71,2.71,0,0,0,0,1.44,4.13,4.13,0,0,0,.65,2l0,0a4.1,4.1,0,0,0,1.38,1.51,2.77,2.77,0,0,0,1.18.69l.67.28,1.45.19L74,61.82l1.3-.55a4.2,4.2,0,0,0,1.53-1.4,2.8,2.8,0,0,0,.7-1.2,2.8,2.8,0,0,0,.37-1.38,2.71,2.71,0,0,0,0-1.44,4,4,0,0,0-.65-2,10.28,10.28,0,0,0-.86-1.11,5.19,5.19,0,0,0-2.36-1.38Z"/></g><g class="cls-4"><path class="cls-5" d="M117.75,84.75a5,5,0,0,0-1.19,2A8.58,8.58,0,0,0,116.4,88c0,.21,0,.42.08.63a3.4,3.4,0,0,0,.09.64,3.74,3.74,0,0,0,.48,1.13l0,0,.71.92a3,3,0,0,0,.51.4,3.59,3.59,0,0,0,1.67.89,5.16,5.16,0,0,0,.67.1,3.84,3.84,0,0,0,.66.08l1.21-.16a1.56,1.56,0,0,0,.57-.23,3.5,3.5,0,0,0,1.46-.94l.71-.92a12.17,12.17,0,0,0,.48-1.12l.16-1.2a2.15,2.15,0,0,0-.08-.62,3.19,3.19,0,0,0-.54-1.7,8.27,8.27,0,0,0-.73-.95,4.42,4.42,0,0,0-2-1.14,3.37,3.37,0,0,0-1.78-.08,3.29,3.29,0,0,0-1.65.53,4.38,4.38,0,0,0-1.6,1.6l0,0,.7-.9h0l.91-.7h0l1.08-.45h0l1.2-.17c-.43,0-.88.11-1.31.18l1.21-.16h-.06l1.2.16a.38.38,0,0,1-.1,0l1.08.46a.53.53,0,0,1-.1-.06l.92.71-.08-.08.7.91,0,0,.46,1.08a.19.19,0,0,1,0-.07l.16,1.2a5.08,5.08,0,0,0-.64-2.36,4.46,4.46,0,0,0-1.6-1.6,3.26,3.26,0,0,0-1.67-.53,3.37,3.37,0,0,0-1.78.07,4.63,4.63,0,0,0-2,1.15Z"/></g><g class="cls-4"><path class="cls-5" d="M183.29,148.62c4.93-15.92,10.71-31.53,22.39-43.87,11-11.6,27.16-24.61,43.78-25,7.77-.2,7.8-12.3,0-12.09-10.18.26-19.45,4.55-27.71,10.29a111.42,111.42,0,0,0-22.19,19.6c-11.72,14-21.1,31.83-20.6,50.53a2.22,2.22,0,0,0,4.33.59Z"/></g><g class="cls-4"><path class="cls-5" d="M37,27.5c3.42-2.68,8.18-4.77,12-6.95a78.28,78.28,0,0,1,10.47-5.27c7.53-2.94,16.13-5.15,24.09-2.8,8.56,2.52,17.16,7.26,24.78,11.88a88.12,88.12,0,0,1,19.32,15.73C138,51.37,146.2,65.93,152.45,79.86c3.41,7.6,6.37,15.37,9,23.25,2.76,8.19,4.43,18.35,9.73,25.3a2.89,2.89,0,0,0,5.33-1.45c.89-7.58-2.4-15.7-4.67-22.82s-4.65-14.37-7.22-21.45c-4.83-13.28-10-26.23-18.37-37.72a102.37,102.37,0,0,0-31.2-28.67C102.49,8.94,86.85.22,71.85,2.33A61.53,61.53,0,0,0,50.17,9.85a45.2,45.2,0,0,0-8.64,6.3c-3.14,2.94-4.52,6.15-6.84,9.59-1,1.49,1.09,2.7,2.28,1.76Z"/></g><g class="cls-4"><path class="cls-6" d="M36.28,74.43c2.76,7.63,8.66,15.49,6.21,24-1,3.63-2.83,6.67-2.57,10.58a16,16,0,0,0,5.22,10.41c4.45,4,10.22-1,8-6.13-.79-1.79-2.78-3.82-2.94-5.81s1.19-3.89,1.69-5.62a25.52,25.52,0,0,0,.41-12.34c-1.66-8-6.41-14.37-14.12-16.92a1.52,1.52,0,0,0-1.85,1.85Z"/></g><g class="cls-4"><path class="cls-6" d="M24.24,115.11c.68-1.11,1-2.33,1.58-3.45l-5.06-2.14c-.57,2.45.47,4.69,1.31,7s1.72,4.64,4.26,5.49a2.76,2.76,0,0,0,3.31-1.88c.89-2.11-.39-4.37-1.24-6.28s-1.35-4.17-3-5.51c-2.08-1.67-5.31-.16-4.62,2.7a4.92,4.92,0,0,1-.63,2.37c-1,2.44,2.82,3.82,4.11,1.74Z"/></g><g class="cls-4"><path class="cls-6" d="M131.37,79.79c-2.17,5.54-2.32,11.36-7.11,15.49-3.21,2.78-1.83,7.7,1.26,9.77,3.77,2.53,10,2.25,13-1.4,3.42-4.19,1-9.32-4.15-10a5.08,5.08,0,0,0-2.65.1c-1.36.27-1.33.45.1.56l1.26,9.77c6.59-6.54,11.13-19.27,2.45-26-1.59-1.22-3.56.21-4.14,1.68Z"/></g><g class="cls-4"><path class="cls-6" d="M181.06,193.12c5.19-.75,8.54-4.2,12-7.87,3.57-3.83,7-7.72,10.34-11.77,7.1-8.68,13.59-17.73,19.95-26.95,6.16-8.93,12.19-17.84,17.11-27.52,2.33-4.59,4.83-9.26,6.84-14,1.09-2.56,2.07-5.55,2.9-8.2s.52-5.38,1.46-8a.9.9,0,0,0-1.49-.87c-1.74,2-4.29,2.89-6,4.77s-3.46,3.72-5.22,5.57c-3.68,3.87-6.81,8.66-10.11,12.87-6.7,8.55-12.62,17.57-18.77,26.5-6,8.66-12.13,17.15-18,25.87-3.09,4.61-6.09,9.24-9.06,13.93-2.66,4.21-5.19,8.3-4.72,13.48a2.29,2.29,0,0,0,2.84,2.17Z"/></g><g class="cls-4"><path class="cls-6" d="M82.55,45.24c.63.58.59,1.31,1.12,2.09.86,1.23,2.13,2,2.91,3.4,2,3.45,2.4,8.45,2,12.38-.44,4.17-2.27,6.5-5.49,9-2.23,1.73-3.95,3.34-4.48,6.24-.79,4.33,4.32,6.35,6.9,2.9,1.21-1.61,3.21-.57,4.32.26,1.9,1.42,5.51,0,5.85-2.38L95.81,78A4.18,4.18,0,0,0,93,73.07l-.87-.31c-1.91-.69-4.61,1.16-4.33,3.3a4.86,4.86,0,0,1,0,2l6-3.44c-4.74-3.13-10.52-2.06-14.27,2.05l6.31,3.67c.48-1.68,3.58-2.77,4.81-3.9a15.72,15.72,0,0,0,3.25-4.35,22.66,22.66,0,0,0,1.92-13c-.51-4.27-1.55-8.62-4.07-12.18a14,14,0,0,0-3-3.19c-2.21-1.65-2.59-.79-5.15-.93a1.47,1.47,0,0,0-1,2.48Z"/></g></g><path class="cls-7" d="M184.93,170.52c1-2.55,6.13-37.78,36.26-67.91"/><path class="cls-7" d="M126.85,76.42S125.7,54.1,138.47,48.48"/><path class="cls-7" d="M79.35,43.25S74.64,21.93,90,13.76"/><path class="cls-7" d="M186.69,194a87.41,87.41,0,0,1-2.19,20.05s-9.19,4.08-13.27,0S179.4,175,158,109.25s-54.1-83.11-54.1-83.11S80.33,11.85,59.4,23.59,34.89,67,35.4,69s-12.26-1-12.26-1c-1-1.54-8.17-56.69,49-64.86C99.74-.77,122.8,17.72,139.29,37.93a169.38,169.38,0,0,1,33.93,70.9c1.77,8.09,4,17.6,6.12,27.73"/><path class="cls-7" d="M177.87,189s-13.79-83.75,51.57-118c46.82-24.51,18.71,31.68-1,65.53A220.5,220.5,0,0,1,201,173.92c-8.54,9.39-18.42,20.84-20.1,25.33"/><path class="cls-7" d="M185,170.65c1-2.55,6.13-37.78,36.26-67.91"/><path class="cls-8" d="M8.84,112.44,4.76,126.23,22.32,115l10,11.24,5.11-10.72,15.32,7.14-4.09-13.4s11-23.9-7.66-35.62S8.33,77.72,8.33,77.72-4.94,93.55,8.84,112.44Z"/><path class="cls-8" d="M65.73,76.26l-3,10.51L75.54,78.2l7.29,8.57,3.72-8.18L97.69,84l-3-10.21s8-18.23-5.57-27.16-23.79,3.12-23.79,3.12S55.7,61.85,65.73,76.26Z"/><path class="cls-8" d="M116.34,101.33l-2.3,7.92,9.88-6.45,5.64,6.45,2.87-6.16,8.63,4.11-2.3-7.7s6.18-13.73-4.31-20.46-18.4,2.35-18.4,2.35S108.58,90.48,116.34,101.33Z"/></g></g></svg>