<?xml version="1.0" encoding="UTF-8" standalone="no"?>
<svg
   id="Calque_2"
   data-name="Calque 2"
   viewBox="0 0 71.74 78.66"
   version="1.1"
   sodipodi:docname="bg-smiling-emoji.svg"
   inkscape:version="1.4.2 (2aeb623e1d, 2025-05-12)"
   xmlns:inkscape="http://www.inkscape.org/namespaces/inkscape"
   xmlns:sodipodi="http://sodipodi.sourceforge.net/DTD/sodipodi-0.dtd"
   xmlns="http://www.w3.org/2000/svg"
   xmlns:svg="http://www.w3.org/2000/svg">
  <sodipodi:namedview
     id="namedview15"
     pagecolor="#ffffff"
     bordercolor="#000000"
     borderopacity="0.25"
     inkscape:showpageshadow="2"
     inkscape:pageopacity="0.0"
     inkscape:pagecheckerboard="0"
     inkscape:deskcolor="#d1d1d1"
     inkscape:zoom="8.0218659"
     inkscape:cx="35.901872"
     inkscape:cy="39.330002"
     inkscape:window-width="1600"
     inkscape:window-height="836"
     inkscape:window-x="0"
     inkscape:window-y="27"
     inkscape:window-maximized="1"
     inkscape:current-layer="g15" />
  <defs
     id="defs1">
    <style
       id="style1">
      .cls-1 {
        fill: #ffce62;
      }

      .cls-1, .cls-2, .cls-3 {
        stroke-linecap: round;
        stroke-linejoin: round;
        stroke-width: 2.51px;
      }

      .cls-1, .cls-3 {
        stroke: #733d00;
      }

      .cls-4 {
        opacity: .5;
      }

      .cls-5 {
        fill: #fdf4f6;
      }

      .cls-5, .cls-6, .cls-7, .cls-8, .cls-9, .cls-10 {
        stroke-width: 0px;
      }

      .cls-6, .cls-3 {
        fill: none;
      }

      .cls-11 {
        opacity: .34;
      }

      .cls-7 {
        fill: #231f20;
      }

      .cls-12 {
        clip-path: url(#clippath);
      }

      .cls-2 {
        fill: #fc3352;
        stroke: #6d002a;
      }

      .cls-8 {
        fill: #eafdf1;
      }

      .cls-9 {
        fill: #82263e;
      }

      .cls-10 {
        fill: #f7f1eb;
      }
    </style>
    <clipPath
       id="clippath">
      <ellipse
         class="cls-6"
         cx="35.87"
         cy="38.78"
         rx="34.62"
         ry="37.53"
         id="ellipse1" />
    </clipPath>
  </defs>
  <g
     id="Layer_1"
     data-name="Layer 1">
    <g
       id="g15">
      <ellipse
         class="cls-1"
         cx="35.869999"
         cy="39.880001"
         rx="34.619999"
         ry="37.529999"
         id="ellipse2"
         style="display:inline" />
      <path
         class="cls-7"
         d="m 24.84,53.13 c 1.2,1.94 3.58,3.11 5.84,2.46 2.04,-0.59 5.16,-4.09 2.96,-6.04 -0.49,-0.44 -1.12,-0.52 -1.71,-0.22 -1.26,0.65 -1.25,2.33 -2.29,3.27 -1.31,1.18 -3.04,1.2 -4.46,0.18 -0.21,-0.15 -0.48,0.14 -0.35,0.35 v 0 z"
         id="path4"
         style="display:inline" />
      <path
         class="cls-7"
         d="m 29.82,55.21 c -0.27,4.49 2.2,8.94 7.13,9.2 5.23,0.27 7.15,-4.48 7.09,-8.9 -0.01,-0.84 -1.18,-0.97 -1.43,-0.19 -0.84,2.58 -1.97,5.9 -4.96,6.49 -3.95,0.78 -6.73,-3.09 -7.12,-6.59 -0.05,-0.44 -0.68,-0.46 -0.7,0 v 0 z"
         id="path5"
         style="display:inline" />
      <path
         class="cls-7"
         d="m 47.51,54.4 c -1.24,-0.1 -2.48,-0.25 -3.5,-1.03 -1.29,-0.99 -1.14,-2.9 -1.49,-4.36 -0.22,-0.93 -1.43,-0.76 -1.72,0 -0.81,2.13 -0.23,4.93 1.81,6.21 1.46,0.91 3.49,0.45 5,-0.08 0.41,-0.14 0.33,-0.7 -0.1,-0.74 z"
         id="path6"
         style="display:inline" />
      <g
         class="cls-11"
         id="g9"
         style="display:inline">
        <g
           class="cls-12"
           clip-path="url(#clippath)"
           id="g8">
          <path
             class="cls-9"
             d="m 1.25,22.15 c -0.3,2.3 -2.06,5.29 -2.67,7.57 -0.53,2.01 -1,3.99 -1.09,6.06 -0.2,4.29 0.34,8.79 1.74,12.85 2.75,8.01 7.66,15.4 14.24,20.76 13.13,10.7 33.26,12.84 47.41,2.76 7.5,-5.34 13.49,-13.43 16.79,-22.01 1.42,-3.7 2.71,-8.48 1.01,-12.26 -1.3,-2.89 -4.31,-4.88 -7.29,-2.98 -3.64,2.31 -3.45,7.78 -4.82,11.39 -1.73,4.55 -4.71,8.88 -8.04,12.4 -6.11,6.47 -14.83,9.4 -23.66,8.39 C 25.3,65.99 17.03,60.14 11.99,52.06 9.34,47.81 7.54,43.07 6.07,38.3 5.37,36.04 4.95,33.71 4.31,31.43 3.6,28.9 1.93,24.81 1.92,22.15 c 0,-0.44 -0.61,-0.41 -0.66,0 v 0 z"
             id="path7" />
          <path
             class="cls-8"
             d="m 15.95,6.82 c 4.91,-1.36 12.33,0.03 17.37,0.68 5.92,0.76 11.82,2.13 17.12,4.94 9.78,5.18 14.43,14.08 19.03,23.64 0.59,1.23 1.98,1.77 3.24,1.86 0.71,0.05 1.26,-0.23 1.9,-0.51 1.2,-0.53 1.82,-2.03 1.86,-3.24 C 76.91,21.46 66.69,9.97 56.08,4.24 50.12,1.01 43.21,-0.96 36.4,-0.88 33.05,-0.85 29.57,-0.43 26.34,0.52 22.31,1.71 19.53,4.36 15.71,5.96 15.2,6.17 15.38,6.98 15.95,6.82 Z"
             id="path8" />
        </g>
      </g>
      <path
         class="cls-10"
         d="m 38.6,10.13 c 0.26,0 0.51,-0.04 0.74,-0.16 0.24,-0.08 0.44,-0.21 0.62,-0.4 0.19,-0.17 0.32,-0.38 0.4,-0.62 0.12,-0.23 0.17,-0.47 0.16,-0.74 L 40.45,7.7 C 40.36,7.38 40.2,7.09 39.96,6.86 L 39.57,6.56 C 39.27,6.39 38.95,6.3 38.6,6.3 c -0.26,0 -0.51,0.04 -0.74,0.16 -0.24,0.08 -0.44,0.21 -0.62,0.4 -0.19,0.17 -0.32,0.38 -0.4,0.62 -0.12,0.23 -0.17,0.47 -0.16,0.74 l 0.07,0.51 c 0.09,0.32 0.25,0.61 0.49,0.84 l 0.39,0.3 c 0.3,0.17 0.62,0.26 0.97,0.26 z"
         id="path9"
         style="display:inline" />
      <path
         class="cls-10"
         d="m 46.36,11.56 c 5.04,1.6 8.57,5.36 11.6,9.52 1,1.37 2.98,0.22 2.27,-1.33 -2.48,-5.38 -7.93,-8.36 -13.49,-9.55 -0.88,-0.19 -1.24,1.08 -0.37,1.36 v 0 z"
         id="path10"
         style="display:inline" />
      <ellipse
         class="cls-3"
         cx="35.869999"
         cy="38.779999"
         rx="34.619999"
         ry="37.529999"
         id="ellipse10"
         style="display:inline" />
    </g>
  </g>
</svg>
