<?xml version="1.0" encoding="UTF-8"?>
<svg id="Calque_2" data-name="Calque 2" xmlns="http://www.w3.org/2000/svg" xmlns:xlink="http://www.w3.org/1999/xlink" viewBox="0 0 71.74 77.8">
  <defs>
    <style>
      .cls-1 {
        fill: #ffce62;
      }

      .cls-1, .cls-2, .cls-3 {
        stroke-width: 2.51px;
      }

      .cls-1, .cls-3 {
        stroke: #733d00;
        stroke-linecap: round;
        stroke-linejoin: round;
      }

      .cls-4 {
        fill: #eafff1;
      }

      .cls-4, .cls-5, .cls-6, .cls-7, .cls-8, .cls-9 {
        stroke-width: 0px;
      }

      .cls-5 {
        fill: #272325;
      }

      .cls-6, .cls-3 {
        fill: none;
      }

      .cls-10 {
        opacity: .34;
      }

      .cls-2 {
        fill: #fff;
        stroke: #2f2629;
        stroke-miterlimit: 10;
      }

      .cls-11 {
        clip-path: url(#clippath);
      }

      .cls-7 {
        fill: #eafdf1;
      }

      .cls-8 {
        fill: #82263e;
      }

      .cls-9 {
        fill: #f7f1eb;
      }
    </style>
    <clipPath id="clippath">
      <ellipse class="cls-6" cx="35.87" cy="39.02" rx="34.62" ry="37.53"/>
    </clipPath>
  </defs>
  <g id="Layer_1" data-name="Layer 1">
    <g>
      <ellipse class="cls-1" cx="35.87" cy="38.78" rx="34.62" ry="37.53"/>
      <path class="cls-2" d="m20.32,47.31c-2.61.99-5.56.03-7.17-2.24-3.02-4.27-6.88-12.44,2.33-18.11,12.97-7.98,10.09,13.96,10.09,13.96,0,0-.68,4.66-5.24,6.39Z"/>
      <path class="cls-2" d="m46.54,45.31c2.61.99,5.56.03,7.17-2.24,3.02-4.27,6.88-12.44-2.33-18.11-12.97-7.98-10.09,13.96-10.09,13.96,0,0,.68,4.66,5.24,6.39Z"/>
      <path class="cls-5" d="m20.88,26.65c-.36,4.32.44,8.75.88,13.05.2,1.92,2.75,1.9,2.97,0,.48-4.05.29-8.05.62-12.08h-4.45c-.46,4.6.11,9.12-.64,13.75h6.43c-.87-4.98-1.55-9.97-2.05-15-.41-4-6.67-4.1-6.34,0,.48,6.02.75,12.09,1.58,18.07.49,3.56,6.34,2.68,6.23-.84-.18-5.75-.95-11.5-1.47-17.23h-6.34c.52,5.61,1.19,11.2,1.97,16.77.45,3.27,5.82,3.09,6.43,0,1.05-5.29,1.3-11.88-1.64-16.65-1.31-2.12-4.75-.76-4.07,1.71.98,3.56.88,7.81.78,11.49l2.92-.39c-.63-4.27-.95-8.76-2.37-12.85-.27-.79-1.36-.63-1.43.19h0Z"/>
      <path class="cls-5" d="m48.6,25.01c-1.41,5.91-.52,12.57.55,18.48.39,2.17,3.61,1.92,4.15,0,1.43-5.09,1.95-10.27,1.5-15.54l-4.66.63c.69,3.15.49,6.41.27,9.6-.22,3.37,4.82,3.85,5.74.78.43-1.44.82-2.89,1.22-4.34l-5.85-.79c.16.96.11,1.92-.14,2.87h5.79l-.16-.82c-.58-2.95-4.4-2.24-5.3,0l-.33.82c-1.43,3.56,5.04,5.45,5.79,1.6.3-1.53.44-2.9.3-4.46-.28-3.19-4.95-4.24-5.85-.79-.38,1.45-.77,2.91-1.11,4.37l5.74.78c.03-3.79-.11-7.32-1.55-10.86-.9-2.22-4.99-2.28-4.66.63.56,4.89.28,9.62-.91,14.4h4.15c-1.21-5.75-1.39-11.61-2.53-17.34-.22-1.1-1.92-1.05-2.17,0h0Z"/>
      <path class="cls-5" d="m36.98,19.69c3.88,5.16,13.24,10.27,19.53,6.35,1.09-.68.91-2.39-.36-2.75-2.92-.82-6.01-.34-9-1.04-3.23-.76-6.23-1.96-9.11-3.62-.62-.36-1.55.41-1.06,1.06h0Z"/>
      <path class="cls-5" d="m15.24,20.23c1.38-3.15,4.04-7.38,7.49-8.53,2.54-.85,3.28.55,5.11,1.83.95.67,1.46.81,2.57.55.52-.12.79-.69.67-1.18-.99-4.11-5.83-5.85-9.41-4.27-4.34,1.91-6.94,6.51-8.15,10.88-.27.99,1.28,1.72,1.72.72h0Z"/>
      <path class="cls-5" d="m28.51,54.16c-3.79-.55-11.84,8.36-6.28,10.39,1.35.49,2.73.14,4.07-.22.51-.15,1.03-.3,1.54-.45.67-.7.9-.58.68.36.18.57.08,1.3.23,1.89.65,2.58,2.87,4.46,5.49,3.27.85-.39.42-1.79-.47-1.75-4.3.21-1.66-3.86-2.93-5.77-.79-1.17-2.57-1.05-3.77-.82-.49.1-3.06,1.21-3.4.9-.78-.7.45-1.93.91-2.57,1.2-1.65,3.34-2.81,4.17-4.64.09-.2.04-.55-.24-.59h0Z"/>
      <g>
        <g class="cls-10">
          <g class="cls-11">
            <path class="cls-8" d="m1.25,22.39c-.3,2.3-2.06,5.29-2.67,7.57-.53,2.01-1,3.99-1.09,6.06-.2,4.29.34,8.79,1.74,12.85,2.75,8.01,7.66,15.4,14.24,20.76,13.13,10.7,33.26,12.84,47.41,2.76,7.5-5.34,13.49-13.43,16.79-22.01,1.42-3.7,2.71-8.48,1.01-12.26-1.3-2.89-4.31-4.88-7.29-2.98-3.64,2.31-3.45,7.78-4.82,11.39-1.73,4.55-4.71,8.88-8.04,12.4-6.11,6.47-14.83,9.4-23.66,8.39-9.57-1.09-17.84-6.94-22.88-15.02-2.65-4.25-4.45-8.99-5.92-13.76-.7-2.26-1.12-4.59-1.76-6.87-.71-2.53-2.38-6.62-2.39-9.28,0-.44-.61-.41-.66,0h0Z"/>
            <path class="cls-7" d="m15.95,7.06c4.91-1.36,12.33.03,17.37.68,5.92.76,11.82,2.13,17.12,4.94,9.78,5.18,14.43,14.08,19.03,23.64.59,1.23,1.98,1.77,3.24,1.86.71.05,1.26-.23,1.9-.51,1.2-.53,1.82-2.03,1.86-3.24.44-12.73-9.78-24.22-20.39-29.95C50.12,1.26,43.21-.71,36.4-.64c-3.35.03-6.83.45-10.06,1.4-4.03,1.19-6.81,3.84-10.63,5.44-.51.21-.33,1.02.24.86h0Z"/>
          </g>
        </g>
        <path class="cls-9" d="m38.6,10.37c.26,0,.51-.04.74-.16.24-.08.44-.21.62-.4.19-.17.32-.38.4-.62.12-.23.17-.47.16-.74l-.07-.51c-.09-.32-.25-.61-.49-.84l-.39-.3c-.3-.17-.62-.26-.97-.26-.26,0-.51.04-.74.16-.24.08-.44.21-.62.4-.19.17-.32.38-.4.62-.12.23-.17.47-.16.74l.07.51c.09.32.25.61.49.84l.39.3c.3.17.62.26.97.26h0Z"/>
        <path class="cls-9" d="m50.4,14.17c4.85,2.42,7.71,6.77,10.12,11.43.69,1.34,2.79.41,2.4-1.01-1.58-5.82-6.59-9.64-11.98-11.7-.74-.28-1.25.93-.54,1.29h0Z"/>
        <ellipse class="cls-3" cx="35.87" cy="39.02" rx="34.62" ry="37.53"/>
      </g>
      <path class="cls-4" d="m19.03,34.21s-.08.02-.12.03l.15-.02c-.05,0-.1,0-.15,0l.15.02c-.05,0-.1-.02-.15-.04l.15.06s-.06-.03-.09-.05l.23.23s-.03-.05-.04-.08l.07.17v-.02c0,.13,0,.25,0,.38.06-.19.04-.36,0-.54l-.09.66s.02-.04.04-.06l-.14.18s.01-.02.02-.02l-.18.14c.13-.09.18-.14.27-.24s.12-.21.17-.33l-.09.22s.03-.05.04-.07l-.15.19s.05-.05.08-.08l-.19.15s.07-.05.11-.06l-.23.1c.05-.02.1-.03.16-.04l-.27.04c.08,0,.15,0,.23,0l-.27-.04c.06,0,.12.02.18.04l-.25-.11c.07.03.14.07.2.12l-.22-.17s.09.08.12.12l-.18-.23s.06.08.08.13l-.12-.28c.02.06.04.12.05.19l-.04-.32c0,.06,0,.12,0,.18l.04-.33c0,.06-.03.12-.05.18l.13-.3c-.03.06-.06.12-.1.18l.2-.26c-.05.07-.12.13-.19.18l.27-.21c-.08.06-.16.11-.26.15l.33-.14c-.1.04-.21.07-.31.08l.37-.05c-.1.01-.2.01-.3,0l.39.05c-.09-.01-.18-.04-.26-.07l1.09,1.43s0-.03,0-.04l-.05.39c.01-.07.03-.13.05-.2l-.15.35c.03-.06.06-.12.1-.17l-.23.3c.05-.06.1-.11.15-.15l-.3.23c.07-.06.15-.1.24-.14l-.36.15c.11-.04.22-.07.33-.09l-.4.05c.12-.02.24-.02.36,0l-.4-.05c.1.01.19.04.28.08l-.36-.15c.06.02.11.05.16.09l-.31-.24c.05.04.1.09.14.14l-.24-.31c.04.05.07.11.1.17l-.16-.37s.03.08.04.13l.72-1.77c-.1.08-.22.14-.34.19l.38-.16c-.16.06-.32.11-.49.13l.43-.06c-.08,0-.17.01-.25.01-.04,0-.08,0-.12,0-.08,0-.15,0-.23.03-.15,0-.28.04-.41.11-.08.03-.16.07-.24.1l.38-.16c-.08.03-.16.06-.25.08-.48.11-.88.54-1.01,1.01-.07.26-.07.51,0,.77.07.24.19.46.37.64.04.05.09.1.14.15.11.1.29.25.38.3.27.16.54.22.84.24.29.02.59-.03.86-.08.54-.11,1.06-.43,1.44-.82.19-.2.33-.43.4-.69.07-.28.07-.56,0-.83-.07-.16-.12-.33-.21-.48s-.2-.29-.32-.42c-.03-.03-.06-.06-.09-.09-.13-.11-.27-.22-.41-.31-.4-.24-.79-.33-1.25-.37-.1,0-.19,0-.28,0-.21.02-.45.04-.66.11-.41.13-.79.34-1.1.65-.12.12-.22.27-.32.4-.03.04-.05.09-.08.13-.17.36-.24.61-.27,1.02l.05.39c.05.19.13.36.26.5.07.11.15.2.27.27.14.13.31.22.5.26.39.1.83.09,1.22-.03.18-.05.36-.13.54-.22s.33-.22.48-.34c.06-.05.11-.09.16-.15.12-.14.25-.29.34-.45.09-.16.16-.32.21-.49.01-.04.02-.08.02-.11.02-.14.05-.29.05-.43,0-.18-.02-.37-.07-.54-.09-.29-.19-.44-.37-.67-.2-.24-.47-.38-.75-.48-.19-.07-.41-.1-.61-.1s-.41.02-.6.08c-.26.08-.53.22-.72.42-.13.14-.21.27-.28.44-.03.06-.06.12-.07.19,0,.01,0,.02,0,.03-.05.27-.02.47.1.72l-.09-.22c.05.17.13.34.26.47.11.11.28.2.42.24.24.07.47.01.68-.1l-.36.1c.1,0,.19-.02.29-.04l-.17.02c.34.01.65-.08.9-.31.16-.15.2-.45.08-.64s-.37-.32-.59-.24h0Z"/>
      <path class="cls-4" d="m48.36,35.1c0-.12-.03.17,0,.05,0-.02,0-.05.02-.07.02-.08.1-.21,0-.02.02-.04.04-.09.07-.13.05-.08.06-.04-.04.05.02-.01.03-.03.05-.05s.04-.03.05-.05c.08-.07-.14.1-.07.06.04-.03.09-.06.13-.09.09-.05.2-.1.3-.14l-.2.09c.13-.05.26-.09.4-.11l-.24.03c.14-.02.27-.02.41,0l-.26-.03c.1.01.19.04.28.07l-.24-.1c.09.04.17.08.25.14l-.38-.38v.02c-.04-.18-.08-.36-.13-.54,0,.01,0,.02,0,.03l.04-.3c-.08.32-.02.61.12.9.02.04.04.08.05.12l.43-1.65c-.17.11-.32.23-.48.36l.26-.2c-.1.08-.21.14-.33.19l.32-.13c-.18.07-.36.13-.55.16l.37-.05c-.17.02-.34.02-.52,0l.38.05c-.16-.02-.32-.06-.47-.13l.35.15c-.13-.06-.25-.12-.36-.21l.3.23c-.09-.07-.17-.16-.25-.25l.23.3s-.04-.05-.06-.08l-.23,1.82s.04-.03.06-.05l-.3.24c.11-.08.22-.15.34-.2l-.36.15c.11-.05.22-.08.34-.1l-.41.05c.1-.01.2-.01.3,0l-.41-.05c.07.01.14.03.21.06l-.37-.16c.06.03.11.06.16.1l-.31-.24s.07.07.1.11l-.24-.31s.05.08.07.12l-.16-.37s.02.07.03.11l-.06-.42c0,.06,0,.13,0,.19l.06-.42c0,.07-.03.14-.06.21l.16-.38c-.03.06-.06.11-.09.16l.25-.33c-.1.13-.2.26-.3.39l.25-.33s-.06.06-.09.09l.33-.25s-.05.04-.08.05l.39-.16s-.08.03-.12.03l.43-.06s-.07,0-.11,0l1.4,2.44s.02-.03.03-.05l-.25.33s.05-.06.08-.08l-.33.25s.08-.05.12-.07l-.39.16c.07-.03.15-.04.23-.05l-.43.06c.06,0,.12,0,.18,0l-.42-.06c.17.03.33.06.5.06.03,0,.07,0,.1,0l-.4-.05s.08.02.12.03l-.34-.14s.06.03.09.05c.38.28.99.23,1.38,0,.44-.26.64-.69.68-1.18.06-.85-.62-1.66-1.42-1.85-.19-.04-.39-.08-.59-.07s-.39.03-.57.1c-.35.13-.52.23-.81.47-.15.13-.26.29-.37.45-.15.25-.22.53-.22.82,0,.22.04.43.14.62.07.2.18.37.34.52.2.2.44.34.71.42.39.06.61.09.99,0,.18-.04.37-.11.53-.21.32-.19.62-.47.78-.81.17-.36.29-.72.27-1.13s-.11-.75-.3-1.12c-.37-.71-1.24-1.14-2.02-1.11-.72.03-1.45.32-1.95.86-.26.28-.46.67-.44,1.06.02.41.16.75.44,1.06.59.67,1.59,1.03,2.47.93.49-.05,1.01-.15,1.42-.44.47-.33.92-.75,1.04-1.34.06-.3.05-.66-.12-.93s-.41-.44-.72-.55c-.33-.13-.75-.09-1.05.1l.54-.15h-.03c.09.01.19.03.28.04-.72-.26-1.57-.04-2.16.41-.32.25-.53.56-.68.94-.13.34-.16.66-.11,1.03.02.14.17.31.29.38.13.07.26.09.4.08.33-.04.52-.3.55-.62h0Z"/>
    </g>
  </g>
</svg>