<?xml version="1.0" encoding="UTF-8"?>
<svg id="Calque_2" data-name="Calque 2" xmlns="http://www.w3.org/2000/svg" xmlns:xlink="http://www.w3.org/1999/xlink" viewBox="0 0 71.74 78.66">
  <defs>
    <style>
      .cls-1 {
        fill: #ffce62;
      }

      .cls-1, .cls-2, .cls-3 {
        stroke-linecap: round;
        stroke-linejoin: round;
        stroke-width: 2.51px;
      }

      .cls-1, .cls-3 {
        stroke: #733d00;
      }

      .cls-4 {
        opacity: .5;
      }

      .cls-5 {
        fill: #fdf4f6;
      }

      .cls-5, .cls-6, .cls-7, .cls-8, .cls-9, .cls-10 {
        stroke-width: 0px;
      }

      .cls-6, .cls-3 {
        fill: none;
      }

      .cls-11 {
        opacity: .34;
      }

      .cls-7 {
        fill: #231f20;
      }

      .cls-12 {
        clip-path: url(#clippath);
      }

      .cls-2 {
        fill: #fc3352;
        stroke: #6d002a;
      }

      .cls-8 {
        fill: #eafdf1;
      }

      .cls-9 {
        fill: #82263e;
      }

      .cls-10 {
        fill: #f7f1eb;
      }
    </style>
    <clipPath id="clippath">
      <ellipse class="cls-6" cx="35.87" cy="38.78" rx="34.62" ry="37.53"/>
    </clipPath>
  </defs>
  <g id="Layer_1" data-name="Layer 1">
    <g>
      <ellipse class="cls-1" cx="35.87" cy="39.88" rx="34.62" ry="37.53"/>
      <path class="cls-2" d="m21.29,34.41s4.85-11.2,9.23-7.77c6.06,4.74,1.66,9.99-7.65,18.29,0,0-14.3-6.33-11.64-14.98,2.66-8.64,11.32-2.6,10.06,4.46Z"/>
      <path class="cls-2" d="m53.64,34.11s-4.85-11.2-9.23-7.77c-6.06,4.74-1.66,9.99,7.65,18.29,0,0,14.3-6.33,11.64-14.98-2.66-8.64-11.32-2.6-10.06,4.46Z"/>
      <path class="cls-7" d="m24.84,53.13c1.2,1.94,3.58,3.11,5.84,2.46,2.04-.59,5.16-4.09,2.96-6.04-.49-.44-1.12-.52-1.71-.22-1.26.65-1.25,2.33-2.29,3.27-1.31,1.18-3.04,1.2-4.46.18-.21-.15-.48.14-.35.35h0Z"/>
      <path class="cls-7" d="m29.82,55.21c-.27,4.49,2.2,8.94,7.13,9.2,5.23.27,7.15-4.48,7.09-8.9-.01-.84-1.18-.97-1.43-.19-.84,2.58-1.97,5.9-4.96,6.49-3.95.78-6.73-3.09-7.12-6.59-.05-.44-.68-.46-.7,0h0Z"/>
      <path class="cls-7" d="m47.51,54.4c-1.24-.1-2.48-.25-3.5-1.03-1.29-.99-1.14-2.9-1.49-4.36-.22-.93-1.43-.76-1.72,0-.81,2.13-.23,4.93,1.81,6.21,1.46.91,3.49.45,5-.08.41-.14.33-.7-.1-.74h0Z"/>
      <g class="cls-11">
        <g class="cls-12">
          <path class="cls-9" d="m1.25,22.15c-.3,2.3-2.06,5.29-2.67,7.57-.53,2.01-1,3.99-1.09,6.06-.2,4.29.34,8.79,1.74,12.85,2.75,8.01,7.66,15.4,14.24,20.76,13.13,10.7,33.26,12.84,47.41,2.76,7.5-5.34,13.49-13.43,16.79-22.01,1.42-3.7,2.71-8.48,1.01-12.26-1.3-2.89-4.31-4.88-7.29-2.98-3.64,2.31-3.45,7.78-4.82,11.39-1.73,4.55-4.71,8.88-8.04,12.4-6.11,6.47-14.83,9.4-23.66,8.39-9.57-1.09-17.84-6.94-22.88-15.02-2.65-4.25-4.45-8.99-5.92-13.76-.7-2.26-1.12-4.59-1.76-6.87-.71-2.53-2.38-6.62-2.39-9.28,0-.44-.61-.41-.66,0h0Z"/>
          <path class="cls-8" d="m15.95,6.82c4.91-1.36,12.33.03,17.37.68,5.92.76,11.82,2.13,17.12,4.94,9.78,5.18,14.43,14.08,19.03,23.64.59,1.23,1.98,1.77,3.24,1.86.71.05,1.26-.23,1.9-.51,1.2-.53,1.82-2.03,1.86-3.24.44-12.73-9.78-24.22-20.39-29.95C50.12,1.01,43.21-.96,36.4-.88c-3.35.03-6.83.45-10.06,1.4-4.03,1.19-6.81,3.84-10.63,5.44-.51.21-.33,1.02.24.86h0Z"/>
        </g>
      </g>
      <path class="cls-10" d="m38.6,10.13c.26,0,.51-.04.74-.16.24-.08.44-.21.62-.4.19-.17.32-.38.4-.62.12-.23.17-.47.16-.74l-.07-.51c-.09-.32-.25-.61-.49-.84l-.39-.3c-.3-.17-.62-.26-.97-.26-.26,0-.51.04-.74.16-.24.08-.44.21-.62.4-.19.17-.32.38-.4.62-.12.23-.17.47-.16.74l.07.51c.09.32.25.61.49.84l.39.3c.3.17.62.26.97.26h0Z"/>
      <path class="cls-10" d="m46.36,11.56c5.04,1.6,8.57,5.36,11.6,9.52,1,1.37,2.98.22,2.27-1.33-2.48-5.38-7.93-8.36-13.49-9.55-.88-.19-1.24,1.08-.37,1.36h0Z"/>
      <ellipse class="cls-3" cx="35.87" cy="38.78" rx="34.62" ry="37.53"/>
      <g class="cls-4">
        <path class="cls-5" d="m14.73,31.14c.04.11.11.2.23.24.08.02.16.02.24,0l-.21-.03.02.02c.09.06.25.08.35.05.11-.04.22-.1.27-.21.05-.09.08-.19.08-.29,0-.09-.03-.18-.07-.26-.03-.05-.06-.09-.1-.13l-.59.77s.01,0,.02.01l-.1-.08s.02.02.03.03l-.08-.1s.01.02.01.03l-.05-.12s.01.03.01.05l-.02-.14s0,.03,0,.05l.02-.14s0,.04-.02.06l.06-.13s-.02.04-.04.06l.09-.12s-.04.04-.07.06l.12-.09s-.02.01-.03.02l.15-.06s-.03,0-.04.01l.16-.02s-.03,0-.04,0l.16.02s-.02,0-.03,0l.15.06s-.02-.01-.04-.02l.13.1s-.02-.02-.03-.03l.1.13s-.02-.03-.03-.04l.06.15s-.01-.04-.02-.06l.02.17s0-.05,0-.08l-.02.17s0-.01,0-.02l-.07.15s.02-.04.03-.05l-.1.13s.02-.02.03-.03l-.14.1s.02-.01.03-.02l-.16.07s.03,0,.04-.01l-.18.02s.01,0,.02,0l-.67-.51s.01.06.02.09l-.03-.19c0,.06,0,.11,0,.17l.23-.55c-.12.13-.2.25-.25.42-.03.12-.03.18-.03.27,0,.05,0,.1-.01.15l.03-.23c-.01.1-.04.19-.08.28l.09-.22s-.02.06-.04.09l.15-.19c-.06.08-.12.15-.18.24l1.48-.19h0c.05.05.1.12.15.18-.03-.03-.05-.07-.06-.11l.1.23s-.03-.09-.04-.14l.04.27s0-.1,0-.15l-.04.27c.02-.12.03-.24.05-.36l-.04.28c0-.07.03-.13.05-.2l-.11.25c.03-.06.06-.11.1-.16l-.17.22s.08-.09.12-.12l-.22.17s.07-.05.12-.07l-.26.11s.08-.03.13-.04l-.29.04s.06,0,.09,0l-1.06-1.4c-.1.4-.2.8-.29,1.2-.07.28-.04.6.11.85.07.13.16.23.28.31.11.1.23.16.38.2l.29.04c.2,0,.38-.05.56-.15.24-.15.44-.38.51-.66.1-.4.2-.8.29-1.2.05-.2.05-.39,0-.59-.03-.14-.1-.27-.2-.38-.08-.12-.18-.21-.31-.28-.17-.1-.36-.15-.56-.15-.41.01-.8.18-1.09.47-.21.22-.37.5-.45.79-.07.28-.1.64,0,.91.1.25.16.38.34.59.09.11.21.2.34.26.15.09.31.13.48.13.13,0,.25-.02.36-.08.12-.04.22-.1.3-.2.12-.12.2-.26.24-.42.02-.11.04-.22.04-.32l-.03.25c.03-.18.07-.36.05-.54,0-.12-.03-.25-.05-.37,0-.03-.01-.05-.02-.08,0-.01,0-.03-.01-.04-.02-.06-.06-.17-.1-.23-.07-.13-.17-.23-.3-.3-.13-.08-.27-.11-.42-.11h-.01c.22.13.45.26.67.39-.08-.13-.18-.26-.29-.37l-.14-.11c-.08-.05-.17-.08-.26-.08-.06-.02-.12-.02-.19,0-.09,0-.18.03-.26.08-.36.2-.48.62-.39,1,.09.36.42.64.79.62.26-.01.5-.14.63-.36.11-.18.12-.38.08-.57-.06-.32-.34-.57-.67-.57-.24,0-.45.19-.48.42-.01.1,0,.22.06.31.07.11.17.18.29.22h0s-.08-.03-.12-.05c0,0,.02,0,.03.01l-.1-.07s.01.01.02.02l-.07-.1s0,0,0,.01l-.05-.11s0,.02,0,.03l-.02-.12c0,.13.05.25.15.34l.06-.43s-.03.01-.03.02c.05-.02.06-.03.04-.02-.02,0-.01,0,.02,0,.03,0,.03,0,.02,0,.05,0,.07.01.04,0,.03,0,.06.02.08.05,0,0-.01,0-.01-.02-.07-.08-.21-.09-.29-.04s-.15.17-.11.27h0Z"/>
      </g>
      <g class="cls-4">
        <path class="cls-5" d="m47.42,32.24c-.05-.07-.09-.15-.12-.23l.07.16c-.05-.13-.09-.26-.11-.4l.03.19c0-.09,0-.17.01-.26l-.03.2c.02-.12.05-.23.09-.35l-1.6-.22c.01.15.03.25.08.38.05.12.11.21.2.31l-.15-.19s.01.02.02.03l-.1-.23s0,.02,0,.04l-.03-.25s0,.04,0,.06l.03-.26s-.02.07-.03.11l.1-.23s-.03.07-.06.1l.16-.2s-.04.04-.06.06l.2-.16s-.04.03-.06.04l.24-.1s-.03,0-.04.01l.27-.04s-.03,0-.05,0l.28.04s-.03,0-.05-.01l.25.11s-.08-.05-.12-.07l.21.17s-.04-.04-.06-.06l.17.21s-.04-.06-.05-.09l.11.25c-.02-.05-.04-.11-.04-.16l.04.28c0-.07,0-.15,0-.22l-.04.29c.01-.09.03-.17.07-.25l-.11.26s.01-.02.02-.04l-1.71.22c.05.06.11.11.15.17l-.17-.22c.1.13.18.27.25.42l-.11-.27c.03.06.06.13.07.19l-.04-.3s0,.1,0,.15c0,.15.03.29.07.42.03.1.08.22.13.32.06.11.13.18.21.27.03.03.05.06.08.09l-.16-.21v.02c.11.16.23.28.38.37.16.09.34.14.52.14.38,0,.69-.2.89-.51.02-.04.05-.08.07-.12.05-.1.12-.25.14-.32l.04-.31s0-.03,0-.05c-.02-.25-.05-.48-.18-.69-.08-.12-.18-.24-.26-.35l.18.23v-.02c.03.09.06.18.1.27-.09-.23-.18-.46-.33-.66s-.29-.4-.47-.56c-.14-.13-.3-.23-.48-.28-.19-.05-.39-.05-.58,0-.18.05-.34.15-.48.28-.13.14-.23.3-.28.48-.05.12-.06.25-.08.38s-.03.25-.02.39c.03.28.07.47.2.73.06.11.14.2.21.29s.19.17.28.23c.01.01.03.02.05.03.08.05.19.09.29.12.02,0,.03,0,.05.01.1.02.21.04.31.04.09,0,.22-.02.31-.04.01,0,.02,0,.03,0,.17-.05.27-.11.4-.21.12-.09.13-.11.22-.22.04-.06.09-.1.12-.17.11-.22.15-.38.17-.63,0-.03,0-.06,0-.09,0-.11-.02-.22-.05-.32-.08-.27-.25-.5-.5-.65s-.57-.16-.84-.05c-.12.04-.22.1-.3.19-.12.12-.2.26-.24.41-.08.21-.03.51,0,.72.02.12.06.22.09.33.1.33.26.62.49.88.1.12.32.2.47.19s.28-.05.4-.14c.25-.19.35-.58.17-.86h0Z"/>
      </g>
      <g class="cls-4">
        <path class="cls-5" d="m16.1,36.27c.08.61.37,1.18.67,1.71s.67,1.01,1.08,1.45.85.82,1.33,1.18,1.08.72,1.7.7c.37-.01.48-.41.28-.67-.34-.43-.87-.7-1.32-1.02-.39-.28-.78-.63-1.13-1s-.65-.76-.95-1.18c-.31-.45-.52-.95-.83-1.4-.11-.16-.3-.26-.5-.21-.17.05-.35.24-.33.43h0Z"/>
      </g>
      <g class="cls-4">
        <path class="cls-5" d="m48.69,36.7l1.94,2.45c.31.39.65.77.98,1.15.17.2.34.39.52.57.22.22.43.36.71.49.34.16.81-.11.68-.52-.08-.27-.16-.5-.33-.72s-.35-.45-.53-.67c-.35-.4-.69-.82-1.05-1.2-.72-.76-1.44-1.53-2.16-2.29-.19-.21-.55-.2-.74,0-.22.22-.18.52,0,.74h0Z"/>
      </g>
    </g>
  </g>
</svg>