<?xml version="1.0" encoding="UTF-8" standalone="no"?>
<svg
   id="Calque_2"
   data-name="Calque 2"
   viewBox="0 0 25.740002 22.999999"
   version="1.1"
   sodipodi:docname="eye.svg"
   width="25.74"
   height="23"
   inkscape:version="1.4.2 (2aeb623e1d, 2025-05-12)"
   xmlns:inkscape="http://www.inkscape.org/namespaces/inkscape"
   xmlns:sodipodi="http://sodipodi.sourceforge.net/DTD/sodipodi-0.dtd"
   xmlns="http://www.w3.org/2000/svg"
   xmlns:svg="http://www.w3.org/2000/svg">
  <sodipodi:namedview
     id="namedview15"
     pagecolor="#ffffff"
     bordercolor="#000000"
     borderopacity="0.25"
     inkscape:showpageshadow="2"
     inkscape:pageopacity="0.0"
     inkscape:pagecheckerboard="0"
     inkscape:deskcolor="#d1d1d1"
     inkscape:zoom="8.0218659"
     inkscape:cx="35.839542"
     inkscape:cy="24.869526"
     inkscape:window-width="1600"
     inkscape:window-height="836"
     inkscape:window-x="0"
     inkscape:window-y="27"
     inkscape:window-maximized="1"
     inkscape:current-layer="g15">
    <sodipodi:guide
       position="0,22.000003"
       orientation="0,71.739998"
       id="guide15"
       inkscape:locked="false" />
    <sodipodi:guide
       position="71.739998,22.000003"
       orientation="78.660004,0"
       id="guide16"
       inkscape:locked="false" />
    <sodipodi:guide
       position="71.740001,-56.660005"
       orientation="0,-71.739998"
       id="guide17"
       inkscape:locked="false" />
    <sodipodi:guide
       position="0,-56.660005"
       orientation="-78.660004,0"
       id="guide18"
       inkscape:locked="false" />
    <sodipodi:guide
       position="0,22.000003"
       orientation="0,71.739998"
       id="guide19"
       inkscape:locked="false" />
    <sodipodi:guide
       position="71.739998,22.000003"
       orientation="78.660004,0"
       id="guide20"
       inkscape:locked="false" />
    <sodipodi:guide
       position="71.740001,-56.660005"
       orientation="0,-71.739998"
       id="guide21"
       inkscape:locked="false" />
    <sodipodi:guide
       position="0,-56.660005"
       orientation="-78.660004,0"
       id="guide22"
       inkscape:locked="false" />
  </sodipodi:namedview>
  <defs
     id="defs1">
    <style
       id="style1">
      .cls-1 {
        fill: #ffce62;
      }

      .cls-1, .cls-2, .cls-3 {
        stroke-linecap: round;
        stroke-linejoin: round;
        stroke-width: 2.51px;
      }

      .cls-1, .cls-3 {
        stroke: #733d00;
      }

      .cls-4 {
        opacity: .5;
      }

      .cls-5 {
        fill: #fdf4f6;
      }

      .cls-5, .cls-6, .cls-7, .cls-8, .cls-9, .cls-10 {
        stroke-width: 0px;
      }

      .cls-6, .cls-3 {
        fill: none;
      }

      .cls-11 {
        opacity: .34;
      }

      .cls-7 {
        fill: #231f20;
      }

      .cls-12 {
        clip-path: url(#clippath);
      }

      .cls-2 {
        fill: #fc3352;
        stroke: #6d002a;
      }

      .cls-8 {
        fill: #eafdf1;
      }

      .cls-9 {
        fill: #82263e;
      }

      .cls-10 {
        fill: #f7f1eb;
      }
    </style>
    <clipPath
       id="clippath">
      <ellipse
         class="cls-6"
         cx="35.869999"
         cy="38.779999"
         rx="34.619999"
         ry="37.529999"
         id="ellipse1" />
    </clipPath>
  </defs>
  <g
     id="Layer_1"
     data-name="Layer 1">
    <g
       id="g15">
      <path
         class="cls-2"
         d="m 13.624372,10.300078 c 0,0 -4.8499999,-11.19999987 -9.2299999,-7.7699999 -6.06,4.74 -1.66,9.9899999 7.6499999,18.2899999 0,0 14.3,-6.33 11.64,-14.9799999 -2.66,-8.64 -11.32,-2.6 -10.06,4.4599999 z"
         id="path3" />
      <g
         class="cls-4"
         id="g12"
         style="display:inline"
         transform="translate(-40.015628,-23.809922)">
        <path
           class="cls-5"
           d="M 47.42,32.24 C 47.37,32.17 47.33,32.09 47.3,32.01 l 0.07,0.16 c -0.05,-0.13 -0.09,-0.26 -0.11,-0.4 l 0.03,0.19 c 0,-0.09 0,-0.17 0.01,-0.26 l -0.03,0.2 c 0.02,-0.12 0.05,-0.23 0.09,-0.35 l -1.6,-0.22 c 0.01,0.15 0.03,0.25 0.08,0.38 0.05,0.12 0.11,0.21 0.2,0.31 l -0.15,-0.19 c 0,0 0.01,0.02 0.02,0.03 l -0.1,-0.23 c 0,0 0,0.02 0,0.04 l -0.03,-0.25 c 0,0 0,0.04 0,0.06 l 0.03,-0.26 c 0,0 -0.02,0.07 -0.03,0.11 l 0.1,-0.23 c 0,0 -0.03,0.07 -0.06,0.1 L 45.98,31 c 0,0 -0.04,0.04 -0.06,0.06 l 0.2,-0.16 c 0,0 -0.04,0.03 -0.06,0.04 l 0.24,-0.1 c 0,0 -0.03,0 -0.04,0.01 l 0.27,-0.04 c 0,0 -0.03,0 -0.05,0 l 0.28,0.04 c 0,0 -0.03,0 -0.05,-0.01 l 0.25,0.11 c 0,0 -0.08,-0.05 -0.12,-0.07 l 0.21,0.17 c 0,0 -0.04,-0.04 -0.06,-0.06 l 0.17,0.21 c 0,0 -0.04,-0.06 -0.05,-0.09 l 0.11,0.25 C 47.2,31.31 47.18,31.25 47.18,31.2 l 0.04,0.28 c 0,-0.07 0,-0.15 0,-0.22 l -0.04,0.29 c 0.01,-0.09 0.03,-0.17 0.07,-0.25 l -0.11,0.26 c 0,0 0.01,-0.02 0.02,-0.04 l -1.71,0.22 c 0.05,0.06 0.11,0.11 0.15,0.17 l -0.17,-0.22 c 0.1,0.13 0.18,0.27 0.25,0.42 l -0.11,-0.27 c 0.03,0.06 0.06,0.13 0.07,0.19 l -0.04,-0.3 c 0,0 0,0.1 0,0.15 0,0.15 0.03,0.29 0.07,0.42 0.03,0.1 0.08,0.22 0.13,0.32 0.06,0.11 0.13,0.18 0.21,0.27 0.03,0.03 0.05,0.06 0.08,0.09 l -0.16,-0.21 v 0.02 c 0.11,0.16 0.23,0.28 0.38,0.37 0.16,0.09 0.34,0.14 0.52,0.14 0.38,0 0.69,-0.2 0.89,-0.51 0.02,-0.04 0.05,-0.08 0.07,-0.12 0.05,-0.1 0.12,-0.25 0.14,-0.32 l 0.04,-0.31 c 0,0 0,-0.03 0,-0.05 -0.02,-0.25 -0.05,-0.48 -0.18,-0.69 -0.08,-0.12 -0.18,-0.24 -0.26,-0.35 l 0.18,0.23 v -0.02 c 0.03,0.09 0.06,0.18 0.1,0.27 -0.09,-0.23 -0.18,-0.46 -0.33,-0.66 -0.15,-0.2 -0.29,-0.4 -0.47,-0.56 -0.14,-0.13 -0.3,-0.23 -0.48,-0.28 -0.19,-0.05 -0.39,-0.05 -0.58,0 -0.18,0.05 -0.34,0.15 -0.48,0.28 -0.13,0.14 -0.23,0.3 -0.28,0.48 -0.05,0.12 -0.06,0.25 -0.08,0.38 -0.02,0.13 -0.03,0.25 -0.02,0.39 0.03,0.28 0.07,0.47 0.2,0.73 0.06,0.11 0.14,0.2 0.21,0.29 0.07,0.09 0.19,0.17 0.28,0.23 0.01,0.01 0.03,0.02 0.05,0.03 0.08,0.05 0.19,0.09 0.29,0.12 0.02,0 0.03,0 0.05,0.01 0.1,0.02 0.21,0.04 0.31,0.04 0.09,0 0.22,-0.02 0.31,-0.04 0.01,0 0.02,0 0.03,0 0.17,-0.05 0.27,-0.11 0.4,-0.21 0.12,-0.09 0.13,-0.11 0.22,-0.22 0.04,-0.06 0.09,-0.1 0.12,-0.17 0.11,-0.22 0.15,-0.38 0.17,-0.63 0,-0.03 0,-0.06 0,-0.09 0,-0.11 -0.02,-0.22 -0.05,-0.32 -0.08,-0.27 -0.25,-0.5 -0.5,-0.65 -0.25,-0.15 -0.57,-0.16 -0.84,-0.05 -0.12,0.04 -0.22,0.1 -0.3,0.19 -0.12,0.12 -0.2,0.26 -0.24,0.41 -0.08,0.21 -0.03,0.51 0,0.72 0.02,0.12 0.06,0.22 0.09,0.33 0.1,0.33 0.26,0.62 0.49,0.88 0.1,0.12 0.32,0.2 0.47,0.19 0.15,-0.01 0.28,-0.05 0.4,-0.14 0.25,-0.19 0.35,-0.58 0.17,-0.86 v 0 z"
           id="path12" />
      </g>
      <g
         class="cls-4"
         id="g14"
         style="display:inline"
         transform="translate(-40.015628,-23.809922)">
        <path
           class="cls-5"
           d="m 48.69,36.7 1.94,2.45 c 0.31,0.39 0.65,0.77 0.98,1.15 0.17,0.2 0.34,0.39 0.52,0.57 0.22,0.22 0.43,0.36 0.71,0.49 0.34,0.16 0.81,-0.11 0.68,-0.52 -0.08,-0.27 -0.16,-0.5 -0.33,-0.72 -0.17,-0.22 -0.35,-0.45 -0.53,-0.67 -0.35,-0.4 -0.69,-0.82 -1.05,-1.2 -0.72,-0.76 -1.44,-1.53 -2.16,-2.29 -0.19,-0.21 -0.55,-0.2 -0.74,0 -0.22,0.22 -0.18,0.52 0,0.74 v 0 z"
           id="path14" />
      </g>
    </g>
  </g>
</svg>
