<?xml version="1.0" encoding="UTF-8" standalone="no"?>
<svg
   id="Calque_2"
   data-name="Calque 2"
   viewBox="0 0 16 17"
   version="1.1"
   sodipodi:docname="mouth.svg"
   width="16"
   height="17"
   inkscape:version="1.4.2 (2aeb623e1d, 2025-05-12)"
   xmlns:inkscape="http://www.inkscape.org/namespaces/inkscape"
   xmlns:sodipodi="http://sodipodi.sourceforge.net/DTD/sodipodi-0.dtd"
   xmlns="http://www.w3.org/2000/svg"
   xmlns:svg="http://www.w3.org/2000/svg">
  <sodipodi:namedview
     id="namedview12"
     pagecolor="#ffffff"
     bordercolor="#000000"
     borderopacity="0.25"
     inkscape:showpageshadow="2"
     inkscape:pageopacity="0.0"
     inkscape:pagecheckerboard="0"
     inkscape:deskcolor="#d1d1d1"
     inkscape:zoom="8.1356372"
     inkscape:cx="35.891473"
     inkscape:cy="38.779999"
     inkscape:window-width="1600"
     inkscape:window-height="836"
     inkscape:window-x="0"
     inkscape:window-y="27"
     inkscape:window-maximized="1"
     inkscape:current-layer="Calque_2" />
  <defs
     id="defs1">
    <style
       id="style1">
      .cls-1 {
        fill: #ffce62;
      }

      .cls-1, .cls-2, .cls-3, .cls-4 {
        stroke-width: 2.51px;
      }

      .cls-1, .cls-3, .cls-4 {
        stroke-linecap: round;
        stroke-linejoin: round;
      }

      .cls-1, .cls-4 {
        stroke: #733d00;
      }

      .cls-5 {
        fill: #81273e;
      }

      .cls-5, .cls-6, .cls-7, .cls-8, .cls-9, .cls-10 {
        stroke-width: 0px;
      }

      .cls-11 {
        opacity: .5;
      }

      .cls-6, .cls-4 {
        fill: none;
      }

      .cls-12 {
        opacity: .34;
      }

      .cls-2 {
        fill: #fff;
        stroke: #2f2629;
        stroke-miterlimit: 10;
      }

      .cls-7 {
        fill: #231f20;
      }

      .cls-13 {
        clip-path: url(#clippath);
      }

      .cls-3 {
        fill: #fc3352;
        stroke: #6d002a;
      }

      .cls-8 {
        fill: #eafdf1;
      }

      .cls-9 {
        fill: #82263e;
      }

      .cls-10 {
        fill: #f7f1eb;
      }
    </style>
    <clipPath
       id="clippath">
      <ellipse
         class="cls-6"
         cx="35.869999"
         cy="38.779999"
         rx="34.619999"
         ry="37.529999"
         id="ellipse1" />
    </clipPath>
  </defs>
  <path
     class="cls-3"
     d="m 6.5431517,15.108215 c 0,0 -6.64999997,-2.66 -4.32,-7.9800005 2.33,-5.32 6.1,-5.91 7.04,-5.28 0.9400003,0.63 5.7300003,6.53 4.6000003,9.2700005 -2.16,5.22 -7.3200003,3.99 -7.3200003,3.99 z"
     id="path6"
     style="fill:#fc3352;stroke:#6d002a;stroke-width:2.51px;stroke-linecap:round;stroke-linejoin:round" />
  <g
     class="cls-11"
     id="g11"
     style="opacity:0.5"
     transform="translate(-29.336848,-51.241785)">
    <path
       class="cls-5"
       d="m 38.03,62.35 c -0.24,0.16 -0.56,0.28 -0.84,0.18 -0.1,-0.03 -0.2,-0.12 -0.33,-0.2 0.09,0.05 -0.1,-0.08 0,0.01 -0.1,-0.1 -0.2,-0.23 -0.29,-0.33 l -0.37,1.4 c 0.08,-0.02 0.08,-0.02 0,0 0.06,0 0.13,-0.01 0.19,-0.01 0.05,0 0.11,0.01 0.15,0 0.1,-0.01 -0.15,-0.04 0.02,0 0.11,0.03 0.23,0.05 0.34,0.08 0.05,0.02 0.1,0.04 0.15,0.05 0.12,0.04 -0.19,-0.11 0.01,0.01 0.09,0.05 0.18,0.11 0.26,0.16 -0.18,-0.11 -0.05,-0.04 0,0 0.04,0.04 0.07,0.07 0.11,0.11 0.09,0.09 0.08,0.1 0,0 0.03,0.04 0.06,0.08 0.09,0.13 0.03,0.05 0.06,0.12 0.09,0.17 0.08,0.11 -0.09,-0.24 -0.01,-0.01 l 0.51,-1.25 c 0.22,-0.1 -0.04,0 -0.13,0.03 -0.07,0.02 -0.14,0.04 -0.21,0.05 -0.03,0 -0.22,0.04 -0.06,0.02 0.16,-0.02 -0.03,0 -0.06,0 -0.06,0 -0.11,0 -0.17,0 -0.06,0 -0.11,0 -0.17,0 -0.15,0 0.28,0.06 0.02,0 -0.11,-0.02 -0.22,-0.05 -0.33,-0.08 -0.03,0 -0.14,-0.07 -0.16,-0.06 0.04,-0.02 0.21,0.11 0.05,0.02 -0.11,-0.06 -0.22,-0.14 -0.33,-0.2 -0.14,-0.07 0.15,0.14 0.04,0.04 -0.05,-0.05 -0.11,-0.1 -0.16,-0.14 v 1.72 c 0.18,-0.16 -0.22,0.13 -0.02,0.02 0.06,-0.03 0.12,-0.07 0.18,-0.1 0.2,-0.12 -0.25,0.07 -0.03,0.02 0.07,-0.02 0.13,-0.04 0.2,-0.06 0.24,-0.05 0.04,0.04 -0.05,0 0.05,0.02 0.15,0 0.21,0 0.06,0 0.15,0.02 0.21,0.01 -0.21,-0.03 -0.25,-0.04 -0.12,-0.01 0.04,0 0.07,0.01 0.1,0.02 0.07,0.02 0.14,0.04 0.21,0.06 0.26,0.07 -0.12,-0.08 -0.03,-0.02 0.06,0.04 0.13,0.06 0.19,0.1 0.05,0.03 0.23,0.18 0.08,0.04 -0.15,-0.14 0.03,0.03 0.06,0.06 0.04,0.04 0.17,0.23 0.07,0.05 -0.11,-0.19 0.02,0.04 0.04,0.07 0.04,0.07 0.08,0.15 0.11,0.22 l 0.45,-1.71 c -0.06,0.04 -0.12,0.07 -0.18,0.11 -0.2,0.13 0.26,-0.07 0.05,-0.02 -0.05,0.01 -0.16,0.03 -0.2,0.05 0.18,-0.09 0.26,-0.02 0.06,-0.02 -0.07,0 -0.14,0 -0.21,0 -0.24,0 0.3,0.07 0.06,0 -0.07,-0.02 -0.13,-0.03 -0.2,-0.05 -0.18,-0.06 -0.11,-0.11 0.04,0.03 -0.06,-0.06 -0.28,-0.19 -0.36,-0.21 0.11,0.03 0.21,0.18 0.05,0.02 -0.04,-0.04 -0.09,-0.12 -0.14,-0.15 0.09,0.05 0.17,0.24 0.04,0.04 -0.03,-0.05 -0.05,-0.1 -0.08,-0.15 -0.05,-0.09 0.08,0.31 0.03,0.05 -0.01,-0.08 -0.04,-0.16 -0.05,-0.24 l -0.9,1.58 c 0.09,-0.02 0.17,-0.04 0.26,-0.06 0.04,0 0.09,-0.02 0.13,-0.02 0.1,-0.02 0.06,-0.01 -0.12,0.02 0.02,-0.04 0.43,-0.02 0.49,-0.02 0.09,0 0.18,0 0.27,0.01 0.21,0.02 0.08,0.03 -0.04,-0.01 0.16,0.06 0.35,0.07 0.52,0.11 0.09,0.02 0.17,0.05 0.25,0.08 0.05,0.02 0.27,0.13 0.09,0.03 -0.18,-0.1 0.05,0.03 0.09,0.05 0.08,0.04 0.16,0.08 0.23,0.13 0.07,0.05 0.15,0.09 0.22,0.14 0.04,0.02 0.07,0.05 0.11,0.08 0.08,0.06 0.05,0.03 -0.09,-0.07 0.1,0 0.32,0.29 0.39,0.37 l 0.26,-2.04 c 0,0 -0.16,0.1 -0.18,0.09 0,0 0.23,-0.08 0.08,-0.03 -0.11,0.04 -0.22,0.08 -0.33,0.11 -0.1,0.03 -0.19,0.05 -0.29,0.07 -0.02,0 -0.2,0.04 -0.2,0.03 0,-0.02 0.28,-0.02 0.05,-0.01 -0.04,0 -0.7,0 -0.7,0 0,0 0.25,0.05 0.1,0.01 -0.05,-0.01 -0.1,-0.02 -0.15,-0.03 -0.13,-0.03 -0.26,-0.06 -0.39,-0.1 -0.03,0 -0.18,-0.07 -0.19,-0.07 0.01,-0.01 0.23,0.12 0.11,0.04 0,0 -0.11,-0.07 -0.12,-0.06 0.03,-0.02 0.22,0.23 0.06,0.04 0.13,0.15 0.19,0.3 0.2,0.5 0,-0.21 -0.02,0.1 -0.03,0.12 0.04,-0.19 -0.02,0.09 -0.05,0.09 0,0 0.09,-0.15 0.08,-0.14 0,0 -0.17,0.21 -0.07,0.11 0.1,-0.1 -0.11,0.09 -0.11,0.08 0,0 0.15,-0.1 0.16,-0.09 0.01,0.03 -0.24,0.06 -0.08,0.05 0.05,0 0.1,-0.03 0.15,-0.04 0.28,-0.07 -0.05,0.02 -0.05,0 0,0 0.19,-0.01 0.2,-0.01 0.21,0 0.41,0 0.62,0 0.23,0.01 -0.28,-0.06 -0.06,0 0.1,0.02 0.2,0.04 0.29,0.07 0.06,0.02 0.33,0.12 0.12,0.04 -0.21,-0.08 0.05,0.04 0.09,0.06 0.18,0.09 -0.19,-0.19 -0.06,-0.05 0.21,0.23 -0.11,-0.18 -0.03,-0.03 0,0 -0.12,-0.34 -0.08,-0.16 -0.03,-0.13 -0.03,-0.23 -0.02,-0.35 0.02,-0.22 0.02,-0.11 0,-0.05 0,-0.02 0.16,-0.3 0.05,-0.12 -0.01,0.02 0.19,-0.24 0.1,-0.14 -0.09,0.1 0.14,-0.11 0.13,-0.1 -0.17,0.11 0.09,-0.05 0.12,-0.04 -0.03,0 -0.11,0.04 -0.14,0.04 -0.03,0 -0.13,0.02 -0.15,0.03 0,0 0.29,-0.02 0.16,-0.02 -0.09,0 -0.18,0.01 -0.27,0.01 -0.25,0 -0.49,-0.02 -0.74,-0.04 -0.15,-0.01 -0.29,-0.03 -0.44,-0.04 -0.08,0 -0.23,0.01 0.02,0 -0.07,0 -0.15,-0.02 -0.22,-0.03 -0.29,-0.05 -0.58,-0.11 -0.87,-0.18 -0.58,-0.14 -1.14,-0.32 -1.69,-0.54 l 0.59,2.24 c 0,0 0.1,-0.09 0.15,-0.14 0.03,-0.03 0.19,-0.15 0.02,-0.02 -0.18,0.13 0.02,-0.01 0.06,-0.04 0.04,-0.03 0.09,-0.06 0.14,-0.09 0.11,-0.07 0.23,-0.14 0.35,-0.2 0.05,-0.02 0.1,-0.05 0.15,-0.07 0.22,-0.1 -0.21,0.08 -0.06,0.03 0.23,-0.08 0.46,-0.15 0.7,-0.2 0.05,-0.01 0.15,0 0.2,-0.04 -0.04,0.02 -0.31,0.03 -0.11,0.02 0.14,-0.01 0.27,-0.02 0.41,-0.03 0.12,0 0.25,0 0.37,0 0.05,0 0.11,0 0.16,0.01 0.22,0.02 0.03,0.01 -0.07,-0.01 0.24,0.06 0.48,0.09 0.71,0.17 0.06,0.02 0.13,0.04 0.19,0.07 0.1,0.04 0.22,0.14 -0.06,-0.03 0.1,0.06 0.22,0.11 0.33,0.16 0.11,0.05 0.21,0.12 0.31,0.19 0.04,0.03 0.09,0.07 0.13,0.09 -0.29,-0.17 -0.1,-0.07 -0.02,0 V 62.2 c -0.09,0.09 -0.19,0.17 -0.29,0.26 -0.2,0.18 0.21,-0.13 -0.04,0.03 -0.19,0.12 -0.38,0.24 -0.58,0.35 l -0.09,0.04 c -0.13,0.06 -0.12,0.06 0.05,-0.02 -0.04,0 -0.24,0.09 -0.27,0.1 -0.22,0.07 -0.43,0.12 -0.66,0.17 -0.31,0.07 0.27,0 -0.02,0 -0.1,0 -0.2,0.01 -0.3,0.01 -0.04,0 -0.09,0 -0.13,0 -0.15,-0.01 -0.11,0 0.1,0.02 -0.03,-0.02 -0.21,-0.06 -0.24,-0.06 0.19,0.09 0.22,0.1 0.1,0.04 -0.09,-0.06 -0.09,-0.05 0,0.01 0.09,0.07 0.09,0.07 0.01,0 -0.1,-0.11 -0.08,-0.08 0.07,0.09 -0.13,-0.21 0.1,0.3 0.03,0.07 -0.07,-0.23 0,0.36 0.01,0.06 0,-0.1 -0.06,0.38 0,0.06 0.04,-0.22 -0.16,0.27 -0.03,0.06 0.03,-0.05 0.1,-0.13 0.11,-0.18 -0.14,0.17 -0.16,0.2 -0.07,0.1 0.03,-0.04 0.07,-0.07 0.1,-0.11 l 0.05,-0.05 c 0.11,-0.09 0.07,-0.07 -0.1,0.07 0.05,0 0.14,-0.08 0.19,-0.11 0.2,-0.12 -0.32,0.12 0.02,0 0.23,-0.08 -0.35,-0.01 -0.04,0 0.06,0 0.23,-0.03 0.29,0.01 -0.2,-0.03 -0.22,-0.03 -0.07,0 0.06,0.01 0.12,0.03 0.19,0.05 l 0.09,0.03 c 0.14,0.05 0.12,0.04 -0.05,-0.03 0.01,0.03 0.24,0.11 0.27,0.13 0.21,0.11 0.4,0.23 0.6,0.37 0.08,0.06 0.16,0.12 0.25,0.18 0.05,0.04 0.41,0.31 0.13,0.09 l -0.34,-1.3 c 0,0 0.13,-0.3 0.05,-0.14 -0.08,0.16 0.06,-0.1 0.09,-0.11 -0.03,0.02 -0.21,0.17 0,0.03 0.19,-0.13 0.05,-0.03 0,0 -0.04,0.02 -0.08,0.04 -0.11,0.06 -0.1,0.07 0.26,-0.07 0.14,-0.06 -0.04,0 -0.09,0.02 -0.13,0.04 -0.14,0.04 -0.17,-0.04 0.13,0 -0.07,0 -0.2,-0.01 -0.26,0 0.03,0 0.33,0.07 0.16,0.02 -0.04,-0.01 -0.08,-0.02 -0.13,-0.03 -0.05,-0.01 -0.08,-0.03 -0.12,-0.05 -0.21,-0.07 0.21,0.13 0.11,0.05 -0.03,-0.02 -0.08,-0.05 -0.11,-0.06 -0.11,-0.04 0.24,0.21 0.08,0.05 -0.45,-0.44 -1.15,-0.48 -1.64,-0.1 -0.49,0.38 -0.64,1.07 -0.32,1.62 0.51,0.89 1.49,1.27 2.48,1.13 0.41,-0.05 0.82,-0.18 1.16,-0.42 0.49,-0.35 0.77,-0.75 1,-1.3 0.16,-0.38 -0.01,-1.04 -0.34,-1.3 -0.84,-0.65 -1.74,-1.36 -2.83,-1.54 -1.09,-0.18 -2.19,0.09 -2.93,0.97 -0.74,0.88 -1.01,2.19 -0.25,3.17 0.76,0.98 2.04,1.13 3.22,0.93 1.18,-0.2 2.26,-0.81 3.1,-1.62 0.49,-0.48 0.54,-1.42 0,-1.89 -2.22,-1.93 -5.69,-1.92 -7.85,0.13 -0.34,0.33 -0.47,0.85 -0.34,1.3 0.13,0.49 0.49,0.76 0.93,0.93 1.42,0.56 2.95,0.85 4.46,0.9 0.77,0.02 1.53,-0.12 2.13,-0.63 0.7,-0.59 0.86,-1.6 0.46,-2.4 -0.6,-1.23 -2.28,-1.54 -3.5,-1.43 -0.93,0.08 -1.8,0.43 -2.3,1.26 -0.5,0.83 -0.39,1.92 0.32,2.6 0.67,0.64 1.77,0.86 2.66,0.88 0.89,0.02 1.78,-0.22 2.58,-0.63 0.8,-0.41 0.81,-1.46 0.26,-2.04 -1.34,-1.41 -3.45,-1.99 -5.32,-1.47 -0.72,0.2 -1.01,0.89 -0.9,1.58 0.32,2.07 3.12,3.21 4.82,2.03 0.59,-0.41 0.76,-1.06 0.45,-1.71 -0.41,-0.89 -1.35,-1.53 -2.3,-1.72 -1.09,-0.21 -2.17,0.03 -3,0.79 -0.48,0.43 -0.46,1.29 0,1.72 1.19,1.12 3.1,1.41 4.5,0.52 0.53,-0.33 0.67,-0.96 0.4,-1.51 -0.37,-0.73 -1.04,-1.25 -1.8,-1.53 -0.76,-0.28 -1.56,-0.19 -2.27,0.17 -0.61,0.31 -0.47,1.11 0,1.45 0.52,0.38 1.11,0.38 1.64,0.25 0.49,-0.12 0.93,-0.28 1.28,-0.67 0.26,-0.29 -0.08,-0.8 -0.44,-0.57 v 0 z"
       id="path11"
       style="fill:#81273e;stroke-width:0px" />
  </g>
  <g
     id="Layer_1"
     data-name="Layer 1" />
</svg>
