<?xml version="1.0" encoding="UTF-8"?>
<svg id="Calque_2" data-name="Calque 2" xmlns="http://www.w3.org/2000/svg" xmlns:xlink="http://www.w3.org/1999/xlink" viewBox="0 0 109.03 92.73">
  <defs>
    <style>
      .cls-1 {
        fill: #ffce62;
      }

      .cls-1, .cls-2, .cls-3, .cls-4, .cls-5 {
        stroke-linecap: round;
        stroke-linejoin: round;
        stroke-width: 2.51px;
      }

      .cls-1, .cls-5 {
        stroke: #733d00;
      }

      .cls-6 {
        fill: #e19100;
      }

      .cls-6, .cls-7, .cls-8, .cls-9, .cls-10, .cls-11, .cls-12, .cls-13, .cls-14 {
        stroke-width: 0px;
      }

      .cls-2, .cls-8, .cls-3, .cls-5 {
        fill: none;
      }

      .cls-2, .cls-4 {
        stroke: #053d58;
      }

      .cls-7 {
        fill: #f0f;
      }

      .cls-15 {
        opacity: .3;
      }

      .cls-3 {
        stroke: #641233;
      }

      .cls-9 {
        fill: #57d653;
      }

      .cls-4 {
        fill: #e6f4fd;
      }

      .cls-16 {
        clip-path: url(#clippath);
      }

      .cls-10 {
        fill: #eafdf1;
      }

      .cls-11 {
        fill: #82263e;
      }

      .cls-12 {
        fill: #ad949d;
      }

      .cls-13 {
        fill: #733d00;
      }

      .cls-14 {
        fill: #00e7ff;
      }
    </style>
    <clipPath id="clippath">
      <path class="cls-8" d="m107.6,61.55l-1.94-10.86-34.16,4.73v-.68l31.54-4.8-1.94-10.86-4.34.6c-.13-.2-.42-.4-.91-.6-7.86-3.34,0-23.59,0-23.59,0,0-14.26-.11-24.36.48v-1.14l30.16.49,1.94-10.86L62.08,1.39H2.85l-1.6,11.58,53.18,1.48v1.42c-16.91-.59-45.05-1-49.61,2.63-6.59,5.24.5,25.68.5,25.68,0,0,4.58.17,11.25.34H1.81l1.6,11.58h51.02v.03H6.37l1.6,11.58-5.28.23s8.44,18.33,0,21.53c-6.68,2.53,40.3,1.05,60.12.33-.56,3.79,41.31-3.51,41.31-3.51,0,0,7.39-18.09.66-24.29l2.83-.43Z"/>
    </clipPath>
  </defs>
  <g id="Layer_1" data-name="Layer 1">
    <g>
      <path class="cls-1" d="m2.85,67.79s8.44,18.33,0,21.53c-8.44,3.2,68.65,0,68.65,0l-.8-24.43-67.85,2.9Z"/>
      <path class="cls-1" d="m67.05,65.02s2.91,18.28-3.49,23.81c-6.4,5.53,40.73-2.7,40.73-2.7,0,0,7.85-19.22,0-24.83-5.46-3.9-21.31-.59-30.47,1.8-4.03,1.05-6.76,1.92-6.76,1.92Z"/>
      <polygon class="cls-1" points="8.14 67.56 6.54 55.98 66.66 55.98 105.83 50.55 107.77 61.41 67.36 67.56 8.14 67.56"/>
      <polygon class="cls-4" points="3.58 55.96 1.98 44.38 62.11 44.38 101.28 38.94 103.22 49.81 62.81 55.96 3.58 55.96"/>
      <polygon class="cls-4" points="3.02 1.25 1.42 12.83 63.24 14.56 101.84 15.19 103.78 4.33 62.25 1.25 3.02 1.25"/>
      <path class="cls-1" d="m61.91,17.41c1.42-2.32,34.13-2.06,34.13-2.06,0,0-7.86,20.25,0,23.59,7.86,3.34-33.93,5.43-33.93,5.43l-.2-26.96Z"/>
      <path class="cls-1" d="m67.43,16.3s-5.28,21.36.34,25.79c5.61,4.43-62.29,1.96-62.29,1.96,0,0-7.09-20.44-.5-25.68s62.45-2.06,62.45-2.06Z"/>
      <g>
        <path class="cls-9" d="m103.99,63.74c.52,1.01.91,2.06,1.16,3.16.13.49.9.29.77-.21-.15-.59-.3-1.19-.46-1.78-.15-.61-1.08-.35-.94.26.38,1.25.51,2.51.4,3.79l1.33-.18c-.24-1.06-.47-2.12-.71-3.19-.22-.97-1.55-.66-1.63.22l.59-.9h-1.98c-.03,1.73-.04,3.46-.03,5.19l2.71-.37-.05-1.98-2.97-.4c.54,5.64-.16,11.13-.81,16.72-.21,1.84,2.73,2.16,3.19.43,1.45-5.48,2.4-11,2.42-16.67,0-2.28-3.55-2.28-3.54,0,.01,2.62.03,5.25.04,7.87,0,2.01,3,1.98,3.1,0,.13-2.62.27-5.25.4-7.87h-3.54c-.02,5.39-.54,10.61-2.01,15.81l3.19.43c.74-5.57,1.21-11.12.58-16.72-.17-1.54-2.62-2.23-2.97-.4-.26,1.32-.22,2.28.3,3.52s2.94,1.34,2.71-.37c-.24-1.82-.5-3.63-.78-5.45-.17-1.1-2.03-.85-1.95.26.16,2.15,3.07,3.56,3.06.9l-1.63.22c.34,1.03.67,2.07,1.01,3.1.22.69,1.38.62,1.33-.18-.1-1.45-.33-2.66-.81-4.05l-.94.26c.11.32.48,1.8.97.4.09-.27-1.07-2.01-1.1-2.06-.16-.26-.53-.03-.41.24h0Z"/>
        <path class="cls-9" d="m103.42,63.94s.02-.02.02-.03c.01-.03-.06.07-.02.03.03-.03-.04.03-.04.03.04-.02-.08.03-.05.02.05-.02-.06,0-.06,0,.02,0,.06,0-.02,0s-.03,0-.02,0c.04.01-.06-.02-.06-.03,0,0,.05.03.05.03,0,0-.08-.08-.04-.03,0,0,.02.01.02.02.02.02.06.08.01.01s0,0,.01.02c0,0,.03.06.03.06,0,0-.04-.12-.03-.06,0,.01,0,.02,0,.03,0,0,0,.02,0,.02.02.05,0-.1,0-.08,0,.02,0,.11,0,0,.01-.09,0-.05,0-.03,0,.02.05-.13.03-.08-.05.13-.04.08-.06.18,0,0,0,.06,0,.08,0,.01.03-.15.01-.09,0,.03.06-.12.03-.07-.02.03.04-.06.04-.06,0,0-.03.03-.03.03-.22.2-.09.54.17.63.35.12.73-.13.72-.51,0-.22-.12-.43-.28-.57-.15-.13-.34-.24-.55-.24-.25,0-.46.17-.51.42-.03.16.03.32.19.39.15.06.33,0,.41-.13h0Z"/>
        <path class="cls-9" d="m103.53,65.46c.3,0,.3-.47,0-.47s-.3.47,0,.47h0Z"/>
        <path class="cls-9" d="m103.72,64.22c0-.1.12-.14.02-.15l-.61-.81c-.04.38-.09.76-.16,1.14-.08.51-.07.91.07,1.41.26.94,1.75,1.01,1.97,0,.12-.54.12-.97,0-1.5-.09-.42-.18-.84-.24-1.27-.05-.33-.48-.64-.81-.61-1.02.09-1.75.93-1.54,1.97.16.75,1.27.54,1.29-.17h0Z"/>
        <path class="cls-7" d="m67.49,49.86l.62.37,1.79-1.38-.23.18-3.24-1.89-.43.61,3.29,2.51.05-1.74h-5.49l-.04.7,5.3,1.44-.03-1.49h-5.68l-.1,1.05,6.03.82.04-2.29h-6.2l.21,2.41c0,3.15,4.8,4.82,6.27,1.7l1.47-1.71h-3.71l.91.67-1.93-3.36.04,1.06,1.24-3-.81.73,3.24-1.34-1.09.02,3.43,8.28.14-.14-3.53-8.52c1.08-.25,1.19-.33.33-.25-.64,0-1.27.07-1.9.2-.93.22-1.89.67-2.64,1.23-1.72,1.27-1.88,2.82-2.55,4.67-1.13,3.13,2.59,4.97,5.04,3.88,9.5-4.21,20.08.22,29.41-4.44,4.95-2.47,1.25-9.19-3.52-8.36-3.51.61-6.89.77-10.44.66-6.31-.19-6.09,9.09,0,9.67,5.15.49,14.41.75,15.09-6.17l-1.14,1.99c1.7-1.01,3.01-2.2,4.04-3.9l-4.56-.6.5,2.29c.26,2.95,4.67,3.06,4.67,0l.18-2.5c.54-3.21-4.2-4.67-4.98-1.37-.42,1.78-.51,3.17.12,4.9,1.1,3.05,5.82,2.73,5.85-.79,0-.95.01-1.89.02-2.84h-6.05l-.15,2.25c-.69,3.7,4.58,5.26,5.71,1.57.5-1.63.57-2.12.49-3.83-.17-3.87-6.14-3.91-6.05,0,.02.95.05,1.89.07,2.84l5.85-.79c-.4-.84-.66-1.71-.78-2.63l-5.08.69.13,2.5h4.67c.13-1.69.08-1.98-.35-3.62-.63-2.39-4.17-2.36-4.82,0-.24.99-.84,1.61-1.8,1.85l2.79.36c-3.71-3.38-9.82-1.8-14.42-1.87v9.67c4.32-.21,8.62-.73,12.87-1.51l-3.52-8.36c-4.57,2.34-10.01,1.09-14.93,1.63s-9.19,2.39-13.34,4.78l5.04,3.88.22-.92-4.16,2.36c4.81,1,8.72,1.21,11.9-3.08,2.14-2.89-.71-7.92-4.31-7.51-2.91.34-4.99,1.01-7,3.26-3.65,4.07.92,10.27,5.87,7.61,3.69-1.98,4.92-7.43.8-9.87s-7.43,1.55-8.75,5.17l6.61.89c-.14-1.62-.27-2.56-.73-4.12-1.04-3.53-6.14-2.75-6.31.85-.14,1.06-.1,2.1.13,3.14.42,3.2,5.06,4.45,6.03.82.48-1.8.53-2.5-.14-4.25-1.19-3.09-5.54-2.64-5.79.78-.08,1.17.02,1.87.23,3.03.54,2.95,4.67,2.44,5.48,0,.4-1.2.47-1.63.33-2.89-.41-3.93-5.93-3.25-5.39.73l.23,1.7c.32,2.38,3.68,2.3,4.75.62.89-1.39.98-1.83.99-3.49.01-2.09-3.19-2.59-3.69-.5-.36,1.52-.19,2.04.88,3.19.46.5,1.42.66,2,.26l.56-.39c.93-.65.58-2.04-.57-2.12-.87-.06-.75-.07-1.6.26-.47.18-.6.97,0,1.09h0Z"/>
        <path class="cls-7" d="m97.58,43.07c-.02-.08,0,.11,0,0l-.8.33s.05.04.07.07l-.2-.26s.03.04.04.06l-.13-.32s.02.06.03.1l-.05-.37s0,.05,0,.07l.05-.37s-.01.04-.02.07l.15-.34s-.03.05-.05.08l.23-.3s-.05.05-.07.07l.31-.24s-.07.05-.11.06l.38-.16s-.1.03-.15.04c-.19.05-.34.15-.51.23l.39-.16s-.08.03-.12.03l.43-.06s-.05,0-.08,0l.43.06s-.05,0-.07-.02l.38.16h-.02c-.18-.13-.38-.19-.59-.2-.21-.05-.42-.04-.64.03-.37.1-.77.39-.95.73-.2.37-.29.82-.16,1.23l.16.38c.14.24.33.43.57.57.13.09.3.15.45.2.03.01.06.02.1.03.35.07.68.08,1.03-.02.46-.12.84-.42,1.09-.82.05-.09.08-.18.12-.27s.09-.19.11-.28c.12-.48.07-1.01-.19-1.44-.19-.3-.45-.52-.78-.66-.19-.08-.2-.09-.41-.11-.09-.01-.18-.03-.27-.02-.23,0-.44.06-.64.17-.19.11-.34.27-.46.46-.12.2-.17.41-.17.64,0,.23.06.44.17.64.11.15.2.29.36.39.31.21.72-.14.62-.48h0Z"/>
        <path class="cls-14" d="m9.8,3.21l-.18.53,3,3.94-.7.87c3.86-2.51.25-8.74-3.62-6.2-1.06.7-2.13,1.4-3.19,2.1l4.94,6.41.52-.49c1.46-1.38,1.38-3.34.65-5.03l-.29-.66c-1.01-2.34-5-2.79-6.57-.85-.83,1.02-1.46,1.83-1.65,3.16-.48,3.35,1.8,5.84,5.24,5.24,6.69-1.17,13.38-1.12,20.13-.52-.46-3.4-.92-6.8-1.38-10.2-3.81.88-7.42.97-11.3.53v10.79c12.45.46,24.49-.44,36.87-1.37l-1.29-9.52-9.77,1.81c-6.11,1.13-3.37,9.96,2.53,9.16,5.57-.76,10.73-2.15,16.19-3.29l-4.3-4.3c-.61,1.53-.66,2.05-.59,3.69l2.5-3.28c-1.75.29-3.52.63-5.29.81-3,.3-4.83,4.49-1.67,6.16,1.46.77,2.41,1.02,4.06,1.12,4.43.27,4.42-6.62,0-6.9-2.28-.14-4.54-.23-6.82-.23-3.95,0-5.15,6.57-.97,7.15,4.73.66,9.26-.84,14.01-.41,1.7.15,2.3-1.8,1.75-3.05-.58-1.48-.75-2.98-.53-4.51.17-2.46-3.74-2.48-3.85,0-.1,2.14.24,3.99.67,6.07l3.91-1.08c-2.03-7.1-8.93-3.26-14.03-4.04l-.97,7.15c2.29.03,4.54-.04,6.82-.16v-6.9l-1.52-.27v6.38c1.75-.3,3.54-.44,5.31-.62,1.86-.19,3.37-1.41,3.4-3.4l.17-1c1.06-2.25-.16-5.39-3.02-5.26-5.58.25-10.93.18-16.52.83.42,3.11.84,6.22,1.26,9.33,3.27-.54,6.54-1.08,9.82-1.63,5.38-.89,4.14-9.82-1.29-9.52-12.19.68-24.64.33-36.87.27-7.04-.04-6.83,10.23,0,10.79,4.79.4,9.42-.08,14.06-1.3,5.84-1.54,4.34-9.88-1.38-10.2-7.59-.43-15.09.63-22.39,2.69l5.39,4.11-.15.78H3.71l.35.62v-4.19l-.41.57c-2.7,3.76,3.32,8.36,6.41,4.94.87-.96,1.73-1.91,2.6-2.87L7.01,3.65c-.67,1.48-.97,2.48-.4,4.04,1.35,3.71,7.08,2.27,6.01-1.66-.36-1.33-.51-2.33-1.19-3.51-.52-.9-1.83-.28-1.63.69h0Z"/>
        <path class="cls-6" d="m7.02,22.98l1.49-2.07-1.5-.63c-.26,1.29-.51,2.57-.79,3.86l3.2.43c.09-1.34.18-2.68.26-4.03.15-2.4-3.25-2.58-3.98-.54-.57,1.61-.74,2.99-.7,4.71.08,2.93,4.65,2.94,4.57,0-.02-.8-.04-1.6-.07-2.41-.07-2.58-4.18-3.39-4.69-.63s-.77,5.43-.74,8.23c.04,3.53,5.2,3.46,5.44,0,.16-2.29-.07-4.45-.5-6.69-.63-3.26-5.39-2.29-5.54.75-.23,4.48.07,8.86.81,13.27.64,3.83,6.26,2.13,5.76-1.59-.21-1.53-.29-3-.3-4.54H3.81c.3,2.89.7,5.76,1.24,8.62.43,2.31,4.31,2.95,5.28.69.92-2.14,1.11-3.72-.18-5.76s-5.49-1.51-5.16,1.4c.22,1.9.48,3.76.84,5.64.42,2.2,4.16,1.74,3.96-.54-.11-1.26-.23-1.76-.85-2.87-.96-1.72-4.01-.55-3.26,1.38l.15.96,3.89,1.07c.35-1.88.6-3.74.81-5.64l-5.44.74.25.71,5.28.69c-.39-2.35-.67-4.71-.87-7.08-.31-3.76-5.88-3.87-5.93,0-.03,2.08.14,4.08.47,6.13l5.76-1.59c-.76-3.9-1.04-7.71-.92-11.68l-5.54.75c.38,1.74.5,3.41.51,5.19h5.44c-.25-2.56-.25-5.04,0-7.6h-4.78c.09.8.18,1.6.27,2.41h4.57c-.23-1.21-.22-2.42.04-3.63l-3.98-.54c.19,1.49.39,2.97.59,4.46.27,2.02,3.58,1.23,3.14-.87-.27-1.28-.52-2.57-.77-3.86-.15-.78-1.42-.78-1.58,0l-.5,2.48c-.07.32.33.48.52.22h0Z"/>
        <path class="cls-6" d="m71.93,60.85l1.53.86,1.12-2.66-.85-.39,1.38,3.39.3-1.48c.7-3.46-3.18-5.8-5.86-3.41-.62.46-1.14,1.01-1.57,1.65l6.26,4.83.77-1.73-7.61-2.06c.02.79.04,1.59.06,2.38.09,3.27,3.49,5.14,6.33,3.63,4.07-2.15,8.04-3.68,12.65-4.16-.38-2.82-.76-5.64-1.15-8.47-3.06.59-5.92,1.44-8.8,2.61-4.43,1.81-3.98,8.19,1.15,8.51,5.95.38,12.35-.02,17.7-2.87s-1.05-10.53-4.77-6.19c-1.65,1.93-5.68,1.47-7.85,1.36v6.08c5.78-.39,11.6-1.81,17.28-2.92,1.79-.35,3.27-2.77,2.56-4.51l-.13-.32c-.64-1.58-1.77-2.62-3.54-2.7h-.35c-1.48-.07-3.27,1.16-3.55,2.69l-.06.35c-.31,1.74.24,3.16,1.69,4.16,1.99,1.38,5.13.33,7.3-.03l-4.23-5.51-1.17,1.58c-2.38,3.23,2.09,6.57,5.07,5.07l1.72-.87-3.67-6.27c-1.96,1.26-3.81,1.85-6.07,2.28-4.45.84-3.49,8.32,1.08,7.96s9.1-2.93,10.05-7.74c.71-3.62-3.73-6.94-6.59-3.84-1.44,1.56-2.41,2.92-4.54,3.61l3.12,7.41c2.26-1.01,4.45-2.23,6.62-3.41,3.52-1.92,1.07-8.24-2.8-6.64l-1.78.74,3.6,6.19,1.24-1.53c2.36-2.92.18-7.02-3.65-6.27-1.38.27-2.75.51-4.13.72l2.84.37-.29-.19,1.69,4.16.05-.35-3.55,2.7h.35c-1.06-.6-2.11-1.21-3.17-1.81l.14.32,2.19-5.39c-5.36,1.2-10.97,2.16-16.14,4.02-3.75,1.35-2.21,6.4,1.62,5.86,2.27-.32,6.45-1.59,8.78-.74l1.05-7.74c-5.33.66-10.29,1.86-15.71,1.55l1.15,8.51c2.88-1.19,5.74-2.06,8.79-2.66,4.7-.93,3.71-9.01-1.15-8.47-6.03.67-11.73,2.25-16.9,5.52l6.33,3.63c-.1-.79-.21-1.59-.31-2.38-.57-4.4-6.49-5.75-8.02-1.09l-.59,1.8c-1.39,4.22,5.37,7.21,7.29,3.07.48-1.04.87-1.96,1.18-3.07l-6.41.84.62,1.36c1.11,2.44,4.85,1.6,5.49-.72l.34-.86c.51-1.01-.36-2.65-1.64-2.14l-1.7.42c-.8.07-.95,1.1-.19,1.38h0Z"/>
        <path class="cls-6" d="m102.14,58.63c.31.27.63.53.96.77.16.12.33.23.5.33l.21.12c.28.22.32.13.09-.29-.04.39.25.83.58,1.01.27.15.55.29.83.41.79.35,1.75.1,2-.81.24-.86-.43-1.7-1.31-1.72-.31,0-.62-.03-.93-.06-.4-.04-.82.25-1.01.58l-.02.04.56-.43c-.12.04-.72-.28-.83-.33-.33-.15-.64-.32-.95-.51-.54-.32-1.17.45-.68.89h0Z"/>
      </g>
      <g>
        <line class="cls-2" x1="62.25" y1="1.25" x2="63.24" y2="14.56"/>
        <line class="cls-5" x1="67.36" y1="67.56" x2="66.66" y2="55.98"/>
        <line class="cls-3" x1="62.11" y1="44.38" x2="62.81" y2="55.96"/>
        <path class="cls-12" d="m65.78,6.93c7.01,2.01,14.56,1.96,21.79,1.81.84-.02.79-1.17,0-1.27-7.14-.93-14.55-1.92-21.73-.95-.22.03-.3.34-.06.42h0Z"/>
        <path class="cls-12" d="m73.16,10.66c9.58.73,19.54,2.96,29.14,1.43.38-.06.38-.71,0-.77-9.56-1.53-19.5-.07-29.14-.81-.09,0-.09.13,0,.14h0Z"/>
        <path class="cls-13" d="m7.88,18.36c.58,4.19,1.76,8.26,1.94,12.51s-.61,8.33-1.19,12.56c-.16,1.15,1.34,1.61,1.77.49,2.87-7.65,2.47-18.8-2.01-25.77-.18-.28-.56-.09-.52.22h0Z"/>
        <path class="cls-13" d="m15.76,23.75c12.35.43,24.89,1.44,37.24.72.61-.04.6-.89,0-.94-12.32-1.06-24.88-.39-37.24-.29-.33,0-.33.51,0,.52h0Z"/>
        <path class="cls-13" d="m64.29,29.44c-6.52.05-13.19.69-19.72,1.08-.91.05-.9,1.34,0,1.41,6.43.49,13.6.28,19.87-1.34.64-.16.51-1.16-.16-1.15h0Z"/>
        <path class="cls-13" d="m19.08,37.41c8.87.15,17.72.13,26.6-.17.42-.01.42-.67,0-.66-8.86.22-17.73.43-26.6.54-.18,0-.18.28,0,.28h0Z"/>
        <path class="cls-13" d="m66.5,24.02c7.35.43,15.69-.97,22.96-2.17.55-.09.37-.89-.12-.92-7.2-.47-16.09-.17-22.94,2.31-.42.15-.36.76.11.78h0Z"/>
        <path class="cls-13" d="m67.4,35.27c4.12-.55,8.45-.47,12.5-1.32.41-.09.28-.66-.09-.69-4.05-.31-8.51.74-12.48,1.46-.31.06-.24.6.07.55h0Z"/>
        <path class="cls-13" d="m78.03,29.87c4.36-.23,8.8-.35,13-1.67.52-.16.44-.96-.13-.97-4.41-.04-8.68,1.12-12.93,2.17-.25.06-.21.48.06.46h0Z"/>
        <path class="cls-12" d="m9.11,49.4c14.55.53,29.34.38,43.89-.21.93-.04.94-1.46,0-1.46-14.57,0-29.36.45-43.89,1.57-.06,0-.06.09,0,.09h0Z"/>
        <path class="cls-12" d="m26.62,51.86c6.63.35,13.34.71,19.95-.13.47-.06.5-.75,0-.75-6.65-.07-13.3.6-19.95.79-.06,0-.06.09,0,.09h0Z"/>
        <path class="cls-13" d="m22.4,60.61c8.88.47,17.71.74,26.6.62.72-.01.73-1.13,0-1.13-8.87.08-17.73.25-26.6.28-.15,0-.15.23,0,.23h0Z"/>
        <path class="cls-13" d="m26.36,63.04c9.71,1.69,19.91,2.49,29.73,1.3,1.13-.14,1.16-1.67,0-1.78-9.78-.94-19.92-.51-29.7.26-.12,0-.17.21-.03.23h0Z"/>
        <path class="cls-13" d="m101.23,64.12c-.61,3.23-.17,6.54-.16,9.82.01,3.77-.62,7.6-.27,11.34.07.79,1.04.89,1.34.18,2.41-5.86,2.66-15.69-.22-21.43-.14-.28-.63-.22-.69.09h0Z"/>
        <path class="cls-13" d="m69.63,74.25c4.89.39,9.96-.19,14.85-.43,4.41-.22,8.93-.17,13.28-.9.8-.13.82-1.52,0-1.63-8.64-1.22-19.9-.26-28.17,2.68-.15.05-.12.26.04.28h0Z"/>
        <path class="cls-13" d="m68.95,81.79c6.1-.1,12.28-.16,18.32-1.09.6-.09.46-1.09-.14-1.06-6.07.3-12.11,1.14-18.17,1.58-.36.03-.37.57,0,.56h0Z"/>
        <path class="cls-13" d="m13.54,73.16c14.98.93,30.22,1.99,45.22.67,1.1-.1,1.13-1.7,0-1.74-15.05-.46-30.17.63-45.22.79-.18,0-.18.27,0,.28h0Z"/>
        <path class="cls-13" d="m18.64,79.24c6.47.77,13.22.08,19.73-.09s13.17-.25,19.73-.8c.71-.06.74-1.12,0-1.13-6.9-.09-13.82.33-20.71.63-6.21.27-12.64.07-18.76,1.25-.08.02-.05.13.02.14h0Z"/>
        <path class="cls-13" d="m40.14,83.97c3.1-.15,6.21-.11,9.31-.16.12,0,.12-.19,0-.19-3.1.11-6.21.3-9.31.29-.03,0-.03.05,0,.05h0Z"/>
      </g>
      <g class="cls-15">
        <g class="cls-16">
          <path class="cls-11" d="m66.04,5.98l-.43.93,6.71,2.83c.66-3,.24-5.03-.98-7.85-1.81-4.17-7.45-1.53-7.76,2.1-.15,1.79-.31,3.57-.39,5.36-.25,5.7,8.51,5.65,8.84,0,.14-2.33-.14-4.5-.79-6.74-1.15-3.95-8.12-4.7-8.77,0-.52,3.72.11,6.56,1.88,9.88.66,1.23,1.59,2.42,2.13,3.71,1.01,2.4.49,4.48.11,6.95-.61,3.88-1.12,7.43-.31,11.32s3.32,7.74,2.35,11.64l7.32-4.16c-1.91-.69-3.83-1.38-5.74-2.08-3.93-1.42-7.23,2.2-7.54,5.74-.62,7.3,3.99,14.03,5.12,21.16,1.23,7.75.33,15.46-2.09,22.88l11.51,3.17c2.69-8.94,5.39-17.87,8.1-26.81l-11.79-1.6c-.72,7.38-.62,14.7.28,22.07.82,6.64,9.47,8.35,11.86,1.61,3.24-9.14,5.26-18.46,6.44-28.07h-12.17c-.35,8.58.31,17.03,1.78,25.48,1.09,6.29,10.29,5.44,11.9,0,2.64-8.91,4.26-17.98,5.08-27.24h-12.52c.43,9.09,1.75,18.08,3.93,26.91,1.8,7.29,11.69,5.02,12.33-1.67.75-7.85,1.51-15.7,2.26-23.55h-12.57c.91,7.17,1.83,14.34,2.74,21.51,1.01,7.96,11.78,8.19,12.57,0s1.56-16.19,2.34-24.29h-12.58c.35,4.28.71,8.57,1.06,12.85.66,7.98,12.36,8.21,12.59,0,.29-10.49-.83-20.92-3.25-31.13-1.6-6.76-13.11-5.5-12.37,1.67.52,5.01.47,9.92-.15,14.92l12.39-1.68c-1.87-7.69-3.73-15.38-5.6-23.07-1.42-5.85-11.07-6.25-12.23,0-1.41,7.63-2.83,15.26-4.24,22.9h12.29c-2.08-7.94-4.15-15.88-6.23-23.82-1.58-6.03-10.87-6.19-12.36,0-2.17,8.97-3.11,18.1-2.7,27.33h12.89c-1.08-9.56-2.17-19.13-3.26-28.69-.92-8.1-12.64-8.52-12.94,0-.28,7.71-.55,15.42-.83,23.13-.3,8.35,12.57,8.31,12.96,0,.86-18.33,1.4-36.55-1.59-54.73l-12.52,3.45c1.61,7.44,3.22,14.88,4.83,22.31l12.52-3.45c-1.51-5.8-1.88-11.46-1.33-17.42l-12.76,1.73c3.13,7.73,5.61,15.63,7.48,23.75,1.75,7.61,12.07,5.12,12.76-1.73.78-7.85,1.11-15.7.98-23.59l-12.76,1.73c1.42,6.63,2.84,13.26,4.24,19.9,1.31,6.19,11.23,6.21,12.54,0,1.38-6.55,2.75-13.11,4.13-19.66h-12.61c.84,4.34,1.68,8.68,2.52,13.02,1.01,5.23,9.78,6.72,11.99,1.57,2.01-4.67,3.19-9.25,2.97-14.37h-13.04c.33.91.24,1.77-.25,2.58-2.77,7.92,9.46,11.01,12.42,3.42.77-1.96,1.03-3.91.87-6.01-.65-8.25-13.11-8.5-13.04,0,.02,2.65-.21,5.28-1.26,7.75l11.99,1.57c-.86-4.33-1.71-8.67-2.57-13-1.24-6.27-11.33-6.21-12.61,0-1.35,6.56-2.71,13.12-4.06,19.68h12.54c-1.43-6.63-2.84-13.26-4.26-19.89-1.54-7.2-12.88-5.54-12.76,1.73.13,7.89-.19,15.74-.98,23.59l12.76-1.73c-1.86-8.12-4.35-16.02-7.48-23.75-2.75-6.79-12.06-5.83-12.76,1.73-.65,7.05,0,14.03,1.79,20.88,2.12,8.13,14.28,4.68,12.52-3.45-1.61-7.44-3.22-14.88-4.83-22.31-1.79-8.28-13.86-4.65-12.52,3.45,2.79,16.94,1.94,34.21,1.16,51.28h12.96c.27-7.71.55-15.42.82-23.13h-12.94c1.1,9.56,2.2,19.13,3.31,28.69.93,8.03,13.3,8.47,12.89,0s.28-16.01,2.17-23.92h-12.36c2.1,7.93,4.2,15.87,6.29,23.8,1.53,5.78,11.13,6.37,12.29,0,1.39-7.64,2.78-15.28,4.18-22.91h-12.23c1.89,7.68,3.78,15.37,5.66,23.05,1.83,7.45,11.59,4.91,12.39-1.68.61-5,.66-9.91.14-14.92l-12.37,1.67c2.17,9.18,3.06,18.36,2.81,27.78h12.59c-.36-4.28-.71-8.57-1.07-12.85-.68-8.12-11.81-8.06-12.58,0s-1.55,16.19-2.33,24.29h12.57c-.92-7.17-1.83-14.34-2.75-21.51-1.02-7.95-11.78-8.19-12.57,0s-1.5,15.7-2.25,23.55l12.33-1.67c-1.93-7.78-3.08-15.58-3.52-23.57-.44-8.11-11.88-8-12.52,0-.66,8.15-2.19,16.1-4.45,23.96h11.9c-1.33-7.35-1.77-14.74-1.51-22.2.27-8.01-11.27-7.56-12.17,0-1.01,8.5-3.09,16.79-5.92,24.86l11.86,1.61c-.93-7.36-1.05-14.68-.35-22.07.65-6.93-9.92-7.87-11.79-1.6-2.67,8.94-5.35,17.89-8.03,26.83-2.22,7.4,9.14,10.45,11.51,3.17,2.53-7.76,3.57-16.01,2.76-24.15-.4-4.03-1.12-8.05-2.34-11.91s-3.39-7.21-3.06-11.15l-7.54,5.74c1.91.69,3.83,1.38,5.74,2.07,2.97,1.07,6.6-1.22,7.32-4.16,2.07-8.43-3.36-15.48-2.57-23.76.4-4.18.85-8.07-.91-12.04-1.37-3.09-5.42-6.17-5.22-9.65l-8.93,1.21c.53,1.53.75,2.7.72,4.32h8.84c0-1.79-.07-3.57-.13-5.36l-7.76,2.1.96,2.67c.59,4.54,7.31,4.88,7.34,0,.03-3.76-1.86-8.33-6.42-6.7-1.67.6-2.17,3.58,0,3.91h0Z"/>
          <path class="cls-11" d="m5.65,16.06c3.57-.07,7.11,1.54,10.63,2.06,2.53.38,5.05.58,7.6.79,6.29.52,12.58.83,18.88,1.11,5.96.26,11.93.39,17.89.56,3.22.09,6.74.41,9.94-.01,1.51-.2,3.49-1.57,4.78-.48.38.32,1.12.03.92-.53-1.41-3.8-3.82-4.97-7.69-5.31-7.26-.64-14.58-.74-21.86-.95s-14.58-.33-21.86-.19c-6.76.13-12.7,1.33-19.31,2.32-.37.06-.28.65.09.65h0Z"/>
          <path class="cls-11" d="m6.34,58.13c5.6-.73,11.27-.09,16.89.15s11.67.3,17.5.42c5.51.12,11.02.18,16.53.22,2.92.02,5.83.04,8.75.06,2.39.02,6.16-.7,8.4.19l-1.06-1.86,1.94-.19c-.36-.75-1.63-.75-1.99,0l-.08.16c-.3.62-.16,1.31.44,1.7l.26.17c.43.27.97.23,1.4,0l.24-.13c.57-.3.89-1.09.7-1.71l-.15-.47c-.17-.54-.62-1.12-1.22-1.22-5.02-.85-10.6-.17-15.69-.13-6.16.05-12.32.11-18.47.24-11.36.25-23.27-.3-34.48,1.76-.36.07-.28.69.09.65h0Z"/>
          <path class="cls-11" d="m1.79,59.65c2.82-2.21,6.8-1.15,10.1-.85,2.95.27,5.9.49,8.86.64,6.24.33,12.46.43,18.71.5,5.91.07,11.81.14,17.72.09s12.31.63,18.09-.75c1.31-.31,1.3-2.32,0-2.64-6.35-1.6-13.54-.86-20.06-.99-6.89-.13-13.78-.07-20.68-.07s-13.79.16-20.68.68c-4.06.3-9.32-.07-12.38,3.07-.2.21.09.48.31.31h0Z"/>
          <path class="cls-11" d="m-.33,70.6c5.91-.19,11.96,2.25,17.93,2.63,6.91.44,13.82.35,20.74.31s13.17-.08,19.76-.52c4.4-.3,12.41.91,15.46-2.85.33-.41.34-.87,0-1.28-3.07-3.7-11.09-2.43-15.46-2.68-6.92-.39-13.82-.33-20.74-.29s-13.17.04-19.76.54-11.89,2.58-18.01,3.54c-.34.05-.26.6.08.59H-.33Z"/>
          <path class="cls-11" d="m2.44,48.36c4.34-2.9,13.22-.47,18.11-.09,5.95.46,11.93.64,17.9.74,5.64.09,11.27.16,16.91.08s11.76.33,17.1-1.24c.69-.2.66-1.16,0-1.37-5.6-1.84-12.25-1.55-18.09-1.82-6.62-.3-13.26-.44-19.89-.46s-12.59.17-18.9.45c-4.84.22-9.38.27-13.39,3.3-.25.19-.02.61.25.43h0Z"/>
          <path class="cls-10" d="m3.71,12.05c1.21-1.41,2.36-2.62,3-4.4-.09.24,1.08-4.03.65-3.76-.29.18,2.61.69,2.68.7,6.29.63,12.87.26,19.19.33s13.12.16,19.68.25,13.09.94,19.23-.43c1.96-.43,1.85-3.35,0-3.85-6.95-1.88-15.02-1.07-22.18-1.18-7.52-.12-15.04-.22-22.55-.31-3.3-.04-6.6-.04-9.9-.05-2.57,0-6.39-.85-8.74.4C.74,1.88,3.48,8.26,3.19,11.83c-.02.26.35.41.52.22h0Z"/>
          <path class="cls-10" d="m4.39,70.88c3.32.41,3.6,6.72,3.77,8.94.24,3.3-.53,5.49-2.55,8.1-.61.79-.09,2.22,1.07,1.84,4.53-1.45,5.13-6.83,4.22-10.9-.74-3.32-2.26-8.5-6.52-8.26-.19.01-.18.26,0,.28h0Z"/>
        </g>
      </g>
      <path class="cls-5" d="m11.11,67.56l-8.43.36s8.44,18.33,0,21.53c-8.44,3.2,68.12,1.64,68.12,1.64"/>
      <path class="cls-5" d="m64.21,90.69c7.27,1.27,39.9-4.42,39.9-4.42,0,0,7.2-17.63.91-24.04"/>
      <path class="cls-5" d="m67.17,67.51c.54,5.12,1.19,17.15-3.79,21.45-1.07.93-.64,1.47.82,1.73"/>
      <polygon class="cls-5" points="7.97 67.7 6.37 56.12 66.49 56.12 105.66 50.69 107.6 61.55 67.19 67.7 7.97 67.7"/>
      <polyline class="cls-3" points="95.71 39.83 101.11 39.08 103.05 49.94 62.64 56.09 3.41 56.09 1.81 44.51 5.12 44.51"/>
      <path class="cls-5" d="m66.35,16.38c9.35-1.05,29.52-.9,29.52-.9,0,0-7.86,20.25,0,23.59,5.89,2.51-16.14,4.31-27.53,5.05"/>
      <path class="cls-5" d="m67.26,16.43s-5.28,21.36.34,25.79c5.61,4.43-62.29,1.96-62.29,1.96,0,0-7.09-20.44-.5-25.68s62.45-2.06,62.45-2.06Z"/>
      <polygon class="cls-2" points="2.85 1.39 1.25 12.97 63.07 14.69 101.67 15.32 103.61 4.46 62.08 1.39 2.85 1.39"/>
    </g>
  </g>
</svg>