<svg xmlns="http://www.w3.org/2000/svg" xmlns:xlink="http://www.w3.org/1999/xlink" fill="#0080ff" preserveAspectRatio="xMidYMid meet" version="1.0" viewBox="65.2 170.9 34.6 34.6" zoomAndPan="magnify" style="fill: rgb(255, 34, 98);" original_string_length="709" width="61.266254773569536px" height="61.266254773569536px">
 <g id="__id1_scpe846hdr9"><path d="m81.202 205.5v-6.2c6.568 0 11.666-6.5 9.144-13.418a9.27 9.27 0 0 0 -5.533 -5.531c-6.912-2.502-13.425 2.575-13.425 9.14h-6.188c0-10.463 10.124-18.622 21.1-15.195 4.8 1.505 8.618 5.313 10.105 10.1 3.43 10.99-4.717 21.107-15.203 21.107z" style="fill: inherit;"/></g>
 <g id="__id2_scpe846hdr9"><path d="m75.05 199.32v-6.165h6.168v6.165zm-4.753 4.75v-4.75h4.753v4.75h-4.753zm0-4.75h-3.973v-3.97h3.973v3.97z" style="fill: inherit;"/></g>
</svg>