<svg xmlns="http://www.w3.org/2000/svg" xmlns:xlink="http://www.w3.org/1999/xlink" viewBox="0 0 104.5 131.63"><defs><style>.cls-1,.cls-13,.cls-14,.cls-15,.cls-19,.cls-2,.cls-24,.cls-25{fill:none;}.cls-2,.cls-21,.cls-24,.cls-25{stroke:#871e6e;}.cls-11,.cls-13,.cls-14,.cls-15,.cls-19,.cls-2,.cls-21,.cls-24{stroke-miterlimit:10;}.cls-2,.cls-21{stroke-width:0;}.cls-3{clip-path:url(#clip-path);}.cls-21,.cls-4{fill:#fed3f0;}.cls-5{fill:#b679e2;}.cls-6{fill:#753fa0;}.cls-11,.cls-7{fill:#fe9cdf;}.cls-8{fill:#fefefe;}.cls-9{opacity:0.57;}.cls-10{opacity:0.4;}.cls-11{stroke:#6f1e5f;}.cls-11,.cls-13,.cls-14,.cls-15,.cls-19,.cls-24,.cls-25{stroke-width:3px;}.cls-12{fill:#1d1d1b;}.cls-13{stroke:#1d1d1b;}.cls-14{stroke:#7e2082;}.cls-15{stroke:#29183d;}.cls-16{fill:#3ad9c6;}.cls-17{fill:#32a0bc;}.cls-18{fill:#40ebe0;}.cls-19{stroke:#036573;}.cls-20{clip-path:url(#clip-path-2);}.cls-22{fill:#871e6e;}.cls-23{opacity:0.58;}.cls-25{stroke-linecap:round;stroke-linejoin:round;}.cls-26{clip-path:url(#clip-path-3);}.cls-27{opacity:0.59;}.cls-28{fill:#fff;}</style><clipPath id="clip-path" transform="translate(3.92)"><path class="cls-1" d="M56,28.71S33.92,23.87,22.88,39.53s-20.5,41.55,2.36,60.69,54.6,16.81,64.85,2.51S103.69,65,95.41,52.87,75.5,29.87,56,28.71Z"/></clipPath><clipPath id="clip-path-2" transform="translate(3.92)"><path class="cls-2" d="M26.89,92S19.4,78.75,8.76,83c-6.43,2.59-8.26,11.51-5,18.16,2.1,4.37,6.37,7.77,12.93,7.77C33.19,109,30.74,96.88,26.89,92Z"/></clipPath><clipPath id="clip-path-3" transform="translate(3.92)"><path class="cls-2" d="M64.47,107.6s-11.63-9.91-20.14-2.32c-5.15,4.57-3.76,13.57,1.57,18.76,3.49,3.4,8.69,5.17,14.85,3C76.32,121.48,69.81,110.94,64.47,107.6Z"/></clipPath></defs><g id="Calque_2" data-name="Calque 2"><g id="Blorbo"><g class="cls-3"><path class="cls-4" d="M54.75,28.24S32.68,23.41,21.64,39.07,1.14,80.62,24,99.76s54.59,16.81,64.84,2.51,13.6-37.69,5.32-49.87S74.26,29.4,54.75,28.24Z" transform="translate(3.92)"/><path class="cls-5" d="M35.67,96.51a4,4,0,0,0,4.25,1.57,3,3,0,0,0,2-3.58,3,3,0,0,0-3.58-2l-2.22.4a3,3,0,0,0-1.79,1.37A3.1,3.1,0,0,0,34,96.15,3,3,0,0,0,37,98.74c.91,0,1.8.06,2.7,0a3,3,0,0,0,0-6c-.9-.05-1.79,0-2.7,0l.8,5.87,2.17-.55-1.54-5.61a4.29,4.29,0,0,0-1.15.58c-.35.27-.4.3-.13.11s.22-.17,0,0,.1,0,.19-.06c-.23.15-.58.21-.83.34a2.3,2.3,0,0,0-.82,3.11Z" transform="translate(3.92)"/><path class="cls-6" d="M37.69,102.83l0,.07-.35-.83a11.26,11.26,0,0,0,.48,1.13l-.36-.85,0,.07,5.3-4.07L42.08,98l-.17-.08a2.7,2.7,0,0,0-1.39-.45,3.52,3.52,0,0,0-1.7.11,3.64,3.64,0,0,0-2.34,2.09,3.43,3.43,0,0,0,.18,3.22,4.09,4.09,0,0,0,2.56,1.9l.81.15a4.15,4.15,0,0,0,1.92,0,3.52,3.52,0,0,0,1.87-1.29,3.66,3.66,0,0,0,.28-4,4.25,4.25,0,0,0-1.44-1.48,4.47,4.47,0,0,0-2-.52,3.45,3.45,0,0,0-3,1.71,3.38,3.38,0,0,0-.47,1.73,3.42,3.42,0,0,0,.47,1.74Z" transform="translate(3.92)"/><ellipse class="cls-7" cx="21.85" cy="85.08" rx="6.47" ry="8.25"/><circle class="cls-7" cx="75.37" cy="103.41" r="9.41"/><path class="cls-8" d="M57.46,69.78c2.54,1.83,5.68.34,8.23-.81,3-1.36.82-5.88-2.18-5.18a35.94,35.94,0,0,1-5.46.8,3,3,0,0,0-2.58,4.49,3.91,3.91,0,0,0,5.28,1.69c1.64-.68,2.7-1.69,4.63-1.49a5.52,5.52,0,0,1,4.27,3.2L74.23,69A24.57,24.57,0,0,0,69,64.38l-2.28,5.39A3.74,3.74,0,0,1,69.51,73L74,70.4a47.54,47.54,0,0,1-8.25-4.59l-2.33,5.55c4.34,1.65,6.93,5.06,8.24,9.41,1.39,4.63,8.3.66,4.93-2.87l-.79-.82c-1.46-1.53-3.5.12-3.24,1.89a53.38,53.38,0,0,1,.1,6.93c0,1.94,3.19,2.55,3.52.48a46.4,46.4,0,0,0,.33-13.77c-.39-2.87-.68-5.76-4-6.1-2.82-.29-2.87,4.26,0,4.45-.79-.6-1-.47-.61.37.17.7.31,1.41.43,2.13A39.5,39.5,0,0,1,72.83,78a52.75,52.75,0,0,1-.17,8h3.58A55.23,55.23,0,0,1,76.3,79l-3.24-1.89-.64.82,4.93,1.3C76.09,72.69,71.1,67.74,65,65.5c-3.4-1.25-5,3.72-2.34,5.55a51.26,51.26,0,0,0,9,4.81c1.68.71,4-1.1,3.78-2.88a9.9,9.9,0,0,0-7.15-8.9c-3.3-1-5,3.61-2.27,5.39a19.06,19.06,0,0,1,4,3.61c2.21,2.56,6.17-.72,4.58-3.54a11.73,11.73,0,0,0-7-5.74A11.28,11.28,0,0,0,63,63.53c-.63.09-4.85,1.47-3.91,1.72l1.78,1.37-.29-.55-2.57,4.49a29.66,29.66,0,0,0,7-1.3l-2.18-5.18c-2.13,1.13-4.62,1.77-5.84,4a1.3,1.3,0,0,0,.46,1.73Z" transform="translate(3.92)"/><path class="cls-8" d="M23.91,56.33c4.54,1.43,12.31-.7,13.16,6.26L43.26,60a5.49,5.49,0,0,1-1.42-2.65l-5.7,2.41C38,63.73,40.73,69,39.92,73.44l2.28.31c.17-1.32.27-2.63.37-4,.14-1.77-2.32-1.8-2.88-.39a13.66,13.66,0,0,0-.85,6.2c.14,1.9,3.07,2.58,3.52.48a53.77,53.77,0,0,0,1.23-12.65c0-2-3.21-2.06-3.18,0a40.9,40.9,0,0,1-1.5,11.7l3.52.47c.1-1.93.2-3.87.14-5.81H39.64c.06,1.33.12,2.64.24,4a1.16,1.16,0,0,0,2.32,0c.14-2.85.77-5.81,1.07-8.64s-.5-5.17-1.43-7.73c-1.12-3.05-6.49-2.92-6.13.83a15.28,15.28,0,0,0,1.86,6.21c1.63,3,7.14,1.82,6.75-1.83a13.33,13.33,0,0,0-8.18-11.4c-4.38-1.83-10.43-1.79-13.35,2.39a1.88,1.88,0,0,0,1.12,2.75Z" transform="translate(3.92)"/><g class="cls-9"><path class="cls-8" d="M45.22,25.88c-12.4-1.45-22.36,9-28.45,18.61-6.88,10.86-12.33,24-10.55,37,.69,5.07,9.31,3.9,9-1.22-.7-10.57,4.33-21.19,9.56-30.12S37.61,35.45,46.33,30c2-1.25,1-3.89-1.11-4.13Z" transform="translate(3.92)"/></g><g class="cls-10"><path class="cls-6" d="M89,44.32c-1.05,4.25.16,8.86.43,13.18a56.31,56.31,0,0,1-.93,15C86.68,81.15,83.16,90,76.91,96.39c-13.87,14.28-33.38,11.1-48.67,1-5.1-3.36-9.67,4.7-4.75,8.12,13.53,9.38,32,11.24,48.05,9.39C88,113,97.42,97.37,99.26,82c.78-6.5-10-7.85-11.39-1.54-1.35,6-2.86,11.65-6.33,16.8-3.67,5.44-8.66,7.41-15.07,7.81-11.92.74-28,2.05-37.28-6.91l-6.65,6.65c16.82,14.27,43.68,16.71,60.72,1.18A50,50,0,0,0,98.37,77.12a62.08,62.08,0,0,0,.06-17.8c-.71-5.34-1.57-12-5.43-16.06a2.41,2.41,0,0,0-4,1.06Z" transform="translate(3.92)"/></g></g><path class="cls-11" d="M39.76,43.68a3.28,3.28,0,0,1,3.45-2.88c2.08.07,4.67.85,3.81,4.53C45.87,50.26,39.34,48,39.76,43.68Z" transform="translate(3.92)"/><path class="cls-11" d="M67.7,49.23a3.21,3.21,0,0,1,.13,4.45c-1.35,1.54-3.6,3-6,.06C58.66,49.77,64.58,46.23,67.7,49.23Z" transform="translate(3.92)"/><path class="cls-12" d="M52.3,72c-4.24,4.75-3.19,12.17.05,17.26s11.33,8,15.86,2.5l-7.27.94,1.66,1.09c4.15,2.73,8.48-1,8.95-5.13.6-5.24-3.29-10.38-6.17-14.43l-9.08,7-.07,0c3.54,6.55,13.37.75,10-5.82A12.55,12.55,0,0,0,64.48,73c-4.2-5-12.79,1.59-9.08,7,1,1.41,1.89,2.84,2.75,4.32.39.67.8,1.34,1.14,2,.23.47.42,1.61.58.66l8.73-3.56L67,82.31c-2-1.49-5.62-.88-7.26.94.74-.82,2.35,0,2.74-.43l-.55-1.39a12.49,12.49,0,0,1-.72-5.78c.29-4.43-6-7-8.9-3.68Z" transform="translate(3.92)"/><path class="cls-12" d="M19,61.64a15.2,15.2,0,0,0-.64,4c-.36,4.86,5.95,6.72,9.12,3.78A7.89,7.89,0,0,0,29,67.52c.18-.31,1.31-2.36.32-1.2l-2.45,1.42.66-.19L23.25,67c-.51-.75-.44-.65.2.3A18.19,18.19,0,0,1,24.38,69a10.13,10.13,0,0,1,.73,2.69H36.28q-.41-3.25-.84-6.51l-9.51,3.94a3.56,3.56,0,0,1,.45,2.08c0,.6,0,1.2,0,1.8,0,.44-.43,1.75-.11.91l1.47-2.52-.4.38,2.53-1.47c-.8.32,0,.15-.55.16a9.91,9.91,0,0,0-2.41.37,8,8,0,0,0-4.2,3.31h9.85a20.91,20.91,0,0,1-3.06-6.6C27.88,62,18.72,62.77,19.1,68.91a22.67,22.67,0,0,0,3.6,11c1.79,2.81,6.54,4.14,9,1.15q-3.43,1.13-1.39.85c.71-.07,1.42-.18,2.13-.32a7.9,7.9,0,0,0,3-1.71,8.1,8.1,0,0,0,2.25-6c.14-4.7-.85-9-3.88-12.66s-10.09-.79-9.51,3.94q.39,3.26.81,6.51c.39,3,2.29,5.59,5.59,5.59,2.74,0,5.94-2.57,5.58-5.59-.56-4.73-2.08-9.76-5.69-13.13a6.78,6.78,0,0,0-8-.93,7.59,7.59,0,0,0-2.48,2.56c-.39.67-.64,2.29-1,2.81l10,2.7a15.57,15.57,0,0,0-.72-4,4.88,4.88,0,0,0-9.32,0Z" transform="translate(3.92)"/><path class="cls-13" d="M35.43,81a14.65,14.65,0,0,0,6.76-5.27,11.69,11.69,0,0,0,2-5.09c.69-5.7.79-14.11-3-17.49S30.07,46.58,21.59,54.7s-2.46,23.87,0,25.42C23.42,81.26,26.66,84.54,35.43,81Z" transform="translate(3.92)"/><path class="cls-12" d="M17.33,60c-.31,3.14.52,6.33.67,9.47.25,5.31,8.68,5.23,8.22,0A72.78,72.78,0,0,0,24.1,59.08c-1-4-6.42-2.73-6.77.92Z" transform="translate(3.92)"/><path class="cls-13" d="M68.6,94a14.66,14.66,0,0,0,6.29-4.68,11.92,11.92,0,0,0,2.38-5.66c.69-5.7.79-14.11-3-17.49S63.18,59.55,54.7,67.67s-3.64,23.08,0,25.41C56.52,94.25,59.78,97.52,68.6,94Z" transform="translate(3.92)"/><path class="cls-14" d="M55,28.71S32.93,23.87,21.89,39.53s-20.5,41.55,2.37,60.69S78.85,117,89.1,102.73,102.7,65,94.42,52.87,74.51,29.87,55,28.71Z" transform="translate(3.92)"/><path class="cls-13" d="M34.5,99.83s-2.36-7.73,3.16-7.73,7.67,8.89,5.81,11.79S36.67,108,34.5,99.83Z" transform="translate(3.92)"/><path class="cls-15" d="M35.15,101.78s-.13-8.91,9-2" transform="translate(3.92)"/><path class="cls-13" d="M19.6,57.13s22-6.26,18.18,22.71" transform="translate(3.92)"/><path class="cls-13" d="M51.78,71.34S72.61,64.53,72.24,92.1" transform="translate(3.92)"/><path class="cls-16" d="M82.26,13.82C80.88,5.9,72.8,2.61,65.11,1.65S40.67,4.16,42.64,21.17c.81,6.94,5.22,10.95,10.16,13.26a3.16,3.16,0,0,1,2.43.16c3.21,1.53,6.75,2.09,10.21,2.81.13,0,.25.08.37.12,1.51.1,2.45.08,2.45.08L67.53,37a3,3,0,0,1-3-.67,38.69,38.69,0,0,1-7.27-8.72,3,3,0,0,1-.45-1.5C54.16,21.5,55.24,17.75,58,13.31a4.56,4.56,0,0,1,1.35-1.38c5-3.36,8.39-2.25,10.69-.72h.06a2.49,2.49,0,0,1,1.2.27,2.35,2.35,0,0,1,1,.65A3.91,3.91,0,0,1,73,13a3.63,3.63,0,0,1,.46,1.83A3.22,3.22,0,0,1,73,16.42l-.49.63a3,3,0,0,1-1.37.8l-.83.11a2.41,2.41,0,0,1-1.21-.26,2.82,2.82,0,0,1-1.64-1.65l0,0,0-.09c-2.52-.78-4.17-.11-5,1.31-.93,1.67-2.48,6.44,6.39,9.15S83.64,21.75,82.26,13.82Z" transform="translate(3.92)"/><path class="cls-17" d="M47.37,20.18c-.66,3-.24,6.16-.31,9.25l5.49,5.11a3.11,3.11,0,0,1,2.68.05c3.21,1.53,6.75,2.09,10.21,2.81a4.11,4.11,0,0,1,.53.17l-.08-.47a3.08,3.08,0,0,1-1.4-.74,38.69,38.69,0,0,1-7.27-8.72A2.8,2.8,0,0,1,57,25.05a8.06,8.06,0,0,1-.24-.91C55.56,18,58,10.13,68,11.53a2.74,2.74,0,0,1,.7,0l0,0C58.68,6.4,49.64,10,47.37,20.18Z" transform="translate(3.92)"/><path class="cls-18" d="M72.55,17.05a3,3,0,0,1-1.37.8l-.83.11a2.41,2.41,0,0,1-1.21-.26,2.82,2.82,0,0,1-1.64-1.65l0,0-.14-.26-3.22.67c-.17,1.25-.33,2.51-.61,4.59l3.37,3c1.92-1.17,4.28-2,5.64-3.6a2.86,2.86,0,0,0,.2-3.56Z" transform="translate(3.92)"/><path class="cls-19" d="M82.4,13.82C81,5.9,72.94,2.61,65.25,1.65S40.81,4.16,42.78,21.17,68.4,37.6,68.4,37.6l-1.86-1.44a3.53,3.53,0,0,1-.9-.36,17.76,17.76,0,0,1-5-4.83c-6.93-7.11-6.17-11.79-2.53-17.66a4.56,4.56,0,0,1,1.35-1.38c6.36-4.23,10-1.37,12.27.48s.6,5.6-2.76,4.06-5.45-.91-6.38.77S60.13,23.68,69,26.39,83.78,21.75,82.4,13.82Z" transform="translate(3.92)"/><g class="cls-20"><path class="cls-21" d="M26.23,91.18S18.74,78,8.09,82.27c-6.42,2.58-8.25,11.5-5,18.16,2.1,4.36,6.37,7.76,12.93,7.76C32.53,108.19,30.08,96.11,26.23,91.18Z" transform="translate(3.92)"/><g class="cls-10"><path class="cls-22" d="M-.8,94.6c-1.46,5.59,3.87,10.5,8.33,13,6.25,3.54,14.44,4.11,20.79.6,4.31-2.39,1.16-8.16-3.14-7.46-5,.82-9.73,1.68-14.71-.12-3.92-1.42-5.91-4.53-9-7A1.52,1.52,0,0,0-.8,94.6Z" transform="translate(3.92)"/></g><g class="cls-23"><path class="cls-22" d="M26.07,92.73c-1.48-4.34-2.58-7.08-6.81-9.64A16.25,16.25,0,0,0,5.1,81.66C-.88,84.05-8,94.26-1,99.39a1.71,1.71,0,0,0,2.08-.27C3.83,96,4.26,91.07,8.6,89.36c2.91-1.14,6.25-.35,8.92,1A69.63,69.63,0,0,1,24.36,94a1.17,1.17,0,0,0,1.71-1.31Z" transform="translate(3.92)"/></g></g><path class="cls-2" d="M26.89,92S19.4,78.75,8.76,83c-6.43,2.59-8.26,11.51-5,18.16,2.1,4.37,6.37,7.77,12.93,7.77C33.19,109,30.74,96.88,26.89,92Z" transform="translate(3.92)"/><path class="cls-24" d="M26.23,91.52S18.74,78.32,8.09,82.6c-6.42,2.59-8.25,11.5-5,18.16,2.1,4.37,6.37,7.77,12.93,7.77C32.53,108.53,30.08,96.45,26.23,91.52Z" transform="translate(3.92)"/><path class="cls-25" d="M10.23,93.07s-6.61.42-6.64,8.71" transform="translate(3.92)"/><path class="cls-25" d="M17.22,99.83A8.89,8.89,0,0,0,11.55,108" transform="translate(3.92)"/><g class="cls-26"><path class="cls-21" d="M64.68,108.27S53.05,98.37,44.53,106c-5.14,4.58-3.76,13.57,1.57,18.76,3.5,3.4,8.69,5.17,14.86,3C76.52,122.15,70,111.62,64.68,108.27Z" transform="translate(3.92)"/><g class="cls-10"><path class="cls-22" d="M63.21,114.79c-2.32,4-4.77,5-9.44,5.37-3.93.27-6.14-2.29-9.5-3.73-2.53-1.09-6.39.09-6.11,3.51.69,8.43,9.6,12.37,17.2,11.59,8.9-.91,15.64-5,15.22-14.74-.16-3.83-5.35-5.52-7.37-2Z" transform="translate(3.92)"/></g><g class="cls-27"><path class="cls-22" d="M41.94,114.32c2.67-4.52,7-5.86,12-5.55,3.87.24,6.39,2.41,9.58,4.32,3,1.78,6.33-1.74,4.67-4.67-3.11-5.5-10-7.26-15.93-6.21-6.51,1.16-11.22,4.42-13.21,10.89a1.59,1.59,0,0,0,2.89,1.22Z" transform="translate(3.92)"/></g></g><path class="cls-2" d="M64.47,107.6s-11.63-9.91-20.14-2.32c-5.15,4.57-3.76,13.57,1.57,18.76,3.49,3.4,8.69,5.17,14.85,3C76.32,121.48,69.81,110.94,64.47,107.6Z" transform="translate(3.92)"/><path class="cls-24" d="M64.41,109.07s-11.63-9.9-20.15-2.32c-5.14,4.58-3.76,13.57,1.57,18.76,3.5,3.4,8.69,5.17,14.86,3C76.25,123,69.75,112.41,64.41,109.07Z" transform="translate(3.92)"/><path class="cls-25" d="M49.9,115.87s-6.06,2.61-3.2,10.41" transform="translate(3.92)"/><path class="cls-25" d="M58.83,119.89a8.77,8.77,0,0,0-2.5,9.53" transform="translate(3.92)"/><path class="cls-28" d="M23.88,66.88s1.43-7,3-7.19,3.24,7.19,3.24,7.19,5.1-1,6.22,0-5.1,5.92-5.1,5.92,2.36,4.92,1.86,5.93S26,74.82,26,74.82s-3.37,3.61-5.24,2.84,1.63-6.12,1.63-6.12-4.11-2.46-5.11-5.17S23.88,66.88,23.88,66.88Z" transform="translate(3.92)"/><path class="cls-28" d="M62.89,78.89s7.13.33,7.56,1.84S63.85,85,63.85,85s1.78,4.89,1,6.15-6.64-4.13-6.64-4.13-4.5,3.1-5.57,2.77,2.76-7.62,2.76-7.62-5.54-4.3-5.07-6.26S58,78.13,58,78.13s1.8-4.44,4.32-5.84S62.89,78.89,62.89,78.89Z" transform="translate(3.92)"/><path class="cls-6" d="M36,85.52a3.78,3.78,0,0,0,.32,2l-.18-1.36v.07a2.14,2.14,0,0,0,.94,2.31,8.7,8.7,0,0,0,1,.56l-.77-.77a3.35,3.35,0,0,0,2.06,1.5c2.63.83,4.26-3.1,1.87-4.44-.68-.39-1.36-.79-2.06-1.14L38.58,89l.16,0H39c-.18,0-.18,0,0,0l.36.1s.64.27.87.33c2.48.64,4.64-2.61,2.6-4.46a5.8,5.8,0,0,0-5.68-1,2.62,2.62,0,0,0,0,5c.72.3,1.47.54,2.21.8L40,85.05a3.31,3.31,0,0,0-1.93.35l1.65-.22a9.66,9.66,0,0,1-1.11-.38,2,2,0,0,0-2,.52l-.06.05,1.25-.52a1.72,1.72,0,0,0-1.46.54l.73-.3q-.33,0-.66,0a.47.47,0,0,0-.46.46Z" transform="translate(3.92)"/></g></g></svg>