<svg xmlns="http://www.w3.org/2000/svg" xmlns:xlink="http://www.w3.org/1999/xlink" viewBox="0 0 155.86 153.54"><defs><style>.cls-1,.cls-4{fill:none;}.cls-2{fill:#e74857;stroke:#221f20;}.cls-2,.cls-4{stroke-linecap:round;stroke-linejoin:round;stroke-width:5px;}.cls-3{fill:#e2f9fe;}.cls-4{stroke:#520300;}.cls-5{opacity:0.47;}.cls-6{clip-path:url(#clip-path);}.cls-7{fill:#ebfef3;}.cls-8{fill:#84263d;}</style><clipPath id="clip-path"><path class="cls-1" d="M85,13.5C88.43,20,41.06,86.27,62.25,87.82s53-60.39,53-60.39,30.15-2.29,31.7,23.24S130,130.4,104.77,142,31.58,161.36,7.58,117.24,52.48,2.65,52.48,2.65,78,.35,85,13.5Z"/></clipPath></defs><g id="Calque_2" data-name="Calque 2"><g id="Layer_23" data-name="Layer 23"><path class="cls-2" d="M85,13.5C88.43,20,41.06,86.27,62.25,87.82s53-60.39,53-60.39,30.15-2.29,31.7,23.24S130,130.4,104.77,142,31.58,161.36,7.58,117.24,52.48,2.65,52.48,2.65,78,.35,85,13.5Z"/><path class="cls-3" d="M44.22,22.53l-1.1-1.2-2.9,7c6.22.29,9.08-6.28,13.72-9.27,6.42-4.14,14.23,0,20.23,2.81l-2.26-8.6C66.25,21.11,61.64,29.79,67.29,39L73,35.64c-5.07-9.56-14.1-17.73-25.75-16.42l1.51,11.12c2.55-.91,5.08-1.92,7.65-2.75,1-.33,2.1-.63,3.16-.9.8-.2,1.6-.38,2.41-.53,2.08-.19,1.3-1.1-2.33-2.71l.7-5.4,1.56-1.32L72.49,27.3a5.31,5.31,0,0,1,1.07-1.93c2.41-3.42.59-8.52-2.75-10.52-3.93-2.35-8-.53-10.52,2.76a5.26,5.26,0,0,0-1.15,1.89c-4.82,10.26,11.09,16.63,14.13,6,1.86-6.54-3.45-12.69-10.09-12.63-6.34.05-13.83,3.42-18.78,7.16s-2.27,11.83,4.36,10.35c3.81-.85,7.05,1.39,10.38,2.92,2.21,1,7.35,2.15,7.81,4.93.59,3.53,5.38,2.73,6.39,0,2.29-6.23,6.12-12.7,9.42-18.59,1.27-2.26,1.15-5.82-1-7.61-7-5.86-18.09-9.9-27.23-7.56a19.94,19.94,0,0,0-10.19,6.66c-2.62,3.19-2.63,7.26-6.21,9.6C32.32,24.53,40.58,32,43.76,26.3l.77-1.38a2,2,0,0,0-.31-2.39Z"/><path class="cls-3" d="M109.76,52.25l1.41.13V46.5l-.86-.22.93,7.11c3.07-2.14,4.66-5,6.77-8.1.85-1.25,1.92-3.9,3.17-4.7,1.55-1,1.6-.42,3.61.69l4.43-10.52c-2.7-.75-5.4-1.53-8.13-2.21L117.91,40.1c6.44,1.3,12.75,2.81,14.82,9.8a80.06,80.06,0,0,1,1.71,9.2c.71,4.11,2.95,7.54,4.11,11.51l6-2.53a37.12,37.12,0,0,0-9.74-13.55c-4.66-4.18-11-5.86-16.13-9.39L121,54c.45-.58,2-.63,2.48-.94l1.27-.27c-1.39-1.75-1.73-2.21-1-1.37V47.14L136,43.92c-1.83-.9-3-1.77-3.59-3.78l-14.2,10.92c1.92,1,3,2.45,4.55,3.91a9.56,9.56,0,0,0,12.5.75c4-3.19,4.37-7.78,2.45-12.28-1.75-4.08-5.82-7.2-9.74-9.07-6.91-3.3-17.26,2.28-14.2,10.91,2.67,7.53,7.68,12.58,15.32,15,6.69,2.14,12.65-4.66,11-11-3.66-14.41-23.25-11.82-30.33-1.81-2.07,2.94-.44,7.17,2.34,8.9,8.68,5.44,24.09,1.46,26.45,14.24.7,3.75,6.32,2.69,6.44-.87.18-5.35,1.41-10,.71-15.43-.56-4.34-1.33-8.6-3.31-12.55-4.22-8.39-12.74-11.22-21.3-13.21-7.49-1.74-10.69,9.75-3.18,11.55,2.74.65,5.5,1.19,8.25,1.76,6,1.24,10.68-7.59,4.43-10.52-4.82-2.26-11.1-3.08-15.26,1-2.08,2-3.48,4.91-5,7.37-1.86,3-4.11,5.79-4.8,9.29-.78,4,3.46,6.19,6.51,3.79a9.65,9.65,0,0,0,1.68-1.87c2.18-2.89-2.25-5.42-4.62-3.56l-1,.81c-1.81,1.42-.11,3.91,1.69,4.08Z"/><path class="cls-4" d="M77.53,6.55S18.61,94,62.25,87.82"/><path class="cls-4" d="M142.84,38.17s-7.15,69.22-68.08,112.72"/><polyline class="cls-4" points="31.95 27.26 61.84 32.69 71.18 44.29"/><polyline class="cls-4" points="101.39 51.17 136.93 63.73 142.84 76.77"/><g class="cls-5"><g class="cls-6"><path class="cls-7" d="M53.49,4.07C47.21,9.48,42.27,16.39,37.23,23c-4.84,6.3-9.4,12.87-13.8,19.48C15.31,54.61,6.75,68.6,4.1,83.2c-2.58,14.2-1.38,29.57,6.39,42.06,6.43,10.33,17.36,19.47,30.21,18.54,3.48-.25,5.64-5.35,1.94-7.16C33.25,132,24.74,126,20,116.37c-5.81-11.68-4.34-25.12-1.17-37.31,3.27-12.59,9.91-23.69,17-34.49C43.52,32.7,53.1,21.37,59.52,8.73a3.86,3.86,0,0,0-6-4.66Z"/><path class="cls-7" d="M77.67,90.26C102,79.09,118.5,56.87,125.75,31.46a6.86,6.86,0,0,0-3.11-7.62,6.75,6.75,0,0,0-3.4-.92,6.85,6.85,0,0,0-6.51,4.95c-5.82,23-20.13,43.23-38,58.56-2.25,1.93.61,4.91,3,3.83Z"/><path class="cls-8" d="M60.7,81c1.6-4.85.17-10.14,1.47-15.12,1.53-5.84,4.27-11,7.43-16.09,7-11.21,14.3-22.25,20.53-33.88L76.43,10.1c-2.25,7.49-6.21,14.73-9.36,21.9-3.3,7.5-6.84,14.94-9.86,22.56C54.69,60.91,42.86,84.54,56,87c5.87,1.09,8.32-7.2,2.49-9,2.25.71.81,1.27,2.45-.56A22.82,22.82,0,0,0,63,74c1.51-2.55,2.89-5.13,4.25-7.76,2.87-5.58,5.42-11.26,7.94-17,4.83-11,8.86-23.08,15-33.37,5-8.4-7.54-15.44-12.95-7.57C68.47,21,59.76,34.66,53.11,48.56,48.85,57.46,43,79,56.78,83.2A3.24,3.24,0,0,0,60.7,81Z"/><path class="cls-8" d="M92.36,148.22a84.93,84.93,0,0,0,24.34-18,147.11,147.11,0,0,0,19-24.3A166.86,166.86,0,0,0,149,78.86c3.67-9.45,8.4-20.84,6.4-31-1.21-6.16-9.71-6.37-12.68-1.66C140,50.38,139.29,54.9,138,59.66q-1.8,6.78-4.24,13.39a144.4,144.4,0,0,1-12,24.75,165.85,165.85,0,0,1-15.52,22c-3,3.57-6.46,6.79-9.57,10.3-3.27,3.71-6.18,7.71-9.51,11.38a4.33,4.33,0,0,0,5.23,6.77Z"/></g></g><path class="cls-4" d="M85,13.5C88.43,20,41.06,86.27,62.25,87.82s53-60.39,53-60.39,30.15-2.29,31.7,23.24S130,130.4,104.77,142,31.58,161.36,7.58,117.24,52.48,2.65,52.48,2.65,78,.35,85,13.5Z"/></g></g></svg>