<?xml version="1.0" encoding="UTF-8"?>
<svg id="Calque_2" data-name="Calque 2" xmlns="http://www.w3.org/2000/svg" xmlns:xlink="http://www.w3.org/1999/xlink" viewBox="0 0 69.02 79.61">
  <defs>
    <style>
      .cls-1 {
        opacity: .31;
      }

      .cls-2 {
        fill: #005c74;
      }

      .cls-2, .cls-3, .cls-4, .cls-5 {
        stroke-width: 0px;
      }

      .cls-3, .cls-6 {
        fill: none;
      }

      .cls-7 {
        clip-path: url(#clippath-1);
      }

      .cls-8 {
        opacity: .38;
      }

      .cls-9 {
        clip-path: url(#clippath);
      }

      .cls-4 {
        fill: #effdf3;
      }

      .cls-6, .cls-10 {
        stroke: #005c74;
        stroke-linecap: round;
        stroke-linejoin: round;
        stroke-width: 2.52px;
      }

      .cls-5 {
        fill: #782e3e;
      }

      .cls-10 {
        fill: #ade9e1;
      }
    </style>
    <clipPath id="clippath">
      <path class="cls-3" d="m33.33,24.02c2.32,1.36,5.03,1.92,7.69,1.52,6.36-.96,15.8-3.79,10.14-12.08C42.98,1.48,18.15-8.75,6.76,18.42-4.63,45.59-.54,81.81,30.71,78.01c31.25-3.8,18.46-16.9,27.1-13.96,10.88,3.7,14.02-18.99,1.75-18.11-12.27.88-8.11,5.78-21.84,9.87-13.73,4.09-21.76-9.86-20.92-14.99,1.11-6.79,6.76-22.52,16.53-16.8Z"/>
    </clipPath>
    <clipPath id="clippath-1">
      <path class="cls-3" d="m33.63,23.85c2.32,1.36,5.03,1.92,7.69,1.52,6.36-.96,15.8-3.79,10.14-12.08C43.28,1.32,18.45-8.91,7.06,18.26-4.33,45.42-.24,81.64,31.01,77.85s18.46-16.9,27.1-13.96c10.88,3.7,14.02-18.99,1.75-18.11s-8.11,5.78-21.84,9.87c-13.73,4.09-21.76-9.86-20.92-14.99,1.11-6.79,6.76-22.52,16.53-16.8Z"/>
    </clipPath>
  </defs>
  <g id="Layer_1" data-name="Layer 1">
    <g>
      <path class="cls-10" d="m33.63,24.08c2.32,1.36,5.03,1.92,7.69,1.52,6.36-.96,15.8-3.79,10.14-12.08C43.28,1.54,18.45-8.68,7.06,18.48-4.33,45.65-.24,81.87,31.01,78.07c31.25-3.8,18.46-16.9,27.1-13.96,10.88,3.7,14.02-18.99,1.75-18.11-12.27.88-8.11,5.78-21.84,9.87-13.73,4.09-21.76-9.86-20.92-14.99,1.11-6.79,6.76-22.52,16.53-16.8Z"/>
      <g class="cls-1">
        <g class="cls-9">
          <path class="cls-2" d="m36.62,32.08c-5.38-2.38-5.82-10.88.74-12.02,2.49-.43,5.2.9,6.53,3.01,1.66,2.63.93,5.61.15,8.37-.46,1.62,1.73,3.02,2.92,1.7,6.82-7.61-1.71-19.68-11.17-17.14-4.07,1.09-7.49,4.97-7.48,9.28s3.16,8.12,7.47,8.78c1.09.17,2.06-1.44.84-1.98h0Z"/>
          <path class="cls-2" d="m18.96-.93c-1.62,5.69,1.09,12.44,7.19,14,6.53,1.67,13.01-6.39,14.55-11.88.72-2.59-2.76-3.85-4.18-1.76-1.91,2.82-4.14,6.34-7.32,7.91C24.9,9.44,21.7,3.67,22.37.01c.4-2.21-2.78-3.16-3.41-.94h0Z"/>
          <path class="cls-2" d="m14.31,25.13c-.73-1.5-1.46-3.76-.27-5.23,1.07-1.33,2.61-1.13,3.18.45.46,1.29.46,3.41-.83,4.25-1.21.78-2.18-.23-3.34-.5-.97-.22-1.89.44-1.91,1.46-.09,3.69,5.14,3.7,7.36,2.16,2.95-2.05,3.31-6.44,1.79-9.46-1.61-3.18-5.48-3.75-8.11-1.46-2.98,2.59-2.23,6.81-.55,9.89.97,1.77,3.55.21,2.69-1.57h0Z"/>
          <path class="cls-2" d="m19.51,35.87c-6.48-3.02-13.29,2.76-11.29,9.67,1.01,3.49,3.93,6.21,7.48,6.93s8.07-.24,9.84-3.55c1.01-1.88-.65-4.08-2.74-3.57-3.03.73-6.7,2.98-8.87-.73-1.75-2.99.89-6.98,4.39-5.92,1.65.5,2.82-2.09,1.2-2.84h0Z"/>
          <path class="cls-2" d="m2.32,62.12c3.63-5.43,12.46,1.6,14.16,5.29,2.28,4.95,1.22,11.31-5.25,11.3-2.29,0-3.65,3.65-1.26,4.66,10.8,4.56,15.16-9.91,11.45-17.7-3.26-6.84-16.97-14.47-21.98-5.25-1.04,1.91,1.7,3.47,2.89,1.69h0Z"/>
          <path class="cls-2" d="m28,65.04c3.1,0,3.1-4.81,0-4.81s-3.1,4.81,0,4.81h0Z"/>
          <path class="cls-2" d="m5.3,35.21c2.52,0,2.52-3.91,0-3.91s-2.52,3.91,0,3.91h0Z"/>
          <path class="cls-2" d="m38.55,77.72c-2.5-3.5.19-7.91,4.48-7.66s5.73,4.44,4.68,8.05c-.66,2.28,2.87,3.9,3.92,1.65,3.03-6.45-1.79-14.17-9.07-13.89-6.65.26-10.91,7.95-6.73,13.43,1.2,1.58,3.93.08,2.73-1.59h0Z"/>
          <path class="cls-2" d="m39.48,54.76c-1.29,1.99-1,4.52.48,6.34,1.61,1.98,4.33,2.38,6.58,1.28s3.57-3.45,3.1-5.92-2.66-4.69-5.27-4.72c-1.95-.02-2.4,2.95-.46,3.43,1.05.26,1.97.69,2.26,1.84.27,1.06-.37,1.97-1.34,2.37-2.31.97-3.7-1.72-3.06-3.66.45-1.39-1.54-2.11-2.28-.96h0Z"/>
          <path class="cls-2" d="m57.25,44.45c-3.57,4.15-3.83,10.83,1.6,13.61,4.48,2.29,12.69-1.34,10.06-7.14-.62-1.37-2.51-1.04-3.22,0-1.32,1.94-2.33,4.67-5.27,3.19s-3.04-5.33-1.22-7.69c1.07-1.38-.78-3.35-1.97-1.97h0Z"/>
          <path class="cls-2" d="m44.03,13.4c4.52,0,4.53-7.03,0-7.03s-4.53,7.03,0,7.03h0Z"/>
        </g>
      </g>
      <g class="cls-8">
        <g class="cls-7">
          <path class="cls-4" d="m3.6,46.93c-.27-7.05,3.12-13.54,6.56-19.5,2.9-5.03,6.16-10.2,11.13-13.43,4.32-2.8,9.9-3.8,14.97-3.09,5.53.77,8.83,4.14,13.64,6.33,3.77,1.71,7.54-1.78,5.65-5.65-3.03-6.17-11.7-9.01-18.05-9.81-6.92-.87-14.16.44-20.07,4.26C4.98,14.07-3.15,32.96-.11,47.43c.44,2.08,3.79,1.62,3.71-.5h0Z"/>
          <path class="cls-4" d="m52.42,56.07c.41-.26.78-.57,1.1-.94.19-.22.36-.46.53-.7.08-.11.17-.23.25-.34-.06.09-.05.08.03-.02.11-.11.09-.1-.05,0-.18.07-.2.09-.06.05.59-.13.13-.28-1.4-.47-.25-.21-.38-.48-.37-.82-.35-1,.01-1.91,1.11-2.7-.18.08-.12.06.18-.08,1.36-.6,3.33.28,3.63,1.97v1.79c0-.07.02-.13.06-.19.28-.68.09-1.59-.17-2.22-.29-.68-.75-1.25-1.4-1.63,1.5,1.37,1.87,2.73,1.09,4.07-.87,1.39-2.34,1.76-4.39,1.12l-1.37-1.37c-1.4-2.01.26-4.17,2.03-4.85l1.08-.15h-.11c.36.06.73.11,1.09.16-.08-.02-.15-.03-.23-.04-1.08-.16-2.19-.22-3.16.41-.76.49-1.32,1.12-1.68,1.96-.74,1.75-.17,4.23,1.68,5.12,1.51.73,3,.79,4.47-.02,1.04-.58,1.79-1.69,2.08-2.83.63-2.53-.93-5.13-3.56-5.48-2.45-.33-4.72,1.62-4.7,4.13.01,2.25,1.67,4.09,3.95,4.13l-3.42-3.42c.17,1.49.76,2.75,2.21,3.36,1.08.46,2.28.35,3.3-.22,1.9-1.06,2.76-3.89,1.04-5.53-.84-.8-1.99-1.2-3.14-.92-.42.1-.81.31-1.15.57-.73.56.31-.22-.16.09-.2.13-.41.29-.58.45-.09.08-.17.17-.25.26-.03.04-.49.63-.23.29-.23.3-.43.58-.6.92-.28.6-.37,1.11-.72,1.48-1.26,1.32.37,3.62,2,2.59h0Z"/>
          <path class="cls-4" d="m43.69,63.4c1.85,0,1.85-2.88,0-2.88s-1.85,2.88,0,2.88h0Z"/>
          <path class="cls-5" d="m41.27,27.65c1.29-6.3-5.56-9.93-11.06-9.29-7.31.86-13.13,8.13-15.63,14.56-2.57,6.62-1.78,14.27,3.84,19.02,4.8,4.05,12.15,5.03,16.82.32,1.3-1.31,1.96-4.02.73-5.63-2.46-3.22-6.28-.78-9.34-1.88s-3.5-4.05-2.77-6.94,2.78-6.16,5.15-8.17c3.08-2.6,4.7-1.89,8.01-.27,1.56.76,3.84.23,4.24-1.72h0Z"/>
          <path class="cls-5" d="m-1.35,60.5c2.68,16.5,21.72,21.96,36.16,19.98,4.07-.56,7.91-1.62,11.67-3.27,4.1-1.8,7.17-4.85,11.03-6.85,2.17-1.13,4.81-.38,7.23-.94,1.67-.39,3.33-1.11,4.77-2.05,3.48-2.27,5.12-5.38,5.56-9.39.48-4.29-5.77-5.36-7.73-2.09-1.81,3.01-3.31,4.27-6.86,4.42-3.12.13-5.59.41-8.24,2.24-5.48,3.76-10.15,7.07-16.74,8.74-10.93,2.76-29.03.77-33.31-11.75-.78-2.27-3.92-1.34-3.55.98h0Z"/>
        </g>
      </g>
      <path class="cls-6" d="m33.63,24.08c2.32,1.36,5.03,1.92,7.69,1.52,6.36-.96,15.8-3.79,10.14-12.08C43.28,1.54,18.45-8.68,7.06,18.48-4.33,45.65-.24,81.87,31.01,78.07c31.25-3.8,18.46-16.9,27.1-13.96,10.88,3.7,14.02-18.99,1.75-18.11-12.27.88-8.11,5.78-21.84,9.87-13.73,4.09-21.76-9.86-20.92-14.99,1.11-6.79,6.76-22.52,16.53-16.8Z"/>
    </g>
  </g>
</svg>