<svg xmlns="http://www.w3.org/2000/svg" xmlns:xlink="http://www.w3.org/1999/xlink" viewBox="0 0 427.83 226.44"><defs><style>.cls-1,.cls-14,.cls-15,.cls-25,.cls-26,.cls-27,.cls-31,.cls-37,.cls-38{fill:none;}.cls-2{fill:#cdeb6b;}.cls-3{clip-path:url(#clip-path);}.cls-4{fill:#b0ad66;}.cls-5{fill:#def47c;}.cls-6{fill:#ceed74;}.cls-7{fill:#cbe76a;}.cls-8{fill:#3febbd;}.cls-9{fill:#3ad9a4;}.cls-10{fill:#dcf47c;}.cls-11{fill:#42ebbb;}.cls-12{fill:#35a19b;}.cls-13{fill:#4bdda0;}.cls-14,.cls-15{stroke:#4c4f12;}.cls-14,.cls-25,.cls-31,.cls-37{stroke-miterlimit:10;}.cls-14,.cls-15,.cls-25,.cls-26,.cls-31,.cls-37,.cls-38{stroke-width:3px;}.cls-15,.cls-26,.cls-27,.cls-38{stroke-linecap:round;stroke-linejoin:round;}.cls-16{fill:#559deb;}.cls-17{clip-path:url(#clip-path-2);}.cls-18{fill:#4974e0;}.cls-19{fill:#5ccdf4;}.cls-20{fill:#b679e6;}.cls-21{fill:#c4baf2;}.cls-22{fill:#5dccf4;}.cls-23{fill:#4976e1;}.cls-24{fill:#9b5adb;}.cls-25,.cls-26{stroke:#2a2866;}.cls-27{stroke:#4e5eb7;stroke-width:4px;}.cls-28{fill:#b4d93a;}.cls-29{opacity:0.48;}.cls-30{fill:#2e7400;}.cls-31{stroke:#1d1d1b;}.cls-32{fill:#3cd766;}.cls-33{clip-path:url(#clip-path-3);}.cls-34{opacity:0.52;}.cls-35{fill:#fff;}.cls-36{opacity:0.46;}.cls-37,.cls-38{stroke:#0f4f0c;}</style><clipPath id="clip-path"><path class="cls-1" d="M359.3,210.42s-.93-20.85,5.4-31.84,14-21,27.37-21.23,27,7.45,27.37,27.38S418,210.42,418,210.42Z"/></clipPath><clipPath id="clip-path-2"><path class="cls-1" d="M89.28,140.36s.51-15-7.74-35.87C73.64,84.55,60.8,68.33,64.86,48.05c.36-1.77.56-3.57.75-5.36.91-8.63,8-28.46,26.76-35,20.9-7.28,48-4.74,64,34.44s26.45,95.41,25.87,113.73-15.55,68.7-15.55,68.7L41,215.42s-27.85-27.65-28.38-54.85c0-.59,0-1.17,0-1.76,1.62-25.83,5.88-46.43,22.65-49.74,15.74-1.53,14.45,28.49,19.09,41.21s13.68,22.39,31.48,21.89S89.28,140.36,89.28,140.36Z"/></clipPath><clipPath id="clip-path-3"><path class="cls-1" d="M189,173.8c5.24-4.43,1.16-40.26-5.42-43.7a9.27,9.27,0,0,0-7.11-.94c-5.87-2.63-14.8.81-21.14,2.47-5.69,1.49-8,4.21-8.86,6.15-1.83.1-3.87,1.35-7,1.86-7,1.15-31.15,1.72-45.86-3.24s-14.13,5-13.74,8.59,5.61,4.39-1.16,14.12c-5.43,7.79,3.55,14.48,7.34,16.84a7.66,7.66,0,0,0,3.15,1.1c7,.86,35.44,4.23,53.48,4.39a32.5,32.5,0,0,0,.28,7.05c1.35,4.39,9.29,6.11,14.9,7.83l.11,0L156.34,215l11.5-.8.69,6.14s20.32,9,20.9-6.87c.4-10.89-3.17-26.57-5.43-35.29C185.53,176.82,187.27,175.3,189,173.8Z"/></clipPath></defs><g id="Calque_2" data-name="Calque 2"><g id="Cacti"><path class="cls-2" d="M359.3,211.48s-.93-20.85,5.4-31.84,14-21,27.37-21.22,27,7.44,27.37,27.37S418,211.48,418,211.48Z"/><g class="cls-3"><path class="cls-4" d="M419.75,204.89q0-.37,0-.75a1.23,1.23,0,0,1,0-.19.78.78,0,0,1,0-.16v-6.95a1.76,1.76,0,0,1,.66-1.44l0-.3a2.73,2.73,0,0,1,.23-.8c-1-5-1.9-10.1-1.62-15.2a2.3,2.3,0,0,1,.2-.82c-.06-.5-.11-1-.14-1.51l-4.34-8c-.35-.41-.71-.81-1.07-1.19a78.28,78.28,0,0,1-4,19.18c-.51,5.77-.47,7.86-5.73,8.94l-.94.1a8.83,8.83,0,0,1-1.48,1.93c-3.64,3.56-9.14,8.65-12.82,12.16,8.73,0,19.44.58,28.17.57,1-1.1,1.86-4.39,2.87-5.48A.13.13,0,0,1,419.75,204.89Z"/><path class="cls-5" d="M408.74,163.73a56.57,56.57,0,0,1-7.19-4.18,2,2,0,0,1-.47-.49H401c-4-.57-8.13-.17-12.18-.5a37.3,37.3,0,0,0-4.53,1.2h0a16.68,16.68,0,0,1-4.05,2.93,2,2,0,0,1-2.23-.22l-.27.15c-.83,2-1.55,4-2.53,6a31.78,31.78,0,0,1-2.65,3.82l3.15,4.51c3.82-3.5,7.41-7.3,11.53-10.36,2.53-1.88,5.88-3.65,8.87-3.67,4.72,0,9.45,1,14.18,1.77C409.77,164.33,409.27,164,408.74,163.73Z"/><path class="cls-5" d="M364.21,183.66l-4.27,4.9c-.21.54-.43,1.09-.65,1.63,0,.15,0,.29-.05.44-.49,5.88-.41,11.77-1.13,17.63h3.21Q365.15,197.12,369,186l-1.67-.6Z"/><path class="cls-6" d="M363.09,181.34c-.31.56-.62,1.12-.92,1.68-.76,1.84-1.49,3.69-2.23,5.54l4.27-4.9a3.31,3.31,0,0,0,0-.63C363.84,182.46,363.46,181.9,363.09,181.34Z"/><path class="cls-7" d="M419.72,205.19a1.79,1.79,0,0,1,0-.24l-3,3.29h2.84C419.63,207.22,419.71,206.2,419.72,205.19Z"/><path class="cls-8" d="M364.21,183.66a3.31,3.31,0,0,0,0-.63,16.79,16.79,0,0,1,6.88-10.73l1.43.1c2.44,1.15,3,1.72,3.15,4.51-.05.5-.1,1-.16,1.5l-3.7,6.06C369,186,369,186,367.3,185.35,366.05,185,365.16,185,364.21,183.66Z"/><path class="cls-9" d="M403.94,195.67a4.42,4.42,0,0,1-2.16-.11c-3.39-.92-4.47-2.16-4.65-5.38l3.33-.17c2.76-2,4.18-4.23,2.77-7.4,2.67-.34,4.75.51,6,3C410.94,190.35,407.89,193.08,403.94,195.67Z"/><path class="cls-10" d="M397.31,190.35a4,4,0,0,1-2.93-5.2,7,7,0,0,1,3.13-4.06c1.95-1,4.36-1,5.72,1.52C399.36,183.74,397.45,186.37,397.31,190.35Z"/><path class="cls-11" d="M397.31,190.35c.14-4,2.05-6.61,5.92-7.74.25.08.43.61.69.7,1.41,3.17.06,4.92-2.71,7a3.68,3.68,0,0,1-3.32.16A5.81,5.81,0,0,0,397.31,190.35Z"/><path class="cls-12" d="M409.67,186.73c.36,6.65-1.18,8.82-6.42,9.16a.1.1,0,0,1-.08-.16"/><path class="cls-13" d="M371.81,184.47l3.7-6.06C375.62,181.25,374.75,183.49,371.81,184.47Z"/></g><path class="cls-14" d="M359.3,211.16s-.93-20.85,5.4-31.84,14-21,27.37-21.22,27,7.45,27.37,27.37S418,211.16,418,211.16Z"/><line class="cls-15" x1="364.33" y1="193.66" x2="355.2" y2="195.34"/><line class="cls-15" x1="414.23" y1="188.82" x2="426.33" y2="188.08"/><line class="cls-15" x1="413.3" y1="180.07" x2="426.33" y2="178.95"/><line class="cls-15" x1="385.93" y1="163.5" x2="379.04" y2="154.37"/><path class="cls-15" d="M379,171.32s4.84-3.54,6.89,2.23"/><path class="cls-15" d="M394.86,174.86s5.59-5,8.57,1.67"/><path class="cls-15" d="M381.46,179.51s-2,7.64-7.26,6.33"/><path class="cls-15" d="M395.61,182.75s-4.1,2.35,1.12,8.49"/><path class="cls-14" d="M380,182.75s0,11.47,14,5.33"/><path class="cls-16" d="M89.09,140.64s.51-15-7.75-35.87C73.45,84.83,60.61,68.6,64.67,48.33c.36-1.77.56-3.57.75-5.36.91-8.64,8-28.46,26.76-35,20.9-7.29,48-4.74,64,34.44S182.62,137.84,182,156.16s-15.55,68.7-15.55,68.7L40.84,215.7S13,188.05,12.46,160.85c0-.59,0-1.18,0-1.76,1.61-25.83,5.88-46.44,22.65-49.74,15.74-1.53,14.45,28.49,19.09,41.21S67.93,173,85.73,172.44,89.09,140.64,89.09,140.64Z"/><g class="cls-17"><path class="cls-18" d="M153.18,195l-2.46-.75-1.4-.78-1.57-1.29-.75-.74c-.3-.3-.59-.61-.89-.92-.44-.5-.87-1-1.31-1.52l-.69-.85-.82-1.33c-.48-2-1-3.92-1.44-5.87l-7.57.71c-.91.52-1.73-1.48-2.51-1-1.52-.45-2.85,1.7-4.1,1.33-9.56-.64-18.29-3.17-27.85-3.81-2-.46-5,1.28-6.85.44-4.07-1.89-8.07-3.92-12.07-6a2,2,0,0,1-.84.52,5.29,5.29,0,0,1-1.72.26c1.27,2.3,2.59,4.66,4,7.28a79,79,0,0,1-8.73,1.11c-7.27.13-14.8,1.19-21.77-.29-13.41-2.86-23.72-10.63-30-23.36-2.49-5.07-5.59-9.84-8.5-14.69a3,3,0,0,1-.17.45,2.09,2.09,0,0,1,0,.25c0,.7-.12,1.39-.21,2.08-.05.46-.1.93-.13,1.39a3.55,3.55,0,0,1-.24,1c0,.21-.07.41-.11.61V150a3.87,3.87,0,0,1-.13.93v16.81a3.33,3.33,0,0,1,.48,1.74c0,.42,0,.83,0,1.23a3.38,3.38,0,0,1,.21.68c.06.33.14.66.21,1l.62.13c1.94,5.41,3.56,10.76,5.66,15.86,3.74,7.05,9.64,12.59,14,19.23l8.81,8.15c29.55,0,48.47,5.12,78,5.11,11.34,0,34.81,4,46.15,4,0-.69,1.74-17.55,1.78-18.24.44-3.25-10.64-7.67-10.2-10.92Z"/><path class="cls-18" d="M101.38,103.48q0-.37,0-.75L87.24,80.29l-.8-.71c-6.77-1.55-9.16-8-5.3-14.34a5.32,5.32,0,0,0,0-.69c-6.74-16.82-7.31-33.47.78-49.91a3.64,3.64,0,0,1-.95.83,3.1,3.1,0,0,1-.54.26l-.09.07a3.24,3.24,0,0,1-1.27.71l-.36.06c-1.44,2.13-2.83,4.31-4.29,6.43A3.54,3.54,0,0,1,73,24.21a39,39,0,0,1-4.51,7.3c-.4.94-.79,1.88-1.19,2.83a3.3,3.3,0,0,1,.51,2.48C66,46.56,62.61,58,64.75,68.09a3.54,3.54,0,0,1,.92,1.42,42.74,42.74,0,0,1,1.68,6.27c.1.33.21.66.32,1a2.53,2.53,0,0,1,2.54,1.7l.32.78h0v0c2.6,6.08,4.82,12.29,7.3,18.42a2.76,2.76,0,0,1,.2,1.2A3.27,3.27,0,0,1,79.25,100c5.65,9,6.56,19.7,9.72,29.66a2.81,2.81,0,0,1-.82,3.15c3.22,2.67,7.37,2.44,11.26,3.6,8.37,2.5,15.71,2.41,23.82,3,.57,0,1.63-1,2.18-.73l5.94.1h6.43l.6-1.41a14.38,14.38,0,0,1-1.92-1c-6.67-4.69-13.41-9.29-20-14.14-6-4.42-12.38-11.87-15.12-18.77-2.27-1.55,1.79,1.55,1.55,1.56"/><path class="cls-19" d="M115.72,4.8A70.39,70.39,0,0,0,90.08,9.62c-1.71.65-3.52,1.34-5.31,2.13.77.71,1.83-.2,3-.47,5.57-1.26,11.2-2.87,16.85-3C112.73,8,118.9,12.37,124,18.51c5.79,7,11.71,14,17.56,21a18.17,18.17,0,0,0-2.3,3.52,5.29,5.29,0,0,0-.79,2.38c-.12,1.35-.58,2.88-.33,4.2,7.34-4.85,14.62-2.39,16.14,5.65.38,2-.28,4.11-.46,6.18,2,4.25,4.46,8.36,6,12.78,5.32,14.82,10.3,29.77,15.54,44.63a72.32,72.32,0,0,0,3.88,7.91,17.08,17.08,0,0,0,0-3.35C176.89,110.4,173.34,98,171,85c-1.07-1.48-.61-2.85-1.09-4.74-.57-2.27-.77-5.55-2-7.55a2.9,2.9,0,0,1-.34-2.63c-4.08-9.25-7.81-18.67-12.06-27.85A91.16,91.16,0,0,0,131.6,10.55c.15-.61-2-1.07-1.9-1.63a6.07,6.07,0,0,1-2-1.25l-.62.68L116.82,4.6"/><path class="cls-19" d="M58,156.76a28.58,28.58,0,0,1-2.79-7.94,3.4,3.4,0,0,1-.08-.62,46.35,46.35,0,0,1-2.26-8.27c0-.17-.08-.33-.11-.5-.68-2.56-1.44-5.08-2.07-7.65a3.17,3.17,0,0,1-.08-.51,86.56,86.56,0,0,1-2-9.2v0h0c0-.29-.09-.58-.13-.87a3.43,3.43,0,0,1,0-.71c-.9-2.67-1.84-5.34-2.91-7.95a8.9,8.9,0,0,0-.63-.85,3.36,3.36,0,0,1-.44-.67.43.43,0,0,0-.38,0l-1-.67c-2.71-.3-5.62-1.35-8.07-.7-3.23.85-6.24,2.84-9.08,4.74-1.42,1-2.54,1.41-3.64.75a2.33,2.33,0,0,1,0,.37c0,.13-.05.24-.08.36a2.92,2.92,0,0,1-.25,2.51l-1,1.65a4.11,4.11,0,0,1-1.34,1.83,31.38,31.38,0,0,0-1.81,4.06l.44,1.24a73.28,73.28,0,0,0,6.55-5c6.44-6.19,12.15-5.68,16.48,2a50.41,50.41,0,0,1,4.07,10C48,142.91,51.84,151.16,58,158.23l.06-.88C58,157.16,58,157,58,156.76Z"/><path class="cls-20" d="M81.14,65.24a5.32,5.32,0,0,0,0-.69c2.24-2.62,4.53-5.16,8.38-5.14-.33,1.77-.66,3.55-.92,4.93,2.75,3.79,5.64,6.37,9.87,7-1.05,6.12-4.37,8.78-11.2,9l-.79-.71Q83.79,72.41,81.14,65.24Z"/><path class="cls-20" d="M153.11,61.48c-1.38,3.79-4.3,4.9-8,4.63a9.28,9.28,0,0,1-8.55-6.23c-1.29-3.37-1.65-6.82,1.5-9.6,2.2,1.25,4.42,3.56,6.61,3.54C150.25,53.77,151.47,57.66,153.11,61.48Z"/><path class="cls-21" d="M153.11,61.48c-1.64-3.82-2.86-7.71-8.46-7.66-2.19,0-4.41-2.29-6.61-3.54,0-.23,0-.47.05-.7,7.34-4.85,14.62-2.39,16.14,5.65.38,2-.28,4.11-.46,6.18A3,3,0,0,1,153.11,61.48Z"/><path class="cls-21" d="M98.43,71.33c-4.23-.62-7.12-3.2-9.87-7-.88-2.58-.28-3.8.92-4.93l1.49-.2c6,2.15,8.08,5.41,7.72,12.08Z"/><path class="cls-22" d="M98.69,71.29C99.05,64.62,97,61.36,91,59.21c4.92-2.82,10.14-.83,13,5C105.46,67.14,103.07,70.32,98.69,71.29Z"/><path class="cls-23" d="M133,81.15c1.48,4.17,1.34,7-1.44,8.35s-5.84-1-8-3.94c1.77-3.78,4.28,1.68,6-.17C131.29,84.21,131.32,82.32,133,81.15Z"/><path class="cls-24" d="M81.14,65.24q2.64,7.17,5.3,14.34C79.67,78,77.28,71.56,81.14,65.24Z"/></g><path class="cls-25" d="M89.23,140.64s.51-15-7.74-35.87C73.59,84.83,60.75,68.6,64.81,48.33c.36-1.77.56-3.57.75-5.36.91-8.64,8-28.46,26.76-35,20.9-7.29,48-4.74,64,34.44s26.45,95.41,25.87,113.73-15.55,68.7-15.55,68.7L41,215.7S13.13,188.05,12.6,160.85c0-.59,0-1.18.05-1.76,1.62-25.83,5.88-46.44,22.65-49.74,15.74-1.53,14.45,28.49,19.09,41.21S68.07,173,85.87,172.44,89.23,140.64,89.23,140.64Z"/><path class="cls-26" d="M87.68,45.74s8.51-12.21,17.54-1.53"/><path class="cls-26" d="M117,40.64s2.19-14.39,14.51-4.66"/><path class="cls-26" d="M101.35,59.22s11.36,11.2,3.87,19.59"/><path class="cls-26" d="M131.54,50.83S122.77,63,140.83,69"/><path class="cls-26" d="M106.71,67.24s7.29,12.59,18,7.5,5.76-13,5.76-13"/><path class="cls-26" d="M121.35,83.27s3.74,2.73,7.35,1.4,4-4.2,4.33-6.3"/><line class="cls-27" x1="135.12" y1="105.78" x2="144.7" y2="117.23"/><line class="cls-27" x1="142.65" y1="101.46" x2="157.86" y2="112.65"/><line class="cls-26" x1="163.18" y1="78.37" x2="176.56" y2="71.69"/><line class="cls-27" x1="106.71" y1="98.66" x2="97.48" y2="107.06"/><line class="cls-26" x1="125.35" y1="15.72" x2="133.03" y2="1.5"/><line class="cls-26" x1="72.2" y1="35.05" x2="55.68" y2="28.18"/><line class="cls-26" x1="77.01" y1="22.33" x2="63.94" y2="10.55"/><line class="cls-26" x1="55.68" y1="165.13" x2="63.94" y2="152.53"/><line class="cls-27" x1="75.55" y1="190.51" x2="84.07" y2="198.14"/><line class="cls-27" x1="82.78" y1="183.89" x2="93.36" y2="195.34"/><line class="cls-27" x1="31.43" y1="157.01" x2="34.53" y2="147.25"/><line class="cls-26" x1="26.79" y1="121.56" x2="19.05" y2="111.51"/><line class="cls-26" x1="22.92" y1="128.68" x2="10.01" y2="117.23"/><line class="cls-26" x1="19.05" y1="170.47" x2="1.5" y2="165.13"/><path class="cls-28" d="M173.06,131.41s4.06-4.57,10.64-1.14,10.66,39.27,5.42,43.7-10.26,9.16-10.26,9.16Z"/><g class="cls-29"><path class="cls-30" d="M187.5,174.11c1.84-.83,2.34-3,2.93-4.77a55.62,55.62,0,0,0,1.58-6.51c.87-4.31-5.82-5.14-5.89-.79a43.55,43.55,0,0,1-.66,6.34c-.31,1.83-.93,3.48,0,5.2a1.51,1.51,0,0,0,2,.53Z"/></g><path class="cls-31" d="M173,131.08s4.06-4.58,10.64-1.15,10.66,39.27,5.42,43.7-10.26,9.16-10.26,9.16Z"/><polyline class="cls-28" points="158.74 189.04 156.41 215.19 170.15 214.23 167.83 183.89 159.51 190"/><path class="cls-32" d="M156.65,213.45c2.93,1.06,6.4.64,9.47.6,5.31-.05,4.5-8.32-1-7.35-3,.54-6.37.77-9.05,2.36a2.43,2.43,0,0,0,.58,4.39Z"/><polyline class="cls-31" points="158.67 188.71 156.35 214.85 170.09 213.89 167.76 183.55 159.44 189.66"/><path class="cls-28" d="M182.28,171.87s7.81,25.95,7.23,41.79-20.9,6.87-20.9,6.87L163.8,178Z"/><path class="cls-32" d="M165.52,203.15c1.76,2.78,7,1.35,9.64,1,3.72-.46,8.67-1.19,11.7-1.44,1.81-.15,3.73-1.88,3-3.9-1.87-5-9.85-2-13.65-1.25-1.56.3-13,1.83-10.66,5.57Z"/><path class="cls-32" d="M171.32,221.51c5,.23,9.94.41,14.91.43,3.87,0,3.87-6,0-6-5,0-9.94-.2-14.91-.43-3.86-.19-3.85,5.81,0,6Z"/><path class="cls-31" d="M182.21,171.53s7.81,25.95,7.23,41.79-20.9,6.87-20.9,6.87l-4.81-42.55Z"/><path class="cls-28" d="M146,140.19s0-5.91,9.49-8.39,24.77-9,26.9,6.87,5.41,42.55-2.71,47.32S163.57,198.2,158,196.48s-13.54-3.43-14.9-7.82S145.19,142.77,146,140.19Z"/><path class="cls-32" d="M152.4,140.78c4.44-.44,8.56-2.13,13-2.46,5-.38,9.54.76,14.36,1.93,3.11.75,5.44-3.94,2.28-5.4-8.6-4-24-4-30.49,4-.55.68-.28,2.07.81,2Z"/><path class="cls-32" d="M159,158.78c2.91,1.69,6.26.21,9.33-.5,5-1.15,9.14-1.45,14.07.15,4,1.29,5.51-4.76,1.7-6.19a23.76,23.76,0,0,0-13.94-.74c-3.58.85-9.79,2.15-11.57,5.71a1.17,1.17,0,0,0,.41,1.57Z"/><path class="cls-32" d="M158.07,179.36c1.41,2.95,6.67,3.27,9.51,3.78q6.72,1.2,13.5,2.06c3.5.46,4.37-5.73.84-6.22-4.51-.62-9-1.21-13.55-1.71-2.89-.33-7.9-1.55-10.14.87a1,1,0,0,0-.16,1.22Z"/><path class="cls-32" d="M142,184.59c.82,3.5,4.49,5.59,7.4,7.26a42.43,42.43,0,0,0,10.63,4.41c4.51,1.14,6.43-5.92,1.92-6.95a43.1,43.1,0,0,1-9.75-3.42c-2.73-1.37-5.32-3.49-8.46-3.58a1.83,1.83,0,0,0-1.74,2.28Z"/><path class="cls-31" d="M145.9,139.86s0-5.92,9.48-8.4,24.77-9,26.9,6.87,5.42,42.55-2.71,47.32-16.06,12.22-21.68,10.5-13.54-3.44-14.9-7.83S145.12,142.43,145.9,139.86Z"/><path class="cls-28" d="M89.3,177.22a7.86,7.86,0,0,1-3.15-1.1c-3.79-2.36-12.76-9.05-7.34-16.85,6.78-9.73,1.55-10.49,1.17-14.12s-1-13.54,13.74-8.58,38.89,4.39,45.86,3.24,8.51-5.91,14.32,6.3,10.64,28.62,3.48,33.77C150.9,184.55,99.08,178.42,89.3,177.22Z"/><path class="cls-32" d="M122.11,144c6.9,6,.12,11.61-1.43,18.17s1.14,12.61,4.6,17.89c2.1,3.21,7.3.21,5.18-3-2.55-3.89-5-8.44-4-13.26.72-3.43,3.32-6.14,4.23-9.56a13.75,13.75,0,0,0-4.35-14.45c-2.9-2.53-7.16,1.7-4.24,4.24Z"/><path class="cls-32" d="M97,141.52c7,6.26.73,13.36-.06,20.84-.67,6.4,1.11,12.36,6,16.66,2.89,2.55,7.15-1.68,4.25-4.24-6.65-5.84-4.32-13.81-1.58-21,2.28-6,.39-12.26-4.36-16.51-2.87-2.57-7.13,1.66-4.25,4.24Z"/><path class="cls-32" d="M146.66,140.81c4.4,6.93,7,15.08,5.08,23.26-1,4.25-3.17,7.52-5.53,11.09-1.44,2.19-2.18,3.56-.79,6a2.52,2.52,0,0,0,4.3,0c4.12-7.29,8.27-13.22,8-22.08a26.44,26.44,0,0,0-9.17-19.7c-1-.83-2.65.23-1.88,1.45Z"/><path class="cls-31" d="M89.24,176.88a7.7,7.7,0,0,1-3.16-1.1c-3.78-2.36-12.76-9.05-7.33-16.84,6.77-9.73,1.54-10.5,1.16-14.12s-1-13.55,13.74-8.59,38.89,4.39,45.86,3.24,8.51-5.91,14.32,6.3,10.64,28.62,3.48,33.78C150.83,184.21,99,178.09,89.24,176.88Z"/><g class="cls-33"><g class="cls-34"><path class="cls-35" d="M81.81,140.21c10.1,4.75,20.45,8,31.74,8.79,11.59.84,23.51-1.26,35-2.42a4.35,4.35,0,0,0,4-3.06c1.68-5.38,12.41-7.65,17-6.83,5.26.94,9.58,2.67,15,1.57s3-9.19-2.22-8.09a46,46,0,0,0-5.76,1.62,4.45,4.45,0,0,0-3,5.35c1.93,7.82,4.47,15.25,5.29,23.31.78,7.58.38,15.26,1.28,22.81a2.35,2.35,0,0,0,4.69,0c1-8.17-.31-16.55-1-24.71-.68-8-.63-15.79-1.85-23.72l-3.05,5.36a46.14,46.14,0,0,0,5.67-1.93l-3.23-7.66c-3.2,1.79-7.83-1.59-11-2.23a20.17,20.17,0,0,0-11.15,1.21c-6.07,2.26-12.49,5.13-14.6,11.72l4-3.06c-10.67,1-21.54,2.69-32.27,2.36-11-.33-21.82-3.4-32.62-4.85-2.44-.33-4.64,3.16-1.87,4.46Z"/></g><g class="cls-36"><path class="cls-30" d="M82.41,155.65c17.61,10.4,39.18,10.7,59,9.24,5.46-.4,5.61-8.6,0-8.6-10.32,0-20.93-1.24-31.19-2.47-8-.95-17.94-4.54-25.76-1.66a11.82,11.82,0,0,0-7.1,16c3.09,7.36,10.63,9.54,17.93,10.21,9.9.91,19.86,1.36,29.77,2,4.57.31,9.15.6,13.72.84l7.85.42c1.11.06,7.22-.35,7.84.41-.36-.44-.09,3.22,0,3.58a8.49,8.49,0,0,0,2.09,3.89c2.25,2.24,4.67,1.76,7.47,2.35,1.13.37,1.46.25,1-.37.12,1.28.23,2.57.32,3.85.16,2.57.29,5.14.46,7.71.34,5.14.48,10.3.64,15.46l9-2.45a41.81,41.81,0,0,1-7.8-19.88c-.57-5.79-9.29-6.06-9.23,0,0,1.38,1,10.19,0,11.09l3.32-1.37-.89.07,4.53,5.95c1.48-7.17,3.54-13.64-.28-20.49a19.7,19.7,0,0,0-15.47-9.92c-5.18-.58-5.51,7-1.16,8.59a12.33,12.33,0,0,1,5,3.46l3.13-7.55c-8.43.89-4-8.78-9.09-12.28s-14.51-1.33-20.21-.79c-6.19.58-15.27,2.38-21.12-.34-2.14-1-3.84-3.11-5.52-4.71-.67-.64-2.68-1.87-3-2.7-.76-.57-.6-.48.49.29a22.71,22.71,0,0,1,1.8-2.34c2.61-3.12.25-8.72-4.26-7.32S84.93,159,82.6,163.43l3.51-2h-.68l2.87,1.19c.47.87.43.4-.13-1.41l-.66-3.52c-.45-2.34-.91-4.68-1.33-7s-1.06-4.79-.41-7.27c.18-.68,1-3.56,1.76-3.76l-3.18-7.54c-4.51,2.44-5.92,8.34-5.58,13.13.46,6.56,5.59,10.43,10.81,13.62,4.5,2.75,8.57-4.28,4.12-7-2.58-1.6-6-3.38-6.69-6.58-.33-1.56-.08-5.15,1.51-6,4.16-2.25,1.3-8.71-3.18-7.54-6.72,1.75-8.72,11.32-7.83,17.16.73,4.86,1.77,9.73,2.81,14.53.71,3.28,2,6.15,5.79,6.19a4,4,0,0,0,3.5-2c1.14-2.22,6.15-2.62,8.41-3.26L93.76,157c-2.24,2.55-4.9,5.45-5,9s2.33,5.19,4.74,7.36c2.57,2.34,5,5.15,8,6.86,3.74,2.06,8.86,2.29,13,2.38a128.56,128.56,0,0,0,14.53-.94c2.83-.27,11.5-1.58,12.47,0,.68,1.14.47,3.6,1.08,5a14.42,14.42,0,0,0,3.34,4.69,13.29,13.29,0,0,0,10.68,3.52c3.64-.46,6.05-4.58,3.13-7.55a23.33,23.33,0,0,0-9-5.64l-1.16,8.58A10.57,10.57,0,0,1,158,197.3c1.35,4-.9,8.17-1.66,12.12-.52,2.72,1.26,6.25,4.54,6,9.32-.87,7-12.61,6.83-19.19h-9.23A53.45,53.45,0,0,0,167.14,221c2.57,3.8,9.1,2.62,9-2.44a189.55,189.55,0,0,0-2.26-26.27c-.46-3-.81-5.71-3.31-7.68a8,8,0,0,0-3-1.51c-1.26-.33-3.71.29-4.74-.24l.15.47c-.09-.78-.16-1.55-.2-2.33a10.66,10.66,0,0,0-1-3.8c-1.3-2.44-3.39-3.41-6-3.93-8.59-1.71-18.05-1.6-26.8-2.2l-26.47-1.81c-3.68-.25-7.71-.13-11.28-1.19-3.21-1-8-5-2.87-7,3.5-1.31,9.23.73,12.83,1.27q6.44,1,12.92,1.66c9.15,1,18.13.78,27.3.9v-8.6c-19.42,1.15-38.2.09-56.88-5.74-3-1-4.84,3.51-2.15,5.1Z"/></g></g><path class="cls-37" d="M176,128.4c10.49-3.84,12.5,10,13.89,16.93,2,9.69,3.95,22.6-3.89,30.21"/><path class="cls-37" d="M157.68,196.87l-1.57,17.67,10.81-.75"/><path class="cls-37" d="M183.63,177.21a26.59,26.59,0,0,1-3,6.66,3.16,3.16,0,0,1-1,1,7.84,7.84,0,0,1-.54.61,14.74,14.74,0,0,1-4.93,2.92,41.25,41.25,0,0,1-8.84,5.35l3,26.12s20.32,9,20.9-6.87C189.61,201.9,185.89,185.81,183.63,177.21Z"/><path class="cls-37" d="M145.66,139.55s0-5.92,9.48-8.4,24.77-9,26.9,6.87,5.42,42.55-2.71,47.33-16.06,12.21-21.67,10.49-13.55-3.43-14.9-7.82a33.1,33.1,0,0,1-.29-7.06"/><path class="cls-37" d="M145.14,137.48c2.76-.69,4.74.17,8.45,8,5.81,12.22,10.65,28.63,3.49,33.78-6.49,4.66-58.31-1.46-68.08-2.66a7.67,7.67,0,0,1-3.15-1.11c-3.79-2.35-12.77-9.05-7.34-16.84,6.77-9.73,1.55-10.49,1.16-14.12s-1-13.55,13.74-8.59,38.9,4.39,45.86,3.25a52.52,52.52,0,0,0,5.87-1.69"/><path class="cls-38" d="M97.28,153.29s6.39,4.2,17.42,3.05,31.35-1.53,31.93,3-14.52,6.49-14.52,6.49"/></g></g></svg>