<?xml version="1.0" encoding="UTF-8"?>
<svg id="Calque_2" data-name="Calque 2" xmlns="http://www.w3.org/2000/svg" xmlns:xlink="http://www.w3.org/1999/xlink" viewBox="0 0 110.22 93.52">
  <defs>
    <style>
      .cls-1, .cls-2 {
        fill: none;
      }

      .cls-1, .cls-3 {
        stroke: #131e3e;
        stroke-linecap: round;
        stroke-linejoin: round;
        stroke-width: 2.01px;
      }

      .cls-4 {
        fill: #848484;
      }

      .cls-4, .cls-5, .cls-2 {
        stroke-width: 0px;
      }

      .cls-5 {
        fill: #782d3e;
      }

      .cls-6 {
        opacity: .3;
      }

      .cls-7 {
        clip-path: url(#clippath);
      }

      .cls-3 {
        fill: #fff;
      }
    </style>
    <clipPath id="clippath">
      <path class="cls-2" d="m13.83,87.71c-1.46,0-13.73-3.51-12.85-13.44C1.86,64.34,22.01,2.41,23.18,2.41s76.24-6.43,80.04,8.18c1.82,6.99,3.37,10.5,4.49,12.26,1.16,1.81,1.65,3.97,1.34,6.1-2.03,13.95-9.34,57.03-22.78,61.68-16.07,5.55-72.44-2.92-72.44-2.92Z"/>
    </clipPath>
  </defs>
  <g id="Layer_1" data-name="Layer 1">
    <g>
      <path class="cls-3" d="m13.9,87.71c-1.46,0-13.73-3.51-12.85-13.44C1.93,64.34,22.08,2.41,23.25,2.41s76.24-6.43,80.04,8.18c1.82,6.99,3.37,10.5,4.49,12.26,1.16,1.81,1.65,3.97,1.34,6.1-2.03,13.95-9.34,57.03-22.78,61.68-16.07,5.55-72.44-2.92-72.44-2.92Z"/>
      <path class="cls-3" d="m102.13,8.48c.55.73-26.37,65.89-16.37,71.05,10.01,5.17,18.02-47.68,18.02-47.68,0,0-10.35,10.45-14.02,38.49"/>
      <path class="cls-4" d="m24.54,26.66c2.33-5.39,4.31-10.91,6.97-16.16l-2.83-.37c.85,5.38-.9,10.73.03,16.16.3,1.77,3.03,2.02,3.82.5,1.84-3.58,3.66-7.16,5.43-10.77,1.47-3,3.31-5.91,3.62-9.28.13-1.46-1.8-2.01-2.74-1.13-2.49,2.34-3.64,5.79-5.1,8.82-1.65,3.4-3.24,6.83-4.81,10.26l3.82.5c-1.13-5.21-.05-10.6-1.06-15.87-.25-1.28-2.26-1.54-2.83-.37-2.67,5.43-5.01,11.04-5.85,17.07-.12.85,1.13,1.63,1.55.65h0Z"/>
      <path class="cls-4" d="m51.41,7.78c-2.83-.53-6.74-1.06-8.44,1.73-2.33,3.83-3.4,9.21-4.79,13.46-1.03,3.13-.44,4.87,2.91,5.85,3.58,1.05,8.2,1.55,11.24-.92.97-.79.4-2.48-.73-2.76-2.14-.53-4.2,0-6.37-.18-.12,0-4.15-1.17-3.11.48-.3-.47,1.28-3.8,1.49-4.44.85-2.53,1.74-5.06,2.51-7.62.19-.64.38-1.28.56-1.92.46,0,.91-.05,1.36-.12,1.03-.39,2.29-.37,3.37-.74,1.25-.43,1.53-2.54,0-2.82h0Z"/>
      <path class="cls-4" d="m43.35,19.58c3.29-.22,6.84,1.29,9.79-.87.83-.61,1.12-2.06,0-2.61-3.43-1.68-6.37.36-9.79.74-1.71.19-1.79,2.85,0,2.74h0Z"/>
      <path class="cls-4" d="m60.92,6.93c-3.7,6.96-5.3,14.61-5.57,22.45-.06,1.77,1.99,2.21,3.16,1.31.7-.54,1.4-1.08,2.1-1.62l1.73-1.33-.98-.08c.67.62.87,1.49,1.79,1.97,1.73.9,3.91.22,5.19-1.1,2.28-2.36,2.41-6.64,3.03-9.67.71-3.47,2.12-7.71.86-11.14-.23-.63-1.06-.98-1.58-.42-2.02,2.2-2.43,5.15-3.01,8.02-.47,2.31-.49,8.6-2.39,9.82-1.58,1.01-.42-.32-1.76-.69-.53-.14-.99-.44-1.57-.44-2,.02-4.21,2.68-5.65,3.78l2.78,1.6c.29-7.43,1.93-14.43,4.12-21.5.41-1.32-1.59-2.18-2.24-.94h0Z"/>
      <path class="cls-4" d="m84.51,10.28c-2.87-4.25-10.77-1.84-10.73,3.35.02,2.74,2.22,4.1,4.56,4.85,2.05.66,5.69.97,3.44,4.45-1.38,2.14-3.42,2.33-5.56,1.47-2.39-.96-3.88,2.44-2.36,4.06,4.48,4.78,12.87-.77,13.88-6.18.52-2.78-1.1-5.45-3.46-6.83-1.33-.78-3.58-.66-4.69-1.49-2-1.5,2.1-2.7,3.15-1.9s2.47-.74,1.77-1.77h0Z"/>
      <path class="cls-4" d="m20.96,39.02c2.35,1.27,4.84,1.86,7.48,2.22.63.09,4.08.02,4.36.41-.99-1.35-1.3,1.8-1.48,2.4-.62,1.97-1.73,5.78-2.97,6.13-1.14.32-2.9-.04-4.08-.05-1.51-.02-3.29.2-4.77-.18l1.75,1.34c-.09-.2,1.1-4.27,1.22-4.92.37-1.96.73-3.93,1.14-5.89l-4.48,1.82.44.3-1.42-1.85c.35,1.27-.5,3.83-.68,5.16-.52,3.7,3.17,6.02,6.16,3.59.76-.62,1.33-1.41,1.8-2.27.19-.41.38-.83.56-1.25.47-.7.38-.79-.28-.27l-4.76-4.76c-.53,2.21-1.2,4.38-1.87,6.55-1.39,4.46,5.43,7.44,7.61,3.21,1.21-2.35,2.5-4.61,4-6.78l-8.12-2.2c-.19,2.14-.7,4.18-1.38,6.22-1.4,4.24,4.48,7.56,7.47,4.35,1.82-1.95,2.97-3.93,3.87-6.44l-8.32,1.09c.51,1.18,1.15,2.12,2.13,2.96,3.77,3.23,9.2-.76,6.89-5.32-.38-.76-.81-1.47-1.16-2.24-1.77-3.78-7.2-2.33-8.32,1.09-.33,1-.72,1.74-1.42,2.53l7.47,4.35c.84-2.81,1.29-5.67,1.47-8.59.27-4.56-5.91-5.59-8.12-2.2-1.65,2.54-2.98,5.15-4.09,7.96l8.03,2.22c.46-2.23.85-4.47,1.29-6.71.54-2.74-1.75-5.7-4.76-4.76-1.55.49-2.8,1.34-3.68,2.73-.63,1.01-.76,2.42-1.56,3.3l6.29,2.61c-.04-2.95.93-8.36-2.49-9.85-1.58-.69-4.15-.33-4.48,1.82-.51,3.36-1.16,6.71-1.74,10.06-.38,2.18-1.03,4.93,1.26,6.36s6.32.56,8.77.54,5.07.35,6.76-1.6c1.6-1.84,2.44-4.84,3.16-7.13.69-2.16,2.07-5.62,1.24-7.91-.69-1.91-2.57-2.38-4.38-2.44-3.68-.13-7.53-.38-11.2-.11-1.19.09-1.83,1.73-.64,2.37h0Z"/>
      <path class="cls-4" d="m47.76,42.9c.83.29,1.63,1.08,2.73,1.31.48-.12.97-.21,1.46-.3.24.37.55.67.91.91.74.19,1.37.44,2.14.49,1.43.09,2.28-.78,3.94-.65,1.87.15,2.52.62,4.49.53,3.42-.15,7.55.16,10.73-1.18,1.25-.53,1.64-2.59,0-2.96-3.2-.72-6.09.51-9.34.41-3-.09-5.6-1-8.54-.76-1.23.1-1.14.2-2.22-.04-.41-.09-.86-.45-1.33-.55-1.42-.3-3.69.48-4.97,1-.83.34-.91,1.46,0,1.77h0Z"/>
      <path class="cls-4" d="m44.02,54.61c1.83.19,3.49.58,5.35.38,1.25-.14,2.05-1.89.7-2.59-2.13-1.11-4.15-.93-6.39-.29-1.46.42-1.04,2.36.34,2.5h0Z"/>
      <path class="cls-4" d="m55.04,55.5c.67,0,.67-1.04,0-1.04s-.67,1.04,0,1.04h0Z"/>
      <path class="cls-4" d="m53.7,54.97c.67,1.31,1.55,1.33,2.86,1.38,1.5.06,2.9.66,4.45.66.82,0,1.58-.37,2.37-.49,1.5-.23,1.98.18,3.32.5,1.91.45,4.71-.58,6.36.15,2.18.97,4.99-1.79,2.8-3.63-1.52-1.28-2.74-1.46-4.66-1.29-1.33.12-1.88.33-3.2-.04-.81-.22-1.39-.76-2.3-.86-2.23-.26-4.02,1-6.28.75-.34-.04-4.68.38-3.61,1.25-1.16-.95-2.84.21-2.11,1.63h0Z"/>
      <path class="cls-4" d="m15.01,67.6c2.73,2.38,6.59,3.42,10.16,3.59,2.41.12,4.73-.16,7.11.28,1.47.27,2,.59,3.29-.32,1.51-1.06.66-3.87-1.34-3.19-1.02.34-3.42-.07-4.48-.06-1.86.01-3.53-.1-5.39-.4-2.89-.46-5.72-1.36-8.63-1.64-.86-.08-1.35,1.17-.72,1.73h0Z"/>
      <path class="cls-4" d="m36.91,71.13c1,1.71,3.15,1.71,4.66.64s1.2-.11,2.71.53c.51.22,3.77.12,3.87.36.85,1.99,4.02.56,3.45-1.45-.73-2.59-3.26-2.99-5.61-2.72-1.33.15-2.39-.54-3.72-.38-.74.09-3.38,1.79-3.81,1.47-.95-.69-2.08.63-1.55,1.55h0Z"/>
      <path class="cls-4" d="m54.37,72.61c4.67.6,9.36,1,14.06,1.25,2.73.14,2.97-3.72.61-4.54-4.31-1.5-10.25-.45-14.67.03-2.11.23-2.07,2.99,0,3.25h0Z"/>
      <path class="cls-4" d="m15.29,81.33c-.11.33,2.55,1.64,2.92,1.7.57.1,1.01.05,1.55-.12.47-.15,1.07-.84,1.51-.87.71-.05,1.65.91,2.51,1.16,1.27.37,2.26.19,3.41-.41s.52-2.27-.64-2.37c-1.28-.11-1.92-.44-2.98-1.08-.56-.34-.89-.64-1.57-.72-1.37-.18-1.83.84-2.97,1.21-1.22.4-2.65-.89-3.99-.71-1,.14-1.61.69-1.89,1.64-.4,1.38,1.69,1.93,2.14.59h0Z"/>
      <path class="cls-4" d="m40.19,84.05c2.78,1.28,5.55,1.76,8.61,1.75,1.18,0,3.38.87,4.09-.43.35-.63.19-1.25-.23-1.78-1.02-1.28-2.6-1.54-4.14-1.58-2.63-.06-5.26.08-7.87.33-.8.08-1.38,1.29-.46,1.71h0Z"/>
      <path class="cls-4" d="m55.04,85.85l1,.02c.44.01.87-.4.85-.85s-.37-.86-.85-.85l-1,.02c-.43.01-.85.37-.83.83s.36.81.83.83h0Z"/>
      <path class="cls-4" d="m58.42,85.72c1.82.97,3.27,1.27,5.25,1.77s3.75,1.12,5.74.9c1.2-.13,2.17-2.02.71-2.64-1.85-.78-3.7-.83-5.67-.95-2.13-.13-3.79-.32-5.91.02-.43.07-.47.72-.12.91h0Z"/>
      <g class="cls-6">
        <g class="cls-7">
          <path class="cls-5" d="m102.83,8.34c-4.43,5.62-6.89,12.81-9.63,19.37-3,7.19-5.78,14.5-8.56,21.78s-5.09,14.15-6.22,21.61c-.88,5.84-2.56,14.74,2.96,18.8,12.98,9.56,19.14-16.16,21.78-23.55,5.04-14.14,9.49-28.55,13.15-43.12,1.48-5.89-5.47-9.52-9.81-5.71-3.99,3.5-5.89,8.35-4.99,13.57.33,1.91,2.14,3.27,3.85,3.85,6.46,2.17,6.19-6.37,9.45-9.11l-9.81-5.71c-3.06,11.18-6.28,22.3-9.96,33.3-1.79,5.34-3.65,10.67-5.59,15.96-.97,2.64-1.94,5.29-2.97,7.91s-1.79,2.32.96,3.66c3.19,1.54,1.97,0,2.07-2.73.42-11.34,5.06-22.34,8.85-32.88,2.1-5.83,4.23-11.65,6.14-17.55,1.78-5.49,3.94-11.2,4.22-17,.13-2.79-4.01-4.81-5.88-2.43h0Z"/>
          <path class="cls-5" d="m85.92,80.03c-2.15,1.88-6.8,2.52-9.58,2.98-3.4.57-6.92.64-10.36.89-7.26.54-14.46.76-21.74.46s-14.63-1.15-21.84-2.67-13.97-4.21-21.1-5.35c-.46,3.39-.92,6.78-1.38,10.17,1.2-.31,2.31-.12,3.35.56,5.42,2.76,9.71-4.69,4.74-8.1-2.1-1.44-4.21-2.22-6.71-2.63-5.57-.9-9.27,6.19-3.99,9.46,7.44,4.61,17,6.51,25.51,7.99,8.25,1.44,16.67,2.34,25.05,2.25s16.81-.74,24.82-2.85c3.2-.84,6.73-1.85,9.62-3.5,3.15-1.79,4.64-4.49,6.35-7.55.99-1.78-1.27-3.4-2.74-2.11h0Z"/>
        </g>
      </g>
      <path class="cls-1" d="m13.9,87.71c-1.46,0-13.73-3.51-12.85-13.44C1.93,64.34,22.08,2.41,23.25,2.41s76.24-6.43,80.04,8.18c1.82,6.99,3.37,10.5,4.49,12.26,1.16,1.81,1.65,3.97,1.34,6.1-2.03,13.95-9.34,57.03-22.78,61.68-16.07,5.55-72.44-2.92-72.44-2.92Z"/>
    </g>
  </g>
</svg>