<?xml version="1.0" encoding="UTF-8"?>
<svg id="Calque_2" data-name="Calque 2" xmlns="http://www.w3.org/2000/svg" xmlns:xlink="http://www.w3.org/1999/xlink" viewBox="0 0 99.53 58.91">
  <defs>
    <style>
      .cls-1 {
        opacity: .31;
      }

      .cls-2 {
        fill: #eefdf3;
      }

      .cls-2, .cls-3, .cls-4, .cls-5, .cls-6 {
        stroke-width: 0px;
      }

      .cls-7 {
        fill: #93d073;
      }

      .cls-7, .cls-8 {
        stroke: #004900;
        stroke-linecap: round;
        stroke-linejoin: round;
        stroke-width: 2.52px;
      }

      .cls-3 {
        fill: #782d3e;
      }

      .cls-8, .cls-5 {
        fill: none;
      }

      .cls-9 {
        opacity: .35;
      }

      .cls-4 {
        fill: #004900;
      }

      .cls-10 {
        clip-path: url(#clippath-1);
      }

      .cls-11 {
        clip-path: url(#clippath);
      }

      .cls-6 {
        fill: #effdf3;
      }
    </style>
    <clipPath id="clippath">
      <path class="cls-5" d="m30.17,57.65s1.75-22.78,19.86-22.2,21.03,22.2,21.03,22.2h26.87S97.93,3.32,50.03,1.57C2.12-.18.96,57.65.96,57.65h29.21Z"/>
    </clipPath>
    <clipPath id="clippath-1">
      <path class="cls-5" d="m30.47,57.65s1.75-22.78,19.86-22.2,21.03,22.2,21.03,22.2h26.87S98.24,3.32,50.33,1.57C2.43-.18,1.26,57.65,1.26,57.65h29.21Z"/>
    </clipPath>
  </defs>
  <g id="Layer_1" data-name="Layer 1">
    <g>
      <path class="cls-7" d="m30.47,57.38s1.75-22.78,19.86-22.2c18.11.58,21.03,22.2,21.03,22.2h26.87S98.24,3.05,50.33,1.3C2.43-.46,1.26,57.38,1.26,57.38h29.21Z"/>
      <g class="cls-11">
        <g>
          <g class="cls-1">
            <path class="cls-4" d="m77.04,49.76c-.05-.02-.7-.42-.61-.41-.1,0-.01.1-.04.1.05,0-.29,1.22-.7,1.46s-.67.17-1.09.11c.56.07.08,0-.23-.15-.15-.07-.27-.19-.35-.34l.19.34c-.16-.41-.19-.46-.08-.16.06.19.12.38.17.57.09.32.12.66.23.97.18.49.14-.87,0,0,.81-5.36,6.78-2.95,3.79-3.83-.16-.05-1.27-.4-.49-.13.86.3-.41-.12-.42-.25.53.46.65.55.35.28-.29-.29-.21-.16.25.39l.31.8c-.11-.44-.11-.39-.01.15-.05,1.26-.05,2.2-1.69,3.13l-.88.36c-1.29.43-2.31.27-3.07-.49-.29-.26-.28-.25.04.05l-.48-.64c.6.98-.27-1.23-.03-.14-.37-1.7.21-2.08,1.51-3.39.75-1.46,1.91-1.98,3.47-1.56l.65.25c.56.49.68.59.37.31-.15-.13-.29-.27-.42-.43l.43.54c-.25-.46-.27-.47-.06,0,.06.7.3,1.29.08,2.02-.58,1.97-2.74,3.26-4.66,2.37-.59-.27-.98-.64-1.31-1.19.64,1.06-.16-1.11.06.12-.45-2.56,2.39-5.71,5.03-5.25,1.06.18,2.15.73,2.77,1.64.72,1.08.24.25.06-.23-.4-1.12-.96-1.94-1.73-2.86-2.17-2.58-7.45-2.03-8.85,1.14-.86,1.95-1.2,3.62-.63,5.72.41,1.5,1.2,3.02,2.31,4.12,2.37,2.35,6.22,2.99,9.16,1.35,5.94-3.3,3.92-12.06-1.25-15.01-5.47-3.12-12.83.74-12.67,7.22.14,5.6,6.08,11.21,11.82,9.53,6.49-1.9,6.78-10,2.37-14.12-2.23-2.08-5.34-3.07-8.32-2.18-2.67.8-4.69,3.21-5.17,5.93-.94,5.35,2.71,9.62,7.84,10.75,2.81.62,5.66.67,7.83-1.52,2.31-2.33,1.96-5.8.54-8.48-2.2-4.12-7.4-7.39-11.61-3.77-1.8,1.55-2.21,4.21-.92,6.22,1.13,1.76,3.12,2.23,5.06,2.5,2.58.36,3.53-2.92,1.08-3.91h0Z"/>
          </g>
          <g class="cls-1">
            <path class="cls-4" d="m76.99,22.45c-1.09.11-2.77-.6-2.38-1.98l-3.49,2.66c.4.06.81.1,1.22.13,1.51.23,1.74-1.05.69-3.86l2.37-.64.83.76.66,2.43.05-.61-.66,2.44.34-.5-1.74,1.74c-1.8-.2-2.12,0-.95.63l.67.49c1,.64,2.07,1.1,3.16,1.56.81.34,1.67.86,2.51,1.11,1.6.48.15.61.77-.29l1.83-1.83,3.24,1.24.73,2.71c-1.03,1.06-1.21,1.52-.57,1.39h.13c.39.29,2-.71,2.51-1.02,2.35-1.47,3.48-4.16,3.04-6.88-.38-2.38-2.03-4.56-3.23-6.61-1.51-2.57-2.64-4.56-5.08-6.37-4.11-3.04-8.26,1.97-7.66,5.89s3.93,7.17,5.68,10.64l-.76-2.81v.87c.55-1.31,1.1-2.62,1.64-3.93,1.15-.53,1.21-.6.18-.21-.69.27-1.37.57-2.03.9-.84.48-1.69,1.08-2.36,1.77-1.67,1.73-2.55,4-2.31,6.4.51,5.17,6.39,7.89,10.87,5.59,4.2-2.14,5.31-7.46,3.22-11.5-2.29-4.4-6.75-4.79-10.53-7.16s-8.49-3.68-11.36.76.63,8.81,5.05,9.7c4.65.94,8.6-3.14,7.36-7.77s-6.43-5.88-10.47-4.28c-1.78.71-3.15,2.41-2.53,4.45,1.28,4.21,5.49,6.86,9.78,5.13,1.51-.61,1.54-3.34-.43-3.15h0Z"/>
          </g>
          <g class="cls-1">
            <path class="cls-4" d="m36.67,11.98c-1.09-.32-2.08-1.18-1.94-2.44.08-.72.57-.84.86-1.41.37-.15.32-.15-.15,0-1.11-.06-1.73-.52-1.86-1.38-.22-.86.06-1.58.89-1.96,1.89-.85,3.74,3.89,2.05,5.23-.72.57-1.64,1-2.48.42s-1.06-2.53-.5-3.3l2.11-2.11-.47.29,2.97-.8-.45.02,2.97.8.48.37,1.52,2.6.08.77-1.73,4.18.29-.29-9.9-2.61c.29.87-.03.33.16.2-.29.2,2.05-2.65.82-1.13.04-.05.49-.11.52-.07-.22-.39-2.44.25-2.79.37-3.75,1.27-5.82,6.4-2.48,9.38,7.55,6.71,18.43-3.29,15.19-11.9-1.46-3.89-6.67-6.2-9.9-2.61-3.48,3.86-1.96,10.08,3.21,11.5,5.58,1.53,9.87-4.35,8.58-9.43-2.08-8.21-14.21-10.29-17.84-2.09-1.79,4.05-.19,8.81,4.03,10.47,3.93,1.55,8.67,0,11.05-3.48,4.68-6.86-3.26-16.05-10.39-10.88-6.34,4.59-4.23,15.13,3.75,16.23,3.17.44,4.65-4,1.37-4.96h0Z"/>
          </g>
          <g class="cls-1">
            <path class="cls-4" d="m35.93,41.7c-1.19-.2-1.98-1.38-3.07-1.59-.3-.53-.48-.65-.56-.36-.41,1.42-.44,1.8-.1,1.14.17-.26.2-.32.08-.17-.86.42-.83.48.09.17.72.13,1.57.08,2.32.16l-1.49-11-.46.08h3.04l-.44-.16,2.54,1.48.28.37.79,2.92v-.51c-.26.98-.53,1.95-.79,2.93-1.75,3.52-5.8.22-3.29-2.78l5.78-1.53.5.1,2.13,2.13.37,1.56-.81,3-1.04,1.11-3.01.81-.59-.05-2.63-1.53.29.31-1.53-2.63c.16-2.16.15-2.54-.01-1.12-.07.37-.11.75-.13,1.13l.78-2.87-.15.34c-1.78,3.95.36,7.77,4.7,8.2,3.86.38,6.74-3.24,6.68-6.85s-3.38-6.98-7.14-6.85-7.16,3.07-7.3,7c-.13,3.72,2.38,6.51,5.74,7.67,1.83.63,4.53-.01,5.78-1.53,2.56-3.11,3.49-7.21,1.41-10.89-1.88-3.33-5.71-5.21-9.49-4.92-4.14.32-7.98,3.31-7.81,7.77.18,4.72,5.96,8.64,10.13,5.55,2.03-1.5,3.28-3.74,2.57-6.32-.6-2.17-3-4.41-5.4-4.11-3.12.39-6.25.73-8.69,2.94-1.99,1.8-3.17,4.42-2.73,7.11.96,5.84,8,6.77,12.65,4.94,1.31-.52,1.76-2.84,0-3.14h0Z"/>
          </g>
          <g class="cls-1">
            <path class="cls-4" d="m5.57,50.82c-.31-.47-.59-.92-.73-1.48-.04-.16-.07-.74-.15-.84-.06-.07-1.08,0-1.46.14-.47.18-.34-.67-.24.09.09.66.77,1.5.99,2.19.27.88,0,1.65.58.63l1.93-1.93-.33.24,2.74-.74-.45.02,2.76.75c.95,1.15,1.15,1.29.6.43.42,1.12.2,2.27-.66,3.45l-2.53,1.48h-.65c-.97-.25-1.94-.51-2.92-.78-1.33-3.4-1.94-4.37-1.83-2.88.01.78.11.38.31-1.21l2.12-2.12-.39.22,2.98-.81c1.56.22,2.66.99,3.31,2.3-.09-.62-.11-.78-.07-.49.08-.57-.4-1.77-.76-2.54-.57-1.23-2.2-2.08-3.52-2.02-6.02.27-8.83,7.86-4.76,12.2,4.45,4.74,12.26,1.75,12.5-4.71.09-2.33-.49-4.83-2.12-6.56-2.12-2.23-5.49-2.76-8.2-1.32C-.33,47.18-.11,53.05,2.93,57.02c1.67,2.17,4.16,3.53,6.96,2.87s4.67-3.13,4.83-6c.23-4.12-2.09-7.96-4.97-10.74s-7.94-3.58-10.32.51c-.86,1.47-1.12,3.36-.7,5.01.47,1.81,1.72,3.04,2.77,4.52,1.73,2.43,5.75.2,4.07-2.38h0Z"/>
          </g>
          <g class="cls-1">
            <path class="cls-4" d="m59.2,18.21l.06-.02-1.23.16s.08-.01.12,0l-1.22-.16c.45.12.92.17,1.39.2l-1.21-.16s.07.01.1.03l-1.07-.45.04.03-.9-.7s.05.04.07.07l-.69-.89.02.04-.44-1.04v.05c.21.73.58,1.37,1.12,1.9.39.42.85.72,1.39.89.51.27,1.07.39,1.66.37.78,0,1.5-.2,2.18-.59.99-.63,1.83-1.55,2.11-2.73.21-.88.21-1.71,0-2.59-.27-1.14-1.17-2.31-2.23-2.85l-1.1-.46c-.22-.05-.44-.08-.67-.1-.79-.11-1.02-.11-1.96.09-.6.14-1.12.42-1.57.83-.5.33-.9.76-1.19,1.3-.34.53-.52,1.1-.55,1.72-.14.61-.11,1.23.08,1.84.36,1.12,1.05,2.2,2.12,2.76l1.1.47c.82.22,1.64.22,2.46,0h0Z"/>
          </g>
          <g class="cls-1">
            <path class="cls-4" d="m92.55,45.81c2.73,0,2.74-4.24,0-4.24s-2.74,4.24,0,4.24h0Z"/>
          </g>
          <g class="cls-1">
            <path class="cls-4" d="m18.94,28.56c3.73,0,3.74-5.8,0-5.8s-3.74,5.8,0,5.8h0Z"/>
          </g>
          <g class="cls-1">
            <path class="cls-4" d="m23.45,58.17l.36.58c.27.46.64.83,1.1,1.1.48.28.99.42,1.55.42l.81-.11c.52-.15.97-.41,1.35-.79.3-.28.51-.61.63-.99.19-.37.28-.76.26-1.18,0-1.1-.59-2.08-1.52-2.65l-.58-.36-.69-.29c-.39-.12-.77-.14-1.16-.05-.26,0-.51.07-.73.2-.36.12-.67.32-.93.6l-.45.59-.29.69c-.12.39-.14.77-.05,1.16.02.39.13.75.34,1.08h0Z"/>
          </g>
          <g class="cls-1">
            <path class="cls-4" d="m57.5,37.81c4.04,0,4.04-6.27,0-6.27s-4.04,6.27,0,6.27h0Z"/>
          </g>
        </g>
      </g>
      <g class="cls-9">
        <g class="cls-10">
          <path class="cls-3" d="m31.44,56.76c2.59-5.54,3.17-11.51,7.75-16.05,4.21-4.18,10.78-5.88,16.29-3.34s8.1,8.31,9.5,13.63c.72,2.72.98,5.07,3.78,6.35,2.39,1.1,4.01.47,5.95-1.13,1.52-1.25,1.78-3.52,1.4-5.3-2.95-13.99-13.3-27.28-29.03-24.97-7.15,1.05-13.53,5.12-17.39,11.28-3.39,5.4-5.3,13.84-1.67,19.53.73,1.15,2.76,1.42,3.42,0h0Z"/>
          <path class="cls-3" d="m68.18,42.31c3.38,9.75,16.05,4.89,20.83-.71,6.57-7.71,7.92-18.64,3.38-27.66l-8.91,5.21c3.18,6.61,6.38,15.21,5.71,22.7s-8.69,6.2-14.07,4.35c-5.87-2.02-8.62,6.35-4.01,9.51,7.87,5.41,18.81,6.55,27.32,1.85,3.83-2.12,6.74-5.98,5.89-10.54-.78-4.19-4.91-7.29-9.07-5.76-3.69,1.36-4.33,5.9-1.06,8.15-.03-1.48-.63-1.62-1.79-.42l-1.43.47c-1.73.53-3.51.7-5.31.62-3.5-.16-6.43-1.4-9.29-3.36-1.34,3.17-2.67,6.34-4.01,9.51,9.17,3.13,21.23,2.91,25.65-7.31,4.59-10.62-1.13-25.22-5.62-34.98-2.41-5.25-11.55-1.49-9.43,3.98,1.87,4.85,2.14,9.77-.26,14.51-2.09,4.12-6.68,8.24-11.53,6.9-1.7-.47-3.61,1.2-2.99,2.99h0Z"/>
          <path class="cls-3" d="m88.3,44.88c-1.89-.64-3.78-.17-5.72-.35l1.02,7.53c1.22-.47,2.25-1.16,3.26-1.47.54-.17,1.1-.33,1.66-.4-.36.06-.27.06.28,0-.4-.14-.33-.14.21-.01v-9.09c-1.1.35-2.19.65-3.3.98s-2.04.78-3.14.99c-3.21.61-3.44,5.21-.88,6.72,3.44,2.04,7.56,2.29,10.95-.08,1.92-1.34,2.92-3.63,1.93-5.89s-3.21-3.24-5.56-2.73c-3.66.8-7.5,2.14-9.74,5.33s2.11,7.18,5.24,5.24c1.63-1.01,3.44-1.41,4.83-2.81s.62-3.41-1.05-3.98h0Z"/>
          <path class="cls-3" d="m59.61,31.73c2.65,6.26,7.62,11.61,14.74,12.25,6.55.59,12.59-3.13,14.75-9.38s.46-13.43-2.26-19.35c-2.95-6.41-7.44-14.43-14.61-16.45-2.19-.62-4.48,1.53-3.77,3.77,1.36,4.27,4.39,7.22,6.8,10.93s4.57,7.7,5.45,11.99c.73,3.61.55,8.25-3.43,9.86-5.22,2.12-10.57-2.18-13.52-6.06-1.89-2.48-5.36-.44-4.15,2.43h0Z"/>
          <path class="cls-2" d="m5.09,56.36c1.8-6.85,1.98-13.93,5.06-20.44,3.28-6.92,8.35-12.81,14.55-17.28,11.79-8.5,28.41-14.97,43.07-12.21,3.2.6,5.41-3.69,2.31-5.47C53.9-8.37,32.07.39,18.41,10.75,11.16,16.25,5.1,23.17,1.54,31.61c-3.25,7.7-5.38,17.84-.33,25.26.99,1.46,3.39,1.35,3.88-.51h0Z"/>
        </g>
      </g>
      <path class="cls-8" d="m30.5,57.65s1.75-22.78,19.86-22.2,21.03,22.2,21.03,22.2h26.87S98.27,3.32,50.37,1.57C2.46-.18,1.29,57.65,1.29,57.65h29.21Z"/>
      <path class="cls-6" d="m9.38,49.51c2.33-10.98,5.76-22.32,16.71-27.42,2.01-.94.55-4.49-1.53-3.62-12.47,5.19-15.89,18.49-17.27,30.76-.13,1.19,1.84,1.44,2.08.28h0Z"/>
      <path class="cls-6" d="m41.44,12.7c.07-.06.15-.11.23-.16.04-.03.44-.21.14-.09-.29.11.02,0,.08-.01.26-.06.37.03-.16,0-.05,0-.64-.16-.31-.06.38.12-.35-.15-.36-.16.45.17.85.34,1.3.47l-1.47-5.57c-.1.11-.21.2-.32.29l.7-.54c-.2.14-.41.26-.63.37l.88-.37c-.19.07-.37.12-.57.16l1.02-.14c-.2.02-.39.02-.59.01-.64-.04-1.45.22-2,.54-.74.44-1.29,1.11-1.62,1.89-.58,1.38-.37,3.28.82,4.32l.07.06-.62-.8.04.08-.55-2.02v.08c.06-.36.1-.71.15-1.07l-.02.09.41-.96c-.02.06-.05.11-.1.16l.64-.82-.07.07.83-.64-.08.05.98-.41-.08.03,1.1-.15h-.08c.37.05.74.1,1.1.15l-.08-.03c-2.41-.76-4.88,1.08-5.2,3.47-.15,1.15.11,2.16.82,3.08s2.01,1.79,3.27,1.64c.8-.09,1.45-.16,2.18-.58.34-.2.66-.44.94-.72.56-.56,1.02-1.33,1.19-2.1.5-2.33-.68-4.55-3-5.27v7.63c1.02-.37,2-.86,2.71-1.72.44-.53.75-.98,1.01-1.6.28-.66.34-1.12.42-1.88.22-2.03-2.32-3.95-4.22-3.21-.89.35-1.57.65-2.17,1.42-.24.31-.43.63-.64.96-.48.79-.73,1.61-.78,2.53-.06,1.25,1.59,2.33,2.66,1.53h0Z"/>
    </g>
  </g>
</svg>