<svg xmlns="http://www.w3.org/2000/svg" xmlns:xlink="http://www.w3.org/1999/xlink" viewBox="0 0 228.11 189.96"><defs><style>.cls-1,.cls-9{fill:none;}.cls-2{fill:#f7d074;}.cls-2,.cls-3{stroke:#221f20;}.cls-2,.cls-3,.cls-9{stroke-linecap:round;stroke-linejoin:round;stroke-width:5px;}.cls-3{fill:#db945d;}.cls-4{opacity:0.4;}.cls-5{clip-path:url(#clip-path);}.cls-6{fill:#84263d;}.cls-7{fill:#ebfef3;}.cls-8{fill:#4b271d;}.cls-9{stroke:#4b271d;}.cls-10{fill:#fff;}</style><clipPath id="clip-path" transform="translate(0.16 4.84)"><path class="cls-1" d="M205.73,28.41c-3.68-12-20.72-41.74-30.93-13.88-7.71,21-21.59,37.71-31.38,47.63a107.23,107.23,0,0,0-11.08-2.93V51.39s-.66-25-33.17-21.41S86.39,72.79,86.39,72.79C63.75,68.66,51.91,42.74,51.91,42.74S47.49-28.17,13.23,18.28,39.94,84.46,39.94,84.46c-12.77,31.35,29.29,26.43,29.29,26.43,4.91,41.52,48.58,35,48.58,35s-.64,25.68,14.53,33.56c7.47,3.89,17-2.47,24.76-9.91,6.44-6.18,2.78-13.91-3.71-20.47-4.22-4.25-7.06-5.22-4-12.34,4-9.39-5.57-25.84-5.57-25.84,29.55,2.61,29.68-26.43,29.68-26.43,27.65,0,32.62-32.11,33.5-45.37A29.7,29.7,0,0,0,205.73,28.41Z"/></clipPath></defs><g id="Calque_2" data-name="Calque 2"><g id="Layer_36" data-name="Layer 36"><path class="cls-2" d="M86.39,72.79S66.65,33.56,99.17,30s33.17,21.41,33.17,21.41V72.28S162,49.37,174.8,14.53c10.21-27.86,27.25,1.88,30.93,13.88A29.7,29.7,0,0,1,207,39.09c-.88,13.26-5.85,45.37-33.5,45.37,0,0-.13,29-29.68,26.43,0,0,9.59,16.45,5.57,25.84-3,7.12-.21,8.09,4,12.34,6.49,6.56,10.15,14.29,3.71,20.47-7.75,7.45-17.29,13.8-24.76,9.91-15.17-7.88-14.53-33.56-14.53-33.56s-43.67,6.52-48.58-35c0,0-42.06,4.92-29.29-26.43,0,0-61-19.73-26.71-66.18S51.91,42.74,51.91,42.74,63.75,68.66,86.39,72.79Z" transform="translate(0.16 4.84)"/><path class="cls-3" d="M110.43,75.58l17.25-17.25S147.59,61.64,152.9,67s-33.18,8.63-33.18,8.63S133,89.51,138.3,90.18,125.69,98.8,110.43,75.58Z" transform="translate(0.16 4.84)"/><g class="cls-4"><g class="cls-5"><path class="cls-6" d="M129,100.1c3.51,9.24,10.35,14.19,20.13,15.27,10.6,1.17,20.07-4,26.7-12.05a51.49,51.49,0,0,0,8-13.9c.6-1.51,2-3.78,1.83-5.41.36,4.75-9.25,4.29-3.29,4.67a25.29,25.29,0,0,0,5.14-.27c11.26-1.58,19.26-10.06,25.36-19,6.31-9.3,12.21-20.24,14.43-31.36,1.1-5.51,1.09-11.91-3.75-15.65-5.06-3.92-11.36-.43-14.6,4.22-2.95,4.26-4.73,9.35-7.09,14C199.23,45.78,196.63,51,193.47,56c-1.89,3-4.16,6.26-6.85,8.2-3,2.12-6.83.3-11.51,1.52C162,69.1,164.76,83.35,156.83,91.51c-5.26,5.42-15.05,8.42-21.77,3.93-2.86-1.91-7.33,1.31-6.06,4.66Z" transform="translate(0.16 4.84)"/><path class="cls-6" d="M-.16,30.47A63.94,63.94,0,0,0,10.5,66.1,54.56,54.56,0,0,0,23.91,79.84a51.34,51.34,0,0,0,8.57,5c2.83,1.31,6.22,2,8.7,3.9L37.92,85.5q.13-4.31-.54-2a13.08,13.08,0,0,0-.46,1.33c-.42,1.18-.87,2.34-1.28,3.51a24.29,24.29,0,0,0-1.54,8.39,22.35,22.35,0,0,0,7.12,15.77c10.51,9.53,27.47,7,32.2-7,2.33-6.86-5.24-14.79-12.23-12.23-1.86.69-3.87,1-5.79,1.54-1.75.49,0,0,.11.39-.38-1.2,1.7-6.39,1.76-8.36.15-5.21-2.39-10.95-6.92-13.75-4-2.47-9.08-2.49-13.43-4.21C21.08,62.59,7.75,47.66,6,30.47c-.39-3.88-6.19-4.06-6.18,0Z" transform="translate(0.16 4.84)"/><path class="cls-6" d="M69,93.51c-12.1,18.69,2,42.69,18.8,52.82,20.89,12.59,48.81,7.2,67.85-6.34,4.94-3.52,7.29-9.82,4-15.39-2.8-4.8-10.49-7.69-15.39-4-13,9.65-29.88,14.7-45.48,8.32-13.88-5.67-21.38-20.49-23.47-34.54-.47-3.17-4.88-3.07-6.34-.83Z" transform="translate(0.16 4.84)"/><path class="cls-7" d="M20,16.08c1.64-1.63,4.56-5.48,7.08-3.86,2,1.26,2.14,5.58,2.71,7.51a126.86,126.86,0,0,0,9.16,23A94,94,0,0,0,53.39,62.59c5.5,5.94,12.62,13.7,20.68,15.5a9.68,9.68,0,0,0,10.8-14c-2.44-4.6-6.69-7.61-10.25-11.3a82.8,82.8,0,0,1-8-9.48C61.41,35.84,56.47,27.72,53.28,19.2c-2-5.21-3.6-10-7.2-14.42C42.9.93,38.66-2.41,33.75-3.71,23.05-6.55,15.53.24,11,9.15c-2.89,5.65,4.22,11.65,9,6.93Z" transform="translate(0.16 4.84)"/><path class="cls-7" d="M87.78,51.6A11.84,11.84,0,0,1,88,50.28c.2-.81-.29.49.07-.26a7.76,7.76,0,0,1,.71-1.17c-.51.66.11.06.35-.24.48-.61-.72.34,0,0,.85-.41.81-.29,0-.16-.41.07-1.48.17-.47.1A13.76,13.76,0,0,0,91.86,48L81.94,38c-.31,1.25.13-.23.47-.68s1.74-1.3.52-.67H91.4q5.34,4.76,1.31,10.17L88.9,49.08c2-.72.43-1-4.65-.73,2.55,1.08,2.8,1.19.77.33,2.8,1.31,5.74,1.62,8.52,0C96,47.26,98,44.29,97.72,41.39c-.28-3.48-1.57-6.3-4.58-8.24a10.52,10.52,0,0,0-8-1.09,10.38,10.38,0,0,0-7.42,12.48c1.46,5.81,8.15,9.76,13.72,6.63,4.1-2.3,5.91-6.54,6.38-11,.5-4.82-5.63-9.68-10.21-7.77A13.23,13.23,0,0,0,83,34.94a16.08,16.08,0,0,0-1.8,2.41c1.4-1.93-.91,1.19-1.22,1.74a18.73,18.73,0,0,0-1.25,2.83,14.13,14.13,0,0,0,0,9.68A4.85,4.85,0,0,0,83.26,55c1.87,0,4.23-1.43,4.52-3.44Z" transform="translate(0.16 4.84)"/><path class="cls-7" d="M89.63,36.8c7.47.31,15.67.38,22.44,3.92S123.52,50.35,128.55,56c1.65,1.85,4.56.3,4.64-1.92.79-19.51-30.84-33.26-44.68-20a1.61,1.61,0,0,0,1.12,2.72Z" transform="translate(0.16 4.84)"/><path class="cls-7" d="M150.25,56.51c11.52,5.29,19.68-6.35,25.82-14.46,3.68-4.88,7.27-9.87,10.57-15,1.65-2.57,3.19-5.21,4.72-7.85q1.15-2,2.26-4l.89-1.61c1.37-1.84,1.2-2.11-.53-.81h-4.79c-2.44-.74.86,1.66,1.56,2.41l3.94,4.27c3,3.26,5.2,5.93,9.65,7.07,6.38,1.64,11.4-4,10.15-10.15-1-4.9-4.79-7.88-8.14-11.32-2.76-2.83-5.55-6.53-9.09-8.47a11.77,11.77,0,0,0-12.54.77C181-.08,179.42,4,177.4,7.85c-4,7.53-8.22,15-12.67,22.28Q161.4,35.57,158.08,41c-1.59,2.59-3.7,7-6.82,7.76-3.32.8-4.36,6.18-1,7.71Z" transform="translate(0.16 4.84)"/><path class="cls-7" d="M128.36,64.45c4.29,2.53,8.85,5.64,14,4.6,2.33-.47,2.55-3.31,1.28-4.86-3.1-3.76-8.66-4.19-13.16-4.88-3-.46-5.11,3.4-2.17,5.14Z" transform="translate(0.16 4.84)"/><path class="cls-6" d="M145.16,140.83l-.86-.25,5.24,4c-5.29-10.48-21.09-9-28.24-1.71-7.4,7.59-9.29,20.55-3.87,29.73a24.88,24.88,0,0,0,39.38,5,23.44,23.44,0,0,0,5.51-9.48,16.11,16.11,0,0,0,.51-2q-2.79,7.81-10,9.92a18.29,18.29,0,0,0,4.34-33.21c-9.43-5.92-22-2.1-27.64,7.11a21,21,0,0,0-2.92,8.31c.46-4.57,5.14-8.11,9.12-9.36-2.59.81,3.26-.23,4.2-.1a11.41,11.41,0,0,1,6.89,3.29l1.75,2.26q1.69,4.25.95,2.26c-.46-1.63-.25-2.82,0,1.61-.16-2.87-.88,3.33-.18,1.47a25.74,25.74,0,0,0,1-5.73c-.1.81-.58,4.17-.17,1.46a25.37,25.37,0,0,0,.57-6.44l-4.34,7.58.75-.54c5.63-4.06,5.36-13.16-2-15.25Z" transform="translate(0.16 4.84)"/></g></g><path class="cls-8" d="M97.28,129.92c-.86,3.18.16,6.72,1,9.82,1,3.51,1.69,7.35,4.48,9.93,4,3.67,10.94.11,9.32-5.43-.95-3.27-3.41-5.33-5.12-8.16-1.5-2.49-2.54-5.46-4.64-7.51a3.08,3.08,0,0,0-5.09,1.35Z" transform="translate(0.16 4.84)"/><path class="cls-8" d="M126.36,124a33.09,33.09,0,0,0,2.79,18.86c2.27,4.72,10.62,1.32,8.56-3.61-2.2-5.27-4.15-10.42-5-16.11-.59-4-5.92-2.37-6.36.86Z" transform="translate(0.16 4.84)"/><path class="cls-8" d="M105.21,56l0,.1,1.32-1.31a4.24,4.24,0,0,0-2,2.52,8.82,8.82,0,0,0-.22,1.53,4.18,4.18,0,0,0,2.11,3.68A4.25,4.25,0,0,0,112.18,61a4.42,4.42,0,0,0-.55-5.07,3.76,3.76,0,0,0-2.32-1.5l1.62.94-.1-.08a3.63,3.63,0,0,0-3-1,3.43,3.43,0,0,0-2.61,1.7Z" transform="translate(0.16 4.84)"/><path class="cls-8" d="M86.71,72.78c-6.25-3.64-12.51,11-14.3,15.07-3.32,7.5-7.23,19.31-4.7,27.49a2.31,2.31,0,0,0,4.43,0c.89-3.33.57-6.92,1-10.34a59,59,0,0,1,2.66-11.12,61.44,61.44,0,0,1,4.52-10.15A40.17,40.17,0,0,1,87,75.28a1.6,1.6,0,0,0-.32-2.5Z" transform="translate(0.16 4.84)"/><path class="cls-8" d="M125.24,95.49a15.5,15.5,0,0,0,6.67,14.83c4.05,2.67,12,4.8,15.62.36a1.8,1.8,0,0,0-.79-3c-3.83-1.22-7.7.08-11.43-2a15.34,15.34,0,0,1-7.22-10.57c-.33-1.74-2.69-1.11-2.85.39Z" transform="translate(0.16 4.84)"/><path class="cls-8" d="M148.12,177.24c-2.73-3.52-4.93-7.42-7.52-11-1.11-1.56-4.08-.69-3.34,1.41,1.7,4.78,4.75,8.62,8.34,12.15,1.68,1.66,3.88-.76,2.52-2.52Z" transform="translate(0.16 4.84)"/><path class="cls-8" d="M157.27,170.71a24.7,24.7,0,0,0-7.36-10.49,2.21,2.21,0,0,0-3.46,2.67,24.76,24.76,0,0,0,8.06,9.94,1.9,1.9,0,0,0,2.76-2.12Z" transform="translate(0.16 4.84)"/><path class="cls-9" d="M144.07,61.22c9.72-10,23-26.32,30.45-46.69,10.21-27.86,27.24,1.88,30.93,13.88a29.7,29.7,0,0,1,1.25,10.68c-.87,13.26-5.85,45.37-33.5,45.37,0,0-.12,29-29.67,26.43,0,0,9.59,16.45,5.57,25.84-3,7.12-.21,8.09,4,12.34,6.5,6.56,10.16,14.29,3.72,20.47-7.75,7.45-17.29,13.8-24.77,9.91-15.17-7.88-14.53-33.56-14.53-33.56s-43.66,6.52-48.57-35c0,0-42.07,4.92-29.29-26.43,0,0-61-19.73-26.71-66.18S51.63,42.74,51.63,42.74,63.46,68.66,86.11,72.79c0,0-19.74-39.23,12.77-42.81s33.17,21.41,33.17,21.41V59" transform="translate(0.16 4.84)"/><path class="cls-9" d="M110.15,75.58,127.4,58.33s19.91,3.31,25.22,8.62-33.18,8.63-33.18,8.63S132.71,89.51,138,90.18,125.41,98.8,110.15,75.58Z" transform="translate(0.16 4.84)"/><path class="cls-10" d="M107.78,59.25a1.59,1.59,0,0,0,.86-.2,1.71,1.71,0,0,0,.73-.46,1.65,1.65,0,0,0,.46-.73A1.68,1.68,0,0,0,110,57l-.08-.6a2.26,2.26,0,0,0-.58-1l-.46-.35a2.16,2.16,0,0,0-1.13-.31,1.73,1.73,0,0,0-.87.19,2.09,2.09,0,0,0-1.19,1.19,1.73,1.73,0,0,0-.19.87l.08.6a2.17,2.17,0,0,0,.58,1l.45.35a2.27,2.27,0,0,0,1.14.31Z" transform="translate(0.16 4.84)"/></g></g></svg>