<svg xmlns="http://www.w3.org/2000/svg" xmlns:xlink="http://www.w3.org/1999/xlink" viewBox="0 0 225.89 257.51"><defs><style>.cls-1,.cls-9{fill:none;}.cls-2{fill:#ee96c5;}.cls-2,.cls-4{stroke:#221f20;}.cls-2,.cls-4,.cls-9{stroke-linecap:round;stroke-linejoin:round;stroke-width:5px;}.cls-3{fill:#221f20;}.cls-4{fill:#e74856;}.cls-5{opacity:0.38;}.cls-6{clip-path:url(#clip-path);}.cls-7{fill:#ebfef3;}.cls-8{fill:#84263d;}.cls-9{stroke:#5b1a33;}.cls-10{fill:#fff;}</style><clipPath id="clip-path"><path class="cls-1" d="M71.78,80.08C73.26,85.71,118.58,40,144.55,65c34.07,32.75-15.48,68.61-15.48,68.61s-53.42,54.49-57.29,66.1S12.17,171,3.65,113c-7.92-54,31-60.84,31-60.84S62.49,44.88,71.78,80.08Z"/></clipPath></defs><g id="Calque_2" data-name="Calque 2"><g id="Layer_26" data-name="Layer 26"><path class="cls-2" d="M71.69,79.59c1.49,5.63,46.81-40.09,72.78-15.12,34.06,32.75-15.49,68.6-15.49,68.6s-53.42,54.5-57.29,66.11S12.08,170.54,3.56,112.47c-7.91-54,31-60.84,31-60.84S62.4,44.39,71.69,79.59Z"/><path class="cls-3" d="M11.18,71.23C9.72,59,11.81,47.18,19,37A47.62,47.62,0,0,1,30.13,25.75c4.26-3.06,9-4.88,13.5-7.43,3.33-1.89.88-6.23-2.42-5.75-11.42,1.66-21.95,11.83-28,21.08A52.17,52.17,0,0,0,5.84,72c.56,3,5.71,2.34,5.34-.72Z"/><path class="cls-3" d="M37.4.16C32.69,3,28.87,5.87,25.6,10.42c-2.75,3.81-5.92,9.39-5.31,14.28,1.8,14.18,20.36,3.87,27.91,5.76,2.89.73,4.75-3.35,2.06-4.88a12.86,12.86,0,0,0-9.78-1.16c-3.79.87-8.91,4.15-12.75,2.17C19.54,22.37,34.36,5,38.39,1.86c1-.74.12-2.38-1-1.7Z"/><path class="cls-3" d="M47.18,191.74c3.75,10.21,9.45,20,17.86,27.13,1.81,1.52,4.7,2.74,6.13,4.55,2,2.55,2.3,7.32,3,10.39,1.56,7,2.66,14.29,5,21,1.37,3.85,7.81,3.57,7.55-1-.39-7.16-2.39-14.38-4.26-21.28-1.4-5.19-2.16-11.66-6.6-15.23-4.66-3.75-9.86-6.45-14.2-10.7a53.37,53.37,0,0,1-11.34-16.2c-.8-1.77-3.85-.51-3.17,1.34Z"/><path class="cls-3" d="M81.64,182.35c4.24,10.17,9.4,18.44,18.25,25.15,2.27,1.71,4.65,3.25,7,4.89,2.87,2,3.53,5.23,5,8.3a62.31,62.31,0,0,0,13,17.75c3.16,3,8-.79,6-4.6-3.24-6.2-7.53-11.75-10.75-18-1.45-2.8-2.34-6.23-4.58-8.55s-5-3.52-7.57-5.07c-9.39-5.76-16-13.36-22.85-21.93-1.25-1.57-4.22.14-3.45,2Z"/><path class="cls-3" d="M52.91,91c-2.43,2.64-3,5.24-3.1,8.84-.08,3.27.34,6.8,2.59,9.3,1.17,1.3,3.08.18,3.2-1.33.22-2.65-.65-5.3-.7-8s.36-5.23.17-7.95A1.28,1.28,0,0,0,52.91,91Z"/><path class="cls-3" d="M82.35,94.07c-2.7,3.78-5.09,9.55-3.39,14.21.84,2.32,4.62,2.83,5.24,0,.42-1.94.23-3.91.56-5.87a26.67,26.67,0,0,1,1.56-6,2.3,2.3,0,0,0-4-2.32Z"/><path class="cls-4" d="M46.14,126.69s26.54,3.23,32.22-.88,4.87,31.8-10.07,27.69S46.14,126.69,46.14,126.69Z"/><g class="cls-5"><g class="cls-6"><path class="cls-7" d="M49.55,48.36c-27.24-4.27-44,23.33-47.22,46.83a104.54,104.54,0,0,0,2.21,39.19c3.17,12.76,8.58,26.24,18.75,35,4.63,4,14.15.3,11.44-6.66-3.8-9.75-9-18.92-12.08-29a89.17,89.17,0,0,1-3.81-31.6C20,82.05,29.32,63,49.55,56.5c3.6-1.16,4.4-7.45,0-8.14Z"/><path class="cls-7" d="M45.89,77.57l.69-1.07A9,9,0,0,0,48,72a9.19,9.19,0,0,0-.21-4.82,9.18,9.18,0,0,0-2.17-4.11A9.09,9.09,0,0,0,42.24,60a12.26,12.26,0,0,0-9.32-1.22,13.14,13.14,0,0,0-7.23,5.56L25,65.36a8.93,8.93,0,0,0-1.44,4.5,9.09,9.09,0,0,0,.22,4.82A9,9,0,0,0,26,78.79a9.2,9.2,0,0,0,3.4,3.12,12.23,12.23,0,0,0,9.31,1.22,13.11,13.11,0,0,0,7.23-5.56Z"/><path class="cls-7" d="M86.07,80.78c5.65-2.52,11.71-3.65,17.59-5.47s12.12-3.3,18.24-4.63c5.4-1.18,10.85-2.54,16.4-2.67,5.75-.12,10.26,2.43,15.78,3.22,6.53.94,14.11-5.59,9.53-12.39-9-13.34-30.16-10.35-43.19-5.5-14.15,5.26-28.06,11-37.76,23a2.83,2.83,0,0,0,3.41,4.42Z"/><path class="cls-8" d="M70,132.19a21.64,21.64,0,0,1-1.8,8.05c-1.23,2.73-3.13,5-3.07,8.08A4.64,4.64,0,0,0,71,152.75c7.49-2.26,9.24-13.88,9-20.56-.23-6.4-9.69-6.4-9.94,0Z"/><path class="cls-8" d="M70.15,205.9C83.8,182.23,107.85,166,128,149.24c10.51-8.77,21.06-17.63,30.22-27.84a119.9,119.9,0,0,0,13.21-17.69c4-6.59,8.38-14.25,7.79-22.16C178.54,72.76,167.75,66.9,161,74c-5.07,5.29-7.4,12.32-11.26,18.48a95.89,95.89,0,0,1-11.17,14.67c-9.11,10.35-19.57,19.23-29.65,28.58-20.25,18.8-40,39.39-44.71,67.64-.58,3.47,4,6,6,2.53Z"/><path class="cls-8" d="M81.68,175.76c-3.27,5.36-11.13,16.11-18.65,13.69-4.32-1.38-8.31-4.74-12.32-6.86-4.8-2.54-10.18-5.67-15.73-5.47a7.49,7.49,0,0,0-6.4,11.14C31.87,194.5,40,198.82,46,202.14c6.27,3.47,13.12,6.43,20.42,5.65,6.87-.74,12.31-4.39,16.16-10.06,4.15-6.11,4.21-12.34,5.26-19.37.54-3.6-4-6.09-6.17-2.6Z"/></g></g><path class="cls-9" d="M71.78,80.08C73.26,85.71,118.58,40,144.55,65c34.07,32.75-15.48,68.61-15.48,68.61s-53.42,54.49-57.29,66.1S12.17,171,3.65,113c-7.92-54,31-60.84,31-60.84S62.49,44.88,71.78,80.08Z"/><path class="cls-9" d="M46.14,126.18s26.54,3.24,32.22-.88,4.87,31.81-10.07,27.7S46.14,126.18,46.14,126.18Z"/><path class="cls-3" d="M137.37,106C148.66,91.88,161,78.7,176,68.53a143.82,143.82,0,0,1,23-12.69A137,137,0,0,1,211.89,51c4.14-1.32,8.76-1.92,12.5-4.17,2.74-1.64,1.43-5.57-1.56-5.77-4.35-.28-8.8,1.6-12.85,3-4.43,1.52-8.78,3.28-13,5.22A144.6,144.6,0,0,0,172.21,63.6c-15,10.76-28.51,24.16-37.27,40.49-.79,1.47,1.28,3.3,2.43,1.87Z"/><path class="cls-3" d="M213.89,31.29a30.76,30.76,0,0,0-12.45,8.12c-2.86,2.91-7.36,7.48-8,11.64s3.26,5.54,6.62,6.46A124.41,124.41,0,0,0,219,61.06c2.76.32,3.43-4.43.67-4.88-4.29-.7-8.56-1.48-12.82-2.31a42.2,42.2,0,0,1-5.47-1.16c-2.72-1-3.38-1.17-1.78-3.78,4-6.5,9.67-10.93,15.27-15.91a1,1,0,0,0-1-1.73Z"/><path class="cls-10" d="M28.75,69.6c.22.37.34.14.34-.72.43-.76.46-1,.08-.77-.1,0-.72.34-.05,0-.5.22.58,0,0,0,.41,0,.55.09.07-.1l2.28,4c0-.16.08-.32.12-.48.09-.4-.35.68-.06.17s-.43.48-.15.16l.34-.38c.33-.37-.16.14-.3.2a3.48,3.48,0,0,0,.44-.27c.27-.14.11-.08-.48.19l-.68.09c.49-.08,1-.12,1.5-.19l-1.11.15a2.69,2.69,0,0,1,.4,0L27.85,65.3a8.43,8.43,0,0,1-.59,1.06c-.25.41.74-.9.2-.3s.94-.53.21-.22l1.14-.48a6,6,0,0,0-1.83.93l-.84.66,1-.76a5.35,5.35,0,0,1-.76.47l5.91.77-.11-.13.76,1a1.24,1.24,0,0,1-.17-.27l.49,1.17a1.91,1.91,0,0,1-.12-.47L33.29,70a5.49,5.49,0,0,1,0-.81l-.18,1.29a2.64,2.64,0,0,1,.13-.46l-.49,1.14a1.56,1.56,0,0,1,.16-.28l-.74,1c.33-.44.71-.84,1-1.31,1.92-3-.6-6.9-4-6.9a6.06,6.06,0,0,0-5.56,4.42,6.37,6.37,0,0,0,1.69,6.24,5,5,0,0,0,5.9.76,13.12,13.12,0,0,0,1.88-1.43,6.36,6.36,0,0,0,1.6-2.85l-.46,1.09a9.54,9.54,0,0,0,1.26-3.34,4.45,4.45,0,0,0-1.08-4.11,4.22,4.22,0,0,0-4.11-1.08A8.08,8.08,0,0,0,26,66.82,7.06,7.06,0,0,0,25.18,72,3.3,3.3,0,0,0,26.68,74a3.81,3.81,0,0,0,2.51.33,4.59,4.59,0,0,0,3.59-3.6c.2-1.53-.34-3.36-2.07-3.68a1.78,1.78,0,0,0-1.83.62,1.72,1.72,0,0,0-.13,1.94Z"/><path class="cls-10" d="M19.39,82.77C14.6,88.5,13.22,96,13,103.29c-.23,6.7.13,16.85,4.16,22.47,1.56,2.17,5.23,1.55,5.24-1.42,0-3.14-1.1-6.1-1.57-9.2a57,57,0,0,1-.53-11c.29-6.76,2.19-13.23,2.48-20,.07-1.62-2.26-2.71-3.36-1.39Z"/></g></g></svg>