<?xml version="1.0" encoding="UTF-8" standalone="no"?>
<svg
   id="Calque_2"
   data-name="Calque 2"
   viewBox="0 0 188.74 58.93"
   version="1.1"
   sodipodi:docname="lunettes2.svg"
   inkscape:version="1.4.2 (2aeb623e1d, 2025-05-12)"
   xmlns:inkscape="http://www.inkscape.org/namespaces/inkscape"
   xmlns:sodipodi="http://sodipodi.sourceforge.net/DTD/sodipodi-0.dtd"
   xmlns="http://www.w3.org/2000/svg"
   xmlns:svg="http://www.w3.org/2000/svg">
  <sodipodi:namedview
     id="namedview34"
     pagecolor="#ffffff"
     bordercolor="#000000"
     borderopacity="0.25"
     inkscape:showpageshadow="2"
     inkscape:pageopacity="0.0"
     inkscape:pagecheckerboard="0"
     inkscape:deskcolor="#d1d1d1"
     inkscape:zoom="3.8492104"
     inkscape:cx="87.160732"
     inkscape:cy="32.084502"
     inkscape:window-width="1600"
     inkscape:window-height="836"
     inkscape:window-x="0"
     inkscape:window-y="27"
     inkscape:window-maximized="1"
     inkscape:current-layer="g34" />
  <defs
     id="defs1">
    <style
       id="style1">
      .cls-1 {
        stroke: #132247;
        stroke-linecap: round;
        stroke-linejoin: round;
      }

      .cls-1, .cls-2 {
        fill: none;
      }

      .cls-1, .cls-3 {
        stroke-width: 2.51px;
      }

      .cls-4 {
        opacity: .52;
      }

      .cls-2, .cls-5, .cls-6, .cls-7, .cls-8 {
        stroke-width: 0px;
      }

      .cls-5 {
        fill: #d737b8;
      }

      .cls-6 {
        fill: #fff;
      }

      .cls-3 {
        fill: #5270d5;
        stroke: #231f20;
        stroke-miterlimit: 10;
      }

      .cls-9 {
        clip-path: url(#clippath);
      }

      .cls-10 {
        opacity: .43;
      }

      .cls-7 {
        fill: #eafdf1;
      }

      .cls-8 {
        fill: #82263e;
      }

      .cls-11 {
        opacity: .37;
      }
    </style>
    <clipPath
       id="clippath">
      <path
         class="cls-2"
         d="m182.59,21.86l-7.45-.48c.63-4.47-2.34-8.74-6.86-9.64L116.76,1.56c-5.33-1.05-10.29,3.02-10.29,8.45v1.67c-2.63-1.5-7.41-3.24-14.57-2.29-4.63.61-7.81,2.09-9.89,3.5v-1.06c0-5.43-4.96-9.5-10.29-8.45L20.21,13.56c-4.53.89-7.49,5.17-6.86,9.64l-7.45.48c-2.71.17-4.76,2.51-4.58,5.22l1.69,25.9c.06.85,1.26.95,1.45.12l3.47-14.72c.03-.13.94-3.14,1.05-3.21l6.91-3.31c1.5,6.16,3.06,12.66,4.09,17.38.87,3.95,4.37,6.76,8.41,6.76h45c4.76,0,8.62-3.86,8.62-8.62v-28.11c1.63-.4,3.62-1.03,5.82-1.61,6.47-1.72,13.69-.4,18.65-.06v27.96c0,4.76,3.86,8.62,8.62,8.62h45c4.05,0,7.54-2.81,8.41-6.76,1.04-4.72,2.59-11.21,4.09-17.38l6.91,3.31c.11.08,1.02,3.08,1.05,3.21l3.47,14.72c.19.83,1.4.72,1.45-.12l1.69-25.9c.18-2.71-1.88-5.04-4.58-5.22Zm-107.85,24.44c0,1.85-1.5,3.35-3.35,3.35H31.68c-1.54,0-2.88-1.05-3.25-2.54l-5.74-22.95c-.48-1.93.81-3.85,2.78-4.13l45.45-6.49c2.02-.29,3.82,1.28,3.82,3.32v29.44Zm91.05-23.96l-5.74,22.95c-.37,1.49-1.71,2.54-3.25,2.54h-39.71c-1.85,0-3.35-1.5-3.35-3.35V15.03c0-2.04,1.81-3.6,3.82-3.32l45.45,6.49c1.97.28,3.26,2.2,2.78,4.13Z"
         id="path1" />
    </clipPath>
  </defs>
  <g
     id="Layer_1"
     data-name="Layer 1">
    <g
       id="g34">
      <g
         id="g8"
         style="display:none">
        <g
           class="cls-10"
           id="g2">
          <path
             class="cls-5"
             d="m 31.28,25.83 0.12,-0.11 c 2.24,-2.02 1.86,-5.54 0,-7.62 l -0.14,-0.16 c -2.23,-2.48 -7.03,-1.95 -8.53,1.1 -3.68,7.46 0.48,19.2 2.4,26.75 2.37,9.3 16.06,7.04 16.38,-2.22 0.24,-6.89 -0.72,-13.51 -0.87,-20.36 l -15.36,2.08 c 2.33,7.92 4.27,14.74 11.2,19.73 L 34.47,42.4 c 0.37,1.36 0.59,2.74 0.67,4.15 0.55,6.16 8.93,7.7 10.96,1.48 2.74,-8.42 2.79,-17.24 3.26,-26 l -15.79,2.14 c 1.71,4.93 3.2,9.81 4.14,14.95 0.94,5.14 2.34,9.43 5.82,13.49 5.44,6.34 13.77,0.48 14.62,-6.06 0.55,-4.21 0.29,-8.26 -0.06,-12.47 -0.15,-1.78 -0.32,-3.57 -0.39,-5.35 -0.05,-1.18 -0.05,-2.36 0,-3.54 0.49,-2.14 0.21,-2.33 -0.86,-0.57 l -6.16,2.55 h 0.74 c -2.51,-1.45 -5.02,-2.89 -7.52,-4.33 2.06,2.89 2.23,8.13 2.8,11.57 0.73,4.39 1.5,8.69 2.97,12.9 1.93,5.53 10.23,9.47 14.66,3.87 3.82,-4.84 3.82,-8.86 3.47,-14.73 -0.35,-5.87 0.25,-11.29 1.71,-16.88 L 52.17,17.22 c 1.19,12.36 1.26,25.94 9.23,36.08 5.09,6.47 14.91,0.67 15.17,-6.28 C 76.89,38.37 74.71,29.37 76.28,20.8 H 59.32 c 1.11,5.55 2.09,11.13 2.81,16.75 0.6,4.68 3.59,8.73 8.73,8.73 4.79,0 8.67,-4 8.73,-8.73 C 79.66,32.39 79.62,27.11 77.92,22.19 74.9,13.45 62.66,15.12 62,24.34 c -0.31,4.39 0.21,8.8 0.13,13.21 H 79.6 C 78.73,30.37 77.66,23.23 76.29,16.13 74.67,7.76 60.92,7.71 59.33,16.13 57.37,26.49 59.27,36.62 58.82,47.03 L 73.99,40.75 C 72.06,38.28 71.85,33.81 71.4,30.83 70.72,26.32 70.3,21.77 69.84,17.23 69.38,12.69 66.82,9.11 62.19,8.56 c -4.24,-0.5 -8.58,1.99 -9.68,6.32 -1.26,4.93 -2.09,10.01 -2.32,15.11 -0.16,3.41 1.24,8.9 0.24,11.75 l 2.26,-3.87 -0.72,0.92 14.66,3.87 C 63.47,33.71 64.22,7.57 49.57,9.92 34.92,12.27 42,36.86 41.07,46.57 l 14.62,-6.06 c -2.02,-2.19 -2.02,-7.23 -2.78,-10.03 -1.16,-4.3 -2.73,-8.45 -4.6,-12.49 -3.38,-7.28 -15.34,-3.63 -14.98,4.06 0.39,8.22 1.16,16.33 1.86,24.52 l 10.39,-2.82 c -1.18,-1.54 -2.14,-3 -3.06,-4.71 l 0.44,3.37 C 44.92,34.8 42.48,28.46 40.41,21.14 38.03,12.74 24.93,14.27 25.05,23.22 25.14,30.08 24.41,36.7 24.89,43.58 L 40.43,39.37 C 38.85,36.11 37.45,32.81 36.22,29.4 35.6,27.68 35.06,25.96 34.34,24.28 34.07,23.64 33,19.96 32.9,21.78 l -8.17,4.69 0.2,0.09 -1.93,-7.37 -0.07,0.14 c -2.51,5.43 3.71,10.73 8.41,6.49 v 0 z"
             id="path2" />
        </g>
        <g
           class="cls-10"
           id="g3">
          <path
             class="cls-5"
             d="m 119.13,16.91 0.63,-0.83 c 3.18,-4.21 -4.48,-8.99 -7.21,-4.22 -2.79,4.87 -2.71,11.22 -3.17,16.71 -0.51,6.05 -0.64,12.09 1.08,17.97 2.18,7.42 13.09,7.58 15.21,0 2.61,-9.36 4.53,-18.95 6.73,-28.41 l -16.12,-2.18 c 0.94,10.46 0.97,21.62 4.51,31.6 2.64,7.44 14.02,8.51 16.2,0 2.4,-9.36 0.51,-19.11 2.87,-28.39 h -16.49 c 3.81,10.4 3.25,21.53 7.81,31.77 1.52,3.4 6.31,4.86 9.67,3.94 3.92,-1.08 5.84,-4.46 6.29,-8.26 1.11,-9.5 2.26,-18.99 3.27,-28.49 h -17.09 c 0.95,9.76 1.84,19.57 4.14,29.12 1.84,7.62 11.74,7.85 15.68,2.05 2.77,-4.09 2.65,-9.94 3.3,-14.69 0.8,-5.86 1.35,-11.73 1.88,-17.62 l -16.14,2.18 c 1.14,4.3 0.6,8.93 0.9,13.34 0.35,5.08 1.36,9.65 3.67,14.21 3.08,6.1 14.23,5.14 15.37,-2.01 1.25,-7.89 2.54,-15.74 3.36,-23.69 h -16.21 c 0.18,7.17 0.36,14.35 0.53,21.52 0.26,10.66 15.19,10.22 16.26,0 0.73,-6.94 1.47,-13.87 2.06,-20.82 l -15.77,2.13 c 0.27,1.25 0.55,2.49 0.82,3.74 2.22,10.09 17.15,5.73 15.35,-4.23 -0.23,-1.26 -0.46,-2.52 -0.68,-3.77 -0.7,-3.88 -5.19,-6.3 -8.81,-5.75 -4.25,0.64 -6.46,3.8 -6.96,7.89 -0.85,6.93 -1.54,13.87 -2.26,20.82 h 16.26 c -0.19,-7.17 -0.38,-14.35 -0.58,-21.52 -0.24,-8.81 -13.96,-11.42 -15.92,-2.15 -1.5,7.08 -2.55,14.22 -3.65,21.37 5.12,-0.67 10.24,-1.34 15.37,-2.01 -1.69,-3.32 -1.7,-7 -1.86,-10.65 -0.19,-4.32 -0.65,-8.52 -1.38,-12.79 -1.34,-7.84 -14.51,-7.85 -15.85,0 -0.83,4.87 -1.73,9.73 -2.36,14.63 -0.37,2.85 -0.06,9.06 -1.49,11.21 l 15.68,2.05 c -2.04,-8.1 -2.93,-16.26 -3.6,-24.56 -0.9,-11.16 -15.75,-10.79 -17.09,0 -1.18,9.49 -2.23,18.99 -3.31,28.49 l 15.96,-4.32 c -3.87,-8.63 -2.85,-18.78 -6.11,-27.67 -2.74,-7.49 -14.28,-8.74 -16.49,0 -2.39,9.4 -0.32,19.15 -2.57,28.47 h 16.2 C 133.84,34.5 133.65,25 132.72,15.96 132.3,11.9 129.92,8.42 125.61,7.9 c -3.84,-0.46 -8.12,1.83 -9,5.88 -2.08,9.5 -4.46,19 -6.11,28.58 h 15.21 c -2.05,-5.02 -2.65,-10.26 -3.29,-15.6 -0.6,-5.03 -0.43,-10.24 -2.62,-14.88 l -2.5,6.14 c 0.72,-0.29 1.39,-0.45 1.87,-1.09 v 0 z"
             id="path3" />
        </g>
        <g
           class="cls-10"
           id="g4">
          <path
             class="cls-6"
             d="m 122.06,48.83 c 6.65,-1.14 12.37,-8.1 16.97,-12.54 5.51,-5.32 11.81,-10.33 16.48,-16.41 2.71,-3.53 -2.58,-8.58 -6.11,-6.11 -6.5,4.57 -11.92,11.12 -17.41,16.84 -4.46,4.64 -10.72,10.24 -11.62,16.93 -0.13,0.95 0.95,1.42 1.69,1.29 z"
             id="path4" />
        </g>
        <g
           class="cls-10"
           id="g5">
          <path
             class="cls-6"
             d="m 138.64,49.17 c 5.75,-4.98 11.75,-9.69 17.53,-14.63 5.78,-4.94 12.62,-9.15 17.18,-14.91 1.16,-1.46 -0.25,-3.52 -2.03,-2.63 -6.42,3.22 -11.94,9.35 -17.2,14.14 -5.87,5.34 -11.2,11.1 -16.64,16.87 -0.73,0.77 0.37,1.84 1.16,1.16 z"
             id="path5" />
        </g>
        <g
           class="cls-10"
           id="g6">
          <path
             class="cls-6"
             d="m 27.68,54.64 c 9.5,-4.54 16.4,-13.09 23.49,-20.65 3.4,-3.63 6.69,-7.36 10.11,-10.97 3.42,-3.61 8.41,-7.1 9.85,-12.26 1.19,-4.28 -2.7,-7.19 -6.59,-6.59 -4.93,0.76 -8.6,5.45 -11.84,8.96 -3.82,4.13 -7.4,8.44 -10.92,12.83 -6.53,8.15 -14.01,16.2 -17.16,26.33 -0.58,1.87 1.52,3.09 3.06,2.35 z"
             id="path6" />
        </g>
        <g
           class="cls-10"
           id="g7">
          <path
             class="cls-6"
             d="M 48.84,53.56 C 54.38,47.99 60.01,42.49 65.63,36.99 70.44,32.28 78.28,27.26 80.96,21 c 0.53,-1.24 -0.36,-3.04 -1.93,-2.51 -6.49,2.16 -11.68,9.48 -16.25,14.32 -5.67,6 -10.87,12.23 -15.94,18.75 -1.08,1.39 0.68,3.33 2,2 z"
             id="path7" />
        </g>
      </g>
      <path
         class="cls-3"
         d="M 14.91,22.95 5.85,23.53 C 3.14,23.7 1.09,26.04 1.27,28.75 l 1.69,25.9 c 0.06,0.85 1.26,0.95 1.45,0.12 L 7.88,40.05 c 0.03,-0.13 0.94,-3.14 1.05,-3.21 l 12.44,-5.96 c 0.27,-0.18 0.32,-0.56 0.1,-0.81 l -6.56,-7.13 z"
         id="path8"
         style="display:inline" />
      <path
         class="cls-3"
         d="M 71.68,3.24 20.16,13.42 c -4.83,0.95 -7.88,5.75 -6.69,10.53 1.99,7.99 4.85,19.63 6.46,26.97 0.87,3.95 4.37,6.76 8.41,6.76 h 45 c 4.76,0 8.62,-3.86 8.62,-8.62 V 11.69 C 81.96,6.26 77,2.19 71.67,3.24 Z m 3.01,42.91 c 0,1.85 -1.5,3.35 -3.35,3.35 H 31.63 c -1.54,0 -2.88,-1.05 -3.25,-2.54 L 22.64,24.01 c -0.48,-1.93 0.81,-3.85 2.78,-4.13 l 45.45,-6.49 c 2.02,-0.29 3.82,1.28 3.82,3.32 z"
         id="path9"
         style="display:inline" />
      <path
         class="cls-3"
         d="m 173.48,21.13 9.06,0.58 c 2.71,0.17 4.76,2.51 4.58,5.22 l -1.69,25.9 c -0.06,0.85 -1.26,0.95 -1.45,0.12 l -3.47,-14.72 c -0.03,-0.13 -0.94,-3.14 -1.05,-3.21 l -12.44,-5.96 c -0.27,-0.18 -0.32,-0.56 -0.1,-0.81 l 6.56,-7.13 z"
         id="path10"
         style="display:inline" />
      <path
         class="cls-3"
         d="m 106.43,9.87 v 37.37 c 0,4.76 3.86,8.62 8.62,8.62 h 45 c 4.05,0 7.54,-2.81 8.41,-6.76 1.61,-7.33 4.47,-18.98 6.46,-26.97 1.19,-4.78 -1.86,-9.58 -6.69,-10.53 L 116.71,1.42 c -5.33,-1.05 -10.29,3.02 -10.29,8.45 z m 7.27,5.01 c 0,-2.04 1.81,-3.6 3.82,-3.32 l 45.45,6.49 c 1.97,0.28 3.26,2.2 2.78,4.13 l -5.74,22.95 c -0.37,1.49 -1.71,2.54 -3.25,2.54 h -39.71 c -1.85,0 -3.35,-1.5 -3.35,-3.35 V 14.89 Z"
         id="path11"
         style="display:inline" />
      <path
         class="cls-3"
         d="m 78.67,15.85 c 0,0 3.29,-5.28 13.19,-6.59 11.73,-1.55 17.07,4.1 17.07,4.1 0,0 4.75,5.79 0,5.99 -4.75,0.2 -13.48,-2.04 -21.14,0 -7.66,2.04 -12.8,4.56 -9.12,-3.49 z"
         id="path12"
         style="display:inline" />
      <g
         class="cls-11"
         id="g18"
         style="display:inline">
        <g
           class="cls-9"
           clip-path="url(#clippath)"
           id="g17">
          <path
             class="cls-8"
             d="m 9.73,35.82 -0.1,0.19 c -1.18,2.32 1.24,5.04 3.65,3.65 l 0.43,-0.25 c 1.2,-0.7 2.08,-2.11 2.02,-3.52 -0.06,-1.41 -0.23,-2.7 -0.45,-4.1 C 14.7,28.09 8.94,27.59 7.33,30.75 4.62,36.06 2.68,41.59 1.7,47.48 0.86,52.53 -0.45,58.2 3.09,62.36 c 1.54,1.81 4.07,0.89 5.25,-0.68 2.62,-3.46 1.66,-8.51 2.34,-12.63 0.79,-4.77 2.27,-9.47 4.17,-13.91 L 6.9,34.1 c 0.17,0.99 0.44,1.94 0.82,2.87 0.44,1.26 1.42,2.62 2.85,2.85 l 0.66,0.11 -1.18,-4.46 c -0.12,0.1 -0.23,0.22 -0.32,0.35 z"
             id="path13" />
          <path
             class="cls-8"
             d="m 175.07,39.73 c 2.03,-2.99 4.06,-5.75 5.99,-8.81 l -6.14,-0.8 c 1.36,4.33 2.58,8.82 3.31,13.3 0.67,4.07 -0.19,8.72 2.98,11.77 1.32,1.28 3.74,1.46 5.04,0 3.31,-3.72 1.81,-8.86 0.76,-13.35 -1.21,-5.16 -3.17,-9.81 -5.95,-14.31 -1.86,-3.01 -5.94,-1.52 -6.26,1.7 -0.35,3.46 -0.42,6.8 -0.65,10.26 -0.03,0.52 0.67,0.62 0.92,0.25 v 0 z"
             id="path14" />
          <path
             class="cls-8"
             d="m 169.89,33.58 c 1.14,-1.38 2.28,-2.76 3.42,-4.15 l -2.86,-2.21 c -2.38,3.57 -4.51,6.65 -6.3,10.61 -0.96,2.13 -2.09,8.29 -4.02,9.47 -0.86,0.52 -3.73,-0.07 -4.68,-0.11 -2.24,-0.1 -4.49,-0.21 -6.73,-0.33 -4.16,-0.23 -8.33,-0.51 -12.49,-0.84 -4.16,-0.33 -8.31,-0.71 -12.46,-1.13 -1.91,-0.2 -3.83,-0.4 -5.74,-0.6 -0.85,-0.09 -2.03,-0.42 -2.87,-0.3 l -1.67,-0.2 1.34,2.06 c 0.69,-0.24 0.73,-10.24 0.84,-11.51 0.3,-3.69 0.99,-7.58 0.73,-11.29 -0.5,-7.18 -5.99,-10.7 -12.66,-11.23 -6.67,-0.53 -15.57,0.04 -21.88,2.67 -6.73,2.8 -8.3,9.12 -7.7,15.82 0.33,3.66 0.58,7.3 0.49,10.98 -0.05,1.87 -0.15,3.73 -0.33,5.59 -0.1,0.97 -0.05,2.27 -0.37,3.19 -0.64,1.79 0.14,0.84 -1.29,1.62 -1.57,0.84 -4.81,0.58 -6.59,0.75 -2.21,0.21 -4.43,0.38 -6.64,0.51 -4.75,0.29 -9.51,0.48 -14.27,0.5 -9.53,0.04 -19.04,-0.6 -28.49,-1.81 l 1.52,11.2 C 38.88,57.28 60.47,66.95 81.09,59.92 86.89,57.94 86.16,48.91 79.6,48.93 67.83,48.96 56,49.21 44.23,48.76 34.67,48.39 23.52,45.9 20.92,35.27 c -1.63,-6.65 -10.88,-3.64 -9.99,2.75 1.69,12.08 13.72,19.04 24.8,20.78 14.3,2.24 29.43,1.06 43.87,1.32 L 78.11,49.13 c -20.49,6.52 -42.17,-2.86 -62.96,2.71 -6.7,1.79 -4.47,10.43 1.52,11.2 17.36,2.24 34.87,2.48 52.25,0.27 7.41,-0.94 14.05,-1.84 15.55,-10.34 1.5,-8.5 0.3,-16.48 0.05,-24.87 -0.06,-1.92 -0.19,-2.86 1.62,-3.8 1.6,-0.83 4.35,-0.67 6.13,-0.77 2.14,-0.12 4.28,-0.16 6.42,-0.18 1.31,-0.01 4.53,-0.58 5.66,0.23 1.25,0.88 -0.18,7.84 -0.36,9.85 -0.38,4.27 -1.27,8.82 -1.02,13.1 0.51,8.81 9.17,9.23 16.02,10.03 8.92,1.03 17.89,1.73 26.85,2.25 7.33,0.42 17.71,2.67 23.15,-3.72 2.87,-3.37 3.45,-8.2 4.14,-12.41 0.82,-4.94 0.81,-9.54 0.72,-14.51 -0.05,-2.4 -3.4,-2.29 -3.65,0 -0.19,1.77 -0.39,3.55 -0.58,5.32 -0.02,0.14 0.19,0.22 0.28,0.12 v 0 z"
             id="path15" />
          <path
             class="cls-7"
             d="m 14.13,23.22 c 1.2,-0.57 1.68,-1.07 2.42,-2.18 1.42,-2.13 1.12,-3.25 4.11,-4.32 1.04,-0.37 2.18,-0.47 3.26,-0.59 6.3,-0.69 12.6,-1.36 18.9,-2.13 6.3,-0.77 12.85,-1.56 19.29,-2.28 C 68.55,11 75.21,11.21 81.17,9.37 84.12,8.46 83.27,4.63 80.48,4.3 73.69,3.49 66,5.26 59.21,6.04 c -6.79,0.78 -14.01,1.77 -21,2.87 -5.63,0.88 -11.99,1.3 -17.1,4.04 -1.45,0.78 -2.88,1.75 -3.87,3.09 -1.36,1.86 -1.48,5.54 -3.28,6.88 -0.17,0.13 -0.03,0.38 0.17,0.28 v 0 z"
             id="path16" />
          <path
             class="cls-7"
             d="m 105.71,7.42 c 5.21,-0.21 9.56,-2.56 14.95,-1.64 6.29,1.07 12.53,2.92 18.76,4.34 12.83,2.95 25.83,6.22 38.83,8.29 3.82,0.61 5.55,-4.88 1.64,-5.93 -13.64,-3.68 -27.82,-6.16 -41.68,-8.87 -6.01,-1.17 -12.26,-3 -18.42,-3.06 -2.31,-0.03 -4.51,0.24 -6.63,1.23 -2.64,1.24 -4.66,4.38 -7.54,4.95 -0.39,0.08 -0.3,0.71 0.09,0.69 z"
             id="path17" />
        </g>
      </g>
      <path
         class="cls-1"
         d="m13.34,23.2l-7.15.34c-2.71.17-4.76,2.51-4.58,5.22l1.69,25.9c.06.85,1.26.95,1.45.12l3.47-14.72c.03-.13.94-3.14,1.05-3.21l6.45-3.09"
         id="path18" />
      <path
         class="cls-1"
         d="m 82.31,11.69 c 0,-5.43 -4.96,-9.5 -10.29,-8.45 L 20.51,13.42 c -4.83,0.95 -7.88,5.75 -6.69,10.53 1.99,7.99 4.85,19.63 6.46,26.97 0.87,3.95 4.37,6.76 8.41,6.76 h 45 c 4.76,0 8.62,-3.86 8.62,-8.62 V 21.22 m -7.27,24.93 c 0,1.85 -1.5,3.35 -3.35,3.35 H 31.98 c -1.54,0 -2.88,-1.05 -3.25,-2.54 L 22.99,24.01 c -0.48,-1.93 0.81,-3.85 2.78,-4.13 l 45.45,-6.49 c 2.02,-0.29 3.82,1.28 3.82,3.32 z"
         id="path19"
         style="display:inline" />
      <path
         class="cls-1"
         d="m 175.22,21.22 7.67,0.49 c 2.71,0.17 4.76,2.51 4.58,5.22 l -1.69,25.9 c -0.06,0.85 -1.26,0.95 -1.45,0.12 l -3.47,-14.72 c -0.03,-0.13 -0.94,-3.14 -1.05,-3.21 l -6.89,-3.3"
         id="path20"
         style="display:inline" />
      <path
         class="cls-1"
         d="m 106.77,19.19 v 28.05 c 0,4.76 3.86,8.62 8.62,8.62 h 45 c 4.05,0 7.54,-2.81 8.41,-6.76 1.61,-7.33 4.47,-18.98 6.46,-26.97 1.19,-4.78 -1.86,-9.58 -6.69,-10.53 L 117.06,1.42 c -5.33,-1.05 -10.29,3.02 -10.29,8.45 v 1.82 m 7.27,3.19 c 0,-2.04 1.81,-3.6 3.82,-3.32 l 45.45,6.49 c 1.97,0.28 3.26,2.2 2.78,4.13 l -5.74,22.95 c -0.37,1.49 -1.71,2.54 -3.25,2.54 h -39.71 c -1.85,0 -3.35,-1.5 -3.35,-3.35 V 14.89 Z"
         id="path21"
         style="display:inline" />
      <path
         class="cls-1"
         d="m 79.01,15.85 c 0,0 3.29,-5.28 13.19,-6.59 11.73,-1.55 17.07,4.1 17.07,4.1 0,0 4.75,5.79 0,5.99 -4.75,0.19 -13.48,-2.04 -21.14,0 -7.66,2.04 -12.8,4.56 -9.12,-3.49 z"
         id="path22"
         style="display:inline" />
      <g
         class="cls-4"
         id="g33"
         style="display:inline">
        <path
           class="cls-6"
           d="m 84.37,15.72 c 4.84,-2.71 10.49,-0.57 15.47,-1.97 0.6,-0.17 0.85,-1.18 0.19,-1.46 -2.62,-1.12 -5.69,-0.92 -8.48,-0.62 -3.14,0.33 -5.1,1.54 -7.66,3.24 -0.5,0.33 -0.06,1.11 0.47,0.81 v 0 z"
           id="path23" />
        <path
           class="cls-6"
           d="m 104.46,14.86 0.14,-0.27 0.09,-0.22 c 0.04,-0.12 0.04,-0.24 0.02,-0.37 0,-0.08 -0.02,-0.16 -0.06,-0.23 -0.04,-0.11 -0.1,-0.21 -0.19,-0.29 l -0.19,-0.14 -0.22,-0.09 c -0.12,-0.04 -0.24,-0.04 -0.37,-0.02 -0.12,0 -0.24,0.04 -0.34,0.11 l -0.27,0.14 c -0.3,0.16 -0.52,0.53 -0.5,0.87 l 0.04,0.27 c 0.05,0.17 0.13,0.32 0.26,0.45 0.09,0.1 0.2,0.17 0.32,0.21 0.12,0.06 0.25,0.09 0.39,0.09 0.18,0 0.35,-0.05 0.51,-0.14 0.15,-0.09 0.27,-0.21 0.36,-0.36 v 0 z"
           id="path24" />
        <path
           class="cls-6"
           d="m 18.86,18.45 c 3.7,-1.48 7.77,-1.67 11.59,-2.66 0.98,-0.25 0.68,-1.57 -0.22,-1.66 -4.31,-0.45 -8.08,1.41 -11.8,3.29 -0.56,0.28 -0.16,1.27 0.43,1.03 z"
           id="path25" />
        <path
           class="cls-6"
           d="m 47.96,14.16 2.22,-0.22 c 0.49,-0.05 0.92,-0.39 0.92,-0.92 0,-0.46 -0.42,-0.97 -0.92,-0.92 l -2.22,0.22 c -0.49,0.05 -0.92,0.39 -0.92,0.92 0,0.46 0.42,0.97 0.92,0.92 z"
           id="path26" />
        <path
           class="cls-6"
           d="m 47.48,13.8 c 3.6,0.01 7.32,-0.49 10.9,-0.96 1.62,-0.21 1.75,-2.66 0,-2.63 -3.78,0.07 -7.8,0.71 -11.25,2.27 -0.66,0.3 -0.3,1.31 0.36,1.31 v 0 z"
           id="path27" />
        <path
           class="cls-6"
           d="m 117.89,6.68 c 9.24,2.67 19.64,5.88 29.37,5.63 1.03,-0.03 1.11,-1.36 0.23,-1.71 -9.03,-3.61 -19.85,-4.22 -29.46,-4.94 -0.59,-0.04 -0.68,0.86 -0.14,1.01 v 0 z"
           id="path28" />
        <path
           class="cls-6"
           d="m 157.13,13.35 c 0.75,0.36 1.49,0.76 2.3,0.96 1.12,0.27 1.56,-1.35 0.47,-1.72 -0.79,-0.27 -1.63,-0.32 -2.46,-0.42 -0.62,-0.08 -0.87,0.92 -0.32,1.18 v 0 z"
           id="path29" />
        <path
           class="cls-6"
           d="m 5.95,36.75 c 0.12,-2.45 0.03,-4.92 0,-7.38 0,-0.26 -0.18,-1.46 -0.02,-1.65 0.1,-0.1 1.36,-0.17 1.56,-0.21 1.22,-0.22 2.34,-0.5 3.44,-1.04 0.75,-0.36 0.33,-1.46 -0.4,-1.49 -1.61,-0.06 -3.75,0.24 -5.27,0.8 -0.79,0.29 -1.22,0.59 -1.45,1.43 -0.36,1.33 -0.04,3.25 0.09,4.61 0.17,1.74 0.41,3.4 0.9,5.07 0.19,0.65 1.12,0.5 1.15,-0.16 v 0 z"
           id="path30" />
        <path
           class="cls-6"
           d="m 176.94,26.64 2.53,0.31 c 0.42,0.05 0.85,0.08 1.27,0.15 0.66,0.12 0.62,0 0.71,0.67 0.24,1.61 -0.22,3.34 -0.05,4.98 0.11,1.12 1.62,1.12 1.74,0 0.14,-1.31 0.03,-2.66 0,-3.98 -0.02,-0.76 0.15,-1.85 -0.33,-2.5 -0.44,-0.6 -1.15,-0.57 -1.82,-0.61 -1.35,-0.09 -2.7,-0.13 -4.05,-0.19 -0.77,-0.04 -0.73,1.09 0,1.17 z"
           id="path31" />
        <path
           class="cls-6"
           d="m 44.07,52.81 c 7.23,1.45 15.2,1.2 22.51,0.51 0.7,-0.07 0.68,-0.99 0,-1.08 -7.29,-0.97 -15.23,-1.5 -22.51,-0.33 -0.46,0.07 -0.44,0.82 0,0.91 v 0 z"
           id="path32" />
        <path
           class="cls-6"
           d="m 125.09,51.1 c 5.16,0.3 11.13,1.42 16.16,-0.11 0.72,-0.22 0.76,-1.3 0,-1.49 -5.09,-1.33 -11.03,0.02 -16.16,0.52 -0.69,0.07 -0.7,1.04 0,1.08 z"
           id="path33" />
      </g>
      <path
         style="fill:#ffffff;stroke-width:0.272123"
         d="m 115.4243,46.597681 -0.59556,-0.554842 V 29.862201 c 0,-15.817808 0.0123,-16.192841 0.54424,-16.72488 0.29934,-0.299334 0.88489,-0.544243 1.30123,-0.544243 0.41635,0 11.46788,1.529305 24.55899,3.398455 21.67496,3.094758 23.84455,3.450059 24.27821,3.97591 0.26191,0.317601 0.47621,0.809796 0.47621,1.093767 0,0.283972 -1.36336,5.968825 -3.02968,12.633008 -1.97965,7.917289 -3.21255,12.349185 -3.55733,12.787503 l -0.52766,0.670806 H 137.4464 c -21.18686,0 -21.43321,-0.0062 -22.0221,-0.554846 z"
         id="path34" />
      <path
         style="fill:#ffffff;stroke-width:0.267896"
         d="M 30.747883,48.456782 C 30.448081,48.335258 30.063375,48.067849 29.89298,47.862536 29.722585,47.657223 28.19703,41.948744 26.502857,35.177025 23.16489,21.834951 23.183272,21.9798 24.729516,21.203377 c 0.623507,-0.313086 45.390337,-6.79466 47.384798,-6.860617 0.64597,-0.02136 1.048296,0.147299 1.406456,0.589611 0.477583,0.589788 0.501669,1.375916 0.501669,16.373826 0,8.664861 -0.07488,15.949442 -0.166413,16.187958 -0.467931,1.219407 -0.452253,1.218555 -22.122652,1.200553 -11.242219,-0.0093 -20.68569,-0.116407 -20.985491,-0.237926 z"
         id="path35" />
    </g>
  </g>
</svg>
