<?xml version="1.0" encoding="UTF-8"?>
<svg id="Calque_2" data-name="Calque 2" xmlns="http://www.w3.org/2000/svg" xmlns:xlink="http://www.w3.org/1999/xlink" viewBox="0 0 188.74 58.93">
  <defs>
    <style>
      .cls-1 {
        stroke: #132247;
        stroke-linecap: round;
        stroke-linejoin: round;
      }

      .cls-1, .cls-2 {
        fill: none;
      }

      .cls-1, .cls-3 {
        stroke-width: 2.51px;
      }

      .cls-4 {
        opacity: .52;
      }

      .cls-2, .cls-5, .cls-6, .cls-7, .cls-8 {
        stroke-width: 0px;
      }

      .cls-5 {
        fill: #d737b8;
      }

      .cls-6 {
        fill: #fff;
      }

      .cls-3 {
        fill: #5270d5;
        stroke: #231f20;
        stroke-miterlimit: 10;
      }

      .cls-9 {
        clip-path: url(#clippath);
      }

      .cls-10 {
        opacity: .43;
      }

      .cls-7 {
        fill: #eafdf1;
      }

      .cls-8 {
        fill: #82263e;
      }

      .cls-11 {
        opacity: .37;
      }
    </style>
    <clipPath id="clippath">
      <path class="cls-2" d="m182.59,21.86l-7.45-.48c.63-4.47-2.34-8.74-6.86-9.64L116.76,1.56c-5.33-1.05-10.29,3.02-10.29,8.45v1.67c-2.63-1.5-7.41-3.24-14.57-2.29-4.63.61-7.81,2.09-9.89,3.5v-1.06c0-5.43-4.96-9.5-10.29-8.45L20.21,13.56c-4.53.89-7.49,5.17-6.86,9.64l-7.45.48c-2.71.17-4.76,2.51-4.58,5.22l1.69,25.9c.06.85,1.26.95,1.45.12l3.47-14.72c.03-.13.94-3.14,1.05-3.21l6.91-3.31c1.5,6.16,3.06,12.66,4.09,17.38.87,3.95,4.37,6.76,8.41,6.76h45c4.76,0,8.62-3.86,8.62-8.62v-28.11c1.63-.4,3.62-1.03,5.82-1.61,6.47-1.72,13.69-.4,18.65-.06v27.96c0,4.76,3.86,8.62,8.62,8.62h45c4.05,0,7.54-2.81,8.41-6.76,1.04-4.72,2.59-11.21,4.09-17.38l6.91,3.31c.11.08,1.02,3.08,1.05,3.21l3.47,14.72c.19.83,1.4.72,1.45-.12l1.69-25.9c.18-2.71-1.88-5.04-4.58-5.22Zm-107.85,24.44c0,1.85-1.5,3.35-3.35,3.35H31.68c-1.54,0-2.88-1.05-3.25-2.54l-5.74-22.95c-.48-1.93.81-3.85,2.78-4.13l45.45-6.49c2.02-.29,3.82,1.28,3.82,3.32v29.44Zm91.05-23.96l-5.74,22.95c-.37,1.49-1.71,2.54-3.25,2.54h-39.71c-1.85,0-3.35-1.5-3.35-3.35V15.03c0-2.04,1.81-3.6,3.82-3.32l45.45,6.49c1.97.28,3.26,2.2,2.78,4.13Z"/>
    </clipPath>
  </defs>
  <g id="Layer_1" data-name="Layer 1">
    <g>
      <g>
        <g class="cls-10">
          <path class="cls-5" d="m31.28,25.83l.12-.11c2.24-2.02,1.86-5.54,0-7.62l-.14-.16c-2.23-2.48-7.03-1.95-8.53,1.1-3.68,7.46.48,19.2,2.4,26.75,2.37,9.3,16.06,7.04,16.38-2.22.24-6.89-.72-13.51-.87-20.36l-15.36,2.08c2.33,7.92,4.27,14.74,11.2,19.73l-2.01-2.62c.37,1.36.59,2.74.67,4.15.55,6.16,8.93,7.7,10.96,1.48,2.74-8.42,2.79-17.24,3.26-26l-15.79,2.14c1.71,4.93,3.2,9.81,4.14,14.95s2.34,9.43,5.82,13.49c5.44,6.34,13.77.48,14.62-6.06.55-4.21.29-8.26-.06-12.47-.15-1.78-.32-3.57-.39-5.35-.05-1.18-.05-2.36,0-3.54.49-2.14.21-2.33-.86-.57l-6.16,2.55h.74c-2.51-1.45-5.02-2.89-7.52-4.33,2.06,2.89,2.23,8.13,2.8,11.57.73,4.39,1.5,8.69,2.97,12.9,1.93,5.53,10.23,9.47,14.66,3.87,3.82-4.84,3.82-8.86,3.47-14.73s.25-11.29,1.71-16.88l-17.34-2.35c1.19,12.36,1.26,25.94,9.23,36.08,5.09,6.47,14.91.67,15.17-6.28.32-8.65-1.86-17.65-.29-26.22h-16.96c1.11,5.55,2.09,11.13,2.81,16.75.6,4.68,3.59,8.73,8.73,8.73,4.79,0,8.67-4,8.73-8.73.07-5.16.03-10.44-1.67-15.36-3.02-8.74-15.26-7.07-15.92,2.15-.31,4.39.21,8.8.13,13.21h17.47c-.87-7.18-1.94-14.32-3.31-21.42-1.62-8.37-15.37-8.42-16.96,0-1.96,10.36-.06,20.49-.51,30.9l15.17-6.28c-1.93-2.47-2.14-6.94-2.59-9.92-.68-4.51-1.1-9.06-1.56-13.6s-3.02-8.12-7.65-8.67c-4.24-.5-8.58,1.99-9.68,6.32-1.26,4.93-2.09,10.01-2.32,15.11-.16,3.41,1.24,8.9.24,11.75l2.26-3.87-.72.92,14.66,3.87c-3.16-8.95-2.41-35.09-17.06-32.74s-7.57,26.94-8.5,36.65l14.62-6.06c-2.02-2.19-2.02-7.23-2.78-10.03-1.16-4.3-2.73-8.45-4.6-12.49-3.38-7.28-15.34-3.63-14.98,4.06.39,8.22,1.16,16.33,1.86,24.52l10.39-2.82c-1.18-1.54-2.14-3-3.06-4.71l.44,3.37c1.96-7.61-.48-13.95-2.55-21.27-2.38-8.4-15.48-6.87-15.36,2.08.09,6.86-.64,13.48-.16,20.36l15.54-4.21c-1.58-3.26-2.98-6.56-4.21-9.97-.62-1.72-1.16-3.44-1.88-5.12-.27-.64-1.34-4.32-1.44-2.5l-8.17,4.69.2.09-1.93-7.37-.07.14c-2.51,5.43,3.71,10.73,8.41,6.49h0Z"/>
        </g>
        <g class="cls-10">
          <path class="cls-5" d="m119.13,16.91l.63-.83c3.18-4.21-4.48-8.99-7.21-4.22-2.79,4.87-2.71,11.22-3.17,16.71-.51,6.05-.64,12.09,1.08,17.97,2.18,7.42,13.09,7.58,15.21,0,2.61-9.36,4.53-18.95,6.73-28.41l-16.12-2.18c.94,10.46.97,21.62,4.51,31.6,2.64,7.44,14.02,8.51,16.2,0,2.4-9.36.51-19.11,2.87-28.39h-16.49c3.81,10.4,3.25,21.53,7.81,31.77,1.52,3.4,6.31,4.86,9.67,3.94,3.92-1.08,5.84-4.46,6.29-8.26,1.11-9.5,2.26-18.99,3.27-28.49h-17.09c.95,9.76,1.84,19.57,4.14,29.12,1.84,7.62,11.74,7.85,15.68,2.05,2.77-4.09,2.65-9.94,3.3-14.69.8-5.86,1.35-11.73,1.88-17.62l-16.14,2.18c1.14,4.3.6,8.93.9,13.34.35,5.08,1.36,9.65,3.67,14.21,3.08,6.1,14.23,5.14,15.37-2.01,1.25-7.89,2.54-15.74,3.36-23.69h-16.21c.18,7.17.36,14.35.53,21.52.26,10.66,15.19,10.22,16.26,0,.73-6.94,1.47-13.87,2.06-20.82l-15.77,2.13c.27,1.25.55,2.49.82,3.74,2.22,10.09,17.15,5.73,15.35-4.23-.23-1.26-.46-2.52-.68-3.77-.7-3.88-5.19-6.3-8.81-5.75-4.25.64-6.46,3.8-6.96,7.89-.85,6.93-1.54,13.87-2.26,20.82h16.26c-.19-7.17-.38-14.35-.58-21.52-.24-8.81-13.96-11.42-15.92-2.15-1.5,7.08-2.55,14.22-3.65,21.37,5.12-.67,10.24-1.34,15.37-2.01-1.69-3.32-1.7-7-1.86-10.65-.19-4.32-.65-8.52-1.38-12.79-1.34-7.84-14.51-7.85-15.85,0-.83,4.87-1.73,9.73-2.36,14.63-.37,2.85-.06,9.06-1.49,11.21l15.68,2.05c-2.04-8.1-2.93-16.26-3.6-24.56-.9-11.16-15.75-10.79-17.09,0-1.18,9.49-2.23,18.99-3.31,28.49l15.96-4.32c-3.87-8.63-2.85-18.78-6.11-27.67-2.74-7.49-14.28-8.74-16.49,0-2.39,9.4-.32,19.15-2.57,28.47h16.2c-3.18-8.59-3.37-18.09-4.3-27.13-.42-4.06-2.8-7.54-7.11-8.06-3.84-.46-8.12,1.83-9,5.88-2.08,9.5-4.46,19-6.11,28.58h15.21c-2.05-5.02-2.65-10.26-3.29-15.6-.6-5.03-.43-10.24-2.62-14.88l-2.5,6.14c.72-.29,1.39-.45,1.87-1.09h0Z"/>
        </g>
        <g class="cls-10">
          <path class="cls-6" d="m122.06,48.83c6.65-1.14,12.37-8.1,16.97-12.54,5.51-5.32,11.81-10.33,16.48-16.41,2.71-3.53-2.58-8.58-6.11-6.11-6.5,4.57-11.92,11.12-17.41,16.84-4.46,4.64-10.72,10.24-11.62,16.93-.13.95.95,1.42,1.69,1.29h0Z"/>
        </g>
        <g class="cls-10">
          <path class="cls-6" d="m138.64,49.17c5.75-4.98,11.75-9.69,17.53-14.63s12.62-9.15,17.18-14.91c1.16-1.46-.25-3.52-2.03-2.63-6.42,3.22-11.94,9.35-17.2,14.14-5.87,5.34-11.2,11.1-16.64,16.87-.73.77.37,1.84,1.16,1.16h0Z"/>
        </g>
        <g class="cls-10">
          <path class="cls-6" d="m27.68,54.64c9.5-4.54,16.4-13.09,23.49-20.65,3.4-3.63,6.69-7.36,10.11-10.97s8.41-7.1,9.85-12.26c1.19-4.28-2.7-7.19-6.59-6.59-4.93.76-8.6,5.45-11.84,8.96-3.82,4.13-7.4,8.44-10.92,12.83-6.53,8.15-14.01,16.2-17.16,26.33-.58,1.87,1.52,3.09,3.06,2.35h0Z"/>
        </g>
        <g class="cls-10">
          <path class="cls-6" d="m48.84,53.56c5.54-5.57,11.17-11.07,16.79-16.57,4.81-4.71,12.65-9.73,15.33-15.99.53-1.24-.36-3.04-1.93-2.51-6.49,2.16-11.68,9.48-16.25,14.32-5.67,6-10.87,12.23-15.94,18.75-1.08,1.39.68,3.33,2,2h0Z"/>
        </g>
      </g>
      <path class="cls-3" d="m14.91,22.95l-9.06.58c-2.71.17-4.76,2.51-4.58,5.22l1.69,25.9c.06.85,1.26.95,1.45.12l3.47-14.72c.03-.13.94-3.14,1.05-3.21l12.44-5.96c.27-.18.32-.56.1-.81l-6.56-7.13Z"/>
      <path class="cls-3" d="m71.68,3.24L20.16,13.42c-4.83.95-7.88,5.75-6.69,10.53,1.99,7.99,4.85,19.63,6.46,26.97.87,3.95,4.37,6.76,8.41,6.76h45c4.76,0,8.62-3.86,8.62-8.62V11.69c0-5.43-4.96-9.5-10.29-8.45Zm3.01,42.91c0,1.85-1.5,3.35-3.35,3.35H31.63c-1.54,0-2.88-1.05-3.25-2.54l-5.74-22.95c-.48-1.93.81-3.85,2.78-4.13l45.45-6.49c2.02-.29,3.82,1.28,3.82,3.32v29.44Z"/>
      <path class="cls-3" d="m173.48,21.13l9.06.58c2.71.17,4.76,2.51,4.58,5.22l-1.69,25.9c-.06.85-1.26.95-1.45.12l-3.47-14.72c-.03-.13-.94-3.14-1.05-3.21l-12.44-5.96c-.27-.18-.32-.56-.1-.81l6.56-7.13Z"/>
      <path class="cls-3" d="m106.43,9.87v37.37c0,4.76,3.86,8.62,8.62,8.62h45c4.05,0,7.54-2.81,8.41-6.76,1.61-7.33,4.47-18.98,6.46-26.97,1.19-4.78-1.86-9.58-6.69-10.53L116.71,1.42c-5.33-1.05-10.29,3.02-10.29,8.45Zm7.27,5.01c0-2.04,1.81-3.6,3.82-3.32l45.45,6.49c1.97.28,3.26,2.2,2.78,4.13l-5.74,22.95c-.37,1.49-1.71,2.54-3.25,2.54h-39.71c-1.85,0-3.35-1.5-3.35-3.35V14.89Z"/>
      <path class="cls-3" d="m78.67,15.85s3.29-5.28,13.19-6.59c11.73-1.55,17.07,4.1,17.07,4.1,0,0,4.75,5.79,0,5.99s-13.48-2.04-21.14,0-12.8,4.56-9.12-3.49Z"/>
      <g class="cls-11">
        <g class="cls-9">
          <path class="cls-8" d="m9.73,35.82l-.1.19c-1.18,2.32,1.24,5.04,3.65,3.65l.43-.25c1.2-.7,2.08-2.11,2.02-3.52s-.23-2.7-.45-4.1c-.58-3.7-6.34-4.2-7.95-1.04-2.71,5.31-4.65,10.84-5.63,16.73-.84,5.05-2.15,10.72,1.39,14.88,1.54,1.81,4.07.89,5.25-.68,2.62-3.46,1.66-8.51,2.34-12.63.79-4.77,2.27-9.47,4.17-13.91l-7.95-1.04c.17.99.44,1.94.82,2.87.44,1.26,1.42,2.62,2.85,2.85l.66.11-1.18-4.46c-.12.1-.23.22-.32.35h0Z"/>
          <path class="cls-8" d="m175.07,39.73c2.03-2.99,4.06-5.75,5.99-8.81l-6.14-.8c1.36,4.33,2.58,8.82,3.31,13.3.67,4.07-.19,8.72,2.98,11.77,1.32,1.28,3.74,1.46,5.04,0,3.31-3.72,1.81-8.86.76-13.35-1.21-5.16-3.17-9.81-5.95-14.31-1.86-3.01-5.94-1.52-6.26,1.7-.35,3.46-.42,6.8-.65,10.26-.03.52.67.62.92.25h0Z"/>
          <path class="cls-8" d="m169.89,33.58c1.14-1.38,2.28-2.76,3.42-4.15l-2.86-2.21c-2.38,3.57-4.51,6.65-6.3,10.61-.96,2.13-2.09,8.29-4.02,9.47-.86.52-3.73-.07-4.68-.11-2.24-.1-4.49-.21-6.73-.33-4.16-.23-8.33-.51-12.49-.84s-8.31-.71-12.46-1.13c-1.91-.2-3.83-.4-5.74-.6-.85-.09-2.03-.42-2.87-.3l-1.67-.2,1.34,2.06c.69-.24.73-10.24.84-11.51.3-3.69.99-7.58.73-11.29-.5-7.18-5.99-10.7-12.66-11.23s-15.57.04-21.88,2.67c-6.73,2.8-8.3,9.12-7.7,15.82.33,3.66.58,7.3.49,10.98-.05,1.87-.15,3.73-.33,5.59-.1.97-.05,2.27-.37,3.19-.64,1.79.14.84-1.29,1.62-1.57.84-4.81.58-6.59.75-2.21.21-4.43.38-6.64.51-4.75.29-9.51.48-14.27.5-9.53.04-19.04-.6-28.49-1.81l1.52,11.2c20.69-5.56,42.28,4.11,62.9-2.92,5.8-1.98,5.07-11.01-1.49-10.99-11.77.03-23.6.28-35.37-.17-9.56-.37-20.71-2.86-23.31-13.49-1.63-6.65-10.88-3.64-9.99,2.75,1.69,12.08,13.72,19.04,24.8,20.78,14.3,2.24,29.43,1.06,43.87,1.32l-1.49-10.99c-20.49,6.52-42.17-2.86-62.96,2.71-6.7,1.79-4.47,10.43,1.52,11.2,17.36,2.24,34.87,2.48,52.25.27,7.41-.94,14.05-1.84,15.55-10.34s.3-16.48.05-24.87c-.06-1.92-.19-2.86,1.62-3.8,1.6-.83,4.35-.67,6.13-.77,2.14-.12,4.28-.16,6.42-.18,1.31-.01,4.53-.58,5.66.23,1.25.88-.18,7.84-.36,9.85-.38,4.27-1.27,8.82-1.02,13.1.51,8.81,9.17,9.23,16.02,10.03,8.92,1.03,17.89,1.73,26.85,2.25,7.33.42,17.71,2.67,23.15-3.72,2.87-3.37,3.45-8.2,4.14-12.41.82-4.94.81-9.54.72-14.51-.05-2.4-3.4-2.29-3.65,0-.19,1.77-.39,3.55-.58,5.32-.02.14.19.22.28.12h0Z"/>
          <path class="cls-7" d="m14.13,23.22c1.2-.57,1.68-1.07,2.42-2.18,1.42-2.13,1.12-3.25,4.11-4.32,1.04-.37,2.18-.47,3.26-.59,6.3-.69,12.6-1.36,18.9-2.13s12.85-1.56,19.29-2.28,13.1-.51,19.06-2.35c2.95-.91,2.1-4.74-.69-5.07-6.79-.81-14.48.96-21.27,1.74s-14.01,1.77-21,2.87c-5.63.88-11.99,1.3-17.1,4.04-1.45.78-2.88,1.75-3.87,3.09-1.36,1.86-1.48,5.54-3.28,6.88-.17.13-.03.38.17.28h0Z"/>
          <path class="cls-7" d="m105.71,7.42c5.21-.21,9.56-2.56,14.95-1.64,6.29,1.07,12.53,2.92,18.76,4.34,12.83,2.95,25.83,6.22,38.83,8.29,3.82.61,5.55-4.88,1.64-5.93-13.64-3.68-27.82-6.16-41.68-8.87-6.01-1.17-12.26-3-18.42-3.06-2.31-.03-4.51.24-6.63,1.23-2.64,1.24-4.66,4.38-7.54,4.95-.39.08-.3.71.09.69h0Z"/>
        </g>
      </g>
      <path class="cls-1" d="m13.34,23.2l-7.15.34c-2.71.17-4.76,2.51-4.58,5.22l1.69,25.9c.06.85,1.26.95,1.45.12l3.47-14.72c.03-.13.94-3.14,1.05-3.21l6.45-3.09"/>
      <path class="cls-1" d="m82.31,11.69c0-5.43-4.96-9.5-10.29-8.45L20.51,13.42c-4.83.95-7.88,5.75-6.69,10.53,1.99,7.99,4.85,19.63,6.46,26.97.87,3.95,4.37,6.76,8.41,6.76h45c4.76,0,8.62-3.86,8.62-8.62v-27.84m-7.27,24.93c0,1.85-1.5,3.35-3.35,3.35H31.98c-1.54,0-2.88-1.05-3.25-2.54l-5.74-22.95c-.48-1.93.81-3.85,2.78-4.13l45.45-6.49c2.02-.29,3.82,1.28,3.82,3.32v29.44Z"/>
      <path class="cls-1" d="m175.22,21.22l7.67.49c2.71.17,4.76,2.51,4.58,5.22l-1.69,25.9c-.06.85-1.26.95-1.45.12l-3.47-14.72c-.03-.13-.94-3.14-1.05-3.21l-6.89-3.3"/>
      <path class="cls-1" d="m106.77,19.19v28.05c0,4.76,3.86,8.62,8.62,8.62h45c4.05,0,7.54-2.81,8.41-6.76,1.61-7.33,4.47-18.98,6.46-26.97,1.19-4.78-1.86-9.58-6.69-10.53L117.06,1.42c-5.33-1.05-10.29,3.02-10.29,8.45v1.82m7.27,3.19c0-2.04,1.81-3.6,3.82-3.32l45.45,6.49c1.97.28,3.26,2.2,2.78,4.13l-5.74,22.95c-.37,1.49-1.71,2.54-3.25,2.54h-39.71c-1.85,0-3.35-1.5-3.35-3.35V14.89Z"/>
      <path class="cls-1" d="m79.01,15.85s3.29-5.28,13.19-6.59c11.73-1.55,17.07,4.1,17.07,4.1,0,0,4.75,5.79,0,5.99-4.75.19-13.48-2.04-21.14,0s-12.8,4.56-9.12-3.49Z"/>
      <g class="cls-4">
        <path class="cls-6" d="m84.37,15.72c4.84-2.71,10.49-.57,15.47-1.97.6-.17.85-1.18.19-1.46-2.62-1.12-5.69-.92-8.48-.62-3.14.33-5.1,1.54-7.66,3.24-.5.33-.06,1.11.47.81h0Z"/>
        <path class="cls-6" d="m104.46,14.86l.14-.27.09-.22c.04-.12.04-.24.02-.37,0-.08-.02-.16-.06-.23-.04-.11-.1-.21-.19-.29l-.19-.14-.22-.09c-.12-.04-.24-.04-.37-.02-.12,0-.24.04-.34.11l-.27.14c-.3.16-.52.53-.5.87l.04.27c.05.17.13.32.26.45.09.1.2.17.32.21.12.06.25.09.39.09.18,0,.35-.05.51-.14.15-.09.27-.21.36-.36h0Z"/>
        <path class="cls-6" d="m18.86,18.45c3.7-1.48,7.77-1.67,11.59-2.66.98-.25.68-1.57-.22-1.66-4.31-.45-8.08,1.41-11.8,3.29-.56.28-.16,1.27.43,1.03h0Z"/>
        <path class="cls-6" d="m47.96,14.16l2.22-.22c.49-.05.92-.39.92-.92,0-.46-.42-.97-.92-.92l-2.22.22c-.49.05-.92.39-.92.92,0,.46.42.97.92.92h0Z"/>
        <path class="cls-6" d="m47.48,13.8c3.6.01,7.32-.49,10.9-.96,1.62-.21,1.75-2.66,0-2.63-3.78.07-7.8.71-11.25,2.27-.66.3-.3,1.31.36,1.31h0Z"/>
        <path class="cls-6" d="m117.89,6.68c9.24,2.67,19.64,5.88,29.37,5.63,1.03-.03,1.11-1.36.23-1.71-9.03-3.61-19.85-4.22-29.46-4.94-.59-.04-.68.86-.14,1.01h0Z"/>
        <path class="cls-6" d="m157.13,13.35c.75.36,1.49.76,2.3.96,1.12.27,1.56-1.35.47-1.72-.79-.27-1.63-.32-2.46-.42-.62-.08-.87.92-.32,1.18h0Z"/>
        <path class="cls-6" d="m5.95,36.75c.12-2.45.03-4.92,0-7.38,0-.26-.18-1.46-.02-1.65.1-.1,1.36-.17,1.56-.21,1.22-.22,2.34-.5,3.44-1.04.75-.36.33-1.46-.4-1.49-1.61-.06-3.75.24-5.27.8-.79.29-1.22.59-1.45,1.43-.36,1.33-.04,3.25.09,4.61.17,1.74.41,3.4.9,5.07.19.65,1.12.5,1.15-.16h0Z"/>
        <path class="cls-6" d="m176.94,26.64l2.53.31c.42.05.85.08,1.27.15.66.12.62,0,.71.67.24,1.61-.22,3.34-.05,4.98.11,1.12,1.62,1.12,1.74,0,.14-1.31.03-2.66,0-3.98-.02-.76.15-1.85-.33-2.5-.44-.6-1.15-.57-1.82-.61-1.35-.09-2.7-.13-4.05-.19-.77-.04-.73,1.09,0,1.17h0Z"/>
        <path class="cls-6" d="m44.07,52.81c7.23,1.45,15.2,1.2,22.51.51.7-.07.68-.99,0-1.08-7.29-.97-15.23-1.5-22.51-.33-.46.07-.44.82,0,.91h0Z"/>
        <path class="cls-6" d="m125.09,51.1c5.16.3,11.13,1.42,16.16-.11.72-.22.76-1.3,0-1.49-5.09-1.33-11.03.02-16.16.52-.69.07-.7,1.04,0,1.08h0Z"/>
      </g>
    </g>
  </g>
</svg>