<svg xmlns="http://www.w3.org/2000/svg" xmlns:xlink="http://www.w3.org/1999/xlink" preserveAspectRatio="xMidYMid meet" version="1.0" viewBox="2.0 9.0 44.0 30.0" zoomAndPan="magnify" style="fill: rgb(255, 34, 98);" original_string_length="524" width="52.40002249770627px" height="35.727288066617916px"><g id="__id0_scpe846hdr9"><path d="M24 9c-10 0-18.54 6.22-22 15 3.46 8.78 12 15 22 15s18.54-6.22 22-15c-3.46-8.78-11.99-15-22-15zm0 25c-5.52 0-10-4.48-10-10s4.48-10 10-10 10 4.48 10 10-4.48 10-10 10zm0-16c-3.31 0-6 2.69-6 6s2.69 6 6 6 6-2.69 6-6-2.69-6-6-6z" style="fill: inherit;"/></g></svg>