<svg xmlns="http://www.w3.org/2000/svg" xmlns:xlink="http://www.w3.org/1999/xlink" viewBox="0 0 168.47 154.3"><defs><style>.cls-1,.cls-10,.cls-9{fill:none;}.cls-2{fill:#221f20;}.cls-3{fill:#99e6f2;}.cls-3,.cls-4{stroke:#221f20;}.cls-10,.cls-3,.cls-4,.cls-9{stroke-linecap:round;stroke-linejoin:round;stroke-width:5px;}.cls-4{fill:#f8d174;}.cls-5{opacity:0.39;}.cls-6{clip-path:url(#clip-path);}.cls-7{fill:#84263d;}.cls-8{fill:#ebfef3;}.cls-9{stroke:#201c42;}.cls-10{stroke:#52291d;}.cls-11{fill:#fff;}</style><clipPath id="clip-path" transform="translate(0 2.68)"><path class="cls-1" d="M146.94,23.33l-14.66-3.22s-10.84-3.6-17.93,16.56S61.83,59.62,71.86,51.93c6.81-5.22,7.48-19.24,6.42-28.06C76.78,11.39,60.63-.07,48.47,3.11c-5.65,1.48-13.1,5.61-19.55,13.21-10.76,12.69-9,25-4.41,34.3L2.21,74.19s21.67-4.31,34.07-8.32c.7.63,1.12,1,1.12,1-7.4,27.87,12.81,41,12.81,41,45.35,22.67,65.8-3.71,73.5-19.47a36.75,36.75,0,0,0,3.52-15.2c.12-4.51,1.56-10.75,8.14-13.33C141,57.66,148.7,45.29,153,35.12A8.62,8.62,0,0,0,146.94,23.33Z"/></clipPath></defs><g id="Calque_2" data-name="Calque 2"><g id="Layer_11" data-name="Layer 11"><path class="cls-2" d="M59.89,109.05q.54,7.82,1,15.66.2,3.92.38,7.83c.07,1.55.66,4.56.15,5.9l2.73-3.56c-1.36,1-4.9,1-6.5,1.25-2.77.4-5.56.63-8.35.82-7.6.5-7.66,12.41,0,11.9A132.26,132.26,0,0,0,64.52,147c3.82-.7,7.58-1.87,8.64-6.14s-.07-9.78-.3-14.18q-.45-8.82-1.06-17.62c-.53-7.61-12.44-7.66-11.91,0Z" transform="translate(0 2.68)"/><path class="cls-2" d="M87.3,112.55a120.94,120.94,0,0,1,4.25,18.69c.21,1.54.39,3.08.53,4.63l.15,1.81q-.14,3.19.48.81c.77-1.38.3-1.5-1.41-.38l-1.78.56c-1.79.53-3.61.94-5.44,1.32-7.5,1.56-4.33,13,3.16,11.48,4.26-.88,9.37-1.89,13.09-4.25,3.53-2.24,4.07-5.69,3.81-9.54a126.19,126.19,0,0,0-5.36-28.3c-2.23-7.31-13.73-4.19-11.48,3.17Z" transform="translate(0 2.68)"/><path class="cls-3" d="M38,66.83S7.46,42.37,29.55,16.32C36,8.72,43.44,4.59,49.1,3.11,61.26-.07,77.4,11.39,78.9,23.87c1.06,8.82.39,22.84-6.42,28.06-10,7.69,35.4,4.89,42.49-15.26S132.9,20.11,132.9,20.11l14.67,3.22a8.62,8.62,0,0,1,6.09,11.79c-4.34,10.17-12,22.54-17.66,24.75-6.58,2.58-8,8.82-8.14,13.33a36.76,36.76,0,0,1-3.53,15.2c-7.7,15.76-28.14,42.14-73.49,19.47C50.84,107.87,30.62,94.7,38,66.83Z" transform="translate(0 2.68)"/><path class="cls-4" d="M29.93,45.55,2.84,74.19s38.32-7.62,42.19-12S36.71,45.21,29.93,45.55Z" transform="translate(0 2.68)"/><path class="cls-2" d="M48,36.26V37a4.51,4.51,0,0,0,.51,2.29,5.4,5.4,0,0,0,3.15,3.15,4.51,4.51,0,0,0,2.29.51l1.59-.21a5.85,5.85,0,0,0,2.62-1.53l.93-1.2a6,6,0,0,0,.82-3v-.77a4.45,4.45,0,0,0-.52-2.3,5.37,5.37,0,0,0-3.14-3.14,4.45,4.45,0,0,0-2.3-.52l-1.58.22a5.85,5.85,0,0,0-2.62,1.53l-.94,1.2a6,6,0,0,0-.81,3Z" transform="translate(0 2.68)"/><g class="cls-5"><g class="cls-6"><path class="cls-7" d="M60.46,115.88c6.52,2.25,12.13,4.2,19.13,4.19A57.13,57.13,0,0,0,99.44,116a71.37,71.37,0,0,0,31.73-24.34,75.2,75.2,0,0,0,9.52-17,65.34,65.34,0,0,0,3-8.82c.36-1.45.6-2.92.94-4.37l.29-1.35q.84-2.37-.09-.51c1.78-1.27,5.08-1.92,7.12-3.08A46.63,46.63,0,0,0,159.41,51c5-4.37,11.19-11.71,8.35-18.8-1.58-3.93-4.8-6-9.11-5.17-6.1,1.21-8.68,7.51-13.27,11-4.38,3.34-10.1,4.12-14.14,7.94-4.34,4.11-4.94,10-6.38,15.42a57.85,57.85,0,0,1-6.19,14.84C113.06,85.76,105,92.82,95.48,98.16c-5.19,2.9-10.7,4.56-16.37,6.24s-11.87,3.84-17.68,4.3a3.67,3.67,0,0,0-1,7.18Z" transform="translate(0 2.68)"/><path class="cls-7" d="M75.07,85.24C81.39,92,88.56,97.32,97.79,99.31c9.79,2.11,20-2,26.64-9.28,5.86-6.48,9.88-14.41,14.7-21.63a51.55,51.55,0,0,1,7-8.74c3.05-2.93,7.14-4.41,9.94-7.58,5-5.62,1.93-16-6.49-15.68C133.47,37.07,124,57.88,117.17,70c-3.39,6-6.71,12.61-14.21,13.64-8.17,1.12-17.1-1.27-24.88-3.59-3.06-.91-5.06,3-3,5.17Z" transform="translate(0 2.68)"/><path class="cls-7" d="M14.25,75.52A160.35,160.35,0,0,0,36,70.34c5.53-1.82,14.08-2.83,17.26-8.13a3.33,3.33,0,0,0-2-4.82C45.41,55.44,37.37,60.78,32,63a152.51,152.51,0,0,0-18.87,9.77,1.51,1.51,0,0,0,1.16,2.74Z" transform="translate(0 2.68)"/><path class="cls-8" d="M23.84,39.29c1-1.5,2.6-2.54,3.73-4a40.17,40.17,0,0,0,2.64-4,65.57,65.57,0,0,1,5.86-8.09c3.91-4.5,9.1-8.08,15.11-8.93a21.88,21.88,0,0,1,14.89,3.58c5.67,3.6,6.85,8.32,9.84,13.94,2.61,4.89,9.77,3.38,11.31-1.48C90,21.41,83.8,11.24,77.1,5.66A35.66,35.66,0,0,0,49.32-2.29c-9.24,1.48-17.73,7-23.58,14.17a34.67,34.67,0,0,0-7.09,13,24.07,24.07,0,0,0-1,7c.1,2.57,1.26,4.38,2,6.77a2.37,2.37,0,0,0,4.28.56Z" transform="translate(0 2.68)"/><path class="cls-8" d="M73.92,65.05c3.55-.39,7.24-.47,10.72-1.31s7-2.24,10.58-3.07a22.2,22.2,0,0,1,9.49-.42,22.28,22.28,0,0,1,2.83.5c1,.47,1.49,3.37,1,5.35a1.13,1.13,0,0,0,2,.87c2.25-2.93,1.14-5.91.63-9.23-.56-3.62-2.31-6.63-6.18-8.16-10.74-4.25-24,4.1-32.73,9.53-2.45,1.54-1.73,6.31,1.61,5.94Z" transform="translate(0 2.68)"/><path class="cls-8" d="M113.73,51.85c10.15-4,12-17,20.37-23,3.67-2.64,8.74-1.58,13-1.86,4.74-.31,9.76-1.91,12.33-6.11,2.06-3.38-.68-7-4.21-7.34-4.9-.4-10.32-.19-15.27-.18-5.58,0-10.7,1.36-15,5.09-3.88,3.4-6.52,8.16-9.29,12.44-3.17,4.91-7.81,10.44-7.75,16.54,0,2.72,3,5.56,5.81,4.43Z" transform="translate(0 2.68)"/></g></g><path class="cls-9" d="M72.88,78.29s33.26,15.06,42.09-4.1-10.46-25.9-10.46-25.9" transform="translate(0 2.68)"/><path class="cls-9" d="M23.73,48.23c-3.75-9-4.41-20.32,5.48-32C35.65,8.65,43.1,4.52,48.76,3c12.16-3.19,28.3,8.27,29.8,20.76,1.07,8.82.39,22.84-6.42,28.06-10,7.69,35.4,4.89,42.49-15.27S132.56,20,132.56,20l14.67,3.22a8.62,8.62,0,0,1,6.09,11.79c-4.33,10.17-12,22.53-17.66,24.75-6.58,2.58-8,8.82-8.14,13.32A36.8,36.8,0,0,1,124,88.33c-7.69,15.75-28.14,42.14-73.49,19.47,0,0-20.21-13.18-12.82-41" transform="translate(0 2.68)"/><path class="cls-10" d="M29.6,45.47,2.5,74.12s38.32-7.62,42.19-12S36.37,45.14,29.6,45.47Z" transform="translate(0 2.68)"/><path class="cls-11" d="M54.58,33.85h0a1.52,1.52,0,0,0-.3,2.35,3.84,3.84,0,0,0,.56.41,1.34,1.34,0,0,0,1.33,0,1.39,1.39,0,0,0,.65-1.14c0-.11,0-.22,0-.33a1.5,1.5,0,0,0-.2-.75,1.13,1.13,0,0,0-.39-.42,1.42,1.42,0,0,0-1.3-.27,2,2,0,0,0-.34.14Z" transform="translate(0 2.68)"/><path class="cls-11" d="M55.1,35.15a.05.05,0,0,0,0-.1.05.05,0,1,0,0,.1Z" transform="translate(0 2.68)"/></g></g></svg>