<svg xmlns="http://www.w3.org/2000/svg" xmlns:xlink="http://www.w3.org/1999/xlink" viewBox="0 0 336.67 406.38"><defs><style>.cls-1,.cls-11{fill:none;}.cls-2{fill:#fdfc80;}.cls-2,.cls-3,.cls-4,.cls-5{stroke:#000;}.cls-11,.cls-2,.cls-3,.cls-4,.cls-5{stroke-miterlimit:10;stroke-width:5px;}.cls-3{fill:#d837ba;}.cls-4{fill:#ddfaff;}.cls-5{fill:#ff90a2;}.cls-6{opacity:0.36;}.cls-7{clip-path:url(#clip-path);}.cls-8{fill:#901a3d;}.cls-9{fill:#e6fff2;}.cls-10{fill:#0188ba;}.cls-11{stroke:#4f1917;}</style><clipPath id="clip-path"><path class="cls-1" d="M287.51,82.32c-14.3-5.11-61.79-46.89-83.75-67.41s-39.26-8.72-44.42-3.06C132.78,41,94.49,51.17,94.49,51.17S23,68.53,7.17,110.91c-12.33,33,10,55.8,21.73,64.13,12.45,24.44,35,30,49.14,30.86.56,7.77,4.84,14.62,21,7,2.81-1.32,5.41-2.49,7.82-3.54-4.39,20.56-8.58,49.88-5.94,77.19-13.8-9.87-40.09-22.38-59.83-3.54-27.81,26.55-4.86,57.19-4.35,59.23a66.46,66.46,0,0,0,22.81,5.7c-.57,9.63,4,22.59,28.26,30.56,27.18,8.94,43.7-.89,51.58-8.26,14.47,14.84,30.06,22.51,42.89,23.59,24,2,52.08-6.14,60.25-25.55s9.19-39.91-9.7-52.89-41.87-42-38.81-75.73c.82-9,1.41-16.7,1.75-23.28a23.77,23.77,0,0,0,13.28,5.17c7.58.52,11.76-1.58,13.95-4.68,14.43-.16,26.16-1.36,29.23-2,10.26-2,25.17-9,37.32-20,13.64-3.89,28.85-22.22,38.26-45.73C338.48,122.66,301.81,87.42,287.51,82.32Z"/></clipPath></defs><g id="Calque_2" data-name="Calque 2"><g id="Layer_34" data-name="Layer 34"><path class="cls-2" d="M62.27,334.78c-1.76,2.51-15.83,29.62,24.51,42.9S144,362.87,144,362.87s-13.79-44-31.66-48.3S75.55,315.89,62.27,334.78Z"/><path class="cls-3" d="M35.72,341.42c-.51-2-23.47-32.68,4.35-59.23s68.67,9.18,69.18,12-1.28,35.5-24.51,47.75S35.72,341.42,35.72,341.42Z"/><path class="cls-3" d="M34.18,177.73C31.63,178-9.73,152.49,6.1,110.1S93.42,50.36,93.42,50.36,131.72,40.15,158.27,11c5.16-5.66,22.47-17.46,44.42,3.06s69.45,62.3,83.75,67.41,51,40.34,40.34,66.89-28.65,46.51-43.46,46.51S34.18,177.73,34.18,177.73Z"/><path class="cls-4" d="M89.59,204.74S44.52,212,26.33,171.08s0-57.19,0-57.19,8.88-16.74,59.94-7,74,30.22,106.21,26.5,68.47-7.07,77.11-4.65c9.52,2.67,43.4-1.11,39.32,29.9s-38.81,51.8-57.7,55.43c-7.6,1.46-67.92,6.63-91.41-9.36S89.59,204.74,89.59,204.74Z"/><path class="cls-2" d="M113.33,181.59c-1.66,1.3-25.53,80.17-7.66,132.26S157.25,391,181.25,393s52.08-6.14,60.25-25.54,9.19-39.92-9.7-52.9-41.87-42-38.81-75.73,3.07-50.1-2-52.65S157.25,147.38,113.33,181.59Z"/><path class="cls-5" d="M165.42,156.57s22.08,8.66,35.74,21.16c8.68,8,20.94,20.2,20.94,20.2S232,222.37,208,220.73a23.53,23.53,0,0,1-15.6-7.29c-3-3.15-7.34-5.86-11.69-1.36-6.13,6.34-9.7,15.55-24.51,14.53s-21.45-26.4-21.45-26.4-7.15-2.06-36.77,11.87-19.4-20.48-19.4-20.48S116.4,146.87,165.42,156.57Z"/><g class="cls-6"><g class="cls-7"><path class="cls-8" d="M157.66,11c-6.1,2.48-9.08,10.2-9.56,16.37a27.21,27.21,0,0,0,1.37,10.71,34.55,34.55,0,0,0,2.6,5.91c.77,1.36,2.25,2.73,2.52,4.26V44l-.45,1.14,3.68-4.79c-3.13,2.26-10.81,1-14.67.6-5.83-.57-11.62-1.48-17.46-1.85A149.08,149.08,0,0,0,89,41.59l4.4,16q12.26-4.28,24.71-8,6-1.77,12-3.39,2.79-.75,5.59-1.47l3.73-.94c2.46-.19,2.49-.62.08-1.31l-2.15-3.7.33,1.08V35.4l-.23,1.08c-1.29,6.19,3.86,12,10.32,10.32a11.94,11.94,0,0,0,8.62-9.12c.85-3.53-1-6.91-.29-10.23,1.25-6-5.53-13.2-11.5-8.84-3.37,2.45-5.41,5.14-5.5,9.53a21,21,0,0,0,.58,4.81c.76,3.46-.34.54.9-.43l3.7-2.15-1,.26,10.32,10.31c1.22-6-1.51-12.16-7.74-14s-13.43,1.3-19.3,2.88Q107.6,35,89,41.59c-10.09,3.56-6.09,18,4.4,16a131,131,0,0,1,33.26-2c10.74.72,21.28,3.08,32,1.15,4.86-.88,9.59-2.76,11.13-8s-1.46-8.75-4.21-12.75a29.75,29.75,0,0,1-4.4-11.93c-.66-3.85-.1-7.85-.89-11.64a2.17,2.17,0,0,0-2.66-1.5Z"/><path class="cls-8" d="M33.43,106.51c-10.68,17.61-1.68,39.07,13,51.36,17.47,14.64,40.38,17.42,62.27,19.42l-4.87-18c-8.06,5.81-15.59,12.08-21.86,19.83-6,7.38-11.93,16.36-8.75,26.29,3.47,10.86,15.29,11.92,25,12a123.34,123.34,0,0,0,33.17-4.82L120.13,198c-4.82,6.9-6.25,14.78-6.86,23s-1,16.46-1.16,24.69a254.07,254.07,0,0,0,4,51,158.65,158.65,0,0,0,39.12,78.24A150.09,150.09,0,0,0,193,404.75l5.84-21.57c-33.08-2-55.15-34.8-66.13-62.77a171.84,171.84,0,0,1-7.9-100.85c2.84-12.43-14.26-20.43-21-8.85l-1.61,2.77c-7.44,12.8,12.41,24.38,19.84,11.59l1.6-2.77-21-8.84a195.31,195.31,0,0,0,1.54,93.34c7.74,29.15,22.56,59.87,46.33,79.29,14,11.45,30.23,18.55,48.31,20.24,11.92,1.11,15.08-16.05,5.85-21.57-26.67-15.95-48.24-40.4-59.05-69.68-6.47-17.53-9.19-36-9.94-54.58-.4-9.88-.39-19.8-.22-29.68.14-8.37-.32-17.3,2.81-25.21,2.8-7.08-5.5-14.34-12.22-12.21a86.84,86.84,0,0,1-20.39,3.87c-3.43.22-6.88.28-10.32.16a20.47,20.47,0,0,0-3.74-.15c-1.42-.5-1.68-.46-.79.1a3.16,3.16,0,0,1,1.44,3c-.68,0,1.74-4.34,1.89-4.58a55.87,55.87,0,0,1,5-6.64A74.76,74.76,0,0,1,113.58,176c8.39-5.68,4.54-16.87-4.88-18-16.2-2-34.52-3.79-48.16-13.66-10.71-7.75-17.49-21.59-16.11-34.82.64-6.11-8.18-7.62-11-3Z"/><path class="cls-8" d="M28,106.45c-2.82,2-5.47,3.75-7.29,6.84a33,33,0,0,0-4.2,11.47,65.73,65.73,0,0,0,.83,23.64C20.09,162.63,26.16,177.17,36,188c10.09,11.14,26.8,18.5,41.64,13.09,7.22-2.63,13.67-7.62,17-14.65,4.48-9.4.45-18.61-9.45-21.76-7.82-2.49-16.24-1.67-24.11-3.83-7.4-2-8.68-7.6-13.58-12.82-6.52-6.94-19.68-1.76-19.21,8,.55,11.32,10.55,21.13,20.47,25.48C59,185.93,70.4,184,80.56,188.1l-5.23-3,.72.57-3-5.23.58-4.66-.71,1.19c.59-.22-.68.6-.85.74a11.18,11.18,0,0,0-2,1.06c-2.34.88-5.93.49-9.07-1-6.85-3.17-11.33-9.86-14.58-16.39C38.71,146,37,128.53,37.2,111.75c.07-4.33-5.4-8.1-9.24-5.3Z"/><path class="cls-8" d="M39.14,111.72c-3.84-10.44.12-19.27,7.45-27,6.94-7.34-2.33-21-11.29-14.62C18.35,82.19,4.36,99.85,1.1,120.91c-1.69,10.88-1.07,21.86,3,32.17,4,10,11.55,22.82,23.09,25.09,12.18,2.39,19.22-13.12,8.49-20.14a26.13,26.13,0,0,1-11.45-14.69,47.42,47.42,0,0,1-2.07-21.44c2-14.37,11.07-27.17,22.51-35.74L33.42,71.53c-6.45,7.15-12.65,16-12.8,26-.13,8.85,4,16.9,12.3,20.38,3.48,1.46,7.47-2.84,6.22-6.22Z"/><path class="cls-8" d="M86.82,168.15c4.63,5.22,9.31,7.79,16.57,7.94,7.6.16,14.85-1.89,22.17-3.62,14.71-3.49,30.33-5.65,45.36-2.82,12.59,2.37,24.38,7.55,33.76,16.41,2.33,2.2,4.63,4.29,7.07,6.36,2.24,1.9,5.26,3.65,7.26,5.72,2.9,3,4.72,10.79,5.55,15.71,1.14,6.79,11.68,4,10.39-2.86a62.48,62.48,0,0,0-2.63-9.62c-1.09-3-2.95-6.05-3.86-9.11-.39-1.29-1-6.15-2.16-8.62a36.59,36.59,0,0,0-6.11-9c-9.54-10.31-22.92-17.62-36.31-21.46-16.42-4.71-34.13-4.77-50.81-1.44a132.12,132.12,0,0,0-23.77,7.37c-6,2.42-14.13,7.24-20.88,6.32a1.66,1.66,0,0,0-1.6,2.74Z"/><path class="cls-8" d="M113,172.53c3.13-.63,6,1.81,7.2,4.64,1.72,4,0,9.11-.92,13-2.5,10.42,11,15.61,16.82,7.1a45.45,45.45,0,0,0,5.33-10.83c.84-2.38,1.58-5.84,3.63-7.27,5.36-3.72,16-1.11,21.49.92,7.84,2.88,12.33,9.83,19.61,13.34a17.51,17.51,0,0,0,16.81-.82,59.93,59.93,0,0,0,5.1-3.91c1.54-1.16-1.06.54.46-.34s-2.14.86.5-.08c4.07-1.44,7.18-4.49,7.71-8.94.46-3.89-1.23-9-5.14-10.72-6.24-2.8-11.53-1.75-16.81,2.3-1,.79-3.22,2.91-3.62,2.64l5-.17a1.21,1.21,0,0,1-.86-.61,12.5,12.5,0,0,0-2.32-2.14,56.25,56.25,0,0,0-29.66-14.11c-10.65-1.48-24-.94-32.29,6.91a29.52,29.52,0,0,0-7.33,12.41c-1.29,3.88-1.59,8.54-3.49,12.13l17.15,4.64c1.24-10,1-22.36-8.65-28.3-6.4-3.91-16.15-2.82-19.17,4.71-.86,2.16,1.59,3.84,3.46,3.46Z"/><path class="cls-8" d="M328.08,136.62c-2.83,1.26-5.48,2.91-8.18,4.42a34.93,34.93,0,0,1-3.17,1.61c-1.05.25-.85.39.6.41a13.92,13.92,0,0,1-1.89-.62c-9.23-3-15.33,2.1-18.07,10.61-4.5,14-9.83,27.29-17.19,40-6.09,10.56,7.86,20.91,16.6,12.8A178.68,178.68,0,0,0,319,180.78c2.82-3.82,5.38-7.83,8.18-11.67,3.15-4.29,8.16-7.67,9.26-13.07,1.14-5.64-2.62-12.58-9.22-12.11-11.4.83-17.94,14.11-23.88,22.57a161.4,161.4,0,0,1-21.53,24.44l16.59,12.8A209.63,209.63,0,0,0,310,179.61q2.37-5.79,4.36-11.7c.66-2,1.29-4,1.87-6,.33-1.14.64-2.29.95-3.44.5-1.89.61-2.3.33-1.22L313.87,161l1-.53-5.14,1.39c-1,0,1.89.62,2.24.7a15.17,15.17,0,0,0,6.67-.07,23.16,23.16,0,0,0,9.1-5.14c4.76-4,8.36-9.84,8.15-16.2-.14-4.22-4.24-6.08-7.81-4.48Z"/><path class="cls-8" d="M90.51,279c.25,3.3-.37,6.54,0,9.83a83.7,83.7,0,0,1,.16,10.14c-.1,7.58-.25,16-3.49,23-4.85,10.5-17,17.87-28.52,18.29l2.24,16.54c8.53-1.34,17.11-1.71,25.6-3.49,6.7-1.42,13.06-2.7,19.8-.79,11.84,3.36,20.67,12.95,25.6,23.88l16.25-12.54c-13.64-14.67-28.4-28.22-43.14-41.76L92.2,338.64a43.8,43.8,0,0,1,16.51,12.3,47.2,47.2,0,0,1,4.89,7.51,31.31,31.31,0,0,1,1.88,4.08,23.3,23.3,0,0,1,.84,2.85c-.53,0-.36-.49.52-1.35a2.52,2.52,0,0,1,1.75-2.12,22.4,22.4,0,0,1-2.82.72,35.84,35.84,0,0,1-5.55.7A57.42,57.42,0,0,1,99.49,363a54.89,54.89,0,0,1-11.61-3,38,38,0,0,1-5.17-2.33,26,26,0,0,1-2.44-1.44c1.8,1.38,2.28,3.35,1.42,5.92l-4,4c-.72.5.36-.07,1.23-.08,1.77,0,3.54-.11,5.31-.08a41.47,41.47,0,0,1,9.23,1c4.62,1.1,9.13,3.15,11.78,7.25L112,357.63c-2.57.66-1.14,0-1.77,1A1.71,1.71,0,0,1,110,360a3,3,0,0,1-1.64,2.51c-1.3.64-.54.34,2.25-.91q2.38-1.23-1,0c6.3-.38,11.79-7.48,7.73-13.47-9.64-14.25-29.25-4.72-29.69,10.86-.46,16.13,16.49,24.14,30.35,20.49,6.81-1.79,10.78-10.51,6.77-16.64-9.07-13.89-24.56-19.12-40.57-19.26-8.4-.08-17.93.18-22.67,8.41-5,8.65-.1,18.57,7.45,23.6,12.23,8.13,29.37,11.19,43.79,9.67,8.08-.85,16.86-2.16,22-9.17,5.3-7.2,3.5-15.84.25-23.45a62.21,62.21,0,0,0-32.2-32.22c-4.83-2.1-10.22-1.83-13.61,2.71-3,4-3.15,10.29.82,13.86,14.89,13.4,29.71,26.87,43.44,41.48a10.34,10.34,0,0,0,13.59.81c4.28-3.42,4.87-8.53,2.66-13.35-6.84-15-20.12-27.61-36.16-32-19-5.21-36.19,5.32-54.95,6.31-8.92.48-12.08,14.82-2.23,16.54,10.2,1.79,19.12,1.07,28.35-4,8.33-4.55,15.9-12,19.95-20.61,4.94-10.53,5.35-21.9,4-33.26-1.17-9.75-2.88-20.44-13.73-23.36-2.06-.56-4.62,1.07-4.45,3.39Z"/><path class="cls-8" d="M137.5,336.94c1,4.92,1.47,9.2,4.05,13.73A49,49,0,0,0,151.18,362c8.39,7.7,19.18,11.8,30.11,14.33,22.21,5.12,48.22,7.35,69.1-3.3l-15.28-8.76c-.27,2.8-9.19,5.86-12.1,6.83-6.53,2.18-13.4,3.8-20.33,3.22a22.23,22.23,0,0,1-7.77-2,21.28,21.28,0,0,1-3.82-2.57,9.75,9.75,0,0,0-4.32-2.52c2.12,1.46,2.24,1.49.34.08-3.72-1-6.74-1.15-9.72,1.94-3.59,3.71-3.7,9.33-1.16,13.67,3.94,6.74,13.39,10.26,20.68,11.47a60.75,60.75,0,0,0,25.51-1.62c14.84-3.94,31.4-11.35,33-28.51.76-8.18-9-12-15.28-8.77-15.73,8.08-36.07,4.88-52.86,2.46-8.7-1.26-17.66-3.35-25.65-7.09-6.79-3.18-15.59-9.15-19.25-16-1.49-2.78-5.47-.79-4.88,2.06Z"/><path class="cls-9" d="M176.14,6.89c5.62,5,12.33,8.22,18.15,13a172.77,172.77,0,0,1,17.05,16.42c11.48,12.32,21.48,25.91,34.11,37.14S272,93.55,286.69,101.68c6.89,3.81,13.45,7.63,18.76,13.56s8.43,15.87,16.57,18.57c3.61,1.2,7.68-1.39,8.65-4.9,2.37-8.62-5.2-17.55-10.26-23.91-5.47-6.88-12.42-12.18-19.89-16.73C285.63,79.21,270.46,70.66,257.36,59,244,47.1,233.3,32.45,219.9,20.58c-11-9.76-26.63-21.85-42.17-19.73-2.68.37-3.48,4.39-1.59,6Z"/><path class="cls-9" d="M231.28,62.52c-6.44-.87-12.08-9-16.11-13.74-3.56-4.16-8.8-11.25-8.14-17l-1.3,4.82.48-.83-5.74,4.41.73-.12h-5.14A54.89,54.89,0,0,1,212.57,49a18.58,18.58,0,0,1,5,5.95,11,11,0,0,1,1,2.86c.21.75.25,1,.14.63q-.09,3.48.39-1l4.2-4.2-1.26.62L228,52.27c-2.25.14-6.43-1.63-8.78-3.43a22.38,22.38,0,0,1-4-4.06c-.35-.48-1-1.7-1.46-2.42-.86-1.38-.14-1.46-.25-.4l-1.61,6a8.67,8.67,0,0,1-5,3.26c-1.43-.17-1.26,0,.52.38,1,.55,2.28,1.07,3.32,1.8a15.31,15.31,0,0,1,2.84,2.56c1,.4,1.34.8.95,1.2.93,1.44,1.08,1.72.45.85v-6.3l-.21,1.18,3.05-5.23.7-.56,6-1.61a31.64,31.64,0,0,0-11.36,3c-4.17,2-5.8,8.56-3.22,12.28,3.39,4.91,7.68,8.6,14,8.49A14.41,14.41,0,0,0,237.76,58c2.41-11-8.83-22.09-17.79-26.58-9.23-4.64-22.32-6.49-28.35,4.13C186,45.45,194,57.9,201.38,64.61c6.88,6.29,17,12,26.59,11.15,15.26-1.26,15.75-18,10.69-28.84-4.15-8.94-12.22-15.68-21-19.74-8.13-3.73-24.76-11.67-29,1.17-3.45,10.57,6.23,22.25,13.48,28.88s17.61,14.09,28.12,12.84c3.84-.46,5.73-6.92,1-7.55Z"/><path class="cls-9" d="M186.17,69.37c-.18-.15-.3-.48-.1,0a1.26,1.26,0,0,1,.33.92c.23,1,.24.94,0-.31a8.63,8.63,0,0,1-.2-.88l.15,1.11a4.33,4.33,0,0,1,0-.72l-1.29,3.12.08-.07-.92.71a7,7,0,0,0,2-2l-4.3,2.46.21,0-3.78-1.56.09.11V64.58a18.75,18.75,0,0,0-1.29,1.65l1.11-1.43a1.14,1.14,0,0,1-.15.16l5.16-2.14h-.2l5.59,2.32-.07-.07,1.26,1.63a11.52,11.52,0,0,0-.81-1.15,6.4,6.4,0,0,0-2.38-2.18,1.21,1.21,0,0,1-.3-.2l1.72,1.33-.12-.13,1.33,1.73-.09-.15v8.6c.08-.11.13-.23.21-.35l-1.31,1.71a1.14,1.14,0,0,1,.19-.19L186.62,77a.7.7,0,0,1,.24-.13l-2,.83a9.21,9.21,0,0,0,2.18-.94,6.11,6.11,0,0,0,2.26-2.08A6.09,6.09,0,0,0,190.77,72a8,8,0,0,0-.81-6.21A20.35,20.35,0,0,0,188.63,64a8,8,0,0,0-3.6-2.1,9,9,0,0,0-2.61-.41c-2.25,0-5.16.85-6.6,2.7A6.49,6.49,0,0,0,174.05,67a6.54,6.54,0,0,0-.73,3.29l.3,2.27a8.6,8.6,0,0,0,2.2,3.76,10.46,10.46,0,0,0,2,1.58,11.94,11.94,0,0,0,2.35,1,8.78,8.78,0,0,0,8.37-2.27A8.27,8.27,0,0,0,191,70.73a8.37,8.37,0,0,0-4-6.91L188.45,65a12.75,12.75,0,0,0-1.68-1.33,7,7,0,0,0-7,0l-.19.11,1.3-.55-.13,0a5.37,5.37,0,0,0-3.19,7.85,5.92,5.92,0,0,0,1.93,2.05,9.51,9.51,0,0,0,1.35.59l-2.63-2a7.32,7.32,0,0,0,2.46,2.52,5.36,5.36,0,0,0,1.08.45c1.14.15,1.36.18.68.1-.37-.07-.46-.08-.27,0a4.65,4.65,0,0,0,1.68.31,3.36,3.36,0,0,0,2.36-5.69Z"/><path class="cls-9" d="M152.05,123.24c12.22,10.47,31.88,10.68,47.28,9.92,18.69-.92,37.13-4.49,55.74-6.19,8.68-.79,17.94-1.85,26.4.71s16,7.6,23.76,11.57c6.39,3.27,12.95,8.77,20.07,4,5.37-3.58,8.73-12.74,2.82-17.38-3.33-2.61-7.78-1-8.16,3.38-.22,2.51.25,4.87-2.82,5.23s-7.09-2.7-9.67-4.24c-6.59-3.92-11.7-9.9-18.64-13.3-13.95-6.84-30.68-2-45.25-.11-15.34,2-30.61,4.69-46,6.14a125.77,125.77,0,0,1-22.79.6c-7.35-.63-14.46-2.08-21.83-2.52a1.29,1.29,0,0,0-.89,2.17Z"/><path class="cls-9" d="M289.31,123.45c2.48,2.18,4.19,4.7,7,6.56a40.49,40.49,0,0,0,8.52,4.09c6.66,2.46,14.59,2.32,18.22-4.87H307.58c.57,0,.54.53-.09,1.63l14.23-8.17a28.64,28.64,0,0,1-5.8-5.68v13.81l.67-.72-4.31,2.51,1-.15-7.54-1,.85.49-2-15.38a18.48,18.48,0,0,0-3,3.51c-2.57,3.55-.82,9.93,3.1,11.79a12.83,12.83,0,0,0,9.46,1.07c8.21-1.89,9.54-13.89,2.34-17.9-4.84-2.69-10.57-2.29-14.38,2s-3.53,9.56,0,13.81A33.7,33.7,0,0,0,312.17,139c6.1,3.27,14.48-.74,14.24-8.17a19.29,19.29,0,0,0-4.75-12.49c-4.43-5.54-13.2-1.9-15,3.95l-.34,1.1,2.28-3.91c1.37-1.52-1-.91-2.5-1.08s-2.64-.36-4-.53c-2.9-.37-6.35-.13-9.11-.87-3.54-1-6.72,3.81-3.74,6.42Z"/><path class="cls-9" d="M281.24,120.33c5.13,10.2,20.5,6.84,25.77-1.34a14.74,14.74,0,0,0,.72-14.72A28.77,28.77,0,0,0,303,97.9c-3-3.2-5.77-3.76-10-4.12L298.7,97l-1-1.47c-4.78-7.19-16.38-.56-11.67,6.83.93,1.45,2.88,4.11,2.95,5.93l1.12-4.12c-1.4,3.19-5.57,4.31-8.79,4.3l2.43,18c7.54-2.57,14.07-7.14,15.9-15.34,1.9-8.52-2-16.24-6.79-23a9.13,9.13,0,0,0-15.75,9.2c4,8.47-12.11,14-17.34,15.44-4.55,1.22-12.23,2.37-13.9,7.67-1.38,4.39,3.28,6.8,6.88,7.55,6,1.24,12.35,0,18.28-.87,5.39-.8,10.23-3.56,14.41-7a26.26,26.26,0,0,0,7.42-32l-15.75,9.2c1.5,2.11,5,6,4.79,8.8-.16,2-1.16,2.09-3,2.71-9.25,3.14-8.41,18.63,2.43,18,8.29-.51,16.77-3.94,21.51-11.11,5.68-8.61-.23-15.32-6.17-21.47l-9.56,9.55,1.34,1.19-1.91-4.62c-.19,3.65.2,6.17,2.5,9.07.53.68,1.48,2.44,2.29,2.75,1.51.58.59-1.78.27-1.86-.49-.13-3.89,1.54-4.48,1.8a14.3,14.3,0,0,0-5.28,3.61,4,4,0,0,0-.6,4.66Z"/><path class="cls-9" d="M186.21,225.9c-7.37,23.52-4.84,47.33,5.88,69.48a96.1,96.1,0,0,0,21,28.15,90.24,90.24,0,0,0,14.47,10.53c5.17,3.16,9.33,8.14,14.61,10.86,2.55,1.31,6,.27,6.75-2.75,3-12.42-11.52-19.19-19.32-26-8.31-7.25-15.36-15.09-20.86-24.68-10.51-18.35-15.63-41.66-12.15-62.73,1.12-6.74-8.28-9.62-10.39-2.87Z"/><path class="cls-9" d="M37.51,314.41c0-3,2.34-11,5.65-11.67H38.8l1.06.36-3.78-2.21.62.76-2.28-3.9c-.32-1.05,0,2.37,0,2.58a24.71,24.71,0,0,1-.21,3.33,39.47,39.47,0,0,1-1.11,4.44c-.19.69-1.2,1.95-.37,1.17l4.92-2.87-1,.28h6l-.83-.29,5,2.89a17.12,17.12,0,0,0,1.56,2.47c0-.93.07-1.85.14-2.78.35.8,0,1.51-1,2.14a10.47,10.47,0,0,0,2.09-3c3-5.78.45-12.92-6-14.79C28.12,289,21.51,310.77,27.8,321.54c3.47,6,10.74,8.81,17.11,5.8,6.05-2.86,8.5-9.49,9.46-15.75,1.44-9.33-1.53-29.29-15.57-24.67-5.22,1.71-7.78,7.86-9.11,12.77s-.87,9.78-.34,14.72,8.24,5.37,8.16,0Z"/><path class="cls-9" d="M71.05,301.8a1.89,1.89,0,0,1-.19-.3l.5,1.18a2.39,2.39,0,0,1-.12-.46l.18,1.33a2.46,2.46,0,0,1,0-.47l-.18,1.34a.86.86,0,0,1,.06-.23L70,306.43a2.39,2.39,0,0,1,.22-.23l-6.35.82.19.1-2.86-5a9.29,9.29,0,0,0,.26,1.82V300.8l-.06.16.63-1.5-.1.18a4.22,4.22,0,0,0-.37.87,7.15,7.15,0,0,0-.48,3.67c0,.36.09.73.15,1.09a7.23,7.23,0,0,0,5,5,7.18,7.18,0,0,0,8.82-8.83,7.14,7.14,0,0,0-5-5,11.55,11.55,0,0,0-2-.28l-1.89.25a11.67,11.67,0,0,0-1.71.72l-.16.09,1.5-.64-.16.06H68.8a8.42,8.42,0,0,0-1.82-.28,5.83,5.83,0,0,0-2.91.79,4.23,4.23,0,0,0-1.62,1.49,4.38,4.38,0,0,0-1,2,5.92,5.92,0,0,0,0,3.07l.07.22-.19-1.39a12.25,12.25,0,0,0,.23,1.69l-.18-1.35a6.88,6.88,0,0,0,2,4.92,4.93,4.93,0,0,0,6.46.39,4.7,4.7,0,0,0,1.76-2.56,4.82,4.82,0,0,0-.49-3.79Z"/><path class="cls-9" d="M113.82,71a3.74,3.74,0,0,0,1.86-.42,3.53,3.53,0,0,0,1.55-1,3.58,3.58,0,0,0,1-1.55,3.74,3.74,0,0,0,.42-1.86l-.18-1.29a4.8,4.8,0,0,0-1.24-2.13l-1-.75a4.78,4.78,0,0,0-2.44-.66,3.49,3.49,0,0,0-1.86.42,4.23,4.23,0,0,0-2.55,2.55,3.59,3.59,0,0,0-.42,1.86l.17,1.28a4.88,4.88,0,0,0,1.24,2.13l1,.76a5,5,0,0,0,2.44.66Z"/><path class="cls-9" d="M205,218.18c2.56.64,4.2,1.8,7,1.4a12.82,12.82,0,0,0,7.1-3.51c3.26-3.11,6.69-10.13,2.81-14a2.59,2.59,0,0,0-4,.52c-1.88,2.64-1.16,6.21-3.42,8.83-1.65,1.91-6.19,4.83-8.83,4.37-1.52-.26-2.2,2-.65,2.36Z"/><path class="cls-9" d="M149.05,220.74c3.54,1.94,6,3.8,10.19,4.22a18.58,18.58,0,0,0,10.17-1.79c5.8-2.71,12.58-9.35,12.21-16.18-.18-3.37-4.39-5.55-6.93-2.87-3.24,3.4-4.53,7.59-8.65,10.31s-11.2,5.27-16.09,4.16a1.18,1.18,0,0,0-.9,2.15Z"/></g></g><path class="cls-10" d="M82.49,156.19c-6.36-4.22-12.75-8.29-18.55-13.3-5.26-4.55-9.35-10.43-15.19-14.27a1.66,1.66,0,0,0-2.41,1.85c1.95,7.56,8.43,13.22,14.27,18a56.76,56.76,0,0,0,20.51,11,1.79,1.79,0,0,0,1.37-3.26Z"/><path class="cls-10" d="M117.08,142.59a49.83,49.83,0,0,1-6.74-6.49c-1.89-2.2-3.38-4.82-5.75-6.56-1-.72-2,.46-1.86,1.43.57,3.05,2.91,5.57,5,7.78a53.26,53.26,0,0,0,7.34,6.49c1.53,1.13,3.54-1.45,2-2.65Z"/><path class="cls-10" d="M76.59,179.62c-7.48.37-14.59-.57-22-1.27-1.3-.12-1.51,1.66-.61,2.27,6.73,4.61,15.53,4.89,23.07,2.32,1.72-.59,1.56-3.41-.45-3.32Z"/><path class="cls-10" d="M237.38,185.68c17.87,1.18,38.33-8.11,48.11-23.37.71-1.1-.74-2.66-1.86-1.86-6.9,5-13.77,10.28-21.42,14.08-7.91,3.91-16.65,6.48-25.17,8.66a1.27,1.27,0,0,0,.34,2.49Z"/><path class="cls-10" d="M209.22,162.7c4.54,1.36,10.54-1.06,14.83-2.59,4.78-1.71,9.87-3.89,13.46-7.57a1,1,0,0,0-1-1.73c-4.89,1.63-9.37,4.43-14.17,6.35-4.18,1.67-9.6,2.14-13.21,4.76a.43.43,0,0,0,.1.78Z"/><path class="cls-11" d="M58.25,348.7c0,9.43,5.34,21.47,28.3,29,28.18,9.28,44.9-1.63,52.42-9.05"/><path class="cls-11" d="M105.67,314.56c-3.29,10.06-9.54,21.29-21.16,27.42-23.24,12.25-49-.51-49-.51C35,339.42,12,308.79,39.84,282.23c19.45-18.56,45.27-6.68,59.22,3.11"/><path class="cls-11" d="M26.69,174.25c-11.76-10.73-31.25-36.18-20.82-64.1C21.7,67.76,93.19,50.4,93.19,50.4S131.49,40.19,158,11.08c5.16-5.66,22.47-17.45,44.43,3.07s69.44,62.3,83.74,67.4,51,40.34,40.34,66.9c-9.23,23.05-24,41.12-37.46,45.49"/><path class="cls-11" d="M77.81,205.2c-13.26-.65-34.87-5.3-48-26.92"/><path class="cls-11" d="M27.29,173.67c-.41-.83-.8-1.67-1.19-2.54-18.19-40.92,0-57.19,0-57.19S35,97.2,86,107s74,30.22,106.21,26.5,68.47-7.06,77.11-4.64c9.52,2.66,43.4-1.12,39.32,29.89s-38.81,51.81-57.7,55.43c-3.16.61-15.39,1.85-30.31,2"/><path class="cls-11" d="M29.83,178.28c-.89-1.46-1.73-3-2.54-4.61"/><path class="cls-11" d="M105.44,313.89C123.32,366,157,391,181,393.06s52.08-6.15,60.25-25.55,9.2-39.91-9.7-52.89-41.87-42-38.81-75.74c.85-9.31,1.46-17.29,1.8-24"/><path class="cls-11" d="M105.9,207.21c-6.08,27.85-12.05,72.9-.46,106.68"/><path class="cls-11" d="M165.19,156.62s22.08,8.66,35.74,21.16c8.68,7.94,20.94,20.2,20.94,20.2s9.85,24.44-14.07,22.79a23.56,23.56,0,0,1-15.6-7.28c-3-3.16-7.34-5.87-11.69-1.36-6.13,6.34-9.7,15.54-24.51,14.52s-21.45-26.4-21.45-26.4-7.15-2.06-36.77,11.88-19.4-20.49-19.4-20.49S116.17,146.91,165.19,156.62Z"/></g></g></svg>