<svg xmlns="http://www.w3.org/2000/svg" xmlns:xlink="http://www.w3.org/1999/xlink" viewBox="0 0 95.69 140.82"><defs><style>.cls-1,.cls-7{fill:none;}.cls-2{fill:#f7bcf6;}.cls-2,.cls-7{stroke:#d04b9b;stroke-linecap:round;stroke-linejoin:round;stroke-width:5px;}.cls-3{opacity:0.38;}.cls-4{clip-path:url(#clip-path);}.cls-5{fill:#901a3d;}.cls-6{fill:#e6fff2;}</style><clipPath id="clip-path"><path class="cls-1" d="M45,2.5C44.53,4.71,41.87,41,58.24,54.7A48.14,48.14,0,0,0,93.19,65.76S67.82,70.87,61.78,84.34c-5.75,12.83-7.08,20.8-8,54,0,0-2.21-42-16.37-51.76S2.5,76.82,2.5,76.82s28-7.94,33.18-23C41,38.33,45,2.5,45,2.5Z"/></clipPath></defs><g id="Calque_2" data-name="Calque 2"><g id="Warstwa_8" data-name="Warstwa 8"><path class="cls-2" d="M45,2.5C44.53,4.71,41.87,41,58.24,54.7A48.14,48.14,0,0,0,93.19,65.76S67.82,70.87,61.78,84.34c-5.75,12.83-7.08,20.8-8,54,0,0-2.21-42-16.37-51.76S2.5,76.82,2.5,76.82s28-7.94,33.18-23C41,38.33,45,2.5,45,2.5Z"/><g class="cls-3"><g class="cls-4"><path class="cls-5" d="M76,62.11C64,61.19,53.66,68.49,47.53,78.57c-5.76,9.5-11.13,30.74,1.74,37,4.94,2.38,12.36.76,13.57-5.52.88-4.58-.89-8.68-.28-13.21a28.37,28.37,0,0,1,3.26-9.22c3.4-6.48,8.4-12.49,13.4-17.8A4.56,4.56,0,0,0,76,62.11Z"/><path class="cls-6" d="M14.71,76.77c3.4,4.42,8.75,2,12.81-.43C33,73.13,37.3,68,40.56,62.61a62.74,62.74,0,0,0,7.53-19.42c1.25-5.75,4-14.78-2-18.67l1.66,2.15-.46-1.59c-.64-2.28-4.38-3.18-5.48-.72C41.12,26,39.4,27,38.7,28.92a35.79,35.79,0,0,0-1.27,6.77A77.48,77.48,0,0,1,33.33,51,54,54,0,0,1,26.9,62.79c-1.63,2.33-6.66,10.26-9.88,10-1.89-.17-3.51,2.46-2.31,4Z"/><path class="cls-6" d="M41.88,30.19c1.58,7,3.54,13.87,7.17,20.16,2.61,4.53,7.53,12,13.54,10.68a2.39,2.39,0,0,0,1.64-2.88c-.49-2.6-2.29-3.79-4.13-5.55a36.26,36.26,0,0,1-6-7.72c-3.13-5.2-5.5-11-7.93-16.5-1.11-2.53-4.84-.66-4.28,1.81Z"/></g></g><path class="cls-7" d="M45,2.5C44.53,4.71,41.87,41,58.24,54.7A48.14,48.14,0,0,0,93.19,65.76S67.82,70.87,61.78,84.34c-5.75,12.83-7.08,20.8-8,54,0,0-2.21-42-16.37-51.76S2.5,76.82,2.5,76.82s28-7.94,33.18-23C41,38.33,45,2.5,45,2.5Z"/><path class="cls-6" d="M43.64,53.51c.47,6.16,1.15,12.26,1.88,18.4.67,5.57,1.16,11.61,3.19,16.85a1.46,1.46,0,0,0,2.85-.38c.71-6-.49-12.44-1.28-18.41-.76-5.7-1.58-11.35-2.59-17-.4-2.28-4.22-1.77-4,.55Z"/><path class="cls-6" d="M36.28,74.16C43,74,51.39,74.42,57.66,71.8a1.88,1.88,0,0,0-.5-3.68c-6.85-.42-14.5,2.18-21.25,3.28-1.58.26-1.19,2.8.37,2.76Z"/></g></g></svg>