<?xml version="1.0" encoding="UTF-8"?>
<svg id="Calque_2" data-name="Calque 2" xmlns="http://www.w3.org/2000/svg" xmlns:xlink="http://www.w3.org/1999/xlink" viewBox="0 0 73.08 77.56">
  <defs>
    <style>
      .cls-1 {
        fill: #ffce62;
      }

      .cls-1, .cls-2 {
        stroke: #733d00;
        stroke-linecap: round;
        stroke-linejoin: round;
        stroke-width: 2.51px;
      }

      .cls-3 {
        fill: #272325;
      }

      .cls-3, .cls-4, .cls-5, .cls-6, .cls-7, .cls-8 {
        stroke-width: 0px;
      }

      .cls-4 {
        fill: #fc3352;
      }

      .cls-5, .cls-2 {
        fill: none;
      }

      .cls-9 {
        opacity: .34;
      }

      .cls-10 {
        clip-path: url(#clippath);
      }

      .cls-6 {
        fill: #eafdf1;
      }

      .cls-7 {
        fill: #82263e;
      }

      .cls-8 {
        fill: #f7f1eb;
      }
    </style>
    <clipPath id="clippath">
      <ellipse class="cls-5" cx="37.21" cy="38.78" rx="34.62" ry="37.53"/>
    </clipPath>
  </defs>
  <g id="Layer_1" data-name="Layer 1">
    <g>
      <ellipse class="cls-1" cx="35.87" cy="38.78" rx="34.62" ry="37.53"/>
      <path class="cls-3" d="m30.52,49.56c-3.42-.16-5.33,4.08-3.42,6.76,2.26,3.18,6.64,1.19,7.99-1.77.21-.46-.24-1.05-.74-.74-1.63,1.01-3.78,3.82-5.78,1.87-2.2-2.14.24-4.44,2.1-5.55.27-.16.14-.55-.15-.57h0Z"/>
      <path class="cls-3" d="m35.09,54.22c.38,3.54,4,5.61,7.24,3.91,2.71-1.42,4.79-6.29.95-7.72-1.25-.46-1.98,1.45-.89,2.1,1.81,1.08-1.13,3.52-2.15,3.8-1.85.51-3.91-.58-4.84-2.18-.08-.13-.32-.09-.31.08h0Z"/>
      <path class="cls-3" d="m12.93,42.67c3.87-2.21,8.2-7.28,13.1-5.06,1.16.53,2.69.59,3.62-.47.16-.18.37-.39.47-.6.63-1.39.49-3.31-1.07-4.09-7.34-3.63-15.98,1.37-17.43,9.21-.14.74.59,1.42,1.31,1.01h0Z"/>
      <path class="cls-3" d="m61.82,38.99c-.86-4.07-3.57-7.07-7.64-8.15-3.4-.9-9.66-.69-11.46,2.93-.77,1.55-.34,3.15,1.08,4.13l.26.18c1.95,1.35,4.02-.52,4.24-2.43-.21,1.79,1.91.33,3.23.32,1.01,0,2.04.17,3,.51,2.05.71,4.07,1.96,5.59,3.49.74.75,1.89-.03,1.69-.98h0Z"/>
      <path class="cls-4" d="m15.73,48.15c-.15.14-.33.17-.54.11.36.17.44.16.23,0-.12-.11-.22-.23-.32-.37-.51-.56-.45-.24.19.97l-.47,1.74.15-.24-1.26,1.26.23-.11-1.8.49c.82-.05,1.68.03,2.51.01.39,0,.88.07,1.25-.02.29.01.2-.01-.29-.07,1.6.48,1.01-.71-1.77-3.57l1.1-1.89c.13-.16.67-.55.2-.14l.45-.21c-.35.08-.42.09-.21.04.24.04-.52-.01-.63-.02-.16,0-.33,0-.49-.02-.63-.06-.34.03.88.27l1.63,1.63-.14-.24.62,2.3-.91,2.17c-.14.2-.32.34-.55.42-.26.1-.26.12-.01.04.34-.08.24-.07-.28.03.49-.06.33-.02-.09-.04.43.13.48.15.16.04-.28-.12-.27-.09.02.09l-1.64-1.64.16.22-.62-2.31v.28c.22-.77.43-1.54.64-2.31.28-.53.68-.89,1.19-1.08.3-.12.23-.11-.21.04-1.15.29.8.06-.38.04-.94-.01.59.29-.38-.05s.55.35-.39-.17v7.94c-.66.29.66-.24.66-.24.45-.15.91-.28,1.36-.4s.92-.22,1.38-.32c.92-.19-.36.01.67-.08l-4.52-4.52.97-2.13c.46-.41.55-.51.3-.31-.61.29-1.38,1.09-1.67,1.65-.57,1.08-.69,2.15-.44,3.36.3,1.45,1.65,2.68,3.04,3.04,3.45.91,7.07-2,6.85-5.61-.14-2.36-1.96-4.63-4.52-4.52-3.12.13-5.89.86-8.72,2.15-3.17,1.44-2.82,6.39,0,7.94,2.43,1.33,5.12,1.75,7.83,1.17,3.25-.69,6.33-3.44,5.33-7.08-.82-3-4.47-4.49-7.35-4.25s-5.89,1.79-6.82,4.83c-.6,1.96.16,4.2,1.76,5.43,1.35,1.04,2.99,1.31,4.67,1.25,3.01-.12,6.4-1.11,7.31-4.38.84-3.01-1.23-5.86-4.19-6.44-1.04-.21-1.96-.17-2.99-.04-1.3.17-2.67.2-3.88.73-3.6,1.58-3.16,6.56.54,7.67,2.25.68,4.46-.59,6.08-2.1,1.34-1.25-.36-3.2-1.88-2.43h0Z"/>
      <path class="cls-4" d="m60.46,48.31s-1.34-.04-1.28-.11l.49.55c-.12-.4-.3-.78-.54-1.12l-3.12,5.43c1.31.02,1.83-.22,2.95-.2.23,0,.47,0,.7.03-.24-.03-.22-.02.06.03.23.05.45.1.68.17.68.27.6.17-.24-.28l1.94-7.34c-.43.09-.85.21-1.28.29-.77.13.76.04-.62.04-.08,0-1.04,0-1.05-.03.14,0,.26.06.37.14.73.37,1.23,1,1.51,1.88v2.45l.09-.3-1.18,2.03c-.76.85-1.06.58-1.81.5l.42.11c-.44-.17-.43-.11.04.17v-7.98c-.58.39-1.06.48-.12.29-.56-.02-.59.02-.09.1-.9-.26-.6-.06.89.59l1.19,2.05-.06-.28v2.47l.07-.25-1.19,2.05-1.31.68-1.4.12c-.05.11,1.47.42,1.45.42,1.33.18,2.5.05,3.67-.69,2.85-1.78,2.79-5.75,0-7.54-1.72-1.11-4.18-1.81-6.18-1.27-2.79.76-4.88,3.71-4.02,6.61,1.47,4.94,8.14,5.1,11.77,2.63,3.06-2.08,2.86-5.87,0-7.98-4.16-3.07-13-.6-11.04,5.76,1.71,5.55,9.14,4.83,13.28,2.97,3.31-1.48,2.59-7.47-1.05-8.03-1.76-.27-3.41-.84-5.23-.72-2.08.13-4.18.72-5.74,2.15-1.17,1.07-1.34,3.04-.56,4.37.87,1.48,2.48,1.92,4.07,1.66.97-.16,1.6-.8,2.43-1.23.71-.37,1.33-.72,1.94-1.26.81-.71.17-2.16-.88-2.12h0Z"/>
      <g>
        <g class="cls-9">
          <g class="cls-10">
            <path class="cls-7" d="m2.59,22.15c-.3,2.3-2.06,5.29-2.67,7.57-.53,2.01-1,3.99-1.09,6.06-.2,4.29.34,8.79,1.74,12.85,2.75,8.01,7.66,15.4,14.24,20.76,13.13,10.7,33.26,12.84,47.41,2.76,7.5-5.34,13.49-13.43,16.79-22.01,1.42-3.7,2.71-8.48,1.01-12.26-1.3-2.89-4.31-4.88-7.29-2.98-3.64,2.31-3.45,7.78-4.82,11.39-1.73,4.55-4.71,8.88-8.04,12.4-6.11,6.47-14.83,9.4-23.66,8.39-9.57-1.09-17.84-6.94-22.88-15.02-2.65-4.25-4.45-8.99-5.92-13.76-.7-2.26-1.12-4.59-1.76-6.87-.71-2.53-2.38-6.62-2.39-9.28,0-.44-.61-.41-.66,0h0Z"/>
            <path class="cls-6" d="m17.29,6.82c4.91-1.36,12.33.03,17.37.68,5.92.76,11.82,2.13,17.12,4.94,9.78,5.18,14.43,14.08,19.03,23.64.59,1.23,1.98,1.77,3.24,1.86.71.05,1.26-.23,1.9-.51,1.2-.53,1.82-2.03,1.86-3.24.44-12.73-9.78-24.22-20.39-29.95C51.46,1.01,44.55-.96,37.74-.88c-3.35.03-6.83.45-10.06,1.4-4.03,1.19-6.81,3.84-10.63,5.44-.51.21-.33,1.02.24.86h0Z"/>
          </g>
        </g>
        <path class="cls-8" d="m39.94,10.13c.26,0,.51-.04.74-.16.24-.08.44-.21.62-.4.19-.17.32-.38.4-.62.12-.23.17-.47.16-.74l-.07-.51c-.09-.32-.25-.61-.49-.84l-.39-.3c-.3-.17-.62-.26-.97-.26-.26,0-.51.04-.74.16-.24.08-.44.21-.62.4-.19.17-.32.38-.4.62-.12.23-.17.47-.16.74l.07.51c.09.32.25.61.49.84l.39.3c.3.17.62.26.97.26h0Z"/>
        <path class="cls-8" d="m51.74,13.93c4.85,2.42,7.71,6.77,10.12,11.43.69,1.34,2.79.41,2.4-1.01-1.58-5.82-6.59-9.64-11.98-11.7-.74-.28-1.25.93-.54,1.29h0Z"/>
        <ellipse class="cls-2" cx="37.21" cy="38.78" rx="34.62" ry="37.53"/>
      </g>
    </g>
  </g>
</svg>