<svg xmlns="http://www.w3.org/2000/svg" xmlns:xlink="http://www.w3.org/1999/xlink" preserveAspectRatio="xMidYMid meet" version="1.0" viewBox="-10.7 -2.3 467.6 484.7" zoomAndPan="magnify" style="fill: rgb(0, 0, 0);" original_string_length="2530" width="55.098278895590546px" height="57.177459231273204px"><g><g id="__id87_smws64n0o"><path d="M286.3,0.57c-6.79-2.84-13.58,5.51-20.66,12.8l-9.49,9.64l-76.71,76.28c-19.99,19.91-51.92,10.99-77.6,4.69 l-26.03-5.87l0,0c-14.86-2.52-49.79-9.64-60.1-9.78c-26.42-0.39-8.18,26.92-0.18,41.96l34.25,66.22 c12.52,24.72,17.14,39.76,16.18,52.6c-0.96,13.02-7.47,23.19-17.14,38.37c-6.58,10.28-14.47,22.69-23.26,39.37 c-6.65,12.7-21.16,38.26-24.32,48.01c-3.77,11.49,1.24,16.89,12.8,16.46c6.08-0.21,14.22-1.78,24.86-3.81l0,0l0.07-0.04l0,0 c27.1-5.19,60.92-10.24,89.51-14.69c40.15-6.26,54.91,8.5,77.92,36.81v0.04c7.43,9.03,15.72,19.1,26.03,29.66l21.51,23.15 c7.25,7.93,16.71,20.02,24.54,18.92c8.57-1.17,10.24-12.62,13.9-36.59l12.48-78.24c10.14-62.91,29.77-61.49,79.66-82.47 c14.37-6.05,31.26-14.58,45.66-21.3l0,0l0.07-0.04c17.75-8.29,26.6-12.41,26.64-19.7c0-3.45-1.92-6.19-5.76-8.96 c-6.33-4.62-32.57-16.86-42.99-22.19l-66.43-34.07c-37.38-19.17-39.22-58.36-41.86-97.01c-0.46-6.76-0.92-13.66-1.56-20.73 c-1.14-12.94-3.2-26-4.66-38.66C292.2,9.1,291.49,2.74,286.3,0.57L286.3,0.57z" style="fill: rgb(254, 222, 0);"/></g><g id="__id88_smws64n0o"><path clip-rule="evenodd" d="M73.57,314.26c5.01-11.7,18.67-32.4,25.53-48.86c6.83-16.5,6.9-28.77,2.38-42.39 c-4.55-13.62-13.66-28.63-21.98-42.53c-8.32-13.9-15.82-26.67-17.78-34.49c-1.92-7.79,1.71-10.6,9.67-5.01 c8,5.62,20.31,19.67,31.12,33.89c10.81,14.22,20.13,28.63,24.79,39.62c4.66,10.99,4.66,18.56,2.06,28.13 c-2.63,9.57-7.82,21.12-15.18,34.32c-7.36,13.19-16.86,28.02-23.61,37.38c-6.76,9.39-10.74,13.26-14.58,13.83 C72.18,328.7,68.55,325.99,73.57,314.26L73.57,314.26z M303.94,197.01c10.28-1.03,28.16,6.47,45.38,13.41 c17.21,6.93,33.75,13.3,42.6,18.03c8.85,4.73,10.03,7.82,2.45,8.82c-7.57,1-23.9-0.07-40.18-1.99 c-16.29-1.88-32.54-4.62-43.49-7.79c-10.99-3.16-16.68-6.76-18.21-13.34C290.99,207.57,293.66,198.04,303.94,197.01L303.94,197.01z M209.73,110.99c8.29-11.98,27.74-32.89,39.08-44.17c11.34-11.27,14.58-12.91,16.43-11.52c1.81,1.35,2.2,5.69-0.39,13.9 c-2.56,8.25-8.14,20.34-11.95,30.69c-3.81,10.35-5.83,18.95-8.43,24.72c-2.6,5.8-5.8,8.75-12.09,9 c-6.33,0.25-15.75-2.24-21.91-4.98C204.33,125.92,201.45,122.94,209.73,110.99L209.73,110.99z" fill-rule="evenodd" style="fill: rgb(255, 255, 255);"/></g></g></svg>