<?xml version="1.0" encoding="utf-8"?>
<!-- Generator: Adobe Illustrator 28.0.0, SVG Export Plug-In . SVG Version: 6.00 Build 0)  -->
<svg version="1.1" id="Calque_1" xmlns="http://www.w3.org/2000/svg" xmlns:xlink="http://www.w3.org/1999/xlink" x="0px" y="0px"
	 viewBox="0 0 1080 1080" style="enable-background:new 0 0 1080 1080;" xml:space="preserve">
<style type="text/css">
	.st0{fill:#0C1105;}
	.st1{fill:#FBD736;}
	.st2{fill:#FBD739;}
	.st3{fill:#A8BE2E;}
	.st4{fill:#AABF2E;}
	.st5{fill:#EBA11D;}
	.st6{fill:#F9C020;}
	.st7{fill:#F8B916;}
	.st8{fill:#F9BF1A;}
	.st9{fill:#C37219;}
	.st10{fill:#80A629;}
	.st11{fill:#FADD71;}
	.st12{fill:#487C26;}
	.st13{fill:#7AA12A;}
	.st14{fill:#3C6D22;}
	.st15{fill:#E08F19;}
	.st16{fill:#88A92A;}
	.st17{fill:#F7C123;}
	.st18{fill:#D88823;}
	.st19{fill:#67952B;}
	.st20{fill:#7CA42B;}
	.st21{fill:#81A429;}
	.st22{fill:#3D7122;}
	.st23{fill:#F1BB2A;}
	.st24{fill:#F6DA40;}
	.st25{fill:#F6DA43;}
	.st26{fill:#F1D351;}
	.st27{fill:#E8D958;}
	.st28{fill:#D0DF62;}
	.st29{fill:#D5E469;}
	.st30{fill:#D9E670;}
	.st31{fill:#CDE25A;}
	.st32{fill:#D0E25D;}
	.st33{fill:#F1D14F;}
	.st34{fill:#D1E25F;}
	.st35{fill:#D4E360;}
	.st36{fill:#C8DC57;}
	.st37{fill:#D5E95B;}
	.st38{fill:#EFE661;}
	.st39{fill:#B2D053;}
	.st40{fill:#F1D854;}
	.st41{fill:#DFAD47;}
	.st42{fill:#D4E560;}
	.st43{fill:#DEF050;}
	.st44{fill:#DAE867;}
	.st45{fill:#D7EB5C;}
	.st46{fill:#D3E563;}
	.st47{fill:#DBED5F;}
	.st48{fill:#DCEC64;}
	.st49{fill:#D8ED5B;}
	.st50{fill:#C7E550;}
	.st51{fill:#BCD470;}
	.st52{fill:#0F1205;}
	.st53{fill:#F9BA10;}
	.st54{fill:#FAB90D;}
	.st55{fill:#F8B910;}
	.st56{fill:#FCD54E;}
	.st57{fill:#FAD947;}
	.st58{fill:#0F1105;}
	.st59{fill:#0F1206;}
</style>
<g>
	<path class="st0" d="M729.91,723.65c-2.99,29.45-6.15,58.88-9.89,88.25c-3.26,25.68-7.19,51.24-10.91,76.85
		c-2.41,16.59-5.35,33.12-7.1,49.8c0.36,1.05,0.78,2.13,0.53,3.22c-4.02,17.59-8.43,34.54-23.65,47
		c-20.29,16.61-43.76,25.78-68.41,32.82c-24.93,7.11-50.31,11.55-76.19,13.66c-23.8,1.93-47.64,2.9-71.41,1.76
		c-49.82-2.39-98.95-8.91-145.43-28.76c-12.99-5.55-24.63-12.94-35.29-22.04c-4.09-3.49-7.29-7.69-9.85-12.43
		c-4.84-8.95-7.76-18.59-10.5-28.3c-0.65-2.31-1.07-4.67-0.08-7.01c-1.7-11.71-3.44-23.42-5.09-35.14
		c-2.42-17.15-4.8-34.31-7.14-51.47c-2.49-18.23-5.08-36.46-7.34-54.72c-1.78-14.32-3.21-28.68-4.66-43.03
		c-1.65-16.32-3.14-32.65-4.71-48.98c-2.37-3.11-2.45-6.86-2.71-10.48c-2.73-38.75-7.36-77.3-11.63-115.89
		c-2.72-24.58-6.38-49.03-9.74-73.52c-2.92-17.26-5.82-34.54-8.51-51.83c-3.26-20.92-7.48-41.68-9.95-62.73
		c-1.66-14.22,4.4-24.81,14.24-33.98c14.24-13.27,32.05-19.49,50.09-25.27c9.6-3.07,19.39-5.42,29.21-7.63
		c15.06-3.03,29.98-6.75,45.18-9.08c17.7-2.71,35.44-5.14,53.29-6.73c18.04-1.6,36.08-2.97,54.19-3.16
		c1.65-0.02,3.31-0.08,4.95,0.17c5.11,0.79,8.72,4.76,8.88,9.7c0.15,4.45-2.8,8.14-7.65,9.47c-3.05,0.84-6.19,0.57-9.31,0.62
		c-56.4,0.79-111.89,8.1-166.28,23.25c-11.68,3.25-23.02,7.52-34.11,12.42c-4.73,2.09-9.05,4.89-12.84,8.41
		c-7.42,6.92-8.04,16.17-1.67,24.13c2.2,2.75,4.88,4.98,7.82,6.88c8.66,5.6,17.99,9.89,27.37,14.1c3.2,1.43,6.3,1.29,9.62,0.28
		c41.37-12.61,83.58-21.18,126.58-25.64c34.15-3.55,68.45-4.73,102.74-3.43c22.84,0.86,45.72,2.08,69.21,5.38
		c-7.2-9.68-14.02-18.68-19.6-28.52c-5.54-9.76-10.71-19.7-14.03-30.43c-1.64-5.32-4.62-7.32-10.05-6.9
		c-4.37,0.33-8.81,0.32-13.2-0.12c-5.86-0.59-8.68-3.14-10.29-8.93c0.53-6.71,3.58-10.04,10.04-10.82c3.47-0.42,6.97-0.25,10.45-0.2
		c3.17,0.04,4.7-0.95,4.37-4.51c-0.44-4.74,0.52-9.17,4.75-12.21c5.49-1.17,6.97-4.5,5.65-9.77c-0.92-3.69-1.39-7.51-1.35-11.36
		c2.53-7.22,0.38-14.76,1.58-22.07c1.39-9.36,2.35-18.82,4.8-27.98c2.52-9.43,9.02-12.08,17.82-7.18
		c4.18-14.32,10.3-27.68,18.73-39.91c1.86-2.7,3.79-5.35,5.73-8c7.03-9.56,11.1-9.95,19.87-1.82c10.24-20.18,25.33-36.05,43.6-49.05
		c6.02-4.28,9.2-3.99,15.2,1.06c1.92,1.61,2.51-0.31,3.43-1c11.27-8.44,23.22-15.51,36.88-19.42c8.39-2.41,13.26-0.15,15.95,8.13
		c3.71,11.42,4.48,23.26,4.24,35.16c-0.06,2.99,0.11,4.51,3.93,4.46c5.82-0.08,9.59,5.47,10.49,13.11
		c1.55,13.17,1.76,26.24-1.12,39.27c-0.23,1.05-1.3,2.62,0.7,3.11c9.17,2.22,8.76,9.47,7.84,16.17
		c-2.02,14.72-5.44,29.16-11.39,44.03c3.62-1.95,6.42-3.59,9.34-5.01c17.24-8.37,34.89-15.31,54.38-16.15
		c4.47-0.19,7.72,1.68,8.92,5.65c0.97,3.21,2.04,3,4.62,2.06c22.17-8.04,45.02-10.46,68.43-7.94c3.45,0.37,6.9,0.38,10.32,1.29
		c8.93,2.39,12.48,7.06,10.75,15.99c-2.67,13.73-6.51,27.14-13.68,39.32c-1.36,2.32-1.86,3.61,0.77,5.66
		c4.72,3.68,4.55,8.97,2.37,13.92c-6.61,15-16.18,28.01-27.79,40.13c-0.22,0.61,0.79,0.7,1.26,1.15c6.49,6.19,6.94,9.94,1.46,16.98
		c-7.92,10.16-17.18,19.01-27.37,26.88c-0.71,0.55-1.3,1.25-1.95,1.88c-0.68,3.02-3.38,4.21-5.47,5.9c-1.97,1.6-3.54,3.23-2.55,6.04
		c2.32,6.57-0.6,11.38-5.3,15.54c-8.57,7.59-18.12,13.73-28.22,19.05c-4.55,2.39-9.14,4.71-13.79,6.89
		c-3.61,1.69-5.63,4.27-6.48,8.23c-9.57,44.89-17.5,90.01-22.48,135.69c-3.22,29.54-6.44,59.07-9.15,88.66
		c-1,10.94-1.88,21.92-2.68,32.89C732.32,718.45,732.43,721.48,729.91,723.65z"/>
	<path class="st1" d="M684.51,655.17c-29.37,6.79-48.97,25.3-62.3,52.5c-3.78-4.99-6.78-10.02-11.17-14.06
		c-12.69-11.68-27.68-17.55-44.62-18.25c-28.69-1.2-53.24,8.66-73.42,29.08c-3.45,3.49-6.24,7.62-9.59,11.76
		c-5.58-6.45-10.7-13.15-17.1-18.63c-28.16-24.11-69.78-30.69-100.19-12.29c-6.28,3.8-11.87,8.53-16.49,14.33
		c-5.34,6.69-5.34,6.66-9.06-0.72c-7.96-15.79-19.68-27.98-35.29-36.29c-14.12-7.53-29.13-10-44.94-7.18
		c-1.93-0.88-2.45-2.63-2.64-4.5c-1.5-14.56-3.21-29.1-4.7-43.66c-0.82-8-1.75-16.01-2.82-23.98c-2.25-16.68-3.58-33.47-6-50.12
		c-1.79-12.3-3.76-24.58-4.85-36.97c-0.2-2.28-1.18-4.92,2.25-5.84c2.15-0.29,3.95,0.65,5.65,1.76
		c20.46,13.32,43.41,20.26,66.77,26.26c31.55,8.1,63.6,13.19,96,15.86c21.91,1.81,43.86,3.16,65.86,3.96
		c15.05,0.55,30.04,0.26,45.03-0.3c23.81-0.88,47.65-1.88,71.09-6.77c2.34-0.49,4.76-0.79,6.68-2.36c1.56-1.27,1.45-2.53-0.62-3.13
		c-1.59-0.47-3.28-0.48-4.92-0.34c-14.06,1.23-28.17,1.77-42.24,2.81c-11.71,0.87-23.46,0.14-35.17,0.99
		c-13.99-1.43-27.98-1.19-41.96-0.13c-16.14-0.14-32.22-1.51-48.28-2.88c-30.36-2.59-60.54-6.6-90.41-12.74
		c-23.99-4.93-47.29-12.11-69.65-22.11c-12.23-5.47-22.86-13.15-29.91-24.98c-2.55-10.72-2.67-21.76-4.17-32.63
		c-0.91-6.6,1.89-8.15,8.06-5.84c13.71,5.01,27.28,10.49,41.17,14.93c36.61,11.69,73.98,20.28,112.08,25.35
		c26.26,3.5,52.63,5.88,79.16,7.13c23.49,1.11,46.87,0.33,70.28-0.45c5.65-0.19,11.28-1.13,16.89-1.97
		c5.16-0.77,8.08-4.12,7.63-8.25c-0.45-4.12-4.11-7.36-8.8-7.16c-10.23,0.44-20.44,1.15-30.66,1.75
		c-16.57-0.43-33.13-0.18-49.7-0.13c-20.49-0.66-40.97-1.83-61.34-4.07c-24.83-2.72-49.37-7.31-73.83-12.37
		c-19.93-4.13-39.63-9.15-59.03-15.34c-0.25-0.08-0.37-0.53-0.83-1.23c16.92-4.98,33.74-9.8,50.99-12.72
		c30.43-5.15,60.81-10.35,91.81-11.53c34.67-1.32,69.24-1.03,103.84,1.3c15.89,1.07,31.73,2.31,47.51,4.51
		c2.56,0.36,4.54,1.24,6.34,2.79c4.73,4.06,9.38,8.2,14.06,12.32c4.85,4.27,3.08,10.41,3.56,15.53c0.75,8.01,2.24,15.95,2.62,24
		c0.09,1.91,0.97,3.89,1.87,5.65c2.02,3.92,5.7,4.41,9.47,3.6c3.53-0.75,5.08-3.59,4.95-6.96c-0.17-4.53-0.79-9.05-1.22-13.57
		c-0.13-2.04,0.98-1.59,1.82-0.74c1.48,1.5,1.7,3.58,2.11,5.55c0.93,4.59,4.76,6.7,9.17,5.27c1.47-0.48,1.44-1.37,1.38-2.51
		c-0.08-1.47-0.14-2.96,1.34-3.9c1.52,3.25,2.86,6.61,4.65,9.71c0.98,1.68,0.16,2.7-0.39,3.99c-7.85,18.38-13.33,37.48-17.41,57.01
		c-1.19,5.69,1.79,11.18,6.59,12.11c4.5,0.87,8.54-3.02,9.59-9.1c0.8-4.61,1.74-9.19,2.61-13.79c4.71,3.61,1.52,8.02,1.03,12.01
		c-0.69,5.57,1.03,8.73,6.51,10.06c2.31,0.56,4.67,0.84,7.09,0.63c4.94-0.43,9.87-0.81,14.67-2.17c1.91-0.54,4.2-1.35,5.64,0.57
		c1.66,2.23-0.14,4.16-1.4,5.91c-1.96,2.71-3.42,5.65-4.33,8.85c-1.19,4.17,0.65,7.19,4.01,9.35c3.28,2.11,6.02,0.4,8.39-1.83
		c5.93-5.58,6.2-13.45,8.02-20.65c0.77-3.04,1.25-6.11,3.13-8.71c0.73-1,1.56-2.38,3.05-1.62c1.04,0.53,1.01,1.87,0.86,3
		c-2.34,18.31-3.99,36.7-6.12,55.04c-2.38,20.55-5.61,41-7.03,61.66C682.97,649.63,683.6,652.38,684.51,655.17z"/>
	<path class="st2" d="M264.85,708.21c9.25-4.54,17.89-1.4,26.02,2.8c15.82,8.18,25.45,22.11,33.17,37.58
		c5.88,11.79,8.3,24.74,12.26,37.17c0.87,2.74-1.1,3.06-2.48,3.85c-7.04,4.04-10.58,10.48-10.04,18.16
		c0.62,8.78,4.74,16.07,13.67,19.42c9.29,3.48,20.71-1.15,25.13-10.09c4.43-8.97,1.22-20.83-7.74-26.41
		c-3.19-1.99-3.25-3.53-2.32-6.79c3.86-13.53,8.82-26.55,16.67-38.28c19.03-28.43,52.03-28.24,75.02-8.32
		c16.96,14.7,25.56,34.17,31.22,55.34c0.88,3.29-1.19,3.6-2.9,4.51c-7.71,4.11-11.61,10.8-11.31,19.21
		c0.31,8.79,5.58,14.88,13.52,18.37c9.59,4.21,21.08-0.81,26-11.08c4.63-9.67,0.49-21.98-9.4-26.48c-2.76-1.26-2.75-1.87-1.94-4.49
		c3.8-12.36,8.16-24.48,14.53-35.76c9.13-16.15,22.46-27.29,40.53-32.01c20.6-5.37,40.6,2.86,52.71,21.21
		c8.02,12.16,12.66,25.68,15.65,39.82c0.44,2.1,0.89,4.08-2.18,5.71c-7.94,4.22-11.65,13.67-9.47,21.99
		c2.15,8.19,10.98,15.47,19.07,15.72c8.32,0.25,17.4-5.97,19.92-13.65c2.82-8.56-0.81-19.19-8.97-23.87
		c-3.45-1.98-3.85-3.72-2.86-7.11c5.89-20.14,12.12-40.08,26.14-56.45c6.11-7.12,12.89-13.43,21.25-17.86
		c2.88,0.43,2.1,2.99,0.95,3.3c-4.08,1.1-1.97,3.69-1.84,5.76c0.37,5.94-1.16,11.67-1.96,17.46c-1.35,9.77-2.04,19.64-4.32,29.26
		c-0.41,1.73,0.31,3.26,0.33,4.89c0.06,6.45-0.48,12.83-2.33,19.03c-3.04,10.17-2.45,20.96-6.17,31.15
		c-5.55,15.23-12.58,29.23-24.99,40.04c-0.97,0.84-1.8,1.93-2.93,2.49c-11.01,5.48-21.22,12.54-33.26,15.99
		c-15.84,4.54-31.34,10.21-47.2,14.71c-4.57,1.3-8,3.77-8.22,9.05c-0.18,4.43,2.96,8.95,7.81,11.02c3.95,1.69,8.17,2.29,12.41,1.77
		c10.37-1.27,20.57-3.43,30.8-5.53c9.39-1.93,18.5-5.34,28.2-5.77c3.3-0.15,6.41,0,6.8,4.38c-1.31,2.8-4.05,3.47-6.6,4.35
		c-12.53,4.33-25.36,7.58-38.25,10.61c-22.03,5.06-44.42,6.92-66.92,8.48c-18.53,1.28-37.08,1.5-55.53,0.63
		c-23.38-1.1-46.76-3.06-69.87-7.53c-19.51-3.77-38.47-9.13-57.14-15.88c-21.05-7.61-35.67-21.75-44.98-41.89
		c-10.44-22.6-14.77-46.64-17.82-71.12c-1.79-14.36-3.49-28.73-5-43.11c-1.41-13.47-3.65-26.86-3.8-40.45
		C263.88,711.67,263.88,709.87,264.85,708.21z"/>
	<path class="st3" d="M800.27,311.09c-3.15,1.44-6.55,1.23-10.18,1.13c12.35-8.51,24.69-17.03,37.04-25.54
		c7.49-5.16,15-10.29,22.51-15.42c0.73-0.5,1.75-0.88,0.87-1.9c-0.19-0.22-1.26,0.33-1.92,0.53c-9.73,1.94-18.39,6.63-27.22,10.79
		c-6.07,2.86-12.29,5.49-17.88,9.31c-3.03,1.79-6.06,3.58-9.97,5.87c2.55-5.24,6.07-9.05,6.4-15.58
		c-6.56,5.14-11.34,10.13-14.87,16.02c-3.76,6.27-8.69,11.06-14.55,15.32c-7.09,5.14-13.69,10.95-21,16.87
		c1.41-8.32,4.56-15.56,7.02-23c1.95-5.87,4-11.71,6-17.57c0.06-0.17,0.03-0.37,0.09-0.54c1.15-3.31,2.75-7.9-0.24-9.53
		c-2.47-1.35-5.37,2.76-7.13,5.46c-8.79,13.52-15.87,27.85-19.99,43.51c-1.25,4.77-2.35,9.58-3.37,14.4c-0.91,4.29-4.23,6.78-7,9.61
		c-7.78,7.93-15.74,15.68-23.94,23.81c-0.29-6.69,1.39-12.92,2.79-19.2c2.59-11.55,6.78-22.76,7.3-34.75
		c0.16-3.8,0.96-9.41-2.37-10.28c-3.59-0.95-4.62,4.88-6.15,7.92c-3.09,6.14-5.39,12.67-8.02,19.05
		c-3.61,9.57-6.83,19.23-6.91,29.62c-1.78,8.73-3.62,17.45-5.3,26.19c-1.23,6.38-5.38,10.87-9.72,16.07
		c-1.95-10.31-0.96-20.06-1.04-29.77c-0.06-7.46,0.16-14.95-1.48-22.31c-0.5-2.25-0.48-5.91-2.57-6.09
		c-3.12-0.27-3.89,3.44-4.67,5.96c-1.9,6.11-2.57,12.48-3.59,18.78c-1.89,11.66-0.62,23.39-1.29,35.07
		c-0.44,0.38-0.89,0.4-1.35,0.05c-1.34-1.68-1.25-3.76-1.36-5.71c-0.22-3.85-2.15-5.01-5.75-4.28c-2.13,0.43-4.22,1.04-6.35,1.41
		c-3.05,0.53-6.16,0.86-8.33-2.19c-0.39-7.6-1.02-15.19-0.58-22.81c0.11-1.99,0.51-3.97-0.21-5.93c1.8-14.56,6.21-28.32,12.43-41.47
		c2.56,0.16,1.65,2.36,2.71,3.25c2.09,1.76,2.45,5.56,6.3,5.24c3.85-0.33,6.1-3.1,7.04-6.16c2.13-6.93,6.48-12.58,9.79-18.82
		c3.18-5.99,7.42-11.29,11.47-16.7c4.14-5.54,8.66-10.74,13.72-15.59c1.41,1.16,1.25,2.71,1.4,4.02c0.46,4.04,1.65,7.76,5.89,9
		c3.61,1.06,6.19-2.39,7.46-4.4c17.02-27.08,45.31-33.39,73.85-41.23c-0.6,2.4-0.88,3.92-1.37,5.36c-0.71,2.07-2.04,4.43-0.03,6.07
		c2.02,1.65,4.36,2.79,7.53,1.7c9.78-3.36,19.27-7.58,29.42-9.85c5.7-1.27,11.38-2.54,17.26-2.52c4.03,0.91,7.92-0.29,11.88-0.63
		c7.8-0.68,15.54,1.01,23.35,0.99c3.74-0.01,2.74,2.55,2.4,4.63c-0.89,5.34-3.45,10.27-3.93,15.72c-3.32,8.55-7.2,16.75-14.16,23.07
		c-3.05,2.77-6.26,5.62-3.13,10.24c2.39,3.52,7.16,4.4,12.62,2.05c-6,13.76-14.32,25.02-25.13,34.52c-3.15,2.77-6.36,5.5-9.28,8.5
		c-1.85,1.89-4.46,4.19-2.94,7.07c1.71,3.24,4.61,5.65,8.68,5.82c1.22,0.05,2.44,0.01,4.23,0.01c-7.58,10.4-16.74,18.32-26.82,25.28
		c-7.66,3.78-14.45,9.21-22.65,11.98c-1.57,0.27-2.65,1.19-3.33,2.59c-0.31,0.66-0.68,1.93-1.05,1.79c-5.09-1.91-5.1,3.97-8.17,5.32
		c-3.12,1.37-8.05-0.08-8.82-3.49c-0.45-2.01,0.8-2.2,2.23-1.9c4.2,0.87,3.74-1.44,2.65-3.95c-0.65-1.49-1.19-3.11-2.43-4.28
		c-1.06-1.01-2.51-1.91-1.45-3.63c1.11-1.8,2.78-1.35,4.41-0.8c1.03,0.34,2,0.97,3.79,0.52c-1.33-2.96-3.77-2.9-6.19-2.96
		c-1.27-0.03-2.88-0.06-3.02-1.69c-0.12-1.35,1.09-2.76,2.26-2.75c3.84,0.04,5.25-3.77,8.3-4.8c0.95-0.32,1.13-0.69,0.6-1.51
		c-0.61-0.94-0.92-0.43-1.58,0.07c-2.58,1.92-4.83,1.92-5.11-1.89c-0.13-1.8,0.81-4.07-1.42-4.71c-2.25-0.64-5.23-0.42-6.55,1.64
		c-2.75,4.28-5.37,2.53-6-0.56c-0.43-2.12-4.96-0.21-2.59-3.41c13.4-1.51,26.79-3.05,40.19-4.52c2.79-0.31,5.88-0.62,6.79-3.58
		c0.89-2.92-2.84-3.23-4.07-5.07c-2.21-2.24-5.34-2.68-8.01-2.76c-7.21-0.21-14.46-0.74-21.67,0.31c-0.4,0-0.8,0-1.2-0.01
		c-4.12-1.16-7.89,0.72-11.8,1.39c-7.94,1.79-15.89,3.58-24.48,5.52c2.37-4.35,5.7-7.11,8.8-9.93c5.95-5.42,12.03-10.73,18.37-15.68
		c4.88-3.82,11.19-3.9,16.97-5.31c8.58-0.47,16.88-2.47,25.15-4.63c6.29-2.46,13.11-2.6,19.56-4.4c3.76-1.05,9.65-1.28,9.69-5.17
		c0.04-3.87-6.19-2.96-9.48-4.56c-1.66-1.54-3.66-0.54-5.47-0.6C813.26,309.01,806.72,309.61,800.27,311.09z"/>
	<path class="st4" d="M714.05,190.79c-1.6,3.24-3.17,6.5-4.79,9.73c-1.37,2.73-2.06,5.25,0.13,8.1c2.46,3.19,5.51,4.49,9.38,4.35
		c0.8-0.03,1.27,0.05,0.79-1.08c-1.13-2.69,1.72-2.01,2.42-2.09c1.7-0.18,1.1,1.44,0.93,2.35c-1.07,5.67-2.23,11.32-3.36,16.98
		c-5.33-5.53-9.94-2.48-14.67,1.07c-3.2,2.4-6.52,4.45-8.81,8.02c-1.81,2.83-4.88,4.29-8.54,3.04c-1.4-0.51-2.55-1.42-3.68-2.33
		c-1.45-1.17-4.29-1.36-3.81-4c0.43-2.32,2.84-2.5,5.06-3.15c-2.26-0.59-4.09-0.69-5.69,0.9c-0.64,0.64-1.56,1.55-2.35,1.02
		c-5.56-3.7-8.12,1.03-10.52,4.18c-6.41,8.4-12.28,17.2-17.39,26.47c-3.32,4.5-8.88,6.69-11.9,11.55c-0.7,1.13-1.04,0.92-2.96-1.48
		c3.76-6.65,5.84-13.98,8.35-21.12c2.19-6.22,4.26-12.42,8.75-17.45c14.69-11.26,28-24.09,41.47-36.73
		c2.72-2.55,6.89-6.23,4.13-9.56c-2.71-3.28-7,0.28-10.2,2.2c-9.45,5.66-18.17,12.28-26.02,20.05c-0.72,0.72-1.16,2.66-2.88,1.45
		c-1.51-1.07-0.42-2.27,0-3.4c7.02-18.93,13.78-37.96,19.65-57.29c0.74-2.42,1.98-4.78,0.98-7.99
		c-6.85,7.24-10.81,16.01-15.61,24.22c-3.95,4.91-5.38,11.05-8.08,16.57l0.03-0.05c-1.31,2.8-2.57,5.63-4.07,8.33
		c-0.56,1.01-0.67,2.89-2.31,2.57c-1.71-0.33-1.94-2.13-1.92-3.55c0.08-5.73-1.61-11.21-2.25-16.84c-0.07-0.58-0.24-1.02-0.74-1.32
		c-1.48-5.59-2.91-11.2-4.5-16.76c-0.32-1.1-0.48-2.85-1.89-2.97c-1.85-0.16-2.27,1.67-2.55,3.02c-1.06,5.13-1.95,10.3-2.91,15.45
		c-1.48,11.07-0.26,21.98,1.95,32.83c0.01,0.44,0.03,0.88,0.04,1.32c-1.35,4.64,1.05,8.81,1.98,13.07
		c1.04,4.78,1.67,9.13-1.05,13.45c-0.41,0.65-0.23,1.39,0.11,2.06c-4.85,10.57-7.99,21.93-14.03,32.1
		c-6.64-20.34-12.98-40.32-24.07-59.06c-3.21,4.14-2.04,8.1-1.79,11.92c1.13,17.11,7.81,32.86,11.96,49.24
		c0.71,2.82,1.23,5.68,1.83,8.53c0.64,1.97-1.17,2.91-1.89,4.26c-2.55,4.77-4.34,9.68-4.07,15.19c0.13,2.56,0.12,5.12-0.86,7.59
		c-1.15,2.88-0.74,5.56,0.4,8.49c1.11,2.84,3.39,5.95,0.6,9.18c-7.21-16.56-16.84-31.77-26.29-47.07c-0.57-0.93-1.09-1.89-1.65-2.82
		c-0.77-1.27-1.59-2.67-3.38-2.05c-1.49,0.52-1.36,2.02-1.4,3.28c-0.24,7.62,1.92,14.77,4.97,21.56
		c5.65,12.6,11.9,24.92,17.52,37.53c2.85,6.4,4.87,13.16,7.26,19.76c0.5,1.38-0.35,1.64-1.34,1.38c-2.07-0.56-2.64-2.32-3.06-4.17
		c-0.48-2.14-0.86-4.33-2.31-6.1c-0.86-1.05-2.26-1.93-3.32-1.68c-6.53,1.57-9.96-6.14-16.18-5.23c-4.34,0.63-6.42,3.2-6.26,8.12
		c0.23,7.33,1.39,14.56,2.69,21.77c0.29,1.63,2.02,3.86-1.11,4.79c-15.12-19.17-24.94-40.86-31.09-64.75
		c0.88,0.09,1.4,0.01,1.78,0.21c2.79,1.45,5.26,4.46,8.87,1.68c3.59-2.77,2.78-6.7,1.99-10.06c-1.71-7.27-3.52-14.5-4.57-21.91
		c0.97-7.63-1.09-15.14-0.85-22.78c0.19-6.19,0.85-12.32,1.27-18.47c0.15-2.19,0.56-4.59,3.86-3.76c3.63,4.03,7.24,4.45,10.82-0.07
		c1.49-0.51,2.58-1.47,2.81-3.05c1.97-13.64,6.59-26.4,12.86-38.61c0.16-0.32,0.14-0.7,0.1-1.07c2.77-6.01,6.84-11.16,11.12-17.11
		c1.28,2.61,2.28,4.77,3.38,6.87c2.84,5.4,8,5.99,11.89,1.23c1.25-1.52,2.22-3.36,2.94-5.21c7.82-20.01,21.87-35.17,37.93-48.77
		c0.5-0.42,1.1-0.72,2.09-1.35c-0.17,3.16,1.09,5.37,2.07,7.67c4.04,2.78,7.74,3.01,11.12-0.53c5.93-6.2,13.18-10.68,19.63-16.19
		c4.33-3.57,9.39-5.83,14.49-7.99c3.59-0.72,5.18,0.45,5.83,4.38c2.03,12.37,1.58,24.62-1.3,36.71c-0.94,3.94-0.1,6.24,3.14,8.09
		c2.51,1.57,5.32,1.13,8.05,1.19c6.67-3.7,7.25-3.69,7.06,4.39c-0.19,8.14,0.6,16.48-2.29,24.41
		C713.55,188.65,713.57,189.74,714.05,190.79z"/>
	<path class="st5" d="M281.41,949.5c-4.17-10.23-4.95-21.16-6.58-31.91c-0.54-3.56-0.92-7.15-1.53-11.92
		c13.87,13.08,28.82,22.66,45.45,29.38c21.46,8.66,43.78,14.31,66.46,18.85c42.26,8.45,84.96,9.65,127.82,8.57
		c9.11-0.23,18.2-1.16,27.29-1.77c8.06,0.64,15.88-1.28,23.77-2.27c5.41-0.68,10.83-1.34,16.16-2.62c2.03-0.49,4.35-0.86,6.31,0.64
		c4.29,6,4.71,16.85,0.79,22.75c-8.08,12.16-18.52,21.52-32.26,26.88c-6.09,2.38-11.65,6.09-18.21,7.32
		c-3.42-0.1-6.56,2.23-10.12,1.03c3.57,1.11,6.82-0.4,10.17-1.08c2.23,0.27,4.99-0.4,5.4,3.07c-24.15,2.48-48.33,4.07-72.62,2.53
		c-7.66-1.56-15.46-0.82-23.2-1.5c-17.69-1.56-35.3-3.35-52.73-6.78c-0.72-0.14-1.45,0-2.13,0.33
		c-26.58-4.76-52.32-12.22-76.68-23.99c-4.85-2.34-9.94-4.45-13.72-8.57c-2.29-3.27-5.66-5.42-8.5-8.11
		c-5.14-4.87-8.99-10.22-9.99-17.42C282.61,951.83,282.38,950.43,281.41,949.5z"/>
	<path class="st6" d="M629.4,908.77c-1.72-1.6-3.14-2.33-6.06-2c-7.54,0.85-14.64,3.46-21.9,4.72c-14.17,2.47-28.12,7.2-42.74,6.49
		c-10.36-0.5-17.22-7.09-16.62-15.11c0.35-4.79,2.87-7.91,7.23-9.32c6.41-2.08,13.06-3.44,19.38-5.74c7.1-2.59,14.5-4.19,21.45-7.36
		c5.56-2.54,12.06-2.61,17.7-5.27c16.15-7.6,31.84-16.03,41.28-32.04c6.34-10.75,11.91-22.67,13.01-34.73
		c1.13-12.39,5.43-24.11,5.35-36.72c-0.09-14.88,2.81-29.61,5.63-44.25c0.54-2.8,0.82-5.89,0.21-8.62c-0.72-3.26-1.73-5.8,3.06-6.16
		c0.58-0.04,0.1-1.59-0.66-2.23c7.83-3.61,15.7-6.8,24.26-2.18c2.31,1.65,2.85,3.74,2.63,6.63c-1.39,17.71-3.05,35.4-5.54,52.98
		c-1.9,13.42-3,26.94-5.34,40.32c-1.51,8.65-2.92,17.33-4.46,25.98c-2.99,16.84-9.43,32.34-18.26,46.86
		c-5.89,9.67-15.19,15.76-24.38,21.83c-3.2,2.12-6.83,3.56-10.11,5.59C632.85,909.23,631.2,910.18,629.4,908.77z"/>
	<path class="st7" d="M707.45,694.19c-18.4-7.95-33.82-0.68-48.53,9.68c-11.09,7.81-18.65,18.79-26.06,29.86
		c-4.14,4.27-5.88,9.89-8.3,15.09c-1.29,2.77-2.36,5.62-4.34,8.68c-2.3-3.25-2.71-7.04-5.31-9.49c-6.05-11.16-13-21.66-23.91-28.67
		c-23.46-15.07-47.26-14.11-70.78-0.31c-17.78,10.43-28.49,26.79-36.13,45.44c-0.41,0.99-0.8,2-1.53,3.82
		c-5.15-13.68-11.88-25.51-21.43-35.66c-13.9-14.78-30.98-23.48-51.12-23.99c-24.94-0.64-42.9,12.15-55.5,33
		c-3.57,5.91-6.59,12.16-10,18.51c-4.66-11.77-9.34-23.39-16.37-33.87c-10.49-15.63-24.17-27.47-42.05-33.6
		c-12.61-4.33-24.76-2.16-36.18,6.42c-0.56-5.12-1.45-9.55-1.43-13.98c0.02-5.21,4.35-7.64,8.06-10.19
		c13.58-9.31,33.33-5.35,46.74,3.87c14.44,9.92,23.52,23.67,29.97,39.59c1.88,4.64,3.47,10.48,9.52,10.91
		c5.61,0.4,7.52-5.07,10.1-8.95c8.82-13.29,19.58-24.44,35.53-28.49c25.42-6.45,47.92,0.44,67.86,16.71
		c7.31,5.97,12.51,13.8,17.95,21.43c9.44,13.23,12.81,10.25,19.35-0.64c13.43-22.38,32.59-35.58,58.82-38.93
		c18.21-2.32,33.83,2.39,47.84,13.77c4.77,3.88,8.42,8.56,11.11,14.06c1.03,2.11,2.2,4.18,3.53,6.11c4.72,6.87,10,6.89,14.69-0.02
		c5.61-8.27,8.83-17.91,15.07-25.89c9.92-12.71,21.52-22.84,37.62-26.76c-1.44,4.3-4.49,7.92-4.42,12.92
		c0.06,3.84,0.53,5.26,4.82,4.17c8.34-2.11,16.66-0.95,24.78,1.59C710.09,691.21,710.04,692.09,707.45,694.19z"/>
	<path class="st8" d="M684.51,655.17c-6.42-1.46-3.19-6.56-2.92-9.59c1.75-19.16,3.81-38.31,6.39-57.37
		c0.77-5.7,1.89-11.62,2.34-17.17c0.9-11.16,3.57-22.22,3.06-33.4c-0.17-3.67,1.63-6.45,1.68-9.81c-5.04,6.58-4.72,14.88-7.07,22.28
		c-1.75,5.51-4.83,9.22-9.55,12c-2.63,1.55-5.05,0.74-7.13-0.94c-2.89-2.34-5.37-5.08-4.57-9.26c0.87-4.54,2.5-8.75,5.79-12.16
		c0.89-0.92,2.11-2.08,1.44-3.29c-1.01-1.84-2.57-0.36-3.85,0c-7.48,2.11-15.04,3-22.81,2.12c-5.82-0.66-9.39-5.59-8.46-11.28
		c0.68-4.2,3.06-8.39,0.81-12.8c2.98-17.03,8.62-33.22,15.51-49c2.88-6.6,2.89-6.6,10.63-3.92c4.01,2.9,8.78,1.77,13.19,2.36
		c12.7,1.69,25.47,1.34,38.22,0.53c0.58-0.04,1.02-0.14,1.08-0.81c1.89-1.08,3.94-0.92,5.99-0.76c0.65,0.38,1.39,0.62,2.07,0.38
		c4.55-1.62,4.97,1.28,4.69,4.47c-0.55,6.14-1.62,12.19-3.86,17.97c-11.56,10.09-25.49,15.53-39.82,20.19
		c-8.37,2.72-16.98,4.54-25.41,7c-2.85,0.83-7.28,1.41-6.41,5.24c0.82,3.61,5.15,3.62,8.47,3.12c17.1-2.57,33.76-6.64,49.25-14.67
		c2.95-1.53,5.85-4.15,9.68-2.18c2.16,3.47,1.09,7.23,0.51,10.71c-4.34,26.06-6.96,52.33-10.08,78.54
		c-1.99,16.72-3.52,33.51-5.07,50.29c-0.3,3.29-0.55,6.59-1.86,9.69c-0.56,0.91-1.34,1.47-2.43,1.53
		C697.54,654.56,691.02,653.85,684.51,655.17z"/>
	<path class="st9" d="M542.35,1016.42c-0.94-2.56-4.32-0.79-5.43-3.05l0.02,0.03c-0.06-2.78,2.2-1.65,3.52-2.33
		c11.76-6.08,25.07-9.42,34.61-19.51c4.43-4.69,9.85-9.04,12.15-14.84c2.22-5.6,2.22-12.33-0.5-18.4c-0.84-1.26-1.39-2.74-2.74-3.62
		c14.94-3.78,30.04-6.9,44.72-11.71c18.47-6.06,35.66-14.44,50.95-26.54c2.39-0.78,3.71-2.89,5.49-4.43
		c0.69-0.6,1.42-1.47,2.34-1.11c1.16,0.46,1.19,1.62,1.09,2.8c-0.24,2.88-1.07,5.65-1.81,8.39c-0.7,2.55-0.84,4.95-0.19,7.46
		c-1.66,10.64-3.86,21.19-7.98,31.14c-4.38,10.59-13.2,17.15-22.71,22.84c-4.83,0.74-8.21,4.39-12.47,6.26
		c-2.61,1.14-5.27,2.28-4.32-2.57c0.08-0.43,0.59-1.24-0.12-1.11c-5.22,0.98-3.55-3.97-5.47-6.44c-0.09-0.2-0.8,0.8-0.19,0.38
		c0.19-0.13,0.26,0.05,0.48,0.27c0.72,0.72,0.67,1.68,0.87,2.54c0.51,2.15,0.19,4.43-2.05,5.03c-2.27,0.61-2.68-1.88-3.52-3.41
		c-0.68-1.24-0.21-2.95-1.9-4.17c-2.05,3.36-3.97,6.82-9.08,5.41c-1.87-0.52-2.09,2.05-2.29,3.68c-0.15,0.51-0.45,0.92-0.85,1.25
		c-1.99,0.64-3.66,1.38-3.46,4.07c0.4,5.38-2.21,8.77-7.57,9.23c-3.32,0.29-6.73,4.31-10.14,0.1c-0.26-0.32-0.45-0.43-0.13,0.25
		c1.76,3.75-3.28,1.72-3.51,3.92C574.49,1012.64,558.45,1014.72,542.35,1016.42z"/>
	<path class="st10" d="M760.5,368.19c0.01,0.18,0.02,0.52,0.04,0.53c3.23,0.11,4.16,2.93,6.15,5.56c0.32-6.96,5.82-5.34,9.33-5.86
		c3.3-0.49,2.38,3.61,3.42,5.63c0.57,1.1-3.77,1.85-0.13,2.97c2.94,0.9,1.94-1.8,2.66-2.91c0.26-0.39,0.39-0.87,0.6-1.34
		c3.12,0.88,1.04,5.18,4.61,5.89c-6.22,0.11-7.39,8.12-13.87,7.43c3.31,0,6.32-0.67,8.95,1.67c1.4,1.25,2.18,2.82,1.27,4.23
		c-0.89,1.37-2.69,1.78-4.4,0.7c-1.44-0.91-2.68-2.71-5.46-0.94c5.26,1.02,3.91,6.15,6.51,8.91c1.55,1.63-1.34,1.59-1.7,2.53
		c-1.27,3.34-3.22,0.95-5.02,0.34c0.24,3.19,3.63,2.47,4.55,4.46c0.16,0.34,1.04,1.12,0.89,0.5c-1.04-4.34,5.8-0.68,4.57-4.59
		c-0.45-1.43-1.57-2.91-0.05-3.85c1.13-0.69,2.61,0.4,3.55,1.4c1.89,1.99,2.92,2.56,1.96-0.99c2.11,0.16,1.18-5.21,4.66-2.56
		c-0.02,2.26-1.97,3.74-2.27,5.98c-0.47,3.58,0.27,6.57,3.39,8.51c1.9,1.18,3.42,2.23,2.14,4.71
		c-12.87,10.26-27.57,16.85-43.16,21.78c-20.69,6.54-41.63,11.11-63.53,9.43c0.23-3.21,2.94-2.67,4.86-3.07
		c8.87-1.85,17.34-4.64,24.87-9.85c0.6-0.42,1.33-0.66,1.86-1.17c1.72-1.64,3.95-3.29,3.07-5.96c-0.82-2.5-3.63-2.62-5.66-2.5
		c-8.4,0.5-16.83,0.71-25.21,1.45c-0.36,0.03-0.71,0.17-1.07,0.23c-7.18,1.28-7.18,1.28-10.51-5.34
		c10.04-2.59,20.15-4.83,30.09-7.86c15.2-4.63,31.1-5.8,46.61-8.93c1.06-0.21,2.08-0.64,3.11-1c2.3-0.79,4.78-1.68,4.53-4.65
		c-0.26-3.12-3.28-3.44-5.41-3.61c-11.64-0.91-23.24-1.03-34.83,1.25c-10.03,1.98-19.96,4.27-29.81,7c-0.94,0.26-2.08,0.8-3.12-0.25
		c7.5-9.87,16-18.9,24.64-27.73c3.03-3.09,8.41-1.91,12.67-2.86C740.64,371.28,750.61,369.9,760.5,368.19z"/>
	<path class="st11" d="M726.15,485.78c-0.08-5.14,2.11-9.87,2.77-14.94c0.61-4.63,1.3-7.77-4.62-7.96
		c6.56-1.45,13.12-2.89,19.69-4.34c3.08,0.59,2.69,2.36,2.2,4.88c-3.08,15.96-6.54,31.85-9.32,47.87c-0.06,0.33,0.15,0.7,0.31,1.03
		c-2.78,18.07-5.57,36.13-8.35,54.2c-2.53,9.11-2.86,18.56-4.02,27.85c-2.04,16.42-3.68,32.9-5.52,49.36
		c-0.37,3.26-0.48,6.55-0.86,9.79c-0.53,4.51-2.75,5.78-6.74,3.5c-2.09-1.19-4.6-1.18-6.41-2.81c1.77-16.33,3.97-32.62,5.18-48.99
		c1.15-15.51,3.25-30.9,5.07-46.31c1.67-14.11,3.03-28.3,5.79-42.29c0.77-3.89,1.74-8.01,0.19-12.04
		C722.68,498.23,721.94,491.4,726.15,485.78z"/>
	<path class="st12" d="M687.84,240.51c3-0.42,5.05-1.67,7.24-4.22c4.83-5.6,11.11-9.72,18.14-12.39c5.01-1.91,4.16,3.55,6.34,5.22
		c-2.38,10.96-6.6,21.22-11.97,31.02c-1.18,2.15-1.91,5.23-5.76,1.83c-2.33-2.05-5.43,0.45-7.7,2.47
		c-13.98,12.51-25.73,26.95-35.61,42.8c-2.12,3.39-2.74,3.08-5.26,1.08c-1.81-1.43-4.21-2.12-6.34-3.14
		c-0.87-0.64-1.69-0.37-2.5,0.15c-4.9,3.12-4.2,2.62-7.28-1.73c-3.24-4.57-0.68-7.48,1.05-10.98
		c13.59-11.86,25.57-25.57,40.79-35.58c5.01-3.29,6.7-8.88,8.75-14.14C687.1,242.08,687.17,241.28,687.84,240.51z"/>
	<path class="st13" d="M568.95,372.44c-0.85-6.28-1.73-12.56-2.52-18.84c-0.27-2.14,0.04-4.39-0.47-6.45
		c-1-3.96-0.43-7.48,3.02-9.66c3.57-2.26,8.43-3.04,11.19,0.09c2.78,3.16,6.17,3.22,9.08,3.43c6.42,0.45,6.72,5.11,7.87,9.35
		c0.45,1.65-0.62,4.18,2.74,3.2c2.79,5.29,1.17,10.56-0.04,15.84c-1.22,6.89-0.91,13.8-0.24,20.71c-0.02,1.1-0.03,2.19-0.05,3.29
		c-1.62,2.26,1.31,6.26-2.9,7.53c-7.3-3.06-11.68-9.53-16.92-14.89C575.7,381.92,572.51,377,568.95,372.44z"/>
	<path class="st14" d="M682.37,422.11c-0.22,1.79,5.56-0.42,2.39,3.79c-0.82,1.09,1.73,0.91,2.75,0.7c9.28-1.9,18.79-1.02,28.11-2.4
		c0.54-0.08,1.1-0.02,1.65-0.02c3.76,0,8.42-0.43,9.76,3.66c1.39,4.24-2.83,6.82-5.89,8.76c-8.94,5.65-18.54,9.73-29.29,10.48
		c-0.59,0.04-1.12,0.81-1.68,1.24c-6.81,0.78-13.47-1.03-20.23-1.14c-3.96-0.07-5.71-3.19-3.96-5.91
		C670.53,434.19,674.04,426.01,682.37,422.11z"/>
	<path class="st15" d="M707.45,694.19c0.34-0.41,0.85-0.78,0.98-1.25c0.17-0.59,0.13-0.73-0.89-0.98
		c-9.4-2.34-18.71-4.43-28.22-0.53c-1.55,0.63-3.6,0.87-3.36-1.85c0.37-4.12,1.19-8.21,1.46-12.34c0.21-3.27,3.74-3.26,4.83-5.54
		c10.83-4.37,20.52-1.78,29.47,4.93c3.41,2.55,5.55,6,4.57,10.39c-0.87,3.92-0.72,7.88-1.04,12.53
		C712.36,697.56,709.91,695.88,707.45,694.19z"/>
	<path class="st16" d="M638.19,292.62c-0.97,3.93-1.1,7.53,1.06,11.44c1.55,2.81,1.05,3.42,3.56,1.69c1.36-0.94,2.44-2.42,4.11-0.56
		c-3.89,1.07-5.53,4.44-7.44,7.44c-4.94,7.78-8.39,16.31-12.25,24.64c-5.01,10.42-7.56,21.43-7.89,32.97
		c-0.26,6.61-0.53,13.22-0.76,19.83c-0.06,1.63-1.05,2.59-2.24,3.46c-2.39-1.14-1.69-3.34-1.77-5.24
		c-0.24-5.59,0.44-11.21-0.39-16.79c0.71-13.14,3.06-26.03,5.59-38.91c1.54-7.87,2.9-15.76,4.97-23.53
		c1.29-4.84,3.3-8.66,7.95-11.12C634.86,296.78,636.38,294.42,638.19,292.62z"/>
	<path class="st17" d="M634.02,454.57c-0.05,0.72,0.02,1.48-0.19,2.15c-0.64,2.06,2.77,5.05,0.46,5.62
		c-4.04,0.99-9.51,2.12-12.48-0.56c-2.32-2.09-1.86-7.27-2.66-11.07c-0.01-0.06-0.33-0.12-0.48-0.09c-0.17,0.03-0.31,0.18-0.46,0.27
		c-1.53-8.23-1.79-16.7-3.49-24.81c-1.41-6.69,1.45-9.66,6.54-13.14C623.17,427.85,628.45,441.26,634.02,454.57z"/>
	<path class="st18" d="M615.12,990.25c0.43-1.75-3.34-2.91-0.98-4.65c2.02-1.49,4.45-3.68,7.23-1.39c1.83,1.5,1.62,0.57,2.12-0.96
		c1.28-3.84,1.44-3.79,6.23-5.98c0.09,3.54-0.21,7.13,2.78,10.35c0.51-2.69,4.1-5.02-0.86-6.72c-0.88-0.3-0.26-1.92,0.23-2.41
		c0.99-0.99,1.58,0.44,1.98,0.94c0.76,0.96,1.33,2.16,1.68,3.35c0.55,1.86,1.19,2.99,3.35,1.74c1.27-0.73,2.85-1.5,3.53,0.66
		c0.42,1.35,0.1,2.61-1.8,2.51c-1.09-0.05-1.25,0.7-0.97,1.42c0.48,1.22,1.46,0.84,2.25,0.37c3.22-1.92,6.31-4.12,9.68-5.72
		c1.06-0.5,2.77-3.43,4.28-0.22c-11.74,8.16-24.97,13.17-38.35,17.71c-8.92,3.02-18.06,5.38-27.38,6.97
		c-0.79-2.86,2.77-1.18,3.06-3.01c-0.76-0.42-1.56-0.85-2.35-1.29c1.13-0.34,2.78-2.11,3.05-1.36c1.6,4.4,4.38,1.69,6.6,1.29
		c7.33-1.31,8.73-2.97,9.4-10.5c0.31-3.45,2.24-4.17,5.22-3.08c0.85,1.76-1.25,2.82-1.01,4.54c0.41,2.85,1.05,5.08,4.54,3.76
		c-2.74,0.35-4.91-0.08-3.77-3.81C615.33,993.25,616.29,991.83,615.12,990.25z"/>
	<path class="st19" d="M635.81,400.92c4.91,1.1,9.6-0.6,14.22-1.56c4.78-1,6.79,0.24,6.8,5.02c0,2.19,0.11,4.39,0.17,6.58
		c-0.02,2.37-0.05,4.75,0.03,7.12c0.08,2.17,0.4,4.95-2.25,5.53c-3.44,0.75-3.19-2.61-4.02-4.2c-0.12,0.94,1.13,3.59-0.78,3.47
		c-3.36-0.21-3.58-3.47-3.73-6.27c0.42-0.57-1.02,0.29-0.29,0.24c0.44-0.04,0.34,0.07,0.09,0.55c-0.56,1.06-1.67,1.36-2.49,2.05
		c-2.23,1.89-1.42,5.04,0.14,5.47c2.56,0.72,3.81,1.51,2.74,3.88c-1.06,2.33-2.81,4.3-5.95,3.1c-2.56-9.86-5.8-19.58-6.5-29.85
		C634.38,401.33,634.9,400.82,635.81,400.92z"/>
	<path class="st20" d="M687.84,240.51c-0.04,0.8-0.07,1.59-0.11,2.39c-3-1.25-5.72-0.98-8.78,0.45
		c-10.22,4.79-19.01,11.48-27.17,19.14c-0.77,0.73-1.75,1.24-2.63,1.85c-0.85-4.37,2.61-7.05,4.4-10.21
		c3.48-6.13,7.61-11.91,11.78-17.61c1.56-2.13,3.41-4.22,6.16-5.27c2.65-1.01,5.17-2.76,5.9,2.76c2.21-8.31,6.91-2.65,10.32-3.64
		c-0.46,4.68-5.6,2.03-7.28,5.52C684.03,235.98,685.79,238.45,687.84,240.51z"/>
	<path class="st21" d="M602.84,323.37c0.53-1.92-0.24-3.66-0.95-5.31c-4.58-10.61-0.6-20.9,1.29-31.2c0.6-3.26,2.58-6.18,5.48-8.19
		c5.68,12.09,3.93,24.3,0.79,36.61c-1.24,4.87-1.94,9.88-2.98,15.38C604.05,328.22,603.41,325.81,602.84,323.37z"/>
	<path class="st22" d="M640.5,431.91c1.63-1.82,5.25-1.61,5.27-5.27c-2.81,1.49-6.1,3.78-4.47-2.42c0.55-2.1-4.03-5.95,2.19-6.17
		c1.35-0.05,4.5,0.96,5.41,2.45c0.27,0.45,0.5,0.92,0.92,1.71c1.28-2.78-1.42-4.91-0.46-7.6c2.74,2.28,1.79,6.55,4.96,8.51
		c3.19-3.55-0.04-8.55,2.68-12.15c0.32,0.04,0.63,0.02,0.94-0.06c0.05,2.21,0.11,4.42,0.16,6.63c1.18,4.56-1.3,8.79-1.23,13.25
		c-2.59,4.58-5.32,9.09-7.72,13.76c-1.94,3.77-3.17,1.92-4.12-0.4C643.37,440.12,641.99,435.99,640.5,431.91z"/>
	<path class="st23" d="M482.19,807.97c3.65-0.03,7.38,3.7,7.41,7.42c0.03,3.44-3.99,7.55-7.38,7.55c-4.18,0-7.02-2.99-7.01-7.39
		C475.21,811.38,478.32,808.01,482.19,807.97z"/>
	<path class="st24" d="M613.95,808.92c-0.13-4.7,2.83-6.95,6.86-7.72c3.47-0.66,7.49,3.75,7.54,7.72c0.04,3.27-3.72,7.11-6.99,7.13
		C617.39,816.08,614.06,812.88,613.95,808.92z"/>
	<path class="st25" d="M342.87,800.61c5.09-0.13,8.08,2.81,8.24,7.02c0.17,4.58-2.48,6.75-6.53,7.21c-3.97,0.45-7.36-3.04-7.3-7.21
		C337.34,803.45,338.98,800.52,342.87,800.61z"/>
	<path class="st26" d="M391.66,1011c5.15-1.94,9.92,0.73,14.85,1.31c11.35,1.33,22.59,3.11,34.1,3.49
		c8.55,0.28,17.09,2.15,25.77,1.65c1.14-0.07,2.61,0.16,3.34,1.5C443.42,1019.1,417.45,1015.94,391.66,1011z"/>
	<path class="st27" d="M718.31,463.64c0.35,0.11,0.85,0.12,1.01,0.36c0.82,1.23-0.43,0.92-0.87,0.98
		c-9.75,1.35-19.56,1.42-29.35,0.88c-6.5-0.36-12.98-1.27-19.46-2c-1.57-0.18-3.6,0.22-3.82-2.29
		C683.21,464.6,700.74,464.68,718.31,463.64z"/>
	<path class="st28" d="M872.54,270.05c-1.29-5.26,1.89-9.7,2.93-14.49c0.99-4.56-0.25-5.46-4.37-5.35
		c-8.83,0.25-17.65-1.52-26.51-0.06c-1.81,0.3-4.03,0.8-5.74-0.8c11.96-1.87,23.92-1.34,35.92-0.32c3.52,0.3,3.62,1.3,2.86,4.34
		C876.2,259.04,874.4,264.55,872.54,270.05z"/>
	<path class="st29" d="M701.12,157.59c-3.87-1.28-5.03-3.2-4.05-7.36c2.72-11.6,3.72-23.25,1.81-35.11
		c-0.56-3.47-1.17-6.43-5.42-6.71c4.24-2.26,5.8-0.92,6.48,3.8c1.87,12.92,1.8,25.72-1.59,38.33
		C697.41,154.04,699.83,155.41,701.12,157.59z"/>
	<path class="st30" d="M550.21,232.59c-3.56,0.75-3.19,3.6-3.41,6.22c-0.85,10.3-1.59,20.57-0.15,30.9c0.35,2.53,1.08,5.42-0.72,7.9
		c-2.07-16.53-2.18-33.02,1.22-49.56C549.74,228.49,548.79,231.39,550.21,232.59z"/>
	<path class="st31" d="M796.84,417.1c-0.04-1.31-0.41-2.39-1.5-3.3c-7.25-6.04-6.29-9.78-1.75-15.91
		c7.32-3.03,14.39-6.51,20.67-11.41c0.81-0.64,1.6-0.77,2.34,0.12c-5.46,4.25-11.29,7.97-17.67,10.56c-4.32,1.76-7.12,4.3-7.2,9.01
		c-0.06,3.58,3.06,6.23,8.43,7.73C800.06,416.02,797.78,415.88,796.84,417.1z"/>
	<path class="st32" d="M803.49,289.98c-0.09-0.32-0.32-0.89-0.26-0.92c14.27-7.5,28.58-14.92,44.01-19.82
		c0.35-0.11,0.89,0.42,1.35,0.65C833.06,275.48,818.38,282.96,803.49,289.98z"/>
	<path class="st33" d="M583.97,954.71c2.13,0.28,2.61,1.81,2.74,3.62c-1.88-2.17-4.06-2.19-6.84-1.72
		c-10.87,1.85-21.8,3.43-32.73,4.87c-2.2,0.29-4.72,0.99-6.81-0.78C554.88,958.7,569.42,956.7,583.97,954.71z"/>
	<path class="st34" d="M576.8,189.79c1.62,1.78-0.13,3.08-0.81,4.33c-5.86,10.82-8.93,22.56-11.54,34.46
		c-0.64,2.89-0.59,2.9-3.42,3.95c3.09-2.18,2.56-5.87,3.13-8.81C566.53,211.67,570.93,200.48,576.8,189.79z"/>
	<path class="st35" d="M643.58,174.49c2.18,2.79,3.15,6.77,3.49,14.15c0.07,1.63,0.16,3.28,0.4,4.89c0.09,0.64,0.6,1.21,1.04,2.03
		c3.04-3.09,3.21-7.62,6.37-10.26c-1.14,6.21-4.99,11.03-8.39,16.27C646.8,192.33,644.33,183.51,643.58,174.49z"/>
	<path class="st36" d="M714.05,190.79c-2.26-2.27-0.16-4.52,0.21-6.65c1.17-6.7,1.06-13.43,1.07-20.17
		c0.02-6.84-0.03-6.84-6.16-5.19c2.01-1.3,3.18-4.92,5.79-3.93c2.58,0.98,2.04,4.6,2.05,6.91
		C717.04,171.52,717.26,181.35,714.05,190.79z"/>
	<path class="st37" d="M651.39,235.84c-7.12,11.42-9.94,24.62-15.13,36.83c-0.39,0.91-1.02,1.49-1.97,1.74
		c3.96-10.85,7.9-21.71,11.91-32.54C647.17,239.26,649.02,237.3,651.39,235.84z"/>
	<path class="st38" d="M614.91,748.01c3.9,1.16,2.94,5.55,5.5,8.08c2.98-6.31,5.84-12.57,8.92-18.72c0.74-1.47,0.57-4.2,3.54-3.65
		c-4.56,8.76-8.86,17.65-12.57,27.27C618.34,756.29,616.62,752.15,614.91,748.01z"/>
	<path class="st39" d="M619.35,370.24c-1.72-1.66-1.26-3.85-0.81-5.65c2.2-8.83,3.42-17.91,6.6-26.5c0.49-1.32,0.83-1.98,2.1-0.83
		C623.56,348.01,620.8,358.97,619.35,370.24z"/>
	<path class="st40" d="M281.41,949.5c1.97-0.38,1.37,1.47,1.47,2.1c1.42,9.7,7.98,15.91,14.49,22.31c1.35,1.33,5.58,0.58,3.88,4.53
		C291.12,971.21,282.51,962.93,281.41,949.5z"/>
	<path class="st41" d="M686.55,929.56c-3.06-5.54,1.17-10.57,1.11-15.89c-0.01-0.53,0.08-1.06,0.16-2.03
		c-3.34,0.91-4.61,4.97-8.18,4.82c3.3-3.11,6.61-6.22,10.26-9.65C690.16,914.71,686.85,921.95,686.55,929.56z"/>
	<path class="st42" d="M678.96,116.41c-0.27,2.44-2.61,2.87-4.09,4.07c-4.94,3.99-10.1,7.67-14.58,12.26
		c-3.95,4.04-8.95,3.92-12.08,0.38c4.92,2.37,8.76,1.22,12.53-2.79C666,124.72,672.24,120.2,678.96,116.41z"/>
	<path class="st43" d="M635.81,400.92c-0.6,0.38-1.21,0.76-1.81,1.13c-0.08-10.2-1.54-20.4,0-30.6c1.95,6.72,0.38,13.6,0.87,20.38
		C635.08,394.88,634.4,398.01,635.81,400.92z"/>
	<path class="st44" d="M633.67,206.06c-1.06-0.52-1.85-1.38-1.88-2.53c-0.32-10.22-1.89-20.39-1.2-30.65
		c0.01-0.16,0.06-0.4,0.16-0.45c0.83-0.38,0.67,0.5,0.97,0.8C631.32,184.24,632.57,195.15,633.67,206.06z"/>
	<path class="st45" d="M634.76,235.96c-0.13-0.12-0.4-0.3-0.38-0.36c3.28-8.84-0.16-17.26-1.59-25.81c-0.15-0.91,0.07-1.81,0.93-2.4
		c0.75,3.53,1.37,7.1,2.29,10.58C637.64,224.13,638.57,230.2,634.76,235.96z"/>
	<path class="st46" d="M687.6,366.99c-2.51-3.4-0.05-6.79,0.51-9.91c1.22-6.72,3.55-13.25,5.45-19.85c0.03-0.09,0.33-0.16,0.49-0.13
		c0.16,0.03,0.31,0.18,0.46,0.28C692.14,347.23,688.73,356.84,687.6,366.99z"/>
	<path class="st47" d="M805.54,323.93c0.17,0.06,0.34,0.12,0.51,0.19c0.17,0.07,0.32,0.16,0.48,0.25c-8.6,2.14-17.07,5.04-26.14,4.2
		C788.78,327.01,797.16,325.47,805.54,323.93z"/>
	<path class="st48" d="M800.27,311.09c3.2-2.43,7.09-2.07,10.69-2.29c5.77-0.36,11.58-0.1,17.51-0.1c-0.75,1.61-2.27,0.43-3.17,1.1
		C816.92,309.26,808.63,310.87,800.27,311.09z"/>
	<path class="st49" d="M773.73,352.58c9.35-1.9,18.67-1.61,27.93,0.51c0.7,0.16,1.17,1.26,1.75,1.93
		C793.72,351.74,783.64,353.14,773.73,352.58z"/>
	<path class="st50" d="M614.19,371.49c1.96,4.58,0.41,9.37,0.84,14.04c0.25,2.7-0.35,5.53,1.33,8c-0.53,0.95-1.05,1.89-2.17,3.89
		C614.19,388.05,614.19,379.77,614.19,371.49z"/>
	<path class="st19" d="M656.87,430.78c-1.98-0.84-3.75-1-0.66-3.54c2.57-2.12,0.01-6.63,1.89-9.7
		C660.66,422.22,658.64,426.49,656.87,430.78z"/>
	<path class="st35" d="M654.84,185.35c1.59-6.06,3.19-12.12,8.08-16.57C660.15,174.27,658.45,180.27,654.84,185.35z"/>
	<path class="st51" d="M599.58,390.1c-2.41-6.83-0.53-13.81-0.66-20.72c0-0.08,0.27-0.23,0.41-0.22c0.17,0.01,0.33,0.15,0.49,0.23
		C599.74,376.3,599.66,383.2,599.58,390.1z"/>
	<path class="st49" d="M760.74,353.96c3.77-1.83,7.57-3.4,11.8-1.39C768.6,353.03,764.67,353.5,760.74,353.96z"/>
	<path class="st51" d="M596.64,400.92c3.16-1.66-0.3-5.88,2.9-7.53c0.03,2.1,0.26,4.22,0.02,6.29
		C599.37,401.33,598.63,402.93,596.64,400.92z"/>
	<path class="st52" d="M241.95,491.37c-4.39-4.58-3.5-10.73-4.28-16.21c-0.39-2.7-2.88-5.69-0.45-8.63
		c8.99,12.32,21.15,20.33,35.11,25.95c30.11,12.13,61.36,19.68,93.44,24.48c26.89,4.03,53.86,6.84,80.96,8.89
		c8.75,0.66,17.54,0.34,26.24,1.55c14.39-0.29,28.78-0.4,43.17,0.05c22.12-1.04,44.24-2.01,66.35-3.16
		c5.1-0.26,10.16-1.25,15.31-0.96c2.21,0.13,4.79-0.25,5.01,2.83c0.18,2.64-1.47,4.36-4.01,5.21c-6.43,2.16-13.13,3.03-19.78,4
		c-25.23,3.69-50.68,4.32-76.1,4.95c-16.1,0.4-32.21-0.46-48.32-1.31c-16.83-0.89-33.63-2.04-50.42-3.53
		c-22.72-2.01-45.26-5.25-67.56-9.99c-23.99-5.09-47.77-10.92-70.36-20.87C257.75,500.89,250.15,495.61,241.95,491.37z"/>
	<path class="st53" d="M495.16,423.15c5.63,0.03,9.76,3.27,9.6,7.53c-0.23,6.25-5.43,11.14-11.87,11.15c-4.52,0-9.71-4.39-9.57-8.09
		C483.55,427.99,489,423.12,495.16,423.15z"/>
	<path class="st54" d="M394,441.85c-4.01-0.08-9.57-3.85-9.76-6.62c-0.15-2.3,6.24-9.61,9.06-10.35c6.74-1.78,10.49-0.75,12.3,3.37
		C408.25,434.26,401.66,441.99,394,441.85z"/>
	<path class="st53" d="M395.94,880.41c0.08,4.89-4.54,9.14-8.72,8.28c-2.64-0.54-5.44-1.23-7.43-3.29
		c-8.65-8.94-16.92-18.16-21.51-30.01c-1.1-2.86-1.84-5.89,0.85-8.09c2.64-2.16,5.91-1.99,8.7-0.18
		c11.93,7.73,20.11,18.88,27.45,30.74C395.82,878.73,395.83,879.94,395.94,880.41z"/>
	<path class="st55" d="M424.44,855.25c0.29,2.72-1.42,4.42-3.54,5.59c-1.89,1.05-3.67,0.57-5.5-0.87
		c-9.2-7.25-14.9-16.86-18.97-27.59c-1.04-2.75,0.04-5.13,2.19-6.8c2.72-2.11,5.74-2.14,8.7-0.3c3.89,2.42,6.03,6.33,8.25,10.07
		C419.28,841.62,425.02,847.03,424.44,855.25z"/>
	<path class="st56" d="M287.39,384.69c-4.1-1.02-8.66-1.75-10.2-6.76c-1.34-4.36,1.37-9.35,6.35-11.47
		c6.33-2.69,12.87-4.54,19.85-5.16c5.93-0.53,11.74-2.31,17.74-2.68c1.09-0.07,2.15-0.45,3.24-0.52c3.83-0.26,7.84,0.24,9.42,4.04
		c1.64,3.95-1.35,6.9-4.27,9.18c-6.85,5.35-14.92,7.79-23.18,10.16C300.13,383.25,293.76,383.18,287.39,384.69z"/>
	<path class="st57" d="M372.24,987.46c-18.88-2.6-36.41-5.81-51.84-15.85c-2.9-1.89-5.76-3.99-8.14-6.47
		c-3.42-3.57-3.32-8.07-1.31-12.24c1.25-2.6,3.49-3.82,6.87-2.54c5.51,2.1,10.54,5.02,15.61,7.95
		c11.48,6.61,23.61,11.67,36.65,14.27c3.34,0.67,6.21,2.23,9.04,3.86c2.5,1.43,4.27,3.62,3.42,6.82c-0.8,2.99-3.09,3.84-5.93,3.77
		C374.81,986.97,373,987.81,372.24,987.46z"/>
	<path class="st9" d="M536.91,1013.37c-3.91,4.31-8.75,2.12-13.34,1.59c4.45-0.53,8.4-4.7,13.37-1.56
		C536.94,1013.4,536.91,1013.37,536.91,1013.37z"/>
	<path class="st58" d="M726.15,485.78c-0.69,4.57-1.57,9.12-1.97,13.72c-0.19,2.24-1.4,3.59-2.66,5.08
		c-17.37,8.94-35.59,15.3-54.99,18.08c-2.91,0.42-5.78,0.95-8.65-0.19c-2.35-0.94-5.19-1.55-5.06-4.83
		c0.12-2.89,2.03-4.54,4.78-5.27c6.3-1.66,12.58-3.45,18.91-5C694.29,503.02,710.76,495.66,726.15,485.78z"/>
	<path class="st9" d="M615.12,990.25c3.91-1.09,4.69-0.03,3.38,0.52c-2.78,1.16-0.58,2.92-1.18,4.16c-1.2,2.5-1.07,2.86,1.38,2.74
		c1.01-0.05,1.9-1.27,3.35-0.08c-2.71,1.46-5.91,4.23-7.93,1.54c-1.16-1.55-4.41-6.55,0.99-8.87
		C615.1,990.26,615.12,990.25,615.12,990.25z"/>
</g>
<path class="st59" d="M468.64,104.25c-0.73-1.21-1.99-1.62-3.21-2.08c-0.38-0.46-0.76-0.92-1.14-1.39c0.05-0.36-0.09-0.61-0.43-0.74
	c-1.36-2.45-0.73-5.12-0.84-7.71c0.77-1.05,1.54-2.11,2.3-3.16c4.35-1.65,8.7-1.97,13.06-0.02c0,0-0.03-0.03-0.03-0.03
	c0.85,0.86,1.7,1.71,2.55,2.57c0.02,0.25,0.15,0.38,0.4,0.4c0.84,0.95,1.69,1.9,2.53,2.85c-0.1,0.3-0.02,0.53,0.26,0.69
	c6.31,11.05,5.56,22.02-0.39,32.92c-0.29,0.37-0.58,0.73-0.86,1.1c-1.24,1.28-2.49,2.56-3.73,3.83c0,0-0.2,0.18-0.2,0.18
	c-3.87,3.25-8.12,5.86-12.9,7.56c0,0-0.28,0.1-0.28,0.1c-11.76,3.11-22.32-0.03-32.31-6.16c0,0,0.02,0.02,0.02,0.02
	c-2.21-1.86-4.43-3.72-6.64-5.58c-0.32-0.34-0.65-0.68-0.97-1.02c-0.86-1.71-1.73-3.41-3.43-4.48c-0.27-0.36-0.53-0.73-0.8-1.09
	c-7.65-13.64-10.73-27.89-7.27-43.55c4.74-21.46,18.17-34.51,38.6-40.32c25.58-7.28,49.51-3.4,69.3,15.14
	c24.09,22.57,28.77,56.83,13.24,86.2c-8.66,16.38-21.72,28.69-35.46,40.58c-13.17,11.39-25.85,23.3-30.89,40.87
	c-0.95,3.3-1.47,6.73-2.19,10.09c-0.86,10.51-1.83,21.04,2.43,31.15l-0.33,0.07l0,0.34c1.27,3.95,2.66,7.83,4.56,11.55
	c5.81,11.41,9.75,23.4,10.6,36.28c0.39,11.7-1.51,22.86-7.67,33.04c-0.44,0.73-0.88,1.46-1.32,2.19c-0.81,0.97-1.63,1.93-2.44,2.9
	c-5.15,6.19-8.93,6.54-15.09,1.4l0.03,0.04c-1.41-3.47-2.51-7.08,0.69-10.05c8.7-8.07,10.79-18.28,10.02-29.52
	c-0.75-8.17-2.48-16.06-6.35-23.38c0.1-0.33,0.03-0.63-0.2-0.88c-5.22-12.09-10.25-24.24-11.93-37.45
	c0.01-5.12,0.02-10.25,0.03-15.37c1.88-9.69,4.15-19.28,7.77-28.5c0,0-0.03,0.03-0.03,0.03c1.41-1.09,1.99-2.64,2.39-4.29l-0.2-0.2
	c0,0,0.16,0.23,0.16,0.23c1.45-2.24,2.9-4.48,4.35-6.72c0,0-0.04,0.04-0.04,0.04c1.57-2.07,3.15-4.14,4.72-6.22
	c0,0,0.11-0.12,0.11-0.12c0.6-0.84,1.21-1.67,1.81-2.51c0,0-0.06,0.05-0.06,0.05c0.38-0.4,0.76-0.81,1.15-1.21
	c0,0-0.08,0.08-0.08,0.08c0.41-0.4,0.82-0.79,1.23-1.19c0.69-0.71,1.37-1.42,2.06-2.12c1.49-1.5,2.97-3.01,4.46-4.51
	c0.72-0.69,1.44-1.37,2.16-2.06c7.28-5.16,13.41-11.6,19.79-17.76c0,0-0.01,0.01-0.01,0.01c0.49-0.43,0.97-0.86,1.46-1.28
	c0.36,0,0.54-0.19,0.55-0.55c0.81-0.86,1.61-1.72,2.42-2.58c0,0-0.01,0.02-0.01,0.02c1.62-1.1,2.8-2.57,3.59-4.35
	c0.28-0.33,0.56-0.67,0.84-1c1.37-0.87,2.6-1.86,3-3.54c0.46-0.67,0.93-1.34,1.39-2.01c1.93-2.92,3.85-5.85,5.79-8.76
	c10.37-15.62,9.73-42.89-1.35-57.8c-0.47-0.63-0.93-1.26-1.4-1.89c-2.21-3.21-4.17-6.63-7.48-8.92
	c-20.86-20.75-56.21-16.74-70.59-0.07c-1.64,1.12-2.88,2.56-3.46,4.5c-0.3,0.37-0.61,0.74-0.91,1.11c-0.66,1.13-1.32,2.26-1.98,3.39
	c-0.22,0.28-0.3,0.59-0.25,0.94c-5.25,11.06-4.29,22.25-0.7,33.49c-0.1,0.26-0.02,0.44,0.24,0.54c1.64,3.96,3.54,7.75,7,10.51
	c0.34,0.28,0.68,0.57,1.02,0.85c1.6,2.41,3.88,3.83,6.63,4.56c0,0-0.05-0.06-0.05-0.06c0.22,0.64,0.64,0.94,1.33,0.76
	c0.68,0.21,1.35,0.43,2.03,0.64c4.35,1.06,8.63,1.37,12.62-1.23c0,0,0.01,0.01,0.01,0.01c1.47-0.25,2.43-1.17,3.15-2.41
	c0,0-0.05,0.05-0.05,0.05c0.4-0.41,0.8-0.81,1.2-1.22c0.31-0.35,0.63-0.7,0.94-1.05C473.02,113.46,473.03,109.49,468.64,104.25z"/>
<path class="st59" d="M413.48,166.16c0.59,0.77,1.18,1.53,1.77,2.3c5.26,9.38,9.72,19,9.28,30.13c-0.3,7.53-3.14,14.38-5.71,21.3
	c0,0,0.06-0.06,0.06-0.06c-0.63,0.21-0.97,0.6-0.82,1.3c-0.19,0.26-0.27,0.56-0.23,0.88c-2.74,3.66-3.86,7.97-4.9,12.3
	c-1.04,3.3-0.44,6.66-0.3,9.99c0.15,5.74,1.93,10.94,5.25,15.62c-0.07,0.32-0.01,0.6,0.21,0.85c1.62,3.55,3.29,7.1,0.79,10.95
	l0.14-0.08c-0.4,0.42-0.8,0.83-1.21,1.25l0.09-0.11c-0.41,0.39-0.82,0.79-1.23,1.18l0.14-0.11c-0.48,0.37-0.96,0.74-1.44,1.11
	l0.29-0.02l-0.05-0.28c-2.13,0.62-4.28,0.55-6.44,0.19c-0.35-0.9-1.13-0.9-1.91-0.91c-9.05-10.89-11.29-23.72-10.65-37.38
	c0.47-5.31,2.15-10.34,3.59-15.42c0.22-0.24,0.29-0.51,0.21-0.82c0.77-1.5,1.54-3,2.32-4.5c0,0-0.03,0.02-0.03,0.02
	c8.03-12.99,7.17-28.31-2.27-40.18c-0.18-0.32-0.36-0.65-0.53-0.97c-0.57-0.69-1.14-1.39-1.72-2.08c0,0,0.01,0,0.01,0
	c-1.46-1.48-2.92-2.96-4.38-4.44c0,0,0.01,0.01,0.01,0.01c-1.17-1.22-2.33-2.43-3.5-3.65c-0.03-0.37-0.22-0.55-0.59-0.54
	c-0.88-0.75-1.76-1.51-2.65-2.26c0,0-0.04-0.03-0.04-0.03c-1.05-1.62-2.68-2.56-4.28-3.52c-0.36-0.32-0.72-0.63-1.08-0.95
	c-0.95-0.88-1.9-1.75-2.86-2.63c0,0-0.13-0.1-0.13-0.1c-1.21-0.99-2.42-1.99-3.62-2.98c-1.08-1.04-2.17-2.08-3.25-3.12
	c-2.26-2.31-4.52-4.62-6.78-6.93c0.06-0.4-0.09-0.7-0.45-0.89c-0.54-1.39-1.41-2.5-2.64-3.34c0,0,0,0,0,0
	c-6.61-10.82-10.67-22.4-10.57-35.25c0.05-5.55,0.66-10.86,4.93-15c8.44-2.44,10.27-0.84,9.88,8.16
	c-0.32,7.33,0.43,14.55,3.41,21.39c0.95,3.77,2.46,7.26,5.13,10.16c0,0-0.03-0.03-0.03-0.03c1.64,3.53,4.07,6.46,6.99,9
	c0,0.37,0.19,0.56,0.55,0.57c2.38,2.79,4.93,5.39,8.14,7.25c0.08,0.35,0.3,0.51,0.66,0.47c3.42,3.01,6.85,6.01,10.27,9.02
	c0,0-0.02-0.02-0.02-0.02c0.72,1.5,2,2.39,3.43,3.11c0.39,0.4,0.79,0.8,1.18,1.19C408.43,160.22,410.96,163.19,413.48,166.16z"/>
<path class="st59" d="M590.21,587.24c-0.09,0.33-0.03,0.62,0.18,0.89c2.02,9.82,1.98,19.44-2.9,28.57
	c-3.47,3.47-6.81,7.11-11.59,8.87c-6.47,0.37-12.67-0.54-18.35-3.88c0,0,0.03,0.11,0.02,0.11c-0.58-0.94-1.49-0.65-2.33-0.61
	c-1.84-2-3.46-4.15-4.52-6.67c-5.02-10.07-5.29-20.25-0.68-30.53c0,0-0.23,0.12-0.23,0.11c0.31-0.5,0.61-1.01,0.92-1.51
	c0,0-0.01,0.15-0.01,0.15c1.84-1.87,3.69-3.73,5.53-5.6c0,0-0.12,0.05-0.12,0.05c0.45-0.38,0.89-0.76,1.34-1.15
	c0,0-0.12,0.21-0.12,0.21c1.44-0.52,2.88-1.04,4.32-1.56c4.3-1.61,8.77-0.74,13.17-0.95c1.11,0.39,2.22,0.78,3.33,1.17
	c0,0-0.05-0.03-0.05-0.03c1.47,0.78,2.94,1.56,4.41,2.34c0,0-0.1-0.07-0.1-0.07c1.85,1.87,3.7,3.73,5.56,5.6
	c0,0-0.05-0.15-0.05-0.15C588.23,584.36,589,585.91,590.21,587.24z"/>
<path class="st59" d="M374.27,596.98c-0.41-7.86,9.27-23.26,15.46-24.2c16.21-2.46,25.54,5.64,27.85,17.64
	c2.26,7.53,0.53,14.66-2.22,21.68c-5.06,7.23-10.74,13.74-20.59,13.34c-6.29-0.25-10.4-4.81-14.72-8.72
	c-0.36-0.43-0.72-0.85-1.09-1.28c0,0,0.03,0.17,0.03,0.17c-0.34-0.5-0.68-0.99-1.02-1.48c0,0,0.29,0.06,0.29,0.06
	C375.87,608.7,374.07,603.07,374.27,596.98z"/>
<path class="st59" d="M471.46,645.69c-12.35-4.46-21.21-12.49-25.55-25.08c-1.98-5.73-0.77-8.78,3.97-10.65
	c5.2-2.06,7.01-1.19,9.79,4.64c0.7,1.47,1.5,2.89,2.26,4.33c1.44,4.19,4.22,7.19,8.13,9.18c0,0-0.15-0.07-0.15-0.07
	c8.2,5.97,17.86,5.87,26.86-0.28c0,0-0.08,0.04-0.08,0.04c0.59-0.12,1.05-0.35,0.92-1.09c2.89-3.68,5.77-7.22,7.37-11.86
	c1.69-4.93,6.31-6.57,10.49-4.7c4.55,2.04,5.64,5.36,3.4,10.94c-3.15,7.86-6.9,15.33-14.52,19.95c-0.45,0.22-0.91,0.44-1.36,0.66
	c0,0,0.04-0.06,0.04-0.06c-0.85,0.24-1.76,0.38-2.09,1.4c0,0,0.14-0.06,0.14-0.06c-1.76,0.23-3.35,0.83-4.64,2.09
	c0,0,0.14-0.04,0.14-0.04C488.26,647.87,479.91,648.7,471.46,645.69z"/>
</svg>
