<svg xmlns="http://www.w3.org/2000/svg" xmlns:xlink="http://www.w3.org/1999/xlink" viewBox="0 0 256.86 240.79"><defs><style>.cls-1,.cls-19,.cls-2,.cls-20,.cls-21{fill:none;}.cls-1,.cls-11{opacity:0.3;}.cls-3,.cls-6{fill:#fdfc80;}.cls-19,.cls-3,.cls-5{stroke:#93520a;}.cls-19,.cls-20,.cls-3,.cls-5,.cls-8{stroke-miterlimit:10;}.cls-19,.cls-20,.cls-21,.cls-3,.cls-5,.cls-8,.cls-9{stroke-width:5px;}.cls-4{fill:#fe8f28;}.cls-5{fill:#ffd062;}.cls-7,.cls-8{fill:#83481e;}.cls-20,.cls-8{stroke:#471f00;}.cls-9{fill:#f98435;}.cls-21,.cls-9{stroke:#c93f28;stroke-linecap:round;stroke-linejoin:round;}.cls-10{clip-path:url(#clip-path);}.cls-12{fill:#901a3d;}.cls-13{opacity:0.65;}.cls-14{fill:#e6fff2;}.cls-15{opacity:0.51;}.cls-16{opacity:0.95;}.cls-17{opacity:0.38;}.cls-18{clip-path:url(#clip-path-2);}</style><clipPath id="clip-path"><path class="cls-1" d="M232.78,84.34c-3.51-7-10.75-14.87-25.52-14.62-26.54.44-89.81,39-89.81,39l-.36.27c.52-6.6-4.06-6.39-4.06-6.39s-2-.38-6.6,4.65c-1.4-14-8-73.45-21.6-92.49C76.26,2.76,65.65,1.6,57.91,2.93a24.88,24.88,0,0,0-14.59,8.39C31.93,24.6.89,63.28,2.57,88.1c2.05,30.37,20.52,44.23,20.52,44.23s2.24,2.21,6,5.22a14.71,14.71,0,0,0-6.37,3.27C12.67,151,9.79,168,9.79,168s-.86,41.31,34.36,40.63c14.9-.29,24.9-12.91,31.48-27.38l.33.16c-5.8,12.37-8,25.51-.53,36.1,20.35,28.76,53.08,3.54,53.08,3.54s12-12.39,14.16-26.54a14.63,14.63,0,0,0-1.14-7.07c4.67,1.27,7.78,1.76,7.78,1.76s22.12,6.63,47.78-9.74c21-13.38,33.67-61.32,37.61-78.37A24.84,24.84,0,0,0,232.78,84.34Z"/></clipPath><clipPath id="clip-path-2"><path class="cls-2" d="M173.1,50.62c6.51-1.6,15.11-6.47,19.56-7,11.06-1.33,23,5.31,23,5.31s-7.08-23-27.47-22.56c-12,.26-18.43,9.24-21.62,16.62A5.61,5.61,0,0,0,173.1,50.62Z"/></clipPath></defs><g id="Calque_2" data-name="Calque 2"><g id="Warstwa_13" data-name="Warstwa 13"><path class="cls-3" d="M106.39,141.15c1.33,1.57,38.49,39.17,36.28,53.33S128.51,221,128.51,221s-32.73,25.22-53.08-3.54S106.39,141.15,106.39,141.15Z"/><path class="cls-4" d="M109.49,148.47c1.33,3.09,28.31,44.24,18.14,51.76s-20.92-14-20.92-14,5.07,36.6-8.91,27.08S83.46,187.2,83.39,186.41C82.06,170.43,98,141.15,98,141.15Z"/><path class="cls-5" d="M117.45,108.76s63.27-38.6,89.81-39c14.77-.25,22,7.61,25.52,14.62a24.84,24.84,0,0,1,1.92,16.72c-3.94,17-16.64,65-37.61,78.37-25.66,16.37-47.78,9.74-47.78,9.74s-42-6.64-50-34.07S117.45,108.76,117.45,108.76Z"/><path class="cls-6" d="M144.34,160.64c-1.09-1.59-27.06-23.71,0-47.45s49.24,0,49.24,0,22.11,30.91-8.12,50.64C167.56,175.51,144.34,160.64,144.34,160.64Z"/><path class="cls-7" d="M152.85,151.36c-.67-1-16.77-15,0-30s30.52,0,30.52,0,13.7,19.51-5,32C167.24,160.75,152.85,151.36,152.85,151.36Z"/><path class="cls-3" d="M87.2,138.37c-2-.14-54.36-7.73-64.45,2.45S9.79,168,9.79,168s-.86,41.31,34.36,40.63S87.2,138.37,87.2,138.37Z"/><path class="cls-4" d="M79.48,140.22c-3.28.77-52.41,3.47-52.43,16.12s23.71,8.51,23.71,8.51S18.29,182.5,34.24,188.09s29.52-3.93,30.19-4.34c13.65-8.42,27.77-38.61,27.77-38.61Z"/><path class="cls-5" d="M106.71,110.24S100.23,36.42,84.83,14.8C76.26,2.76,65.65,1.6,57.91,2.93a24.88,24.88,0,0,0-14.59,8.39C31.93,24.6.89,63.28,2.57,88.1c2.05,30.37,20.52,44.23,20.52,44.23s30.28,29.89,57.08,20S106.71,110.24,106.71,110.24Z"/><path class="cls-6" d="M49,119.4c1.92-.08,35.13,7.71,38.19-28.16S58,51.61,58,51.61,20,52.16,22,88.19C23.24,109.54,49,119.4,49,119.4Z"/><path class="cls-7" d="M51.41,107c1.21-.06,22,4.62,24.11-17.77S57.41,64.7,57.41,64.7s-23.83.56-22.74,23C35.32,101,51.41,107,51.41,107Z"/><path class="cls-8" d="M75.63,181.22s-7-5.73,11.57-42.85S113,102.64,113,102.64s10.81-.52-2.65,23.92S88.66,187.88,75.63,181.22Z"/><path class="cls-9" d="M173.1,50.62A5.61,5.61,0,0,1,166.58,43c3.19-7.38,9.63-16.36,21.62-16.62,20.39-.45,27.47,22.56,27.47,22.56s-11.95-6.64-23-5.31C188.21,44.15,179.61,49,173.1,50.62Z"/><path class="cls-9" d="M59.62,33.89c-.81-2.72-4,48.83,27.58,48.52,0,0,13.89-2.18,8.53-12.7C90.23,58.89,80.14,64,80.14,64S67.14,59,59.62,33.89Z"/><g class="cls-10"><g class="cls-11"><path class="cls-12" d="M119.1,105.71c-2.94.87-3.94,3.29-5.4,5.82-1.58,2.75-3.29,5.42-4.88,8.16-3.5,6-7,12.08-10.62,18-7.31,11.94-14.82,23.85-20.8,36.54-5.74,12.2-11.18,25.59-11.37,39.28-.16,11.82,4.15,25.46,17.45,27.22,3.71.49,5.91-4.43,4.17-7.26-5.17-8.39-6.25-16.8-4-26.37,2.81-12.2,7.83-23.28,13.6-34.32s11.91-21.84,17.13-33.15a98.26,98.26,0,0,0,6.7-18.24c1-4.38,3.34-11.37.11-15.17a2.08,2.08,0,0,0-2.05-.54Z"/></g><g class="cls-11"><path class="cls-12" d="M83.23,223.19c1.19-7.18,2.94-14.13,3.65-21.41.57-5.8,3-12,8.85-14.64,5.32-2.42,13.64,4,18.4,6.13,8.92,4,17.94,8.16,27.46,10.49,8.8,2.15,12.33-10.8,3.73-13.53-9-2.85-17.7-7-26.13-11.1-3.52-1.72-7.9-3.29-10.86-5.92-2.63-2.33-1.42-5.46-2.46-8.63a7,7,0,0,0-8.42-4.78c-7.15,1.5-9.27,9.28-7.57,15.59,1.77,6.58,7,11.26,12.8,14.38,12.33,6.62,25.49,10.42,38.91,14l3.73-13.53c-5.44-1.84-10.32-5.29-15.36-8-4.63-2.53-9.35-5-14.06-7.37-9.53-4.77-20.38-8.36-30-1.82-8.15,5.54-14.19,13.56-15.1,23.5a40.19,40.19,0,0,0,1.3,14.22c1.18,4.25,3.48,8.17,4.53,12.46.76,3.11,6,3.4,6.59,0Z"/></g><g class="cls-11"><path class="cls-12" d="M106.75,128.74c-10.71,20.79-.08,47.06,17.46,60.51,20.2,15.49,48.46,15.94,70.29,3.56l-16.14-16.13c-2.07,3.95-10.19,5-15.94,5.26a57.43,57.43,0,0,1-24-3.95,58.43,58.43,0,0,1-18.66-12.05,42.44,42.44,0,0,1-7.56-8.93c-2.42-4-3.82-8.48-6.2-12.53-4-6.76-13.22-4.66-15.68,2.05-4.54,12.41,4.38,26.41,12.32,35.38s19,15.25,30.18,19.27a76.41,76.41,0,0,0,33.45,4.1c12.38-1.31,26.13-4.84,32.48-16.7,5.55-10.36-5.65-22-16.14-16.13-13.83,7.7-31.91,7.68-45-1.72-12.57-9-17.87-23.95-19.37-38.89-.55-5.52-8.39-9-11.44-3.1Z"/></g><g class="cls-11"><path class="cls-12" d="M5.49,110.07c7.29,13.76,17.66,23.41,32.42,28.74,16,5.78,34,3.17,50-1.35L79,125.83a75.79,75.79,0,0,0-10.11,18.48l3.53-4.59c.2-.1,2.21-1.37,1.15-.53-.89.71-2.22.14-.12.13-1.23,0-2.44.15-3.67.11-.84,0-1.68-.08-2.51-.15-.43,0-.85-.08-1.28-.13-1.41-.16.48.08-.48-.07a117.3,117.3,0,0,1-17.59-4.42c-4.07-1.3-8.09-2.75-12.08-4.29-4.94-1.91-9.94-4.57-15.05-2a4.63,4.63,0,0,0-2.09,5.14c1.58,6.32,9.51,8.6,14.89,10.88,4.84,2.05,9.72,4,14.7,5.67a88.09,88.09,0,0,0,20.15,4.43,26.83,26.83,0,0,0,9.2-.53,11.42,11.42,0,0,0,2.53-1c3.16-1.85,4.09-6,5.74-9a60.81,60.81,0,0,1,5.52-8.52c4.48-5.72.63-15.72-7.7-13.23-13.39,4-27.45,6.27-41.2,2.71-11.65-3-23.85-9.78-31.81-18.87-2.58-2.94-6.93.81-5.23,4Z"/></g><g class="cls-11"><path class="cls-12" d="M23.78,143.5l-.89-.48-2.13-3.72c-.24-1.82.77-1.5-.19-.61a7.2,7.2,0,0,0-1.9,7.16c2.26,6.12,8,10.18,12.65,14.51a50.2,50.2,0,0,1,11.24,14.51c2.16,4.51,2.89,8.59,1.63,13.13-2,7.09-6.41,13.37-10.28,19.53-8.16,13,12.1,24.59,20.43,11.93,6.74-10.24,13.18-20.85,19.41-31.41s7.87-21.21,2.48-32.63c-3.64-7.69-15.94-3.76-15.73,4.26V160H77l0-.69H61.32l0,.34c.47,5.76,6.08,9.43,11.42,6.56l.3-.16c8.86-4.75,1-18.24-7.88-13.49l-.6.32c-9.33,5-.77,19.8,8.32,14.23l.29-.17-12.4-9.53c-.84,4.43-1.56,9.13-3.33,13.31.45-1.07-.16.2-.34.54-.47.88-1,1.72-1.53,2.56-1.15,1.8-2.46,3.5-3.68,5.26-6.43,9.19-11.73,19.11-18,28.42l20.43,11.93c6.14-9.5,12.16-19.68,13.59-31.1A40.4,40.4,0,0,0,60,159.54c-6-8.06-13.77-15-22.93-19.24a28.58,28.58,0,0,0-4.34-1.76c-.75-.2-5-1.22-1.79.15-.23-.09-3-2.3-3.24-1.89.09-.2,3.62,3.25,1.51.57-1.93-2.44-4.83-3.11-7.47-1.29-2.9,2-2.29,7.91,2,7.42Z"/></g><g class="cls-11"><path class="cls-12" d="M57.41,50.61C56.16,59,56.6,65.9,59.54,74,61.77,80.11,64.87,86.19,70,90.46A19.85,19.85,0,0,0,85.74,95.3c6.3-.9,9.72-4,12.21-9.6,1.43-3.18-1.56-6.79-4.94-4.94-3.7,2-8.77,2-12.81,1-3.87-.93-7-4-11.13-3.5-1.8.22-3.55,1.41-3.47,3.47.27,6.76,7.57,9.17,13.29,10,6.7.92,12.22-1.11,17.77-4.71l-5.31-4.08c-1,2.79-6,4.2-8.61,4.18-4.8,0-8.64-3.45-11.29-7.17a44,44,0,0,1-6-13.34c-1.52-5.2-3.1-10.68-4.1-16-.36-1.88-3.6-2-3.89,0Z"/></g><g class="cls-11"><path class="cls-12" d="M74.8,83.35C86,90.59,106,79,101.71,65.08,100.55,61.32,95,60.21,93,63.94c-1.91,3.55-2.43,7.31-5.42,10.26-3.16,3.11-7.09,3.3-11.26,3.47a3.07,3.07,0,0,0-1.54,5.68Z"/></g><g class="cls-13"><path class="cls-14" d="M8.28,75.62c1.66-2,3.83-3.37,5.66-5.22a64.58,64.58,0,0,0,5.12-6.3c3.16-4.1,6.4-8.16,9.67-12.17,6.58-8.06,14.13-15.67,22.94-21.29,8.42-5.37,16.87-8.34,25.5-1.95,9.08,6.72,14.44,18.89,24.58,24,5.48,2.74,13-.53,12.77-7.33-.51-14-14.5-27-25.1-34.83C76.31.82,60.62,1,46.62,8.76c-11.88,6.61-21.23,16.57-29,27.58A101.23,101.23,0,0,0,8,53,98.21,98.21,0,0,0,4.2,62.1c-1.1,3.3-1,6.73-1.95,10s3.68,6.38,6,3.51Z"/></g><g class="cls-15"><path class="cls-14" d="M129,106.89c5.56,1.39,11.71-.51,17.07-2.18,5.91-1.83,11.79-3.76,17.7-5.58,11.33-3.49,23.13-7,35.07-7.23a40.58,40.58,0,0,1,15.33,2.39,30.93,30.93,0,0,1,8.46,5.11,32.32,32.32,0,0,1,7.67,9.55c2.05,3.74,2.52,7.66,4.34,12.11,1.75,4.26,5.59,8.75,10.83,8.24h.13l-6.94-2.88.69.78c4.12,4.61,11,2.64,14.06-1.81l.67-.95-5.87,4.51.24,0c5.24-.81,7.68-6.28,8.24-10.82,1.46-11.88-7.24-25.48-15.31-33.49a52.4,52.4,0,0,0-35.27-15.32c-14.26-.58-29.19,3.65-42.38,8.71a183.11,183.11,0,0,0-20.89,9.56c-5.8,3.1-13.33,6.86-16.46,12.9a4.44,4.44,0,0,0,2.62,6.45Z"/></g><g class="cls-11"><path class="cls-14" d="M79.13,66.13a3.61,3.61,0,0,0-.22,1.35,3.32,3.32,0,0,0,.38,1.7,3.37,3.37,0,0,0,.91,1.42,3.31,3.31,0,0,0,1.42.91,3.4,3.4,0,0,0,1.7.38,4.46,4.46,0,0,0,2.22-.61,4.38,4.38,0,0,0,1.58-6,4.64,4.64,0,0,0-2.63-2,4.46,4.46,0,0,0-3.4.45,4.37,4.37,0,0,0-2,2.45Z"/></g><g class="cls-16"><path class="cls-14" d="M153,121.36c0,.38.09.75.15,1.13a6.2,6.2,0,0,0,1,3.1l1.31,1.69,0,0-1.31-1.69a.41.41,0,0,1,.05.09l-.84-2s0,0,0,.07l-.3-2.23a.25.25,0,0,1,0,.08,8.3,8.3,0,0,0,1.14,4.24l1.31,1.7a8.28,8.28,0,0,0,3.71,2.15,6.33,6.33,0,0,0,3.34.15,6.24,6.24,0,0,0,3.12-1,6.46,6.46,0,0,0,2.36-2.16,6.32,6.32,0,0,0,1.5-2.86,8.44,8.44,0,0,0,0-4.46l0-.07c-.07-.24-.74-1.83-.86-2s-1.19-1.58-1.33-1.72l0-.06-1.72-1.33a7.83,7.83,0,0,0-1.05-.44,4.09,4.09,0,0,0-2.1-.57,4.18,4.18,0,0,0-2.22,0,4.13,4.13,0,0,0-2.11.57,6.38,6.38,0,0,0-1,.43,8.32,8.32,0,0,0-4.12,7.18Z"/></g><g class="cls-16"><path class="cls-14" d="M53.38,71.53a5.16,5.16,0,0,0,.38-.86,6.93,6.93,0,0,0,.35-.85.29.29,0,0,0,0-.09l.25-1.8-.25-1.81a5,5,0,0,0-1.24-2.36,7.58,7.58,0,0,0-.62-.78,12.91,12.91,0,0,0-1.43-1.1l-.12-.07c-.18-.1-1.5-.66-1.69-.71a15.06,15.06,0,0,0-1.89-.26l-1.82.24-1.64.69a6.17,6.17,0,0,0-.76.58,3.56,3.56,0,0,0-1.25,1.25,7,7,0,0,0-.58.76A16.92,16.92,0,0,0,40.4,66c.22-.69-.27,1.32-.24,1.89l.24,1.77.67,1.59,1,1.35A4.9,4.9,0,0,0,44.25,74a3.32,3.32,0,0,0,1.68.46,3.32,3.32,0,0,0,1.77,0A3.32,3.32,0,0,0,49.38,74a4.84,4.84,0,0,0,2.14-1.37l0,0-1.35,1,.08,0-1.6.68h0L47,74.48h0l-1.8-.24.08,0-1.63-.69a20.15,20.15,0,0,0,1.89.76l-1.63-.69a1.88,1.88,0,0,1,.24.14,5.18,5.18,0,0,0,.84.36,3.42,3.42,0,0,0,1.71.46c.51.07.64.09,1,.12l-1.78-.24.12,0-1.56-.66,0,0a4.83,4.83,0,0,0,2.42.77,4.9,4.9,0,0,0,2.6-.11l1.55-.66a6.5,6.5,0,0,0,2.33-2.33Z"/></g><g class="cls-17"><path class="cls-14" d="M20.74,146.23c-8.3,5.07-11.36,20.22-11.17,29.19a35.83,35.83,0,0,0,3.15,14.29c1.82,4,6.32,8.5,11,8.33a3.58,3.58,0,0,0,3.52-3.52c-.05-3.56-2.22-7.08-3.52-10.35a27.08,27.08,0,0,1-1.91-11A59.52,59.52,0,0,1,24,160.29c1-3.95,2.46-8.06,1.5-12.13a3.27,3.27,0,0,0-4.75-1.93Z"/></g><g class="cls-17"><path class="cls-14" d="M104.26,230.08a28.57,28.57,0,0,0,11.06-2.16c3.33-1.39,7.57-3.83,7.55-7.86a3.86,3.86,0,0,0-2.79-3.66c-3.16-.75-5.46,1.28-8.23,2.48a19.68,19.68,0,0,1-7.59,1.64c-6.15.1-6.17,9.56,0,9.56Z"/></g></g><g class="cls-11"><g class="cls-18"><path class="cls-12" d="M180.87,52.56c5.15-5,13.67-7.62,20.7-6,4.51,1.07,12.82,8.56,16.51,2.32a5.05,5.05,0,0,0,0-5.16c-5-7.24-15.21-9.69-23.56-8.67-8.56,1-14.79,6-19.4,13-2.31,3.55,2.81,7.25,5.75,4.43Z"/><path class="cls-14" d="M173.18,35.86l-.13,0,1-.13H174a3.69,3.69,0,0,0-3.16,1.81,3.82,3.82,0,0,0-.36,2.81,3.65,3.65,0,0,0,5.36,2.19,2.53,2.53,0,0,0,.45-.34,3.26,3.26,0,0,0,.44-.34l.56-.73a2.62,2.62,0,0,0,.43-1.34,1.74,1.74,0,0,0,0-1,2.66,2.66,0,0,0-.43-1.35A4.18,4.18,0,0,0,176,36.23a2.63,2.63,0,0,0-1.35-.43,2.71,2.71,0,0,0-1.44.06Z"/></g></g><path class="cls-19" d="M141.8,188.18a13.63,13.63,0,0,1,.87,6.3C140.46,208.63,128.51,221,128.51,221s-32.73,25.22-53.08-3.54c-9.19-13-4.78-22.84.47-36.85"/><path class="cls-19" d="M117.45,108.76s63.27-38.6,89.81-39c14.77-.25,22,7.61,25.52,14.62a24.84,24.84,0,0,1,1.92,16.72c-3.94,17-16.64,65-37.61,78.37-25.66,16.37-47.78,9.74-47.78,9.74s-42-6.64-50-34.07"/><path class="cls-19" d="M29.5,137.44a15.24,15.24,0,0,0-6.75,3.38C12.67,151,9.79,168,9.79,168s-.86,41.31,34.36,40.63c15.1-.3,25.17-13.26,31.75-28"/><path class="cls-19" d="M106.71,110.24S100.23,36.42,84.83,14.8C76.26,2.76,65.65,1.6,57.91,2.93a24.88,24.88,0,0,0-14.59,8.39C31.93,24.6.89,63.28,2.57,88.1c2.05,30.37,20.52,44.23,20.52,44.23s30.28,29.89,57.08,20"/><path class="cls-20" d="M75.63,181.22s-7-5.73,11.57-42.85S113,102.64,113,102.64s10.81-.52-2.65,23.92-21.72,61.32-34.75,54.66"/><path class="cls-21" d="M173.1,50.62A5.61,5.61,0,0,1,166.58,43c3.19-7.38,9.63-16.36,21.62-16.62,20.39-.45,27.47,22.56,27.47,22.56s-11.95-6.64-23-5.31C188.21,44.15,179.61,49,173.1,50.62Z"/><path class="cls-21" d="M59.62,33.89c-.81-2.72-4,48.83,27.58,48.52,0,0,13.89-2.18,8.53-12.7C90.23,58.89,80.14,64,80.14,64S67.14,59,59.62,33.89Z"/></g></g></svg>