<?xml version="1.0" encoding="UTF-8"?>
<svg id="Calque_2" data-name="Calque 2" xmlns="http://www.w3.org/2000/svg" xmlns:xlink="http://www.w3.org/1999/xlink" viewBox="0 0 65.29 55.28">
  <defs>
    <style>
      .cls-1, .cls-2 {
        fill: none;
      }

      .cls-1, .cls-3 {
        stroke: #053d58;
        stroke-linecap: round;
        stroke-linejoin: round;
        stroke-width: 2.51px;
      }

      .cls-2, .cls-4, .cls-5 {
        stroke-width: 0px;
      }

      .cls-6 {
        opacity: .4;
      }

      .cls-4 {
        fill: #fff;
      }

      .cls-3 {
        fill: #e6f4fd;
      }

      .cls-7 {
        clip-path: url(#clippath);
      }

      .cls-5 {
        fill: #82263e;
      }
    </style>
    <clipPath id="clippath">
      <path class="cls-2" d="m63.39,22.3c0-3.88-3.15-7.03-7.03-7.03s-7.03,3.15-7.03,7.03c0,2.05.88,3.89,2.28,5.17-2.62,1.02-4.48,3.57-4.48,6.55,0,.3.02.59.06.88-.02,0-.04,0-.06,0-3.37,0-6.19,2.38-6.87,5.55-.79-.31-1.66-.49-2.56-.49-2.26,0-4.27,1.07-5.56,2.73-1.29-1.66-3.29-2.73-5.56-2.73-1.67,0-3.21.59-4.41,1.56-1-2.67-3.56-4.58-6.59-4.58-.26,0-.52.02-.77.04-.26-1.81-1.21-3.4-2.57-4.49,1.62-1.29,2.65-3.27,2.65-5.5,0-.96-.19-1.88-.54-2.72,2.69-.99,4.62-3.56,4.62-6.6,0-.8-.14-1.57-.39-2.28.32.04.64.08.97.08,3.88,0,7.03-3.15,7.03-7.03s-3.15-7.03-7.03-7.03-7.03,3.15-7.03,7.03c0,.8.14,1.57.39,2.28-.32-.04-.64-.08-.97-.08-3.88,0-7.03,3.15-7.03,7.03,0,.96.19,1.88.54,2.72-2.69.99-4.62,3.56-4.62,6.6,0,2.23,1.04,4.21,2.65,5.5-1.62,1.29-2.65,3.27-2.65,5.5,0,3.88,3.15,7.03,7.03,7.03.26,0,.52-.02.77-.04.49,3.41,3.41,6.03,6.95,6.03,1.67,0,3.21-.59,4.41-1.56,1,2.67,3.56,4.58,6.59,4.58,2.26,0,4.27-1.07,5.56-2.73,1.29,1.66,3.29,2.73,5.56,2.73,3.37,0,6.19-2.38,6.87-5.55.79.31,1.66.49,2.56.49,3.88,0,7.03-3.15,7.03-7.03,0-.3-.02-.59-.06-.88.02,0,.04,0,.06,0,3.88,0,7.03-3.15,7.03-7.03,0-2.05-.88-3.89-2.28-5.17,2.62-1.02,4.48-3.57,4.48-6.55Z"/>
    </clipPath>
  </defs>
  <g id="Layer_1" data-name="Layer 1">
    <g>
      <g>
        <circle class="cls-3" cx="20.19" cy="8.29" r="7.03"/>
        <circle class="cls-3" cx="12.57" cy="17.53" r="7.03"/>
        <circle class="cls-3" cx="8.5" cy="26.84" r="7.03"/>
        <circle class="cls-3" cx="57" cy="22.15" r="7.03"/>
        <circle class="cls-3" cx="54.8" cy="33.88" r="7.03"/>
        <circle class="cls-3" cx="8.5" cy="37.84" r="7.03"/>
        <circle class="cls-3" cx="16.22" cy="43.82" r="7.03"/>
        <circle class="cls-3" cx="47.76" cy="41.78" r="7.03"/>
        <circle class="cls-3" cx="38.33" cy="46.84" r="7.03"/>
        <circle class="cls-3" cx="27.22" cy="46.84" r="7.03"/>
      </g>
      <g class="cls-6">
        <g class="cls-7">
          <path class="cls-5" d="m-.75,36.67c3.71,8.08,8.6,15,17.18,18.3s18.66,3.16,27.35-.64c8.87-3.89,16.17-11.36,20.28-20.1,3.31-7.05,7.46-19.78-.06-25.41-4.26-3.18-8.94,3.54-5.51,7.14,1.6,1.69-.32,7.46-.86,9.39-.99,3.53-2.45,6.86-4.43,9.95-3.73,5.82-9.29,10.61-15.87,12.88-12.07,4.17-30.63-.67-37.61-11.78-.19-.3-.62-.04-.47.28h0Z"/>
          <path class="cls-5" d="m28.33,7.78c-7.14-4.63-13.6,3.95-15.53,9.84-1.15,3.49-2.41,7.86-1.36,11.5,1.26,4.34,5.17,6.05,9.34,5.46,5.67-.82,4.05-9.58-1.31-9.71l1.54,1.26.04-.98c.32-.66.28-1.78.42-2.51.36-1.87.77-3.77,1.61-5.48,1.4-2.83,3.18-4.95,5.56-6.98.79-.67.46-1.91-.31-2.4h0Z"/>
          <path class="cls-5" d="m25.41,9.02c.23-.33.57-.61.94-.73-.45.15.61-.04.27-.03-.23,0-.47.04-.7.04l2.43,1c-.14-.14-.58-.61-.14-.05.48.61-.03-.25.29.47.26.59.12.26.09.07l.13.98c-.01-.13,0-.25,0-.38l-.13,1c.01-.08.03-.16.06-.24l-.98,1.68c.35-.34.66-.72.93-1.13l-.64.82c.08-.1.15-.17.25-.25l-.84.65c.06-.05.13-.09.2-.12l-1,.42c.42-.17.83-.35,1.24-.52.87-.37,1.75-1.65,1.95-2.54.22-.95.17-1.86-.21-2.77-.8-1.89-2.97-3.08-5.01-2.46-1.36.41-2.78.93-3.42,2.34-.45.98-.76,2.06-.41,3.15s.95,1.86,1.88,2.44c1.36.86,2.77.69,4.21.26l-3.27-7.76c-1.08.74-1.98,1.73-2.31,3.03s-.23,2.56.47,3.67l-.38-.91c.5,2.4,2.88,4.54,5.44,3.89,1.35-.35,2.5-1.65,2.86-3.01.25-.94.27-2.2-.36-3.02-.49-.64-1.06-1.09-1.91-1.09s-1.45.44-1.91,1.09h0Z"/>
        </g>
      </g>
      <g>
        <path class="cls-4" d="m57.95,23.25s.02-.01.03-.01l-.57.24h.02c-.22.03-.43.06-.65.08h.01c-.22-.03-.44-.06-.66-.09h.01c-.59-1.04-1.18-2.08-1.78-3.12,0,.02-.01.04-.02.05l.27-.63s-.02.03-.03.05l.43-.55s-.03.03-.04.04l.57-.44c-.24.15-.47.32-.67.52l2.09-.86c-.65-.01-1.21.18-1.77.49l.76-.32-.05.02,3.91,2.22v-.04c0,.57,0,1.13,0,1.7v-.03c-.27.47-.54.94-.81,1.41l.02-.02-.65.5.03-.02-.77.32h.04c-.29.03-.57.07-.86.11h.04c-.29-.04-.57-.08-.86-.12h.04c-.26-.1-.52-.21-.77-.32l.04.02-.66-.51.03.03-.51-.66.02.04-.44-1.64v.07c.04-.29.08-.58.12-.87l-.02.07.33-.79-.04.06.52-.67c-.05.06-.1.1-.16.15l4.1-.53-.05-.03.69.53s-.06-.05-.08-.08l.54.7c-.04-.07-.08-.14-.12-.21l.35.83c-.02-.06-.04-.11-.05-.18l.12.93s0-.08,0-.12l-.12.93.02-.06-.35.83s.03-.08.06-.11l-.55.71s.05-.06.09-.09l-.71.55s.07-.05.11-.07l-.84.35c.06-.03.11-.04.18-.05l-.93.13s.08,0,.12,0l-.93-.13s.08.02.12.04l-2.58-3.39v.07c.04-.31.08-.62.12-.93,0,.07-.02.13-.05.2l.35-.84c-.03.06-.06.12-.1.17l.55-.71s-.06.07-.09.1l.71-.55c-.06.04-.11.07-.17.1l5.19,2.11s-.03-.09-.03-.14l.13.94c-.01-.12,0-.24,0-.36l-.13.94c.01-.07.03-.14.06-.21l-.36.84c.04-.09.08-.17.14-.25l-4.82,1.26s.06.03.08.05l-.71-.55.03.03-.55-.71s.04.05.05.08l-.35-.84s.03.09.04.14l-.13-.93s0,.1,0,.14c-.02.48.08.93.3,1.35.14.43.38.81.72,1.12l.71.55c.4.26.83.39,1.3.41.31.08.62.08.93,0,.46-.02.9-.16,1.3-.41l.71-.55c.43-.44.73-.95.9-1.54.24-.59.17-1.55,0-2.14-.28-.96-.91-1.76-1.77-2.27l-.84-.35c-.47-.15-.94-.17-1.4-.06-.32,0-.61.08-.89.24-.44.14-.81.38-1.13.73-.25.27-.52.59-.7.92-.09.16-.16.37-.22.52-.08.18-.17.37-.22.56-.08.3-.12.71-.14,1.01,0,.05,0,.09,0,.14,0,.4.05.83.19,1.22.17.6.47,1.12.91,1.56.32.34.7.59,1.14.73.42.22.88.32,1.36.3.64,0,1.23-.16,1.78-.48,1.31-.7,2.17-2.23,2.13-3.7l-.13-.93c-.11-.46-.32-.86-.63-1.19-.16-.26-.37-.47-.63-.63-.34-.31-.74-.52-1.19-.63-.19-.06-.41-.07-.59-.09-.25-.03-.38-.07-.59-.06-.31.01-.73.06-1.02.15-.26.08-.69.25-.92.39s-.55.39-.76.58c-.16.14-.19.21-.36.44-.12.16-.24.29-.34.46l-.35.83s-.02.06-.03.09c-.07.26-.14.75-.14,1.02s.06.72.13.99c.05.2.11.3.21.54.08.19.14.36.23.53l.54.7c.11.13.24.24.39.32.24.19.27.23.46.33.25.12.61.29.88.36s.74.13,1.03.13l.9-.12c.44-.1.82-.31,1.15-.61.25-.15.46-.35.61-.61.3-.33.5-.71.61-1.15.73-2.18-.89-4.61-3.23-4.61-.91,0-1.8.37-2.44,1.02-.6.61-.95,1.44-.95,2.29,0,.52.15,1.24.46,1.67.28.48.66.86,1.14,1.14.37.23.76.36,1.18.38.42.09.85.08,1.27-.06.54-.15,1.01-.42,1.4-.82.24-.22.43-.49.59-.76l.32-.75c.13-.42.15-.84.06-1.26,0-.28-.07-.55-.22-.8-.13-.39-.34-.73-.65-1.01l-.05-.06.46.6c-.34-.66-1.08-1.24-1.81-1.41-.47-.11-1.09-.18-1.55,0-.43.12-.8.34-1.12.65-.32.32-.53.69-.65,1.12-.25.92.04,1.78.65,2.47.24.27.76.57,1.11.65.6.14,1.3.11,1.83-.23h0Z"/>
        <path class="cls-4" d="m55.85,34.59c.05-.1.02-.06-.1.12-.12.19-.28.33-.48.44.06-.02.12-.06.17-.09l-.6.25c.09-.04.18-.05.27-.07l-.74.1c.08,0,.15,0,.24.01l-.79-.11.08.02-2.12-3.73-.03.09.31-.74c-.19.38-.29.75-.44,1.13l.33-.78c-.05.1-.1.18-.17.27l.52-.68c-.05.05-.09.1-.15.15l.69-.53c-.17.13-.35.25-.54.34l.83-.35-.1.03,4.41,3.36c-.03-.21-.03-.41,0-.62l-.12.93c.04-.21.09-.4.18-.6l-.35.84c.07-.15.16-.29.26-.43l-.55.71c.11-.13.22-.25.35-.36l-.71.55.1-.08-4.28-.55.09.1-.55-.72c.08.11.14.21.2.33l-.36-.85c.07.17.11.33.14.5l-.13-.95c0,.13,0,.26,0,.39l.13-.95c0,.08-.03.16-.06.23l.36-.85-.05.1.55-.72c-.21.23-.51.56-.64.84-.35.72-.52,1.4-.41,2.21.1.72.39,1.48.95,1.99l.03.03c.59.53,1.23.86,2.03.97s1.5-.05,2.25-.42c1.36-.67,2.11-2.34,1.98-3.81-.12-1.33-.58-2.45-1.5-3.43-.58-.62-1.65-1.07-2.5-1.04-.99.04-1.74.41-2.5,1.04s-1.27,1.58-1.59,2.51c-.35,1.01-.27,2-.1,3.03.13.78.92,1.72,1.6,2.08.8.42,1.81.66,2.69.35,1.49-.53,2.63-1.5,3.01-3.1.16-.7.18-1.47,0-2.17-.26-.96-.83-1.65-1.64-2.19-.61-.4-1.65-.53-2.34-.31-.75.24-1.42.7-1.81,1.39-.59,1.05-.65,2.29-.06,3.35.43.79,1.35,1.35,2.25,1.33.62-.01,1.29-.33,1.58-.91h0Z"/>
        <path class="cls-4" d="m49.16,42.13c-.08.21.1-.16.12-.2.08-.12.08-.12-.01,0,.17-.18.07-.13-.31.13h-.79c.06.02.12.05.18.07l-1.14-2.8.62-.65c-.27.14-.48.34-.64.59-.2.26-.33.53-.43.84l.23-.55c-.04.07-.07.12-.12.18l.37-.48c-.05.06-.1.1-.16.15l.5-.39c-.06.04-.12.07-.19.11l.62-.26c-.07.03-.13.04-.21.05l.71-.1s-.09,0-.14,0l.73.1s-.09-.02-.13-.04l.67.28-.06-.03,1.3,3.21c.06-.42.12-.84.17-1.26l-.11.79c.02-.09.04-.16.07-.25l-.3.71c.05-.11.1-.2.17-.3l-.47.61c.06-.07.11-.12.18-.18l-.61.47c.07-.05.14-.09.22-.13l-.72.3c.08-.03.16-.06.25-.08l-3.41-1.39s.06.09.08.14l-.31-.72c.04.1.07.2.09.31l-.11-.81c0,.08,0,.16,0,.24l.11-.81c-.01.11-.04.21-.08.32l.31-.73c-.04.1-.09.19-.16.28l.48-.62c-.05.06-.1.12-.17.17l.62-.48c-.07.05-.13.09-.2.13l.74-.31-.08.03,3.5,1.43-.03-.07.31.74-.02-.07.11.83s0-.09,0-.14l-.11.83s.02-.09.04-.13l-.31.74s.05-.09.08-.12l-.49.63c.06-.06.11-.11.18-.16l-.63.49c.1-.07.2-.12.31-.18l-.75.32c.17-.07.35-.12.53-.15l-.84.11h.09c-1.02-1.35-2.04-2.69-3.06-4.03-.02.14-.05.27-.1.41l.32-.76c-.07.17-.15.32-.26.46l.5-.64c-.07.08-.14.15-.22.23h4.49s-.08-.07-.11-.12l.5.64s-.06-.09-.08-.14l.32.76s-.04-.1-.04-.15l.11.84c0-.08,0-.15,0-.23l-.11.84.02-.07-.32.75s.04-.09.07-.13l-.49.64s.07-.08.1-.11l-.63.49.06-.04-.75.31s.09-.03.13-.03l-.83.11h.07c-.27-.03-.55-.07-.82-.11.05,0,.09.02.14.04l-.73-.31s.08.05.12.08l-.62-.48.05.05-.48-.62s.05.07.07.11l-.3-.72.02.06-.11-.8c.05.64.11,1.06.44,1.62.38.64,1.01,1.18,1.74,1.35,1.32.31,2.72-.18,3.42-1.39.94-1.61.23-3.73-1.35-4.63-1.7-.98-3.81-.33-4.77,1.33-.86,1.47-.49,3.37.67,4.56.54.55,1.46.96,2.24.93l.84-.11c.54-.15,1-.42,1.4-.82,1.01-.8,1.44-2.1,1.51-3.34.06-.99-.5-1.91-1.25-2.49-.84-.65-1.74-.77-2.77-.57-.88.17-1.75.68-2.38,1.3-1.2,1.17-1.38,2.97-.59,4.41.35.64,1.13,1.26,1.85,1.43.84.19,1.61.08,2.39-.31.99-.5,1.71-1.53,1.99-2.58s.17-2.39-.5-3.26l-.47-.61c-.27-.29-.6-.5-.97-.63-.61-.26-1.32-.35-1.97-.15-1.06.31-2.04,1.04-2.53,2.05-.69,1.43-.72,3.18.53,4.35.94.87,2.31,1.08,3.44.44,1.35-.75,2.13-2.51,1.59-3.99-.33-.92-1.15-1.72-2.2-1.67-.21,0-.42.04-.63.08-.94.17-1.69,1.46-1.33,2.35.08.19.15.4.26.58l-.2-.75c.02.29.07-.31,0,.02-.04.17-.06.38-.08.55-.02.21-.02.42,0,.63.07.55.37,1,.96,1.08s1.01-.27,1.21-.79h0Z"/>
        <path class="cls-4" d="m38.65,47.69c-.15.17-.96.25-.73.28.32.02.1-.12-.65-.42-.6-.55-.83-.66-.66-.34v-2.37c-.45.64,1.15-.9.75-.72-.07.03-.13.07-.2.1l.75-.32-.1.02.84-.11h-.09c.28.04.57.07.85.11l-.09-.02.78.33c-.06-.02-.12-.05-.17-.1l.67.52c-.28-.22-.55-.45-.84-.64l.68.53-.07-.07.53.68c-.05-.05-.08-.11-.1-.17l.34.81-.02-.1.12.9v-.1c-.15.57-.3,1.14-.45,1.71l.08-.12-.53.69c.12-.15.26-.28.41-.41l-.69.53c.16-.11.32-.21.5-.29l-.82.35c.18-.07.36-.12.56-.15l-.92.12h.17c-.31-.05-.62-.09-.92-.13l.16.04-.83-.35.09.06-.7-.54.07.08-.9-1.54c.04.07.06.14.06.21l-.12-.93v.11c.03-.31.08-.62.12-.93l-.03.11.35-.84-.05.1.55-.71c-.06.08-.14.15-.22.21l.72-.56c-.09.06-.18.11-.28.15l.86-.36-.14.06,4.44,4.44c.03-.09.07-.18.1-.26l-.36.86c.04-.08.09-.16.15-.23l-.56.72c.06-.07.13-.14.2-.19l-.72.56c.08-.06.16-.1.24-.14l-.84.36.13-.04-3.98-1.62.05.08-.48-1.77v.1c.05-.31.09-.62.13-.93-.09.3-.17.79-.15,1.1.08.89.32,1.79,1,2.42.64.59,1.53,1.08,2.42,1,1.3-.11,2.48-.64,3.13-1.83.3-.56.51-1.23.49-1.87-.03-.7-.23-1.22-.52-1.86l-.55-.71c-.32-.34-.7-.59-1.13-.73-.78-.33-1.45-.31-2.29-.18-.69.11-1.3.5-1.85.92-.79.61-1.28,1.38-1.59,2.33-.45,1.37.21,2.95,1.29,3.79s2.83,1.1,4.01.28c.73-.51,1.34-.98,1.79-1.76.54-.93.7-2.07.43-3.11-.56-2.17-2.73-3.28-4.85-2.77-1.06.25-2.12.89-2.82,1.73s-1.13,1.64-1.15,2.74c-.02.99.47,2,1.17,2.68,1.44,1.4,3.84,1.42,5.25-.03s1.29-3.75-.31-4.99c-.41-.32-.83-.51-1.36-.58-.36-.08-.73-.07-1.09.05.61-.07.54-.05-.2.04-.62.16-1.2.57-1.53,1.13-.54.89-.5,2.05.26,2.8.52.52,1.48.57,1.99,0h0Z"/>
        <path class="cls-4" d="m26.72,45.06c-.31.05.09-.06.2.1.15.12.07.06-.25-.19-.18-.17-.38-.3-.61-.38-1.51-.69-3.32-.43-4.22,1.11-.85,1.46-.32,3.36,1.11,4.22,3.36,2.02,11.38,1.49,9.98-4.18-.48-1.94-2.93-2.95-4.63-1.88-.34.21-.73.78-1.11.84.22-.24.48-.37.78-.39-.19,0-.39.01-.58.02-.6.01-1.73,0-2.05-.04l-.82,6.06c1.6.06,3.04-.99,4.03-2.17,1.22-1.46.06-3.42-1.81-3.1h0Z"/>
        <path class="cls-4" d="m15.98,44.03c-.09-.23-.24-.44-.43-.61.16.21.19.24.11.1-.07-.2-.23-.39-.33-.58l-3.49,3.49c1.16.57,2.35,1.29,3.57,1.68,1.33.43,2.79-.39,3.31-1.62s.12-2.92-1.15-3.5c-1.19-.55-2.51-.85-3.77-1.22-.98-.29-2.07.12-2.68.91-.57.74-.8,2.02-.2,2.84.93,1.26,2.14,2.03,3.76,1.71,1.49-.3,1.83-2.02,1.3-3.19h0Z"/>
        <path class="cls-4" d="m10.15,26.09v-.14c-.15.26-.3.52-.45.78-.27.11-.27.11-.02,0,.27-.12.25-.1-.09.04.3-.1-.61.05-.26.04l-2.33-3.06c-.13.48-.12.97-.12,1.46,0,.33.15-.64,0-.08-.05.18-.08.36-.14.54l4.7-1.24c.21.25.33.49.45.79l-.03-.13c.09.25.1.5.04.75-.1.66.15-.26-.1.35-.04.16-.12.3-.24.42-.19.22-.21.25-.05.1l-5.1-2.11c.07.75.08,1.51,0,2.26l.11-.83-.03.2,5.74-.75c-.28-.46.19.71.11.17l.11.84c0-.11,0-.21.02-.31l-.11.85.04-.15-5.83.76c-.18-.51-.24-.61-.16-.28l-.11-.86c.02.11.02.22,0,.34l.12-.86c-.01.11-.03.22-.07.33l3.14-2.39c-.14,0-.27.01-.41.02-1.51.07-2.92,1.26-2.87,2.87,0,.13,0,.25.01.38.06,1.63,1.2,2.98,2.83,3.2,1.46.2,3.31-.73,3.58-2.34.22-1.3.14-2.47-.57-3.62s-1.9-1.69-3.18-1.52c-1.16.16-2.41,1.05-2.65,2.28s-.19,2.46.55,3.47c.8,1.1,2.14,1.9,3.55,1.44s2.22-1.59,2.31-3.03c.07-1.09-.05-2.21-.38-3.26-.36-1.15-1.29-1.98-2.49-2.14-1.28-.17-2.23.44-2.98,1.43-1.14,1.51-.82,4.13.65,5.33.8.65,1.69,1.01,2.73.72.85-.23,1.83-1.03,1.96-1.96s.21-1.67-.04-2.57c-.28-.98-.72-1.69-1.57-2.29s-2.25-.36-2.93.38c-.73.8-.93,1.97-.38,2.93.4.7,1.17,1.3,2.01,1.24l-.45-.12.12.08c.52.33,1.25-.1,1.24-.71h0Z"/>
        <path class="cls-4" d="m5.63,21.65l-.04.03.58-.45-.04.02,1.47-.4h-.03c.26.04.53.08.79.11-.14-.06-.7-.12-.85-.12l.8.11h-.04c.24.09.48.19.72.3l-.03-.02.62.48s-.04-.03-.05-.06l.48.62-.02-.03.31.74v-.03c.03.27.06.55.1.82v-.03c-.04.28-.08.55-.11.83v-.03c-.26.46-.52.92-.79,1.37l.02-.02-.63.49.03-.02-4.28-1.12c.07.15.14.3.21.45.26.56.75,1.09,1.29,1.37.48.28,1,.42,1.56.42.43.02.82-.07,1.19-.27.38-.12.71-.34,1-.64.38-.39.65-.84.8-1.36.11-.6.18-1.13.01-1.74-.09-.33-.25-.62-.4-.91-.08-.16-.17-.32-.25-.48-.28-.47-.65-.84-1.12-1.12-.36-.23-.75-.35-1.16-.37-.42-.09-.83-.07-1.25.06-.53.15-.99.42-1.38.8-.12.09-.21.2-.27.34-.28.3-.46.66-.56,1.06-.13.55-.15,1.14,0,1.69.2.75.77,1.53,1.47,1.91.21.11.56.27.78.33.21.06.67.12.89.12.25,0,.64-.06.88-.13.51-.15.98-.43,1.36-.8.74-.72,1.09-1.92.77-2.92-.26-.81-.71-1.38-1.41-1.84l-.67-.28c-.37-.12-.74-.13-1.11-.05-.25,0-.49.06-.7.19-.35.11-.65.3-.9.58h0Z"/>
        <path class="cls-4" d="m14.54,17.41c-.06.16-.07.22,0,.03.05-.08.04-.06-.05.05-.1.12-.1.13,0,.02.23-.16-.12.09-.17.1.09-.04.19-.12.28-.17l-3.1-3.1c-.18.27-.36.55-.55.81l.41-.53c-.13.16-.27.31-.41.45l4.72,1.95c0-.2.02-.39.05-.59l-.1.76c.03-.2.08-.38.16-.57l-.29.69c.07-.14.15-.28.24-.41l-.46.59c.1-.12.2-.23.33-.34l-5.02-2.08v.12c.02-.26.06-.52.09-.78-.04.25-.1.48-.2.71l.3-.72c-.1.23-.21.44-.36.64l.47-.61c-.08.1-.15.19-.24.28l5.19,2.15c0-.07,0-.15.01-.22l-.11.81c.02-.15.06-.29.11-.43l-.31.73c.07-.17.16-.33.28-.48l-.48.62c.12-.14.26-.25.4-.38l-3.74.48.08.06-.62-.48.07.07-.48-.62c.04.05.08.11.1.18l-.3-.72c.09.3.23.61.37.89.44.92,1.58,1.47,2.56,1.47s2.06-.56,2.56-1.47c.59-1.08.64-2.57-.1-3.61-.45-.64-1.04-1.24-1.85-1.42s-1.65-.12-2.38.31c-1.41.83-2.33,2.56-2.24,4.19.07,1.23.71,2.29,1.87,2.78.52.22,1.02.28,1.58.21.61-.08,1.34-.34,1.75-.84.58-.71.94-1.26,1.25-2.12.2-.57.28-1.21.27-1.81-.02-1.18-.72-2.23-1.81-2.69s-2.43-.26-3.22.61c-.58.64-1.04,1.36-1.25,2.2s-.25,1.76.07,2.55c.23.58.48,1.04.99,1.44.47.36,1.07.62,1.67.59,1.28-.06,2.25-.83,2.67-2.03.32-.9.35-1.98.07-2.89s-1.17-1.71-2.18-1.66c-.4.02-.79.12-1.14.31-.43.23-.97.85-1.04,1.35-.14,1.01-.11,2.02.5,2.89.36.5.86.8,1.5.72s1.03-.5,1.25-1.08h0Z"/>
        <path class="cls-4" d="m18.62,6.88l-.14.02h.8l.36.19.42.73.02.56-.49.84c.16-.21-.01.02-.1.07.1-.05.18-.14.27-.2.1-.07.22-.12.32-.18-.27.16-.2.07.06,0,.13-.03.26-.05.39-.09.33-.1-.46,0-.12.01.12,0,.27,0,.4,0,.32-.03-.63-.16-.06.02l-1.72-4.23c-.28.44.35-.35.09-.1-.08.08-.16.18-.24.26-.1.11-.21.22-.31.33-.36.39.45-.26.13-.11-.11.05-.22.12-.32.18-.32.19.71-.21.18-.09-.11.02-.25.04-.35.08.67-.23.58-.06.16-.07l3.23,4.24c-.33.91-.14.39-.02.15.19-.29.12-.21-.2.25.19-.18.17-.18-.07.02-.25.18-.27.2-.05.05.24-.12.21-.12-.07.01-.5.21-.31.13.57-.24.27-.2.54-.41.81-.63.89-.72,1.14-2.17.85-3.22s-1.21-2.16-2.31-2.31c-.68-.09-1.26-.22-1.96-.02-.34.1-.67.26-.98.4-.52.23-.97.58-1.39.95-.81.72-1.44,1.75-1.64,2.82-.22,1.21-.04,2.36.86,3.26s2.03,1.04,3.26.86,2.45-.89,3.36-1.75c1.13-1.07,1.61-2.35,1.77-3.86.09-.88-.48-1.75-1.13-2.26-.77-.6-1.57-.67-2.51-.51-1.81.3-3.89,1.43-4.47,3.32-.32,1.05.09,2.4,1.08,2.96.83.47,2,.49,2.66-.27.99-1.15.02-2.67-1.42-2.43h0Z"/>
      </g>
      <path class="cls-1" d="m13.15,10.15c-.14-.55-.21-1.12-.21-1.71,0-3.88,3.15-7.03,7.03-7.03s7.03,3.15,7.03,7.03-3.15,7.03-7.03,7.03"/>
      <path class="cls-1" d="m5.8,20.23c-.53-.99-.48-1.35-.48-2.55,0-3.88,3.15-7.03,7.03-7.03s7.03,3.15,7.03,7.03c0,2.91-1.77,5.41-4.3,6.48"/>
      <path class="cls-1" d="m3.71,32.34c-1.5-1.29-2.46-3.2-2.46-5.34,0-3.88,3.15-7.03,7.03-7.03s7.03,3.15,7.03,7.03c0,2.23-1.03,4.21-2.65,5.5"/>
      <path class="cls-1" d="m51.82,27.28c-1.27-1.27-2.06-3.03-2.06-4.97,0-3.88,3.15-7.03,7.03-7.03s7.03,3.15,7.03,7.03c0,2.8-1.63,5.21-3.99,6.34"/>
      <path class="cls-1" d="m47.76,34.75c-.06-.36-.21-.35-.21-.72,0-3.88,3.15-7.03,7.03-7.03s7.03,3.15,7.03,7.03-2.5,6.87-6.39,6.87"/>
      <path class="cls-1" d="m9.05,44.98c-.25.03-.51.04-.77.04-3.88,0-7.03-3.15-7.03-7.03s3.15-7.03,7.03-7.03c3.12,0,5.77,2.03,6.69,4.85"/>
      <path class="cls-1" d="m20.42,49.46c-1.21.97-2.74,1.55-4.41,1.55-3.88,0-7.03-3.15-7.03-7.03s3.15-7.03,7.03-7.03c2.91,0,5.41,1.77,6.48,4.3"/>
      <path class="cls-1" d="m41.28,40.03c.83-2.96,3.55-5.13,6.77-5.13,3.88,0,7.03,3.15,7.03,7.03s-3.15,7.03-7.03,7.03c-.64,0-1.25-.08-1.84-.24"/>
      <path class="cls-1" d="m32.98,42.19c1.27-1.81,2.76-2.23,5.14-2.23,3.88,0,7.03,3.15,7.03,7.03s-3.15,7.03-7.03,7.03c-2.23,0-4.22-1.04-5.51-2.67"/>
      <circle class="cls-1" cx="27.01" cy="47" r="7.03"/>
    </g>
  </g>
</svg>