<?xml version="1.0" encoding="UTF-8"?>
<svg id="Calque_2" data-name="Calque 2" xmlns="http://www.w3.org/2000/svg" xmlns:xlink="http://www.w3.org/1999/xlink" viewBox="0 0 71.74 77.56">
  <defs>
    <style>
      .cls-1 {
        fill: #ffce62;
      }

      .cls-1, .cls-2, .cls-3, .cls-4 {
        stroke-width: 2.51px;
      }

      .cls-1, .cls-3, .cls-4 {
        stroke-linecap: round;
        stroke-linejoin: round;
      }

      .cls-1, .cls-4 {
        stroke: #733d00;
      }

      .cls-5 {
        fill: #81273e;
      }

      .cls-5, .cls-6, .cls-7, .cls-8, .cls-9, .cls-10 {
        stroke-width: 0px;
      }

      .cls-11 {
        opacity: .5;
      }

      .cls-6, .cls-4 {
        fill: none;
      }

      .cls-12 {
        opacity: .34;
      }

      .cls-2 {
        fill: #fff;
        stroke: #2f2629;
        stroke-miterlimit: 10;
      }

      .cls-7 {
        fill: #231f20;
      }

      .cls-13 {
        clip-path: url(#clippath);
      }

      .cls-3 {
        fill: #fc3352;
        stroke: #6d002a;
      }

      .cls-8 {
        fill: #eafdf1;
      }

      .cls-9 {
        fill: #82263e;
      }

      .cls-10 {
        fill: #f7f1eb;
      }
    </style>
    <clipPath id="clippath">
      <ellipse class="cls-6" cx="35.87" cy="38.78" rx="34.62" ry="37.53"/>
    </clipPath>
  </defs>
  <g id="Layer_1" data-name="Layer 1">
    <g>
      <ellipse class="cls-1" cx="35.87" cy="38.78" rx="34.62" ry="37.53"/>
      <path class="cls-2" d="m17.76,44.55s-10.15-4.79-7.16-14.6c2.99-9.8,12.3-10.47,12.3-10.47,0,0,15.96,1.04,10.31,15.81-5.65,14.77-15.45,9.25-15.45,9.25Z"/>
      <path class="cls-7" d="m22.76,33.9l.48-.94c.16-.32.19-.37.47-.56l-1.02-.58c.03.33.04.54-.14.83l2.04.27c-.09-.24,0-.17-.24.02l-2.21-1.7c-.1.3-.17.81-.24.97l.66-.66-.3.16,2.91.76c.4.7-.13-.16-.17-.34l.13.29c.03.36.04.45.04.27,0-.12,0-.09-.02.1,0,.17-.05.32-.15.47-.07.12-.68.55-.35.38l-3.37-2.59c-.1.44-.19.88-.29,1.32l4.6.62c-.01-.14-.01-.29-.02-.43v-.21c-.04.24-.04.27-.01.1.03-.13.09-.28.1-.42.04-.31-.21.4.04-.12l-4.42-1.86c-.26,1.39-.76,3.25-.04,4.54s2.51,1.43,3.54.46,1.08-2.99,1.25-4.35c.14-1.19-1.03-2.23-2.1-2.38-1.29-.17-2.18.6-2.65,1.73s-.47,2.35-.29,3.56c.14.96,1.33,1.76,2.26,1.72s2.1-.69,2.26-1.72c.07-.45.14-.9.2-1.35.14-.94-.02-1.8-.82-2.41-.71-.55-1.76-.66-2.55-.18-2.24,1.36-2.28,5.08.44,5.92,1.45.45,3.2-1.09,2.62-2.62-.09-.25-.05-.64-.09-.92-.06-.43-.16-.81-.41-1.18-.57-.86-2.09-1.09-2.6,0s-.46,2.28.43,3.13c.69.66,1.9.19,1.9-.79,0-.69-.24-1.43-.78-1.87s-1.26-.03-1.13.66c.06.34.04.35-.08.71l-.35.99c-.1.27.34.46.47.2h0Z"/>
      <path class="cls-2" d="m58.13,44.25s10.15-4.79,7.16-14.6c-2.99-9.8-12.3-10.47-12.3-10.47,0,0-15.96,1.04-10.31,15.81,5.65,14.77,15.45,9.25,15.45,9.25Z"/>
      <path class="cls-7" d="m53.61,33.4l-.35-.99c-.12-.34-.15-.37-.08-.71.13-.69-.6-1.09-1.13-.66s-.78,1.19-.78,1.87c0,.98,1.21,1.45,1.9.79.89-.85.94-2.06.43-3.13s-2.03-.86-2.6,0c-.24.37-.35.75-.41,1.18-.04.28,0,.67-.09.92-.58,1.52,1.16,3.07,2.62,2.62,2.72-.84,2.68-4.56.44-5.92-.79-.48-1.84-.37-2.55.18-.79.61-.97,1.47-.82,2.41.07.45.14.9.2,1.35.15.96,1.32,1.76,2.26,1.72s2.1-.69,2.26-1.72c.18-1.21.19-2.41-.29-3.56s-1.36-1.91-2.65-1.73c-1.07.14-2.24,1.18-2.1,2.38.16,1.36.2,3.36,1.25,4.35s2.82.84,3.54-.46.22-3.15-.04-4.54l-4.42,1.86c.1.21.06.23.01.01.04.17.09.35.14.52.08.29.04-.29-.01,0-.03.16,0,.37-.02.53l4.6-.62c-.1-.44-.19-.88-.29-1.32l-3.37,2.59c.16.09.16.08-.01-.03-.14-.09-.25-.2-.34-.34l-.13-.3c-.03-.36-.04-.45-.04-.27,0,.12,0,.09.02-.1,0-.17.05-.32.15-.46-.1.28-.56,1.03-.17.34l2.91-.76-.3-.16.66.66c.04.09-.09-.36-.09-.37-.05-.2-.08-.4-.15-.6l-2.21,1.7c-.21-.16-.14-.28-.24-.02l2.04-.27c-.18-.29-.17-.49-.14-.83l-1.02.58c.29.19.31.22.47.56l.48.94c.13.26.57.08.47-.2h0Z"/>
      <path class="cls-3" d="m35.88,66.35s-6.65-2.66-4.32-7.98c2.33-5.32,6.1-5.91,7.04-5.28s5.73,6.53,4.6,9.27c-2.16,5.22-7.32,3.99-7.32,3.99Z"/>
      <g class="cls-12">
        <g class="cls-13">
          <path class="cls-9" d="m1.25,22.15c-.3,2.3-2.06,5.29-2.67,7.57-.53,2.01-1,3.99-1.09,6.06-.2,4.29.34,8.79,1.74,12.85,2.75,8.01,7.66,15.4,14.24,20.76,13.13,10.7,33.26,12.84,47.41,2.76,7.5-5.34,13.49-13.43,16.79-22.01,1.42-3.7,2.71-8.48,1.01-12.26-1.3-2.89-4.31-4.88-7.29-2.98-3.64,2.31-3.45,7.78-4.82,11.39-1.73,4.55-4.71,8.88-8.04,12.4-6.11,6.47-14.83,9.4-23.66,8.39-9.57-1.09-17.84-6.94-22.88-15.02-2.65-4.25-4.45-8.99-5.92-13.76-.7-2.26-1.12-4.59-1.76-6.87-.71-2.53-2.38-6.62-2.39-9.28,0-.44-.61-.41-.66,0h0Z"/>
          <path class="cls-8" d="m15.95,6.82c4.91-1.36,12.33.03,17.37.68,5.92.76,11.82,2.13,17.12,4.94,9.78,5.18,14.43,14.08,19.03,23.64.59,1.23,1.98,1.77,3.24,1.86.71.05,1.26-.23,1.9-.51,1.2-.53,1.82-2.03,1.86-3.24.44-12.73-9.78-24.22-20.39-29.95C50.12,1.01,43.21-.96,36.4-.88c-3.35.03-6.83.45-10.06,1.4-4.03,1.19-6.81,3.84-10.63,5.44-.51.21-.33,1.02.24.86h0Z"/>
        </g>
      </g>
      <path class="cls-10" d="m38.6,10.13c.26,0,.51-.04.74-.16.24-.08.44-.21.62-.4.19-.17.32-.38.4-.62.12-.23.17-.47.16-.74l-.07-.51c-.09-.32-.25-.61-.49-.84l-.39-.3c-.3-.17-.62-.26-.97-.26-.26,0-.51.04-.74.16-.24.08-.44.21-.62.4-.19.17-.32.38-.4.62-.12.23-.17.47-.16.74l.07.51c.09.32.25.61.49.84l.39.3c.3.17.62.26.97.26h0Z"/>
      <path class="cls-10" d="m43.98,9.93c5.29.96,9.35,4.26,12.93,8.08,1.01,1.08,2.88-.33,2.07-1.59-3.31-5.13-8.93-7.37-14.81-7.87-.78-.07-.97,1.24-.19,1.38h0Z"/>
      <ellipse class="cls-4" cx="35.87" cy="38.78" rx="34.62" ry="37.53"/>
      <g class="cls-11">
        <path class="cls-5" d="m38.03,62.35c-.24.16-.56.28-.84.18-.1-.03-.2-.12-.33-.2.09.05-.1-.08,0,.01-.1-.1-.2-.23-.29-.33l-.37,1.4c.08-.02.08-.02,0,0,.06,0,.13-.01.19-.01.05,0,.11.01.15,0,.1-.01-.15-.04.02,0,.11.03.23.05.34.08.05.02.1.04.15.05.12.04-.19-.11.01.01.09.05.18.11.26.16-.18-.11-.05-.04,0,0,.04.04.07.07.11.11.09.09.08.1,0,0,.03.04.06.08.09.13.03.05.06.12.09.17.08.11-.09-.24-.01-.01l.51-1.25c.22-.1-.04,0-.13.03-.07.02-.14.04-.21.05-.03,0-.22.04-.06.02s-.03,0-.06,0c-.06,0-.11,0-.17,0s-.11,0-.17,0c-.15,0,.28.06.02,0-.11-.02-.22-.05-.33-.08-.03,0-.14-.07-.16-.06.04-.02.21.11.05.02-.11-.06-.22-.14-.33-.2-.14-.07.15.14.04.04-.05-.05-.11-.1-.16-.14v1.72c.18-.16-.22.13-.02.02.06-.03.12-.07.18-.1.2-.12-.25.07-.03.02.07-.02.13-.04.2-.06.24-.05.04.04-.05,0,.05.02.15,0,.21,0,.06,0,.15.02.21.01-.21-.03-.25-.04-.12-.01.04,0,.07.01.1.02.07.02.14.04.21.06.26.07-.12-.08-.03-.02.06.04.13.06.19.1.05.03.23.18.08.04s.03.03.06.06c.04.04.17.23.07.05-.11-.19.02.04.04.07.04.07.08.15.11.22l.45-1.71c-.06.04-.12.07-.18.11-.2.13.26-.07.05-.02-.05.01-.16.03-.2.05.18-.09.26-.02.06-.02-.07,0-.14,0-.21,0-.24,0,.3.07.06,0-.07-.02-.13-.03-.2-.05-.18-.06-.11-.11.04.03-.06-.06-.28-.19-.36-.21.11.03.21.18.05.02-.04-.04-.09-.12-.14-.15.09.05.17.24.04.04-.03-.05-.05-.1-.08-.15-.05-.09.08.31.03.05-.01-.08-.04-.16-.05-.24l-.9,1.58c.09-.02.17-.04.26-.06.04,0,.09-.02.13-.02.1-.02.06-.01-.12.02.02-.04.43-.02.49-.02.09,0,.18,0,.27.01.21.02.08.03-.04-.01.16.06.35.07.52.11.09.02.17.05.25.08.05.02.27.13.09.03s.05.03.09.05c.08.04.16.08.23.13s.15.09.22.14c.04.02.07.05.11.08.08.06.05.03-.09-.07.1,0,.32.29.39.37l.26-2.04s-.16.1-.18.09c0,0,.23-.08.08-.03-.11.04-.22.08-.33.11-.1.03-.19.05-.29.07-.02,0-.2.04-.2.03,0-.02.28-.02.05-.01-.04,0-.7,0-.7,0,0,0,.25.05.1.01-.05-.01-.1-.02-.15-.03-.13-.03-.26-.06-.39-.1-.03,0-.18-.07-.19-.07.01-.01.23.12.11.04,0,0-.11-.07-.12-.06.03-.02.22.23.06.04.13.15.19.3.2.5,0-.21-.02.1-.03.12.04-.19-.02.09-.05.09,0,0,.09-.15.08-.14,0,0-.17.21-.07.11s-.11.09-.11.08c0,0,.15-.1.16-.09.01.03-.24.06-.08.05.05,0,.1-.03.15-.04.28-.07-.05.02-.05,0,0,0,.19-.01.2-.01.21,0,.41,0,.62,0,.23.01-.28-.06-.06,0,.1.02.2.04.29.07.06.02.33.12.12.04s.05.04.09.06c.18.09-.19-.19-.06-.05.21.23-.11-.18-.03-.03,0,0-.12-.34-.08-.16-.03-.13-.03-.23-.02-.35.02-.22.02-.11,0-.05,0-.02.16-.3.05-.12-.01.02.19-.24.1-.14s.14-.11.13-.1c-.17.11.09-.05.12-.04-.03,0-.11.04-.14.04s-.13.02-.15.03c0,0,.29-.02.16-.02-.09,0-.18.01-.27.01-.25,0-.49-.02-.74-.04-.15-.01-.29-.03-.44-.04-.08,0-.23.01.02,0-.07,0-.15-.02-.22-.03-.29-.05-.58-.11-.87-.18-.58-.14-1.14-.32-1.69-.54l.59,2.24s.1-.09.15-.14c.03-.03.19-.15.02-.02-.18.13.02-.01.06-.04.04-.03.09-.06.14-.09.11-.07.23-.14.35-.2.05-.02.1-.05.15-.07.22-.1-.21.08-.06.03.23-.08.46-.15.7-.2.05-.01.15,0,.2-.04-.04.02-.31.03-.11.02.14-.01.27-.02.41-.03.12,0,.25,0,.37,0,.05,0,.11,0,.16.01.22.02.03.01-.07-.01.24.06.48.09.71.17.06.02.13.04.19.07.1.04.22.14-.06-.03.1.06.22.11.33.16s.21.12.31.19c.04.03.09.07.13.09-.29-.17-.1-.07-.02,0v-1.89c-.09.09-.19.17-.29.26-.2.18.21-.13-.04.03-.19.12-.38.24-.58.35l-.09.04c-.13.06-.12.06.05-.02-.04,0-.24.09-.27.1-.22.07-.43.12-.66.17-.31.07.27,0-.02,0-.1,0-.2.01-.3.01-.04,0-.09,0-.13,0-.15-.01-.11,0,.1.02-.03-.02-.21-.06-.24-.06.19.09.22.1.1.04-.09-.06-.09-.05,0,.01.09.07.09.07.01,0-.1-.11-.08-.08.07.09-.13-.21.1.3.03.07s0,.36.01.06c0-.1-.06.38,0,.06.04-.22-.16.27-.03.06.03-.05.1-.13.11-.18-.14.17-.16.2-.07.1.03-.04.07-.07.1-.11l.05-.05c.11-.09.07-.07-.1.07.05,0,.14-.08.19-.11.2-.12-.32.12.02,0,.23-.08-.35-.01-.04,0,.06,0,.23-.03.29.01-.2-.03-.22-.03-.07,0,.06.01.12.03.19.05l.09.03c.14.05.12.04-.05-.03.01.03.24.11.27.13.21.11.4.23.6.37.08.06.16.12.25.18.05.04.41.31.13.09l-.34-1.3s.13-.3.05-.14.06-.1.09-.11c-.03.02-.21.17,0,.03.19-.13.05-.03,0,0-.04.02-.08.04-.11.06-.1.07.26-.07.14-.06-.04,0-.09.02-.13.04-.14.04-.17-.04.13,0-.07,0-.2-.01-.26,0,.03,0,.33.07.16.02-.04-.01-.08-.02-.13-.03s-.08-.03-.12-.05c-.21-.07.21.13.11.05-.03-.02-.08-.05-.11-.06-.11-.04.24.21.08.05-.45-.44-1.15-.48-1.64-.1s-.64,1.07-.32,1.62c.51.89,1.49,1.27,2.48,1.13.41-.05.82-.18,1.16-.42.49-.35.77-.75,1-1.3.16-.38-.01-1.04-.34-1.3-.84-.65-1.74-1.36-2.83-1.54s-2.19.09-2.93.97-1.01,2.19-.25,3.17,2.04,1.13,3.22.93,2.26-.81,3.1-1.62c.49-.48.54-1.42,0-1.89-2.22-1.93-5.69-1.92-7.85.13-.34.33-.47.85-.34,1.3.13.49.49.76.93.93,1.42.56,2.95.85,4.46.9.77.02,1.53-.12,2.13-.63.7-.59.86-1.6.46-2.4-.6-1.23-2.28-1.54-3.5-1.43-.93.08-1.8.43-2.3,1.26s-.39,1.92.32,2.6c.67.64,1.77.86,2.66.88s1.78-.22,2.58-.63.81-1.46.26-2.04c-1.34-1.41-3.45-1.99-5.32-1.47-.72.2-1.01.89-.9,1.58.32,2.07,3.12,3.21,4.82,2.03.59-.41.76-1.06.45-1.71-.41-.89-1.35-1.53-2.3-1.72-1.09-.21-2.17.03-3,.79-.48.43-.46,1.29,0,1.72,1.19,1.12,3.1,1.41,4.5.52.53-.33.67-.96.4-1.51-.37-.73-1.04-1.25-1.8-1.53s-1.56-.19-2.27.17c-.61.31-.47,1.11,0,1.45.52.38,1.11.38,1.64.25.49-.12.93-.28,1.28-.67.26-.29-.08-.8-.44-.57h0Z"/>
      </g>
    </g>
  </g>
</svg>