<?xml version="1.0" encoding="UTF-8"?>
<svg id="Calque_2" data-name="Calque 2" xmlns="http://www.w3.org/2000/svg" xmlns:xlink="http://www.w3.org/1999/xlink" viewBox="0 0 139.23 58.86">
  <defs>
    <style>
      .cls-1 {
        opacity: .29;
      }

      .cls-2 {
        fill: #782d3e;
      }

      .cls-2, .cls-3, .cls-4, .cls-5, .cls-6 {
        stroke-width: 0px;
      }

      .cls-3, .cls-7 {
        fill: none;
      }

      .cls-4 {
        fill: #fff;
      }

      .cls-8 {
        clip-path: url(#clippath);
      }

      .cls-9 {
        opacity: .49;
      }

      .cls-5 {
        fill: #008ec9;
      }

      .cls-6 {
        fill: #effdf3;
      }

      .cls-7, .cls-10 {
        stroke: #005c74;
        stroke-linecap: round;
        stroke-linejoin: round;
        stroke-width: 2.52px;
      }

      .cls-10 {
        fill: #ade9e1;
      }
    </style>
    <clipPath id="clippath">
      <path class="cls-3" d="m22.62,57.19c-2.13,0-4.25.53-6.37.38-7.38-.49-17.21-1.05-14.54-23.76C5.12,4.74,18.32,4.02,18.32,4.02c0,0,98.22-6.13,109.18-.13,7.28,3.99,19.34,47.15.06,50.37-16.74,2.79-86.8,2.94-104.94,2.93Z"/>
    </clipPath>
  </defs>
  <g id="Layer_1" data-name="Layer 1">
    <g>
      <path class="cls-10" d="m22.62,57.19c-2.13,0-4.25.53-6.37.38-7.38-.49-17.21-1.05-14.54-23.76C5.12,4.74,18.32,4.02,18.32,4.02c0,0,98.22-6.13,109.18-.13,7.28,3.99,19.34,47.15.06,50.37-16.74,2.79-86.8,2.94-104.94,2.93Z"/>
      <g class="cls-1">
        <g class="cls-8">
          <path class="cls-2" d="m12.94,47.41c2.79.93,4.14,2.04,7.21,2.57,2.83.49,5.69.93,8.55,1.26,6.78.79,13.61,1.22,20.43,1.49,13.3.54,26.6.2,39.88-.62,6.48-.4,12.95-.94,19.4-1.63,5.48-.59,12.24-.44,17.35-2.68,8.3-3.63,9.16-15.68,3.66-22.1-2.38-2.77-6.09-.23-6.44,2.67-.32,2.67,1.66,7.41.13,9.74-1.89,2.9-12.25,2.4-15.67,2.71-10.66.97-21.34,1.73-32.04,2.14s-20.76.72-31.14.83c-5.51.06-11.03.1-16.54.23-2.59.06-5.18.17-7.77.3-2.89.15-4.18,1.05-7.01,1.53-.84.14-.68,1.32,0,1.55h0Z"/>
          <path class="cls-6" d="m5.16,50.53c.82-5.98.13-12.06,1.14-18.11.95-5.69,2.64-12.28,6.04-17.04s12.71-3.54,17.78-3.99c7.09-.63,14.19-1.09,21.31-1.36,13.58-.52,27.19-.44,40.75.32,7.11.4,14.2.97,21.28,1.72s14.26,2.71,21.17,2.43c6.45-.26,7.32-8.79,1.48-10.93C128.68.85,119.38.77,111.53-.03s-15.47-1.37-23.23-1.74c-16.17-.76-32.36-.56-48.5.61C32.19-.61,24.56.04,17.03,1.27,10.11,2.41,5.56,5.63,2.83,12.17.29,18.25-1.09,24.81-1.36,31.38c-.26,6.17.44,14.26,3.98,19.48.59.87,2.36.96,2.54-.33h0Z"/>
        </g>
      </g>
      <g>
        <path class="cls-5" d="m21.47,12.73c-2.6,4.01-4.6,8.19-6.18,12.69-1.3,3.69-3.84,9.08-3.06,13.11,1.47,7.67,13.8,5.45,18.73,3.43,2-.82,2.84-4.56,0-4.96s-5.48.04-8.36.39c-.78.1-2.69.7-3.44.3-1.92-1.02-.78-3.11-.44-4.74,1.37-6.51,3.26-12.9,4.83-19.36.31-1.26-1.37-1.95-2.07-.87h0Z"/>
        <path class="cls-5" d="m39.63,14.09c-2.92,7.7-4.98,17.36-4.48,25.64.12,2.06,3.48,2.83,3.84.52,1.35-8.42,1.81-17.41,2.39-25.92.07-1.08-1.43-1.12-1.76-.24h0Z"/>
        <path class="cls-5" d="m46.93,14.66c-4.38,5.75-3.99,17.11-4.32,24.01-.14,2.94,4.15,4.05,5.53,1.5,2.21-4.07,4.61-8.03,7.29-11.81s6.15-7.01,8.44-10.94c1.15-1.98-1.25-4.71-3.29-3.29-7.49,5.19-13.19,15.24-17.57,23.05l5.53,1.5c.08-4.23.38-8.41.71-12.62.28-3.63,1.16-7.56.09-11.08-.36-1.18-1.74-1.19-2.41-.32h0Z"/>
        <path class="cls-5" d="m51.55,28.67c.11,2.41.67,4.59,1.52,6.83.78,2.05,1.36,4.86,3.49,5.83,1.39.63,2.85.14,3.36-1.37.76-2.27-.85-4.57-1.85-6.57-1.07-2.14-2.3-4.06-3.98-5.77-.87-.89-2.6-.25-2.54,1.05h0Z"/>
        <path class="cls-5" d="m82.93,17.38c-4.36-2.28-9.17-2.74-14.04-2.73-1.37,0-2.64,1.19-2.59,2.59.13,4.21.26,8.41.39,12.62.09,2.85-.64,7.93.59,10.61.9,1.96,2.66,2.65,4.76,2.56,3.8-.16,7.91-1.05,11.63-1.85,2.89-.63,2.31-5.5-.71-5.23-2.39.21-4.74.6-7.1.97-3.7.57-3.4.28-3.57-3.44-.24-5.41-.53-10.82-.8-16.22l-2.59,2.59c4.46-.09,8.96.3,13.41-.13,1.13-.11,1.83-1.7.63-2.33h0Z"/>
        <path class="cls-5" d="m80.32,27.32c-2.4-.27-4.46-1.09-6.94-1.06-2.19.03-4.08.35-6.09,1.21s-.84,3.87,1.06,3.91,3.73-.32,5.64-.68c2.06-.39,4.28-1.32,6.34-1.45,1.26-.08,1.22-1.8,0-1.93h0Z"/>
        <path class="cls-5" d="m99.21,42.19c.15-1.21.25-3.8.72-4.97-.23-.65-.15-1.01.25-1.07.83,0,1.66,0,2.49.01,1.66,0,3.32.03,4.98.02,1.24,0,4.17-.59,5.11.5.25.29.29,4.66.05,4.87.44-.39-2.97-.28-3.56-.28-1.69-.02-3.37-.03-5.06-.05-.84,0-1.69-.02-2.53-.02-1.28-.36-1.59-.19-.92.49.19-1.55-1.97-2.18-2.94-1.22l-.42.42c-.45.45-.73,1.25-.5,1.87.77,2.02,2.08,2.37,4.15,2.37,3.57.01,7.17-.07,10.74-.17,1.83-.05,3.74-.03,4.43-2.06.65-1.92.47-5.6-.26-7.52-.65-1.69-1.98-2.49-3.77-2.62-3.3-.25-6.83.26-10.13.44-1.61.09-3.51-.1-4.36,1.53-1.1,2.1-.23,5.48.32,7.61.18.72,1.13.48,1.2-.16h0Z"/>
        <path class="cls-5" d="m100.07,42.23c-.06-.92-.08-1.85,0-2.76h-2.37c-.01.74-.03,1.48-.06,2.22-.05,1.59,2.41,1.58,2.46,0,.04-1.14.1-2.28.11-3.42,0-1.71-2.5-1.67-2.63,0-.06.82-.13,1.64-.19,2.45h2.48c.12-1.57.54-3.16.83-4.71l-3.15-.43c-.08,1.43-.26,2.76.69,3.92.63.76,1.71.36,2.19-.28.76-1.02.46-2.44.34-3.64-.21-2.01-3.17-2.11-3.21,0-.03,1.69.06,3.45-.16,5.13-.18,1.37,2.25,1.71,2.44.33.11-.81.22-1.62.33-2.43l-2.58-.35c-.01,1.14.03,2.28.06,3.42h2.46c-.02-.74-.03-1.48-.04-2.22-.02-1.53-2.27-1.51-2.37,0-.07,1.1.03,2,.46,3.02.38.91,1.98.94,1.9-.26h0Z"/>
        <path class="cls-5" d="m100.11,34.51c.34-4.22.53-8.39.36-12.62-.07-1.66-.46-3.7-.31-5.35.56-6.23,11.11-3.76,5.35,1.22-1.92,1.66.85,4.35,2.77,2.77,5.65-4.68,1.19-16.92-6.65-14.27-9.95,3.36-4.49,21.42-2.91,28.45.19.82,1.33.57,1.39-.19h0Z"/>
        <path class="cls-5" d="m106.87,20.63c3.3-.24,6.6-.92,9.87.02,4.31,1.23,3.23,5.54,1.36,8.57-1.54,2.51-7.73,3.57-9.66,1.25-2.05-2.46-.07-7.98-.25-11.01-.07-1.11-1.5-1.55-2.11-.57-2.15,3.43-4.14,12.62-.04,15.43s11.25,1.35,14.22-2.29c2.53-3.1,4.8-9.08,1.65-12.46-3.53-3.79-11.48-3.58-15.67-1.22-1.02.57-.62,2.38.62,2.29h0Z"/>
      </g>
      <path class="cls-7" d="m22.62,57.19c-2.13,0-4.25.53-6.37.38-7.38-.49-17.21-1.05-14.54-23.76C5.12,4.74,18.32,4.02,18.32,4.02c0,0,98.22-6.13,109.18-.13,7.28,3.99,19.34,47.15.06,50.37-16.74,2.79-86.8,2.94-104.94,2.93Z"/>
      <g class="cls-9">
        <path class="cls-4" d="m30.25,13.02c9.65-.93,19.43-.34,29.04-1.4,2.38-.26,3.2-3.68.6-4.4-9.83-2.71-20.58-.96-30.16,1.91-2.05.61-1.78,4.11.53,3.89h0Z"/>
      </g>
      <g class="cls-9">
        <path class="cls-4" d="m80,11.76c2.19.25,4.47.78,6.67.69,1.95-.08,3.08-2.99,1.07-3.95-2.73-1.31-5.91-.88-8.43.71-1.22.77-.62,2.4.69,2.55h0Z"/>
      </g>
      <g class="cls-9">
        <path class="cls-4" d="m119.42,44.01c2.38.82,4.91.12,6.78-1.47,2.13-1.81,3.27-5.01,1.35-7.36-.83-1.01-2.88-1.03-3.7,0-.59.74-.84,1.39-1.12,2.26.15-.47-.13.3-.17.39-.09.18-.44.75-.42.73-.44.53-1.17,1-2.11.95-2.7-.13-2.94,3.68-.61,4.49h0Z"/>
      </g>
    </g>
  </g>
</svg>