<?xml version="1.0" encoding="UTF-8" standalone="no"?>
<svg
   viewBox="0 0 189 136.29"
   version="1.1"
   id="svg30"
   sodipodi:docname="moustache-right.svg"
   width="189"
   height="136.28999"
   inkscape:version="1.4.2 (2aeb623e1d, 2025-05-12)"
   xmlns:inkscape="http://www.inkscape.org/namespaces/inkscape"
   xmlns:sodipodi="http://sodipodi.sourceforge.net/DTD/sodipodi-0.dtd"
   xmlns="http://www.w3.org/2000/svg"
   xmlns:svg="http://www.w3.org/2000/svg">
  <sodipodi:namedview
     id="namedview30"
     pagecolor="#ffffff"
     bordercolor="#000000"
     borderopacity="0.25"
     inkscape:showpageshadow="2"
     inkscape:pageopacity="0.0"
     inkscape:pagecheckerboard="0"
     inkscape:deskcolor="#d1d1d1"
     inkscape:zoom="1.9641505"
     inkscape:cx="212.05096"
     inkscape:cy="82.732967"
     inkscape:window-width="1600"
     inkscape:window-height="836"
     inkscape:window-x="0"
     inkscape:window-y="27"
     inkscape:window-maximized="1"
     inkscape:current-layer="Warstwa_16" />
  <defs
     id="defs1">
    <style
       id="style1">.cls-1,.cls-7{fill:none;}.cls-2{fill:#663117;}.cls-2,.cls-7{stroke:#381605;stroke-linecap:round;stroke-linejoin:round;stroke-width:5px;}.cls-3{opacity:0.33;}.cls-4{clip-path:url(#clip-path);}.cls-5{fill:#e6fff2;}.cls-6{fill:#901a3d;}</style>
    <clipPath
       id="clip-path"
       transform="translate(2.7 1.38)">
      <path
         class="cls-1"
         d="m 351.42,23 c -13.93,-39.58 -41.14,-9.51 -41.14,-9.51 0,0 33.84,-19.96 19.25,9.51 -8.42,17 -25.21,17.16 -37.93,14.29 A 44.67,44.67 0 0 1 270.2,25.23 C 263.64,18.76 249.66,9.5 223.35,9.5 c -40.48,0 -44.46,33.18 -44.46,33.18 l 0.57,0.31 -1.39,0.65 c 0,0 -9.93,-31.96 -49.74,-24.64 -25.51,4.7 -37.6,16.07 -43,23.63 A 48.38,48.38 0 0 1 58.39,61.44 c -10.69,2.81 -23,2.15 -32,-9.91 C 6.67,25.24 43.56,38.69 43.56,38.69 c 0,0 -32.21,-24.64 -38.74,16.81 -6.53,41.45 25.28,63.94 45.05,65 a 71.3,71.3 0 0 0 8.79,-0.07 C 43.94,128.27 37.75,128 37.75,128 c 9.37,6.89 51.5,4.83 51.5,4.83 l -17.5,3.9 c 0,0 23.94,9.08 58.94,1.28 23.58,-5.25 34.88,-23.85 39.78,-36.47 -0.1,6.08 -0.26,13.84 -0.56,17.09 -0.51,5.54 9.1,-12.12 9.1,-12.12 a 43.75,43.75 0 0 0 1.79,-15.69 c 3.08,10.07 9.1,22.89 19.78,30 18.91,12.6 12.94,2 12.94,2 0,0 -2.79,-5 -6.38,-11.6 8.16,8 19.77,15.1 35.45,15.68 35.84,1.33 57.74,-11.94 57.74,-11.94 l -17.92,-0.67 c 0,0 41.81,-5.61 49.77,-14.09 0,0 -6,1.37 -21.68,-3.55 2.76,-0.4 5.59,-0.92 8.41,-1.6 19.24,-4.64 46.45,-32.51 32.51,-72.05 z"
         id="path1" />
    </clipPath>
  </defs>
  <g
     id="Calque_2"
     data-name="Calque 2">
    <g
       id="Warstwa_16"
       data-name="Warstwa 16">
      <path
         class="cls-2"
         d="m 20.615428,89.488252 c 0.67,3.32 15.27,38.489998 51.1,39.819998 35.829992,1.33 57.729992,-12 57.729992,-12 l -17.83,-0.61 c 0,0 41.8,-5.61 49.77,-14.09 0,0 -9.29,2.15 -35.17,-8.469998"
         id="path3" />
      <path
         class="cls-2"
         d="m 8.0554278,45.028252 c 0,0 4.0000002,-33.18 44.4600002,-33.18 26.31,0 40.279997,9.26 46.839997,15.73 a 44.66,44.66 0 0 0 21.409995,12.06 c 12.71,2.87 29.51,2.67 37.92,-14.29 14.6,-29.4200001 -19.24,-9.51 -19.24,-9.51 0,0 27.17,-30.07 41.17,9.56 14,39.63 -13.3,67.41 -32.55,72.06 -19.25,4.649998 -38.45,2.06 -38.45,2.06"
         id="path4" />
      <path
         class="cls-2"
         d="m 38.853368,109.83701 c 0,0 -33.2744602,-3.11813 -34.3481002,-43.563879 C 3.8071078,39.972396 12.693138,25.761592 18.986788,19.032215 62.010838,10.206591 132.53758,18.553825 125.75888,102.07338"
         id="path4-7"
         style="fill:#663117;stroke:#381605;stroke-width:0;stroke-linecap:round;stroke-linejoin:round;stroke-dasharray:none"
         sodipodi:nodetypes="cscc" />
      <path
         class="cls-2"
         d="m 11.72931,98.725731 c 2.56322,-8.61211 -1.038931,-7.60704 -3.6738822,-16.197479"
         id="path5"
         sodipodi:nodetypes="cc" />
      <path
         class="cls-2"
         d="m 7.3154278,78.768252 c -0.8,1.32 3.5100002,31.849998 22.4200002,44.459998 18.91,12.61 12.94,2 12.94,2 0,0 -21.56,-38.499998 -21.9,-43.829998"
         id="path8" />
      <g
         class="cls-3"
         id="g22"
         transform="translate(-172.08458,1.0182519)">
        <g
           class="cls-4"
           clip-path="url(#clip-path)"
           id="g21">
          <path
             class="cls-5"
             d="m 202.2,37.56 c -3,2.34 -0.66,7.46 0.68,10.27 1.73,3.63 4.36,7.8 8.43,9 a 1.75,1.75 0 0 0 2.14,-2.13 c -0.78,-3.88 -3.76,-7.45 -5.56,-10.94 -0.67,-1.31 -2.87,-8.31 -5.69,-6.15 z"
             transform="translate(2.7,1.38)"
             id="path12" />
          <path
             class="cls-5"
             d="m 214.83,39.54 a 21.07,21.07 0 0 0 3.87,7.78 c 1.62,2 4,4.69 6.8,4.7 a 2,2 0 0 0 1.74,-3 c -0.93,-1.91 -3.18,-3.07 -4.49,-4.76 a 16.09,16.09 0 0 1 -2.86,-6.09 c -0.81,-3.27 -5.92,-1.88 -5.06,1.4 z"
             transform="translate(2.7,1.38)"
             id="path13" />
          <path
             class="cls-5"
             d="m 237.34,8.68 c 15.54,17.92 35.54,34.68 59.84,37.92 5.77,0.76 12.07,1.21 17.72,-0.5 5.84,-1.77 9.89,-5.77 13.3,-10.65 a 55.81,55.81 0 0 0 7.5,-15.3 c 1.86,-6.09 1.58,-11.42 0.21,-17.51 -1,-4.32 -8.22,-5.76 -10.11,-1.32 -3.34,7.8 -6.15,16.44 -10.63,23.69 -2.19,3.53 -4,5.34 -8.23,5.74 a 47.33,47.33 0 0 1 -14.29,-1 c -19.47,-4.23 -35.18,-15.43 -52.24,-25 -2.58,-1.45 -4.92,1.84 -3.07,4 z"
             transform="translate(2.7,1.38)"
             id="path14" />
          <path
             class="cls-6"
             d="m 191.52,77.47 c 0.64,5.76 1.51,10.92 4.08,16.2 a 77.42,77.42 0 0 0 10,15.22 84.65,84.65 0 0 0 28.22,21.77 89.82,89.82 0 0 0 39.18,8.81 97.7,97.7 0 0 0 20.94,-2.37 c 6.62,-1.47 14.77,-3.55 19.43,-8.72 4.66,-5.17 1.7,-14.69 -6,-14.45 -5.87,0.18 -11.21,3 -16.8,4.6 a 73.67,73.67 0 0 1 -16.73,2.83 80,80 0 0 1 -33,-5.39 c -19.13,-7.42 -33.42,-23.6 -45.61,-39.49 -1,-1.33 -3.92,-1.21 -3.67,1 z"
             transform="translate(2.7,1.38)"
             id="path19" />
          <path
             class="cls-6"
             d="m 274.64,92.81 c 5.25,6.26 15.05,6.23 22.55,6.08 A 98.93,98.93 0 0 0 324.72,94 117.57,117.57 0 0 0 349.6,83 c 7.23,-4.3 15.71,-10.73 17.51,-19.37 0.39,-1.83 -0.87,-4.24 -3.07,-4 -7,0.68 -13.52,4.76 -19.48,8.33 a 128.08,128.08 0 0 1 -20.81,10.35 132.11,132.11 0 0 1 -22,5.86 c -3.67,0.68 -7.31,1.35 -11,1.81 -3,0.36 -8.55,2.46 -11.33,0.79 -4,-2.4 -7.44,2.86 -4.71,6.11 z"
             transform="translate(2.7,1.38)"
             id="path20" />
          <path
             class="cls-6"
             d="m 180.81,43.91 c 3.43,-2.13 5.23,-5.9 7.38,-9.21 a 96.41,96.41 0 0 1 9.26,-12.29 c 6.09,-6.7 13.7,-10.92 22.12,-14 2.26,-0.82 2.8,-4.58 0,-5.15 -10.09,-2.06 -19.63,3.11 -26.63,10.1 a 58.84,58.84 0 0 0 -9.85,13.29 c -2.46,4.44 -6.11,9.94 -5.88,15.19 a 2.42,2.42 0 0 0 3.6,2.06 z"
             transform="translate(2.7,1.38)"
             id="path21" />
        </g>
      </g>
      <path
         class="cls-7"
         d="m 43.725428,119.52825 a 51.17,51.17 0 0 0 28.5,9.79 c 35.829992,1.33 57.729992,-11.94 57.729992,-11.94 l -17.92,-0.66 c 0,0 41.81,-5.62 49.77,-14.09 0,0 -5.86,1.35 -21.24,-3.409998"
         id="path22" />
      <path
         class="cls-7"
         d="m 8.5154278,45.048252 c 0,0 4.0000002,-33.18 44.4600002,-33.18 26.31,0 40.289997,9.25 46.849997,15.73 a 44.74,44.74 0 0 0 21.399995,12.05 c 12.72,2.88 29.51,2.68 37.93,-14.28 14.6,-29.4300001 -19.25,-9.52 -19.25,-9.52 0,0 27.21,-30.07 41.14,9.55 13.93,39.62 -13.27,67.46 -32.51,72.1 -19.24,4.639998 -38.49,2.07 -38.49,2.07"
         id="path23" />
      <path
         class="cls-7"
         d="m 43.725428,119.52825 c -9.89,-14.86 -22.17,-33.999998 -22.48,-38.099998"
         id="path29" />
      <path
         class="cls-7"
         d="m 7.7854278,78.778252 c -0.81,1.33 3.5000002,31.849998 22.4200002,44.459998 18.92,12.61 12.94,2 12.94,2 0,0 -1.58,-2.82 -3.89,-7"
         id="path30" />
    </g>
  </g>
</svg>
