<?xml version="1.0" encoding="UTF-8" standalone="no"?>
<svg
   viewBox="0 0 189 133.29"
   version="1.1"
   id="svg30"
   sodipodi:docname="moustache-left.svg"
   width="189"
   height="133.28999"
   inkscape:version="1.4.2 (2aeb623e1d, 2025-05-12)"
   xmlns:inkscape="http://www.inkscape.org/namespaces/inkscape"
   xmlns:sodipodi="http://sodipodi.sourceforge.net/DTD/sodipodi-0.dtd"
   xmlns="http://www.w3.org/2000/svg"
   xmlns:svg="http://www.w3.org/2000/svg">
  <sodipodi:namedview
     id="namedview30"
     pagecolor="#ffffff"
     bordercolor="#000000"
     borderopacity="0.25"
     inkscape:showpageshadow="2"
     inkscape:pageopacity="0.0"
     inkscape:pagecheckerboard="0"
     inkscape:deskcolor="#d1d1d1"
     inkscape:zoom="2.7777283"
     inkscape:cx="129.42231"
     inkscape:cy="85.141517"
     inkscape:window-width="1600"
     inkscape:window-height="836"
     inkscape:window-x="0"
     inkscape:window-y="27"
     inkscape:window-maximized="1"
     inkscape:current-layer="g21" />
  <defs
     id="defs1">
    <style
       id="style1">.cls-1,.cls-7{fill:none;}.cls-2{fill:#663117;}.cls-2,.cls-7{stroke:#381605;stroke-linecap:round;stroke-linejoin:round;stroke-width:5px;}.cls-3{opacity:0.33;}.cls-4{clip-path:url(#clip-path);}.cls-5{fill:#e6fff2;}.cls-6{fill:#901a3d;}</style>
    <clipPath
       id="clip-path"
       transform="translate(2.7 1.38)">
      <path
         class="cls-1"
         d="m 351.42,23 c -13.93,-39.58 -41.14,-9.51 -41.14,-9.51 0,0 33.84,-19.96 19.25,9.51 -8.42,17 -25.21,17.16 -37.93,14.29 A 44.67,44.67 0 0 1 270.2,25.23 C 263.64,18.76 249.66,9.5 223.35,9.5 c -40.48,0 -44.46,33.18 -44.46,33.18 l 0.57,0.31 -1.39,0.65 c 0,0 -9.93,-31.96 -49.74,-24.64 -25.51,4.7 -37.6,16.07 -43,23.63 A 48.38,48.38 0 0 1 58.39,61.44 c -10.69,2.81 -23,2.15 -32,-9.91 C 6.67,25.24 43.56,38.69 43.56,38.69 c 0,0 -32.21,-24.64 -38.74,16.81 -6.53,41.45 25.28,63.94 45.05,65 a 71.3,71.3 0 0 0 8.79,-0.07 C 43.94,128.27 37.75,128 37.75,128 c 9.37,6.89 51.5,4.83 51.5,4.83 l -17.5,3.9 c 0,0 23.94,9.08 58.94,1.28 23.58,-5.25 34.88,-23.85 39.78,-36.47 -0.1,6.08 -0.26,13.84 -0.56,17.09 -0.51,5.54 9.1,-12.12 9.1,-12.12 a 43.75,43.75 0 0 0 1.79,-15.69 c 3.08,10.07 9.1,22.89 19.78,30 18.91,12.6 12.94,2 12.94,2 0,0 -2.79,-5 -6.38,-11.6 8.16,8 19.77,15.1 35.45,15.68 35.84,1.33 57.74,-11.94 57.74,-11.94 l -17.92,-0.67 c 0,0 41.81,-5.61 49.77,-14.09 0,0 -6,1.37 -21.68,-3.55 2.76,-0.4 5.59,-0.92 8.41,-1.6 19.24,-4.64 46.45,-32.51 32.51,-72.05 z"
         id="path1" />
    </clipPath>
  </defs>
  <g
     id="Calque_2"
     data-name="Calque 2">
    <g
       id="Warstwa_16"
       data-name="Warstwa 16"
       style="display:inline">
      <path
         class="cls-2"
         d="m 172.95002,80.349743 c -0.11,1 -0.2,19.719997 -0.71,25.259997 -0.51,5.54 9.09,-12.119997 9.09,-12.119997 a 45.6,45.6 0 0 0 -0.11,-26.38"
         id="path5"
         style="display:inline" />
      <path
         class="cls-2"
         d="m 172.95002,80.349743 c 2.52004,7.34007 -4.93,36.839997 -39.93,44.639997 -35.000001,7.8 -58.950001,-1.28 -58.950001,-1.28 l 17.5,-3.9 c 0,0 -42.13,2.06 -51.49,-4.83 0,0 9.52,0.42 33.05,-14.71"
         id="path6"
         sodipodi:nodetypes="cscccc"
         style="display:inline" />
      <path
         class="cls-2"
         d="m 178.58999,33.449794 c 0,0 -0.77228,-3.30477 -3.00632,-7.662892 C 170.56921,16.0048 158.19028,0.91582145 130.65002,5.9797434 105.14002,10.679743 93.060019,22.049743 87.650019,29.609743 c -6.508918,9.222559 -16.039572,15.877036 -26.94,18.81 -10.69,2.81 -23,2.15 -32,-9.91 -19.7199998,-26.29 17.17,-12.84 17.17,-12.84 0,0 -32.2,-24.6399996 -38.7299998,16.81 -6.52999996,41.45 25.2799998,63.939997 44.9999998,64.999997 19.72,1.06 36.63,-6.71 36.63,-6.71"
         id="path7"
         style="display:inline"
         sodipodi:nodetypes="cscccccssc" />
      <path
         class="cls-2"
         d="m 161.91789,90.182073 c 0,0 2.46019,-1.02117 5.77197,-3.20355 C 175.12335,82.08001 186.84719,71.33124 184.6708,53.14863 182.64797,36.30783 175.00123,29.68953 169.77141,27.09164 137.39796,9.5600014 78.240489,91.629003 85.729889,74.310179 161.87477,13.67653 48.619148,109.07599 60.416149,103.58562"
         id="path7-7"
         style="display:inline;fill:#663117;stroke:#381605;stroke-width:0;stroke-linecap:round;stroke-linejoin:round;stroke-dasharray:none"
         sodipodi:nodetypes="cscccc" />
      <g
         class="cls-3"
         id="g22"
         style="display:inline"
         transform="translate(1.0800192,-14.400257)">
        <g
           class="cls-4"
           clip-path="url(#clip-path)"
           id="g21">
          <path
             class="cls-5"
             d="M 16.78,32.07 C 10,43.61 14.12,56.67 23.45,65.62 34.45,76.13 49.81,78.2 64.26,75.37 79,72.49 91.9,63.27 102.7,53.22 c 9.44,-8.79 17.15,-21.64 30.26,-25.06 6.58,-1.72 13.57,-1.26 20.24,-0.21 6.67,1.05 15.35,5.86 21.84,3.3 2.5,-1 4.1,-3.21 3.41,-6 -1.89,-7.62 -11.88,-10.91 -18.43,-13.2 a 58.46,58.46 0 0 0 -23.64,-3.24 50.37,50.37 0 0 0 -23.19,7.26 c -7.88,5 -14,12.15 -20.5,18.75 C 81.67,46 68.11,57.1 51.57,57.26 37.27,57.4 24.93,46.65 21.92,32.74 c -0.52,-2.42 -4,-2.67 -5.14,-0.67 z"
             transform="translate(2.7,1.38)"
             id="path9" />
          <path
             class="cls-5"
             d="M 106.21,71 C 116.03,69.19 130,60.47 129.53,49 a 2,2 0 0 0 -3,-1.7 c -4.41,2.41 -7.18,6.65 -10.71,10.14 a 140.09,140.09 0 0 1 -11.61,10.15 c -1.75,1.37 0.22,3.69 2,3.37 z"
             transform="translate(2.7,1.38)"
             id="path10" />
          <path
             class="cls-5"
             d="m 133.51,72.07 a 80.26,80.26 0 0 0 5.6,-5.77 c 1.7,-2 4.13,-4.54 3.77,-7.37 -0.25,-1.93 -1.92,-4 -4.16,-3.16 -2.86,1 -4,3.56 -5.37,6.09 -1.29,2.38 -2.53,4.73 -4,7 -1.6,2.56 2,5.23 4.12,3.18 z"
             transform="translate(2.7,1.38)"
             id="path11" />
          <path
             class="cls-6"
             d="m 0.59,57 c -11.52,25.58 9.11,52.32 33.21,60.32 13.92,4.62 28.84,2.51 42.81,-0.73 a 140.93,140.93 0 0 0 20.39,-6.26 38.6,38.6 0 0 0 8.8,-4.82 29.84,29.84 0 0 0 3.6,-3 c 1.44,-1.49 1.77,-3.11 2.83,-4.75 3.51,-5.42 -3.63,-13 -9.11,-9.11 1.59,-0.11 1.66,-0.08 0.2,0.09 a 4,4 0 0 0 -2,0.53 31.39,31.39 0 0 0 -3.46,1.89 57.13,57.13 0 0 1 -6.22,2.68 144.13,144.13 0 0 1 -17,5.32 C 64,101.8 52.2,104.39 41.3,101.7 20.18,96.47 10.65,77.18 5.64,57.7 c -0.55,-2.14 -4,-2.89 -5,-0.66 z"
             transform="translate(2.7,1.38)"
             id="path15" />
          <path
             class="cls-6"
             d="m 61.57,140.39 c 13.07,1.81 26.29,-0.24 38.65,-4.78 a 89.18,89.18 0 0 0 17.2,-8.39 c 5,-3.18 12.33,-7.51 13.94,-13.48 a 3.94,3.94 0 0 0 -4.79,-4.79 c -5.21,1.08 -9.88,6.55 -14.28,9.49 a 100.72,100.72 0 0 1 -14.92,8.3 c -11.08,4.94 -23,7 -35,8 -2.94,0.26 -4.19,5.15 -0.76,5.62 z"
             transform="translate(2.7,1.38)"
             id="path16" />
          <path
             class="cls-6"
             d="m 93.81,144.6 c 15.21,6.82 35.23,2 49.83,-4.5 15.17,-6.75 25.87,-17.67 31.36,-33.34 2.66,-7.62 5.78,-16.84 5.58,-25 -0.23,-9 -8.69,-10.35 -13.63,-3.7 -4.94,6.65 -6.65,15.47 -10.65,22.74 a 46.69,46.69 0 0 1 -12.94,14.54 c -6.67,4.89 -14.51,7.77 -22.42,10 -9,2.49 -19.35,3.49 -27.13,9.09 -3.19,2.3 -4.45,8.22 0,10.22 z"
             transform="translate(2.7,1.38)"
             id="path17" />
          <path
             class="cls-6"
             d="m 168.72,84.53 a 134,134 0 0 1 -2.91,22 c -1.18,5.8 -4.92,13.57 -1.68,19.18 a 3.3,3.3 0 0 0 3.66,1.49 c 7.44,-2.33 8.68,-12.68 9.49,-19.21 1,-8.12 -0.24,-16.52 -2.58,-24.28 a 3.06,3.06 0 0 0 -6,0.81 z"
             transform="translate(2.7,1.38)"
             id="path18" />
        </g>
      </g>
      <path
         class="cls-7"
         d="m 173.42002,80.369743 c -0.12,1 -0.2,19.719997 -0.72,25.249997 -0.52,5.53 9.1,-12.119997 9.1,-12.119997 2.56354,-8.612587 2.52179,-17.791092 -0.12,-26.38"
         id="path24"
         style="display:inline"
         sodipodi:nodetypes="cscc" />
      <path
         class="cls-7"
         d="m 92.040019,119.82974 c 0,0 -42.13,2.05 -51.5,-4.85 0,0 5.36,0.24 18,-6"
         id="path25"
         style="display:inline" />
      <path
         class="cls-7"
         d="m 172.62002,90.139743 c -5.22,12.549997 -16.55,29.839997 -39.14,34.839997 0,0 -37.490001,7.25 -59.410001,-1.3"
         id="path26"
         style="display:inline" />
      <path
         class="cls-7"
         d="m 7.6100192,42.499743 c -6.53,41.46 25.2799998,63.929997 45.0499998,64.999997 19.77,1.07 36.54,-6.73 36.54,-6.73"
         id="path27"
         style="display:inline" />
      <path
         class="cls-7"
         d="m 179.05999,34.539814 c 0,0 -8.12997,-35.8700706 -47.93997,-28.5600706 -25.51,4.6999996 -37.600001,16.0699996 -43.000001,23.6399996 -6.512067,9.221453 -16.040992,15.87826 -26.94,18.82 -10.69,2.81 -23,2.14 -32,-9.91 -19.7199998,-26.29 17.17,-12.85 17.17,-12.85 0,0 -32.21,-24.6399996 -38.7399998,16.82"
         id="path28"
         sodipodi:nodetypes="ccccccc" />
    </g>
  </g>
</svg>
