<svg xmlns="http://www.w3.org/2000/svg" xmlns:xlink="http://www.w3.org/1999/xlink" viewBox="0 0 369.88 149.29"><defs><style>.cls-1,.cls-7{fill:none;}.cls-2{fill:#663117;}.cls-2,.cls-7{stroke:#381605;stroke-linecap:round;stroke-linejoin:round;stroke-width:5px;}.cls-3{opacity:0.33;}.cls-4{clip-path:url(#clip-path);}.cls-5{fill:#e6fff2;}.cls-6{fill:#901a3d;}</style><clipPath id="clip-path" transform="translate(2.7 1.38)"><path class="cls-1" d="M351.42,23c-13.93-39.58-41.14-9.51-41.14-9.51S344.12-6.47,329.53,23c-8.42,17-25.21,17.16-37.93,14.29a44.67,44.67,0,0,1-21.4-12.06c-6.56-6.47-20.54-15.73-46.85-15.73-40.48,0-44.46,33.18-44.46,33.18l.57.31-1.39.65S168.14,11.68,128.33,19c-25.51,4.7-37.6,16.07-43,23.63A48.38,48.38,0,0,1,58.39,61.44c-10.69,2.81-23,2.15-32-9.91C6.67,25.24,43.56,38.69,43.56,38.69S11.35,14.05,4.82,55.5s25.28,63.94,45.05,65a71.3,71.3,0,0,0,8.79-.07C43.94,128.27,37.75,128,37.75,128c9.37,6.89,51.5,4.83,51.5,4.83l-17.5,3.9s23.94,9.08,58.94,1.28c23.58-5.25,34.88-23.85,39.78-36.47-.1,6.08-.26,13.84-.56,17.09-.51,5.54,9.1-12.12,9.1-12.12a43.75,43.75,0,0,0,1.79-15.69c3.08,10.07,9.1,22.89,19.78,30,18.91,12.6,12.94,2,12.94,2s-2.79-5-6.38-11.6c8.16,8,19.77,15.1,35.45,15.68,35.84,1.33,57.74-11.94,57.74-11.94l-17.92-.67s41.81-5.61,49.77-14.09c0,0-6,1.37-21.68-3.55,2.76-.4,5.59-.92,8.41-1.6C338.15,90.41,365.36,62.54,351.42,23Z"/></clipPath></defs><g id="Calque_2" data-name="Calque 2"><g id="Warstwa_16" data-name="Warstwa 16"><path class="cls-2" d="M170.47,101.54s9-24,24.88-11.94,58.4,17.45,58.4,17.45l41.81-37.78L190,37.32l-13.43,6.27-50.27-6.27L75.91,92.4,99.8,120.62l61.05-20.41Z" transform="translate(2.7 1.38)"/><path class="cls-2" d="M190,87.09c.67,3.32,15.27,38.49,51.1,39.82s57.73-12,57.73-12L281,114.3s41.8-5.61,49.77-14.09c0,0-9.29,2.15-35.17-8.47" transform="translate(2.7 1.38)"/><path class="cls-2" d="M177.44,42.63s4-33.18,44.46-33.18c26.31,0,40.28,9.26,46.84,15.73a44.66,44.66,0,0,0,21.41,12.06c12.71,2.87,29.51,2.67,37.92-14.29,14.6-29.42-19.24-9.51-19.24-9.51S336-16.63,350,23,336.7,90.41,317.45,95.06,279,97.12,279,97.12" transform="translate(2.7 1.38)"/><path class="cls-2" d="M169.17,93.37c-.11,1-.2,19.72-.71,25.26s9.09-12.12,9.09-12.12a45.6,45.6,0,0,0-.11-26.38" transform="translate(2.7 1.38)"/><path class="cls-2" d="M169.17,93.37c0,3.38-4.93,36.84-39.93,44.64s-58.95-1.28-58.95-1.28l17.5-3.9S45.66,134.89,36.3,128c0,0,9.52.42,33.05-14.71" transform="translate(2.7 1.38)"/><path class="cls-2" d="M176.61,43.59S166.68,11.68,126.87,19c-25.51,4.7-37.59,16.07-43,23.63A48.35,48.35,0,0,1,56.93,61.44c-10.69,2.81-23,2.15-32-9.91C5.21,25.24,42.1,38.69,42.1,38.69S9.9,14.05,3.37,55.5s25.28,63.94,45,65S85,113.79,85,113.79" transform="translate(2.7 1.38)"/><path class="cls-2" d="M176.7,76.37c-.8,1.32,3.51,31.85,22.42,44.46s12.94,2,12.94,2S190.5,84.33,190.16,79" transform="translate(2.7 1.38)"/><g class="cls-3"><g class="cls-4"><path class="cls-5" d="M16.78,32.07C10,43.61,14.12,56.67,23.45,65.62c11,10.51,26.36,12.58,40.81,9.75C79,72.49,91.9,63.27,102.7,53.22c9.44-8.79,17.15-21.64,30.26-25.06,6.58-1.72,13.57-1.26,20.24-.21s15.35,5.86,21.84,3.3c2.5-1,4.1-3.21,3.41-6-1.89-7.62-11.88-10.91-18.43-13.2a58.46,58.46,0,0,0-23.64-3.24,50.37,50.37,0,0,0-23.19,7.26c-7.88,5-14,12.15-20.5,18.75C81.67,46,68.11,57.1,51.57,57.26c-14.3.14-26.64-10.61-29.65-24.52-.52-2.42-4-2.67-5.14-.67Z" transform="translate(2.7 1.38)"/><path class="cls-5" d="M106.21,71c9.82-1.81,23.79-10.53,23.32-22a2,2,0,0,0-3-1.7c-4.41,2.41-7.18,6.65-10.71,10.14a140.09,140.09,0,0,1-11.61,10.15c-1.75,1.37.22,3.69,2,3.37Z" transform="translate(2.7 1.38)"/><path class="cls-5" d="M133.51,72.07a80.26,80.26,0,0,0,5.6-5.77c1.7-2,4.13-4.54,3.77-7.37-.25-1.93-1.92-4-4.16-3.16-2.86,1-4,3.56-5.37,6.09-1.29,2.38-2.53,4.73-4,7-1.6,2.56,2,5.23,4.12,3.18Z" transform="translate(2.7 1.38)"/><path class="cls-5" d="M202.2,37.56c-3,2.34-.66,7.46.68,10.27,1.73,3.63,4.36,7.8,8.43,9a1.75,1.75,0,0,0,2.14-2.13c-.78-3.88-3.76-7.45-5.56-10.94-.67-1.31-2.87-8.31-5.69-6.15Z" transform="translate(2.7 1.38)"/><path class="cls-5" d="M214.83,39.54a21.07,21.07,0,0,0,3.87,7.78c1.62,2,4,4.69,6.8,4.7a2,2,0,0,0,1.74-3c-.93-1.91-3.18-3.07-4.49-4.76a16.09,16.09,0,0,1-2.86-6.09c-.81-3.27-5.92-1.88-5.06,1.4Z" transform="translate(2.7 1.38)"/><path class="cls-5" d="M237.34,8.68c15.54,17.92,35.54,34.68,59.84,37.92,5.77.76,12.07,1.21,17.72-.5,5.84-1.77,9.89-5.77,13.3-10.65a55.81,55.81,0,0,0,7.5-15.3c1.86-6.09,1.58-11.42.21-17.51-1-4.32-8.22-5.76-10.11-1.32-3.34,7.8-6.15,16.44-10.63,23.69-2.19,3.53-4,5.34-8.23,5.74a47.33,47.33,0,0,1-14.29-1c-19.47-4.23-35.18-15.43-52.24-25-2.58-1.45-4.92,1.84-3.07,4Z" transform="translate(2.7 1.38)"/><path class="cls-6" d="M.59,57C-10.93,82.58,9.7,109.32,33.8,117.32c13.92,4.62,28.84,2.51,42.81-.73A140.93,140.93,0,0,0,97,110.33a38.6,38.6,0,0,0,8.8-4.82,29.84,29.84,0,0,0,3.6-3c1.44-1.49,1.77-3.11,2.83-4.75,3.51-5.42-3.63-13-9.11-9.11,1.59-.11,1.66-.08.2.09a4,4,0,0,0-2,.53,31.39,31.39,0,0,0-3.46,1.89,57.13,57.13,0,0,1-6.22,2.68,144.13,144.13,0,0,1-17,5.32C64,101.8,52.2,104.39,41.3,101.7c-21.12-5.23-30.65-24.52-35.66-44-.55-2.14-4-2.89-5-.66Z" transform="translate(2.7 1.38)"/><path class="cls-6" d="M61.57,140.39c13.07,1.81,26.29-.24,38.65-4.78a89.18,89.18,0,0,0,17.2-8.39c5-3.18,12.33-7.51,13.94-13.48a3.94,3.94,0,0,0-4.79-4.79c-5.21,1.08-9.88,6.55-14.28,9.49a100.72,100.72,0,0,1-14.92,8.3c-11.08,4.94-23,7-35,8-2.94.26-4.19,5.15-.76,5.62Z" transform="translate(2.7 1.38)"/><path class="cls-6" d="M93.81,144.6c15.21,6.82,35.23,2,49.83-4.5,15.17-6.75,25.87-17.67,31.36-33.34,2.66-7.62,5.78-16.84,5.58-25-.23-9-8.69-10.35-13.63-3.7S160.3,93.53,156.3,100.8a46.69,46.69,0,0,1-12.94,14.54c-6.67,4.89-14.51,7.77-22.42,10-9,2.49-19.35,3.49-27.13,9.09-3.19,2.3-4.45,8.22,0,10.22Z" transform="translate(2.7 1.38)"/><path class="cls-6" d="M168.72,84.53a134,134,0,0,1-2.91,22c-1.18,5.8-4.92,13.57-1.68,19.18a3.3,3.3,0,0,0,3.66,1.49c7.44-2.33,8.68-12.68,9.49-19.21,1-8.12-.24-16.52-2.58-24.28a3.06,3.06,0,0,0-6,.81Z" transform="translate(2.7 1.38)"/><path class="cls-6" d="M191.52,77.47c.64,5.76,1.51,10.92,4.08,16.2a77.42,77.42,0,0,0,10,15.22,84.65,84.65,0,0,0,28.22,21.77A89.82,89.82,0,0,0,273,139.47a97.7,97.7,0,0,0,20.94-2.37c6.62-1.47,14.77-3.55,19.43-8.72s1.7-14.69-6-14.45c-5.87.18-11.21,3-16.8,4.6a73.67,73.67,0,0,1-16.73,2.83,80,80,0,0,1-33-5.39c-19.13-7.42-33.42-23.6-45.61-39.49-1-1.33-3.92-1.21-3.67,1Z" transform="translate(2.7 1.38)"/><path class="cls-6" d="M274.64,92.81c5.25,6.26,15.05,6.23,22.55,6.08A98.93,98.93,0,0,0,324.72,94,117.57,117.57,0,0,0,349.6,83c7.23-4.3,15.71-10.73,17.51-19.37.39-1.83-.87-4.24-3.07-4-7,.68-13.52,4.76-19.48,8.33a128.08,128.08,0,0,1-20.81,10.35,132.11,132.11,0,0,1-22,5.86c-3.67.68-7.31,1.35-11,1.81-3,.36-8.55,2.46-11.33.79-4-2.4-7.44,2.86-4.71,6.11Z" transform="translate(2.7 1.38)"/><path class="cls-6" d="M180.81,43.91c3.43-2.13,5.23-5.9,7.38-9.21a96.41,96.41,0,0,1,9.26-12.29c6.09-6.7,13.7-10.92,22.12-14,2.26-.82,2.8-4.58,0-5.15-10.09-2.06-19.63,3.11-26.63,10.1a58.84,58.84,0,0,0-9.85,13.29c-2.46,4.44-6.11,9.94-5.88,15.19a2.42,2.42,0,0,0,3.6,2.06Z" transform="translate(2.7 1.38)"/></g></g><path class="cls-7" d="M213.11,117.13a51.17,51.17,0,0,0,28.5,9.79c35.83,1.33,57.73-11.94,57.73-11.94l-17.92-.66s41.81-5.62,49.77-14.09c0,0-5.86,1.35-21.24-3.41" transform="translate(2.7 1.38)"/><path class="cls-7" d="M177.9,42.65s4-33.18,44.46-33.18c26.31,0,40.29,9.25,46.85,15.73a44.74,44.74,0,0,0,21.4,12.05c12.72,2.88,29.51,2.68,37.93-14.28,14.6-29.43-19.25-9.52-19.25-9.52S336.5-16.62,350.43,23s-13.27,67.46-32.51,72.1-38.49,2.07-38.49,2.07" transform="translate(2.7 1.38)"/><path class="cls-7" d="M169.64,93.39c-.12,1-.2,19.72-.72,25.25s9.1-12.12,9.1-12.12a45.54,45.54,0,0,0-.12-26.38" transform="translate(2.7 1.38)"/><path class="cls-7" d="M88.26,132.85S46.13,134.9,36.76,128c0,0,5.36.24,18-6" transform="translate(2.7 1.38)"/><path class="cls-7" d="M168.84,103.16C163.62,115.71,152.29,133,129.7,138c0,0-37.49,7.25-59.41-1.3" transform="translate(2.7 1.38)"/><path class="cls-7" d="M3.83,55.52c-6.53,41.46,25.28,63.93,45.05,65s36.54-6.73,36.54-6.73" transform="translate(2.7 1.38)"/><path class="cls-7" d="M177.08,43.6S167.15,11.69,127.34,19c-25.51,4.7-37.6,16.07-43,23.64A48.43,48.43,0,0,1,57.4,61.46c-10.69,2.81-23,2.14-32-9.91C5.68,25.26,42.57,38.7,42.57,38.7S10.36,14.06,3.83,55.52" transform="translate(2.7 1.38)"/><path class="cls-7" d="M213.11,117.13c-9.89-14.86-22.17-34-22.48-38.1" transform="translate(2.7 1.38)"/><path class="cls-7" d="M177.17,76.38c-.81,1.33,3.5,31.85,22.42,44.46s12.94,2,12.94,2-1.58-2.82-3.89-7" transform="translate(2.7 1.38)"/></g></g></svg>