<?xml version="1.0" encoding="UTF-8"?>
<svg id="Calque_2" data-name="Calque 2" xmlns="http://www.w3.org/2000/svg" xmlns:xlink="http://www.w3.org/1999/xlink" viewBox="0 0 20.77 108.38">
  <defs>
    <style>
      .cls-1 {
        fill: #5f4600;
      }

      .cls-1, .cls-2, .cls-3, .cls-4, .cls-5, .cls-6, .cls-7, .cls-8 {
        stroke-width: 0px;
      }

      .cls-2 {
        fill: #df9bed;
      }

      .cls-9 {
        fill: #b653b0;
        stroke: #575300;
      }

      .cls-9, .cls-10, .cls-11, .cls-12 {
        stroke-linecap: round;
        stroke-linejoin: round;
      }

      .cls-9, .cls-10, .cls-12 {
        stroke-width: 2.52px;
      }

      .cls-4 {
        fill: #782d3e;
      }

      .cls-5 {
        fill: #effdf4;
      }

      .cls-6, .cls-12 {
        fill: none;
      }

      .cls-7, .cls-11 {
        fill: #fff;
      }

      .cls-13 {
        opacity: .32;
      }

      .cls-10, .cls-8 {
        fill: #ffe366;
      }

      .cls-10, .cls-12 {
        stroke: #5f4600;
      }

      .cls-14 {
        clip-path: url(#clippath);
      }

      .cls-11 {
        stroke: #131e3e;
        stroke-width: 2.01px;
      }
    </style>
    <clipPath id="clippath">
      <path class="cls-6" d="m11.23,108.38c0-1.38-9.35-23.58-9.35-23.58V3.01s16.07,2.71,17.53,2.23,0,82.77,0,82.77l-8.18,20.36Z"/>
    </clipPath>
  </defs>
  <g id="Layer_1" data-name="Layer 1">
    <g>
      <path class="cls-10" d="m10.6,106.62c0-1.38-9.35-23.58-9.35-23.58V1.26s16.07,2.71,17.53,2.23,0,82.77,0,82.77l-8.18,20.36Z"/>
      <g>
        <path class="cls-7" d="m2.04,85.17c.7,2.56,1.51,4.53,2.8,6.85s2.45,4.59,3.57,6.94c1.47,3.05,6.28.89,5.4-2.27-.65-2.32-.9-4.46-.44-6.84l-5.16,1.36c.63.75.91,1.55,1.14,2.48.93,3.8,6.42,2.8,6.6-.89.02-.43,0-1.7.3-1.76l-2.92-6.93c-4.36,2.91-9.03,7.74-6.15,13.28.75,1.44,2.77,2.25,4.31,1.75.4-.13.8-.3,1.17-.49,1.41-.72,1.56-2.46.98-3.74s.2-4.28.59-5.51l-7.76-1.05c-.04,1.5.03,3,.13,4.5.47,7.04,11.21,5.55,9.5-1.29l-.21-.86c-1.09-4.37-7.86-4.44-8.91,0l-.2.86,9.5,1.29c.1-2.73-.92-5.53-3.06-7.29-1.54-1.26-3.53-1.59-5.19-.31-1.41,1.09-2.2,3.51-1.02,5.09,1.31,1.75,2.17,3.63,2.66,5.77l1.45-2.55-.57.09,3.36,3.36c-.24,1.22.37-1.26.37-1.55,0-1.17-.1-1.34-.31-.53.18-.33.38-.64.62-.94.99-1.5,1.97-2.73,3.32-3.93,2.79-2.46-.15-7.58-3.69-6.34-4.09,1.44-5.33,5-5,9.07l6.6-.89c-.76-1.96-1.73-3.6-3.25-5.06-2.03-1.95-5.07-.44-5.27,2.18-.24,3.11,0,6.22.81,9.23l5.4-2.27c-1.11-2.36-2.3-4.66-3.63-6.91-1.4-2.37-2.76-3.91-4.93-5.6-1.29-1-3.42-.13-2.92,1.7h0Z"/>
        <path class="cls-2" d="m6.63,7.59l-.07-.46-.87,2.15.21-.16-3.49-2c.04.34-.02.65-.18.96h5.92c-.19-.25-.24-.52-.14-.79l-6.17,1.67.32.54-.46-1.71-.02.63h6.94c.01-.75-.04-1.45-.12-2.2l-6.7,1.82c1.45,2.75,4.01,2.9,6.74,3.06.76.04,1.85.77,2.93.79.86.02,1.62-.47,2.41-.57-.24.03-.48-.17-.15.09,1.42,1.14,3.21,1.46,4.74.28,1.28-.99,2.02-3.22.93-4.65s-2.32-2.47-4.13-2.86-3.14.28-4.77.51h1.95c-.82-.33-1.77-.8-2.94-.87-.41-.03-.88-.05-1.29.03-1.15.21-.65-.24-.21.57C6.39,1.47.87,2.56,1.31,6.22c.13,1.05.25,2.09.49,3.12,1.05,4.36,7.64,2.51,6.69-1.85-.23-1.08-.67-1.78-1.46-2.55-2.39-2.35-6.31.03-5.53,3.22.2.83.52,1.59,1.03,2.28,1.87,2.57,6.94,1.16,5.61-2.37-.49-1.3-1.07-2.19-2.25-2.96-2.17-1.41-4.91,2.01-2.81,3.64.52.41.91.67,1.57.81,1.29.27,2.16-.74,1.97-1.97h0Z"/>
        <path class="cls-9" d="m1.26,83.05s5.18-1.12,5.85,3.21c0,0,4.99-4.55,6.77,0,0,0,.37-5.57,3.89-1.77"/>
        <path class="cls-3" d="m11.72,99.33c.36-.34.07-.77-.26-.93-.22-.11-.58-.12-.75.1-.16.2-.27.36-.27.63,0,.11.02.21.04.32,0,.05.02.09.03.14.03.1.03.09,0-.04l.2-.34-.06.05.36-.21h.08c.28.36.57.73.85,1.11.1-.58.34-1.31.27-1.89l-3.27.44c.04.2.05.19,0-.03,0,.1,0,.19,0,.29.03-.25.03-.27,0-.06-.02.1-.05.19-.09.28h3.7c-.03-.1-.05-.2-.08-.29-.11-.36,0,.23,0,0s0-.46.02-.69h-4.19c.08.61.15,1.21.26,1.81.01.07.09.45.02.1-.1-.46.05.47.06.51.07.32.21.67.4.93.36.5.75.84,1.34,1.03.67.22,1.41.02,1.95-.4,1.1-.85,1.12-2.34.23-3.34.27.29.41.62.41,1l-.08-.59c-.04-.19-.11-.38-.16-.57-.1-.35-.22-.7-.33-1.04-.34-.99-1.23-1.64-2.3-1.5-.95.13-1.91,1.02-1.81,2.06.08.89.28,1.69.75,2.46.43.7,1.35,1.15,2.17.88s1.34-.97,1.41-1.85c.07-.79-.18-1.63-.64-2.27-.51-.7-1.47-1.12-2.28-.6s-1.06,1.47-.6,2.28c.32.56.9.99,1.36,1.44.32.31.94.37,1.25,0,.28-.34.36-.67.27-1.1-.04-.17-.15-.32-.2-.48-.04-.13-.05-.25-.12-.37l.06.42v-.03c-.1.11-.21.23-.33.34l-.29-.13-.04-.32-.02.06c-.11.39.38.66.67.39h0Z"/>
      </g>
      <g>
        <path class="cls-8" d="m7.3,28.95c-1.15,15.32-1.42,30.71-.83,46.06"/>
        <path class="cls-1" d="m6.76,28.95c-1.86,15.07-2.64,30.91-1.35,46.06.11,1.34,2.1,1.39,2.12,0,.19-15.35-.01-30.7.31-46.06.02-.72-1-.67-1.08,0h0Z"/>
      </g>
      <g>
        <path class="cls-8" d="m13.02,30.5c.14,15.21.28,30.42.42,45.63"/>
        <path class="cls-1" d="m12.65,30.5c-.29,15.2-.2,30.42-.09,45.63,0,1.15,1.81,1.16,1.79,0-.18-15.21-.37-30.43-.94-45.63-.02-.48-.75-.49-.75,0h0Z"/>
      </g>
      <path class="cls-7" d="m3.42,85.43c.67,0,.67-1.04,0-1.04s-.67,1.04,0,1.04h0Z"/>
      <g class="cls-13">
        <g class="cls-14">
          <path class="cls-4" d="m13.24,106.5c3.05-7.66,8.07-14.69,10.04-22.75,2.1-8.62,1.8-17.76,1.88-26.57.1-9.89.19-19.78.29-29.68.05-4.95.1-9.89.15-14.84.05-4.58.79-9.26-1.28-13.45-1.02-2.07-4.38-2.02-5.42,0-2.14,4.14-1.45,8.89-1.49,13.45s-.07,9.23-.1,13.85c-.08,10.22-.15,20.44-.23,30.67-.07,8.96.55,18.24-1.81,26.98-1.88,6.97-8.42,14.83-5.8,22.33.67,1.91,3.06,1.79,3.77,0h0Z"/>
          <path class="cls-5" d="m.55-4.93C-1.44-2.08-1.26,1.23-1.5,4.66c-.27,3.96-.42,7.92-.53,11.89-.22,8.26-.33,16.52-.17,24.78s.49,15.86.97,23.78c.47,7.75.04,16.91,2.62,24.28.6,1.71,3.61,2.18,3.96,0,1.19-7.45-.39-15.75-.74-23.29-.39-8.25-.63-16.51-.73-24.77s-.17-15.86-.04-23.79c.06-3.96.17-7.93.22-11.89.05-3.66.61-7.32-1.19-10.58-.52-.94-1.77-.79-2.32,0h0Z"/>
          <path class="cls-5" d="m1.49,4.92c2.69.3,5.33.32,8.04.49,2.51.15,5.03.96,7.49.4,1.97-.45,1.89-2.91.51-3.92C15.43.34,12.07.32,9.53.25,6.47.16,3.87.51,1.05,1.68c-1.73.72-1.47,3.03.44,3.24h0Z"/>
        </g>
      </g>
      <polygon class="cls-11" points="1.21 11.13 19.36 12.55 19.43 20.93 1.26 20.93 1.21 11.13"/>
      <path class="cls-12" d="m10.68,106.62c0-1.38-9.35-23.58-9.35-23.58V1.26s16.07,2.71,17.53,2.23,0,82.77,0,82.77l-8.18,20.36Z"/>
    </g>
  </g>
</svg>