<?xml version="1.0" encoding="UTF-8" standalone="no"?>
<svg
   viewBox="0 0 16.999999 44"
   version="1.1"
   id="svg18"
   sodipodi:docname="butterfly-body.svg"
   width="17"
   height="44"
   inkscape:version="1.4.2 (2aeb623e1d, 2025-05-12)"
   xmlns:inkscape="http://www.inkscape.org/namespaces/inkscape"
   xmlns:sodipodi="http://sodipodi.sourceforge.net/DTD/sodipodi-0.dtd"
   xmlns="http://www.w3.org/2000/svg"
   xmlns:svg="http://www.w3.org/2000/svg">
  <sodipodi:namedview
     id="namedview18"
     pagecolor="#ffffff"
     bordercolor="#000000"
     borderopacity="0.25"
     inkscape:showpageshadow="2"
     inkscape:pageopacity="0.0"
     inkscape:pagecheckerboard="0"
     inkscape:deskcolor="#d1d1d1"
     inkscape:zoom="8.3454569"
     inkscape:cx="21.508709"
     inkscape:cy="20.190626"
     inkscape:window-width="1600"
     inkscape:window-height="836"
     inkscape:window-x="0"
     inkscape:window-y="27"
     inkscape:window-maximized="1"
     inkscape:current-layer="g13" />
  <defs
     id="defs1">
    <style
       id="style1">.cls-1,.cls-8,.cls-9{fill:none;}.cls-2{fill:#f7bcf6;}.cls-2,.cls-8{stroke:#d04b9b;}.cls-2,.cls-3,.cls-8,.cls-9{stroke-miterlimit:10;stroke-width:5px;}.cls-3{fill:#393895;}.cls-3,.cls-9{stroke:#1e1854;}.cls-4{opacity:0.44;}.cls-5{clip-path:url(#clip-path);}.cls-6{fill:#901a3d;}.cls-7{fill:#e6fff2;}</style>
    <clipPath
       id="clip-path"
       transform="translate(2.05)">
      <path
         class="cls-1"
         d="M 75.1,4 C 56.43,-1.61 50.92,15 49.3,25.45 c -0.86,-5.59 -3.7,-5.53 -3.7,-5.53 0,0 -2.77,-1.2 -4.43,3.14 C 39.09,12.7 33.09,-1.2 15.79,4 c -26.6,8 -4,36.5 -4,36.5 a 29.35,29.35 0 0 0 7,4.58 c -3.26,2.23 -5.13,5.36 -3.75,9.75 4.59,14.6 17.2,19.25 26.49,8 a 17.89,17.89 0 0 0 3.47,-6.58 0.8,0.8 0 0 0 0.43,0.06 c 0.2,-0.52 0.38,-1 0.52,-1.33 a 17.6,17.6 0 0 0 3.81,7.8 c 9.29,11.28 21.9,6.63 26.48,-8 1.4,-4.45 -0.53,-7.6 -3.87,-9.84 a 29,29 0 0 0 6.8,-4.49 c 0,0 22.54,-28.51 -4.07,-36.45 z M 48.62,38 v 3.21 c -0.25,0.42 -0.51,0.91 -0.79,1.46 0.22,-1.3 0.47,-2.84 0.79,-4.67 z"
         id="path1" />
    </clipPath>
  </defs>
  <g
     id="Calque_2"
     data-name="Calque 2">
    <g
       id="Warstwa_4"
       data-name="Warstwa 4">
      <path
         class="cls-3"
         d="m 9.3152612,40.493011 c 0,0 -3.83,1.08 -5.25,-19.14 -1.42,-20.22 5.44,-17.25 5.44,-17.25 0,0 6.2399998,-0.15 2.9999998,18.12 -3.2399998,18.27 -0.44,11.47 -3.1899998,18.27 z"
         id="path6" />
      <g
         class="cls-4"
         id="g14">
        <g
           class="cls-5"
           clip-path="url(#clip-path)"
           id="g13">
          <path
             class="cls-7"
             d="m 5.8452612,12.893011 a 4.17,4.17 0 0 0 1.51,1 2.33,2.33 0 0 0 1.15,0.31 c 0.23,0 0.47,0.07 0.7,0.09 a 3.55,3.55 0 0 0 1.7599998,-0.39 3.5,3.5 0 0 0 1.46,-0.94 3.44,3.44 0 0 0 0.94,-1.47 3.49,3.49 0 0 0 0.39,-1.75 4.6,4.6 0 0 0 -1.33,-3.22 4.49,4.49 0 0 0 -3.2199998,-1.34 h -0.14 a 3.51,3.51 0 0 0 -1.75,0.39 2.22,2.22 0 0 0 -1,0.59 2.5,2.5 0 0 0 -0.51,0.4 3.36,3.36 0 0 0 -0.92,1.44 3.4,3.4 0 0 0 -0.39,1.72 4.62,4.62 0 0 0 1.31,3.16 z"
             id="path13" />
        </g>
      </g>
      <path
         class="cls-9"
         d="m 4.9052612,6.883011 c 1.66,-4.35 4.43,-3.15 4.43,-3.15 0,0 6.4999998,-1.77 2.9999998,18.13 -3.0999998,17.77 -0.56,12.53 -3.0599998,17.93 a 0.51,0.51 0 0 1 -0.66,0.25 c -1.09,-0.49 -3.64,-3.35 -4.74,-19 -0.51,-7.35 0.07,-11.63 1,-14.11"
         id="path18" />
    </g>
  </g>
</svg>
