<?xml version="1.0" encoding="UTF-8" standalone="no"?>
<svg
   viewBox="0 0 50.999998 73.61"
   version="1.1"
   id="svg18"
   sodipodi:docname="left-wing.svg"
   width="51"
   height="73.610001"
   inkscape:version="1.4.2 (2aeb623e1d, 2025-05-12)"
   xmlns:inkscape="http://www.inkscape.org/namespaces/inkscape"
   xmlns:sodipodi="http://sodipodi.sourceforge.net/DTD/sodipodi-0.dtd"
   xmlns="http://www.w3.org/2000/svg"
   xmlns:svg="http://www.w3.org/2000/svg">
  <sodipodi:namedview
     id="namedview18"
     pagecolor="#ffffff"
     bordercolor="#000000"
     borderopacity="0.25"
     inkscape:showpageshadow="2"
     inkscape:pageopacity="0.0"
     inkscape:pagecheckerboard="0"
     inkscape:deskcolor="#d1d1d1"
     inkscape:zoom="8.3454569"
     inkscape:cx="48.169921"
     inkscape:cy="37.805"
     inkscape:window-width="1600"
     inkscape:window-height="836"
     inkscape:window-x="0"
     inkscape:window-y="27"
     inkscape:window-maximized="1"
     inkscape:current-layer="svg18" />
  <defs
     id="defs1">
    <style
       id="style1">.cls-1,.cls-8,.cls-9{fill:none;}.cls-2{fill:#f7bcf6;}.cls-2,.cls-8{stroke:#d04b9b;}.cls-2,.cls-3,.cls-8,.cls-9{stroke-miterlimit:10;stroke-width:5px;}.cls-3{fill:#393895;}.cls-3,.cls-9{stroke:#1e1854;}.cls-4{opacity:0.44;}.cls-5{clip-path:url(#clip-path);}.cls-6{fill:#901a3d;}.cls-7{fill:#e6fff2;}</style>
    <clipPath
       id="clip-path"
       transform="translate(2.05)">
      <path
         class="cls-1"
         d="M 75.1,4 C 56.43,-1.61 50.92,15 49.3,25.45 c -0.86,-5.59 -3.7,-5.53 -3.7,-5.53 0,0 -2.77,-1.2 -4.43,3.14 C 39.09,12.7 33.09,-1.2 15.79,4 c -26.6,8 -4,36.5 -4,36.5 a 29.35,29.35 0 0 0 7,4.58 c -3.26,2.23 -5.13,5.36 -3.75,9.75 4.59,14.6 17.2,19.25 26.49,8 a 17.89,17.89 0 0 0 3.47,-6.58 0.8,0.8 0 0 0 0.43,0.06 c 0.2,-0.52 0.38,-1 0.52,-1.33 a 17.6,17.6 0 0 0 3.81,7.8 c 9.29,11.28 21.9,6.63 26.48,-8 1.4,-4.45 -0.53,-7.6 -3.87,-9.84 a 29,29 0 0 0 6.8,-4.49 c 0,0 22.54,-28.51 -4.07,-36.45 z M 48.62,38 v 3.21 c -0.25,0.42 -0.51,0.91 -0.79,1.46 0.22,-1.3 0.47,-2.84 0.79,-4.67 z"
         id="path1" />
    </clipPath>
  </defs>
  <g
     id="Calque_2"
     data-name="Calque 2"
     transform="translate(-0.59912837,0.9586054)">
    <g
       id="Warstwa_4"
       data-name="Warstwa 4">
      <path
         class="cls-2"
         d="m 41.32,39.55 c 0,0 -31.07,0.67 -26.49,15.26 4.58,14.59 17.2,19.25 26.49,8 9.29,-11.25 0,-23.26 0,-23.26 z"
         transform="translate(2.05)"
         id="path2" />
      <path
         class="cls-2"
         d="m 42.13,33.18 c 0,0 0.12,-37.18 -26.48,-29.18 -26.6,8 -4,36.5 -4,36.5 0,0 14.55,13.91 30.48,2.63 z"
         transform="translate(2.05)"
         id="path5" />
      <g
         class="cls-4"
         id="g14">
        <g
           class="cls-5"
           clip-path="url(#clip-path)"
           id="g13">
          <path
             class="cls-6"
             d="m 40.39,37.53 0.63,0.63 a 3.59,3.59 0 0 0 -3.13,-1.8 c -5.77,0 -12.56,-1.67 -17.33,-5 C 14.73,27.37 13.24,20 7.85,15.7 a 2.82,2.82 0 0 0 -3.8,0 c -9.62,7.76 0.1,22.62 7.86,27.63 8.36,5.39 19.43,4.39 27.85,-0.21 A 3.54,3.54 0 0 0 41.52,40 l -0.06,0.18 a 2.45,2.45 0 0 0 -1.07,-2.64 z"
             id="path8" />
          <path
             class="cls-6"
             d="m 33.96,46.72 a 7.7,7.7 0 0 1 0.52,2.06 l 0.46,-3.51 C 33.35,49 33.51,53.38 31.5,57 c -2.31,4.13 -6.58,4.12 -10,7 -3.07,2.59 -2.51,9 1.37,10.67 8.55,3.63 17.46,-3.3 21.16,-10.94 a 19.77,19.77 0 0 0 2.23,-11.76 12.94,12.94 0 0 0 -2.1,-6 A 15.3,15.3 0 0 0 41.88,44 c 1.12,1 -0.95,-1.24 -1,-1.33 -2.59,-3.27 -8.1,0.28 -6.89,4 z"
             id="path9" />
          <path
             class="cls-7"
             d="m 23.41,17.1 c -0.61,-0.24 -0.61,-0.24 0,0 a 2.78,2.78 0 0 0 1.45,0.32 6,6 0 0 0 1.41,-0.17 c 1.29,-0.34 -0.28,0 -0.12,-0.08 L 25.88,17 c 0.4,0.24 0.47,0.28 0.21,0.1 -0.26,-0.18 -0.37,-0.5 -0.53,-0.81 v -0.53 c 0,0.67 0,0.55 0.19,-0.35 0.19,-0.9 0.29,-1 0,-0.43 l 0.39,-0.55 c 0.65,-0.6 0.58,-0.56 -0.1,-0.05 h 6.45 c -0.78,-0.45 -0.1,0.19 0.16,0.23 -0.14,0 -0.56,-0.67 -0.65,-0.64 l 0.45,0.6 -0.25,-0.39 -0.22,-0.41 c 0.32,0.81 0.39,1 0.22,0.52 -0.08,-0.29 -0.16,-0.61 -0.26,-0.89 -0.27,-0.71 0,1.15 0.05,0.4 0,-0.27 0.2,-1.17 -0.05,-0.26 -0.29,1.11 0.17,-0.36 0.2,-0.45 L 25.64,18 c -1,-0.18 -1.16,-0.18 -0.43,0 -0.88,-0.43 -1,-0.47 -0.35,-0.13 0.65,0.34 0.52,0.32 -0.27,-0.24 0.49,0.54 0.41,0.44 -0.24,-0.31 -0.35,-1 -0.42,-1.1 -0.22,-0.39 A 3.68,3.68 0 0 1 24.05,15 a 3.35,3.35 0 0 1 2,-2.3 2.8,2.8 0 0 1 1.54,-0.29 c -0.76,0 -0.53,0 0.7,0.14 a 4.89,4.89 0 0 1 3.67,4.66 c 0,-0.74 0,-0.43 -0.17,0.95 0.22,-0.7 0.09,-0.42 -0.37,0.83 a 4.92,4.92 0 0 1 -1.75,1.73 q -4.37,0.69 -2.46,0.77 l -3.62,-1 c 1.22,0.86 -0.94,-1.08 0,0.07 a 7.7,7.7 0 0 0 2,1.57 l -2.3,-2.31 c 0.21,0.28 0.82,1.44 0.27,0.11 0.9,2.14 2.23,3.71 4.68,4 a 5.67,5.67 0 0 0 5.62,-2.69 9.69,9.69 0 0 0 0.19,-9.83 8.33,8.33 0 0 0 -11.58,-3.06 c -5.88,3.44 -6.33,12.26 -1,16.35 6.19,4.78 15,-0.09 16,-7.35 1,-7.26 -5.16,-12.3 -11.83,-12.7 -2.95,-0.17 -5.65,2.21 -6.45,4.91 -1.77,6 1,13.18 6.8,15.89 a 6.7,6.7 0 0 0 7.74,-1 c 4.76,-4.19 2.52,-13.19 -3.25,-15.2 a 8.63,8.63 0 0 0 -6.89,0.6 c -2.78,1.59 -3.63,5.9 -0.18,7.25 z"
             id="path12" />
        </g>
      </g>
      <path
         class="cls-8"
         d="M 40.59,21.48 C 38.29,11.29 32.1,-1.36 15.47,3.62 c -26.6,8 -4,36.5 -4,36.5 0,0 13.53,13.27 28.35,4.07"
         transform="translate(2.05)"
         id="path16" />
      <path
         class="cls-8"
         d="m 18.16,44.86 c -3.12,2.22 -4.85,5.3 -3.5,9.59 4.59,14.6 17.19,19.25 26.48,8 a 18.83,18.83 0 0 0 2.92,-4.81"
         transform="translate(2.05)"
         id="path17" />
    </g>
  </g>
</svg>
