<?xml version="1.0" encoding="UTF-8" standalone="no"?>
<svg
   viewBox="0 0 49.999998 73.61"
   version="1.1"
   id="svg18"
   sodipodi:docname="right-wing.svg"
   width="50"
   height="73.610001"
   inkscape:version="1.4.2 (2aeb623e1d, 2025-05-12)"
   xmlns:inkscape="http://www.inkscape.org/namespaces/inkscape"
   xmlns:sodipodi="http://sodipodi.sourceforge.net/DTD/sodipodi-0.dtd"
   xmlns="http://www.w3.org/2000/svg"
   xmlns:svg="http://www.w3.org/2000/svg">
  <sodipodi:namedview
     id="namedview18"
     pagecolor="#ffffff"
     bordercolor="#000000"
     borderopacity="0.25"
     inkscape:showpageshadow="2"
     inkscape:pageopacity="0.0"
     inkscape:pagecheckerboard="0"
     inkscape:deskcolor="#d1d1d1"
     inkscape:zoom="8.3454569"
     inkscape:cx="40.620904"
     inkscape:cy="38.044652"
     inkscape:window-width="1600"
     inkscape:window-height="836"
     inkscape:window-x="0"
     inkscape:window-y="27"
     inkscape:window-maximized="1"
     inkscape:current-layer="svg18" />
  <defs
     id="defs1">
    <style
       id="style1">.cls-1,.cls-8,.cls-9{fill:none;}.cls-2{fill:#f7bcf6;}.cls-2,.cls-8{stroke:#d04b9b;}.cls-2,.cls-3,.cls-8,.cls-9{stroke-miterlimit:10;stroke-width:5px;}.cls-3{fill:#393895;}.cls-3,.cls-9{stroke:#1e1854;}.cls-4{opacity:0.44;}.cls-5{clip-path:url(#clip-path);}.cls-6{fill:#901a3d;}.cls-7{fill:#e6fff2;}</style>
    <clipPath
       id="clip-path"
       transform="translate(2.05)">
      <path
         class="cls-1"
         d="M 75.1,4 C 56.43,-1.61 50.92,15 49.3,25.45 c -0.86,-5.59 -3.7,-5.53 -3.7,-5.53 0,0 -2.77,-1.2 -4.43,3.14 C 39.09,12.7 33.09,-1.2 15.79,4 c -26.6,8 -4,36.5 -4,36.5 a 29.35,29.35 0 0 0 7,4.58 c -3.26,2.23 -5.13,5.36 -3.75,9.75 4.59,14.6 17.2,19.25 26.49,8 a 17.89,17.89 0 0 0 3.47,-6.58 0.8,0.8 0 0 0 0.43,0.06 c 0.2,-0.52 0.38,-1 0.52,-1.33 a 17.6,17.6 0 0 0 3.81,7.8 c 9.29,11.28 21.9,6.63 26.48,-8 1.4,-4.45 -0.53,-7.6 -3.87,-9.84 a 29,29 0 0 0 6.8,-4.49 c 0,0 22.54,-28.51 -4.07,-36.45 z M 48.62,38 v 3.21 c -0.25,0.42 -0.51,0.91 -0.79,1.46 0.22,-1.3 0.47,-2.84 0.79,-4.67 z"
         id="path1" />
    </clipPath>
  </defs>
  <g
     id="Calque_2"
     data-name="Calque 2"
     transform="translate(-44.095848,1.3180824)">
    <g
       id="Warstwa_4"
       data-name="Warstwa 4">
      <path
         class="cls-2"
         d="m 49.58,39.55 c 0,0 31.07,0.67 26.48,15.26 -4.59,14.59 -17.19,19.25 -26.48,8 -9.29,-11.25 0,-23.26 0,-23.26 z"
         transform="translate(2.05)"
         id="path3" />
      <path
         class="cls-2"
         d="M 48.47,33.18 C 48.47,33.18 48.35,-4 75,4 c 26.65,8 4,36.5 4,36.5 0,0 -14.6,13.91 -30.53,2.63 z"
         transform="translate(2.05)"
         id="path4" />
      <g
         class="cls-4"
         id="g14">
        <g
           class="cls-5"
           clip-path="url(#clip-path)"
           id="g13">
          <path
             class="cls-6"
             d="m 48.8,39.24 c 5.84,8.49 18.35,9.67 27.48,6.83 8.17,-2.54 23.49,-14.26 15.92,-23.81 a 4.5,4.5 0 0 0 -4.43,-1.17 c -4,1 -5,4.59 -7.3,7.58 a 16.66,16.66 0 0 1 -8,5.78 37.08,37.08 0 0 1 -20.15,0.25 C 49.84,34 47.23,37 48.8,39.24 Z"
             transform="translate(2.05)"
             id="path7" />
          <path
             class="cls-6"
             d="m 57.43,37.8 c -1.91,0.14 -3.29,-0.55 -5.22,0.23 a 13.13,13.13 0 0 0 -3.84,2.57 13.83,13.83 0 0 0 -3.64,7.12 c -1.27,6.06 0.79,12.16 4.59,16.89 C 56,72.93 72.55,79 79.67,68 82.24,64 79.67,58.7 75.38,57.46 70.67,56.1 66.09,58.35 62.26,54.68 58.43,51.01 61.43,47.59 61.8,43.16 l -2.64,4.6 0.82,-0.56 c 3.81,-2.6 2.84,-9.82 -2.55,-9.44 z"
             transform="translate(2.05)"
             id="path10" />
          <path
             class="cls-7"
             d="m 65.57,20.45 c 0.33,-0.49 0.44,-1.05 0.72,-1.54 0.08,-0.13 0.74,-1.06 0.31,-0.64 -0.43,0.42 1.08,-0.22 0.55,-0.13 0.65,-0.12 0.38,0.21 -0.08,-0.17 1,0.79 -0.84,-0.49 0.23,0.15 -0.43,-0.58 -0.48,-0.62 -0.16,-0.11 L 66.89,17.4 c 0,1.31 0.08,-1.2 0,0 0,1 0.48,-1.35 -0.16,0.28 l 1.68,-2.89 c -0.51,0.61 -2.7,3 -1,1.16 a 3.91,3.91 0 0 1 1.8,-1.05 c 1.33,-0.1 1.6,-0.15 0.82,-0.12 -0.78,0.03 -0.52,0 0.84,0.12 -0.76,-0.22 -0.52,-0.09 0.71,0.39 A 7.51,7.51 0 0 1 70.9,14.9 c 1,0.86 1.23,1 0.66,0.49 a 4.81,4.81 0 0 1 1.15,4.66 c 0.24,-0.8 0.14,-0.6 -0.28,0.59 q -1.18,1.41 -0.33,0.51 c -1.77,1.46 0,0.14 0.46,-0.16 0.77,-0.37 0.61,-0.31 -0.48,0.17 l 0.93,-0.33 -8.9,-3.62 c 0.44,0.73 0.4,0.56 -0.13,-0.52 -0.1,-1.26 -0.14,-1.46 -0.14,-0.58 a 3.88,3.88 0 0 1 1.51,-3.19 2.85,2.85 0 0 1 1.36,-0.72 q 1.94,-0.15 0.6,-0.12 c 2.37,0.11 0.34,0 -0.33,-0.25 -3,-1.15 -7.2,0.74 -8.68,3.54 a 8,8 0 0 0 1.2,9.31 c 4.33,4.58 12.09,4.4 16.51,0 4,-4 5,-10.7 1.71,-15.42 C 76,6.58 72.32,4.4 68.91,5.65 c -3.13,1.15 -6.2,2.55 -8.4,5.17 -3.09,3.68 -4,8.72 -1.69,13.07 4,7.25 15.23,8.07 19.54,0.71 a 10.45,10.45 0 0 0 1.08,-2.6 16,16 0 0 0 0.27,-2.19 c -0.28,-1.95 -0.33,-2.38 -0.16,-1.29 0.09,0.64 0.1,0.67 0,0.1 a 12.14,12.14 0 0 0 -0.31,-2.08 11.91,11.91 0 0 0 -1,-2.42 10.7,10.7 0 0 0 -6.69,-5.33 9,9 0 0 0 -8.75,2.91 c -1.75,2 -3.87,5.26 -2.8,8 a 3.1,3.1 0 0 0 5.57,0.73 z"
             transform="translate(2.05)"
             id="path11" />
        </g>
      </g>
      <path
         class="cls-8"
         d="m 49.4,22.68 c 2.09,-10.36 8.09,-24.24 25.38,-19.06 26.6,8 4,36.5 4,36.5 0,0 -14.6,13.93 -30.53,2.65"
         transform="translate(2.05)"
         id="path14" />
      <path
         class="cls-8"
         d="m 72.41,44.87 c 3.1,2.22 4.82,5.3 3.48,9.58 -4.59,14.6 -17.2,19.25 -26.49,8 a 17.6,17.6 0 0 1 -3.81,-7.8"
         transform="translate(2.05)"
         id="path15" />
    </g>
  </g>
</svg>
