<?xml version="1.0" encoding="UTF-8" standalone="no"?>
<svg
   id="Calque_2"
   data-name="Calque 2"
   viewBox="0 0 112.08 117.57"
   version="1.1"
   sodipodi:docname="pencil-case-fg.svg"
   inkscape:version="1.4.2 (2aeb623e1d, 2025-05-12)"
   xmlns:inkscape="http://www.inkscape.org/namespaces/inkscape"
   xmlns:sodipodi="http://sodipodi.sourceforge.net/DTD/sodipodi-0.dtd"
   xmlns="http://www.w3.org/2000/svg"
   xmlns:svg="http://www.w3.org/2000/svg">
  <sodipodi:namedview
     id="namedview54"
     pagecolor="#ffffff"
     bordercolor="#000000"
     borderopacity="0.25"
     inkscape:showpageshadow="2"
     inkscape:pageopacity="0.0"
     inkscape:pagecheckerboard="0"
     inkscape:deskcolor="#d1d1d1"
     showgrid="false"
     inkscape:zoom="5.3670154"
     inkscape:cx="54.406402"
     inkscape:cy="58.412353"
     inkscape:window-width="1600"
     inkscape:window-height="836"
     inkscape:window-x="0"
     inkscape:window-y="27"
     inkscape:window-maximized="1"
     inkscape:current-layer="g54" />
  <defs
     id="defs3">
    <style
       id="style1">
      .cls-1 {
        fill: #ffd4d4;
      }

      .cls-1, .cls-2, .cls-3, .cls-4, .cls-5, .cls-6, .cls-7, .cls-8, .cls-9, .cls-10, .cls-11, .cls-12, .cls-13, .cls-14 {
        stroke-width: 0px;
      }

      .cls-2 {
        fill: #5f4600;
      }

      .cls-3 {
        fill: #eefdf3;
      }

      .cls-15 {
        fill: #e16969;
        stroke: #3d0a0a;
      }

      .cls-15, .cls-16, .cls-17, .cls-18, .cls-19, .cls-20, .cls-21, .cls-22, .cls-23, .cls-24 {
        stroke-linecap: round;
        stroke-linejoin: round;
      }

      .cls-15, .cls-16, .cls-17, .cls-18, .cls-21, .cls-22, .cls-23, .cls-24 {
        stroke-width: 2.52px;
      }

      .cls-25 {
        clip-path: url(#clippath-2);
      }

      .cls-4, .cls-17 {
        fill: #df9bed;
      }

      .cls-16 {
        stroke: #575300;
      }

      .cls-16, .cls-8, .cls-24 {
        fill: #b653b0;
      }

      .cls-6 {
        fill: #782d3e;
      }

      .cls-7 {
        fill: #effdf4;
      }

      .cls-17, .cls-22 {
        stroke: #771b73;
      }

      .cls-9, .cls-21, .cls-22, .cls-23 {
        fill: none;
      }

      .cls-10 {
        fill: #792e3f;
      }

      .cls-26 {
        clip-path: url(#clippath-1);
      }

      .cls-11 {
        fill: #a8438c;
      }

      .cls-12, .cls-20 {
        fill: #fff;
      }

      .cls-27 {
        opacity: .32;
      }

      .cls-18, .cls-13 {
        fill: #ffe366;
      }

      .cls-18, .cls-23 {
        stroke: #5f4600;
      }

      .cls-28 {
        clip-path: url(#clippath);
      }

      .cls-19 {
        fill: #2056b6;
      }

      .cls-19, .cls-20 {
        stroke: #131e3e;
        stroke-width: 2.01px;
      }

      .cls-21, .cls-24 {
        stroke: #5e005f;
      }

      .cls-14 {
        fill: #3d0a0a;
      }
    </style>
    <clipPath
       id="clippath">
      <path
         class="cls-9"
         d="m97.3,46.94s-38.29-.97-66.3,9.46l-1.51-8.22-18.27,1.82,10.72,10.4c-8.52,4.48-15.22,10.44-18.17,18.38-8.98,24.13,8.16,33.15,18.78,36.34,4.25,1.28,8.78,1.27,13.02-.04,14.44-4.47,53.3-16.97,68.15-26.55,18.4-11.87-4.67-39.25-6.43-41.59Z"
         id="path1" />
    </clipPath>
    <clipPath
       id="clippath-1">
      <path
         class="cls-9"
         d="m65.45,101.4c.34-1.26-.91-23.42-.91-23.42L84.71,2.99s10.88,5.59,12.05,5.43-20.41,75.89-20.41,75.89l-10.9,17.09Z"
         id="path2" />
    </clipPath>
    <clipPath
       id="clippath-2">
      <path
         class="cls-9"
         d="m41.26,26.62c.52.9,14.36,12.93,14.36,12.93l31.15,53.45s-10.29,2.5-10.95,3.2-31.52-54.1-31.52-54.1l-3.04-15.48Z"
         id="path3" />
    </clipPath>
  </defs>
  <g
     id="Layer_1"
     data-name="Layer 1">
    <g
       id="g54">
      <path
         class="cls-11"
         d="m 65.25897,102.36323 c 1.79,-0.14 3.56,-0.5 5.26,-1.1 5.13,-1.81 3.09,-9.749997 -2.27,-8.239997 -0.96,0.23 -1.9,0.53 -2.81,0.9 -5.51,2 -3.17,10.849997 2.44,8.869997 3.7,-1.31 7.44,-2.53 11.03,-4.14 3.59,-1.609997 6.88,-4.099997 10.72,-5.219997 l -4.51,-7.74 c -1.91,1.97 -4.59,2.86 -7.01,4.06 l 4.69,8.02 c 2.9,-1.77 6.21,-2.42 8.61,-4.94 3.4,-3.55 -0.87,-8.85 -5.14,-6.67 -2.66,1.36 -5.58,2.06 -8.16,3.58 -5.19,3.06 -0.63,10.679997 4.69,8.02 3.2,-1.6 6.34,-2.92 8.87,-5.53 3.15,-3.25 0.02,-9.08 -4.51,-7.74 -3.63,1.07 -6.73,2.99 -10.04,4.77 -3.71,2 -7.73,3.25 -11.69,4.66 l 3.54,8.409997 c 0.89,-0.43 1.75,-0.93 2.56,-1.5 l -4.31,-7.379997 c -1.82,1.25 -3.63,2.05 -4.75,4.05 -1.12,1.999997 0.26,5.069997 2.79,4.859997 z"
         id="path49" />
      <path
         class="cls-8"
         d="m 39.758049,75.00802 c 1.029628,0.412465 2.097393,0.978132 3.165156,1.24918 1.207589,0.306402 2.529583,0.365326 3.775307,0.518527 2.974483,0.353541 8.702214,-3.051404 9.337788,-5.644041 0.686419,-2.804762 -0.406767,-6.163406 -3.317694,-7.565786 -1.385549,-0.671728 -2.834657,-1.284534 -4.169362,-2.05054 -3.419384,-1.968047 -8.033648,-0.930992 -10.410692,1.920908 -2.377045,2.851901 -4.67268,7.965629 -1.73633,10.546482 2.618561,2.309804 6.06337,3.511844 9.673427,2.569067 4.131227,-1.084193 9.42677,-5.455486 9.3505,-9.426934 -5.249837,2.015186 -12.858865,4.760188 -18.108701,6.775374 1.703335,1.249179 3.203289,2.486575 5.364239,3.028671 0.851669,0.212125 1.754183,0.318187 2.631274,0.436034 2.364333,0.318188 4.715955,0.577452 7.105711,0.612806 3.63548,0.04714 9.60473,-1.106927 13.189362,-1.542962 7.893823,-0.966346 15.698665,-2.25088 23.414527,-4.077511 L 77.391567,58.333488 c -0.241518,0.412465 -0.483035,0.766005 -0.78811,1.143116 l 1.614356,-1.932692 c -0.533882,0.589235 -1.131322,1.095978 -1.779606,1.579152 l 2.084682,-1.496659 c -3.35583,2.380511 -7.448922,3.936093 -11.186093,5.750939 -3.737173,1.814846 -7.881111,3.464706 -11.821667,5.185274 l -2.351622,1.685214 c -1.13132,0.978131 -4.304046,2.86285 -4.77437,4.206307 -0.978783,2.144817 -1.38555,4.749238 -0.584728,7.023689 1.65249,4.749238 8.270025,6.859538 13.596131,7.18951 7.029442,0.424249 13.652117,-1.178472 20.033274,-3.747539 2.33891,-0.942777 4.690532,-4.077511 5.237125,-6.316606 0.584727,-2.368727 0.444901,-4.631392 -0.572016,-6.882272 -2.059258,-4.513545 -8.084494,-7.919327 -13.448734,-6.116266 -7.626881,2.557283 -17.562109,5.867951 -24.84578,9.19124 -2.262642,1.037054 -11.489594,-4.514266 -12.430243,-2.440157 -1.004206,2.191957 6.138066,12.598579 6.9516,14.931952 0.635574,1.826631 4.037106,2.73489 5.435368,4.149055 1.805027,1.814846 5.720161,3.523629 8.427703,3.240796 6.355735,-0.671728 12.406393,-1.909123 18.329939,-4.171788 -3.076177,-6.77621 -6.165063,-13.540635 -9.241239,-20.316845 -5.847275,2.651561 -14.066454,6.021152 -19.913729,8.672713 -2.478738,1.119547 -4.906628,4.183573 -5.504067,6.646578 -0.597438,2.463005 1.90158,4.149055 2.982055,6.505997 2.17366,4.772808 8.491261,8.308224 14.147865,6.434453 3.838862,-1.272749 7.639592,-2.627991 11.414898,-4.065725 -3.076176,-6.77621 -8.536966,-12.81082 -11.613141,-19.587029 -4.766801,2.121249 -15.508975,-2.747396 -20.275776,-0.626147 -2.466025,1.107763 1.068747,11.208819 0.471306,13.648254 -0.597438,2.439436 1.90158,4.149055 2.982055,6.505997 2.313488,5.091 8.30059,7.848611 14.147865,6.434451 11.618283,-2.804759 22.817086,-7.495075 32.693897,-13.823465 2.567717,-1.638075 4.805923,-3.93458 5.65759,-6.798265 0.7754,-2.616206 4.975934,-11.394358 3.348868,-13.715946 -3.304982,-4.749239 -15.413038,-1.758896 -20.917104,1.623317 -4.982896,3.064025 -12.617347,6.421832 -18.121414,8.59022 l 5.231985,-1.849364 c -4.652398,1.814845 -11.765679,4.088459 -16.646882,5.26693 3.076174,6.77621 8.536965,12.810818 11.613141,19.587024 4.766799,-2.121244 9.533601,-4.254277 14.300401,-6.375526 2.466026,-1.107762 4.906627,-4.207142 5.504066,-6.646578 0.597439,-2.439434 0.470325,-4.87887 -0.610149,-7.235813 -0.966073,-2.133032 -2.631275,-4.207142 -4.906629,-5.314905 -2.643985,-1.296319 -6.330311,-2.239096 -9.241236,-1.119547 -3.762595,1.437734 -9.947939,3.534577 -13.786804,4.795541 3.076176,6.77621 8.536967,12.810819 11.613142,19.587029 5.847276,-2.651561 11.694552,-5.291336 17.541827,-7.942896 2.478737,-1.119548 4.906627,-4.183573 5.504066,-6.646578 0.597439,-2.463005 0.470324,-4.878872 -0.610151,-7.235814 -0.966071,-2.133033 -2.631273,-4.207143 -4.906627,-5.314906 -2.656696,-1.296318 -6.330311,-2.227311 -9.241238,-1.119547 -4.881204,1.861984 -12.29956,3.782057 -17.498551,4.618771 3.063465,6.740856 8.498833,12.74011 11.562296,19.480966 4.614263,-2.427651 9.368351,-4.596038 14.262268,-6.505161 l -2.732966,1.072409 c 1.639779,-0.636375 3.27956,-1.22561 4.982895,-1.744138 -2.021123,-6.787994 -4.042246,-13.587774 -6.06337,-20.375769 -2.275353,0.836716 -4.614263,1.425951 -7.029442,1.755923 l 3.063464,-0.377111 c -2.427891,0.294618 -4.843069,0.329972 -7.283671,0.117848 1.957566,6.705501 3.915131,13.399218 5.872698,20.104719 5.758296,-2.309804 11.389476,-5.491676 16.296103,-9.109583 l -2.237219,1.602721 c 2.732965,-1.909123 5.427797,-3.853601 8.033649,-5.915926 l -2.084681,1.496659 c 3.038039,-2.168387 6.076082,-4.030371 7.906534,-7.294737 C 97.132478,64.532246 97.005362,60.537228 94.3868,57.39071 91.768238,54.244192 87.598877,52.983228 83.556629,53.973144 76.260247,55.76442 68.862172,57.119662 61.387828,58.062439 l 2.707542,-0.341756 c -5.326104,0.648159 -10.766613,1.355241 -16.130853,0.683513 l 2.605851,0.329972 c -1.538087,-0.235694 -2.94906,-0.44782 -4.49986,-0.259264 -0.889802,0.106062 -1.47453,0.282833 -2.313486,0.436034 -6.432004,1.202041 -11.714835,11.029655 -6.439574,15.012889 l 0.228806,0.17677 0.03299,-4.442001 0.08897,0.271048 v -4.407482 l 0.673708,-1.402381 3.101598,-2.875469 3.025329,-0.718868 -2.371904,15.684616 c -2.199083,-0.141416 0.07627,0 0.572018,0.07071 0.69913,0.09428 1.39826,0.188555 2.09739,0.294618 L 47.13826,62.929526 c -1.805027,0.341756 -3.393962,0.989915 -5.02103,1.791276 -3.673613,1.814845 -2.371903,10.322572 -2.371903,10.322572 v 0 z"
         id="path50"
         sodipodi:nodetypes="ccccccsccccccccccccccscccccccccccccccccscccccscccccccccccsccccccsccccccccccccccccccsccccccccccccccccccccscc" />
      <path
         class="cls-21"
         d="m35.93,60.01c.5.81,39.89-.13,57.92-8.68"
         id="path51" />
      <path
         class="cls-17"
         d="m 25.729467,109.76205 c -2.67,0.15 -33.4599998,-9.36 -11.85,-37.210001 16.11,-20.76 23.46,-0.24 26.160005,11.56 1.41999,6.19 0.47999,12.74 -2.890005,18.120001 -2.39,3.82 -6.02,7.22 -11.43,7.53 z"
         id="path5"
         style="display:inline;fill:#df9bed;stroke:#771b73;stroke-width:2.52px;stroke-linecap:round;stroke-linejoin:round" />
      <polygon
         class="cls-17"
         points="11.24,50.24 29.51,48.42 31.85,61.15 23.52,62.15 "
         id="polygon5"
         style="display:inline;fill:#df9bed;stroke:#771b73;stroke-width:2.52px;stroke-linecap:round;stroke-linejoin:round"
         transform="translate(-0.06053262,-2.0479508)" />
      <path
         class="cls-22"
         d="m 25.709467,109.53205 c -2.67,0.15 -33.4599998,-9.36 -11.85,-37.210001 16.11,-20.76 23.46,-0.24 26.159995,11.56 1.42,6.19 0.48,12.74 -2.889995,18.120001 -2.39,3.82 -6.02,7.22 -11.43,7.53 z"
         id="path13"
         style="display:inline;fill:none;stroke:#771b73;stroke-width:2.52px;stroke-linecap:round;stroke-linejoin:round" />
      <polygon
         class="cls-22"
         points="11.23,50.01 29.49,48.19 31.83,60.92 23.5,61.92 "
         id="polygon13"
         style="display:inline;fill:none;stroke:#771b73;stroke-width:2.52px;stroke-linecap:round;stroke-linejoin:round"
         transform="translate(-0.06053262,-2.0479508)" />
    </g>
  </g>
</svg>
