<?xml version="1.0" encoding="UTF-8" standalone="no"?>
<!-- Created with Inkscape (http://www.inkscape.org/) -->

<svg
   width="9.2205315mm"
   height="26.756189mm"
   viewBox="0 0 9.2205315 26.756189"
   version="1.1"
   id="svg1"
   inkscape:version="1.4.2 (2aeb623e1d, 2025-05-12)"
   sodipodi:docname="pencil-2.svg"
   xmlns:inkscape="http://www.inkscape.org/namespaces/inkscape"
   xmlns:sodipodi="http://sodipodi.sourceforge.net/DTD/sodipodi-0.dtd"
   xmlns="http://www.w3.org/2000/svg"
   xmlns:svg="http://www.w3.org/2000/svg">
  <sodipodi:namedview
     id="namedview1"
     pagecolor="#ffffff"
     bordercolor="#000000"
     borderopacity="0.25"
     inkscape:showpageshadow="2"
     inkscape:pageopacity="0.0"
     inkscape:pagecheckerboard="0"
     inkscape:deskcolor="#d1d1d1"
     inkscape:document-units="mm"
     inkscape:zoom="0.56212823"
     inkscape:cx="361.12757"
     inkscape:cy="541.69135"
     inkscape:window-width="1600"
     inkscape:window-height="836"
     inkscape:window-x="0"
     inkscape:window-y="27"
     inkscape:window-maximized="1"
     inkscape:current-layer="layer1" />
  <defs
     id="defs1">
    <clipPath
       id="clippath-1">
      <path
         class="cls-9"
         d="M 65.45,101.4 C 65.79,100.14 64.54,77.98 64.54,77.98 L 84.71,2.99 c 0,0 10.88,5.59 12.05,5.43 1.17,-0.16 -20.41,75.89 -20.41,75.89 z"
         id="path2" />
    </clipPath>
  </defs>
  <g
     inkscape:label="Layer 1"
     inkscape:groupmode="layer"
     id="layer1"
     transform="translate(-9.4072519,-4.9878865)">
    <g
       id="g28"
       style="display:inline"
       transform="matrix(0.26458333,0,0,0.26458333,-7.3302896,4.9878713)">
      <path
         class="cls-18"
         d="M 65.43,99.67 C 65.77,98.41 64.52,76.25 64.52,76.25 L 84.69,1.26 c 0,0 10.88,5.59 12.05,5.43 1.17,-0.16 -20.41,75.89 -20.41,75.89 z"
         id="path14"
         style="fill:#ffe366;stroke:#5f4600;stroke-width:2.52px;stroke-linecap:round;stroke-linejoin:round" />
      <g
         id="g18">
        <path
           class="cls-12"
           d="m 64.15,78.25 c -0.58,4.44 0.41,8.66 0.85,13.11 0.37,3.73 5.73,3.86 5.91,0 0.1,-2.22 0.47,-4.26 1.39,-6.29 l -5.66,-0.74 c 0.32,1.06 0.36,1.96 0.26,3.06 -0.33,3.95 5.48,4.33 6.62,0.9 0.14,-0.47 0.3,-0.92 0.5,-1.37 0.56,-0.67 0.39,-0.74 -0.51,-0.19 L 71.6,79.66 c -4.35,2.07 -8.35,5.82 -7.13,11.04 1.11,4.76 8.61,2.74 7.35,-2.03 -0.41,-1.54 0.45,-2.68 1.34,-3.83 l -6.69,-3.91 c -0.74,1.63 -1.31,3.25 -1.71,4.99 -1.58,6.97 9.55,8.31 9.52,1.29 v -0.84 c -0.02,-4.55 -6.32,-6.34 -8.62,-2.33 l -0.42,0.73 8.86,3.74 c 0.71,-2.63 0.57,-5.25 -0.95,-7.57 -2.81,-4.28 -8.61,-0.59 -6.69,3.91 0.38,0.89 0.36,1.92 0.44,2.86 l 1.68,-2.21 -1.45,0.51 4.83,3.68 c 0,-0.88 2.6,-2.89 3.47,-3.48 3.62,-2.43 1.33,-7.76 -2.92,-6.93 -3.49,0.68 -4.91,4.07 -5.48,7.22 l 6.62,0.9 c -0.12,-1.99 -0.53,-3.63 -1.34,-5.45 -1.16,-2.59 -4.93,-1.57 -5.66,0.74 -0.89,2.82 -1.47,5.73 -1.64,8.68 h 5.91 c -0.44,-4.91 -0.79,-9.78 -3.5,-13.99 -1.01,-1.57 -3.03,-0.78 -3.25,0.88 v 0 z"
           id="path15"
           style="fill:#ffffff;stroke-width:0px" />
        <path
           class="cls-4"
           d="m 87.33,8.62 -0.24,0.45 -1.46,0.6 h 0.12 C 85.07,8.47 84.39,7.29 83.71,6.1 83.48,6.56 83.22,6.99 82.96,7.44 l 5.8,1.57 c 0,-0.24 0.05,-0.46 0.19,-0.67 h -6.5 L 82.37,8.18 82.85,6.42 82.69,6.78 89.17,9.51 C 89.34,8.83 89.46,8.15 89.59,7.46 L 82.51,6.5 c 0.29,2.67 1.99,4.99 4.83,5.32 0.2,0.04 0.39,0.09 0.58,0.14 -1.17,-1.01 -1.31,-1.01 -0.43,0 0.51,0.54 1.14,0.98 1.87,1.18 0.23,0.06 2.1,0.39 2.37,0.05 -0.39,0.51 -1.87,-1.36 -1.21,-0.25 2.14,3.58 7.47,1.18 6.59,-2.78 C 96.77,8.62 95.72,7.32 94.36,6.54 93,5.76 91.4,6.03 90.33,5.94 l 2.6,1.08 C 93.39,7.44 92.31,6.35 92.17,6.22 91.6,5.68 90.96,5.34 90.22,5.08 89.85,4.95 89.46,4.8 89.07,4.78 88.19,4.73 89.51,4.94 89.71,6.52 89.48,4.74 88.52,3.21 86.58,2.98 84.96,2.79 82.92,3.77 82.62,5.56 c -0.17,1 -0.34,2.01 -0.44,3.02 -0.19,1.91 1.77,3.55 3.55,3.55 2.11,0 3.31,-1.64 3.55,-3.55 0.12,-1 -0.17,-1.97 -0.68,-2.83 -1.72,-2.93 -6.2,-1.61 -6.28,1.7 -0.02,0.81 0.08,1.62 0.32,2.4 1.02,3.32 6.09,2.75 6.11,-0.83 0.01,-1.32 -0.41,-2.44 -1.33,-3.39 -2.13,-2.18 -5.44,1.14 -3.34,3.34 0.37,0.39 0.78,0.61 1.28,0.77 0.81,0.26 1.77,-0.31 1.97,-1.12 z"
           id="path16"
           style="fill:#df9bed;stroke-width:0px" />
        <path
           class="cls-16"
           d="m 64.52,76.25 c 0,0 4,-0.02 3.41,4.08 0,0 4.71,-3.21 4.87,1.31 0,0 1.64,-5.04 3.23,-0.87"
           id="path17"
           style="fill:#b653b0;stroke:#575300;stroke-width:2.52px;stroke-linecap:round;stroke-linejoin:round" />
        <path
           class="cls-5"
           d="m 68.1,93.23 c 0.2,-0.14 0.31,-0.32 0.25,-0.57 -0.02,-0.1 -0.07,-0.19 -0.14,-0.26 -0.04,-0.05 -0.08,-0.09 -0.14,-0.12 -0.17,-0.08 -0.15,-0.06 0.04,0.05 -0.13,-0.16 -0.36,-0.18 -0.55,-0.15 l -0.08,0.02 c -0.22,0.05 -0.4,0.25 -0.46,0.46 -0.06,0.2 -0.05,0.4 -0.12,0.59 l 0.19,-0.33 -0.06,0.08 0.34,-0.2 -0.07,0.02 h 0.43 l -0.07,-0.02 0.51,1.26 c 0.31,-0.52 0.71,-1.04 0.88,-1.61 L 65.8,92.01 c 0.08,-0.63 -0.13,0.54 0.02,-0.1 -0.04,0.16 -0.18,0.34 -0.26,0.48 l 3.57,0.97 c 0.02,-0.23 0.01,-0.21 -0.02,0.05 0.02,-0.1 0.04,-0.21 0.06,-0.31 0.05,-0.21 0.12,-0.41 0.2,-0.62 l -4.03,-1.11 c -0.08,0.41 -0.15,0.82 -0.21,1.23 -0.1,0.74 -0.24,1.33 -0.06,2.07 0.27,1.14 1.63,1.93 2.76,1.56 1.13,-0.37 1.97,-1.57 1.56,-2.76 -0.11,-0.37 -0.12,-0.17 -0.04,0.61 l 0.08,-0.59 c 0.02,-0.18 0.01,-0.37 0.02,-0.55 0.01,-0.34 0,-0.68 0,-1.03 -0.02,-1.04 -0.78,-1.91 -1.81,-2.05 -0.93,-0.13 -2.13,0.47 -2.29,1.5 -0.14,0.88 -0.16,1.62 0.03,2.5 0.17,0.79 1.05,1.44 1.85,1.41 0.86,-0.04 1.6,-0.57 1.85,-1.41 0.22,-0.75 0.21,-1.55 -0.01,-2.29 -0.25,-0.83 -1.17,-1.44 -2.04,-1.16 -0.87,0.28 -1.4,1.14 -1.16,2.04 0.15,0.57 0.55,1.1 0.84,1.61 0.27,0.47 0.96,0.57 1.34,0.17 0.25,-0.26 0.34,-0.6 0.33,-0.95 0,-0.26 -0.03,-0.63 -0.17,-0.85 l -0.3,0.73 -0.4,-0.38 c -0.12,0.32 0.31,0.65 0.59,0.45 z"
           id="path18"
           style="stroke-width:0px" />
      </g>
      <g
         id="g20">
        <path
           class="cls-13"
           d="M 82.21,27.82 C 77.61,41.65 73.62,55.7 70.26,69.89"
           id="path19"
           style="fill:#ffe366;stroke-width:0px" />
        <path
           class="cls-2"
           d="M 81.69,27.67 C 76.44,41.1 71.9,55.41 69.24,69.61 c -0.25,1.33 1.66,1.89 2.05,0.56 4.07,-13.97 7.64,-28.16 11.45,-42.21 0.19,-0.69 -0.8,-0.92 -1.05,-0.29 z"
           id="path20"
           style="fill:#5f4600;stroke-width:0px" />
      </g>
      <g
         id="g22">
        <path
           class="cls-13"
           d="M 85.94,30.35 C 82.29,44.32 78.64,58.29 74.99,72.26"
           id="path21"
           style="fill:#ffe366;stroke-width:0px" />
        <path
           class="cls-2"
           d="m 85.58,30.24 c -4.06,13.85 -7.76,27.82 -11.45,41.78 -0.29,1.12 1.44,1.59 1.73,0.48 3.61,-13.98 7.22,-27.98 10.45,-42.05 0.11,-0.47 -0.59,-0.67 -0.73,-0.2 v 0 z"
           id="path22"
           style="fill:#5f4600;stroke-width:0px" />
      </g>
      <path
         class="cls-12"
         d="m 65.62,78.9 c 0.67,0 0.67,-1.04 0,-1.04 -0.67,0 -0.67,1.04 0,1.04 z"
         id="path23"
         style="fill:#ffffff;stroke-width:0px" />
      <g
         class="cls-27"
         id="g27"
         style="opacity:0.32">
        <g
           class="cls-26"
           clip-path="url(#clippath-1)"
           id="g26">
          <path
             class="cls-6"
             d="m 67.82,100.21 c 2.61,-3.38 4.91,-6.91 7.65,-10.22 2.29,-2.76 4.26,-5.72 5.81,-8.96 3.6,-7.54 5.63,-15.77 7.86,-23.78 2.51,-9.03 5.01,-18.06 7.52,-27.09 1.21,-4.36 2.42,-8.72 3.63,-13.08 1.21,-4.36 3.22,-8.66 2.18,-13.14 -0.54,-2.3 -3.64,-3.04 -5.24,-1.38 -3.16,3.27 -3.65,8.06 -4.83,12.34 -1.18,4.28 -2.4,8.73 -3.6,13.09 -2.48,9.04 -4.97,18.07 -7.45,27.11 -2.31,8.42 -4.09,17.31 -8.16,25.11 -3.06,5.86 -9.71,11.94 -9.02,19.02 0.2,2.03 2.45,2.54 3.65,0.99 v 0 z"
             id="path24"
             style="fill:#782d3e;stroke-width:0px" />
          <path
             class="cls-7"
             d="m 85.42,-4.66 c -4.62,3.83 -5.8,13.03 -7.43,18.58 -2.26,7.69 -4.45,15.4 -6.4,23.17 -1.95,7.77 -3.61,14.96 -5.24,22.48 -1.52,7.03 -4.26,15.18 -3.79,22.4 0.12,1.86 2.87,3.01 3.82,1.04 3.05,-6.29 3.74,-14.16 5.32,-20.96 1.81,-7.8 3.72,-15.58 5.73,-23.34 2.01,-7.76 3.86,-14.89 5.95,-22.3 1.04,-3.7 2.12,-7.39 3.12,-11.11 0.87,-3.2 2.07,-6.13 1.16,-9.36 -0.29,-1.04 -1.49,-1.22 -2.25,-0.59 v 0 z"
             id="path25"
             style="fill:#effdf4;stroke-width:0px" />
          <path
             class="cls-7"
             d="m 83.93,4.74 c 1.86,0.75 3.71,1.36 5.62,2.03 1.77,0.63 3.55,2.05 5.46,1.84 C 96.72,8.43 97.56,6.95 96.86,5.38 95.93,3.3 92.97,2.42 90.92,1.79 88.41,1.02 86.44,0.98 83.93,1.55 c -1.75,0.4 -1.37,2.63 0,3.18 v 0 z"
             id="path26"
             style="fill:#effdf4;stroke-width:0px" />
        </g>
      </g>
      <polygon
         class="cls-20"
         points="94.92,15.11 92.91,22.81 79.84,19.3 82.22,10.3 "
         id="polygon27"
         style="fill:#ffffff;stroke:#131e3e;stroke-width:2.01px;stroke-linecap:round;stroke-linejoin:round" />
      <path
         class="cls-23"
         d="M 65.49,99.69 C 65.83,98.43 64.58,76.27 64.58,76.27 l 20.17,-75 c 0,0 10.88,5.59 12.05,5.43 1.17,-0.16 -20.41,75.89 -20.41,75.89 l -10.9,17.09 z"
         id="path27"
         style="fill:none;stroke:#5f4600;stroke-width:2.52px;stroke-linecap:round;stroke-linejoin:round" />
    </g>
  </g>
</svg>
