<?xml version="1.0" encoding="UTF-8" standalone="no"?>
<svg
   id="Calque_2"
   data-name="Calque 2"
   viewBox="0 0 112.08 117.57"
   version="1.1"
   sodipodi:docname="pencil-case-bg.svg"
   inkscape:version="1.4.2 (2aeb623e1d, 2025-05-12)"
   xmlns:inkscape="http://www.inkscape.org/namespaces/inkscape"
   xmlns:sodipodi="http://sodipodi.sourceforge.net/DTD/sodipodi-0.dtd"
   xmlns="http://www.w3.org/2000/svg"
   xmlns:svg="http://www.w3.org/2000/svg">
  <sodipodi:namedview
     id="namedview54"
     pagecolor="#ffffff"
     bordercolor="#000000"
     borderopacity="0.25"
     inkscape:showpageshadow="2"
     inkscape:pageopacity="0.0"
     inkscape:pagecheckerboard="0"
     inkscape:deskcolor="#d1d1d1"
     showgrid="false"
     inkscape:zoom="5.3670154"
     inkscape:cx="55.803827"
     inkscape:cy="59.90294"
     inkscape:window-width="1600"
     inkscape:window-height="836"
     inkscape:window-x="0"
     inkscape:window-y="27"
     inkscape:window-maximized="1"
     inkscape:current-layer="g11" />
  <defs
     id="defs3">
    <style
       id="style1">
      .cls-1 {
        fill: #ffd4d4;
      }

      .cls-1, .cls-2, .cls-3, .cls-4, .cls-5, .cls-6, .cls-7, .cls-8, .cls-9, .cls-10, .cls-11, .cls-12, .cls-13, .cls-14 {
        stroke-width: 0px;
      }

      .cls-2 {
        fill: #5f4600;
      }

      .cls-3 {
        fill: #eefdf3;
      }

      .cls-15 {
        fill: #e16969;
        stroke: #3d0a0a;
      }

      .cls-15, .cls-16, .cls-17, .cls-18, .cls-19, .cls-20, .cls-21, .cls-22, .cls-23, .cls-24 {
        stroke-linecap: round;
        stroke-linejoin: round;
      }

      .cls-15, .cls-16, .cls-17, .cls-18, .cls-21, .cls-22, .cls-23, .cls-24 {
        stroke-width: 2.52px;
      }

      .cls-25 {
        clip-path: url(#clippath-2);
      }

      .cls-4, .cls-17 {
        fill: #df9bed;
      }

      .cls-16 {
        stroke: #575300;
      }

      .cls-16, .cls-8, .cls-24 {
        fill: #b653b0;
      }

      .cls-6 {
        fill: #782d3e;
      }

      .cls-7 {
        fill: #effdf4;
      }

      .cls-17, .cls-22 {
        stroke: #771b73;
      }

      .cls-9, .cls-21, .cls-22, .cls-23 {
        fill: none;
      }

      .cls-10 {
        fill: #792e3f;
      }

      .cls-26 {
        clip-path: url(#clippath-1);
      }

      .cls-11 {
        fill: #a8438c;
      }

      .cls-12, .cls-20 {
        fill: #fff;
      }

      .cls-27 {
        opacity: .32;
      }

      .cls-18, .cls-13 {
        fill: #ffe366;
      }

      .cls-18, .cls-23 {
        stroke: #5f4600;
      }

      .cls-28 {
        clip-path: url(#clippath);
      }

      .cls-19 {
        fill: #2056b6;
      }

      .cls-19, .cls-20 {
        stroke: #131e3e;
        stroke-width: 2.01px;
      }

      .cls-21, .cls-24 {
        stroke: #5e005f;
      }

      .cls-14 {
        fill: #3d0a0a;
      }
    </style>
    <clipPath
       id="clippath">
      <path
         class="cls-9"
         d="m97.3,46.94s-38.29-.97-66.3,9.46l-1.51-8.22-18.27,1.82,10.72,10.4c-8.52,4.48-15.22,10.44-18.17,18.38-8.98,24.13,8.16,33.15,18.78,36.34,4.25,1.28,8.78,1.27,13.02-.04,14.44-4.47,53.3-16.97,68.15-26.55,18.4-11.87-4.67-39.25-6.43-41.59Z"
         id="path1" />
    </clipPath>
    <clipPath
       id="clippath-1">
      <path
         class="cls-9"
         d="m65.45,101.4c.34-1.26-.91-23.42-.91-23.42L84.71,2.99s10.88,5.59,12.05,5.43-20.41,75.89-20.41,75.89l-10.9,17.09Z"
         id="path2" />
    </clipPath>
    <clipPath
       id="clippath-2">
      <path
         class="cls-9"
         d="m41.26,26.62c.52.9,14.36,12.93,14.36,12.93l31.15,53.45s-10.29,2.5-10.95,3.2-31.52-54.1-31.52-54.1l-3.04-15.48Z"
         id="path3" />
    </clipPath>
  </defs>
  <g
     id="Layer_1"
     data-name="Layer 1">
    <g
       id="g54">
      <path
         class="cls-24"
         d="m 97.32,47.18 c 1.75,2.34 24.83,29.72 6.43,41.59 -14.85,9.58 -53.72,22.08 -68.15,26.55 -4.24,1.31 -8.77,1.32 -13.02,0.04 C 11.96,112.17 -5.18,103.15 3.8,79.02 16.41,45.14 97.33,47.18 97.33,47.18 Z"
         id="path4"
         style="display:inline" />
      <g
         class="cls-27"
         id="g12"
         style="display:inline">
        <g
           class="cls-28"
           clip-path="url(#clippath)"
           id="g11">
          <path
             class="cls-10"
             d="m 2.18,97.28 c 0.35,9.52 5.69,17.04 14.84,20.15 10.95,3.73 23.11,-0.54 33.43,-4.3 22.59,-8.23 44.31,-18.71 64.83,-31.25 L 109.3,71.65 C 97.15,80.44 83.89,88 72.67,97.98 c -3.26,2.9 0.18,9.4 4.45,7.65 13.89,-5.69 26.04,-14.99 38.16,-23.74 6.06,-4.37 0.66,-14.29 -5.98,-10.23 C 92.01,82.22 73.88,91.4 55.01,98.77 46.29,102.18 36.66,106.66 27.2,107.15 18.72,107.59 9.54,103.07 4.32,96.4 3.64,95.53 2.15,96.27 2.19,97.28 v 0 z"
             id="path6" />
          <path
             class="cls-10"
             d="m 8.4,84.65 c -5.43,4.64 -4.17,13.75 -0.93,19.27 4.16,7.08 12.56,11.43 20.53,8.1 9.02,-3.77 12.25,-13.98 12.55,-22.99 0.3,-9.16 -2.12,-17.4 -8.76,-23.99 -2.6,-2.58 -6.48,1.34 -4,4 6.71,7.21 5.98,26.39 -1.11,33.31 C 21.92,107 15.18,105.32 11.97,99.83 9.29,95.25 10.22,90.56 10.73,85.62 10.86,84.33 9.2,83.96 8.4,84.65 Z"
             id="path7" />
          <path
             class="cls-3"
             d="M 3.09,91.51 C 3.49,80.17 10.84,69.89 21.17,65.39 L 18.32,61.7 c -9.87,9.16 -23.68,23.55 -18.34,38.49 0.75,2.1 4.14,1.92 4.08,-0.55 C 3.88,92.75 4.8,86.7 8.36,80.66 11.92,74.62 16.89,69.91 21.65,65.03 23.56,63.07 21.15,60.16 18.8,61.34 7.22,67.14 0.68,78.63 1.21,91.51 c 0.05,1.21 1.84,1.22 1.89,0 v 0 z"
             id="path10" />
          <path
             class="cls-3"
             d="m 34.44,57.63 c 3.67,1.44 8.62,-0.53 12.39,-1.26 5.78,-1.12 11.6,-2.11 17.45,-2.76 10.81,-1.21 21.4,-0.17 32.17,-0.6 3,-0.12 3.95,-4.82 0.74,-5.47 -11.07,-2.24 -23.63,-0.94 -34.74,0.51 -5.43,0.71 -10.8,1.69 -16.1,3.09 -4.01,1.07 -9.82,1.95 -12.27,5.58 -0.24,0.36 0.03,0.77 0.37,0.9 v 0 z"
             id="path11" />
        </g>
      </g>
      <path
         class="cls-21"
         d="m 31,56.4 c 28.01,-10.43 66.3,-9.46 66.3,-9.46 1.75,2.34 24.83,29.72 6.43,41.59 -14.85,9.58 -53.72,22.08 -68.15,26.55 -4.24,1.31 -8.77,1.32 -13.02,0.04 C 11.94,111.93 -5.2,102.91 3.78,78.78 6.73,70.85 13.43,64.89 21.95,60.4"
         id="path12"
         style="display:inline" />
      <g
         id="g48"
         style="display:inline">
        <polygon
           class="cls-19"
           points="80.67,55.66 65.89,58.71 103.86,29.23 105.2,34.61 "
           id="polygon29"
           style="display:none" />
      </g>
      <path
         class="cls-11"
         d="m 64.7,102.5 c 1.79,-0.14 3.56,-0.5 5.26,-1.1 5.13,-1.81 3.09,-9.75 -2.27,-8.24 -0.96,0.23 -1.9,0.53 -2.81,0.9 -5.51,2 -3.17,10.85 2.44,8.87 3.7,-1.31 7.44,-2.53 11.03,-4.14 3.59,-1.61 6.88,-4.1 10.72,-5.22 l -4.51,-7.74 c -1.91,1.97 -4.59,2.86 -7.01,4.06 l 4.69,8.02 c 2.9,-1.77 6.21,-2.42 8.61,-4.94 3.4,-3.55 -0.87,-8.85 -5.14,-6.67 -2.66,1.36 -5.58,2.06 -8.16,3.58 -5.19,3.06 -0.63,10.68 4.69,8.02 3.2,-1.6 6.34,-2.92 8.87,-5.53 3.15,-3.25 0.02,-9.08 -4.51,-7.74 -3.63,1.07 -6.73,2.99 -10.04,4.77 -3.71,2 -7.73,3.25 -11.69,4.66 l 3.54,8.41 c 0.89,-0.43 1.75,-0.93 2.56,-1.5 l -4.31,-7.38 c -1.82,1.25 -3.63,2.05 -4.75,4.05 -1.12,2 0.26,5.07 2.79,4.86 z"
         id="path49"
         style="display:none" />
      <path
         class="cls-8"
         d="m 51.16,72.83 c 0.81,0.35 1.65,0.83 2.49,1.06 0.95,0.26 1.99,0.31 2.97,0.44 2.34,0.3 4.98,-1.97 5.48,-4.17 0.54,-2.38 -0.32,-5.23 -2.61,-6.42 -1.09,-0.57 -2.23,-1.09 -3.28,-1.74 -2.69,-1.67 -6.32,-0.79 -8.19,1.63 -1.87,2.42 -1.81,6.14 0.5,8.33 2.06,1.96 4.77,2.98 7.61,2.18 3.25,-0.92 5.55,-4.01 5.49,-7.38 -4.13,1.71 -8.25,3.42 -12.38,5.13 1.34,1.06 2.52,2.11 4.22,2.57 0.67,0.18 1.38,0.27 2.07,0.37 1.86,0.27 3.71,0.49 5.59,0.52 2.86,0.04 5.69,-0.32 8.51,-0.69 6.21,-0.82 12.35,-1.91 18.42,-3.46 L 78.9,59.3 c -0.19,0.35 -0.38,0.65 -0.62,0.97 l 1.27,-1.64 c -0.42,0.5 -0.89,0.93 -1.4,1.34 l 1.64,-1.27 c -2.64,2.02 -5.86,3.34 -8.8,4.88 -2.94,1.54 -6.2,2.94 -9.3,4.4 l -1.85,1.43 c -0.89,0.83 -1.52,1.81 -1.89,2.95 -0.77,1.82 -1.09,4.03 -0.46,5.96 1.3,4.03 4.64,6.44 8.83,6.72 5.53,0.36 10.74,-1 15.76,-3.18 1.84,-0.8 3.69,-3.46 4.12,-5.36 0.46,-2.01 0.35,-3.93 -0.45,-5.84 -1.62,-3.83 -6.36,-6.72 -10.58,-5.19 -6,2.17 -11.95,4.36 -17.68,7.18 -1.78,0.88 -3.1,2.73 -3.84,4.49 -0.79,1.86 -1.11,4.13 -0.47,6.11 0.5,1.55 1.31,2.94 2.41,4.14 1.42,1.54 4.5,2.99 6.63,2.75 5,-0.57 9.76,-1.62 14.42,-3.54 -2.42,-5.75 -4.85,-11.49 -7.27,-17.24 -4.6,2.25 -9.2,4.49 -13.8,6.74 -1.95,0.95 -3.86,3.55 -4.33,5.64 -0.47,2.09 -0.37,4.14 0.48,6.14 1.71,4.05 6.68,7.05 11.13,5.46 3.02,-1.08 6.01,-2.23 8.98,-3.45 -2.42,-5.75 -4.85,-11.49 -7.27,-17.24 -3.75,1.8 -7.5,3.61 -11.25,5.41 -1.94,0.94 -3.86,3.57 -4.33,5.64 -0.47,2.07 -0.37,4.14 0.48,6.14 1.82,4.32 6.53,6.66 11.13,5.46 9.14,-2.38 17.95,-6.36 25.72,-11.73 2.02,-1.39 3.6,-3.12 4.27,-5.55 0.61,-2.22 0.34,-5.18 -0.94,-7.15 -2.6,-4.03 -8.37,-6.2 -12.7,-3.33 -3.92,2.6 -8.06,4.83 -12.39,6.67 l 2.25,-0.95 c -3.66,1.54 -7.39,2.85 -11.23,3.85 2.42,5.75 4.85,11.49 7.27,17.24 3.75,-1.8 7.5,-3.61 11.25,-5.41 1.94,-0.94 3.86,-3.57 4.33,-5.64 0.47,-2.07 0.37,-4.14 -0.48,-6.14 -0.76,-1.81 -2.07,-3.57 -3.86,-4.51 -2.08,-1.1 -4.98,-1.9 -7.27,-0.95 -2.96,1.22 -5.96,2.38 -8.98,3.45 2.42,5.75 4.85,11.49 7.27,17.24 4.6,-2.25 9.2,-4.49 13.8,-6.74 1.95,-0.95 3.86,-3.55 4.33,-5.64 0.47,-2.09 0.37,-4.14 -0.48,-6.14 -0.76,-1.81 -2.07,-3.57 -3.86,-4.51 -2.09,-1.1 -4.98,-1.89 -7.27,-0.95 -3.84,1.58 -7.81,2.59 -11.9,3.3 2.41,5.72 4.82,11.43 7.23,17.15 3.63,-2.06 7.37,-3.9 11.22,-5.52 l -2.15,0.91 c 1.29,-0.54 2.58,-1.04 3.92,-1.48 -1.59,-5.76 -3.18,-11.53 -4.77,-17.29 -1.79,0.71 -3.63,1.21 -5.53,1.49 l 2.41,-0.32 c -1.91,0.25 -3.81,0.28 -5.73,0.1 1.54,5.69 3.08,11.37 4.62,17.06 4.53,-1.96 8.96,-4.66 12.82,-7.73 L 82,77.44 c 2.15,-1.62 4.27,-3.27 6.32,-5.02 l -1.64,1.27 c 2.39,-1.84 4.78,-3.42 6.22,-6.19 1.53,-2.94 1.43,-6.33 -0.63,-9 -2.06,-2.67 -5.34,-3.74 -8.52,-2.9 -5.74,1.52 -11.56,2.67 -17.44,3.47 l 2.13,-0.29 c -4.19,0.55 -8.47,1.15 -12.69,0.58 l 2.05,0.28 c -1.21,-0.2 -2.32,-0.38 -3.54,-0.22 -0.7,0.09 -1.16,0.24 -1.82,0.37 -5.06,1.02 -7.35,8.74 -3.2,12.12 l 0.18,0.15 -1.84,-3.15 0.07,0.23 V 65.4 l 0.53,-1.19 2.44,-2.44 2.38,-0.61 v 12.69 c -1.73,-0.12 0.06,0 0.45,0.06 0.55,0.08 1.1,0.16 1.65,0.25 V 63.2 c -1.42,0.29 -2.67,0.84 -3.95,1.52 -2.89,1.54 -3.27,6.72 0,8.14 v 0 z"
         id="path50"
         style="display:none" />
      <path
         class="cls-21"
         d="m 97.3,47.08 c 1.75,2.34 24.83,29.72 6.43,41.59 -14.85,9.58 -53.72,22.08 -68.15,26.55 -4.24,1.31 -8.77,1.32 -13.02,0.04 C 11.94,112.07 -5.2,103.05 3.78,78.92 6.73,70.99 13.43,65.03 21.95,60.54"
         id="path52"
         style="display:inline" />
    </g>
  </g>
</svg>
