<?xml version="1.0" encoding="UTF-8" standalone="no"?>
<!-- Created with Inkscape (http://www.inkscape.org/) -->

<svg
   width="12.718465mm"
   height="19.081974mm"
   viewBox="0 0 12.718465 19.081974"
   version="1.1"
   id="svg1"
   inkscape:version="1.4.2 (2aeb623e1d, 2025-05-12)"
   sodipodi:docname="pencil-1.svg"
   xmlns:inkscape="http://www.inkscape.org/namespaces/inkscape"
   xmlns:sodipodi="http://sodipodi.sourceforge.net/DTD/sodipodi-0.dtd"
   xmlns="http://www.w3.org/2000/svg"
   xmlns:svg="http://www.w3.org/2000/svg">
  <sodipodi:namedview
     id="namedview1"
     pagecolor="#ffffff"
     bordercolor="#000000"
     borderopacity="0.25"
     inkscape:showpageshadow="2"
     inkscape:pageopacity="0.0"
     inkscape:pagecheckerboard="0"
     inkscape:deskcolor="#d1d1d1"
     inkscape:document-units="mm"
     inkscape:zoom="4.4970258"
     inkscape:cx="19.123751"
     inkscape:cy="52.367945"
     inkscape:window-width="1600"
     inkscape:window-height="836"
     inkscape:window-x="0"
     inkscape:window-y="27"
     inkscape:window-maximized="1"
     inkscape:current-layer="layer1">
    <sodipodi:guide
       position="-20.108333,336.42292"
       orientation="0,793.70079"
       id="guide1"
       inkscape:locked="false" />
    <sodipodi:guide
       position="189.89167,336.42292"
       orientation="1122.5197,0"
       id="guide2"
       inkscape:locked="false" />
    <sodipodi:guide
       position="189.89167,39.422916"
       orientation="0,-793.70079"
       id="guide3"
       inkscape:locked="false" />
    <sodipodi:guide
       position="-20.108333,39.422916"
       orientation="-1122.5197,0"
       id="guide4"
       inkscape:locked="false" />
  </sodipodi:namedview>
  <defs
     id="defs1">
    <clipPath
       id="clippath-2">
      <path
         class="cls-9"
         d="m 41.26,26.62 c 0.52,0.9 14.36,12.93 14.36,12.93 L 86.77,93 c 0,0 -10.29,2.5 -10.95,3.2 C 75.16,96.9 44.3,42.1 44.3,42.1 Z"
         id="path3" />
    </clipPath>
  </defs>
  <g
     inkscape:label="Layer 1"
     inkscape:groupmode="layer"
     id="layer1"
     transform="translate(-20.108333,-39.422916)">
    <g
       id="g43"
       style="display:inline"
       transform="matrix(0.26458333,0,0,0.26458333,9.2656703,32.450989)">
      <path
         class="cls-18"
         d="m 42.28,27.61 c 0.52,0.9 14.36,12.93 14.36,12.93 l 31.15,53.45 c 0,0 -10.29,2.5 -10.95,3.2 -0.66,0.7 -31.52,-54.1 -31.52,-54.1 z"
         id="path29"
         style="fill:#ffe366;stroke:#5f4600;stroke-width:2.52px;stroke-linecap:round;stroke-linejoin:round" />
      <g
         id="g33">
        <path
           class="cls-12"
           d="m 53.69,39.01 c -0.26,-0.49 -0.43,-1.06 -0.72,-1.53 -0.27,-0.44 -0.69,-0.81 -1.03,-1.19 -0.74,-0.84 -1.51,-1.81 -2.5,-2.37 -1.25,-0.71 -2.91,-0.35 -3.65,0.92 -0.38,0.66 -0.43,1.45 -0.21,2.16 0.2,0.63 0.83,1.16 0.92,1.8 l 0.22,-1.7 -0.13,0.23 0.79,-0.79 -0.23,0.11 1.69,-0.22 c 0.51,0.11 -0.09,0 -0.3,-0.08 -0.27,-0.08 -0.56,-0.16 -0.84,-0.16 -0.7,0 -1.41,0.33 -1.88,0.82 -0.47,0.49 -0.74,1.13 -0.74,1.82 0,0.15 -0.03,0.72 0.09,0.82 0.27,0.22 -1.27,0.82 0.5,-0.43 l 3.46,3.46 c 0.65,-1.32 1.13,-2.66 1.34,-4.12 0.11,-0.73 0.21,-1.45 0.15,-2.19 -0.04,-0.45 -0.08,-0.91 -0.21,-1.34 -0.08,-0.26 -0.83,-1.86 -0.28,-0.54 L 45.57,38 c -0.54,-0.32 -0.92,-0.76 -1.14,-1.32 v -1.61 l -0.04,0.14 0.77,-1.32 -0.13,0.11 c -1.24,1 -1.05,3.18 0,4.21 1.05,1.03 1.82,1.41 3.32,1.35 l -1.36,-0.78 c 0.17,0.37 0.25,0.87 0.39,1.26 l 3.75,-1.58 c 0.14,0.22 0.02,0.32 0.06,-0.04 0.05,-0.45 -0.08,-0.9 -0.16,-1.34 -0.13,-0.76 -0.47,-1.42 -0.81,-2.11 l -5.76,4.45 c 0.14,0.18 0.31,0.33 0.5,0.46 2.78,2.19 6.37,0.17 5.79,-3.37 -0.02,-0.23 -0.07,-0.44 -0.16,-0.65 -0.67,-2.09 -2.87,-3.26 -4.95,-2.38 -1.87,0.79 -3.04,3.37 -1.75,5.21 0.67,0.96 1.34,1.75 2.42,2.25 0.81,0.37 1.77,0.26 2.51,0.55 0.94,0.37 2.08,-0.33 2.42,-1.19 0.4,-1 0.02,-1.96 -0.84,-2.56 -0.16,-0.11 -0.58,-0.35 -0.7,-0.53 v 1.58 c 0.92,-1.56 0.86,-2.64 0,-4.18 l -1.78,4.37 c 2.5,-1.05 3.25,-3.74 1.42,-5.85 -1.67,-1.92 -5.61,-0.47 -5.3,2.2 0.08,0.7 0.22,1.15 0.49,1.79 0.17,0.39 0.21,0.38 0.24,0.68 0.12,1 0,1.98 -0.26,2.94 -0.64,2.38 2.46,4.33 4.23,2.46 0.67,-0.71 1.07,-1.51 1.16,-2.5 0.04,-0.44 0.02,-0.8 -0.05,-1.26 -0.04,-0.23 -0.23,-0.6 -0.25,-0.74 l -0.31,1.14 0.12,-0.22 -0.8,0.8 0.22,-0.11 -1.7,0.22 c -0.57,-0.11 0.11,0.01 0.43,0.1 0.34,0.09 0.67,0.11 1.01,0.07 0.8,-0.1 1.5,-0.58 1.91,-1.27 0.37,-0.63 0.45,-1.38 0.25,-2.09 -0.18,-0.64 -0.75,-1.16 -0.93,-1.77 v 1.18 l 0.07,-0.21 -0.57,0.98 0.16,-0.15 -0.98,0.57 0.22,-0.05 h -1.18 l 0.23,0.09 -0.98,-0.57 c 0.88,0.7 1.62,1.48 2.41,2.27 0.99,1 2.05,1.21 3.41,1.3 1.04,0.06 1.57,-1.15 1.13,-1.97 v 0 z"
           id="path30"
           style="fill:#ffffff;stroke-width:0px" />
        <path
           class="cls-4"
           d="m 85.83,90.46 c -0.07,-0.41 -0.15,-0.82 -0.22,-1.24 l -5.18,3.02 c 0.06,0.14 0.12,0.28 0.19,0.42 l 4.59,-4.59 -0.26,-0.17 1.22,1.22 0.05,0.28 -6.45,2.72 c 0.28,0.49 0.59,0.94 0.91,1.41 l 4.93,-4.93 c -0.9,-0.68 -2.07,-0.92 -3.18,-0.87 -0.43,0.02 -2.89,0.83 -2.79,0.89 0.29,-0.07 0.58,-0.07 0.89,0 l -0.98,-0.13 c -0.76,-0.01 -1.48,0.13 -2.15,0.5 l -0.29,0.19 c -0.55,0.33 -0.99,0.77 -1.32,1.32 l 1.06,-0.81 c 0.9,0.02 1.02,-0.03 0.36,-0.15 -3.98,-0.94 -6.28,4.39 -2.78,6.59 2.82,1.78 5.9,0.54 7.72,-1.93 l -1.32,1.32 0.29,-0.2 -1.85,0.5 c -1.01,0 0.82,0.06 1.03,0.05 0.63,-0.02 1.22,-0.19 1.8,-0.41 0.4,-0.16 0.8,-0.33 1.17,-0.54 0.88,-0.52 -0.8,0.24 -1.27,-0.09 2.87,2.05 7.04,-2.06 4.93,-4.93 -0.51,-0.7 -1.02,-1.4 -1.59,-2.05 -1.26,-1.43 -3.7,-1.29 -4.99,0 -1.45,1.45 -1.23,3.53 0,4.99 0.58,0.69 1.42,1.16 2.29,1.36 3.16,0.72 5.77,-3.19 3.27,-5.61 -0.51,-0.49 -1.06,-0.92 -1.7,-1.23 -3.65,-1.72 -6.34,3 -3.13,5.35 0.72,0.53 1.61,0.81 2.5,0.71 1.63,-0.19 2.53,-1.34 2.27,-2.97 v 0 z"
           id="path31"
           style="fill:#df9bed;stroke-width:0px" />
        <path
           class="cls-16"
           d="m 56.65,40.53 c 0,0 -2.56,2.11 -4.6,-0.55 0,0 -1.14,4.3 -3.9,1.8 0,0 1.91,3.74 -1.57,2.19"
           id="path32"
           style="fill:#b653b0;stroke:#575300;stroke-width:2.52px;stroke-linecap:round;stroke-linejoin:round" />
        <path
           class="cls-5"
           d="M 45.52,32.54 C 45.48,32.42 45.43,32.31 45.35,32.2 45.3,32.13 45.25,32.07 45.19,32 c 0.02,0.02 0.04,0.04 0.05,0.07 v 0.4 l 0.02,-0.05 -0.2,0.35 0.03,-0.03 -0.36,0.21 h 0.04 c -0.36,-0.28 -0.72,-0.56 -1.08,-0.83 0.08,0.59 0.06,1.26 0.36,1.77 l 2.86,-1.67 c -0.09,-0.13 -0.17,-0.26 -0.23,-0.4 l 0.18,0.43 c -0.08,-0.19 -0.13,-0.39 -0.17,-0.59 l -3.2,1.86 c 0.06,0.06 0.11,0.13 0.16,0.19 l -0.31,-0.4 c 0.16,0.22 0.3,0.46 0.42,0.72 l -0.21,-0.5 0.03,0.08 L 47.4,32 c -0.19,-0.29 -0.38,-0.57 -0.59,-0.84 -0.14,-0.18 -0.26,-0.37 -0.4,-0.56 -0.24,-0.32 -0.52,-0.57 -0.87,-0.78 -0.5,-0.29 -1.16,-0.38 -1.73,-0.23 -0.52,0.14 -1.08,0.54 -1.34,1.03 -0.27,0.52 -0.41,1.15 -0.23,1.73 0.17,0.52 0.51,1.11 1.03,1.34 0.08,0.03 0.14,0.07 0.21,0.12 l -0.45,-0.35 c 0,0 0.08,0.07 0.11,0.12 l -0.35,-0.45 c 0.37,0.54 0.83,0.97 1.32,1.4 0.79,0.7 1.89,0.82 2.74,0.16 0.35,-0.27 0.65,-0.65 0.75,-1.09 0.12,-0.51 0.12,-1.17 -0.21,-1.61 -0.46,-0.61 -0.92,-1.11 -1.59,-1.49 -0.71,-0.41 -1.75,-0.33 -2.32,0.3 -0.57,0.63 -0.73,1.55 -0.3,2.32 0.32,0.58 0.85,1.09 1.46,1.36 0.42,0.19 0.82,0.29 1.28,0.17 0.38,-0.11 0.8,-0.4 0.99,-0.76 0.42,-0.79 0.21,-1.81 -0.59,-2.27 -0.32,-0.18 -0.61,-0.27 -0.98,-0.28 -0.09,0 -0.17,0 -0.25,-0.01 -0.18,-0.02 -0.36,-0.05 -0.54,-0.07 -0.46,-0.06 -0.85,0.44 -0.85,0.85 0,0.18 0.04,0.34 0.13,0.49 l 0.12,0.16 c -0.08,-0.11 -0.05,-0.07 0.08,0.1 0.08,0.08 0.17,0.15 0.26,0.21 0.04,0.03 0.08,0.05 0.12,0.08 -0.04,-0.03 -0.04,-0.02 0.01,0.03 0.4,0.52 1.32,-0.04 1.1,-0.64 z"
           id="path33"
           style="stroke-width:0px" />
      </g>
      <g
         id="g35">
        <path
           class="cls-13"
           d="M 73.76,77.49 C 68.59,67.17 62.88,57.04 56.7,47.16"
           id="path34"
           style="fill:#ffe366;stroke-width:0px" />
        <path
           class="cls-2"
           d="M 74.23,77.22 C 69.76,66.65 64.17,56.06 57.61,46.63 56.84,45.52 55.1,46.49 55.78,47.7 c 5.61,10.11 11.61,20.11 17.51,30.06 0.37,0.62 1.2,0.08 0.94,-0.55 v 0 z"
           id="path35"
           style="fill:#5f4600;stroke-width:0px" />
      </g>
      <g
         id="g37">
        <path
           class="cls-13"
           d="M 69.88,78 C 64.01,68.1 58.13,58.2 52.26,48.29"
           id="path36"
           style="fill:#ffe366;stroke-width:0px" />
        <path
           class="cls-2"
           d="M 70.2,77.81 C 64.7,67.7 58.86,57.77 53.03,47.84 c -0.58,-0.99 -2.14,-0.09 -1.55,0.9 5.92,9.88 11.83,19.77 18.07,29.45 0.26,0.41 0.88,0.05 0.65,-0.38 z"
           id="path37"
           style="fill:#5f4600;stroke-width:0px" />
      </g>
      <path
         class="cls-12"
         d="m 54.69,40.4 c 0.67,0 0.67,-1.04 0,-1.04 -0.67,0 -0.67,1.04 0,1.04 z"
         id="path38"
         style="fill:#ffffff;stroke-width:0px" />
      <g
         class="cls-27"
         id="g42"
         style="opacity:0.32">
        <g
           class="cls-25"
           clip-path="url(#clippath-2)"
           id="g41">
          <path
             class="cls-6"
             d="m 40.14,28.23 c 0.39,6 0.54,12.74 2.42,18.5 2.05,6.29 5.62,12.09 8.88,17.8 3.79,6.64 7.58,13.28 11.37,19.91 1.98,3.46 3.95,6.93 5.93,10.39 1.74,3.05 2.86,5.71 5.92,7.56 2.02,1.23 4.75,-0.35 4.72,-2.71 -0.05,-3.6 -1.8,-5.92 -3.57,-8.99 C 73.82,87.23 71.83,83.78 69.85,80.32 66.04,73.69 62.23,67.07 58.42,60.44 54.93,54.36 50.76,48.32 48.9,41.48 47.46,36.17 47.78,30.14 43.09,26.52 c -1.17,-0.9 -3.03,0.32 -2.95,1.69 v 0 z"
             id="path39"
             style="fill:#782d3e;stroke-width:0px" />
          <path
             class="cls-7"
             d="M 90.93,98.07 C 91.61,93.2 87.84,88.16 85.59,84.03 82.48,78.34 79.31,72.67 75.97,67.1 72.63,61.53 69.44,56.55 66.04,51.37 62.75,46.34 59.4,39.63 54.67,35.86 c -1.47,-1.17 -4.1,-0.15 -3.43,2 1.67,5.34 5.82,10.15 8.8,14.87 3.47,5.51 6.87,11.06 10.2,16.65 3.33,5.59 6.33,10.62 9.38,16 2.43,4.29 4.74,11.22 9.33,13.5 0.68,0.34 1.85,0.12 1.97,-0.8 v 0 z"
             id="path40"
             style="fill:#effdf4;stroke-width:0px" />
          <path
             class="cls-7"
             d="m 86.45,91.14 c -0.86,0.22 -1.67,0.26 -2.51,0.6 -0.92,0.37 -1.79,0.79 -2.72,1.12 -1.83,0.64 -3.87,0.7 -4.98,2.46 -0.66,1.04 -0.15,2.28 0.77,2.94 1.85,1.31 4.62,0.04 6.49,-0.77 0.89,-0.39 1.84,-0.8 2.64,-1.36 1.04,-0.73 1.48,-1.56 2.18,-2.56 0.86,-1.24 -0.56,-2.75 -1.86,-2.42 v 0 z"
             id="path41"
             style="fill:#effdf4;stroke-width:0px" />
        </g>
      </g>
      <polygon
         class="cls-20"
         points="69.83,85.95 80.3,81.13 84.06,87.52 73.06,91.41 "
         id="polygon42"
         style="fill:#ffffff;stroke:#131e3e;stroke-width:2.01px;stroke-linecap:round;stroke-linejoin:round" />
      <path
         class="cls-23"
         d="m 42.24,27.63 c 0.52,0.9 14.36,12.93 14.36,12.93 l 31.15,53.45 c 0,0 -10.29,2.5 -10.95,3.2 -0.66,0.7 -31.52,-54.1 -31.52,-54.1 z"
         id="path42"
         style="display:inline;fill:none;stroke:#5f4600;stroke-width:2.52px;stroke-linecap:round;stroke-linejoin:round" />
    </g>
  </g>
</svg>
