<?xml version="1.0" encoding="UTF-8" standalone="no"?>
<svg
   id="Calque_2"
   data-name="Calque 2"
   viewBox="0 0 23.209961 55.159935"
   version="1.1"
   sodipodi:docname="ruler.svg"
   width="23.209961"
   height="55.159935"
   inkscape:version="1.4.2 (2aeb623e1d, 2025-05-12)"
   xmlns:inkscape="http://www.inkscape.org/namespaces/inkscape"
   xmlns:sodipodi="http://sodipodi.sourceforge.net/DTD/sodipodi-0.dtd"
   xmlns="http://www.w3.org/2000/svg"
   xmlns:svg="http://www.w3.org/2000/svg">
  <sodipodi:namedview
     id="namedview54"
     pagecolor="#ffffff"
     bordercolor="#000000"
     borderopacity="0.25"
     inkscape:showpageshadow="2"
     inkscape:pageopacity="0.0"
     inkscape:pagecheckerboard="0"
     inkscape:deskcolor="#d1d1d1"
     inkscape:zoom="3.795053"
     inkscape:cx="15.546555"
     inkscape:cy="54.676443"
     inkscape:window-width="1600"
     inkscape:window-height="836"
     inkscape:window-x="0"
     inkscape:window-y="27"
     inkscape:window-maximized="1"
     inkscape:current-layer="g54" />
  <defs
     id="defs3">
    <style
       id="style1">
      .cls-1 {
        fill: #ffd4d4;
      }

      .cls-1, .cls-2, .cls-3, .cls-4, .cls-5, .cls-6, .cls-7, .cls-8, .cls-9, .cls-10, .cls-11, .cls-12, .cls-13, .cls-14 {
        stroke-width: 0px;
      }

      .cls-2 {
        fill: #5f4600;
      }

      .cls-3 {
        fill: #eefdf3;
      }

      .cls-15 {
        fill: #e16969;
        stroke: #3d0a0a;
      }

      .cls-15, .cls-16, .cls-17, .cls-18, .cls-19, .cls-20, .cls-21, .cls-22, .cls-23, .cls-24 {
        stroke-linecap: round;
        stroke-linejoin: round;
      }

      .cls-15, .cls-16, .cls-17, .cls-18, .cls-21, .cls-22, .cls-23, .cls-24 {
        stroke-width: 2.52px;
      }

      .cls-25 {
        clip-path: url(#clippath-2);
      }

      .cls-4, .cls-17 {
        fill: #df9bed;
      }

      .cls-16 {
        stroke: #575300;
      }

      .cls-16, .cls-8, .cls-24 {
        fill: #b653b0;
      }

      .cls-6 {
        fill: #782d3e;
      }

      .cls-7 {
        fill: #effdf4;
      }

      .cls-17, .cls-22 {
        stroke: #771b73;
      }

      .cls-9, .cls-21, .cls-22, .cls-23 {
        fill: none;
      }

      .cls-10 {
        fill: #792e3f;
      }

      .cls-26 {
        clip-path: url(#clippath-1);
      }

      .cls-11 {
        fill: #a8438c;
      }

      .cls-12, .cls-20 {
        fill: #fff;
      }

      .cls-27 {
        opacity: .32;
      }

      .cls-18, .cls-13 {
        fill: #ffe366;
      }

      .cls-18, .cls-23 {
        stroke: #5f4600;
      }

      .cls-28 {
        clip-path: url(#clippath);
      }

      .cls-19 {
        fill: #2056b6;
      }

      .cls-19, .cls-20 {
        stroke: #131e3e;
        stroke-width: 2.01px;
      }

      .cls-21, .cls-24 {
        stroke: #5e005f;
      }

      .cls-14 {
        fill: #3d0a0a;
      }
    </style>
    <clipPath
       id="clippath">
      <path
         class="cls-9"
         d="m 97.3,46.94 c 0,0 -38.29,-0.97 -66.3,9.46 L 29.49,48.18 11.22,50 21.94,60.4 C 13.42,64.88 6.72,70.84 3.77,78.78 c -8.98,24.13 8.16,33.15 18.78,36.34 4.25,1.28 8.78,1.27 13.02,-0.04 14.44,-4.47 53.3,-16.97 68.15,-26.55 18.4,-11.87 -4.67,-39.25 -6.43,-41.59 z"
         id="path1" />
    </clipPath>
    <clipPath
       id="clippath-1">
      <path
         class="cls-9"
         d="M 65.45,101.4 C 65.79,100.14 64.54,77.98 64.54,77.98 L 84.71,2.99 c 0,0 10.88,5.59 12.05,5.43 1.17,-0.16 -20.41,75.89 -20.41,75.89 z"
         id="path2" />
    </clipPath>
    <clipPath
       id="clippath-2">
      <path
         class="cls-9"
         d="m 41.26,26.62 c 0.52,0.9 14.36,12.93 14.36,12.93 L 86.77,93 c 0,0 -10.29,2.5 -10.95,3.2 C 75.16,96.9 44.3,42.1 44.3,42.1 Z"
         id="path3" />
    </clipPath>
  </defs>
  <g
     id="Layer_1"
     data-name="Layer 1"
     transform="translate(-48.520029,-4.8100243)">
    <g
       id="g54">
      <g
         id="g48">
        <polygon
           class="cls-15"
           points="64.89,6.07 70.47,55.91 62.62,58.71 49.78,9.07 "
           id="polygon28" />
        <path
           class="cls-14"
           d="m 61.35,16.34 c 1.2,-0.31 2.45,-0.49 3.69,-0.53 2.52,-0.07 2.5,-4.08 0,-3.91 -1.82,0.12 -3.36,0.54 -4.98,1.38 -1.71,0.89 -0.52,3.53 1.29,3.06 z"
           id="path43" />
        <path
           class="cls-14"
           d="m 61.74,23.5 c 1.32,-0.23 5.46,-0.09 4.88,-2.42 -0.29,-1.17 -1.74,-1.3 -2.72,-1.21 -1.16,0.11 -2.2,0.54 -3.27,1 -0.65,0.28 -0.85,1.21 -0.59,1.8 0.31,0.7 0.97,0.96 1.7,0.83 z"
           id="path44" />
        <path
           class="cls-14"
           d="m 63.11,31.4 c 0.71,-0.17 1.4,-0.24 2.13,-0.2 0.9,0.04 1.56,0.24 2.41,-0.19 0.92,-0.46 0.88,-1.65 0.3,-2.33 -1.19,-1.4 -4.16,-0.84 -5.71,-0.41 -2.02,0.56 -1.17,3.62 0.87,3.14 v 0 z"
           id="path45" />
        <path
           class="cls-14"
           d="m 63.33,38.69 c 1.61,0.31 3.46,0.55 4.78,-0.62 1.07,-0.95 0.35,-2.45 -0.76,-2.89 -1.11,-0.44 -2.42,0 -3.55,0.04 -0.87,0.02 -1.63,0.65 -1.74,1.53 -0.1,0.81 0.39,1.77 1.27,1.94 z"
           id="path46" />
        <path
           class="cls-14"
           d="m 64.79,46.05 c 1.32,0.33 2.52,0.36 3.86,0.1 0.84,-0.16 1.31,-1.16 1.1,-1.93 -0.25,-0.89 -1.09,-1.23 -1.93,-1.1 -0.84,0.13 -1.78,0.27 -2.67,0.33 -1.41,0.11 -1.88,2.22 -0.35,2.59 v 0 z"
           id="path47" />
        <path
           class="cls-14"
           d="m 66.69,53.39 c 1.12,-0.02 2.41,0.07 3.4,-0.53 1.32,-0.8 1.16,-3.03 -0.45,-3.4 -1.16,-0.27 -2.32,0.17 -3.42,0.51 -0.83,0.26 -1.37,1.05 -1.25,1.91 0.12,0.86 0.84,1.53 1.71,1.51 v 0 z"
           id="path48" />
      </g>
      <path
         class="cls-1"
         d="m 52.1,10.96 c 2.17,8.67 4.11,17.57 6.74,26.1 0.18,0.59 1.14,0.51 1.11,-0.15 C 59.58,28 56.19,18.99 53.4,10.6 53.13,9.78 51.89,10.11 52.1,10.96 Z"
         id="path53" />
      <path
         class="cls-1"
         d="m 52.84,11.97 c 1.99,-0.18 3.99,-0.29 5.97,-0.58 1.5,-0.22 3.46,-0.42 4.52,-1.61 0.5,-0.56 0.18,-1.54 -0.63,-1.53 -1.48,0.02 -3.02,0.7 -4.5,0.92 -1.89,0.28 -3.75,0.55 -5.58,1.13 -0.86,0.28 -0.77,1.76 0.23,1.67 v 0 z"
         id="path54" />
    </g>
  </g>
</svg>
