<?xml version="1.0" encoding="UTF-8" standalone="no"?>
<svg
   viewBox="0 0 304.69 344.25"
   version="1.1"
   id="svg46"
   sodipodi:docname="blue-arrow.svg"
   inkscape:version="1.4.2 (2aeb623e1d, 2025-05-12)"
   xmlns:inkscape="http://www.inkscape.org/namespaces/inkscape"
   xmlns:sodipodi="http://sodipodi.sourceforge.net/DTD/sodipodi-0.dtd"
   xmlns="http://www.w3.org/2000/svg"
   xmlns:svg="http://www.w3.org/2000/svg">
  <sodipodi:namedview
     id="namedview46"
     pagecolor="#ffffff"
     bordercolor="#000000"
     borderopacity="0.25"
     inkscape:showpageshadow="2"
     inkscape:pageopacity="0.0"
     inkscape:pagecheckerboard="0"
     inkscape:deskcolor="#d1d1d1"
     inkscape:zoom="1.8329702"
     inkscape:cx="152.21197"
     inkscape:cy="172.125"
     inkscape:window-width="1600"
     inkscape:window-height="836"
     inkscape:window-x="0"
     inkscape:window-y="27"
     inkscape:window-maximized="1"
     inkscape:current-layer="Calque_2" />
  <defs
     id="defs1">
    <style
       id="style1">.cls-1,.cls-8{fill:none;}.cls-2{fill:#33fdb6;}.cls-2,.cls-8{stroke:#29876c;stroke-miterlimit:10;stroke-width:5px;}.cls-3{fill:#6b7bd6;}.cls-4{fill:#e6fff2;}.cls-5{opacity:0.22;}.cls-6{clip-path:url(#clip-path);}.cls-7{fill:#901a3d;}</style>
    <clipPath
       id="clip-path"
       transform="translate(20.66 12.43)">
      <path
         class="cls-1"
         d="M173.74,166l25.88,15.93s30.52,21.9,33.18-4.65S255.36,22,255.36,22s5.31-14.6-6-19.24-150,63.7-150,63.7-28.53,9.93-7.3,31.51,26.55,28.21,26.55,28.21L26.12,231.84C19.62,239.25,12.46,246,5.46,253c-5.29,5.23-4.18,17.35,9,27.16,3.75,2.78,19.38,16.83,27.07,21.86,5.06,3.32,9.93,6.89,14.74,10.56,6.54,5,17,6,26.54-9.86C96.1,280.77,173.74,166,173.74,166Z"
         id="path1" />
    </clipPath>
  </defs>
  <g
     id="Calque_2"
     data-name="Calque 2">
    <g
       id="Warstwa_7"
       data-name="Warstwa 7">
      <path
         class="cls-2"
         d="M173.74,166l25.88,15.93s30.52,21.9,33.18-4.65S255.36,22,255.36,22s5.31-14.6-6-19.24-150,63.7-150,63.7-28.53,9.93-7.3,31.51,26.55,28.21,26.55,28.21L26.12,231.84C19.62,239.25,12.46,246,5.46,253c-5.29,5.23-4.18,17.35,9,27.16,3.75,2.78,19.38,16.83,27.07,21.86,5.06,3.32,9.93,6.89,14.74,10.56,6.54,5,17,6,26.54-9.86C96.1,280.77,173.74,166,173.74,166Z"
         transform="translate(20.66 12.43)"
         id="path2" />
      <path
         class="cls-3"
         d="M171.73,146.84l25.66,15.45s19.14,14.86,20.81-3.15S236.37,35.9,236.37,35.9s3.91-14.24-3.74-13.06C221.07,24.63,114.26,73.5,114.26,73.5s-17.9,6.73-4.58,21.38a203.41,203.41,0,0,0,27.51,24.94L36.76,238.61c-4.07,5-8.56,9.62-12.95,14.33-3.32,3.55-2.62,11.77,5.65,18.43,2.35,1.89,12.15,11.42,17,14.83,3.17,2.25,6.23,4.68,9.25,7.16,4.1,3.39,10.63,4.05,16.64-6.68C80.65,271.82,171.73,146.84,171.73,146.84Z"
         transform="translate(20.66 12.43)"
         id="path3" />
      <g
         class="cls-5"
         id="g46"
         style="display:inline">
        <g
           class="cls-6"
           clip-path="url(#clip-path)"
           id="g45">
          <path
             class="cls-7"
             d="m 44,324.16 c 7.59,-3.87 12.86,-9.86 18.09,-16.5 5.23,-6.64 10.27,-13.41 15.53,-20 C 88,274.58 98,261.16 108.29,248.07 q 31.39,-39.73 66.56,-76.26 L 154.32,156 C 121.58,210.08 83,260.49 45.16,311.08 c -4.46,6 -1,15.4 4.94,18.86 7.06,4.12 14.37,1 18.86,-4.95 38.04,-50.53 75.37,-101.51 107.94,-155.82 7.57,-12.64 -10.19,-26.69 -20.54,-15.85 q -35.58,37.32 -67.4,78 c -10.73,13.74 -21.38,27.78 -30.69,42.54 -8.76,13.88 -20.86,29.21 -21.6,46.11 -0.16,3.89 4.21,5.79 7.33,4.2 z"
             transform="translate(20.66,12.43)"
             id="path43"
             style="display:inline" />
          <path
             class="cls-7"
             d="m 174.53,161.61 a 38.35,38.35 0 0 1 -6.36,-20.47 l -13.15,10 c 11.37,3.73 20,12 28.18,20.39 9.53,9.7 18.91,19.4 30.57,26.6 7.23,4.47 18.12,0.35 20,-8.15 1.69,-7.52 0.42,-14.11 0.26,-21.6 -0.15,-6.74 1.55,-13.17 3.23,-19.67 q 5.15,-20 11.71,-39.58 6.7,-20 14.82,-39.54 c 5.16,-12.3 11,-24.39 15.82,-36.83 4.74,-12.23 7.06,-27.31 -0.47,-39 -5.19,-8 -16.24,-7.95 -22.82,-1.69 -5.5,5.23 -6.79,13.49 -8.68,20.47 Q 236.32,54.42 225.8,96.46 c -3.85,15.45 -7.86,30.9 -10.62,46.6 -2.4,13.68 -3.12,28.95 -9.38,41.28 l 25.31,10.66 12,-39.17 -27.22,-3.68 c -0.12,1.46 -0.33,1.22 -0.26,2.08 0.24,3.26 -0.22,-0.49 0.15,0.24 -0.64,-1.25 7.1,-3.5 8.29,-1.69 -0.46,-0.7 -2,-1.38 -2.64,-1.86 q -7.57,-5.37 -15.14,-10.77 l -29.49,-21 c -3.95,-2.81 -10,-2.34 -14,0 -4.57,2.67 -6.33,7 -6.87,12 0.81,-2.95 0.62,-3.35 -0.56,-1.22 l -2,2.79 q -2,2.78 -4.1,5.53 c -2.53,3.36 -4.74,6.22 -7.3,9.46 -5.7,7.22 -11.55,14.32 -17.47,21.36 -11.85,14.09 -24,27.93 -36,41.93 -24.17,28.3 -47.74,57.45 -66.27,89.84 a 14.07,14.07 0 0 0 5,18.93 c 7,4.09 14.54,1.11 18.93,-5 l 68.69,-94.95 33.76,-46.67 c 5.2,-7.19 10.28,-14.5 15.69,-21.53 2.57,-3.34 5.28,-6.58 8.13,-9.68 1.24,-1.35 3.44,-2.81 4.29,-4.42 0.85,-1.61 -1,0.47 -1.79,0.73 -4.61,1.38 -6.88,-1.56 -3.52,0.84 a 206.59,206.59 0 0 0 53.21,28 c 7,2.43 15.07,-2.77 17,-9.62 2.08,-7.58 -2.57,-14.52 -9.63,-17 -16.88,-5.83 -32,-14.73 -46.61,-25.19 -21,-15 -38.67,13.86 -49.23,28.3 -24.31,33.26 -48.33,66.74 -72.49,100.11 l -41.46,57.22 23.89,14 c 29.1,-50.8 70.38,-92.25 107.33,-137.4 q 8.49,-10.38 16.63,-21 c 6,-7.9 12.49,-15 13.6,-25.22 l -20.89,12 q 21.12,15 42.25,30 c 8,5.66 16.51,9.45 26,4 9.29,-5.36 11.79,-15.05 12.59,-25 0.54,-6.79 -5.69,-12.86 -12,-13.61 a 13.93,13.93 0 0 0 -15.21,9.93 l -11.92,39.17 c -4.5,14.78 18.12,24.81 25.28,10.66 7.38,-14.61 9.11,-30.13 11.77,-46 2.74,-16.35 6.89,-32.42 10.88,-48.49 4.11,-16.58 8.38,-33.14 12.17,-49.79 l 5.69,-25 2.63,-11.54 c 0.44,-1.92 0.86,-3.85 1.31,-5.77 0.22,-1 0.47,-2.09 0.76,-3.11 q -1.38,3.86 -6.67,4.2 l -10.9,-6.25 c 2.34,4.12 1.12,9 -1,14.62 -2.46,6.53 -6.13,12.75 -9.2,19.06 a 495.18,495.18 0 0 0 -19.84,47.41 q -8.37,22.92 -14.82,46.48 c -2.25,8.22 -4.43,16.43 -5.52,24.9 a 60.89,60.89 0 0 0 -0.46,13.08 c 0.28,3.23 1.46,7.83 1,10.66 l 20,-8.15 c -23,-12.45 -39.67,-36.79 -67,-43.47 -6.13,-1.5 -13.66,3 -13.15,10 0.87,12 5.09,22.42 14.42,30.28 6.59,5.55 18,-1.57 12.71,-9.81 z"
             transform="translate(20.66,12.43)"
             id="path44"
             style="display:inline" />
          <path
             class="cls-4"
             d="m 237.35,-6.55 c -3.56,6.9 -6.55,15.69 -11.47,21.63 -3.53,4.27 -9.38,5.71 -15.28,8.08 q -23.47,9.43 -46.88,19.06 C 132.06,55.32 100.6,69 70.57,85.58 l 16.77,21.74 C 128.75,67.15 187.75,49.78 238.11,22 c 13.42,-7.41 4.37,-30.37 -10.62,-25.19 -7.43,2.57 -14.64,5.68 -22.16,8 -7.52,2.32 -14.77,4.69 -22.07,7.33 A 263.4,263.4 0 0 0 143.6,29.8 222.83,222.83 0 0 0 82.2,80.8 c -4.53,5.42 -6,14.23 0,19.49 l 15.62,13.71 7.44,6.53 a 45.9,45.9 0 0 0 3.72,3.26 c 1.81,1.24 0.35,0.86 0.13,-0.42 v -7.34 q 1.4,-1 -0.24,1 c -0.59,1 -1.18,1.9 -1.78,2.84 -1.2,1.89 -2.41,3.75 -3.65,5.61 q -3.72,5.55 -7.66,11 c -4.93,6.74 -9.86,12.87 -15.43,19.5 C 69,169.49 57,182.42 45.08,195.37 33.16,208.32 21.21,221.31 10,234.93 c -6,7.37 -11.92,14.91 -17.5,22.65 -5.89,8.17 -11.81,15.77 -13.09,26 -0.93,7.46 7.05,13.89 13.89,13.89 8.28,0 13,-6.41 13.89,-13.89 -0.15,1.24 -2,4.22 0,1.66 0.45,-0.58 0.82,-1.3 1.23,-1.93 1.06,-1.64 2.15,-3.26 3.25,-4.87 q 3.76,-5.54 7.76,-10.9 c 4.26,-5.75 9,-11.64 13.94,-17.51 10.62,-12.64 21.8,-24.79 33,-36.93 22.88,-24.85 45.9,-50 64.11,-78.52 3.35,-5.26 6,-10.28 5.49,-16.69 C 135.46,111.48 131.54,107 127,103 118.59,95.57 110.12,88.22 101.68,80.83 v 19.49 a 199.24,199.24 0 0 1 55.79,-46.78 c 24.2,-13.66 51.2,-21.26 77.34,-30.19 L 224.2,-1.83 C 171.51,27.21 111.87,45 67.77,87.74 56.31,98.85 70.9,117 84.54,109.49 115,92.74 146.8,78.91 178.9,65.77 c 16.67,-6.82 33.41,-13.45 50,-20.56 8,-3.44 15.27,-8.11 19.14,-16.25 2.1,-4.43 2.8,-8.93 4,-13.62 1.2,-4.69 2.58,-9.38 3.81,-14.1 2.82,-10.79 -13.1,-18.26 -18.49,-7.79 z"
             transform="translate(20.66,12.43)"
             id="path45"
             style="display:inline" />
        </g>
      </g>
      <path
         class="cls-8"
         d="m 173.74,166 25.88,15.93 c 0,0 30.52,21.9 33.18,-4.65 C 235.46,150.73 255.36,22 255.36,22 c 0,0 5.31,-14.6 -6,-19.24 -11.31,-4.64 -150,63.7 -150,63.7 0,0 -28.48,9.93 -7.25,31.54 21.23,21.61 26.55,28.22 26.55,28.22 L 26.12,231.87 c -6.5,7.41 -13.66,14.18 -20.66,21.11 -5.29,5.23 -4.18,17.35 9,27.16 3.76,2.78 19.39,16.86 27.08,21.86 5.06,3.32 9.93,6.89 14.74,10.56 6.54,5 17,6 26.54,-9.86 C 96.1,280.8 173.74,166 173.74,166 Z"
         transform="translate(20.66,12.43)"
         id="path46"
         style="display:inline" />
    </g>
  </g>
</svg>
