<?xml version="1.0" encoding="UTF-8"?>
<svg xmlns="http://www.w3.org/2000/svg" xmlns:xlink="http://www.w3.org/1999/xlink" data-name="Calque 2" viewBox="0 0 134 129.63" style="fill: rgb(0, 0, 0);" original_string_length="6613" width="132.7386126989968px" height="128.63578285193694px"><defs><clipPath id="__id1_s54ny880k"><path d="m1.25,48.86c.87,2.33,33.75,78.84,33.75,78.84l97.75-46.55L97.83,1,1.25,48.86Z" stroke-width="0" style="fill: none;"/></clipPath></defs><g data-name="Layer 1"><g><path d="m1.25,49.11c.87,2.33,33.75,78.84,33.75,78.84l97.75-46.55L97.83,1.25,1.25,49.11Z" stroke="#231f20" stroke-linecap="round" stroke-linejoin="round" stroke-width="2.51" style="fill: rgb(33, 179, 213);"/><g stroke="#2b4d4a" stroke-linecap="round" stroke-linejoin="round" stroke-width="1.5" style="fill: none;"><path d="m7.83,64.6S104.5,16.55,104.65,16.9" style="fill: inherit;"/><path d="M11.66 43.96L45.09 123.14" style="fill: inherit;"/><path d="M21.6 39.03L53.92 118.94" style="fill: inherit;"/><path d="M31.15 35.16L63.47 115.07" style="fill: inherit;"/><path d="M40.08 31.16L72.4 111.06" style="fill: inherit;"/><path d="M47.31 26.3L79.63 106.21" style="fill: inherit;"/><path d="M55.61 22.61L87.93 102.52" style="fill: inherit;"/><path d="M63.47 18.97L95.79 98.88" style="fill: inherit;"/><path d="M71.77 14.76L104.09 94.66" style="fill: inherit;"/><path d="M79.63 10.06L111.95 89.97" style="fill: inherit;"/><path d="M88.49 5.68L120.81 85.59" style="fill: inherit;"/></g><g opacity=".35"><path d="m48.51,109.1c-.85.69-.36,1.81.62,2.12,2.38.76,3.54-3.89,3.97-5.22,1.01-3.12,1.84-6.34,2.68-9.51s1.38-5.91,5.21-5.01c3.17.75,6.39,2.48,9.73,1.61s5.07-3.74,5.15-7.01c.06-2.38-.84-4.68-.93-7.03-.08-.92-.01-1.83.2-2.73-.18-1.3.42-1.72,1.8-1.24.69-.15,1.59.14,2.32.06,10.87-1.2,10.27-14.18,8.51-21.94l-.64,2.42c.42-.39,5.08,1.09,6.49.42,1.78-.85,2.68-2.53,2.82-4.47.47-6.47-6.22-13.01-10.05-17.44-.62-.72-1.91.04-1.6.93.8,2.34,1.53,4.71,2.53,6.97.8,1.81,4.11,5.87,3.98,7.87-.17,2.69-2.24.79-4.04.75-1.6-.03-2.47.39-3.64,1.45-.67.61-.83,1.58-.64,2.42,1.02,4.57,2.95,13.58-3.48,15.42-2.95.84-5.6-1.22-7.97,1.55-1.61,1.87-1.84,5.2-1.75,7.56.12,3.5,2.73,10.18-3.35,8.81-4.09-.92-9.09-3.35-12.57.38-2.25,2.42-2.57,6.56-3.26,9.61-.83,3.7-2.23,8.03-1.5,11.4-.06-.29-.4-.31-.6-.16h0Z" style="fill: rgb(130, 38, 62);"/></g><path d="m47.97,110.01c1.63-5.59,3.26-11.17,4.89-16.76.3-1.02.66-3.74,1.36-4.65,1.15-1.5,1.37-1.06,3.66-.66,2.7.47,5.37,1.45,8.1,1.75,9.64,1.06,5.7-15.6,5.02-20.94l-2.98,2.98c5.33.56,17.75,3.1,18.59-4.87.48-4.55-.83-9.64-.9-14.25-.08-5.44.27-10.85.93-16.25.32-2.66-3.42-3.8-5.09-2.11-3.95,4.01-8.23,7.53-12.94,10.61-2.58,1.69-1.42,5.29,1.51,5.56,7.35.67,14.7,1.34,22.04,2.02,2.22.2,3.77-2.7,2.58-4.49-3.27-4.91-6.07-10.03-8.46-15.42-1.01-2.29-3.97-1.56-5.15,0-2.84,3.74-5.98,7.19-9.37,10.43-2.85,2.73,1.28,6.51,4.22,4.22,2.42-1.89,4.97-3.55,7.62-5.08l-4.38-3.37c-.28,1.37-.86,2.59-1.74,3.65-1.29,1.91.42,4.49,2.58,4.49.71,0,1.49-.41,2.11-.41,2.03.01-1.83-.93.59.65,1.57,1.03,2.7,1.52,4.53.89,3.61-1.24,2.06-7.01-1.59-5.75,1.32-.45-1.9-2.19-2.94-2.3-.86-.1-1.56.13-2.35.4-.94.32-1.87.56-.35.56l2.58,4.49c1.11-1.65,1.79-3.19,2.34-5.08.73-2.52-2.15-4.65-4.38-3.37-3.11,1.8-6,3.8-8.83,6.01l4.22,4.22c3.77-3.6,7.15-7.48,10.3-11.64h-5.15c2.39,5.39,5.2,10.51,8.46,15.42l2.58-4.49c-7.35-.67-14.7-1.34-22.04-2.02l1.51,5.56c5.13-3.36,9.83-7.18,14.14-11.55l-5.09-2.11c-.93,7.63-1.2,15.29-.63,22.95.11,1.47,1.08,4.51.58,5.72-.79,1.9,1.8.59-1.78,1.2-3.37.57-7.47-.11-10.82-.46-1.47-.15-3.17,1.5-2.98,2.98.37,2.94.66,5.88.81,8.84.08,1.59-.14,3.36.13,4.93.37,2.1-.65,1.56,1.11,1.35-4.65.54-9.73-3.88-14.44-2.48-3.76,1.12-4.35,6.22-5.27,9.35-1.72,5.9-3.44,11.79-5.17,17.69-1.08,3.69,4.68,5.27,5.75,1.59h0Z" style="fill: rgb(249, 132, 53);"/><g opacity=".34"><g clip-path="url(#__id1_s54ny880k)" style="fill: rgb(234, 253, 241);"><path d="m1.69,52.02c8.16.08,15.85-3.74,23.18-7.02,8.31-3.71,16.55-7.57,24.75-11.5,16.38-7.86,32.58-16.08,48.68-24.5,4.87-2.55.58-9.76-4.29-7.34-15.98,7.95-32.01,15.81-48.01,23.73-7.84,3.89-15.67,7.8-23.5,11.72s-15.8,7.37-21.22,13.94c-.3.36-.12.96.4.96h0Z" style="fill: inherit;"/><path d="m4.08,49.58c-.82,6.67,2.52,13.99,4.71,20.15,2.49,7,5.24,13.88,8.16,20.71s6.03,13.74,9.27,20.5c2.9,6.06,5.69,14.64,10.62,19.27,1.44,1.36,3.37-.04,3.1-1.81-.51-3.3-2.43-6.15-3.89-9.13-1.66-3.37-3.28-6.75-4.89-10.14-3.38-7.14-6.61-14.35-9.65-21.64-2.89-6.92-5.69-13.9-8.41-20.89-2.21-5.68-4.1-12.81-8.41-17.27-.23-.24-.57-.03-.6.25h0Z" style="fill: inherit;"/><path d="m35.72,126c4.38-1.6,9.09-2.29,13.54-3.89s8.81-3.35,13.17-5.14c7.81-3.22,15.5-6.74,23.17-10.28,8.03-3.7,16-7.55,23.92-11.49,3.96-1.97,7.9-3.97,11.84-5.99s8.75-3.82,12.13-6.96c2.19-2.04-.12-5.47-2.81-4.83-3.92.94-7.38,3.41-10.92,5.3-3.9,2.08-7.82,4.12-11.75,6.14-8.14,4.19-16.33,8.26-24.56,12.28s-15.95,7.57-23.91,11.4c-3.97,1.91-7.94,3.8-11.87,5.79-4.19,2.12-8.04,5.03-12.23,6.99-.38.18-.11.83.29.69h0Z" style="fill: inherit;"/><path d="m96.85,3.01c3.16,13.75,8.56,26.46,14.22,39.38,5.79,13.22,11.47,26.91,18.96,39.27,2.02,3.33,6.62.42,5.11-2.99-5.76-12.98-12.44-25.58-18.33-38.52-5.86-12.89-11.29-25.68-19.11-37.5-.29-.44-.98-.17-.86.36h0Z" style="fill: inherit;"/></g></g><path d="m1.25,49.55c.87,2.33,33.75,78.84,33.75,78.84l97.75-46.55L97.83,1.69,1.25,49.55Z" stroke="#2b4d4a" stroke-linecap="round" stroke-linejoin="round" stroke-width="2.51" style="fill: none;"/><g opacity=".49"><path d="m73.12,46.9c1.8-1.69,3.37-3.63,5.13-5.36.88-.86,1.79-1.68,2.74-2.46s2.05-1.47,3.02-2.27c.78-.65-.22-1.86-1.06-1.38-1.11.63-2.13,1.55-3.1,2.37s-1.93,1.71-2.83,2.63c-1.75,1.79-3.45,3.85-4.41,6.17-.13.3.31.49.51.3h0Z" style="fill: rgb(234, 253, 242);"/></g><g opacity=".49"><path d="m81.77,52.22c.17,4,.37,7.99.65,11.98.03.45.73.45.7,0-.23-4-.55-7.99-.9-11.98-.02-.29-.47-.3-.45,0h0Z" style="fill: rgb(234, 253, 242);"/></g><g opacity=".49"><path d="m68.49,67.56c.87.12,1.79.04,2.67.04s1.78-.05,2.67-.09c1.76-.08,3.51-.15,5.26-.4.55-.08.39-.92-.13-.94-1.78-.05-3.56.1-5.34.23-.89.06-1.78.12-2.67.23-.84.1-1.73.13-2.54.34-.36.09-.24.56.08.6h0Z" style="fill: rgb(234, 253, 242);"/></g><g opacity=".49"><path d="m66.81,68.65c.22,2.72.47,5.43.8,8.14.17,1.36.33,2.71.5,4.07.16,1.27.29,2.63.69,3.85.13.4.69.32.72-.1.1-1.34-.13-2.74-.29-4.07s-.33-2.71-.5-4.07c-.33-2.65-.75-5.29-1.19-7.92-.07-.41-.77-.32-.74.1h0Z" style="fill: rgb(234, 253, 242);"/></g><g opacity=".49"><path d="m46.31,103.66c.89-2.95,1.83-5.89,2.72-8.85.44-1.45.88-2.9,1.3-4.35s.87-2.89.99-4.36c.03-.38-.55-.53-.71-.19-.63,1.27-.99,2.7-1.38,4.07-.43,1.51-.81,3.04-1.2,4.56-.78,2.98-1.51,5.98-2.29,8.96-.1.37.46.52.57.16h0Z" style="fill: rgb(234, 253, 242);"/></g><g opacity=".49"><path d="m52.37,83.88c3.96,1.79,8.27,2.79,12.62,2.41.32-.03.32-.47,0-.5-4.19-.42-8.36-1.14-12.33-2.61-.4-.15-.69.52-.3.7h0Z" style="fill: rgb(234, 253, 242);"/></g></g></g></svg>