<svg xmlns="http://www.w3.org/2000/svg" xmlns:xlink="http://www.w3.org/1999/xlink" viewBox="0 0 296.37 262.52"><defs><style>.cls-1,.cls-9{fill:none;}.cls-2{fill:#ddf1f3;}.cls-2,.cls-9{stroke:#016673;stroke-linecap:round;stroke-linejoin:round;stroke-width:5px;}.cls-3{opacity:0.33;}.cls-4{clip-path:url(#clip-path);}.cls-5{fill:#901a3d;}.cls-6{fill:#e6fff2;}.cls-7{clip-path:url(#clip-path-2);}.cls-8{clip-path:url(#clip-path-3);}</style><clipPath id="clip-path" transform="translate(2.76 1.94)"><path class="cls-1" d="M67.48,50.86S73.58-7.24,125,23.05c0,0,16.71-24.28,42.2-21.3,28.21,3.3,29.71,21.3,29.71,21.3s57.73-20.63,64.37,27.81c0,0,41.14,30.52,10.61,63.7s-58.28,18.58-58.28,18.58S202.19,164.33,171,164.33s-46-15.26-46-15.26S104.12,175,75.85,164.33s-23-47.77-23-47.77S21,107.66,32.31,76.93,67.48,50.86,67.48,50.86Z"/></clipPath><clipPath id="clip-path-2" transform="translate(2.76 1.94)"><path class="cls-1" d="M52.88,215.43c-2,1.33-25.9,8-31.2-14.89,0,0-17.43-34.88,8.21-36.87s23,17.25,23,17.25,34,1.33,23,22.57S52.88,215.43,52.88,215.43Z"/></clipPath><clipPath id="clip-path-3" transform="translate(2.76 1.94)"><path class="cls-1" d="M9.75,253.92s-15.93-6-6-26.54,26.12,0,26.12,0,12.84,17.25,0,22.56S9.75,253.92,9.75,253.92Z"/></clipPath></defs><g id="Calque_2" data-name="Calque 2"><g id="Warstwa_10" data-name="Warstwa 10"><path class="cls-2" d="M70.11,52.51s6.1-58.1,57.5-27.81c0,0,16.71-24.27,42.2-21.29C198,6.7,199.52,24.7,199.52,24.7s57.73-20.63,64.36,27.81c0,0,41.15,30.53,10.62,63.71s-58.28,18.58-58.28,18.58S204.82,166,173.63,166s-46-15.27-46-15.27S106.76,176.6,78.48,166s-23-47.78-23-47.78-31.86-8.9-20.58-39.62S70.11,52.51,70.11,52.51Z" transform="translate(2.76 1.94)"/><path class="cls-2" d="M55.52,217.08c-2,1.33-25.9,8-31.2-14.89,0,0-17.44-34.88,8.21-36.87s23,17.26,23,17.26,34,1.32,23,22.56S55.52,217.08,55.52,217.08Z" transform="translate(2.76 1.94)"/><path class="cls-2" d="M12.38,255.57s-15.92-6-6-26.54,26.12,0,26.12,0,12.84,17.25,0,22.56S12.38,255.57,12.38,255.57Z" transform="translate(2.76 1.94)"/><g class="cls-3"><g class="cls-4"><path class="cls-5" d="M31.61,69.92c-9.22,9-7.75,24-.81,33.91a33.71,33.71,0,0,0,15.61,12.23c1.13.45,3,1.63,4.16,1.65,2.71.06-2.31-1.12-1.42-1.84,0,0,.37,1.32.35,1.42a85.07,85.07,0,0,0-.35,8.76c-.39,13.3,3.74,26.78,12.63,36.8A39.54,39.54,0,0,0,98,175.1a33.57,33.57,0,0,0,17.1-9c1.94-1.9,3.61-4.06,5.5-6a11.79,11.79,0,0,1,1.8-1.6c1.23-.91.44-.16.29-.13-1.64.35-.35.13.71.56,14.53,6,29.36,11.4,45.29,11.73,13.87.28,28-3.65,39.07-12.18a39.6,39.6,0,0,0,7-6.8c1.8-2.27,3.58-5.58,6.1-7.14,4.58-2.84,12.28-2.14,17.44-3a75.46,75.46,0,0,0,37.53-18.4c9.75-8.85,20-22.47,17.35-36.39-.66-3.43-4.82-3.66-7.05-1.86-8.3,6.69-13.76,16.54-21.94,23.56a63,63,0,0,1-26.76,13.73c-5.11,1.18-10.33,1.19-15.51,1.94A30.34,30.34,0,0,0,204,132.9c-3.81,3.86-6.93,8-11.63,10.86a41.18,41.18,0,0,1-16.3,5.57c-12,1.47-24.26-1.83-35.34-6.15-6.36-2.48-12.55-6.58-19.64-6.26s-12.58,4.21-17.17,9.3c-2.9,3.22-5.29,6.29-9,7.47a18.63,18.63,0,0,1-11.77-.24c-8.87-3.09-13.88-12.59-14.9-21.5-.75-6.61,1.31-13.28-.31-19.84C66,104.46,60.76,100.13,54,97c-8.84-4.13-11-13-11.43-22.51-.25-5.51-6.86-8.53-11-4.54Z" transform="translate(2.76 1.94)"/><path class="cls-6" d="M88.89,22.52l.34,0L85,20.77c6.73,5.85,15.36,8.63,21.9,14.88a10.61,10.61,0,0,0,12.47,1.61,17.2,17.2,0,0,0,4.42-3.35c5.4-5.53,1.9-17.47-6.86-16.57a25,25,0,0,0-7.95,2.15L121.4,21.1c-7.4-6.54-16.63-12-26.77-12.39-4.27-.14-9.76,1.13-11.17,5.77a6.18,6.18,0,0,0,5.43,8Z" transform="translate(2.76 1.94)"/><path class="cls-6" d="M151.34,15.18c-1.36-.86-1-.79,1,.19l2,.27c1.26.39,2.44.83,3.72,1.17A27.37,27.37,0,0,1,165.94,20c5,3.26,8.91,8.29,12.68,12.87,3.64,4.42,11.21,3.77,15,0,4.34-4.34,3.69-10.59,0-15C187.85,11.06,181.81,4.42,173.47.76,168.61-1.37,163.31-2.61,158-1.56c-4.87,1-7.4,3.61-10.73,6.9s-1,10.31,4.08,9.84Z" transform="translate(2.76 1.94)"/><path class="cls-6" d="M218.32,34.4c5.13.63,10.92,4.62,15,7.59,3.88,2.82,7.35,6.49,9.06,11,2.07,5.46,7.3,9.21,13.31,7.56,5.09-1.4,9.82-7.89,7.56-13.31-3.9-9.34-9.92-17.66-18.84-22.84s-18.07-5.22-27.85-3.1c-8,1.73-5.09,12.24,1.77,13.08Z" transform="translate(2.76 1.94)"/></g></g><g class="cls-3"><g class="cls-7"><path class="cls-5" d="M17.85,201c1.8,4.18,2.5,7.8,6,11.1a33.73,33.73,0,0,0,11.24,7,26.1,26.1,0,0,0,12.22,1.49c1.6-.19,5.51-.4,6.78-1.55-.79.72-1.33-1.47-1.26-.11.05.86,2.09,2.58,2.68,3.12,7.41,6.92,18.35,3.29,23.51-4.36,2.58-3.82,4-8.5,5.62-12.77,2-5.15,4.74-10.52,5.74-15.94,1.6-8.72-9.62-14.21-14.65-6.18-4.19,6.69-6.09,15-9.18,22.28-.35.83-1.73,2.58-1.72,3.45q-1.06,1-.21.36l2.31.83c.81-.95-6.86-6.21-7.27-6.38-6.46-2.74-11.85,2-18.09.56a23,23,0,0,1-7.47-3.82c-2.61-1.81-6.23-3-8.59-5-4.39-3.69-9.84.83-7.66,5.91Z" transform="translate(2.76 1.94)"/><path class="cls-6" d="M33.08,175.3c-1.75-1.78,1.13,1.3,1.5,1.6.65.49,1.29,1,2,1.42-1.76-1.24.42.38,1.39,1.05.45.31,1.52,1.33.13,0l1,1c1.47,1.34-.41-.92.08,0a24,24,0,0,0,3.05,4.53c2.38,2.77,6.9,3.23,10,1.9s6.06-4.83,5.66-8.41a15.7,15.7,0,0,0-3.93-9A22.29,22.29,0,0,0,49.14,165a16.2,16.2,0,0,0-7.61-2.67,10.9,10.9,0,0,0-2-.07,8.24,8.24,0,0,0-4.14,1.12q-2.85,2.31-.87.58c-4.22,2.16-4.56,8.19-1.46,11.35Z" transform="translate(2.76 1.94)"/></g></g><g class="cls-3"><g class="cls-8"><path class="cls-5" d="M-2.67,247.94c1.51,9.57,17.64,12.95,25.5,12.62,9.61-.41,25.34-4.06,26.14-15.66a7.58,7.58,0,0,0-5.54-7.28c-5.31-1.07-8.07,1.32-12.59,3.42a25.67,25.67,0,0,1-8.73,2.23,32.55,32.55,0,0,1-10-.36c-3.64-.84-7.44-2.37-11.16-1.26-2.87.86-4,3.5-3.57,6.29Z" transform="translate(2.76 1.94)"/><path class="cls-6" d="M17.16,225.3a1.73,1.73,0,0,0-.21.34,7.37,7.37,0,0,0-.54,1.34,5.47,5.47,0,0,0-.21,1.89l1.48-3.59-.05.05a4.1,4.1,0,0,0-1.14,1.77,4.15,4.15,0,0,0-.47,2.12l.19,1.46a5.52,5.52,0,0,0,1.42,2.42,1.83,1.83,0,0,0,.62.51,4.08,4.08,0,0,0,1.87,1l.23.06a9.26,9.26,0,0,0,1.57.21,6.12,6.12,0,0,0,2.73-.76l1.06-.81a4,4,0,0,0,1.09-1.69,2.66,2.66,0,0,0,.35-1.32,3.91,3.91,0,0,0-.09-2.09,5.94,5.94,0,0,0-.69-1.59l.55,1.3a6,6,0,0,0-1.53-2.58l-1.11-.86a4.06,4.06,0,0,0-2-.65,2.78,2.78,0,0,0-1.46,0,4.06,4.06,0,0,0-2,.65l0,0,6.15.79-.2-.22.78,1a1.63,1.63,0,0,1-.19-.34l.48,1.15a2.29,2.29,0,0,1-.08-.28l.17,1.25a1.5,1.5,0,0,1,0-.2,4.87,4.87,0,0,0-1-2.82,4.48,4.48,0,0,0-2.41-1.66,5.72,5.72,0,0,0-2.47,0,3.54,3.54,0,0,0-1.58.83,3.55,3.55,0,0,0-1.19,1.3Z" transform="translate(2.76 1.94)"/></g></g><path class="cls-9" d="M69.48,51.86S75.58-6.24,127,24.05c0,0,16.71-24.28,42.2-21.3,28.21,3.3,29.71,21.3,29.71,21.3s57.73-20.63,64.37,27.81c0,0,41.14,30.52,10.61,63.7s-58.28,18.58-58.28,18.58S204.19,165.33,173,165.33s-46-15.26-46-15.26S106.12,176,77.85,165.33s-23-47.77-23-47.77S23,108.66,34.31,77.93,69.48,51.86,69.48,51.86Z" transform="translate(2.76 1.94)"/><path class="cls-9" d="M54.88,216.43c-2,1.33-25.9,8-31.2-14.89,0,0-17.43-34.88,8.21-36.87s23,17.25,23,17.25,34,1.33,23,22.57S54.88,216.43,54.88,216.43Z" transform="translate(2.76 1.94)"/><path class="cls-9" d="M11.75,254.92s-15.93-6-6-26.54,26.12,0,26.12,0,12.84,17.25,0,22.56S11.75,254.92,11.75,254.92Z" transform="translate(2.76 1.94)"/></g></g></svg>