<?xml version="1.0" encoding="UTF-8" standalone="no"?>
<svg
   viewBox="0 0 263 176.00001"
   version="1.1"
   id="svg17"
   sodipodi:docname="bubble-3.svg"
   width="263"
   height="176"
   inkscape:version="1.4.2 (2aeb623e1d, 2025-05-12)"
   xmlns:inkscape="http://www.inkscape.org/namespaces/inkscape"
   xmlns:sodipodi="http://sodipodi.sourceforge.net/DTD/sodipodi-0.dtd"
   xmlns="http://www.w3.org/2000/svg"
   xmlns:svg="http://www.w3.org/2000/svg">
  <sodipodi:namedview
     id="namedview17"
     pagecolor="#ffffff"
     bordercolor="#000000"
     borderopacity="0.25"
     inkscape:showpageshadow="2"
     inkscape:pageopacity="0.0"
     inkscape:pagecheckerboard="0"
     inkscape:deskcolor="#d1d1d1"
     showgrid="false"
     inkscape:zoom="2.0312448"
     inkscape:cx="137.3542"
     inkscape:cy="107.0772"
     inkscape:window-width="1600"
     inkscape:window-height="836"
     inkscape:window-x="0"
     inkscape:window-y="27"
     inkscape:window-maximized="1"
     inkscape:current-layer="g10" />
  <defs
     id="defs3">
    <style
       id="style1">.cls-1,.cls-9{fill:none;}.cls-2{fill:#ddf1f3;}.cls-2,.cls-9{stroke:#016673;stroke-linecap:round;stroke-linejoin:round;stroke-width:5px;}.cls-3{opacity:0.33;}.cls-4{clip-path:url(#clip-path);}.cls-5{fill:#901a3d;}.cls-6{fill:#e6fff2;}.cls-7{clip-path:url(#clip-path-2);}.cls-8{clip-path:url(#clip-path-3);}</style>
    <clipPath
       id="clip-path"
       transform="translate(2.76 1.94)">
      <path
         class="cls-1"
         d="m 67.48,50.86 c 0,0 6.1,-58.1 57.52,-27.81 0,0 16.71,-24.28 42.2,-21.3 28.21,3.3 29.71,21.3 29.71,21.3 0,0 57.73,-20.63 64.37,27.81 0,0 41.14,30.52 10.61,63.7 -30.53,33.18 -58.28,18.58 -58.28,18.58 0,0 -11.42,31.19 -42.61,31.19 -31.19,0 -46,-15.26 -46,-15.26 0,0 -20.88,25.93 -49.15,15.26 -28.27,-10.67 -23,-47.77 -23,-47.77 0,0 -31.85,-8.9 -20.54,-39.63 C 43.62,46.2 67.48,50.86 67.48,50.86 Z"
         id="path1" />
    </clipPath>
    <clipPath
       id="clip-path-2"
       transform="translate(2.76 1.94)">
      <path
         class="cls-1"
         d="m 52.88,215.43 c -2,1.33 -25.9,8 -31.2,-14.89 0,0 -17.43,-34.88 8.21,-36.87 25.64,-1.99 23,17.25 23,17.25 0,0 34,1.33 23,22.57 -11,21.24 -23.01,11.94 -23.01,11.94 z"
         id="path2" />
    </clipPath>
    <clipPath
       id="clip-path-3"
       transform="translate(2.76 1.94)">
      <path
         class="cls-1"
         d="m 9.75,253.92 c 0,0 -15.93,-6 -6,-26.54 9.93,-20.54 26.12,0 26.12,0 0,0 12.84,17.25 0,22.56 -12.84,5.31 -20.12,3.98 -20.12,3.98 z"
         id="path3" />
    </clipPath>
  </defs>
  <g
     id="Calque_2"
     data-name="Calque 2">
    <g
       id="Warstwa_10"
       data-name="Warstwa 10"
       style="display:inline;stroke-width:1.37953;stroke-dasharray:none">
      <path
         class="cls-2"
         d="m 42.839153,55.434618 c 0,0 6.1,-58.1000001 57.499997,-27.81 0,0 16.71,-24.2700001 42.2,-21.2900001 28.19,3.29 29.71,21.2900001 29.71,21.2900001 0,0 57.73,-20.6300001 64.36,27.81 0,0 41.15,30.53 10.62,63.710002 -30.53,33.18 -58.28,18.58 -58.28,18.58 0,0 -11.4,31.2 -42.59,31.2 -31.19,0 -46,-15.27 -46,-15.27 0,0 -20.869997,25.87 -49.149997,15.27 -28.28,-10.6 -23,-47.78 -23,-47.78 0,0 -31.8599997,-8.9 -20.5799997,-39.620002 11.2799997,-30.72 35.2099997,-26.09 35.2099997,-26.09 z"
         id="path4"
         style="display:inline;stroke-width:1.37953;stroke-dasharray:none" />
      <g
         class="cls-3"
         id="g11"
         transform="translate(-25.169306,3.4769269)"
         style="stroke-width:1.37953;stroke-dasharray:none">
        <g
           class="cls-4"
           clip-path="url(#clip-path)"
           id="g10"
           style="stroke-width:1.37953;stroke-dasharray:none">
          <path
             class="cls-5"
             d="m 31.61,69.92 c -9.22,9 -7.75,24 -0.81,33.91 a 33.71,33.71 0 0 0 15.61,12.23 c 1.13,0.45 3,1.63 4.16,1.65 2.71,0.06 -2.31,-1.12 -1.42,-1.84 0,0 0.37,1.32 0.35,1.42 a 85.07,85.07 0 0 0 -0.35,8.76 c -0.39,13.3 3.74,26.78 12.63,36.8 A 39.54,39.54 0 0 0 98,175.1 a 33.57,33.57 0 0 0 17.1,-9 c 1.94,-1.9 3.61,-4.06 5.5,-6 a 11.79,11.79 0 0 1 1.8,-1.6 c 1.23,-0.91 0.44,-0.16 0.29,-0.13 -1.64,0.35 -0.35,0.13 0.71,0.56 14.53,6 29.36,11.4 45.29,11.73 13.87,0.28 28,-3.65 39.07,-12.18 a 39.6,39.6 0 0 0 7,-6.8 c 1.8,-2.27 3.58,-5.58 6.1,-7.14 4.58,-2.84 12.28,-2.14 17.44,-3 a 75.46,75.46 0 0 0 37.53,-18.4 c 9.75,-8.85 20,-22.47 17.35,-36.39 -0.66,-3.43 -4.82,-3.66 -7.05,-1.86 -8.3,6.69 -13.76,16.54 -21.94,23.56 a 63,63 0 0 1 -26.76,13.73 c -5.11,1.18 -10.33,1.19 -15.51,1.94 A 30.34,30.34 0 0 0 204,132.9 c -3.81,3.86 -6.93,8 -11.63,10.86 a 41.18,41.18 0 0 1 -16.3,5.57 c -12,1.47 -24.26,-1.83 -35.34,-6.15 -6.36,-2.48 -12.55,-6.58 -19.64,-6.26 -7.09,0.32 -12.58,4.21 -17.17,9.3 -2.9,3.22 -5.29,6.29 -9,7.47 A 18.63,18.63 0 0 1 83.15,153.45 C 74.28,150.36 69.27,140.86 68.25,131.95 67.5,125.34 69.56,118.67 67.94,112.11 66,104.46 60.76,100.13 54,97 45.16,92.87 43,84 42.57,74.49 c -0.25,-5.51 -6.86,-8.53 -11,-4.54 z"
             transform="translate(2.76,1.94)"
             id="path7"
             style="display:inline;stroke-width:1.37953;stroke-dasharray:none" />
          <path
             class="cls-6"
             d="m 88.89,22.52 h 0.34 L 85,20.77 c 6.73,5.85 15.36,8.63 21.9,14.88 a 10.61,10.61 0 0 0 12.47,1.61 17.2,17.2 0 0 0 4.42,-3.35 c 5.4,-5.53 1.9,-17.47 -6.86,-16.57 a 25,25 0 0 0 -7.95,2.15 L 121.4,21.1 C 114,14.56 104.77,9.1 94.63,8.71 90.36,8.57 84.87,9.84 83.46,14.48 a 6.18,6.18 0 0 0 5.43,8 z"
             transform="translate(2.76,1.94)"
             id="path8"
             style="stroke-width:1.37953;stroke-dasharray:none" />
          <path
             class="cls-6"
             d="m 151.34,15.18 c -1.36,-0.86 -1,-0.79 1,0.19 l 2,0.27 c 1.26,0.39 2.44,0.83 3.72,1.17 a 27.37,27.37 0 0 1 7.88,3.19 c 5,3.26 8.91,8.29 12.68,12.87 3.64,4.42 11.21,3.77 15,0 4.34,-4.34 3.69,-10.59 0,-15 C 187.85,11.06 181.81,4.42 173.47,0.76 168.61,-1.37 163.31,-2.61 158,-1.56 c -4.87,1 -7.4,3.61 -10.73,6.9 -3.33,3.29 -1,10.31 4.08,9.84 z"
             transform="translate(2.76,1.94)"
             id="path9"
             style="stroke-width:1.37953;stroke-dasharray:none" />
          <path
             class="cls-6"
             d="m 218.32,34.4 c 5.13,0.63 10.92,4.62 15,7.59 3.88,2.82 7.35,6.49 9.06,11 2.07,5.46 7.3,9.21 13.31,7.56 5.09,-1.4 9.82,-7.89 7.56,-13.31 -3.9,-9.34 -9.92,-17.66 -18.84,-22.84 -8.92,-5.18 -18.07,-5.22 -27.85,-3.1 -8,1.73 -5.09,12.24 1.77,13.08 z"
             transform="translate(2.76,1.94)"
             id="path10"
             style="stroke-width:1.37953;stroke-dasharray:none" />
        </g>
      </g>
      <path
         class="cls-9"
         d="m 42.209153,54.784618 c 0,0 6.1,-58.1000001 57.52,-27.81 0,0 16.709997,-24.2800001 42.199997,-21.3000001 28.21,3.3 29.71,21.3000001 29.71,21.3000001 0,0 57.73,-20.6300001 64.37,27.81 0,0 41.14,30.52 10.61,63.700002 -30.53,33.18 -58.28,18.58 -58.28,18.58 0,0 -11.42,31.19 -42.61,31.19 -31.19,0 -45.999997,-15.26 -45.999997,-15.26 0,0 -20.88,25.93 -49.15,15.26 -28.27,-10.67 -23,-47.77 -23,-47.77 0,0 -31.8499997,-8.9 -20.5399997,-39.630002 11.3099997,-30.73 35.1699997,-26.07 35.1699997,-26.07 z"
         id="path15"
         style="display:inline;stroke-width:1.37953;stroke-dasharray:none" />
    </g>
  </g>
</svg>
