<?xml version="1.0" encoding="UTF-8" standalone="no"?>
<svg
   viewBox="0 0 68.000001 59.000003"
   version="1.1"
   id="svg17"
   sodipodi:docname="bubble-2.svg"
   width="68"
   height="59"
   inkscape:version="1.4.2 (2aeb623e1d, 2025-05-12)"
   xmlns:inkscape="http://www.inkscape.org/namespaces/inkscape"
   xmlns:sodipodi="http://sodipodi.sourceforge.net/DTD/sodipodi-0.dtd"
   xmlns="http://www.w3.org/2000/svg"
   xmlns:svg="http://www.w3.org/2000/svg">
  <sodipodi:namedview
     id="namedview17"
     pagecolor="#ffffff"
     bordercolor="#000000"
     borderopacity="0.25"
     inkscape:showpageshadow="2"
     inkscape:pageopacity="0.0"
     inkscape:pagecheckerboard="0"
     inkscape:deskcolor="#d1d1d1"
     inkscape:zoom="2.4036265"
     inkscape:cx="148.10953"
     inkscape:cy="131.67603"
     inkscape:window-width="1600"
     inkscape:window-height="836"
     inkscape:window-x="0"
     inkscape:window-y="27"
     inkscape:window-maximized="1"
     inkscape:current-layer="Warstwa_10" />
  <defs
     id="defs3">
    <style
       id="style1">.cls-1,.cls-9{fill:none;}.cls-2{fill:#ddf1f3;}.cls-2,.cls-9{stroke:#016673;stroke-linecap:round;stroke-linejoin:round;stroke-width:5px;}.cls-3{opacity:0.33;}.cls-4{clip-path:url(#clip-path);}.cls-5{fill:#901a3d;}.cls-6{fill:#e6fff2;}.cls-7{clip-path:url(#clip-path-2);}.cls-8{clip-path:url(#clip-path-3);}</style>
    <clipPath
       id="clip-path"
       transform="translate(2.76 1.94)">
      <path
         class="cls-1"
         d="m 67.48,50.86 c 0,0 6.1,-58.1 57.52,-27.81 0,0 16.71,-24.28 42.2,-21.3 28.21,3.3 29.71,21.3 29.71,21.3 0,0 57.73,-20.63 64.37,27.81 0,0 41.14,30.52 10.61,63.7 -30.53,33.18 -58.28,18.58 -58.28,18.58 0,0 -11.42,31.19 -42.61,31.19 -31.19,0 -46,-15.26 -46,-15.26 0,0 -20.88,25.93 -49.15,15.26 -28.27,-10.67 -23,-47.77 -23,-47.77 0,0 -31.85,-8.9 -20.54,-39.63 C 43.62,46.2 67.48,50.86 67.48,50.86 Z"
         id="path1" />
    </clipPath>
    <clipPath
       id="clip-path-2"
       transform="translate(2.76 1.94)">
      <path
         class="cls-1"
         d="m 52.88,215.43 c -2,1.33 -25.9,8 -31.2,-14.89 0,0 -17.43,-34.88 8.21,-36.87 25.64,-1.99 23,17.25 23,17.25 0,0 34,1.33 23,22.57 -11,21.24 -23.01,11.94 -23.01,11.94 z"
         id="path2" />
    </clipPath>
    <clipPath
       id="clip-path-3"
       transform="translate(2.76 1.94)">
      <path
         class="cls-1"
         d="m 9.75,253.92 c 0,0 -15.93,-6 -6,-26.54 9.93,-20.54 26.12,0 26.12,0 0,0 12.84,17.25 0,22.56 -12.84,5.31 -20.12,3.98 -20.12,3.98 z"
         id="path3" />
    </clipPath>
    <clipPath
       id="clip-path-2-3"
       transform="translate(2.76 1.94)">
      <path
         class="cls-1"
         d="m 52.88,215.43 c -2,1.33 -25.9,8 -31.2,-14.89 0,0 -17.43,-34.88 8.21,-36.87 25.64,-1.99 23,17.25 23,17.25 0,0 34,1.33 23,22.57 -11,21.24 -23.01,11.94 -23.01,11.94 z"
         id="path2-6" />
    </clipPath>
  </defs>
  <g
     id="Calque_2"
     data-name="Calque 2">
    <g
       id="Warstwa_10"
       data-name="Warstwa 10"
       style="display:inline;stroke-width:1.5;stroke-dasharray:none">
      <path
         class="cls-2"
         d="m 40.390365,54.684983 c -2,1.33 -25.9,8 -31.1999998,-14.89 0,0 -17.4400002,-34.8799999 8.2099998,-36.8699999 25.65,-1.98999999 23,17.2599999 23,17.2599999 0,0 34,1.32 23,22.56 -11,21.24 -23.01,11.94 -23.01,11.94 z"
         id="path5"
         style="stroke-width:1.5;stroke-dasharray:none" />
      <g
         class="cls-3"
         id="g13"
         style="stroke-width:1.5;stroke-dasharray:none"
         transform="translate(-13.313217,-161.83879)">
        <g
           class="cls-7"
           clip-path="url(#clip-path-2)"
           id="g12"
           style="stroke-width:1.5;stroke-dasharray:none">
          <path
             class="cls-5"
             d="m 20.61,202.94 c 1.8,4.18 2.5,7.8 6,11.1 a 33.73,33.73 0 0 0 11.24,7 26.1,26.1 0 0 0 12.22,1.49 c 1.6,-0.19 5.51,-0.4 6.78,-1.55 -0.79,0.72 -1.33,-1.47 -1.26,-0.11 0.05,0.86 2.09,2.58 2.68,3.12 7.41,6.92 18.35,3.29 23.51,-4.36 2.58,-3.82 4,-8.5 5.62,-12.77 2,-5.15 4.74,-10.52 5.74,-15.94 1.6,-8.72 -9.62,-14.21 -14.65,-6.18 -4.19,6.69 -6.09,15 -9.18,22.28 -0.35,0.83 -1.73,2.58 -1.72,3.45 q -1.06,1 -0.21,0.36 l 2.31,0.83 c 0.81,-0.95 -6.86,-6.21 -7.27,-6.38 -6.46,-2.74 -11.85,2 -18.09,0.56 a 23,23 0 0 1 -7.47,-3.82 c -2.61,-1.81 -6.23,-3 -8.59,-5 -4.39,-3.69 -9.84,0.83 -7.66,5.91 z"
             id="path11"
             style="stroke-width:1.5;stroke-dasharray:none" />
          <path
             class="cls-6"
             d="m 33.08,175.3 c -1.75,-1.78 1.13,1.3 1.5,1.6 0.65,0.49 1.29,1 2,1.42 -1.76,-1.24 0.42,0.38 1.39,1.05 0.45,0.31 1.52,1.33 0.13,0 l 1,1 c 1.47,1.34 -0.41,-0.92 0.08,0 a 24,24 0 0 0 3.05,4.53 c 2.38,2.77 6.9,3.23 10,1.9 3.1,-1.33 6.06,-4.83 5.66,-8.41 a 15.7,15.7 0 0 0 -3.93,-9 22.29,22.29 0 0 0 -4.82,-4.39 16.2,16.2 0 0 0 -7.61,-2.67 10.9,10.9 0 0 0 -2,-0.07 8.24,8.24 0 0 0 -4.14,1.12 q -2.85,2.31 -0.87,0.58 c -4.22,2.16 -4.56,8.19 -1.46,11.35 z"
             transform="translate(2.76,1.94)"
             id="path12"
             style="stroke-width:1.5;stroke-dasharray:none" />
        </g>
      </g>
      <path
         class="cls-9"
         d="m 39.750365,54.034983 c -2,1.33 -25.9,8 -31.1999998,-14.89 0,0 -17.4300002,-34.8799999 8.2099998,-36.8699999 25.64,-1.98999999 23,17.2499999 23,17.2499999 0,0 34,1.33 23,22.57 -11,21.24 -23.01,11.94 -23.01,11.94 z"
         id="path16"
         style="display:inline;stroke-width:1.5;stroke-dasharray:none"
         sodipodi:nodetypes="ccscsc" />
    </g>
  </g>
</svg>
