<?xml version="1.0" encoding="UTF-8"?>
<svg id="Calque_2" data-name="Calque 2" xmlns="http://www.w3.org/2000/svg" xmlns:xlink="http://www.w3.org/1999/xlink" viewBox="0 0 162.93 159.88">
  <defs>
    <style>
      .cls-1, .cls-2 {
        fill: none;
      }

      .cls-1, .cls-3 {
        stroke: #000068;
        stroke-linecap: round;
        stroke-linejoin: round;
        stroke-width: 2.52px;
      }

      .cls-4 {
        fill: #782d3f;
      }

      .cls-4, .cls-2, .cls-5, .cls-6 {
        stroke-width: 0px;
      }

      .cls-7 {
        opacity: .51;
      }

      .cls-8 {
        opacity: .33;
      }

      .cls-5 {
        fill: #792e3f;
      }

      .cls-3 {
        fill: #5d72c9;
      }

      .cls-6 {
        fill: #fff;
      }

      .cls-9 {
        clip-path: url(#clippath);
      }
    </style>
    <clipPath id="clippath">
      <path class="cls-2" d="m160.5,81.96s-4.05-2.54-10.64-6.63c1.9-4.13,3.24-7.45,3.79-9.61,3.95-15.52-4.96-5.39-4.96-5.39,0,0-2.3,4.12-5.9,10.62-4.43-2.73-9.47-5.83-14.89-9.14,1.86-4.06,3.18-7.33,3.72-9.45,3.95-15.52-4.96-5.39-4.96-5.39,0,0-2.27,4.08-5.85,10.53-5.17-3.14-10.56-6.39-15.99-9.63,1.79-3.91,3.05-7.07,3.58-9.14,3.95-15.52-4.96-5.39-4.96-5.39,0,0-2.22,3.98-5.72,10.3-4.73-2.8-9.42-5.55-13.95-8.17,2.37-5.01,4.05-9.04,4.68-11.51,3.95-15.52-4.96-5.39-4.96-5.39,0,0-2.79,5-7.05,12.7-5.87-3.33-11.3-6.33-15.98-8.78,2.65-5.52,4.52-9.95,5.2-12.6,3.95-15.52-4.96-5.39-4.96-5.39,0,0-3.15,5.64-7.86,14.17-2.21-1.04-4.08-1.84-5.53-2.34-19.32-6.7-7,4.06-7,4.06,0,0,3.27,1.96,8.71,5.21-2.37,4.3-4.96,9.02-7.65,13.93-3.45-1.71-6.28-2.98-8.3-3.68-19.32-6.7-7,4.07-7,4.07,0,0,4.36,2.61,11.38,6.81-2.3,4.23-4.62,8.51-6.88,12.71-4.82-2.48-8.72-4.3-11.29-5.2-19.32-6.7-7,4.06-7,4.06,0,0,5.59,3.35,14.31,8.55-1.85,3.46-3.62,6.8-5.25,9.92-3.86-1.94-7.02-3.38-9.21-4.14-19.32-6.7-7,4.07-7,4.07,0,0,4.78,2.87,12.4,7.42-3.57,6.97-5.99,12.04-6.41,13.72-2.03,8.03,5.53,3.9,5.53,3.9,0,0,3.15-5.34,7.86-13.47,4.79,2.85,10.23,6.09,16.02,9.52-3.67,7.17-6.18,12.4-6.61,14.12-2.03,8.03,5.53,3.9,5.53,3.9,0,0,3.26-5.51,8.09-13.87,4.61,2.72,9.36,5.53,14.12,8.33-4.31,8.34-7.32,14.52-7.8,16.41-2.03,8.03,5.53,3.9,5.53,3.9,0,0,3.85-6.52,9.4-16.13,5.51,3.23,10.95,6.39,16.12,9.38-4.33,8.37-7.35,14.58-7.83,16.47-2.03,8.03,5.53,3.9,5.53,3.9,0,0,3.88-6.57,9.46-16.25,5.68,3.26,10.85,6.18,15.19,8.59-4.51,8.7-7.67,15.17-8.16,17.12-2.03,8.03,5.53,3.9,5.53,3.9,0,0,4.1-6.95,9.94-17.07,2.66,1.39,4.59,2.32,5.58,2.67,10,3.45,5.16-4.9,5.16-4.9,0,0-2.58-1.62-6.96-4.35,1.9-3.32,3.91-6.85,5.97-10.49,1.34.66,2.36,1.12,2.99,1.34,10,3.45,5.16-4.9,5.16-4.9,0,0-1.65-1.04-4.55-2.85,2.48-4.44,4.99-8.96,7.4-13.4,2.77,1.45,4.77,2.42,5.78,2.77,10,3.45,5.16-4.9,5.16-4.9,0,0-2.72-1.71-7.33-4.57,2.75-5.15,5.31-10.06,7.51-14.47,4.4,2.38,7.53,3.96,8.9,4.43,10,3.45,5.16-4.9,5.16-4.9Zm-59.71-25.68c5.31,3.11,10.59,6.2,15.66,9.14-2.22,4.02-4.68,8.49-7.26,13.19-4.9-2.98-10.03-6.08-15.23-9.2,2.48-4.64,4.79-9.09,6.82-13.13Zm4.1,30.21c-2.21,4.04-4.44,8.16-6.64,12.23-4.87-2.97-10.02-6.09-15.26-9.25,2.21-3.95,4.43-7.96,6.58-11.91,5.23,3.06,10.39,6.07,15.32,8.93Zm-25.22-42.66c4.4,2.6,8.95,5.29,13.55,8-2.17,3.94-4.58,8.31-7.09,12.9-4.49-2.67-8.96-5.3-13.31-7.83,2.46-4.57,4.78-8.99,6.86-13.06Zm1.97,29.09c-2.14,3.93-4.32,7.93-6.46,11.89-4.49-2.68-8.98-5.33-13.38-7.91,2.19-3.9,4.39-7.87,6.56-11.82,4.34,2.56,8.8,5.2,13.28,7.83Zm-24.97-42.75c4.51,2.69,9.72,5.79,15.36,9.14-2.22,4.02-4.64,8.43-7.15,13.01-5.54-3.16-10.74-6.07-15.36-8.56,2.56-4.75,4.99-9.35,7.15-13.59Zm-11.32,21.26c4.54,2.7,9.66,5.75,15.12,8.98-2.16,3.97-4.35,8-6.48,11.95-5.5-3.17-10.72-6.11-15.44-8.69,2.26-4.03,4.56-8.15,6.8-12.24Zm-.56,38.17c-5.74-3.29-11.13-6.31-15.92-8.89,1.69-2.94,3.47-6.07,5.32-9.33,4.69,2.79,9.91,5.89,15.41,9.15-1.68,3.14-3.3,6.19-4.81,9.07Zm21.2,12.4c-4.65-2.77-9.29-5.5-13.8-8.13,1.6-2.8,3.29-5.76,5.04-8.83,4.45,2.63,9,5.31,13.55,7.98-1.66,3.09-3.26,6.11-4.78,8.98Zm23.07,13.9c-5.03-3.06-10.31-6.26-15.66-9.47,1.62-2.84,3.32-5.83,5.06-8.9,5.35,3.13,10.6,6.18,15.56,9.05-1.72,3.22-3.39,6.35-4.96,9.32Zm21.96,13.48c-4.22-2.61-9.18-5.67-14.6-8.99,1.71-2.98,3.5-6.13,5.33-9.38,5.56,3.18,10.55,5.99,14.66,8.24-1.88,3.5-3.69,6.9-5.39,10.13Zm9.18-17.15c-4.03-2.5-8.86-5.48-14.2-8.76,2.3-4.11,4.6-8.28,6.85-12.39,5.33,3.06,10.22,5.83,14.41,8.16-2.34,4.29-4.72,8.66-7.06,12.99Zm10.96-20.13c-4.14-2.56-8.94-5.52-14.16-8.71,2.56-4.8,4.96-9.39,7.05-13.56,5.37,3.09,10.37,5.94,14.74,8.39-2.32,4.2-4.91,8.91-7.63,13.88Z"/>
    </clipPath>
  </defs>
  <g id="Layer_1" data-name="Layer 1">
    <g>
      <path class="cls-3" d="m160.5,81.96s-4.05-2.54-10.64-6.63c1.9-4.13,3.24-7.45,3.79-9.61,3.95-15.52-4.96-5.39-4.96-5.39,0,0-2.3,4.12-5.9,10.62-4.43-2.73-9.47-5.83-14.89-9.14,1.86-4.06,3.18-7.33,3.72-9.45,3.95-15.52-4.96-5.39-4.96-5.39,0,0-2.27,4.08-5.85,10.53-5.17-3.14-10.56-6.39-15.99-9.63,1.79-3.91,3.05-7.07,3.58-9.14,3.95-15.52-4.96-5.39-4.96-5.39,0,0-2.22,3.98-5.72,10.3-4.73-2.8-9.42-5.55-13.95-8.17,2.37-5.01,4.05-9.04,4.68-11.51,3.95-15.52-4.96-5.39-4.96-5.39,0,0-2.79,5-7.05,12.7-5.87-3.33-11.3-6.33-15.98-8.78,2.65-5.52,4.52-9.95,5.2-12.6,3.95-15.52-4.96-5.39-4.96-5.39,0,0-3.15,5.64-7.86,14.17-2.21-1.04-4.08-1.84-5.53-2.34-19.32-6.7-7,4.06-7,4.06,0,0,3.27,1.96,8.71,5.21-2.37,4.3-4.96,9.02-7.65,13.93-3.45-1.71-6.28-2.98-8.3-3.68-19.32-6.7-7,4.07-7,4.07,0,0,4.36,2.61,11.38,6.81-2.3,4.23-4.62,8.51-6.88,12.71-4.82-2.48-8.72-4.3-11.29-5.2-19.32-6.7-7,4.06-7,4.06,0,0,5.59,3.35,14.31,8.55-1.85,3.46-3.62,6.8-5.25,9.92-3.86-1.94-7.02-3.38-9.21-4.14-19.32-6.7-7,4.07-7,4.07,0,0,4.78,2.87,12.4,7.42-3.57,6.97-5.99,12.04-6.41,13.72-2.03,8.03,5.53,3.9,5.53,3.9,0,0,3.15-5.34,7.86-13.47,4.79,2.85,10.23,6.09,16.02,9.52-3.67,7.17-6.18,12.4-6.61,14.12-2.03,8.03,5.53,3.9,5.53,3.9,0,0,3.26-5.51,8.09-13.87,4.61,2.72,9.36,5.53,14.12,8.33-4.31,8.34-7.32,14.52-7.8,16.41-2.03,8.03,5.53,3.9,5.53,3.9,0,0,3.85-6.52,9.4-16.13,5.51,3.23,10.95,6.39,16.12,9.38-4.33,8.37-7.35,14.58-7.83,16.47-2.03,8.03,5.53,3.9,5.53,3.9,0,0,3.88-6.57,9.46-16.25,5.68,3.26,10.85,6.18,15.19,8.59-4.51,8.7-7.67,15.17-8.16,17.12-2.03,8.03,5.53,3.9,5.53,3.9,0,0,4.1-6.95,9.94-17.07,2.66,1.39,4.59,2.32,5.58,2.67,10,3.45,5.16-4.9,5.16-4.9,0,0-2.58-1.62-6.96-4.35,1.9-3.32,3.91-6.85,5.97-10.49,1.34.66,2.36,1.12,2.99,1.34,10,3.45,5.16-4.9,5.16-4.9,0,0-1.65-1.04-4.55-2.85,2.48-4.44,4.99-8.96,7.4-13.4,2.77,1.45,4.77,2.42,5.78,2.77,10,3.45,5.16-4.9,5.16-4.9,0,0-2.72-1.71-7.33-4.57,2.75-5.15,5.31-10.06,7.51-14.47,4.4,2.38,7.53,3.96,8.9,4.43,10,3.45,5.16-4.9,5.16-4.9Zm-59.71-25.68c5.31,3.11,10.59,6.2,15.66,9.14-2.22,4.02-4.68,8.49-7.26,13.19-4.9-2.98-10.03-6.08-15.23-9.2,2.48-4.64,4.79-9.09,6.82-13.13Zm4.1,30.21c-2.21,4.04-4.44,8.16-6.64,12.23-4.87-2.97-10.02-6.09-15.26-9.25,2.21-3.95,4.43-7.96,6.58-11.91,5.23,3.06,10.39,6.07,15.32,8.93Zm-25.22-42.66c4.4,2.6,8.95,5.29,13.55,8-2.17,3.94-4.58,8.31-7.09,12.9-4.49-2.67-8.96-5.3-13.31-7.83,2.46-4.57,4.78-8.99,6.86-13.06Zm1.97,29.09c-2.14,3.93-4.32,7.93-6.46,11.89-4.49-2.68-8.98-5.33-13.38-7.91,2.19-3.9,4.39-7.87,6.56-11.82,4.34,2.56,8.8,5.2,13.28,7.83Zm-24.97-42.75c4.51,2.69,9.72,5.79,15.36,9.14-2.22,4.02-4.64,8.43-7.15,13.01-5.54-3.16-10.74-6.07-15.36-8.56,2.56-4.75,4.99-9.35,7.15-13.59Zm-11.32,21.26c4.54,2.7,9.66,5.75,15.12,8.98-2.16,3.97-4.35,8-6.48,11.95-5.5-3.17-10.72-6.11-15.44-8.69,2.26-4.03,4.56-8.15,6.8-12.24Zm-.56,38.17c-5.74-3.29-11.13-6.31-15.92-8.89,1.69-2.94,3.47-6.07,5.32-9.33,4.69,2.79,9.91,5.89,15.41,9.15-1.68,3.14-3.3,6.19-4.81,9.07Zm21.2,12.4c-4.65-2.77-9.29-5.5-13.8-8.13,1.6-2.8,3.29-5.76,5.04-8.83,4.45,2.63,9,5.31,13.55,7.98-1.66,3.09-3.26,6.11-4.78,8.98Zm23.07,13.9c-5.03-3.06-10.31-6.26-15.66-9.47,1.62-2.84,3.32-5.83,5.06-8.9,5.35,3.13,10.6,6.18,15.56,9.05-1.72,3.22-3.39,6.35-4.96,9.32Zm21.96,13.48c-4.22-2.61-9.18-5.67-14.6-8.99,1.71-2.98,3.5-6.13,5.33-9.38,5.56,3.18,10.55,5.99,14.66,8.24-1.88,3.5-3.69,6.9-5.39,10.13Zm9.18-17.15c-4.03-2.5-8.86-5.48-14.2-8.76,2.3-4.11,4.6-8.28,6.85-12.39,5.33,3.06,10.22,5.83,14.41,8.16-2.34,4.29-4.72,8.66-7.06,12.99Zm10.96-20.13c-4.14-2.56-8.94-5.52-14.16-8.71,2.56-4.8,4.96-9.39,7.05-13.56,5.37,3.09,10.37,5.94,14.74,8.39-2.32,4.2-4.91,8.91-7.63,13.88Z"/>
      <g class="cls-8">
        <g class="cls-9">
          <path class="cls-5" d="m133.09-33.86c-2.49,4.56-7.77,7.32-10.86,11.57s-4.11,9.27-1.89,14.1c2.06,4.49,6.15,7.04,9.93,9.94,5.58,4.29,5.65,9.15,5.45,15.82-.22,7.35,10.84,7.22,11.34,0,.4-5.78-.09-12.13-3.17-17.2-2.71-4.45-7.19-6.88-11.24-9.91-4.61-3.44-3.81-6.28-.83-10.72,2.73-4.07,4.72-7.6,4.92-12.62.08-1.94-2.73-2.67-3.65-.99h0Z"/>
          <path class="cls-4" d="m104,161.97c8.08-16.69,18.87-32.24,28.44-48.11,5.06-8.38,10.02-16.82,15.03-25.23,4.92-8.28,10.98-16.57,14.63-25.48,1.45-3.53-4.1-6.68-6.46-3.76-6.26,7.72-10.76,17.35-15.81,25.91s-10.32,17.4-15.41,26.14-10.21,17.29-15.09,26.05c-4.1,7.36-7.78,15.15-8.44,23.64-.13,1.63,2.41,2.32,3.12.85h0Z"/>
          <path class="cls-4" d="m84.76,144.1c14.63-32.09,33.81-61.88,51.73-92.17,1.74-2.93-2.8-5.57-4.56-2.67-18.29,30.1-38.45,60.13-50.36,93.49-.66,1.84,2.37,3.15,3.19,1.34h0Z"/>
          <path class="cls-4" d="m61.14,129.76c8.77-13.75,15.62-28.97,23.45-43.29,7.82-14.29,17.41-28.18,23.89-43.13.98-2.26-1.97-5.33-3.81-2.94-10.06,13-17.26,28.75-24.83,43.3-7.55,14.52-15.89,29.5-21.12,45.04-.49,1.46,1.63,2.24,2.41,1.02h0Z"/>
          <path class="cls-4" d="m43.6,112c7.64-14.95,15.48-29.8,23.56-44.53,4.04-7.36,8.11-14.71,12.2-22.05s8.7-14.47,12.17-22.07c1.12-2.46-2.05-4.35-3.62-2.12-9.56,13.55-16.87,29.33-24.56,44.01s-15.36,29.9-22.72,45.02c-.96,1.98,1.96,3.72,2.97,1.74h0Z"/>
          <path class="cls-4" d="m20.18,97.32c8.62-14.9,16.83-30.02,25.36-44.97,4.11-7.2,8.25-14.38,12.37-21.58,4.14-7.24,9.26-14.47,11.63-22.52.49-1.67-1.67-2.86-2.88-1.67-6,5.87-9.89,13.88-14.13,21.05s-8.3,14.35-12.31,21.61c-8.34,15.09-16.49,30.27-23.79,45.89-1.16,2.49,2.32,4.65,3.75,2.19h0Z"/>
          <path class="cls-4" d="m5.98,82.15c18.27,12.62,36.96,24.64,55.86,36.29,18.83,11.6,37.76,23.56,57.51,33.54,2.86,1.45,5.27-2.61,2.52-4.32-18.82-11.7-38.45-22.2-57.51-33.53-19.07-11.33-37.97-22.94-56.91-34.5-1.63-.99-3.01,1.47-1.48,2.52h0Z"/>
          <path class="cls-4" d="m8.2,80.82c17.33,12.39,35.25,24.07,53.2,35.54s35.77,23.34,54.43,33.51c3.69,2.01,6.8-3.35,3.28-5.62-17.88-11.52-36.6-21.86-54.78-32.91-18.19-11.06-36.23-22.38-54.51-33.29-1.8-1.08-3.27,1.59-1.62,2.77h0Z"/>
          <path class="cls-4" d="m.82,76.76c20.66,12.91,41.33,25.73,62.45,37.91,21.07,12.14,42.07,24.73,64.11,35.05,3.48,1.63,6.37-3.09,3.05-5.21-20.52-13.07-42.25-24.27-63.55-36.01-21.35-11.77-42.92-23.08-64.41-34.55-1.85-.99-3.42,1.7-1.64,2.81h0Z"/>
          <path class="cls-4" d="m11.89,58.44c-1.48-1.84-2.86-3.63-3.89-5.76l-3.11,2.4c9.15,8.54,20.3,15.1,30.71,21.96s21.91,14.12,33.06,20.85c10.87,6.57,21.83,12.97,32.88,19.23,5.67,3.21,11.33,6.43,17.06,9.53s11.26,6.65,17.3,8.86c3.02,1.11,5.75-3.46,3.21-5.52-9.65-7.83-21.64-13.58-32.27-20-11.15-6.73-22.3-13.46-33.46-20.18s-21.79-13.04-32.75-19.44-21.95-13.79-33.81-18.61c-2.14-.87-3.37,2.49-1.53,3.62,2.1,1.29,3.52,2.73,5.23,4.41.91.89,2.13-.42,1.37-1.37h0Z"/>
          <path class="cls-4" d="m20.31,38.9c19.01,15.7,40.31,28.83,61.61,41.17,10.75,6.23,21.63,12.24,32.64,17.99,5.51,2.88,11.04,5.7,16.6,8.47s11.09,6.18,16.99,7.86c4.35,1.24,6.38-4.6,2.94-6.98-4.99-3.47-11.18-5.67-16.63-8.37s-11.11-5.56-16.63-8.42c-10.75-5.58-21.43-11.32-31.99-17.26-21.37-12.02-42.12-25.19-63.65-36.9-1.48-.81-3.3,1.27-1.89,2.44h0Z"/>
          <path class="cls-4" d="m16.97,38.48c19.43,12.06,38.99,23.84,58.73,35.4,19.61,11.48,39.36,23.64,59.82,33.54,3.32,1.61,6.03-2.93,2.9-4.97-19.04-12.41-39.65-23.05-59.6-33.91-20.1-10.95-40.31-21.62-60.69-32.05-1.32-.68-2.44,1.21-1.17,2h0Z"/>
          <path class="cls-4" d="m21.89,37.63c7.27,5.6,15.78,9.9,23.62,14.66s15.86,9.58,23.85,14.27c15.98,9.37,31.94,18.83,48.41,27.33,3.1,1.6,5.71-2.82,2.74-4.68-15.96-10.04-32.52-19.13-48.99-28.3-8.1-4.51-16.25-8.91-24.42-13.29s-15.78-9.24-24.11-12.58c-1.63-.65-2.23,1.71-1.09,2.59h0Z"/>
          <path class="cls-4" d="m34.08,21.12c21.72,12.4,43.55,24.61,65.36,36.86s43.23,25.36,65.41,36.89c4.15,2.16,7.6-3.73,3.67-6.27-20.96-13.54-43.39-25.17-65.41-36.89S58.54,28.76,35.72,18.31c-1.87-.86-3.5,1.75-1.64,2.81h0Z"/>
        </g>
      </g>
      <path class="cls-1" d="m160.5,81.96s-4.05-2.54-10.64-6.63c1.9-4.13,3.24-7.45,3.79-9.61,3.95-15.52-4.96-5.39-4.96-5.39,0,0-2.3,4.12-5.9,10.62-4.43-2.73-9.47-5.83-14.89-9.14,1.86-4.06,3.18-7.33,3.72-9.45,3.95-15.52-4.96-5.39-4.96-5.39,0,0-2.27,4.08-5.85,10.53-5.17-3.14-10.56-6.39-15.99-9.63,1.79-3.91,3.05-7.07,3.58-9.14,3.95-15.52-4.96-5.39-4.96-5.39,0,0-2.22,3.98-5.72,10.3-4.73-2.8-9.42-5.55-13.95-8.17,2.37-5.01,4.05-9.04,4.68-11.51,3.95-15.52-4.96-5.39-4.96-5.39,0,0-2.79,5-7.05,12.7-5.87-3.33-11.3-6.33-15.98-8.78,2.65-5.52,4.52-9.95,5.2-12.6,3.95-15.52-4.96-5.39-4.96-5.39,0,0-3.15,5.64-7.86,14.17-2.21-1.04-4.08-1.84-5.53-2.34-19.32-6.7-7,4.06-7,4.06,0,0,3.27,1.96,8.71,5.21-2.37,4.3-4.96,9.02-7.65,13.93-3.45-1.71-6.28-2.98-8.3-3.68-19.32-6.7-7,4.07-7,4.07,0,0,4.36,2.61,11.38,6.81-2.3,4.23-4.62,8.51-6.88,12.71-4.82-2.48-8.72-4.3-11.29-5.2-19.32-6.7-7,4.06-7,4.06,0,0,5.59,3.35,14.31,8.55-1.85,3.46-3.62,6.8-5.25,9.92-3.86-1.94-7.02-3.38-9.21-4.14-19.32-6.7-7,4.07-7,4.07,0,0,4.78,2.87,12.4,7.42-3.57,6.97-5.99,12.04-6.41,13.72-2.03,8.03,5.53,3.9,5.53,3.9,0,0,3.15-5.34,7.86-13.47,4.79,2.85,10.23,6.09,16.02,9.52-3.67,7.17-6.18,12.4-6.61,14.12-2.03,8.03,5.53,3.9,5.53,3.9,0,0,3.26-5.51,8.09-13.87,4.61,2.72,9.36,5.53,14.12,8.33-4.31,8.34-7.32,14.52-7.8,16.41-2.03,8.03,5.53,3.9,5.53,3.9,0,0,3.85-6.52,9.4-16.13,5.51,3.23,10.95,6.39,16.12,9.38-4.33,8.37-7.35,14.58-7.83,16.47-2.03,8.03,5.53,3.9,5.53,3.9,0,0,3.88-6.57,9.46-16.25,5.68,3.26,10.85,6.18,15.19,8.59-4.51,8.7-7.67,15.17-8.16,17.12-2.03,8.03,5.53,3.9,5.53,3.9,0,0,4.1-6.95,9.94-17.07,2.66,1.39,4.59,2.32,5.58,2.67,10,3.45,5.16-4.9,5.16-4.9,0,0-2.58-1.62-6.96-4.35,1.9-3.32,3.91-6.85,5.97-10.49,1.34.66,2.36,1.12,2.99,1.34,10,3.45,5.16-4.9,5.16-4.9,0,0-1.65-1.04-4.55-2.85,2.48-4.44,4.99-8.96,7.4-13.4,2.77,1.45,4.77,2.42,5.78,2.77,10,3.45,5.16-4.9,5.16-4.9,0,0-2.72-1.71-7.33-4.57,2.75-5.15,5.31-10.06,7.51-14.47,4.4,2.38,7.53,3.96,8.9,4.43,10,3.45,5.16-4.9,5.16-4.9Zm-59.71-25.68c5.31,3.11,10.59,6.2,15.66,9.14-2.22,4.02-4.68,8.49-7.26,13.19-4.9-2.98-10.03-6.08-15.23-9.2,2.48-4.64,4.79-9.09,6.82-13.13Zm4.1,30.21c-2.21,4.04-4.44,8.16-6.64,12.23-4.87-2.97-10.02-6.09-15.26-9.25,2.21-3.95,4.43-7.96,6.58-11.91,5.23,3.06,10.39,6.07,15.32,8.93Zm-25.22-42.66c4.4,2.6,8.95,5.29,13.55,8-2.17,3.94-4.58,8.31-7.09,12.9-4.49-2.67-8.96-5.3-13.31-7.83,2.46-4.57,4.78-8.99,6.86-13.06Zm1.97,29.09c-2.14,3.93-4.32,7.93-6.46,11.89-4.49-2.68-8.98-5.33-13.38-7.91,2.19-3.9,4.39-7.87,6.56-11.82,4.34,2.56,8.8,5.2,13.28,7.83Zm-24.97-42.75c4.51,2.69,9.72,5.79,15.36,9.14-2.22,4.02-4.64,8.43-7.15,13.01-5.54-3.16-10.74-6.07-15.36-8.56,2.56-4.75,4.99-9.35,7.15-13.59Zm-11.32,21.26c4.54,2.7,9.66,5.75,15.12,8.98-2.16,3.97-4.35,8-6.48,11.95-5.5-3.17-10.72-6.11-15.44-8.69,2.26-4.03,4.56-8.15,6.8-12.24Zm-.56,38.17c-5.74-3.29-11.13-6.31-15.92-8.89,1.69-2.94,3.47-6.07,5.32-9.33,4.69,2.79,9.91,5.89,15.41,9.15-1.68,3.14-3.3,6.19-4.81,9.07Zm21.2,12.4c-4.65-2.77-9.29-5.5-13.8-8.13,1.6-2.8,3.29-5.76,5.04-8.83,4.45,2.63,9,5.31,13.55,7.98-1.66,3.09-3.26,6.11-4.78,8.98Zm23.07,13.9c-5.03-3.06-10.31-6.26-15.66-9.47,1.62-2.84,3.32-5.83,5.06-8.9,5.35,3.13,10.6,6.18,15.56,9.05-1.72,3.22-3.39,6.35-4.96,9.32Zm21.96,13.48c-4.22-2.61-9.18-5.67-14.6-8.99,1.71-2.98,3.5-6.13,5.33-9.38,5.56,3.18,10.55,5.99,14.66,8.24-1.88,3.5-3.69,6.9-5.39,10.13Zm9.18-17.15c-4.03-2.5-8.86-5.48-14.2-8.76,2.3-4.11,4.6-8.28,6.85-12.39,5.33,3.06,10.22,5.83,14.41,8.16-2.34,4.29-4.72,8.66-7.06,12.99Zm10.96-20.13c-4.14-2.56-8.94-5.52-14.16-8.71,2.56-4.8,4.96-9.39,7.05-13.56,5.37,3.09,10.37,5.94,14.74,8.39-2.32,4.2-4.91,8.91-7.63,13.88Z"/>
      <g class="cls-7">
        <path class="cls-6" d="m5.87,73.52c2.83,2.24,5.98,3.61,9.44,4.59,1.96.56,2.79-2.47.84-3.05-3.14-.93-6.17-2.19-9.24-3.31-.96-.35-1.86,1.12-1.03,1.77h0Z"/>
        <path class="cls-6" d="m30.22,86.53c2.8,1.58,5.58,3.18,8.43,4.65,1.34.69,2.53-1.31,1.19-2.04-2.83-1.53-5.72-2.93-8.6-4.36-1.16-.58-2.17,1.1-1.02,1.75h0Z"/>
        <path class="cls-6" d="m50.91,99.14c4.48,2.55,8.91,5.22,13.57,7.42,1.87.89,3.45-1.69,1.64-2.81-4.38-2.72-9.02-5-13.59-7.38-1.82-.95-3.42,1.74-1.62,2.77h0Z"/>
        <path class="cls-6" d="m76.1,113.39c3.06,2.03,6.08,4.12,9.31,5.85,2.01,1.08,3.7-1.82,1.79-3.05-3.09-1.98-6.39-3.6-9.65-5.28-1.65-.85-3,1.46-1.45,2.48h0Z"/>
        <path class="cls-6" d="m99.88,127.65c1.83,1.42,3.65,2.8,5.57,4.09s3.9-1.96,1.86-3.18c-1.88-1.12-3.79-2.12-5.74-3.1-1.32-.66-3.01,1.16-1.69,2.19h0Z"/>
        <path class="cls-6" d="m42.51,71.9c2.95,2.06,5.84,4.3,8.99,6.05,1.41.78,3.17-1.25,1.8-2.33-2.93-2.32-6.19-4.2-9.34-6.2-1.58-1.01-2.95,1.44-1.45,2.48h0Z"/>
        <path class="cls-6" d="m18.94,58.94c1.29.76,2.55,1.55,3.9,2.19.85.4,1.88.24,2.39-.63.46-.79.21-1.95-.63-2.39-1.44-.76-2.97-1.35-4.48-1.97-.69-.29-1.55.26-1.81.89-.28.7-.04,1.52.63,1.91h0Z"/>
        <path class="cls-6" d="m28.24,37.27c2.65,1.49,5.18,2.98,8.04,3.99,2.04.72,2.85-2.13,1.36-3.23-2.31-1.71-4.84-2.89-7.41-4.18-2.26-1.14-4.24,2.16-2,3.42h0Z"/>
        <path class="cls-6" d="m49.87,49.14c1.65,1.19,3.31,2.37,5.02,3.49.82.54,2.01.16,2.48-.65.54-.93.14-1.9-.65-2.48-1.64-1.22-3.31-2.38-4.99-3.53-.82-.56-2.04-.16-2.52.66-.54.93-.15,1.93.66,2.52h0Z"/>
        <path class="cls-6" d="m43.26,19.25c1.18.66,2.34,1.32,3.56,1.9.9.42,1.98.25,2.52-.66s.16-1.96-.66-2.52c-1.12-.76-2.28-1.43-3.45-2.1-.91-.53-2.14-.21-2.68.7s-.22,2.16.7,2.68h0Z"/>
        <path class="cls-6" d="m61.88,30.02c2.95,1.16,5.85,3.53,8.98,4.03,1.1.18,2.43-.98,1.62-2.11-2.1-2.98-6.4-4.08-9.76-4.96-2.01-.52-2.69,2.32-.84,3.05h0Z"/>
        <path class="cls-6" d="m83.39,40.61c1.93.73,3.67,1.83,5.19,3.22,1.66,1.53,4.17-1.02,2.47-2.47-2.03-1.73-4.27-3.01-6.8-3.85-1.98-.66-2.75,2.38-.85,3.09h0Z"/>
        <path class="cls-6" d="m71.5,63.98c2.23,1.54,4.43,3.04,6.85,4.29,2.21,1.14,4.07-2.01,1.95-3.34-2.3-1.44-4.72-2.58-7.18-3.72-1.87-.86-3.33,1.59-1.62,2.77h0Z"/>
        <path class="cls-6" d="m82.62,95.37c2.28,2.28,4.75,4.21,7.73,5.48,2.22.94,4.21-2.14,1.95-3.34-2.52-1.33-5.09-2.72-7.35-4.47-1.63-1.26-3.88.78-2.33,2.33h0Z"/>
        <path class="cls-6" d="m107.2,110.84c3.08,1.44,6.14,2.96,9.31,4.19,1.53.59,2.64-2,1.13-2.67-3.11-1.39-6.33-2.49-9.53-3.67-1.24-.46-2.12,1.59-.91,2.16h0Z"/>
        <path class="cls-6" d="m92.46,75.12c3.73,2.58,7.57,5.74,11.97,7.04,1.51.44,2.59-1.51,1.51-2.6-3.21-3.25-7.83-5.14-11.86-7.2-1.85-.95-3.31,1.6-1.62,2.77h0Z"/>
        <path class="cls-6" d="m107.95,55.64c3.34,1.66,6.69,3.32,10.03,4.98,2.03,1.01,3.82-2.03,1.79-3.05l-10.01-5.02c-2.06-1.03-3.88,2.07-1.81,3.09h0Z"/>
        <path class="cls-6" d="m129.56,70.01c4.25,2.24,8.19,4.96,12.27,7.49,2.12,1.32,4.68-1.85,2.71-3.52-4-3.41-8.67-5.55-13.67-7.08-1.82-.56-3.02,2.2-1.31,3.1h0Z"/>
        <path class="cls-6" d="m119,92.14c2.11,1.48,4.2,2.85,6.44,4.13s4.18-2.1,2-3.42-4.41-2.51-6.72-3.64c-1.98-.96-3.5,1.67-1.71,2.93h0Z"/>
      </g>
    </g>
  </g>
</svg>