<?xml version="1.0" encoding="UTF-8"?>
<svg id="Calque_2" data-name="Calque 2" xmlns="http://www.w3.org/2000/svg" xmlns:xlink="http://www.w3.org/1999/xlink" viewBox="0 0 76.06 71.57">
  <defs>
    <style>
      .cls-1 {
        opacity: .5;
      }

      .cls-2 {
        fill: #eefdf3;
      }

      .cls-2, .cls-3, .cls-4, .cls-5 {
        stroke-width: 0px;
      }

      .cls-3, .cls-6 {
        fill: none;
      }

      .cls-7 {
        fill: #e79450;
      }

      .cls-7, .cls-6 {
        stroke: #70290d;
        stroke-linecap: round;
        stroke-linejoin: round;
        stroke-width: 2.52px;
      }

      .cls-4 {
        fill: #fff;
      }

      .cls-5 {
        fill: #8a3200;
      }

      .cls-8 {
        clip-path: url(#clippath);
      }
    </style>
    <clipPath id="clippath">
      <path class="cls-3" d="m49.5,3.59L13.28,1.26S.42,47.7,1.3,49.16l31.25,21.15,29.79-10.63,12.27-32.9S52.13,3.89,49.5,3.59Zm.49,5.28c1.57.17,18.45,16.49,18.45,16.49l-20.72,2.6L23.51,7.17l26.48,1.71Zm-19.21,53.62l-22.15-16c-.55-.99,7.57-32.33,7.57-32.33,0,0,25.6,18.48,25.42,20.31-.18,1.83-10.84,28.02-10.84,28.02Zm28.78-8.12l-20.06,7.16,9.38-25.22,18.61-3.21-7.93,21.27Z"/>
    </clipPath>
  </defs>
  <g id="Layer_1" data-name="Layer 1">
    <g>
      <path class="cls-7" d="m46.15,7.17c-.11,1.44-11.04,31.16-11.04,31.16l-30.23,5.22,2.71,7,27.51-7,25.7,13.17,2-5.55-22.31-12.84,11.29-31.16h-5.65Z"/>
      <path class="cls-5" d="m46.79,8.05c-3.4,3.93-4.68,9.19-6.29,14.04-1.79,5.38-2.64,12.99-5.95,17.59-.92,1.28.07,3.07,1.41,3.48,5.28,1.58,9.25,4.28,13.56,7.58,2.95,2.26,5.8,3.78,9.54,4.13,2.61.24,2.97-3.27,1.22-4.5-3.32-2.33-6.63-4.69-9.93-7.04-2.61-1.86-5.17,2.5-2.52,4.32,3.34,2.29,6.69,4.59,10.02,6.9l1.22-4.5c-4.61-.4-7.82-4.26-11.46-6.69-3.2-2.14-6.71-3.64-10.38-4.75l1.41,3.48c3.19-4.41,3.95-10.98,5.51-16.11,1.68-5.54,4.49-11.33,4.38-17.19-.02-.82-1.13-1.41-1.73-.72h0Z"/>
      <path class="cls-5" d="m35.3,37.88c-8.09-.05-16.79,3.07-24.7,4.7-3.08.63-2.31,4.54,0,5.5,1.35.56,1.68.6,3.14.48,2.82-.23,3.82-4.52.71-5.23-.82-.12-1.59-.37-2.33-.75v5.5c7.75-1.59,17.2-2.98,23.98-7.26,1.31-.83.8-2.93-.8-2.94h0Z"/>
      <path class="cls-5" d="m48.65,12.06c1.45-.25,1.91-1.73,1.72-3.01-.09-.63-.8-1.12-1.37-1.18-.63-.07-1.33.2-1.65.79-.25.46-.48.93-.72,1.4-.11.22-.23.43-.33.66-.23.49-.34.92-.39,1.46-.09.85.7,1.79,1.51,1.98.86.2,1.88-.12,2.32-.94.56-1.06.57-2.52.7-3.71l-3.08.83c.23.38-.06-.2-.02-.18,0-.1,0-.07-.02.08-.04.15-.04.17-.02.06-.56.98.36,1.94,1.36,1.77h0Z"/>
      <path class="cls-5" d="m31.78,42.18c.65-.04,1.32-.14,1.98-.11l-.5-3.71c-1.37.27-2.6,1.08-3.4,2.22-.43.6-.39,1.46-.12,2.11.3.71.82,1.12,1.54,1.37,1.32.47,3.02.18,3.97-.87.68-.75.95-1.96.37-2.87-.54-.84-1.67-1.45-2.67-1.09-.34.12-.68.23-1.01.39l.58-.25c-.18.08-.36.13-.56.16l.64-.09c-.16.01-.31.02-.46,0l.63.09c-.08,0-.15-.02-.23-.05l1.42,3.48c.09-.16.16-.33.25-.5.08-.16.22-.31.28-.46-.03.07-.31.36-.11.15.06-.06.11-.12.17-.18.07-.07.15-.13.22-.21.16-.17-.39.28-.05.04.78-.55,1.16-1.44.77-2.36-.35-.83-1.33-1.39-2.23-1.09-.62.2-1.29.3-1.93.44-.84.18-1.34,1.09-1.23,1.89s.83,1.55,1.69,1.49h0Z"/>
      <path class="cls-6" d="m46.06,6.6c-.11,1.44-11.04,31.16-11.04,31.16l-30.23,5.22,2.71,7,27.51-7,25.7,13.17,2-5.55-22.31-12.84,11.29-31.16h-5.65Z"/>
      <path class="cls-7" d="m49.68,3.59L13.46,1.26S.61,47.7,1.48,49.16l31.25,21.15,29.79-10.63,12.27-32.9S52.31,3.89,49.68,3.59Zm.49,5.28c1.57.17,18.45,16.49,18.45,16.49l-20.72,2.6L23.69,7.17l26.48,1.71Zm-19.21,53.62l-22.15-16c-.55-.99,7.57-32.33,7.57-32.33,0,0,25.6,18.48,25.42,20.31-.18,1.83-10.84,28.02-10.84,28.02Zm28.78-8.12l-20.06,7.16,9.38-25.22,18.61-3.21-7.93,21.27Z"/>
      <g class="cls-1">
        <g class="cls-8">
          <path class="cls-5" d="m69.65,30.33c-3.1,3.34-4.29,7.71-5.84,11.9s-3.12,12.5-7.87,13.93c-6.42,1.93-17.47.88-19.79,9.12-.49,1.76,1.11,2.94,2.7,2.7,4.19-.64,8.28-3.17,12.48-4.21,3.85-.95,8.08-1.43,10.68-4.74s3.77-7.9,5.03-11.86c1.65-5.22,4.26-10.79,3.77-16.35-.05-.55-.73-.95-1.17-.48h0Z"/>
          <path class="cls-5" d="m69.54,34.1c.83-.44,1.64-.91,2.47-1.35l-2.27-2.27c1.11-.41,1.44-.61.98-.61-.14,0-.08,0,.19.03-.22-.03-.43-.06-.65-.06-.43,0-.89.13-1.27.35-.93.53-1.35,1.79-.78,2.73.45.74,1.45,1.13,2.28.85,1.04-.35,1.75-1.66,1.04-2.65-.51-.72-1.5-1.14-2.32-.61s-1.06,1.49-.61,2.32l.03.05-.23-.86v.04c.08-.29.15-.57.23-.86l-.02.03.61-.61c.65-.31,1.22-.25,1.72.2l.45.76.05.35-.24.88c-.03.05-.93.75-.99.59,0,0,.21,0,.23,0,.28-.01.59-.06.85-.15.71-.25,1.29-.76,1.48-1.51.17-.69-.11-1.53-.76-1.87-.7-.37-1.42-.23-2.01.26-.72.59-1.45,1.15-2.17,1.74-.54.44-.51,1.36-.11,1.86.45.56,1.19.7,1.83.36h0Z"/>
          <path class="cls-2" d="m4.66,49.37c2.14-2.84,2.52-6.59,3.37-9.99.98-3.96,2.13-7.86,3.3-11.76,2.35-7.84,5.19-15.4,8.01-23.07,1.05-2.85-3.69-4.9-4.96-2.09-3.42,7.58-6.13,15.69-8.21,23.74-1.1,4.25-1.96,8.57-2.72,12.89-.59,3.35-1.46,6.78-.38,10.07.25.76,1.15.8,1.59.21h0Z"/>
          <path class="cls-2" d="m15.74,4.91c3.76,2.6,9.4,2.36,13.83,2.49,5.05.15,10.65.93,15.5-.68,1.01-.33.96-1.65,0-2-4.56-1.67-9.76-1.27-14.55-1.75s-10.16-1.84-14.52-.05c-.87.36-1.07,1.42-.26,1.98h0Z"/>
          <path class="cls-2" d="m40.67,6.39c1.59.68,3.21,1.24,4.9,1.58s3.63.93,5.2.28,1.76-2.36.44-3.36-3.43-.95-5.08-1.04c-1.74-.09-3.45.04-5.17.3-1,.15-1.23,1.84-.29,2.24h0Z"/>
          <path class="cls-2" d="m15.51,5.55c3.97,4.9,9.37,8.92,14.19,12.97,4.35,3.65,9.22,7.89,14.23,10.48.6.31,1.52-.38,1.03-1.03-3.5-4.65-8.8-9.06-13.24-12.83-4.68-3.96-9.37-8.49-14.72-11.52-1.28-.72-2.33.88-1.49,1.93h0Z"/>
          <path class="cls-2" d="m48.8,31.61c.3,0,.3-.47,0-.47s-.3.47,0,.47h0Z"/>
          <path class="cls-2" d="m41.73,27.31c2.65,4.24,5.29,5.8,10.08,4.71,6.57-1.5,13.15-2.9,19.7-4.48,2.39-.58,1.38-4.23-1.02-3.68-4.48,1.02-8.92,2.14-13.38,3.27-2.04.52-4.17,1.19-6.25,1.49-3.82.54-4.62-1.03-7.56-2.88-.97-.61-2.19.61-1.58,1.58h0Z"/>
          <path class="cls-2" d="m51.74,7.95c5.93,6.6,12.19,12.88,18.23,19.38,1.88,2.02,4.96-1.05,3.03-3.03-6.21-6.38-12.54-12.57-19.57-18.04-1.2-.93-2.76.52-1.7,1.7h0Z"/>
        </g>
      </g>
      <path class="cls-6" d="m49.5,3.59L13.28,1.26S.42,47.7,1.3,49.16l31.25,21.15,29.79-10.63,12.27-32.9S52.13,3.89,49.5,3.59Zm.49,5.28c1.57.17,18.45,16.49,18.45,16.49l-20.72,2.6L23.51,7.17l26.48,1.71Zm-19.21,53.62l-22.15-16c-.55-.99,7.57-32.33,7.57-32.33,0,0,25.6,18.48,25.42,20.31-.18,1.83-10.84,28.02-10.84,28.02Zm28.78-8.12l-20.06,7.16,9.38-25.22,18.61-3.21-7.93,21.27Z"/>
      <path class="cls-4" d="m16.56,8.87c2.42,2.43,5.33,4.53,8.11,6.54.81.58,1.57-.63,1-1.3-2.2-2.59-5.06-5.07-8.2-6.43-.74-.32-1.56.53-.91,1.19h0Z"/>
      <path class="cls-4" d="m34.72,23.08c2.52,2.15,5.02,4.34,7.57,6.45.67.56,1.65-.41.97-.97-2.56-2.12-5.18-4.17-7.77-6.25-.54-.43-1.3.31-.77.77h0Z"/>
      <path class="cls-4" d="m6.19,48.28c1.61,1.86,3.18,3.48,5.34,4.7,1,.57,1.85-.7,1.17-1.52-1.58-1.9-3.46-3.15-5.57-4.41-.79-.47-1.5.57-.94,1.22h0Z"/>
      <path class="cls-4" d="m19.19,58.14l.67.33c.21.1.49.06.61-.16.11-.2.06-.5-.16-.61l-.67-.33c-.21-.1-.49-.06-.61.16-.11.2-.06.5.16.61h0Z"/>
      <path class="cls-4" d="m23.26,60.71l1.96,1.42c.44.32.9-.44.43-.73l-2.05-1.25c-.37-.23-.67.33-.33.57h0Z"/>
      <path class="cls-4" d="m20.89,4.43c2.05.46,4.08,1,6.2.95,1.09-.03,1.38-1.68.26-1.95-2.07-.5-4.17-.41-6.27-.4-.78,0-.99,1.21-.19,1.39h0Z"/>
      <path class="cls-4" d="m36.59,5.69c1.25.18,2.58.5,3.85.48.85-.02,1.09-1.34.21-1.53-1.25-.27-2.6-.22-3.88-.29-.76-.04-.95,1.23-.18,1.34h0Z"/>
    </g>
  </g>
</svg>