<?xml version="1.0" encoding="UTF-8"?>
<svg id="Calque_2" data-name="Calque 2" xmlns="http://www.w3.org/2000/svg" viewBox="0 0 94.93 73.85">
  <defs>
    <style>
      .cls-1 {
        fill: #bc63e9;
      }

      .cls-1, .cls-2, .cls-3, .cls-4, .cls-5, .cls-6 {
        stroke-width: 2.51px;
      }

      .cls-1, .cls-2, .cls-3, .cls-4, .cls-6 {
        stroke-linecap: round;
        stroke-linejoin: round;
      }

      .cls-1, .cls-4 {
        stroke: #3f231d;
      }

      .cls-2, .cls-4, .cls-5, .cls-6 {
        fill: none;
      }

      .cls-2, .cls-5 {
        stroke: #132247;
      }

      .cls-7 {
        opacity: .39;
      }

      .cls-3 {
        fill: #7ce7f4;
      }

      .cls-3, .cls-6 {
        stroke: #2b4d4a;
      }

      .cls-8 {
        opacity: .23;
      }

      .cls-9 {
        fill: #5270d5;
      }

      .cls-9, .cls-10, .cls-11 {
        stroke-width: 0px;
      }

      .cls-5 {
        stroke-miterlimit: 10;
      }

      .cls-10 {
        fill: #eafdf1;
      }

      .cls-11 {
        fill: #82263e;
      }
    </style>
  </defs>
  <g id="Layer_1" data-name="Layer 1">
    <g>
      <polygon class="cls-1" points="32.09 72.6 58.85 8.02 93.18 58.88 32.09 72.6"/>
      <polygon class="cls-3" points="1.25 62.71 62.63 49.91 24.53 1.62 1.25 62.71"/>
      <path class="cls-9" d="m49.31,36.81l.5,1.5c.12.54.83.44,1,0,.26-.67.25-.59.2-1.3-.07-1.03-1.58-1.05-1.62,0l-.03.87,2.03-.27-.19-.71c-.28-1.05-2.13-1.21-2.3,0-.09.65-.15,1.13-.16,1.78h2.65l-.11-2.33c-.09-1.78-2.42-2.03-3.02-.41-1.84,5.01-3.87,10.28-6.41,14.98-1.5,2.76,1.86,4.96,4.12,3.18,2.13-1.68,4.8-2.3,7.45-2.47,2.37-.15,4.31.1,6.05-1.74.65-.69.8-2,0-2.67-2.55-2.12-4.78-4.67-6.23-7.67l-3.67,2.14c2.07,2.81,3.93,5.73,6.12,8.46,1.93,2.41,6.2-.83,4.32-3.33-2.18-2.9-4.39-5.78-6.65-8.63-1.92-2.43-6.23.85-4.33,3.34,1.37,1.78,2.62,3.58,2.97,5.84l.28-2.15-.31.49,1.68-1.29-.53.14,2.75.73c-1.06-.91-1.83-2.23-2.58-3.39-1.59-2.47-5.6-1.56-5.62,1.52,0,.88-.01,1.75-.02,2.63-.03,4.61,7.31,3.95,6.41-.87-.16-.85-.32-1.71-.47-2.56l-5.04,2.93c1.94,2.15,4.93,6.85,8.04,3.28,2.51-2.88-1.1-7.71-2.81-10.08l-4.76,2.78c2.18,2.91,4.4,5.77,6.65,8.63l3.89-3.89c-2.1-2.5-4.47-4.73-6.67-7.14-1.67-1.83-4.45.5-3.34,2.57,1.81,3.38,4.54,5.56,7.23,8.2l1.84-3.16c-5.43-1.37-12.07.17-16.37,3.65l4.12,3.18c2.87-5.45,3.86-10.83,4.85-16.81h-2.96l.53,2.28c.39,1.69,2.83.95,2.55-.7l-.1-1.11-2.03.84.46.55c.78.95,2.13-.26,1.62-1.25l-.39-.75-1.4.82.29.75.96-.26c-.46-.89-.34-.69-.96-1.47-.23-.29-.61.08-.48.37h0Z"/>
      <g class="cls-7">
        <path class="cls-10" d="m9.67,54.09c6.28-12.59,12.52-25.44,15.08-39.39.23-1.25-1.46-1.72-1.9-.52-4.89,13.06-8.4,26.63-13.99,39.44-.24.54.54,1.02.81.47h0Z"/>
      </g>
      <g class="cls-7">
        <path class="cls-10" d="m27.4,12.66c2.78,2.05,4.63,5.61,6.68,8.36,1.73,2.31,3.53,4.53,5.37,6.74.54.65,1.68-.22,1.18-.91-2.02-2.78-4.09-5.51-6.27-8.18-1.95-2.39-3.89-5.08-6.59-6.66-.43-.25-.76.37-.38.65h0Z"/>
      </g>
      <g class="cls-7">
        <path class="cls-10" d="m55.29,31.21c1.96-4.19,4.04-8.35,5.76-12.64l-1.16.15c4.55,9.13,10.6,17.53,16,26.16.66,1.06,2.21.13,1.66-.97-4.56-9.16-9.61-18.46-16.67-25.96-.26-.28-.82-.24-1,.13-1.98,4.18-3.62,8.53-5.38,12.81-.18.44.57.76.77.33h0Z"/>
      </g>
      <g class="cls-7">
        <path class="cls-10" d="m42.63,64.82c9.91-2,19.91-3.73,29.7-6.26,1.25-.32.7-2.11-.52-1.9-9.97,1.66-19.74,4.45-29.43,7.26-.59.17-.34,1.02.25.91h0Z"/>
      </g>
      <g class="cls-7">
        <path class="cls-10" d="m16.35,55.11c5.96-1.58,12.07-2.49,17.99-4.21.63-.18.54-1.28-.16-1.2-6.17.74-12.12,2.81-18.01,4.73-.43.14-.25.8.19.68h0Z"/>
      </g>
      <polyline class="cls-6" points="48.8 31.39 25.02 1.25 1.75 62.34 38.54 54.67"/>
      <polyline class="cls-4" points="49.34 31.8 59.35 7.65 93.67 58.51 32.58 72.23 39.87 54.66"/>
      <line class="cls-5" x1="39.87" y1="54.66" x2="49.34" y2="31.8"/>
      <polyline class="cls-2" points="39.43 54.88 62.63 50.04 48.96 32.72"/>
      <g class="cls-8">
        <path class="cls-11" d="m18.82,50.53c3.19-6.93,6.53-13.71,9.33-20.82l-4.66.61c2.35,5.38,5.21,10.43,8.62,15.22l.98-3.74c-3.85,1.66-7.73,2.35-11.91,2.32l.76,5.59c3.68-.82,7.39-3.3,8.71-7,1.42-4-1.36-4.26-3.3-6.76l.87,2.09-.03-.56-3.75,2.86c-.29-1.01-.61-.97-.97.12-.6.82-1.25,1.59-1.95,2.33-1.15,1.27-2.4,2.44-3.7,3.55l4.64,4.64c2.76-3.52,4.69-7.1,5.56-11.52l-5.99-.81c-.32,2.62-1.57,4.72-3.38,6.57s-.53,5.23,2.14,5.16c4.89-.13,10.31-.12,14.73-2.44,2.54-1.34,1.38-5.53-1.47-5.43-4.47.17-8.75,1.68-13.26,1.82l2.14,5.16c2.74-2.84,4.44-6.14,5.09-10.04s-4.69-5.44-5.88-1.62c-.96,3.07-2.31,5.96-4.31,8.5-2.6,3.28,1.36,7.41,4.64,4.64s13.47-14.95,3.56-16.35c-1.74-.25-3.9.73-3.75,2.86.08,1.16.27,1.97,1.08,2.87.53.59,2,1.04,2.31,1.7l-.3-2.26c-.46,2.52-2.62,3.86-4.93,4.41-3.13.75-2.44,5.62.76,5.59,5.19-.04,9.95-1.14,14.67-3.29,1.25-.57,1.8-2.64.98-3.74-3.51-4.71-6.47-9.7-8.94-15.03-1-2.16-4-1.26-4.66.61-2.48,7.04-4.33,14.19-6.39,21.34-.33,1.14,1.45,1.97,1.97.83h0Z"/>
      </g>
      <g class="cls-8">
        <path class="cls-11" d="m46.87,49.9c2.31,1.46,6.2.77,8.63-.1,2.22-.79,1.35-4.22-.99-3.58-1.25.34-2.47.73-3.77.89-1.19.14-2.48.1-3.59.56-.95.39-1.25,1.63-.29,2.23h0Z"/>
      </g>
      <g class="cls-8">
        <path class="cls-11" d="m64.88,38.36c.91,2.57,2.03,5.01,3.24,7.45.62,1.26,4.02,5.92,3.54,7.1l2.15-2.15c-6.71,2.81-14.95,3.33-22.05,5.05-3.37.82-2.65,6.1.82,6.04,8.46-.15,16.57-1.44,24.45-4.56,1.44-.57,2.33-2.11,1.46-3.59-3.65-6.19-6.87-13.38-11.57-18.82-1.44-1.67-4.63.1-3.81,2.22,2.6,6.71,7.41,12.93,11.16,19.07l1.46-3.59c-7.6,1.95-15.3,3.17-23.15,3.12l.82,6.04c4.66-.76,9.27-1.76,13.89-2.76,3.08-.67,8.49-.89,10.16-4.05,1.44-2.71-.54-5.3-2-7.48-2.46-3.68-4.95-7.34-7.95-10.61-1.03-1.13-3.16.05-2.63,1.53h0Z"/>
      </g>
    </g>
  </g>
</svg>