<?xml version="1.0" encoding="UTF-8"?>
<svg id="Calque_2" data-name="Calque 2" xmlns="http://www.w3.org/2000/svg" xmlns:xlink="http://www.w3.org/1999/xlink" viewBox="0 0 67.95 55.18">
  <defs>
    <style>
      .cls-1 {
        opacity: .31;
      }

      .cls-2 {
        fill: #782d3e;
      }

      .cls-2, .cls-3, .cls-4, .cls-5 {
        stroke-width: 0px;
      }

      .cls-3, .cls-6 {
        fill: none;
      }

      .cls-7 {
        clip-path: url(#clippath-1);
      }

      .cls-4 {
        fill: #fff;
      }

      .cls-8 {
        clip-path: url(#clippath);
      }

      .cls-6, .cls-9 {
        stroke: #5e005f;
        stroke-linecap: round;
        stroke-linejoin: round;
        stroke-width: 2.52px;
      }

      .cls-5 {
        fill: #effdf3;
      }

      .cls-9 {
        fill: #b653b0;
      }
    </style>
    <clipPath id="clippath">
      <path class="cls-3" d="m1.26,1.61c.58,5.26,3.51,48.49,3.51,51.41s30.38-25.7,30.38-25.7L1.26,1.61Z"/>
    </clipPath>
    <clipPath id="clippath-1">
      <path class="cls-3" d="m32.8,1.26c.58,5.26,3.51,48.49,3.51,51.41s30.38-25.7,30.38-25.7L32.8,1.26Z"/>
    </clipPath>
  </defs>
  <g id="Layer_1" data-name="Layer 1">
    <g>
      <g>
        <path class="cls-9" d="m1.26,1.61c.58,5.26,3.51,48.49,3.51,51.41s30.38-25.7,30.38-25.7L1.26,1.61Z"/>
        <g>
          <g class="cls-1">
            <g class="cls-8">
              <path class="cls-2" d="m7.94,9.94c6.69,8.4,13.88,16.31,20.9,24.42l3.74-3.74c-1.47-.84-2.18-2.21-2.13-4.1l-4.11,2.36c1.32.87,2.63,1.73,3.95,2.6,2.34,1.54,5.26-1.5,3.82-3.82-3.13-5.04-7.66-8.39-13.43-9.8-2.75-.67-5.21,2.91-2.9,4.98,3.47,3.1,7.24,5.48,11.4,7.55v-5.31c-9.19,5.79-17.27,14.16-24.92,21.8-2.87,2.86.83,7.85,4.38,5.67,6.88-4.23,13.71-9.08,18.99-15.25,2.76-3.22-1.36-7.22-4.6-4.6-5.9,4.76-11.57,9.6-18.03,13.62l4.38,5.67c7.55-7.64,16.15-14.33,23.54-22.08,1.74-1.82.74-4.27-1.36-5.14-3.53-1.46-6.67-3.67-9.55-6.15l-2.9,4.98c4.38.96,7.71,3.09,10.19,6.87l3.82-3.82c-1.34-.83-2.67-1.66-4.01-2.5-1.73-1.08-4.17.31-4.11,2.36.11,3.64,1.53,6.09,4.39,8.25,2.43,1.84,5.3-2.09,3.2-4.15-7.62-7.5-15.04-15.17-22.97-22.35-1.15-1.04-2.6.5-1.67,1.67h0Z"/>
              <path class="cls-5" d="m-1.11.3c-.65,9.72.47,19.76.92,29.49.43,9.34.43,18.97,1.9,28.21.47,2.97,4.93,2.08,5.05-.68.43-9.74-.81-19.77-1.46-29.49S4.59,8.92,2.92-.25C2.48-2.64-.97-1.88-1.11.3h0Z"/>
            </g>
          </g>
          <path class="cls-6" d="m1.26,2.3c.58,5.26,3.51,48.49,3.51,51.41s30.38-25.7,30.38-25.7L1.26,2.3Z"/>
          <path class="cls-4" d="m4.94,11.28c.53,6.59,1.2,13.16,2.09,19.71.21,1.51,2.87,1.17,2.69-.36-.78-6.56-1.78-13.09-2.92-19.6-.18-1.04-1.94-.81-1.85.25h0Z"/>
          <path class="cls-4" d="m7.61,37.65c-.14,2.09-.63,4.68.16,6.66.45,1.13,1.87,1.14,2.32,0,.79-1.99.3-4.58.16-6.66-.11-1.7-2.53-1.7-2.64,0h0Z"/>
        </g>
      </g>
      <g>
        <path class="cls-9" d="m32.8,1.26c.58,5.26,3.51,48.49,3.51,51.41s30.38-25.7,30.38-25.7L32.8,1.26Z"/>
        <g>
          <g class="cls-1">
            <g class="cls-7">
              <path class="cls-2" d="m39.49,9.6c6.69,8.4,13.88,16.31,20.9,24.42l3.74-3.74c-1.47-.84-2.18-2.21-2.13-4.1l-4.11,2.36c1.32.87,2.63,1.73,3.95,2.6,2.34,1.54,5.26-1.5,3.82-3.82-3.13-5.04-7.66-8.39-13.43-9.8-2.75-.67-5.21,2.91-2.9,4.98,3.47,3.1,7.24,5.48,11.4,7.55v-5.31c-9.19,5.79-17.27,14.16-24.92,21.8-2.87,2.86.83,7.85,4.38,5.67,6.88-4.23,13.71-9.08,18.99-15.25,2.76-3.22-1.36-7.22-4.6-4.6-5.9,4.76-11.57,9.6-18.03,13.62l4.38,5.67c7.55-7.64,16.15-14.33,23.54-22.08,1.74-1.82.74-4.27-1.36-5.14-3.53-1.46-6.67-3.67-9.55-6.15l-2.9,4.98c4.38.96,7.71,3.09,10.19,6.87l3.82-3.82c-1.34-.83-2.67-1.66-4.01-2.5-1.73-1.08-4.17.31-4.11,2.36.11,3.64,1.53,6.09,4.39,8.25,2.43,1.84,5.3-2.09,3.2-4.15-7.62-7.5-15.04-15.17-22.97-22.35-1.15-1.04-2.6.5-1.67,1.67h0Z"/>
              <path class="cls-5" d="m30.43-.05c-.65,9.72.47,19.76.92,29.49.43,9.34.43,18.97,1.9,28.21.47,2.97,4.93,2.08,5.05-.68.43-9.74-.81-19.77-1.46-29.49-.63-9.3-.7-18.9-2.38-28.07-.44-2.39-3.88-1.64-4.03.55h0Z"/>
            </g>
          </g>
          <path class="cls-6" d="m32.8,1.95c.58,5.26,3.51,48.49,3.51,51.41s30.38-25.7,30.38-25.7L32.8,1.95Z"/>
          <path class="cls-4" d="m36.48,10.94c.53,6.59,1.2,13.16,2.09,19.71.21,1.51,2.87,1.17,2.69-.36-.78-6.56-1.78-13.09-2.92-19.6-.18-1.04-1.94-.81-1.85.25h0Z"/>
          <path class="cls-4" d="m39.15,37.3c-.14,2.09-.63,4.68.16,6.66.45,1.13,1.87,1.14,2.32,0,.79-1.99.3-4.58.16-6.66-.11-1.7-2.53-1.7-2.64,0h0Z"/>
        </g>
      </g>
    </g>
  </g>
</svg>