<svg xmlns="http://www.w3.org/2000/svg" xmlns:xlink="http://www.w3.org/1999/xlink"
  viewBox="0 0 78.87 86.9" style="fill: rgb(0, 0, 0);" original_string_length="3820"
  width="34.69527330079353px" height="38.24128319726743px">
  <defs>
    <clipPath id="__id6_syuqqwrjs" transform="translate(0 3.52)">
      <path
        d="M39.57,22.93S42.51,1,58.59,3.68s17.25,16.6,17.25,16.6S75.4,39,59.47,47.71C35,61.12,48,73.37,48,73.37s-4.86-21.24-23.89-23S2.85,22.49,2.85,22.49-1.44,2.89,20.1,3.91C41.44,4.91,39.57,22.93,39.57,22.93Z"
        style="fill: none;" />
    </clipPath>
  </defs>
  <g data-name="Calque 2">
    <g data-name="Warstwa 10">
      <path
        d="M39.57,22s2.94-21.9,19-19.25,17.25,16.6,17.25,16.6S75.4,38,59.47,46.75C35,60.15,48,72.4,48,72.4s-4.86-21.23-23.89-23S2.85,21.53,2.85,21.53-1.44,1.93,20.1,3C41.44,4,39.57,22,39.57,22Z"
        stroke="#732354" stroke-linecap="round" stroke-linejoin="round" stroke-width="5"
        transform="translate(0 3.52)" style="fill: rgb(247, 188, 246);" />
      <g opacity=".49">
        <g clip-path="url(#__id6_syuqqwrjs)">
          <path
            d="M15.68,18.2l.13.08-.69-.53a.81.81,0,0,1,.16.16l-.55-.72.08.13L15.37,13a5.82,5.82,0,0,0-1.46,2.41l.47-1.13a1.06,1.06,0,0,1-.12.2l.75-1-.11.11,1-.76-.14.09h5l-.18-.12,1,.78a5.08,5.08,0,0,1-.54-.5l.8,1a2.73,2.73,0,0,1-.27-.47l.52,1.23a2.88,2.88,0,0,1-.11-.42l.19,1.38a2.06,2.06,0,0,1,0-.43l-.19,1.39a2.81,2.81,0,0,1,.08-.31l-3.66,3.66a1.11,1.11,0,0,1,.26-.07l-1.4.19h.17L16,20.09a1.17,1.17,0,0,1,.25.07L15,19.63l.23.14-1.08-.83a1.89,1.89,0,0,1,.2.2l-.84-1.09a1.65,1.65,0,0,1,.18.32l-.54-1.29c.19.55.44,1.08.67,1.61l-.53-1.28a1,1,0,0,1,0,.17l-.19-1.41a.91.91,0,0,1,0,.17l.18-1.4a1.13,1.13,0,0,1,0,.18l-.19,1.38a3.86,3.86,0,0,0,.45,2A5,5,0,0,0,15.66,21a6,6,0,0,0,2.62.71A5.28,5.28,0,0,0,22,20.18a6,6,0,0,0,0-8.51,7.91,7.91,0,0,0-1.32-1.05l-.2-.1A9.41,9.41,0,0,0,19.1,10a6.24,6.24,0,0,0-4.62.53l-.16.08-1.06.82a3.89,3.89,0,0,0-1.09,1.69,3.2,3.2,0,0,0-.37,1.43,6.66,6.66,0,0,0-.11.91,7.07,7.07,0,0,0,.9,3.34,7.17,7.17,0,0,0,1,1.4,7.64,7.64,0,0,0,1.31,1.05,4.64,4.64,0,0,0,1.54.69,7.68,7.68,0,0,0,1.44.2c.1,0,.2,0,.3,0a5,5,0,0,0,2.49-.67,4.9,4.9,0,0,0,1.76-1.77,5.74,5.74,0,0,0,.76-2.81,5.54,5.54,0,0,0-.72-2.73l-.73-.95a3.61,3.61,0,0,0-1.51-1,4.48,4.48,0,0,0-3-.24l-.27.09h1.9a4.51,4.51,0,0,0-2.39,0A4.13,4.13,0,0,0,15,13a3.38,3.38,0,0,0,.68,5.24Z"
            transform="translate(0 3.52)" style="fill: rgb(230, 255, 242);" />
          <path
            d="M14.94,29.31l.09.41-.12-.89,0,.08.13.92.35.83a2.63,2.63,0,0,0,.89,1,1.75,1.75,0,0,0,.77.44,1.68,1.68,0,0,0,.87.24,1.79,1.79,0,0,0,.92,0,1.69,1.69,0,0,0,.88-.24,2.55,2.55,0,0,0,1.11-.72l.55-.7.35-.83.12-.92L21.71,28l-.35-.83a2.62,2.62,0,0,0-.9-1,1.73,1.73,0,0,0-.76-.45,2.68,2.68,0,0,0-1.34-.29h-.08l.89.12-.41-.09a3.08,3.08,0,0,0-1.65,0,3,3,0,0,0-1.37.8,2.93,2.93,0,0,0-.8,1.37,3.08,3.08,0,0,0,0,1.65Z"
            transform="translate(0 3.52)" style="fill: rgb(230, 255, 242);" />
          <path
            d="M24.17,3.84c2,2.56,4,5.13,6,7.67.9,1.12,1.8,2.25,2.73,3.34,1.16,1.39,1.39,2.69,2.05,4.39a1.32,1.32,0,0,0,2.58-.35A39.12,39.12,0,0,0,37.47,13a15.79,15.79,0,0,0-1.54-6A14.91,14.91,0,0,0,26.86-.78c-2.9-1-4.2,2.7-2.69,4.62Z"
            transform="translate(0 3.52)" style="fill: rgb(144, 26, 61);" />
          <path
            d="M60.13,1.53C63.74,8.63,66.37,16,63.6,23.91c-3,8.67-10.61,13.46-17.05,19.43-6.23,5.77-11.86,13.48-12,22.33-.15,8.58,4.19,16,12.88,17.59A5.77,5.77,0,0,0,53,73.7c-4.75-5.45-1.74-12.61,2.39-17.1,6-6.5,13.35-11.3,18.19-18.87,8-12.45,8.62-37.08-9.62-41.16a3.42,3.42,0,0,0-3.81,5Z"
            transform="translate(0 3.52)" style="fill: rgb(144, 26, 61);" />
        </g>
      </g>
      <path
        d="M39.57,22.06s2.94-21.9,19-19.25S75.84,19.4,75.84,19.4,75.4,38.09,59.47,46.83C35,60.24,48,72.49,48,72.49s-4.86-21.23-23.89-23S2.85,21.62,2.85,21.62-1.44,2,20.1,3C41.44,4,39.57,22.06,39.57,22.06Z"
        stroke="#732354" stroke-linecap="round" stroke-linejoin="round" stroke-width="5"
        transform="translate(0 3.52)" style="fill: none;" />
    </g>
  </g>
</svg>