<?xml version="1.0" encoding="UTF-8"?>

<svg xmlns="http://www.w3.org/2000/svg" xmlns:xlink="http://www.w3.org/1999/xlink" data-name="Calque 2" viewBox="0 0 78.71 78.05" style="fill: rgb(0, 0, 0);" original_string_length="6411" width="71.74450605861587px" height="70.8313941633244px"><defs><clipPath id="__id1_sk9scs3tel"><path d="m39.36,1.25C18.31,1.25,1.26,18.16,1.26,39.02s17.06,37.77,38.1,37.77,38.1-16.91,38.1-37.77S60.4,1.25,39.36,1.25Zm-.43,68.87c-17.09,0-30.94-13.73-30.94-30.68,0-12.51,7.56-23.28,18.4-28.05,3.07-1.35,6.56-1.4,9.72-.28,0,0,0,0,0,0,0,0,16.36,5.29,18.69,18.36,1.65,9.21-1,18.03-9.35,23.11-3.42,2.08-15.36,2.4-18.69-6.76-1.13-3.11-1.12-6.3-.72-8.98.6-4.04,4.68-9.29,8.73-9.72,4.64-.49,8.46,1.67,8.46,6.45,0,7.71-5.79,4.5-5.79,4.5,0,0-5.34,3.08-1,5.42,4.34,2.34,8.52,3.23,12.02-5.42,5.11-12.63-6.18-19.63-15.86-18.51-9.68,1.12-30.88,25.93-4.51,39.62,26.91,13.97,38.72-18.27,34.38-30.71-1.52-4.35-6.21-12.4-12.69-17.77,0,0,0,0,0,0,11.73,4.36,20.08,15.58,20.08,28.73,0,16.94-13.85,30.68-30.94,30.68Z" stroke-width="0" style="fill: none;"/></clipPath></defs><g data-name="Layer 1"><g><path d="m39.36,1.26C18.31,1.26,1.26,18.17,1.26,39.03s17.06,37.77,38.1,37.77,38.1-16.91,38.1-37.77S60.4,1.26,39.36,1.26Zm-.43,68.87c-17.09,0-30.94-13.73-30.94-30.68,0-12.51,7.56-23.28,18.4-28.05,3.07-1.35,6.56-1.4,9.72-.28,0,0,0,0,0,0,0,0,16.36,5.29,18.69,18.36,1.65,9.21-1,18.03-9.35,23.11-3.42,2.08-15.36,2.4-18.69-6.76-1.13-3.11-1.12-6.3-.72-8.98.6-4.04,4.68-9.29,8.73-9.72,4.64-.49,8.46,1.67,8.46,6.45,0,7.71-5.79,4.5-5.79,4.5,0,0-5.34,3.08-1,5.42,4.34,2.34,8.52,3.23,12.02-5.42,5.11-12.63-6.18-19.63-15.86-18.51-9.68,1.12-30.88,25.93-4.51,39.62,26.91,13.97,38.72-18.27,34.38-30.71-1.52-4.35-6.21-12.4-12.69-17.77,0,0,0,0,0,0,11.73,4.36,20.08,15.58,20.08,28.73,0,16.94-13.85,30.68-30.94,30.68Z" stroke="#004900" stroke-linecap="round" stroke-linejoin="round" stroke-width="2.52" style="fill: rgb(255, 34, 98);"/><g opacity=".4"><g clip-path="url(#__id1_sk9scs3tel)"><path d="m26.14,12.94c3.04.39,5.88,1.73,8.97,2.07,2.46.28,4.94.29,7.4.65,4.66.67,9.03,2.36,12.82,5.19,3.25,2.43,6.6,5.74,8.64,9.24,2.14,3.67,2.5,7.88,4.35,11.65,1,2.04,4.08,1.38,4.65-.61,2.65-9.25-5.69-21.15-12.68-26.38-4.23-3.17-9.17-5.42-14.42-6.18-3.39-.49-6.92-.57-10.32-.11s-6.33,2.03-9.66,2.63c-1.14.21-.7,1.73.25,1.85h0Z" style="fill: rgb(121, 46, 63);"/><path d="m27.56,29.59c-6.53,3.9-7.54,13.4-3.89,19.59,3.28,5.57,12.58,11.12,18.32,5.89.86-.78.76-2.61-.4-3.11-4.19-1.81-9-1.46-12-5.53-3.29-4.46-1.48-9.71.72-14.1.86-1.72-.93-3.82-2.74-2.74h0Z" style="fill: rgb(121, 46, 63);"/><path d="m1.54,55.86c8.76,17.29,35.28,23.82,52.58,17.72,8.83-3.12,16.39-9.29,20.1-18.01,1.91-4.49,1.24-8.91,1.56-13.6.35-5.16,1.42-10.24,1.17-15.44-.2-4.11-5.96-4.02-6.32,0-.65,7.35.29,13.57-3.32,20.25-3.84,7.11-7.23,13.25-15.09,16.55s-16.55,2.81-24.69,1.04-16.53-4.39-21.56-11.11c-1.95-2.61-5.97-.42-4.44,2.59h0Z" style="fill: rgb(121, 46, 63);"/><path d="m5.88,39.29c-1.08-6.87,1.9-13.92,5.79-19.47,3.26-4.65,8.24-8.32,10.99-13.24.86-1.55-.86-3.29-2.42-2.42-5.8,3.23-11.07,10.45-14.2,16.18-3.43,6.28-4.33,12.74-3.01,19.74.35,1.9,3.16,1.07,2.87-.79h0Z" style="fill: rgb(238, 253, 244);"/><path d="m23.5,31.56c2.99-4.06,7.44-6.35,12.51-6.26s8.06,3.04,12.25,5.18c.86.44,2.15-.3,1.77-1.36-2.02-5.63-9.2-8.17-14.8-7.81s-10.92,4.11-14.05,8.89c-.97,1.47,1.32,2.72,2.32,1.36h0Z" style="fill: rgb(238, 253, 244);"/><path d="m44.24,57.19c4.71-.82,8.83-3.48,11.49-7.46,2.37-3.55,4.27-8.94,1.83-12.88-.7-1.14-2.41-.9-2.8.37-1.03,3.33-.92,6.66-2.81,9.75-2.01,3.28-4.95,5.72-8.66,6.77-2.26.64-1.28,3.84.95,3.46h0Z" style="fill: rgb(238, 253, 244);"/><path d="m14.83,14.23c6.09-3.56,12.45-7.35,19.29-9.25,7.8-2.17,14.59-.14,22.29,1.13,1.77.29,2.89-1.93,1.25-2.97C42.17-6.78,26.12,1.68,13.14,11.33c-1.69,1.25-.22,4.01,1.69,2.89h0Z" style="fill: rgb(238, 253, 244);"/></g></g><path d="m39.36,1.26C18.31,1.26,1.26,18.17,1.26,39.03s17.06,37.77,38.1,37.77,38.1-16.91,38.1-37.77S60.4,1.26,39.36,1.26Zm-.43,68.87c-17.09,0-30.94-13.73-30.94-30.68,0-12.51,7.56-23.28,18.4-28.05,3.07-1.35,6.56-1.4,9.72-.28,0,0,0,0,0,0,0,0,16.36,5.29,18.69,18.36,1.65,9.21-1,18.03-9.35,23.11-3.42,2.08-15.36,2.4-18.69-6.76-1.13-3.11-1.12-6.3-.72-8.98.6-4.04,4.68-9.29,8.73-9.72,4.64-.49,8.46,1.67,8.46,6.45,0,7.71-5.79,4.5-5.79,4.5,0,0-5.34,3.08-1,5.42,4.34,2.34,8.52,3.23,12.02-5.42,5.11-12.63-6.18-19.63-15.86-18.51-9.68,1.12-30.88,25.93-4.51,39.62,26.91,13.97,38.72-18.27,34.38-30.71-1.52-4.35-6.21-12.4-12.69-17.77,0,0,0,0,0,0,11.73,4.36,20.08,15.58,20.08,28.73,0,16.94-13.85,30.68-30.94,30.68Z" stroke="#004900" stroke-linecap="round" stroke-linejoin="round" stroke-width="2.52" style="fill: none;"/><path d="m23.52,9.58c4.52-1.34,9.08-2.43,13.77-3s9.08-.02,13.73.21c.91.04,1.32-1.35.48-1.76-8.92-4.38-19.87-.51-28.43,2.92-.99.4-.62,1.96.45,1.64h0Z" style="fill: rgb(239, 253, 244);"/><path d="m54.51,8.88s.03.03.04.04c.04.04.01.01-.07-.09-.14-.18-.1-.13.12.15.16.15.34.25.55.32.11.04.31.04.45.06l-.34-.05c.05.01.11.04.16.04-.22-.1-.27-.12-.15-.06.08.05.07.04-.04-.04-.2-.15-.03,0,.01.03.05.05.09.09.14.14.19.24.64.4.93.39s.56-.1.8-.28c.54-.42.63-1.1.34-1.7-.32-.65-1.07-1-1.77-1-.63,0-1.2.31-1.4.94-.11.35-.08.87.23,1.11h0Z" style="fill: rgb(239, 253, 244);"/><path d="m60.36,12.75c1.49,0,1.49-2.31,0-2.31s-1.49,2.31,0,2.31h0Z" style="fill: rgb(239, 253, 244);"/><path d="m22.4,34.75c2.4-3.39,4.74-6.06,8.69-7.57,1.52-.58.95-2.79-.68-2.46-4.43.92-7.3,5.59-9.52,9.14-.61.97.87,1.78,1.51.88h0Z" style="fill: rgb(239, 253, 244);"/><path d="m36.87,24.36h0c.27-.43.27-1.07,0-1.48h0c-.09-.19-.22-.33-.38-.43-.09-.09-.2-.16-.33-.19-.18-.09-.37-.14-.57-.13l-.39.05-.35.15c-.17.09-.31.22-.42.38-.09.09-.16.2-.19.33-.09.18-.14.37-.13.57l.05.39.15.35c.09.17.22.31.38.42.09.09.2.16.33.19.18.09.37.14.57.13l.39-.05.35-.15c.22-.13.4-.31.53-.53h0Z" style="fill: rgb(239, 253, 244);"/><path d="m42.22,42.37c.8-.28,1.5-.66,2.16-1.18s1.03-1.18,1.35-1.96c.39-.95-1.01-1.63-1.66-.96-.7.72-1.54,1.48-2.49,1.83-.6.22-1,.8-.82,1.45.16.58.85,1.03,1.45.82h0Z" style="fill: rgb(239, 253, 244);"/><path d="m58.19,34.06c.25,1.99-.17,3.76-.52,5.7-.27,1.51,2.08,2.1,2.27.63.29-2.19-.12-4.34-.46-6.5-.11-.73-1.39-.56-1.3.18h0Z" style="fill: rgb(239, 253, 244);"/><path d="m56.8,48.64c1.85,0,1.85-2.88,0-2.88s-1.85,2.88,0,2.88h0Z" style="fill: rgb(239, 253, 244);"/><path d="m61.2,65.9c2.51-1.22,4.62-2.84,5.93-5.34.48-.92-.64-1.76-1.41-1.09-1.91,1.67-3.55,3.57-5.38,5.32-.61.58.16,1.45.86,1.11h0Z" style="fill: rgb(239, 253, 244);"/><path d="m68.37,58.5c1.94,0,1.95-3.02,0-3.02s-1.95,3.02,0,3.02h0Z" style="fill: rgb(239, 253, 244);"/></g></g></svg>