<?xml version="1.0" encoding="UTF-8"?>
<svg id="Calque_2" data-name="Calque 2" xmlns="http://www.w3.org/2000/svg" xmlns:xlink="http://www.w3.org/1999/xlink" viewBox="0 0 93.91 141.06">
  <defs>
    <style>
      .cls-1, .cls-2, .cls-3, .cls-4 {
        stroke-width: 0px;
      }

      .cls-1, .cls-5, .cls-6 {
        fill: none;
      }

      .cls-7 {
        clip-path: url(#clippath-1);
      }

      .cls-8 {
        opacity: .4;
      }

      .cls-9 {
        opacity: .38;
      }

      .cls-2 {
        fill: #231f20;
      }

      .cls-10 {
        clip-path: url(#clippath);
      }

      .cls-11 {
        fill: #4e4d4c;
      }

      .cls-11, .cls-5, .cls-6, .cls-12 {
        stroke-linecap: round;
        stroke-linejoin: round;
        stroke-width: 2.51px;
      }

      .cls-11, .cls-6, .cls-12 {
        stroke: #231f20;
      }

      .cls-3 {
        fill: #eafdf1;
      }

      .cls-5 {
        stroke: #733d00;
      }

      .cls-4 {
        fill: #82263e;
      }

      .cls-12 {
        fill: #f5d073;
      }
    </style>
    <clipPath id="clippath">
      <path class="cls-1" d="m66.97,17.55l-26.1-1.06L6.48,31.51s10.32,31.84,10.45,33.31l30.29-4.16,20.61-12s-1.47-27.08-.86-31.11Z"/>
    </clipPath>
    <clipPath id="clippath-1">
      <path class="cls-1" d="m77.17,67.11s21.34-18.36,2.47-22.86c-11.15-2.65-12.52,7.4-11.78,16.07l-14.01,2.72.06.25-26.25,8.51,6.5,41.08,30.73-5.46,16.77-8.77-3.81-15.16c5.38,1.79,12.71,2.06,14.92-6.8,3.44-13.8-15.6-9.57-15.6-9.57Zm-1.28-16.2c1.83-.32,3.67,1.46,4.11,3.98.44,2.52-.69,4.82-2.52,5.14-1.83.32-3.67-1.46-4.11-3.98-.44-2.52.69-4.82,2.52-5.14Zm10.22,26.11c-.68,1.73-3.16,2.38-5.54,1.45-2.38-.93-3.76-3.09-3.08-4.82.68-1.73,3.16-2.38,5.54-1.45,2.38.93,3.76,3.09,3.08,4.82Z"/>
    </clipPath>
  </defs>
  <g id="Layer_1" data-name="Layer 1">
    <g>
      <path class="cls-12" d="m76.64,67.02s21.34-18.36,2.47-22.86c-18.88-4.49-9.73,27.42-9.73,27.42,0,0,.42,7,1.99,8.73,1.58,1.73,17.43,10.07,20.87-3.73,3.44-13.8-15.6-9.57-15.6-9.57Zm-3.8-11.07c-.44-2.52.69-4.82,2.52-5.14,1.83-.32,3.67,1.46,4.11,3.98.44,2.52-.69,4.82-2.52,5.14-1.83.32-3.67-1.46-4.11-3.98Zm12.74,20.97c-.68,1.73-3.16,2.38-5.54,1.45-2.38-.93-3.76-3.09-3.08-4.82.68-1.73,3.16-2.38,5.54-1.45,2.38.93,3.76,3.09,3.08,4.82Z"/>
      <polygon class="cls-11" points="17.45 64.82 47.74 60.66 68.35 48.66 40.15 47.76 17.45 64.82"/>
      <path class="cls-11" d="m67.48,17.55c-.61,4.03.86,31.11.86,31.11l-19.59,2.57-7.37-34.74,26.1,1.06Z"/>
      <path class="cls-11" d="m17.45,64.82c-.13-1.48-10.45-33.31-10.45-33.31l34.39-15.02,7.37,34.74-31.31,13.59Z"/>
      <polygon class="cls-11" points="71.3 59.46 53.32 62.96 64.36 107.33 81.13 98.56 71.3 59.46"/>
      <polygon class="cls-11" points="27.13 71.72 54.22 62.94 64.36 107.33 33.63 112.8 27.13 71.72"/>
      <ellipse class="cls-12" cx="19.19" cy="42.28" rx="5.73" ry="4.75" transform="translate(-24.9 56.83) rotate(-83.84)"/>
      <ellipse class="cls-12" cx="35.79" cy="35.74" rx="5.58" ry="4.75" transform="translate(-3.58 67.49) rotate(-83.84)"/>
      <g class="cls-8">
        <g class="cls-10">
          <path class="cls-4" d="m32.75,60.21l-.32-.27s-.09-.04-.13-.02l-.49.23c-.05.03-.09.1-.09.16v.42c.01.09.08.21.18.23,4.24.7,8.19-.85,12.03-2.57,1.28-.57.34-2.46-.92-2.18-5.13,1.14-10.28,2.2-15.41,3.37l.85,3.08c8.45-3.05,16.96-6.01,25.59-8.52l-1.41-3.35c-3.28,1.66-6.4,3.52-9.56,5.41-2.2,1.32-.76,4.79,1.74,4.14,5.67-1.48,12.43-3.52,16.77-7.64,1.36-1.3-.04-3.79-1.87-3.21-5.5,1.77-10.48,4.84-16.11,6.48l1.74,4.14c3.1-1.98,6.16-3.96,9.12-6.15,1.54-1.14.73-4.04-1.41-3.35-8.58,2.78-17.08,5.64-25.46,8.98-1.86.74-1.19,3.61.85,3.08,5.08-1.34,10.12-2.78,15.2-4.15l-.92-2.18c-2.22,1.11-4.48,1.94-6.85,2.68-.42.13-2.99,1.37-3.2,1.27.05.02.12-.04.07-.09h0Z"/>
          <path class="cls-3" d="m8.19,33.68c6.33-.89,12.18-3.63,18.13-5.86,4.92-1.85,11.3-2.62,15.35-6,1.27-1.06.08-2.72-1.2-2.89-5.62-.74-12.83,3.21-17.99,5.28s-10.6,4.65-14.69,8.8c-.31.31.02.72.39.67h0Z"/>
          <path class="cls-3" d="m7.85,31.82c2.72,10.92,5.63,21.51,9.04,32.25.35,1.09,2.03.64,1.72-.47-2.99-10.87-5.85-21.49-10.08-31.96-.17-.41-.79-.26-.68.19h0Z"/>
          <path class="cls-3" d="m43.2,18.23c1.44,9.36,2.46,19.17,5.09,28.28.18.63,1.15.52,1.15-.16,0-9.54-2.78-19.29-5.88-28.22-.08-.23-.4-.14-.36.1h0Z"/>
          <path class="cls-3" d="m42.3,19.16c3.74.96,7.43,1.49,11.26,1.95,4.23.52,8.68,1.81,12.92,1.44,1.13-.1,1.76-1.65.62-2.28-6.84-3.73-17.48-3.57-24.8-1.57-.22.06-.23.39,0,.45h0Z"/>
        </g>
      </g>
      <g class="cls-9">
        <g class="cls-7">
          <path class="cls-4" d="m67.14,70.54c2.36,2.82,4.71,6.65,5.81,10.17l3.19-1.34c-1.6-3.42-3.64-6.51-6.1-9.37l-2.62,2.62c1.49,1.68,2.74,3.52,3.72,5.55.88,1.83,1.25,3.71,2.75,5.16.72.69,1.98.4,2.24-.59,1.18-4.42-3.28-9.72-6.1-12.73-1.63-1.75-4.21.86-2.62,2.62,2.33,2.57,4.19,5.39,5.71,8.52.86,1.77,3.8.53,3.19-1.34-1.55-4.76-4.13-8-8.87-9.75-.31-.11-.47.3-.29.5h0Z"/>
          <path class="cls-4" d="m79.43,79.43c-.64,3.92,4.51,4.71,7.26,3.73l-1.24-4.5c-2.13.84-3.98.58-5.95-.5l-1.52,5.63c2.47.24,4.9.01,7.28-.7,2.11-.63,4.88-1.61,6.37-3.32s1.56-4.79-.6-6.1-4.72-.07-5.29,2.23c-.67,2.69,2.09,4.53,4.43,3.41l-.19.1-2.46-.32.27.12-1.47-1.92c.77-1.67.66-2.11-.34-1.33l-.68.34c-.8.36-1.63.63-2.48.85-1.6.42-3.2.58-4.85.6-3.65.03-3.78,4.69-.8,5.93,3.3,1.38,6.94.76,10.08-.76,2.73-1.32.34-5.22-2.35-4.03-1.48.66-3.47.05-5.07.23-.17.02-.37.11-.4.3h0Z"/>
          <path class="cls-4" d="m75.47,66.74c2.65-.21,3.86-1.35,4.87-3.79.59-1.43-1.59-2.58-2.56-1.49-1.05,1.18-2.1,2.37-3.15,3.55l2.84,1.66c.34-1.23.77-2.11,1.63-3.06l-3.33-2.57c-.55.97-1.05,1.42-2.02,1.91l2.8,3.64c.71-.82,1.48-1.55,2.16-2.4,1.19-1.48.64-4.6-1.79-4.33-.54.06-1.08.12-1.63.18l.68,5.01c5.33-1.18,9.08-5.53,8.94-11.06-.04-1.5-1.92-2.37-3.01-1.25-.9.92-1.5,1.76-1.81,3.02-.48,1.93,1.97,2.78,3.05,1.29s1.68-2.95,1.96-4.75c.33-2.1-2.89-3.01-3.22-.89-.24,1.52-.71,2.69-1.63,3.95l3.05,1.29.73-1.14-2.59-1.99c-.99,3.17-3.59,5.81-6.84,6.6-2.72.66-2.22,5.4.68,5.01.54-.07,1.08-.14,1.63-.22l-2.19-3.82c-.66.86-1.19,1.78-1.81,2.66-1.35,1.9,1.29,4.38,3.17,3.17,1.52-.98,2.61-2.11,3.34-3.77,1.11-2.5-2.03-4.35-3.66-2.14-1.2,1.63-1.66,3.16-1.65,5.18.02,1.83,2.2,2.12,3.17.86s1.92-2.5,2.88-3.75l-2.8-1.18c-.41,1.24-1.34,2.91-2.21,3.9-.21.24-.09.73.29.7h0Z"/>
          <path class="cls-4" d="m73.43,60.96c.18-.25.34-.55.61-.7.3-.17.56-.34.82-.58l-1.85-.77c-.03.38.15.73.4,1,.07.07.04.03-.1-.13l-.08-.2c.07.23-.03-.3,0-.13.02.15.03.31.07.46.07.23.03-.06,0-.13.05.12.02.3.05.43.15.36.18.43.09.21-.05-.13-.06-.15-.04-.07.16.69.86.94,1.48.84.87-.13,1.32-1.11,1.21-1.91s-.73-1.37-1.45-1.58c-.5-.15-1.24.09-1.47.6-.17.39-.25.79-.23,1.21.02.38-.13.65-.28,1-.22.52.42.9.76.44h0Z"/>
          <path class="cls-3" d="m53.4,64.85c-6.44,1.06-12.44,2.57-18.69,4.51-4.37,1.35-7.39,1.54-7.03,6.64.42,6.07,2.12,12.31,3.2,18.29,1.08,5.94,1.22,13.51,4.35,18.74.55.92,2.22.85,2.45-.32.8-4.23-.51-8.55-1.23-12.74-.96-5.58-1.93-11.15-2.91-16.72-.47-2.65-1.75-5.94-.45-8.35s4.59-2.8,7.13-3.68c4.74-1.64,8.92-3.67,13.37-5.95.25-.13.06-.47-.18-.43h0Z"/>
        </g>
      </g>
      <path class="cls-5" d="m72.84,55.96c-.44-2.52.69-4.82,2.52-5.14,1.83-.32,3.67,1.46,4.11,3.98.44,2.52-.69,4.82-2.52,5.14-1.83.32-3.67-1.46-4.11-3.98Zm12.74,20.97c-.68,1.73-3.16,2.38-5.54,1.45-2.38-.93-3.76-3.09-3.08-4.82.68-1.73,3.16-2.38,5.54-1.45,2.38.93,3.76,3.09,3.08,4.82Z"/>
      <path class="cls-5" d="m77.76,83.54c5.33,1.65,12.33,1.68,14.48-6.95,3.44-13.8-15.6-9.57-15.6-9.57,0,0,21.34-18.36,2.47-22.86-11.21-2.67-12.54,7.5-11.77,16.2"/>
      <g>
        <path class="cls-2" d="m16.8,8.82c4.9,3.52,8.52,8.52,14,11.27,3.42,1.72,6.45-3.43,3.01-5.15-5.41-2.72-9.13-7.77-14-11.27-3.12-2.24-6.1,2.93-3.01,5.15h0Z"/>
        <path class="cls-2" d="m35.24,19.49c1.36-1.98,1.82-4.34,2.56-6.59.95-2.89,2.14-5.66,3.52-8.38,1.73-3.42-3.41-6.44-5.15-3.01-1.27,2.51-2.42,5.09-3.4,7.73-.87,2.36-1.25,5.15-2.68,7.24-2.17,3.18,2.99,6.16,5.15,3.01h0Z"/>
        <path class="cls-2" d="m64.77,107.91c2.01,8.6,4.03,17.2,6.04,25.8.87,3.74,6.63,2.15,5.75-1.59-2.01-8.6-4.03-17.2-6.04-25.8-.87-3.74-6.63-2.15-5.75,1.59h0Z"/>
        <path class="cls-2" d="m41.72,112.47c1.38,2.97.59,8.42.64,11.58.06,4.14.04,8.28-.05,12.42-.08,3.84,5.89,3.84,5.97,0,.1-5.1.12-10.19,0-15.29-.1-3.93.28-8.11-1.4-11.73s-6.76-.45-5.15,3.01h0Z"/>
        <path class="cls-2" d="m67.07,72.09c4.76.96,9.24,2.59,13.32,5.25,1.84,1.2,3.63,2.54,4.92,4.34,1.82,2.55,3.41,8.49-1.73,9.06-3.77.42-3.82,6.38,0,5.97,8.38-.92,11.62-9.48,7.81-16.62-4.21-7.88-14.46-12.08-22.73-13.76-3.75-.76-5.35,4.99-1.59,5.75h0Z"/>
        <path class="cls-2" d="m5.62,60.14c-4.98,3.79-7.54,10.37-3.93,16.07,4,6.32,11.34,5.24,17.22,2.51,3.48-1.62.45-6.76-3.01-5.15-2.8,1.3-6.86,2.72-9.03-.35-1.87-2.64-.65-6.08,1.77-7.92,3.02-2.29.05-7.48-3.01-5.15h0Z"/>
        <path class="cls-2" d="m1.86,74.88c-4.35,7.48-.62,16.67,6.54,20.87,7.29,4.27,16.42,2.26,21.85-4,2.5-2.89-1.7-7.12-4.22-4.22-3.29,3.8-8.2,5.71-13.08,3.79-5.12-2.02-8.98-8.22-5.94-13.43,1.94-3.32-3.22-6.33-5.15-3.01h0Z"/>
        <path class="cls-2" d="m29.44,141.06c5.3-.12,10.6-.39,15.89-.79,3.8-.29,3.84-6.26,0-5.97-5.29.4-10.59.66-15.89.79-3.83.09-3.85,6.05,0,5.97h0Z"/>
        <path class="cls-2" d="m75.09,137.73l.11-.02c1.34-.27,2.1-1.62,2.19-2.88v-.14c.08-.97-.59-2.14-1.47-2.58-2.31-1.15-5.17.24-6.92,1.87-.96.89-1.71,2.07-1.71,3.43,0,1.54,1.07,2.91,2.56,3.28,1.28.33,2.59-.19,3.82-.51s2.51-.54,3.7-.95c1.63-.56,2.74-2.13,2.26-3.88-.3-1.1-1.19-2.08-2.05-2.8-1.23-1.03-3.01-1.21-4.22,0-1.06,1.06-1.24,3.18,0,4.22.33.28.68.58.81.88l-.41-1.51v.13c.48-.86.97-1.72,1.46-2.58.37-.2-.73.12-.83.14-.54.14-1.08.28-1.62.42-.93.24-1.86.52-2.8.71h1.59l-.25-.04,1.32.77-.18-.16.77,1.32-.06-.23v1.59l.04-.27c-.33.54-.36.68-.11.4-.2.06.89-.63.44-.34-.05.03.43-.25.3-.19.13-.06,1.11-.22.46-.19l-1.51-.41.13.07-1.48-2.58v.14c.72-.96,1.45-1.92,2.18-2.88l-.11.02c-1.58.32-2.49,2.19-2.08,3.67.45,1.64,2.08,2.4,3.67,2.08h0Z"/>
        <path class="cls-2" d="m69.64,93.8c1.57-.14,2.68-.84,4.15-1.18,1.31-.3,2.67.45,3.55,1.43,1.79,2-1.43,6.16-3.03,4.34-2.53-2.89-6.74,1.34-4.22,4.22,5.06,5.78,14.04-.48,13.96-7.06-.04-3.17-2.11-5.86-4.72-7.48-1.43-.89-3.22-1.56-4.92-1.54s-3.12,1.16-4.77,1.31c-3.79.34-3.83,6.31,0,5.97h0Z"/>
      </g>
      <path class="cls-2" d="m44.73,58.15c.72,1.21.94,2.28.85,3.7l5.86-.79c-.32-1.02-.64-2.05-.97-3.07-.48-1.54-2.08-2.52-3.67-2.08s-2.57,2.13-2.08,3.67c.32,1.02.64,2.05.97,3.07,1.03,3.26,5.65,2.56,5.86-.79.14-2.35-.47-4.69-1.67-6.71-1.96-3.3-7.12-.3-5.15,3.01h0Z"/>
      <g>
        <polyline class="cls-6" points="17.24 65.05 47.54 60.9 68.14 48.89"/>
        <path class="cls-6" d="m67.28,17.78c-.61,4.03.86,31.11.86,31.11l-19.59,2.57-7.37-34.74,26.1,1.06Z"/>
        <path class="cls-6" d="m17.24,65.05c-.13-1.48-10.45-33.31-10.45-33.31l34.39-15.02,7.37,34.74-31.31,13.59Z"/>
        <polygon class="cls-6" points="71.1 59.69 53.11 63.19 64.15 107.57 80.93 98.79 71.1 59.69"/>
        <polygon class="cls-6" points="26.93 71.95 54.02 63.17 64.15 107.57 33.42 113.03 26.93 71.95"/>
      </g>
      <path class="cls-3" d="m17.98,42.82c.15,0,.29-.03.43-.1.14-.04.26-.12.36-.23.11-.1.18-.22.23-.36.07-.13.1-.27.1-.43l-.04-.29c-.05-.19-.15-.35-.28-.49l-.22-.17c-.17-.1-.36-.15-.56-.15-.15,0-.29.03-.43.1-.14.04-.26.12-.36.23-.11.1-.18.22-.23.36-.07.13-.1.27-.1.43l.04.29c.05.19.15.35.28.49l.22.17c.17.1.36.15.56.15h0Z"/>
      <path class="cls-3" d="m33.46,34.17c-.06.08-.11.15-.17.23-.13.18-.22.39-.29.6l-.06.46.06.46c.1.36.32.67.62.89.11.11.23.18.38.22.13.08.28.12.43.12.35.05.79.01,1.1-.2.07-.05.15-.11.22-.17.19-.12.34-.29.45-.49.03-.04.06-.08.08-.11.06-.08.12-.17.18-.25.13-.2.2-.41.21-.65.05-.23.04-.46-.03-.69-.11-.4-.42-.84-.8-1.04-.4-.21-.89-.32-1.34-.18l-.42.18c-.26.15-.47.36-.62.62h0Z"/>
      <path class="cls-3" d="m17.91,42.69c.23.17.52.22.8.22l.33-2.42c-.41-.1-.9-.09-1.29.06-.27.07-.5.21-.69.4-.2.2-.33.43-.4.69-.09.41-.06.84.16,1.21.2.34.56.62.94.72.5.14,1.18.02,1.53-.4.04-.05.08-.09.12-.14.19-.19.32-.42.39-.67,0-.02.02-.04.03-.07.08-.21.11-.39.13-.63l-.04-.33-.12-.29c-.14-.23-.34-.4-.59-.5-.43-.18-1.02-.11-1.34.25-.25.28-.42.57-.43.95,0,.41.18.7.5.94h0Z"/>
    </g>
  </g>
</svg>