<?xml version="1.0" encoding="UTF-8"?>
<svg xmlns="http://www.w3.org/2000/svg" xmlns:xlink="http://www.w3.org/1999/xlink" viewBox="0 0 202.52 207.29" style="fill: rgb(0, 0, 0);" original_string_length="7407" width="103.10832913785394px" height="105.21258075291219px"><defs><clipPath id="__id0_sk9scs3tel" transform="translate(21.61 4.93)"><path d="M171.54,109.48s7.28-23.52-21.35-27.4c10.37-12.62,18.3-27.08,21.35-43.31L171,28.61a43.25,43.25,0,0,0,.29-11.07,12.57,12.57,0,0,0-1.06-4v0C160.64-7.94,92.93,11.8,92.93,11.8S1.37,31.93,2.53,81.48c0,0,3.45,13.86,11.79,23.57,1.26,1.47,14.87-75.19,136.07-48.17-8.68,9.53-21.1,20.05-38.83,30.92l-3.74-.9S45.43,99.21,46.66,114.77c0,0-.14,1.59-.12,4h0v0c0,4.32.54,11.25,3.19,16.57,1.46,4.22,3.51,7.57,6.35,7.49a11.38,11.38,0,0,0,2-.36,14.49,14.49,0,0,0,5.66.14c6.38-1,15.91-6.53,25.9-13.56,18.33-9.63,40.58-24.2,57.48-43.32,4.63,10.06,12.52,36.79-18.49,61.5C117.47,149.32,90.61,155,87,162a10.8,10.8,0,0,0-.8,7.49l-.33.13.52.6c1.65,5.77,6.69,10.36,6.69,10.36l1.52-.79.68.79a143.64,143.64,0,0,0,34-15.25,25,25,0,0,1,11,7.64c7.78,9.55-18.09,27.74-18.09,27.74,11.87-1.93,34.58-15.61,36.12-29.8.93-8.53-7.63-13.14-15-15.58C156.4,144.38,168,129.4,171.54,109.48Z" style="fill: none;"/></clipPath></defs><g data-name="Calque 2"><g data-name="Layer 35"><path d="M14.32,104.21c1.26,1.47,14.92-75.54,136.85-48,0,0,22.86-11.7,20.14-39.51S92.93,11,92.93,11,1.37,31.08,2.53,80.63C2.53,80.63,6,94.49,14.32,104.21Z" stroke="#591935" stroke-linecap="round" stroke-linejoin="round" stroke-width="5" transform="translate(21.61 4.93)" style="fill: rgb(252, 250, 51);"/><path d="M46.66,113.92s-2.71,31,17,27.87,69.68-49.55,69.68-49.55l-25.55-6.19S45.43,98.36,46.66,113.92Z" stroke="#591935" stroke-linecap="round" stroke-linejoin="round" stroke-width="5" transform="translate(21.61 4.93)" style="fill: rgb(252, 250, 51);"/><path d="M93.11,179.73S82.49,170.05,87,161.15s46.34-15.58,46.34-15.58l-7.73,17.08Z" stroke="#591935" stroke-linecap="round" stroke-linejoin="round" stroke-width="5" transform="translate(21.61 4.93)" style="fill: rgb(252, 250, 51);"/><path d="M133.37,152c1.67.52,26.45,3.87,24.9,18.07s-24.26,27.87-36.13,29.8c0,0,25.88-18.19,18.1-27.74s-20.16-9.46-20.16-9.46Z" stroke="#591935" stroke-linecap="round" stroke-linejoin="round" stroke-width="5" transform="translate(21.61 4.93)" style="fill: rgb(140, 82, 255);"/><path d="M144.85,80.76s35.87,53.93-58.95,88l9.4,11s66.79-17.94,76.23-71.1C171.53,108.63,179.69,82.31,144.85,80.76Z" stroke="#591935" stroke-linecap="round" stroke-linejoin="round" stroke-width="5" transform="translate(21.61 4.93)" style="fill: rgb(140, 82, 255);"/><path d="M170.24,12.59s9.2,55-123.71,105.33c0,0,1.93,24.31,9.55,24.09S159,104.76,171.53,37.92Z" stroke="#591935" stroke-linecap="round" stroke-linejoin="round" stroke-width="5" transform="translate(21.61 4.93)" style="fill: rgb(140, 82, 255);"/><g opacity=".54"><g clip-path="url(#__id0_sk9scs3tel)"><path d="M169.52,4.21C161.86.56,154.65-2.53,146.18-4s-18-.89-26.67-.27C102.19-3,84.32-.15,68.07,6.15,35.33,18.84,2.82,40.21-12.54,73c-4.82,10.29-8.31,21-9,32.41-.58,10.31.85,25.31,11.3,30.63,3.65,1.85,9.29,2,12.16-1.57,5.71-7,5.56-16.15,6.4-23.65A96,96,0,0,1,13.74,90c5.34-12.8,14-22.82,25.33-32.49a133.73,133.73,0,0,1,16.24-12A175.36,175.36,0,0,1,76.15,34.06,186.85,186.85,0,0,1,95.6,26.24a178.11,178.11,0,0,1,22.12-5.92,173.49,173.49,0,0,1,23.84-2.73c9.05-.54,17.85-2.82,26.75-4.13,4.24-.62,5-7.47,1.21-9.25Z" transform="translate(21.61 4.93)" style="fill: rgb(235, 254, 243);"/><path d="M46.36,127.57c26.82-5.9,52.75-18.68,75.41-34a245.49,245.49,0,0,0,32.31-25.8,200.69,200.69,0,0,0,14.08-15.23c4.28-5.06,10.57-10.85,11.16-17.72.28-3.22-3.68-6.37-6.76-5.15-6.17,2.45-9.89,9.37-14.12,14.28s-8.58,9.43-13.06,14a268.06,268.06,0,0,1-29.75,26.7C94,101,70.15,112.65,45,122.5c-3.1,1.22-2,5.81,1.4,5.07Z" transform="translate(21.61 4.93)" style="fill: rgb(235, 254, 243);"/><path d="M93.89,170.39c34.45-5.11,65.92-35.58,69.12-71,.51-5.64-8.91-7-9.95-1.35-2.95,16-8.33,31.18-19.05,43.74a89.31,89.31,0,0,1-40.52,27.12.75.75,0,0,0,.4,1.45Z" transform="translate(21.61 4.93)" style="fill: rgb(235, 254, 243);"/><path d="M132.39,62c12.26-4.18,21.28-13.82,28.41-24.32l-3.34,3.34-.17,0c4.72-2,8.36-5.5,8.36-11,0-4.65-3.5-10.17-8.36-11-16.79-2.84-35.86,7.09-50.63,14A416.24,416.24,0,0,0,62,57.63a12.75,12.75,0,0,0-5.19,15.85c2.38,5.43,8.91,9.5,15,7.35Q87.7,75.23,103.35,69q7.59-3,15.14-6.17c5.63-2.36,11.87-4.37,17.06-7.62,11.86-7.43,4.37-26.88-9.68-23-10.27,2.86-20.28,8.49-30.2,12.47Q80.48,50.85,65.08,56.35l9.78,23.2A415.9,415.9,0,0,1,116,56.47c6.83-3.32,13.71-6.72,20.73-9.61a87.77,87.77,0,0,1,8.64-3.07c3.9-1.16,8.08-1.45,11.9-2.71l-14-8a14.57,14.57,0,0,1,.5,2.36l.94-7.19c-4.36,9.51-10.86,17.12-17.23,25.28-2.78,3.56-.4,10.28,4.92,8.46Z" transform="translate(21.61 4.93)" style="fill: rgb(132, 38, 61);"/><path d="M49.62,112.91c18.71-5.48,36.74-13,55.36-18.83,9.65-3,5.41-18.42-4.19-15.17-19.09,6.47-38.22,13.5-55.15,24.58-4.73,3.1-1.85,11.13,4,9.42Z" transform="translate(21.61 4.93)" style="fill: rgb(132, 38, 61);"/><path d="M88.48,165.15c6-.41,11.14-2.54,16.55-5.16,4.88-2.36,11.76-5.47,12.72-11.41a6,6,0,0,0-4-7c-5.64-2.23-11.93,2.17-16.49,5.18-5,3.29-9.35,6.59-12.76,11.52-1.93,2.79.61,7.14,4,6.91Z" transform="translate(21.61 4.93)" style="fill: rgb(132, 38, 61);"/><path d="M130.87,176.11a58.5,58.5,0,0,0,21.25-5.57c6.28-2.93,15.46-6.09,17.24-13.54.82-3.41-1.05-7.66-4.78-8.42-7.29-1.49-13,3.84-19,7.2a158.22,158.22,0,0,0-17.23,10.9c-3.61,2.65-3,9.87,2.55,9.43Z" transform="translate(21.61 4.93)" style="fill: rgb(132, 38, 61);"/><path d="M142.37,104.29c6.8-3.94,14.06-7.41,20.57-11.81,6-4.08,16.7-8.9,17.84-16.77.8-5.53-2.12-10-8-10.45-8.37-.59-15.63,9-20.78,14.66-5.4,5.94-10,12.79-14.8,19.24-2.33,3.15,2.1,6.88,5.13,5.13Z" transform="translate(21.61 4.93)" style="fill: rgb(132, 38, 61);"/></g></g><path d="M170.82,14.05c-7-23.93-77.91-3.25-77.91-3.25S1.35,30.93,2.51,80.48c0,0,3.45,13.86,11.79,23.58C15.55,105.52,29,29.52,148.79,55.52" stroke="#5b1a33" stroke-linecap="round" stroke-linejoin="round" stroke-width="5" transform="translate(21.61 4.93)" style="fill: none;"/><path d="M171.29,16.55a12.88,12.88,0,0,0-.47-2.5" stroke="#5b1a33" stroke-linecap="round" stroke-linejoin="round" stroke-width="5" transform="translate(21.61 4.93)" style="fill: none;"/><path d="M109.63,86.34l-1.83-.44S45.41,98.21,46.64,113.77c0,0-.1,1.09-.12,2.84" stroke="#5b1a33" stroke-linecap="round" stroke-linejoin="round" stroke-width="5" transform="translate(21.61 4.93)" style="fill: none;"/><path d="M86.54,169.68A11.13,11.13,0,0,1,87,161c3.39-6.67,27.68-12.08,39.67-14.38" stroke="#5b1a33" stroke-linecap="round" stroke-linejoin="round" stroke-width="5" transform="translate(21.61 4.93)" style="fill: none;"/><path d="M143.59,154.43c7.27,2.47,15.58,7.07,14.66,15.47-1.55,14.19-24.26,27.87-36.13,29.81,0,0,25.88-18.2,18.1-27.75a25.06,25.06,0,0,0-11-7.67" stroke="#5b1a33" stroke-linecap="round" stroke-linejoin="round" stroke-width="5" transform="translate(21.61 4.93)" style="fill: none;"/><path d="M147.63,86.06c6.16,14.55,14.85,55-61.75,82.55l9.41,11s66.78-17.94,76.23-71.1c0,0,6.84-22.08-18.77-27" stroke="#5b1a33" stroke-linecap="round" stroke-linejoin="round" stroke-width="5" transform="translate(21.61 4.93)" style="fill: none;"/><path d="M170.22,12.44s9.2,55-123.71,105.33c0,0,1.94,24.31,9.55,24.09S159,104.61,171.52,37.77Z" stroke="#5b1a33" stroke-linecap="round" stroke-linejoin="round" stroke-width="5" transform="translate(21.61 4.93)" style="fill: none;"/></g></g></svg>