<svg xmlns="http://www.w3.org/2000/svg" viewBox="0 0 444 670.15"><defs><style>.cls-1{fill:#fff;}.cls-2{fill:none;stroke:#fff;stroke-linecap:round;stroke-linejoin:round;stroke-width:4px;}</style></defs><g id="Calque_2" data-name="Calque 2"><g id="Sparkles"><path class="cls-1" d="M151.33,535.54c.78-1,3.92-5,3.92-5l-3.92-4.43h7.31l4.69-3.39v4.43l6.26,2-6.26,2.48.52,6.26-5.74-4.44Z"/><path class="cls-1" d="M147.81,411.5s4.17,9.13-3.91,13.3c0,0,8.87,0,10.17,7,0,0,0-11.08,5.22-12C159.29,419.84,151.72,421,147.81,411.5Z"/><path class="cls-2" d="M180.68,330c-.2.4-.91,13.44-2.48,18.27"/><path class="cls-2" d="M173.64,337.15s10.3,1.24,12,3"/><path class="cls-1" d="M27.16,241.15s-.52-12.26,2.09-12,6,8.35,6,8.35,7.56-5.35,9.65-4.18-5.09,9.26-5.74,9.92,7.67,7.95,6.12,9.39-11.6-1.57-11.6-1.57-6.26,8.48-8.35,9.13,0-10.95,0-10.95-9-3.37-9.13-4.56S21.94,240.76,27.16,241.15Z"/><path class="cls-1" d="M49.85,212.19l2.61-8.08,1.83,8.08h5.48l-5,4.18s3.26,7.69,2.61,7.56-7.57-4.17-7.57-4.17l-5.31,5.76,3.23-9.15-5.48-3.66Z"/><path class="cls-1" d="M397.94,195s-6.35-6.18-3.83-8.35,8.87,2.44,8.87,2.44,6.09-6.87,7.13-6.27,0,9,0,9,6.35-1.13,6.79.17-1.83,2.44-7.83,4.87c0,0-.43,10-1.56,11.13s-7-7.48-7-7.48S391,206.67,389.94,206,392.81,198.58,397.94,195Z"/><path class="cls-1" d="M417,214.67c.2-.68-4.66,7-11.53,3.65,0,0,6.61,5.65,2.61,12.18,0,0,2.69-5.31,10.26-4.35A14.27,14.27,0,0,1,417,214.67Z"/><path class="cls-1" d="M305.25,236.24s2-9.66,4.17-9.92,4.52,9.92,4.52,9.92,7.13-1.4,8.7,0-7.13,8.17-7.13,8.17,3.3,6.78,2.6,8.17-9.91-5.39-9.91-5.39-7.13,6.64-9.74,5.58,4.7-10.1,4.7-10.1-5.74-3.39-7.13-7.13S305.25,236.24,305.25,236.24Z"/><path class="cls-1" d="M15.68,608.84s-.52-5.6,1.3-4.69,2.61,4.69,2.61,4.69,5-3.49,6.26-2.39-5.12,5.26-5.12,5.26,6.78,4.18,5.3,5-7.74-2.09-7.74-2.09-2,5.87-4.18,6.79,0-7,0-7-6.39.11-5.21-1.58S15.68,608.84,15.68,608.84Z"/><path class="cls-1" d="M119.38,62.32c-.16-.76,4.56,23.09-10.18,26.35,0,0,14.61-.65,17.74,16.7,0,0-1.17-17.87,11.74-21.53C138.68,83.84,124.2,85.93,119.38,62.32Z"/><path class="cls-1" d="M143.07,29.64C142.94,29,147,49.25,134.42,52c0,0,12.43-.55,15.09,14.18,0,0-1-15.18,10-18.28C159.5,47.92,147.18,49.69,143.07,29.64Z"/><path class="cls-1" d="M368.93,39.11s2.68-5.58,4.14-5.41,1.53,6.74,1.53,6.74,4.85.23,5.68,1.32-5.82,3.9-5.82,3.9,1.19,4.65.54,5.39-5.7-4.8-5.7-4.8-5.6,3-7.15,1.92,4.5-5.45,4.5-5.45-3.26-2.94-3.63-5.44S368.93,39.11,368.93,39.11Z"/><circle class="cls-1" cx="379.85" cy="266.06" r="3.39"/><circle class="cls-1" cx="378.16" cy="283.93" r="1.7"/><circle class="cls-1" cx="439.84" cy="405.61" r="4.16"/><circle class="cls-1" cx="440.38" cy="418.93" r="2.35"/><circle class="cls-1" cx="439.33" cy="496.67" r="3.39"/><circle class="cls-1" cx="404.31" cy="658.47" r="3.72"/><circle class="cls-1" cx="413.31" cy="667.21" r="2.93"/><circle class="cls-1" cx="193.72" cy="632.06" r="3.39"/><circle class="cls-1" cx="57.88" cy="581.52" r="3.72"/><circle class="cls-1" cx="53.38" cy="566.58" r="2.61"/><circle class="cls-1" cx="123.03" cy="500.19" r="3.78"/><circle class="cls-1" cx="141.81" cy="438.63" r="3.26"/><circle class="cls-1" cx="156.09" cy="403.34" r="3.2"/><circle class="cls-1" cx="69.03" cy="350.06" r="3.91"/><circle class="cls-1" cx="162" cy="410.03" r="1.47"/><circle class="cls-1" cx="50.54" cy="340.05" r="2.9"/><circle class="cls-1" cx="18.09" cy="138.17" r="3.07"/><circle class="cls-1" cx="24.26" cy="155.68" r="3.1"/><circle class="cls-1" cx="3.5" cy="188.95" r="3.5"/><circle class="cls-1" cx="116.47" cy="155.68" r="3.1"/><circle class="cls-1" cx="82.01" cy="21.3" r="3.46"/><circle class="cls-1" cx="356.6" cy="4.13" r="4.13"/><circle class="cls-1" cx="349.07" cy="20.97" r="3.39"/><circle class="cls-1" cx="330.61" cy="152" r="2.93"/><circle class="cls-1" cx="320.7" cy="166.08" r="3.72"/><circle class="cls-1" cx="433.92" cy="92.52" r="3.46"/></g></g></svg>