<?xml version="1.0" encoding="UTF-8"?>

<svg xmlns="http://www.w3.org/2000/svg" xmlns:xlink="http://www.w3.org/1999/xlink"
  data-name="Calque 2" viewBox="0 0 113.27 104.17" style="fill: rgb(0, 0, 0);"
  original_string_length="13662" width="25.856521799233395px" height="23.788000055294724px">
  <defs>
    <clipPath id="__id6_sxyeyywq1">
      <path
        d="m39.21,51.17c6.72-3.21,10.52-3.21,5.26-9.64-5.26-6.43-22.49-25.7-10.52-31.25,11.98-5.55,18.69,1.46,19.86,11.1,1.17,9.64,0,22.2,6.43,16.36,6.43-5.84,15.38-32.72,25.94-21.62,10.57,11.1,12.32,19.28,3.85,22.2-8.47,2.92-22.2,0-12.85,5.55,9.35,5.55,17.97,2.49,23.37,11.46,5.06,8.4,5.38,23.49-7.19,18.2-12.56-5.29-17.8-13.58-13.55-1.03,1.41,4.16,6.81,17.13-2.25,13.44-9.06-3.69-7.39-21.19-11.48-14.54-4.09,6.65,5.26,14.53-4.67,17.75-9.93,3.21-14.02-12.71-12.85-17.75s9.06-10.3,0-9.13-28.63,5.84-27.46-1.75c1.17-7.59,18.11-9.35,18.11-9.35Z"
        stroke-width="0" style="fill: none;" />
    </clipPath>
  </defs>
  <g data-name="Layer 1">
    <g>
      <path
        d="m39.21,51.17c6.72-3.21,10.52-3.21,5.26-9.64-5.26-6.43-22.49-25.7-10.52-31.25,11.98-5.55,18.69,1.46,19.86,11.1,1.17,9.64,0,22.2,6.43,16.36,6.43-5.84,15.38-32.72,25.94-21.62,10.57,11.1,12.32,19.28,3.85,22.2-8.47,2.92-22.2,0-12.85,5.55,9.35,5.55,17.97,2.49,23.37,11.46,5.06,8.4,5.38,23.49-7.19,18.2-12.56-5.29-17.8-13.58-13.55-1.03,1.41,4.16,6.81,17.13-2.25,13.44s-7.39-21.19-11.48-14.54c-4.09,6.65,5.26,14.53-4.67,17.75-9.93,3.21-14.02-12.71-12.85-17.75s9.06-10.3,0-9.13c-9.06,1.17-28.63,5.84-27.46-1.75,1.17-7.59,18.11-9.35,18.11-9.35Z"
        stroke="#004900" stroke-linecap="round" stroke-linejoin="round" stroke-width="2.52"
        style="fill: rgb(255, 34, 98);" />
      <path
        d="m94.53,85.1c-.61,2.05-3.27,2.72-4.68,1.12-.96-1.1-1-2.85,2.04-5.57,4.68-4.19,3.69.92,2.64,4.46Z"
        stroke="#004900" stroke-linecap="round" stroke-linejoin="round" stroke-width="2.52"
        style="fill: rgb(255, 34, 98);" />
      <g>
        <path
          d="m104.94,31.46s-7.79-.76-6.23-7.17c1.56-6.41,10.91-6.03,10.91-6.03,0,0,7.79,12.31-4.67,13.2Z"
          stroke="#004900" stroke-linecap="round" stroke-linejoin="round" stroke-width="2.52"
          style="fill: rgb(255, 34, 98);" />
        <g opacity=".46">
          <path
            d="m108.24,29.27c-.02-.08-.04-.15-.05-.23l.09.69c-.03-.2-.02-.4,0-.61l-.1.72c.03-.2.09-.39.16-.57l-.29.68c.04-.09.08-.17.12-.26l-2.49,1.43c.64-.04,1.24-.12,1.81-.45.7-.41.48-.34.74-.61.09-.09.17-.17.27-.25l-.68.53c.09-.06.18-.12.27-.16l-.82.35c.07-.03.14-.05.22-.06l-.92.12s.08,0,.12,0l-.93-.12s.07.01.11.03l-.84-.35s.07.04.1.06l-.72-.55s.04.04.06.06l-.56-.72c.04.05.07.1.09.16l-.36-.86c.03.07.04.15.06.23l-.13-.97c.01.13.02.25,0,.38l1.09-2.63-.04.04.77-.59c-.25.16-.67.46-.86.68-.45.53-.8,1.08-1.02,1.75-.27.84-.13,1.79.2,2.58.27.65.66,1.15,1.22,1.58.67.52,1.53.89,2.4.85,1.38-.06,2.71-.74,3.42-1.96.45-.77.59-1.65.47-2.53-.11-.82-.45-1.71-1.09-2.27-.71-.63-.94-.7-1.81-1.07l.91.38-.05-.02,1.71,2.23c-.44-1.14-.97-2.15-2.07-2.8-1.2-.71-2.72-.73-3.93-.05-.69.39-1.22.94-1.64,1.62-.21.34-.36.75-.49,1.12s-.18.62-.18,1.05c0,.99.44,1.7,1.06,2.42l-.74-2.8c-.12.88-.17,1.42,0,2.3.1.52.32,1.04.61,1.48.73,1.06,1.98,1.57,3.21,1.05s1.8-1.78,1.49-3.03h0Z"
            style="fill: rgb(120, 46, 63);" />
        </g>
        <g opacity=".46">
          <path d="m102.6,24.31c2.82,0,2.83-4.39,0-4.39s-2.83,4.39,0,4.39h0Z"
            style="fill: rgb(239, 253, 243);" />
        </g>
        <path
          d="m104.94,31.46s-7.79-.76-6.23-7.17c1.56-6.41,10.91-6.03,10.91-6.03,0,0,7.79,12.31-4.67,13.2Z"
          stroke="#004900" stroke-linecap="round" stroke-linejoin="round" stroke-width="2.52"
          style="fill: none;" />
      </g>
      <g>
        <path
          d="m86.24,102.91s-9.89-4.91-3.94-9.36c5.95-4.45,9.28,2.45,9.28,2.45,0,0,2.23,6.47-5.34,6.91Z"
          stroke="#004900" stroke-linecap="round" stroke-linejoin="round" stroke-width="2.52"
          style="fill: rgb(255, 34, 98);" />
        <g opacity=".46">
          <path
            d="m83.53,99.19l.22.04c.55.15,1.1.15,1.65,0,.53-.15.99-.41,1.37-.8.56-.61.91-1.36.91-2.2,0-.8-.35-1.64-.91-2.2-.39-.39-.85-.65-1.37-.8-.55-.15-1.1-.15-1.65,0l-.22.04-.73.31c-.36.19-.65.46-.86.79-.19.19-.32.42-.4.68-.19.37-.28.76-.26,1.18l.11.82.31.73c.19.36.46.65.79.86.3.27.65.46,1.05.55h0Z"
            style="fill: rgb(239, 253, 243);" />
        </g>
        <path
          d="m86.24,102.91s-9.89-4.91-3.94-9.36c5.95-4.45,9.28,2.45,9.28,2.45,0,0,2.23,6.47-5.34,6.91Z"
          stroke="#004900" stroke-linecap="round" stroke-linejoin="round" stroke-width="2.52"
          style="fill: none;" />
      </g>
      <g>
        <path
          d="m19.65,32.57c-1.69,2.17-4.93,4.6-9.61,3.63-3.55-.73-11.89-1.14-7.57-9.64,1.15-2.27,3.42-3.52,6.16-5.4,2.12-1.45,4.9-1.51,7.13-.24,1.97,1.12,3.68,1.98,4.61,2.89,2,1.95.84,6.73-.73,8.75Z"
          stroke="#004900" stroke-linecap="round" stroke-linejoin="round" stroke-width="2.52"
          style="fill: rgb(255, 34, 98);" />
        <g opacity=".46">
          <path
            d="m6.47,34.26c.22-.44.31-.45.53-.46.18.01.18,0,0-.02.18.04.35.08.53.15-.14,0-.25-.07-.34-.17.24.25.24.25,0-.02v-3.2c-.65.93-.76,2.2-.4,3.26l3.6-4.73h-.19c.63.17,1.27.34,1.9.51l-.12-.07,1.36,1.36-.06-.12.52,1.93c0-.39-.07-.21-.18.54-.07.74-.44,1.32-1.12,1.73l-1.98.54-.67-.07-1.74-1.01c-.34-.47-.55-.98-.63-1.54.06-.63.05-.6-.04.1-.14,1.07.12,1.9.6,2.85,1.2,2.39,4.39,2.36,6.16.79,3.95-3.51-.75-11.18-5.66-8.43-1.53.86-2.47,2.61-2.43,4.35.06,2.64,2.69,4.74,5.28,3.88,2.87-.95,3.41-4.02,1.65-6.25l-.17-.21c-.73-.93-2.5-1.37-3.59-.95l-.2.08,2.44.32c-3.14-1.61-7.9-.52-8.86,3.26-.56,2.21,2.7,3.77,3.79,1.6h0Z"
            style="fill: rgb(120, 46, 63);" />
        </g>
        <g opacity=".46">
          <path
            d="m17.9,25.15c.23-.42.05.36-.86.61h-.86.01c-.24-.14-.48-.28-.72-.42l-.4-.68-.05-.39c0,.08-.02.23.02-.13s.02-.14-.01-.04l.44-.76c.82-.71.97-.47.67-.4l.5-.07s-.02,0-.04,0l.51.07s-.02,0-.03,0l.47.2h-.02c.13.09.27.2.4.3-.01,0-.02-.02-.03-.03l.32.41v-.02c.06.17.13.33.2.5-.08-.21-.17-.41-.26-.62l.22.52c-.03-.07-.04-.15-.05-.23l.08.63c-.02-.19,0-.37,0-.56,0-.62-.22-1.36-.56-1.88l.41,1.51c-.02-1.18-.6-2.17-1.58-2.81-.48-.31-1.24-.46-1.8-.46-1.97.02-3.45,1.76-3.19,3.69.15,1.09.72,1.96,1.65,2.56.04.03.08.05.13.08.54.32.67.31,1.18.38.65.09,1.45.04,2-.37.36-.2.66-.47.88-.81.28-.3.46-.66.56-1.06.19-.85.08-1.63-.32-2.41-.29-.57-.75-.86-1.24-1.22l-.74-.31c-.41-.13-.82-.15-1.23-.06-.65.09-1.32.35-1.77.85-.36.39-.63.85-.79,1.36-.26.81-.03,1.64.31,2.38.01.03.03.06.04.08l-.31-.74s.02.04.02.06l-.11-.83h0c.77-1,1.53-2.01,2.3-3.01h0c1.02.27,2.03.54,3.05.81,0,0-.01,0-.01-.02l.49.63c-.07-.1-.13-.21-.18-.32l.32.76s-.01-.04-.02-.05l.11.84s0-.03,0-.05l-.11.84v-.02c-.26.47-.54.93-.81,1.4v-.02c-.2.17-.41.33-.63.5h.02c-.25.09-.5.2-.76.31.02,0,.04-.01.06-.01l-.84.11s.06,0,.1,0l-.84-.11c.58.1,1.16.2,1.75.01.27-.09.62-.21.86-.38l-2.31.3c.08.02.16.04.23.07l-.69-.29c.71.33,1.39.62,2.2.62,1.4,0,2.64-1.28,2.22-2.71-.05-.17-.13-.36-.23-.51l-.28-.36.41.69s-.02-.06-.02-.09c0-.24-.34-.75-.51-.91-.61-.56-1.51-.66-2.18-.14-.45.35-.67.86-.67,1.43,0,.67.49,1.37,1.16,1.52s1.44-.09,1.78-.73h0Z"
            style="fill: rgb(239, 253, 243);" />
        </g>
        <path
          d="m19.65,32.57c-1.69,2.17-4.93,4.6-9.61,3.63-3.55-.73-11.89-1.14-7.57-9.64,1.15-2.27,3.42-3.52,6.16-5.4,2.12-1.45,4.9-1.51,7.13-.24,1.97,1.12,3.68,1.98,4.61,2.89,2,1.95.84,6.73-.73,8.75Z"
          stroke="#004900" stroke-linecap="round" stroke-linejoin="round" stroke-width="2.52"
          style="fill: none;" />
      </g>
      <g>
        <path
          d="m21.49,6.39l.13-.75c.33-1.91,1.7-3.47,3.54-4.04l.66-.2c2.25-.7,4.38,1.38,3.73,3.65l-.4,1.39c-.39,1.37-1.42,2.48-2.76,2.96-.38.14-.78.27-1.19.38-2.1.57-4.07-1.25-3.71-3.39Z"
          stroke="#004900" stroke-linecap="round" stroke-linejoin="round" stroke-width="2.52"
          style="fill: rgb(255, 34, 98);" />
        <g opacity=".46">
          <path
            d="m26.73,7.56c.13-.23.24-.51.32-.76.28-.86-.02-1.98-.69-2.59-.52-.48-1.16-.78-1.88-.78-.68,0-1.4.3-1.88.78-.65.65-.98,1.7-.69,2.59.08.25.2.53.32.76.43.8,1.36,1.29,2.25,1.29s1.82-.49,2.25-1.29h0Z"
            style="fill: rgb(239, 253, 243);" />
        </g>
        <path
          d="m21.49,6.39l.13-.75c.33-1.91,1.7-3.47,3.54-4.04l.66-.2c2.25-.7,4.38,1.38,3.73,3.65l-.4,1.39c-.39,1.37-1.42,2.48-2.76,2.96-.38.14-.78.27-1.19.38-2.1.57-4.07-1.25-3.71-3.39Z"
          stroke="#004900" stroke-linecap="round" stroke-linejoin="round" stroke-width="2.52"
          style="fill: none;" />
      </g>
      <g opacity=".3">
        <g clip-path="url(#__id6_sxyeyywq1)">
          <path
            d="m28.35,20.65c.98,4.39,3.5,7.7,6.26,11.15,3.98,4.96,5.42,9.42,7.35,15.32,1.39,4.24,8.21,3.72,8.06-1.09-.16-5.13-2.73-10.01-5.98-13.9-3.64-4.34-9.87-7.03-12.01-12.5-.88-2.25-4.23-1.43-3.68,1.02h0Z"
            style="fill: rgb(120, 46, 63);" />
          <path
            d="m31.53,68.42c7.71-2.29,15.79-4.12,23.77-5.16l-3.13-5.45c-2.76,3.84-6.67,8.34-7.44,13.1-.41,2.51,2.35,5.85,4.99,3.83,4.19-3.2,6.42-8.6,8.71-13.27,1.46-2.97-.93-5.87-4.09-5.32-8.76,1.53-16.63,4.14-24.55,8.14-2.3,1.16-.7,4.86,1.74,4.14h0Z"
            style="fill: rgb(120, 46, 63);" />
          <path
            d="m59.6,89.89c1.96,1.38,4.38.24,5.57-1.67,1.91-3.09.72-7.88,1.36-11.32.2-1.06.81-2.33.87-3.37l.49-1.24-2.34-.46c-.31.46,2.93,6,3.21,6.57,1.81,3.71,3.03,8.07,7.15,9.65,1.28.49,2.67-.55,3.05-1.73,1.44-4.57-2.55-9.81-4.47-13.79-1.7-3.53-3.31-8.75-8.26-7.95-3.99.65-5.71,4.78-6.57,8.26-.63,2.56-1,5.27-.97,7.9.01,1.28.2,2.46.41,3.73l.33,1.34c-.19,1.14.2,1.24,1.2.31-2.14,0-2.59,2.67-1.02,3.78h0Z"
            style="fill: rgb(120, 46, 63);" />
          <path
            d="m85.88,65.16l.04-2.17-3.14,1.78.15-.88,4.25-2.41c-1.45-.45-3.69-.75-4.87-1.74l-1.77,6.69c1.07.11,1.3-.28.7-1.17l4.08-5.36c-1.19-.05-2.39-.09-3.58-.14l3.71,6.47c-1.11,1.5-1.29.33-.46,2.17.42.93,1.25,1.86,1.89,2.66,1.23,1.54,2.62,2.88,4.22,4.04,3.4,2.46,7.17,3.57,11.29,4.04,5.37.61,6.24-6.87,2.54-9.36-4.1-2.76-8.34-5.33-12.53-7.95l-5.25,8.98c4.79,2.76,13.07,6.82,18.47,3.59,4.84-2.9,4.55-10.26-1.24-11.76-4.34-1.13-6.68,3.92-4.11,7.05l.53.65-1.31-3.17c2.33-1.54,2.43-2.32.3-2.35-.76-.18-1.51-.4-2.25-.65-1.83-.59-3.47-1.39-5.15-2.33-5.84-3.29-10.96,5.49-5.25,8.98,4.22,2.58,8.4,5.21,12.71,7.65l2.54-9.36c-2.87-.11-5.66-1.02-7.82-2.98-1.99-1.8-3.03-4.38-5.21-6.01-3.86-2.9-8.65-2.14-11.34,1.79-1.89,2.75.64,6.46,3.71,6.47,1.19,0,2.39,0,3.58,0,3.48,0,4.92-3.54,3.66-6.37-1.84-4.11-6.73-4.84-10.57-3.28-3.12,1.26-4.09,5.36-.96,7.31,2.78,1.73,5.61,1.92,8.8,2.24,2.09.21,4.12-2.4,3.33-4.37-1.27-3.17-3.38-4.64-6.82-4.05-1.96.34-2.37,3.01-1.13,4.27l1.33,1.83c.72,1.29,3.04.79,2.9-.79h0Z"
            style="fill: rgb(120, 46, 63);" />
          <path
            d="m77.68,38.62c-1.64.73-4.24,1.24-5.9.01l1.36,5.2c2.5-3.38,6.54-5.56,10.78-5.35,1.92.09,3.68,1.22,5.56,1.19,2.44-.04,4.73-1.88,6.62-3.24,5.17-3.71.76-11.63-5.05-8.63-1.45.75-2.77,1.55-4.12,2.47l3.89-.51c-9.31-2.54-19.92,1.33-24.25,10.23-1.44,2.97.93,6.39,4.29,5.58,3.59-.86,6.24-1.43,9.04-4.07,1.63-1.53-.44-3.69-2.23-2.89h0Z"
            style="fill: rgb(120, 46, 63);" />
          <path
            d="m38.9,12.49l1.07,1.18-.42.53c-.02-.05.22-.02.24,0,.27.25.93.31,1.25.58.74.6.89,1.3,1.02,2.2l3.44-4.51c-.25.03-.51.04-.76.02.35.05.31.02-.14-.08-.44-.15-.49-.17-.14-.05-.35-.24-.43-.27-.24-.12.32.36-1.02-.84-.27-.25-.23-.43-.25-.44-.06-.03-.08-.25-.14-.5-.17-.75l-3.01,5.3c.67-.27-.33-.14-.65-.19.64.1.05-.03-.26-.21-.21-.18-.23-.19-.05-.02.23.24.17.16-.18-.23l-.2-.46c.15.49.17.43.04-.2.14,2.34,1.96,4.59,4.48,4.48,2.68-.12,4.17-1.98,4.48-4.48s-1.39-5.23-3.61-6.47-5.03-1.38-7.38-.09c-1.54.84-2.63,3.14-1.98,4.86,1.67,4.44,6.26,7.49,11.04,5.98,1.68-.53,3.23-2.54,2.49-4.39-1.52-3.78-5.56-6.9-9.85-5.71-1.73.48-3.44,2.07-2.84,4.04.47,1.56,2.31,2.32,3.73,1.63,1.55-.75.35-2.75-1.07-2.54h0Z"
            style="fill: rgb(239, 253, 243);" />
          <path
            d="m45.42,17.75c4.41,2.74,3.24,10.68,3.86,15.13.65,4.67,2.48,8.81,6.73,11.2,1.27.71,3.34.67,4.34-.56.72-.88,1.4-1.76,2.08-2.66,1.96-2.6-1.79-5.89-4.32-4.32-.72.42-1.42.88-2.1,1.36h3.62c-4.64-2.74-3.09-10.6-4.11-15.13s-3.77-8.06-8.28-9.32c-2.61-.73-4.07,2.91-1.82,4.31h0Z"
            style="fill: rgb(239, 253, 243);" />
          <path
            d="m77.33,18.79c-.22-.06-.21-.04.04.08.23.1.38.28.44.54.02.09.02.99.1.41.02-.12-.18.35-.3.48.12-.13.85-1.11.31-.36l-.21.17c.24-.12.25-.14.04-.04-.49.14.27-.05.28-.04-.43.05-.53.06-.28.04.11-.01.22-.02.33-.02.22-.01.45-.01.67,0l-2.99-1.71c.15.29.24.75-.03-.18.19.64.01-.88-.04-.22l.08-.61c-.09.28-.07.25.06-.1.09-.3.25-.55.49-.76.54-.37.68-.47.43-.32-.27.16-.09.08.54-.23l.72-.08c-.3,0-.24.02.19.06.43.07.49.08.19.01l.66.29c-.37-.21-.23-.09.41.37-.49-.48.58.95.24.3l-.68,5.3c.14-.17.29-.32.44-.48l.16-.15c-.36.36-.78.62-1.27.76l-1.2.16c.13-.03.27-.03.4,0l-1.21-.16.12.04-1.09-.46-1.4-1.39-.46-1.1c.04.07.06.15.07.24l-.16-1.22c.01.08.02.17,0,.25l.17-1.23c0,.08-.03.15-.05.23l.47-1.11c-.38.7.1.25,1.42-1.36l1.1-.46-.1.02,1.22-.16h-.12c-1.04-.13-2.54.57-3.23,1.33s-1.12,1.61-1.26,2.63,0,2.07.54,2.92c.69,1.07,1.57,1.62,2.73,2.1,1.02.42,2.33.21,3.3-.2,1.33-.56,2.45-1.69,2.83-3.13.45-1.69.16-3.44-.91-4.83-1.3-1.68-3.51-2.46-5.59-1.82-1.67.51-3,1.75-3.78,3.29-.94,1.84-.67,3.77.68,5.3,2.21,2.5,6.51,2.55,8.79.14s2.06-7.37-1.36-8.82c-1.2-.51-2.26-.39-3.44.21-.4.21-.79.43-1.16.7-1.11.8-2.06,1.83-2.38,3.2-.33,1.47.32,2.8,1.45,3.7-.46-.36.24.19.31.25.1.07.2.14.31.2.47.27,1,.42,1.55.37.84-.07,1.56-.59,1.67-1.47.09-.79-.38-1.69-1.22-1.86h0Z"
            style="fill: rgb(239, 253, 243);" />
          <path
            d="m26.55,61.87c-1.89-1.11,3.85-2.46,4.07-2.51,2.51-.51,5.06-.91,7.58-1.4,4.55-.89,9.42-1.58,13.31-4.23,1.33-.91,1.34-3.32-.48-3.71-4.57-.96-9.22.13-13.74,1.02-4.09.81-9.14,1.16-12.84,3.25-4.53,2.56-5.46,10.12.63,11.07,2.02.31,3.47-2.31,1.47-3.49h0Z"
            style="fill: rgb(239, 253, 243);" />
          <path
            d="m55.08,86.78c-.78-3.35-.66-6.7.24-10.02.84-3.13,2.64-5.61,3.96-8.51.73-1.62-.81-3.55-2.55-2.55-7.55,4.33-7.75,15.31-4.62,22.34.78,1.74,3.38.47,2.97-1.25h0Z"
            style="fill: rgb(239, 253, 243);" />
        </g>
      </g>
      <path
        d="m39.21,51.17c6.72-3.21,10.52-3.21,5.26-9.64-5.26-6.43-22.49-25.7-10.52-31.25,11.98-5.55,18.69,1.46,19.86,11.1,1.17,9.64,0,22.2,6.43,16.36,6.43-5.84,15.38-32.72,25.94-21.62,10.57,11.1,12.32,19.28,3.85,22.2-8.47,2.92-22.2,0-12.85,5.55,9.35,5.55,17.97,2.49,23.37,11.46,5.06,8.4,5.38,23.49-7.19,18.2-12.56-5.29-17.8-13.58-13.55-1.03,1.41,4.16,6.81,17.13-2.25,13.44-9.06-3.69-7.39-21.19-11.48-14.54-4.09,6.65,5.26,14.53-4.67,17.75-9.93,3.21-14.02-12.71-12.85-17.75s9.06-10.3,0-9.13-28.63,5.84-27.46-1.75c1.17-7.59,18.11-9.35,18.11-9.35Z"
        stroke="#004900" stroke-linecap="round" stroke-linejoin="round" stroke-width="2.52"
        style="fill: none;" />
    </g>
  </g>
</svg>