<?xml version="1.0" encoding="UTF-8" standalone="no"?>
<svg
   viewBox="0 0 304.69 344.25"
   version="1.1"
   id="svg46"
   sodipodi:docname="white-dots.svg"
   inkscape:version="1.4.2 (2aeb623e1d, 2025-05-12)"
   xmlns:inkscape="http://www.inkscape.org/namespaces/inkscape"
   xmlns:sodipodi="http://sodipodi.sourceforge.net/DTD/sodipodi-0.dtd"
   xmlns="http://www.w3.org/2000/svg"
   xmlns:svg="http://www.w3.org/2000/svg">
  <sodipodi:namedview
     id="namedview46"
     pagecolor="#ffffff"
     bordercolor="#000000"
     borderopacity="0.25"
     inkscape:showpageshadow="2"
     inkscape:pageopacity="0.0"
     inkscape:pagecheckerboard="0"
     inkscape:deskcolor="#d1d1d1"
     inkscape:zoom="1.8329702"
     inkscape:cx="152.21197"
     inkscape:cy="172.125"
     inkscape:window-width="1600"
     inkscape:window-height="836"
     inkscape:window-x="0"
     inkscape:window-y="27"
     inkscape:window-maximized="1"
     inkscape:current-layer="Calque_2" />
  <defs
     id="defs1">
    <style
       id="style1">.cls-1,.cls-8{fill:none;}.cls-2{fill:#33fdb6;}.cls-2,.cls-8{stroke:#29876c;stroke-miterlimit:10;stroke-width:5px;}.cls-3{fill:#6b7bd6;}.cls-4{fill:#e6fff2;}.cls-5{opacity:0.22;}.cls-6{clip-path:url(#clip-path);}.cls-7{fill:#901a3d;}</style>
    <clipPath
       id="clip-path"
       transform="translate(20.66 12.43)">
      <path
         class="cls-1"
         d="M173.74,166l25.88,15.93s30.52,21.9,33.18-4.65S255.36,22,255.36,22s5.31-14.6-6-19.24-150,63.7-150,63.7-28.53,9.93-7.3,31.51,26.55,28.21,26.55,28.21L26.12,231.84C19.62,239.25,12.46,246,5.46,253c-5.29,5.23-4.18,17.35,9,27.16,3.75,2.78,19.38,16.83,27.07,21.86,5.06,3.32,9.93,6.89,14.74,10.56,6.54,5,17,6,26.54-9.86C96.1,280.77,173.74,166,173.74,166Z"
         id="path1" />
    </clipPath>
  </defs>
  <g
     id="Calque_2"
     data-name="Calque 2">
    <g
       id="Warstwa_7"
       data-name="Warstwa 7"
       style="display:inline">
      <path
         class="cls-4"
         d="m 115.91,86.13 0.13,0.68 0.42,1 a 3.28,3.28 0 0 0 1.09,1.19 2.19,2.19 0 0 0 0.93,0.54 3.07,3.07 0 0 0 1.63,0.36 l 1.13,-0.15 1,-0.42 a 3.25,3.25 0 0 0 1.18,-1.09 3.14,3.14 0 0 0 0.76,-1.44 l 0.13,-0.68 a 4.56,4.56 0 0 0 0,-2.32 4.4,4.4 0 0 0 -1.12,-1.92 L 122.3,81.2 a 4.35,4.35 0 0 0 -2.2,-0.6 3.35,3.35 0 0 0 -1.68,0.38 3.28,3.28 0 0 0 -1.4,0.9 4.4,4.4 0 0 0 -1.12,1.92 4.35,4.35 0 0 0 0,2.32 z"
         transform="translate(20.66,12.43)"
         id="path4" />
      <path
         class="cls-4"
         d="m 135.39,80.8 0.93,0.19 A 3.08,3.08 0 0 0 138,81 a 3.14,3.14 0 0 0 2.16,-2.16 3.08,3.08 0 0 0 0,-1.65 l -0.19,-0.93 a 3.63,3.63 0 0 0 -0.95,-1.64 3.71,3.71 0 0 0 -5.24,5.24 3.63,3.63 0 0 0 1.64,1 z"
         transform="translate(20.66,12.43)"
         id="path5" />
      <path
         class="cls-4"
         d="m 152.73,71.75 0.82,0.57 1,0.42 a 3.2,3.2 0 0 0 1.68,0.08 2.1,2.1 0 0 0 1.07,-0.29 3.24,3.24 0 0 0 1.36,-0.87 l 0.66,-0.86 0.42,-1 a 4.7,4.7 0 0 0 -0.42,-3.25 l -0.57,-0.82 a 4.35,4.35 0 0 0 -1.58,-1.58 4.47,4.47 0 0 0 -2.23,-0.61 l -1.17,0.16 a 4.43,4.43 0 0 0 -1.94,1.13 3.28,3.28 0 0 0 -0.91,1.42 3.22,3.22 0 0 0 -0.38,1.7 4.3,4.3 0 0 0 0.6,2.22 4.46,4.46 0 0 0 1.58,1.59 z"
         transform="translate(20.66,12.43)"
         id="path6" />
      <path
         class="cls-4"
         d="m 170.59,54.94 -0.22,0.19 a 6,6 0 0 0 -1.62,2.7 5.72,5.72 0 0 0 0,3.07 5.79,5.79 0 0 0 1.48,2.54 v 0 a 4.26,4.26 0 0 0 1.84,1.18 4.32,4.32 0 0 0 2.21,0.49 l 1.52,-0.2 a 5.65,5.65 0 0 0 2.52,-1.47 v 0 a 5.81,5.81 0 0 0 1.49,-2.54 5.92,5.92 0 0 0 0,-3.07 6.05,6.05 0 0 0 -1.63,-2.7 l -0.22,-0.19 a 4,4 0 0 0 -1.69,-1.09 3.92,3.92 0 0 0 -2,-0.45 l -1.4,0.19 a 5.29,5.29 0 0 0 -2.32,1.35 z"
         transform="translate(20.66,12.43)"
         id="path7" />
      <path
         class="cls-4"
         d="m 192.89,55.13 c 5.43,0 5.44,-8.44 0,-8.44 -5.44,0 -5.44,8.44 0,8.44 z"
         transform="translate(20.66,12.43)"
         id="path8" />
      <path
         class="cls-4"
         d="m 209.75,49 0.62,-0.13 1.22,-0.51 A 3.81,3.81 0 0 0 213,47 a 2.53,2.53 0 0 0 0.65,-1.12 3.73,3.73 0 0 0 0.44,-2 l -0.18,-1.35 -0.51,-1.21 A 3.89,3.89 0 0 0 212.1,40 3.8,3.8 0 0 0 210.37,39.09 l -0.62,-0.13 a 5.38,5.38 0 0 0 -2.76,0 5.3,5.3 0 0 0 -2.3,1.34 l -0.81,1.05 a 5.19,5.19 0 0 0 -0.71,2.63 3.86,3.86 0 0 0 0.45,2 3.87,3.87 0 0 0 1.07,1.67 5.3,5.3 0 0 0 2.31,1.35 5.17,5.17 0 0 0 2.76,0 z"
         transform="translate(20.66,12.43)"
         id="path9" />
      <path
         class="cls-4"
         d="m 222.65,37.4 v 0 l -1,-1.73 a 4.25,4.25 0 0 0 0.5,1.26 l 0.72,0.92 a 3.4,3.4 0 0 0 1.47,0.95 4.17,4.17 0 0 0 3.52,0 4.11,4.11 0 0 0 2.41,-2.42 3.43,3.43 0 0 0 0.4,-1.76 l -0.17,-1.21 a 4.44,4.44 0 0 0 -1.17,-2 l -0.93,-0.72 a 4.54,4.54 0 0 0 -2.3,-0.62 l -1.22,0.16 a 3.58,3.58 0 0 0 -1.55,0.82 3.46,3.46 0 0 0 -1.18,1.28 4.21,4.21 0 0 0 -0.5,1.27 l 1,-1.74 v 0 a 2.92,2.92 0 0 0 -0.8,1.25 2.88,2.88 0 0 0 -0.34,1.5 l 0.14,1 a 3.93,3.93 0 0 0 1,1.72 z"
         transform="translate(20.66,12.43)"
         id="path10" />
      <path
         class="cls-4"
         d="m 218.79,53.05 -0.36,0.5 a 5.39,5.39 0 0 0 9.3,5.44 5.43,5.43 0 0 0 0,-5.44 l -0.36,-0.5 a 4.93,4.93 0 0 0 -1.78,-1.79 5,5 0 0 0 -6.8,1.79 z"
         transform="translate(20.66,12.43)"
         id="path11" />
      <path
         class="cls-4"
         d="m 214,78 v 0.25 l 0.17,1.26 0.47,1.12 a 3.52,3.52 0 0 0 1.2,1.37 2.25,2.25 0 0 0 1,0.61 2.36,2.36 0 0 0 1.19,0.32 2.41,2.41 0 0 0 1.25,0 2.36,2.36 0 0 0 1.19,-0.32 3.57,3.57 0 0 0 1.52,-1 l 0.73,-1 0.48,-1.12 0.17,-1.26 -0.13,-1.23 -0.48,-1.13 a 3.5,3.5 0 0 0 -1.21,-1.32 2.32,2.32 0 0 0 -1,-0.6 3.56,3.56 0 0 0 -1.82,-0.41 h -0.25 a 3.38,3.38 0 0 0 -1.72,0.39 3.27,3.27 0 0 0 -1.43,0.92 l -0.7,0.9 A 4.52,4.52 0 0 0 214,78 Z"
         transform="translate(20.66,12.43)"
         id="path12" />
      <path
         class="cls-4"
         d="m 212.47,93.68 -0.27,0.5 a 4.53,4.53 0 1 0 7.8,4.57 4.58,4.58 0 0 0 0,-4.57 l -0.27,-0.5 a 4.22,4.22 0 0 0 -7.29,0 z"
         transform="translate(20.66,12.43)"
         id="path13" />
      <path
         class="cls-4"
         d="m 209.81,115.49 0.18,0.61 0.39,0.94 a 3,3 0 0 0 1,1.11 2,2 0 0 0 0.87,0.5 3,3 0 0 0 1.52,0.34 l 1.05,-0.14 0.94,-0.39 a 4.46,4.46 0 0 0 1.82,-2.36 l 0.17,-0.61 a 4.28,4.28 0 0 0 0,-2.19 4.14,4.14 0 0 0 -1.06,-1.82 l -0.84,-0.65 a 4.08,4.08 0 0 0 -2.08,-0.56 4.52,4.52 0 0 0 -2.92,1.21 4.15,4.15 0 0 0 -1.06,4 z"
         transform="translate(20.66,12.43)"
         id="path14" />
      <path
         class="cls-4"
         d="m 208.78,134.11 0.43,0.34 a 2.4,2.4 0 0 0 1,0.66 2.47,2.47 0 0 0 1.23,0.28 l 0.85,-0.12 a 3.12,3.12 0 0 0 1.4,-0.82 l 0.43,-0.34 0.6,-0.77 0.38,-0.91 a 2.87,2.87 0 0 0 0.07,-1.51 1.92,1.92 0 0 0 -0.26,-1 1.89,1.89 0 0 0 -0.49,-0.84 2,2 0 0 0 -0.68,-0.68 2,2 0 0 0 -0.84,-0.49 2.92,2.92 0 0 0 -1.46,-0.32 l -1,0.13 -0.91,0.39 -0.77,0.59 -0.59,0.77 -0.38,0.91 a 2.87,2.87 0 0 0 -0.07,1.51 1.92,1.92 0 0 0 0.26,1 2.78,2.78 0 0 0 0.78,1.22 z"
         transform="translate(20.66,12.43)"
         id="path15" />
      <path
         class="cls-4"
         d="m 209.15,156.19 c 6,0 6,-9.28 0,-9.28 -6,0 -6,9.28 0,9.28 z"
         transform="translate(20.66,12.43)"
         id="path16" />
      <path
         class="cls-4"
         d="m 193.66,154.41 a 6.57,6.57 0 0 0 4.21,-1.74 4.47,4.47 0 0 0 1.23,-1.92 4.41,4.41 0 0 0 0.51,-2.29 l -0.21,-1.59 a 5.91,5.91 0 0 0 -1.53,-2.62 l -1.2,-0.93 a 6,6 0 0 0 -3,-0.82 4.41,4.41 0 0 0 -2.29,0.52 5.35,5.35 0 0 0 -3.15,3.14 4.54,4.54 0 0 0 -0.51,2.3 l 0.21,1.58 a 5.94,5.94 0 0 0 1.53,2.63 l 1.21,0.93 a 5.87,5.87 0 0 0 3,0.81 z"
         transform="translate(20.66,12.43)"
         id="path17" />
      <path
         class="cls-4"
         d="m 176,136.37 -0.09,0.48 c 0,0.28 -0.08,0.55 -0.12,0.84 a 2.32,2.32 0 0 0 0,1.28 2.38,2.38 0 0 0 0.33,1.22 2.33,2.33 0 0 0 0.62,1.06 c 0.13,0.18 0.26,0.35 0.4,0.52 a 5.3,5.3 0 0 0 3.38,1.4 l 1.27,-0.17 a 4.66,4.66 0 0 0 2.11,-1.23 v 0 l 0.75,-1 0.49,-1.15 0.17,-1.28 -0.17,-1.28 V 137 136.85 l -0.09,-0.48 -0.47,-1.12 a 3.63,3.63 0 0 0 -1.21,-1.31 2.46,2.46 0 0 0 -1,-0.61 3.62,3.62 0 0 0 -1.81,-0.4 l -1.25,0.17 -1.12,0.47 a 5.31,5.31 0 0 0 -2.15,2.8 z"
         transform="translate(20.66,12.43)"
         id="path18" />
      <path
         class="cls-4"
         d="m 127.08,104 c 5.49,0 5.5,-8.53 0,-8.53 -5.5,0 -5.5,8.53 0,8.53 z"
         transform="translate(20.66,12.43)"
         id="path19" />
      <path
         class="cls-4"
         d="m 141.79,114.5 a 5.36,5.36 0 0 0 5.06,-3.4 4.21,4.21 0 0 0 0.47,-2.13 l -0.2,-1.47 a 5.49,5.49 0 0 0 -1.42,-2.44 l -1.12,-0.86 a 5.47,5.47 0 0 0 -2.79,-0.76 4.12,4.12 0 0 0 -2.13,0.48 4.07,4.07 0 0 0 -1.78,1.14 6.21,6.21 0 0 0 -1.62,3.91 l 0.2,1.47 a 5.43,5.43 0 0 0 1.42,2.44 l 1.12,0.87 a 5.46,5.46 0 0 0 2.79,0.75 z"
         transform="translate(20.66,12.43)"
         id="path20" />
      <path
         class="cls-4"
         d="m 142.56,131.77 c 5.43,0 5.44,-8.44 0,-8.44 -5.44,0 -5.43,8.44 0,8.44 z"
         transform="translate(20.66,12.43)"
         id="path21" />
      <path
         class="cls-4"
         d="m 125,145.16 a 0.24,0.24 0 0 1 0.06,0.11 l -0.42,-1 a 0.55,0.55 0 0 1 0,0.17 l -0.15,-1.13 a 1.93,1.93 0 0 1 0,0.24 l 0.15,-1.16 a 0.27,0.27 0 0 1 0,0.12 4.44,4.44 0 0 0 3.08,5.43 4.93,4.93 0 0 0 3.41,-0.45 4.43,4.43 0 0 0 1.58,-1.58 4.44,4.44 0 0 0 0,-4.46 5.72,5.72 0 0 0 -1.75,-1.78 4.35,4.35 0 0 0 -1.33,-0.57 l -1.1,-0.15 -1.09,0.15 -1,0.42 a 3.19,3.19 0 0 0 -1.16,1.06 2.15,2.15 0 0 0 -0.53,0.91 2.1,2.1 0 0 0 -0.28,1 2.05,2.05 0 0 0 0,1.1 3.11,3.11 0 0 0 0.49,1.53 z"
         transform="translate(20.66,12.43)"
         id="path22" />
      <path
         class="cls-4"
         d="m 108.43,162.18 v 0.66 a 5.14,5.14 0 0 0 0.67,2.6 5.26,5.26 0 0 0 1.73,1.75 5.35,5.35 0 0 0 2.44,0.65 4.8,4.8 0 0 0 2.53,-0.72 l 0.57,-0.36 a 5.31,5.31 0 1 0 -7.27,-7.27 5.29,5.29 0 0 0 -0.72,2.69 z"
         transform="translate(20.66,12.43)"
         id="path23" />
      <path
         class="cls-4"
         d="m 97.85,177.1 0.09,0.66 a 2.09,2.09 0 0 0 0.24,1.08 2.11,2.11 0 0 0 0.59,0.91 2,2 0 0 0 0.9,0.58 2.16,2.16 0 0 0 1.09,0.25 l 0.75,-0.1 a 2.84,2.84 0 0 0 1.24,-0.73 l 0.44,-0.57 a 2.74,2.74 0 0 0 0.39,-1.42 l 0.08,-0.66 a 2.07,2.07 0 0 0 -0.25,-1.12 2.62,2.62 0 0 0 -1.53,-1.53 2.07,2.07 0 0 0 -1.12,-0.25 l -0.77,0.1 a 3,3 0 0 0 -1.29,0.75 l -0.45,0.59 a 2.89,2.89 0 0 0 -0.4,1.46 z"
         transform="translate(20.66,12.43)"
         id="path24" />
      <path
         class="cls-4"
         d="m 89.15,193.5 c 6.15,0 6.16,-9.57 0,-9.57 -6.16,0 -6.17,9.57 0,9.57 z"
         transform="translate(20.66,12.43)"
         id="path25" />
      <path
         class="cls-4"
         d="m 76,205 a 0.05,0.05 0 1 0 0,-0.1 0.05,0.05 0 0 0 0,0.1 z"
         transform="translate(20.66,12.43)"
         id="path26" />
      <path
         class="cls-4"
         d="M 76.46,198.18 H 76 L 74.41,198.39 73,199 a 4.45,4.45 0 0 0 -1.68,1.54 5.94,5.94 0 0 0 -1.17,4.46 2.86,2.86 0 0 0 0.41,1.51 4.5,4.5 0 0 0 1.23,1.93 l 1.22,0.94 1.43,0.6 1.59,0.21 1.59,-0.21 1.43,-0.6 a 4.48,4.48 0 0 0 1.68,-1.55 2.94,2.94 0 0 0 0.77,-1.32 4.44,4.44 0 0 0 0.51,-2.3 v -0.43 a 4.23,4.23 0 0 0 -0.47,-2.14 4.28,4.28 0 0 0 -1.15,-1.79 l -1.12,-0.86 a 5.43,5.43 0 0 0 -2.8,-0.76 z"
         transform="translate(20.66,12.43)"
         id="path27" />
      <path
         class="cls-4"
         d="m 62.05,227.4 a 3.9,3.9 0 0 0 2,-0.44 4.62,4.62 0 0 0 2.72,-2.73 3.79,3.79 0 0 0 0.45,-2 L 67,220.87 a 5.15,5.15 0 0 0 -1.32,-2.28 l -1,-0.8 a 5.16,5.16 0 0 0 -2.6,-0.71 3.91,3.91 0 0 0 -2,0.45 3.91,3.91 0 0 0 -1.66,1.06 4,4 0 0 0 -1.07,1.67 3.84,3.84 0 0 0 -0.44,2 l 0.18,1.38 a 5.18,5.18 0 0 0 1.33,2.27 l 1,0.81 a 5.11,5.11 0 0 0 2.61,0.7 z"
         transform="translate(20.66,12.43)"
         id="path28" />
      <path
         class="cls-4"
         d="M 44.06,234.91 44,235.05 a 5.68,5.68 0 0 0 0,5.71 5.66,5.66 0 0 0 9.78,0 5.68,5.68 0 0 0 0,-5.71 l -0.07,-0.14 a 5.58,5.58 0 0 0 -2,-2 5.61,5.61 0 0 0 -5.64,0 5.69,5.69 0 0 0 -2,2 z"
         transform="translate(20.66,12.43)"
         id="path29" />
      <path
         class="cls-4"
         d="m 33.31,259.42 0.83,0.58 1.09,0.46 a 3.6,3.6 0 0 0 1.84,0.09 2.38,2.38 0 0 0 1.16,-0.32 3.4,3.4 0 0 0 1.48,-1 l 0.72,-0.93 0.46,-1.1 a 5.1,5.1 0 0 0 -0.46,-3.55 l -0.58,-0.82 a 4.67,4.67 0 0 0 -1.71,-1.71 4.77,4.77 0 0 0 -2.41,-0.66 l -1.27,0.18 a 4.68,4.68 0 0 0 -2.11,1.22 5.3,5.3 0 0 0 -1.35,3.44 4.76,4.76 0 0 0 0.65,2.41 4.67,4.67 0 0 0 1.71,1.71 z"
         transform="translate(20.66,12.43)"
         id="path30" />
      <path
         class="cls-4"
         d="m 45,277.31 a 4,4 0 0 0 2,-0.46 4,4 0 0 0 1.7,-1.09 6,6 0 0 0 1.57,-3.76 5.37,5.37 0 0 0 -1.55,-3.75 5.49,5.49 0 0 0 -3.72,-1.53 4.08,4.08 0 0 0 -2,0.46 4,4 0 0 0 -1.7,1.09 5.84,5.84 0 0 0 -1.61,3.73 5.36,5.36 0 0 0 1.55,3.74 5.49,5.49 0 0 0 3.76,1.57 z"
         transform="translate(20.66,12.43)"
         id="path31" />
      <path
         class="cls-4"
         d="m 61.27,288 a 3.67,3.67 0 0 0 1.85,-0.41 3.78,3.78 0 0 0 1.54,-1 5.45,5.45 0 0 0 1.4,-3.38 l -0.17,-1.27 a 4.79,4.79 0 0 0 -1.23,-2.11 l -1,-0.75 a 4.77,4.77 0 0 0 -2.42,-0.65 5.3,5.3 0 0 0 -3.38,1.4 3.57,3.57 0 0 0 -1,1.53 3.68,3.68 0 0 0 -0.42,1.85 l 0.17,1.27 a 4.85,4.85 0 0 0 1.23,2.11 l 1,0.74 a 4.67,4.67 0 0 0 2.41,0.66 z"
         transform="translate(20.66,12.43)"
         id="path32" />
      <path
         class="cls-4"
         d="m 68.58,268.46 v 0.71 a 4.76,4.76 0 0 0 1.25,3 3.14,3.14 0 0 0 1.37,0.88 3.23,3.23 0 0 0 1.65,0.37 l 1.13,-0.15 a 4.35,4.35 0 0 0 1.89,-1.1 l 0.66,-0.86 a 4.33,4.33 0 0 0 0.59,-2.16 v -0.71 a 4.15,4.15 0 0 0 -2.65,-3.94 3.27,3.27 0 0 0 -1.66,-0.38 l -1.15,0.16 a 4.22,4.22 0 0 0 -1.9,1.11 l -0.68,0.87 a 4.26,4.26 0 0 0 -0.58,2.18 z"
         transform="translate(20.66,12.43)"
         id="path33" />
      <path
         class="cls-4"
         d="m 83.73,256.37 h 1 a 4.29,4.29 0 0 0 2.95,-1.22 4.18,4.18 0 0 0 0,-5.9 4.34,4.34 0 0 0 -3,-1.25 h -1 a 4.18,4.18 0 0 0 -4.18,4.17 4.22,4.22 0 0 0 1.23,3 4.32,4.32 0 0 0 3,1.22 z"
         transform="translate(20.66,12.43)"
         id="path34" />
      <path
         class="cls-4"
         d="m 93.75,241.2 0.8,0.3 a 2.63,2.63 0 0 0 2.57,-0.68 2.65,2.65 0 0 0 0.68,-2.57 l -0.3,-0.8 a 3,3 0 0 0 -2.13,-2.12 3,3 0 0 0 -3.74,3.74 3,3 0 0 0 2.12,2.13 z"
         transform="translate(20.66,12.43)"
         id="path35" />
      <path
         class="cls-4"
         d="m 101.68,225.73 0.73,0.73 a 3.16,3.16 0 0 0 1.34,0.86 3.78,3.78 0 0 0 3.22,0 3.1,3.1 0 0 0 1.34,-0.86 l 0.65,-0.84 a 4.13,4.13 0 0 0 0.57,-2.11 l -0.15,-1.11 a 4,4 0 0 0 -1.07,-1.84 l -0.73,-0.73 a 3.16,3.16 0 0 0 -1.34,-0.86 3.78,3.78 0 0 0 -3.22,0 3.1,3.1 0 0 0 -1.34,0.86 l -0.65,0.84 a 4.13,4.13 0 0 0 -0.57,2.11 l 0.15,1.11 a 4,4 0 0 0 1.07,1.84 z"
         transform="translate(20.66,12.43)"
         id="path36" />
      <path
         class="cls-4"
         d="m 113.41,204.87 -0.21,0.47 0.55,-0.72 -0.06,0.06 -0.57,0.73 -0.36,0.87 a 2.82,2.82 0 0 0 -0.07,1.44 1.83,1.83 0 0 0 0.25,0.91 1.87,1.87 0 0 0 0.47,0.8 1.78,1.78 0 0 0 0.64,0.64 1.81,1.81 0 0 0 0.8,0.47 2.76,2.76 0 0 0 1.39,0.31 l 1,-0.13 0.87,-0.36 0.73,-0.57 0.56,-0.73 0.37,-0.86 a 2.71,2.71 0 0 0 0.06,-1.44 1.77,1.77 0 0 0 -0.25,-0.92 2.72,2.72 0 0 0 -0.74,-1.16 l -0.06,-0.06 0.55,0.72 -0.21,-0.47 a 3.33,3.33 0 0 0 -1.18,-1.18 3.23,3.23 0 0 0 -1.66,-0.45 3.29,3.29 0 0 0 -2.83,1.63 z"
         transform="translate(20.66,12.43)"
         id="path37" />
      <path
         class="cls-4"
         d="m 126.31,196 c 5.43,0 5.44,-8.44 0,-8.44 -5.44,0 -5.44,8.44 0,8.44 z"
         transform="translate(20.66,12.43)"
         id="path38" />
      <path
         class="cls-4"
         d="m 135.86,177.53 a 10.58,10.58 0 0 0 2.31,1 l 1.08,0.15 a 3.13,3.13 0 0 0 1.56,-0.35 2.06,2.06 0 0 0 0.89,-0.52 3.08,3.08 0 0 0 1,-1.14 4.67,4.67 0 0 0 0.55,-2 3.08,3.08 0 0 0 -0.34,-1.56 3.11,3.11 0 0 0 -0.84,-1.3 6.45,6.45 0 0 0 -1.41,-1 l -0.72,-0.36 a 4.35,4.35 0 0 0 -3.14,-0.41 4.09,4.09 0 0 0 -1,7.46 z"
         transform="translate(20.66,12.43)"
         id="path39" />
      <path
         class="cls-4"
         d="m 147.19,165.29 0.9,0.32 a 2.54,2.54 0 0 0 1.34,0 2.54,2.54 0 0 0 1.77,-3.12 l -0.32,-0.9 a 3.15,3.15 0 0 0 -0.77,-1.32 3,3 0 0 0 -5,2.92 2.94,2.94 0 0 0 0.77,1.32 3,3 0 0 0 1.33,0.78 z"
         transform="translate(20.66,12.43)"
         id="path40" />
      <path
         class="cls-4"
         d="m 164.14,149.11 0.37,-0.87 0.4,-1 a 3,3 0 0 0 0.07,-1.59 2,2 0 0 0 -0.27,-1 3,3 0 0 0 -0.83,-1.28 l -0.81,-0.63 -0.95,-0.4 a 4.53,4.53 0 0 0 -3.08,0.4 l -0.87,0.37 a 4.35,4.35 0 0 0 -1.56,1.57 4.26,4.26 0 0 0 -0.6,2.2 l 0.16,1.16 a 4.25,4.25 0 0 0 1.12,1.92 3.14,3.14 0 0 0 1.4,0.9 3.25,3.25 0 0 0 1.68,0.38 4.26,4.26 0 0 0 2.2,-0.6 4.35,4.35 0 0 0 1.57,-1.56 z"
         transform="translate(20.66,12.43)"
         id="path41" />
      <path
         class="cls-4"
         d="m 167.34,139.7 a 2.09,2.09 0 0 0 1.1,-0.24 2.24,2.24 0 0 0 0.92,-0.59 2.11,2.11 0 0 0 0.64,-0.87 2.23,2.23 0 0 0 0.25,-1.11 l -0.1,-0.76 a 2.89,2.89 0 0 0 -0.74,-1.26 3,3 0 0 0 -2,-0.84 2.2,2.2 0 0 0 -1.1,0.25 2.15,2.15 0 0 0 -0.92,0.59 3.22,3.22 0 0 0 -0.84,2 l 0.1,0.76 a 2.87,2.87 0 0 0 0.74,1.27 3,3 0 0 0 2,0.83 z"
         transform="translate(20.66,12.43)"
         id="path42"
         style="display:inline" />
    </g>
  </g>
</svg>
