<?xml version="1.0" encoding="UTF-8"?>
<svg xmlns="http://www.w3.org/2000/svg" xmlns:xlink="http://www.w3.org/1999/xlink"
  data-name="Calque 2" viewBox="0 0 175.9 57.6" style="fill: rgb(0, 0, 0);"
  original_string_length="9273" width="226.9506801608784px" height="74.68740565294362px">
  <defs>
    <clipPath id="__id87_s5kqlp8ivc">
      <path
        d="m3.33,8.96L13.48,3.07c1.17-.68,2.64-.5,3.61.44l9.92,9.63c.95.93,2.4,1.12,3.56.47L50.02,2.84c1.01-.56,2.26-.49,3.21.18l14.12,10.03c1.31.93,3.11.67,4.1-.58l17.23-10.07c1.13-1.43,3.27-1.53,4.53-.22l12.66,10.4c1.19,1.24,3.17,1.23,4.36-.01l14.63-7.72c1.01-1.07,2.65-1.24,3.87-.42l8.21,5.52c2.47,1.66,1.3,5.52-1.68,5.52h-7.02c-1.02,0-1.96.51-2.52,1.36l-13.55,9.83c-.96,1.46-2.95,1.8-4.34.75l-14.14-10.73c-1.15-.87-2.75-.81-3.83.15l-18.39,10.46c-1.04.93-2.59,1.02-3.73.22l-16.51-11.51c-1.11-.77-2.6-.71-3.64.15l-18.96,11.65c-1.02.84-2.48.92-3.58.18l-13.52-12.8c-.48-.32-1.04-.49-1.61-.5l-5.12-.1c-3.05-.06-4.09-4.09-1.46-5.62Z"
        stroke-width="0" style="fill: none;" />
    </clipPath>
    <clipPath id="__id88_s5kqlp8ivc">
      <path
        d="m39.7,36.82l10.15-5.9c1.17-.68,2.64-.5,3.61.44l9.92,9.63c.95.93,2.4,1.12,3.56.47l19.44-10.78c1.01-.56,2.26-.49,3.21.18l14.12,10.03c1.31.93,3.11.67,4.1-.58l17.23-10.07c1.13-1.43,3.27-1.53,4.53-.22l12.66,10.4c1.19,1.24,3.17,1.23,4.36-.01l14.63-7.72c1.01-1.07,2.65-1.24,3.87-.42l8.21,5.52c2.47,1.66,1.3,5.52-1.68,5.52h-7.02c-1.02,0-1.96.51-2.52,1.36l-13.55,9.83c-.96,1.46-2.95,1.8-4.34.75l-14.14-10.73c-1.15-.87-2.75-.81-3.83.15l-18.39,10.46c-1.04.93-2.59,1.02-3.73.22l-16.51-11.51c-1.11-.77-2.6-.71-3.64.15l-18.96,11.65c-1.02.84-2.48.92-3.58.18l-13.52-12.8c-.48-.32-1.04-.49-1.61-.5l-5.12-.1c-3.05-.06-4.09-4.09-1.46-5.62Z"
        stroke-width="0" style="fill: none;" />
    </clipPath>
  </defs>
  <g data-name="Layer 1">
    <g>
      <g>
        <path
          d="m2.76,8.96L12.92,3.07c1.17-.68,2.64-.5,3.61.44l9.92,9.63c.95.93,2.4,1.12,3.56.47L49.45,2.84c1.01-.56,2.26-.49,3.21.18l14.12,10.03c1.31.93,3.11.67,4.1-.58l17.23-10.07c1.13-1.43,3.27-1.53,4.53-.22l12.66,10.4c1.19,1.24,3.17,1.23,4.36-.01l14.63-7.72c1.01-1.07,2.65-1.24,3.87-.42l8.21,5.52c2.47,1.66,1.3,5.52-1.68,5.52h-7.02c-1.02,0-1.96.51-2.52,1.36l-13.55,9.83c-.96,1.46-2.95,1.8-4.34.75l-14.14-10.73c-1.15-.87-2.75-.81-3.83.15l-18.39,10.46c-1.04.93-2.59,1.02-3.73.22l-16.51-11.51c-1.11-.77-2.6-.71-3.64.15l-18.96,11.65c-1.02.84-2.48.92-3.58.18l-13.52-12.8c-.48-.32-1.04-.49-1.61-.5l-5.12-.1c-3.05-.06-4.09-4.09-1.46-5.62Z"
          stroke="#5f4600" stroke-linecap="round" stroke-linejoin="round" stroke-width="2.52"
          style="fill: rgb(255, 34, 98);" />
        <g opacity=".42">
          <g clip-path="url(#__id87_s5kqlp8ivc)">
            <path
              d="m2.54,15.3c6.18.64,9.94,7.95,14.88,11.16,5.47,3.55,12.61,3.98,18.41.93,4.66-2.45,9.11-9.69,14.98-7.14,5.19,2.26,8.85,7.04,14.16,9.21s10.65,1.19,15.69-1.46,10.01-7.89,16.23-5.23c5.87,2.52,10.57,6.65,17.4,4.83,7.93-2.11,16.24-6.56,23.55-10.23,4.21-2.12,1.26-9.39-3.25-7.71-3.94,1.46-7.78,3.15-11.63,4.84-3.4,1.49-9.08,5.19-12.86,4.86-5.77-.51-10.03-5.94-16.1-6.3s-11.1,3.24-16.16,6.24c-6.02,3.57-9.67,2.38-15.06-1.66-4.19-3.13-8.43-6.77-13.93-7.03-6.66-.32-10.64,4.24-15.61,7.81C20.92,27.26,13.83,3.99,1.37,10.95c-2.19,1.22-.97,4.13,1.18,4.35h0Z"
              style="fill: rgb(255, 255, 255);" />
            <path
              d="m9.83,2.4c2.19,3.51,4.84,6.27,8.12,8.79,2.87,2.21,6.69,5.51,10.5,4.71,1.79-.38,2.27-2.44,1.58-3.88-1.39-2.89-5.82-4.31-8.41-6.06C18.59,3.93,15.7,1.63,12.8-.57c-1.77-1.34-4.05,1.23-2.97,2.97h0Z"
              style="fill: rgb(239, 253, 244);" />
            <path
              d="m31.36,15.1c3.4-.93,6.35-3.27,9.44-4.91,3.38-1.78,7.23-2.69,10.48-4.63,2.52-1.5,1.6-5.94-1.56-5.76-4.04.24-8.22,2.4-11.65,4.45s-7.17,4.51-8.76,8.17c-.6,1.38.39,3.12,2.05,2.67h0Z"
              style="fill: rgb(239, 253, 244);" />
            <path
              d="m72.55,14.51c4.35-.82,8.23-2.96,12.29-4.61,3.5-1.42,8.53-1.74,10.46-5.28.73-1.34.33-3.04-1.01-3.84-3.9-2.33-9.06.75-12.83,2.38-4.42,1.92-8.46,4.27-11.31,8.23-1.18,1.65.76,3.43,2.4,3.12h0Z"
              style="fill: rgb(239, 253, 244);" />
            <path
              d="m109.97,15.36c4.23-.5,7.97-1.74,12-3.11,3.58-1.22,8.53-1.51,11.03-4.52,1-1.2,1.2-3.52-.55-4.3-4.09-1.81-8.43.24-12.44,1.69-4.39,1.58-8.2,3.48-11.44,6.86-1.07,1.12-.4,3.59,1.4,3.38h0Z"
              style="fill: rgb(239, 253, 244);" />
          </g>
        </g>
        <path
          d="m3.33,8.96L13.48,3.07c1.17-.68,2.64-.5,3.61.44l9.92,9.63c.95.93,2.4,1.12,3.56.47L50.02,2.84c1.01-.56,2.26-.49,3.21.18l14.12,10.03c1.31.93,3.11.67,4.1-.58l17.23-10.07c1.13-1.43,3.27-1.53,4.53-.22l12.66,10.4c1.19,1.24,3.17,1.23,4.36-.01l14.63-7.72c1.01-1.07,2.65-1.24,3.87-.42l8.21,5.52c2.47,1.66,1.3,5.52-1.68,5.52h-7.02c-1.02,0-1.96.51-2.52,1.36l-13.55,9.83c-.96,1.46-2.95,1.8-4.34.75l-14.14-10.73c-1.15-.87-2.75-.81-3.83.15l-18.39,10.46c-1.04.93-2.59,1.02-3.73.22l-16.51-11.51c-1.11-.77-2.6-.71-3.64.15l-18.96,11.65c-1.02.84-2.48.92-3.58.18l-13.52-12.8c-.48-.32-1.04-.49-1.61-.5l-5.12-.1c-3.05-.06-4.09-4.09-1.46-5.62Z"
          stroke="#5f4600" stroke-linecap="round" stroke-linejoin="round" stroke-width="2.52"
          style="fill: none;" />
        <path
          d="m32.93,17.3c5.06-3.04,10.44-5.48,15.45-8.62,1.1-.69.41-2.69-.93-2.2-5.7,2.12-10.6,5.61-15.42,9.27-.89.68-.11,2.16.9,1.55h0Z"
          style="fill: rgb(239, 253, 243);" />
        <path
          d="m5.6,11.93c2.81-.58,6.29-1.9,8.26-4.08,1.08-1.2,0-2.8-1.49-2.56-2.89.47-5.86,2.7-7.87,4.75-.82.84.02,2.11,1.1,1.89h0Z"
          style="fill: rgb(239, 253, 243);" />
        <path
          d="m73.94,17.26c5.97-2.84,12.77-5.8,17.83-10.11,1.42-1.21-.1-3.97-1.88-3.23-6.17,2.54-11.91,7.2-17.19,11.22-1.24.95-.22,2.81,1.24,2.12h0Z"
          style="fill: rgb(239, 253, 243);" />
        <path
          d="m112.11,16.51c1.56.3,2.56-.31,3.99-.89,1.58-.64,3.14-1.31,4.73-1.93,1.69-.66,1.07-3.25-.76-2.77s-3.49,1.03-5.14,1.92c-1.43.77-2.67,1.39-3.2,3-.09.26.1.61.38.67h0Z"
          style="fill: rgb(239, 253, 243);" />
      </g>
      <g>
        <path
          d="m39.13,36.82l10.15-5.9c1.17-.68,2.64-.5,3.61.44l9.92,9.63c.95.93,2.4,1.12,3.56.47l19.44-10.78c1.01-.56,2.26-.49,3.21.18l14.12,10.03c1.31.93,3.11.67,4.1-.58l17.23-10.07c1.13-1.43,3.27-1.53,4.53-.22l12.66,10.4c1.19,1.24,3.17,1.23,4.36-.01l14.63-7.72c1.01-1.07,2.65-1.24,3.87-.42l8.21,5.52c2.47,1.66,1.3,5.52-1.68,5.52h-7.02c-1.02,0-1.96.51-2.52,1.36l-13.55,9.83c-.96,1.46-2.95,1.8-4.34.75l-14.14-10.73c-1.15-.87-2.75-.81-3.83.15l-18.39,10.46c-1.04.93-2.59,1.02-3.73.22l-16.51-11.51c-1.11-.77-2.6-.71-3.64.15l-18.96,11.65c-1.02.84-2.48.92-3.58.18l-13.52-12.8c-.48-.32-1.04-.49-1.61-.5l-5.12-.1c-3.05-.06-4.09-4.09-1.46-5.62Z"
          stroke="#5f4600" stroke-linecap="round" stroke-linejoin="round" stroke-width="2.52"
          style="fill: rgb(255, 34, 98);" />
        <g opacity=".42">
          <g clip-path="url(#__id88_s5kqlp8ivc)">
            <path
              d="m38.92,43.15c6.18.64,9.94,7.95,14.88,11.16,5.47,3.55,12.61,3.98,18.41.93,4.66-2.45,9.11-9.69,14.98-7.14,5.19,2.26,8.85,7.04,14.16,9.21s10.65,1.19,15.69-1.46,10.01-7.89,16.23-5.23c5.87,2.52,10.57,6.65,17.4,4.83,7.93-2.11,16.24-6.56,23.55-10.23,4.21-2.12,1.26-9.39-3.25-7.71-3.94,1.46-7.78,3.15-11.63,4.84-3.4,1.49-9.08,5.19-12.86,4.86-5.77-.51-10.03-5.94-16.1-6.3s-11.1,3.24-16.16,6.24c-6.02,3.57-9.67,2.38-15.06-1.66-4.19-3.13-8.43-6.77-13.93-7.03-6.66-.32-10.64,4.24-15.61,7.81-12.31,8.84-19.4-14.43-31.86-7.47-2.19,1.22-.97,4.13,1.18,4.35h0Z"
              style="fill: rgb(255, 255, 255);" />
            <path
              d="m46.2,30.25c2.19,3.51,4.84,6.27,8.12,8.79,2.87,2.21,6.69,5.51,10.5,4.71,1.79-.38,2.27-2.44,1.58-3.88-1.39-2.89-5.82-4.31-8.41-6.06-3.02-2.04-5.91-4.34-8.82-6.54-1.77-1.34-4.05,1.23-2.97,2.97h0Z"
              style="fill: rgb(239, 253, 244);" />
            <path
              d="m67.73,42.95c3.4-.93,6.35-3.27,9.44-4.91,3.38-1.78,7.23-2.69,10.48-4.63,2.52-1.5,1.6-5.94-1.56-5.76-4.04.24-8.22,2.4-11.65,4.45s-7.17,4.51-8.76,8.17c-.6,1.38.39,3.12,2.05,2.67h0Z"
              style="fill: rgb(239, 253, 244);" />
            <path
              d="m108.92,42.36c4.35-.82,8.23-2.96,12.29-4.61,3.5-1.42,8.53-1.74,10.46-5.28.73-1.34.33-3.04-1.01-3.84-3.9-2.33-9.06.75-12.83,2.38-4.42,1.92-8.46,4.27-11.31,8.23-1.18,1.65.76,3.43,2.4,3.12h0Z"
              style="fill: rgb(239, 253, 244);" />
            <path
              d="m146.34,43.21c4.23-.5,7.97-1.74,12-3.11,3.58-1.22,8.53-1.51,11.03-4.52,1-1.2,1.2-3.52-.55-4.3-4.09-1.81-8.43.24-12.44,1.69-4.39,1.58-8.2,3.48-11.44,6.86-1.07,1.12-.4,3.59,1.4,3.38h0Z"
              style="fill: rgb(239, 253, 244);" />
          </g>
        </g>
        <path
          d="m39.7,36.82l10.15-5.9c1.17-.68,2.64-.5,3.61.44l9.92,9.63c.95.93,2.4,1.12,3.56.47l19.44-10.78c1.01-.56,2.26-.49,3.21.18l14.12,10.03c1.31.93,3.11.67,4.1-.58l17.23-10.07c1.13-1.43,3.27-1.53,4.53-.22l12.66,10.4c1.19,1.24,3.17,1.23,4.36-.01l14.63-7.72c1.01-1.07,2.65-1.24,3.87-.42l8.21,5.52c2.47,1.66,1.3,5.52-1.68,5.52h-7.02c-1.02,0-1.96.51-2.52,1.36l-13.55,9.83c-.96,1.46-2.95,1.8-4.34.75l-14.14-10.73c-1.15-.87-2.75-.81-3.83.15l-18.39,10.46c-1.04.93-2.59,1.02-3.73.22l-16.51-11.51c-1.11-.77-2.6-.71-3.64.15l-18.96,11.65c-1.02.84-2.48.92-3.58.18l-13.52-12.8c-.48-.32-1.04-.49-1.61-.5l-5.12-.1c-3.05-.06-4.09-4.09-1.46-5.62Z"
          stroke="#5f4600" stroke-linecap="round" stroke-linejoin="round" stroke-width="2.52"
          style="fill: none;" />
        <path
          d="m69.3,45.15c5.06-3.04,10.44-5.48,15.45-8.62,1.1-.69.41-2.69-.93-2.2-5.7,2.12-10.6,5.61-15.42,9.27-.89.68-.11,2.16.9,1.55h0Z"
          style="fill: rgb(239, 253, 243);" />
        <path
          d="m41.97,39.78c2.81-.58,6.29-1.9,8.26-4.08,1.08-1.2,0-2.8-1.49-2.56-2.89.47-5.86,2.7-7.87,4.75-.82.84.02,2.11,1.1,1.89h0Z"
          style="fill: rgb(239, 253, 243);" />
        <path
          d="m110.31,45.11c5.97-2.84,12.77-5.8,17.83-10.11,1.42-1.21-.1-3.97-1.88-3.23-6.17,2.54-11.91,7.2-17.19,11.22-1.24.95-.22,2.81,1.24,2.12h0Z"
          style="fill: rgb(239, 253, 243);" />
        <path
          d="m148.48,44.36c1.56.3,2.56-.31,3.99-.89,1.58-.64,3.14-1.31,4.73-1.93,1.69-.66,1.07-3.25-.76-2.77s-3.49,1.03-5.14,1.92c-1.43.77-2.67,1.39-3.2,3-.09.26.1.61.38.67h0Z"
          style="fill: rgb(239, 253, 243);" />
      </g>
    </g>
  </g>
</svg>