<svg xmlns="http://www.w3.org/2000/svg" xmlns:xlink="http://www.w3.org/1999/xlink" viewBox="0 0 267.63 152.46"><defs><style>.cls-1,.cls-8{fill:none;}.cls-2{fill:#c2f9ff;}.cls-2,.cls-8{stroke:#78c9f1;stroke-linecap:round;stroke-linejoin:round;stroke-width:5px;}.cls-3{clip-path:url(#clip-path);}.cls-4{opacity:0.18;}.cls-5{fill:#174991;}.cls-6{opacity:0.9;}.cls-7{fill:#e6fff2;}</style><clipPath id="clip-path" transform="translate(6.25 4.24)"><path class="cls-1" d="M102.72,120.5c79.77-21.43,126.09-25.88,138.7-56.4s0-33.85,0-33.85-13.94-14.6-59.06,15.93c0,0,37.55-27.2-8.48-39.15C143.2-.94,117,3,100.73,9.68,70.28,22.25,30.39,40.21,59.59,71.39c0,0-58.39-4.64-57.07,37.17S102.72,120.5,102.72,120.5Z"/></clipPath></defs><g id="Calque_2" data-name="Calque 2"><g id="Warstwa_3" data-name="Warstwa 3"><path class="cls-2" d="M102.72,120.56c79.77-21.43,126.09-25.88,138.7-56.4s0-33.85,0-33.85-13.94-14.59-59.06,15.93c0,0,37.55-27.2-8.48-39.15-30.68-8-56.93-4-73.15,2.65C70.28,22.32,30.39,40.27,59.59,71.46c0,0-58.39-4.65-57.07,37.16S102.72,120.56,102.72,120.56Z" transform="translate(6.25 4.24)"/><path class="cls-2" d="M190.26,38.89s.13,34.56-24.49,27.88C137.19,59,190.26,38.89,190.26,38.89Z" transform="translate(6.25 4.24)"/><g class="cls-3"><g class="cls-4"><path class="cls-5" d="M91.18,129.4a67,67,0,0,1-7.56-2.77c-1.78-.81-3.89-1.48-5.58-2.43.54.3-1.83-1.65-.81-.7,3.2,3-3.09-4.36-2.22-3.12l.78,1.1c-.85-1.54-.91-1.45-.2.27l-.38-1.2q.2,3.14.1.48c-.48,2.66-1.32,3.39-2.85,5.42l-1.18.51a24.8,24.8,0,0,1,2.83-.68c-3.72.9,1.63-.22,1.9-.25,4.49-.58,9-1.2,13.41-2.07a135.82,135.82,0,0,0,23-6.5c16.53-6.38,37-16.27,32.76-37.83-1.33-6.7-5.54-12.13-10-17.09-2.64-2.89,1.84,3.21,0,0-1.53-2.67.8,3.35.81,3.94l-1.35,5.33q-6.09,5.22-2.35,2.9-3,1.26-.31.46-3.28.42-.15.25l1.52.06c-1.91-.29-1.88-.23.07.17,4.49,1.84-2.52-1.8,1.63.74,3.77,2.3-1.57-2.11,1.47,1.1,1,1.09,2.15,2.17,3.27,3.18,7.22,6.54,16.23,9.94,26,9C182,88.06,196.69,78,211.34,71.5a118.09,118.09,0,0,1,16.35-6c-5,1.29,1.28-.26.94.1-1,1-4.43-1.66-5-2.23-2.55-2.54-2.8-5.17-2.13-8.3q-.84,2.76.33-.41a20.61,20.61,0,0,1-1.53,2.43c2.42-3.33-.71.29-1.18.78-3.14,3.26,3.33-1.73-1.13.76-3,1.69-5.84,3.74-8.87,5.43-1.51.85-3.05,1.65-4.62,2.42-.41.2-5.67,2.46-1.73.88a95.11,95.11,0,0,1-11.51,3.8c-4.18,1.09-8.42,1.84-12.67,2.51,4.27-.67-2,.24-2.34.28-2.55.3-5.1.57-7.65.87a234.52,234.52,0,0,0-28.85,4.77,182.91,182.91,0,0,0-49.59,20.3c-9.35,5.56-13.58,19-7.46,28.47,6.56,10.18,17.89,12.41,28.47,7.46a459.89,459.89,0,0,0,67.11-38.14c6.07-4.2,10.16-10.05,10.16-17.71,0-6.74-3.8-14.69-10.16-17.71l-7-3.33,4.12,32c1-1.09,2.93-3.93,4.36-4.33L178,87.91c.82-.61,1.67-1.19,2.54-1.73.26-.17,3.77-2.42,4-2.23-2.47,1-2.66,1.06-.55.26q1.45-.51,2.94-.9L167.49,49.8a13.23,13.23,0,0,1-1.9,2.06,5.39,5.39,0,0,1,2.87-2q2.32-.85-.25-.06,4.48-.43,1.11-.44l5.29,39q12.3-3.81,24.63-7.54a19.7,19.7,0,0,0,14.07-21.54c-1.21-9-9.53-17.83-19.29-17l-7,.58,9.89,36.53c2.12-1.17,4.25-2.29,6.43-3.34,1.09-.53,2.19-1,3.29-1.53-1.83.86-1.05.41.34-.13a128.15,128.15,0,0,1,14.65-4.72c2.35-.6,4.7-1.12,7.08-1.58.51-.1,4.37-.62,1.6-.34s.74.11,1.21,0c1.63-.28-1.63-.32-2.46-.66-2.43-1-5.09-4-6.17-6.4a6,6,0,0,1-.88-3c-.2-1.77-.29-2.13-.26-1.09q-.13,4.45,3.74-5.94,7.41-8.36,2.84-6.07c-8.78,3.76-11.21,16.19-7.88,24.07,3.79,9,13.28,13.39,22.74,11.16,13.34-3.14,21.19-18.13,17.2-31C256.46,36.32,245,29.34,232.23,29.11c-18.7-.34-39,7.84-55.14,16.49-7.33,3.92-11.59,14.16-9,22.13,2.53,7.82,10.12,15,18.9,14.39l7-.51L188.8,43.05Q176.44,46.64,164,50.12a19.91,19.91,0,0,0-14.24,21.8c1.37,10.14,9.53,16.57,19.52,17.24a33.58,33.58,0,0,0,26.53-11c5.68-6.51,8.15-16.51,3.13-24.29-4.88-7.57-13.75-11.53-22.64-9.22a63.47,63.47,0,0,0-29.81,17.48c-8.6,9-7.91,25.9,4.13,32l6.91,3.52V62.26A539.25,539.25,0,0,1,90.16,99.89l21,35.93c3.61-2.12,7.27-4.12,11-6,1.86-.95,3.73-1.88,5.63-2.77,1.07-.5,2.18-1,3.25-1.49,2.95-1.44-4.47,1.73.84-.36a177.16,177.16,0,0,1,24.78-7.79c17.77-4.12,36.12-4.31,53.18-11.33,17.87-7.35,37.61-18.41,44.23-37.82C258,56.74,254.14,43.84,244,37c-8.06-5.39-18-5.6-27.14-3.13-8.8,2.38-17.36,6.67-25.65,10.4q-5.94,2.67-11.77,5.55c-1.91.95-3.81,1.92-5.71,2.88l-3,1.47c-.41.19-3.71,1.51-1.46.67-1.81.67-3.78,1-5.56,1.71s-.08.05.47,0a15.07,15.07,0,0,1-3.09,0c-.06-.22,2,.36,2,.36,1.69-.09-1.74-1.21-.34-.15s-.49-.56-.61-.68c-.88-.91-1.79-1.81-2.73-2.65A44.49,44.49,0,0,0,131.76,41.9c-10.46-.61-22.28,4-27.35,13.65-5.6,10.72-2.11,21.43,5.18,30.11.86,1,1.74,2.06,2.66,3,2,2.16-1.46-2.68.33.62.92,1.68-.75-1.68-.73-1.61-1.92-6.12.12-4,.83-7.26.22-1,2.67-1.9.21-.39,1.28-.79,1.67-1,.15-.11-7.82,4.73-12.9,6.32-21.76,9.24s-18.19,3.93-27.09,6.61C52.39,99.33,44,109,44.21,121.63c.22,11.31,8,22.9,19.3,25.43,4.84,1.09,11.15,1.76,16.05.41,4.55-1.25,9.06-4.07,13.14-6.38,4.94-2.79,3.61-10.09-1.52-11.69Z" transform="translate(6.25 4.24)"/></g><g class="cls-6"><path class="cls-7" d="M27.69,128.34a11.32,11.32,0,0,1-2.57-1.47l3,3c.26.69.22.5-.12-.56-.48-1.23-1-2.44-1.58-3.63s-1.21-2.14-1.85-3.25c-.64-1.35-.78-1.54-.39-.59-.24-.62-.45-1.24-.63-1.88-.43-1.54-.7-3.08-1-4.64-.27-1.34-.63-2.67-.81-4,.36,2.68,0-3,0-3.58,0-2-.39-.77.39-2.65-.57.88-.4.56.52-1-.65.83-.63.89,0,.17s.68-.66-.16,0c.81-.53,1.63-1,2.46-1.55,1.27-.74,2.59-1.4,3.91-2,3.77-1.82,7.64-3.44,11.45-5.17,8.13-3.69,15.54-8.9,22.91-13.9,7.17-4.86,7.11-14.33,0-19.21,2.63,1.8.31.1-.23-1.18.13.31-.55-2-.63-2.41a22.81,22.81,0,0,1,.17-5.68c1-4.62,3.6-8.17,7.48-11.28,9.65-7.72,23.45-10,35.39-12.59a154.4,154.4,0,0,1,39.69-3,136.31,136.31,0,0,1,40.53,8.35c7.52,2.69,17-3,18.77-10.66,1.94-8.54-2.59-15.93-10.66-18.77C160.56-6.46,121-8.25,87.88,5.06,72.43,11.27,56.4,19.39,47,33.75A40.86,40.86,0,0,0,40.29,56.4c.15,8.27,3.37,15,7.79,21.27l6.65-16.34A213.72,213.72,0,0,0,18.66,73.57C7.74,78.39-2.25,85.16-5.17,97.56c-2.48,10.54-.67,23.23,5.25,32.33,3.17,4.86,7.14,9.74,12.69,11.85,3.08,1.16,5.4,1,8.59.75-2.37.16-.91.18.64.35a23,23,0,0,0,3.71.16c8.61-.37,9.88-11.84,2-14.66Z" transform="translate(6.25 4.24)"/></g><g class="cls-6"><path class="cls-7" d="M202.81,49c4.13-1.3,8.3-.78,12.54-2.41a24.89,24.89,0,0,1,10-1.87c1.91,0,1.34.6.11-.24a17.46,17.46,0,0,1,3.94,3.78c-.71-1,.46,2.12.08.49a36.64,36.64,0,0,0,2.13,6.45c3.31,7.61,16.47,7.44,19.84,0,3.51-7.76,1.71-15.14-3.65-21.57-4.09-4.9-10.22-7.64-15.57-8.7a35.27,35.27,0,0,0-19.61,1.57,30.51,30.51,0,0,0-9.07,4.72c-2.77,2.32-4,5.44-6.43,7.91-4.07,4.07,0,11.67,5.74,9.87Z" transform="translate(6.25 4.24)"/></g></g><path class="cls-8" d="M102.79,120.41C182.55,99,228.87,94.53,241.48,64s0-33.84,0-33.84-13.94-14.6-59.06,15.93c0,0,37.55-27.2-8.48-39.16-30.67-8-56.93-4-73.14,2.66C70.34,22.16,30.46,40.11,59.65,71.3c0,0-58.39-4.64-57.07,37.16S102.79,120.41,102.79,120.41Z" transform="translate(6.25 4.24)"/><path class="cls-8" d="M190.26,38.89s.13,34.56-24.49,27.88C137.19,59,190.26,38.89,190.26,38.89Z" transform="translate(6.25 4.24)"/></g></g></svg>