<svg xmlns="http://www.w3.org/2000/svg" xmlns:xlink="http://www.w3.org/1999/xlink" viewBox="0 0 188.57 192.28"><defs><style>.cls-1,.cls-7{fill:none;}.cls-2{fill:#fd3351;stroke:#231f20;}.cls-2,.cls-7{stroke-linecap:round;stroke-linejoin:round;stroke-width:5px;}.cls-3{opacity:0.5;}.cls-4{clip-path:url(#clip-path);}.cls-5{fill:#901a3d;}.cls-6{fill:#e6fff2;}.cls-7{stroke:#551429;}</style><clipPath id="clip-path" transform="translate(27.01 8.35)"><path class="cls-1" d="M99,99.23c27.87,7,43.79-53.08,43.79-53.08-29.53-6-53.75,28.2-53.75,28.2,12.94-50.77-6-71.67-6-71.67C49.26,25.57,54.23,74.35,54.23,74.35S36.31,43.82,8.44,38.85c0,0-11.28,39.48,30.86,58.39,0,0-43.8,16-35.83,36.37,0,0,35.83,6.8,56.07-18.18-1.87,14.34-2.69,39.79,10.62,57.46,0,0,12.61-3,15.26-14.27,0,0-13.26-10-16.84-43.73,20.28,26.31,55.33,17.19,55.33,17.19C119.93,104.21,99,99.23,99,99.23Z"/></clipPath></defs><g id="Calque_2" data-name="Calque 2"><g id="Warstwa_14" data-name="Warstwa 14"><path class="cls-2" d="M99,99.23c27.87,7,43.79-53.08,43.79-53.08-29.53-6-53.75,28.2-53.75,28.2,12.94-50.77-6-71.67-6-71.67C49.26,25.57,54.23,74.35,54.23,74.35S36.31,43.82,8.44,38.85c0,0-11.28,39.48,30.86,58.39,0,0-43.8,16-35.83,36.37,0,0,35.83,6.8,56.07-18.18-1.87,14.34-2.69,39.79,10.62,57.46,0,0,12.61-3,15.26-14.27,0,0-13.26-10-16.84-43.73,20.28,26.31,55.33,17.19,55.33,17.19C119.93,104.21,99,99.23,99,99.23Z" transform="translate(27.01 8.35)"/><g class="cls-3"><g class="cls-4"><path class="cls-5" d="M86.5,183.92c-2.3-.76-25.27-36.76-22.21-74.29,0,0,29.11,10.74,26.88,2.32-4.13-15.62-10-17.62-10-17.62S97.81,89.23,91.48,84A13.93,13.93,0,0,0,77,81.92S96.32,28.43,81.46-1.44s80.11,46.73,80.11,46.73v66.63Z" transform="translate(27.01 8.35)"/><path class="cls-5" d="M51.27,131.1c7.29-3.83,7.66-19.15,7.66-19.15S49,128.41-8.48,131.1c-23.77,1.1,46,16.08,46,16.08Z" transform="translate(27.01 8.35)"/><path class="cls-6" d="M-9.8,135.69s45.26-31,58-33.86-10.47-6.75-10.47-6.75S-40.28,109.64-25,122.67Z" transform="translate(27.01 8.35)"/><path class="cls-6" d="M5.89,26.73C2.5,40.71,7,44.38,19.1,51.05,33.65,59.1,46.29,74.41,46.29,74.41L54.12,82a3.52,3.52,0,0,0,5.26-2.61C60.94,66.5,65.28,35.69,72.47,26,83,11.7,89.76.31,89.76.31s-61.66,5-63.19,7.27S5.89,26.73,5.89,26.73Z" transform="translate(27.01 8.35)"/><path class="cls-6" d="M148.39,34.89v3.82c0,5.26-2.19,11.91-7.39,12.7-17.73,2.71-39.88,22.76-43.77,25.69-4.6,3.44-6.13-1.15-7.28,0s11.11-36.39,26.42-40.6S148.39,34.89,148.39,34.89Z" transform="translate(27.01 8.35)"/></g></g><path class="cls-5" d="M66.27,102.44c1.51-4.3,1.79-8.87,2.36-13.37.6-4.69,2.17-10,1.63-14.68-.23-2-3.19-3.46-4.28-1.16-2,4.2-2.13,9.39-2.67,14-.6,5-1.25,10.18-.29,15.21.33,1.76,2.75,1.43,3.25,0Z" transform="translate(27.01 8.35)"/><path class="cls-5" d="M65.39,101a41.11,41.11,0,0,0-7.23-8.78c-2.7-2.44-5.31-5-9-5.6A1,1,0,0,0,48,88.11c1.53,3.18,4.32,5.09,6.88,7.4,2.76,2.49,5.57,4.76,8.48,7,1.08.85,2.93-.22,2.06-1.59Z" transform="translate(27.01 8.35)"/><path class="cls-5" d="M67.43,101a88.1,88.1,0,0,0,7.22-5.55c2.24-1.88,4.9-3.7,5.64-6.68a1.8,1.8,0,0,0-2.19-2.19c-2.8.93-4.35,3.34-6.21,5.49s-4.09,4.52-6.11,6.79c-1,1.1.3,3,1.65,2.14Z" transform="translate(27.01 8.35)"/><path class="cls-5" d="M63,104c2.29,1.14,4.68,1.65,7,2.61s4.36,2.54,6.88,2.81c1.63.17,2.36-1.81,1.74-3-1.26-2.48-4.34-3.7-6.82-4.64-2.86-1.09-5.41-1.66-8.4-1A1.8,1.8,0,0,0,63,104Z" transform="translate(27.01 8.35)"/><path class="cls-5" d="M63.46,100.83c-2.58.6-4.87,2.36-7.13,3.7s-5.11,2.35-6.92,4.33c-.78.85-.31,2.6,1,2.48,2.87-.26,5.39-2.1,7.78-3.6s4.94-3.11,6.31-5.53a1,1,0,0,0-1.06-1.38Z" transform="translate(27.01 8.35)"/><path class="cls-7" d="M99,99.05C126.9,106,142.82,46,142.82,46c-29.53-6-53.75,28.2-53.75,28.2C102,23.4,83.1,2.5,83.1,2.5,49.26,25.39,54.23,74.17,54.23,74.17S36.31,43.64,8.44,38.67c0,0-11.28,39.48,30.86,58.39,0,0-43.8,16-35.83,36.37,0,0,35.83,6.8,56.07-18.18-1.87,14.34-2.69,39.79,10.62,57.46,0,0,12.61-3,15.26-14.27,0,0-13.26-10-16.84-43.73C88.86,141,123.91,131.9,123.91,131.9,119.93,104,99,99.05,99,99.05Z" transform="translate(27.01 8.35)"/></g></g></svg>