<svg xmlns="http://www.w3.org/2000/svg" xmlns:xlink="http://www.w3.org/1999/xlink" viewBox="0 0 106.03 141.89"><defs><style>.cls-1,.cls-8{fill:none;}.cls-2{fill:#fd3351;stroke:#231f20;}.cls-2,.cls-8{stroke-miterlimit:10;stroke-width:5px;}.cls-3{fill:#b72f0f;}.cls-4{opacity:0.38;}.cls-5{clip-path:url(#clip-path);}.cls-6{fill:#901a3d;}.cls-7{fill:#e6fff2;}.cls-8{stroke:#590b13;}</style><clipPath id="clip-path" transform="translate(16.81 5.14)"><path class="cls-1" d="M63.39,1.76c-3.28-2-8.45.74-8.45.74s-8.71,9-15.51,26.79c-2.38-6.11-5.53-19.43-24.71-9.08-23.53,12.69-9,49.29-9,49.29S8,85.4,8.89,84.14c5.81-8.42,21.85-12.26,15.34-3.65-5.44,7.2-17.49,2-17.49,2,5.11,20.53,12,27.93,12,27.93a384.22,384.22,0,0,1,51-35S87.81,56.25,78.3,39c-4.81-8.71-18.72-6.57-25.66-4.57,8.42-14.94,14-20.55,14.94-23.94C69.36,4.18,63.39,1.76,63.39,1.76Z"/></clipPath></defs><g id="Calque_2" data-name="Calque 2"><g id="Warstwa_18" data-name="Warstwa 18"><path class="cls-2" d="M78.15,40.16c-8.13-12.19-23-5.73-29.58-2L65,11.74a6,6,0,0,0-6.59-9c-.31.08-.62.18-.94.29-3.91,1.4-13.28,15.48-17.57,29.2C32.15,4.4,14.44,20.25,14.44,20.25S-.82,30.86,3.16,58.74s15.93,52.42,15.93,52.42c5.31-9.29,46.45-31.85,46.45-31.85S88.77,56.08,78.15,40.16Z" transform="translate(16.81 5.14)"/><path class="cls-3" d="M52.09,5.49S27.31,65.33,25.77,76.84c0,0,12.2-26.07,24.54-42S66.62,8.93,66.62,8.93l-4.2-7.72a26.17,26.17,0,0,0-5.58,1.4C55.35,3.4,52.09,5.49,52.09,5.49Z" transform="translate(16.81 5.14)"/><g class="cls-4"><g class="cls-5"><path class="cls-6" d="M81.83,13.08,78.11,12l0,0c-3.52,3-8.87-1.8-5.33-4.83a11.17,11.17,0,0,0,2.45-4,2.15,2.15,0,0,0,.2-.82c.07-1.42.09-2.84.09-4.27a3.12,3.12,0,0,1,.09-.7A4.17,4.17,0,0,0,72.7-5a2.12,2.12,0,0,0-2.36.83c-9.86,14.1-29.24,42.36-30,47.62-1,7.06,11.36.35,18.3,6.07,9.32,7.7,1.9,20.25-8.21,29.14S3.37,112.81-7.81,111.5c-9.46-1.11,20.67,20.45,26.92,24.86a2.15,2.15,0,0,0,2.29.1l53.76-30.77a2.14,2.14,0,0,0,1-1.39l13-58.51a2.18,2.18,0,0,0,0-.95Z" transform="translate(16.81 5.14)"/><path class="cls-7" d="M38.66,22.48V41S34.48,25.88,23,30.63C5.62,37.78,7.82,68.79,9.36,77.16s-21.93-.61-21.93-.61l-4.24-39.77,47-27.2Z" transform="translate(16.81 5.14)"/><path class="cls-7" d="M63.8.12a3.75,3.75,0,0,1-1.73-.31,16.31,16.31,0,0,0-5.23,2.8C54.08,4.9,50.27,2.55,50.32,0L43.5.72l-10,20.87L61.16,9.13,69.91.86A14.38,14.38,0,0,0,63.8.12Z" transform="translate(16.81 5.14)"/></g></g><path class="cls-8" d="M78.15,40.16c-8.13-12.19-23-5.73-29.58-2L65,11.74a6,6,0,0,0-6.59-9c-.31.08-.62.18-.94.29C53.54,4.39,43.33,18.25,39,32c-7-28-24.6-11.72-24.6-11.72S-.82,30.86,3.16,58.74s15.93,52.42,15.93,52.42c5.31-9.29,46.45-31.85,46.45-31.85S88.77,56.08,78.15,40.16Z" transform="translate(16.81 5.14)"/></g></g></svg>