<svg xmlns="http://www.w3.org/2000/svg" xmlns:xlink="http://www.w3.org/1999/xlink" viewBox="0 0 280.57 159.76"><defs><style>.cls-1,.cls-17,.cls-18,.cls-19,.cls-20{fill:none;}.cls-2{fill:#eaa1ee;stroke:#a33e8f;}.cls-17,.cls-18,.cls-2,.cls-3,.cls-6,.cls-7{stroke-linecap:round;}.cls-17,.cls-18,.cls-19,.cls-2,.cls-3,.cls-4,.cls-6,.cls-7{stroke-linejoin:round;}.cls-17,.cls-18,.cls-19,.cls-2,.cls-20,.cls-3,.cls-4,.cls-5,.cls-6,.cls-7{stroke-width:5px;}.cls-3{fill:#e2fafe;}.cls-18,.cls-19,.cls-20,.cls-3,.cls-4,.cls-5,.cls-6,.cls-7{stroke:#221f20;}.cls-4,.cls-5{fill:#4e4c4c;}.cls-20,.cls-5{stroke-miterlimit:10;}.cls-6{fill:#9ffaab;}.cls-7{fill:#da935b;}.cls-8{fill:#c54bb6;}.cls-9{opacity:0.47;}.cls-10{clip-path:url(#clip-path);}.cls-11{fill:#84263d;}.cls-12{fill:#ebfef3;}.cls-13{clip-path:url(#clip-path-2);}.cls-14{fill:#5a2258;}.cls-15{clip-path:url(#clip-path-3);}.cls-16{clip-path:url(#clip-path-4);}.cls-17{stroke:#a7398d;}.cls-21{fill:#fff;}</style><clipPath id="clip-path"><path class="cls-1" d="M271.64,101.55c-10.52-10.29-29.59-11.34-44.38-8.62a50.84,50.84,0,0,0,4.64-11.81c9.41-35.84-34.06-46.45-34.06-46.45a62.28,62.28,0,0,0-7.59,0c-23.31-1.78-41.6,15.21-41.59,30.47l0,0a46,46,0,0,0-.41,8.22c1.55,42.58,49.55,38.71,49.55,38.71s.4,0,1.12-.06a33,33,0,0,0-2.19,5.43c-1.68,5.64-2.06,12,1.33,18.11,9.93,17.81,52.32,11.22,62.19,5.06C271.27,133.78,284.81,114.41,271.64,101.55Z"/></clipPath><clipPath id="clip-path-2"><path class="cls-1" d="M213,31.08S196.22,28,180.48,12.73s-24.26-13.16-22.71,0C157.77,12.73,164.74,42,213,31.08Z"/></clipPath><clipPath id="clip-path-3"><path class="cls-1" d="M110.14,6.2a128.7,128.7,0,0,0-13.85,8.08C80.16,24.82,33.14,30.44,34.48,31.08c25.55,12.16,55.86,7.23,71.59,0,6.56-3,13.73-14.92,14-18.42A6.86,6.86,0,0,0,110.14,6.2Z"/></clipPath><clipPath id="clip-path-4"><path class="cls-1" d="M66.5,39.59c-11.76,1.62-19.45,6.07-24.41,11.58-7,5.75-12,14.65-11.48,28.4.34,9.39,3,16.53,6.8,21.94-1.89.09-3.71.24-5.42.46A34.41,34.41,0,0,0,5.32,120.73c-2.57,5.29-4,11.55-1.61,18.09,6.93,19.17,49.83,19.51,60.56,15C76,149,91.94,132.67,82.46,118.1c6.51-.81,25.09-5.35,31.77-30.79,3.23-12.32.21-21.66-5.14-28.62C104.32,49.81,92.57,36,66.5,39.59Z"/></clipPath></defs><g id="Calque_2" data-name="Calque 2"><g id="Layer_29" data-name="Layer 29"><path class="cls-2" d="M197.13,118.51a34.39,34.39,0,0,1,23.29-22.82c15.16-4.52,39.25-5.15,51.59,6.9,13.16,12.87-.38,32.24-11.36,39.09-9.86,6.16-52.26,12.74-62.19-5.06C195.07,130.55,195.45,124.14,197.13,118.51Z"/><path class="cls-2" d="M5.68,121.78A34.39,34.39,0,0,1,32.35,103c15.68-2,39.56,1.24,49.79,15.13C93.06,133,76.57,149.9,64.63,154.89,53.9,159.38,11,159,4.07,139.87,1.71,133.33,3.11,127.07,5.68,121.78Z"/><path class="cls-3" d="M80.52,119.33S32.52,123.2,31,80.62,80.52,41.91,80.52,41.91,124,52.52,114.59,88.36C106.43,119.42,80.52,119.33,80.52,119.33Z"/><path class="cls-3" d="M198.2,113.13s-48,3.87-49.55-38.71S198.2,35.71,198.2,35.71s43.47,10.62,34.06,46.46C224.11,113.22,198.2,113.13,198.2,113.13Z"/><path class="cls-4" d="M158.13,13.78s7,29.21,55.23,18.35c0,0-16.78-3.13-32.52-18.35S156.58.62,158.13,13.78Z"/><path class="cls-5" d="M34.84,32.13c-1.34-.64,45.68-6.26,61.81-16.8A127,127,0,0,1,110.5,7.25a6.86,6.86,0,0,1,9.91,6.46c-.25,3.5-7.42,15.41-14,18.42C90.7,39.35,60.39,44.29,34.84,32.13Z"/><path class="cls-6" d="M68.52,113.08S35,115.9,33.9,84.85,68.52,56.62,68.52,56.62s30.37,7.74,23.8,33.88C86.62,113.15,68.52,113.08,68.52,113.08Z"/><path class="cls-6" d="M183.66,102.53S150.12,105.35,149,74.3s34.62-28.23,34.62-28.23,30.37,7.74,23.8,33.87C201.76,102.59,183.66,102.53,183.66,102.53Z"/><path class="cls-7" d="M149,66.23s44.18-17.59,83.87,8.07c0,0,5-20-25.6-34.12S149,47.46,149,66.23Z"/><path class="cls-7" d="M34.82,84.85s37-33.61,77.5-18.14c0,0-7.72-31.28-45.46-26.07S33.3,80.21,34.82,84.85Z"/><path class="cls-8" d="M18.32,136c5.88-5.91,13.06-11.64,17.8-18.53.71-1-.75-2.59-1.8-1.8-6.65,5.08-12,12.5-17.66,18.67-1,1.12.58,2.74,1.66,1.66Z"/><path class="cls-8" d="M34.14,144.83c6.4-6.48,13.62-12.27,19.57-19.18,1.82-2.11-.46-5.46-3.06-4-8.41,4.78-14.59,12.65-19.68,20.71-1.23,2,1.56,4.06,3.17,2.44Z"/><path class="cls-8" d="M60.1,143.92c4.06-3.49,8.48-6.83,11.76-11.1,1.6-2.07-1.58-5.25-3.65-3.65-4.27,3.28-7.61,7.7-11.09,11.76a2.11,2.11,0,0,0,3,3Z"/><path class="cls-8" d="M211.21,132.78c5-6,11.11-11.56,15-18.41a1.7,1.7,0,0,0-2.31-2.3c-7,4.21-11.67,11.54-15.69,18.44-1,1.79,1.54,4,3,2.27Z"/><path class="cls-8" d="M231,135.71c6.41-8.19,14.87-16.74,18.55-26.59.69-1.87-1.81-2.84-3.06-1.78-7.93,6.71-13,17.4-18.43,26.09-1.11,1.77,1.61,4,2.94,2.28Z"/><path class="cls-8" d="M255.82,128.73c1.57-2.66,3.21-5.27,5-7.82,1.62-2.36,3.63-4.8,4.19-7.67.35-1.87-1.56-3.72-3.38-2.6-5,3.06-7.53,10.61-9.82,15.72-1.2,2.69,2.48,5,4,2.37Z"/><g class="cls-9"><g class="cls-10"><path class="cls-11" d="M169.61,77.76c0,.06.11.12.15.18l-1.35-1.75a3.14,3.14,0,0,1,.18.31l-.88-2.09a2.75,2.75,0,0,1,.13.47l-.32-2.35a2,2,0,0,1,0,.49l.32-2.38a2.25,2.25,0,0,1-.09.35l.91-2.15a3.07,3.07,0,0,1-.17.31l1.41-1.83a1.54,1.54,0,0,1-.25.26l1.85-1.43a1.92,1.92,0,0,1-.31.18l2.19-.93-.34.1,2.46-.33a1.93,1.93,0,0,1-.48,0l2.49.33a1.54,1.54,0,0,1-.35-.1l2.26.95a2.75,2.75,0,0,1-.41-.24L181,67.6a1.88,1.88,0,0,1-.24-.25l1.51,2c-.29-.42-.52-.7-.89-1.18a4.84,4.84,0,0,0-1.74-1.74c-.35-.29-.71-.57-1.08-.83l-2.32-1a7.35,7.35,0,0,0-3.86-.17,4.79,4.79,0,0,0-2.45.66,7.32,7.32,0,0,0-3.12,2l-1.52,2-1,2.31a7.39,7.39,0,0,0-.17,3.87,7.26,7.26,0,0,0,1.15,3.61,9.48,9.48,0,0,0,3.64,3.66,10.54,10.54,0,0,0,2.64,1.1,11.46,11.46,0,0,0,5.64,0,10,10,0,0,0,2.91-1.13,9.6,9.6,0,0,0,3.14-2.82A8.09,8.09,0,0,0,185,76.36a10.14,10.14,0,0,0,.42-2.75,9.17,9.17,0,0,0-.37-3.08,10.58,10.58,0,0,0-2.55-4.44,7.75,7.75,0,0,0-2.41-1.88,6.4,6.4,0,0,0-3.21-1,6.5,6.5,0,0,0-3.44.15l-2.06.87a6.54,6.54,0,0,0-2.42,2.22,4.38,4.38,0,0,0-1.11,1.91,6.41,6.41,0,0,0-.74,3.32l.31,2.29a8.65,8.65,0,0,0,2.22,3.81Z"/><path class="cls-11" d="M156.2,69c7.42-2.43,12.33-9.11,18.57-13.48,6.72-4.7,14.19-7.6,21.1-11.82,6.57-4,4.52-16.7-4.25-15.69-10,1.15-19.37,6.63-27,13.14-6.59,5.66-15,14-14.29,23.42.21,2.82,2.8,5.42,5.82,4.43Z"/><path class="cls-11" d="M149.7,68.62c3.72,5.63,13.93,5.27,19.93,5.33,8.09.09,16.16-.4,24.25-.34a73.21,73.21,0,0,1,22.3,3.21,50.42,50.42,0,0,1,9,3.93c3.39,1.89,6.35,4.63,10.15,5.62,5.54,1.42,9.25-4.33,7-9.09-3.07-6.48-12.5-10.84-18.79-13.58a69.9,69.9,0,0,0-24.83-5.53,197.6,197.6,0,0,0-27.09.84c-6.3.56-18.36.49-21.89,6.87a2.71,2.71,0,0,0,0,2.74Z"/><path class="cls-12" d="M173.52,92a5.12,5.12,0,0,0-4.6,3.83,5.76,5.76,0,0,0,0,3.24,6.47,6.47,0,0,0,2.72,3.55l-1.81-1.81a5.94,5.94,0,0,0,3.35,2.62,6.8,6.8,0,0,0,1.85.23,8.61,8.61,0,0,0,3.57-1.07l-1.45.61a7.66,7.66,0,0,0,5.57-7.15,8.15,8.15,0,0,0-6-7.63,7.08,7.08,0,0,0-5.35.7,7.18,7.18,0,0,0-2.84,3.32,6.59,6.59,0,0,0-.35,4.52,7.46,7.46,0,0,0,3.19,4.15l.1.07L170,100.1a1.31,1.31,0,0,1,.24.23l-1.09-1.42c.06.1.12.19.17.29l-.72-1.68a3,3,0,0,1,.1.32,8.54,8.54,0,0,0,1.32,2.52,3.57,3.57,0,0,0,1.28,1.28,2.41,2.41,0,0,0,.79.59l.18.11-1.36-1,.23.21-1-1.28a1.21,1.21,0,0,1,.14.2L169.68,99l0,.09-.21-1.59a2.81,2.81,0,0,1,0,.29l.2-1.54a1.53,1.53,0,0,1-.07.29l.56-1.35a1.16,1.16,0,0,1-.15.26l.86-1.11a7.43,7.43,0,0,0-1.08,1.41l3-2.32-.21.06,1.31-.18a1.61,1.61,0,0,1-.31,0l1.27.17a2.08,2.08,0,0,1-.41-.11l1.09.46a4.65,4.65,0,0,1-.52-.34l.85.65a1.59,1.59,0,0,1-.29-.29l.61.79a1.14,1.14,0,0,1-.1-.19l.39.92a2,2,0,0,1-.12-.42l.13,1c0-.38.13-.43-.1.5.11-.45-.43.82-.15.41a3.21,3.21,0,0,0-2.75-4.8Z"/><path class="cls-12" d="M243.05,111.19l-.18-1.28-.88-2.08a6.71,6.71,0,0,0-2.25-2.45,4.34,4.34,0,0,0-1.92-1.12,6.69,6.69,0,0,0-3.36-.75l-2.32.31-2.08.88a9.78,9.78,0,0,0-4,5.21l-.18,1.28a9.07,9.07,0,0,0,0,4.74,8.89,8.89,0,0,0,2.29,3.93l1.8,1.39a9,9,0,0,0,4.5,1.22,10,10,0,0,0,6.3-2.61,8.91,8.91,0,0,0,2.29-8.67Z"/><path class="cls-12" d="M257,127.43c7.6,0,7.61-11.81,0-11.81s-7.61,11.81,0,11.81Z"/></g></g><g class="cls-9"><g class="cls-13"><path class="cls-14" d="M155,17.65c8.73,8.29,18.08,16.17,30.2,18.58,9.91,2,23.37,1.67,29.2-7.95,1.78-2.92-1.14-5.92-4.13-5.37-8.85,1.63-16.12,4.7-25.29,2.31-9.41-2.44-18.1-7.23-26.23-12.43-3-1.89-6.29,2.44-3.75,4.86Z"/></g></g><g class="cls-9"><g class="cls-15"><path class="cls-14" d="M35.91,31.91A57.56,57.56,0,0,0,72.18,44.34,99.19,99.19,0,0,0,94,42c7.14-1.57,14.69-3.18,21.25-6.48,5.57-2.81,3.17-12.85-3.29-12.16C99.13,24.76,86.87,30,73.88,31.19c-11.75,1.1-24.31.59-35.41-3.66-2.39-.92-4.59,2.78-2.56,4.38Z"/></g></g><g class="cls-9"><g class="cls-16"><path class="cls-11" d="M59.65,86l-3.8-2.36L55,80.54s.4-2.15.12-1.19A2.33,2.33,0,0,0,55,80.43l-.13,1,4.76-6.06c-.6.07-1.19.29-1.79.4l10.07,4.09a1.58,1.58,0,0,1-.35-.6l.92,2.17-.08-.35.33,2.44a5.47,5.47,0,0,1,0-1.07l-.33,2.47.12-.34-4.28,5.56a2.69,2.69,0,0,1,.59-.29l-2.22.94a2.3,2.3,0,0,1,.64-.15l-2.49.33a3.74,3.74,0,0,1,.67,0l-2.49-.33a5.47,5.47,0,0,1,1,.23l-2.25-.94a4.11,4.11,0,0,1,.86.5l-1.91-1.47a2.55,2.55,0,0,1,.46.47l-1.47-1.91a2.77,2.77,0,0,1,.34.57L55,85.8a3,3,0,0,1,.19.67L54.82,84a3.28,3.28,0,0,1,0,.7l.33-2.52a4.49,4.49,0,0,1-.26,1l1-2.27a2.91,2.91,0,0,1-.35.62L57,79.58a4.77,4.77,0,0,1-.74.75l1.93-1.49a10.69,10.69,0,0,0-4,4.11C52.11,87,52.86,93.19,57.48,95.4a11,11,0,0,0,5.24,1.44,10.23,10.23,0,0,0,7-3,13.1,13.1,0,0,0,3.58-6A12.42,12.42,0,0,0,68,74.14a12.71,12.71,0,0,0-12.9-.28c-6.75,3.93-6.58,14.72.57,18.17a9.51,9.51,0,0,0,5.69,1.06,9.77,9.77,0,0,0,5.12-2.45c4.69-3.75,4.94-11.29.14-15-3.07-2.37-6.86-1.84-9.72.49l.92-.72-1.18.92a7.12,7.12,0,0,0-1.06,1.33A7,7,0,0,0,54.66,81a5,5,0,0,0,5,5Z"/><path class="cls-11" d="M36.39,94.78c12.4-7.18,23.94-16,38.08-19.53,14-3.47,28.28-3.4,41.37,3.19,8.28,4.17,15.59-8.28,7.29-12.46-30.58-15.4-71-2-90.84,24.69-1.88,2.52,1.68,5.51,4.1,4.11Z"/><path class="cls-11" d="M57.86,46.61c9.87,3.94,20.35,7.46,29.64,12.66,4.66,2.61,8.81,6.12,13.48,8.67,5.65,3.11,13.63,2.1,15.38-5,3-12.14-16.77-19.48-25.35-22.81C80,35.88,69.42,34.51,57.86,37c-5.27,1.15-4.13,7.94,0,9.58Z"/><path class="cls-12" d="M39.78,74.52C41,70.66,43.22,68,45.49,64.75c2.08-3,5.2-5.5,6.84-8.73,2-3.84-1.4-10-6.25-8.12s-8.26,6.47-10.31,11.25c-2,4.6-1.91,9.69-1.52,14.62.25,3.1,4.56,3.91,5.53.75Z"/><path class="cls-12" d="M68.23,112.5l1.67-.12A7,7,0,0,0,75.73,109a6.85,6.85,0,0,0-4-9.92,6.83,6.83,0,0,0-3.59,0,6.67,6.67,0,0,0-3,1.74l-1.28,1-1,1.26-.63,1.48a6.3,6.3,0,0,0,6,7.85Z"/><path class="cls-12" d="M32.88,114l-.09-.06,1.64,1.26-.06-.06,1.28,1.65,0-.06.82,2a.28.28,0,0,1,0-.13l.29,2.19v-.07l-.3,2.21,0-.07-.84,2a.57.57,0,0,1,.08-.13l-1.31,1.7.11-.12-1.71,1.33a1.29,1.29,0,0,1,.32-.19l-2.06.87a1.24,1.24,0,0,1,.38-.09l-2.35.31h.19l-2.37-.32.26.07L25,127.33l.08,0L23.19,126a.53.53,0,0,1,.13.13l-1.43-1.86a.51.51,0,0,1,.09.18L21,122.18a1.16,1.16,0,0,1,.07.31v-5l0,.12,1-2.28a1.28,1.28,0,0,1-.11.2l1.53-2a16.81,16.81,0,0,0-1.95,2.52,5.87,5.87,0,0,1-.55.85,10.62,10.62,0,0,0,0,10.68,11.1,11.1,0,0,0,6.32,4.86,8,8,0,0,0,4.22.18,7.83,7.83,0,0,0,3.93-1.25,10.53,10.53,0,0,0,5.24-9.13,5.88,5.88,0,0,0,0-.73,18,18,0,0,0-.38-2.92,10,10,0,0,0-.6-1.54,5,5,0,0,0-1.31-2.24,4,4,0,0,0-.84-1.08,12,12,0,0,0-1.15-.89,10.33,10.33,0,0,0-1.14-.86,22.1,22.1,0,0,0-2.46-1l2.28,1a11.3,11.3,0,0,0-5.19-1.5A9.54,9.54,0,0,0,25,111.69a10,10,0,0,0-4.58,5.9,9,9,0,0,0-.38,2.68,9.75,9.75,0,0,0,1.22,4.54,13,13,0,0,0,1.38,1.78A8.6,8.6,0,0,0,31,128.75l1.93-.82,1.63-1.26L35.77,125a6,6,0,0,0,1-3,8,8,0,0,0-.55-4.17,4.06,4.06,0,0,0-1-1.78A6.11,6.11,0,0,0,32.88,114Z"/><path class="cls-12" d="M51.31,138c5.79,0,5.8-9,0-9s-5.8,9,0,9Z"/></g></g><path class="cls-17" d="M228.27,93.36c14.78-2.72,33.86-1.66,44.37,8.61,13.17,12.87-.37,32.24-11.35,39.09C251.42,147.22,209,153.8,199.1,136c-3.39-6.07-3-12.48-1.33-18.11a33.15,33.15,0,0,1,1.11-3.13"/><path class="cls-17" d="M83.62,120.54c6.88,14-8.21,29.08-19.35,33.73-10.73,4.49-53.63,4.15-60.56-15-2.36-6.54-1-12.8,1.61-18.09A34.39,34.39,0,0,1,32,102.4c1.41-.18,2.9-.32,4.44-.42"/><path class="cls-18" d="M80.16,118.71s-48,3.87-49.55-38.71S80.16,41.29,80.16,41.29s43.47,10.62,34.07,46.45C106.07,118.8,80.16,118.71,80.16,118.71Z"/><path class="cls-18" d="M198.84,112.51s-48,3.88-49.55-38.71,49.55-38.71,49.55-38.71,43.47,10.62,34.06,46.46C224.75,112.61,198.84,112.51,198.84,112.51Z"/><path class="cls-19" d="M157.77,13.16s7,29.22,55.23,18.35c0,0-16.78-3.12-32.52-18.35S156.22,0,157.77,13.16Z"/><path class="cls-20" d="M34.48,31.51c-1.34-.64,45.68-6.26,61.81-16.8a128.7,128.7,0,0,1,13.85-8.08,6.86,6.86,0,0,1,9.91,6.46c-.25,3.5-7.42,15.41-14,18.42C90.34,38.74,60,43.67,34.48,31.51Z"/><path class="cls-18" d="M83.53,63.94C89.86,69.2,95.08,77.46,92,89.88c-5.7,22.65-23.8,22.58-23.8,22.58s-33.54,2.83-34.62-28.23"/><path class="cls-18" d="M206.8,64.66a25.32,25.32,0,0,1,.3,14.66c-5.7,22.65-23.8,22.59-23.8,22.59s-33.54,2.82-34.62-28.23A31.59,31.59,0,0,1,149.74,64"/><path class="cls-18" d="M148.66,66.61S192.84,49,232.53,74.68c0,0,5-20-25.6-34.12S148.65,47.84,148.66,66.61Z"/><path class="cls-18" d="M34.46,85.23s37-33.61,77.5-18.14c0,0-7.72-31.27-45.46-26.07S32.94,80.6,34.46,85.23Z"/><path class="cls-21" d="M86.14,79.34l.39-1.42,3.24-1.86h-.15l2.68,1.11-.1-.08,1,1.7-.34,2.45L91.39,82.7l.14-.08-2.08.56c-2.1-1.21-2.77-1.47-2-.78l.92-7.15a3.52,3.52,0,0,1,4.1.6l-7,6.94a13.17,13.17,0,0,0,5.65,3.14L89.51,73.18l-.27.12,1.67-.7a8.08,8.08,0,0,1-1.69.44l1.92-.26a7.32,7.32,0,0,1-1.75,0l2,.27c-.29,0-.57-.1-.85-.17l3.3,12.51a4.43,4.43,0,0,1,.49-.48l-1.52,1.17a4.36,4.36,0,0,1,.6-.33l-1.8.76a3.87,3.87,0,0,1,.67-.17l-2,.27a3.18,3.18,0,0,1,.69,0l-2-.27a4.54,4.54,0,0,1,.66.16l-1.81-.76a3.56,3.56,0,0,1,.6.34,7.67,7.67,0,0,0,5.85.77A7.59,7.59,0,0,0,96,73a10.2,10.2,0,0,0-14,3.36,7.45,7.45,0,0,0,0,7.55,7.61,7.61,0,0,0,6.46,3.71,13.59,13.59,0,0,0,8-2.36,7.57,7.57,0,0,0,2.85-3.33,6.64,6.64,0,0,0,.35-4.54A8.24,8.24,0,0,0,98,74.27a7.29,7.29,0,0,0-4.93-2,8.5,8.5,0,0,0-8.27,4.61,5,5,0,0,0,1.77,6.72c2.59,1.45,6.77,1,8.08-2.08a4.81,4.81,0,0,0,0-4.6,4.73,4.73,0,0,0-3.93-2.25A5.13,5.13,0,0,0,85.89,77a4.56,4.56,0,0,0,.74,5.48,4.12,4.12,0,0,0,5.41.3,4,4,0,0,0,.21-6,3.6,3.6,0,0,0-3.91-.74,3.53,3.53,0,0,0-2.2,3.28Z"/><path class="cls-21" d="M202.07,78.71l.24.16-1.53-2.68,0,1,4.58-6-.34,0,1.7-.23h-.17l1.72.23a1,1,0,0,1-.34-.09l1.59.67-.15-.08,1.35,1a1.31,1.31,0,0,1-.24-.23l1.07,1.38-.09-.14.7,1.65-.06-.16-6.74,8.85.24,0-1.88-.26a4,4,0,0,1,.67.2l-1.77-.74.41.22,3.81-14.07h-.25l2,.27a1.91,1.91,0,0,1-.47-.12l1.85.79-.21-.1,2.81,2.81-.1-.16,1.09,4v-.1l-10.44,8,1.8.32a8.82,8.82,0,0,0,6.29-.82,8.37,8.37,0,0,0,3.76-4.89,8.28,8.28,0,0,0-.83-6.29,8.49,8.49,0,0,0-4.88-3.75L207.58,69a8.32,8.32,0,0,0-10.14,10.15c1.62,5.88,9.46,8.15,13.78,3.64l.07-.07-1.62,1.25.16-.08-4,1.07a11.37,11.37,0,0,0,4.82-1.36,7.64,7.64,0,0,0,3.48-8.52,9.08,9.08,0,0,0-1.95-3.34,7.49,7.49,0,0,0-5.34-2.21,10.81,10.81,0,0,0-4.32,1.15,9.91,9.91,0,0,0-2.1,1.55c-3.21,2.8-2.51,9.11,1.42,11a8,8,0,0,0,6.89.42,7.17,7.17,0,0,0,4.3-4.74,6.27,6.27,0,0,0-3.61-7.35,6.14,6.14,0,0,0-7.79,2.55l-.26.6,2.77-1.59-.6.06a3.09,3.09,0,0,0-2.89,2.2,3.14,3.14,0,0,0,1.38,3.39Z"/></g></g></svg>