<svg xmlns="http://www.w3.org/2000/svg" xmlns:xlink="http://www.w3.org/1999/xlink" viewBox="0 0 356.84 462.16"><defs><style>.cls-1,.cls-11,.cls-12,.cls-13{fill:none;}.cls-2{fill:#57d754;}.cls-11,.cls-12,.cls-2,.cls-3,.cls-4{stroke:#231f20;}.cls-11,.cls-13,.cls-2,.cls-4,.cls-5{stroke-linecap:round;stroke-linejoin:round;}.cls-10,.cls-11,.cls-12,.cls-13,.cls-2,.cls-3,.cls-4,.cls-5{stroke-width:5px;}.cls-3{fill:#e0853a;}.cls-10,.cls-12,.cls-3{stroke-miterlimit:10;}.cls-4{fill:#5170d7;}.cls-10,.cls-5{fill:#fd3351;}.cls-10,.cls-13,.cls-5{stroke:#000;}.cls-6{opacity:0.36;}.cls-7{clip-path:url(#clip-path);}.cls-8{fill:#901a3d;}.cls-9{fill:#e6fff2;}</style><clipPath id="clip-path" transform="translate(2.83)"><path class="cls-1" d="M337.13,141.6c-10.85-11-27.49-9.64-39.3-6.67,18.21-8.48,26.93-21.73,27.56-23.1.76-1.68,12.25-19.25-30.39-44-40.54-23.56-82.93,6.43-87,9.43,2.53-1.93,19.35-15.64,6.57-29.6-11.27-12.31-34-1.77-41.88,2.49a51.31,51.31,0,0,0-4.76-16.53c-5.1-9.41-26.3-28.6-57.7-31.66s-56.7,14.37-60,32.68c-2.08,11.51,7.72,17.56,15,20.43A32.4,32.4,0,0,0,51,56.32C36.19,60.92,27,81.85,30.32,101,33.12,117,46.59,125,57,128.86c-16.85-2.82-45.22-2-53.42,32.83C-4.2,194.86,24,214.12,46,223.83c-1.23.48-1.88.76-1.88.76-5.85,24.77,13.32,51.81,13.32,51.81,2.78-1,5.54-1.88,8.28-2.77,3.06,17.48,45.08,166.69,45.08,166.69s97.49,7,145.64-4.94l35.25-159.12c4.2,2,6.38,3.26,6.38,3.26,8.75-7.45,12.76-47.27,12.76-47.27-.95-.45-1.89-.87-2.84-1.31,13.41-4.1,27.71-17.08,25.36-27.55-1.34-6-8.47-7.4-15.58-7.27,14.95-4.44,21.2-14.18,21.2-14.18S355.51,160.24,337.13,141.6Z"/></clipPath></defs><g id="Calque_2" data-name="Calque 2"><g id="Layer_38" data-name="Layer 38"><path class="cls-2" d="M69.75,232.82S-8.43,215.17,4,162.61c11.9-50.48,66.28-29.55,66.28-29.55s-34.87-4.14-39.57-31.2c-3.32-19.09,5.87-40,20.68-44.62,13-4,21.72.94,21.72.94S47.34,53.5,50.58,35.53c3.31-18.31,28.6-35.74,60-32.68s52.61,22.25,57.71,31.66c3.52,6.51,10,28.44-.77,41.87" transform="translate(2.83)"/><path class="cls-2" d="M170.24,52.64s30.9-19.15,44.68-4.09S208,78.4,208,78.4,252.71,44,295.35,68.72s31.15,42.35,30.38,44-13.78,21.34-41.61,28c0,0,35-16.85,53.36,1.79s1.79,40.34,1.79,40.34-10.47,16.34-36.77,16.34c0,0,28.34-7.4,31.15,5.11s-18.13,28.59-32.94,28.85-193.79,2.43-193.79,2.43S73.73,218.6,73,218.09" transform="translate(2.83)"/><path class="cls-2" d="M126.41,155.79S97.56,141,114.92,126.17s23,14.15,23,14.15S144,119,154.75,126.68s4.09,25.79,3.07,26" transform="translate(2.83)"/><path class="cls-2" d="M212.46,168.81c1.27-.77,12.19-16.34,20.26-10.72s-2,15.06-2,15.06,13.15-5.87,14.68,2.3-10.21,14.8-10.21,14.8" transform="translate(2.83)"/><path class="cls-3" d="M65.9,272.88c-2,.78,45.19,168.36,45.19,168.36s97.5,7,145.64-4.94l37.43-168.93S161.28,235.49,65.9,272.88Z" transform="translate(2.83)"/><path class="cls-3" d="M44.41,225.5s132.78-56.4,266.71,7.67c0,0-4,39.82-12.75,47.27,0,0-92.35-54.46-240.64-3.13C57.73,277.31,38.56,250.27,44.41,225.5Z" transform="translate(2.83)"/><path class="cls-4" d="M228.29,207.13s-6.18,38.49-18.79,49.36l28,3.83s23.66-44.89,17.4-47.57C247,209.38,228.29,207.13,228.29,207.13Z" transform="translate(2.83)"/><path class="cls-5" d="M80.66,331.41s38.09-29.17,55.71-23.63c0,0,1.53,15.67,5.36,23.63a318.87,318.87,0,0,0-53,29.57Z" transform="translate(2.83)"/><g class="cls-6"><g class="cls-7"><path class="cls-8" d="M46.36,59.34c-4.2,2.35-7.48,4.15-10.13,8.45a36.18,36.18,0,0,0-4.78,14.42c-1.32,9.88.28,20.55,6.18,28.81,6.2,8.68,17,13.92,26.78,17.45,9,3.21,26.14,6.6,30.82-4.5.84-2-.58-4.52-2.27-5.55-3.83-2.36-7.86-1.13-12.08-1.16a38.89,38.89,0,0,1-11.09-2c-7-2.18-15.5-5.91-20.63-11.38-4.86-5.18-6.45-12.55-6.27-19.46a51.49,51.49,0,0,1,1.4-10.11c.82-3.57,2-8.92,4.68-11.61a2.17,2.17,0,0,0-2.61-3.39Z" transform="translate(2.83)"/><path class="cls-8" d="M31.22,104.09A39.4,39.4,0,0,0,44,122.6c5.45,4.41,14.56,10,21.82,8,3.52-1,5.63-6.36,2.36-8.92-4.95-3.85-11.94-4.63-17.48-7.8a55.37,55.37,0,0,1-14.79-12.56c-1.79-2.16-5.58.15-4.7,2.74Z" transform="translate(2.83)"/><path class="cls-8" d="M22.26,126.72c-18.5,19.5-14.17,52.11,5,69.73a53.22,53.22,0,0,0,34.89,14c13.77.38,27.31-4.07,40.16-8.47,13.58-4.65,27-8.73,41.37-9.51a130.61,130.61,0,0,1,41.23,4.47,226.2,226.2,0,0,0,43.34,7.78c6.68.47,13.42.79,20,2.25a154.75,154.75,0,0,1,20,6.14c14.12,5.21,28,11.42,43,13.79,16.28,2.59,35.18-.48,40.6-18.56,2.37-7.88-7.36-16.23-14.57-11.2q-2.31,1.43,1.06,0c.64.06.61,0-.12-.14-.32-.5-2.85-1-3.51-1.21a31,31,0,0,0-9.29-2.27,19.88,19.88,0,0,0-9.82,2.25c-1.19.59-5.15,3.32-5.17,3.32a10.13,10.13,0,0,0-8.65,15.08l4.89,9.12,6-14.74c-10.7,2.51-21.52-2.07-31.34-6A207.38,207.38,0,0,0,246.87,192c-24-5-48.36-9.75-72.74-12.79-12.12-1.51-24.45-2.32-36.65-1.13-12.4,1.2-24.11,4.35-35.82,8.51-10.8,3.83-21.53,8.1-32.73,10.65-7.1,1.63-16.12,2-23,.53-8.82-1.86-15.83-5.36-20-13.07-2.83-5.25-3.85-11.51-5.1-17.29s-2.43-11.48-1.1-17.24C22.92,136.4,2,130.55-1.41,144.29c-3.24,12.91-.39,26.71,3,39.34C4.7,195.42,11,205.36,21,212.35c18.21,12.67,42.66,11.59,63,5.43,11.88-3.6,23.17-8.9,35-12.73a110,110,0,0,1,36.33-5.27c12.93.22,25.74,2.24,38.46,4.37,13.39,2.25,26.79,4.37,40.2,6.45A188.73,188.73,0,0,1,275,221.68c13.87,5.47,27.94,9.75,42.89,6.19,6.5-1.55,9-9.24,6-14.74L319,204l-8.65,15.08c4.52-.1,8.17-1.65,11.93-4,.26-.17,1.94-1.45,2.13-1.51a1.55,1.55,0,0,1-.52-.24,18.34,18.34,0,0,1,2.42.64c7,2.17,14.08,5.28,20.91.32l-14.57-11.2c-2.68,9.58-20,5-26.58,3.39-11.85-2.9-23.14-7.62-34.67-11.54-24.15-8.22-49.63-7.73-74.06-14.37-12.93-3.51-25.59-6.88-39-7.91a135.74,135.74,0,0,0-39.07,3c-11.73,2.57-22.84,7.11-34.26,10.69-10.79,3.38-22.34,6.12-33.42,2.45-9-3-16.77-10.79-20.54-19.47-5.18-11.9-3.84-26-1.55-38.38.74-4-4-7.55-7.2-4.19Z" transform="translate(2.83)"/><path class="cls-8" d="M121,203.79c1.82.47,3.4,1.8,5.18,2.41a25.5,25.5,0,0,0,5.42.92,67.89,67.89,0,0,0,10.76.37c7.18-.31,15.63-.59,22.42-3,7.84-2.76,6.89-14.8-2-14.88-7.05-.07-14.49,1.78-21.48,2.71-3.21.43-6.38.85-9.55,1.52a35.11,35.11,0,0,0-5.56,1.41c-1.79.7-3.34,2.13-5.18,2.65-2.85.81-3,5.12,0,5.87Z" transform="translate(2.83)"/><path class="cls-8" d="M39.08,230.91c4.64-.26,8.92.06,13.6-.6,5.2-.73,10.45-1.21,15.65-2,9.51-1.45,19-3.3,28.45-5.11,18.53-3.57,36.95-7.51,55.86-8.27,37.45-1.49,74.42,6.13,110.17,16.67,10.13,3,20.18,6.2,30.19,9.54s20.36,8,30.81,10.22c10,2.13,17.58-12.37,7.37-17.48-8.65-4.32-18.31-6.94-27.46-10-9.39-3.17-18.82-6.24-28.3-9.12A501.43,501.43,0,0,0,219,200.67c-38.78-7-77-6.69-115.36,2.69q-16.36,4-32.66,8.24c-5.46,1.42-10.79,3.15-16.18,4.84-2.52.79-5.07,1.51-7.6,2.31-3.34,1.07-5.94,2.88-9.15,4.15-4,1.55-3.89,8.29,1.08,8Z" transform="translate(2.83)"/><path class="cls-8" d="M61.84,288.43c7.26,2,16-1.3,23.12-2.9,8-1.78,15.82-4.13,23.8-5.94a312.39,312.39,0,0,1,46.13-6.92A323,323,0,0,1,246.16,279a248,248,0,0,1,25.15,6.61c8.44,2.76,16.68,6.89,25.36,8.76a7.16,7.16,0,0,0,5.49-13c-6.62-4.55-14.83-7.06-22.36-9.71s-15.31-5.17-23.07-7.36a290.21,290.21,0,0,0-48.09-9.16,286.49,286.49,0,0,0-96.17,6c-9.16,2.16-18.31,4.61-27.27,7.51-4.51,1.46-8.89,3.3-13.27,5.12s-9,3.42-12.08,7.11c-2.08,2.53-1.53,6.58,2,7.53Z" transform="translate(2.83)"/><path class="cls-8" d="M251,224.29c-2.26,2-3.35,5.31-4.79,7.91-1.88,3.38-3.8,6.74-5.67,10.12-2.75,5-9.74,13.11-9.46,19.08.29,6.36,6.54,9.69,12.11,7,3.2-1.57,4.76-5.53,6.31-8.56a121.6,121.6,0,0,0,5.76-13c2.07-5.65,7.61-17.61,1.68-22.49a4.32,4.32,0,0,0-5.94,0Z" transform="translate(2.83)"/><path class="cls-8" d="M89.31,366.57c8.11-3.23,15.33-8,23-12.19,7.91-4.3,16.42-7.14,24.36-11.29,9.28-4.84,2.61-18.12-6.81-16.17s-19.17,7.27-27.45,12.25C94.87,343.69,83.77,350,82,359.25c-.75,3.95,2.73,9.15,7.33,7.32Z" transform="translate(2.83)"/><path class="cls-8" d="M80.46,279a3.87,3.87,0,0,0,1.91-.29.76.76,0,0,0,0-1.29,3.87,3.87,0,0,0-1.91-.29.94.94,0,1,0,0,1.87Z" transform="translate(2.83)"/><path class="cls-8" d="M96.13,270.51c-6.07-4.42-14.74,0-19.63,4.14-6.27,5.24-9.19,13.58-9.22,21.6,0,8.35,2.16,17,3.5,25.22,1.31,8.08,2.65,16.15,4.08,24.21,5,28.13,10,57.55,23.22,83.2a103.92,103.92,0,0,0,12.35,18.48c4.79,5.78,12.6,12.89,20.64,12.43a9.3,9.3,0,0,0,8.83-11.59c-1.59-7.06-9-12.8-13.12-18.1a89.75,89.75,0,0,1-11.13-19.3c-5.84-13.33-9.22-28.18-12.27-42.52-3.95-18.57-7.1-37.3-10.12-56-1.18-7.3-4.32-15.9-.29-22.14,3.4-5.28,10.31-14.37,3.16-19.58Z" transform="translate(2.83)"/><path class="cls-8" d="M260.33,278.27c3.59,3.72,6.69,7.44,8.45,12.43a43.66,43.66,0,0,1,2,18.37c-1.2,15.23-4.33,30.49-7.24,45.47q-4.59,23.58-10.61,46.84c-4,15.51-9,30.72-13.22,46.16a11.73,11.73,0,0,0,8.06,14.19c6.49,1.78,12-2.21,14.18-8.05,6.37-16.7,10.87-34.28,15.25-51.59q6.71-26.54,11.54-53.51c3.13-17.48,7.94-36.47,4.89-54.22-2.42-14-16.92-30.13-32.36-23.38-2.83,1.24-2.81,5.35-.94,7.29Z" transform="translate(2.83)"/><path class="cls-8" d="M316,70.83c-3.56,6.09-1.51,13.82-1.89,20.63-.44,7.73-3.66,13.54-8,19.78-1.66,2.4-3.35,5.21-5.59,7.12-2.77,2.38-6.81,3.79-10,5.39-5.87,2.91-15.47,6.1-17,13.35a2.77,2.77,0,0,0,1.23,3c7.56,4.56,19.59-2.5,26.83-5.29,4.06-1.57,8.27-3.16,11.57-6.09,3.06-2.71,5.41-6.55,7.73-9.88,5.22-7.5,8.68-16.36,8.42-25.63-.21-7.85-2.37-19.42-10-23.24a2.39,2.39,0,0,0-3.21.84Z" transform="translate(2.83)"/><path class="cls-9" d="M54.12,36.89c7-5.39,12.92-12.37,21.4-15.67,10.17-4,21.55-4.39,32.21-2.53,11.48,2,24,5.5,34.47,10.64a37.7,37.7,0,0,1,12.71,9.48c3.41,4.07,5.38,9.12,7.9,13.7,3.06,5.57,11.77,3,11.79-3.2,0-13.6-10.48-26.3-21.62-33.19C140.26,8.25,124.36,3.48,109.64,1.41c-14.13-2-28.73-.63-41,7.14C59.35,14.41,49.23,24,51.57,35.85a1.74,1.74,0,0,0,2.55,1Z" transform="translate(2.83)"/><path class="cls-9" d="M160.42,61.35c11.77-3.51,24-14.63,36.93-11.4a17,17,0,0,1,11,9c2.51,5.22-1,10,1.32,15.06a5.19,5.19,0,0,0,4.53,2.6c9.5,0,9.73-13,7.6-19.67a28.94,28.94,0,0,0-15.64-17.32c-7.94-3.59-15.74-3.18-23.5.75a98.4,98.4,0,0,0-24.2,17.57,2.08,2.08,0,0,0,2,3.45Z" transform="translate(2.83)"/><path class="cls-9" d="M202.27,90c18.11-11.16,35.86-24.21,58-24.45a76.61,76.61,0,0,1,27.26,4.74c9.32,3.45,16.73,9.52,24.75,15.14,5.36,3.75,13.1-3.8,9.17-9.17-13-17.84-39.14-26-60.46-24.85A79.63,79.63,0,0,0,228.79,60c-12.1,6.19-21.18,15.36-30.1,25.41-2.14,2.41.6,6.48,3.58,4.64Z" transform="translate(2.83)"/><path class="cls-9" d="M122.93,132.49c-.14-.46-.17-.31-.09.46a1.87,1.87,0,0,1-.21,1.27l-1.47,1.48c-1.42.69-2.3.42-1.2.46a3.46,3.46,0,0,0,1.49-.18q.6-.14-.18,0c-.53.05-.59.08-.17.07a3.34,3.34,0,0,1-1.83-.47l-.77-.59c-.57-.8-.7-1-.39-.42-.76-1.39-.47-.85-.24-.27-.14-1.21-.19-1.46-.16-.77l0,.34c0,.81,0,1.61,0,2.42l7.13-7.13-.34,0,1.91.25c-.52-.14-.44-.09.23.14a3.4,3.4,0,0,1,1.52.93l.75,1a3.18,3.18,0,0,1-.31-.61l.76,1.8a2.44,2.44,0,0,1-.15-.66l.27,2v-.34l-13,5.36c2,1.7,3.75,3.4,6.41,3.84,2.93.48,5.62-.1,7.53-2.57a6.72,6.72,0,0,0,1.41-3.39,7.85,7.85,0,0,0-.85-4.57c-1.06-2.43-3.2-3.77-5.3-5.23a7.51,7.51,0,0,0-7.66,0c-2.09,1.23-4.07,4-3.76,6.56a11.58,11.58,0,0,0,1.3,4.8,9.88,9.88,0,0,0,3.33,3.47c2.44,1.61,5,1.74,7.82,1.29A7,7,0,0,0,131,139.9a7.83,7.83,0,0,0,.72-5.5,12.94,12.94,0,0,0-3.24-6.65,8.71,8.71,0,0,0-8.1-2.67c-2.86.67-5.47,3-5.54,6.08a6.51,6.51,0,0,0,.09,1.15,3.88,3.88,0,0,0,.11.75c-.15-1.05-.14-.93,0,.38a5,5,0,0,0,1.56,2.7,3.91,3.91,0,0,0,4.55.58,3.79,3.79,0,0,0,1.72-4.23Z" transform="translate(2.83)"/><path class="cls-9" d="M155.63,136.82a9.27,9.27,0,0,1-.65-1.14l-.63,4.89.54-.45a6.64,6.64,0,0,0,1.75-6.61,7.14,7.14,0,0,0-3.13-4.06,7,7,0,0,0-5.23-.68,6.69,6.69,0,0,0-4.75,4.74c-.43,2.38-.32,4.48,1.25,6.52A7.11,7.11,0,0,0,149,142.8a7.4,7.4,0,0,0,4.46-.34,6.54,6.54,0,0,0,3.27-2.8,7,7,0,0,0-1.07-8.29,1.71,1.71,0,0,1-.22-.25l1.08,1.4a8.63,8.63,0,0,0-2.82-2.88l1.4,1.09a.88.88,0,0,1-.21-.22l-3,11.36.68-.26-3.11-.41a8.61,8.61,0,0,0,1.16.62,4.11,4.11,0,0,0,2.34.43,3.41,3.41,0,0,0,2.09-1,3.71,3.71,0,0,0,.58-4.43Z" transform="translate(2.83)"/><path class="cls-9" d="M218.84,168.14a14.86,14.86,0,0,0,1.77,2.54l1.36,1.06a5,5,0,0,0,2.5.79,3.4,3.4,0,0,0,1.79,0,5,5,0,0,0,2.5-.79l.12-.06,1.32-1a5,5,0,0,0,1.36-2.11,7,7,0,0,0,.32-4.26l0-.16-.68-1.6a5,5,0,0,0-1.74-1.89,6.84,6.84,0,0,0-4.07-1.45,16.28,16.28,0,0,0-3,.36,5.9,5.9,0,0,0-2.58,1.5,4.36,4.36,0,0,0-1.21,1.88,5.87,5.87,0,0,0,.29,5.21Z" transform="translate(2.83)"/><path class="cls-9" d="M279.56,153.91c12.53-1.36,25.59-6,38.25-3.91a31.36,31.36,0,0,1,14.49,5.94,16.89,16.89,0,0,1,4.92,5.87c1.2,2.62.7,5.53,1.78,8.18,1.92,4.71,7.5,7,11.56,3,6.78-6.6,2.35-17.11-2.87-23.27s-12.51-10.28-20.12-12.5c-16.94-4.94-35.79-.79-50,9.22-2.86,2-2.3,7.89,2,7.42Z" transform="translate(2.83)"/><path class="cls-9" d="M117.55,29.68l.28,0L116.12,28l2.24-3.17h3.32a14.56,14.56,0,0,0-4.12-.05c2.6-.28.9.23.06-.48a22.46,22.46,0,0,0-2-1.34c-.93-.6-.65-1.23-.41-.23l-7.65,13.48a10.71,10.71,0,0,0,2.07-.48c-1.31.12-1.27.11.1,0,.81,0,4.46.54,2.24-.08a16.75,16.75,0,0,1,2.06.61c-1.15-.47-1.12-.4.09.23s1.19.79.16.12c.92,1,1,1,.2.09l7-17.33a13.26,13.26,0,0,1-2.15.63c1.31-.13,1.24-.15-.19-.07-2.52.09,1.42.37-1.28-.17-3-.6,1.42.83-1.3-.5-1.16-.76-1.26-.79-.31-.09a15.84,15.84,0,0,1-1.55-1.62l-2.41,18.7c-1.3.44-1.3.47,0,.1a3.07,3.07,0,0,1-2.23.09c1.32.4,1.32.38,0,0a5.89,5.89,0,0,1-2.59-3.85V26.2l2.28-3.85c-2,2.6-2.45,3.15-1.26,1.67,1.51-2.06-1.17,1.55-1.4,1.9-3.38,4.95-.49,10.88,3.67,14A12.76,12.76,0,0,0,127,38.78c4.91-4.91,4.88-12.54.76-17.88-6.56-8.5-18.24-10.1-27.48-5.23C93.18,19.43,93,28.91,97.9,34.37a28.33,28.33,0,0,0,29.9,7.73c6.46-2.3,11.88-10.72,7-17.33-8.56-11.68-26-17.53-38-6.86-4.46,4-4,11.42,0,15.49C103.26,40,116.66,45.7,124,37.67c5.81-6.34-.37-16.45-8.19-12-2.26,1.28-.68,4.5,1.7,4Z" transform="translate(2.83)"/><path class="cls-9" d="M98.07,66.16c5.25,0,5.26-8.15,0-8.15s-5.25,8.15,0,8.15Z" transform="translate(2.83)"/><path class="cls-9" d="M67.34,82.83c-.06-.06-.69-.91-.5-.32A4.75,4.75,0,0,1,67,80.92l-2,3.56-.66.21H61.58l.93.28-3.29-2.53a7.7,7.7,0,0,0,1.67,1.88c2.43,2-.84-1.4-.92-2a15.3,15.3,0,0,0,2,3.4c.26.31.23.26-.1-.15s-.35-.47,0,.13c.39.77.93,1.44,1.34,2.2.92,1.73-.13-.21-.09-.23l.16.53c.26,1,.21.7-.15-1.06l1.3-4.81,1-1.32,4.29-2.5,3.93,0,1.29.55a6.41,6.41,0,0,0-1.56-.68l-1.25-.55c-2.71-1.21,1.81.18,2.68,4.23v5.33c-1.34,4.16-3.92,5.74-7.77,4.71-2.89,1-5.06.14-6.5-2.46a8.55,8.55,0,0,0,.89,1.48V80.81c1.57-2,1.39-1.78-.53.7-.39.87-.75,1.74-1.1,2.62-1.18,2.93.13,7.41,2.49,9.43l.18.15c3.77,3.22,7.8,3.54,12.2,1.58a9.89,9.89,0,0,0,2.8-2.1C81,89.64,81,85.06,79.1,80.81A13.88,13.88,0,0,0,70,73.28a12.09,12.09,0,0,0-13.73,6.83,11.32,11.32,0,0,0,4.69,14.32,28.72,28.72,0,0,0,8,3,12.23,12.23,0,0,0,8.29-1.16,10.1,10.1,0,0,0,4.86-10c-.5-3.72-2.68-6.07-5.33-8.49a16.36,16.36,0,0,0-7.87-4.41,7.79,7.79,0,0,0-4.72.36c-1.59.63-1.14.54,1.34-.29l-1.69.22a6.82,6.82,0,0,0-4.6,3.21l2-2a12.32,12.32,0,0,0-1.83,1.4c-1.84,1.68-2.07,5.47,0,7.11.46.36.92.73,1.4,1.08L58.86,82a9.59,9.59,0,0,0,4.79,5.59c3,1.43,6.35-2.26,3.69-4.78Z" transform="translate(2.83)"/><path class="cls-9" d="M185,60.54q-.2-.33-.36-.66l-1.93,3.36.56,0-5-3.84a.17.17,0,0,1,0,.1l-.2-1.48V58l.2-1.52v0l.59-1.4,0,0,.94-1.22v0L181,53h0l1.5-.63a10.62,10.62,0,0,0-1.7.73l1.57-.66a.71.71,0,0,1-.2,0l1.78-.24a.74.74,0,0,1-.21,0l1.82.25a14.64,14.64,0,0,0-2.28-.28l1.86.26-.1,0,1.68.71-.08,0,1.42,1.1-.07-.06,1.11,1.43-.05-.08.71,1.69,0-.11L190,59a7.4,7.4,0,0,0-2.17-5.26l1.12,1.44-.07-.13.72,1.7,0-.14.26,1.9v-.15l-.26,1.91.05-.15-.73,1.72a1,1,0,0,1,.17-.27L187.92,63l.11-.11-1.47,1.13a.87.87,0,0,1,.26-.16l-1.74.74.14,0-1.94.26h.14l-3.69-1,.12.06-1.49-1.16.1.11-2.17-5.25,0,.19.27-2a1.46,1.46,0,0,1-.1.34l.77-1.82a1.92,1.92,0,0,1-.18.31l1.21-1.57c-.61.71-1.09,1.48-1.64,2.21l1.22-1.59a3.28,3.28,0,0,1-.43.4l1.6-1.23a2.33,2.33,0,0,1-.34.2l1.89-.8a2.69,2.69,0,0,1-.55.17l2.1-.29a1.61,1.61,0,0,1-.38,0l2.11.28a1.24,1.24,0,0,1-.38-.09L187,65.63,188.79,64,181,66l.17.06-1.92-.81c.15.1.31.17.47.27l-1.61-1.25a1.42,1.42,0,0,1,.24.25L177.1,63l.08.15-.78-1.86a1,1,0,0,1,.09.33l.77,1.83L178.45,65a7.76,7.76,0,0,0,12-1.55,8.81,8.81,0,0,0-5.21-12.91,8,8,0,0,0-7.82,2.07l-1.71,1.82a8.08,8.08,0,0,0-2,7.73,7.89,7.89,0,0,0,5.55,5.55A10,10,0,0,0,188.81,65,9.13,9.13,0,0,0,190.22,54a7.89,7.89,0,0,0-12.43-1.35,8.14,8.14,0,0,0-2.3,5.68,8,8,0,0,0,1,3.88A8.31,8.31,0,0,0,179.31,65l-3.26-4.24a7.91,7.91,0,0,0,.78,1.91,7.44,7.44,0,0,0,2.6,2.6,7.21,7.21,0,0,0,4.76.89A7.32,7.32,0,0,0,190.61,59a6.63,6.63,0,0,0-6.46-6.78,6.12,6.12,0,0,0-5.91,4.38,5.19,5.19,0,0,0,.27,3.41,4.81,4.81,0,0,0,2.14,2.5,2.82,2.82,0,0,1,1.06.61A2.12,2.12,0,0,0,185,60.54Z" transform="translate(2.83)"/><path class="cls-9" d="M285.53,75.73A14.88,14.88,0,0,1,279,72.46l1.9,3.26-.13-.84L280,81l-.57.84-4,2.31.71-.18h-4.88a69.38,69.38,0,0,1,7.09,1.79,13.06,13.06,0,0,1,2,.64c.55.25,1.09.53,1.62.83,1.85,1.21,1.51.68-1-1.6l-1.14-8.77-.24.69,5.26-6.84,1.3-.43c-1.22.26-1.42.33-.61.2,1.32-.17-1.73-.09-1.74-.09,1.24.1.77.14-.14-.18-1.18-.39-1.39-.46-.65-.21a3.76,3.76,0,0,1,2.53,2.51l1.6,5.91.06-.8-1.6,5.92a8.29,8.29,0,0,1-3.28,2.72c1.84-1-.82,0,.31-.09,1.29-.08-.92-.34-1.14-.35-.63-.34-.64-.34-.05,0q2.78,1.65-2.62-3.72V75.77l-.19.94,3.06-5.25c2.7-3.19,7.61-2.06,3.57-2-.42,0-2.91-.25-1,0s-.86-.17-.91-.33l1.41.53a7.07,7.07,0,0,1,3.22,4.16l-8.32,14.64q-11.43-5.65-7.74-1.86a14.65,14.65,0,0,0,2.85,2.12A11.22,11.22,0,0,0,288,87c4.78-5,5.08-13.11-.14-18-3.74-3.5-9.71-5.47-14.68-3.48-5.7,2.29-10.56,8-8.31,14.65A18.13,18.13,0,0,0,279,92.58c6.57,1.23,14.73,1.12,19.49-4.28,7.31-8.31,2.39-19.86-7-23.81a22.33,22.33,0,0,0-20.11,1.1C262.29,71,261.07,83,269.87,89.28c5.32,3.82,12.32,4.89,18.69,4,3.77-.5,7.44-1.72,10.09-4.61,3.74-4.11,4.65-10.43,1.48-15.17C296,67.38,286.92,65.41,280,65c-8-.47-19.36,4.6-15,14.54,3.3,7.55,12.76,5.86,19.27,6,5.51.16,7-9,1.33-9.85Z" transform="translate(2.83)"/><path class="cls-9" d="M253.56,111.18c10,0,10-15.47,0-15.47s-10,15.47,0,15.47Z" transform="translate(2.83)"/><path class="cls-9" d="M322.31,151.63a2.9,2.9,0,0,1,1.06,0c.63.3.72.34.3.11s-.36-.16.27.31c-.58-.6-.56-.51.06.28l-4.67,11.48c.88-.18.69-.16-.59.07a7.45,7.45,0,0,1,1.06.05l-4.28-1.16c.82.38,1.65.73,2.49,1.06l1,.14c1.62.36-1.71-1-.22-.09-2.14-1.37-.92-.64-.32-.13.68.77.5.5-.56-.8a6.46,6.46,0,0,1,.53.92l6.14-15.07c-1.8.44,2,0,.69-.09s-.89-.42.71.27a4.7,4.7,0,0,0-1.17-.31c1.52.7,1.92.84,1.2.43a6.28,6.28,0,0,1-.75-.52l-5.46,20.16c1.21,0,.94-.14-.8-.35q-5.1-3.43-3.13-1.65c3.36,3.19,9,4.32,13.09,1.69a11.25,11.25,0,0,0,5-12.2,11.88,11.88,0,0,0-7.15-8.13c-3.41-1.44-6.29-1.17-9.84-.61a10.14,10.14,0,0,0-4.78,2.78,10.71,10.71,0,0,0-3,6.21,10.9,10.9,0,0,0,5.17,10.78,17.56,17.56,0,0,0,18.14.29,10.37,10.37,0,0,0,2.08-16.11,16.7,16.7,0,0,0-11.86-4.91,15.68,15.68,0,0,0-11,4.22c-3.52,3-2.87,10.33,1.58,12.27a16.23,16.23,0,0,0,12.35.69c3.11-1,5.47-4.37,4.39-7.72a6.44,6.44,0,0,0-7.73-4.39Z" transform="translate(2.83)"/><path class="cls-9" d="M301.82,182.62c9.23,0,9.24-14.34,0-14.34s-9.25,14.34,0,14.34Z" transform="translate(2.83)"/><path class="cls-9" d="M33.59,141.06c6.71,2.79,14.22,3.73,21.21,5.72a35.51,35.51,0,0,1,9.14,3.54c3.3,2.05,3.74,3.76,4.86,7.22,2.53,7.84,16.43,7,15.25-2.06-1.46-11.26-9.86-18.32-20.19-21.75-10-3.33-21.4-5-31.33-.8-4,1.7-2,6.88,1.06,8.13Z" transform="translate(2.83)"/><path class="cls-9" d="M61.83,155a6.27,6.27,0,0,1-.71-1.1L60,158.1l1.13-1-6.08,1.61c.61.1,1.21.23,1.82.34,1.15.2,0,0,.08-.1.62.36.7.4.25.12a1.92,1.92,0,0,1-.9-.94,3.92,3.92,0,0,1-.48-2.76c.69-3.85,5.87-6.4,9.09-3.83.43.33,1.64,2,.85.76-1-1.53.65,1.77,0-.07L59.2,163.77c1.28-.4-.8.11-1,0,.08,0,2.28.12.23-.1s.78.51-1-.25.1.22.18.24c-.14,0-1.91-1.41-.84-.55s-.46-.55-.65-.83c.91,1.35-.56-2-.32-.85s-.26-2.95-.1-1l13.18-10c-.39-.11-2.15-.84-.61-.12s-.34-.21-.52-.31c-.38-.22-.74-.46-1.11-.69-1.93-1.17,1.75,1.53.08,0-4.11-3.68-10.92-4.35-14.92,0-3.58,3.91-4.51,11.13,0,14.91a29.05,29.05,0,0,0,11.54,6.27,10.52,10.52,0,0,0,10.13-2.68c2.83-2.82,3.32-6.36,2.68-10.13-.78-4.59-4.6-8.86-8.67-10.87a18.42,18.42,0,0,0-7.8-2A17.43,17.43,0,0,0,52,146.64c-1.92.84-3.86,3.63-4.31,5.6a10.36,10.36,0,0,0,.95,7.22c2.32,4.7,6.28,8.46,11.74,8.78a11.14,11.14,0,0,0,11.56-8.13,11.74,11.74,0,0,0-5.11-12.48c-3.59-2.22-7.82-2-11.76-1-5.23,1.37-6.11,8.76-1.5,11.44a8.91,8.91,0,0,1,1.8,1.87c3.13,3.38,9.17-1.1,6.48-5Z" transform="translate(2.83)"/><path class="cls-9" d="M61.67,271.85l.47-.41a4.15,4.15,0,0,0,1.06-4c-1.12-5.45-3.56-10.68-5.08-16s-2.59-11-3.68-16.51a5,5,0,0,0-3.58-3.57,5.39,5.39,0,0,0-3.94.51,5,5,0,0,0-2.54,4.42c.18,11.76,3.63,26.41,11.93,35.2a4.1,4.1,0,0,0,4,1.06,3.09,3.09,0,0,0,1.35-.65Z" transform="translate(2.83)"/><path class="cls-9" d="M221.41,253c1.76-3.73,3.75-7.33,5.58-11,1.58-3.16,3.95-6.19,3.88-9.83a1.89,1.89,0,0,0-2.82-1.62c-3.3,2-4.54,6-6,9.39a85.76,85.76,0,0,0-3.88,11.7c-.52,1.89,2.37,3.25,3.26,1.38Z" transform="translate(2.83)"/><path class="cls-9" d="M99.13,327.36c5.25-2.48,11.55-4.05,17.09-5.82,5.38-1.72,10.89-3.19,16.33-4.68,3.21-.88,2.71-6.35-.81-6a80.73,80.73,0,0,0-18.27,4.06c-6.12,2.13-11.07,5.35-16.7,8.38-2.69,1.44-.33,5.32,2.36,4.05Z" transform="translate(2.83)"/><path class="cls-9" d="M185.76,287.29a163.73,163.73,0,0,0-.44,24.56c.46,6.53.27,16.19,4.29,21.65a2,2,0,0,0,3.6-.47c2.24-6.48-.14-15.39-.55-22.13-.48-7.86-.88-15.73-.9-23.61,0-3.91-5.69-3.8-6,0Z" transform="translate(2.83)"/><path class="cls-9" d="M189.5,340.88c-.22,5.52-.51,11-.9,16.5-.35,4.95-1.26,9.21,1.25,13.67a2.09,2.09,0,0,0,3.56,0c2.84-4.29,2.16-8.69,2.17-13.67,0-5.5.12-11,.29-16.5.14-4.11-6.21-4.09-6.37,0Z" transform="translate(2.83)"/><path class="cls-9" d="M189,393.77a56.34,56.34,0,0,1-.1,11.17c-.36,3-.27,6.35,2.17,8.44a2.92,2.92,0,0,0,4.49-.58c1.9-2.49,1.24-5.68.36-8.48a59.52,59.52,0,0,1-2.33-10.55c-.34-2.88-4.84-3-4.59,0Z" transform="translate(2.83)"/><path class="cls-9" d="M184.63,244.57a.19.19,0,0,0,0-.37.19.19,0,1,0,0,.37Z" transform="translate(2.83)"/><path class="cls-9" d="M187.16,243.62c.24-3.27.74-6.58.31-9.84-.32-2.37.08-5.23-2.18-6.61a1.32,1.32,0,0,0-1.33,0c-2.26,1.38-1.87,4.24-2.18,6.61-.42,3.27.07,6.57.31,9.84a2.54,2.54,0,0,0,5.07,0Z" transform="translate(2.83)"/></g></g><line class="cls-10" x1="95.77" y1="321.35" x2="107.43" y2="350.61"/><path class="cls-3" d="M224.65,224s19.88,1.53,26.69,7" transform="translate(2.83)"/><path class="cls-3" d="M217.31,241.5s21.7,1.93,26.81,5.6" transform="translate(2.83)"/><path class="cls-11" d="M45.88,225c-22.12-9.43-50-28.18-42-62.28,11.9-50.47,66.28-29.54,66.28-29.54S35.32,129,30.62,102c-3.32-19.1,5.87-40,20.68-44.63,13-4,21.72,1,21.72,1S47.29,53.59,50.53,35.62c3.31-18.31,28.6-35.74,60-32.68s52.61,22.25,57.71,31.66c3.52,6.5,9.95,28.44-.77,41.87" transform="translate(2.83)"/><path class="cls-11" d="M172.75,51.36s28.34-17.78,42.13-2.72S208,78.48,208,78.48,252.66,44,295.3,68.81s31.15,42.34,30.38,44-13.78,21.34-41.61,28c0,0,35-16.85,53.36,1.79s1.79,40.34,1.79,40.34-10.47,16.34-36.77,16.34c0,0,28.34-7.4,31.15,5.11,2.31,10.29-11.45,23-24.64,27.32" transform="translate(2.83)"/><path class="cls-11" d="M126.36,155.88s-28.85-14.81-11.49-29.62,23,14.15,23,14.15,6.13-21.3,16.85-13.64,4.09,25.79,3.07,26" transform="translate(2.83)"/><path class="cls-11" d="M212.41,168.9c1.27-.77,12.19-16.34,20.26-10.73s-2,15.07-2,15.07,13.15-5.88,14.68,2.29-10.21,14.81-10.21,14.81" transform="translate(2.83)"/><path class="cls-12" d="M66.18,275.73C70.57,297.59,111,441.32,111,441.32s97.5,7,145.64-4.94L291.84,277.7" transform="translate(2.83)"/><path class="cls-12" d="M45.88,225c14.93-5.9,137.55-51,262.05,6.8" transform="translate(2.83)"/><path class="cls-12" d="M307.93,231.77l3.14,1.48s-4,39.82-12.75,47.27c0,0-92.35-54.45-240.63-3.12,0,0-19.18-27-13.33-51.81l1.52-.62" transform="translate(2.83)"/><path class="cls-11" d="M228.24,207.22s-6.18,38.49-18.79,49.36l28,3.82s23.66-44.88,17.4-47.56C247,209.47,228.24,207.22,228.24,207.22Z" transform="translate(2.83)"/><path class="cls-13" d="M80.61,331.49s38.09-29.17,55.71-23.62c0,0,1.53,15.67,5.36,23.62a318.5,318.5,0,0,0-53,29.58Z" transform="translate(2.83)"/></g></g></svg>