<svg xmlns="http://www.w3.org/2000/svg" xmlns:xlink="http://www.w3.org/1999/xlink"
  viewBox="0 0 349.07 423.9" style="fill: rgb(0, 0, 0);" original_string_length="44002"
  width="209.91567824904374px" height="255.42836955082754px">
  <defs>
    <clipPath id="__id9_syuqqwrjs" transform="translate(4.71 0.93)">
      <path
        d="M335.07,211.38a49.08,49.08,0,0,0-4-18.93c-2.55-5.8-6.51-11.55-12.13-11.31-22.22,1-20,17.41-20,17.41v0a30.82,30.82,0,0,0-7.61-5.68c-15.32-8.17-27.06-7.14-31.66,6.64a21,21,0,0,0-.16,7.66c-9.55,10.36-18.74,30.67-21.27,70.12q-7.69-.81-15-1.18c-2-19.34-7.24-88.35,12.76-118.68C246,168.81,250.87,171,250.87,171s35,17.36,47.88,0-66.27-55.66-66.27-55.66-33.3-9.19-12.56,20.94c2.38,3.46,4.62,6.57,6.72,9.39-11.27,18-20,54.46-13.91,128-6.13-36.67-14-63-22.13-82C194.2,137.61,203.15,76,224.69,50a303.25,303.25,0,0,0,18,28s38.81,42.89,76.09,54.64c0,0,15.32-1,0-81.7S274.9,15.7,274.9,15.7s-6.54,8.72-8.17,15.83l8.68,11.75S236.09,1.92,217.71,10.6c-6.46,3.05-5.28,12.29-1,23-12.41,12.79-30,46.86-36.55,137.61-7.77-12.64-15.16-19.55-20.83-23.32C172,129.65,175.51,113,158,103.53c-22-11.83-41.89-5.1-57.76,7.06.51-3.07-9.14-21.87-9.14-21.87S76.26,61.66,45.63,69.83,5.46,124,5.46,124-5.44,221.49,16,236.81s50-6.13,50-6.13,54.32-36.46,84.42-71.52c11.56,9.29,20.77,24.43,28,41.15-.8,19.28-1.14,40.7-.93,64.47-6.73-10.95-13.37-17.55-19.09-21.53,4.87-4.46,6.86-8.34,3.58-10.53-9.19-6.12-55.15,9.2-58.21,19.41s14.3,14.3,14.3,14.3a178.88,178.88,0,0,0,30.57-15.81c15.8,9.38,21.48,20.38,23.5,27.64-32.34,4.56-51.05,13.7-51.05,13.7l6.42,23.49c2.63-.51,5.22-1,7.79-1.46,11.37,48.74,30.77,98,30.77,98,60.76,7.65,95-3.07,95-3.07,8.61-20.64,17.85-69.15,23-98.61,5.85,1.18,8.83,2.1,8.83,2.1l3.95-23c-3-.92-5.95-1.78-8.89-2.6.06-.38.09-.59.09-.59-8.64-2.18-17.07-3.92-25.24-5.28-4.09-.78-8.13-1.46-12.08-2.05,0-13.59,1.85-38.84,13.23-56.28,6.53,14.28,21.41,31,53.44,37.83C317.41,260.44,335.79,253.88,335.07,211.38ZM199.81,275.89q-5.91.19-11.44.62c-.12-10.58-.15-27.48.46-47.53A414.71,414.71,0,0,1,199.81,275.89Z"
        style="fill: none;" />
    </clipPath>
  </defs>
  <g data-name="Calque 2">
    <g data-name="Layer 20">
      <path d="M141.44,236.87s24-3.06,44.93,44.94l-13.27,4s2-24.91-34.73-40.74Z" stroke="#231f20"
        stroke-linecap="round" stroke-linejoin="round" stroke-width="5"
        transform="translate(4.71 0.93)" style="fill: rgb(64, 239, 118);" />
      <path d="M229.78,25.47s-57.71-1.77-52.09,260.31l10.73,2.16s-7.15-221.11,48-248.17Z"
        stroke="#231f20" stroke-linecap="round" stroke-linejoin="round" stroke-width="5"
        transform="translate(4.71 0.93)" style="fill: rgb(64, 239, 118);" />
      <path
        d="M148.46,142.91s45.92,2.56,66.36,145H201.56S187,172,139.38,152.11,148.46,142.91,148.46,142.91Z"
        stroke="#231f20" stroke-linecap="round" stroke-linejoin="round" stroke-width="5"
        transform="translate(4.71 0.93)" style="fill: rgb(64, 239, 118);" />
      <path d="M256.45,128.64s-58.3-15.83-43.52,149.1l10.74,3.07S209.32,167.45,247.1,146Z"
        stroke="#231f20" stroke-linecap="round" stroke-linejoin="round" stroke-width="5"
        transform="translate(4.71 0.93)" style="fill: rgb(64, 239, 118);" />
      <path d="M284.54,196.53s-43.91-10.72-47,91.41h13.26s-5.6-69.35,33.72-82.42Z" stroke="#231f20"
        stroke-linecap="round" stroke-linejoin="round" stroke-width="5"
        transform="translate(4.71 0.93)" style="fill: rgb(64, 239, 118);" />
      <path
        d="M166,411.51S139.39,344.11,130.2,289c0,0,66.78-26.16,157.67-3.18,0,0-14.18,92-26.94,122.67C260.93,408.45,226.71,419.17,166,411.51Z"
        stroke="#231f20" stroke-linecap="round" stroke-linejoin="round" stroke-width="5"
        transform="translate(4.71 0.93)" style="fill: rgb(182, 40, 28);" />
      <path d="M121,291.51S192,256.79,296.67,289l-3.95,23S235,294.06,127.39,315Z" stroke="#231f20"
        stroke-linecap="round" stroke-linejoin="round" stroke-width="5"
        transform="translate(4.71 0.93)" style="fill: rgb(182, 40, 28);" />
      <path
        d="M232.3,114.91s-33.31-9.19-12.57,20.94,31,34.72,31,34.72,35,17.37,47.88,0S232.3,114.91,232.3,114.91Z"
        stroke="#231f20" stroke-linecap="round" stroke-linejoin="round" stroke-width="5"
        transform="translate(4.71 0.93)" style="fill: rgb(64, 239, 118);" />
      <path
        d="M62.29,157.21S76.86,127.89,100,110.14c15.87-12.16,35.76-18.89,57.76-7.06,54.12,29.11-91.92,127.15-91.92,127.15s-28.59,21.45-50,6.13S5.27,123.51,5.27,123.51s9.53-46,40.17-54.13,45.44,18.9,45.44,18.9,9.66,18.79,9.14,21.86"
        stroke="#231f20" stroke-linecap="round" stroke-linejoin="round" stroke-width="5"
        transform="translate(4.71 0.93)" style="fill: rgb(64, 239, 118);" />
      <path
        d="M275.22,42.83S235.9,1.47,217.52,10.15s25,67.4,25,67.4,38.81,42.9,76.09,54.64c0,0,15.32-1,0-81.7s-43.92-35.24-43.92-35.24-6.54,8.73-8.17,15.83"
        stroke="#231f20" stroke-linecap="round" stroke-linejoin="round" stroke-width="5"
        transform="translate(4.71 0.93)" style="fill: rgb(64, 239, 118);" />
      <path
        d="M307,217a29.4,29.4,0,0,0-15.83-24.51c-15.32-8.17-27.06-7.15-31.66,6.63-1.94,5.84,1,48.8,57.7,60.91,0,0,18.38-6.56,17.66-49.06a49,49,0,0,0-4-18.92c-2.55-5.81-6.51-11.56-12.13-11.32-22.22.95-20,17.41-20,17.41"
        stroke="#231f20" stroke-linecap="round" stroke-linejoin="round" stroke-width="5"
        transform="translate(4.71 0.93)" style="fill: rgb(64, 239, 118);" />
      <path d="M118,266s-17.36-4.09-14.3-14.3,49-25.53,58.21-19.4S138.88,257.81,118,266Z"
        stroke="#231f20" stroke-linecap="round" stroke-linejoin="round" stroke-width="5"
        transform="translate(4.71 0.93)" style="fill: rgb(64, 239, 118);" />
      <path
        d="M31.29,99l-1.17-.63,1,2.36c.12-2.06-1.58,2.15-.1.4,2.65-3.15-2.79,3.59-1.69-.61.05-.19,1.38.46,1.39.47.23.13.59.68.6.6a3.82,3.82,0,0,1-.72-4.07l2.35-3.25c1-.68,1.44-.14,2.46-.41.46-.12,1.77,1.3-.09-.48.54.51-.61-2.09,0,.29v5.37l.16-.66-2.6,4.47a6.11,6.11,0,0,1-3.89,1.65l2,0a30.46,30.46,0,0,1,3.29.16c2.63.34.59.68.14-.19-1-1.87-1.53-3.29-.1-5.84a4.52,4.52,0,0,1,2.4-2.28,2.14,2.14,0,0,1,1.45-.28c-.23.48-3.13-.34-.85.14-.33-.07-3.07-.47-1.42-.25-1.06-.65-1.18-.68-.37-.09a5.73,5.73,0,0,1,1.22,2.8L35.24,104a5.51,5.51,0,0,1-3.91,2.56q-1.74-.28.09.21a22.38,22.38,0,0,0,3.53.84c5.15.89,11.95-2.32,11.34-8.64-.53-5.36-3-9.57-8.06-11.86a18.2,18.2,0,0,0-12.59-.8c-11.55,3.6-12.76,17.63-4.26,25.08,5.75,5,14.79,7,22.09,4.61,9.32-3.12,13.77-14,8.4-22.53C47,85.65,37.58,83.6,28.92,84.23c-4.39.31-8.56,1.64-11.21,5.38-3.16,4.47-2.77,9.89.36,14.27,5.21,7.28,14,12.43,22.86,8.37A14.2,14.2,0,0,0,45.71,89.6C39.57,83,27.61,81.47,21.61,89c-2.88,3.64-3.67,9.13-.11,12.69,2.21,2.22,6.07,2.92,9.08,2.55,2.7-.32,4-4.64.71-5.24Z"
        transform="translate(4.71 0.93)" style="fill: rgb(64, 239, 118);" />
      <path
        d="M14.2,144.8,15,145l1.5,2.61a8.1,8.1,0,0,0-.88-3.13v4.73l-.4.5-2.92,1.7c1-.34,4.47-1.81,4.39-3.32a4.9,4.9,0,0,1-4.12,2.08q3.87-.45,1.13-.22a5.83,5.83,0,0,1-1.62-.4c-.7-.29-.67-.23.09.17.86.56.79.49-.23-.2a13.31,13.31,0,0,1,1,1c-.72-1-.79-1-.21-.14a4.15,4.15,0,0,1-.56-2.34c.14-4.17,4.93-7.5,9-6.3,1.41.66,1.61.7.62.12,1.12.89,1.27,1,.43.21-.32-.33-.64-.67-1-1a6.89,6.89,0,0,1,1.53,2.27v5.55q-4.77,7.64-9.86,5c-.74-.36-.66-.31.23.15.51.31,1,.63,1.54.93s.4.26-.21-.16a3.09,3.09,0,0,1-1.25-1.33l-.8-3.21Q12,154,14.46,146.13c-2.66,3.25-4,7.9-1.52,11.74a9.94,9.94,0,0,0,10.94,4.45c8.37-2.41,11.32-11.16,7.62-18.69-2.26-4.6-7.68-8.32-12.58-9.62A13.1,13.1,0,0,0,2.23,146.13c-.27,5.94,5,11.67,10,14.18,6.59,3.32,14.71,1.89,18.52-4.88,3.38-6,1.64-13.27-3.32-17.78-4.14-3.76-9.48-6.22-15.14-4.71-5.14,1.37-9.31,6-8.86,11.56a7.45,7.45,0,0,0,5.23,6.87,7.22,7.22,0,0,0,4.17,0H10.31l.5.09c1.48.24,3.27.13,4.32-1.15a14.13,14.13,0,0,0,1.72-2.06,2.38,2.38,0,0,0-2.65-3.45Z"
        transform="translate(4.71 0.93)" style="fill: rgb(64, 239, 118);" />
      <path
        d="M13.22,188.56c-.08,0-1-.07-.55,0s-.48-.16-.51-.17l1.65,1a6,6,0,0,0-.61-.62l1.09,1.85,0,1.88-2.21,2.88a6.53,6.53,0,0,0,1.64-1.49,1.58,1.58,0,0,0,.47-.65c.19-.42,0-.16-.62.78l-4.19,1.73c.58,0,.1-.18-1.45-.42q-3.08-.94.1.27a11.68,11.68,0,0,0,2.21.24l-1.84-.25.37.12L7.07,195c-1.61-1.05-.65-.49-.21,0,.28.31.55.64.81,1l-1.22-1.58a14.32,14.32,0,0,1,1.28,2.13l-.85-2,.12.35-.3-2.26,0,.37,2.52-6.08-.15.19,1.74-1.35a3.45,3.45,0,0,1-.47.24l2.09-.88a6.23,6.23,0,0,1-1.35.35l2.34-.32a6,6,0,0,1-1,0l2.34.31a6.15,6.15,0,0,1-1.34-.35l2.12.9a6.13,6.13,0,0,1-.9-.51l-2.13,16.3c1.36-.56,2.7-1.15,4-1.73l-2.1.88c.87-.34,1.76-.61,2.63-1a9,9,0,0,0,5-5.72l-2.11,3.62c.2-.25.41-.48.63-.71a7.43,7.43,0,0,0,0-10.32c-.21-.2-.41-.39-.63-.58l1.29,1.66a9,9,0,0,0-8.76-4.33,17.69,17.69,0,0,0-6.9,1.9c-6,3-5.57,12.26,0,15.4a13.74,13.74,0,0,0,12.2.76,9.41,9.41,0,0,0,5.93-7.52,8.78,8.78,0,0,0-1.81-6.66,13.64,13.64,0,0,0-3.18-2.87c-2.73-1.94-6.64-3.19-10-2.42A7.21,7.21,0,0,0,3.16,190a6.52,6.52,0,0,0,1.36,3.26c-.11-.15,1.26,1.63.18.21-.78-1-.3-.34-.14-.13,1.08,1.46,2.76,3,4.78,2.75.61-.08,1.14-.07,1.79-.21l-.61.1,1.37-.17c1-.46,1.25-.56.77-.31-.29.13-.24.14.14,0a5.9,5.9,0,0,0,1.3-.39,3.35,3.35,0,0,0-.88-6.54Z"
        transform="translate(4.71 0.93)" style="fill: rgb(64, 239, 118);" />
      <path
        d="M85,205.78a8.68,8.68,0,0,0-3.76-2.2c-.52-.17-1.06-.31-1.57-.51-1-.4,1,.64-.6-.33-.3-.18-.83-.53-.27-.09a10.59,10.59,0,0,1-1.18-1.14c-.33-.38-.29-.33.11.15l-.34-.56c.39,1.3.74,2.8-.22,4.09L74.36,208l-3.91.6c-.69-.31-.79-.33-.28-.06.32.28,1.41,1.3.34.15.33.35.69.68,1,1,.57.66.64.74.21.23a3.4,3.4,0,0,1-.9-1.73v-4.88l-.15.48,2.37-4.08,6.33-1.83q1.74.88.81.36c-.9-.58,1.47,1.62.13.08a7.51,7.51,0,0,0-.9-1c.71.94.87,1.13.47.57-.2-.27-.38-.55-.56-.82v9.65l.29-.42-3.43,3.43a9,9,0,0,1-2.93.71c-1.6-.28-1.91-.27-.92,0l-1-.41c.42.21.83.45,1.23.7.73.5.78.52.16.07s-.57-.43.1.15c.71.81.64.69-.21-.34a13.39,13.39,0,0,1,.73,1.21l3.57-13.63a6,6,0,0,1,3.62-.58c.69.09,2.85,1.29,1.45.33-.74-.5-1.62-1.56-.23,0a10.17,10.17,0,0,0-4.3-2.51c-7.77-2.51-14.47,6-11.48,13.14a14.34,14.34,0,0,0,23,5.26,10,10,0,0,0,2.92-7,11.58,11.58,0,0,0-2.92-7c-6.22-7.84-19.53-12.8-26.16-2.69-1.69,2.57-1.91,7.1,0,9.65,2.25,3,4.5,5.9,7.89,7.74,4.61,2.5,11.18,2.77,15.09-1.27a10.35,10.35,0,0,0-.91-15.32A21.16,21.16,0,0,0,73.28,193a9.65,9.65,0,0,0-10.55,6.63c-1.48,4.73,1.34,9.31,5,12,4.75,3.51,14.25,5.89,18-.2a4.77,4.77,0,0,0-.73-5.67Z"
        transform="translate(4.71 0.93)" style="fill: rgb(64, 239, 118);" />
      <path
        d="M119.53,173.3c-2.14-.56-4-1.33-6.23-1.74a25.07,25.07,0,0,1-2.7-.61c-3.58-1,.16-.75-.1,2.5l-1.11,4.09c-.52,1.15-2.73.27-.73.7l1.15.13a7.37,7.37,0,0,1,2.13.81c1.13.49.78,1.41.18.1l-1.31-4.84v.78l1.31-4.87,3.15-2.62c.57-.19.45-.23-.37-.11-.7-.27-2,0-2.82,0-.62-.06-1.35-.29-1.95-.3-1.72,0-.57-.93-.18.48q2.49,2.24-1.26,5.58c.43,3.23-.35,4.88-2.36,4.94-.9.08-.65.1.76,0l-.28-.07c.42.09,2.08.83,2.41.69-.7.3-2.09-4.18-1.81-2.34V171l.31-.9,3.79-3.79c-2.38,1.82,1.71-1,2.42.08,0,0-3.61-1.27-2.85-.9s.4.06-.65-.48c.78.47.57.28-.62-.56-2.17-1.61-4.16-2-6.81-2.27-3.82-.44-8.28,3.21-9,6.89-4.06,19.45,32.1,26.39,33.92,6.12,1.6-17.7-31.18-25.41-36.48-7.8s21.19,25.21,33.08,17.5c8.77-5.7,6.09-16.71-2.17-21.16-6.07-3.27-13.71-4-20.08-1.2-8.11,3.59-11.14,14.73-2.77,20,3,1.92,7.12,2.45,10.65,2.36,4.85-.12,7.82-1.63,11.23-4.85a4.11,4.11,0,0,0-1.8-6.81Z"
        transform="translate(4.71 0.93)" style="fill: rgb(64, 239, 118);" />
      <path
        d="M158,130.35c-3-1.76-6.86-1.79-10.24-2.4a18.16,18.16,0,0,1-4.69-1.36c-1.68-.77-3.62-3.29-2.84-.66v5.18l.1-.2-3.55,3.55c-1.18.07-1.25.11-.2.12.79,0,1.59.06,2.38.12,1.19.07,2.4.12,3.58.27a32.05,32.05,0,0,1,3.49.67c.69.17,2.77,1.28,1.52.08l-2.7-4.64.28.84v-5.59l-.3,1,2.71-4.66s-4.14,4.38-4.36,3.94c0,0,4.27.21,4.2.22-1.07-.56-1.36-.89-.87-1,1.68-.48,1.81,1.21.37,5.07L143,134.73q2.3-1.47-1.2-.09a8.24,8.24,0,0,1,1.57,0c.69.17,1.38.36,2.06.54q4.2,2.83-1.1-4l1.48-5.46-.52,1,3.88-3.88a11.2,11.2,0,0,1-2.37.35l-1.52.24c-1.74.19-1,.42,2.19.67-6.18-3.69-16.51.92-15.59,9l.1.88c.57,4.93,3,8.92,8,10.44,7.33,2.24,20.26-.13,24.32-7.22,4.84-8.44-.82-17.27-8.64-21-7.27-3.5-16.5-4.84-23.54-.15-8.92,5.94-7.47,17.26-1.35,24.55a18.26,18.26,0,0,0,22.59,4.73c7-3.51,14.4-11.5,11.81-19.82-2.75-8.88-14.11-10.46-22-10.89s-17.64,0-21.11,8.72c-4.24,10.63,6.33,17.36,15.28,19.06,6.94,1.31,18.66,1.48,22.29-6.13a4.41,4.41,0,0,0-1.55-5.9Z"
        transform="translate(4.71 0.93)" style="fill: rgb(64, 239, 118);" />
      <path
        d="M106,245.14l-.08.08,1.14-.87a1.18,1.18,0,0,1-.19.11l1.38-.58a.83.83,0,0,1-.21.06l1.58-.21a.89.89,0,0,1-.23,0L111,244l-.11,0a6.34,6.34,0,0,0-4,.32,5.93,5.93,0,0,0-3,2.53,7.45,7.45,0,0,0-.84,3.13,4.59,4.59,0,0,0,.53,2.39,4.65,4.65,0,0,0,1.28,2,12.54,12.54,0,0,0,1.37,1.06,6.13,6.13,0,0,0,2.48.83,6.71,6.71,0,0,0,3-.18,9.93,9.93,0,0,0,1.95-.85,6.64,6.64,0,0,0,2.34-2.37,8.78,8.78,0,0,0,.7-1.71l-.63,1.5a9.48,9.48,0,0,0,.87-2,6.14,6.14,0,0,0-1.56-5.92,13,13,0,0,0-1.23-1,5.91,5.91,0,0,0-2.26-.71,5.8,5.8,0,0,0-3.16.42,7.21,7.21,0,0,0-2.07,1.36l1.24-1a2.45,2.45,0,0,1-.38.24l3.15-.85a9.82,9.82,0,0,0-2,.24,16,16,0,0,0-1.81.79l1.54-.64-.53.16a7,7,0,0,0-3,1.75l1.28-1-.11.08,8.48,8.48a6.89,6.89,0,0,0,.05-6.77,5.32,5.32,0,0,0-4-2.63,5.44,5.44,0,0,0-4.64,1.51Z"
        transform="translate(4.71 0.93)" style="fill: rgb(64, 239, 118);" />
      <path
        d="M147.85,239.13l-.62-.25,1.54.9-.25-.27-.85,6.57-1.73.44a7.38,7.38,0,0,0,1.4-.2c.5.13-1.38,0-.41.07l-4.53-2.6.12.27,6.52-8.48a21.35,21.35,0,0,0-3.64-.29l1.76.24a14.64,14.64,0,0,1-1.75-.35l4.92,8.68,0-.18-.71,1.7.09-.15-1.12,1.44.12-.11-1.44,1.12a.9.9,0,0,1,.3-.17l-1.72.73.18,0-1.93.26a1.53,1.53,0,0,1,.37,0l-1.94-.26a1.4,1.4,0,0,1,.35.1l-1.76-.74.15.08-1.49-1.15.13.11-1.16-1.51.1.14-.75-1.78a.67.67,0,0,1,.09.34l3.44-8.47-.33.16,1.81-.77a12.33,12.33,0,0,1-2.79.79l2.08-.28-.37,0L146,249.82a9.28,9.28,0,0,0,4.2-5.47,7.31,7.31,0,0,0-1.32-6.45c-1.53-2-3.39-2.63-5.81-2.91a8,8,0,0,0-5,1.33,8.22,8.22,0,0,0-3.59,4.67,8.08,8.08,0,0,0,.39,5.09,7.5,7.5,0,0,0,3.2,3.74l1.87.78a7.7,7.7,0,0,0,4.15,0,12.43,12.43,0,0,0,6.61-3.51c2.58-2.41,2.59-6.13,1.18-9.09-1.63-3.38-6-4.8-9.46-3.87-3.26.88-6.42,4.27-6,7.86a7.5,7.5,0,0,0,2.06,5c1.28,1.17,3.19,2.3,5,2.07a12.63,12.63,0,0,0,5.52-1.6,8.54,8.54,0,0,0,4-4.76,5.81,5.81,0,0,0-2.65-6.52,6.91,6.91,0,0,0-2.91-.79,5.72,5.72,0,0,0-4.08,1.69,6.17,6.17,0,0,0-1.56,2.68l2.41-3.14a6.63,6.63,0,0,0-3,3.7,5.45,5.45,0,0,0,.62,4.28,4.19,4.19,0,0,0,4.17,2,4.14,4.14,0,0,0,3.49-3c-.17.27-.16.25,0-.05,1.22-1.75-.14-3.74-1.79-4.4Z"
        transform="translate(4.71 0.93)" style="fill: rgb(64, 239, 118);" />
      <path
        d="M274.09,214.85c0,.65.08.6.23-.17l1.39-1.39.37-.12h2.37a19.55,19.55,0,0,0-2.13-.24l2.79.76a8.29,8.29,0,0,0-1.46-.73,3.32,3.32,0,0,0-1.68-.46q-2.45-.37,1.33.45l2.53,2.54-.16-.26.73,5.64a9.14,9.14,0,0,0,0-4.5c-.27-1.1-1.21-4.13-.38-1-.16-.63-.16-.51,0,.36a3.83,3.83,0,0,1-.14,2.29q.36-1.32-.48,1.05a5.52,5.52,0,0,1-3.15,2.73c-.84.3-.9.35-.19.14a5.33,5.33,0,0,1-3.09,0c1.67.4-2-1.14-.37-.1-1.23-1-1.47-1.14-.71-.42l.39.43c-.95-1.29-1.15-1.54-.6-.76s.37.54-.49-1.15l-.37-2.76v.49l.38-2.77a9.07,9.07,0,0,1,1.74-3q5.54-2.51,2.81-1.88l2.83-.38a5.34,5.34,0,0,1-1.13,0l2.84.38a11.13,11.13,0,0,1-2.2-.65l2.56,1.08c-.68-.37-.59-.25.26.36a6.94,6.94,0,0,1,1.88,2l1.08,2.57-.07-.44v5.74l.06-.42-1.09,2.58a6.93,6.93,0,0,1-2,2.11c-.89.61-1,.74-.29.4L278,226.4a4.12,4.12,0,0,1,.91-.2l-2.84.38c.9-.06,1.73-.1,2.63-.22A14.32,14.32,0,0,0,283,224.9c6-2.86,6.47-11.74,2.07-16-5-4.88-13.83-4.76-18.84.15-5.75,5.63-4.24,15.6,2.72,19.49,4.86,2.72,11,3.41,16,.61a13,13,0,0,0,5.13-17.44c-4.6-8.31-17.4-12.58-24.46-4.8a12.27,12.27,0,0,0-1.53,14.32c1.33,2.19,3.46,4.47,6,5.05a8.75,8.75,0,0,0,8.36-2.15L275.29,226c-1.41.12-1.47.11-.18,0a4.08,4.08,0,0,0,1.34-.25,11.42,11.42,0,0,0,2-.87,7.2,7.2,0,0,0,3.41-6.12,8.23,8.23,0,0,0,0-.86l-.17-1.29c-.56-1.25-.68-1.54-.34-.87.35.21.15.85.22.08a4.76,4.76,0,0,0-.38-1.86,3.63,3.63,0,0,0-4-2.59,3.58,3.58,0,0,0-3.13,3.55Z"
        transform="translate(4.71 0.93)" style="fill: rgb(64, 239, 118);" />
      <path
        d="M330.78,206l.13.31v2.48a14.25,14.25,0,0,0,.27-2.25c0-.41,0-.29-.09.38.16-.62.12-.54-.11.23l-5.11,2.94c2,.18,3.81-1.07,5.19-2.33l-3,1.77.27-.06-8.88-5c.29.71.58,1.41.88,2.11-.19-.45-.63-1.62-.26-.46a12.86,12.86,0,0,1,.45,1.83l-.3-2.19a8.72,8.72,0,0,1,.06,1.25l.31-2.25a9.5,9.5,0,0,1-.43,1.56l.91-2.16c-.43,1-.86,1.95-1.23,2.94l13.56-5.51-.29-.19,1.88,1.46a7.33,7.33,0,0,1-1-1l1.48,1.91a6.23,6.23,0,0,1-.51-.91l1,2.27a5.71,5.71,0,0,1-.24-1l.34,2.54a3.18,3.18,0,0,1,0-.69l-.35,2.55a4.24,4.24,0,0,1,.28-1l-14.18,5.77.25.16-2-1.51a2,2,0,0,1,.39.42l-1.52-2,.14.25-1-2.32a2.09,2.09,0,0,1,.16.54l-.35-2.59a3.61,3.61,0,0,1,0,.87l.35-2.62a2.73,2.73,0,0,1-.15.56l1-2.37a26.88,26.88,0,0,0-1.25,3.18l1-2.34a1.84,1.84,0,0,1-.26.48,9.73,9.73,0,0,0,1.5,11.68,10.06,10.06,0,0,0,11.68,1.5c8.07-4,7.41-16.56-.25-20.59a9.79,9.79,0,0,0-14.18,5.77c-1.9,6.63,2,14.41,8.91,16a9.21,9.21,0,0,0,8.05-1.65,8.84,8.84,0,0,0,3.64-7.25,17,17,0,0,0-1.91-6.83l.86,2a17.33,17.33,0,0,0-3.34-5.82,13.42,13.42,0,0,0-5.26-3.35c-2.63-1.07-6,.55-7.59,2.59a7.3,7.3,0,0,0-.57,8c-1.51-2.73.35.83.82,1.44a5.88,5.88,0,0,0,3.34,2.28l-3.54-2.72-.31-.64a8.58,8.58,0,0,0,.41,1.06,12.28,12.28,0,0,0,.62,1.39,7.73,7.73,0,0,0,2.58,2.63l-1.68-1.68c.41.54.82,1.09,1.27,1.6a4.53,4.53,0,0,0,6,.36,4.63,4.63,0,0,0,1.17-5.87Z"
        transform="translate(4.71 0.93)" style="fill: rgb(64, 239, 118);" />
      <path
        d="M302.68,242.51l0-.07.4,1a.41.41,0,0,1,0-.16l.14,1.1v-.08l-.15,1.12a.75.75,0,0,1,.05-.16l-.43,1,0-.07-.68.88a.57.57,0,0,1,.11-.11l-.9.7.07,0-1.08.45.07,0-1.21.16h.07l-1.23-.16.07,0-2.07-1.21.05.07-.75-1a.75.75,0,0,1,.07.12l-.5-1.2c.21.58.45,1.16.69,1.73l-.55-1.32a2.09,2.09,0,0,1,.08.36l-.21-1.53a1,1,0,0,1,0,.24l.21-1.57v.11l.6-1.42a1,1,0,0,1-.16.26l1-1.26a16.36,16.36,0,0,0-1.35,1.73l1-1.31a.81.81,0,0,1-.16.16l1.32-1a2.4,2.4,0,0,1-.29.19l1.56-.66a2.32,2.32,0,0,1-.45.13l1.76-.24h-.35l1.78.24a1.77,1.77,0,0,1-.33-.08l1.6.68a2,2,0,0,1-.29-.18l1.37,1.06-.09-.08,1.75,6.62a2.6,2.6,0,0,1,.1-.25l-.69,1.63a3,3,0,0,1,.2-.34l-1.08,1.4a5.39,5.39,0,0,1,.75-.76l-1.4,1.09a2.59,2.59,0,0,1,.58-.34l-1.65.7.12-.05,1.65-.69a5.36,5.36,0,0,0,1.94-1.78,3.43,3.43,0,0,0,.88-1.52,5.27,5.27,0,0,0,.6-2.65,6.65,6.65,0,0,0-1-3.48l-1.07-1.4a5.17,5.17,0,0,0-2.22-1.42,3.45,3.45,0,0,0-1.74-.48,5.25,5.25,0,0,0-2.75.13,2.85,2.85,0,0,0-.39.11,13.18,13.18,0,0,0-1.9.8,10.09,10.09,0,0,0-2,1.48l-1.09,1.42a1.71,1.71,0,0,0-.13.23,10.15,10.15,0,0,0-.81,1.89,9.44,9.44,0,0,0-.35,2.47,6.7,6.7,0,0,0,.93,3.44,6.87,6.87,0,0,0,2.44,2.44,13.17,13.17,0,0,0,1.78.75,10.78,10.78,0,0,0,2,.29,7.08,7.08,0,0,0,2.24-.25,2.19,2.19,0,0,0,.34-.1,10.89,10.89,0,0,0,1.68-.72,9.06,9.06,0,0,0,1.7-1.31,8.59,8.59,0,0,0,1.17-1.51c0-.06.07-.13.11-.2a7.66,7.66,0,0,0,.94-3.59,6.7,6.7,0,0,0-2-4.67,9.27,9.27,0,0,0-1.61-1.23,6.37,6.37,0,0,0-5.65-.49,5.63,5.63,0,0,0-3.25,3.57,5,5,0,0,0,.86,4.38,4.48,4.48,0,0,0,1.89,1.45,4.65,4.65,0,0,0,2.88.22,4,4,0,0,0,2.38-5.85Z"
        transform="translate(4.71 0.93)" style="fill: rgb(64, 239, 118);" />
      <path
        d="M327.27,236.52a1.92,1.92,0,0,1-.31-.18l.83.65-.09-.07,1.07,4.05a5.34,5.34,0,0,0,.14-3.09c0-.13-.06-.25-.08-.37l-2.42,6a.91.91,0,0,1,.17-.09l-1.27.54.17,0-1.43.19h.18L319,237.16l-.13.42-.27,2a5.68,5.68,0,0,0,.64,2.87,3.74,3.74,0,0,0,1,1.64,5.68,5.68,0,0,0,2.09,1.92l.06,0-1.5-1.16a1.21,1.21,0,0,1,.16.16l-1.13-1.46a.57.57,0,0,1,.08.13,7.19,7.19,0,0,0,2.54,2.54,5.24,5.24,0,0,0,2.63.84A5.34,5.34,0,0,0,328,247a7,7,0,0,0,3.12-1.82,5.83,5.83,0,0,0,.73-.89,5.2,5.2,0,0,0,.67-.92,8.41,8.41,0,0,0,.75-5.74l-.75-1.78a5.68,5.68,0,0,0-1.92-2.09,3.74,3.74,0,0,0-1.64-1,5.66,5.66,0,0,0-2.87-.64l-2,.27a7.45,7.45,0,0,0-3.29,1.91l-.38.47,1.1-.84a6.55,6.55,0,0,0-2.29,2.33,5.31,5.31,0,0,0-.63,3.36,2.6,2.6,0,0,0,.36,1.33,3.92,3.92,0,0,0,1.09,1.69,3.31,3.31,0,0,0,.26.27l1.05.8a3.79,3.79,0,0,0,1.92.61,4.73,4.73,0,0,0,3.29-.61l.32-.24-2.11.57a6.92,6.92,0,0,0,1.57-.23,4,4,0,0,0,2.85-3.31,3.77,3.77,0,0,0-.27-2.07,3.66,3.66,0,0,0-1.63-1.9Z"
        transform="translate(4.71 0.93)" style="fill: rgb(64, 239, 118);" />
      <path
        d="M232.34,137.78l.46-1L231,138.56l.57-.39-9-1.16a10,10,0,0,0,2.09,1.53c.49.3.42.22-.2-.23s-.68-.55-.25-.18c.92.94-1-1.8-.39-.57.17.33.35.64.5,1l-.87-2.06a8.3,8.3,0,0,1,.38,1.38l-.32-2.39a4.23,4.23,0,0,1,.06.7l.33-2.43a12.74,12.74,0,0,1-.63,2.35l14.48-5.89c-.33-.23-.67-.43-1-.66l2,1.55a6.15,6.15,0,0,1-.83-.86l1.57,2a5.93,5.93,0,0,1-.59-1l1,2.4a5.79,5.79,0,0,1-.29-1.16l.36,2.69,0-.4-10.12,10.12a19.8,19.8,0,0,0,3.52-.43l-2.6.35c1.24-.17,2.48-.29,3.72-.49,2.68-.43,4.85-2.87,5.84-5.22a9.07,9.07,0,0,0-.46-8A13.23,13.23,0,0,0,235,126a10.2,10.2,0,0,0-10.21,0c-2.78,1.63-5.45,5.33-5,8.74a18.26,18.26,0,0,0,1.13,5,13.77,13.77,0,0,0,2.64,4.28,12.6,12.6,0,0,0,6.62,4.13,10,10,0,0,0,8.59-1.76,9.58,9.58,0,0,0,3.89-7.74,14.69,14.69,0,0,0-5-10.87,15.58,15.58,0,0,0-5.57-3.16,10.87,10.87,0,0,0-8,.64c-2.86,1.26-4.35,5.56-3.42,8.41a7.81,7.81,0,0,0,7.18,5.47l.67.05-2.52-.68.91.65a4,4,0,0,0,5.45-1.43Z"
        transform="translate(4.71 0.93)" style="fill: rgb(64, 239, 118);" />
      <path
        d="M275.08,164.63l.69.11,1.86,7,.09-.11L275,173.24c-3.69.57,0,0,.79-.07l-1.94.26c.27,0,.53,0,.79,0l-2-.27a1.93,1.93,0,0,1,.53.17l-1.86-.78.24.14L270,171.49l.19.19-1.25-1.62.11.23-.82-1.95a2.54,2.54,0,0,1,.14.47l-.31-2.27a1.94,1.94,0,0,1,0,.48l.32-2.36-.05.21.92-2.17-.08.17,12.71-3.33a15.32,15.32,0,0,0-2.88-1.27,23,23,0,0,0-3.33-.48l2.6.35a9.71,9.71,0,0,1-1.82-.53l2.38,1a9.26,9.26,0,0,1-1.64-1l2,1.58c-.29-.24-.59-.48-.87-.73l-4.47,16.95a8.52,8.52,0,0,1,.88-.16l-2.7.36a12,12,0,0,1,2.68,0l-2.71-.37c.29.05.59.1.88.17V155.73a2.29,2.29,0,0,1-.62.17l2.72-.36a2.29,2.29,0,0,1-.64,0l2.72.36a18,18,0,0,0-3.65-.41,10,10,0,0,0-9.15,6.15,9.56,9.56,0,0,0-.69,5.2,10.58,10.58,0,0,0,2.76,5.75,10.46,10.46,0,0,0,6.64,3.28,10.57,10.57,0,0,0,5.35-.41l2.44-1a7.84,7.84,0,0,0,2.87-2.64,9.71,9.71,0,0,0,2.2-6.2,12.13,12.13,0,0,0-1.4-5.16,10.12,10.12,0,0,0-6.11-4.7,22.94,22.94,0,0,0-9.86.16,10.16,10.16,0,0,0-7.09,7.08c-.89,3.23-.1,7.64,2.61,9.87a17.8,17.8,0,0,0,7.51,4c3.35.75,7.47.88,10.35-1.3a11.86,11.86,0,0,0,3.33-3.33,9.13,9.13,0,0,0,1.1-5.92,8.82,8.82,0,0,0-1.83-4.4,10.51,10.51,0,0,0-4.82-3.33,9,9,0,0,0-4-.56c-2.93.2-5.52,1-7.4,3.41a7.65,7.65,0,0,0,.36,10,6.62,6.62,0,0,0,8.51.8,4.08,4.08,0,0,0-2.06-7.6Z"
        transform="translate(4.71 0.93)" style="fill: rgb(64, 239, 118);" />
      <path
        d="M244.66,54.24l-.5-.3,2.55,3.31a14,14,0,0,0-2.54-4.53c-1.37-1.46.82,2.78.46.76-.11-.6-.32-1.16-.4-1.78v4.44a14.66,14.66,0,0,0,.42-2.81c-.22,1.36-.19,1.56.08.61l-11.3,6.42c-1.3-.62-1.51-.69-.62-.23q-2.59-2.1,1,.71c1.63,1.2-1.81-1.54.06.17.52.6.29.3-.71-.9.54,1,.45.69-.28-.91a11.19,11.19,0,0,0,.51,2.41l16.21-12.46c-.78-.48-.77-.44,0,.11a4,4,0,0,1,1.55,1.63l.57,1.47a5.9,5.9,0,0,1-.27-1.3L232.7,62a36.8,36.8,0,0,0,4,3.16c.84.61,5.69,2.63,2.78,1.31,4,1.81,9,1.94,12.23-1.57a10.5,10.5,0,0,0,1.58-12.23q1.33,2.72-.62-1.64c-.63-.88-1.3-1.73-2-2.56a21.15,21.15,0,0,0-2.09-2.35c-3.55-3.26-9.32-4.51-13.6-1.75A11.69,11.69,0,0,0,229.81,57a16.85,16.85,0,0,0,8.63,11.19c4.07,2,8.56,2,12.26-.86a11.24,11.24,0,0,0,4-11.61c-1-4.6-4.33-8.55-8.18-11.09a16.24,16.24,0,0,0-13-2c-4.81,1.15-7.72,6.64-6.42,11.3a17.72,17.72,0,0,0,1.27,3.24c.25.48,2.58,3.58,1,1.47a15.52,15.52,0,0,0,4.61,4.45c3.85,2.31,7.86,2.36,11.38-.47l-2.44,1.42.55-.13c4.53-1.08,5.06-7.4,1.27-9.68Z"
        transform="translate(4.71 0.93)" style="fill: rgb(64, 239, 118);" />
      <path
        d="M251.18,53.48a2.36,2.36,0,0,1,1.25,1.22c-.81-1.46.47,1.39.06.33a30.27,30.27,0,0,0-1.21-2.86c-.23-.48-.19-.36.14.37a6.91,6.91,0,0,1-.33,6.55l-3.69,3.69-1.69.66h-5.55c-2.74-.78-4-2.63-2.17-.88a12.55,12.55,0,0,0,1.4,1.34c-.5-.27-1.67-2.1-.48-.46.7,1-1.14-2.77-.2-.38.22.91.16.4-.17-1.54l18-4.63c-.19-.31-.37-.62-.53-.94-.41-.8-.26-.41.43,1.18a7.44,7.44,0,0,0-.64-2.06c-.7-2.16-.05,2.74.22.71l-.42,3.13.21-.52-3,5.21q-6.63,2.77-3.64,2.15l-3.14.42h.48l-3.14-.42c2.29.42-2.78-1.65-3.75-2.65-1.22-1.28-.12,0,.14.5s.36.8.57,1.18c-1.26-2.31-.67-1.82-.51-.75l-.42-3.16a2.88,2.88,0,0,1-.05.88l.43-3.16.87-2.15,4.27-4.27,2.19-.93h6.31Q259,55,256.58,53c-.86-.89-.68-.59.55.92a10.31,10.31,0,0,0-2.31-2.81q1.71,2.46.89,1c-3.88-7.34-15-7-19,0a14,14,0,0,0-1.32,11c1.2,3.67,3.66,6.21,6.61,8.49a12.92,12.92,0,0,0,13.17,1.92c4.87-2,7.57-6.57,7.9-11.74s-2.51-10.5-5.79-14.22a14.54,14.54,0,0,0-19.73-1.92c-6.83,5.28-5.69,13.66-2.64,20.59,2.92,6.64,9.53,11.29,17,9.13,7.81-2.27,12-11.23,9.24-18.78-1.82-4.93-5.26-9.59-10.07-11.94-4.12-2-9.51-2.71-13.57-.12a11.86,11.86,0,0,0-5.57,11.65c.86,6.39,7.29,12.45,14,11.82,3.69-.35,7-2.35,8-6.11.82-3,.33-6.81-2.79-8.37Z"
        transform="translate(4.71 0.93)" style="fill: rgb(64, 239, 118);" />
      <path
        d="M281.94,94.46l.31.77V98a7.68,7.68,0,0,0,0-3.84l.22,1.65,0-.24-.23,1.7,0-.2L280.52,100a8,8,0,0,0,2.23-5.56l-.27,2a3.53,3.53,0,0,1,.1-.55l-3.5,4.56a11.3,11.3,0,0,0,3.11-3.13l-12.75,1.64.22.28-1.29-1.66a16.62,16.62,0,0,1,1.74,3l-.95-2.24a14.34,14.34,0,0,1,.57,1.63l9.54-12.52a4.56,4.56,0,0,1-.64,0l2.64.35a5.86,5.86,0,0,1-1.23-.32l2.37,1a6.57,6.57,0,0,1-1.09-.63l2,1.55a6.24,6.24,0,0,1-.89-.89l1.56,2a6.13,6.13,0,0,1-.49-.82l1,2.4-.12-.3-14.73,11.32a24.53,24.53,0,0,0,4.95,1.92,19.74,19.74,0,0,0,3.66.42c2.2,0,3.56-.72,5.51-1.58,2.58-1.14,4.1-4.19,4.45-6.8a9.44,9.44,0,0,0-2.56-7.82c-2.18-2.51-5.3-3.31-8.28-4.46l-2.67-.36-2.66.36a9.94,9.94,0,0,0-5.21,3.59,9.54,9.54,0,0,0-2,4.75,10.68,10.68,0,0,0,1.19,6.39,14.55,14.55,0,0,0,13.19,7.71,10,10,0,0,0,9-6.08,9.84,9.84,0,0,0-2.05-10.8,19.73,19.73,0,0,0-8.92-5c-3.4-.77-7.45.48-9.17,3.74a9.72,9.72,0,0,0-1.11,4.09,8.39,8.39,0,0,0,2.38,5.74,8.18,8.18,0,0,0,3.76,2.26l-4.56-3.51a10.42,10.42,0,0,0,3.23,3.31,7.36,7.36,0,0,0,5.72.74h-3.54a12.16,12.16,0,0,0,2.51.38,6.58,6.58,0,0,0,2.37-.51c.83-.33.93-.38.31-.15s-.53.19-.16,0c3-1.16,4.36-4.06,2.86-7Z"
        transform="translate(4.71 0.93)" style="fill: rgb(64, 239, 118);" />
      <path
        d="M322,83l-.2-1.15.25,1.86c0-.72-.05-1.45-.06-2.17l-.28,2.06.11-.29L306.42,79a10.76,10.76,0,0,0,0,4.79c.08.4.15.79.21,1.19l-.31-2.27a6.58,6.58,0,0,1,.05,1.33l.32-2.36c-.13.62-.31,1.22-.5,1.83l19.17,2.6-.45-3.8H304.47a13.44,13.44,0,0,0,1.53,6l.55,1.29a10.77,10.77,0,0,0,7.19,6.07,10.22,10.22,0,0,0,6.59-.51c1.84-.78,4-2.24,4.85-4.15a11.39,11.39,0,0,0-.25-11.69,13.86,13.86,0,0,0-3-4.23l-2.07-1.59a7.65,7.65,0,0,0-3.79-1.22,9.78,9.78,0,0,0-6.52,1.22,12.17,12.17,0,0,0-3.66,3.66,10.23,10.23,0,0,0-1,7.87l1.34,3.68a11,11,0,0,0,4.49,5.83,9.39,9.39,0,0,0,8.68.49,9.28,9.28,0,0,0,5.16-5.16A9.89,9.89,0,0,0,324,81.2c-.42-.84-1-1.55-1.52-2.34-1-1.71-2.46-3.77-4.33-4.62a8.68,8.68,0,0,0-6.16-.8,8.12,8.12,0,0,0-4.78,3.67c-1.93,3.64-1.12,8.93,2.87,11l.26.13L308.8,87c.46.54.92,1.08,1.37,1.63l-1.1-1.41.61,1a6.79,6.79,0,0,0,8.43,2.76,6.46,6.46,0,0,0,3.23-2.76A7.72,7.72,0,0,0,322,83Z"
        transform="translate(4.71 0.93)" style="fill: rgb(64, 239, 118);" />
      <path
        d="M319.39,120.26c-.38-.72.13.67.05.14,0-.24-.12-.48-.16-.72v2.61l.16-.47-3.71,3.71.34-.08-9.13-5.19a8.74,8.74,0,0,1,.28,1.33v-4.45c-.78,1.88-.32,3.77,0,5.68l-.34-2.46a7.17,7.17,0,0,1,.07.81l.34-2.59c-.73,2-.35,3.8,0,5.83l16.81-9.79a26.12,26.12,0,0,1-1.89-2.18l1.62,2.1a10,10,0,0,1-.8-1.16l1.06,2.51q-.18-.45-.36-.93l-18.17,10.58c.45.57,1.07,1,1.53,1.56l-1.73-2.23a8,8,0,0,1,.94,1.62,12.49,12.49,0,0,0,6.65,5.11,11.45,11.45,0,0,0,7.24-.56,10.62,10.62,0,0,0,5.32-4.55l1.12-2.66a11.18,11.18,0,0,0,0-5.91,10.8,10.8,0,0,0-3-5.7,20.31,20.31,0,0,0-2.87-2.27,7.83,7.83,0,0,0-3.87-1.24,8,8,0,0,0-4.16.19,10.93,10.93,0,0,0-6.23,4.79,13.6,13.6,0,0,0-1.51,3.45,12.86,12.86,0,0,0,.19,6.69l20.33-8.56a16.18,16.18,0,0,0-9.37-7.9,11.1,11.1,0,0,0-8.38,1.1,11.22,11.22,0,0,0-4.45,5.2,10.44,10.44,0,0,0-.55,7.07,12.19,12.19,0,0,0,5,6.5l.84.56-2.13-1.65c1.79,1.45,3.52,3,5.44,4.27a10.1,10.1,0,0,0,7.75,1,10.34,10.34,0,0,0,5.22-3.6,10.07,10.07,0,0,0-.78-13.21,9.94,9.94,0,0,0-4.83-2.82l2.32,1a10.73,10.73,0,0,0-8.47-1.49h4.45a24.7,24.7,0,0,0-3.43-.41,7.47,7.47,0,0,0-7.41,7.41,7.57,7.57,0,0,0,7.41,7.42h.23l-2.68-.72c-.43-.41-.47-.45-.13-.14l.7.55a8,8,0,0,0,1.21.82,4.47,4.47,0,0,0,5.29-.68,4.55,4.55,0,0,0,.68-5.29Z"
        transform="translate(4.71 0.93)" style="fill: rgb(64, 239, 118);" />
      <path
        d="M309.86,43.38c-.15,1.11-.17,1.34-.05.67a5.2,5.2,0,0,0,.22-2.31v-.45q-1.56,5.07.1.78c.33-2.39.39-2.91.19-1.54q-.19,1.17,0,.18c.27-.88.14-.62-.4.77a7.14,7.14,0,0,1,.55-.77L307.15,44l.31-.22-13.91-5.66c.15,1,.6,2,.77,3L294,38.38A11.8,11.8,0,0,1,294,41l.39-2.88a20.25,20.25,0,0,1-.61,2.53l20.66-2.7a15.59,15.59,0,0,1-.72-1.41l1.14,2.71a11.87,11.87,0,0,1-.56-2l.4,3a11.57,11.57,0,0,1-.05-2.63l-.41,3a8.63,8.63,0,0,1,.47-1.88l-1.16,2.75.2-.3-4.14,4.14.3-.17-5.83,1.57.37,0-5.83-1.58a2.37,2.37,0,0,1,.7.42L297,43.81a3.41,3.41,0,0,1,.59.61l-1.81-2.34a4,4,0,0,1,.43.72L295,40a8.28,8.28,0,0,1,.49,1.7l-.42-3.1a15.27,15.27,0,0,1,0,3.17l.41-3.12a2.85,2.85,0,0,1-.21.81l1.18-2.81-.21.33,1.84-2.38-.31.25,5.2-3-.39.12,3.13-.43-.39,0,3.14.42-.38-.15L311,33l-.37-.24L313,34.57a22.48,22.48,0,0,0-3.68-3.06,13.12,13.12,0,0,0-9.65-1.14c-5.67,1.46-9.79,8.15-7.88,13.88a15.76,15.76,0,0,0,7.08,9,13.3,13.3,0,0,0,15.78-1.84c5.16-4.77,5-14.32,1.7-20.13a15.19,15.19,0,0,0-8.64-7.11c-6.5-2.11-13.2,2.28-15.19,8.47a20.3,20.3,0,0,0,2.42,16.69c2.69,4,7.84,6.79,12.77,5.19a11.78,11.78,0,0,0,8.3-10.9,19.62,19.62,0,0,0-2.36-9.53c-1.23-2.49-3.57-5.52-6.17-6.66-3.6-1.59-7.22-1.81-10.52.74-3.15,2.43-4.13,6.12-3.39,10-.6-3.09-.22-1.41-.13-.66.1.93.2,1.87.36,2.78a10.9,10.9,0,0,0,2,4.61,4.14,4.14,0,0,0,1.47,1.47q1.74,1.34-.18-.13c.07.29.57.63.77.81a8.15,8.15,0,0,0,4.37,2.2c4.09.67,7.3-1.62,7.65-5.83Z"
        transform="translate(4.71 0.93)" style="fill: rgb(64, 239, 118);" />
      <g opacity=".28">
        <g clip-path="url(#__id9_syuqqwrjs)">
          <path
            d="M253.94,212.74a32.6,32.6,0,0,0,2.65,11.15c1.38,3.23,2.77,7.73,6.64,8.5a3.39,3.39,0,0,0,4-2.3c1.28-3.33-1.28-6.57-2.69-9.48a76.7,76.7,0,0,0-5.22-9.33c-1.48-2.23-5.61-1.61-5.41,1.46Z"
            transform="translate(4.71 0.93)" style="fill: rgb(144, 26, 61);" />
          <path
            d="M221.49,149.55c0,1.32-.09,2.58.06,3.89a15.8,15.8,0,0,0,2,5.43c1.9,3.68,4.52,7,8.94,7.24,3,.17,6.08-2.82,5.85-5.85-.3-3.86-2.68-5.79-5.23-8.32-.93-.92-1.74-2-2.73-2.81s-2-1.29-2.79-2.1c-2.15-2.08-6.18-.63-6.08,2.52Z"
            transform="translate(4.71 0.93)" style="fill: rgb(144, 26, 61);" />
          <path
            d="M208.36,39.67c.13,3.43.27,6.5,1.63,9.71a36.55,36.55,0,0,0,5.31,8.91c4.41,5.44,13.79-1.74,9.76-7.53-1.53-2.21-3.2-4.33-4.61-6.62s-3.25-4.22-4.75-6.45c-2.06-3.06-7.5-2.15-7.34,2Z"
            transform="translate(4.71 0.93)" style="fill: rgb(144, 26, 61);" />
          <path
            d="M150.77,159.75a7,7,0,0,0,2.42,5.2c2.27,2.25,5.38,2.32,8.27,1.55,4.71-1.25,6.68-5,8.36-9.16,1-2.42-.14-6.07-2-7.75a8.13,8.13,0,0,0-5.64-2.33,8.24,8.24,0,0,0-7.68,5.85l-.27.8c-.37,1.14.3-.73.32-.72a9.36,9.36,0,0,1-1,1.61c-.29.52-1.83,3.73-.18.85q1.2-1.76.54-1.05c-.27.25-.17.18.28-.19.64-.5.55-.43-.29.22a6.89,6.89,0,0,0-2.13,2.76c-.47,1.18-.47,1.1,0-.22l2.15-2.15a5.68,5.68,0,0,0-3.15,4.73Z"
            transform="translate(4.71 0.93)" style="fill: rgb(144, 26, 61);" />
          <path
            d="M153.85,258.47c1.06-.14,2.12-.28,3.17-.46h-3c4,1.11,8-1.06,11-3.47a6.77,6.77,0,0,0,2-4.82,7.1,7.1,0,0,0-1.46-4.13c-1.95-2.52-6-3.67-8.79-1.75s-5.42,4.11-6.68,7.32l1.43-2.46c-.43.39-.88.76-1.33,1.13-1.56,1.24-1.76,3.85-1.05,5.53s2.67,3.36,4.63,3.11Z"
            transform="translate(4.71 0.93)" style="fill: rgb(144, 26, 61);" />
          <path
            d="M148.55,232.05l-.28,1,2.09-3.6c-2.65,3.4-6.71,6.6-9.87,9.61a76.09,76.09,0,0,1-10.19,8.14c-7.77,5.18-16.31,8.81-23.94,14.18-3.86,2.72-4,9.64,1.41,10.83,13.35,3,26-2.12,36.94-9.69,9.33-6.43,27.82-21.72,16.49-33.81-3.95-4.21-11.15-2-12.65,3.34Z"
            transform="translate(4.71 0.93)" style="fill: rgb(144, 26, 61);" />
          <path
            d="M262,191.52c-6.4,7-4.14,17.78-2.12,26.16,2.26,9.37,5.4,18.91,11.44,26.54,5.74,7.23,13.6,12.37,21.71,16.59A81,81,0,0,0,307.11,267a23.49,23.49,0,0,0,15.91-.37c4.74-1.7,5.66-9.28,0-10.58a98.48,98.48,0,0,1-23-8.7c-6.42-3.34-12.92-7.18-17.45-13-4.68-6-7.24-13.15-9.66-20.25-2.48-7.26-3.88-15.16-7.12-22.09a2.41,2.41,0,0,0-3.76-.49Z"
            transform="translate(4.71 0.93)" style="fill: rgb(144, 26, 61);" />
          <path
            d="M305.88,205.45c0-7.39-2.52-16.36,4.75-21.35,3.17-2.17.15-7.39-3-5.18-8.73,6.07-10.57,18.7-4.16,27.19a1.32,1.32,0,0,0,2.44-.66Z"
            transform="translate(4.71 0.93)" style="fill: rgb(144, 26, 61);" />
          <path
            d="M220.8,107.41l-1.06,1.09,2.51-1c-8.61.46-8.56,12.77-7.76,18.94a76.06,76.06,0,0,0,6.94,23.1,74.64,74.64,0,0,0,13.79,19.37c5,5.2,13.84,13.19,21.71,10.68,3.29-1.06,4.65-4,4.13-7.27-.95-5.93-8.42-10.71-12.5-14.63A72.78,72.78,0,0,1,237,143a76.71,76.71,0,0,1-10-26.08c-.55-3.21-.11-5.73-2.21-8.43l.92,3.46.53-1.41c1.17-3.1-3.27-5.34-5.41-3.14Z"
            transform="translate(4.71 0.93)" style="fill: rgb(144, 26, 61);" />
          <path
            d="M215.4,6.12l-.5.23a5.42,5.42,0,0,0-2.72,4.74c.12,7.85.36,15.21,2.62,22.84a157.31,157.31,0,0,0,8.34,22.13c6.6,14,15.9,27,26.21,38.45A210.9,210.9,0,0,0,287.25,127a103.55,103.55,0,0,0,21.42,11.27c7.11,2.72,16.71,5.35,23-.52a6.4,6.4,0,0,0,1-7.66c-4-6.21-11.89-7.05-18.2-9.7a98.33,98.33,0,0,1-18.13-10.55,207,207,0,0,1-33.18-29.11A156.26,156.26,0,0,1,240.4,47.87a179.85,179.85,0,0,1-8.81-18.56c-2.6-6.7-6-13.08-8.63-19.68a5.78,5.78,0,0,0-5.29-4,4.73,4.73,0,0,0-2.27.52Z"
            transform="translate(4.71 0.93)" style="fill: rgb(144, 26, 61);" />
          <path
            d="M276.35,38.51c1.29-11.23,5.51-22.85,12.82-31.63,2.59-3.11.26-9.21-4.37-7.52C277,2.19,273.69,9.7,270.69,17s-4.15,16.09.51,22.92a2.79,2.79,0,0,0,5.15-1.4Z"
            transform="translate(4.71 0.93)" style="fill: rgb(144, 26, 61);" />
          <path
            d="M140.17,96.82c-.4-2.33-.09,2.63,0,3.09.19,2.06.62,4.2.64,6.27,0,3.79-1.36,7.92-2.58,11.71a151.2,151.2,0,0,1-8.76,21.19,141.84,141.84,0,0,1-28.64,39.33c-12.94,12.45-28.27,22.2-43.3,31.92-7.26,4.69-14.68,9.06-22.35,13s-17.79,6.34-24.39,12.21c-5.24,4.66-1.93,12.54,3.85,14.57,7.72,2.72,17.59-.48,24.87-3.36a147.28,147.28,0,0,0,22.63-11.44,455.47,455.47,0,0,0,41-27.88c25.35-19.61,45.05-45.91,54.88-76.57,2.88-9,6.1-19.58,2.74-28.81C158,94.73,149.37,87.72,141.74,93a3.61,3.61,0,0,0-1.57,3.87Z"
            transform="translate(4.71 0.93)" style="fill: rgb(144, 26, 61);" />
          <path
            d="M139.09,171c2.29-2.22,5.2-3.59,7.48-5.92a76.33,76.33,0,0,0,6.48-8.16,131.61,131.61,0,0,0,10.68-17.08c6-11.4,7.87-24.8,3.73-37.16-3.25-9.7-18.2-5.77-15.45,4.26,3.06,11.14.7,19.86-4.66,29.81-2.61,4.84-5.32,9.61-7.79,14.53a73.63,73.63,0,0,0-3.48,7.69c-1.07,2.95-1.15,6.08-2.24,9C132.68,171,137,173,139.09,171Z"
            transform="translate(4.71 0.93)" style="fill: rgb(144, 26, 61);" />
          <path
            d="M77.22,133.48c16.85-14.8,24.54-38.13,14-58.94-3.61-7.12-16-2.13-13.1,5.52a166.79,166.79,0,0,1,8.49,30.37c1.61,9,15.31,5.19,13.74-3.79a157.68,157.68,0,0,0-8.41-30.38L78.84,81.78c8.25,16,2.75,34.34-4.27,49.66a1.69,1.69,0,0,0,2.65,2Z"
            transform="translate(4.71 0.93)" style="fill: rgb(144, 26, 61);" />
          <path
            d="M172.34,210.07a134.77,134.77,0,0,0,7.58,19.58c2.53,5.15,5.25,13.08,11.18,14.88a3.35,3.35,0,0,0,4.09-2.33c1.22-5.86-3.71-11.68-6.47-16.59-3.41-6.08-7-12-10.47-18-1.82-3.11-7-1.07-5.91,2.49Z"
            transform="translate(4.71 0.93)" style="fill: rgb(144, 26, 61);" />
          <path
            d="M123.79,291.46c-3.9,4.21-4.26,10.4-2.46,15.75,2.36,7,9,10.73,16.09,10.93,8,.23,16.25-1.3,24.17-2,8.45-.74,16.9-1.44,25.36-2,16.55-1.12,33.14-1.87,49.73-1.4,8.44.24,16.87.79,25.25,1.73,6.69.75,13.46,2.17,20.21,1.64,8.57-.68,16.26-3.8,21.49-10.87a34.72,34.72,0,0,0,5.13-10.71c1.31-4.34.72-8.25.12-12.64-.91-6.77-11.39-7.42-14.3-1.87a63.65,63.65,0,0,0-4.33,10.18c-.77,2.36-1.7,4.62-3.86,6-4.64,3-12.09,1.32-17.16.7a351.65,351.65,0,0,0-53-2.45c-17.61.48-35.15,2-52.68,3.76-8.4.84-16.93,2.27-25.37,2.5-2.37.06-3.4-.29-4.72-2.5-1.52-2.56-2.2-4.72-4.62-6.73a3.63,3.63,0,0,0-5,0Z"
            transform="translate(4.71 0.93)" style="fill: rgb(144, 26, 61);" />
          <path
            d="M170.67,408.1c-.09-3.77-.24-7.43-.63-11.19-.41-4-1.65-7.83-2.38-11.79A148.56,148.56,0,0,1,165.59,362a233.52,233.52,0,0,1,.74-23.81c.28-3.92.62-11.3,4.18-13.18,2.38-1.25,6.41-.55,9-.63,4.11-.12,8.21-.32,12.32-.53,8.21-.42,16.42-.92,24.65-1a134.21,134.21,0,0,1,24.12,1.41c6.17,1.05,13.55,2.21,18.75,6,4.67,3.38,6.47,9.47,7.16,15,1.13,9-.09,18.27.55,27.35.9,12.67,18.21,15.51,22.28,3,4-12.1,4.17-25,4.71-37.61.5-11.9,4.12-28.64-10.33-33.47-7.61-2.55-17.09,5.93-13.89,13.89,2.8,6.94.08,13.78-1.77,20.69-2,7.39-3.4,14.9-4.7,22.44-2.6,15.06-4.57,30.83-10.89,44.89l20.23,8.53a255.62,255.62,0,0,0,14.39-52.72c2.71-17.1,3.89-36.48-10.78-48.81s-33.78-10.9-51.66-11.05c-19-.17-38,.41-56.75,3.28-8.69,1.32-18.66,2.57-26.28,7.32-10.1,6.3-11.83,16.44-9.6,27.4l21.25-5.86a35.87,35.87,0,0,1-2.14-12.56c.13-14.18-21.9-14.19-22,0A54.65,54.65,0,0,0,132,340.3c4.63,13.42,24.07,8.08,21.25-5.86-.16-.75-.7-2.63-.3-3.34-.76,1.35.55.22.93.18,2.76-.33,7.26-2.12,10.57-2.79a197.85,197.85,0,0,1,27-3.42c18.54-1.2,37.88-1.72,56.42-.16,6.2.52,12.82,2.46,16.42,7.89,3.71,5.6,2.82,13.41,2,19.75-2.43,19.28-7.91,38.39-15,56.45-4.54,11.57,15.06,19.95,20.23,8.53,7.52-16.62,10.38-34.08,13.54-51.9,1.55-8.69,3.54-17.17,5.87-25.69,2.45-9,4.12-18.67.62-27.62l-13.89,13.89,1,.35-5-2.9q-1.85-6.51-1.59-2.65l-.17,3.76-.24,5.63q-.31,7-.62,14.05c-.39,8.59-1,16.82-3.67,25l22.29,3c-1.29-18.59,2.42-38.21-10.08-54-12.2-15.38-35.52-17.78-53.76-18.42-9.78-.34-19.57.16-29.34.67-9.57.5-19.66-.07-29.1,1.66-21.95,4-24.17,29.61-22.94,47.62a152.34,152.34,0,0,0,5.68,32.27A145.26,145.26,0,0,0,155.35,398c2,4.85,5.4,8.9,8.92,12.73,2.19,2.39,6.48.54,6.4-2.65Z"
            transform="translate(4.71 0.93)" style="fill: rgb(144, 26, 61);" />
          <path
            d="M292.32,7.94c1.45,3.45,4,6.42,5.72,9.79a79.07,79.07,0,0,1,4.34,10.17,159.41,159.41,0,0,1,6,22.85c1.67,9.14,3.31,18.26,4.18,27.52.49,5.11.95,10.21,1.47,15.32.56,5.52.84,10.53,4,15.26s9.52,4.69,12.79,0c6.22-8.93,4.07-23.21,3-33.45a211.15,211.15,0,0,0-6.11-34c-2.39-8.53-5.22-17.38-10.31-24.71C312.59,9.81,305.19,1.78,296.2,1.17c-3.79-.26-5.09,3.92-3.88,6.77Z"
            transform="translate(4.71 0.93)" style="fill: rgb(230, 255, 242);" />
          <path
            d="M223.26,12.32c8.59,9,20.28,14.43,29.88,22.31a128.61,128.61,0,0,1,13.28,12.71c3.79,4.15,7.27,9.86,12.92,11.51A3,3,0,0,0,283,56.76c1.17-6.43-3.25-12-7-16.73a95.88,95.88,0,0,0-14.8-14.59C250.88,17.11,238.85,8.62,225.38,7.2c-2.73-.28-3.77,3.4-2.12,5.12Z"
            transform="translate(4.71 0.93)" style="fill: rgb(230, 255, 242);" />
          <path
            d="M17.3,226.54c2.1-7.67,1.31-16,1-23.88-.29-8.3-.75-16.6-1-24.91-.41-15.89-1-32.75,4.26-48,4.33-12.6,12.75-23.56,22-33,4.75-4.87,9.5-10,15.65-13.09s13.06-4.62,19.09-7.88c3.89-2.11,3.6-7.8,0-10C71,61.44,60.94,59.64,52.68,61.88,43.68,64.32,36.49,71,30,77.43c-12,12-22.17,25.92-28.45,41.79-6.79,17.17-6.91,36.51-5.73,54.68A184.93,184.93,0,0,0-.22,203.26c2,8.74,4.57,18.14,10.39,25.16,2.1,2.54,6.34,1,7.13-1.88Z"
            transform="translate(4.71 0.93)" style="fill: rgb(230, 255, 242);" />
          <path
            d="M67.26,167.23c12.57-10.61,22.72-24.12,34.52-35.61,5.83-5.68,11.74-11.19,18.51-15.77,6.36-4.29,14.34-6.88,20-12.1,3.8-3.53.69-9.54-4-9.76-8.68-.39-17.63,5.78-24.49,10.54a133.79,133.79,0,0,0-20.07,17c-6.41,6.65-12.12,14-17.86,21.25-5.32,6.7-11.12,13.54-11.48,22.44-.11,2.72,3.16,3.58,5,2.06Z"
            transform="translate(4.71 0.93)" style="fill: rgb(230, 255, 242);" />
          <path
            d="M238.45,122.08c8.38,12.69,23,17.21,33.66,27.53,5.51,5.36,9,11.64,12.43,18.44,2.06,4.11,7.23,13,12.67,8s1.17-15-1.44-20.2a59.91,59.91,0,0,0-13.49-17.57,92.94,92.94,0,0,0-40.44-20.62c-2.4-.56-4.9,2.12-3.39,4.41Z"
            transform="translate(4.71 0.93)" style="fill: rgb(230, 255, 242);" />
          <path
            d="M315.32,182.91c1,3.43,2.28,7.07,4,11.27A130.21,130.21,0,0,1,325,210.42c2.51,9.72,1.6,18.25-1.27,27.79-2.1,7,7.27,12.5,12.31,7.17,9.1-9.62,9.66-23.72,6.79-36.09a66.34,66.34,0,0,0-7.91-18.75c-3.19-5.29-6.79-11.92-13-14a5.32,5.32,0,0,0-6.69,5.1,5.58,5.58,0,0,0,.13,1.23Z"
            transform="translate(4.71 0.93)" style="fill: rgb(230, 255, 242);" />
          <path
            d="M270.65,195.91c7.94-.17,15.76,6.45,20.89,12a40.45,40.45,0,0,1,6.19,9c1.68,3.23,2.66,7.12,6,9a3.7,3.7,0,0,0,4.94-1.29c5.32-8.17-6.29-21.15-11.91-26.27-7.54-6.88-17.59-13.19-27.79-8.6-3.09,1.39-1.45,6.27,1.68,6.2Z"
            transform="translate(4.71 0.93)" style="fill: rgb(230, 255, 242);" />
          <path
            d="M161.4,286.57c8.41,1.51,17.07.4,25.56.07,9-.35,18.06-.46,27.08-.15s18.07,1,27.06,1.79c7.49.69,17.49,4,24.31-.1a2.52,2.52,0,0,0,.5-3.9c-5.5-6.15-17.22-5.38-24.81-6-9-.77-18-1.05-27.06-1s-18.07.3-27.08,1c-8.72.66-18,1.21-26,4.83a1.94,1.94,0,0,0,.46,3.52Z"
            transform="translate(4.71 0.93)" style="fill: rgb(230, 255, 242);" />
          <path
            d="M212.74,337.74c.2,2.17-1.69,4.27-2.24,6.29-.61,2.25-.11,4.49,0,6.76.21,5.64-1.9,11-2,16.59a20.66,20.66,0,0,0,1.18,7.23c.81,2.33.12,3.84.33,6.17.36,3.83,4.07,5.72,7.2,7.14,2.88,1.31,7.63-.95,6.13-4.71a7.21,7.21,0,0,0-3.23-4c-3.37-2,0,1.17-1.08,1.27.31,0,.47-1.93.5-2.14.29-2.53-.7-4.44-1.41-6.77-.92-3-.6-6-.21-9.06a42.79,42.79,0,0,0-.35-14.85c-.86-4.44,2.59-7.64-1.27-11.33-1.19-1.14-3.69-.41-3.52,1.46Z"
            transform="translate(4.71 0.93)" style="fill: rgb(230, 255, 242);" />
          <path
            d="M209.58,400.12a6.49,6.49,0,0,0,0,2.94l-.15-1.12a8.33,8.33,0,0,0,.25,1.65l-.17-1.22a4.48,4.48,0,0,0,.43,2.28,3.88,3.88,0,0,0,1.14,1.78,7.36,7.36,0,0,0,1.18.9,6.23,6.23,0,0,0,1.49.61,5.68,5.68,0,0,0,2.95,0,5.56,5.56,0,0,0,3.89-3.89,4.19,4.19,0,0,0,.1-2.22,4.08,4.08,0,0,0-.66-2.07,5.58,5.58,0,0,0-7.61-2,6.16,6.16,0,0,0-2.28,2.28l2.74-2.11h-.07l1.2-.16h-.24l1.15.15-.18,0,1,.42-.09-.05.84.65a2,2,0,0,1-.2-.21l.63.82a1.74,1.74,0,0,1-.15-.26l.4,1,0-.1a4.37,4.37,0,0,0-1.41-2.05,3.79,3.79,0,0,0-2.39-.84,4,4,0,0,0-3.79,2.89Z"
            transform="translate(4.71 0.93)" style="fill: rgb(230, 255, 242);" />
        </g>
      </g>
      <path d="M190.73,187.83c3.76-53.17,12.78-112.61,33.81-138" stroke="#00311e"
        stroke-linecap="round" stroke-linejoin="round" stroke-width="5"
        transform="translate(4.71 0.93)" style="fill: none;" />
      <path d="M188.23,274.4c-.1-9.55-.1-23.46.31-39.83" stroke="#00311e" stroke-linecap="round"
        stroke-linejoin="round" stroke-width="5" transform="translate(4.71 0.93)"
        style="fill: none;" />
      <path d="M178.26,202.64c-.85,22-1.13,46.68-.68,74.44" stroke="#00311e" stroke-linecap="round"
        stroke-linejoin="round" stroke-width="5" transform="translate(4.71 0.93)"
        style="fill: none;" />
      <path d="M215.44,34.58C203.19,48.14,186.57,82.5,180.1,169.49" stroke="#00311e"
        stroke-linecap="round" stroke-linejoin="round" stroke-width="5"
        transform="translate(4.71 0.93)" style="fill: none;" />
      <path d="M159.24,147.74c8.18,5.46,19.92,17.44,31.19,43.69" stroke="#00311e"
        stroke-linecap="round" stroke-linejoin="round" stroke-width="5"
        transform="translate(4.71 0.93)" style="fill: none;" />
      <path d="M199.64,275.44c-4.75-27.13-18.58-90.19-47.92-115.34" stroke="#00311e"
        stroke-linecap="round" stroke-linejoin="round" stroke-width="5"
        transform="translate(4.71 0.93)" style="fill: none;" />
      <path d="M190.43,191.43c8.09,18.84,15.94,45,22.07,81.43" stroke="#00311e"
        stroke-linecap="round" stroke-linejoin="round" stroke-width="5"
        transform="translate(4.71 0.93)" style="fill: none;" />
      <path d="M223.1,275.29c-1.92-19.47-6.6-83.18,10.77-114.63" stroke="#00311e"
        stroke-linecap="round" stroke-linejoin="round" stroke-width="5"
        transform="translate(4.71 0.93)" style="fill: none;" />
      <path d="M226.6,145.35c-11.35,18-20.21,54.69-13.93,129" stroke="#00311e"
        stroke-linecap="round" stroke-linejoin="round" stroke-width="5"
        transform="translate(4.71 0.93)" style="fill: none;" />
      <path d="M250.61,278.62c.06-13.28,1.79-37.62,12.44-55" stroke="#00311e" stroke-linecap="round"
        stroke-linejoin="round" stroke-width="5" transform="translate(4.71 0.93)"
        style="fill: none;" />
      <path d="M257.5,209.21c-8.8,10.92-16.94,31-19.33,67.52" stroke="#00311e"
        stroke-linecap="round" stroke-linejoin="round" stroke-width="5"
        transform="translate(4.71 0.93)" style="fill: none;" />
      <path d="M171.84,277.23c-2.22-7.26-8.06-17.78-23.25-26.8" stroke="#00311e"
        stroke-linecap="round" stroke-linejoin="round" stroke-width="5"
        transform="translate(4.71 0.93)" style="fill: none;" />
      <path d="M158.37,243.07c5,3.52,10.83,9.1,16.74,17.91" stroke="#00311e" stroke-linecap="round"
        stroke-linejoin="round" stroke-width="5" transform="translate(4.71 0.93)"
        style="fill: none;" />
      <path
        d="M232.36,115.17s-33.31-9.19-12.57,20.94,31,34.72,31,34.72,35,17.36,47.88,0S232.36,115.17,232.36,115.17Z"
        stroke="#00311e" stroke-linecap="round" stroke-linejoin="round" stroke-width="5"
        transform="translate(4.71 0.93)" style="fill: none;" />
      <path
        d="M62.35,157.47s14.57-29.33,37.74-47.08c15.86-12.15,35.75-18.88,57.75-7C212,132.45,65.92,230.49,65.92,230.49s-28.59,21.45-50,6.13S5.33,123.77,5.33,123.77s9.53-46,40.17-54.13S90.94,88.53,90.94,88.53s9.66,18.8,9.15,21.86"
        stroke="#00311e" stroke-linecap="round" stroke-linejoin="round" stroke-width="5"
        transform="translate(4.71 0.93)" style="fill: none;" />
      <path
        d="M275.29,43.09S236,1.72,217.58,10.41s25,67.4,25,67.4,38.81,42.89,76.09,54.64c0,0,15.32-1,0-81.7s-43.92-35.24-43.92-35.24-6.54,8.72-8.17,15.83"
        stroke="#00311e" stroke-linecap="round" stroke-linejoin="round" stroke-width="5"
        transform="translate(4.71 0.93)" style="fill: none;" />
      <path
        d="M307.07,217.21a29.41,29.41,0,0,0-15.83-24.51c-15.32-8.17-27.06-7.15-31.66,6.64-1.94,5.83,1,48.8,57.71,60.91,0,0,18.37-6.56,17.65-49.06a49,49,0,0,0-4-18.93c-2.55-5.81-6.51-11.55-12.12-11.31-22.23,1-20,17.41-20,17.41"
        stroke="#00311e" stroke-linecap="round" stroke-linejoin="round" stroke-width="5"
        transform="translate(4.71 0.93)" style="fill: none;" />
      <path d="M118,266.24s-17.36-4.09-14.3-14.3,49-25.53,58.21-19.41S138.94,258.06,118,266.24Z"
        stroke="#00311e" stroke-linecap="round" stroke-linejoin="round" stroke-width="5"
        transform="translate(4.71 0.93)" style="fill: none;" />
      <path
        d="M283.89,310.4c-5.12,29.49-14.33,77.73-22.9,98.3,0,0-34.22,10.72-95,3.07,0,0-19.08-48.44-30.49-96.79"
        stroke="#440003" stroke-linecap="round" stroke-linejoin="round" stroke-width="5"
        transform="translate(4.71 0.93)" style="fill: none;" />
      <path d="M121,291.77s71.07-34.73,175.7-2.56l-4,23S235,294.32,127.45,315.26Z" stroke="#440003"
        stroke-linecap="round" stroke-linejoin="round" stroke-width="5"
        transform="translate(4.71 0.93)" style="fill: none;" />
    </g>
  </g>
</svg>