<svg xmlns="http://www.w3.org/2000/svg" xmlns:xlink="http://www.w3.org/1999/xlink" viewBox="0 0 263.74 264.44"><defs><style>.cls-1,.cls-10,.cls-11{fill:none;}.cls-2{fill:#fdfc80;}.cls-2,.cls-3,.cls-4{stroke:#231f20;}.cls-10,.cls-2{stroke-linejoin:round;}.cls-10,.cls-11,.cls-2,.cls-3,.cls-4{stroke-width:5px;}.cls-3{fill:#fd3351;}.cls-11,.cls-3,.cls-4{stroke-miterlimit:10;}.cls-4{fill:#e79150;}.cls-5{opacity:0.39;}.cls-6{clip-path:url(#clip-path);}.cls-7{fill:#901a3d;}.cls-8{fill:#e6fff2;}.cls-9{fill:#634021;}.cls-10{stroke:#551429;stroke-linecap:round;}.cls-11{stroke:#45231c;}</style><clipPath id="clip-path" transform="translate(3.43 3.86)"><path class="cls-1" d="M255.47,142.89c.22-8.42-18.28-14.82-37.36-19.16,13.34-7.29,28.28-16.51,30.14-22.13s-17.1-7.4-34.83-7.82c15.17-10.91,27.67-22.47,19.88-26.69-7-3.77-21.85-.79-36.62,3.86,8.49-17.06,17.62-38.06,13.66-42.5-3.67-4.12-24.57,7.71-43.35,19.69,3.17-16.35,4.37-31.73-2.35-31.73-7.62,0-23,16-35.78,31C122.25,27.16,112.24.59,105.78,2.54,98.53,4.73,92.41,39,89.14,61,72.09,51.06,49,39.73,43.21,47.18c-3.85,4.93,1.27,16,8.72,27.49-14.53-1-28.46-.64-30.07,4.23-1.94,5.83,12.06,16.7,25,25.26-19.59-2.1-40.3-2-37.09,8.61,2.33,7.68,12.09,13.16,23.06,17C17.3,136.26,2.38,143.43,2.38,147c0,3.08,10.34,5.45,22.41,7.18-14.55,7-24.76,14.86-15,20.76s22.43,6.35,33.61,5c-9.5,12.11-18.43,25.42-15.29,29.27,2.64,3.25,13.8-1.11,25.69-7.13-5.8,13.09-8.66,25.58,2,24.87s20.16-8.55,27.11-16.45c-2.07,19.32-3,41.76,3.75,41.83,4.47,0,10-7.47,15.11-16.85,3.2,10.48,7.73,18.54,14.05,17.53,9.19-1.46,12.89-16.46,14.36-29.87,9.28,16.54,21.34,34.42,27.14,27.76,3.92-4.51,3.64-14.38,1.82-24.81,9.84,7.13,19.32,11.88,22.82,7.16,4.06-5.48-.39-17.08-6.05-27.59,16.47,8.2,34.89,16.06,36.75,11.24,1.41-3.64-2.52-11.21-7.66-18.88,12.18,2.67,22.36,3.18,22.89-2.39.5-5.18-6.11-12.46-14.71-19.61,15.2-.27,32.12-1.73,35.23-6.68,2.36-3.75-5.53-10.06-15.82-16.27C245.34,151.91,255.31,149.06,255.47,142.89Z"/></clipPath></defs><g id="Calque_2" data-name="Calque 2"><g id="Layer_31" data-name="Layer 31"><path class="cls-2" d="M108.5,73.11s41.92-56.64,56.26-56.64-7.38,70-7.38,70,59.74-28.16,76-19.34-56.13,49.74-56.13,49.74,78.76,8.74,78.3,26.06-78.3,8.54-78.3,8.54,52.05,30,50.7,44.17-65.4-11.09-65.4-11.09,27.83,37.41,19.46,48.71-50.89-31.58-50.89-31.58,1.68,48.65-15.24,51.34-21-59.4-21-59.4S78,225.5,55.89,227s13.69-53.47,13.69-53.47-37.51,15-59.72,1.48,59.72-37.3,59.72-37.3-53.81-5.36-59.72-24.86,69.22-3.5,69.22-3.5S33.82,59.42,43.33,47.24,108.5,73.11,108.5,73.11Z" transform="translate(3.43 3.86)"/><path class="cls-3" d="M86.76,79c.76-4.8,8.8-73.24,19.15-76.36s29.77,66.83,29.77,66.83,67.88-48.66,74.78-40.92-25.85,65.58-25.85,65.58,67.21-2.84,63.76,7.57-51.7,33.14-51.7,33.14,57.7,25.23,51.83,34.57-60.81,6.24-60.81,6.24S216.2,208,212.76,216.93s-63.2-25.34-63.2-25.34,18,47.68,7.86,59.34-39.5-51.81-39.5-51.81-19.29,53.35-31.16,53.24,0-69.23,0-69.23S34.33,216.8,28.18,209.25,62.25,157.8,62.25,157.8,2.5,154.45,2.5,147.05s64.63-30.48,64.63-30.48S18.48,89.51,22,79,86.76,79,86.76,79Z" transform="translate(3.43 3.86)"/><path class="cls-4" d="M83.91,85.06a63.79,63.79,0,0,1,44.87-17.24c14.48.35,38.95,10.57,49.57,26.17,16.93,24.86,17.21,37.43,13.11,58.75-.34,1.76-3.72,17.37-11,25.51-9.59,10.71-13.56,20.54-46.64,23.32-18.94,1.6-36.75-5.68-49.47-12.86a54.15,54.15,0,0,1-27.64-46.6,97.1,97.1,0,0,1,1.64-18.49C61,109.11,73.23,95,83.91,85.06Z" transform="translate(3.43 3.86)"/><g class="cls-5"><g class="cls-6"><path class="cls-7" d="M62.24,156.76c-1.63,15.29,15.17,28.63,27.2,35.12a82,82,0,0,0,24.9,8.24c8.67,1.51,17.51,2.91,26.31,2,16.61-1.78,32.56-9.3,43.55-22.1a61.44,61.44,0,0,0,11.87-21.19c2.24-6.91,5.19-18-1.94-22.92a4.59,4.59,0,0,0-4.69,0c-5.65,3.52-5.36,11.71-7.41,17.42a50.79,50.79,0,0,1-9.11,15.41c-8.72,10.22-21.69,16.56-34.91,18.46a82.46,82.46,0,0,1-43.37-5.69,52.17,52.17,0,0,1-16.86-11.26c-4.57-4.59-7.85-10.2-12.42-14.76a1.85,1.85,0,0,0-3.12,1.3Z" transform="translate(3.43 3.86)"/><path class="cls-7" d="M194.34,137.64c-4.39,4.51-5.43,12.73-6.1,18.73-.38,3.32-.51,6.52-1.6,9.69s-2,6.38-1.07,9.78c1.61,5.86,7.67,9.39,12.1,12.95,5.43,4.36,10.49,8.4,17,11,8.77,3.52,15.24-11.61,6.48-15.39a21.24,21.24,0,0,1-5-2.7l-6,14.35a11.17,11.17,0,0,1,5.39,2.13L225.79,185c-3.42-1.86-6.4-2.73-10.28-1.86-2.6.58-5.17,3.64-4.88,6.41.48,4.73,2.49,7.65,6.69,9.94,8,4.36,18-7.06,10.16-13.17a31.76,31.76,0,0,0-17.25-7.08c-7-.78-11.43,9.91-5.94,14.34a36.17,36.17,0,0,0,8.37,5.37l6.49-15.4c-3.54-1.43-6.66-4.29-9.65-6.6-2.58-2-7.57-4.6-8.86-7.46l1.12,4.16c-.27-2.25,1.36-5.08,1.66-7.49a53.35,53.35,0,0,0-.24-10.79c-.5-5.73-1.37-13.29-5.32-17.73a2.52,2.52,0,0,0-3.52,0Z" transform="translate(3.43 3.86)"/><path class="cls-7" d="M189.86,145.05c-1.19,12.46.73,28.12,14.21,32.81,6.22,2.16,13.38,2.67,19.91,3,7.17.34,15,.42,21.47-2.93,5.79-3,3.63-11-1.68-12.87-5-1.8-10.74-1.5-16-1.73s-10.67-.64-16-1.21c-4.16-.45-5.45-.91-7.44-4.69-2.47-4.68-4.55-9.65-6.79-14.45-1.91-4.08-7.34-1.54-7.69,2.09Z" transform="translate(3.43 3.86)"/><path class="cls-7" d="M184.9,169.13c-7.73,4.8-6.4,14.61-2.1,21.29,5.63,8.73,11.3,17.42,17.16,26l13.32-13.32c-10-5.26-18.55-12.29-27.07-19.58-3.79-3.23-9.06-4-13.15-.78-3.5,2.78-5.67,8.91-2.58,12.92s6.23,8.34,9.3,12.54L194,194q-8.76-6.6-17.58-13.12c-8.84-6.5-20.8,6.17-14.94,14.93,4,6,7.91,12,12,17.86l15.39-15.39L168.48,186a11.27,11.27,0,0,0-14.55,2.9c-3.64,4.87-2.66,10.23.88,14.81l21.38,27.62,13.71-17.76a143.75,143.75,0,0,1-22.57-19.9c-8.59-9.24-25.43,3.14-17.81,13.75l18.21,25.34L185.59,219a274.17,274.17,0,0,0-37.83-28c-8.26-5.06-19.89,3.37-16.77,12.89,2.67,8.16,7.11,15.14,11.89,22.19,4.36,6.42,8.08,12.05,9.17,19.55l16.83-12.94c-13.82-7.71-25-19.94-30.59-34.86l-20.87,8.8a46,46,0,0,1,6.38,12.88l20.81-8.77a34.17,34.17,0,0,0-11.71-12.47c-7.71-5.1-20.55,3.58-16.69,12.83,3.62,8.7,2.33,17.24-4.9,23.75l19.29,8a357.34,357.34,0,0,1-.41-37.46H107.61a69.41,69.41,0,0,1-8.48,35.12l20.63,2.69c-3.47-14.5-1.74-29.59-.19-44.25,1.16-11-16.34-15.53-21-5.69L86.65,218.35l-6,12.53-2.55,5.38-1.71,3.58q-2.58,3.9,4.64-1.75l5.69,1.54-.85-.56,4,4c.58,3.08.86,3.71.84,1.86,0-.89.08-1.78.17-2.67.11-1.07.3-2.12.5-3.18.63-3.22,1.48-6.39,2.42-9.54,1.81-6.06,4-12,5.72-18.09,3-10.56,4.89-26.42-7.65-31.87-5.38-2.34-12.31-1.85-15.4,4C70,196.11,60.93,205.59,50.26,214.6l18.16,10.58c.92-4.12,4.35-7,7.7-10.89,4.18-4.82,7.95-10,9.16-16.42,1.53-8.16-4.72-14.47-12.9-12.9-7.63,1.47-13.49,7.79-18.29,13.5-.13.15-2.57,1.51-.41.92-1.77.48-4.73-.74-6.78-.57a17.42,17.42,0,0,0-6.21,1.77c-1.23.58-2.33,1.57-3.59,1.44l5.59,13.51c4.35-5,11.6-8.72,17.19-12.21a129.72,129.72,0,0,1,18.36-10c3.65-1.52,6.47-4.27,6.47-8.5,0-3.74-2.72-7.65-6.47-8.5-10.73-2.42-18,4.38-26.77,9.31a115.05,115.05,0,0,1-25,10.51l12.19,12.19c.75-2.61,2.81-4.44,4.61-6.44l8.31-9.25q8-8.9,16-17.8c7.57-8.41-2.06-22.34-12.44-16.12A92.63,92.63,0,0,1,9.91,172.1c-13.06.37-13.12,20.67,0,20.34A113.89,113.89,0,0,0,65.49,176.5L53.05,160.37q-9.12,10.47-18.28,20.89C29,187.85,21.9,194.4,19.58,203.11c-1.89,7.11,4.86,14.46,12.19,12.19a128.68,128.68,0,0,0,24.08-10,110.93,110.93,0,0,0,10.36-6.49c2.86-2,6-5.54,9.68-5.12l-4.44-16.42c-6.79,3.72-13.55,7.36-20,11.68q-4.45,3-8.71,6.22c-3.25,2.47-6.19,5.84-9.66,8C26.74,207,29,215,35,217.57c4.29,1.81,7.53-.23,11.75,0-1.91-.09,3.88,1.43,4.59,1.57a16.42,16.42,0,0,0,8.32-.4c4.7-1.53,8.64-4.73,12-8.28,2-2.15,3.47-4.69,6.34-5.23l-12.9-12.9c-.83,4.32-3.84,7.12-7.28,11-4.4,4.9-8,9.95-10.32,16.16-3.3,8.93,8.31,17.15,16,12.27C77.32,222.82,88.37,209.53,96,195l-15.4,4c2.54,1.1-.49-1.32-1-1.69-.67-.52,0-1.5-.09.21a28.33,28.33,0,0,1-.93,5.32c-1.51,5.83-3.54,11.51-5.37,17.25A108.17,108.17,0,0,0,69,237.53c-.92,6.5-1.89,14.1,3.24,19.23,5.49,5.49,14.2,4.79,19.63-.35,4.24-4,6.23-9.89,8.68-15.05L118,204.65,97,199c-1.78,16.85-3,33.6,1,50.25,2.23,9.37,16,11.1,20.62,2.7a92.89,92.89,0,0,0,11.57-46.51c-.27-14.57-22-14.5-22.58,0a357.34,357.34,0,0,0,.4,37.46,11.44,11.44,0,0,0,19.28,8c12.36-11.13,17.22-30.26,10.83-45.77l-16.69,12.83a11,11,0,0,1,3.52,4.34c6,11.39,24.52,3.58,20.81-8.77a66.18,66.18,0,0,0-8.62-18.36c-3.2-4.68-8.83-7.06-14.26-4.67-4.82,2.12-8.61,8.05-6.61,13.47,7.61,20.59,21.76,37.87,41,48.58,9.51,5.28,18.24-3.39,16.84-12.94-2.39-16.31-16.31-27.06-21.15-41.72l-16.76,12.89a239.61,239.61,0,0,1,33.26,24.35c4.25,3.72,10.33,4.55,14.94.89,4.07-3.25,6.29-10,2.93-14.67L169.11,196l-17.82,13.74a171.31,171.31,0,0,0,27.19,23.39c4.56,3.19,11.46,1.27,14.59-2.91,3.65-4.88,2.68-10.27-.88-14.85l-21.43-27.58-13.67,17.71,20.41,12.23c9.23,5.53,22-5.92,15.39-15.4-4.11-5.89-8.37-11.68-12.58-17.51l-14.93,14.93q9,6.15,18.13,12.18c4.26,2.84,10.46,1.24,13.38-2.67,3.28-4.39,2.57-9.52-.81-13.62s-6.66-8-9.87-12.11L172,197.68c9.84,8.26,19.77,16.62,31.41,22.24,3.94,1.9,8.58,1.7,11.8-1.53,2.83-2.83,4.05-8.37,1.53-11.8-4.34-5.89-8.71-11.73-13.2-17.5-2-2.55-4-5.08-6-7.65-.44-.58-2.51-3.78-3.07-4.1-1.42-.8.48-.63-.61.84,4-5.45-3.72-12.35-9-9.05Z" transform="translate(3.43 3.86)"/><path class="cls-7" d="M20.54,162.06c4.25,1.4,8.32,3.26,12.63,4.52,3.78,1.11,7.59,2.15,11.31,3.47,8.2,2.92,15.34,7.51,22.07,13,6.16,5,14.6-2.92,8.89-8.89-7-7.37-16-15.33-25.59-19.12-6.79-2.67-11.05,6.92-6.71,11.52,6.47,6.85,16.22,10.42,23.41,16.49l7.62-9.88a104.51,104.51,0,0,0-26-13.25,48.19,48.19,0,0,0-27.61-2.11c-2.26.46-1.92,3.61,0,4.25Z" transform="translate(3.43 3.86)"/><path class="cls-7" d="M-2.19,151.1c8.46,5.28,18.08,6.73,27.86,7.54s20.64,1.73,30.34-.22c7.61-1.53,5-11.94-1.7-12.61-9.38-.94-19.17.12-28.64-.34-9.18-.45-18.17-1.13-27.23.84-2.3.49-2.45,3.66-.63,4.79Z" transform="translate(3.43 3.86)"/><path class="cls-7" d="M194.45,133.65c3.72,4.21,11.05,1.74,15.52.14,5.86-2.1,11.63-4.77,17.27-7.4s11.26-5.17,16.8-8c5.91-3,11.59-5.08,12.48-12.31.27-2.16-1.38-4.21-3-5.3-5.77-3.83-12.5.52-18,2.91-6.29,2.7-12.47,5.69-18.68,8.58-5.1,2.38-30,12.6-22.31,21.33Z" transform="translate(3.43 3.86)"/><path class="cls-7" d="M205,139.07c7.44,2.93,13.94-.08,20.69-3.34s13.72-5.27,20.41-8.37c6.9-3.18,3.71-15.62-4-14.7-7.46.89-14.11,3.52-20.88,6.71-6.05,2.86-11.48,6.83-17.56,9.57-4.85,2.18-2.58,8.59,1.32,10.13Z" transform="translate(3.43 3.86)"/><path class="cls-7" d="M186.79,93.77c7.81,2.64,16.6.26,24.5-1.08,8.3-1.4,17.31-2.38,24.87-6.26a4.69,4.69,0,0,0,2.36-4.13,5.77,5.77,0,0,0-.65-2.41,4.7,4.7,0,0,0-4.13-2.37c-8.18-.07-16.45,2.72-24.43,4.3-7.77,1.53-16.53,1.87-23.25,6.38a3.09,3.09,0,0,0,.73,5.57Z" transform="translate(3.43 3.86)"/><path class="cls-7" d="M174.81,86.9c4.87-1.86,8.67-3.24,12.64-6.78A93.36,93.36,0,0,0,197.8,68.7c7.43-9.23,14.59-18.62,21.64-28.14l-12.15-7.11A430.61,430.61,0,0,0,174,86.29c-2.18,4.15-.06,8,4,9.71l1.15.48c2.26,1,4.72-.32,6.42-1.69l.75-.61c3-2.38,1.89-7.6-1.19-9.28a12.75,12.75,0,0,0-2-1l2.37,9c9.54-17.84,20.31-35.15,32.94-51,2.39-3,2.87-7,0-9.95-2.45-2.5-7.56-3-10,0-6.84,8.43-13.59,16.9-20.09,25.59-2.82,3.77-5.67,7.5-8.49,11.26-1.36,1.82-2.84,3.55-4.24,5.34-1.6,2.06-2.68,4.5-4.36,6.49-2.14,2.52-.19,7.63,3.6,6.19Z" transform="translate(3.43 3.86)"/><path class="cls-7" d="M22,79.94c1,6.55,10.89,12.83,15.78,16.54,6.86,5.22,13.75,10.32,21,15,6.53,4.28,14.6-5.85,8.46-11-6.86-5.72-14-11.07-21.21-16.25-5.2-3.7-14.4-11.53-21.18-9.33a4.17,4.17,0,0,0-2.82,5Z" transform="translate(3.43 3.86)"/><path class="cls-7" d="M7.79,113.28c3.64,4.93,6.9,8.3,12.34,11.37A64.65,64.65,0,0,0,36.8,131.2c7.46,1.79,10.57-9.39,3.17-11.51-9.53-2.73-18.52-7.11-27.56-11-2.67-1.16-6.88,1.55-4.62,4.61Z" transform="translate(3.43 3.86)"/><path class="cls-7" d="M38,104.16c2.59,2.45,4.52,5,7.46,7.14s6.43,4.8,8.51,7.85l4-7c-6.85.37-12.23,4-18.49,6.33-1.42.52-3,1.62-3.28,3.28a5.7,5.7,0,0,0,.48,3.62,4.54,4.54,0,0,0,4.05,2.33c6.93-.45,11.85-5.35,18.47-6.47,4.35-.74,3.95-6.38,1.1-8.46-3.32-2.43-6.23-5.31-9.7-7.58-3.81-2.5-6.77-2.91-11.14-3.59-1.36-.21-2.65,1.38-1.46,2.51Z" transform="translate(3.43 3.86)"/><path class="cls-7" d="M51,72.25c5.55,2.69,11.17,2.47,17.18,3s13.6,3.54,19.56,1.89a2.75,2.75,0,0,0,1.2-4.55c-4.25-4-11.55-4.18-17.13-4.46-6.54-.33-13.12.46-19.63-.26-2.3-.25-3.21,3.38-1.18,4.37Z" transform="translate(3.43 3.86)"/><path class="cls-8" d="M61.47,140.44c12-21.88,23.15-44.22,47.34-54.76,10.83-4.72,24.72-7.78,35.63-1.76C150,87,154.8,91.35,159.69,95.39,164.9,99.69,171,107,178,107.2c3.91.09,6.25-3.71,5.52-7.24-.95-4.54-4.57-6.82-7.94-9.64l-10.33-8.68c-5.68-4.75-11.4-9.47-18.3-12.33-13.55-5.62-30-3-43,2.9-25.54,11.44-45.25,39-47,67-.15,2.39,3.34,3.23,4.46,1.21Z" transform="translate(3.43 3.86)"/><path class="cls-8" d="M147.6,68.39C153.43,65.5,159.29,63,165,59.71q8.79-5.12,17.69-10c5.68-3.13,11.46-6.06,17.17-9.12,5.44-2.91,11.9-5.64,15.95-10.42a2.37,2.37,0,0,0-1.65-4c-6.44-.62-13.06,2.41-18.87,4.86a169.65,169.65,0,0,0-18.17,9.15A192.94,192.94,0,0,0,160,51.27c-2.7,1.95-5.23,4.11-7.76,6.27-2.76,2.38-4.63,5.1-7.07,7.76a2,2,0,0,0,2.39,3.09Z" transform="translate(3.43 3.86)"/><path class="cls-8" d="M94.17,74.81c5.18-11.56,5-24.06,6.54-36.47,1.46-11.88,3.61-24.73,10.4-34.85l-9-1.17c2.52,12,7.15,23.43,11.47,34.93q3.08,8.18,6.29,16.3c2.25,5.71,4,10.37,9,14.08,1.8,1.31,4.71,0,5.16-2.11,1.33-6-.48-10.58-2.51-16.2q-3.14-8.67-6.38-17.28C121,20.67,117,9.19,111.11-1.47a5,5,0,0,0-8.49,0,95.66,95.66,0,0,0-11,34.57C90,46.44,88.8,60.24,89.8,73.63c.16,2.07,3.33,3.5,4.37,1.18Z" transform="translate(3.43 3.86)"/><path class="cls-8" d="M138,49.46c5.48-4.86,11.42-9.15,16.94-14,5.36-4.67,11.69-9.2,16.11-14.79,3.9-5-.93-12.93-7.16-9.28C150.72,19.15,141.59,33.49,133,45.6c-2.19,3.09,2.44,6.14,5,3.86Z" transform="translate(3.43 3.86)"/><path class="cls-8" d="M42.73,50.44c14,3.12,27,8.78,40.09,14.29,2.18.92,4.66-.65,5.84-2.38a5.52,5.52,0,0,0,.71-2.61c.29-2.35-1.84-4.28-3.8-5-13.5-4.9-27.34-11.19-42-10.76C40,44.1,39,49.6,42.73,50.44Z" transform="translate(3.43 3.86)"/><path class="cls-8" d="M30,78.91c9.47,1.83,18.89,2.46,28.5,3.14,4.73.34,9.44.62,14.18.85,4.22.21,8.54.93,12.3-1.38a2,2,0,0,0,.41-3.16c-2.86-3.09-6.82-3.47-10.83-4-4.72-.63-9.41-1.06-14.17-1.26-9.92-.42-19.7-.84-29.61,0-3.08.26-4.29,5.12-.78,5.8Z" transform="translate(3.43 3.86)"/><path class="cls-8" d="M9.3,110.07a144.6,144.6,0,0,0,18.48,1.6c5.34.19,12.48,2.07,17.2-.93a2.7,2.7,0,0,0,.54-4.2c-4.27-3.8-11.35-3-16.75-3A72,72,0,0,0,9.3,105.64c-2.06.54-2.31,4,0,4.43Z" transform="translate(3.43 3.86)"/><path class="cls-8" d="M3.87,149c8.78-3,17.46-6.16,26.11-9.56,7.75-3,16.44-5.75,22.48-11.6a1.71,1.71,0,0,0-1.2-2.88c-8.72-.18-17.24,4.12-25.21,7.41-8.33,3.44-16.39,7.2-24.49,11.14-3,1.48-.91,6.6,2.31,5.49Z" transform="translate(3.43 3.86)"/><path class="cls-8" d="M6.17,176.31a54.84,54.84,0,0,0,16.35-13c3.76-4.58-2-10.59-6.57-6.57C11,161.1,6.43,165.89,1.68,170.5c-3.06,3,.84,7.82,4.49,5.81Z" transform="translate(3.43 3.86)"/><path class="cls-8" d="M234.73,137.13c7,3.21,16.39,7.32,24,4.38a2.29,2.29,0,0,0,1-3.76c-5.26-6.13-15.47-7-23.1-7.43-3.5-.2-5.15,5.28-1.85,6.81Z" transform="translate(3.43 3.86)"/><path class="cls-8" d="M183.09,101.67c9.89,3.26,21,2.53,31.32,2.68,10.54.16,21.38.64,31.42-2.94a3.93,3.93,0,0,0,0-7.5c-10.1-3.39-20.89-2.72-31.42-2.37-10.3.34-21.48-.19-31.32,3.26a3.59,3.59,0,0,0,0,6.87Z" transform="translate(3.43 3.86)"/><path class="cls-8" d="M197.87,77.52c6-.81,11.37-3,17.13-4.82,2.78-.87,5.62-1.68,8.45-2.36s5.46-.11,8-1.87a2.73,2.73,0,0,0,.54-4.2c-3.69-4.17-12.13-2.91-17-1.62a54.54,54.54,0,0,0-18.69,9.1c-2.08,1.57-1.87,6.23,1.57,5.77Z" transform="translate(3.43 3.86)"/></g></g><path class="cls-9" d="M84.25,125.54c5-.73,9.4-.91,14.16,1.16,3.72,1.61,5.85,4.44,9,6.77,1.33,1,2.82-.4,3-1.7,1.17-11.07-23.25-19-27.93-8.64a1.66,1.66,0,0,0,1.85,2.41Z" transform="translate(3.43 3.86)"/><path class="cls-9" d="M146.24,126.61c-.09-4,8.5-5.19,11.46-5.65,4-.63,8.14.2,12.09-.54a2.07,2.07,0,0,0,1.23-3C166.9,111.3,157.75,113,151.8,115c-5.54,1.84-11.91,5.26-9.52,12.17.71,2.06,4,1.85,4-.54Z" transform="translate(3.43 3.86)"/><path class="cls-9" d="M102.75,152.24c5.3.69,8.47,6.21,9.71,10.91,1.12,4.26.1,8.1-1.35,12.11A1.5,1.5,0,0,0,113,177.1c15.15-5.66,1.59-35.71-10.84-27.22a1.28,1.28,0,0,0,.64,2.36Z" transform="translate(3.43 3.86)"/><path class="cls-9" d="M145.33,146.18c-4.29,5.27-6.77,12.65-4.16,19.3a8.77,8.77,0,0,0,5.93,5.64c2.67.63,5.31-.23,6.09-3a1.81,1.81,0,0,0-1.25-2.19c-1.38-.33-3.22-.11-4.38-1-1.4-1.11-1.5-3.61-1.53-5.22a20,20,0,0,1,3.13-10.53c1.41-2.3-2-5.14-3.83-3Z" transform="translate(3.43 3.86)"/><path class="cls-9" d="M117.47,163.07c9.33,10.14,28.14,4.56,28-9.91a1.37,1.37,0,0,0-2.53-.68c-5.45,8.2-14.11,12.15-23.49,8a1.65,1.65,0,0,0-2,2.57Z" transform="translate(3.43 3.86)"/><path class="cls-9" d="M105.09,97.06a79.41,79.41,0,0,0,5.64,7.75c1.79,2.11,4.43,5.28,7.31,5.67,1.68.24,3.32-1,2.83-2.82-.74-2.77-3.62-4.84-5.64-6.72-2.28-2.14-4.59-4.22-6.76-6.49-1.66-1.74-4.75.54-3.38,2.61Z" transform="translate(3.43 3.86)"/><path class="cls-9" d="M136.63,108.76c1.81-2.64,3.75-5.19,5.59-7.8,1.52-2.14,3.48-5,3.46-7.72A1.71,1.71,0,0,0,144,91.55c-3.12.29-5.84,3-7.62,5.44a38.8,38.8,0,0,0-5,9.56c-1.21,3.2,3.51,4.72,5.23,2.21Z" transform="translate(3.43 3.86)"/><path class="cls-9" d="M71.89,136.53l-.17.22a2.28,2.28,0,0,0-.62,1,2.22,2.22,0,0,0-.26,1.16l.1.81a3.15,3.15,0,0,0,.78,1.33l.17.22.68.52.79.33a2.51,2.51,0,0,0,1.33.06,1.65,1.65,0,0,0,.84-.22,1.75,1.75,0,0,0,.73-.43,1.72,1.72,0,0,0,.6-.6,1.65,1.65,0,0,0,.43-.73,2.49,2.49,0,0,0,.28-1.29l-.12-.88-.33-.8-.52-.67-.67-.52-.8-.33a2.5,2.5,0,0,0-1.33-.06,1.65,1.65,0,0,0-.84.22,2.6,2.6,0,0,0-1.07.69Z" transform="translate(3.43 3.86)"/><path class="cls-9" d="M73.22,153.31a2.47,2.47,0,0,0,1.23-.28,2.4,2.4,0,0,0,1-.66,2.43,2.43,0,0,0,.66-1,2.36,2.36,0,0,0,.27-1.23l-.11-.85a3.24,3.24,0,0,0-.82-1.41l-.65-.49a3.12,3.12,0,0,0-1.61-.44,2.36,2.36,0,0,0-1.22.28,2.29,2.29,0,0,0-1,.65,2.47,2.47,0,0,0-.66,1,2.36,2.36,0,0,0-.27,1.23l.11.85a3.21,3.21,0,0,0,.82,1.4l.65.5a3.21,3.21,0,0,0,1.6.44Z" transform="translate(3.43 3.86)"/><path class="cls-9" d="M82.42,149.78a2.77,2.77,0,0,0,1.44-.32,2.82,2.82,0,0,0,1.21-.77,2.88,2.88,0,0,0,.77-1.21,2.79,2.79,0,0,0,.33-1.45L86,145a3.8,3.8,0,0,0-1-1.66l-.76-.58a3.84,3.84,0,0,0-1.89-.52,2.79,2.79,0,0,0-1.45.33,2.88,2.88,0,0,0-1.21.77,2.82,2.82,0,0,0-.77,1.21,2.77,2.77,0,0,0-.32,1.44l.13,1a3.8,3.8,0,0,0,1,1.66l.76.58a3.73,3.73,0,0,0,1.9.51Z" transform="translate(3.43 3.86)"/><path class="cls-9" d="M166.16,143.6c4.1,0,4.11-6.37,0-6.37s-4.11,6.37,0,6.37Z" transform="translate(3.43 3.86)"/><path class="cls-9" d="M168.71,133.48c3.56,0,3.57-5.53,0-5.53s-3.56,5.53,0,5.53Z" transform="translate(3.43 3.86)"/><path class="cls-9" d="M174.84,138.89a1,1,0,0,0,0-2.06,1,1,0,0,0,0,2.06Z" transform="translate(3.43 3.86)"/><path class="cls-9" d="M173.82,140.26a2.27,2.27,0,0,0,1.12-.25,2.59,2.59,0,0,0,1.54-1.54,2.25,2.25,0,0,0,.25-1.12l-.11-.77a2.9,2.9,0,0,0-.74-1.28l-.59-.46a2.94,2.94,0,0,0-1.47-.39,2.07,2.07,0,0,0-1.12.25,2.11,2.11,0,0,0-.94.6,2.2,2.2,0,0,0-.6.93,2.27,2.27,0,0,0-.25,1.12l.11.78a2.9,2.9,0,0,0,.74,1.28l.59.45a2.85,2.85,0,0,0,1.47.4Z" transform="translate(3.43 3.86)"/><path class="cls-10" d="M31.84,129.75c-10.36-3.8-19.36-9.14-21.59-16.47-3.09-10.2,16-10.69,34.91-8.83" transform="translate(3.43 3.86)"/><path class="cls-10" d="M42.51,180.57c-10.84,1.18-22.9.54-32.26-5.13-10-6.05,1-14.18,16.2-21.31" transform="translate(3.43 3.86)"/><path class="cls-10" d="M82,212.52c-6.8,7.34-15.74,14.24-25.73,14.91-11,.74-7.64-12.51-1.51-26" transform="translate(3.43 3.86)"/><path class="cls-10" d="M130.65,223.68c-1.47,13.39-5.18,28.35-14.34,29.81-6.46,1-11-7.38-14.25-18.17" transform="translate(3.43 3.86)"/><path class="cls-10" d="M175.85,205.14c5.91,10.76,10.77,22.94,6.59,28.59-3.53,4.76-13.13-.11-23.06-7.33" transform="translate(3.43 3.86)"/><path class="cls-10" d="M212.57,175.6c9.13,7.44,16.32,15.11,15.8,20.51-.54,5.73-11.3,5-23.94,2.15" transform="translate(3.43 3.86)"/><path class="cls-10" d="M217,123.87c19.63,4.35,39.21,10.87,39,19.53-.16,6.09-9.88,8.95-22.43,10.11" transform="translate(3.43 3.86)"/><path class="cls-10" d="M198.22,71.14c14.43-4.47,28.79-7.22,35.59-3.54,7.73,4.19-4.54,15.62-19.56,26.47" transform="translate(3.43 3.86)"/><path class="cls-10" d="M129.11,48.18c12.81-15.07,28.37-31.26,36-31.26,6.58,0,5.57,14.72,2.55,30.66" transform="translate(3.43 3.86)"/><path class="cls-10" d="M51.49,73.7c-6.93-10.93-11.45-21.3-7.77-26,5.7-7.31,28.05,3.48,45,13.27" transform="translate(3.43 3.86)"/><path class="cls-10" d="M61.25,113.39c-13-7.74-41.59-25.81-38.88-34,3.5-10.55,64.78,0,64.78,0" transform="translate(3.43 3.86)"/><path class="cls-10" d="M57.66,157.92c-14.35-1-54.77-4.34-54.77-10.42,0-5.7,38.3-20.69,55.93-27.28" transform="translate(3.43 3.86)"/><path class="cls-10" d="M81.75,187c-13.54,8.34-48.24,28.8-53.18,22.74-5.16-6.33,22.33-38.27,31.3-48.37" transform="translate(3.43 3.86)"/><path class="cls-10" d="M117.46,201.88c-3.87,10.23-19.93,51-30.31,50.93-9.71-.1-3.55-46.26-1-63.15" transform="translate(3.43 3.86)"/><path class="cls-10" d="M152,197.89c4.41,13.11,13.74,44.35,5.79,53.49-8.61,9.88-31-34.23-37.63-47.89" transform="translate(3.43 3.86)"/><path class="cls-10" d="M138.53,68.13c12.25-8.63,66.21-46,72.32-39.17C217.74,36.69,185,94.53,185,94.53s67.21-2.84,63.76,7.58-51.7,33.14-51.7,33.14,57.7,25.23,51.83,34.57-60.81,6.24-60.81,6.24,28.51,32.42,25.07,41.32c-2.54,6.53-35.43-10.2-52.73-19.55" transform="translate(3.43 3.86)"/><path class="cls-10" d="M87.15,79.41c.76-4.8,8.8-73.24,19.14-76.36C115.53.26,132,55.71,135.44,67.64" transform="translate(3.43 3.86)"/><path class="cls-11" d="M84.29,85.51a63.83,63.83,0,0,1,44.88-17.24c14.48.34,39,10.57,49.57,26.17,16.93,24.86,17.21,37.42,13.11,58.75-.34,1.76-3.72,17.37-11,25.51-9.59,10.71-13.56,20.54-46.64,23.32-18.94,1.6-36.76-5.69-49.47-12.86A54.15,54.15,0,0,1,57.1,142.55a97.24,97.24,0,0,1,1.64-18.49C61.39,109.55,73.62,95.42,84.29,85.51Z" transform="translate(3.43 3.86)"/></g></g></svg>