<svg xmlns="http://www.w3.org/2000/svg" xmlns:xlink="http://www.w3.org/1999/xlink" viewBox="0 0 397.27 380.34"><defs><style>.cls-1,.cls-8,.cls-9{fill:none;}.cls-2{fill:#fcfa33;}.cls-2,.cls-8{stroke:#cb6728;}.cls-2,.cls-3,.cls-8,.cls-9{stroke-linecap:round;stroke-linejoin:round;stroke-width:5px;}.cls-3{fill:#f98435;}.cls-3,.cls-9{stroke:#c93f28;}.cls-4{opacity:0.33;}.cls-5{clip-path:url(#clip-path);}.cls-6{fill:#901a3d;}.cls-7{fill:#e6fff2;}</style><clipPath id="clip-path" transform="translate(16.3 6.02)"><path class="cls-1" d="M349.83,230.25c-23.77-13.91-85.75-22.46-108.37-24.37a64,64,0,0,0,2.26-12.69c27.92-.27,64.75-4.85,68.32-5.09a71.94,71.94,0,0,0,15.62-1.46c7.92-1.88,10-7.42-3.49-12.35-11.35-4.14-12.73-5.83-13.63-10.22-.43-2.08,2.92-8,4.48-9.47,6.19-5.74,19.82-22-4.11-16.12-15.82,3.91-47.09,18.68-69.85,30.65A64.6,64.6,0,0,0,236,157c25.68-8.07,78.3-46.3,83-49.41.3-.19,9.18-4.84,15.71-10.87,7.28-6.71,6.2-13.83-11.06-11-14.5,2.37-17,1.4-20.55-2.72-1.69-2-1.68-10.25-.89-12.72,3.15-9.78,5.27-37.66-14-14.65-16.82,20.12-49.29,69.86-60.27,90a65,65,0,0,0-11-10c16.5-22,34.84-53.31,36.76-56.31a71.07,71.07,0,0,0,8.14-13.43c3.21-7.47,0-12.46-12-4.55-10.09,6.65-12.28,6.76-16.34,4.86-1.92-.9-4.7-7.12-4.93-9.24-.92-8.4-5.89-29-15.4-6.31-6.44,15.41-13.57,49.86-17.62,74.89a65,65,0,0,0-16.44-2.13c-.54,0-1.07,0-1.61.05C187.65,99.16,192,35.66,192.29,30c0-.34,1.57-10.25.63-19.08-1-9.85-7.42-13.23-15.44,2.31-6.74,13.06-9,14.48-14.43,14.89-2.58.19-9.23-4.76-10.74-6.86-6-8.37-23.54-27.31-20.09,2.47,3.26,28.11,23.86,83.88,32.51,101.33a63.74,63.74,0,0,0-13.85,4.87c-10.37-23.94-25.3-54.73-35.55-67-15.79-18.92-14.45,2.27-12.85,10.57.4,2.09-.42,8.85-2,10.28-3.32,3-5.44,3.55-17,.17-13.8-4-15.39,1.68-10.12,7.88a71.1,71.1,0,0,0,11.73,10.43c2.54,2.15,25,25.63,45.44,43.2a65.26,65.26,0,0,0-6.43,8.6c-15.18-14.85-59.39-51.41-84.55-62.51C12.07,79.38,25,101.75,31.2,109.94c1.57,2.06,4.33,9.88,3.38,12.29-2,5.07-4,6.8-18.49,9.38C-1.12,134.68.23,141.76,9.32,145.68c8.16,3.51,18.09,4.95,18.42,5,5.4,1.33,63.17,17.15,90.12,16.28a65.14,65.14,0,0,0-2.8,11.35c-25-5.06-57.59-10.38-73.35-11.16-24.62-1.22-8.13,12.15-.94,16.61,1.8,1.12,6.23,6.31,6.21,8.44,0,4.48-1.08,6.4-11.43,12.64-12.31,7.41-9.2,12.45-1.06,12.78a72,72,0,0,0,15.62-1.55c3.4-.43,38.43-5.66,66-12.52A64.64,64.64,0,0,0,121,216.83c-22.45,3.1-78.27,15.5-102.39,27.51-26.84,13.37-1.37,17.74,8.9,18.19,2.58.11,10.36,3,11.61,5.25,2.63,4.78,2.67,7.43-4.59,20.22-8.64,15.2-2.33,18.69,6.49,14.19,7.91-4,15.36-10.75,15.64-10.95,4.52-3.34,55.81-40.27,72.22-62.14a65.34,65.34,0,0,0,10.51,10.25c-16.58,20.42-37.68,48.68-45.26,63-11.49,21.8,7.6,12.5,14.66,7.86,1.78-1.16,8.35-3,10.28-2.06,4,1.92,5.34,3.68,6.63,15.69,1.53,14.29,7.41,13.59,11.14,6.36A71.88,71.88,0,0,0,142,315.43c1-3.28,12.78-37.15,19.45-64.9A64.5,64.5,0,0,0,177.26,253c-7.22,19.5-22.1,71.88-21.37,99.24.79,30,15.5,8.73,20.23-.39,1.2-2.3,7.08-8.14,9.67-8.31,5.44-.37,7.87.72,16.39,12.69,10.13,14.25,16,10,15.61.11-.32-8.88-3.26-18.47-3.33-18.81-1.12-5.5-10.91-63.1-23.12-85.65a64,64,0,0,0,17.37-6c11.07,27.32,31.41,63.89,32.7,67.35a71.67,71.67,0,0,0,5.83,14.58c3.45,6,10.56-2.12,10.85-6.85.76-12.06,2-13.87,5.94-16,1.88-1,8.52.52,10.35,1.61,7.26,4.31,26.75,12.76,14.3-8.51-9.15-15.62-41.47-46.19-62.93-64.88a64.9,64.9,0,0,0,10.15-13.73c18.07,20.45,68.65,51.51,72.81,55,.26.22,7.24,7.42,14.87,12,8.5,5.08,15,2,7.43-13.73-6.38-13.24-6.16-15.89-3.22-20.47,1.4-2.19,9.35-4.53,11.94-4.46C350,248.05,375.71,245.4,349.83,230.25Z"/></clipPath></defs><g id="Calque_2" data-name="Calque 2"><g id="Warstwa_17" data-name="Warstwa 17"><path class="cls-2" d="M349.83,230.25c-23.77-13.91-85.75-22.46-108.37-24.37A64.85,64.85,0,0,0,236,157c25.68-8.07,78.3-46.3,83-49.41.3-.19,9.18-4.84,15.71-10.87,7.28-6.71,6.2-13.83-11.06-11-14.5,2.37-17,1.4-20.55-2.72-1.69-2-1.68-10.25-.89-12.72,3.15-9.78,5.27-37.66-14-14.65-16.82,20.12-49.29,69.86-60.27,90a64.65,64.65,0,0,0-48.86-22.26c-.54,0-1.07,0-1.61.05C187.65,99.16,192,35.66,192.29,30c0-.34,1.57-10.25.63-19.08-1-9.85-7.42-13.23-15.44,2.31-6.74,13.06-9,14.48-14.43,14.89-2.58.19-9.23-4.76-10.74-6.86-6-8.37-23.54-27.31-20.09,2.47,3.26,28.11,23.86,83.88,32.51,101.33a64.86,64.86,0,0,0-40.67,29c-15.18-14.85-59.39-51.41-84.55-62.51C12.07,79.38,25,101.75,31.2,109.94c1.57,2.06,4.33,9.88,3.38,12.29-2,5.07-4,6.8-18.49,9.38C-1.12,134.68.23,141.76,9.32,145.68c8.16,3.51,18.09,4.95,18.42,5,5.4,1.33,63.17,17.16,90.12,16.28a64.91,64.91,0,0,0,3.1,49.84c-22.45,3.1-78.27,15.5-102.39,27.51-26.84,13.37-1.37,17.74,8.9,18.19,2.58.11,10.36,3,11.61,5.25,2.63,4.78,2.67,7.43-4.59,20.22-8.64,15.2-2.33,18.69,6.49,14.19,7.91-4,15.36-10.75,15.64-10.95,4.52-3.34,55.81-40.27,72.22-62.14A64.64,64.64,0,0,0,177.26,253c-7.22,19.5-22.1,71.88-21.37,99.24.79,30,15.5,8.73,20.23-.39,1.2-2.3,7.08-8.14,9.67-8.31,5.44-.37,7.87.72,16.39,12.69,10.13,14.25,16,10,15.61.11-.32-8.88-3.26-18.47-3.33-18.81-1.12-5.5-10.91-63.1-23.12-85.65a64.87,64.87,0,0,0,44.56-32.4c18.07,20.45,68.65,51.51,72.81,55,.26.22,7.24,7.42,14.87,12,8.5,5.08,15,2,7.43-13.73-6.38-13.24-6.16-15.89-3.22-20.47,1.4-2.19,9.35-4.53,11.94-4.46C350,248.05,375.71,245.4,349.83,230.25Z" transform="translate(16.3 6.02)"/><path class="cls-3" d="M324.17,174.29c-11.35-4.14-12.73-5.83-13.63-10.22-.43-2.08,2.92-8,4.48-9.47,6.19-5.74,19.82-22-4.11-16.12-21.27,5.25-70.47,30.16-89.36,41.45a43.25,43.25,0,0,0-18.68-27.86c17.87-16.8,48.31-68.87,50.82-72.78a71.07,71.07,0,0,0,8.14-13.43c3.21-7.47,0-12.46-12-4.55-10.09,6.65-12.28,6.76-16.34,4.86-1.92-.9-4.7-7.12-4.93-9.24-.92-8.4-5.89-29-15.4-6.31-8.7,20.8-18.65,76.33-20.57,96.49a43.29,43.29,0,0,0-33.5,2.76c-8.59-22.4-30.26-70.81-43.77-87-15.79-18.92-14.45,2.27-12.85,10.57.4,2.09-.42,8.85-2,10.28-3.32,3-5.44,3.55-17,.17-13.8-4-15.39,1.68-10.12,7.88a71.1,71.1,0,0,0,11.73,10.43c3.3,2.79,40.1,41.4,62.44,56.53a43.06,43.06,0,0,0-11.31,24.33c-22.94-5.8-73.57-14.84-94.47-15.87-24.62-1.22-8.13,12.15-.94,16.61,1.8,1.12,6.23,6.31,6.21,8.44,0,4.48-1.08,6.4-11.43,12.64-12.31,7.41-9.2,12.45-1.06,12.78a72,72,0,0,0,15.62-1.55c4.36-.55,60.7-9,86.76-18.64a43.31,43.31,0,0,0,16.39,25.41c-15.61,17.41-49.17,60.57-59.17,79.53-11.49,21.8,7.6,12.5,14.66,7.86,1.78-1.16,8.35-3,10.28-2.06,4,1.92,5.34,3.68,6.63,15.69,1.53,14.29,7.41,13.59,11.14,6.36A71.88,71.88,0,0,0,142,315.43c1.35-4.21,20.29-58.79,23.53-86.18a43.24,43.24,0,0,0,36.5-4.38c3.81,23.32,37.72,83.82,39.39,88.32a71.67,71.67,0,0,0,5.83,14.58c4,7.06,10,7.49,10.85-6.85.76-12.06,2-13.87,5.94-16,1.88-1,8.52.52,10.35,1.61,7.26,4.31,26.75,12.76,14.3-8.51-12.22-20.88-65.83-68.45-79.6-78.7a43,43,0,0,0,13.09-27.3c24.42,4,85.23-3.63,89.87-4a71.94,71.94,0,0,0,15.62-1.46C335.58,184.76,337.68,179.22,324.17,174.29Z" transform="translate(16.3 6.02)"/><g class="cls-4"><g class="cls-5"><path class="cls-6" d="M197.83,229.92c-1,10.65,4.29,21.69,8.29,31.41,4.46,10.82,9.06,21.55,14,32.15q7.08,15.15,14.5,30.15c2.4,4.86,4.81,9.71,7.27,14.54,3.2,6.27,5.77,11.74,12.66,14.47,4.54,1.8,10.38-2,11.42-6.48,1.52-6.57-1.51-11.61-4.44-17.26-2.64-5.09-5.34-10.14-8-15.23q-7.68-14.85-15-29.86c-4.75-9.7-9.58-19.37-14.37-29.06s-9.41-21.5-18-28.28c-3.41-2.69-7.9-1-8.32,3.45Z" transform="translate(16.3 6.02)"/><path class="cls-6" d="M162.11,228.83c-6.71,6.37-9.77,17.57-13.19,25.93-3.15,7.67-6.71,15.15-10,22.75a242.06,242.06,0,0,0-17,56.66c-1.92,11.42,12.84,15.32,17.17,4.73,7.28-17.82,11.07-36.7,18.83-54.36,3.64-8.29,7.39-16.69,10.16-25.32,2.89-9,5.59-20.4,1.63-29.41-1.3-3-5.55-2.9-7.58-1Z" transform="translate(16.3 6.02)"/><path class="cls-6" d="M35.05,213.19c16.92,1.21,34.1-.63,51-1.59a238.48,238.48,0,0,0,25.72-2.54c8.19-1.35,18.56-2.89,24.87-8.66,5.5-5,.86-13.32-5.7-13.76-4.26-.29-8.59,1.32-12.73,2.24s-8.16,1.7-12.29,2.29c-8.09,1.16-16.24,1.78-24.39,2.35-16.68,1.15-34.38,1.25-49,10.23-4.46,2.73-2.36,9.09,2.55,9.44Z" transform="translate(16.3 6.02)"/><path class="cls-6" d="M70.4,88c5.38,6.54,10.36,13.21,16.14,19.42,5.94,6.38,12.12,12.46,18.4,18.51,6,5.8,12.06,11.62,18.26,17.25,6.38,5.78,12.24,12.23,20.66,14.83,5.29,1.63,8.63-4.26,6.61-8.61-3.52-7.61-10.71-12.56-16.84-18S121,120.28,114.78,114.68,102.31,103.45,95.94,98,82.68,87.58,76.1,82.26A4,4,0,0,0,70.4,88Z" transform="translate(16.3 6.02)"/><path class="cls-6" d="M203.19,152.48c7.26-5.59,12.67-12.82,18.14-20.09,5.8-7.72,11.23-15.82,16.42-23.95,5-7.88,9.91-15.86,14.48-24,2.28-4.07,4.51-8.17,6.55-12.37,2.35-4.85,5.27-9.47,3.56-15-1.57-5.07-6.57-6.48-11.08-4.51-4.88,2.12-6.55,7.63-8.83,12.07-2,3.88-4,7.75-6.06,11.58-4.34,7.92-9,15.69-13.73,23.36s-9.66,15.29-14.25,23.06-9.42,16-11.68,24.84c-.85,3.35,3.25,7.46,6.48,5Z" transform="translate(16.3 6.02)"/><path class="cls-6" d="M227.37,193c4.27.75,8.34,1.83,12.67,2.13,4.53.31,9.08.42,13.62.48,9.42.11,18.82.43,28.24.73q13.59.44,27.13,1.58c7.9.66,20.05,2.21,25.69-4.68,3.7-4.52,2.88-12.14-3.62-13.71-4.31-1.05-8.11.31-12.4.44s-8.33-.29-12.49-.57c-8.73-.58-17.51-1-26.26-1s-17.57.44-26.29,1.23c-4.55.41-9,1.08-13.53,1.86s-8.44,2.49-12.76,4.1c-3.17,1.19-4.1,6.7,0,7.42Z" transform="translate(16.3 6.02)"/><path class="cls-6" d="M247.23,189.33c-2.82-2.1-8.73-3-12.16-3.76-6.48-1.53-11.95,1.09-14.87,7-1.92,3.92-2.71,8.44-4,12.6-.51,1.64-1,3.29-1.57,4.91-.51,1.4-.27.46-.48,1.19-.54,1.94-2.7,1.64,1.41-.89-5.57,3.42-7.54,12.19-2.18,16.9,5.63,4.94,11.37,4.7,18,2.21,11.13-4.17,9.22-19.53-2.78-20.54a12,12,0,0,0-4.73.45c-2.29.74-2.14-.21.84.67l4.75,2.77-.88-.78L226.42,229c10.65-6.45,9.59-21.13,13.62-31.38l-4.54,5.91c-1.16.66.88.13,1.16.06a23,23,0,0,0,4.24-1.84,17.19,17.19,0,0,0,5.5-4.45c1.93-2.25,3.89-5.68.83-8Z" transform="translate(16.3 6.02)"/><path class="cls-6" d="M189.06,231.72a29.23,29.23,0,0,0-2.58,5.8l18.69-4.93-.76-.78,2.88,4.95,0,.88-1.54,5.7.44-1-20.75-2.71.29.69,1.15-8.77q5.23-3.85,2-2.73c-.93.25-1.86.5-2.79.73-1.55.39-3.11.76-4.67,1.11s-3.13.67-4.7,1l-1.89.36q-5,.65,2.4.66c-3.79-2.88-10.09-1.42-13.21,1.7a11.22,11.22,0,0,0-1.71,13.21c5.67,10.82,18.63,6.84,28,4.59,4.64-1.12,9.76-2,13.38-5.37,4.68-4.34,5.32-10.31,2.51-15.91-4.72-9.41-17.71-5.78-20.75,2.71a13.88,13.88,0,0,0,3.89,14.81c6.68,5.84,19.87,2.47,19.1-7.91-.41-5.51-2.06-9-6.62-12.13-4.24-2.93-10.25-.67-12.77,3.35Z" transform="translate(16.3 6.02)"/><path class="cls-6" d="M118.14,208.86c.39,1.25,0,3,.35,4.36a32.66,32.66,0,0,0,1.81,5.17c1.1,2.68,2,5.74,3.26,8.48l16.72-9.77a11.29,11.29,0,0,1-1.49-3.71,19.72,19.72,0,0,1-.46-2.13c.2,1.37,0-1.75,0-1.72l-16.93,7c-.62-.76.2.3.35.53.47.75.9,1.52,1.32,2.3.81,1.48-.34-1.08.27.5a24.65,24.65,0,0,1,.78,2.53c1.4,5.09,7.24,8.72,12.42,7.05,5.5-1.78,8.18-6.87,7.05-12.42l-1.22-6-18.59,7.83a26.16,26.16,0,0,0,7.13,7.54c4.05,3.08,10.42,1,13.21-2.64,3.23-4.19,2.59-9.55-.8-13.44-1.76-2,.5,1.21-.75-1.16-1-1.88.21,1-.54-1.23-1.73-5.09-7.15-9-12.65-7.19a10.53,10.53,0,0,0-7.19,12.66,19.11,19.11,0,0,0,12.08,14c4,1.42,9.3-.9,11.24-4.57a10.37,10.37,0,0,0-1.56-12.07,5.84,5.84,0,0,0-1.26-1.22c-.79-.85-.83-.83-.12,0-.56-1-.61-1-.13.06a10.25,10.25,0,0,1-.41-1.72l-19.84,5.47a29.43,29.43,0,0,0,6.65,11.4l12.41-16.08c.9.73.92.7.07-.09.65.95.66.94,0,0-6.22-9.78-21.18-3.51-18.59,7.83l1.37,6L143.56,217a38,38,0,0,0-8.16-14.51c-5.57-6.34-17.41-1.39-16.93,7a37.58,37.58,0,0,0,5.09,17.33,9.84,9.84,0,0,0,13.24,3.47c4.73-2.76,5.87-8.57,3.48-13.24a54.79,54.79,0,0,0-5.77-8.28,18.85,18.85,0,0,0-8.64-6.35l2.66,1.55-.82-.74c-4-3.64-11.4-.16-9.57,5.58Z" transform="translate(16.3 6.02)"/><path class="cls-6" d="M126.81,138.55c-8.33,4.74-11.28,15.83-12.81,24.74-1,5.86,1.29,11.84,7.47,13.54,5.63,1.55,9.32-1.73,12.92-5.28l-15.93-9.28a17.92,17.92,0,0,0-.9,5.59c-.29,9.13,13.48,13.31,17.68,4.79,2.65-5.36,4.86-11.06,1.64-16.66-1-1.73-3.26-3.3-5.34-3.07-6.36.71-9.81,4.75-12.69,10.15l17.69,4.79.31-.52c3.55-9.42-9.51-15.3-15.94-9.27-1.12.42-1.39.8-.79,1.13l4.83-1.31-.93.1,4.85,1.31-.7-.48,4.76,8.29c-.26-3.71,1.43-8,2.41-11.62,1.23-4.56,1.81-8.45.83-13.13-.86-4.11-6-5.73-9.36-3.81Z" transform="translate(16.3 6.02)"/><path class="cls-6" d="M137.33,148.09l-.28.1h2.6a2.34,2.34,0,0,0-.83-.14,4,4,0,0,0-2.09.1l-.42.16,4.27.56a7.2,7.2,0,0,0-3.48-.88l-1.74.24a4.9,4.9,0,0,0-2.23,1.17,3.26,3.26,0,0,0-1.18,1.18,3.17,3.17,0,0,0-.84,1.45,5,5,0,0,0-.57,2.53l.24,1.74.66,1.57a4.91,4.91,0,0,0,1.69,1.84,6.56,6.56,0,0,0,3.1,1.29,4.87,4.87,0,0,0,2.62-.12l1.57-.66a7.33,7.33,0,0,0,2.35-2.35,6.72,6.72,0,0,0,.66-5.06,7,7,0,0,0-1.73-3.07l1.62,3.91a4.94,4.94,0,0,0-.76-3.21l.67,2.46,0-.3a4.73,4.73,0,0,0-5.92-4.51Z" transform="translate(16.3 6.02)"/><path class="cls-6" d="M205.26,147.08c1.42,6.35,5.39,11.44,7.73,17.38,4.21,10.71,19.85,6.8,17.45-4.81-1.53-7.4-3.75-14.68-5.81-21.94l-15.85,9.23a39.56,39.56,0,0,1,8,14.47l14-10.73-.43-.2,4.71,8.21v-.62l-2.79,6.73.46-.4-9.26,2.45.9.34-4.2-2.44c.44.56.89,1.1,1.35,1.64,3.56,4.26,9.73,3,13.46,0l.34-.27c2.34-1.85,3-5.77,2.25-8.49-1.33-4.59-4.74-7.49-9-9.13-3.25-1.24-6.84.35-9.25,2.45a10,10,0,0,0-3.25,7.74c0,3.08,1.77,6.87,4.71,8.21l.44.2c7,3.2,16.65-2.15,14-10.74a62.08,62.08,0,0,0-12.94-22.83c-6.38-7.23-18.37.43-15.85,9.23,2.08,7.25,4,14.61,6.65,21.7l15.12-8.81c-4.06-4.93-6.6-10.88-11.47-15.2a6.87,6.87,0,0,0-11.38,6.63Z" transform="translate(16.3 6.02)"/><path class="cls-6" d="M232.15,156.21c5.17-2,10.47-3.68,15.47-6.12s9.52-5.15,14.17-7.9c9.86-5.82,19.48-12.05,29.08-18.27,9.35-6,18.52-12.38,27.62-18.79s19.37-13.2,27.13-21.21c5.82-6-1.51-14.94-8.71-11.28C327.23,77.56,318,84.79,309.13,91c-9.13,6.38-18.35,12.63-27.54,18.91-8.95,6.1-18,12-27,18-4.78,3.18-9.58,6.34-14.19,9.76s-8.43,7.26-12.69,10.87c-3.4,2.88.23,9.35,4.47,7.67Z" transform="translate(16.3 6.02)"/><path class="cls-6" d="M226.36,213.37c.7,5.07,5.54,8.67,9,12,4.12,3.92,8.32,7.6,12.75,11.18,8.76,7.1,17.72,14,26.91,20.53q13.17,9.33,26.58,18.31c4.73,3.17,9.44,6.39,14.31,9.34,5.14,3.11,10.9,7.46,17.13,5.15,3.22-1.19,6.52-4.26,6.16-8.09-.66-7.08-4.95-9.82-10.36-13.54-4.7-3.23-9.51-6.28-14.28-9.4q-13.91-9.08-27.54-18.55-13.23-9.18-26.55-18.22c-4.71-3.2-9.4-6.29-14.25-9.25-4.39-2.68-9.34-6.82-14.74-6.23-3.78.41-5.67,3.06-5.16,6.76Z" transform="translate(16.3 6.02)"/><path class="cls-6" d="M185.13,241.37l-.32.16a6.07,6.07,0,0,0-3.08,5.36c.36,10,3.77,19.92,6.07,29.62q3.52,14.83,6.87,29.69t5.79,29.91c.82,5,1.63,10,2.39,15,.79,5.25,1.31,10.26,4,15,3.85,6.78,14.22,5.16,16.33-2.13,1.52-5.21.75-10.32.05-15.59s-1.43-10.65-2.36-15.94q-2.72-15.45-6.36-30.73A302.67,302.67,0,0,0,206,272.48c-3.35-9.61-6.56-20.49-12.69-28.73-1.66-2.23-4.15-3.65-7-2.85a4.87,4.87,0,0,0-1.16.47Z" transform="translate(16.3 6.02)"/><path class="cls-6" d="M171.17,244.71c-1.24,2.12-2.92,4-4.1,6.14a56.26,56.26,0,0,0-3.25,8.15,127.33,127.33,0,0,0-4.36,15.94c-2.37,11.16-4,22.41-5.49,33.72-1.41,10.62-2.8,21.29-3.41,32-.63,11-1.61,25.51,8.52,32.57,3.64,2.54,8,.31,10.33-2.71,3.34-4.35,3.4-10.06,3.53-15.34s.17-10.33.51-15.49c.71-10.68,1.78-21.35,3-32,1.14-10.33,2.46-20.62,3.56-30.95.55-5.1,1-10.28,1-15.41.08-5.48-1-10.22-1.78-15.57-.55-3.93-6.31-4-8.06-1Z" transform="translate(16.3 6.02)"/><path class="cls-6" d="M120.93,219.36a2.36,2.36,0,0,0-2.2.18l-3.59,1.51a45.86,45.86,0,0,0-6.81,3.82c-4.58,3.08-8.88,6.53-13.19,10-8.3,6.61-16.23,13.71-24.27,20.64s-16,14-23.93,21-17.5,13.7-23.84,22.24c-2.87,3.88-1.46,10.21,1.74,13.41a11.33,11.33,0,0,0,13.4,1.73c4.82-2.7,8.85-7,13-10.64l11.93-10.53c7.95-7,15.95-14,23.83-21.08s15.9-14,23.49-21.42a152.48,152.48,0,0,0,11-11.5,46.52,46.52,0,0,0,4.78-6.55c.85-1.48,1.69-4.4,2.23-5.25,3.14-5-2.88-9.66-7.51-7.51Z" transform="translate(16.3 6.02)"/><path class="cls-6" d="M116.8,159.93c-2.5-4.45-7.83-5.93-12.41-7.51-5.64-1.93-11.36-3.61-17.07-5.3-11-3.24-22.15-6.07-33.25-9-10.59-2.79-21.2-5.52-31.78-8.39-5.27-1.44-10.57-2.89-15.76-4.61s-10.18-4.36-15.68-4.86c-6.67-.6-9.28,8.28-5.2,12.57,3.81,4,9.66,5.84,14.73,7.75,4.85,1.83,9.78,3.4,14.77,4.76,11.13,3,22.34,5.8,33.52,8.68s22.21,5.84,33.4,8.38c5.5,1.25,11,2.48,16.53,3.55,5.28,1,11.76,2.92,16.64-.06a4.45,4.45,0,0,0,1.56-6Z" transform="translate(16.3 6.02)"/><path class="cls-7" d="M158,177.12c-.65-1.45-1.47-2.76-.34-4.33s3.82-2.71,5.35-3.56l1.77-1-1,.2a3.21,3.21,0,0,1-3.21-2.26c0-.27,0-.54,0-.81-.32-.09,2-2.06-.61.59-.48.55-1,1.09-1.51,1.6a1.42,1.42,0,0,0,.67-.46h5.07a6.35,6.35,0,0,1,3.34,3.56,5.06,5.06,0,0,1,0,3.08c-.57.64-.47.52.3-.35q2.48-2.34-3.08.63l-4.92-1.33.68.43-3.5-3.5.34.72L156,165.44c0-2.33-.28.45-.09-.08l-.57,1c2-1.59,4.44-1.87,7.42-.84l3.61,3.6-.43-.67,1.37,5.08c.26,2.28-3.66,6.54-1.12,3.91a12.24,12.24,0,0,0,2.79-4.87,10.66,10.66,0,0,0,.16-6.72c-1.95-5.83-9.35-8.36-13.95-3.69a7.33,7.33,0,0,1,4-1.71,20,20,0,0,0-3.84.86,12.43,12.43,0,0,0-7.78,14.9c2.63,9.7,15.43,11.05,21.71,4.34,4.82-5.16,8.46-14.14,4.61-20.74a11.38,11.38,0,0,0-12.5-4.88c-3.58,1-6.29,3.46-8.53,6.29-4.91,6.22-6.27,14.53-.48,20.78s15.06,4,20-2.06c4.48-5.54,7.26-13.36,3.2-20-3.54-5.76-10.71-8.29-16.69-4.7-5.24,3.15-9.32,9.17-9.65,15.26-.2,3.65,2.68,10,7.24,9.47a1.92,1.92,0,0,0,1.62-2.83Z" transform="translate(16.3 6.02)"/><path class="cls-7" d="M182.7,191.88a7,7,0,0,0,6.8-6.8l-.24-1.81a6.91,6.91,0,0,0-1.75-3l-1.38-1.06a6.87,6.87,0,0,0-3.43-.93,7,7,0,0,0-6.8,6.8l.25,1.81a6.79,6.79,0,0,0,1.74,3l1.38,1.06a6.87,6.87,0,0,0,3.43.93Z" transform="translate(16.3 6.02)"/><path class="cls-7" d="M98.37,51.62c3.48,8.62,8.75,16.09,13.67,23.92,5.1,8.12,10.09,16.27,14.81,24.63s8.92,16.94,13.54,25.33c2.31,4.19,4.62,8.31,6.65,12.66,1.74,3.73,3,7.19,6.4,9.67a1.83,1.83,0,0,0,2.68-1.09c.77-4.17-.78-7.6-2.28-11.45-1.73-4.43-3.28-8.92-5-13.35A236.1,236.1,0,0,0,136.1,95.8c-4.58-8.39-9.49-16.69-14.83-24.62S110.45,55.07,102.84,49c-1.81-1.43-5.59-.18-4.47,2.6Z" transform="translate(16.3 6.02)"/><path class="cls-7" d="M24,170.56c6.46,3.55,14.73,3.5,21.9,4.19C54,175.52,62,176.24,70,177.31s15.83,1.62,23.75,2.48c4.06.43,8,1.1,12.07,1.79,3.39.59,6.56,1.09,9.62-.78a1.89,1.89,0,0,0,.67-2.56c-3.44-5.81-13.17-6.46-19.13-8.13a170.57,170.57,0,0,0-25.17-5.47,248.89,248.89,0,0,0-25-2c-7.49-.15-16-.59-22.87,2.87a2.93,2.93,0,0,0,0,5Z" transform="translate(16.3 6.02)"/><path class="cls-7" d="M5.57,254.32c18.82-3.47,37-10.61,55.24-16.22,9.51-2.92,19-5.72,28.56-8.62,5-1.54,21.17-3.71,18.1-12.2-2.81-7.78-18.19-2.22-23.7-1.11a267,267,0,0,0-27.93,7.4c-18.33,5.8-37.51,12.64-53.09,24.06a3.68,3.68,0,0,0,2.82,6.69Z" transform="translate(16.3 6.02)"/><path class="cls-7" d="M93.16,316.32c8.58-12.74,16.06-26.11,24.43-39s17.55-25.08,26.24-37.69c3.55-5.16-4.3-11-8.56-6.61C124.16,244.4,115,257.41,106.59,270.9s-15.68,27.2-20.28,42.53c-1.28,4.23,4.55,6.3,6.85,2.89Z" transform="translate(16.3 6.02)"/><path class="cls-7" d="M232.31,243.07c10.93,11.73,21.48,23.87,31.7,36.23,5,6,9.86,12,14.55,18.24,3.61,4.8,9.16,14.32,15.86,14.34a3.17,3.17,0,0,0,3-2.27c2.37-6.39-5.4-15.15-9-19.86-5-6.51-10.2-13-15.72-19.09a260.53,260.53,0,0,0-36.25-32.89c-3.15-2.4-6.59,2.61-4.09,5.3Z" transform="translate(16.3 6.02)"/><path class="cls-7" d="M250.9,204.27c6.78,5.63,16.48,7.23,24.75,9.7,9.11,2.73,18.33,5.09,27.42,7.89,17.87,5.5,35.18,11.87,51.42,21.26,5.75,3.32,18,14.34,24.45,7.42,7.42-8-7.5-17.11-13-20.54-15.8-9.92-33.46-16.7-51.31-21.92a258.61,258.61,0,0,0-31.13-6.94c-5.28-.85-10.59-1.42-15.9-2s-10.4-1.18-15.5.45c-1.85.59-3,3.27-1.24,4.7Z" transform="translate(16.3 6.02)"/><path class="cls-7" d="M232.92,170.2c6.27,4.42,18.48.11,25-2.11,9.56-3.26,18.68-7.43,27.92-11.47A142.07,142.07,0,0,1,314,147.24a69.54,69.54,0,0,1,13.8-1.54c5.13,0,10.07.73,14.2-2.77,1.78-1.5,1.86-4.4.82-6.31-4.71-8.57-19.62-6-27.54-4.75-10.31,1.68-20.19,5.92-29.57,10.39-9.14,4.37-18,9.29-27.06,13.82-4.65,2.32-9.43,4.38-14.22,6.37-3.88,1.61-9,2.68-11.73,6.06a1.1,1.1,0,0,0,.22,1.69Z" transform="translate(16.3 6.02)"/><path class="cls-7" d="M241,129.36c13-14.57,25.37-29.3,37.18-44.88,11-14.55,21.24-29.54,34.46-42.16,5.37-5.12-1.72-14.77-8.06-10.46-7.47,5.08-13.06,12.54-18.39,19.7-5.7,7.67-11.16,15.51-16.68,23.31-11.77,16.64-22.61,33.51-33,51-1.62,2.73,2.29,5.93,4.49,3.46Z" transform="translate(16.3 6.02)"/><path class="cls-7" d="M130.89-1.07a30.38,30.38,0,0,0-2.83,14.37c.29,5.46.73,10.88,1.35,16.31,1.27,11.06,3.23,22,5.26,33,2,10.48,4.19,20.94,7,31.22,1.46,5.3,2.91,10.6,4.82,15.76,1.68,4.56,3.76,10.86,8.41,13.08a4.73,4.73,0,0,0,6.28-1.65c2.6-3.83,1.71-9.39,1.09-13.77-.78-5.47-1.89-10.86-3-16.27-2.11-10.46-4.33-20.9-6.51-31.35-2.12-10.11-3.84-20.3-5.87-30.43-2.09-10.36-3.13-21.71-9.62-30.26-1.46-1.91-5.17-2.86-6.4,0Z" transform="translate(16.3 6.02)"/><path class="cls-7" d="M134.55,5.43c-2.12,16.46,10,31.94,27.57,29.37,7.66-1.13,13.65-6,17.18-12.8,1.43-2.74,2.46-5.67,3.83-8.44a29.22,29.22,0,0,1,2.32-4.12c1.54-2.1,2.79-1.35-.35-1.18l-4.9-2c-.71-2.56-1-3-.87-1.21l0,3,0,4.95c0,3.63.07,7.26.1,10.89q.08,10.38.12,20.78c0,6.93-.05,13.87.28,20.79a107.56,107.56,0,0,0,3,20.7c.77,3.21,5.73,3.22,6.51,0a115.35,115.35,0,0,0,3.15-24.66c.19-7.91.07-15.84.11-23.76q.06-12.85.16-25.73c0-6.3,1.39-15.26-6.44-17.45-13.17-3.69-17.46,13.32-23,21C156,25.83,144,10.1,140.67,3.78c-1.67-3.22-5.74-1.25-6.12,1.65Z" transform="translate(16.3 6.02)"/><path class="cls-7" d="M216.88,36.61c-5.82,14.09-12.38,27.88-18,42.07a114.65,114.65,0,0,0-6.38,20.8,84.29,84.29,0,0,0-1.34,11.31c-.21,3.81-1,7.89-.56,11.65.3,2.42,3.22,4.27,5.2,2.15,5-5.35,4.34-14.14,5.53-21a109,109,0,0,1,6.94-22.37c5.9-14.38,13.38-28.1,13.47-44,0-3-3.88-3.11-4.88-.67Z" transform="translate(16.3 6.02)"/><path class="cls-7" d="M184.77,15c-1.33,8.32-4,16.36-5.28,24.74-1.21,8.07-2,16.19-2.8,24.31s-1.44,16.1-2.26,24.14-2.12,16.38-2,24.48c.07,4.62,6.75,6.86,9,2.45,7.41-14.32,7.58-32.34,8.55-48.11.53-8.56,1.08-17.12,1.05-25.7s-1.63-17.1-1.89-25.71c-.07-2.41-4-3.21-4.42-.6Z" transform="translate(16.3 6.02)"/><path class="cls-7" d="M28.8,120c6.51.73,9.61-5.91,8.6-11.4-1.55-8.45-6.66-16.21-10.51-23.74L20,93.77c8.18,2.78,15.55,9.43,22.91,13.92,8.27,5,16.46,10.2,24.73,15.22s16.4,10.31,25.1,14.59c8.33,4.11,16.52,9.31,25.18,12.61,3.87,1.47,6.5-4,3.88-6.66-3.46-3.49-7.63-6.16-11.54-9.1-4.17-3.13-8-6.62-12.21-9.77-7.73-5.86-16.06-10.83-24.32-15.92S57.1,98.78,48.71,94C40.83,89.42,32.2,84.08,23.25,82c-4.92-1.13-9.87,4.26-6.87,8.94,2.47,3.87,4.75,7.87,7,11.88.82,1.47,7.57,10.31,4.64,11.32a3,3,0,0,0,.79,5.8Z" transform="translate(16.3 6.02)"/><path class="cls-7" d="M96.21,50.22c2.68,7.68,7.6,22.29-2.61,26.36-6,2.38-5,10.36,1.49,11,21.1,2.22,23.77-36.8,5.53-41.8-2.5-.68-5.32,1.77-4.41,4.41Z" transform="translate(16.3 6.02)"/><path class="cls-7" d="M216.46,31.52c-1.5,9.11-.75,20.74,5.28,28.29,4.73,5.92,16.31,8.71,20,.11,1.69-4-1.78-7.71-5.84-5.84-9.54,4.41-11.14-16.36-11.71-21.52-.43-4-6.94-5.81-7.73-1Z" transform="translate(16.3 6.02)"/><path class="cls-7" d="M299.12,45.28c-9.74,5.42-12.59,18.9-10,29.07s15.12,19.51,22.8,8.2a5.32,5.32,0,0,0,0-5.51c-1.86-2.6-3.38-2.35-6.17-2.51s-3.31-1.53-3.94-4.47c-1.52-7.13,1.47-13.2,3.92-19.69,1.45-3.86-3.43-6.86-6.61-5.09Z" transform="translate(16.3 6.02)"/><path class="cls-7" d="M315.89,140.1c-9.56.68-20.67,12.17-16.61,22,3.2,7.75,16.89,16.64,23.19,7.34a3.94,3.94,0,0,0,0-4.12,11.78,11.78,0,0,0-5.23-3.94c-1.64-.72-5.34-1.83-6-3.79s2.17-4.61,3.34-6.1a23.63,23.63,0,0,0,4.4-7.37,3.2,3.2,0,0,0-3.07-4Z" transform="translate(16.3 6.02)"/><path class="cls-7" d="M26.89,174.45c3.11,1,6.2,4.64,8.09,7.14a9.52,9.52,0,0,1,2,4.07,5.56,5.56,0,0,1,0,1.52l.22-1q-1.72,3.59.91-.55c-3.32,2-4.06,8,0,9.8,4.74,2.11,9.32.94,11.81-3.83,2.29-4.4,1.17-9.22-1-13.43A21.14,21.14,0,0,0,40.28,169c-4.11-2.17-7.85-2.25-12.36-2.07a3.86,3.86,0,0,0-1,7.55Z" transform="translate(16.3 6.02)"/><path class="cls-7" d="M10.5,256.35c4.8,3,9.7,3.37,14.79,5.33s4.22,8.44,7.6,12.16c1.75,1.93,5.49,2,7.22,0,5.52-6.45,2.14-16.06-3.9-21a18.85,18.85,0,0,0-11.12-3.94c-3.89-.25-7.88,1.21-11.7.59-4-.65-6.71,4.48-2.89,6.86Z" transform="translate(16.3 6.02)"/><path class="cls-7" d="M330.76,249.66c3.82-1.72,8.63-3.57,12.88-3.52,5.47.07,8.65,4.94,13.81,6,4.37.88,8.82-2.76,7.44-7.44-5-17.13-36.14-17.46-39.79.62-.7,3.47,2.57,5.75,5.66,4.35Z" transform="translate(16.3 6.02)"/></g></g><path class="cls-8" d="M240.83,169.13A64,64,0,0,0,235.71,157c25.68-8.07,78.3-46.3,83-49.41.29-.19,9.17-4.84,15.71-10.87,7.28-6.71,6.19-13.83-11.06-11-14.51,2.37-17,1.4-20.55-2.72-1.7-2-1.69-10.25-.89-12.72,3.15-9.78,5.26-37.66-14-14.65-16.81,20.12-49.29,69.86-60.26,90a65.83,65.83,0,0,0-11-10.06" transform="translate(16.3 6.02)"/><path class="cls-8" d="M226,232.7c4.58-4.45,6.58-7.62,9.69-13.26,18.06,20.45,68.64,51.51,72.8,55,.27.22,7.25,7.42,14.87,12,8.5,5.08,15,2,7.44-13.73-6.39-13.24-6.16-15.89-3.22-20.47,1.39-2.19,9.35-4.53,11.94-4.46,10.28.25,36-2.4,10.1-17.55-23.78-13.91-85.75-22.46-108.38-24.37a64,64,0,0,0,2.27-12.68" transform="translate(16.3 6.02)"/><path class="cls-8" d="M161.2,250.55A64.5,64.5,0,0,0,177,253c-7.23,19.5-22.1,71.88-21.38,99.24.79,30,15.5,8.73,20.24-.39,1.19-2.3,7.08-8.14,9.66-8.31,5.44-.37,7.87.72,16.39,12.69,10.14,14.25,16,10,15.61.11-.32-8.88-3.26-18.47-3.33-18.81-1.12-5.5-10.91-63.1-23.12-85.65a64,64,0,0,0,17.38-6" transform="translate(16.3 6.02)"/><path class="cls-8" d="M115.8,203.13a64.24,64.24,0,0,0,4.93,13.7c-22.45,3.1-78.27,15.5-102.39,27.51C-8.5,257.71,17,262.08,27.23,262.53c2.59.11,10.37,3,11.62,5.25,2.62,4.78,2.67,7.43-4.6,20.22-8.63,15.2-2.33,18.69,6.49,14.19,7.92-4,15.37-10.75,15.65-10.95,4.52-3.34,55.81-40.27,72.22-62.14a64.74,64.74,0,0,0,9.68,9.62" transform="translate(16.3 6.02)"/><path class="cls-8" d="M130.24,145.37a66,66,0,0,0-6.41,8.62c-15.18-14.85-59.4-51.41-84.56-62.51-27.43-12.1-14.52,10.27-8.3,18.46,1.56,2.06,4.32,9.88,3.38,12.29-2,5.07-4,6.8-18.49,9.38C-1.35,134.68,0,141.76,9.09,145.68c8.16,3.51,18.08,4.95,18.42,5C32.9,152,90.68,167.87,117.63,167A65.77,65.77,0,0,0,115,177.3" transform="translate(16.3 6.02)"/><path class="cls-8" d="M195.32,125.49a65.06,65.06,0,0,0-16.45-2.11c-.53,0-1.07,0-1.6.05C187.41,99.16,191.72,35.66,192.05,30c0-.34,1.58-10.25.63-19.08-1.05-9.85-7.41-13.23-15.43,2.31-6.74,13.06-9,14.48-14.43,14.89-2.58.19-9.24-4.76-10.74-6.86-6-8.37-23.55-27.31-20.09,2.47,3.26,28.11,23.85,83.88,32.51,101.33a64.3,64.3,0,0,0-12.31,4.13" transform="translate(16.3 6.02)"/><path class="cls-9" d="M323.94,174.29c-11.35-4.14-12.74-5.83-13.64-10.22-.42-2.08,2.92-8,4.48-9.47,6.2-5.74,19.82-22-4.1-16.12-21.28,5.25-70.48,30.16-89.36,41.45a43.29,43.29,0,0,0-18.68-27.86c17.87-16.8,48.31-68.87,50.82-72.78a71.28,71.28,0,0,0,8.13-13.43c3.21-7.47,0-12.46-12-4.55-10.09,6.65-12.27,6.76-16.33,4.86-1.93-.9-4.71-7.12-4.94-9.24-.92-8.4-5.88-29-15.39-6.31-8.7,20.8-18.66,76.33-20.58,96.49a43.27,43.27,0,0,0-33.49,2.76c-8.59-22.4-30.26-70.81-43.77-87-15.79-18.92-14.45,2.27-12.86,10.57.4,2.09-.42,8.85-2,10.28-3.33,3-5.44,3.55-17,.17-13.8-4-15.39,1.68-10.12,7.88a71.22,71.22,0,0,0,11.72,10.43c3.3,2.79,40.1,41.4,62.44,56.53A43,43,0,0,0,136,183.05c-22.95-5.8-73.57-14.84-94.48-15.87-24.61-1.22-8.12,12.15-.94,16.61,1.81,1.12,6.23,6.31,6.21,8.44,0,4.48-1.08,6.4-11.43,12.64-12.31,7.41-9.19,12.45-1.06,12.78a71.76,71.76,0,0,0,15.62-1.55c4.37-.55,60.7-9,86.77-18.64A43.21,43.21,0,0,0,153,222.87c-15.61,17.41-49.18,60.57-59.17,79.53-11.5,21.8,7.59,12.5,14.66,7.86,1.78-1.16,8.35-3,10.27-2.06,4,1.92,5.35,3.68,6.64,15.69,1.53,14.29,7.41,13.59,11.14,6.36a70.9,70.9,0,0,0,5.18-14.82c1.36-4.21,20.29-58.79,23.54-86.18a43.22,43.22,0,0,0,36.49-4.38c3.81,23.32,37.72,83.82,39.39,88.32A72,72,0,0,0,247,327.77c4,7.06,9.95,7.49,10.85-6.85.75-12.06,2-13.87,5.93-16,1.88-1,8.52.52,10.35,1.61,7.27,4.31,26.75,12.76,14.3-8.51-12.22-20.88-65.83-68.45-79.59-78.7a43.15,43.15,0,0,0,13.09-27.3c24.42,4,85.22-3.63,89.86-4a72,72,0,0,0,15.63-1.46C335.35,184.76,337.44,179.22,323.94,174.29Z" transform="translate(16.3 6.02)"/></g></g></svg>