<svg xmlns="http://www.w3.org/2000/svg" xmlns:xlink="http://www.w3.org/1999/xlink" viewBox="0 0 200.94 364.99"><defs><style>.cls-1,.cls-11,.cls-6{fill:none;}.cls-2{fill:#ddf1f3;}.cls-2,.cls-6{stroke:#016673;}.cls-11,.cls-2,.cls-6,.cls-7{stroke-linecap:round;stroke-linejoin:round;stroke-width:5px;}.cls-3{opacity:0.31;}.cls-4{clip-path:url(#clip-path);}.cls-5{fill:#901a3d;}.cls-7{fill:#67469c;}.cls-11,.cls-7{stroke:#221d3d;}.cls-8{opacity:0.35;}.cls-9{clip-path:url(#clip-path-2);}.cls-10{fill:#e6fff2;}</style><clipPath id="clip-path" transform="translate(0 5.14)"><path class="cls-1" d="M58.91,217.66a3.38,3.38,0,0,1,.39,4A85.81,85.81,0,0,0,49,250.27c-1.84,11,.58,23,2.84,30.94a21.19,21.19,0,0,0,17,15.23c7.79,1.19,19.19.34,35.11-6.43,36.39-15.49,54.2-10.84,54.2-10.84s38.91,2.71,38.7,33.29a57,57,0,0,1-1.15,11.24,40.09,40.09,0,0,1-34.47,31.38c-9.6,1.18-19.47.51-25.28-5.85-11.8-12.93-10.32-28.26,2.84-37.55,10.92-7.7,21.85-2.38,24.71.84.6.68-.49,3.84-.55,4.73,0,.14-.26,1.65-.26,1.65-.24,3.4-3.12,3.09-6.38,1.32-1.06-.58-5.63-2.79-7.46-2.08-3.59,1.38-6.83,3.22-7.74,8.25s-.84,11.17,7.29,14.65,27.55.84,33-12.32a39.77,39.77,0,0,0,2.3-8,22.35,22.35,0,0,0-17.59-25.94c-2.06-.41-4-.74-5.61-.9-7.74-.78-24.53-.33-32.52,2.32-7.35,2.44-43.63,15.05-55.74,14.71-13.94-.39-31.19-11.64-33.91-30.19-3-20.13,3.25-40.35,4.49-44.58S47.22,223,49.58,216.2c.85-2.43,6.2-2,7.92-.1Z"/></clipPath><clipPath id="clip-path-2" transform="translate(0 5.14)"><path class="cls-1" d="M43.36,191.79S-9.29,164.43,5.16,85.46C12.58,44.94,43,17.94,66.17,9.39,96.94-2,127.47,2.3,150.29,25.85c16,16.53,25.71,53.38,18,94.2C151.33,209.34,75.87,198,75.87,198s20.65,12.63,17,18.32-21.26,12-27.35,9.55-34.32-4.9-38.19-15S43.36,191.79,43.36,191.79Z"/></clipPath></defs><g id="Calque_2" data-name="Calque 2"><g id="Layer_14" data-name="Layer 14"><path class="cls-2" d="M58.76,216.79a3.38,3.38,0,0,1,.39,4,85.67,85.67,0,0,0-10.3,28.62c-1.85,11,.58,23,2.84,31a21.18,21.18,0,0,0,17,15.22c7.79,1.19,19.19.35,35.11-6.43C140.21,273.66,158,278.3,158,278.3s38.92,2.71,38.71,33.29a57,57,0,0,1-1.15,11.24,40.11,40.11,0,0,1-34.47,31.39c-9.6,1.17-19.47.51-25.28-5.85-11.8-12.93-10.32-28.26,2.84-37.55,10.92-7.71,21.85-2.39,24.71.84.59.67-.49,3.83-.55,4.73,0,.14-.26,1.65-.26,1.65-.25,3.4-3.12,3.08-6.38,1.31-1.07-.58-5.63-2.78-7.46-2.08-3.59,1.39-6.84,3.23-7.74,8.26s-.84,11.16,7.29,14.64,27.55.84,33-12.32a40.24,40.24,0,0,0,2.3-8A22.34,22.34,0,0,0,166,293.92c-2.07-.42-4-.75-5.61-.91-7.75-.77-24.53-.33-32.52,2.33-7.35,2.44-43.63,15-55.74,14.7-13.94-.38-31.19-11.63-33.92-30.19-3-20.13,3.26-40.34,4.5-44.58s4.41-13.16,6.77-19.93c.85-2.43,6.2-2,7.92-.11Z" transform="translate(0 5.14)"/><g class="cls-3"><g class="cls-4"><path class="cls-5" d="M37.58,228.85c3.8,8.45,13.09,13,22.11,12.57a8.18,8.18,0,0,0,8-8c0-4-3.68-8.44-8-8a39,39,0,0,1-17.51-2.53c-3.7-1.38-5.9,3.1-4.6,6Z" transform="translate(0 5.14)"/><path class="cls-5" d="M131,312.69c-3.14,3.51-5.63,6.51-6.23,11.38a28.36,28.36,0,0,0,1.67,14c4,10.17,12.25,17.19,22.7,20.21s21.14,1.42,30.78-3c9-4.17,20.48-12.58,21-23.39.23-4.71-4.78-8.15-9.12-6.95-6.94,1.92-11.82,8.63-18,12.17a28.14,28.14,0,0,1-17.3,3.76A20.44,20.44,0,0,1,142.33,333a27.76,27.76,0,0,1-4.51-17.44c.43-3.44-4.63-5.23-6.8-2.82Z" transform="translate(0 5.14)"/></g></g><path class="cls-6" d="M58.76,216.79a3.38,3.38,0,0,1,.39,4,85.67,85.67,0,0,0-10.3,28.62c-1.85,11,.58,23,2.84,31a21.18,21.18,0,0,0,17,15.22c7.79,1.19,19.19.35,35.11-6.43C140.21,273.66,158,278.3,158,278.3s38.92,2.71,38.71,33.29a57,57,0,0,1-1.15,11.24,40.11,40.11,0,0,1-34.47,31.39c-9.6,1.17-19.47.51-25.28-5.85-11.8-12.93-10.32-28.26,2.84-37.55,10.92-7.71,21.85-2.39,24.71.84.59.67-.49,3.83-.55,4.73,0,.14-.26,1.65-.26,1.65-.25,3.4-3.12,3.08-6.38,1.31-1.07-.58-5.63-2.78-7.46-2.08-3.59,1.39-6.84,3.23-7.74,8.26s-.84,11.16,7.29,14.64,27.55.84,33-12.32a40.24,40.24,0,0,0,2.3-8A22.34,22.34,0,0,0,166,293.92c-2.07-.42-4-.75-5.61-.91-7.75-.77-24.53-.33-32.52,2.33-7.35,2.44-43.63,15-55.74,14.7-13.94-.38-31.19-11.63-33.92-30.19-3-20.13,3.26-40.34,4.5-44.58s4.41-13.16,6.77-19.93c.85-2.43,6.2-2,7.92-.11Z" transform="translate(0 5.14)"/><path class="cls-7" d="M43.2,190.92S-9.44,163.57,5,84.6C12.43,44.07,42.82,17.08,66,8.52,96.79-2.83,127.32,1.43,150.14,25c16,16.53,25.71,53.37,18,94.19-16.94,89.29-92.39,77.94-92.39,77.94s20.65,12.63,17,18.31-21.26,12-27.35,9.56-34.32-4.91-38.2-15S43.2,190.92,43.2,190.92Z" transform="translate(0 5.14)"/><g class="cls-8"><g class="cls-9"><path class="cls-5" d="M29,207.52c4.95-2.42,9.9-5.33,15.1-7.18,1.86-.66,5.32-2.41,7.25-1.76,1.69.57,1.35,1.68.61,3.37a21.75,21.75,0,0,1-2.87,4.19c-1.77,2.29.11,6.05,2.69,6.64L61.35,215a4.65,4.65,0,0,0,5.18-6.74c-.92-1.78-3.34-5.48-2.1-7.64,1.44-2.52,6.4.32,8.33,1.09,5.67,2.27,11.31,4.63,17,7,5.38,2.21,7.82-6.62,2.42-8.77S81.38,195.6,76,193.41c-4.53-1.85-9.49-4.33-14.39-2.26-9.23,3.89-6.6,14.83-3,21.69l5.18-6.74-9.62-2,2.7,6.63c3-4,5.68-8.63,4.33-13.84a9.7,9.7,0,0,0-9-7.54c-10-.37-21.28,6.83-26.39,15-1.33,2.11,1.22,4.17,3.21,3.2Z" transform="translate(0 5.14)"/><path class="cls-5" d="M6.65,152.07c7.46,15.05,18,28,32.64,36.44,16,9.18,34.85,12,53,9.63,37.3-4.79,66.58-31.2,81.8-64.75a133.91,133.91,0,0,0,9.32-31.17c2-11,3.34-22.53,1.66-33.62-.8-5.3-9.65-6.47-11.82-1.54-6.68,15.2-9.43,31.87-16.32,47-6.24,13.71-12.89,26.89-23.46,37.83-21.11,21.84-50.85,28.23-79.57,19.36-15.11-4.67-29.88-12.62-40.5-24.45-3.43-3.82-8.85,1-6.77,5.23Z" transform="translate(0 5.14)"/><path class="cls-10" d="M8.57,121.25c4.6-27.15,16.85-54.68,36-74.69C63.9,26.34,93.94,10.27,122.39,18.87a46.07,46.07,0,0,1,17.25,9.46c5.65,5.05,9.39,11.42,13.94,17.39,2.46,3.24,6,5.29,10.16,4.14a9.15,9.15,0,0,0,6.61-8.68c-.2-17.56-15.71-31.95-30.57-39.1C122.71-6.14,103.6-7.06,85.4-2.11,51.06,7.23,22.86,34.31,9.52,66.9a96.63,96.63,0,0,0-5.74,54.35c.42,2.36,4.39,2.38,4.79,0Z" transform="translate(0 5.14)"/><path class="cls-10" d="M58.39,50.27c-1.15-.1-1.42-2.7-1.24-3.54a6,6,0,0,1,2.43-3.12,22.82,22.82,0,0,1,6-3.24,49,49,0,0,1,6-1.95,25.57,25.57,0,0,1,3.35-.6q.8-.07,1.59-.09c1.18.08,1.08-.1-.3-.51l-2.32-4c-.44-1.33.91-1.66-.67.24-.62.74-1.14,1.5-1.79,2.22a25.08,25.08,0,0,1-5.61,4.72,27.1,27.1,0,0,1-6.59,3c-.28.08-2.25.79-2.11.46a3.32,3.32,0,0,1,3.33,2.94c.62,2.12.86,2.31.73.55,0,0,1.07-2,1.76-2.95a19.29,19.29,0,0,1,4-4.21c-.58.45-1.48-1-.49-.07,1.23.38.8.08-1.27-.91l-1.08-1.93c2.82,10.23-.49-10.64-1-2-.15,2.38-4.7-1,.87.75l4.92,2.87,1,7.34c.15.44,0,.71-.55.79-.79.41-.76.45.08.13.65-.21,1.3-.4,2-.56,8.12-2.23,9.44-16.49,0-17.81C66,28,60.44,27.33,55.63,30.38A15.82,15.82,0,0,0,48.53,47,14.28,14.28,0,0,0,61,58.15c6.45.67,12.28-2.77,17-6.92,8.3-7.36,10.7-20.22,1.64-28S57.65,18.52,50,26.69c-6.48,7-12,17-9,26.74,3.77,12,17.22,12.68,27.08,8.61C77,58.4,85.21,51.64,89.83,43.17c5.65-10.36.82-23.92-12.5-22.57-10.59,1.07-21.76,7.28-27.12,16.71-4.48,7.9-1.35,17,8.18,17.83,3.13.28,3.11-4.6,0-4.87Z" transform="translate(0 5.14)"/><path class="cls-10" d="M93.29,67.54l.06.06-.82-1.06a1.18,1.18,0,0,1,.11.19l-.54-1.27a1.42,1.42,0,0,1,.07.22L92,64.23a1.34,1.34,0,0,1,0,.4l.2-1.49-.06.24,4-4A6.76,6.76,0,0,0,93.32,61a7.45,7.45,0,0,0-1.57,2.73l.6-1.43a10.78,10.78,0,0,0-.74,1.7,1.69,1.69,0,0,0-.12.84,3.14,3.14,0,0,0,0,1.61A3,3,0,0,0,91.9,68c.1.25.2.5.32.75l-.6-1.42a.5.5,0,0,1,0,.13l-.21-1.53a.53.53,0,0,1,0,.13l.19-1.47a.29.29,0,0,1,0,.09A5.34,5.34,0,0,0,93,69.89a6.35,6.35,0,0,0,4.37,1.77,6.61,6.61,0,0,0,3.07-.82,4.67,4.67,0,0,0,1.69-1.55,6.8,6.8,0,0,0,.52-.68,8.35,8.35,0,0,0,.65-1.61,10.22,10.22,0,0,0,.24-1.76,5.84,5.84,0,0,0-.82-3,6.09,6.09,0,0,0-2.15-2.16l-.13-.07,2,2a4.15,4.15,0,0,0-.6-.84A4.46,4.46,0,0,0,100.7,60a5.9,5.9,0,0,0-2-1.09A9.73,9.73,0,0,0,97,58.62l-1.39.19-1.25.53a5.18,5.18,0,0,0-2.14,2.5,2.6,2.6,0,0,0-.35,1.31,2.53,2.53,0,0,0,0,1.39,2.66,2.66,0,0,0,.35,1.32,3.87,3.87,0,0,0,1.08,1.68Z" transform="translate(0 5.14)"/><path class="cls-10" d="M31,211.56c2.33-2.49,4-5.46,6.46-7.86s6-4.08,7.38-7.45c.74-1.87-.82-4-2.55-4.5-4.33-1.3-9,2.65-11.64,5.73-2.76,3.25-5.26,7.54-4.85,11.93.23,2.45,3.26,4.23,5.2,2.15Z" transform="translate(0 5.14)"/></g></g><path class="cls-11" d="M43.2,190.92S-9.44,163.57,5,84.6C12.43,44.07,42.82,17.08,66,8.52,96.79-2.83,127.32,1.43,150.14,25c16,16.53,25.71,53.37,18,94.19-16.94,89.29-92.39,77.94-92.39,77.94s20.65,12.63,17,18.31-21.26,12-27.35,9.56-34.32-4.91-38.2-15S43.2,190.92,43.2,190.92Z" transform="translate(0 5.14)"/><path class="cls-11" d="M46.66,207.44l9-6.12a4.39,4.39,0,0,1,6.27,1.42l5.89,10.13" transform="translate(0 5.14)"/><path class="cls-10" d="M45.86,47.62C41.63,49,38.3,53.11,35.54,56.46a99,99,0,0,0-8.76,12.63A97.65,97.65,0,0,0,15.41,98.53c-.65,3,3.78,4.26,4.61,1.27A121.29,121.29,0,0,1,31.65,71.94a114.21,114.21,0,0,1,7.67-11.53c2.67-3.56,6.45-7.2,7.87-11.47a1.08,1.08,0,0,0-1.33-1.32Z" transform="translate(0 5.14)"/><path class="cls-10" d="M70.54,31a2.6,2.6,0,0,0,3.63.95,3.5,3.5,0,0,0,1.6-3.07,3.56,3.56,0,0,0-3.68-3.25,5.61,5.61,0,0,0-4.31,3L72,26.86a12.31,12.31,0,0,0-2.49-.4l1.59.21a15.16,15.16,0,0,0-3.23-.55,7,7,0,0,0-6.55,5.07,6.91,6.91,0,0,0,8.41,8.39c3.67-1,6.22-5.95,3.8-9.33A7.63,7.63,0,0,0,71,27.78l1.3,1-.11-.1,1,1.31-.07-.11.65,1.54,0-.11v3.44l0-.12L72.14,37.5l.1-.12-1.31,1a19.65,19.65,0,0,0,1.73-1.31l-1.3,1a2.38,2.38,0,0,1,.45-.23l-1.5.63a10.39,10.39,0,0,0,2.42-1.1,6.21,6.21,0,0,0,2.7-3.5,5.71,5.71,0,0,0-.6-4.52l-.6-.81.51,1.89c0-.32,0-.34,0-.06s0,.26.06-.09l-.09.3c.34-.44.19-.28-.42.48l-1.42.38-1-.27L71,30.27c-.22-.48-.35-1.46.18-1.88l1-.59-.11,0h1.21l.29.11c-1.9-1.37-4,1.22-3,3Z" transform="translate(0 5.14)"/><path class="cls-10" d="M155.49,108.28a75.92,75.92,0,0,1-20.82,40.85c-2.43,2.43,1.37,6.24,3.78,3.78a70.41,70.41,0,0,0,20.27-44.2c.14-1.82-2.92-2.26-3.23-.43Z" transform="translate(0 5.14)"/></g></g></svg>