<?xml version="1.0" encoding="UTF-8" standalone="no"?>
<svg
   id="Calque_2"
   data-name="Calque 2"
   viewBox="0 0 98.03 32.729996"
   version="1.1"
   sodipodi:docname="book3.svg"
   width="98.029999"
   height="32.73"
   inkscape:version="1.4.2 (f4327f4, 2025-05-13)"
   xmlns:inkscape="http://www.inkscape.org/namespaces/inkscape"
   xmlns:sodipodi="http://sodipodi.sourceforge.net/DTD/sodipodi-0.dtd"
   xmlns="http://www.w3.org/2000/svg"
   xmlns:svg="http://www.w3.org/2000/svg">
  <sodipodi:namedview
     id="namedview49"
     pagecolor="#ffffff"
     bordercolor="#999999"
     borderopacity="1"
     inkscape:showpageshadow="2"
     inkscape:pageopacity="0"
     inkscape:pagecheckerboard="0"
     inkscape:deskcolor="#d1d1d1"
     inkscape:zoom="8.336029"
     inkscape:cx="54.462382"
     inkscape:cy="46.365002"
     inkscape:window-width="1920"
     inkscape:window-height="991"
     inkscape:window-x="-9"
     inkscape:window-y="-9"
     inkscape:window-maximized="1"
     inkscape:current-layer="g49" />
  <defs
     id="defs1">
    <style
       id="style1">
      .cls-1 {
        fill: #ffce62;
      }

      .cls-1, .cls-2, .cls-3, .cls-4, .cls-5 {
        stroke-linecap: round;
        stroke-linejoin: round;
        stroke-width: 2.51px;
      }

      .cls-1, .cls-5 {
        stroke: #733d00;
      }

      .cls-6 {
        fill: #e19100;
      }

      .cls-6, .cls-7, .cls-8, .cls-9, .cls-10, .cls-11, .cls-12, .cls-13, .cls-14 {
        stroke-width: 0px;
      }

      .cls-2, .cls-8, .cls-3, .cls-5 {
        fill: none;
      }

      .cls-2, .cls-4 {
        stroke: #053d58;
      }

      .cls-7 {
        fill: #f0f;
      }

      .cls-15 {
        opacity: .3;
      }

      .cls-3 {
        stroke: #641233;
      }

      .cls-9 {
        fill: #57d653;
      }

      .cls-4 {
        fill: #e6f4fd;
      }

      .cls-16 {
        clip-path: url(#clippath);
      }

      .cls-10 {
        fill: #eafdf1;
      }

      .cls-11 {
        fill: #82263e;
      }

      .cls-12 {
        fill: #ad949d;
      }

      .cls-13 {
        fill: #733d00;
      }

      .cls-14 {
        fill: #00e7ff;
      }
    </style>
    <clipPath
       id="clippath">
      <path
         class="cls-8"
         d="M 107.6,61.55 105.66,50.69 71.5,55.42 v -0.68 l 31.54,-4.8 -1.94,-10.86 -4.34,0.6 c -0.13,-0.2 -0.42,-0.4 -0.91,-0.6 -7.86,-3.34 0,-23.59 0,-23.59 0,0 -14.26,-0.11 -24.36,0.48 V 14.83 L 101.65,15.32 103.59,4.46 62.08,1.39 H 2.85 l -1.6,11.58 53.18,1.48 v 1.42 c -16.91,-0.59 -45.05,-1 -49.61,2.63 -6.59,5.24 0.5,25.68 0.5,25.68 0,0 4.58,0.17 11.25,0.34 H 1.81 l 1.6,11.58 h 51.02 v 0.03 H 6.37 l 1.6,11.58 -5.28,0.23 c 0,0 8.44,18.33 0,21.53 -6.68,2.53 40.3,1.05 60.12,0.33 -0.56,3.79 41.31,-3.51 41.31,-3.51 0,0 7.39,-18.09 0.66,-24.29 l 2.83,-0.43 z"
         id="path1" />
    </clipPath>
  </defs>
  <g
     id="Layer_1"
     data-name="Layer 1">
    <g
       id="g49">
      <path
         class="cls-1"
         d="m 61.430155,4.0943074 c 1.42,-2.32 34.13,-2.06 34.13,-2.06 0,0 -7.86,20.2499996 0,23.5899996 7.860005,3.34 -33.93,5.43 -33.93,5.43 z"
         id="path5" />
      <path
         class="cls-1"
         d="m 66.950155,2.9843074 c 0,0 -5.28,21.3599996 0.34,25.7899996 5.61,4.43 -62.2899998,1.96 -62.2899998,1.96 0,0 -7.09,-20.44 -0.5,-25.6799996 6.5899998,-5.23999999 62.4499998,-2.06 62.4499998,-2.06 z"
         id="path6" />
      <g
         id="g16"
         transform="translate(-0.47984478,-13.315693)">
        <path
           class="cls-6"
           d="M 7.02,22.98 8.51,20.91 7.01,20.28 C 6.75,21.57 6.5,22.85 6.22,24.14 l 3.2,0.43 C 9.51,23.23 9.6,21.89 9.68,20.54 9.83,18.14 6.43,17.96 5.7,20 5.13,21.61 4.96,22.99 5,24.71 c 0.08,2.93 4.65,2.94 4.57,0 C 9.55,23.91 9.53,23.11 9.5,22.3 9.43,19.72 5.32,18.91 4.81,21.67 4.3,24.43 4.04,27.1 4.07,29.9 c 0.04,3.53 5.2,3.46 5.44,0 0.16,-2.29 -0.07,-4.45 -0.5,-6.69 -0.63,-3.26 -5.39,-2.29 -5.54,0.75 -0.23,4.48 0.07,8.86 0.81,13.27 0.64,3.83 6.26,2.13 5.76,-1.59 -0.21,-1.53 -0.29,-3 -0.3,-4.54 H 3.81 c 0.3,2.89 0.7,5.76 1.24,8.62 0.43,2.31 4.31,2.95 5.28,0.69 0.92,-2.14 1.11,-3.72 -0.18,-5.76 -1.29,-2.04 -5.49,-1.51 -5.16,1.4 0.22,1.9 0.48,3.76 0.84,5.64 0.42,2.2 4.16,1.74 3.96,-0.54 C 9.68,39.89 9.56,39.39 8.94,38.28 7.98,36.56 4.93,37.73 5.68,39.66 l 0.15,0.96 3.89,1.07 c 0.35,-1.88 0.6,-3.74 0.81,-5.64 l -5.44,0.74 0.25,0.71 5.28,0.69 c -0.39,-2.35 -0.67,-4.71 -0.87,-7.08 -0.31,-3.76 -5.88,-3.87 -5.93,0 -0.03,2.08 0.14,4.08 0.47,6.13 l 5.76,-1.59 C 9.29,31.75 9.01,27.94 9.13,23.97 l -5.54,0.75 c 0.38,1.74 0.5,3.41 0.51,5.19 h 5.44 c -0.25,-2.56 -0.25,-5.04 0,-7.6 H 4.76 c 0.09,0.8 0.18,1.6 0.27,2.41 H 9.6 C 9.37,23.51 9.38,22.3 9.64,21.09 L 5.66,20.55 c 0.19,1.49 0.39,2.97 0.59,4.46 0.27,2.02 3.58,1.23 3.14,-0.87 C 9.12,22.86 8.87,21.57 8.62,20.28 8.47,19.5 7.2,19.5 7.04,20.28 l -0.5,2.48 c -0.07,0.32 0.33,0.48 0.52,0.22 v 0 z"
           id="path14" />
      </g>
      <g
         id="g36"
         transform="translate(-0.47984478,-13.315693)">
        <path
           class="cls-13"
           d="M 7.88,18.36 C 8.46,22.55 9.64,26.62 9.82,30.87 10,35.12 9.21,39.2 8.63,43.43 8.47,44.58 9.97,45.04 10.4,43.92 13.27,36.27 12.87,25.12 8.39,18.15 8.21,17.87 7.83,18.06 7.87,18.37 v 0 z"
           id="path20" />
        <path
           class="cls-13"
           d="m 15.76,23.75 c 12.35,0.43 24.89,1.44 37.24,0.72 0.61,-0.04 0.6,-0.89 0,-0.94 -12.32,-1.06 -24.88,-0.39 -37.24,-0.29 -0.33,0 -0.33,0.51 0,0.52 v 0 z"
           id="path21" />
        <path
           class="cls-13"
           d="m 64.29,29.44 c -6.52,0.05 -13.19,0.69 -19.72,1.08 -0.91,0.05 -0.9,1.34 0,1.41 6.43,0.49 13.6,0.28 19.87,-1.34 0.64,-0.16 0.51,-1.16 -0.16,-1.15 v 0 z"
           id="path22" />
        <path
           class="cls-13"
           d="m 19.08,37.41 c 8.87,0.15 17.72,0.13 26.6,-0.17 0.42,-0.01 0.42,-0.67 0,-0.66 -8.86,0.22 -17.73,0.43 -26.6,0.54 -0.18,0 -0.18,0.28 0,0.28 v 0 z"
           id="path23" />
        <path
           class="cls-13"
           d="m 66.5,24.02 c 7.35,0.43 15.69,-0.97 22.96,-2.17 0.55,-0.09 0.37,-0.89 -0.12,-0.92 -7.2,-0.47 -16.09,-0.17 -22.94,2.31 -0.42,0.15 -0.36,0.76 0.11,0.78 v 0 z"
           id="path24" />
        <path
           class="cls-13"
           d="m 67.4,35.27 c 4.12,-0.55 8.45,-0.47 12.5,-1.32 0.41,-0.09 0.28,-0.66 -0.09,-0.69 -4.05,-0.31 -8.51,0.74 -12.48,1.46 -0.31,0.06 -0.24,0.6 0.07,0.55 z"
           id="path25" />
        <path
           class="cls-13"
           d="m 78.03,29.87 c 4.36,-0.23 8.8,-0.35 13,-1.67 0.52,-0.16 0.44,-0.96 -0.13,-0.97 -4.41,-0.04 -8.68,1.12 -12.93,2.17 -0.25,0.06 -0.21,0.48 0.06,0.46 v 0 z"
           id="path26" />
      </g>
      <g
         class="cls-15"
         id="g45"
         transform="translate(-0.47984478,-13.315693)">
        <g
           class="cls-16"
           clip-path="url(#clippath)"
           id="g44">
          <path
             class="cls-11"
             d="m 66.04,5.98 -0.43,0.93 6.71,2.83 c 0.66,-3 0.24,-5.03 -0.98,-7.85 -1.81,-4.17 -7.45,-1.53 -7.76,2.1 -0.15,1.79 -0.31,3.57 -0.39,5.36 -0.25,5.7 8.51,5.65 8.84,0 0.14,-2.33 -0.14,-4.5 -0.79,-6.74 -1.15,-3.95 -8.12,-4.7 -8.77,0 -0.52,3.72 0.11,6.56 1.88,9.88 0.66,1.23 1.59,2.42 2.13,3.71 1.01,2.4 0.49,4.48 0.11,6.95 -0.61,3.88 -1.12,7.43 -0.31,11.32 0.81,3.89 3.32,7.74 2.35,11.64 l 7.32,-4.16 c -1.91,-0.69 -3.83,-1.38 -5.74,-2.08 -3.93,-1.42 -7.23,2.2 -7.54,5.74 -0.62,7.3 3.99,14.03 5.12,21.16 1.23,7.75 0.33,15.46 -2.09,22.88 l 11.51,3.17 c 2.69,-8.94 5.39,-17.87 8.1,-26.81 l -11.79,-1.6 c -0.72,7.38 -0.62,14.7 0.28,22.07 0.82,6.64 9.47,8.35 11.86,1.61 3.24,-9.14 5.26,-18.46 6.44,-28.07 H 79.93 c -0.35,8.58 0.31,17.03 1.78,25.48 1.09,6.29 10.29,5.44 11.9,0 2.64,-8.91 4.26,-17.98 5.08,-27.24 H 86.17 c 0.43,9.09 1.75,18.08 3.93,26.91 1.8,7.29 11.69,5.02 12.33,-1.67 0.75,-7.85 1.51,-15.7 2.26,-23.55 H 92.12 c 0.91,7.17 1.83,14.34 2.74,21.51 1.01,7.96 11.78,8.19 12.57,0 0.79,-8.19 1.56,-16.19 2.34,-24.29 H 97.19 c 0.35,4.28 0.71,8.57 1.06,12.85 0.66,7.98 12.36,8.21 12.59,0 0.29,-10.49 -0.83,-20.92 -3.25,-31.13 -1.6,-6.76 -13.11,-5.5 -12.37,1.67 0.52,5.01 0.47,9.92 -0.15,14.92 l 12.39,-1.68 c -1.87,-7.69 -3.73,-15.38 -5.6,-23.07 -1.42,-5.85 -11.07,-6.25 -12.23,0 -1.41,7.63 -2.83,15.26 -4.24,22.9 H 97.68 C 95.6,45.69 93.53,37.75 91.45,29.81 c -1.58,-6.03 -10.87,-6.19 -12.36,0 -2.17,8.97 -3.11,18.1 -2.7,27.33 H 89.28 C 88.2,47.58 87.11,38.01 86.02,28.45 c -0.92,-8.1 -12.64,-8.52 -12.94,0 -0.28,7.71 -0.55,15.42 -0.83,23.13 -0.3,8.35 12.57,8.31 12.96,0 0.86,-18.33 1.4,-36.55 -1.59,-54.73 L 71.1,0.3 c 1.61,7.44 3.22,14.88 4.83,22.31 L 88.45,19.16 C 86.94,13.36 86.57,7.7 87.12,1.74 L 74.36,3.47 c 3.13,7.73 5.61,15.63 7.48,23.75 1.75,7.61 12.07,5.12 12.76,-1.73 0.78,-7.85 1.11,-15.7 0.98,-23.59 L 82.82,3.63 c 1.42,6.63 2.84,13.26 4.24,19.9 1.31,6.19 11.23,6.21 12.54,0 1.38,-6.55 2.75,-13.11 4.13,-19.66 H 91.12 c 0.84,4.34 1.68,8.68 2.52,13.02 1.01,5.23 9.78,6.72 11.99,1.57 2.01,-4.67 3.19,-9.25 2.97,-14.37 H 95.56 c 0.33,0.91 0.24,1.77 -0.25,2.58 -2.77,7.92 9.46,11.01 12.42,3.42 0.77,-1.96 1.03,-3.91 0.87,-6.01 -0.65,-8.25 -13.11,-8.5 -13.04,0 0.02,2.65 -0.21,5.28 -1.26,7.75 l 11.99,1.57 c -0.86,-4.33 -1.71,-8.67 -2.57,-13 -1.24,-6.27 -11.33,-6.21 -12.61,0 -1.35,6.56 -2.71,13.12 -4.06,19.68 H 99.59 C 98.16,13.45 96.75,6.82 95.33,0.19 93.79,-7.01 82.45,-5.35 82.57,1.92 82.7,9.81 82.38,17.66 81.59,25.51 L 94.35,23.78 C 92.49,15.66 90,7.76 86.87,0.03 84.12,-6.76 74.81,-5.8 74.11,1.76 c -0.65,7.05 0,14.03 1.79,20.88 2.12,8.13 14.28,4.68 12.52,-3.45 C 86.81,11.75 85.2,4.31 83.59,-3.12 81.8,-11.4 69.73,-7.77 71.07,0.33 c 2.79,16.94 1.94,34.21 1.16,51.28 H 85.19 C 85.46,43.9 85.74,36.19 86.01,28.48 H 73.07 c 1.1,9.56 2.2,19.13 3.31,28.69 0.93,8.03 13.3,8.47 12.89,0 -0.41,-8.47 0.28,-16.01 2.17,-23.92 H 79.08 c 2.1,7.93 4.2,15.87 6.29,23.8 1.53,5.78 11.13,6.37 12.29,0 1.39,-7.64 2.78,-15.28 4.18,-22.91 H 89.61 c 1.89,7.68 3.78,15.37 5.66,23.05 1.83,7.45 11.59,4.91 12.39,-1.68 0.61,-5 0.66,-9.91 0.14,-14.92 l -12.37,1.67 c 2.17,9.18 3.06,18.36 2.81,27.78 h 12.59 c -0.36,-4.28 -0.71,-8.57 -1.07,-12.85 -0.68,-8.12 -11.81,-8.06 -12.58,0 -0.77,8.06 -1.55,16.19 -2.33,24.29 h 12.57 c -0.92,-7.17 -1.83,-14.34 -2.75,-21.51 -1.02,-7.95 -11.78,-8.19 -12.57,0 -0.79,8.19 -1.5,15.7 -2.25,23.55 l 12.33,-1.67 c -1.93,-7.78 -3.08,-15.58 -3.52,-23.57 -0.44,-8.11 -11.88,-8 -12.52,0 -0.66,8.15 -2.19,16.1 -4.45,23.96 h 11.9 c -1.33,-7.35 -1.77,-14.74 -1.51,-22.2 0.27,-8.01 -11.27,-7.56 -12.17,0 -1.01,8.5 -3.09,16.79 -5.92,24.86 l 11.86,1.61 C 84.92,79.15 84.8,71.83 85.5,64.44 c 0.65,-6.93 -9.92,-7.87 -11.79,-1.6 -2.67,8.94 -5.35,17.89 -8.03,26.83 -2.22,7.4 9.14,10.45 11.51,3.17 2.53,-7.76 3.57,-16.01 2.76,-24.15 -0.4,-4.03 -1.12,-8.05 -2.34,-11.91 -1.22,-3.86 -3.39,-7.21 -3.06,-11.15 l -7.54,5.74 c 1.91,0.69 3.83,1.38 5.74,2.07 2.97,1.07 6.6,-1.22 7.32,-4.16 C 82.14,40.85 76.71,33.8 77.5,25.52 77.9,21.34 78.35,17.45 76.59,13.48 75.22,10.39 71.17,7.31 71.37,3.83 l -8.93,1.21 c 0.53,1.53 0.75,2.7 0.72,4.32 H 72 C 72,7.57 71.93,5.79 71.87,4 l -7.76,2.1 0.96,2.67 c 0.59,4.54 7.31,4.88 7.34,0 0.03,-3.76 -1.86,-8.33 -6.42,-6.7 -1.67,0.6 -2.17,3.58 0,3.91 v 0 z"
             id="path37"
             style="display:inline" />
          <path
             class="cls-11"
             d="m 5.65,16.06 c 3.57,-0.07 7.11,1.54 10.63,2.06 2.53,0.38 5.05,0.58 7.6,0.79 6.29,0.52 12.58,0.83 18.88,1.11 5.96,0.26 11.93,0.39 17.89,0.56 3.22,0.09 6.74,0.41 9.94,-0.01 1.51,-0.2 3.49,-1.57 4.78,-0.48 0.38,0.32 1.12,0.03 0.92,-0.53 C 74.88,15.76 72.47,14.59 68.6,14.25 61.34,13.61 54.02,13.51 46.74,13.3 39.46,13.09 32.16,12.97 24.88,13.11 18.12,13.24 12.18,14.44 5.57,15.43 5.2,15.49 5.29,16.08 5.66,16.08 v 0 z"
             id="path38" />
          <path
             class="cls-10"
             d="m 4.39,70.88 c 3.32,0.41 3.6,6.72 3.77,8.94 0.24,3.3 -0.53,5.49 -2.55,8.1 -0.61,0.79 -0.09,2.22 1.07,1.84 4.53,-1.45 5.13,-6.83 4.22,-10.9 -0.74,-3.32 -2.26,-8.5 -6.52,-8.26 -0.19,0.01 -0.18,0.26 0,0.28 v 0 z"
             id="path44" />
        </g>
      </g>
      <path
         class="cls-5"
         d="m 65.870155,3.0643074 c 9.35,-1.05 29.52,-0.9 29.52,-0.9 0,0 -7.86,20.2499996 0,23.5899996 5.890005,2.51 -16.14,4.31 -27.53,5.05"
         id="path48" />
      <path
         class="cls-5"
         d="m 66.780155,3.1143074 c 0,0 -5.28,21.3599996 0.34,25.7899996 5.61,4.43 -62.2899998,1.96 -62.2899998,1.96 0,0 -7.09,-20.44 -0.5,-25.6799996 6.5899998,-5.23999999 62.4499998,-2.06 62.4499998,-2.06 z"
         id="path49" />
    </g>
  </g>
</svg>
