<?xml version="1.0" encoding="UTF-8" standalone="no"?>
<svg
   id="Calque_2"
   data-name="Calque 2"
   viewBox="0 0 109.03 31.729996"
   version="1.1"
   sodipodi:docname="book2.svg"
   width="109.03"
   height="31.73"
   inkscape:version="1.4.2 (f4327f4, 2025-05-13)"
   xmlns:inkscape="http://www.inkscape.org/namespaces/inkscape"
   xmlns:sodipodi="http://sodipodi.sourceforge.net/DTD/sodipodi-0.dtd"
   xmlns="http://www.w3.org/2000/svg"
   xmlns:svg="http://www.w3.org/2000/svg">
  <sodipodi:namedview
     id="namedview49"
     pagecolor="#ffffff"
     bordercolor="#999999"
     borderopacity="1"
     inkscape:showpageshadow="2"
     inkscape:pageopacity="0"
     inkscape:pagecheckerboard="0"
     inkscape:deskcolor="#d1d1d1"
     inkscape:zoom="5.8944627"
     inkscape:cx="43.854718"
     inkscape:cy="56.917826"
     inkscape:window-width="1188"
     inkscape:window-height="981"
     inkscape:window-x="-8"
     inkscape:window-y="0"
     inkscape:window-maximized="0"
     inkscape:current-layer="g49" />
  <defs
     id="defs1">
    <style
       id="style1">
      .cls-1 {
        fill: #ffce62;
      }

      .cls-1, .cls-2, .cls-3, .cls-4, .cls-5 {
        stroke-linecap: round;
        stroke-linejoin: round;
        stroke-width: 2.51px;
      }

      .cls-1, .cls-5 {
        stroke: #733d00;
      }

      .cls-6 {
        fill: #e19100;
      }

      .cls-6, .cls-7, .cls-8, .cls-9, .cls-10, .cls-11, .cls-12, .cls-13, .cls-14 {
        stroke-width: 0px;
      }

      .cls-2, .cls-8, .cls-3, .cls-5 {
        fill: none;
      }

      .cls-2, .cls-4 {
        stroke: #053d58;
      }

      .cls-7 {
        fill: #f0f;
      }

      .cls-15 {
        opacity: .3;
      }

      .cls-3 {
        stroke: #641233;
      }

      .cls-9 {
        fill: #57d653;
      }

      .cls-4 {
        fill: #e6f4fd;
      }

      .cls-16 {
        clip-path: url(#clippath);
      }

      .cls-10 {
        fill: #eafdf1;
      }

      .cls-11 {
        fill: #82263e;
      }

      .cls-12 {
        fill: #ad949d;
      }

      .cls-13 {
        fill: #733d00;
      }

      .cls-14 {
        fill: #00e7ff;
      }
    </style>
    <clipPath
       id="clippath">
      <path
         class="cls-8"
         d="M 107.6,61.55 105.66,50.69 71.5,55.42 v -0.68 l 31.54,-4.8 -1.94,-10.86 -4.34,0.6 c -0.13,-0.2 -0.42,-0.4 -0.91,-0.6 -7.86,-3.34 0,-23.59 0,-23.59 0,0 -14.26,-0.11 -24.36,0.48 V 14.83 L 101.65,15.32 103.59,4.46 62.08,1.39 H 2.85 l -1.6,11.58 53.18,1.48 v 1.42 c -16.91,-0.59 -45.05,-1 -49.61,2.63 -6.59,5.24 0.5,25.68 0.5,25.68 0,0 4.58,0.17 11.25,0.34 H 1.81 l 1.6,11.58 h 51.02 v 0.03 H 6.37 l 1.6,11.58 -5.28,0.23 c 0,0 8.44,18.33 0,21.53 -6.68,2.53 40.3,1.05 60.12,0.33 -0.56,3.79 41.31,-3.51 41.31,-3.51 0,0 7.39,-18.09 0.66,-24.29 l 2.83,-0.43 z"
         id="path1" />
    </clipPath>
  </defs>
  <g
     id="Layer_1"
     data-name="Layer 1">
    <g
       id="g49">
      <polygon
         class="cls-1"
         points="66.66,55.98 105.83,50.55 107.77,61.41 67.36,67.56 8.14,67.56 6.54,55.98 "
         id="polygon3"
         transform="translate(-0.33930149,-37.323165)" />
      <polygon
         class="cls-4"
         points="62.11,44.38 101.28,38.94 103.22,49.81 62.81,55.96 3.58,55.96 1.98,44.38 "
         id="polygon4"
         style="stroke:#68052e;stroke-opacity:1"
         transform="translate(-0.33930149,-37.323165)" />
      <g
         id="g16"
         transform="translate(-0.33930149,-37.323165)">
        <path
           class="cls-9"
           d="m 103.42,63.94 c 0,0 0.02,-0.02 0.02,-0.03 0.01,-0.03 -0.06,0.07 -0.02,0.03 0.03,-0.03 -0.04,0.03 -0.04,0.03 0.04,-0.02 -0.08,0.03 -0.05,0.02 0.05,-0.02 -0.06,0 -0.06,0 0.02,0 0.06,0 -0.02,0 -0.08,0 -0.03,0 -0.02,0 0.04,0.01 -0.06,-0.02 -0.06,-0.03 0,0 0.05,0.03 0.05,0.03 0,0 -0.08,-0.08 -0.04,-0.03 0,0 0.02,0.01 0.02,0.02 0.02,0.02 0.06,0.08 0.01,0.01 -0.05,-0.07 0,0 0.01,0.02 0,0 0.03,0.06 0.03,0.06 0,0 -0.04,-0.12 -0.03,-0.06 0,0.01 0,0.02 0,0.03 0,0 0,0.02 0,0.02 0.02,0.05 0,-0.1 0,-0.08 0,0.02 0,0.11 0,0 0.01,-0.09 0,-0.05 0,-0.03 0,0.02 0.05,-0.13 0.03,-0.08 -0.05,0.13 -0.04,0.08 -0.06,0.18 0,0 0,0.06 0,0.08 0,0.01 0.03,-0.15 0.01,-0.09 0,0.03 0.06,-0.12 0.03,-0.07 -0.02,0.03 0.04,-0.06 0.04,-0.06 0,0 -0.03,0.03 -0.03,0.03 -0.22,0.2 -0.09,0.54 0.17,0.63 0.35,0.12 0.73,-0.13 0.72,-0.51 0,-0.22 -0.12,-0.43 -0.28,-0.57 -0.15,-0.13 -0.34,-0.24 -0.55,-0.24 -0.25,0 -0.46,0.17 -0.51,0.42 -0.03,0.16 0.03,0.32 0.19,0.39 0.15,0.06 0.33,0 0.41,-0.13 v 0 z"
           id="path8" />
        <path
           class="cls-9"
           d="m 103.53,65.46 c 0.3,0 0.3,-0.47 0,-0.47 -0.3,0 -0.3,0.47 0,0.47 z"
           id="path9" />
        <path
           class="cls-7"
           d="m 67.49,49.86 0.62,0.37 1.79,-1.38 -0.23,0.18 -3.24,-1.89 -0.43,0.61 3.29,2.51 0.05,-1.74 h -5.49 l -0.04,0.7 5.3,1.44 -0.03,-1.49 H 63.4 l -0.1,1.05 6.03,0.82 0.04,-2.29 h -6.2 l 0.21,2.41 c 0,3.15 4.8,4.82 6.27,1.7 l 1.47,-1.71 h -3.71 l 0.91,0.67 -1.93,-3.36 0.04,1.06 1.24,-3 -0.81,0.73 3.24,-1.34 -1.09,0.02 3.43,8.28 0.14,-0.14 -3.53,-8.52 c 1.08,-0.25 1.19,-0.33 0.33,-0.25 -0.64,0 -1.27,0.07 -1.9,0.2 -0.93,0.22 -1.89,0.67 -2.64,1.23 -1.72,1.27 -1.88,2.82 -2.55,4.67 -1.13,3.13 2.59,4.97 5.04,3.88 9.5,-4.21 20.08,0.22 29.41,-4.44 4.95,-2.47 1.25,-9.19 -3.52,-8.36 -3.51,0.61 -6.89,0.77 -10.44,0.66 -6.31,-0.19 -6.09,9.09 0,9.67 5.15,0.49 14.41,0.75 15.09,-6.17 l -1.14,1.99 c 1.7,-1.01 3.01,-2.2 4.04,-3.9 l -4.56,-0.6 0.5,2.29 c 0.26,2.95 4.67,3.06 4.67,0 l 0.18,-2.5 c 0.54,-3.21 -4.2,-4.67 -4.98,-1.37 -0.42,1.78 -0.51,3.17 0.12,4.9 1.1,3.05 5.82,2.73 5.85,-0.79 0,-0.95 0.01,-1.89 0.02,-2.84 h -6.05 l -0.15,2.25 c -0.69,3.7 4.58,5.26 5.71,1.57 0.5,-1.63 0.57,-2.12 0.49,-3.83 -0.17,-3.87 -6.14,-3.91 -6.05,0 0.02,0.95 0.05,1.89 0.07,2.84 l 5.85,-0.79 c -0.4,-0.84 -0.66,-1.71 -0.78,-2.63 l -5.08,0.69 0.13,2.5 h 4.67 c 0.13,-1.69 0.08,-1.98 -0.35,-3.62 -0.63,-2.39 -4.17,-2.36 -4.82,0 -0.24,0.99 -0.84,1.61 -1.8,1.85 l 2.79,0.36 c -3.71,-3.38 -9.82,-1.8 -14.42,-1.87 v 9.67 C 87.1,52.6 91.4,52.08 95.65,51.3 l 6.31974,-12.092316 c -4.569997,2.34 -4.411522,-0.436857 -23.582185,3.665809 C 73.547602,43.909279 68.01,46.96 63.86,49.35 l 5.04,3.88 0.22,-0.92 -4.16,2.36 c 4.81,1 8.72,1.21 11.9,-3.08 2.14,-2.89 -0.71,-7.92 -4.31,-7.51 -2.91,0.34 -4.99,1.01 -7,3.26 -3.65,4.07 0.92,10.27 5.87,7.61 3.69,-1.98 4.92,-7.43 0.8,-9.87 -4.12,-2.44 -7.43,1.55 -8.75,5.17 l 6.61,0.89 c -0.14,-1.62 -0.27,-2.56 -0.73,-4.12 -1.04,-3.53 -6.14,-2.75 -6.31,0.85 -0.14,1.06 -0.1,2.1 0.13,3.14 0.42,3.2 5.06,4.45 6.03,0.82 0.48,-1.8 0.53,-2.5 -0.14,-4.25 -1.19,-3.09 -5.54,-2.64 -5.79,0.78 -0.08,1.17 0.02,1.87 0.23,3.03 0.54,2.95 4.67,2.44 5.48,0 0.4,-1.2 0.47,-1.63 0.33,-2.89 -0.41,-3.93 -5.93,-3.25 -5.39,0.73 l 0.23,1.7 c 0.32,2.38 3.68,2.3 4.75,0.62 0.89,-1.39 0.98,-1.83 0.99,-3.49 0.01,-2.09 -3.19,-2.59 -3.69,-0.5 -0.36,1.52 -0.19,2.04 0.88,3.19 0.46,0.5 1.42,0.66 2,0.26 l 0.56,-0.39 c 0.93,-0.65 0.58,-2.04 -0.57,-2.12 -0.87,-0.06 -0.75,-0.07 -1.6,0.26 -0.47,0.18 -0.6,0.97 0,1.09 v 0 z"
           id="path11"
           sodipodi:nodetypes="ccccccccccccccccccccccccccccccccccccccccccccccccccccccccccccccccccccccsccccccccscccccccccccccccccccccscc" />
        <path
           class="cls-7"
           d="m 97.58,43.07 c -0.02,-0.08 0,0.11 0,0 l -0.8,0.33 c 0,0 0.05,0.04 0.07,0.07 l -0.2,-0.26 c 0,0 0.03,0.04 0.04,0.06 l -0.13,-0.32 c 0,0 0.02,0.06 0.03,0.1 l -0.05,-0.37 c 0,0 0,0.05 0,0.07 l 0.05,-0.37 c 0,0 -0.01,0.04 -0.02,0.07 l 0.15,-0.34 c 0,0 -0.03,0.05 -0.05,0.08 l 0.23,-0.3 c 0,0 -0.05,0.05 -0.07,0.07 l 0.31,-0.24 c 0,0 -0.07,0.05 -0.11,0.06 l 0.38,-0.16 c 0,0 -0.1,0.03 -0.15,0.04 -0.19,0.05 -0.34,0.15 -0.51,0.23 l 0.39,-0.16 c 0,0 -0.08,0.03 -0.12,0.03 l 0.43,-0.06 c 0,0 -0.05,0 -0.08,0 l 0.43,0.06 c 0,0 -0.05,0 -0.07,-0.02 l 0.38,0.16 h -0.02 c -0.18,-0.13 -0.38,-0.19 -0.59,-0.2 -0.21,-0.05 -0.42,-0.04 -0.64,0.03 -0.37,0.1 -0.77,0.39 -0.95,0.73 -0.2,0.37 -0.29,0.82 -0.16,1.23 l 0.16,0.38 c 0.14,0.24 0.33,0.43 0.57,0.57 0.13,0.09 0.3,0.15 0.45,0.2 0.03,0.01 0.06,0.02 0.1,0.03 0.35,0.07 0.68,0.08 1.03,-0.02 0.46,-0.12 0.84,-0.42 1.09,-0.82 0.05,-0.09 0.08,-0.18 0.12,-0.27 0.04,-0.09 0.09,-0.19 0.11,-0.28 C 99.5,43 99.45,42.47 99.19,42.04 99,41.74 98.74,41.52 98.41,41.38 98.22,41.3 98.21,41.29 98,41.27 c -0.09,-0.01 -0.18,-0.03 -0.27,-0.02 -0.23,0 -0.44,0.06 -0.64,0.17 -0.19,0.11 -0.34,0.27 -0.46,0.46 -0.12,0.2 -0.17,0.41 -0.17,0.64 0,0.23 0.06,0.44 0.17,0.64 0.11,0.15 0.2,0.29 0.36,0.39 0.31,0.21 0.72,-0.14 0.62,-0.48 v 0 z"
           id="path12" />
        <path
           class="cls-6"
           d="m 71.93,60.85 1.53,0.86 1.12,-2.66 -0.85,-0.39 1.38,3.39 0.3,-1.48 c 0.7,-3.46 -3.18,-5.8 -5.86,-3.41 -0.62,0.46 -1.14,1.01 -1.57,1.65 l 6.26,4.83 0.77,-1.73 -7.61,-2.06 c 0.02,0.79 0.04,1.59 0.06,2.38 0.09,3.27 -2.278125,6.497206 0.561875,4.987206 C 72.091875,65.067206 81.83,62.18 86.44,61.7 c -0.38,-2.82 -0.76,-5.64 -1.15,-8.47 -3.06,0.59 -5.92,1.44 -8.8,2.61 -4.43,1.81 -3.98,8.19 1.15,8.51 5.95,0.38 12.35,-0.02 17.7,-2.87 5.35,-2.85 -1.05,-10.53 -4.77,-6.19 -1.65,1.93 -5.68,1.47 -7.85,1.36 v 6.08 c 5.78,-0.39 11.6,-1.81 17.28,-2.92 1.79,-0.35 3.27,-2.77 2.56,-4.51 l -0.13,-0.32 c -0.64,-1.58 -1.77,-2.62 -3.54,-2.7 h -0.35 c -1.48,-0.07 -3.27,1.16 -3.55,2.69 l -0.06,0.35 c -0.31,1.74 0.24,3.16 1.69,4.16 1.99,1.38 5.13,0.33 7.3,-0.03 l -4.23,-5.51 -1.17,1.58 c -2.38,3.23 2.09,6.57 5.07,5.07 l 1.72,-0.87 -3.67,-6.27 c -1.96,1.26 -3.81,1.85 -6.07,2.28 -4.45,0.84 -3.49,8.32 1.08,7.96 4.57,-0.36 9.1,-2.93 10.05,-7.74 0.71,-3.62 -3.73,-6.94 -6.59,-3.84 -1.44,1.56 -2.41,2.92 -4.54,3.61 l 3.12,7.41 c 2.26,-1.01 4.45,-2.23 6.62,-3.41 3.52,-1.92 1.07,-8.24 -2.8,-6.64 l -1.78,0.74 3.6,6.19 1.24,-1.53 c 2.36,-2.92 0.18,-7.02 -3.65,-6.27 -1.38,0.27 -2.75,0.51 -4.13,0.72 l 2.84,0.37 -0.29,-0.19 1.69,4.16 0.05,-0.35 -3.55,2.7 h 0.35 c -1.06,-0.6 -2.11,-1.21 -3.17,-1.81 l 0.14,0.32 2.19,-5.39 c -5.36,1.2 -10.97,2.16 -16.14,4.02 -3.75,1.35 -2.21,6.4 1.62,5.86 2.27,-0.32 6.45,-1.59 8.78,-0.74 l 1.05,-7.74 C 88.02,54.8 83.06,56 77.64,55.69 L 76.58454,65.726857 C 79.46454,64.536857 84.53,62.14 87.58,61.54 c 4.7,-0.93 3.71,-9.01 -1.15,-8.47 -6.03,0.67 -11.73,2.25 -16.9,5.52 l 6.33,3.63 c -0.1,-0.79 -0.21,-1.59 -0.31,-2.38 -0.57,-4.4 -6.49,-5.75 -8.02,-1.09 l -0.59,1.8 c -1.39,4.22 5.37,7.21 7.29,3.07 0.48,-1.04 0.87,-1.96 1.18,-3.07 l -6.41,0.84 0.62,1.36 c 1.11,2.44 4.85,1.6 5.49,-0.72 l 0.34,-0.86 c 0.51,-1.01 -0.36,-2.65 -1.64,-2.14 l -1.7,0.42 c -0.8,0.07 -0.95,1.1 -0.19,1.38 v 0 z"
           id="path15"
           sodipodi:nodetypes="cccccccccccccccccsccccccccccccccccccscccccccccccccccccccccccccccscccccccccccccscc" />
        <path
           class="cls-6"
           d="m 102.14,58.63 c 0.31,0.27 0.63,0.53 0.96,0.77 0.16,0.12 0.33,0.23 0.5,0.33 l 0.21,0.12 c 0.28,0.22 0.32,0.13 0.09,-0.29 -0.04,0.39 0.25,0.83 0.58,1.01 0.27,0.15 0.55,0.29 0.83,0.41 0.79,0.35 1.75,0.1 2,-0.81 0.24,-0.86 -0.43,-1.7 -1.31,-1.72 -0.31,0 -0.62,-0.03 -0.93,-0.06 -0.4,-0.04 -0.82,0.25 -1.01,0.58 l -0.02,0.04 0.56,-0.43 c -0.12,0.04 -0.72,-0.28 -0.83,-0.33 -0.33,-0.15 -0.64,-0.32 -0.95,-0.51 -0.54,-0.32 -1.17,0.45 -0.68,0.89 z"
           id="path16" />
      </g>
      <g
         id="g36"
         transform="translate(-0.33930149,-37.323165)">
        <line
           class="cls-5"
           x1="67.360001"
           y1="67.559998"
           x2="66.660004"
           y2="55.98"
           id="line17" />
        <line
           class="cls-3"
           x1="62.110001"
           y1="44.380001"
           x2="62.810001"
           y2="55.959999"
           id="line18" />
        <path
           class="cls-12"
           d="m 9.11,49.4 c 14.55,0.53 29.34,0.38 43.89,-0.21 0.93,-0.04 0.94,-1.46 0,-1.46 -14.57,0 -29.36,0.45 -43.89,1.57 -0.06,0 -0.06,0.09 0,0.09 v 0 z"
           id="path27" />
        <path
           class="cls-12"
           d="m 26.62,51.86 c 6.63,0.35 13.34,0.71 19.95,-0.13 0.47,-0.06 0.5,-0.75 0,-0.75 -6.65,-0.07 -13.3,0.6 -19.95,0.79 -0.06,0 -0.06,0.09 0,0.09 z"
           id="path28" />
        <path
           class="cls-13"
           d="m 22.4,60.61 c 8.88,0.47 17.71,0.74 26.6,0.62 0.72,-0.01 0.73,-1.13 0,-1.13 -8.87,0.08 -17.73,0.25 -26.6,0.28 -0.15,0 -0.15,0.23 0,0.23 z"
           id="path29" />
        <path
           class="cls-13"
           d="m 26.36,63.04 c 9.71,1.69 19.91,2.49 29.73,1.3 1.13,-0.14 1.16,-1.67 0,-1.78 -9.78,-0.94 -19.92,-0.51 -29.7,0.26 -0.12,0 -0.17,0.21 -0.03,0.23 v 0 z"
           id="path30" />
      </g>
      <g
         class="cls-15"
         id="g45"
         transform="translate(-0.33930149,-37.323165)">
        <g
           class="cls-16"
           clip-path="url(#clippath)"
           id="g44">
          <path
             class="cls-11"
             d="m 66.04,5.98 -0.43,0.93 6.71,2.83 c 0.66,-3 0.24,-5.03 -0.98,-7.85 -1.81,-4.17 -7.45,-1.53 -7.76,2.1 -0.15,1.79 -0.31,3.57 -0.39,5.36 -0.25,5.7 8.51,5.65 8.84,0 0.14,-2.33 -0.14,-4.5 -0.79,-6.74 -1.15,-3.95 -8.12,-4.7 -8.77,0 -0.52,3.72 0.11,6.56 1.88,9.88 0.66,1.23 1.59,2.42 2.13,3.71 1.01,2.4 0.49,4.48 0.11,6.95 -0.61,3.88 -1.12,7.43 -0.31,11.32 0.81,3.89 3.32,7.74 2.35,11.64 l 7.32,-4.16 c -1.91,-0.69 -3.83,-1.38 -5.74,-2.08 -3.93,-1.42 -7.23,2.2 -7.54,5.74 -0.62,7.3 3.99,14.03 5.12,21.16 1.23,7.75 0.33,15.46 -2.09,22.88 l 11.51,3.17 c 2.69,-8.94 5.39,-17.87 8.1,-26.81 l -11.79,-1.6 c -0.72,7.38 -0.62,14.7 0.28,22.07 0.82,6.64 9.47,8.35 11.86,1.61 3.24,-9.14 5.26,-18.46 6.44,-28.07 H 79.93 c -0.35,8.58 0.31,17.03 1.78,25.48 1.09,6.29 10.29,5.44 11.9,0 2.64,-8.91 4.26,-17.98 5.08,-27.24 H 86.17 c 0.43,9.09 1.75,18.08 3.93,26.91 1.8,7.29 11.69,5.02 12.33,-1.67 0.75,-7.85 1.51,-15.7 2.26,-23.55 H 92.12 c 0.91,7.17 1.83,14.34 2.74,21.51 1.01,7.96 11.78,8.19 12.57,0 0.79,-8.19 1.56,-16.19 2.34,-24.29 H 97.19 c 0.35,4.28 0.71,8.57 1.06,12.85 0.66,7.98 12.36,8.21 12.59,0 0.29,-10.49 -0.83,-20.92 -3.25,-31.13 -1.6,-6.76 -13.11,-5.5 -12.37,1.67 0.52,5.01 0.47,9.92 -0.15,14.92 l 12.39,-1.68 c -1.87,-7.69 -3.73,-15.38 -5.6,-23.07 -1.42,-5.85 -11.07,-6.25 -12.23,0 -1.41,7.63 -2.83,15.26 -4.24,22.9 H 97.68 C 95.6,45.69 93.53,37.75 91.45,29.81 c -1.58,-6.03 -10.87,-6.19 -12.36,0 -2.17,8.97 -3.11,18.1 -2.7,27.33 H 89.28 C 88.2,47.58 87.11,38.01 86.02,28.45 c -0.92,-8.1 -12.64,-8.52 -12.94,0 -0.28,7.71 -0.55,15.42 -0.83,23.13 -0.3,8.35 12.57,8.31 12.96,0 0.86,-18.33 1.4,-36.55 -1.59,-54.73 L 71.1,0.3 c 1.61,7.44 3.22,14.88 4.83,22.31 L 88.45,19.16 C 86.94,13.36 86.57,7.7 87.12,1.74 L 74.36,3.47 c 3.13,7.73 5.61,15.63 7.48,23.75 1.75,7.61 12.07,5.12 12.76,-1.73 0.78,-7.85 1.11,-15.7 0.98,-23.59 L 82.82,3.63 c 1.42,6.63 2.84,13.26 4.24,19.9 1.31,6.19 11.23,6.21 12.54,0 1.38,-6.55 2.75,-13.11 4.13,-19.66 H 91.12 c 0.84,4.34 1.68,8.68 2.52,13.02 1.01,5.23 9.78,6.72 11.99,1.57 2.01,-4.67 3.19,-9.25 2.97,-14.37 H 95.56 c 0.33,0.91 0.24,1.77 -0.25,2.58 -2.77,7.92 9.46,11.01 12.42,3.42 0.77,-1.96 1.03,-3.91 0.87,-6.01 -0.65,-8.25 -13.11,-8.5 -13.04,0 0.02,2.65 -0.21,5.28 -1.26,7.75 l 11.99,1.57 c -0.86,-4.33 -1.71,-8.67 -2.57,-13 -1.24,-6.27 -11.33,-6.21 -12.61,0 -1.35,6.56 -2.71,13.12 -4.06,19.68 H 99.59 C 98.16,13.45 96.75,6.82 95.33,0.19 93.79,-7.01 82.45,-5.35 82.57,1.92 82.7,9.81 82.38,17.66 81.59,25.51 L 94.35,23.78 C 92.49,15.66 90,7.76 86.87,0.03 84.12,-6.76 74.81,-5.8 74.11,1.76 c -0.65,7.05 0,14.03 1.79,20.88 2.12,8.13 14.28,4.68 12.52,-3.45 C 86.81,11.75 85.2,4.31 83.59,-3.12 81.8,-11.4 69.73,-7.77 71.07,0.33 c 2.79,16.94 1.94,34.21 1.16,51.28 H 85.19 C 85.46,43.9 85.74,36.19 86.01,28.48 H 73.07 c 1.1,9.56 2.2,19.13 3.31,28.69 0.93,8.03 13.3,8.47 12.89,0 -0.41,-8.47 0.28,-16.01 2.17,-23.92 H 79.08 c 2.1,7.93 4.2,15.87 6.29,23.8 1.53,5.78 11.13,6.37 12.29,0 1.39,-7.64 2.78,-15.28 4.18,-22.91 H 89.61 c 1.89,7.68 3.78,15.37 5.66,23.05 1.83,7.45 11.59,4.91 12.39,-1.68 0.61,-5 0.66,-9.91 0.14,-14.92 l -12.37,1.67 c 2.17,9.18 3.06,18.36 2.81,27.78 h 12.59 c -0.36,-4.28 -0.71,-8.57 -1.07,-12.85 -0.68,-8.12 -11.81,-8.06 -12.58,0 -0.77,8.06 -1.55,16.19 -2.33,24.29 h 12.57 c -0.92,-7.17 -1.83,-14.34 -2.75,-21.51 -1.02,-7.95 -11.78,-8.19 -12.57,0 -0.79,8.19 -1.5,15.7 -2.25,23.55 l 12.33,-1.67 c -1.93,-7.78 -3.08,-15.58 -3.52,-23.57 -0.44,-8.11 -11.88,-8 -12.52,0 -0.66,8.15 -2.19,16.1 -4.45,23.96 h 11.9 c -1.33,-7.35 -1.77,-14.74 -1.51,-22.2 0.27,-8.01 -11.27,-7.56 -12.17,0 -1.01,8.5 -3.09,16.79 -5.92,24.86 l 11.86,1.61 C 84.92,79.15 84.8,71.83 85.5,64.44 c 0.65,-6.93 -9.92,-7.87 -11.79,-1.6 -2.67,8.94 -5.35,17.89 -8.03,26.83 -2.22,7.4 9.14,10.45 11.51,3.17 2.53,-7.76 3.57,-16.01 2.76,-24.15 -0.4,-4.03 -1.12,-8.05 -2.34,-11.91 -1.22,-3.86 -3.39,-7.21 -3.06,-11.15 l -7.54,5.74 c 1.91,0.69 3.83,1.38 5.74,2.07 2.97,1.07 6.6,-1.22 7.32,-4.16 C 82.14,40.85 76.71,33.8 77.5,25.52 77.9,21.34 78.35,17.45 76.59,13.48 75.22,10.39 71.17,7.31 71.37,3.83 l -8.93,1.21 c 0.53,1.53 0.75,2.7 0.72,4.32 H 72 C 72,7.57 71.93,5.79 71.87,4 l -7.76,2.1 0.96,2.67 c 0.59,4.54 7.31,4.88 7.34,0 0.03,-3.76 -1.86,-8.33 -6.42,-6.7 -1.67,0.6 -2.17,3.58 0,3.91 v 0 z"
             id="path37"
             style="display:none" />
          <path
             class="cls-11"
             d="m 6.34,58.13 c 5.6,-0.73 11.27,-0.09 16.89,0.15 5.62,0.24 11.67,0.3 17.5,0.42 5.51,0.12 11.02,0.18 16.53,0.22 2.92,0.02 5.83,0.04 8.75,0.06 2.39,0.02 6.16,-0.7 8.4,0.19 l -1.06,-1.86 1.94,-0.19 c -0.36,-0.75 -1.63,-0.75 -1.99,0 l -0.08,0.16 c -0.3,0.62 -0.16,1.31 0.44,1.7 l 0.26,0.17 c 0.43,0.27 0.97,0.23 1.4,0 l 0.24,-0.13 c 0.57,-0.3 0.89,-1.09 0.7,-1.71 L 76.11,56.84 C 75.94,56.3 75.49,55.72 74.89,55.62 69.87,54.77 64.29,55.45 59.2,55.49 53.04,55.54 46.88,55.6 40.73,55.73 29.37,55.98 17.46,55.43 6.25,57.49 5.89,57.56 5.97,58.18 6.34,58.14 v 0 z"
             id="path39" />
          <path
             class="cls-11"
             d="m 1.79,59.65 c 2.82,-2.21 6.8,-1.15 10.1,-0.85 2.95,0.27 5.9,0.49 8.86,0.64 6.24,0.33 12.46,0.43 18.71,0.5 5.91,0.07 11.81,0.14 17.72,0.09 5.91,-0.05 12.31,0.63 18.09,-0.75 1.31,-0.31 1.3,-2.32 0,-2.64 -6.35,-1.6 -13.54,-0.86 -20.06,-0.99 -6.89,-0.13 -13.78,-0.07 -20.68,-0.07 -6.9,0 -13.79,0.16 -20.68,0.68 -4.06,0.3 -9.32,-0.07 -12.38,3.07 -0.2,0.21 0.09,0.48 0.31,0.31 v 0 z"
             id="path40" />
          <path
             class="cls-11"
             d="m 2.44,48.36 c 4.34,-2.9 13.22,-0.47 18.11,-0.09 5.95,0.46 11.93,0.64 17.9,0.74 5.64,0.09 11.27,0.16 16.91,0.08 5.64,-0.08 11.76,0.33 17.1,-1.24 0.69,-0.2 0.66,-1.16 0,-1.37 -5.6,-1.84 -12.25,-1.55 -18.09,-1.82 -6.62,-0.3 -13.26,-0.44 -19.89,-0.46 -6.63,-0.02 -12.59,0.17 -18.9,0.45 -4.84,0.22 -9.38,0.27 -13.39,3.3 -0.25,0.19 -0.02,0.61 0.25,0.43 v 0 z"
             id="path42" />
          <path
             class="cls-10"
             d="m 4.39,70.88 c 3.32,0.41 3.6,6.72 3.77,8.94 0.24,3.3 -0.53,5.49 -2.55,8.1 -0.61,0.79 -0.09,2.22 1.07,1.84 4.53,-1.45 5.13,-6.83 4.22,-10.9 -0.74,-3.32 -2.26,-8.5 -6.52,-8.26 -0.19,0.01 -0.18,0.26 0,0.28 v 0 z"
             id="path44" />
        </g>
      </g>
      <polygon
         class="cls-5"
         points="66.49,56.12 105.66,50.69 107.6,61.55 67.19,67.7 7.97,67.7 6.37,56.12 "
         id="polygon47"
         transform="translate(-0.33930149,-37.323165)" />
      <polyline
         class="cls-3"
         points="95.71 39.83 101.11 39.08 103.05 49.94 62.64 56.09 3.41 56.09 1.81 44.51 5.12 44.51"
         id="polyline47"
         style="stroke:#76153b;stroke-opacity:1"
         transform="translate(-0.33930149,-37.323165)" />
    </g>
  </g>
</svg>
