<?xml version="1.0" encoding="UTF-8" standalone="no"?>
<svg
   id="Calque_2"
   data-name="Calque 2"
   viewBox="0 0 109.03 92.73"
   version="1.1"
   sodipodi:docname="book1.svg"
   inkscape:version="1.4.2 (f4327f4, 2025-05-13)"
   xmlns:inkscape="http://www.inkscape.org/namespaces/inkscape"
   xmlns:sodipodi="http://sodipodi.sourceforge.net/DTD/sodipodi-0.dtd"
   xmlns="http://www.w3.org/2000/svg"
   xmlns:svg="http://www.w3.org/2000/svg">
  <sodipodi:namedview
     id="namedview49"
     pagecolor="#ffffff"
     bordercolor="#999999"
     borderopacity="1"
     inkscape:showpageshadow="2"
     inkscape:pageopacity="0"
     inkscape:pagecheckerboard="0"
     inkscape:deskcolor="#d1d1d1"
     inkscape:zoom="6.8331357"
     inkscape:cx="53.708871"
     inkscape:cy="38.854783"
     inkscape:window-width="1920"
     inkscape:window-height="991"
     inkscape:window-x="-9"
     inkscape:window-y="-9"
     inkscape:window-maximized="1"
     inkscape:current-layer="g49" />
  <defs
     id="defs1">
    <style
       id="style1">
      .cls-1 {
        fill: #ffce62;
      }

      .cls-1, .cls-2, .cls-3, .cls-4, .cls-5 {
        stroke-linecap: round;
        stroke-linejoin: round;
        stroke-width: 2.51px;
      }

      .cls-1, .cls-5 {
        stroke: #733d00;
      }

      .cls-6 {
        fill: #e19100;
      }

      .cls-6, .cls-7, .cls-8, .cls-9, .cls-10, .cls-11, .cls-12, .cls-13, .cls-14 {
        stroke-width: 0px;
      }

      .cls-2, .cls-8, .cls-3, .cls-5 {
        fill: none;
      }

      .cls-2, .cls-4 {
        stroke: #053d58;
      }

      .cls-7 {
        fill: #f0f;
      }

      .cls-15 {
        opacity: .3;
      }

      .cls-3 {
        stroke: #641233;
      }

      .cls-9 {
        fill: #57d653;
      }

      .cls-4 {
        fill: #e6f4fd;
      }

      .cls-16 {
        clip-path: url(#clippath);
      }

      .cls-10 {
        fill: #eafdf1;
      }

      .cls-11 {
        fill: #82263e;
      }

      .cls-12 {
        fill: #ad949d;
      }

      .cls-13 {
        fill: #733d00;
      }

      .cls-14 {
        fill: #00e7ff;
      }
    </style>
    <clipPath
       id="clippath">
      <path
         class="cls-8"
         d="m107.6,61.55l-1.94-10.86-34.16,4.73v-.68l31.54-4.8-1.94-10.86-4.34.6c-.13-.2-.42-.4-.91-.6-7.86-3.34,0-23.59,0-23.59,0,0-14.26-.11-24.36.48v-1.14l30.16.49,1.94-10.86L62.08,1.39H2.85l-1.6,11.58,53.18,1.48v1.42c-16.91-.59-45.05-1-49.61,2.63-6.59,5.24.5,25.68.5,25.68,0,0,4.58.17,11.25.34H1.81l1.6,11.58h51.02v.03H6.37l1.6,11.58-5.28.23s8.44,18.33,0,21.53c-6.68,2.53,40.3,1.05,60.12.33-.56,3.79,41.31-3.51,41.31-3.51,0,0,7.39-18.09.66-24.29l2.83-.43Z"
         id="path1" />
    </clipPath>
  </defs>
  <g
     id="Layer_1"
     data-name="Layer 1">
    <g
       id="g49">
      <path
         class="cls-1"
         d="m 1.6792344,9.6907584 c 0,0 8.4399996,18.3299996 0,21.5299996 -8.44,3.2 68.6499996,0 68.6499996,0 l -0.8,-24.4299996 z"
         id="path2" />
      <path
         class="cls-1"
         d="m 65.879234,6.9207584 c 0,0 2.91,18.2799996 -3.49,23.8099996 -6.4,5.53 40.729996,-2.7 40.729996,-2.7 0,0 7.85,-19.2199996 0,-24.8299996 -5.459996,-3.90000003 -21.309996,-0.59 -30.469996,1.8 -4.03,1.05 -6.76,1.92 -6.76,1.92 z"
         id="path3" />
      <g
         id="g36"
         transform="translate(-1.1707656,-58.099242)">
        <line
           class="cls-5"
           x1="67.360001"
           y1="67.559998"
           x2="66.660004"
           y2="55.98"
           id="line17"
           style="display:none" />
        <line
           class="cls-3"
           x1="62.110001"
           y1="44.380001"
           x2="62.810001"
           y2="55.959999"
           id="line18"
           style="display:none" />
        <path
           class="cls-12"
           d="m 65.78,6.93 c 7.01,2.01 14.56,1.96 21.79,1.81 0.84,-0.02 0.79,-1.17 0,-1.27 C 80.43,6.54 73.02,5.55 65.84,6.52 65.62,6.55 65.54,6.86 65.78,6.94 v 0 z"
           id="path18" />
        <path
           class="cls-12"
           d="m 73.16,10.66 c 9.58,0.73 19.54,2.96 29.14,1.43 0.38,-0.06 0.38,-0.71 0,-0.77 -9.56,-1.53 -19.5,-0.07 -29.14,-0.81 -0.09,0 -0.09,0.13 0,0.14 v 0 z"
           id="path19" />
        <path
           class="cls-13"
           d="m 101.23,64.12 c -0.61,3.23 -0.17,6.54 -0.16,9.82 0.01,3.77 -0.62,7.6 -0.27,11.34 0.07,0.79 1.04,0.89 1.34,0.18 2.41,-5.86 2.66,-15.69 -0.22,-21.43 -0.14,-0.28 -0.63,-0.22 -0.69,0.09 z"
           id="path31" />
        <path
           class="cls-13"
           d="m 69.63,74.25 c 4.89,0.39 9.96,-0.19 14.85,-0.43 4.41,-0.22 8.93,-0.17 13.28,-0.9 0.8,-0.13 0.82,-1.52 0,-1.63 -8.64,-1.22 -19.9,-0.26 -28.17,2.68 -0.15,0.05 -0.12,0.26 0.04,0.28 z"
           id="path32" />
        <path
           class="cls-13"
           d="m 68.95,81.79 c 6.1,-0.1 12.28,-0.16 18.32,-1.09 0.6,-0.09 0.46,-1.09 -0.14,-1.06 -6.07,0.3 -12.11,1.14 -18.17,1.58 -0.36,0.03 -0.37,0.57 0,0.56 v 0 z"
           id="path33" />
        <path
           class="cls-13"
           d="m 13.54,73.16 c 14.98,0.93 30.22,1.99 45.22,0.67 1.1,-0.1 1.13,-1.7 0,-1.74 -15.05,-0.46 -30.17,0.63 -45.22,0.79 -0.18,0 -0.18,0.27 0,0.28 z"
           id="path34" />
        <path
           class="cls-13"
           d="m 18.64,79.24 c 6.47,0.77 13.22,0.08 19.73,-0.09 6.51,-0.17 13.17,-0.25 19.73,-0.8 0.71,-0.06 0.74,-1.12 0,-1.13 -6.9,-0.09 -13.82,0.33 -20.71,0.63 -6.21,0.27 -12.64,0.07 -18.76,1.25 -0.08,0.02 -0.05,0.13 0.02,0.14 v 0 z"
           id="path35" />
        <path
           class="cls-13"
           d="m 40.14,83.97 c 3.1,-0.15 6.21,-0.11 9.31,-0.16 0.12,0 0.12,-0.19 0,-0.19 -3.1,0.11 -6.21,0.3 -9.31,0.29 -0.03,0 -0.03,0.05 0,0.05 v 0 z"
           id="path36" />
      </g>
      <g
         class="cls-15"
         id="g45"
         transform="translate(-1.1707656,-58.099242)">
        <g
           class="cls-16"
           clip-path="url(#clippath)"
           id="g44">
          <path
             class="cls-11"
             d="m 66.04,5.98 -0.43,0.93 6.71,2.83 c 0.66,-3 0.24,-5.03 -0.98,-7.85 -1.81,-4.17 -7.45,-1.53 -7.76,2.1 -0.15,1.79 -0.31,3.57 -0.39,5.36 -0.25,5.7 8.51,5.65 8.84,0 0.14,-2.33 -0.14,-4.5 -0.79,-6.74 -1.15,-3.95 -8.12,-4.7 -8.77,0 -0.52,3.72 0.11,6.56 1.88,9.88 0.66,1.23 1.59,2.42 2.13,3.71 1.01,2.4 0.49,4.48 0.11,6.95 -0.61,3.88 -1.12,7.43 -0.31,11.32 0.81,3.89 3.32,7.74 2.35,11.64 l 7.32,-4.16 c -1.91,-0.69 -3.83,-1.38 -5.74,-2.08 -3.93,-1.42 -7.23,2.2 -7.54,5.74 -0.196942,2.318835 0.133826,4.580156 0.713141,6.815053 1.244445,4.800857 3.635802,9.479781 4.406859,14.344947 1.23,7.75 0.33,15.46 -2.09,22.88 l 11.51,3.17 c 2.69,-8.94 5.39,-17.87 8.1,-26.81 l -11.79,-1.6 c -0.72,7.38 -0.62,14.7 0.28,22.07 0.82,6.64 9.47,8.35 11.86,1.61 3.24,-9.14 5.26,-18.46 6.44,-28.07 H 79.93 c -0.35,8.58 0.31,17.03 1.78,25.48 1.09,6.29 10.29,5.44 11.9,0 2.64,-8.91 4.26,-17.98 5.08,-27.24 H 86.17 c 0.43,9.09 1.75,18.08 3.93,26.91 1.8,7.29 11.69,5.02 12.33,-1.67 0.75,-7.85 1.51,-15.7 2.26,-23.55 H 92.12 c 0.91,7.17 1.83,14.34 2.74,21.51 1.01,7.96 11.78,8.19 12.57,0 0.79,-8.19 1.56,-16.19 2.34,-24.29 H 97.19 c 0.35,4.28 0.71,8.57 1.06,12.85 0.66,7.98 12.36,8.21 12.59,0 0.29,-10.49 -0.83,-20.92 -3.25,-31.13 -1.6,-6.76 -13.11,-5.5 -12.37,1.67 0.52,5.01 0.47,9.92 -0.15,14.92 l 12.39,-1.68 c -1.87,-7.69 -3.73,-15.38 -5.6,-23.07 -1.42,-5.85 -11.07,-6.25 -12.23,0 -1.41,7.63 -2.83,15.26 -4.24,22.9 H 97.68 C 95.6,45.69 93.53,37.75 91.45,29.81 c -1.58,-6.03 -10.87,-6.19 -12.36,0 -2.17,8.97 -3.11,18.1 -2.7,27.33 H 89.28 C 88.2,47.58 87.11,38.01 86.02,28.45 c -0.92,-8.1 -12.64,-8.52 -12.94,0 -0.28,7.71 -0.55,15.42 -0.83,23.13 -0.3,8.35 12.57,8.31 12.96,0 0.86,-18.33 1.4,-36.55 -1.59,-54.73 L 71.1,0.3 c 1.61,7.44 3.22,14.88 4.83,22.31 L 88.45,19.16 C 86.94,13.36 86.57,7.7 87.12,1.74 L 74.36,3.47 c 3.13,7.73 5.61,15.63 7.48,23.75 1.75,7.61 12.07,5.12 12.76,-1.73 0.78,-7.85 1.11,-15.7 0.98,-23.59 L 82.82,3.63 c 1.42,6.63 2.84,13.26 4.24,19.9 1.31,6.19 11.23,6.21 12.54,0 1.38,-6.55 2.75,-13.11 4.13,-19.66 H 91.12 l 2.52,13.02 c 1.01,5.23 9.78,6.72 11.99,1.57 2.01,-4.67 3.19,-9.25 2.97,-14.37 H 95.56 c 0.33,0.91 0.24,1.77 -0.25,2.58 -2.77,7.92 9.46,11.01 12.42,3.42 0.77,-1.96 1.03,-3.91 0.87,-6.01 -0.65,-8.25 -13.11,-8.5 -13.04,0 0.02,2.65 -0.21,5.28 -1.26,7.75 l 11.99,1.57 c -0.86,-4.33 -1.71,-8.67 -2.57,-13 -1.24,-6.27 -11.33,-6.21 -12.61,0 -1.35,6.56 -2.71,13.12 -4.06,19.68 H 99.59 C 98.16,13.45 96.75,6.82 95.33,0.19 93.79,-7.01 82.45,-5.35 82.57,1.92 82.7,9.81 82.38,17.66 81.59,25.51 L 94.35,23.78 C 92.49,15.66 90,7.76 86.87,0.03 84.12,-6.76 74.81,-5.8 74.11,1.76 c -0.65,7.05 0,14.03 1.79,20.88 2.12,8.13 14.28,4.68 12.52,-3.45 C 86.81,11.75 85.2,4.31 83.59,-3.12 81.8,-11.4 69.73,-7.77 71.07,0.33 c 2.79,16.94 1.94,34.21 1.16,51.28 H 85.19 C 85.46,43.9 85.74,36.19 86.01,28.48 H 73.07 c 1.1,9.56 2.2,19.13 3.31,28.69 0.93,8.03 13.3,8.47 12.89,0 -0.41,-8.47 0.28,-16.01 2.17,-23.92 H 79.08 c 2.1,7.93 4.2,15.87 6.29,23.8 1.53,5.78 11.13,6.37 12.29,0 1.39,-7.64 2.78,-15.28 4.18,-22.91 H 89.61 c 1.89,7.68 3.78,15.37 5.66,23.05 1.83,7.45 11.59,4.91 12.39,-1.68 0.61,-5 0.66,-9.91 0.14,-14.92 l -12.37,1.67 c 2.17,9.18 3.06,18.36 2.81,27.78 h 12.59 c -0.36,-4.28 -0.71,-8.57 -1.07,-12.85 -0.68,-8.12 -11.81,-8.06 -12.58,0 -0.77,8.06 -1.55,16.19 -2.33,24.29 h 12.57 c -0.92,-7.17 -1.83,-14.34 -2.75,-21.51 -1.02,-7.95 -11.78,-8.19 -12.57,0 -0.79,8.19 -1.5,15.7 -2.25,23.55 l 12.33,-1.67 c -1.93,-7.78 -3.08,-15.58 -3.52,-23.57 -0.44,-8.11 -11.88,-8 -12.52,0 -0.66,8.15 -2.19,16.1 -4.45,23.96 h 11.9 c -1.33,-7.35 -1.77,-14.74 -1.51,-22.2 0.27,-8.01 -11.27,-7.56 -12.17,0 -1.01,8.5 -3.09,16.79 -5.92,24.86 l 11.86,1.61 C 84.92,79.15 84.8,71.83 85.5,64.44 c 0.65,-6.93 -9.92,-7.87 -11.79,-1.6 -2.67,8.94 -5.35,17.89 -8.03,26.83 -2.22,7.4 9.14,10.45 11.51,3.17 2.53,-7.76 3.57,-16.01 2.76,-24.15 -0.4,-4.03 -1.12,-8.05 -2.34,-11.91 -1.22,-3.86 -3.39,-7.21 -3.06,-11.15 l -7.54,5.74 c 1.91,0.69 3.83,1.38 5.74,2.07 2.97,1.07 6.6,-1.22 7.32,-4.16 C 82.14,40.85 76.71,33.8 77.5,25.52 77.9,21.34 78.35,17.45 76.59,13.48 75.22,10.39 71.17,7.31 71.37,3.83 l -8.93,1.21 c 0.53,1.53 0.75,2.7 0.72,4.32 H 69.217609 72 C 72,7.57 71.93,5.79 71.87,4 l -7.76,2.1 0.96,2.67 c 0.59,4.54 7.31,4.88 7.34,0 0.03,-3.76 -1.86,-8.33 -6.42,-6.7 -1.67,0.6 -2.17,3.58 0,3.91 v 0 z"
             id="path37"
             sodipodi:nodetypes="ccccccccccccsccccsccccccccccccccccccscccccccccccccccccccccccccccccccccccccccccccccccccccccccccccccccscccccccccccccscccscccccccccccccccsccccccccccccccccscc"
             style="display:inline" />
          <path
             class="cls-11"
             d="m -0.33,70.6 c 5.91,-0.19 11.96,2.25 17.93,2.63 6.91,0.44 13.82,0.35 20.74,0.31 6.92,-0.04 13.17,-0.08 19.76,-0.52 4.4,-0.3 12.41,0.91 15.46,-2.85 0.33,-0.41 0.34,-0.87 0,-1.28 C 70.49,65.19 62.47,66.46 58.1,66.21 51.18,65.82 44.28,65.88 37.36,65.92 30.44,65.96 24.19,65.96 17.6,66.46 11.01,66.96 5.71,69.04 -0.41,70 c -0.34,0.05 -0.26,0.6 0.08,0.59 v 0 z"
             id="path41"
             style="display:inline" />
          <path
             class="cls-10"
             d="m 4.39,70.88 c 3.32,0.41 3.6,6.72 3.77,8.94 0.24,3.3 -0.53,5.49 -2.55,8.1 -0.61,0.79 -0.09,2.22 1.07,1.84 4.53,-1.45 5.13,-6.83 4.22,-10.9 -0.74,-3.32 -2.26,-8.5 -6.52,-8.26 -0.19,0.01 -0.18,0.26 0,0.28 v 0 z"
             id="path44"
             style="display:inline" />
        </g>
      </g>
      <path
         class="cls-5"
         d="m 9.9392344,9.4607584 -8.43,0.36 c 0,0 8.44,18.3299996 0,21.5299996 -8.44,3.2 68.1199996,1.64 68.1199996,1.64"
         id="path45" />
      <path
         class="cls-5"
         d="m 63.039234,32.590758 c 7.27,1.27 39.899996,-4.42 39.899996,-4.42 0,0 7.2,-17.63 0.91,-24.0399996"
         id="path46" />
      <path
         class="cls-5"
         d="m 65.999234,9.4107584 c 0.54,5.1199996 1.19,17.1499996 -3.79,21.4499996 -1.07,0.93 -0.64,1.47 0.82,1.73"
         id="path47" />
    </g>
  </g>
</svg>
