<?xml version="1.0" encoding="UTF-8" standalone="no"?>
<svg
   id="Calque_2"
   data-name="Calque 2"
   viewBox="0 0 105.03 16.729996"
   version="1.1"
   sodipodi:docname="book4.svg"
   width="105.03"
   height="16.73"
   inkscape:version="1.4.2 (f4327f4, 2025-05-13)"
   xmlns:inkscape="http://www.inkscape.org/namespaces/inkscape"
   xmlns:sodipodi="http://sodipodi.sourceforge.net/DTD/sodipodi-0.dtd"
   xmlns="http://www.w3.org/2000/svg"
   xmlns:svg="http://www.w3.org/2000/svg">
  <sodipodi:namedview
     id="namedview49"
     pagecolor="#ffffff"
     bordercolor="#999999"
     borderopacity="1"
     inkscape:showpageshadow="2"
     inkscape:pageopacity="0"
     inkscape:pagecheckerboard="0"
     inkscape:deskcolor="#d1d1d1"
     inkscape:zoom="8.336029"
     inkscape:cx="54.462382"
     inkscape:cy="46.365002"
     inkscape:window-width="1920"
     inkscape:window-height="991"
     inkscape:window-x="-9"
     inkscape:window-y="-9"
     inkscape:window-maximized="1"
     inkscape:current-layer="Calque_2" />
  <defs
     id="defs1">
    <style
       id="style1">
      .cls-1 {
        fill: #ffce62;
      }

      .cls-1, .cls-2, .cls-3, .cls-4, .cls-5 {
        stroke-linecap: round;
        stroke-linejoin: round;
        stroke-width: 2.51px;
      }

      .cls-1, .cls-5 {
        stroke: #733d00;
      }

      .cls-6 {
        fill: #e19100;
      }

      .cls-6, .cls-7, .cls-8, .cls-9, .cls-10, .cls-11, .cls-12, .cls-13, .cls-14 {
        stroke-width: 0px;
      }

      .cls-2, .cls-8, .cls-3, .cls-5 {
        fill: none;
      }

      .cls-2, .cls-4 {
        stroke: #053d58;
      }

      .cls-7 {
        fill: #f0f;
      }

      .cls-15 {
        opacity: .3;
      }

      .cls-3 {
        stroke: #641233;
      }

      .cls-9 {
        fill: #57d653;
      }

      .cls-4 {
        fill: #e6f4fd;
      }

      .cls-16 {
        clip-path: url(#clippath);
      }

      .cls-10 {
        fill: #eafdf1;
      }

      .cls-11 {
        fill: #82263e;
      }

      .cls-12 {
        fill: #ad949d;
      }

      .cls-13 {
        fill: #733d00;
      }

      .cls-14 {
        fill: #00e7ff;
      }
    </style>
    <clipPath
       id="clippath">
      <path
         class="cls-8"
         d="M 107.6,61.55 105.66,50.69 71.5,55.42 v -0.68 l 31.54,-4.8 -1.94,-10.86 -4.34,0.6 c -0.13,-0.2 -0.42,-0.4 -0.91,-0.6 -7.86,-3.34 0,-23.59 0,-23.59 0,0 -14.26,-0.11 -24.36,0.48 V 14.83 L 101.65,15.32 103.59,4.46 62.08,1.39 H 2.85 l -1.6,11.58 53.18,1.48 v 1.42 c -16.91,-0.59 -45.05,-1 -49.61,2.63 -6.59,5.24 0.5,25.68 0.5,25.68 0,0 4.58,0.17 11.25,0.34 H 1.81 l 1.6,11.58 h 51.02 v 0.03 H 6.37 l 1.6,11.58 -5.28,0.23 c 0,0 8.44,18.33 0,21.53 -6.68,2.53 40.3,1.05 60.12,0.33 -0.56,3.79 41.31,-3.51 41.31,-3.51 0,0 7.39,-18.09 0.66,-24.29 l 2.83,-0.43 z"
         id="path1" />
    </clipPath>
  </defs>
  <g
     id="Layer_1"
     data-name="Layer 1">
    <g
       id="g49">
      <path
         class="cls-1"
         d="m 67.05,65.02 c 0,0 2.91,18.28 -3.49,23.81 -6.4,5.53 40.73,-2.7 40.73,-2.7 0,0 7.85,-19.22 0,-24.83 -5.46,-3.9 -21.31,-0.59 -30.47,1.8 -4.03,1.05 -6.76,1.92 -6.76,1.92 z"
         id="path3" />
      <polygon
         class="cls-4"
         points="101.28,38.94 103.22,49.81 62.81,55.96 3.58,55.96 1.98,44.38 62.11,44.38 "
         id="polygon4" />
      <polygon
         class="cls-4"
         points="101.84,15.19 103.78,4.33 62.25,1.25 3.02,1.25 1.42,12.83 63.24,14.56 "
         id="polygon5" />
      <g
         id="g16">
        <path
           class="cls-9"
           d="m 103.99,63.74 c 0.52,1.01 0.91,2.06 1.16,3.16 0.13,0.49 0.9,0.29 0.77,-0.21 -0.15,-0.59 -0.3,-1.19 -0.46,-1.78 -0.15,-0.61 -1.08,-0.35 -0.94,0.26 0.38,1.25 0.51,2.51 0.4,3.79 l 1.33,-0.18 c -0.24,-1.06 -0.47,-2.12 -0.71,-3.19 -0.22,-0.97 -1.55,-0.66 -1.63,0.22 l 0.59,-0.9 h -1.98 c -0.03,1.73 -0.04,3.46 -0.03,5.19 l 2.71,-0.37 -0.05,-1.98 -2.97,-0.4 c 0.54,5.64 -0.16,11.13 -0.81,16.72 -0.21,1.84 2.73,2.16 3.19,0.43 1.45,-5.48 2.4,-11 2.42,-16.67 0,-2.28 -3.55,-2.28 -3.54,0 0.01,2.62 0.03,5.25 0.04,7.87 0,2.01 3,1.98 3.1,0 0.13,-2.62 0.27,-5.25 0.4,-7.87 h -3.54 c -0.02,5.39 -0.54,10.61 -2.01,15.81 l 3.19,0.43 c 0.74,-5.57 1.21,-11.12 0.58,-16.72 -0.17,-1.54 -2.62,-2.23 -2.97,-0.4 -0.26,1.32 -0.22,2.28 0.3,3.52 0.52,1.24 2.94,1.34 2.71,-0.37 -0.24,-1.82 -0.5,-3.63 -0.78,-5.45 -0.17,-1.1 -2.03,-0.85 -1.95,0.26 0.16,2.15 3.07,3.56 3.06,0.9 l -1.63,0.22 c 0.34,1.03 0.67,2.07 1.01,3.1 0.22,0.69 1.38,0.62 1.33,-0.18 -0.1,-1.45 -0.33,-2.66 -0.81,-4.05 l -0.94,0.26 c 0.11,0.32 0.48,1.8 0.97,0.4 0.09,-0.27 -1.07,-2.01 -1.1,-2.06 -0.16,-0.26 -0.53,-0.03 -0.41,0.24 z"
           id="path7" />
        <path
           class="cls-9"
           d="m 103.42,63.94 c 0,0 0.02,-0.02 0.02,-0.03 0.01,-0.03 -0.06,0.07 -0.02,0.03 0.03,-0.03 -0.04,0.03 -0.04,0.03 0.04,-0.02 -0.08,0.03 -0.05,0.02 0.05,-0.02 -0.06,0 -0.06,0 0.02,0 0.06,0 -0.02,0 -0.08,0 -0.03,0 -0.02,0 0.04,0.01 -0.06,-0.02 -0.06,-0.03 0,0 0.05,0.03 0.05,0.03 0,0 -0.08,-0.08 -0.04,-0.03 0,0 0.02,0.01 0.02,0.02 0.02,0.02 0.06,0.08 0.01,0.01 -0.05,-0.07 0,0 0.01,0.02 0,0 0.03,0.06 0.03,0.06 0,0 -0.04,-0.12 -0.03,-0.06 0,0.01 0,0.02 0,0.03 0,0 0,0.02 0,0.02 0.02,0.05 0,-0.1 0,-0.08 0,0.02 0,0.11 0,0 0.01,-0.09 0,-0.05 0,-0.03 0,0.02 0.05,-0.13 0.03,-0.08 -0.05,0.13 -0.04,0.08 -0.06,0.18 0,0 0,0.06 0,0.08 0,0.01 0.03,-0.15 0.01,-0.09 0,0.03 0.06,-0.12 0.03,-0.07 -0.02,0.03 0.04,-0.06 0.04,-0.06 0,0 -0.03,0.03 -0.03,0.03 -0.22,0.2 -0.09,0.54 0.17,0.63 0.35,0.12 0.73,-0.13 0.72,-0.51 0,-0.22 -0.12,-0.43 -0.28,-0.57 -0.15,-0.13 -0.34,-0.24 -0.55,-0.24 -0.25,0 -0.46,0.17 -0.51,0.42 -0.03,0.16 0.03,0.32 0.19,0.39 0.15,0.06 0.33,0 0.41,-0.13 v 0 z"
           id="path8" />
        <path
           class="cls-9"
           d="m 103.53,65.46 c 0.3,0 0.3,-0.47 0,-0.47 -0.3,0 -0.3,0.47 0,0.47 z"
           id="path9" />
        <path
           class="cls-9"
           d="m 103.72,64.22 c 0,-0.1 0.12,-0.14 0.02,-0.15 l -0.61,-0.81 c -0.04,0.38 -0.09,0.76 -0.16,1.14 -0.08,0.51 -0.07,0.91 0.07,1.41 0.26,0.94 1.75,1.01 1.97,0 0.12,-0.54 0.12,-0.97 0,-1.5 -0.09,-0.42 -0.18,-0.84 -0.24,-1.27 -0.05,-0.33 -0.48,-0.64 -0.81,-0.61 -1.02,0.09 -1.75,0.93 -1.54,1.97 0.16,0.75 1.27,0.54 1.29,-0.17 v 0 z"
           id="path10" />
        <path
           class="cls-7"
           d="m 67.49,49.86 0.62,0.37 1.79,-1.38 -0.23,0.18 -3.24,-1.89 -0.43,0.61 3.29,2.51 0.05,-1.74 h -5.49 l -0.04,0.7 5.3,1.44 -0.03,-1.49 H 63.4 l -0.1,1.05 6.03,0.82 0.04,-2.29 h -6.2 l 0.21,2.41 c 0,3.15 4.8,4.82 6.27,1.7 l 1.47,-1.71 h -3.71 l 0.91,0.67 -1.93,-3.36 0.04,1.06 1.24,-3 -0.81,0.73 3.24,-1.34 -1.09,0.02 3.43,8.28 0.14,-0.14 -3.53,-8.52 c 1.08,-0.25 1.19,-0.33 0.33,-0.25 -0.64,0 -1.27,0.07 -1.9,0.2 -0.93,0.22 -1.89,0.67 -2.64,1.23 -1.72,1.27 -1.88,2.82 -2.55,4.67 -1.13,3.13 2.59,4.97 5.04,3.88 9.5,-4.21 20.08,0.22 29.41,-4.44 4.95,-2.47 1.25,-9.19 -3.52,-8.36 -3.51,0.61 -6.89,0.77 -10.44,0.66 -6.31,-0.19 -6.09,9.09 0,9.67 5.15,0.49 14.41,0.75 15.09,-6.17 l -1.14,1.99 c 1.7,-1.01 3.01,-2.2 4.04,-3.9 l -4.56,-0.6 0.5,2.29 c 0.26,2.95 4.67,3.06 4.67,0 l 0.18,-2.5 c 0.54,-3.21 -4.2,-4.67 -4.98,-1.37 -0.42,1.78 -0.51,3.17 0.12,4.9 1.1,3.05 5.82,2.73 5.85,-0.79 0,-0.95 0.01,-1.89 0.02,-2.84 h -6.05 l -0.15,2.25 c -0.69,3.7 4.58,5.26 5.71,1.57 0.5,-1.63 0.57,-2.12 0.49,-3.83 -0.17,-3.87 -6.14,-3.91 -6.05,0 0.02,0.95 0.05,1.89 0.07,2.84 l 5.85,-0.79 c -0.4,-0.84 -0.66,-1.71 -0.78,-2.63 l -5.08,0.69 0.13,2.5 h 4.67 c 0.13,-1.69 0.08,-1.98 -0.35,-3.62 -0.63,-2.39 -4.17,-2.36 -4.82,0 -0.24,0.99 -0.84,1.61 -1.8,1.85 l 2.79,0.36 c -3.71,-3.38 -9.82,-1.8 -14.42,-1.87 v 9.67 C 87.1,52.6 91.4,52.08 95.65,51.3 l -3.52,-8.36 c -4.57,2.34 -10.01,1.09 -14.93,1.63 -4.92,0.54 -9.19,2.39 -13.34,4.78 l 5.04,3.88 0.22,-0.92 -4.16,2.36 c 4.81,1 8.72,1.21 11.9,-3.08 2.14,-2.89 -0.71,-7.92 -4.31,-7.51 -2.91,0.34 -4.99,1.01 -7,3.26 -3.65,4.07 0.92,10.27 5.87,7.61 3.69,-1.98 4.92,-7.43 0.8,-9.87 -4.12,-2.44 -7.43,1.55 -8.75,5.17 l 6.61,0.89 c -0.14,-1.62 -0.27,-2.56 -0.73,-4.12 -1.04,-3.53 -6.14,-2.75 -6.31,0.85 -0.14,1.06 -0.1,2.1 0.13,3.14 0.42,3.2 5.06,4.45 6.03,0.82 0.48,-1.8 0.53,-2.5 -0.14,-4.25 -1.19,-3.09 -5.54,-2.64 -5.79,0.78 -0.08,1.17 0.02,1.87 0.23,3.03 0.54,2.95 4.67,2.44 5.48,0 0.4,-1.2 0.47,-1.63 0.33,-2.89 -0.41,-3.93 -5.93,-3.25 -5.39,0.73 l 0.23,1.7 c 0.32,2.38 3.68,2.3 4.75,0.62 0.89,-1.39 0.98,-1.83 0.99,-3.49 0.01,-2.09 -3.19,-2.59 -3.69,-0.5 -0.36,1.52 -0.19,2.04 0.88,3.19 0.46,0.5 1.42,0.66 2,0.26 l 0.56,-0.39 c 0.93,-0.65 0.58,-2.04 -0.57,-2.12 -0.87,-0.06 -0.75,-0.07 -1.6,0.26 -0.47,0.18 -0.6,0.97 0,1.09 v 0 z"
           id="path11" />
        <path
           class="cls-7"
           d="m 97.58,43.07 c -0.02,-0.08 0,0.11 0,0 l -0.8,0.33 c 0,0 0.05,0.04 0.07,0.07 l -0.2,-0.26 c 0,0 0.03,0.04 0.04,0.06 l -0.13,-0.32 c 0,0 0.02,0.06 0.03,0.1 l -0.05,-0.37 c 0,0 0,0.05 0,0.07 l 0.05,-0.37 c 0,0 -0.01,0.04 -0.02,0.07 l 0.15,-0.34 c 0,0 -0.03,0.05 -0.05,0.08 l 0.23,-0.3 c 0,0 -0.05,0.05 -0.07,0.07 l 0.31,-0.24 c 0,0 -0.07,0.05 -0.11,0.06 l 0.38,-0.16 c 0,0 -0.1,0.03 -0.15,0.04 -0.19,0.05 -0.34,0.15 -0.51,0.23 l 0.39,-0.16 c 0,0 -0.08,0.03 -0.12,0.03 l 0.43,-0.06 c 0,0 -0.05,0 -0.08,0 l 0.43,0.06 c 0,0 -0.05,0 -0.07,-0.02 l 0.38,0.16 h -0.02 c -0.18,-0.13 -0.38,-0.19 -0.59,-0.2 -0.21,-0.05 -0.42,-0.04 -0.64,0.03 -0.37,0.1 -0.77,0.39 -0.95,0.73 -0.2,0.37 -0.29,0.82 -0.16,1.23 l 0.16,0.38 c 0.14,0.24 0.33,0.43 0.57,0.57 0.13,0.09 0.3,0.15 0.45,0.2 0.03,0.01 0.06,0.02 0.1,0.03 0.35,0.07 0.68,0.08 1.03,-0.02 0.46,-0.12 0.84,-0.42 1.09,-0.82 0.05,-0.09 0.08,-0.18 0.12,-0.27 0.04,-0.09 0.09,-0.19 0.11,-0.28 C 99.5,43 99.45,42.47 99.19,42.04 99,41.74 98.74,41.52 98.41,41.38 98.22,41.3 98.21,41.29 98,41.27 c -0.09,-0.01 -0.18,-0.03 -0.27,-0.02 -0.23,0 -0.44,0.06 -0.64,0.17 -0.19,0.11 -0.34,0.27 -0.46,0.46 -0.12,0.2 -0.17,0.41 -0.17,0.64 0,0.23 0.06,0.44 0.17,0.64 0.11,0.15 0.2,0.29 0.36,0.39 0.31,0.21 0.72,-0.14 0.62,-0.48 v 0 z"
           id="path12" />
        <path
           class="cls-14"
           d="m 9.8,3.21 -0.18,0.53 3,3.94 -0.7,0.87 C 15.78,6.04 12.17,-0.19 8.3,2.35 7.24,3.05 6.17,3.75 5.11,4.45 l 4.94,6.41 0.52,-0.49 C 12.03,8.99 11.95,7.03 11.22,5.34 L 10.93,4.68 C 9.92,2.34 5.0902716,-0.50922389 3.5202716,1.4307761 2.6902716,2.4507761 2.9,5.66 2.71,6.99 2.23,10.34 -0.16848659,13.309845 3.2715134,12.709845 9.9615134,11.539845 21.33,11.11 28.08,11.71 L 26.7,1.51 C 22.89,2.39 19.28,2.48 15.4,2.04 v 10.79 c 12.45,0.46 24.49,-0.44 36.87,-1.37 L 50.98,1.94 41.21,3.75 c -6.11,1.13 -3.37,9.96 2.53,9.16 5.57,-0.76 10.73,-2.15 16.19,-3.29 l -4.3,-4.3 c -0.61,1.53 -0.66,2.05 -0.59,3.69 l 2.5,-3.28 c -1.75,0.29 -3.52,0.63 -5.29,0.81 -3,0.3 -4.83,4.49 -1.67,6.16 1.46,0.77 2.41,1.02 4.06,1.12 4.43,0.27 4.42,-6.62 0,-6.9 -2.28,-0.14 -4.54,-0.23 -6.82,-0.23 -3.95,0 -5.15,6.57 -0.97,7.15 4.73,0.66 9.26,-0.84 14.01,-0.41 1.7,0.15 2.3,-1.8 1.75,-3.05 C 62.03,8.9 61.86,7.4 62.08,5.87 c 0.17,-2.46 -3.74,-2.48 -3.85,0 -0.1,2.14 0.24,3.99 0.67,6.07 l 3.91,-1.08 C 60.78,3.76 53.88,7.6 48.78,6.82 l -0.97,7.15 C 50.1,14 52.35,13.93 54.63,13.81 V 6.91 L 53.11,6.64 v 6.38 c 1.75,-0.3 3.54,-0.44 5.31,-0.62 1.86,-0.19 3.37,-1.41 3.4,-3.4 L 61.99,8 C 63.05,5.75 61.83,2.61 58.97,2.74 53.39,2.99 48.04,2.92 42.45,3.57 l 1.26,9.33 c 3.27,-0.54 6.54,-1.08 9.82,-1.63 5.38,-0.89 4.14,-9.82 -1.29,-9.52 -12.19,0.68 -24.64,0.33 -36.87,0.27 -7.04,-0.04 -6.83,10.23 0,10.79 4.79,0.4 9.42,-0.08 14.06,-1.3 C 35.27,9.97 33.77,1.63 28.05,1.31 20.46,0.88 12.96,1.94 5.66,4 L 11.05,8.11 10.9,8.89 H 3.71 L 1.1809313,12.748952 4.06,5.32 3.65,5.89 c -2.7,3.76 3.32,8.36 6.41,4.94 0.87,-0.96 1.73,-1.91 2.6,-2.87 L 7.01,3.65 C 6.34,5.13 6.04,6.13 6.61,7.69 7.96,11.4 13.69,9.96 12.62,6.03 12.26,4.7 12.11,3.7 11.43,2.52 10.91,1.62 9.6,2.24 9.8,3.21 Z"
           id="path13"
           sodipodi:nodetypes="sccccccccccccccccccccccccccccsccccccccccccccccccccccccccccccccccccccs" />
        <path
           class="cls-6"
           d="M 7.02,22.98 8.51,20.91 7.01,20.28 C 6.75,21.57 6.5,22.85 6.22,24.14 l 3.2,0.43 C 9.51,23.23 9.6,21.89 9.68,20.54 9.83,18.14 6.43,17.96 5.7,20 5.13,21.61 4.96,22.99 5,24.71 c 0.08,2.93 4.65,2.94 4.57,0 C 9.55,23.91 9.53,23.11 9.5,22.3 9.43,19.72 5.32,18.91 4.81,21.67 4.3,24.43 4.04,27.1 4.07,29.9 c 0.04,3.53 5.2,3.46 5.44,0 0.16,-2.29 -0.07,-4.45 -0.5,-6.69 -0.63,-3.26 -5.39,-2.29 -5.54,0.75 -0.23,4.48 0.07,8.86 0.81,13.27 0.64,3.83 6.26,2.13 5.76,-1.59 -0.21,-1.53 -0.29,-3 -0.3,-4.54 H 3.81 c 0.3,2.89 0.7,5.76 1.24,8.62 0.43,2.31 4.31,2.95 5.28,0.69 0.92,-2.14 1.11,-3.72 -0.18,-5.76 -1.29,-2.04 -5.49,-1.51 -5.16,1.4 0.22,1.9 0.48,3.76 0.84,5.64 0.42,2.2 4.16,1.74 3.96,-0.54 C 9.68,39.89 9.56,39.39 8.94,38.28 7.98,36.56 4.93,37.73 5.68,39.66 l 0.15,0.96 3.89,1.07 c 0.35,-1.88 0.6,-3.74 0.81,-5.64 l -5.44,0.74 0.25,0.71 5.28,0.69 c -0.39,-2.35 -0.67,-4.71 -0.87,-7.08 -0.31,-3.76 -5.88,-3.87 -5.93,0 -0.03,2.08 0.14,4.08 0.47,6.13 l 5.76,-1.59 C 9.29,31.75 9.01,27.94 9.13,23.97 l -5.54,0.75 c 0.38,1.74 0.5,3.41 0.51,5.19 h 5.44 c -0.25,-2.56 -0.25,-5.04 0,-7.6 H 4.76 c 0.09,0.8 0.18,1.6 0.27,2.41 H 9.6 C 9.37,23.51 9.38,22.3 9.64,21.09 L 5.66,20.55 c 0.19,1.49 0.39,2.97 0.59,4.46 0.27,2.02 3.58,1.23 3.14,-0.87 C 9.12,22.86 8.87,21.57 8.62,20.28 8.47,19.5 7.2,19.5 7.04,20.28 l -0.5,2.48 c -0.07,0.32 0.33,0.48 0.52,0.22 v 0 z"
           id="path14" />
        <path
           class="cls-6"
           d="m 71.93,60.85 1.53,0.86 1.12,-2.66 -0.85,-0.39 1.38,3.39 0.3,-1.48 c 0.7,-3.46 -3.18,-5.8 -5.86,-3.41 -0.62,0.46 -1.14,1.01 -1.57,1.65 l 6.26,4.83 0.77,-1.73 -7.61,-2.06 c 0.02,0.79 0.04,1.59 0.06,2.38 0.09,3.27 3.49,5.14 6.33,3.63 4.07,-2.15 8.04,-3.68 12.65,-4.16 -0.38,-2.82 -0.76,-5.64 -1.15,-8.47 -3.06,0.59 -5.92,1.44 -8.8,2.61 -4.43,1.81 -3.98,8.19 1.15,8.51 5.95,0.38 12.35,-0.02 17.7,-2.87 5.35,-2.85 -1.05,-10.53 -4.77,-6.19 -1.65,1.93 -5.68,1.47 -7.85,1.36 v 6.08 c 5.78,-0.39 11.6,-1.81 17.28,-2.92 1.79,-0.35 3.27,-2.77 2.56,-4.51 l -0.13,-0.32 c -0.64,-1.58 -1.77,-2.62 -3.54,-2.7 h -0.35 c -1.48,-0.07 -3.27,1.16 -3.55,2.69 l -0.06,0.35 c -0.31,1.74 0.24,3.16 1.69,4.16 1.99,1.38 5.13,0.33 7.3,-0.03 l -4.23,-5.51 -1.17,1.58 c -2.38,3.23 2.09,6.57 5.07,5.07 l 1.72,-0.87 -3.67,-6.27 c -1.96,1.26 -3.81,1.85 -6.07,2.28 -4.45,0.84 -3.49,8.32 1.08,7.96 4.57,-0.36 9.1,-2.93 10.05,-7.74 0.71,-3.62 -3.73,-6.94 -6.59,-3.84 -1.44,1.56 -2.41,2.92 -4.54,3.61 l 3.12,7.41 c 2.26,-1.01 4.45,-2.23 6.62,-3.41 3.52,-1.92 1.07,-8.24 -2.8,-6.64 l -1.78,0.74 3.6,6.19 1.24,-1.53 c 2.36,-2.92 0.18,-7.02 -3.65,-6.27 -1.38,0.27 -2.75,0.51 -4.13,0.72 l 2.84,0.37 -0.29,-0.19 1.69,4.16 0.05,-0.35 -3.55,2.7 h 0.35 c -1.06,-0.6 -2.11,-1.21 -3.17,-1.81 l 0.14,0.32 2.19,-5.39 c -5.36,1.2 -10.97,2.16 -16.14,4.02 -3.75,1.35 -2.21,6.4 1.62,5.86 2.27,-0.32 6.45,-1.59 8.78,-0.74 l 1.05,-7.74 C 88.02,54.8 83.06,56 77.64,55.69 l 1.15,8.51 c 2.88,-1.19 5.74,-2.06 8.79,-2.66 4.7,-0.93 3.71,-9.01 -1.15,-8.47 -6.03,0.67 -11.73,2.25 -16.9,5.52 l 6.33,3.63 c -0.1,-0.79 -0.21,-1.59 -0.31,-2.38 -0.57,-4.4 -6.49,-5.75 -8.02,-1.09 l -0.59,1.8 c -1.39,4.22 5.37,7.21 7.29,3.07 0.48,-1.04 0.87,-1.96 1.18,-3.07 l -6.41,0.84 0.62,1.36 c 1.11,2.44 4.85,1.6 5.49,-0.72 l 0.34,-0.86 c 0.51,-1.01 -0.36,-2.65 -1.64,-2.14 l -1.7,0.42 c -0.8,0.07 -0.95,1.1 -0.19,1.38 v 0 z"
           id="path15" />
        <path
           class="cls-6"
           d="m 102.14,58.63 c 0.31,0.27 0.63,0.53 0.96,0.77 0.16,0.12 0.33,0.23 0.5,0.33 l 0.21,0.12 c 0.28,0.22 0.32,0.13 0.09,-0.29 -0.04,0.39 0.25,0.83 0.58,1.01 0.27,0.15 0.55,0.29 0.83,0.41 0.79,0.35 1.75,0.1 2,-0.81 0.24,-0.86 -0.43,-1.7 -1.31,-1.72 -0.31,0 -0.62,-0.03 -0.93,-0.06 -0.4,-0.04 -0.82,0.25 -1.01,0.58 l -0.02,0.04 0.56,-0.43 c -0.12,0.04 -0.72,-0.28 -0.83,-0.33 -0.33,-0.15 -0.64,-0.32 -0.95,-0.51 -0.54,-0.32 -1.17,0.45 -0.68,0.89 z"
           id="path16" />
      </g>
      <g
         id="g36">
        <line
           class="cls-2"
           x1="62.25"
           y1="1.25"
           x2="63.240002"
           y2="14.56"
           id="line16" />
        <line
           class="cls-5"
           x1="67.360001"
           y1="67.559998"
           x2="66.660004"
           y2="55.98"
           id="line17" />
        <line
           class="cls-3"
           x1="62.110001"
           y1="44.380001"
           x2="62.810001"
           y2="55.959999"
           id="line18" />
        <path
           class="cls-12"
           d="m 65.78,6.93 c 7.01,2.01 14.56,1.96 21.79,1.81 0.84,-0.02 0.79,-1.17 0,-1.27 C 80.43,6.54 73.02,5.55 65.84,6.52 65.62,6.55 65.54,6.86 65.78,6.94 v 0 z"
           id="path18" />
        <path
           class="cls-12"
           d="m 73.16,10.66 c 9.58,0.73 19.54,2.96 29.14,1.43 0.38,-0.06 0.38,-0.71 0,-0.77 -9.56,-1.53 -19.5,-0.07 -29.14,-0.81 -0.09,0 -0.09,0.13 0,0.14 v 0 z"
           id="path19" />
        <path
           class="cls-13"
           d="M 7.88,18.36 C 8.46,22.55 9.64,26.62 9.82,30.87 10,35.12 9.21,39.2 8.63,43.43 8.47,44.58 9.97,45.04 10.4,43.92 13.27,36.27 12.87,25.12 8.39,18.15 8.21,17.87 7.83,18.06 7.87,18.37 v 0 z"
           id="path20" />
        <path
           class="cls-13"
           d="m 64.29,29.44 c -6.52,0.05 -13.19,0.69 -19.72,1.08 -0.91,0.05 -0.9,1.34 0,1.41 6.43,0.49 13.6,0.28 19.87,-1.34 0.64,-0.16 0.51,-1.16 -0.16,-1.15 v 0 z"
           id="path22" />
        <path
           class="cls-13"
           d="m 19.08,37.41 c 8.87,0.15 17.72,0.13 26.6,-0.17 0.42,-0.01 0.42,-0.67 0,-0.66 -8.86,0.22 -17.73,0.43 -26.6,0.54 -0.18,0 -0.18,0.28 0,0.28 v 0 z"
           id="path23" />
        <path
           class="cls-13"
           d="m 66.5,24.02 c 7.35,0.43 15.69,-0.97 22.96,-2.17 0.55,-0.09 0.37,-0.89 -0.12,-0.92 -7.2,-0.47 -16.09,-0.17 -22.94,2.31 -0.42,0.15 -0.36,0.76 0.11,0.78 v 0 z"
           id="path24" />
        <path
           class="cls-13"
           d="m 67.4,35.27 c 4.12,-0.55 8.45,-0.47 12.5,-1.32 0.41,-0.09 0.28,-0.66 -0.09,-0.69 -4.05,-0.31 -8.51,0.74 -12.48,1.46 -0.31,0.06 -0.24,0.6 0.07,0.55 z"
           id="path25" />
        <path
           class="cls-13"
           d="m 78.03,29.87 c 4.36,-0.23 8.8,-0.35 13,-1.67 0.52,-0.16 0.44,-0.96 -0.13,-0.97 -4.41,-0.04 -8.68,1.12 -12.93,2.17 -0.25,0.06 -0.21,0.48 0.06,0.46 v 0 z"
           id="path26" />
        <path
           class="cls-12"
           d="m 9.11,49.4 c 14.55,0.53 29.34,0.38 43.89,-0.21 0.93,-0.04 0.94,-1.46 0,-1.46 -14.57,0 -29.36,0.45 -43.89,1.57 -0.06,0 -0.06,0.09 0,0.09 v 0 z"
           id="path27" />
        <path
           class="cls-12"
           d="m 26.62,51.86 c 6.63,0.35 13.34,0.71 19.95,-0.13 0.47,-0.06 0.5,-0.75 0,-0.75 -6.65,-0.07 -13.3,0.6 -19.95,0.79 -0.06,0 -0.06,0.09 0,0.09 z"
           id="path28" />
        <path
           class="cls-13"
           d="m 22.4,60.61 c 8.88,0.47 17.71,0.74 26.6,0.62 0.72,-0.01 0.73,-1.13 0,-1.13 -8.87,0.08 -17.73,0.25 -26.6,0.28 -0.15,0 -0.15,0.23 0,0.23 z"
           id="path29" />
        <path
           class="cls-13"
           d="m 101.23,64.12 c -0.61,3.23 -0.17,6.54 -0.16,9.82 0.01,3.77 -0.62,7.6 -0.27,11.34 0.07,0.79 1.04,0.89 1.34,0.18 2.41,-5.86 2.66,-15.69 -0.22,-21.43 -0.14,-0.28 -0.63,-0.22 -0.69,0.09 z"
           id="path31" />
        <path
           class="cls-13"
           d="m 69.63,74.25 c 4.89,0.39 9.96,-0.19 14.85,-0.43 4.41,-0.22 8.93,-0.17 13.28,-0.9 0.8,-0.13 0.82,-1.52 0,-1.63 -8.64,-1.22 -19.9,-0.26 -28.17,2.68 -0.15,0.05 -0.12,0.26 0.04,0.28 z"
           id="path32" />
        <path
           class="cls-13"
           d="m 68.95,81.79 c 6.1,-0.1 12.28,-0.16 18.32,-1.09 0.6,-0.09 0.46,-1.09 -0.14,-1.06 -6.07,0.3 -12.11,1.14 -18.17,1.58 -0.36,0.03 -0.37,0.57 0,0.56 v 0 z"
           id="path33" />
      </g>
      <g
         class="cls-15"
         id="g45">
        <g
           class="cls-16"
           clip-path="url(#clippath)"
           id="g44">
          <path
             class="cls-11"
             d="m 66.04,5.98 -0.43,0.93 6.71,2.83 c 0.66,-3 0.24,-5.03 -0.98,-7.85 -1.81,-4.17 -7.45,-1.53 -7.76,2.1 -0.15,1.79 -0.31,3.57 -0.39,5.36 -0.25,5.7 8.51,5.65 8.84,0 0.14,-2.33 -0.14,-4.5 -0.79,-6.74 -1.15,-3.95 -8.12,-4.7 -8.77,0 -0.52,3.72 0.11,6.56 1.88,9.88 0.66,1.23 1.59,2.42 2.13,3.71 1.01,2.4 0.49,4.48 0.11,6.95 -0.61,3.88 -1.12,7.43 -0.31,11.32 0.81,3.89 3.32,7.74 2.35,11.64 l 7.32,-4.16 c -1.91,-0.69 -3.83,-1.38 -5.74,-2.08 -3.93,-1.42 -7.23,2.2 -7.54,5.74 -0.62,7.3 3.99,14.03 5.12,21.16 1.23,7.75 0.33,15.46 -2.09,22.88 l 11.51,3.17 c 2.69,-8.94 5.39,-17.87 8.1,-26.81 l -11.79,-1.6 c -0.72,7.38 -0.62,14.7 0.28,22.07 0.82,6.64 9.47,8.35 11.86,1.61 3.24,-9.14 5.26,-18.46 6.44,-28.07 H 79.93 c -0.35,8.58 0.31,17.03 1.78,25.48 1.09,6.29 10.29,5.44 11.9,0 2.64,-8.91 4.26,-17.98 5.08,-27.24 H 86.17 c 0.43,9.09 1.75,18.08 3.93,26.91 1.8,7.29 11.69,5.02 12.33,-1.67 0.75,-7.85 1.51,-15.7 2.26,-23.55 H 92.12 c 0.91,7.17 1.83,14.34 2.74,21.51 1.01,7.96 11.78,8.19 12.57,0 0.79,-8.19 1.56,-16.19 2.34,-24.29 H 97.19 c 0.35,4.28 0.71,8.57 1.06,12.85 0.66,7.98 12.36,8.21 12.59,0 0.29,-10.49 -0.83,-20.92 -3.25,-31.13 -1.6,-6.76 -13.11,-5.5 -12.37,1.67 0.52,5.01 0.47,9.92 -0.15,14.92 l 12.39,-1.68 c -1.87,-7.69 -3.73,-15.38 -5.6,-23.07 -1.42,-5.85 -11.07,-6.25 -12.23,0 -1.41,7.63 -2.83,15.26 -4.24,22.9 H 97.68 C 95.6,45.69 93.53,37.75 91.45,29.81 c -1.58,-6.03 -10.87,-6.19 -12.36,0 -2.17,8.97 -3.11,18.1 -2.7,27.33 H 89.28 C 88.2,47.58 87.11,38.01 86.02,28.45 c -0.92,-8.1 -12.64,-8.52 -12.94,0 -0.28,7.71 -0.55,15.42 -0.83,23.13 -0.3,8.35 12.57,8.31 12.96,0 0.86,-18.33 1.4,-36.55 -1.59,-54.73 L 71.1,0.3 c 1.61,7.44 3.22,14.88 4.83,22.31 L 88.45,19.16 C 86.94,13.36 86.57,7.7 87.12,1.74 L 74.36,3.47 c 3.13,7.73 5.61,15.63 7.48,23.75 1.75,7.61 12.07,5.12 12.76,-1.73 0.78,-7.85 1.11,-15.7 0.98,-23.59 L 82.82,3.63 c 1.42,6.63 2.84,13.26 4.24,19.9 1.31,6.19 11.23,6.21 12.54,0 1.38,-6.55 2.75,-13.11 4.13,-19.66 H 91.12 c 0.84,4.34 1.68,8.68 2.52,13.02 1.01,5.23 9.78,6.72 11.99,1.57 2.01,-4.67 3.19,-9.25 2.97,-14.37 H 95.56 c 0.33,0.91 0.24,1.77 -0.25,2.58 -2.77,7.92 9.46,11.01 12.42,3.42 0.77,-1.96 1.03,-3.91 0.87,-6.01 -0.65,-8.25 -13.11,-8.5 -13.04,0 0.02,2.65 -0.21,5.28 -1.26,7.75 l 11.99,1.57 c -0.86,-4.33 -1.71,-8.67 -2.57,-13 -1.24,-6.27 -11.33,-6.21 -12.61,0 -1.35,6.56 -2.71,13.12 -4.06,19.68 H 99.59 C 98.16,13.45 96.75,6.82 95.33,0.19 93.79,-7.01 82.45,-5.35 82.57,1.92 82.7,9.81 82.38,17.66 81.59,25.51 L 94.35,23.78 C 92.49,15.66 90,7.76 86.87,0.03 84.12,-6.76 74.81,-5.8 74.11,1.76 c -0.65,7.05 0,14.03 1.79,20.88 2.12,8.13 14.28,4.68 12.52,-3.45 C 86.81,11.75 85.2,4.31 83.59,-3.12 81.8,-11.4 69.73,-7.77 71.07,0.33 c 2.79,16.94 1.94,34.21 1.16,51.28 H 85.19 C 85.46,43.9 85.74,36.19 86.01,28.48 H 73.07 c 1.1,9.56 2.2,19.13 3.31,28.69 0.93,8.03 13.3,8.47 12.89,0 -0.41,-8.47 0.28,-16.01 2.17,-23.92 H 79.08 c 2.1,7.93 4.2,15.87 6.29,23.8 1.53,5.78 11.13,6.37 12.29,0 1.39,-7.64 2.78,-15.28 4.18,-22.91 H 89.61 c 1.89,7.68 3.78,15.37 5.66,23.05 1.83,7.45 11.59,4.91 12.39,-1.68 0.61,-5 0.66,-9.91 0.14,-14.92 l -12.37,1.67 c 2.17,9.18 3.06,18.36 2.81,27.78 h 12.59 c -0.36,-4.28 -0.71,-8.57 -1.07,-12.85 -0.68,-8.12 -11.81,-8.06 -12.58,0 -0.77,8.06 -1.55,16.19 -2.33,24.29 h 12.57 c -0.92,-7.17 -1.83,-14.34 -2.75,-21.51 -1.02,-7.95 -11.78,-8.19 -12.57,0 -0.79,8.19 -1.5,15.7 -2.25,23.55 l 12.33,-1.67 c -1.93,-7.78 -3.08,-15.58 -3.52,-23.57 -0.44,-8.11 -11.88,-8 -12.52,0 -0.66,8.15 -2.19,16.1 -4.45,23.96 h 11.9 c -1.33,-7.35 -1.77,-14.74 -1.51,-22.2 0.27,-8.01 -11.27,-7.56 -12.17,0 -1.01,8.5 -3.09,16.79 -5.92,24.86 l 11.86,1.61 C 84.92,79.15 84.8,71.83 85.5,64.44 c 0.65,-6.93 -9.92,-7.87 -11.79,-1.6 -2.67,8.94 -5.35,17.89 -8.03,26.83 -2.22,7.4 9.14,10.45 11.51,3.17 2.53,-7.76 3.57,-16.01 2.76,-24.15 -0.4,-4.03 -1.12,-8.05 -2.34,-11.91 -1.22,-3.86 -3.39,-7.21 -3.06,-11.15 l -7.54,5.74 c 1.91,0.69 3.83,1.38 5.74,2.07 2.97,1.07 6.6,-1.22 7.32,-4.16 C 82.14,40.85 76.71,33.8 77.5,25.52 77.9,21.34 78.35,17.45 76.59,13.48 75.22,10.39 71.17,7.31 71.37,3.83 l -8.93,1.21 c 0.53,1.53 0.75,2.7 0.72,4.32 H 72 C 72,7.57 71.93,5.79 71.87,4 l -7.76,2.1 0.96,2.67 c 0.59,4.54 7.31,4.88 7.34,0 0.03,-3.76 -1.86,-8.33 -6.42,-6.7 -1.67,0.6 -2.17,3.58 0,3.91 v 0 z"
             id="path37" />
          <path
             class="cls-11"
             d="m 6.34,58.13 c 5.6,-0.73 11.27,-0.09 16.89,0.15 5.62,0.24 11.67,0.3 17.5,0.42 5.51,0.12 11.02,0.18 16.53,0.22 2.92,0.02 5.83,0.04 8.75,0.06 2.39,0.02 6.16,-0.7 8.4,0.19 l -1.06,-1.86 1.94,-0.19 c -0.36,-0.75 -1.63,-0.75 -1.99,0 l -0.08,0.16 c -0.3,0.62 -0.16,1.31 0.44,1.7 l 0.26,0.17 c 0.43,0.27 0.97,0.23 1.4,0 l 0.24,-0.13 c 0.57,-0.3 0.89,-1.09 0.7,-1.71 L 76.11,56.84 C 75.94,56.3 75.49,55.72 74.89,55.62 69.87,54.77 64.29,55.45 59.2,55.49 53.04,55.54 46.88,55.6 40.73,55.73 29.37,55.98 17.46,55.43 6.25,57.49 5.89,57.56 5.97,58.18 6.34,58.14 v 0 z"
             id="path39" />
          <path
             class="cls-11"
             d="m 2.44,48.36 c 4.34,-2.9 13.22,-0.47 18.11,-0.09 5.95,0.46 11.93,0.64 17.9,0.74 5.64,0.09 11.27,0.16 16.91,0.08 5.64,-0.08 11.76,0.33 17.1,-1.24 0.69,-0.2 0.66,-1.16 0,-1.37 -5.6,-1.84 -12.25,-1.55 -18.09,-1.82 -6.62,-0.3 -13.26,-0.44 -19.89,-0.46 -6.63,-0.02 -12.59,0.17 -18.9,0.45 -4.84,0.22 -9.38,0.27 -13.39,3.3 -0.25,0.19 -0.02,0.61 0.25,0.43 v 0 z"
             id="path42" />
          <path
             class="cls-10"
             d="M 3.71,12.05 C 4.92,10.64 6.07,9.43 6.71,7.65 6.62,7.89 8.8696508,4.9395731 8.4396508,5.2095731 8.1496508,5.3895731 9.97,4.58 10.04,4.59 16.33,5.22 22.91,4.85 29.23,4.92 35.55,4.99 42.35,5.08 48.91,5.17 55.47,5.26 62,6.11 68.14,4.74 70.1,4.31 69.99,1.39 68.14,0.89 61.19,-0.99 53.12,-0.18 45.96,-0.29 38.44,-0.41 30.92,-0.51 23.41,-0.6 c -3.3,-0.04 -6.6,-0.04 -9.9,-0.05 -2.57,0 -6.1500776,0.22965075 -8.5000776,1.47965075 C 0.97992239,2.9596508 3.48,8.26 3.19,11.83 c -0.02,0.26 0.35,0.41 0.52,0.22 z"
             id="path43"
             sodipodi:nodetypes="ccccsscccccccc" />
          <path
             class="cls-10"
             d="m 4.39,70.88 c 3.32,0.41 3.6,6.72 3.77,8.94 0.24,3.3 -0.53,5.49 -2.55,8.1 -0.61,0.79 -0.09,2.22 1.07,1.84 4.53,-1.45 5.13,-6.83 4.22,-10.9 -0.74,-3.32 -2.26,-8.5 -6.52,-8.26 -0.19,0.01 -0.18,0.26 0,0.28 v 0 z"
             id="path44" />
        </g>
      </g>
      <path
         class="cls-5"
         d="m 64.21,90.69 c 7.27,1.27 39.9,-4.42 39.9,-4.42 0,0 7.2,-17.63 0.91,-24.04"
         id="path46" />
      <polyline
         class="cls-3"
         points="95.71 39.83 101.11 39.08 103.05 49.94 62.64 56.09 3.41 56.09 1.81 44.51 5.12 44.51"
         id="polyline47" />
      <polygon
         class="cls-2"
         points="101.67,15.32 103.61,4.46 62.08,1.39 2.85,1.39 1.25,12.97 63.07,14.69 "
         id="polygon49" />
    </g>
  </g>
</svg>
