<?xml version="1.0" encoding="UTF-8"?>
<svg id="Calque_2" data-name="Calque 2" xmlns="http://www.w3.org/2000/svg" xmlns:xlink="http://www.w3.org/1999/xlink" viewBox="0 0 61.78 107.39">
  <defs>
    <style>
      .cls-1 {
        opacity: .31;
      }

      .cls-2 {
        fill: #782d3e;
      }

      .cls-2, .cls-3, .cls-4, .cls-5, .cls-6 {
        stroke-width: 0px;
      }

      .cls-3 {
        fill: #b653b0;
      }

      .cls-4, .cls-7, .cls-8 {
        fill: none;
      }

      .cls-9 {
        fill: #936844;
      }

      .cls-9, .cls-7 {
        stroke-linecap: round;
        stroke-linejoin: round;
      }

      .cls-9, .cls-7, .cls-10, .cls-8 {
        stroke-width: 2.52px;
      }

      .cls-9, .cls-10 {
        stroke: #610000;
      }

      .cls-11 {
        clip-path: url(#clippath);
      }

      .cls-7, .cls-8 {
        stroke: #510000;
      }

      .cls-5 {
        fill: #effdf3;
      }

      .cls-10 {
        fill: #848484;
      }

      .cls-10, .cls-8 {
        stroke-miterlimit: 10;
      }

      .cls-6 {
        fill: #efb5f3;
      }
    </style>
    <clipPath id="clippath">
      <path class="cls-4" d="m53.87,1.9c-10.07,1.51-29.2,45.96-34.31,58.23-5.73-.75-5.49,1.7-5.49,3.11,0,.8.77,1.47,2.29,2.2-4.01,2.55-25.71,15.44-9.94,29.86,16.94,15.48,37.1,10.81,38.56,10.22,1.46-.58-19.28-7.6-18.11-14.17,1.17-6.57,7.29-18.38,1.76-21.68,4.85,1.16,5.24-.31,5.24-.88,0,0,2.3-2.45-2.99-5.24l25.54-42.96S65.55.15,53.87,1.9Z"/>
    </clipPath>
  </defs>
  <g id="Layer_1" data-name="Layer 1">
    <g>
      <path class="cls-9" d="m20.68,59.2S42.88,3.12,54.57,1.36c11.68-1.75,2.57,18.69,2.57,18.69l-25.35,42.65-11.1-3.51Z"/>
      <path class="cls-10" d="m17.65,64.51c-1.17,1.04-27.46,14.77-10.52,30.25,16.94,15.48,37.1,10.81,38.56,10.22s-19.28-7.6-18.11-14.17c1.17-6.57,7.3-18.4,1.75-21.69-5.55-3.29-11.68-4.62-11.68-4.62Z"/>
      <path class="cls-9" d="m34.58,68.26c0,.67-.55,2.59-8.24,0-7.69-2.59-11.57-3.76-11.57-5.55s-.39-5.26,11.49-1.74c11.88,3.51,8.32,7.3,8.32,7.3Z"/>
      <path class="cls-3" d="m30.93,102.46c-3.73-1.02-7.29-2.32-10.55-4.42-3.58-2.32,1.24.74,1.95,1.17.76.46,1.38.97,2.3,1.02,6.82.35.14-8.91,1.38-11.08l-2.02,1.16c-.54.06.33,5.54.55,6.28.45,1.49,1.22,2.89,2.21,4.08,1.99,2.4,4.71,3.83,7.77,4.28,3.24.48,4.75-4.35,1.39-5.04-5.3-1.09-9.89-3.26-14.84-5.3-2.65-1.1-4.12,3.05-1.88,4.47,5.64,3.57,11.62,6.31,18.27,7.27v-4.64l-2.57-.23-.49,3.6c1.85.2,3.6.4,5.46.41.68,0,1.57-.54,1.68-1.28l.05-.35c.12-.84-.52-1.83-1.5-1.5l-.11.04c-.49.16-.91.71-.71,1.25.13.36.32.61.71.71l-.71-1.25-.03.1,2.03-.54c-1.62-1.43-4.91-1.12-6.87-1.27-1.83-.14-2.47,2.57-.92,3.41,1.33.72,2.49,1.26,3.98,1.53,3.01.55,4.29-3.73,1.28-4.64-5.92-1.8-11.68-3.77-17.08-6.85l-2.96,3.84c4.54,3.51,10.21,5.34,15.83,6.26l.69-5.14c-5.5-.59-6.05-5.04-6.94-9.49-.39-1.95-.97-4.29-3.26-4.72-1.71-.32-2.92.67-3.55,2.15-.4.94-.35,2.08-.27,3.08.08.94,2.28,5.44,1.96,5.93l2-1.15c-2.02.05-4.75-3.47-7.59-3.17-2.09.22-3.34,1.93-3.25,3.94.29,6.21,11.64,8.46,16.28,8.43,1.35,0,1.64-2,.32-2.36h0Z"/>
      <path class="cls-3" d="m16.41,98.04c-1.31-1.1-2.67-2.21-3.83-3.48-.71-.77-1.23-2.21-1.97-2.76-.36-.98-.49-.91-.4.21-.29.94.11,1.58,1.2,1.92,2.5,2.27,4.64,5.37,8.19,5.88,1.66.24,3.77-.7,3.6-2.74-.08-1.03-.25-1.87-.58-2.85-.22-.64-1.13-1.81-.99-2.45l-1.71,1.71.8-.17-1.87-.24c2.24,1.16,3.83,3.54,6.02,4.89,2.76,1.7,6-2.34,3.51-4.56-2.08-1.85-6.98-6.06-10.05-4.51-3.49,1.76-.96,5.53-.82,8.18l3.6-2.74c-3.15-.55-11.38-10.11-14.45-4.56-2.51,4.54,6.03,8.42,8.97,9.61.74.3,1.38-.84.78-1.34h0Z"/>
      <g class="cls-1">
        <g class="cls-11">
          <path class="cls-5" d="m19.61,64.48c5.45-1.48,8.45-8.11,10.72-12.81,3.15-6.52,6.02-13.14,9.45-19.53,3.39-6.32,7.06-12.48,11.04-18.44,1.99-2.98,4.06-5.91,6.19-8.79,2.29-3.09,5.31-5.88,6.33-9.64.8-2.95-2.37-5.07-4.92-3.78-5.3,2.67-9.32,10.34-12.63,15.13-4.25,6.14-8.18,12.5-11.78,19.04-3.41,6.21-6.38,12.62-9.16,19.13-1.26,2.94-2.42,5.94-3.88,8.79s-3.42,5.22-3.98,8.29c-.29,1.55.95,3.06,2.61,2.61h0Z"/>
          <path class="cls-5" d="m10.59,69.86c-8.01,7.54-10.98,21.79-2.48,30.19,1.19,1.18,3.66,0,3-1.74-3.34-8.71-4.48-18.3,1.89-26.04,1.37-1.66-.78-3.93-2.4-2.4h0Z"/>
          <path class="cls-2" d="m34.39,75.41c-9.22-5.3-15.66,7.41-11.97,14.91,4.06,8.26,18.43,14.66,27.04,10.62,1.2-.56,2.15-2.24,2.04-3.56-.44-5.26-7.27-4.29-11.1-5.28-3.15-.81-6.76-1.74-8.94-4.34-2.69-3.22-1.97-7.29,2.41-8.35,1.85-.45,2.13-3.09.52-4.01h0Z"/>
          <path class="cls-2" d="m29.22,84.64c3.47-1.15,7.07-2.62,7.76-6.71.28-1.66,0-3.27-.86-4.7-.47-.78-1.02-1.36-1.74-1.91-1.72-1.31-1.94-1.41-3.07.63l-2.37,1.82.7-.21-3.06-.4c4.83,2.83,9.95-.56,11.03-5.69.47-2.23.12-4.31,1.06-6.48.64-1.48,1.76-2.87,2.62-4.21,2.19-3.41,4.37-6.83,6.5-10.28,4.27-6.89,8.41-13.87,12.42-20.92s8.63-14.07,11.35-21.62c1.61-4.46-4.79-6.46-7.2-3.03-5.64,8.03-9.64,17.63-14.54,26.16-4.98,8.65-10.17,17.17-15.53,25.59-2.02,3.18-4.49,6.68-4.39,10.65-.31,1.11-.08,2.09.68,2.96-.62-.36-1.29-.54-2.01-.54-1.21-.04-2.64.57-3.5,1.38-1.89,1.77-1.92,5.01-.65,7.13,1.86,3.11,7.1,2.8,2.73,6.83-1.53,1.41.06,4.21,2.06,3.55h0Z"/>
          <path class="cls-2" d="m4.2,100.23c7.21,3.78,15.65,5.08,23.65,6.07,8.85,1.09,17.74,1.61,26.66,1.65,5.43.02,5.44-8.48,0-8.44-8.27.06-16.53-.28-24.76-1.14s-16.34-2.55-24.45-2.18c-2.04.09-3.1,2.99-1.09,4.04h0Z"/>
        </g>
      </g>
      <path class="cls-7" d="m20.48,59.23S42.68,3.15,54.37,1.4c11.68-1.75,2.57,18.69,2.57,18.69l-25.35,42.65-11.1-3.51Z"/>
      <path class="cls-8" d="m16.24,65.33c-5.22,3.29-24.38,15.68-9.31,29.46,16.94,15.48,37.1,10.81,38.56,10.22,1.46-.58-19.28-7.6-18.11-14.17,1.08-6.07,6.39-16.62,2.83-20.79"/>
      <path class="cls-7" d="m34.39,68.29c0,.67-.55,2.59-8.24,0-7.69-2.59-11.57-3.76-11.57-5.55s-.39-5.26,11.49-1.74c11.88,3.51,8.32,7.3,8.32,7.3Z"/>
      <path class="cls-6" d="m15.38,95.82c-4.91-2.73-6.19-11.15-4.56-16.04.31-.93-1.08-1.48-1.56-.66-1.76,2.99-1.2,6.61-.39,9.83.94,3.76,2.56,6.05,6.04,7.67.54.25,1.01-.51.47-.81h0Z"/>
      <path class="cls-6" d="m18.6,92.79c-2.41-1.88-2.76-5.65-3.22-8.45-.16-1-1.52-.62-1.62.22-.38,3.12.79,8,3.98,9.35.66.28,1.57-.57.87-1.12h0Z"/>
      <path class="cls-6" d="m18.66,84.73c0,1.34.13,2.72.52,4,.23.76,1.43.44,1.19-.33-.38-1.21-.71-2.41-.84-3.67-.06-.55-.88-.58-.88,0h0Z"/>
    </g>
  </g>
</svg>