<?xml version="1.0" encoding="UTF-8" standalone="no"?>
<svg
   id="Calque_2"
   data-name="Calque 2"
   viewBox="0 0 98.49 103.6"
   version="1.1"
   sodipodi:docname="calculator-empty.svg"
   inkscape:version="1.4.2 (2aeb623e1d, 2025-05-12)"
   xmlns:inkscape="http://www.inkscape.org/namespaces/inkscape"
   xmlns:sodipodi="http://sodipodi.sourceforge.net/DTD/sodipodi-0.dtd"
   xmlns="http://www.w3.org/2000/svg"
   xmlns:svg="http://www.w3.org/2000/svg">
  <sodipodi:namedview
     id="namedview29"
     pagecolor="#ffffff"
     bordercolor="#000000"
     borderopacity="0.25"
     inkscape:showpageshadow="2"
     inkscape:pageopacity="0.0"
     inkscape:pagecheckerboard="0"
     inkscape:deskcolor="#d1d1d1"
     inkscape:zoom="6.0907337"
     inkscape:cx="49.25515"
     inkscape:cy="51.799999"
     inkscape:window-width="1600"
     inkscape:window-height="836"
     inkscape:window-x="0"
     inkscape:window-y="27"
     inkscape:window-maximized="1"
     inkscape:current-layer="g20" />
  <defs
     id="defs1">
    <style
       id="style1">
      .cls-1, .cls-2 {
        fill: none;
      }

      .cls-1, .cls-3, .cls-4, .cls-5 {
        stroke-width: 0px;
      }

      .cls-6 {
        fill: #d737b8;
      }

      .cls-6, .cls-7, .cls-2, .cls-8 {
        stroke-width: 2.51px;
      }

      .cls-6, .cls-7, .cls-8 {
        stroke: #231f20;
      }

      .cls-6, .cls-2, .cls-8 {
        stroke-linecap: round;
        stroke-linejoin: round;
      }

      .cls-7 {
        fill: #5270d5;
        stroke-miterlimit: 10;
      }

      .cls-2 {
        stroke: #641233;
      }

      .cls-8 {
        fill: #ff8799;
      }

      .cls-9 {
        clip-path: url(#clippath);
      }

      .cls-3 {
        fill: #eafdf1;
      }

      .cls-10 {
        opacity: .42;
      }

      .cls-4 {
        fill: #82263e;
      }

      .cls-5 {
        fill: #1d3e83;
      }
    </style>
    <clipPath
       id="clippath">
      <path
         class="cls-1"
         d="m26.83,94.52c-6.06-14.59-17.03-39.72-23.37-54.16-2.76-6.28-.1-13.63,6.04-16.69C25.56,15.66,54.85,2.1,65.79,3.86c11.68,1.88,23.53,46.26,28.59,67.65,1.52,6.42-2.05,12.94-8.28,15.12l-43.13,15.1c-6.44,2.26-13.53-.9-16.15-7.21Z"
         id="path1" />
    </clipPath>
  </defs>
  <g
     id="Layer_1"
     data-name="Layer 1">
    <g
       id="g29">
      <path
         class="cls-6"
         d="m25.71,94.42c-6.06-14.59-17.03-39.72-23.37-54.16-2.76-6.28-.1-13.63,6.04-16.69C24.44,15.55,53.72,1.99,64.67,3.75c11.68,1.88,23.53,46.26,28.59,67.65,1.52,6.42-2.05,12.94-8.28,15.12l-43.13,15.1c-6.44,2.26-13.53-.9-16.15-7.21Z"
         id="path2" />
      <path
         class="cls-6"
         d="m29.34,92.07c-6.06-14.59-17.03-39.72-23.37-54.16-2.76-6.28-.1-13.63,6.04-16.69C28.07,13.21,57.36-.35,68.3,1.41c11.68,1.88,23.53,46.26,28.59,67.65,1.52,6.42-2.05,12.94-8.28,15.12l-43.13,15.1c-6.44,2.26-13.53-.9-16.15-7.21Z"
         id="path3" />
      <path
         class="cls-7"
         d="m36.21,86.56l-9.63-24.61c-1.67-4.28.44-9.11,4.72-10.79l38.61-15.08c5.16-2.02,10.93.87,12.4,6.21l6.9,24.98c1.24,4.48-1.25,9.14-5.65,10.61l-38.46,12.84c-3.6,1.2-7.52-.63-8.9-4.17Z"
         id="path5" />
      <g
         class="cls-10"
         id="g21">
        <g
           class="cls-9"
           clip-path="url(#clippath)"
           id="g20">
          <path
             class="cls-4"
             d="m3.33,27.26c-.45,4-1.61,6.56-.93,10.66.53,3.19,1.64,6.3,2.79,9.31,2.56,6.72,5.9,13.13,9.03,19.61,3.45,7.13,6.9,14.26,10.36,21.38,2.65,5.47,4.64,12.2,11.34,13.52,5.72,1.13,12.56-.76,18.11-2.1,6.3-1.52,12.41-3.62,18.37-6.18,6.09-2.62,11.96-5.73,17.52-9.35s11.35-7.33,15.18-12.43c2.74-3.65-2.46-8.03-5.98-5.98-4.71,2.75-8.65,6.87-13.2,9.93s-9.4,5.82-14.38,8.2c-10.03,4.8-21.01,8.15-32,9.84-4.23.65-6.12-1.32-7.94-4.98-1.46-2.96-2.92-5.92-4.37-8.88-2.77-5.62-5.55-11.24-8.33-16.85-2.8-5.65-5.73-11.26-8.31-17.01-1.41-3.13-2.47-6.29-3.52-9.55-.92-2.83-2.74-6.16-3.01-9.14-.04-.46-.65-.45-.7,0h0Z"
             id="path13" />
          <path
             class="cls-3"
             d="m27.19,54.91c8.38-3.59,16.88-5.66,25.42-8.69,3.94-1.4,7.76-3.1,11.68-4.58,3.69-1.39,7.66-2.16,11.2-3.85.87-.41.41-1.75-.47-1.75-8.25,0-17.19,5.53-24.7,8.56-4.1,1.66-8.41,2.71-12.48,4.43-3.76,1.59-7.18,3.73-10.79,5.62-.16.09-.02.31.14.24h0Z"
             id="path15" />
          <path
             class="cls-3"
             d="m29.05,64.98c3.66.46,7.13-.91,10.57-2,4.49-1.43,8.99-2.8,13.46-4.3,8.95-3.01,18.49-5.69,26.91-9.98.45-.23.12-.86-.33-.77-8.93,1.78-17.75,5.43-26.32,8.48-3.7,1.31-7.37,2.73-11.05,4.11-4.12,1.55-8.77,4.26-13.24,4.09-.25,0-.23.35,0,.38h0Z"
             id="path16" />
          <path
             class="cls-3"
             d="m35.84,75.51c8.44-2.14,16.72-4.73,24.89-7.75,7.57-2.79,15.79-4.77,22.94-8.53.69-.36.39-1.54-.4-1.49-8.05.49-15.9,4.24-23.32,7.15-8.15,3.19-16.08,6.93-24.24,10.12-.3.12-.19.58.14.5h0Z"
             id="path17" />
          <path
             class="cls-3"
             d="m43.23,82.23c10.73-2.27,21.12-5.34,31.15-9.79.15-.06.04-.31-.11-.26-10.28,3.5-20.62,6.96-31.08,9.91-.09.02-.05.15.04.14h0Z"
             id="path18" />
          <path
             class="cls-3"
             d="m6.98,27.68c15.58-8.04,33.09-14.39,50.01-18.93,4.25-1.14,8.59-2.32,12.94-3.01,5.5-.87,7.44,5.64,9.67,9.61,4.38,7.78,8.26,17.73,14.8,23.88,1.49,1.4,3.75,0,3.34-1.94-1.13-5.29-4.36-10.11-6.98-14.77s-5.48-9.73-8.22-14.59c-1.84-3.27-3.51-6.93-7.34-8.18-4.04-1.32-9.02.39-12.98,1.32-9.74,2.28-19.25,5.42-28.35,9.58-9.9,4.52-18.31,10.45-26.92,17-.02.02,0,.05.02.04h0Z"
             id="path19" />
          <path
             class="cls-3"
             d="m67.73,2.59c3.68,2.02,6.77,6.92,9.05,10.28,2.1,3.1,3.76,6.5,5.36,9.88,3.88,8.21,6.9,16.8,10.79,25,.61,1.28,2.47.34,2.19-.92-2.14-9.72-5.73-19.43-9.98-28.43-1.66-3.52-3.71-6.97-6.23-9.95-3.11-3.67-6.57-4.64-10.8-6.5-.43-.19-.81.41-.38.65h0Z"
             id="path20" />
        </g>
      </g>
      <g
         id="g25">
        <path
           class="cls-2"
           d="m27.72,64.85c1.26-.15,55.54-19.14,55.54-19.14"
           id="path21" />
        <line
           class="cls-2"
           x1="31.8"
           y1="75.26"
           x2="85.91"
           y2="55.28"
           id="line21" />
        <line
           class="cls-2"
           x1="34.72"
           y1="82.74"
           x2="88.67"
           y2="65.27"
           id="line22" />
        <line
           class="cls-2"
           x1="47.43"
           y1="89.95"
           x2="34.72"
           y2="50.47"
           id="line23" />
        <path
           class="cls-2"
           d="m60.13,85.43c.66-1.37-14.85-39.54-14.85-39.54"
           id="path23" />
        <line
           class="cls-2"
           x1="72.09"
           y1="81.72"
           x2="57.78"
           y2="42.03"
           id="line24" />
        <line
           class="cls-2"
           x1="83.27"
           y1="77.5"
           x2="67.39"
           y2="36.97"
           id="line25" />
      </g>
      <path
         class="cls-2"
         d="m41.86,101.62c-6.44,2.26-13.53-.9-16.15-7.21-6.06-14.59-17.03-39.72-23.37-54.16-2.76-6.28-.1-13.63,6.04-16.69"
         id="path25" />
      <path
         class="cls-2"
         d="m89.89,83.42c-1.34,1.36-3,2.44-4.91,3.11l-43.13,15.1"
         id="path26" />
      <path
         class="cls-2"
         d="m29.34,92.07c-6.06-14.59-17.03-39.72-23.37-54.16-2.76-6.28-.1-13.63,6.04-16.69C28.07,13.21,57.36-.35,68.3,1.41c11.68,1.88,23.53,46.26,28.59,67.65,1.52,6.42-2.05,12.94-8.28,15.12l-43.13,15.1c-6.44,2.26-13.53-.9-16.15-7.21Z"
         id="path27" />
      <path
         class="cls-2"
         d="m36.21,86.56l-9.63-24.61c-1.67-4.28.44-9.11,4.72-10.79l38.61-15.08c5.16-2.02,10.93.87,12.4,6.21l6.9,24.98c1.24,4.48-1.25,9.14-5.65,10.61l-38.46,12.84c-3.6,1.2-7.52-.63-8.9-4.17Z"
         id="path29" />
    </g>
  </g>
</svg>
