<?xml version="1.0" encoding="UTF-8" standalone="no"?>
<svg
   id="Calque_2"
   data-name="Calque 2"
   viewBox="0 0 19.490002 16.600002"
   version="1.1"
   sodipodi:docname="calculator-button2.svg"
   inkscape:version="1.4.2 (f4327f4, 2025-05-13)"
   width="19.49"
   height="16.6"
   xmlns:inkscape="http://www.inkscape.org/namespaces/inkscape"
   xmlns:sodipodi="http://sodipodi.sourceforge.net/DTD/sodipodi-0.dtd"
   xmlns="http://www.w3.org/2000/svg"
   xmlns:svg="http://www.w3.org/2000/svg">
  <sodipodi:namedview
     id="namedview29"
     pagecolor="#ffffff"
     bordercolor="#999999"
     borderopacity="1"
     inkscape:showpageshadow="2"
     inkscape:pageopacity="0"
     inkscape:pagecheckerboard="0"
     inkscape:deskcolor="#d1d1d1"
     inkscape:zoom="10.551999"
     inkscape:cx="50.511756"
     inkscape:cy="10.566718"
     inkscape:window-width="1920"
     inkscape:window-height="991"
     inkscape:window-x="-9"
     inkscape:window-y="-9"
     inkscape:window-maximized="1"
     inkscape:current-layer="g29" />
  <defs
     id="defs1">
    <style
       id="style1">
      .cls-1, .cls-2 {
        fill: none;
      }

      .cls-1, .cls-3, .cls-4, .cls-5 {
        stroke-width: 0px;
      }

      .cls-6 {
        fill: #d737b8;
      }

      .cls-6, .cls-7, .cls-2, .cls-8 {
        stroke-width: 2.51px;
      }

      .cls-6, .cls-7, .cls-8 {
        stroke: #231f20;
      }

      .cls-6, .cls-2, .cls-8 {
        stroke-linecap: round;
        stroke-linejoin: round;
      }

      .cls-7 {
        fill: #5270d5;
        stroke-miterlimit: 10;
      }

      .cls-2 {
        stroke: #641233;
      }

      .cls-8 {
        fill: #ff8799;
      }

      .cls-9 {
        clip-path: url(#clippath);
      }

      .cls-3 {
        fill: #eafdf1;
      }

      .cls-10 {
        opacity: .42;
      }

      .cls-4 {
        fill: #82263e;
      }

      .cls-5 {
        fill: #1d3e83;
      }
    </style>
    <clipPath
       id="clippath">
      <path
         class="cls-1"
         d="M 26.83,94.52 C 20.77,79.93 9.8,54.8 3.46,40.36 0.7,34.08 3.36,26.73 9.5,23.67 25.56,15.66 54.85,2.1 65.79,3.86 77.47,5.74 89.32,50.12 94.38,71.51 95.9,77.93 92.33,84.45 86.1,86.63 l -43.13,15.1 c -6.44,2.26 -13.53,-0.9 -16.15,-7.21 z"
         id="path1" />
    </clipPath>
  </defs>
  <g
     id="Layer_1"
     data-name="Layer 1">
    <g
       id="g29">
      <path
         class="cls-7"
         d="M 4.841537,14.914808 2.7930386,6.225962 c -1.67,-4.28 -4.108901,0.9354886 0.171099,-0.744511 L 12.764432,1.963242 c -0.24182,3.192282 -1.579479,-1.12014496 1.217284,-0.04474 l 2.824943,8.490234 c -0.371069,1.731706 2.445982,0.421274 -1.954018,1.891273 l -9.271219,3.078816 c -0.283093,-1.548294 2.5254913,2.402601 1.1454913,-1.137399 z"
         id="path5"
         sodipodi:nodetypes="cccccccccc"
         style="stroke:none" />
      <g
         class="cls-10"
         id="g21"
         transform="translate(-48.142535,-52.217594)">
        <g
           class="cls-9"
           clip-path="url(#clippath)"
           id="g20">
          <path
             class="cls-3"
             d="m 29.05,64.98 c 3.66,0.46 7.13,-0.91 10.57,-2 4.49,-1.43 8.99,-2.8 13.46,-4.3 8.95,-3.01 18.49,-5.69 26.91,-9.98 0.45,-0.23 0.12,-0.86 -0.33,-0.77 -8.93,1.78 -17.75,5.43 -26.32,8.48 -3.7,1.31 -7.37,2.73 -11.05,4.11 -4.12,1.55 -8.77,4.26 -13.24,4.09 -0.25,0 -0.23,0.35 0,0.38 v 0 z"
             id="path16" />
          <path
             class="cls-3"
             d="m 67.73,2.59 c 3.68,2.02 6.77,6.92 9.05,10.28 2.1,3.1 3.76,6.5 5.36,9.88 3.88,8.21 6.9,16.8 10.79,25 0.61,1.28 2.47,0.34 2.19,-0.92 C 92.98,37.11 89.39,27.4 85.14,18.4 83.48,14.88 81.43,11.43 78.91,8.45 75.8,4.78 72.34,3.81 68.11,1.95 67.68,1.76 67.3,2.36 67.73,2.6 v 0 z"
             id="path20" />
        </g>
      </g>
      <g
         id="g25"
         transform="translate(-48.142535,-52.217594)">
        <path
           class="cls-2"
           d="m 50.08543,57.552804 c 1.26,-0.15 11.377753,-3.787458 11.377753,-3.787458"
           id="path21"
           sodipodi:nodetypes="cc" />
        <path
           class="cls-2"
           d="M 53.718988,67.467023 49.649431,57.709132"
           id="path21-2"
           sodipodi:nodetypes="cc"
           style="fill:none;stroke:#641233;stroke-width:2.51px;stroke-linecap:round;stroke-linejoin:round" />
        <path
           class="cls-2"
           d="m 61.878958,53.605004 c 1.26,-0.15 3.89102,9.764477 3.89102,9.764477"
           id="path21-5"
           sodipodi:nodetypes="cc"
           style="fill:none;stroke:#641233;stroke-width:2.51px;stroke-linecap:round;stroke-linejoin:round" />
        <path
           class="cls-2"
           d="m 53.950982,67.277486 c 1.26,-0.15 10.998678,-3.597921 10.998678,-3.597921"
           id="path21-4"
           sodipodi:nodetypes="cc"
           style="fill:none;stroke:#641233;stroke-width:2.51px;stroke-linecap:round;stroke-linejoin:round"
           inkscape:transform-center-x="1.5163004"
           inkscape:transform-center-y="-5.2122826" />
        <line
           class="cls-2"
           x1="34.720001"
           y1="82.739998"
           x2="88.669998"
           y2="65.269997"
           id="line22"
           style="display:none" />
        <line
           class="cls-2"
           x1="47.43"
           y1="89.949997"
           x2="34.720001"
           y2="50.470001"
           id="line23"
           style="display:none" />
        <line
           class="cls-2"
           x1="83.269997"
           y1="77.5"
           x2="67.389999"
           y2="36.970001"
           id="line25"
           style="display:none" />
      </g>
      <path
         class="cls-2"
         d="M 36.21,86.56 26.58,61.95 C 24.91,57.67 27.02,52.84 31.3,51.16 L 69.91,36.08 c 5.16,-2.02 10.93,0.87 12.4,6.21 l 4.152523,26.454256 c -18.528435,-0.746908 -3.997478,4.784243 -6.521152,5.517115 L 45.1,90.72 c -3.6,1.2 -7.52,-0.63 -8.9,-4.17 z"
         id="path29"
         sodipodi:nodetypes="cccccccccc"
         style="display:none" />
    </g>
  </g>
</svg>
