<?xml version="1.0" encoding="UTF-8" standalone="no"?>
<svg
   id="Calque_2"
   data-name="Calque 2"
   viewBox="0 0 59.490004 39.6"
   version="1.1"
   sodipodi:docname="calculator-screen.svg"
   inkscape:version="1.4.2 (f4327f4, 2025-05-13)"
   width="59.490002"
   height="39.599998"
   xmlns:inkscape="http://www.inkscape.org/namespaces/inkscape"
   xmlns:sodipodi="http://sodipodi.sourceforge.net/DTD/sodipodi-0.dtd"
   xmlns="http://www.w3.org/2000/svg"
   xmlns:svg="http://www.w3.org/2000/svg">
  <sodipodi:namedview
     id="namedview29"
     pagecolor="#ffffff"
     bordercolor="#999999"
     borderopacity="1"
     inkscape:showpageshadow="2"
     inkscape:pageopacity="0"
     inkscape:pagecheckerboard="0"
     inkscape:deskcolor="#d1d1d1"
     showgrid="false"
     inkscape:zoom="7.4613901"
     inkscape:cx="49.186545"
     inkscape:cy="51.799999"
     inkscape:window-width="1920"
     inkscape:window-height="991"
     inkscape:window-x="-9"
     inkscape:window-y="-9"
     inkscape:window-maximized="1"
     inkscape:current-layer="g20" />
  <defs
     id="defs1">
    <style
       id="style1">
      .cls-1, .cls-2 {
        fill: none;
      }

      .cls-1, .cls-3, .cls-4, .cls-5 {
        stroke-width: 0px;
      }

      .cls-6 {
        fill: #d737b8;
      }

      .cls-6, .cls-7, .cls-2, .cls-8 {
        stroke-width: 2.51px;
      }

      .cls-6, .cls-7, .cls-8 {
        stroke: #231f20;
      }

      .cls-6, .cls-2, .cls-8 {
        stroke-linecap: round;
        stroke-linejoin: round;
      }

      .cls-7 {
        fill: #5270d5;
        stroke-miterlimit: 10;
      }

      .cls-2 {
        stroke: #641233;
      }

      .cls-8 {
        fill: #ff8799;
      }

      .cls-9 {
        clip-path: url(#clippath);
      }

      .cls-3 {
        fill: #eafdf1;
      }

      .cls-10 {
        opacity: .42;
      }

      .cls-4 {
        fill: #82263e;
      }

      .cls-5 {
        fill: #1d3e83;
      }
    </style>
    <clipPath
       id="clippath">
      <path
         class="cls-1"
         d="M 26.83,94.52 C 20.77,79.93 9.8,54.8 3.46,40.36 0.7,34.08 3.36,26.73 9.5,23.67 25.56,15.66 54.85,2.1 65.79,3.86 77.47,5.74 89.32,50.12 94.38,71.51 95.9,77.93 92.33,84.45 86.1,86.63 l -43.13,15.1 c -6.44,2.26 -13.53,-0.9 -16.15,-7.21 z"
         id="path1" />
    </clipPath>
  </defs>
  <g
     id="Layer_1"
     data-name="Layer 1">
    <g
       id="g29">
      <path
         class="cls-8"
         d="m 4.9174388,34.100673 -3.05,-7.75 c -1.31000003,-3.33 0.32,-7.09 3.65,-8.41 L 45.927439,1.9406728 c 3.44,-1.35999998 7.31,0.43 8.49,3.94 l 2.62,7.7400002 c 0.98,2.89 -0.45,6.03 -3.27,7.2 l -40.62,16.79 c -3.2400002,1.34 -6.9600002,-0.24 -8.2400002,-3.5 z"
         id="path4" />
      <g
         class="cls-10"
         id="g21"
         transform="translate(-14.742561,-7.6393272)">
        <g
           class="cls-9"
           clip-path="url(#clippath)"
           id="g20">
          <path
             class="cls-4"
             d="M 16.54,30.07 C 32.18,23.48 49.14,18.62 65.55,14.36 L 64.34,9.97 c -12.24,4.02 -24.48,8.05 -36.71,12.07 -3.57,1.17 -9.77,1.88 -11.89,5.47 -1.52,2.57 -0.4,6.62 0.86,9.1 0.42,0.82 1.56,0.86 2.18,0.28 2.73,-2.58 -0.56,-5.57 2.66,-8.24 1.54,-1.28 5.43,-1.76 7.35,-2.38 2.45,-0.79 4.9,-1.59 7.35,-2.38 9.8,-3.17 19.6,-6.35 29.41,-9.53 2.77,-0.9 1.63,-5.19 -1.21,-4.39 -17.02,4.81 -32.28,11.65 -47.99,19.63 -0.26,0.13 -0.07,0.59 0.2,0.47 v 0 z"
             id="path14" />
          <path
             class="cls-3"
             d="m 67.73,2.59 c 3.68,2.02 6.77,6.92 9.05,10.28 2.1,3.1 3.76,6.5 5.36,9.88 3.88,8.21 6.9,16.8 10.79,25 0.61,1.28 2.47,0.34 2.19,-0.92 C 92.98,37.11 89.39,27.4 85.14,18.4 83.48,14.88 81.43,11.43 78.91,8.45 75.8,4.78 72.34,3.81 68.11,1.95 67.68,1.76 67.3,2.36 67.73,2.6 v 0 z"
             id="path20" />
        </g>
      </g>
      <path
         class="cls-2"
         d="m 4.9174388,34.070673 -3.05,-7.75 c -1.31000003,-3.33 0.32,-7.09 3.65,-8.41 L 45.927439,1.9206728 c 3.44,-1.35999998 7.31,0.43 8.49,3.94 l 2.62,7.7400002 c 0.98,2.89 -0.45,6.03 -3.27,7.2 l -40.62,16.79 c -3.2400002,1.34 -6.9600002,-0.24 -8.2400002,-3.5 z"
         id="path28" />
    </g>
  </g>
</svg>
