<?xml version="1.0" encoding="UTF-8" standalone="no"?>
<svg
   viewBox="0 0 118 105"
   version="1.1"
   id="svg24"
   sodipodi:docname="chantilly.svg"
   width="118"
   height="105"
   inkscape:version="1.4.2 (2aeb623e1d, 2025-05-12)"
   xmlns:inkscape="http://www.inkscape.org/namespaces/inkscape"
   xmlns:sodipodi="http://sodipodi.sourceforge.net/DTD/sodipodi-0.dtd"
   xmlns="http://www.w3.org/2000/svg"
   xmlns:svg="http://www.w3.org/2000/svg">
  <sodipodi:namedview
     id="namedview24"
     pagecolor="#ffffff"
     bordercolor="#000000"
     borderopacity="0.25"
     inkscape:showpageshadow="2"
     inkscape:pageopacity="0.0"
     inkscape:pagecheckerboard="0"
     inkscape:deskcolor="#d1d1d1"
     inkscape:zoom="3.0323418"
     inkscape:cx="49.796497"
     inkscape:cy="70.40763"
     inkscape:window-width="1600"
     inkscape:window-height="836"
     inkscape:window-x="0"
     inkscape:window-y="27"
     inkscape:window-maximized="1"
     inkscape:current-layer="Layer_14" />
  <defs
     id="defs1">
    <style
       id="style1">.cls-1,.cls-10,.cls-11,.cls-9{fill:none;}.cls-2{fill:#c649b4;}.cls-10,.cls-2,.cls-3{stroke:#221f20;}.cls-10,.cls-11,.cls-2,.cls-3,.cls-4,.cls-9{stroke-linecap:round;stroke-linejoin:round;stroke-width:5px;}.cls-3{fill:#634c3d;}.cls-4{fill:#e3f9ff;}.cls-11,.cls-4{stroke:#333;}.cls-5{opacity:0.28;}.cls-6{clip-path:url(#clip-path);}.cls-7{fill:#84263d;}.cls-8{fill:#ebfef3;}.cls-9{stroke:#42012e;}.cls-12{fill:#fff;}</style>
    <clipPath
       id="clip-path">
      <path
         class="cls-1"
         d="M 162,87.52 C 147.73,62.26 124.37,68.86 113.25,74 L 109.58,63.33 C 122.55,43.81 91.93,41 91.93,41 95.91,20.19 76,28.6 76,28.6 76,28.6 64.5,21.08 65.39,10.43 66.28,-0.22 61.85,2.94 61.85,2.94 34,8.25 40.17,37 40.17,37 c 0,0 -10.17,-4 -19.91,6.2 -7.47,7.81 2,13 6.8,15 -4,-0.82 -12.37,0.13 -20.95,17.29 -9.79,19.56 5.05,23.7 10.74,24.51 L 49,188.54 c 0,0 65,13.94 91.36,-35.61 l -4,-11.6 C 148.24,134.77 177.59,115 162,87.52 Z m -31,38.09 -12.62,-36.72 h 0.09 c 14.6,-7.52 31.92,1.1 33.25,15.26 0.82,8.74 -12.47,17.13 -20.72,21.46 z"
         id="path1" />
    </clipPath>
  </defs>
  <g
     id="Calque_2"
     data-name="Calque 2">
    <g
       id="Layer_14"
       data-name="Layer 14">
      <path
         class="cls-4"
         d="m 41.82,37.35 c 0,0 -6.19,-28.75 21.68,-34.06 0,0 4.42,-3.16 3.54,7.49 C 66.16,21.43 77.65,29 77.65,29 c 0,0 19.91,-8.41 15.93,12.39 0,0 33.62,3.09 15.48,25.21 -18.14,22.12 -88.48,34.07 -88.48,34.07 0,0 -24.77,-0.94 -12.83,-24.83 C 19.69,51.95 31.2,59.47 31.2,59.47 c 0,0 -19,-5.75 -9.29,-15.92 9.71,-10.17 19.91,-6.2 19.91,-6.2 z"
         id="path5"
         style="display:inline" />
      <g
         class="cls-5"
         id="g12"
         style="display:inline">
        <g
           class="cls-6"
           clip-path="url(#clip-path)"
           id="g11">
          <path
             class="cls-7"
             d="m 15.39,51.55 c 8.77,11.15 21.1,15.76 34.93,16.76 7.69,0.56 15.59,-0.79 23.1,-2.39 6.85,-1.46 17.13,-3.27 20.8,-10 a 5.61,5.61 0 0 0 -2,-7.57 c -5.85,-3.19 -13.44,-0.66 -19.5,0.91 a 112.9,112.9 0 0 1 -20.06,3.4 c -11.1,0.85 -23.47,-0.68 -33.09,-6.59 -3.61,-2.22 -6.48,2.55 -4.2,5.45 z"
             id="path6" />
          <path
             class="cls-7"
             d="m 44.63,37.93 c 10.09,3.58 27.67,3.55 32.79,-7.93 1.13,-2.53 -0.72,-5.32 -3.6,-4.68 -4.82,1.07 -8.68,4 -13.42,5.41 a 35,35 0 0 1 -15,1.47 c -3.43,-0.45 -3.65,4.68 -0.77,5.7 z"
             id="path7" />
          <path
             class="cls-7"
             d="m 71.49,29.85 c 1.643396,0.857033 2.653042,2.577315 2.6,4.43 0.15991,1.327726 -0.292699,2.656116 -1.23,3.61 -6.1,5.32 -1.08,15.54 6.43,15.54 3.74,0 11.47,-1.3 12,4 0.23,2 -0.87,3.44 -1.92,5.12 -2.13,3.4 -4.45,5.380888 -8.498891,17.165119 C 93.289128,77.361553 112.42,65.11 92.68,66.67 l 7.46178,6.387544 C 107.14178,62.607544 114.55,60.56 109.15,48.27 103.35,35.07 89.46,33.6 76.87,35.55 l 8.86,15.22 c 5.09,-6.06 6.65,-13.83 2.1,-20.72 -3.48,-5.28 -9.17,-8.28 -15.47,-6.89 -3.07,0.69 -3.55,5.2 -0.87,6.69 z"
             id="path8"
             sodipodi:nodetypes="cccsccccccccccc" />
        </g>
      </g>
      <path
         class="cls-4"
         d="m 52,38.68 c 0,0 13.28,1.77 19.47,-4"
         id="path12" />
      <path
         class="cls-4"
         d="m 44.47,62.13 c 0,0 35,2.21 42.92,-7.52"
         id="path13" />
      <path
         class="cls-11"
         d="m 42.17,37 c 0,0 -6.17,-28.75 21.68,-34.06 0,0 4.42,-3.16 3.54,7.49 C 66.51,21.08 78,28.6 78,28.6 c 0,0 19.91,-8.41 15.93,12.4 0,0 33.62,3.1 15.48,25.22 -18.14,22.12 -88.48,34.06 -88.48,34.06 0,0 -24.77,-0.9 -12.83,-24.79 11.94,-23.89 23.45,-16.37 23.45,-16.37 0,0 -19,-5.75 -9.29,-15.92 C 31.97,33.03 42.17,37 42.17,37 Z"
         id="path19" />
      <path
         class="cls-12"
         d="m 31.33,50.39 c 3.83,0 7.78,-0.22 11.61,-0.38 4,-0.17 7.94,-0.65 11.05,-3.31 1.4,-1.2 0.68,-3.13 -0.52,-4.05 -3.7,-2.86 -9,-2.62 -13.48,-2.32 -4.07,0.27 -8.22,1 -11.14,4.05 a 3.56,3.56 0 0 0 2.48,6 z"
         id="path22" />
      <path
         class="cls-12"
         d="m 52.57,30.48 a 13.57,13.57 0 0 1 1.71,-7.61 c 1.12,-2.07 3.32,-3.73 3.86,-6.05 a 1.9,1.9 0 0 0 -1.81,-2.38 c -3.42,-0.22 -6,3.54 -7.24,6.29 a 17.27,17.27 0 0 0 -1,10.36 c 0.47,2.53 4.68,2 4.51,-0.61 z"
         id="path23" />
      <path
         class="cls-12"
         d="m 21.47,86.34 h -1 l 2.41,1 c -1.16,-1.09 1.21,-8.44 1.86,-9.92 1.5,-3.39 5.1,-3.11 7.22,-5.81 1.14,-1.45 1.84,-3.56 0.68,-5.27 -6.21,-9.16 -16.91,1.57 -19,8.46 -1.83,6.08 -1.48,21.35 8.71,17.88 3.33,-1.13 3,-6.41 -0.86,-6.35 z"
         id="path24" />
    </g>
  </g>
</svg>
