<?xml version="1.0" encoding="UTF-8" standalone="no"?>
<svg
   viewBox="0 0 235.62 202.62"
   version="1.1"
   id="svg82"
   sodipodi:docname="crown_gems.svg"
   inkscape:version="1.4.2 (f4327f4, 2025-05-13)"
   xmlns:inkscape="http://www.inkscape.org/namespaces/inkscape"
   xmlns:sodipodi="http://sodipodi.sourceforge.net/DTD/sodipodi-0.dtd"
   xmlns="http://www.w3.org/2000/svg"
   xmlns:svg="http://www.w3.org/2000/svg">
  <sodipodi:namedview
     id="namedview82"
     pagecolor="#ffffff"
     bordercolor="#999999"
     borderopacity="1"
     inkscape:showpageshadow="2"
     inkscape:pageopacity="0"
     inkscape:pagecheckerboard="0"
     inkscape:deskcolor="#d1d1d1"
     inkscape:zoom="3.8150233"
     inkscape:cx="117.6926"
     inkscape:cy="101.31"
     inkscape:window-width="1920"
     inkscape:window-height="991"
     inkscape:window-x="-9"
     inkscape:window-y="-9"
     inkscape:window-maximized="1"
     inkscape:current-layer="svg82" />
  <defs
     id="defs1">
    <style
       id="style1">.cls-1,.cls-13,.cls-14,.cls-15,.cls-16{fill:none;}.cls-2{fill:#edd633;}.cls-13,.cls-2{stroke:#563821;}.cls-13,.cls-14,.cls-15,.cls-16,.cls-2,.cls-3,.cls-4,.cls-6{stroke-linecap:round;stroke-linejoin:round;stroke-width:5px;}.cls-3{fill:#67469c;}.cls-14,.cls-3{stroke:#221d3d;}.cls-4{fill:#ddf1f3;}.cls-15,.cls-4{stroke:#016673;}.cls-5{fill:#231f20;}.cls-6{fill:#ef4340;}.cls-16,.cls-6{stroke:#622736;}.cls-7{fill:#1c3026;}.cls-8{fill:#3cc6f4;}.cls-9{opacity:0.45;}.cls-10{clip-path:url(#clip-path);}.cls-11{fill:#901a3d;}.cls-12{fill:#e6fff2;}.cls-17{fill:#d7bfdd;}</style>
    <clipPath
       id="clip-path"
       transform="translate(4.65)">
      <path
         class="cls-1"
         d="M208.53,114.63c-1.86.26-3.36.47-4.65.76L200.1,55.61a3.21,3.21,0,0,0-2-2.82l9-13.84-9.36-18.2-9.48,18.58,9.07,13.24a3.22,3.22,0,0,0-3.48,1.81c-7.22,14.8-21.49,36.24-41.47,29.62-19.46-6.44-32.3-32.43-38.8-49.43a3.92,3.92,0,0,0-2.49-2.39l7.14-11.78L108.31,2.5,99.4,21.36l8.2,11.23a4,4,0,0,0-1.79,2.46c-4,15.68-14,40-38.22,57.89C49.71,106.15,27.44,80.27,17.23,66.2l5.54-12.6L10.6,37.15,4.24,57l8.3,8.69,7.54,66.83c-6-.42-10.79.56-12.46,3.72-5,9.51,4.65,14.28,5.21,19.36s-5.91,5-8.59,9.6c-5.91,10.14,4,24.9,18.75,26.06,19.11,1.51,22.71-5.42,22.71-5.42s2.19,11,34.06,10.84,29.94-17.16,31-17.55,10.06,9.17,38.06,8.52,36.52-20.9,36.52-20.9,26.58,12.13,37.42-10.53C229.8,141.45,223.33,112.53,208.53,114.63Z"
         id="path1" />
    </clipPath>
  </defs>
  <g
     id="Calque_2"
     data-name="Calque 2">
    <g
       id="Layer_18"
       data-name="Layer 18">
      <polygon
         class="cls-3"
         points="115.98 75.14 101.08 103.07 117.81 127.17 132.78 101.96 115.98 75.14"
         id="polygon2" />
      <path
         class="cls-6"
         d="M182.69,114s-6.09.18-6.28-7.37,3.14-10.45,3.14-10.45,6.15-5.42,9.94,1.93S190.52,115.33,182.69,114Z"
         transform="translate(4.65)"
         id="path19" />
      <path
         class="cls-6"
         d="M37.59,127.61s-6.09.17-6.28-7.38,3.14-10.45,3.14-10.45,6.15-5.42,9.94,1.94S45.42,129,37.59,127.61Z"
         transform="translate(4.65)"
         id="path20" />
      <path
         class="cls-7"
         d="M72.31,117.77l.41.36"
         transform="translate(4.65)"
         id="path21" />
      <path
         class="cls-8"
         d="M65.41,120.06v0l.76,1.8,1.18,1.52,1.52,1.18,1.8.75,2,.27,2-.27,1.8-.75a5.79,5.79,0,0,0,2.11-1.94,3.78,3.78,0,0,0,1-1.66,7.59,7.59,0,0,0,.51-3.9,7.32,7.32,0,0,0-1.48-3.56,3.8,3.8,0,0,0-1.35-1.35,3.73,3.73,0,0,0-1.66-1,5.67,5.67,0,0,0-2.9-.65h0a7.51,7.51,0,0,0-3.79,1,5.6,5.6,0,0,0-2.11,1.93,5.71,5.71,0,0,0-1.34,2.55,7.51,7.51,0,0,0,0,4Z"
         transform="translate(4.65)"
         id="path22" />
      <path
         class="cls-7"
         d="M151.37,108.29c.28.16.63-.29.41-.53s-.69.08-.56.38"
         transform="translate(4.65)"
         id="path23" />
      <path
         class="cls-8"
         d="M148,113.55h0a4.66,4.66,0,0,0,2.35.75,4.83,4.83,0,0,0,2.53-.11l1.51-.64a6.36,6.36,0,0,0,2.28-2.27h0l.64-1.52.22-1.69a4.79,4.79,0,0,0-.54-2.45,3.21,3.21,0,0,0-.82-1.4,3.12,3.12,0,0,0-1.14-1.14,3.31,3.31,0,0,0-1.4-.82,3.22,3.22,0,0,0-1.6-.43,4.88,4.88,0,0,0-2.54.11l-1.51.64-1.29,1-1,1.28-.64,1.52-.23,1.69a4.82,4.82,0,0,0,.55,2.45,3.25,3.25,0,0,0,.81,1.4,4.85,4.85,0,0,0,1.79,1.63Z"
         transform="translate(4.65)"
         id="path24" />
      <g
         class="cls-9"
         id="g48">
        <g
           class="cls-10"
           clip-path="url(#clip-path)"
           id="g47">
          <path
             class="cls-11"
             d="M184,112.73a15.6,15.6,0,0,0,5.59-3.59l-1.48.86.19,0a3.47,3.47,0,0,0,2.52-2.51l0-.29a3.65,3.65,0,0,0-1.61-4,3.58,3.58,0,0,0-4.27.55l-.17.21a3.76,3.76,0,0,0-.57,4.36l.08.15-.34-2.59a11.2,11.2,0,0,1-.27,1.11c-.05.18-.11.35-.17.53l-.1.26c.07-.16.06-.16,0,0a8.72,8.72,0,0,1-1.29,1.74c-1.23,1.29,0,3.92,1.87,3.21Z"
             transform="translate(4.65)"
             id="path31" />
          <path
             class="cls-11"
             d="M115.68,122.73c4.19-6.25,7.78-12.82,12.08-19,3.26-4.71-4.13-10.4-8-6.13-5.73,6.37-9.87,15.12-9,23.81a2.65,2.65,0,0,0,4.89,1.33Z"
             transform="translate(4.65)"
             id="path32" />
          <path
             class="cls-11"
             d="M36.83,125c-.46-.52.27.5.33.55a3.84,3.84,0,0,0,1.52.89,5.94,5.94,0,0,0,1.5.24,5,5,0,0,0,3.67-1.35,6.43,6.43,0,0,0,1.4-1.75,5.19,5.19,0,0,0,.6-4.09,5,5,0,0,0-1-1.77,3.92,3.92,0,0,0-2.3-1.1,4,4,0,0,0-4,1.91,5.43,5.43,0,0,0-.66,2.36l.15-1.08a4.5,4.5,0,0,1-.14.49l.41-1a3,3,0,0,1-.43.74l.63-.82c-.15.18-.33.32-.49.48-.33.32-.53.74-.82,1.07.44-.54.56-.69.36-.47l-.16.17c.7-.54.63-.48-.23.18a2.74,2.74,0,0,0-.68,1l1-1-.11.06c-1.69.79-1.61,3.06-.55,4.27Z"
             transform="translate(4.65)"
             id="path33" />
          <path
             class="cls-11"
             d="M77.34,122.35a3,3,0,0,0,.53-1.6,3.36,3.36,0,0,0,.08-.64,3.2,3.2,0,0,0-.35-1.59,3,3,0,0,0-.86-1.32l-.83-.65a4.08,4.08,0,0,0-2.08-.56c-.2,0-.39,0-.59.08a4.11,4.11,0,0,0-.6.08l-1,.42a6,6,0,0,0-.88.7,4.18,4.18,0,0,0-1.08,1.85l-.15,1.11a4.16,4.16,0,0,0,.57,2.12,3.14,3.14,0,0,0,1.08,1.18,3.76,3.76,0,0,0,3.1.82,3,3,0,0,0,1.56-.5,4.15,4.15,0,0,0,1.5-1.5Z"
             transform="translate(4.65)"
             id="path34" />
          <path
             class="cls-11"
             d="M154.27,112.19a1.32,1.32,0,0,0,0-2.63,1.32,1.32,0,0,0,0,2.63Z"
             transform="translate(4.65)"
             id="path35" />
          <path
             class="cls-12"
             d="M7.82,43.05a79.67,79.67,0,0,0,6.46,8.73c2.31,2.64,4.85,5.71,8.49,6.25,2.24.32,4.4-1.3,3.75-3.75-.91-3.47-3.66-5.5-6.1-7.94s-4.92-4.85-7.23-7.44c-2.56-2.88-7.52.89-5.37,4.15Z"
             transform="translate(4.65)"
             id="path37" />
          <path
             class="cls-12"
             d="M102.19,105.23c6.06-5.86,10.38-13.52,13.26-21.39,1.24-3.36-3.78-5.14-5.56-2.35A130.81,130.81,0,0,0,98.35,103c-.91,2.24,2.32,3.71,3.84,2.24Z"
             transform="translate(4.65)"
             id="path40" />
          <path
             class="cls-12"
             d="M99.58,105.16c1.6,3.29,3.08,6.65,5,9.79.89,1.48,3.61.5,2.91-1.23-1.41-3.53-3.23-6.87-5-10.26-1-1.95-3.85-.24-2.92,1.7Z"
             transform="translate(4.65)"
             id="path41" />
          <path
             class="cls-12"
             d="M69.08,113.09l0,.14c-1.65,4,6.6,1.91,3.18-.84L72,112.2a1.88,1.88,0,0,0-2.66,2.65l.19.23.84-3.18a2,2,0,0,0-1.28,1.19Z"
             transform="translate(4.65)"
             id="path44" />
          <path
             class="cls-12"
             d="M147.66,105.57a2.15,2.15,0,0,0,0,.51,1.58,1.58,0,0,0,.17.77,1.88,1.88,0,0,0,1.06,1.06,1.49,1.49,0,0,0,.78.17,2,2,0,0,0,1.42-.59l.31-.4a2,2,0,0,0,.27-1,2.85,2.85,0,0,0,0-.51,2.21,2.21,0,0,0-.58-1.4,1.51,1.51,0,0,0-.63-.4,1.44,1.44,0,0,0-.76-.17,2,2,0,0,0-1.4.57l-.3.4a2,2,0,0,0-.27,1Z"
             transform="translate(4.65)"
             id="path45" />
          <path
             class="cls-12"
             d="M180,100.38v.07l-.11-.79a1.13,1.13,0,0,1,0,.26l.11-.79a1.82,1.82,0,0,1-.07.25l.3-.72a1.71,1.71,0,0,1-.13.23l.47-.62a1.07,1.07,0,0,1-.18.19L181,98a1.26,1.26,0,0,1-.23.13l.75-.31-.19,0a3.12,3.12,0,0,0-1.88,1.44,3.16,3.16,0,0,0-.43,1.59,2.29,2.29,0,0,0,.27,1.21,3,3,0,0,0,1.66,1.66,2.31,2.31,0,0,0,1.21.27,3.06,3.06,0,0,0,1.59-.43,4,4,0,0,0,1.94-2.41,2,2,0,0,0,.07-.26,4.73,4.73,0,0,0,.11-.93,4.2,4.2,0,0,0-.49-1.88,3.39,3.39,0,0,0-1.77-1.36,3,3,0,0,0-1.92.15,2.79,2.79,0,0,0-1.41,1.21l-.3.7a3,3,0,0,0,0,1.57Z"
             transform="translate(4.65)"
             id="path46" />
          <path
             class="cls-12"
             d="M35.65,112.85h0l-.36.84a2.74,2.74,0,0,0-.06,1.39,1.69,1.69,0,0,0,.24.88,2.61,2.61,0,0,0,.72,1.13,2.72,2.72,0,0,0,.83.64l.83.35a2.74,2.74,0,0,0,1.39.06,1.71,1.71,0,0,0,.88-.24,2.64,2.64,0,0,0,1.12-.72l.54-.7.35-.83a2.53,2.53,0,0,0,.06-1.39,2.62,2.62,0,0,0-.41-1.29,3.05,3.05,0,0,0-.32-.44,1.81,1.81,0,0,0-.63-.63l-.4-.31-.83-.35a2.77,2.77,0,0,0-1.4-.06,1.71,1.71,0,0,0-.88.24,2.61,2.61,0,0,0-1.13.72,2.48,2.48,0,0,0-.54.7Z"
             transform="translate(4.65)"
             id="path47" />
        </g>
      </g>
      <polygon
         class="cls-14"
         points="115.98 74.67 101.08 102.6 117.81 126.7 132.78 101.49 115.98 74.67"
         id="polygon49" />
      <path
         class="cls-16"
         d="M182.69,113.48s-6.09.18-6.28-7.37,3.14-10.45,3.14-10.45,6.15-5.42,9.94,1.93S190.52,114.86,182.69,113.48Z"
         transform="translate(4.65)"
         id="path66" />
      <path
         class="cls-16"
         d="M37.59,127.14s-6.09.17-6.28-7.38,3.14-10.45,3.14-10.45,6.15-5.42,9.94,1.94S45.42,128.51,37.59,127.14Z"
         transform="translate(4.65)"
         id="path67" />
      <path
         class="cls-17"
         d="M111,81.06c-.8,3.31-.31,7-.07,10.4a63.44,63.44,0,0,0,1.26,10.38,1,1,0,0,0,1.9,0,48.66,48.66,0,0,0,.43-10.38c-.12-3.38-.12-7.25-1.42-10.4-.37-.91-1.82-1.15-2.1,0Z"
         transform="translate(4.65)"
         id="path72" />
      <path
         class="cls-17"
         d="M112.84,107.89c-.06,3.67-.51,7.28-.42,11a.7.7,0,0,0,1.38.18,33.52,33.52,0,0,0,.23-11.13.6.6,0,0,0-1.19,0Z"
         transform="translate(4.65)"
         id="path73" />
      <path
         class="cls-17"
         d="M101.11,103.61a12.36,12.36,0,0,0,4.24,1.1,10.69,10.69,0,0,0,4.78-.23,1.25,1.25,0,0,0,.3-2.25c-2.49-1.76-6.76-1.38-9.32,0a.82.82,0,0,0,0,1.4Z"
         transform="translate(4.65)"
         id="path74" />
      <path
         class="cls-17"
         d="M118.45,103.39a18.11,18.11,0,0,0,5.17-1c1.07-.46.41-2-.55-2a17.22,17.22,0,0,0-4.91.85c-1.17.28-1,2.28.29,2.14Z"
         transform="translate(4.65)"
         id="path75" />
      <path
         class="cls-12"
         d="M38.63,117.67l.08-.07-.49.38.11-.07-.57.25.09,0-.64.09a.11.11,0,0,1,.08,0l-.65-.09.06,0-.58-.25.35.15a1.84,1.84,0,0,0,.93.21l.66-.09a1.8,1.8,0,0,0,.82-.43,1.85,1.85,0,0,0,.62-.68l.24-.57a2.32,2.32,0,0,0,0-1.28,4.47,4.47,0,0,0-.25-.6,1.85,1.85,0,0,0-.62-.68,2.43,2.43,0,0,0-.25-.2h0a6.39,6.39,0,0,0-.6-.26h0c-.12,0-.54-.08-.66-.09a3.46,3.46,0,0,0-.72.09l-.07,0a5.56,5.56,0,0,0-.61.25l0,0,0,0a4.6,4.6,0,0,0-.51.39l-.08.07a1.9,1.9,0,0,0-.5.78,2.19,2.19,0,0,0,0,1.87,1.9,1.9,0,0,0,.5.78l.49.38a2.41,2.41,0,0,0,1.23.33l.64-.08a2.48,2.48,0,0,0,1.07-.63Z"
         transform="translate(4.65)"
         id="path76" />
      <path
         class="cls-12"
         d="M180.27,103.45l.13.15.5.39a1.91,1.91,0,0,0,.92.29,1.23,1.23,0,0,0,.66,0,1.88,1.88,0,0,0,.92-.29,2.91,2.91,0,0,0,.89-.89,1.88,1.88,0,0,0,.29-.92,2,2,0,0,0,0-1l0-.2a2.48,2.48,0,0,0-1.76-1.76l-.67-.09a2.61,2.61,0,0,0-1.28.34,2.93,2.93,0,0,0-1.16,1.51,2.54,2.54,0,0,0,0,1.34,2.59,2.59,0,0,0,.65,1.12Z"
         transform="translate(4.65)"
         id="path77" />
      <path
         class="cls-12"
         d="M72,116.88a1.86,1.86,0,0,0,.9-.2,1.75,1.75,0,0,0,.76-.49,1.81,1.81,0,0,0,.49-.76,1.76,1.76,0,0,0,.2-.91,2.38,2.38,0,0,0-.69-1.66,2.46,2.46,0,0,0-1.66-.69,1.76,1.76,0,0,0-.91.2,1.81,1.81,0,0,0-.76.49,1.75,1.75,0,0,0-.49.76,1.86,1.86,0,0,0-.2.9,2.42,2.42,0,0,0,.69,1.67,2.47,2.47,0,0,0,1.67.69Z"
         transform="translate(4.65)"
         id="path78" />
      <path
         class="cls-12"
         d="M152.2,108.14l.19-.15a1.83,1.83,0,0,0,.51-.8,1.88,1.88,0,0,0,.22-1l-.09-.66a2.53,2.53,0,0,0-.64-1.11l-.19-.15-.54-.42-.65-.27a2.09,2.09,0,0,0-1.08-.05,1.36,1.36,0,0,0-.68.18,1.51,1.51,0,0,0-.6.35,1.44,1.44,0,0,0-.49.49,1.38,1.38,0,0,0-.34.6,2.07,2.07,0,0,0-.24,1l.1.72.27.65.43.54.54.43.65.27a2.09,2.09,0,0,0,1.08,0,1.27,1.27,0,0,0,.68-.19,1.93,1.93,0,0,0,.87-.56Z"
         transform="translate(4.65)"
         id="path79" />
    </g>
  </g>
</svg>
