<?xml version="1.0" encoding="UTF-8" standalone="no"?>
<svg
   viewBox="0 0 235.62 202.62"
   version="1.1"
   id="svg82"
   sodipodi:docname="crown_without_gems.svg"
   inkscape:version="1.4.2 (f4327f4, 2025-05-13)"
   xmlns:inkscape="http://www.inkscape.org/namespaces/inkscape"
   xmlns:sodipodi="http://sodipodi.sourceforge.net/DTD/sodipodi-0.dtd"
   xmlns="http://www.w3.org/2000/svg"
   xmlns:svg="http://www.w3.org/2000/svg">
  <sodipodi:namedview
     id="namedview82"
     pagecolor="#ffffff"
     bordercolor="#999999"
     borderopacity="1"
     inkscape:showpageshadow="2"
     inkscape:pageopacity="0"
     inkscape:pagecheckerboard="0"
     inkscape:deskcolor="#d1d1d1"
     inkscape:zoom="3.8150233"
     inkscape:cx="117.6926"
     inkscape:cy="101.31"
     inkscape:window-width="1920"
     inkscape:window-height="991"
     inkscape:window-x="-9"
     inkscape:window-y="-9"
     inkscape:window-maximized="1"
     inkscape:current-layer="svg82" />
  <defs
     id="defs1">
    <style
       id="style1">.cls-1,.cls-13,.cls-14,.cls-15,.cls-16{fill:none;}.cls-2{fill:#edd633;}.cls-13,.cls-2{stroke:#563821;}.cls-13,.cls-14,.cls-15,.cls-16,.cls-2,.cls-3,.cls-4,.cls-6{stroke-linecap:round;stroke-linejoin:round;stroke-width:5px;}.cls-3{fill:#67469c;}.cls-14,.cls-3{stroke:#221d3d;}.cls-4{fill:#ddf1f3;}.cls-15,.cls-4{stroke:#016673;}.cls-5{fill:#231f20;}.cls-6{fill:#ef4340;}.cls-16,.cls-6{stroke:#622736;}.cls-7{fill:#1c3026;}.cls-8{fill:#3cc6f4;}.cls-9{opacity:0.45;}.cls-10{clip-path:url(#clip-path);}.cls-11{fill:#901a3d;}.cls-12{fill:#e6fff2;}.cls-17{fill:#d7bfdd;}</style>
    <clipPath
       id="clip-path"
       transform="translate(4.65)">
      <path
         class="cls-1"
         d="M208.53,114.63c-1.86.26-3.36.47-4.65.76L200.1,55.61a3.21,3.21,0,0,0-2-2.82l9-13.84-9.36-18.2-9.48,18.58,9.07,13.24a3.22,3.22,0,0,0-3.48,1.81c-7.22,14.8-21.49,36.24-41.47,29.62-19.46-6.44-32.3-32.43-38.8-49.43a3.92,3.92,0,0,0-2.49-2.39l7.14-11.78L108.31,2.5,99.4,21.36l8.2,11.23a4,4,0,0,0-1.79,2.46c-4,15.68-14,40-38.22,57.89C49.71,106.15,27.44,80.27,17.23,66.2l5.54-12.6L10.6,37.15,4.24,57l8.3,8.69,7.54,66.83c-6-.42-10.79.56-12.46,3.72-5,9.51,4.65,14.28,5.21,19.36s-5.91,5-8.59,9.6c-5.91,10.14,4,24.9,18.75,26.06,19.11,1.51,22.71-5.42,22.71-5.42s2.19,11,34.06,10.84,29.94-17.16,31-17.55,10.06,9.17,38.06,8.52,36.52-20.9,36.52-20.9,26.58,12.13,37.42-10.53C229.8,141.45,223.33,112.53,208.53,114.63Z"
         id="path1" />
    </clipPath>
  </defs>
  <g
     id="Calque_2"
     data-name="Calque 2">
    <g
       id="Layer_18"
       data-name="Layer 18">
      <path
         class="cls-2"
         d="M22.54,154.75,12.31,64.16a1.37,1.37,0,0,1,2.49-.93c8.63,12.58,33.32,44.57,52.79,30.18C91.85,75.5,101.78,51.2,105.81,35.52a4.08,4.08,0,0,1,7.76-.48c6.5,17,19.34,43,38.8,49.43,20,6.62,34.25-14.82,41.47-29.62a3.3,3.3,0,0,1,6.26,1.23l5.21,82.41a1.37,1.37,0,0,1-1.24,1.46L24,156A1.38,1.38,0,0,1,22.54,154.75Z"
         transform="translate(4.65)"
         id="path2" />
      <path
         class="cls-4"
         d="M76.66,137.55s19.73-10.84,28.06-1.81,26.65-11.61,26.65-11.61,16.78-12,38.71,4c14,10.22,22.19,1.66,26.26-5.85,3.26-6,5.43-6.22,12.19-7.18,14.8-2.1,21.27,26.82,14.2,41.6-10.84,22.66-37.42,10.53-37.42,10.53s-8.52,20.26-36.52,20.9-37-8.9-38.06-8.52.9,17.42-31,17.55S45.7,186.32,45.7,186.32s-3.6,6.93-22.71,5.42C8.21,190.58-1.67,175.82,4.24,165.68c2.68-4.6,9.16-4.43,8.59-9.6s-10.25-9.85-5.21-19.36c3.78-7.14,23.32-3.18,37.89,3.11C70,150.41,76.66,137.55,76.66,137.55Z"
         transform="translate(4.65)"
         id="path3" />
      <path
         class="cls-5"
         d="M34.1,148.34c-4,4.51-5.71,10.78-.87,15.43,5.22,5,13.94,2.41,16.85-3.86,1.59-3.42-1.74-7.5-5.39-5.39-1.65.95-4.32,3.88-6.46,2.72s-.89-4.22,0-5.72c1.47-2.5-2.12-5.47-4.12-3.18Z"
         transform="translate(4.65)"
         id="path4" />
      <path
         class="cls-5"
         d="M57.92,176.12A5.87,5.87,0,0,1,61.34,175c.46,0,1.67.5,1.58,1.18a2.73,2.73,0,0,0,1.85,3.25A2.68,2.68,0,0,0,68,177.54a6.89,6.89,0,0,0-4.18-8.16,7.09,7.09,0,0,0-8.74,3.92c-.81,1.67,1,4.12,2.82,2.82Z"
         transform="translate(4.65)"
         id="path5" />
      <path
         class="cls-5"
         d="M90.44,153.41c-5.44,2-7,8.45-3.77,13.11a9.72,9.72,0,0,0,8.27,4.31,10.17,10.17,0,0,0,4.92-1.25c1.76-1,2.33-2.54,3.07-4.32,1.1-2.64-2-4.86-4.33-4.32-.64.15-1.24,0-1.94.2s-1.25.55-1.92.69a3.8,3.8,0,0,1-2.46-.26c-2.2-1.1-1.74-3.84-.15-5.26,1.25-1.13-.06-3.5-1.69-2.9Z"
         transform="translate(4.65)"
         id="path6" />
      <path
         class="cls-5"
         d="M136.81,174.93c.27-2.43,3.27-4.38,5.49-3.5,3,1.17,1.46,3.94.64,6.07-1.13,2.93,2.62,5.2,5,3.86,7.35-4.09,4-15.9-3.2-18-7.66-2.25-14.91,4.45-12,12.13a2.07,2.07,0,0,0,4.05-.54Z"
         transform="translate(4.65)"
         id="path7" />
      <path
         class="cls-5"
         d="M133.22,142.91c-.05,3.59,1.48,7.38,5.63,7.55a7.16,7.16,0,0,0,5.18-2.07,8,8,0,0,0,2.29-5.56,3.54,3.54,0,0,0-2.57-3.38,3.66,3.66,0,0,0-4,1.61,17.34,17.34,0,0,0-1.16,1.81c-.28.58-.18.16.22.28l.73.19-.29-.19c-.53-.71.08.17-.28-.21a7.45,7.45,0,0,1-.9-1.36c-1.28-2.32-4.85-1.22-4.89,1.33Z"
         transform="translate(4.65)"
         id="path8" />
      <path
         class="cls-5"
         d="M170.52,156.32a2.64,2.64,0,0,1,2.69-.6l.59.13c.56.12.36.41.1-.12s.11-.91-.11,0c-.08.34-.16.7-.25,1-1.09,4.08,4.5,6.34,6.71,2.84,2.83-4.47.52-9.66-4.45-11-4.21-1.16-9.71,1-9.44,6,.11,2,2.67,3.4,4.16,1.73Z"
         transform="translate(4.65)"
         id="path9" />
      <path
         class="cls-5"
         d="M196.85,145.84c-.88,5.5,2.66,10.67,8.52,10.78a9.94,9.94,0,0,0,10.26-10c-.1-3.1-4.12-5.15-6.41-2.66-1,1.09-2,2.56-3.44,3.08-.55.2-1.79.34-1.84-.22a3.63,3.63,0,0,0-3.13-3.55c-1.61-.19-3.67.79-4,2.59Z"
         transform="translate(4.65)"
         id="path10" />
      <path
         class="cls-5"
         d="M75.62,183.31l.07.18a3.25,3.25,0,0,0,1.17,1.16,3.21,3.21,0,0,0,1.63.44,3.23,3.23,0,0,0,2.8-1.6l.08-.18a3.34,3.34,0,0,0,0-3.35,3.33,3.33,0,1,0-5.75,3.35Z"
         transform="translate(4.65)"
         id="path11" />
      <path
         class="cls-5"
         d="M19.4,177.71a3,3,0,0,0,1.57-.35,3.64,3.64,0,0,0,2.15-2.15,3,3,0,0,0,.35-1.58l-.14-1.08a4.11,4.11,0,0,0-1-1.8l-.83-.64a4,4,0,0,0-2.05-.55,3,3,0,0,0-1.57.35,3.62,3.62,0,0,0-2.16,2.15,3,3,0,0,0-.35,1.57l.14,1.09a4.2,4.2,0,0,0,1.05,1.8l.83.64a4,4,0,0,0,2.06.55Z"
         transform="translate(4.65)"
         id="path12" />
      <path
         class="cls-5"
         d="M74.64,155.59l0,0a2.49,2.49,0,0,0,1-.87,1.44,1.44,0,0,0,.27-.34v0l0,0a2.64,2.64,0,0,0,.37-.87l.13-1a3.63,3.63,0,0,0-.5-1.82l-.56-.73a3.57,3.57,0,0,0-1.59-.93l-1-.13a3.67,3.67,0,0,0-1.83.5l-.73.56a3.64,3.64,0,0,0-.92,1.59l-.13,1a2.66,2.66,0,0,0,.31,1.39,3.15,3.15,0,0,0,1.91,1.91,2.66,2.66,0,0,0,1.39.31,3.55,3.55,0,0,0,1.82-.49Z"
         transform="translate(4.65)"
         id="path13" />
      <path
         class="cls-5"
         d="M125.26,158.82l.22.17.82.34a2.62,2.62,0,0,0,1.36.06,1.77,1.77,0,0,0,.87-.23,2.65,2.65,0,0,0,1.1-.71l.54-.69.34-.82a2.66,2.66,0,0,0,.06-1.37,2.53,2.53,0,0,0-.4-1.27l-.17-.22a3.43,3.43,0,0,0-3-1.72l-.92.12a3.5,3.5,0,0,0-1.53.9,2.55,2.55,0,0,0-.72,1.11,2.59,2.59,0,0,0-.3,1.34,3.43,3.43,0,0,0,1.72,3Z"
         transform="translate(4.65)"
         id="path14" />
      <path
         class="cls-5"
         d="M167.32,171.86a4,4,0,0,0,2.58-1.07,2.71,2.71,0,0,0,.76-1.18,2.8,2.8,0,0,0,.32-1.4l-.13-1a3.67,3.67,0,0,0-.95-1.61l-.74-.57a3.61,3.61,0,0,0-1.84-.5,2.86,2.86,0,0,0-1.41.31,2.83,2.83,0,0,0-1.18.76,2.78,2.78,0,0,0-.75,1.18,2.71,2.71,0,0,0-.32,1.41l.13,1a3.75,3.75,0,0,0,.94,1.61l.74.57a3.64,3.64,0,0,0,1.85.5Z"
         transform="translate(4.65)"
         id="path15" />
      <path
         class="cls-5"
         d="M161.59,148.25a2.32,2.32,0,0,0,1.16-.26,2.25,2.25,0,0,0,1-.62,2.22,2.22,0,0,0,.62-1,2.17,2.17,0,0,0,.26-1.15l-.11-.8a2.94,2.94,0,0,0-.77-1.32l-.61-.47a3,3,0,0,0-1.51-.41,2.22,2.22,0,0,0-1.16.26,2.16,2.16,0,0,0-1,.62,2.25,2.25,0,0,0-.62,1,2.2,2.2,0,0,0-.26,1.16l.11.8a3.05,3.05,0,0,0,.77,1.32l.61.47a3,3,0,0,0,1.51.41Z"
         transform="translate(4.65)"
         id="path16" />
      <path
         class="cls-5"
         d="M206.49,137.41a3.08,3.08,0,0,0,1.56-.35,3,3,0,0,0,1.29-.83,3.08,3.08,0,0,0,.84-1.3,3,3,0,0,0,.34-1.55l-.14-1.07a4,4,0,0,0-1-1.78l-.81-.63a4,4,0,0,0-2-.55,3,3,0,0,0-1.55.34,3.08,3.08,0,0,0-1.3.84,3,3,0,0,0-.83,1.29,3.08,3.08,0,0,0-.35,1.56l.15,1.07a4.05,4.05,0,0,0,1,1.78l.82.63a4,4,0,0,0,2,.55Z"
         transform="translate(4.65)"
         id="path17" />
      <polygon
         class="cls-2"
         points="114.02 35.47 104.06 21.83 112.96 2.97 122.87 20.87 114.02 35.47"
         id="polygon17" />
      <polygon
         class="cls-2"
         points="202.46 53.74 192.91 39.8 202.38 21.22 211.75 39.42 202.46 53.74"
         id="polygon18" />
      <polygon
         class="cls-2"
         points="20.56 69.7 8.89 57.48 15.26 37.62 27.42 54.07 20.56 69.7"
         id="polygon19" />
      <path
         class="cls-7"
         d="M72.31,117.77l.41.36"
         transform="translate(4.65)"
         id="path21" />
      <g
         class="cls-9"
         id="g48">
        <g
           class="cls-10"
           clip-path="url(#clip-path)"
           id="g47">
          <path
             class="cls-11"
             d="M5.75,54.93a22.18,22.18,0,0,0,4.92,9.34c1.92,2.16,5.57,6.12,8.78,4,3.49-2.33-1-6.29-2.7-7.91-2.54-2.41-5-5-7.4-7.51a2.17,2.17,0,0,0-3.6,2.1Z"
             transform="translate(4.65)"
             id="path25" />
          <path
             class="cls-11"
             d="M111.24,31.93c1.79-2.24,3.73-4.38,5.6-6.56s4.6-4.48,3.67-7.67a2.94,2.94,0,0,0-2.09-2.1c-3.77-.52-5.62,2.37-7.5,5.2a46.06,46.06,0,0,0-4.23,8.49c-1,2.47,2.89,4.71,4.55,2.64Z"
             transform="translate(4.65)"
             id="path26" />
          <path
             class="cls-11"
             d="M199.76,51.48c1.25-1.5,2.64-2.85,4-4.27s3.14-2.77,4.15-4.61c1.37-2.51-1-6.6-4.11-5.34-4.33,1.74-7.09,6.3-9,10.36a3.21,3.21,0,0,0,.82,4.11,3.16,3.16,0,0,0,4.18-.25Z"
             transform="translate(4.65)"
             id="path27" />
          <path
             class="cls-11"
             d="M222.25,123.93c-1.8,9.44-5.34,20.67-13.27,26.79-5.85,4.51-15.13,5.43-20.48-.08s-13.69-2.31-16.09,4.24c-3.44,9.41-13.47,15.38-22.63,16.66-6,.83-11-.54-16.45-3.3-6.94-3.54-15.59-10.1-23.82-7.84a13.23,13.23,0,0,0-8.87,8.61c-1,3.1-.79,6.39-2,9.46-2.17,5.43-6.38,5.19-11.43,3.63-7.82-2.4-15.28-6.26-22.82-9.38s-15.16-6.95-23.53-3.94C34.79,171,30.24,175.4,23.75,174a15.59,15.59,0,0,1-10.88-9C8.49,154.57-6.8,158.12-4.4,169.72S8.81,189.88,20,192.21a30.83,30.83,0,0,0,17.68-1.31c2.79-1.12,6-3.81,8.92-4.28,2.24-.35,4.91,1.37,6.87,2.25q10.24,4.56,20.59,8.92c6.71,2.84,13.77,5.4,21.18,4.71A24.59,24.59,0,0,0,113.3,192c4-5.55,4.28-11.56,6.35-17.73l-2.54,4.35,0,0-5,1.35c-1.46-.64-1.25-.49.65.45,1,.57,2.08,1.16,3.11,1.76,2.06,1.19,4.08,2.47,6.17,3.61a57.74,57.74,0,0,0,13.15,5.41,46.89,46.89,0,0,0,23.15-.33c15.16-4,27.41-16.17,32.59-30.8l-16.08,4.25c11.35,11.45,30,11.43,42.45,1.81,12.89-9.93,16.42-27.13,11.51-42.13-1-3-5.92-3.53-6.6,0Z"
             transform="translate(4.65)"
             id="path28" />
          <path
             class="cls-11"
             d="M53.61,180.88a4.13,4.13,0,0,0-5,2.68c-1.27,3.79,2.76,7.2,5.3,9.22,7.46,5.95,19,9.14,27.87,4.66,4-2,2.82-8.15-1.21-9.25-4.7-1.28-9.62-1.11-14.36-2.13A52.25,52.25,0,0,1,60,184.25c-1.26-.43-2.5-.89-3.74-1.37-.47-.21-1-.4-1.45-.57-1.56-.85-2,.24-1.18,3.27,2.3-.48,2.35-4.26,0-4.7Z"
             transform="translate(4.65)"
             id="path29" />
          <path
             class="cls-11"
             d="M195.48,52.8c-5.92,18.4-3.58,39.31-.81,58.12.57,3.87,5.42,5.92,8.84,5,4.16-1.1,5.53-5,5-8.84-2.43-18-2-36.55-5.9-54.3-.82-3.75-6.08-3.28-7.14,0Z"
             transform="translate(4.65)"
             id="path30" />
          <path
             class="cls-12"
             d="M26.66,126.71c1.38-3.66.83-7.43.51-11.25-.34-4.2-.64-8.4-1.11-12.59q-1.41-12.63-2.84-25.25a5.57,5.57,0,0,0-3.83-5,3.91,3.91,0,0,0-4,.53c-1.43.94-2.78,2.65-2.58,4.49.94,8.9,2.07,17.74,3.45,26.58,1.16,7.42,1.8,17.49,6.57,23.52,1.18,1.49,3.3.41,3.84-1Z"
             transform="translate(4.65)"
             id="path36" />
          <path
             class="cls-12"
             d="M7.82,43.05a79.67,79.67,0,0,0,6.46,8.73c2.31,2.64,4.85,5.71,8.49,6.25,2.24.32,4.4-1.3,3.75-3.75-.91-3.47-3.66-5.5-6.1-7.94s-4.92-4.85-7.23-7.44c-2.56-2.88-7.52.89-5.37,4.15Z"
             transform="translate(4.65)"
             id="path37" />
          <path
             class="cls-12"
             d="M104.65,24.54a173.6,173.6,0,0,1,8.18-16.73c1.61-3.08-2.61-6.88-5.08-3.92-4.88,5.85-7.16,12.48-7.89,20-.29,2.95,3.87,3,4.79.65Z"
             transform="translate(4.65)"
             id="path38" />
          <path
             class="cls-12"
             d="M190.22,40.62c2.09-2.08,4.39-3.71,6.28-6a58.76,58.76,0,0,0,5-7.05c1.9-3.17-2.71-6.95-5.23-4a60.13,60.13,0,0,0-5.18,6.91c-1.62,2.55-2.48,5.28-3.81,7.94-.93,1.85,1.37,3.83,2.94,2.27Z"
             transform="translate(4.65)"
             id="path39" />
          <path
             class="cls-12"
             d="M19.47,77c1.31,2.08,1.76,4.74,2.84,7a42.36,42.36,0,0,0,14.8,16.86c9.74,6.15,21.25,5.49,31.35.51s19-13.56,25.07-22.75c7-10.48,10.66-23.53,15.24-35.18,3.34-8.47-10.34-12.15-13.65-3.76C91.54,48.77,88.49,58.37,83.94,67A54,54,0,0,1,65,87.1c-7.1,4.41-15.1,6.28-22.87,2.38a50.59,50.59,0,0,1-9.68-6.75c-3.06-2.59-7.42-5-9.94-8-1.39-1.69-4.17.5-3,2.33Z"
             transform="translate(4.65)"
             id="path42" />
          <path
             class="cls-12"
             d="M163.54,85.6a29.65,29.65,0,0,0,21.15-6.5c5.81-4.51,14.13-13.82,13.12-21.76-.63-4.93-6.58-8.77-10.65-4.41-2.34,2.51-3.08,5.4-4.65,8.36a71,71,0,0,1-5.25,8.14c-3.67,5.14-7.52,11.32-14.22,12.48-2.21.39-1.46,3.52.5,3.69Z"
             transform="translate(4.65)"
             id="path43" />
        </g>
      </g>
      <path
         class="cls-12"
         d="M14.16,59.49c-.25,1.06-.83,2-1.09,3.06l3.35-.88a44.81,44.81,0,0,1-4-4.87c-1.24-2-.47-4,.25-6.08.85-2.42,2-5.25,0-7.33a1.13,1.13,0,0,0-1.59,0C9.93,44.87,9.54,46.76,8.8,48.5A16.12,16.12,0,0,0,7.06,54c-.19,4.45,3.76,7.56,6.52,10.49a2,2,0,0,0,3.35-.88c.34-1.91.09-2.29-.66-4.13-.38-.91-1.83-1.15-2.11,0Z"
         transform="translate(4.65)"
         id="path48" />
      <path
         class="cls-13"
         d="M17.82,67c10.44,14.22,32.23,38.91,49.77,25.94C91.85,75,101.78,50.73,105.81,35.05a4.08,4.08,0,0,1,7.76-.48c6.5,17,19.34,43,38.8,49.43,20,6.62,34.25-14.82,41.47-29.62a3.3,3.3,0,0,1,6.26,1.23l3.83,60.56"
         transform="translate(4.65)"
         id="path49" />
      <line
         class="cls-13"
         x1="24.81"
         y1="133.16"
         x2="17.72"
         y2="70.39"
         id="line49" />
      <path
         class="cls-15"
         d="M76.66,137.08s19.73-10.84,28.06-1.81,26.65-11.61,26.65-11.61,16.78-12,38.71,4c14,10.22,22.19,1.66,26.26-5.85,3.26-6,5.43-6.22,12.19-7.18,14.8-2.1,21.27,26.82,14.2,41.6-10.84,22.66-37.42,10.53-37.42,10.53s-8.52,20.26-36.52,20.9-37-8.9-38.06-8.52.9,17.42-31,17.55S45.7,185.85,45.7,185.85s-3.6,6.93-22.71,5.42C8.21,190.11-1.67,175.35,4.24,165.21c2.68-4.6,9.16-4.43,8.59-9.6s-10.25-9.85-5.21-19.36c3.78-7.14,23.32-3.18,37.89,3.11C70,149.94,76.66,137.08,76.66,137.08Z"
         transform="translate(4.65)"
         id="path50" />
      <path
         class="cls-5"
         d="M34.1,147.87c-4,4.51-5.71,10.78-.87,15.43,5.22,5,13.94,2.41,16.85-3.86,1.59-3.42-1.74-7.5-5.39-5.39-1.65.95-4.32,3.88-6.46,2.72s-.89-4.22,0-5.72c1.47-2.5-2.12-5.47-4.12-3.18Z"
         transform="translate(4.65)"
         id="path51" />
      <path
         class="cls-5"
         d="M57.92,175.65a5.87,5.87,0,0,1,3.42-1.16c.46,0,1.67.5,1.58,1.18a2.74,2.74,0,0,0,1.85,3.25A2.68,2.68,0,0,0,68,177.07a6.89,6.89,0,0,0-4.18-8.16,7.09,7.09,0,0,0-8.74,3.92c-.81,1.67,1,4.12,2.82,2.82Z"
         transform="translate(4.65)"
         id="path52" />
      <path
         class="cls-5"
         d="M90.44,152.94c-5.44,2-7,8.45-3.77,13.11a9.72,9.72,0,0,0,8.27,4.31,10.17,10.17,0,0,0,4.92-1.25c1.76-1,2.33-2.54,3.07-4.32,1.1-2.64-2-4.86-4.33-4.32-.64.15-1.24,0-1.94.2s-1.25.55-1.92.69a3.8,3.8,0,0,1-2.46-.26c-2.2-1.1-1.74-3.84-.15-5.27,1.25-1.12-.06-3.49-1.69-2.89Z"
         transform="translate(4.65)"
         id="path53" />
      <path
         class="cls-5"
         d="M136.81,174.45c.27-2.42,3.27-4.37,5.49-3.49,3,1.17,1.46,3.94.64,6.07-1.13,2.93,2.62,5.2,5,3.86,7.35-4.09,4-15.9-3.2-18-7.66-2.25-14.91,4.45-12,12.13a2.07,2.07,0,0,0,4.05-.55Z"
         transform="translate(4.65)"
         id="path54" />
      <path
         class="cls-5"
         d="M133.22,142.44c-.05,3.59,1.48,7.38,5.63,7.55a7.16,7.16,0,0,0,5.18-2.07,8,8,0,0,0,2.29-5.56,3.54,3.54,0,0,0-2.57-3.38,3.66,3.66,0,0,0-4,1.61,17.34,17.34,0,0,0-1.16,1.81c-.28.58-.18.16.22.27l.74.2-.3-.19c-.53-.71.08.17-.28-.21a7.45,7.45,0,0,1-.9-1.36c-1.28-2.32-4.85-1.22-4.89,1.33Z"
         transform="translate(4.65)"
         id="path55" />
      <path
         class="cls-5"
         d="M170.52,155.85a2.64,2.64,0,0,1,2.69-.6l.59.13c.56.12.36.4.1-.12s.11-.91-.11,0c-.08.34-.16.7-.25,1-1.09,4.08,4.5,6.34,6.71,2.84,2.83-4.47.52-9.66-4.45-11-4.21-1.16-9.71,1-9.44,6,.11,2,2.67,3.4,4.16,1.73Z"
         transform="translate(4.65)"
         id="path56" />
      <path
         class="cls-5"
         d="M196.85,145.37c-.88,5.5,2.66,10.67,8.52,10.78a9.94,9.94,0,0,0,10.26-10c-.1-3.1-4.12-5.15-6.41-2.66-1,1.09-2,2.56-3.44,3.08-.55.2-1.79.34-1.84-.23a3.63,3.63,0,0,0-3.13-3.54c-1.61-.19-3.67.79-4,2.59Z"
         transform="translate(4.65)"
         id="path57" />
      <path
         class="cls-5"
         d="M75.62,182.84l.07.18a3.25,3.25,0,0,0,1.17,1.16,3.21,3.21,0,0,0,1.63.44,3.23,3.23,0,0,0,2.8-1.6l.08-.18a3.25,3.25,0,0,0,.45-1.68,3.31,3.31,0,0,0-.45-1.68,3.34,3.34,0,0,0-5.75,0,3.42,3.42,0,0,0-.46,1.68,3.36,3.36,0,0,0,.46,1.68Z"
         transform="translate(4.65)"
         id="path58" />
      <path
         class="cls-5"
         d="M19.4,177.24a3,3,0,0,0,1.57-.35,3.64,3.64,0,0,0,2.15-2.15,3,3,0,0,0,.35-1.58l-.14-1.08a4.11,4.11,0,0,0-1-1.8l-.83-.64a4,4,0,0,0-2.05-.55,3,3,0,0,0-1.57.35,3.62,3.62,0,0,0-2.16,2.15,3,3,0,0,0-.35,1.57l.14,1.09a4.2,4.2,0,0,0,1.05,1.8l.83.64a4.1,4.1,0,0,0,2.06.55Z"
         transform="translate(4.65)"
         id="path59" />
      <path
         class="cls-5"
         d="M74.64,155.12l0,0a2.49,2.49,0,0,0,1-.87,1.31,1.31,0,0,0,.27-.35h0l0,0a2.64,2.64,0,0,0,.37-.87l.13-1a3.63,3.63,0,0,0-.5-1.82l-.56-.73a3.57,3.57,0,0,0-1.59-.93l-1-.13a3.67,3.67,0,0,0-1.83.5l-.73.56a3.64,3.64,0,0,0-.92,1.59l-.13,1a2.66,2.66,0,0,0,.31,1.39,3.15,3.15,0,0,0,1.91,1.91,2.66,2.66,0,0,0,1.39.31,3.55,3.55,0,0,0,1.82-.49Z"
         transform="translate(4.65)"
         id="path60" />
      <path
         class="cls-5"
         d="M125.26,158.35l.22.17.82.34a2.65,2.65,0,0,0,1.37.06,1.76,1.76,0,0,0,.86-.23,2.65,2.65,0,0,0,1.1-.71l.54-.69.34-.82a2.66,2.66,0,0,0,.06-1.37,2.53,2.53,0,0,0-.4-1.27l-.17-.22a3.43,3.43,0,0,0-3-1.72l-.92.12a3.5,3.5,0,0,0-1.53.9,2.55,2.55,0,0,0-.72,1.11,2.59,2.59,0,0,0-.3,1.34,3.43,3.43,0,0,0,1.72,3Z"
         transform="translate(4.65)"
         id="path61" />
      <path
         class="cls-5"
         d="M167.32,171.39a4,4,0,0,0,2.58-1.07,2.71,2.71,0,0,0,.76-1.18,2.8,2.8,0,0,0,.32-1.4l-.13-1a3.67,3.67,0,0,0-.95-1.61l-.74-.57a3.61,3.61,0,0,0-1.84-.5,2.86,2.86,0,0,0-1.41.31,2.83,2.83,0,0,0-1.18.76,2.78,2.78,0,0,0-.75,1.18,2.71,2.71,0,0,0-.32,1.41l.13,1a3.75,3.75,0,0,0,.94,1.61l.74.57a3.64,3.64,0,0,0,1.85.5Z"
         transform="translate(4.65)"
         id="path62" />
      <path
         class="cls-5"
         d="M161.59,147.78a2.32,2.32,0,0,0,1.16-.26,2.25,2.25,0,0,0,1-.62,2.22,2.22,0,0,0,.62-1,2.17,2.17,0,0,0,.26-1.15l-.11-.8a2.94,2.94,0,0,0-.77-1.32l-.61-.47a3,3,0,0,0-1.51-.41,2.22,2.22,0,0,0-1.16.26,2.16,2.16,0,0,0-1,.62,2.25,2.25,0,0,0-.62,1,2.2,2.2,0,0,0-.26,1.16l.11.8a3.05,3.05,0,0,0,.77,1.32l.61.47a3,3,0,0,0,1.51.41Z"
         transform="translate(4.65)"
         id="path63" />
      <path
         class="cls-5"
         d="M206.49,136.94a3.08,3.08,0,0,0,1.56-.35,3,3,0,0,0,1.29-.83,3.08,3.08,0,0,0,.84-1.3,3,3,0,0,0,.34-1.55l-.14-1.08a4,4,0,0,0-1-1.77l-.81-.63a4,4,0,0,0-2-.55,3,3,0,0,0-1.55.34,3.08,3.08,0,0,0-1.3.84,3,3,0,0,0-.83,1.29,3.08,3.08,0,0,0-.35,1.56l.15,1.07a4.05,4.05,0,0,0,1,1.78l.82.63a4,4,0,0,0,2,.55Z"
         transform="translate(4.65)"
         id="path64" />
      <polygon
         class="cls-13"
         points="114.02 35 104.06 21.36 112.96 2.5 122.87 20.4 114.02 35"
         id="polygon64" />
      <polygon
         class="cls-13"
         points="202.46 53.27 192.91 39.33 202.38 20.75 211.75 38.95 202.46 53.27"
         id="polygon65" />
      <polygon
         class="cls-13"
         points="20.56 69.23 8.89 57.01 15.26 37.15 27.42 53.6 20.56 69.23"
         id="polygon66" />
      <path
         class="cls-12"
         d="M102.23,20.64a13,13,0,0,0,2.14,4.59,17.48,17.48,0,0,0,3.44,3.69c.63.51,1.87.07,1.53-.88a33.44,33.44,0,0,0-2-4.54,17.76,17.76,0,0,0-2.82-4.2,1.38,1.38,0,0,0-2.29,1.34Z"
         transform="translate(4.65)"
         id="path68" />
      <path
         class="cls-12"
         d="M104.84,21.23a34.73,34.73,0,0,1,3-6.42c1-1.68,2.15-3.18,2.38-5.14.11-.9-1-1.26-1.64-.94-3.78,1.8-5.09,8.23-5.78,11.94a1.06,1.06,0,0,0,2,.56Z"
         transform="translate(4.65)"
         id="path69" />
      <path
         class="cls-12"
         d="M193.37,40.72c2.33-2,3.55-5.27,4.72-8,1-2.4,2.78-5.15,2.16-7.8a1.48,1.48,0,0,0-2.16-.88c-2.36,1.66-3,4.93-4.16,7.46s-2.84,5.29-3.14,8.16c-.16,1.43,1.69,1.81,2.58,1.07Z"
         transform="translate(4.65)"
         id="path70" />
      <path
         class="cls-12"
         d="M192.61,42.34l2.12,3.46A6,6,0,0,0,197,48.43a.65.65,0,0,0,1-.55,5.79,5.79,0,0,0-1.44-3.13l-2.34-3.34c-.66-.95-2.2-.09-1.58.93Z"
         transform="translate(4.65)"
         id="path71" />
      <path
         class="cls-12"
         d="M79,91.25c7.49-3.89,13.15-9.79,18-16.65,3.91-5.52,10.25-14.86,8.93-22-.33-1.77-2.54-1.57-3.4-.45-2,2.55-2.35,6.15-3.48,9.15a63.69,63.69,0,0,1-5.42,11.29C89.51,79.25,83.76,84.82,78,90c-.67.61.18,1.6.94,1.21Z"
         transform="translate(4.65)"
         id="path80" />
      <path
         class="cls-12"
         d="M70.33,99.25a1.65,1.65,0,0,0,0-3.3,1.65,1.65,0,0,0,0,3.3Z"
         transform="translate(4.65)"
         id="path81" />
      <path
         class="cls-12"
         d="M182.19,84.71a43.4,43.4,0,0,0,10.58-13.53c.88-1.77-1.68-3.31-2.67-1.57a56.81,56.81,0,0,1-10,13c-1.39,1.33.67,3.32,2.09,2.09Z"
         transform="translate(4.65)"
         id="path82" />
    </g>
  </g>
</svg>
