<?xml version="1.0" encoding="UTF-8" standalone="no"?>
<svg
   viewBox="0 0 181.47 208.09"
   version="1.1"
   id="svg24"
   sodipodi:docname="empty-cup.svg"
   inkscape:version="1.4.2 (2aeb623e1d, 2025-05-12)"
   xmlns:inkscape="http://www.inkscape.org/namespaces/inkscape"
   xmlns:sodipodi="http://sodipodi.sourceforge.net/DTD/sodipodi-0.dtd"
   xmlns="http://www.w3.org/2000/svg"
   xmlns:svg="http://www.w3.org/2000/svg">
  <sodipodi:namedview
     id="namedview24"
     pagecolor="#ffffff"
     bordercolor="#000000"
     borderopacity="0.25"
     inkscape:showpageshadow="2"
     inkscape:pageopacity="0.0"
     inkscape:pagecheckerboard="0"
     inkscape:deskcolor="#d1d1d1"
     inkscape:zoom="3.0323418"
     inkscape:cx="90.688984"
     inkscape:cy="104.045"
     inkscape:window-width="1600"
     inkscape:window-height="836"
     inkscape:window-x="0"
     inkscape:window-y="27"
     inkscape:window-maximized="1"
     inkscape:current-layer="Layer_14" />
  <defs
     id="defs1">
    <style
       id="style1">.cls-1,.cls-10,.cls-11,.cls-9{fill:none;}.cls-2{fill:#c649b4;}.cls-10,.cls-2,.cls-3{stroke:#221f20;}.cls-10,.cls-11,.cls-2,.cls-3,.cls-4,.cls-9{stroke-linecap:round;stroke-linejoin:round;stroke-width:5px;}.cls-3{fill:#634c3d;}.cls-4{fill:#e3f9ff;}.cls-11,.cls-4{stroke:#333;}.cls-5{opacity:0.28;}.cls-6{clip-path:url(#clip-path);}.cls-7{fill:#84263d;}.cls-8{fill:#ebfef3;}.cls-9{stroke:#42012e;}.cls-12{fill:#fff;}</style>
    <clipPath
       id="clip-path">
      <path
         class="cls-1"
         d="M162,87.52C147.73,62.26,124.37,68.86,113.25,74l-3.67-10.67C122.55,43.81,91.93,41,91.93,41,95.91,20.19,76,28.6,76,28.6S64.5,21.08,65.39,10.43s-3.54-7.49-3.54-7.49C34,8.25,40.17,37,40.17,37S30,33,20.26,43.2c-7.47,7.81,2,13,6.8,15-4-.82-12.37.13-20.95,17.29C-3.68,95.05,11.16,99.19,16.85,100L49,188.54s65,13.94,91.36-35.61l-4-11.6C148.24,134.77,177.59,115,162,87.52Zm-31,38.09L118.38,88.89l.09,0c14.6-7.52,31.92,1.1,33.25,15.26C152.54,112.89,139.25,121.28,131,125.61Z"
         id="path1" />
    </clipPath>
  </defs>
  <g
     id="Calque_2"
     data-name="Calque 2">
    <g
       id="Layer_14"
       data-name="Layer 14">
      <ellipse
         style="fill:#a43393;fill-opacity:1;stroke-width:1.04245"
         id="path24"
         cx="32.348446"
         cy="85.644791"
         rx="51.390442"
         ry="18.099777"
         transform="rotate(-20)" />
      <path
         class="cls-2"
         d="M106.62,77.69s35.77-23.89,55,10.18-30.26,56.18-30.26,56.18l-7.09-15s28.24-11.87,27.05-24.56C150,90.29,132.72,81.68,118.12,89.2S106.62,77.69,106.62,77.69Z"
         id="path2" />
      <path
         class="cls-2"
         d="m 11.52,86.7 37.16,102.19 c 0,0 65,13.94 91.36,-35.61 0,0 -26.01192,-78.190365 -34.04,-99.1 -5.52122,41.023595 -89.082679,36.60687 -94.48,32.52 z"
         id="path3"
         sodipodi:nodetypes="ccccc" />
      <path
         class="cls-3"
         d="M76.54,86.42s6.62,2.16,7.94,17.2,8.41,26.54,13.27,22.56,5.76-14.6,0-22.56-4.86-16.7-1.32-17.2,8.08,17.2,12,10.12.95-13.27,0-15.93-5.37-11.06-5.37-11.06"
         id="path4" />
      <g
         class="cls-5"
         id="g12">
        <g
           class="cls-6"
           clip-path="url(#clip-path)"
           id="g11">
          <path
             class="cls-7"
             d="m 91.29,57.43 c 0.23,2 -0.87,3.44 -1.92,5.12 -2.13,3.4 -4.45,6.7 -6.85,9.91 -5.39,7.21 1.91,17.82 10.1,17.6 3,-0.08 0.47,0.19 0,-0.25 -0.91,-0.82 2.32,2.82 1.5,1.68 1.637678,2.498714 3.027599,5.151286 4.15,7.92 3.28,7.27 6.3,14.66 9.2,22.09 2.9,7.43 5.77,15.18 8.42,22.85 3.08,8.89 4.94,19.08 11,26.42 3.43,4.2 10.56,4.89 15.15,2.87 5.1029,-2.16522 8.44771,-7.13735 8.53,-12.68 0.15,-5.78 -2.48,-10.91 -4.6,-16.16 -2.12,-5.25 -4.24,-10.34 -6.43,-15.48 -3.68,-8.61333 -7.55,-17.13333 -11.61,-25.56 C 121.07,89.5 112.42,65.11 92.68,66.67 l 10.1,17.6 c 7,-10.45 7.48288,-18.103772 2.08288,-30.393772 C 98.07355,52.878019 93.087209,54.365719 91.29,57.43 Z"
             id="path8"
             style="display:inline"
             sodipodi:nodetypes="cccccccsccccscccccc" />
          <path
             class="cls-7"
             d="m 106.86,111.08 c 1.42,5.33 0.15,9.64 -0.64,14.89 a 133.73,133.73 0 0 1 -2.9,14 c -0.26,1 -0.56,2 -0.89,3 -0.19,0.59 -1.5,3.94 -0.28,1 a 42.43,42.43 0 0 1 -2.78,5.51 c -0.54,0.89 -1.15,1.73 -1.71,2.61 0,0 -2.56,4 -1.16,2 1.25,-1.7 -0.86,0.89 -1.15,1.18 -0.94,1 -2,1.85 -3,2.77 1.32,-1.2 1.28,-0.9 -0.13,0 -0.91,0.59 -1.82,1.19 -2.75,1.76 -2.11,1.29 -4.29,2.46 -6.48,3.59 -4.47,2.31 -9.06,4.36 -13.56,6.6 -1.34,0.67 -2.7,1.29 -4,1.94 -1,0.45 -1.08,0.49 -0.27,0.14 1.26,-0.55 0.72,-0.33 -1.64,0.68 -1.55,0.65 -3,1.32 -4.51,2.08 -0.66,0.34 -3.48,1.73 -1.46,0.88 -6.63,2.79 -11.48,1.6 -17.49,6.91 -10,8.85 0.54,26.56 13.08,22.48 l 0.94,-0.31 -9.46,-1.24 c 12.12,5.34 25.71,1.65 37.88,-2.2 A 72.12,72.12 0 0 0 112,183.92 c 15.29,-15.2 23.22,-36.4 31,-54.9 l -18.74,7.63 c 11,5.84 23.64,6.41 34.36,-0.56 10.22,-6.65 16.15,-16.8 21,-27.66 3.21,-7.22 2.59,-15.08 -4,-20.2 -6,-4.65 -15.1,-4.42 -20.56,1.23 l -0.63,0.65 6.91,-4 5.66,-0.21 6.89,4 1.3,1.8 2.13,7.86 v -0.9 c 0.06,-6.44 -4.84,-13.64 -11.42,-15 -13.73,-2.82 -26.2,2.95 -31.3,16.23 -2.26,5.89 1.51,13.31 6.64,16.31 5.76,3.37 12.66,2 17.49,-2.26 -2.92,2.58 2.77,-2.15 0.85,-0.63 a 2.86,2.86 0 0 1 -1.91,0.34 q 2.78,0 0,0 l -11.42,-15 c -1.13,16.23 20.22,24 30.95,12.92 l -24.59,-19 c -1.44,3.25 -2.89,6.51 -4.59,9.64 -0.91,1.68 -1.93,3.29 -2.84,5 l -0.89,1.35 q 1.23,-1.39 -0.6,0.71 c -0.1,0.1 -3.57,3.12 -1.44,1.59 -0.31,0.22 -3.83,2.39 -1.62,1.2 a 42.1,42.1 0 0 0 -4.81,2.13 l 0.81,-0.38 c -1.75,1.11 -1,0.1 0.57,0.79 -7.75,-3.35 -15.93,-0.91 -18.74,7.62 -4.73,14.37 -10.9,30.18 -20.63,41.42 -5,5.79 -10,10.19 -17.15,13 a 87.88,87.88 0 0 1 -14.25,3.91 c -2.23,0.48 -4.77,1.12 -6.8,1.39 -0.26,0 -3.8,-0.11 -2.56,0.45 L 63.09,193 63,192.18 40,201.69 c 5.39,6.24 15,6.2 22.73,6.35 A 58.47,58.47 0 0 0 84,204.53 c 12.71,-4.56 26.14,-11.75 36,-21.15 a 47.72,47.72 0 0 0 14.49,-37.63 59.23,59.23 0 0 0 -5.35,-20.92 c -2.65,-6.11 -7.64,-10.8 -9.75,-17.19 -2.61,-7.85 -14.64,-4.67 -12.48,3.44 z"
             id="path9"
             style="display:inline" />
          <path
             class="cls-8"
             d="M23,110c2.7,12.55,4,25.27,7.94,37.55s8.35,23.84,14.57,35.06c3,5.45,11.48,1.74,9.94-4.19-3.15-12.11-7.44-23.64-11.73-35.39s-10.47-22.86-14.75-34.68A3.1,3.1,0,0,0,23,110Z"
             id="path10" />
          <path
             class="cls-8"
             d="M93.53,121.94l1.25-.27,1.42-.59a4.49,4.49,0,0,0,1.65-1.53,2.86,2.86,0,0,0,.76-1.3,4.43,4.43,0,0,0,.51-2.27l-.21-1.57-.6-1.42a4.39,4.39,0,0,0-1.52-1.65,4.44,4.44,0,0,0-2-1.06L93.53,110a6.19,6.19,0,0,0-6,1.59l-1,1.25A6.15,6.15,0,0,0,85.7,116a6.85,6.85,0,0,0,1.81,4.37,6.19,6.19,0,0,0,6,1.59Z"
             id="path11" />
        </g>
      </g>
      <path
         class="cls-9"
         d="M132,125.07c8.28-4.46,20.49-12.54,19.7-21-1.33-14.16-18.65-22.78-33.25-15.26"
         id="path14" />
      <path
         class="cls-9"
         d="M112.86,74.14C123.83,69,147.56,62,162,87.52s-9.79,44.37-22.82,52.19"
         id="path15" />
      <path
         class="cls-9"
         d="M 17.42,101.59 49,188.54 c 0,0 65,13.94 91.36,-35.61 L 109.7,63.73"
         id="path16"
         style="display:inline" />
      <path
         class="cls-3"
         d="m 108.78,80.26 a 59.81,59.81 0 0 0 -4.29,-8"
         id="path17"
         style="display:inline" />
      <path
         class="cls-10"
         d="M76.89,86.07s6.62,2.15,7.94,17.19,8.41,26.55,13.27,22.57,5.76-14.6,0-22.57-4.86-16.7-1.32-17.19,8.08,17.19,12,10.12,1-13.28,0-15.93"
         id="path18" />
      <path
         class="cls-12"
         d="M32.71,108c-.06,8.84,4.39,18.2,7.37,26.4,3.14,8.64,5.74,18.07,11,25.71,1.28,1.87,5.14,1.48,4.8-1.3-1.17-9.52-5.44-18.45-8.9-27.3-3.16-8.08-6-17.93-11.85-24.5a1.42,1.42,0,0,0-2.4,1Z"
         id="path20" />
      <path
         class="cls-12"
         d="M60.49,180a2.44,2.44,0,0,0,1.25-.28A2.92,2.92,0,0,0,63.45,178a2.41,2.41,0,0,0,.28-1.24l-.12-.86a3.18,3.18,0,0,0-.83-1.43l-.65-.51a3.25,3.25,0,0,0-1.64-.44,2.41,2.41,0,0,0-1.24.28,2.92,2.92,0,0,0-1.71,1.71,2.42,2.42,0,0,0-.28,1.25l.12.86a3.2,3.2,0,0,0,.83,1.42l.65.51a3.24,3.24,0,0,0,1.63.44Z"
         id="path21" />
    </g>
  </g>
</svg>
