<?xml version="1.0" encoding="UTF-8" standalone="no"?>
<svg
   viewBox="0 0 136.59 64.000001"
   version="1.1"
   id="svg53"
   sodipodi:docname="empty-spiral-glasses-half-stroke.svg"
   width="136.59"
   height="64"
   inkscape:version="1.4.2 (2aeb623e1d, 2025-05-12)"
   xmlns:inkscape="http://www.inkscape.org/namespaces/inkscape"
   xmlns:sodipodi="http://sodipodi.sourceforge.net/DTD/sodipodi-0.dtd"
   xmlns="http://www.w3.org/2000/svg"
   xmlns:svg="http://www.w3.org/2000/svg">
  <sodipodi:namedview
     id="namedview53"
     pagecolor="#ffffff"
     bordercolor="#000000"
     borderopacity="0.25"
     inkscape:showpageshadow="2"
     inkscape:pageopacity="0.0"
     inkscape:pagecheckerboard="0"
     inkscape:deskcolor="#d1d1d1"
     inkscape:zoom="3.8809276"
     inkscape:cx="69.055656"
     inkscape:cy="42.644444"
     inkscape:window-width="1600"
     inkscape:window-height="836"
     inkscape:window-x="0"
     inkscape:window-y="27"
     inkscape:window-maximized="1"
     inkscape:current-layer="Accesories" />
  <defs
     id="defs2">
    <style
       id="style1">.cls-1,.cls-12,.cls-17,.cls-9{fill:none;}.cls-2{fill:#38a9bf;}.cls-12,.cls-2,.cls-9{stroke:#004355;}.cls-12,.cls-13,.cls-2,.cls-24,.cls-9{stroke-miterlimit:10;}.cls-17,.cls-2,.cls-9{stroke-width:3px;}.cls-3{fill:#3bd9c6;}.cls-4{fill:#b779e7;}.cls-5{opacity:0.72;}.cls-6{fill:#329fbc;}.cls-7{opacity:0.64;}.cls-8{fill:#9d59dc;}.cls-10{fill:#fff;}.cls-11{fill:#dbbcf3;}.cls-12{stroke-width:3px;}.cls-13{fill:#fd9ee0;stroke:#fefdfe;}.cls-14{clip-path:url(#clip-path);}.cls-15{fill:#6b00d4;opacity:0.27;}.cls-16{opacity:0.52;}.cls-17{stroke:#431f52;stroke-linejoin:round;}.cls-18{fill:#9c59db;}.cls-19{clip-path:url(#clip-path-2);}.cls-20{fill:#58d4eb;}.cls-21{opacity:0.44;}.cls-22{opacity:0.53;}.cls-23{opacity:0.46;}.cls-24{fill:#a167c9;stroke:#412563;stroke-width:2px;}</style>
    <clipPath
       id="clip-path"
       transform="translate(0 4.63)">
      <path
         class="cls-1"
         d="m 98.09,27.41 c 0,0 -2.42,-23.72 -22.49,-25.7 C 55.53,-0.27 47.85,22.88 47.91,26.43 a 41.34,41.34 0 0 0 0.77,8 C 50,41 53.81,49.48 64.61,53.38 81.48,59.46 93.46,42.9 93.46,42.9 l 4.44,-8.42 c 0,0 29.88,16.94 31.77,21.09 0,0 0,-6.11 -2.21,-8.56 -2.21,-2.45 -29.37,-19.6 -29.37,-19.6 z"
         id="path1" />
    </clipPath>
    <clipPath
       id="clip-path-2"
       transform="translate(0 4.63)">
      <path
         class="cls-1"
         d="M 42.79,28 C 42.79,28 41.18,2 22.36,6.25 3.54,10.5 -8,44.16 13.48,54.65 34.96,65.14 43.87,48.73 42.79,28 Z"
         id="path2" />
    </clipPath>
  </defs>
  <g
     id="Calque_2"
     data-name="Calque 2">
    <g
       id="Accesories">
      <path
         class="cls-13"
         d="m 35.015345,30.04 c 0,0 2.42,-23.72 22.49,-25.7 20.07,-1.98 27.75,21.17 27.69,24.72 a 41.34,41.34 0 0 1 -0.77,8 c -1.32,6.57 -5.13,15.05 -15.93,18.95 -16.87,6.08 -28.85,-10.48 -28.85,-10.48 l -4.44,-8.42 c 0,0 -29.8799998,16.94 -31.7699998,21.09 0,0 0,-6.11 2.21,-8.56 2.21,-2.45 29.3699998,-19.6 29.3699998,-19.6 z"
         id="path39" />
      <g
         class="cls-14"
         clip-path="url(#clip-path)"
         id="g46"
         transform="matrix(-1,0,0,1,133.10535,4)">
        <path
           class="cls-15"
           d="m 54.54,58.93 c 0,0 31.91,-15.46 47.29,-54.3 15.38,-38.84 34.76,57.16 34.76,57.16 z"
           transform="translate(0,4.63)"
           id="path41" />
        <g
           class="cls-16"
           id="g45">
          <path
             class="cls-10"
             d="M 54.6,7.5 C 48.33,10.64 44.24,17 47.91,24 c 3.76,7.1 13.89,8 20.54,5 a 21.65,21.65 0 0 0 12.2,-15.9 c 1.47,-8.3 -2.27,-16.39 -11.75,-16 -7.56,0.33 -13.71,6 -16.69,12.59 -3.17,7 -2,15 6.54,17.22 C 66.45,28.96 75.1,23.44 75.5,15.27 75.94,6.18 64,-0.24 58.71,8.77 c -1.63,2.81 -0.79,7.11 2.27,8.65 -0.42,-0.21 1.82,1.23 2.25,1.49 L 60.52,16.2 c -0.54,-0.71 0.68,-7.35 3.77,-2.47 l 1,3.78 c -0.33,0.4 -0.36,0.27 -0.09,-0.37 a 14.24,14.24 0 0 1 0.54,-1.76 10.73,10.73 0 0 1 1.17,-2.06 c 0.49,-0.64 1.88,-1.31 2.21,-1.86 0.71,-1.19 1.82,2.29 -0.67,-0.53 L 66.66,7.8 c 1.24,3.36 -1.24,7.51 -4.36,8.87 -0.9,0.4 -3.22,1.19 -4.09,0.39 -1.15,-1 0.06,-4.56 0.62,-5.33 C 60.8,9 57.1,6.25 54.6,7.5 Z"
             transform="translate(0,4.63)"
             id="path42" />
          <path
             class="cls-10"
             d="m 65.54,5 c 4.33,1.72 9.21,0.5 13.61,2.41 3.95,1.69 7.31,5.07 9.75,8.59 2,2.84 3.88,7.75 7.92,7.88 a 4.66,4.66 0 0 0 4.76,-4.75 c 0.06,-3.75 -3.42,-7.95 -5.61,-10.68 a 29.54,29.54 0 0 0 -9.26,-8 c -6.89,-3.6 -15.85,-4.29 -22.14,0.9 -1.42,1.17 -0.4,3.13 1,3.68 z"
             transform="translate(0,4.63)"
             id="path43" />
          <path
             class="cls-10"
             d="M 89.19,4.21 C 83.3,-6.3 67,-4 62.28,6.17 c -1.08,2.37 0.13,6.24 3.37,5.88 a 10.08,10.08 0 0 0 4.91,-1.55 c 1.82,-1.26 2.87,-3.08 5.12,-3.67 4,-1.06 8.31,0.94 12.47,-0.07 a 1.76,1.76 0 0 0 1,-2.55 z"
             transform="translate(0,4.63)"
             id="path44" />
          <path
             class="cls-10"
             d="m 79.91,32.33 h -0.09 l 0.59,0.24 A 0.37,0.37 0 0 1 80.27,32.5 l 0.51,0.4 a 0.68,0.68 0 0 1 -0.12,-0.12 l 0.42,0.54 v -0.07 l -0.42,3.26 c 0.1,-0.07 0.19,-0.16 0.28,-0.23 l -0.55,0.42 a 2.43,2.43 0 0 1 0.52,-0.3 l -0.66,0.28 a 2.52,2.52 0 0 1 0.47,-0.13 l -0.75,0.1 a 2.49,2.49 0 0 1 0.61,0 l -0.76,-0.1 h 0.12 l -2,-2 a 0.49,0.49 0 0 1 0,0.16 l -0.1,-0.76 V 34 l 0.1,-0.76 a 0.57,0.57 0 0 1 0,0.14 l 0.3,-0.7 a 1.07,1.07 0 0 1 -0.16,0.27 L 78.56,32.33 78.39,32.5 79,32 c -0.33,0.24 -0.64,0.51 -0.95,0.77 l 0.64,-0.5 a 1.79,1.79 0 0 1 -0.38,0.22 l 0.76,-0.32 a 1.16,1.16 0 0 1 -0.32,0.08 l 0.85,-0.11 h -0.33 l 0.86,0.11 -0.23,-0.07 0.76,0.33 -0.14,-0.09 0.65,0.51 A 0.68,0.68 0 0 1 81.05,32.81 L 80.39,37.88 81.87,37.23 77,33.55 a 0.52,0.52 0 0 1 -0.06,0.16 l 0.34,-0.79 -0.09,0.14 0.51,-0.67 -0.11,0.11 0.67,-0.51 a 0.94,0.94 0 0 1 -0.22,0.12 l 0.79,-0.33 -0.24,0.07 0.89,-0.12 h -0.26 l 0.89,0.12 a 0.94,0.94 0 0 1 -0.24,-0.06 l 0.8,0.34 A 0.92,0.92 0 0 1 80.46,32 l 0.68,0.53 A 0.45,0.45 0 0 1 81.03,32.4 l 0.86,3.27 a 1.81,1.81 0 0 1 0.09,-0.31 l -0.34,0.81 a 2.69,2.69 0 0 1 0.16,-0.29 l -0.53,0.69 a 2.27,2.27 0 0 1 0.31,-0.31 l -0.69,0.53 a 2.32,2.32 0 0 1 0.38,-0.21 l -0.81,0.34 a 1.57,1.57 0 0 1 0.31,-0.08 l -0.91,0.12 H 80 l -1.72,-0.47 h 0.07 L 77.66,36 a 1.21,1.21 0 0 1 0.16,0.16 l -0.53,-0.69 a 1.14,1.14 0 0 1 0.1,0.19 l -0.34,-0.82 a 1.66,1.66 0 0 1 0.06,0.21 L 77,34.14 a 1.5,1.5 0 0 1 0,0.3 l 0.13,-0.91 a 1.58,1.58 0 0 1 -0.11,0.37 l 0.35,-0.82 a 1.51,1.51 0 0 1 -0.2,0.35 l 0.54,-0.69 a 2.37,2.37 0 0 1 -0.27,0.28 l 0.69,-0.54 a 1,1 0 0 1 -0.25,0.16 L 78.7,32.3 a 1.28,1.28 0 0 1 -0.28,0.07 l 0.92,-0.12 h -0.07 l 0.91,0.13 -0.2,-0.06 0.83,0.35 a 1,1 0 0 1 -0.2,-0.13 l 0.71,0.55 -0.13,-0.09 0.56,0.72 a 0.76,0.76 0 0 1 -0.12,-0.19 l 0.36,0.86 a 1.46,1.46 0 0 1 0,-0.2 l 0.12,1 a 2.17,2.17 0 0 1 0,-0.44 l -0.13,1 a 1.58,1.58 0 0 1 0.11,-0.37 l -0.37,0.87 a 2.33,2.33 0 0 1 0.2,-0.34 l -0.57,0.75 a 2.37,2.37 0 0 1 0.27,-0.28 l -0.75,0.58 a 1.74,1.74 0 0 1 0.26,-0.15 l -0.89,0.37 0.21,-0.06 -1,0.13 h 0.22 l -1,-0.14 a 1.66,1.66 0 0 1 0.21,0.06 L 78,36.7 78.14,36.77 76.8,35.43 a 1.28,1.28 0 0 1 0.15,0.25 l -0.38,-0.9 a 2.86,2.86 0 0 1 0.07,0.28 l -0.14,-1 a 1.41,1.41 0 0 1 0,0.29 l 0.13,-1 a 1.29,1.29 0 0 1 -0.08,0.28 l 0.38,-0.9 a 1.23,1.23 0 0 1 -0.14,0.25 l 0.59,-0.77 a 1,1 0 0 1 -0.2,0.2 l 0.77,-0.59 a 1,1 0 0 1 -0.17,0.1 l 2.93,-0.39 h -0.09 l 0.91,0.39 a 6.6,6.6 0 0 0 -1.21,-0.55 l 0.89,0.37 -0.21,-0.1 0.74,0.57 -0.06,-0.06 a 3.67,3.67 0 0 0 -1.58,-0.92 3.6,3.6 0 0 0 -1.9,0 3.69,3.69 0 0 0 -2.5,2.5 4,4 0 0 0 1.8,4.67 4.12,4.12 0 0 0 5.08,-0.72 A 4.88,4.88 0 0 0 83,31.35 4.49,4.49 0 0 0 76.4,31 a 5.24,5.24 0 0 0 -1.66,3.82 4.39,4.39 0 0 0 4.26,4.33 4.79,4.79 0 0 0 4,-2.26 4.6,4.6 0 0 0 0.23,-4.68 4.16,4.16 0 0 0 -2.39,-1.95 4.45,4.45 0 0 0 -4,1.14 4.61,4.61 0 0 0 -1.43,2.39 3.56,3.56 0 0 0 0.9,3.44 4.17,4.17 0 0 0 1.76,1 4.41,4.41 0 0 0 3.3,-0.41 4.08,4.08 0 0 0 2,-2.54 3.31,3.31 0 0 0 -4.83,-3.72 l -1.42,0.76 a 3.12,3.12 0 0 0 -1.54,2.36 3.06,3.06 0 0 0 0.89,2.71 4.28,4.28 0 0 0 2.87,1.18 4.57,4.57 0 0 0 2.36,-0.69 4.13,4.13 0 0 0 1.87,-2.39 4.21,4.21 0 0 0 -0.36,-2.94 l 0.29,0.69 a 5,5 0 0 0 -0.38,-0.92 2.85,2.85 0 0 0 -2.47,-1.42 5.08,5.08 0 0 0 -2.48,0.6 4.16,4.16 0 0 0 -1.79,1.71 2.69,2.69 0 0 0 2.33,4.05 3.29,3.29 0 0 0 2.29,-0.89 2.44,2.44 0 0 0 -1.06,-4 z"
             transform="translate(0,4.63)"
             id="path45" />
        </g>
      </g>
      <path
         class="cls-17"
         d="m 35.105345,29.96 c 0,0 2.4,-23.73 22.47,-25.71 20.07,-1.98 27.75,21.18 27.69,24.73 a 41.31,41.31 0 0 1 -0.77,8 c -1.34,6.54 -5.13,15 -15.93,18.93 -16.87,6.09 -28.85,-10.48 -28.85,-10.48 l -4.44,-8.42 c 0,0 -29.8799998,17 -31.7699998,21.1 0,0 0,-6.12 2.21,-8.57 2.21,-2.45 29.3899998,-19.58 29.3899998,-19.58 z"
         id="path46"
         style="stroke-width:1.5;stroke-dasharray:none" />
      <path
         class="cls-18"
         d="m 90.835345,30.63 c 0,0 1.61,-26.09 20.440005,-21.79 18.83,4.3 30.38,37.91 8.83,48.4 C 98.555345,67.73 89.755345,51.33 90.835345,30.63 Z"
         id="path47" />
      <g
         class="cls-19"
         clip-path="url(#clip-path-2)"
         id="g52"
         transform="matrix(-1,0,0,1,133.10535,-2)">
        <g
           class="cls-21"
           id="g49">
          <path
             class="cls-18"
             d="m 36.07,13 c -0.48,2 -0.65,4 -1,5.94 a 53.3,53.3 0 0 1 -1.4,6 69.12,69.12 0 0 1 -4.4,11.17 A 76.15,76.15 0 0 1 23.6,46 c -1.84,2.63 -4.18,5 -7.3,6 a 2.5243811,2.5243811 0 0 0 0.7,5 c 3.73,0.36 8,0.51 11.2,-1.73 3.4,-2.36 5,-6.84 6.43,-10.53 3.19,-8 4.8,-16.49 6.34,-24.94 H 36.2 c 2,6.73 2.12,14.18 -0.66,20.72 A 29.73,29.73 0 0 1 24.45,53.76 c -2.49,1.62 -0.95,5.69 2.06,4.88 a 21.6,21.6 0 0 0 11.87,-8.27 c 2.71,-3.73 4.89,-9.32 3.43,-13.89 -0.6,-1.91 -3.94,-2.33 -4.3,0 a 50.37,50.37 0 0 1 -0.95,5.86 16.67,16.67 0 0 1 -2.47,5.11 14.79,14.79 0 0 1 -9,6 l 2.06,4.88 a 31.54,31.54 0 0 0 13.56,-16 c 3,-7.66 2.42,-16.05 0.23,-23.84 -0.62,-2.22 -4.25,-2.46 -4.74,0 -1.52,7.67 -3,15.42 -5.65,22.81 -0.63,1.77 -1.33,3.52 -2.13,5.23 -0.69,1.5 -1.39,3.28 -2.68,4.37 -2.32,2 -6,1.39 -8.77,1.09 l 0.66,4.92 c 8,-2.44 12.31,-11 15.75,-18 a 63.27,63.27 0 0 0 4.83,-12.6 c 1.06,-4.19 1.93,-9.19 0.6,-13.39 a 1.43,1.43 0 0 0 -2.74,0 z"
             transform="translate(0,4.63)"
             id="path49" />
        </g>
        <g
           class="cls-22"
           id="g50">
          <path
             class="cls-10"
             d="m 27.29,32.32 c -0.1,-0.2 -0.2,-0.4 -0.29,-0.61 l 0.12,0.28 A 1.75,1.75 0 0 1 27,31.67 V 32 a 1.22,1.22 0 0 1 0,-0.27 l -0.05,0.38 a 4.5,4.5 0 0 0 0.07,-0.63 c 0,-0.1 0,-0.2 0,-0.3 v 0.41 a 1.34,1.34 0 0 1 0.07,-0.27 l -0.16,0.39 a 1.25,1.25 0 0 1 0.22,-0.37 l -0.27,0.34 a 1.34,1.34 0 0 1 0.21,-0.2 l -0.36,0.28 a 1.06,1.06 0 0 1 0.2,-0.12 l -0.42,0.18 a 0.83,0.83 0 0 1 0.21,-0.06 l -0.48,0.07 h 0.18 L 26,31.76 l 0.21,0.06 -0.45,-0.18 0.2,0.11 -0.38,-0.29 a 2.16,2.16 0 0 1 0.36,0.38 l -0.31,-0.4 a 6.58,6.58 0 0 1 0.81,1.28 l -0.21,-0.51 a 1.8,1.8 0 0 1 0.1,0.4 L 26.2,32 a 1.6,1.6 0 0 1 0,0.38 l 0.08,-0.61 a 1.56,1.56 0 0 1 -0.1,0.37 l 0.24,-0.57 a 1.38,1.38 0 0 1 -0.17,0.29 l 0.38,-0.49 a 2.39,2.39 0 0 1 -0.22,0.23 l 0.5,-0.39 -0.58,0.45 0.51,-0.4 -0.2,0.11 0.62,-0.26 a 0.79,0.79 0 0 1 -0.22,0.06 l 0.7,-0.09 a 2.29,2.29 0 0 1 -0.37,0 l 0.7,0.09 a 1.57,1.57 0 0 1 -0.29,-0.08 l 0.63,0.27 a 2,2 0 0 1 -0.37,-0.22 l 0.54,0.41 a 1.85,1.85 0 0 1 -0.39,-0.4 l 0.41,0.54 A 2.6,2.6 0 0 1 28.32,31.2 l 0.28,0.65 a 2.23,2.23 0 0 1 -0.16,-0.6 l 0.09,0.71 a 3.1,3.1 0 0 1 0,-0.61 l -2,2.6 a 1.27,1.27 0 0 1 0.38,-0.11 l -0.71,0.1 c 0.15,0 0.31,0 0.46,0 h 0.21 a 2.5,2.5 0 0 0 1.83,-0.78 l -2.24,0.6 h 0.05 l 0.6,0.08 0.61,-0.08 A 2.26,2.26 0 0 0 29,33 a 1.2,1.2 0 0 0 0.29,-0.5 1.17,1.17 0 0 0 0.15,-0.58 1,1 0 0 0 0,-0.6 1.61,1.61 0 0 0 -0.27,-0.85 v -0.05 l 0.23,1.78 v -0.06 a 2.5,2.5 0 0 0 -0.65,-2.45 4.48,4.48 0 0 0 -0.73,-0.57 2.44,2.44 0 0 0 -0.41,-0.18 2,2 0 0 0 -0.46,-0.16 4.33,4.33 0 0 0 -2,0 2.65,2.65 0 0 0 -1.88,1.88 4.48,4.48 0 0 0 0.16,2.59 5.35,5.35 0 0 0 0.54,1.1 5.12,5.12 0 0 0 0.83,1 4.56,4.56 0 0 0 1.66,0.94 h 0.18 a 4.79,4.79 0 0 0 0.76,0.1 2.86,2.86 0 0 0 1.29,-0.25 3.32,3.32 0 0 0 1.16,-0.77 3.72,3.72 0 0 0 0.85,-1.51 3.67,3.67 0 0 0 0,-2.2 5.56,5.56 0 0 0 -1.29,-2 6.2,6.2 0 0 0 -0.46,-0.42 5.61,5.61 0 0 0 -0.92,-0.68 2.73,2.73 0 0 0 -2.75,0 2.84,2.84 0 0 0 -1.31,2.31 2.7,2.7 0 0 0 0.3,1.33 2.14,2.14 0 0 0 0.65,0.72 l 0.28,0.2 -0.25,-0.2 a 6.52,6.52 0 0 0 1,0.81 1,1 0 0 0 1.23,-0.15 1,1 0 0 0 0.16,-1.23 z"
             transform="translate(0,4.63)"
             id="path50" />
        </g>
        <g
           class="cls-23"
           id="g51">
          <path
             class="cls-10"
             d="M 36.26,9.81 C 32.88,6.67 28.1,5.72 23.6,6.35 a 21.22,21.22 0 0 0 -6.23,1.9 c -2.08,1 -4.35,2.45 -5,4.79 -0.65,2.34 0.5,4.35 2.15,5.87 1.28,1.19 2.46,2 2.35,3.95 a 8.42,8.42 0 0 1 -2.08,4.8 5.9,5.9 0 0 1 -1.52,1.17 3.61,3.61 0 0 1 -0.8,0.22 c -0.2,0 -1.22,0 -1,0 a 3.57,3.57 0 0 1 -2,-0.81 4.49,4.49 0 0 1 -0.84,-1.16 3.78,3.78 0 0 1 0.6,-3.74 4.91,4.91 0 0 1 0.93,-0.73 c 0.3,-0.17 0.24,0.22 0,-0.1 0.14,0.17 0.22,0.36 0.19,0.26 0.08,0.28 0.45,1.53 0.1,1.67 -0.11,0 0.28,-0.45 0.39,-0.53 -1.06,0.74 1.08,-0.36 0.89,-0.15 -0.19,0.21 -0.44,-0.47 -0.22,-0.05 0.22,0.42 -0.06,-0.31 -0.07,-0.43 a 5.63,5.63 0 0 1 0.05,-1.23 14.72,14.72 0 0 1 0.3,-1.47 4,4 0 0 1 0.33,-1 c 0.18,-0.36 0.26,-0.62 0.43,-0.65 0.17,-0.03 -1.27,0.6 -1.1,0.2 0,0 1,1.48 1.07,1.58 a 5.77,5.77 0 0 1 0,4.21 6,6 0 0 1 -2.52,2.89 c -2,1.34 -4,2.65 -5,4.95 -1.23,2.84 -0.27,5.88 0.81,8.61 a 35.59,35.59 0 0 0 8.79,13.12 l 2.82,-4.84 c -3.93,-1.6 -7,-5.21 -9,-9.1 A 21.24,21.24 0 0 1 6.59,34.63 24.27,24.27 0 0 1 6.42,31.22 13.47,13.47 0 0 1 6.7,27.8 H 2.09 c 0.88,6.49 2,12.87 5.44,18.56 3,4.91 7.37,9.54 12.94,11.35 1.42,0.46 2.71,-1.59 1.51,-2.59 a 25.22,25.22 0 0 1 -4.24,-4.46 l -2.69,2.07 a 37.6,37.6 0 0 0 7.51,5.59 c 1.76,1 3.71,-1.4 2.19,-2.84 q -3.24,-3.07 -6.56,-6 c -1.69,-1.5 -4.14,0.9 -2.5,2.5 Q 18.9,55 22.19,58 l 2.2,-2.84 a 33.83,33.83 0 0 1 -6.92,-4.89 1.7111984,1.7111984 0 0 0 -2.42,2.42 25.35,25.35 0 0 0 5.05,4.82 L 22,55.12 c -1,-0.89 -2,-1.7 -3,-2.58 -1,-0.88 -1.89,-1.92 -2.81,-2.88 a 31.82,31.82 0 0 1 -4.63,-6.08 c -3,-5.21 -4,-11.17 -4.82,-17 -0.35,-2.42 -4.06,-2.13 -4.61,0 a 30.93,30.93 0 0 0 -1,4.35 A 16.58,16.58 0 0 0 1,34.8 26.88,26.88 0 0 0 3.35,43.32 24.13,24.13 0 0 0 15.18,54.94 2.94,2.94 0 0 0 18.92,54.2 2.91,2.91 0 0 0 18.69,50.39 31,31 0 0 1 10.76,36.94 4.12,4.12 0 0 1 10.56,35.39 c 0.08,-0.76 -0.07,0.07 0.12,-0.27 0.19,-0.34 -0.46,0.45 0.17,-0.23 a 10.8,10.8 0 0 1 2.22,-1.75 12.75,12.75 0 0 0 5,-6 12.32,12.32 0 0 0 0.3,-7.43 C 17.67,17.07 15.8,14.1 13.01,13.36 6.54,11.65 3.83,22.25 6.17,26.54 A 5.79,5.79 0 0 0 13.81,29 c 2.64,-1.46 3,-5.19 2.16,-7.79 a 6,6 0 0 0 -7,-4.32 8.63,8.63 0 0 0 -5.9,5.6 A 9.13,9.13 0 0 0 9.59,34.6 9.27,9.27 0 0 0 17.11,33.19 12.74,12.74 0 0 0 21.6,26 c 0.75,-3.06 0.53,-6.39 -1.56,-8.88 a 16.51,16.51 0 0 0 -2.61,-2.49 c -0.2,-0.14 -0.19,-0.14 -0.19,-0.11 0.12,-0.46 1,-0.89 1.33,-1.1 5,-3 10.91,-2.48 16.37,-1.33 a 1.37,1.37 0 0 0 1.32,-2.27 z"
             transform="translate(0,4.63)"
             id="path51"
             style="display:inline" />
        </g>
      </g>
      <path
         class="cls-17"
         d="m 90.685345,30.11 c 0,0 1.61,-26.09 20.420005,-21.78 18.81,4.31 30.4,37.91 8.89,48.4 C 98.485345,67.22 89.605345,50.81 90.685345,30.11 Z"
         id="path52"
         style="stroke-width:1.5;stroke-dasharray:none" />
      <path
         class="cls-24"
         d="m 83.82535,32.33 c 0,-0.71 5.84,-5.09 8.51999,1.59 2.68001,6.68 0,6.47 -0.89,6.27 -0.89,-0.2 -0.36,-5.62 -3.7,-4.82 -3.34,0.8 -4.21,3.83 -3.92999,-3.04 z"
         id="path53"
         style="stroke-width:1;stroke-dasharray:none" />
    </g>
  </g>
</svg>
