<svg xmlns="http://www.w3.org/2000/svg" xmlns:xlink="http://www.w3.org/1999/xlink" viewBox="0 0 342.22 277.72"><defs><style>.cls-1,.cls-13,.cls-8{fill:none;}.cls-2{fill:#ddf1f3;}.cls-13,.cls-2{stroke:#016673;}.cls-13,.cls-2,.cls-3,.cls-8{stroke-linecap:round;stroke-linejoin:round;stroke-width:5px;}.cls-3{fill:#00addc;}.cls-3,.cls-8{stroke:#00435e;}.cls-4{opacity:0.38;}.cls-5{clip-path:url(#clip-path);}.cls-6{fill:#901a3d;}.cls-7{fill:#e6fff2;}.cls-9{fill:#004962;}.cls-10{fill:#004c33;}.cls-11{opacity:0.2;}.cls-12{clip-path:url(#clip-path-2);}.cls-14{clip-path:url(#clip-path-3);}</style><clipPath id="clip-path" transform="translate(0 5.06)"><path class="cls-1" d="M277.94,113.46c-6.1-1.46-6.61-14.5-6.66-20.78-.14-18.24,3.23-58.17,33-81.8,39.48-31.36,21.29,34.47,4.25,47.25,0,0,25-1,21.87,17.2s-37.74,15.29-37.74,15.29,16.65,4.26,11.11,16.74C300.41,114.91,287.23,115.68,277.94,113.46Z"/></clipPath><clipPath id="clip-path-2" transform="translate(0 5.06)"><path class="cls-1" d="M112.57,143.69c0-8.12,102-30.66,134.81-39.8a10.43,10.43,0,0,1,12.84,7.18c6.54,22.84,22,78.05,22.45,91.46.53,14.61-99.14,36-127.58,41.85a10.43,10.43,0,0,1-11.38-5.46C137.5,226.73,112.57,181.24,112.57,143.69Z"/></clipPath><clipPath id="clip-path-3" transform="translate(0 5.06)"><path class="cls-1" d="M99.86,161.5c4.46-4.42-1.88-15.82-5.1-21.21-9.35-15.67-33-48-70.67-52.78-50-6.29-.29,40.52,20.9,42.59,0,0-21.85,12.12-9.75,26.06s40.19-6.54,40.19-6.54-12,12.29-.8,20.07C81.41,174.41,93.08,168.22,99.86,161.5Z"/></clipPath></defs><g id="Calque_2" data-name="Calque 2"><g id="Layer_16" data-name="Layer 16"><path class="cls-2" d="M113,143.64c0-8.13,102-30.66,134.81-39.81A10.44,10.44,0,0,1,260.69,111c6.53,22.83,22,78,22.45,91.46.52,14.6-99.14,36-127.58,41.85a10.42,10.42,0,0,1-11.38-5.47C138,226.68,113,181.19,113,143.64Z" transform="translate(0 5.06)"/><path class="cls-2" d="M129,152.16s49.22,23.16,69.07,21.83,53.53-55.9,53.53-55.9" transform="translate(0 5.06)"/><path class="cls-3" d="M277.94,114.61c-6.1-1.46-6.61-14.5-6.66-20.78-.14-18.24,3.23-58.17,33-81.8,39.48-31.36,21.29,34.47,4.25,47.25,0,0,25-1,21.87,17.2s-37.74,15.29-37.74,15.29S309.3,96,303.76,108.51C300.41,116.06,287.23,116.83,277.94,114.61Z" transform="translate(0 5.06)"/><g class="cls-4"><g class="cls-5"><path class="cls-6" d="M271.69,107c-1,8.57,10.69,12.8,17.39,12.64,8.58-.19,20.05-6.15,22.34-15.06,1-3.79-.38-7.74-4.29-9-4.71-1.51-8.57,2.07-12.05,4.63-3,2.21-5.88,3.64-9.66,3.55-3.57-.09-7.37-1.5-10.88-.5a4,4,0,0,0-2.85,3.75Z" transform="translate(0 5.06)"/><path class="cls-6" d="M285.1,87.62c8.94,7.65,22.14,9.69,33.22,5.68C328.78,89.52,341,79,340.88,66.88c-.09-8.62-10.47-10.15-15-4.07-2.16,2.89-3,6.57-5.2,9.53a31,31,0,0,1-7.92,7.71c-7.62,4.89-16.4,5.11-25,3-2.47-.6-4.82,2.68-2.64,4.54Z" transform="translate(0 5.06)"/><path class="cls-6" d="M299.81,61.19c12.13,4.25,23.56-13.14,28.09-21.9a157.5,157.5,0,0,0,7.73-19c2.54-7.1,5.35-15.12,2-22.32-2.45-5.2-9.6-3-11.23,1.47-1,2.74-1,5.7-1.65,8.55s-1.64,5.75-2.58,8.58c-1.7,5.11-3.48,10.19-5.6,15.14a69.94,69.94,0,0,1-7.29,13.42c-3.13,4.36-7.2,7.44-10.66,11.44a2.8,2.8,0,0,0,1.22,4.62Z" transform="translate(0 5.06)"/><path class="cls-7" d="M275.49,71.89c5.24-13.65,12.56-26.34,20.88-38.33a100.15,100.15,0,0,1,13.66-16,77.89,77.89,0,0,1,8.44-6.95c2.87-2,5.15-3.44,6.51-6.83,1.08-2.68-1.61-5.13-4-5.28-6.57-.39-13.63,7.63-18,12A108.5,108.5,0,0,0,288.8,28.24c-8.36,13-12.83,28-16.39,42.8a1.6,1.6,0,0,0,3.08.85Z" transform="translate(0 5.06)"/></g></g><path class="cls-8" d="M277.75,113.46c-6.11-1.46-6.61-14.5-6.66-20.78-.15-18.24,3.23-58.17,33-81.8,39.49-31.36,21.29,34.47,4.26,47.25,0,0,25-1,21.87,17.2s-37.74,15.29-37.74,15.29,16.65,4.26,11.11,16.74C300.22,114.91,287,115.68,277.75,113.46Z" transform="translate(0 5.06)"/><path class="cls-9" d="M285.74,60.22c.92-2.59,2.32-6.79,5.43-7.58,3.54-.89,3.76,4.61,3.56,6.7-.45,4.73-2.73,9-7,11.3-3.13,1.71-1.72,6.79,1.82,6.72l.08,2.79-2.15,1.34a29,29,0,0,1-2.89,1.59c-2.11,1-.77,3.72,1.07,3.93,5,.57,10.58-1.79,11.51-7.33a8,8,0,0,0-7.62-9.53l1.82,6.72c8-4.73,13-17.22,7.73-25.73C297,47.69,293,46,289.1,47.72c-4.83,2.16-5.86,7.37-6.39,12.09-.21,1.83,2.49,2,3,.41Z" transform="translate(0 5.06)"/><path class="cls-3" d="M99.86,161.5c4.46-4.42-1.88-15.82-5.1-21.21-9.35-15.67-33-48-70.67-52.78-50-6.29-.29,40.52,20.9,42.59,0,0-21.85,12.12-9.75,26.06s40.19-6.54,40.19-6.54-12,12.29-.8,20.07C81.41,174.41,93.08,168.22,99.86,161.5Z" transform="translate(0 5.06)"/><path class="cls-10" d="M292.25,155a37.92,37.92,0,0,0,7.74,3.17c2.49.86,5.49,2.36,8.15,2,2-.26,3.66-2.74,1.82-4.4-2.13-1.93-5.17-2.39-7.87-3.17a38.27,38.27,0,0,0-8.68-1.9c-2.37-.1-3,3.12-1.16,4.28Z" transform="translate(0 5.06)"/><path class="cls-10" d="M166.09,259.63c10.37,6,23.81,12.76,36,13a1.41,1.41,0,0,0,.38-2.76c-5.66-1.87-11.77-2.5-17.51-4.25a123.69,123.69,0,0,1-18.2-7.16c-.76-.36-1.41.71-.67,1.14Z" transform="translate(0 5.06)"/><path class="cls-10" d="M297.3,206.24c.24,2.72,1.87,3.53,4.27,4.44a98.17,98.17,0,0,0,13.11,3.9c7.86,1.82,17.83,4.32,25.84,2.51,2.42-.55,2.13-3.92,0-4.62-6.41-2.08-13.95-1.88-20.62-3.13-6-1.12-14-2-19.46-4.9-1.28-.69-3.29.14-3.14,1.8Z" transform="translate(0 5.06)"/><path class="cls-10" d="M284.79,137.41a149,149,0,0,0,21.55,8c7.16,2,15.27,4.36,22.74,3.39a1.65,1.65,0,0,0,.44-3.22c-6.93-2.6-14.71-3-21.9-4.81a174.73,174.73,0,0,1-21.42-6.69c-1.92-.74-3.3,2.49-1.41,3.34Z" transform="translate(0 5.06)"/><path class="cls-10" d="M193,255.73l5.38,2.12c1.75.69,3.4,1.53,5.31,1.53,1.65,0,2.79-2.27,1.43-3.44a14.84,14.84,0,0,0-5.14-2.43l-5.81-2c-2.71-.95-3.76,3.23-1.17,4.25Z" transform="translate(0 5.06)"/><g class="cls-11"><g class="cls-12"><path class="cls-6" d="M136.28,248.14c8.93,2,18.48.83,27.54.26,9.4-.59,18.79-1.4,28.11-2.72a359.24,359.24,0,0,0,54.59-12.26c16.29-5,40.6-13.31,41-33.81.19-9.19-3.41-19-5.51-27.84l-6.84-28.89-3.65-15.4-.92-3.85c-.14-.62-.7-4.63-.7-1.75a13.49,13.49,0,0,1,.21-1.78c.59-4.08,1-8.2,1.48-12.3.7-5.77-5.05-11-10.29-11.66-6.29-.74-10.75,2.86-13,8.51a182.72,182.72,0,0,1-21.84,38.9c-6.67,9.16-15.65,21.46-27.65,23.35-6.67,1-13.66-1.35-20-3.17-7-2-14-4.13-20.94-6.57a157.42,157.42,0,0,1-18.94-7.75c-6.44-3.27-12.26-7.48-18.58-10.91-8-4.32-19.7,5.05-13.47,13.47,10.49,14.18,28.47,22.24,44.71,28,16.61,5.87,35.72,13.27,53.5,9.77,17.31-3.4,29.64-18,39.71-31.36A206.61,206.61,0,0,0,271.19,111l-23.32-3.16-1.2,9.91c-.69,5.66.64,10.5,2,16.08l12.51,53c.87,3.68,1.91,7.36,2.54,11.09.36,2.08-.09,2-1.23,2.85-6.16,4.74-14,7.47-21.32,9.8-16.52,5.26-33.42,9.27-50.09,14-9.16,2.59-18.32,5.24-27.5,7.78-9.36,2.59-19.51,4.18-28.21,8.58-3,1.52-2.32,6.55.95,7.28Z" transform="translate(0 5.06)"/></g></g><path class="cls-13" d="M113,144.81c0-8.13,102-30.66,134.81-39.81a10.44,10.44,0,0,1,12.84,7.19c6.53,22.83,22,78,22.45,91.46.52,14.6-99.14,36-127.58,41.85A10.43,10.43,0,0,1,144.18,240C138,227.85,113,182.36,113,144.81Z" transform="translate(0 5.06)"/><g class="cls-4"><g class="cls-14"><path class="cls-6" d="M.86,98c5.91,11,12,20.62,23.22,27,7.82,4.44,26.08,13.39,33.06,3.89a4,4,0,0,0,0-4.11c-2.38-4.35-7.66-4.8-12-5.93a67.13,67.13,0,0,1-14.43-5.17C22,109.08,11.78,103.25,6.12,94.91,3.94,91.68-1,94.49.86,98Z" transform="translate(0 5.06)"/><path class="cls-6" d="M22.62,142c-3.16,13.25,13.72,19.6,24,19.75,6.8.1,13.31-2,19.38-4.86,5.81-2.75,13.91-6.92,17.1-12.71a5.59,5.59,0,0,0-4.78-8.32c-4.78-.08-9,2.63-13.43,4.28a75,75,0,0,1-14.3,4.08c-8.26,1.32-14.86-.54-21.86-4.71A4.2,4.2,0,0,0,22.62,142Z" transform="translate(0 5.06)"/><path class="cls-6" d="M71.31,146.53c-6.28,2.9-8,9.8-6.06,16.13,2.49,8,11.39,12.48,19.34,11.09,7.11-1.24,14.48-6.23,19.21-11.62s8.42-14.89,1.92-20.48a6,6,0,0,0-8.22,0c-2.21,1.85-3.69,4.4-5.67,6.49a42.06,42.06,0,0,1-7.22,6.09c-2,1.32-4.14,3.06-6.58,1.89s-3.07-4.92-3-7.45c.08-2-2.13-2.89-3.74-2.14Z" transform="translate(0 5.06)"/><path class="cls-7" d="M4.05,90c3,2.09,6.83,2.41,10.33,3.2,3.88.88,7.79,1.75,11.62,2.81a109.73,109.73,0,0,1,21,8.14,131.15,131.15,0,0,1,19,11.76c6,4.52,11.51,11.49,18.53,14.25,3.54,1.4,7.07-2.72,6.06-6C88.32,116.45,79.86,110.5,73.7,106A108.76,108.76,0,0,0,51.48,93.3a119.27,119.27,0,0,0-24.34-7.45c-6.79-1.29-16.77-3.44-23.09.23a2.28,2.28,0,0,0,0,3.89Z" transform="translate(0 5.06)"/></g></g><path class="cls-9" d="M67.1,116.86c-2.85-3.67-6.35-7.32-11.43-6.7a7.84,7.84,0,0,0-6.89,8.07c0,10,10.54,18.14,19.9,18l-1.82-6.73a7.9,7.9,0,0,0-2.15,11.41c3.46,4.89,9.87,4.31,14.16,1,1.45-1.1,1.28-4.16-1.06-3.93a17.07,17.07,0,0,1-3.84.16c-.48-.07-5.62-1.25-3.46-2.44,3.06-1.7,1.77-6.89-1.83-6.72-4.81.22-9-2.17-11.82-6-1.71-2.27-3.16-4.64-.73-6.63,3-2.45,6.27.58,8.78,2.64a1.55,1.55,0,0,0,2.19-2.19Z" transform="translate(0 5.06)"/><path class="cls-8" d="M99.86,161.5c4.46-4.42-1.88-15.82-5.1-21.21-9.35-15.67-33-48-70.67-52.78-50-6.29-.29,40.52,20.9,42.59,0,0-21.85,12.12-9.75,26.06s40.19-6.54,40.19-6.54-12,12.29-.8,20.07C81.41,174.41,93.08,168.22,99.86,161.5Z" transform="translate(0 5.06)"/></g></g></svg>