<?xml version="1.0" encoding="UTF-8"?>
<svg id="Calque_2" data-name="Calque 2" xmlns="http://www.w3.org/2000/svg" xmlns:xlink="http://www.w3.org/1999/xlink" viewBox="0 0 73.88 121.36">
  <defs>
    <style>
      .cls-1 {
        fill: #57162a;
      }

      .cls-1, .cls-2, .cls-3 {
        stroke-width: 0px;
      }

      .cls-2, .cls-4 {
        fill: none;
      }

      .cls-5 {
        clip-path: url(#clippath);
      }

      .cls-6 {
        opacity: .53;
      }

      .cls-7 {
        fill: #4e4d4c;
      }

      .cls-7, .cls-8, .cls-4 {
        stroke: #231f20;
        stroke-linecap: round;
        stroke-linejoin: round;
        stroke-width: 2.51px;
      }

      .cls-8 {
        fill: #9a673d;
      }

      .cls-3 {
        fill: #eafdf1;
      }
    </style>
    <clipPath id="clippath">
      <path class="cls-2" d="m66.4,22.3l-14.33-5.04,1.94-8.63c.47-1.29-.21-2.71-1.51-3.14l-11.7-3.89c-1.23-.41-2.57.22-3.03,1.43-.68,1.77-1.52,4.64-2.49,8.33l-16.86-5.93-.27.8c-.96-.22-2.08-.22-3.39.05C4.45,8.43-.37,29.4,1.74,37.3c.59,2.2,2.25,3.71,4.2,4.28l-.15.43,21.02,5.72c-5.99,26.96-12.61,57.27-16.36,66.27-.6,1.44.29,3.06,1.83,3.32l14.44,2.47c1.15.2,2.28-.46,2.69-1.55l13.4-59.71h0l.67-3.01.69-3.06,15.83,4.31c2.49.68,7.96.08,8.82-5.92l3.69-18.55c.78-3.47-2.87-8.84-6.12-9.98Z"/>
    </clipPath>
  </defs>
  <g id="Layer_1" data-name="Layer 1">
    <g>
      <path class="cls-8" d="m10.45,114c6.57-15.78,21.99-97.09,27.32-110.97.46-1.21,1.8-1.84,3.03-1.43l11.7,3.89c1.3.43,1.99,1.86,1.51,3.14l-24.6,109.61c-.4,1.1-1.53,1.75-2.69,1.55l-14.44-2.47c-1.54-.26-2.43-1.88-1.83-3.32Z"/>
      <path class="cls-7" d="m66.4,22.3L18.41,5.43,5.79,42.01l54.21,14.75c2.49.68,7.96.08,8.82-5.92l3.69-18.55c.78-3.47-2.87-8.84-6.12-9.98Z"/>
      <path class="cls-7" d="m11.23,40.67c-3.46,2.53-8.38.77-9.49-3.37C-.37,29.4,4.45,8.43,14.74,6.28c14.53-3.04,6.59,27-3.51,34.39Z"/>
      <path class="cls-8" d="m26.49,49.21s10.58-8.78,17.69,3.25l-1.36,6.07"/>
      <g class="cls-6">
        <g class="cls-5">
          <path class="cls-1" d="m14.88,41.44c2.97,4.55,6.87,5.92,11.75,8.03l4.12-9.77c-4.13-.79-8.27-1.47-12.43-2.13v10.36c8.46-2.54,16.09.93,23.58,4.7s14.12,7.43,21.91,9.41,11.1-9.94,3.33-12.06c-11.75-3.2-23.51-6.3-35.31-9.32-6.31-1.62-11.07,8.16-4.63,10.97,2.16.94,4.99,1.91,6.64,3.65,2.28,2.4.74,5.2-.11,8.04-1.96,6.62-3.7,13.29-5.45,19.98-3.57,13.68-7.16,27.35-10.58,41.07-.55,2.2-.02,4.63,1.65,6.24,5.86,5.62,16.58,2.26,15.71-6.66-.89-9.09-11.98-10.79-16.6-3.52-1.81,2.85-.56,6.78,2.22,8.46,1.7,1.02,2.78.57,4.56.51.81-.32.65-.3-.48.06-1.51.37-1.28.39.68.05,2.52-1.05,7.09-3.87,2.97-7.97l1.65,6.24c4.52-16.83,8.8-33.72,13.14-50.59,1.8-7.01,5.26-16.07,3.16-23.29-1.84-6.33-7.48-9.98-13.11-12.63-1.54,3.66-3.08,7.31-4.63,10.97,11.7,3.35,23.42,6.63,35.17,9.8l3.33-12.06c-17.58-4.42-32.48-17.71-51.68-12.4-4.82,1.33-5.41,9.38,0,10.36,4.14.75,8.28,1.47,12.45,2.08,6.77,1,9.36-7.81,2.84-10.31-5.6-2.14-11.29-3.14-15.82,1.4-.08.08-.11.23-.04.33h0Z"/>
          <path class="cls-1" d="m51.14,7.5c.19-.06.39-.1.59-.12l-.42-.32.19.68c.23.56.29.7.18.4-.11-.33.06.22.06.23l1.28-3.15c.94-.42-.61.28-.85.44-.43.3-.83.64-1.22.98-.73.65-1.24,1.41-1.74,2.23l7.54,3.18c.14-.8.28-1.59.42-2.39l-8.52-1.15-.02.25.16-1.16c-.01.08-.08.7-.17.74l.25-.59c-.24.4-.15.31.27-.27l7.61,3.15c.04-.72.09-1.43.13-2.15.14-2.26-1.84-4.19-3.95-4.47-.97-.13-2.05,0-2.9.54-1.06.68-1.63,1.56-2.09,2.72-.32.79-.63,1.58-.95,2.37l9.15,1.24c-.03-.78-.02-1.63-.22-2.37-.35-1.33-1.14-2.46-2.35-3.14-1.85-1.05-3.83-.6-5.38.69-1.45,1.21-1.6,3.09-1.38,4.82.16,1.23.4,2.41,1.36,3.3.77.71,1.64,1.14,2.68,1.28,2.31.31,4.43-1.1,5.11-3.34.25-.81.49-1.62.74-2.43l-8.94-1.21c.02.72.04,1.43.05,2.15.05,1.89,1.34,3.86,3.27,4.3s3.9-.34,5.04-2.05c.82-1.24,1.31-2.89,1.19-4.39-.18-2.26-1.87-4.45-4.34-4.34s-4.34,1.91-4.34,4.34c0,.81,0,1.63,0,2.44,0,2.06,1.57,3.78,3.58,4.05,2.16.29,3.77-1.01,4.53-2.95.66-1.67.78-3.42.36-5.17-.27-1.12-1.51-2.12-2.69-2.05-.64.04-1.35.1-1.92.43l-.44.34c-.25.3-.48.62-.68.97-.13.09-.4.15-.54.21-.41.18-.11.81.3.7h0Z"/>
          <path class="cls-1" d="m39.26,44.99c2.45-.36,4.43,2.58,6.33,3.78,1.6,1.01,3.1,1.92,5.03,2.13,4.2.47,8.36-2.36,11.44-4.88,7.57-6.19,11.39-15.76,12.03-25.31l-11.31,1.53c2.06,8.04-.67,16.05-6.44,21.86-5.64,5.67,3.03,14.32,8.77,8.77,9.02-8.72,12.13-21.7,8.77-33.69-1.79-6.37-11.02-4.9-11.31,1.53-.31,6.84-3.19,13.01-7.84,17.99-2.57,2.75-4.44,4.35-8.27,4.33-2.58-.02-5,.31-7.55.75-.8.14-.45,1.33.34,1.22h0Z"/>
          <path class="cls-3" d="m2.95,42.17c1.26-1.79,1.11-3.85,1.22-6,.22-4.38.41-8.87,1.59-13.13,1.01-3.64,2.58-7.07,5.2-9.84s5.74-3.79,9.17-5.37c1.79-.82.77-3.44-.95-3.5-6.71-.22-12.54,6.06-15.22,11.66-1.66,3.46-2.43,7.2-2.65,11.01-.13,2.21.03,4.39.31,6.59s1.83,6.23.88,8.32c-.14.3.25.54.45.26h0Z"/>
          <path class="cls-3" d="m7.19,22.31c.09-1,.34-2.27.96-3.1s1.69-1.26,2.59-1.59l-2-1.52c.04.5-2.11,1.33-2.44,1.45l2.67.71c.38.51.52,1.05.41,1.62.11-.31.1-.3-.02,0,.06-.06.53-.72.22-.36.2-.23.44-.48.69-.66-.38.29.5-.22.6-.27l-4.27-1.12c-.26-.48-.33-.97-.22-1.47-.11.32-.09.32.04,0-.11.28-.28.54-.43.8-.45.76-.9,1.41-1.24,2.24-.5,1.26.34,2.87,1.43,3.51,1.25.73,2.72.43,3.76-.49,1.87-1.63,3.54-5.48,2.04-7.75-.98-1.47-2.69-1.91-4.27-1.12s-3.01,2.33-3.73,3.99c-.84,1.92-.42,4.42,1.65,5.38,1.22.57,2.31.41,3.33-.43,1.76-1.45,4.49-4.46,2.72-6.84-.56-.75-1.75-1.16-2.48-.32-.94,1.09-1.33,2.16-1.85,3.48s-.95,2.44-1.01,3.85c-.02.55.8.53.85,0h0Z"/>
          <path class="cls-3" d="m15.81,26.84c.35,0,.72-.15.96-.4s.41-.62.4-.96-.13-.72-.4-.96-.59-.4-.96-.4c-.35,0-.72.15-.96.4s-.41.62-.4.96.13.72.4.96.59.4.96.4h0Z"/>
          <path class="cls-3" d="m22.05,8.38c-.09.03,4.61,4.05,4.86,4.2,3.16,1.97,6.64,3.48,10.08,4.89,7.66,3.14,15.17,5.56,23.38,6.73,1.62.23,2.28-1.91.69-2.49-12.81-4.64-26.15-8.65-38.57-14-.09-.04-.21-.07-.3,0l-.32.24c-.2.15-.09.52.18.43h0Z"/>
          <path class="cls-3" d="m19.83,61.58c.67-1.1,1.35-2.21,2.02-3.31.06-.1-.1-.2-.16-.09-.65,1.12-1.3,2.24-1.94,3.36-.03.05.05.1.08.05h0Z"/>
          <path class="cls-3" d="m21.67,57.64c3.62,4.55-.9,12.82-2.25,17.49-1.56,5.38-2.97,10.81-4.34,16.23-2.62,10.35-5.44,20.7-6.24,31.38-.1,1.32,1.7,1.32,2.12.29,5.07-12.49,7.42-26.09,10.05-39.26,1.15-5.76,2.55-11.63,3.08-17.5.29-3.28.29-6.48-2.19-8.87-.16-.15-.36.07-.23.23h0Z"/>
          <path class="cls-3" d="m35.71,8.68c.68,0,1.59.34,2.22.03.78-.39,1.18-1.64,1.51-2.36.91-2.03,1.61-4.44,1.47-6.68-.08-1.27-1.81-1.89-2.49-.68-1.36,2.4-2.39,6.76-1.36,9.43l.39-.69c-.56.19-1.14.3-1.73.34-.38.04-.4.61,0,.61h0Z"/>
        </g>
      </g>
      <path class="cls-4" d="m44.17,52.23l-14.76,66.29c-.4,1.1-1.53,1.75-2.69,1.55l-14.44-2.47c-1.54-.26-2.43-1.88-1.83-3.32,3.7-8.9,10.22-39.14,16.16-65.87"/>
      <path class="cls-4" d="m35.34,10.91c.94-3.58,1.77-6.37,2.43-8.11.46-1.21,1.8-1.84,3.03-1.43l11.7,3.89c1.3.43,1.99,1.86,1.51,3.14l-1.88,8.37"/>
      <line class="cls-4" x1="35.21" y1="11.11" x2="18.41" y2="5.21"/>
      <path class="cls-4" d="m44.17,52.23l15.83,4.31c2.49.68,7.96.58,8.82-5.42l3.69-18.55c.78-3.47-2.87-8.84-6.12-9.98l-14.33-5.54"/>
      <line class="cls-4" x1="5.79" y1="42.29" x2="26.49" y2="47.42"/>
      <path class="cls-4" d="m11.23,40.44c-3.46,2.53-8.38,1.27-9.49-2.86C-.37,29.68,4.45,8.21,14.74,6.06c14.53-3.04,6.59,27-3.51,34.39Z"/>
      <path class="cls-4" d="m26.49,48.99s10.58-8.78,17.69,3.25l-1.36,6.07"/>
    </g>
  </g>
</svg>