<?xml version="1.0" encoding="UTF-8" standalone="no"?>
<svg
   viewBox="0 0 39.000001 40.000001"
   version="1.1"
   id="svg53"
   sodipodi:docname="right-spiral.svg"
   width="39"
   height="40"
   inkscape:version="1.4.2 (2aeb623e1d, 2025-05-12)"
   xmlns:inkscape="http://www.inkscape.org/namespaces/inkscape"
   xmlns:sodipodi="http://sodipodi.sourceforge.net/DTD/sodipodi-0.dtd"
   xmlns="http://www.w3.org/2000/svg"
   xmlns:svg="http://www.w3.org/2000/svg">
  <sodipodi:namedview
     id="namedview53"
     pagecolor="#ffffff"
     bordercolor="#000000"
     borderopacity="0.25"
     inkscape:showpageshadow="2"
     inkscape:pageopacity="0.0"
     inkscape:pagecheckerboard="0"
     inkscape:deskcolor="#d1d1d1"
     inkscape:zoom="5.4884604"
     inkscape:cx="75.886491"
     inkscape:cy="57.666445"
     inkscape:window-width="1600"
     inkscape:window-height="836"
     inkscape:window-x="0"
     inkscape:window-y="27"
     inkscape:window-maximized="1"
     inkscape:current-layer="Calque_2" />
  <defs
     id="defs2">
    <style
       id="style1">.cls-1,.cls-12,.cls-17,.cls-9{fill:none;}.cls-2{fill:#38a9bf;}.cls-12,.cls-2,.cls-9{stroke:#004355;}.cls-12,.cls-13,.cls-2,.cls-24,.cls-9{stroke-miterlimit:10;}.cls-17,.cls-2,.cls-9{stroke-width:3px;}.cls-3{fill:#3bd9c6;}.cls-4{fill:#b779e7;}.cls-5{opacity:0.72;}.cls-6{fill:#329fbc;}.cls-7{opacity:0.64;}.cls-8{fill:#9d59dc;}.cls-10{fill:#fff;}.cls-11{fill:#dbbcf3;}.cls-12{stroke-width:3px;}.cls-13{fill:#fd9ee0;stroke:#fefdfe;}.cls-14{clip-path:url(#clip-path);}.cls-15{fill:#6b00d4;opacity:0.27;}.cls-16{opacity:0.52;}.cls-17{stroke:#431f52;stroke-linejoin:round;}.cls-18{fill:#9c59db;}.cls-19{clip-path:url(#clip-path-2);}.cls-20{fill:#58d4eb;}.cls-21{opacity:0.44;}.cls-22{opacity:0.53;}.cls-23{opacity:0.46;}.cls-24{fill:#a167c9;stroke:#412563;stroke-width:2px;}</style>
    <clipPath
       id="clip-path"
       transform="translate(0 4.63)">
      <path
         class="cls-1"
         d="m 98.09,27.41 c 0,0 -2.42,-23.72 -22.49,-25.7 C 55.53,-0.27 47.85,22.88 47.91,26.43 a 41.34,41.34 0 0 0 0.77,8 C 50,41 53.81,49.48 64.61,53.38 81.48,59.46 93.46,42.9 93.46,42.9 l 4.44,-8.42 c 0,0 29.88,16.94 31.77,21.09 0,0 0,-6.11 -2.21,-8.56 -2.21,-2.45 -29.37,-19.6 -29.37,-19.6 z"
         id="path1" />
    </clipPath>
    <clipPath
       id="clip-path-2"
       transform="translate(0 4.63)">
      <path
         class="cls-1"
         d="M 42.79,28 C 42.79,28 41.18,2 22.36,6.25 3.54,10.5 -8,44.16 13.48,54.65 34.96,65.14 43.87,48.73 42.79,28 Z"
         id="path2" />
    </clipPath>
  </defs>
  <g
     id="Calque_2"
     data-name="Calque 2">
    <path
       class="cls-10"
       d="m 23.166073,15.875969 a 4.49,4.49 0 0 1 0.9,4.37 c -0.79,1.7 -2.63,2 -4.27,1.54 -3.48,-1.06 -6,-4.71 -5.15,-8.36 0.83,-3.4800003 4.32,-5.2700003 7.69,-5.2100003 a 11.61,11.61 0 0 1 8.4,3.9100003 c 4.91,5.48 2.7,14.33 -2.41,18.799999 -5.61,4.91 -14.67,4.81 -19.5300004,-1.13 -2.9,-3.549999 -3.83,-8.799999 -4,-13.259999 a 30.59,30.59 0 0 1 0.59,-7.2100003 c 0.49,-2.4 1.53,-4.62 1.64,-7.07 a 1.34,1.34 0 0 0 -2.26,-0.93 c -2,1.88 -2.67,4.77 -3.24,7.38 A 35.31,35.31 0 0 0 0.70607265,16.965969 c 0.13,5.47 1.45999995,11.339999 4.99999995,15.639999 6.7900004,8.23 19.5200004,7.51 26.6200004,0.14 6.85,-7.099999 7.3,-19.409999 -1,-25.5999993 a 14.51,14.51 0 0 0 -12.64,-2.47 c -4.87,1.5 -8.49,5.8900003 -7.95,11.1400003 0.56,5.46 6.12,11 11.92,9.67 5.42,-1.2 7.31,-9.36 1.64,-11.57 -1.22,-0.48 -1.74,1.15 -1.13,1.96 z"
       id="path40" />
  </g>
</svg>
