<?xml version="1.0" encoding="UTF-8"?>
<svg id="Calque_2" data-name="Calque 2" xmlns="http://www.w3.org/2000/svg" xmlns:xlink="http://www.w3.org/1999/xlink" viewBox="0 0 111.73 123.1">
  <defs>
    <style>
      .cls-1, .cls-2, .cls-3 {
        stroke: #131e3e;
        stroke-width: 2.01px;
      }

      .cls-1, .cls-2, .cls-4 {
        stroke-linecap: round;
        stroke-linejoin: round;
      }

      .cls-1, .cls-5, .cls-3 {
        fill: none;
      }

      .cls-6 {
        fill: #782d3e;
      }

      .cls-6, .cls-5, .cls-7, .cls-8 {
        stroke-width: 0px;
      }

      .cls-9 {
        opacity: .64;
      }

      .cls-2 {
        fill: #ccc6c8;
      }

      .cls-10 {
        opacity: .45;
      }

      .cls-7 {
        fill: #fff;
      }

      .cls-11 {
        opacity: .16;
      }

      .cls-12 {
        clip-path: url(#clippath);
      }

      .cls-8 {
        fill: #effdf3;
      }

      .cls-3 {
        stroke-miterlimit: 10;
      }

      .cls-4 {
        fill: #ade9e1;
        stroke: #005c74;
        stroke-width: 2.52px;
      }
    </style>
    <clipPath id="clippath">
      <path class="cls-5" d="m107.03,108.28l-37.12-46.83c.12-.17.24-.34.35-.51,16.97-26.5,3.07-46.4-10.27-54.15C46.09-1.29,28.67-.91,15.29,7.99,5.03,14.82-4.6,31.17,4.89,49.43c12.28,23.61,31.89,24.75,44.21,22.6,2.27-.39,4.87-1.07,7.49-1.99l36.06,46.7s7.6,8.96,14.85,3.34c7.24-5.62-.47-11.8-.47-11.8Z"/>
    </clipPath>
  </defs>
  <g id="Layer_1" data-name="Layer 1">
    <g>
      <path class="cls-2" d="m107.15,108.44l-37.12-46.83c.12-.17.24-.34.35-.51,16.97-26.5,3.07-46.4-10.27-54.15C46.21-1.13,28.79-.75,15.41,8.16,5.15,14.98-4.48,31.33,5.01,49.59c12.28,23.61,31.89,24.75,44.21,22.6,2.27-.39,4.87-1.07,7.49-1.99l36.06,46.7s7.6,8.96,14.85,3.34c7.24-5.62-.47-11.8-.47-11.8Z"/>
      <g class="cls-10">
        <g class="cls-12">
          <path class="cls-6" d="m.67,19.78c-5.67,12.03-1.74,27.01,6.07,37.2,8.06,10.53,20.94,16.63,34.17,16.73,3.31.02,6.59-.43,9.84-1.06,1.36-.26,3.68-1.14,5.01-.36.95.56,2.06,2.98,2.59,3.85,3.95,6.38,8.19,12.56,12.74,18.54,9.36,12.31,19.8,23.83,31.52,33.93,5.19,4.48,12.75-2.89,7.6-7.6-10.48-9.59-20.36-19.77-29.06-31.02-4.44-5.75-8.59-11.73-12.44-17.89-3.21-5.12-6.17-10.37-12.85-10.88-6.05-.47-11.86,2.11-18.03,1.59s-12.32-2.9-17.41-6.51c-11.77-8.35-14.25-21.71-14.82-35.17-.1-2.42-3.73-3.85-4.92-1.33h0Z"/>
          <path class="cls-8" d="m16.72,12.42c5.85-3.85,13.06-3.86,19.84-4.04,7.36-.2,14.33.69,20.83,4.39,13.39,7.62,18.08,21.98,15.84,36.61-.52,3.38,4.16,4.86,5.23,1.44,5.03-16.11-3.3-34.25-17.49-42.67-7.24-4.3-15.23-5.64-23.55-5.28s-16.32,1.4-22.48,7.26c-1.18,1.13.37,3.22,1.77,2.3h0Z"/>
          <path class="cls-8" d="m71.76,69.71c6.41,9.67,13.51,18.84,20.53,28.07,6.65,8.73,12.94,18.49,20.89,26.1,1.5,1.43,3.84-.38,2.85-2.2-5.44-10.07-13.52-19.04-20.45-28.11-6.77-8.86-13.49-17.76-20.82-26.17-1.42-1.62-4.2.51-3,2.31h0Z"/>
        </g>
      </g>
      <g class="cls-9">
        <path class="cls-7" d="m9.25,27.36c-7.08,11.77.83,24.46,10.07,31.89,11.23,9.04,27.87,10.93,40.66,3.7,2.04-1.16.67-4.44-1.6-3.79-12.53,3.55-24.57,5.22-35.5-3.46-3.77-3-8.44-7.03-10.24-11.6-1.99-5.04-1.55-10.38-.72-15.6.25-1.56-1.76-2.64-2.67-1.13h0Z"/>
      </g>
      <path class="cls-7" d="m75.46,86.8c2.87-2.2,6.26-2.79,9.64-1.5,1.95.74,3.24-2.39,1.42-3.36-4.43-2.36-10.05-1.13-12.83,3.08-.68,1.03.73,2.57,1.77,1.77h0Z"/>
      <path class="cls-7" d="m87.41,100.56c1.15-1.16,2.83-2.13,4.45-2.38s3.22.33,4.84.25c1.02-.05,1.78-1.16,1.2-2.09-1.4-2.26-4.45-2.52-6.83-2-2.62.57-4.73,2.08-5.85,4.54-.62,1.36,1,2.88,2.19,1.69h0Z"/>
      <path class="cls-7" d="m49.57,6.97c7.47,0,13.79,7.01,18.08,12.31,1.04,1.29,3.46-.1,2.84-1.65-2.95-7.32-13.17-14.82-21.25-13.11-1.4.3-1.06,2.46.33,2.45h0Z"/>
      <path class="cls-3" d="m81.6,102.43s6.24-10.05,14.31-8.17"/>
      <path class="cls-3" d="m70.96,88.65s2.08-11.34,14.88-7.09"/>
      <g>
        <path class="cls-4" d="m72.61,37.14c0,14.85-12.95,26.89-28.92,26.89S10.51,51.99,10.51,37.14s11.2-28.98,27.17-28.98c18.72,0,34.93,14.13,34.93,28.98Z"/>
        <g class="cls-11">
          <path class="cls-6" d="m20.85,39.5c-3.17,10.41,11.66,18.32,19.88,19.17,10.28,1.06,23.2-5.18,26.24-15.66.51-1.76.02-4.07-1.4-5.31-2.88-2.5-6.23-1.74-8.65,1.04-3,3.46-5.24,6.56-9.83,8.04-3.97,1.28-8.12.68-11.81-1.17-3.94-1.97-6.49-6.02-10.41-7.74-1.63-.72-3.46-.2-4.02,1.63h0Z"/>
        </g>
        <g class="cls-11">
          <path class="cls-6" d="m17.54,29.35l.29.47c2.75,4.51,9.29-1.01,5.52-4.26l-.43-.37c-2.82-2.43-7.51.65-5.38,4.15h0Z"/>
        </g>
        <path class="cls-8" d="m35.59,18.48c.32.11.48.37.49.78l-3.09,3.09c1.4.02,2.46-.07,3.73.56l.96-7.34c-.45.15-.9.27-1.35.41-.24.07-.47.15-.71.22-.12.03-1.13.2-.51.13s-.27.03-.31-.01c-.26-.01-.23,0,.08.04.3.06.34.06.1,0-.36-.11.46.27.57.36.35.27.65.65.78,1.08l-2.04,5.01c.21-.16.42-.31.65-.43-.48.17-.47.18.02.02.52-.11.51-.12-.04-.03.26-.01.52-.01.78.01-.55-.08-.56-.06-.04.05.49.17.5.16,0-.02.43.28.45.26.04-.05.36.37.38.36.06-.05l3.94-6.87c-1.36.13-2.51.43-3.73,1.07-.26.13-.77.34-.95.54.45-.49,1.82-.43,2.31-.06l1.67,1.67c-.43,3.48-.35,4.42.23,2.85.31-.76.3-.7-.05.17l-1.48,1.48.15-.07-2.02.55h.19c2.65.18,4.17-2.57,3.71-4.85-.51-2.48-3.37-3.88-5.71-3.24-2.66.73-4.38,3.83-3.65,6.48s3.18,4.14,5.74,4.09c1.22-.02,2.36-.39,3.44-.96.31-.16.62-.35.91-.56.68-.51-.39-.03.47-.17,1.52-.23,2.81-1.79,3.19-3.19.47-1.69-.11-3.15-1.17-4.44-3.04-3.69-9.3-4.59-13.14-1.64-1.5,1.15-2.73,3.01-2.04,5.01,2.16,6.24,9.51,5.65,13.81,2.13,1.21-.99,1.42-3.06.83-4.39-.68-1.56-2.01-2.31-3.67-2.47-2.42-.23-5.12.13-7.32,1.17-1.48.7-1.94,2.91-1.11,4.23,1.08,1.7,2.59,2.59,4.58,2.8,1.28.14,2.43-1.1,2.57-2.27.16-1.37-.63-2.39-1.87-2.87h0Z"/>
        <path class="cls-8" d="m50.28,23.92c.53.88,1.27,1.51,2.22,1.9.39.16.79.26,1.18.41-.21-.13-.16-.1.15.08-.2-.12-.18-.07.06.17l-.77-1.33.08.25.31-2.38c-.22.27-.36.57-.43.92-.29,1.44-.07,1.2.64-.69l1.47-.86c1.28-.46,2.72.62,3.04,1.81v1.79l.02-.11-.87,1.49-.46.36-2.6.34c-.34-.15-.34-.13.01.06-.28-.24-.27-.22.02.04.26.29.28.3.03.02.11.17.2.35.28.54l3.88-5.05c-.09-.02-.87-.27-.5-.11.35.15-.43-.28-.43-.28.61.39-.43-.36-.5-.4-.14-.09-1.52-.72-.83-.39-2.5-1.22-5.13.78-4.57,3.52.48,2.38,2.71,3.88,5,4.3,2.95.55,5.34-2.27,3.88-5.05-.83-1.58-2.18-2.74-3.8-3.42-1.36-.57-3.05-.48-4.11.68-.86.93-1.33,2.21-.96,3.48.54,1.82,2.2,2.95,4.06,3.03,1,.04,2.08-.44,2.76-1.15,1.08-1.11,1.15-2.48.94-3.93-.23-1.57-1.87-2.26-3.21-2.44h-.1c.52.13,1.04.27,1.56.41-.86-.66-1.81-.97-2.89-1.07-.35-.03-.69-.03-1.04-.05-.19,0-.76-.2-.4,0-1.97-1.1-4.33,1.13-3.13,3.13h0Z"/>
      </g>
      <path class="cls-1" d="m107.03,108.28l-37.12-46.83c.12-.17.24-.34.35-.51,16.97-26.5,3.07-46.4-10.27-54.15C46.09-1.29,28.67-.91,15.29,7.99,5.03,14.82-4.6,31.17,4.89,49.43c12.28,23.61,31.89,24.75,44.21,22.6,2.27-.39,4.87-1.07,7.49-1.99l36.06,46.7s7.6,8.96,14.85,3.34c7.24-5.62-.47-11.8-.47-11.8Z"/>
    </g>
  </g>
</svg>