<?xml version="1.0" encoding="UTF-8" standalone="no"?>
<svg
   id="Calque_2"
   data-name="Calque 2"
   viewBox="0 0 111.73 123.1"
   version="1.1"
   sodipodi:docname="magnifier-alpha.svg"
   inkscape:version="1.4.2 (2aeb623e1d, 2025-05-12)"
   xmlns:inkscape="http://www.inkscape.org/namespaces/inkscape"
   xmlns:sodipodi="http://sodipodi.sourceforge.net/DTD/sodipodi-0.dtd"
   xmlns="http://www.w3.org/2000/svg"
   xmlns:svg="http://www.w3.org/2000/svg">
  <sodipodi:namedview
     id="namedview17"
     pagecolor="#ffffff"
     bordercolor="#000000"
     borderopacity="0.25"
     inkscape:showpageshadow="2"
     inkscape:pageopacity="0.0"
     inkscape:pagecheckerboard="0"
     inkscape:deskcolor="#d1d1d1"
     showgrid="false"
     inkscape:zoom="5.125914"
     inkscape:cx="55.794928"
     inkscape:cy="61.549999"
     inkscape:window-width="1600"
     inkscape:window-height="836"
     inkscape:window-x="0"
     inkscape:window-y="27"
     inkscape:window-maximized="1"
     inkscape:current-layer="g17" />
  <defs
     id="defs1">
    <style
       id="style1">
      .cls-1, .cls-2, .cls-3 {
        stroke: #131e3e;
        stroke-width: 2.01px;
      }

      .cls-1, .cls-2, .cls-4 {
        stroke-linecap: round;
        stroke-linejoin: round;
      }

      .cls-1, .cls-5, .cls-3 {
        fill: none;
      }

      .cls-6 {
        fill: #782d3e;
      }

      .cls-6, .cls-5, .cls-7, .cls-8 {
        stroke-width: 0px;
      }

      .cls-9 {
        opacity: .64;
      }

      .cls-2 {
        fill: #ccc6c8;
      }

      .cls-10 {
        opacity: .45;
      }

      .cls-7 {
        fill: #fff;
      }

      .cls-11 {
        opacity: .16;
      }

      .cls-12 {
        clip-path: url(#clippath);
      }

      .cls-8 {
        fill: #effdf3;
      }

      .cls-3 {
        stroke-miterlimit: 10;
      }

      .cls-4 {
        fill: #ade9e1;
        stroke: #005c74;
        stroke-width: 2.52px;
      }
    </style>
    <clipPath
       id="clippath">
      <path
         class="cls-5"
         d="m107.03,108.28l-37.12-46.83c.12-.17.24-.34.35-.51,16.97-26.5,3.07-46.4-10.27-54.15C46.09-1.29,28.67-.91,15.29,7.99,5.03,14.82-4.6,31.17,4.89,49.43c12.28,23.61,31.89,24.75,44.21,22.6,2.27-.39,4.87-1.07,7.49-1.99l36.06,46.7s7.6,8.96,14.85,3.34c7.24-5.62-.47-11.8-.47-11.8Z"
         id="path1" />
    </clipPath>
  </defs>
  <g
     id="Layer_1"
     data-name="Layer 1">
    <g
       id="g17"
       sodipodi:insensitive="true">
      <path
         class="cls-2"
         d="M 107.15,108.44 70.03,61.61 C 70.15,61.44 70.27,61.27 70.38,61.1 87.35,34.6 73.45,14.7 60.11,6.95 46.21,-1.13 28.79,-0.75 15.41,8.16 5.15,14.98 -4.48,31.33 5.01,49.59 17.29,73.2 36.9,74.34 49.22,72.19 51.49,71.8 54.09,71.12 56.71,70.2 l 36.06,46.7 c 0,0 7.6,8.96 14.85,3.34 7.24,-5.62 -0.47,-11.8 -0.47,-11.8 z"
         id="path2"
         style="display:none" />
      <path
         d="M 37.564453,1.1835937 C 29.799453,1.3823438 22.100156,3.7051562 15.410156,8.1601563 5.1501562,14.980156 -4.4802344,31.329844 5.0097656,49.589844 c 12.2800004,23.61 31.8909374,24.749609 44.2109374,22.599609 2.27,-0.39 4.870235,-1.070234 7.490234,-1.990234 l 36.058594,46.701171 c 0,0 7.599609,8.95984 14.849609,3.33984 7.24,-5.62 -0.46875,-11.80078 -0.46875,-11.80078 L 70.029297,61.609375 c 0.12,-0.17 0.241562,-0.339766 0.351562,-0.509766 16.97,-26.5 3.068516,-46.40039 -10.271484,-54.1503903 -6.95,-4.0399999 -14.779922,-5.96437495 -22.544922,-5.765625 z m 0.115234,6.9765626 c 18.72,0 34.929688,14.1304687 34.929688,28.9804687 0,14.85 -12.949922,26.888672 -28.919922,26.888672 -15.97,0 -33.179687,-12.038672 -33.179687,-26.888672 0,-14.85 11.199921,-28.9804688 27.169921,-28.9804687 z"
         style="display:inline;fill:#ccc6c8;stroke:#131e3e;stroke-width:2.01px;stroke-linecap:round;stroke-linejoin:round"
         id="path19" />
      <path
         d="M 37.564453,1.1835937 C 29.799453,1.3823438 22.100156,3.7051562 15.410156,8.1601563 5.1501562,14.980156 -4.4802344,31.329844 5.0097656,49.589844 c 12.2800004,23.61 31.8909374,24.749609 44.2109374,22.599609 2.27,-0.39 4.870235,-1.070234 7.490234,-1.990234 l 36.058594,46.701171 c 0,0 7.599609,8.95984 14.849609,3.33984 7.24,-5.62 -0.46875,-11.80078 -0.46875,-11.80078 L 70.029297,61.609375 c 0.12,-0.17 0.241562,-0.339766 0.351562,-0.509766 16.97,-26.5 3.068516,-46.40039 -10.271484,-54.1503903 -6.95,-4.0399999 -14.779922,-5.96437495 -22.544922,-5.765625 z m 0.115234,6.9765626 c 18.72,0 34.929688,14.1304687 34.929688,28.9804687 0,14.85 -12.949922,26.888672 -28.919922,26.888672 -15.97,0 -33.179687,-12.038672 -33.179687,-26.888672 0,-14.85 11.199921,-28.9804688 27.169921,-28.9804687 z"
         style="display:inline;fill:#ccc6c8;stroke:#131e3e;stroke-width:2.01px;stroke-linecap:round;stroke-linejoin:round"
         id="path18" />
      <g
         class="cls-10"
         id="g6"
         sodipodi:insensitive="true">
        <g
           class="cls-12"
           clip-path="url(#clippath)"
           id="g5">
          <path
             class="cls-6"
             d="m 0.67,19.78 c -5.67,12.03 -1.74,27.01 6.07,37.2 8.06,10.53 20.94,16.63 34.17,16.73 3.31,0.02 6.59,-0.43 9.84,-1.06 1.36,-0.26 3.68,-1.14 5.01,-0.36 0.95,0.56 2.06,2.98 2.59,3.85 3.95,6.38 8.19,12.56 12.74,18.54 9.36,12.31 19.8,23.83 31.52,33.93 5.19,4.48 12.75,-2.89 7.6,-7.6 C 99.73,111.42 89.85,101.24 81.15,89.99 76.71,84.24 72.56,78.26 68.71,72.1 65.5,66.98 62.54,61.73 55.86,61.22 49.81,60.75 44,63.33 37.83,62.81 31.66,62.29 25.51,59.91 20.42,56.3 8.65,47.95 6.17,34.59 5.6,21.13 5.5,18.71 1.87,17.28 0.68,19.8 v 0 z"
             id="path3" />
          <path
             class="cls-8"
             d="m 16.72,12.42 c 5.85,-3.85 13.06,-3.86 19.84,-4.04 7.36,-0.2 14.33,0.69 20.83,4.39 13.39,7.62 18.08,21.98 15.84,36.61 -0.52,3.38 4.16,4.86 5.23,1.44 C 83.49,34.71 75.16,16.57 60.97,8.15 53.73,3.85 45.74,2.51 37.42,2.87 29.1,3.23 21.1,4.27 14.94,10.13 c -1.18,1.13 0.37,3.22 1.77,2.3 v 0 z"
             id="path4" />
          <path
             class="cls-8"
             d="m 71.76,69.71 c 6.41,9.67 13.51,18.84 20.53,28.07 6.65,8.73 12.94,18.49 20.89,26.1 1.5,1.43 3.84,-0.38 2.85,-2.2 C 110.59,111.61 102.51,102.64 95.58,93.57 88.81,84.71 82.09,75.81 74.76,67.4 c -1.42,-1.62 -4.2,0.51 -3,2.31 z"
             id="path5" />
        </g>
      </g>
      <g
         class="cls-9"
         id="g7"
         sodipodi:insensitive="true">
        <path
           class="cls-7"
           d="m 9.25,27.36 c -7.08,11.77 0.83,24.46 10.07,31.89 11.23,9.04 27.87,10.93 40.66,3.7 2.04,-1.16 0.67,-4.44 -1.6,-3.79 C 45.85,62.71 33.81,64.38 22.88,55.7 19.11,52.7 14.44,48.67 12.64,44.1 10.65,39.06 11.09,33.72 11.92,28.5 12.17,26.94 10.16,25.86 9.25,27.37 v 0 z"
           id="path6" />
      </g>
      <path
         class="cls-7"
         d="m 75.46,86.8 c 2.87,-2.2 6.26,-2.79 9.64,-1.5 1.95,0.74 3.24,-2.39 1.42,-3.36 -4.43,-2.36 -10.05,-1.13 -12.83,3.08 -0.68,1.03 0.73,2.57 1.77,1.77 v 0 z"
         id="path7"
         sodipodi:insensitive="true" />
      <path
         class="cls-7"
         d="m 87.41,100.56 c 1.15,-1.16 2.83,-2.13 4.45,-2.38 1.62,-0.25 3.22,0.33 4.84,0.25 1.02,-0.05 1.78,-1.16 1.2,-2.09 -1.4,-2.26 -4.45,-2.52 -6.83,-2 -2.62,0.57 -4.73,2.08 -5.85,4.54 -0.62,1.36 1,2.88 2.19,1.69 v 0 z"
         id="path8"
         sodipodi:insensitive="true" />
      <path
         class="cls-7"
         d="m 49.57,6.97 c 7.47,0 13.79,7.01 18.08,12.31 1.04,1.29 3.46,-0.1 2.84,-1.65 C 67.54,10.31 57.32,2.81 49.24,4.52 c -1.4,0.3 -1.06,2.46 0.33,2.45 z"
         id="path9"
         sodipodi:insensitive="true" />
      <path
         class="cls-3"
         d="m 81.6,102.43 c 0,0 6.24,-10.05 14.31,-8.17"
         id="path10"
         sodipodi:insensitive="true" />
      <path
         class="cls-3"
         d="m 70.96,88.65 c 0,0 2.08,-11.34 14.88,-7.09"
         id="path11" />
      <g
         id="g16"
         sodipodi:insensitive="true">
        <path
           class="cls-4"
           d="m 72.61,37.14 c 0,14.85 -12.95,26.89 -28.92,26.89 -15.97,0 -33.18,-12.04 -33.18,-26.89 0,-14.85 11.2,-28.98 27.17,-28.98 18.72,0 34.93,14.13 34.93,28.98 z"
           id="path12"
           sodipodi:nodetypes="sssss"
           style="display:inline;opacity:0.251;mix-blend-mode:normal" />
        <g
           class="cls-11"
           id="g13"
           sodipodi:insensitive="true">
          <path
             class="cls-6"
             d="m 20.85,39.5 c -3.17,10.41 11.66,18.32 19.88,19.17 10.28,1.06 23.2,-5.18 26.24,-15.66 0.51,-1.76 0.02,-4.07 -1.4,-5.31 -2.88,-2.5 -6.23,-1.74 -8.65,1.04 -3,3.46 -5.24,6.56 -9.83,8.04 -3.97,1.28 -8.12,0.68 -11.81,-1.17 -3.94,-1.97 -6.49,-6.02 -10.41,-7.74 -1.63,-0.72 -3.46,-0.2 -4.02,1.63 z"
             id="path13" />
        </g>
        <g
           class="cls-11"
           id="g14"
           sodipodi:insensitive="true">
          <path
             class="cls-6"
             d="m 17.54,29.35 0.29,0.47 c 2.75,4.51 9.29,-1.01 5.52,-4.26 l -0.43,-0.37 c -2.82,-2.43 -7.51,0.65 -5.38,4.15 v 0 z"
             id="path14" />
        </g>
        <path
           class="cls-8"
           d="m 35.59,18.48 c 0.32,0.11 0.48,0.37 0.49,0.78 l -3.09,3.09 c 1.4,0.02 2.46,-0.07 3.73,0.56 l 0.96,-7.34 c -0.45,0.15 -0.9,0.27 -1.35,0.41 -0.24,0.07 -0.47,0.15 -0.71,0.22 -0.12,0.03 -1.13,0.2 -0.51,0.13 0.62,-0.07 -0.27,0.03 -0.31,-0.01 -0.26,-0.01 -0.23,0 0.08,0.04 0.3,0.06 0.34,0.06 0.1,0 -0.36,-0.11 0.46,0.27 0.57,0.36 0.35,0.27 0.65,0.65 0.78,1.08 l -2.04,5.01 c 0.21,-0.16 0.42,-0.31 0.65,-0.43 -0.48,0.17 -0.47,0.18 0.02,0.02 0.52,-0.11 0.51,-0.12 -0.04,-0.03 0.26,-0.01 0.52,-0.01 0.78,0.01 -0.55,-0.08 -0.56,-0.06 -0.04,0.05 0.49,0.17 0.5,0.16 0,-0.02 0.43,0.28 0.45,0.26 0.04,-0.05 0.36,0.37 0.38,0.36 0.06,-0.05 l 3.94,-6.87 c -1.36,0.13 -2.51,0.43 -3.73,1.07 -0.26,0.13 -0.77,0.34 -0.95,0.54 0.45,-0.49 1.82,-0.43 2.31,-0.06 L 39,18.66 c -0.43,3.48 -0.35,4.42 0.23,2.85 0.31,-0.76 0.3,-0.7 -0.05,0.17 l -1.48,1.48 0.15,-0.07 -2.02,0.55 h 0.19 c 2.65,0.18 4.17,-2.57 3.71,-4.85 -0.51,-2.48 -3.37,-3.88 -5.71,-3.24 -2.66,0.73 -4.38,3.83 -3.65,6.48 0.73,2.65 3.18,4.14 5.74,4.09 1.22,-0.02 2.36,-0.39 3.44,-0.96 0.31,-0.16 0.62,-0.35 0.91,-0.56 0.68,-0.51 -0.39,-0.03 0.47,-0.17 1.52,-0.23 2.81,-1.79 3.19,-3.19 0.47,-1.69 -0.11,-3.15 -1.17,-4.44 -3.04,-3.69 -9.3,-4.59 -13.14,-1.64 -1.5,1.15 -2.73,3.01 -2.04,5.01 2.16,6.24 9.51,5.65 13.81,2.13 1.21,-0.99 1.42,-3.06 0.83,-4.39 -0.68,-1.56 -2.01,-2.31 -3.67,-2.47 -2.42,-0.23 -5.12,0.13 -7.32,1.17 -1.48,0.7 -1.94,2.91 -1.11,4.23 1.08,1.7 2.59,2.59 4.58,2.8 1.28,0.14 2.43,-1.1 2.57,-2.27 C 37.62,20 36.83,18.98 35.59,18.5 v 0 z"
           id="path15"
           sodipodi:insensitive="true" />
        <path
           class="cls-8"
           d="m 50.28,23.92 c 0.53,0.88 1.27,1.51 2.22,1.9 0.39,0.16 0.79,0.26 1.18,0.41 -0.21,-0.13 -0.16,-0.1 0.15,0.08 -0.2,-0.12 -0.18,-0.07 0.06,0.17 l -0.77,-1.33 0.08,0.25 0.31,-2.38 c -0.22,0.27 -0.36,0.57 -0.43,0.92 -0.29,1.44 -0.07,1.2 0.64,-0.69 l 1.47,-0.86 c 1.28,-0.46 2.72,0.62 3.04,1.81 v 1.79 l 0.02,-0.11 -0.87,1.49 -0.46,0.36 -2.6,0.34 c -0.34,-0.15 -0.34,-0.13 0.01,0.06 -0.28,-0.24 -0.27,-0.22 0.02,0.04 0.26,0.29 0.28,0.3 0.03,0.02 0.11,0.17 0.2,0.35 0.28,0.54 l 3.88,-5.05 c -0.09,-0.02 -0.87,-0.27 -0.5,-0.11 0.35,0.15 -0.43,-0.28 -0.43,-0.28 0.61,0.39 -0.43,-0.36 -0.5,-0.4 -0.14,-0.09 -1.52,-0.72 -0.83,-0.39 -2.5,-1.22 -5.13,0.78 -4.57,3.52 0.48,2.38 2.71,3.88 5,4.3 2.95,0.55 5.34,-2.27 3.88,-5.05 -0.83,-1.58 -2.18,-2.74 -3.8,-3.42 -1.36,-0.57 -3.05,-0.48 -4.11,0.68 -0.86,0.93 -1.33,2.21 -0.96,3.48 0.54,1.82 2.2,2.95 4.06,3.03 1,0.04 2.08,-0.44 2.76,-1.15 1.08,-1.11 1.15,-2.48 0.94,-3.93 -0.23,-1.57 -1.87,-2.26 -3.21,-2.44 h -0.1 c 0.52,0.13 1.04,0.27 1.56,0.41 -0.86,-0.66 -1.81,-0.97 -2.89,-1.07 -0.35,-0.03 -0.69,-0.03 -1.04,-0.05 -0.19,0 -0.76,-0.2 -0.4,0 -1.97,-1.1 -4.33,1.13 -3.13,3.13 v 0 z"
           id="path16"
           sodipodi:insensitive="true" />
      </g>
      <path
         class="cls-1"
         d="M 107.03,108.28 69.91,61.45 c 0.12,-0.17 0.24,-0.34 0.35,-0.51 C 87.23,34.44 73.33,14.54 59.99,6.79 46.09,-1.29 28.67,-0.91 15.29,7.99 5.03,14.82 -4.6,31.17 4.89,49.43 c 12.28,23.61 31.89,24.75 44.21,22.6 2.27,-0.39 4.87,-1.07 7.49,-1.99 l 36.06,46.7 c 0,0 7.6,8.96 14.85,3.34 7.24,-5.62 -0.47,-11.8 -0.47,-11.8 z"
         id="path17"
         sodipodi:insensitive="true" />
    </g>
  </g>
</svg>
