<svg xmlns="http://www.w3.org/2000/svg" xmlns:xlink="http://www.w3.org/1999/xlink" data-name="Calque 2" viewBox="0 0 94.44 100.66" style="fill: rgb(0, 0, 0);" original_string_length="10892" width="145.8998989260047px" height="157.03511626086612px"><defs><clipPath id="__id0_sirs71cxwp"><path d="m85.51,77.22c-15.83-3.08-13.13,7.89-11.65,11.94-2.25-5.9-9.43-29.25,4.27-57.54,15.01-4.2,12.59-19.07,9.7-25.38-3.2-6.98-17.75-4.07-41.31,1.16C22.96,12.63,10.16,3.62,8.71,3.32c-1.45-.29-13.09,9.6-6.4,20.36,2.21,3.55,7.39,5.71,13.35,7.01-7.97,18.61-24.59,62.7,3.53,66.89,27.47,4.09,52.45,1.8,62.11.59,2.85-.35,5.4-1.93,6.97-4.33,3.46-5.3,7.77-14.57-2.75-16.62Z" stroke-width="0" style="fill: none;"/></clipPath></defs><g data-name="Layer 1"><g><path d="m20.23,21.67c-.29,2.04-35.2,69.82,0,75.05,27.47,4.09,52.45,1.8,62.11.59,2.85-.35,5.4-1.93,6.97-4.33,3.46-5.3,7.77-14.57-2.75-16.62-19.3-3.76-11.05,13.38-11.05,13.38,0,0-14.55-31.13,8.73-68.07H20.23Z" stroke="#733d00" stroke-linecap="round" stroke-linejoin="round" stroke-width="2.51" style="fill: rgb(243, 145, 188);"/><path d="m44.08,31.56S10.05,33.59,3.35,22.83C-3.34,12.07,8.3,2.18,9.75,2.47s14.25,9.31,37.82,4.07c23.56-5.24,38.11-8.15,41.31-1.16,3.2,6.98,5.82,24.45-15.13,26.34-20.95,1.88-29.67-.15-29.67-.15Z" stroke="#733d00" stroke-linecap="round" stroke-linejoin="round" stroke-width="2.51" style="fill: rgb(243, 145, 188);"/><path d="m88.88,5.38s-24.05-3.3-16.48,14.16c5.46,12.59,9.5,4.8,11.33-.53.92-2.67-1.21-5.51-4.01-5.15-1.22.16-2.2.95-2.27,3.02" stroke="#733d00" stroke-linecap="round" stroke-linejoin="round" stroke-width="2.51" style="fill: rgb(243, 145, 188);"/><path d="m87.78,94.78c-9.12-.58-12.28-5.04-12.28-5.04,0,0,13.81,3.24,6.21-5.56" stroke="#733d00" stroke-linecap="round" stroke-linejoin="round" stroke-width="2.51" style="fill: rgb(243, 145, 188);"/><g style="fill: rgb(128, 52, 12);"><path d="m45.36,44.53c.89-.61,1.87-.78,2.95-.52l-.54-1.33-.95,1.31c-.54.69-.37,1.61.5,1.91,2.39.82,5.53.85,8.05.75,2.09-.09,3.97-.42,5.27-2.15.39-.52-.15-1.17-.69-1.2-2.17-.13-4.32.54-6.52.48-2.05-.06-4.09-.45-6.11-.08l1.4,1.4.61-1.51c.28-.63-.05-1.33-.78-1.37-1.58-.07-2.9.43-3.57,1.92-.12.26.12.51.39.39h0Z" style="fill: inherit;"/><path d="m61.03,45.39c.64.02,1.28.03,1.91.17.55.12,1.02.21,1.58.21.76,0,.76-1.17,0-1.17-.56,0-1.03.09-1.58.21-.63.14-1.26.14-1.91.17-.27,0-.27.41,0,.42h0Z" style="fill: inherit;"/><path d="m16.7,56.66c-.96,1.24-2.12,2.12-3.48,2.85-.35.19-.45.67-.26,1,.71,1.23,1.81,1.92,3.25,2,1.03.06,1.96-.25,2.9-.65.37-.16.73-.44,1.12-.55,1.02-.3.07-.78.85.27.99,1.33,1.49,2.33,3.25,2.85,1.63.47,3.04.2,4.34-.85.87-.7-.08-2-1.03-1.77-1.56.39-3.17.38-4.35-.93-.5-.55-.65-1.51-1.35-1.89-2.55-1.4-5.06,4.58-7.71.79l-.26,1c1.55-1.01,2.49-2.22,3.17-3.93.11-.27-.28-.37-.43-.18h0Z" style="fill: inherit;"/><path d="m31.74,61.35c.55-.41,1.48-.99,1.71-.04.08.33-.14.86-.15,1.21-.02.67.12,1.33.7,1.74,1.68,1.19,4.33-1.18,5.52-2.22.54-.47-.15-1.19-.71-.92-.69.32-1.39.57-2.11.83-.25.09-1.48.75-1.7.64-.29-.15-.31-1.69-.51-2.04-.75-1.36-2.23-.43-3.02.42-.17.19.06.54.28.37h0Z" style="fill: inherit;"/><path d="m44.47,61.08c-.55.74-.78,1.35-1.06,2.25-.24.78.81,1.38,1.37.79,2.2-2.32,4.74-2.31,7.67-1.87.82.12,1.64.29,2.46.39,1.24.15,2.83-.2,3.99.18l-1-1,.1-.34,1.12-.64-.3.03c-1.43.12-1.59,1.87-.32,2.4l.28.12c.42.17.96-.04,1.26-.33.52-.5.68-.89.67-1.6,0-.48-.26-1.01-.71-1.23-1.38-.67-2.52-.23-4.03-.23-2.2,0-4.36-.57-6.56-.39-2.61.22-4.98,1.21-5.99,3.73l1.49-.2-.18-1.94c.04-.16-.16-.23-.26-.11h0Z" style="fill: inherit;"/><path d="m16.02,75.48c-.09.69-.18,1.35-.26,2.05s.82,1.11,1.35.78c1.77-1.09,3.17-.39,4.48.96.57.59,1.09.98,1.93,1.08,1.99.24,4.41-.98,6.08-1.95.87-.5.52-1.96-.52-1.93-1.44.05-2.68.28-4.06.68s-1.31.61-2.67-.19c-.36-.21-.67-.5-1.06-.69-1.69-.83-3.57-.56-5.09.48l1.23.32c-.25-.56-.5-1.12-.77-1.68-.12-.26-.6-.21-.64.08h0Z" style="fill: inherit;"/><path d="m33.7,77.08c-1.24.61-.78,2.6.06,3.37,1.79,1.65,3.92-.77,4.88-2.13.49-.7-.56-1.43-1.14-.88-.72.68-1.48,1.38-2.5,1.51-.33.04-.62.05-.91-.13-.45-.29-.57-.88-.07-1.2.33-.21.04-.7-.31-.53h0Z" style="fill: inherit;"/><path d="m41.44,77.1l-.41,2.08c-.13.41.23.96.7.91,2.12-.22,3.95-.96,5.96-1.68l-1.1-1.1c-1.46,3.92,3.08,4.52,5.57,2.88,1-.66,2.11-2.55,2.9-1.86.43.37.37,1.29.96,1.77,1.5,1.21,3.01-.02,4.63.2.85.12,1.44-.31,1.55-1.18l.05-.42c.08-.7-.56-1.35-1.17-1.54-.86-.26-2.1.35-2.76.09-.72-.28-.93-1.54-1.63-1.96-.77-.45-1.66-.29-2.44-.08-.71.19-6.03,3.85-5.89,2.34.05-.59-.62-1.01-1.14-.87-1.05.3-5.03,2.4-5.49.38-.04-.17-.26-.11-.28.04h0Z" style="fill: inherit;"/><path d="m31.04,86.79c2.42.69,4.82,1.32,7.28,1.84.82.18,1.18-1.06.35-1.27-2.44-.6-4.89-1.09-7.37-1.53-.62-.11-.88.78-.26.95h0Z" style="fill: inherit;"/><path d="m42.58,88.21c.69.02,1.41-.06,2.02.3.57.34,1.01.58,1.68.33.75-.29.76-1.25,0-1.54-.67-.26-1.11-.01-1.68.33-.61.36-1.33.28-2.02.3-.18,0-.18.28,0,.28h0Z" style="fill: inherit;"/><path d="m19.2,41.25c-.6,1.33-.35,2.82,1.01,3.69,3.12,2,6.76-2.17,9.98-1.3l-.22-1.65c-1.95,1.09-2.08,3.67-.24,4.98,2.58,1.85,5.62-.48,7-2.64l-1.45.38c.86.46,1.68.99,2.45,1.59.66.47,1.42-.56.85-1.11-.74-.65-1.41-1.37-2.02-2.14-.28-.32-.93-.43-1.28-.17-.35.26-.7.52-1.04.78-.89.73-2,.69-3.36-.11.63-.39.57-1.48-.22-1.65-1.21-.27-2.11-.31-3.32.04-.52.15-.82.3-1.32.52-1.12.5-7.9,4.19-6.44-1.04.06-.22-.29-.39-.39-.16h0Z" style="fill: inherit;"/></g><g opacity=".35"><g clip-path="url(#__id0_sirs71cxwp)"><path d="m1.44,15.96c1.24.79,2.08,3.83,2.8,5.11.84,1.5,1.88,3.06,3.04,4.34,2.73,2.98,6.63,4.78,10.47,5.87,8.6,2.45,18.52,2.47,27.4,2.94,9.83.53,19.76.32,29.53-.95,7.91-1.02,19.43-1.92,24.93-8.49,5.62-6.73-3.95-16.49-9.73-9.73-2.08,2.43-6.72,2.8-9.79,3.46-4.2.91-8.44,1.49-12.72,1.83-8.33.67-16.66.45-25,.3-7.52-.14-15.53.22-22.91-1.39-3.36-.73-6.45-2.12-9.63-3.38s-5.01-.55-8.13-.83c-.52-.05-.63.68-.25.92h0Z" style="fill: rgb(130, 38, 62);"/><path d="m82.26,19.42c-.46-.79-.63-2.02-.15-2.87.41-.72.78-.49,1.2-.46l-3.21-1.33c-.41-.5.19.28.26.39.13.2.26.41.39.61l-.16-.4-.08-.61c-.02-.82.22-1.5.72-2.05,1.14-1.59,3.55-1.77,5.17-.95l.55.4c-.4-.45-.44-.49-.13-.11.53.77-.23-.43-.21-.44l.32.74c-.14-.56-.16-.54-.06.04.08.32.07.63-.04.94-.41,3.02-3.11,4-8.11,2.92-2.52-2.75,1.26-6.4,4.29-5.28,2.69.99,3.22,4.2,2.16,6.39-1.03,1.77-2.53,2.12-4.47,1.05-1.81.51-2.98.05-3.51-1.38-1.55-1.97-.99-4.1,1.7-6.4l3.6-.51,2.73,2.16c.93,4.37-.28,6.76-3.62,7.17l-6.69-6.69c.16,1.9.92.78,2.29-3.36,2.58-1.07,4.59-.64,6.02,1.31-.8,3.04-1.59,6.08-2.39,9.11-2.19.46-2.83.68-1.9.65.63,0,1.25-.08,1.87-.23.54-.18,1.15-.45,1.65-.73,2.18-1.25,3.19-3.77,2.87-6.18-.62-4.64-5.45-6.7-9.62-5.68-4.52,1.1-5.7,6.04-3.98,9.79s6.46,5.53,10.21,4.38,6.89-5.02,6.35-9.05c-.5-3.77-2.67-6.44-6.69-6.69-3.22-.2-6.41,1.75-7.95,4.54-1.91,3.46-1.17,7.64,1.61,10.34,2.58,2.52,6.87,3.09,10.02,1.37,3.41-1.86,5.08-5.61,4.29-9.41-.63-3.06-2.93-5.65-5.96-6.54-3.62-1.06-7.77.68-9.68,3.9-3.59,6.04.62,13.56,7.68,13.54,6.44-.02,10.78-6.5,8.84-12.51-.97-3-3.21-5.38-6.21-6.41-3.52-1.2-7.34.53-9.16,3.63-2.81,4.81.46,11.59,4.92,14.16,3.07,1.77,7,1.35,9.56-1.11,2.23-2.15,2.84-5.41,2.02-8.33s-3.51-5.11-6.36-5.9c-3.11-.86-5.74.74-7.33,3.37-2.28,3.75-.92,8.69,3.42,9.94.71.21,1.33-.61.96-1.25h0Z" style="fill: rgb(130, 38, 62);"/><path d="m11.62,29.39l.02-.28c.02-.24-.17-.41-.37-.49-1.79-.68-1.98,1.46-1.33,2.59,1.2,2.1,6.39,3.04,8.5,3.48,3.91.82,7.93,1.19,11.91,1.42,8.16.48,16.31.74,24.48,1,4.03.13,8.07.16,12.1.22,1.97.03,3.94.06,5.9.09,1.31.02,2.62.04,3.94.06,2.13.19,2.61.15,1.45-.1,6.15,3.18,13.96-5.41,7.86-10.19-4.95-3.88-11.2-2.83-17.19-2.87-6.74-.04-13.47-.07-20.2,0-7.08.07-14.2.04-21.27.49-3,.19-6.04.51-8.99,1.08-.67.13-9.45,2.72-7.31,3.77.23.11.48-.03.49-.28h0Z" style="fill: rgb(130, 38, 62);"/><path d="m79.13,86.05c.52-.2,1.04-.4,1.57-.6l-2.77-2.11c.08,1.08.24-.53.76-.9l5.85,1.53c.26.44.28.95.04,1.52l-7.29.94c-.61-.65-.76-1.36-.43-2.13l7.69-.99c-1.16-1.04.36.56-.57-.66.33.43,0-.74-.01-.06,0-.25,0-.83.06-.8.04.02-.32.47-.32.47l-2.53.69.61.05-2.53-.69c.8.35,1.25.61,1.64,1.24.71,1.12-.77-1.21.35.8.43.77-.39.76.26-.29l1.79-1.79,3.35.32,1.29,2.22c.6,1.58-1.62,2.83-2.76,2.17-2.05-1.19-.84-3.58.87-3.69l3.91,1.62-.29-.36,1.43,2.45-2.66,4.41-7.1-5.41c1.21-2.16,1.38-2.79.5-1.88-.45.39-.78.86-.98,1.39-.98,2.31-.77,4.14.79,6.09,3.96,4.97,11.42-.35,10.91-5.6-.35-3.55-3.31-6.47-7.1-5.41-4.25,1.19-6.64,5.95-4.77,10.02,2.35,5.13,8.78,4.4,11.92.5,5.17-6.43-.51-15.65-8.6-13.86-3.83.85-6.42,4.44-6.21,8.31.26,4.78,5.84,8.16,10.12,5.64,7.29-4.3,1.88-16.23-4.8-18.07-4.61-1.27-8.27,2.87-9.01,7.03-.79,4.43,1.04,8.17,4.52,10.84,1.92,1.48,5.75.47,6.7-1.76,1.41-3.33,1.24-6.73-1.47-9.37-2.04-1.99-5.9-1.77-7.29.94-1.78,3.47-.92,6.7,2.13,9.01,1.89,1.44,4.72.22,5.85-1.53,1.7-2.66.35-6.63-2.86-7.38-1.1-.26-2.35.02-3.1.89-1.27,1.45.05,2.41-.14,3.96-.05.39.46.5.7.29h0Z" style="fill: rgb(130, 38, 62);"/><path d="m.08,88.3c2.24,1.03,3.92,2.74,6.13,3.8,1.32.64,2.75,1.22,4.11,1.76,4.02,1.61,8.15,3.15,12.32,4.31,7.96,2.22,16.34,3.26,24.56,3.83s16.77.55,25.16-.07c7.59-.57,15.34-1.42,21.88-5.66,7.31-4.75.86-15.96-6.86-11.73-5.75,3.14-12.31,3.59-18.74,4.05-7.74.55-15.55.73-23.3.49s-14.82-.8-22.24-1.18c-3.66-.19-7.32-.29-10.98-.56s-8.03.34-11.73-.15c-.59-.08-.83.88-.3,1.12H.08Z" style="fill: rgb(130, 38, 62);"/><path d="m7.5,2.19c4.7,5.43,9.75,8.06,17.01,8.98s15-.37,22.41-1.47c8.53-1.27,17.09-2.28,25.62-3.59,4.13-.64,8.26-1.32,12.42-1.74,3.67-.37,7.34.08,10.69-1.58,1.76-.87,1.27-3.08,0-4.06-4.94-3.79-13.58-1.56-19.29-.72-8.16,1.2-16.24,2.79-24.38,4.08-7.63,1.21-15.31,2.78-23.06,2.87-7.25.09-14-2.66-21.1-3.57-.44-.06-.57.53-.33.8h0Z" style="fill: rgb(234, 253, 241);"/><path d="m10.19,1.39c-1.26,1.76-4.11,2.47-5.59,4.35-2.1,2.66-3.31,5.96-3.66,9.32-.52,4.96.79,12.46,6.06,14.38.71.26,1.66-.43,1.58-1.2-.61-5.48-4.27-9.36-2.64-15.3,1-3.64,5.66-7.53,5.21-11.28-.06-.51-.65-.7-.96-.26h0Z" style="fill: rgb(234, 253, 241);"/><path d="m16.49,34.7c-.32,1.84-2.37,3.87-3.25,5.45-.94,1.7-1.71,3.56-2.44,5.35-1.75,4.32-3.01,8.9-3.87,13.47-1.47,7.77-2.74,16.58.44,24.04.42.98,1.95.63,2.19-.29,2.28-8.62,1.49-17.83,3.49-26.61.98-4.28,2.35-8.43,3.72-12.6,1.21-3.66,1.98-5.49.11-8.87-.08-.15-.35-.13-.39.05h0Z" style="fill: rgb(234, 253, 241);"/></g></g><path d="m16.72,30.05c-7.95,18.53-24.73,62.84,3.46,67.03,27.47,4.09,52.45,1.8,62.11.59,2.85-.35,5.4-1.93,6.97-4.33,3.46-5.3,7.77-14.57-2.75-16.62-19.3-3.76-11.05,13.38-11.05,13.38,0,0-12.36-26.45,3.94-59.53" stroke="#733d00" stroke-linecap="round" stroke-linejoin="round" stroke-width="2.51" style="fill: none;"/><path d="m44.04,31.91S10,33.95,3.31,23.19,8.26,2.53,9.71,2.82s14.25,9.31,37.82,4.07c23.56-5.24,38.11-8.15,41.31-1.16,3.2,6.98,5.82,24.45-15.13,26.34-20.95,1.88-29.67-.15-29.67-.15Z" stroke="#733d00" stroke-linecap="round" stroke-linejoin="round" stroke-width="2.51" style="fill: none;"/><path d="m88.84,5.73s-24.05-3.3-16.48,14.16c5.46,12.59,9.5,4.8,11.33-.53.92-2.67-1.21-5.51-4.01-5.15-1.22.16-2.2.95-2.27,3.02" stroke="#733d00" stroke-linecap="round" stroke-linejoin="round" stroke-width="2.51" style="fill: none;"/><path d="m87.74,95.14c-9.12-.58-12.28-5.04-12.28-5.04,0,0,13.81,3.24,6.21-5.56" stroke="#733d00" stroke-linecap="round" stroke-linejoin="round" stroke-width="2.51" style="fill: none;"/></g></g></svg>