<svg xmlns="http://www.w3.org/2000/svg" xmlns:xlink="http://www.w3.org/1999/xlink" viewBox="0 0 179.77 186.22"><defs><style>.cls-1,.cls-10,.cls-11,.cls-12{fill:none;}.cls-2{fill:#cecdcd;}.cls-10,.cls-11,.cls-2,.cls-3{stroke:#221f20;}.cls-10,.cls-12,.cls-2,.cls-5{stroke-linecap:round;stroke-linejoin:round;}.cls-10,.cls-11,.cls-12,.cls-2,.cls-3,.cls-5{stroke-width:5px;}.cls-3{fill:#4e4d4c;}.cls-11,.cls-3{stroke-miterlimit:10;}.cls-4{fill:#221f20;}.cls-5{fill:#e74857;stroke:#5a2a1d;}.cls-6{opacity:0.3;}.cls-7{clip-path:url(#clip-path);}.cls-8{fill:#362559;}.cls-9{fill:#ebfef3;}.cls-12{stroke:#57001c;}</style><clipPath id="clip-path" transform="translate(5.34 2.53)"><path class="cls-1" d="M167.61,152.25c-1.22-7.31-58.9-74-83.51-102.19.39-7.18-1.18-15.06-5.39-23.41,3.32-2.23,5.45-3.54,5.45-3.54s-.24-12.39-6.06-10.58a58.7,58.7,0,0,0-6.89,2.66C50-9.54,20.46,9.81,18.23,12.53-6.29,42.44,2.39,63.12,13.85,75c-2.06,3.94-3.44,6.88-3.88,8-1.55,3.87,8.78,11.36,11.87,6,.61-1,1.79-2.81,3.32-5a41.19,41.19,0,0,0,5.46,2.86c6.28,2.58,13.6,2.74,20.76.93l96.1,86.91S169.16,161.54,167.61,152.25Z"/></clipPath></defs><g id="Calque_2" data-name="Calque 2"><g id="Layer_24" data-name="Layer 24"><path class="cls-2" d="M148.41,174.43s21.68-13.15,20.13-22.44S74.09,37.31,74.09,37.31l-31,41.9Z" transform="translate(5.34 2.53)"/><path class="cls-3" d="M19.16,12.27c2.5-3.06,39.49-27.1,60.39,13.93s-22.19,71-48,60.39C24.49,83.7-19.55,59.49,19.16,12.27Z" transform="translate(5.34 2.53)"/><path class="cls-4" d="M131.34,156.62c8.94-6.05,15.82-14.24,22.37-22.71,2-2.56.37-6.64-2.14-8.14-3-1.83-6.19-.4-8.15,2.13-5.21,6.76-11,13.62-18.09,18.44-6.31,4.27-.36,14.59,6,10.28Z" transform="translate(5.34 2.53)"/><path class="cls-5" d="M50.13,51.07S26.38,82.5,22.78,88.73c-3.1,5.34-13.42-2.14-11.88-6s14.45-30,27.88-43.36C51,27.19,65.29,16.54,79,12.27c5.82-1.81,6.06,10.58,6.06,10.58S62.82,36.48,50.13,51.07Z" transform="translate(5.34 2.53)"/><g class="cls-6"><g class="cls-7"><path class="cls-8" d="M24.46,89c5.69-9.58,12.81-17.7,20.66-25.64,4-4.07,8-8.23,11.63-12.65,1.93-2.32,4-4.57,5.87-6.89,2.14-2.58,3.68-5.62,5.87-8.13a1.7,1.7,0,0,0-2-2.65c-3.17,1.73-6.58,2.73-9.68,4.64-2.76,1.7-5.46,3.55-8.1,5.44a100.71,100.71,0,0,0-15.1,13.79c-7.34,8-18.8,19.53-13.9,31.46.82,2,3.55,2.73,4.8.63Z" transform="translate(5.34 2.53)"/><path class="cls-8" d="M50.39,50c-3.48,1.76-7.45,3.49-9.82,6.65a29.81,29.81,0,0,0-5.3,11.56l-.41,1.29q3.39-3,1.31-1.82a7.26,7.26,0,0,0-2.35,1.16,14.94,14.94,0,0,0-5.34,5.37c-3.18,5.58-2.05,13,3.25,16.79,8.62,6.23,21.12-2.14,25.4-10.2,2.26-4.26,3.63-9.35,2.69-14.13-.65-3.31,1-5.89,2-9.35a8.44,8.44,0,0,0-4.9-10c-4.21-1.69-7.95,0-10.57,3.47C37.23,63,42.73,79.41,55,87.1c.82.48,1.65.93,2.48,1.37,1.46,1,1.61,1,.43,0a4.88,4.88,0,0,1-.95-.92,21.34,21.34,0,0,0,.79,2.2,47.77,47.77,0,0,0,5.78,10.86c4.66,6.55,9.8,12.76,15,18.85C88.57,131,99,142.23,109.79,153c5.42,5.37,11.12,10.47,16.83,15.52,6.4,5.65,13.25,13.36,21.93,15,8.27,1.56,18.48-5.52,15-15-3.07-8.32-9.27-13-15.59-18.75-4.95-4.53-9.8-9.16-14.62-13.84-10.28-10-20.51-20-30.25-30.56C98.32,100.19,93.76,94.87,89,89.71c-1.89-2.06-4.13-4.25-5.69-6.33-1.77-2.37-2.61-5.13-4-7.68a21,21,0,0,0-8-8c-2.42-1.34-4.51-1.9-5.59-3a13.86,13.86,0,0,1-3.52-9.72H45.25c.11,1.27.21,2.54.28,3.82,0,.35-.05,3.18.27,2.37-.23.58-3.6,3.78-4.58,5.21a35.55,35.55,0,0,1-2.78,3.65s-2.28,2.14-1.27,1.41c-1.32,1-.1.31-1.82.81l10.38,2.74L45,74.44l2.74,4.69L48,80l-1.45,5.36q-2.94,2.17-.36.72l1.15-.61a18.49,18.49,0,0,0,4-3.45,15,15,0,0,0,3.6-11.2C54.47,64.92,50.3,59,53.6,53.19A2.37,2.37,0,0,0,50.39,50Z" transform="translate(5.34 2.53)"/><path class="cls-8" d="M79.24,83.72C87,79.53,93.84,70,94,60.93c.07-5-7.32-9-10.83-4.48-2.65,3.37-3.95,7.24-5.88,11A53.48,53.48,0,0,0,73.05,79a4.26,4.26,0,0,0,6.19,4.76Z" transform="translate(5.34 2.53)"/><path class="cls-8" d="M15.36,57.67l-.88.33,11.13,4.53A67.14,67.14,0,0,1,19.8,53a44.1,44.1,0,0,1-2.29-7.76c-.66-6.22.55-12.66,3.87-16.9L2,17A73.58,73.58,0,0,0,12.28,78.83l-1.65-6.1a22.66,22.66,0,0,0,2.6,9.18L24.67,62C9.29,62.43.34,79.83,10.05,92.23c8.44,10.78,24.7,9.12,34.05.58C55.19,82.67,43.47,65.23,30,68.55a27.72,27.72,0,0,0-4.92,1.68q-2.62.64.32.11a14.34,14.34,0,0,1,7.5,3.71l2,7.3c-.1-1.42-.17-1.57-.19-.44a6.87,6.87,0,0,1-3.31,5.75C38.76,83.27,40.16,71,34,65.86a25.78,25.78,0,0,0-8.09-4.79l7.23,5.55C24,53.92,20.43,38.46,24.37,23.19a11.64,11.64,0,0,0-6.73-13.7c-5.76-2.32-10.93,0-14.5,4.75C-10.15,32-8.33,64.08,12.13,76,20.32,80.79,31.2,71,25.61,62.53l-.63-1c-1.95-2.93-6-5.26-9.62-3.91Z" transform="translate(5.34 2.53)"/><path class="cls-9" d="M95.46,72c3.53,8.62,10.2,16,15.92,23.27s11.21,14.42,17.26,21.26,12.09,13.6,18.18,20.35,12.26,15.44,20.2,20.21c4.71,2.83,8.83-2.61,6.92-6.93-3.5-7.91-10.86-14.71-16.32-21.32q-9-10.94-17.94-22C134,99.76,127.87,93,121.91,86.11s-11.65-14.66-19.15-19.74C99.38,64.09,93.82,68,95.46,72Z" transform="translate(5.34 2.53)"/><path class="cls-9" d="M40.56,13.37q2.05,3.22.29,5.46c-.38.49-.37.51,0,.08a4.75,4.75,0,0,1-4.49,1.24L31.05,16l.63,1.3L36,1c-1.82.76,3.18-1,1.19-.67l3.44-.46a4.82,4.82,0,0,1-.93,0l3.57.48C41.37,0,39.52-.17,37.64-.36l3.7.5a4.81,4.81,0,0,1-1-.26L43.7,1.29A4.36,4.36,0,0,1,42.8.8L45.65,3l-.39-.32-10,24.16c1.93-.23,3.86-.49,5.8-.55,4-.11,7.66.16,11.34-2.22,7.24-4.67,9.7-15.56,2.82-21.91A16.73,16.73,0,0,0,44.57-2.46a27.56,27.56,0,0,0-3.52,0A37.64,37.64,0,0,0,31.49-1,14.29,14.29,0,0,0,21.35,10.81c-.72,5.38,1.76,11.45,6.76,14.11,5.43,2.89,12.24,3.59,17.74.36,4.76-2.79,8.3-8.4,8.13-14A12,12,0,0,0,43.61-.46c-6-.82-11.22,2.85-13.13,8.57l-.34,1,2.31-3.95c-2.87,3.1-5.08,6.67-3.81,11.09a9.09,9.09,0,0,0,8,6.56c2.11.27,4.33-1.61,5.05-3.4a5.66,5.66,0,0,0-1.14-6Z" transform="translate(5.34 2.53)"/><path class="cls-9" d="M64.46,27.68c4.2-3.6,9.46-4.36,14.13-6.91a1.24,1.24,0,0,0-.3-2.23c-6.18-2.19-12.47,2.8-15.89,7.55-.93,1.28,1,2.5,2.06,1.59Z" transform="translate(5.34 2.53)"/></g></g><path class="cls-10" d="M23.81,12.27s-7,22.78,0,39.07" transform="translate(5.34 2.53)"/><path class="cls-10" d="M37.74,6.07s-3,20.52,1,33.29" transform="translate(5.34 2.53)"/><path class="cls-10" d="M10.75,31.8s27.81-7.28,43.08-6.44" transform="translate(5.34 2.53)"/><path class="cls-10" d="M17,15.05s30.51-6.24,36.87-3" transform="translate(5.34 2.53)"/><path class="cls-10" d="M7.55,53.83s9.22-8.09,24.74-8.95" transform="translate(5.34 2.53)"/><path class="cls-10" d="M51.38,88.05,147.48,175s21.68-13.16,20.13-22.45c-1.21-7.23-57.82-72.75-82.81-101.39" transform="translate(5.34 2.53)"/><path class="cls-11" d="M78.62,26.73c20.9,41-22.2,71-48,60.39a41.5,41.5,0,0,1-5-2.58" transform="translate(5.34 2.53)"/><path class="cls-11" d="M13.75,75.17c-11.4-11.89-20-32.54,4.48-62.38C20.42,10.12,49-8.62,70.12,14.22" transform="translate(5.34 2.53)"/><path class="cls-12" d="M50.2,50.59S26.45,82,22.84,88.25c-3.09,5.35-13.42-2.13-11.87-6s14.45-30,27.87-43.35C51.07,26.72,65.36,16.07,79.1,11.79c5.82-1.81,6.06,10.58,6.06,10.58S62.89,36,50.2,50.59Z" transform="translate(5.34 2.53)"/></g></g></svg>