<?xml version="1.0" encoding="UTF-8"?>
<svg id="Calque_2" data-name="Calque 2" xmlns="http://www.w3.org/2000/svg" xmlns:xlink="http://www.w3.org/1999/xlink" viewBox="0 0 57.67 75">
  <defs>
    <style>
      .cls-1 {
        stroke: #4a4346;
      }

      .cls-1, .cls-2 {
        fill: none;
      }

      .cls-1, .cls-3 {
        stroke-linecap: round;
        stroke-linejoin: round;
        stroke-width: 2.51px;
      }

      .cls-4 {
        fill: #4a4346;
      }

      .cls-4, .cls-2, .cls-5, .cls-6 {
        stroke-width: 0px;
      }

      .cls-7 {
        clip-path: url(#clippath);
      }

      .cls-5 {
        fill: #eafdf1;
      }

      .cls-6 {
        fill: #82263e;
      }

      .cls-3 {
        fill: #cccbcc;
        stroke: #231f20;
      }

      .cls-8 {
        opacity: .56;
      }
    </style>
    <clipPath id="clippath">
      <path class="cls-2" d="m56.36,18.47l-5.24-11.05L34.84,1.11h-13.96l-6.98,12.6,6.16,8.78C15.3,33.52,5.13,53.85,1.67,61.69c-1.08,2.44.01,5.3,2.44,6.41l10.78,4.91c2.52,1.15,5.48-.03,6.53-2.58l18.1-40.04h11.01l5.82-11.9Z"/>
    </clipPath>
  </defs>
  <g id="Layer_1" data-name="Layer 1">
    <g>
      <path class="cls-3" d="m21.56,19.09C17.9,28.59,5.59,53.05,1.72,61.84c-1.08,2.44.01,5.3,2.44,6.41l10.78,4.91c2.52,1.15,5.48-.03,6.53-2.58l19.27-42.63c.96-2.34-.02-5.02-2.26-6.19l-10.12-5.25c-2.59-1.34-5.76-.13-6.8,2.58Z"/>
      <polygon class="cls-3" points="20.92 23.81 35.47 30.53 50.6 30.53 56.41 18.62 51.18 7.57 34.89 1.25 20.92 1.25 13.94 13.85 20.92 23.81"/>
      <g class="cls-8">
        <g class="cls-7">
          <path class="cls-6" d="m54.67,22.73c-3.32-.6-6.57.98-9.47,2.46l3.7,6.33c1.37-.82,2.77-1.53,4.27-2.08l-2.04-7.39c-2.46.8-4.97,1.53-7.51,2.03l3.26,7.73c.63-.46,1-.64,1.74-.79l-2.28-8.29c-2.51.68-4.41,1.78-5.93,3.9-1.09,1.52-.58,3.93.67,5.18,1.41,1.41,3.46,1.5,5.18.67.82-.4,1.55-1.12,2.37-1.47,2.14-.89,3.67-2.84,3-5.29-.62-2.27-3.03-3.58-5.29-3-1.8.47-3.14,1.29-4.58,2.44-3.5,2.79.35,7.99,4.11,7.07,2.91-.71,5.6-1.72,8.22-3.17,1.81-1,2.4-3.49,1.37-5.24-1.15-1.96-3.34-2.21-5.24-1.37-1.77.77-3.42,1.68-5.01,2.76-3.87,2.62-.3,8.9,3.7,6.33,2.54-1.64,6.55-4.04,6.83-7.4.05-.58-.48-1.29-1.06-1.39h0Z"/>
          <path class="cls-6" d="m37.21,33.07l2.71.12,1.67-.97c-2.32-2.06-6.48-3.67-9.46-1.97-3.51,2.01-5.17,9.26-6.67,12.78-4.52,10.56-9,21.13-13.39,31.75l9.34,2.58c2.18-8.93,5.85-17.23,10.36-25.21,2.15-3.8,4.45-7.52,6.78-11.22,1.82-2.88,4.53-5.79,3.37-9.4-.81-2.49-3.08-3.64-5.59-3.18-1.97.36-3.01,1.83-3.65,3.6s.41,4.13,2.03,5l.24.13c4.35,2.33,8.84-3.24,5.31-6.89l-.19-.19.69,5.36.27-.34-3.88,2.22.38.04-4.39-3.34.11.71.46-3.55c-3.57,7.2-8.91,13.67-12.74,20.79-3.9,7.26-7.08,14.83-8.92,22.88-1.42,6.2,7.08,8.28,9.34,2.58,3.24-8.17,6.45-16.36,9.59-24.57,1.51-3.95,3.1-7.88,4.54-11.85.68-1.87.91-3.48,2.46-4.77,1.22-1.01,2.47-1.28,3.59-2.53.61-.69.03-2.03-.97-1.67-1.5.54-2.15.07-3.44,1.07-.02.02,0,.05.03.04h0Z"/>
          <path class="cls-5" d="m18.73,9.09c.32,1.31.15,2.88-1.16,3.61l2.08,2.08c1.16-2.02,1.24-4.73,1.65-7.01s-2.71-3.99-4.02-1.69-2.3,4.68-2.91,7.26l5.26,1.45c-.01-.43.15-.77.48-1.02l-4.8-1.99c.21,2.31.27,4.68.57,6.97.24,1.79,1.43,2.72,3.23,2.46l.37-.05c1.25-.18,2.09-1.63,2.12-2.79.05-2.17-.43-4.44-.67-6.59s-2.98-3.93-4.8-1.99c-1.21,1.28-1.74,2.52-1.86,4.27-.25,3.51,5.18,3.48,5.46,0,.17-2.19.71-4.27,1.56-6.29l-4.32-.58c-.15,2.31-.75,4.98-.11,7.23.33,1.16,2.21,1.6,2.78.36.98-2.11,1.18-4.14-.41-5.99-.21-.24-.58.02-.51.3h0Z"/>
          <path class="cls-5" d="m21.04,4.73c6.36,1.8,13.19-.23,19.4,1.79,6.59,2.14,11.73,7.91,18.59,9.35,2.39.5,4.14-2.27,2.4-4.12-2.89-3.08-6.95-4.8-10.61-6.84-3.33-1.85-6.65-4.01-10.44-4.8-6.74-1.4-14.23-.24-19.47,4.15-.17.14-.07.42.12.47h0Z"/>
          <path class="cls-5" d="m30.57,16.22c6.62-1.38,13.35-4.63,18.76-8.67.75-.56.1-1.8-.76-1.3-5.97,3.49-11.99,6.48-18.2,9.5-.28.13-.07.53.2.47h0Z"/>
          <path class="cls-5" d="m35.81,19.31c5.38-1.07,10.75-2.98,14.9-6.66.52-.46-.16-1.33-.74-.96-4.58,2.91-9.03,5.59-14.35,6.94-.44.11-.25.77.19.68h0Z"/>
          <path class="cls-5" d="m24.85,17.75l1.04,1.61v-.47c-.71.95-1.05,1.97-.94,3.15.07.76.98,1.04,1.43.39,1.05-1.52,1.24-3.06,1.44-4.84.13-1.15-1.41-1.25-1.95-.53-1.09,1.49-1.8,3.42-2.63,5.07l2.41,1.02c.22-1.43.37-2.86.79-4.24.57-1.88-1.94-2.65-2.96-1.25-.9,1.23-1.54,3.7.24,4.51.56.26,1.28.27,1.74-.22.77-.84.36-1.76.83-2.65l-3.02-.82c.09,1.44-.08,2.88-.2,4.32-.05.65.54,1.21,1.14,1.3.7.09,1.19-.33,1.45-.94.71-1.7,1.71-3.49,2.13-5.28h-2.02c.39,1.25-.09,2.7-.72,3.78l1.4.18c-.16-.9-.08-1.76.28-2.59.06-.15-.01-.34-.12-.45l-1.36-1.36c-.2-.2-.57.06-.41.31h0Z"/>
          <path class="cls-5" d="m18.54,29.64c4.21-7,.98-1.59-.16.04-1.03,1.48-1.95,3.16-2.82,4.74-2.06,3.74-3.95,7.65-5.72,11.53-3.42,7.51-6.53,15.05-7.82,23.23-.22,1.36,1.57,2.35,2.36,1,4.06-7.01,6.85-14.51,9.98-21.96s7.08-14.63,8.56-22.42c.08-.4-.32-.77-.71-.55-1.93,1.13-2.91,2.19-3.82,4.3-.05.11.1.2.16.09h0Z"/>
          <path class="cls-5" d="m17.63,34.43c1.85,1.08,3.3,3.34,4.02,5.34.31.87,1.66.53,1.4-.39-.35-1.28-.92-2.38-1.8-3.38s-2.02-1.61-3.25-2.21c-.43-.21-.8.4-.38.65h0Z"/>
          <path class="cls-5" d="m14.16,43.7c.91,1.32,1.74,2.81,2.82,4,.28.31.72-.08.55-.43-.69-1.4-1.77-2.7-2.64-4-.3-.45-1.04-.02-.73.43h0Z"/>
          <path class="cls-5" d="m10.33,54.58c1.4.51,2.49,1.64,2.95,3.06.2.6,1.16.34.95-.26-.61-1.74-1.93-3.06-3.67-3.66-.55-.19-.77.66-.24.86h0Z"/>
          <path class="cls-5" d="m4.33,65.19c1.12.33,2.21.91,3.14,1.61s1.61,1.67,2.47,2.45c.42.38.98,0,.9-.53-.45-2.88-3.76-4.48-6.37-4.64-.65-.04-.75.93-.15,1.11h0Z"/>
        </g>
      </g>
      <polyline class="cls-1" points="20.92 23.81 23.25 13.85 42.45 23.81 56.41 18.62"/>
      <line class="cls-1" x1="35.47" y1="30.53" x2="42.45" y2="23.81"/>
      <line class="cls-1" x1="23.25" y1="13.85" x2="20.92" y2="1.25"/>
      <g>
        <path class="cls-4" d="m17.49,24.27c-1.22,4.01,3.8,8.76,6.64,10.91,3.8,2.86,8.92,4.67,13.71,3.81.91-.16.84-1.55,0-1.77-4.27-1.08-8.21-2.17-11.87-4.78-1.67-1.19-3.23-2.71-4.55-4.28-1.19-1.42-1.93-3.15-3.59-4.03-.14-.07-.3,0-.34.14h0Z"/>
        <path class="cls-4" d="m13.64,31.06c1.84,5.67,3.23,10.51,8.11,14.43,3.38,2.71,9.4,5.51,13.58,3.17,1.1-.61.79-2.22-.34-2.58-1.84-.59-3.74-.4-5.63-.86-2.59-.63-5.12-2.16-7.1-3.92-3.15-2.8-6.26-6.67-8.02-10.5-.16-.34-.72-.1-.6.25h0Z"/>
        <path class="cls-4" d="m10.03,42.16c-2.12,7.5,13.92,22.07,20.35,15.69.45-.45.27-1.35-.39-1.49-4.87-1.02-8.54-1.94-12.29-5.49-2.71-2.57-4.08-6.66-6.93-8.9-.26-.2-.65-.15-.75.2h0Z"/>
        <path class="cls-4" d="m6.93,51.43c-1.88,4.51,2.61,10.23,6.08,12.67,3.88,2.72,11.55,5.02,15.39,1.19.65-.64.37-1.86-.55-2.08-1.77-.43-3.4-.05-5.2-.08-2.86-.04-5.62-.88-7.94-2.58-3.47-2.55-4.25-6.33-6.84-9.38-.31-.36-.8-.1-.94.25h0Z"/>
      </g>
      <path class="cls-1" d="m20.24,22.35C15.57,33.28,5.17,54.04,1.67,61.99c-1.08,2.44.01,5.3,2.44,6.41l10.78,4.91c2.52,1.15,5.48-.03,6.53-2.58l17.87-39.53"/>
      <polygon class="cls-1" points="20.87 23.96 35.42 30.68 50.54 30.68 56.36 18.77 51.13 7.72 34.84 1.41 20.87 1.41 13.89 14 20.87 23.96"/>
    </g>
  </g>
</svg>