<?xml version="1.0" encoding="UTF-8"?>
<svg id="Calque_2" data-name="Calque 2" xmlns="http://www.w3.org/2000/svg" xmlns:xlink="http://www.w3.org/1999/xlink" viewBox="0 0 112.08 117.57">
  <defs>
    <style>
      .cls-1 {
        fill: #ffd4d4;
      }

      .cls-1, .cls-2, .cls-3, .cls-4, .cls-5, .cls-6, .cls-7, .cls-8, .cls-9, .cls-10, .cls-11, .cls-12, .cls-13, .cls-14 {
        stroke-width: 0px;
      }

      .cls-2 {
        fill: #5f4600;
      }

      .cls-3 {
        fill: #eefdf3;
      }

      .cls-15 {
        fill: #e16969;
        stroke: #3d0a0a;
      }

      .cls-15, .cls-16, .cls-17, .cls-18, .cls-19, .cls-20, .cls-21, .cls-22, .cls-23, .cls-24 {
        stroke-linecap: round;
        stroke-linejoin: round;
      }

      .cls-15, .cls-16, .cls-17, .cls-18, .cls-21, .cls-22, .cls-23, .cls-24 {
        stroke-width: 2.52px;
      }

      .cls-25 {
        clip-path: url(#clippath-2);
      }

      .cls-4, .cls-17 {
        fill: #df9bed;
      }

      .cls-16 {
        stroke: #575300;
      }

      .cls-16, .cls-8, .cls-24 {
        fill: #b653b0;
      }

      .cls-6 {
        fill: #782d3e;
      }

      .cls-7 {
        fill: #effdf4;
      }

      .cls-17, .cls-22 {
        stroke: #771b73;
      }

      .cls-9, .cls-21, .cls-22, .cls-23 {
        fill: none;
      }

      .cls-10 {
        fill: #792e3f;
      }

      .cls-26 {
        clip-path: url(#clippath-1);
      }

      .cls-11 {
        fill: #a8438c;
      }

      .cls-12, .cls-20 {
        fill: #fff;
      }

      .cls-27 {
        opacity: .32;
      }

      .cls-18, .cls-13 {
        fill: #ffe366;
      }

      .cls-18, .cls-23 {
        stroke: #5f4600;
      }

      .cls-28 {
        clip-path: url(#clippath);
      }

      .cls-19 {
        fill: #2056b6;
      }

      .cls-19, .cls-20 {
        stroke: #131e3e;
        stroke-width: 2.01px;
      }

      .cls-21, .cls-24 {
        stroke: #5e005f;
      }

      .cls-14 {
        fill: #3d0a0a;
      }
    </style>
    <clipPath id="clippath">
      <path class="cls-9" d="m97.3,46.94s-38.29-.97-66.3,9.46l-1.51-8.22-18.27,1.82,10.72,10.4c-8.52,4.48-15.22,10.44-18.17,18.38-8.98,24.13,8.16,33.15,18.78,36.34,4.25,1.28,8.78,1.27,13.02-.04,14.44-4.47,53.3-16.97,68.15-26.55,18.4-11.87-4.67-39.25-6.43-41.59Z"/>
    </clipPath>
    <clipPath id="clippath-1">
      <path class="cls-9" d="m65.45,101.4c.34-1.26-.91-23.42-.91-23.42L84.71,2.99s10.88,5.59,12.05,5.43-20.41,75.89-20.41,75.89l-10.9,17.09Z"/>
    </clipPath>
    <clipPath id="clippath-2">
      <path class="cls-9" d="m41.26,26.62c.52.9,14.36,12.93,14.36,12.93l31.15,53.45s-10.29,2.5-10.95,3.2-31.52-54.1-31.52-54.1l-3.04-15.48Z"/>
    </clipPath>
  </defs>
  <g id="Layer_1" data-name="Layer 1">
    <g>
      <path class="cls-24" d="m97.32,47.18c1.75,2.34,24.83,29.72,6.43,41.59-14.85,9.58-53.72,22.08-68.15,26.55-4.24,1.31-8.77,1.32-13.02.04-10.62-3.19-27.76-12.21-18.78-36.34,12.61-33.88,93.53-31.84,93.53-31.84Z"/>
      <path class="cls-17" d="m25.79,111.81c-2.67.15-33.46-9.36-11.85-37.21,16.11-20.76,23.46-.24,26.16,11.56,1.42,6.19.48,12.74-2.89,18.12-2.39,3.82-6.02,7.22-11.43,7.53Z"/>
      <polygon class="cls-17" points="23.52 62.15 11.24 50.24 29.51 48.42 31.85 61.15 23.52 62.15"/>
      <g class="cls-27">
        <g class="cls-28">
          <path class="cls-10" d="m2.18,97.28c.35,9.52,5.69,17.04,14.84,20.15,10.95,3.73,23.11-.54,33.43-4.3,22.59-8.23,44.31-18.71,64.83-31.25l-5.98-10.23c-12.15,8.79-25.41,16.35-36.63,26.33-3.26,2.9.18,9.4,4.45,7.65,13.89-5.69,26.04-14.99,38.16-23.74,6.06-4.37.66-14.29-5.98-10.23-17.29,10.56-35.42,19.74-54.29,27.11-8.72,3.41-18.35,7.89-27.81,8.38-8.48.44-17.66-4.08-22.88-10.75-.68-.87-2.17-.13-2.13.88h0Z"/>
          <path class="cls-10" d="m8.4,84.65c-5.43,4.64-4.17,13.75-.93,19.27,4.16,7.08,12.56,11.43,20.53,8.1,9.02-3.77,12.25-13.98,12.55-22.99.3-9.16-2.12-17.4-8.76-23.99-2.6-2.58-6.48,1.34-4,4,6.71,7.21,5.98,26.39-1.11,33.31-4.76,4.65-11.5,2.97-14.71-2.52-2.68-4.58-1.75-9.27-1.24-14.21.13-1.29-1.53-1.66-2.33-.97h0Z"/>
          <path class="cls-10" d="m27.4,57.59c-.61,0-1.24.05-1.85,0-.56-.05-1.09-.43-1.85-.38-1.24.08-2.27.88-2.44,2.15-.16,1.19.57,2.41,1.78,2.72.13.03.35.1.11,0,.15.06.3.16.44.24.29.17.58.34.89.48.96.44,1.9.6,2.95.4,2.05-.39,3.5-2.54,2.69-4.55-.77-1.9-3.16-2.28-4.7-1.1-1.78,1.36-1.48,4.12.77,4.78,1.86.55,3.82-1.72,2.64-3.43.13.42.17.53.13.31v1.28c-.25.99-.77,1.2-1.48,1.38-.25.03-.28.03-.09.02l-1.54-3.28c.17-.19.4-.19.59-.29.41-.21-.57.22.21,0,.13-.04.15.08-.09-.05-.18-.1-.37-.21-.55-.31-.51-.28-1.07-.53-1.63-.66l-.66,4.87c.54-.04,1.08-.08,1.56-.36.6-.44.67-.51.23-.21.14-.07.28-.11.44-.13.64-.15,1.32-.21,1.96-.31.88-.13,1.42-1.19,1.3-1.99-.13-.88-.86-1.57-1.78-1.57h0Z"/>
          <path class="cls-3" d="m13.37,53.71c2.47.27,5.01-.19,7.49-.27s5.07.34,7.54.05c3.08-.36,4.01-4.58.76-5.6-4.82-1.53-12.49-.95-16.98,1.42-2.26,1.2-.94,4.16,1.19,4.39h0Z"/>
          <path class="cls-3" d="m3.09,91.51c.4-11.34,7.75-21.62,18.08-26.12l-2.85-3.69C8.45,70.86-5.36,85.25-.02,100.19c.75,2.1,4.14,1.92,4.08-.55-.18-6.89.74-12.94,4.3-18.98s8.53-10.75,13.29-15.63c1.91-1.96-.5-4.87-2.85-3.69C7.22,67.14.68,78.63,1.21,91.51c.05,1.21,1.84,1.22,1.89,0h0Z"/>
          <path class="cls-3" d="m34.44,57.63c3.67,1.44,8.62-.53,12.39-1.26,5.78-1.12,11.6-2.11,17.45-2.76,10.81-1.21,21.4-.17,32.17-.6,3-.12,3.95-4.82.74-5.47-11.07-2.24-23.63-.94-34.74.51-5.43.71-10.8,1.69-16.1,3.09-4.01,1.07-9.82,1.95-12.27,5.58-.24.36.03.77.37.9h0Z"/>
        </g>
      </g>
      <path class="cls-21" d="m31,56.4c28.01-10.43,66.3-9.46,66.3-9.46,1.75,2.34,24.83,29.72,6.43,41.59-14.85,9.58-53.72,22.08-68.15,26.55-4.24,1.31-8.77,1.32-13.02.04-10.62-3.19-27.76-12.21-18.78-36.34,2.95-7.93,9.65-13.89,18.17-18.38"/>
      <path class="cls-22" d="m25.77,111.58c-2.67.15-33.46-9.36-11.85-37.21,16.11-20.76,23.46-.24,26.16,11.56,1.42,6.19.48,12.74-2.89,18.12-2.39,3.82-6.02,7.22-11.43,7.53Z"/>
      <polygon class="cls-22" points="23.5 61.92 11.23 50.01 29.49 48.19 31.83 60.92 23.5 61.92"/>
      <g>
        <g>
          <path class="cls-18" d="m65.43,99.67c.34-1.26-.91-23.42-.91-23.42L84.69,1.26s10.88,5.59,12.05,5.43-20.41,75.89-20.41,75.89l-10.9,17.09Z"/>
          <g>
            <path class="cls-12" d="m64.15,78.25c-.58,4.44.41,8.66.85,13.11.37,3.73,5.73,3.86,5.91,0,.1-2.22.47-4.26,1.39-6.29l-5.66-.74c.32,1.06.36,1.96.26,3.06-.33,3.95,5.48,4.33,6.62.9.14-.47.3-.92.5-1.37.56-.67.39-.74-.51-.19l-1.91-7.07c-4.35,2.07-8.35,5.82-7.13,11.04,1.11,4.76,8.61,2.74,7.35-2.03-.41-1.54.45-2.68,1.34-3.83l-6.69-3.91c-.74,1.63-1.31,3.25-1.71,4.99-1.58,6.97,9.55,8.31,9.52,1.29v-.84c-.02-4.55-6.32-6.34-8.62-2.33l-.42.73,8.86,3.74c.71-2.63.57-5.25-.95-7.57-2.81-4.28-8.61-.59-6.69,3.91.38.89.36,1.92.44,2.86l1.68-2.21-1.45.51,4.83,3.68c0-.88,2.6-2.89,3.47-3.48,3.62-2.43,1.33-7.76-2.92-6.93-3.49.68-4.91,4.07-5.48,7.22l6.62.9c-.12-1.99-.53-3.63-1.34-5.45-1.16-2.59-4.93-1.57-5.66.74-.89,2.82-1.47,5.73-1.64,8.68h5.91c-.44-4.91-.79-9.78-3.5-13.99-1.01-1.57-3.03-.78-3.25.88h0Z"/>
            <path class="cls-4" d="m87.33,8.62l-.24.45-1.46.6h.12c-.68-1.2-1.36-2.38-2.04-3.57-.23.46-.49.89-.75,1.34l5.8,1.57c0-.24.05-.46.19-.67h-6.5l-.08-.16.48-1.76-.16.36,6.48,2.73c.17-.68.29-1.36.42-2.05l-7.08-.96c.29,2.67,1.99,4.99,4.83,5.32.2.04.39.09.58.14-1.17-1.01-1.31-1.01-.43,0,.51.54,1.14.98,1.87,1.18.23.06,2.1.39,2.37.05-.39.51-1.87-1.36-1.21-.25,2.14,3.58,7.47,1.18,6.59-2.78-.34-1.54-1.39-2.84-2.75-3.62s-2.96-.51-4.03-.6l2.6,1.08c.46.42-.62-.67-.76-.8-.57-.54-1.21-.88-1.95-1.14-.37-.13-.76-.28-1.15-.3-.88-.05.44.16.64,1.74-.23-1.78-1.19-3.31-3.13-3.54-1.62-.19-3.66.79-3.96,2.58-.17,1-.34,2.01-.44,3.02-.19,1.91,1.77,3.55,3.55,3.55,2.11,0,3.31-1.64,3.55-3.55.12-1-.17-1.97-.68-2.83-1.72-2.93-6.2-1.61-6.28,1.7-.02.81.08,1.62.32,2.4,1.02,3.32,6.09,2.75,6.11-.83.01-1.32-.41-2.44-1.33-3.39-2.13-2.18-5.44,1.14-3.34,3.34.37.39.78.61,1.28.77.81.26,1.77-.31,1.97-1.12h0Z"/>
            <path class="cls-16" d="m64.52,76.25s4-.02,3.41,4.08c0,0,4.71-3.21,4.87,1.31,0,0,1.64-5.04,3.23-.87"/>
            <path class="cls-5" d="m68.1,93.23c.2-.14.31-.32.25-.57-.02-.1-.07-.19-.14-.26-.04-.05-.08-.09-.14-.12-.17-.08-.15-.06.04.05-.13-.16-.36-.18-.55-.15l-.08.02c-.22.05-.4.25-.46.46-.06.2-.05.4-.12.59l.19-.33-.06.08.34-.2-.07.02h.43l-.07-.02.51,1.26c.31-.52.71-1.04.88-1.61l-3.25-.44c.08-.63-.13.54.02-.1-.04.16-.18.34-.26.48l3.57.97c.02-.23.01-.21-.02.05.02-.1.04-.21.06-.31.05-.21.12-.41.2-.62l-4.03-1.11c-.08.41-.15.82-.21,1.23-.1.74-.24,1.33-.06,2.07.27,1.14,1.63,1.93,2.76,1.56s1.97-1.57,1.56-2.76c-.11-.37-.12-.17-.04.61l.08-.59c.02-.18.01-.37.02-.55.01-.34,0-.68,0-1.03-.02-1.04-.78-1.91-1.81-2.05-.93-.13-2.13.47-2.29,1.5-.14.88-.16,1.62.03,2.5.17.79,1.05,1.44,1.85,1.41.86-.04,1.6-.57,1.85-1.41.22-.75.21-1.55-.01-2.29-.25-.83-1.17-1.44-2.04-1.16s-1.4,1.14-1.16,2.04c.15.57.55,1.1.84,1.61.27.47.96.57,1.34.17.25-.26.34-.6.33-.95,0-.26-.03-.63-.17-.85l-.3.73-.4-.38c-.12.32.31.65.59.45h0Z"/>
          </g>
          <g>
            <path class="cls-13" d="m82.21,27.82c-4.6,13.83-8.59,27.88-11.95,42.07"/>
            <path class="cls-2" d="m81.69,27.67c-5.25,13.43-9.79,27.74-12.45,41.94-.25,1.33,1.66,1.89,2.05.56,4.07-13.97,7.64-28.16,11.45-42.21.19-.69-.8-.92-1.05-.29h0Z"/>
          </g>
          <g>
            <path class="cls-13" d="m85.94,30.35c-3.65,13.97-7.3,27.94-10.95,41.91"/>
            <path class="cls-2" d="m85.58,30.24c-4.06,13.85-7.76,27.82-11.45,41.78-.29,1.12,1.44,1.59,1.73.48,3.61-13.98,7.22-27.98,10.45-42.05.11-.47-.59-.67-.73-.2h0Z"/>
          </g>
          <path class="cls-12" d="m65.62,78.9c.67,0,.67-1.04,0-1.04s-.67,1.04,0,1.04h0Z"/>
          <g class="cls-27">
            <g class="cls-26">
              <path class="cls-6" d="m67.82,100.21c2.61-3.38,4.91-6.91,7.65-10.22,2.29-2.76,4.26-5.72,5.81-8.96,3.6-7.54,5.63-15.77,7.86-23.78,2.51-9.03,5.01-18.06,7.52-27.09,1.21-4.36,2.42-8.72,3.63-13.08s3.22-8.66,2.18-13.14c-.54-2.3-3.64-3.04-5.24-1.38-3.16,3.27-3.65,8.06-4.83,12.34s-2.4,8.73-3.6,13.09c-2.48,9.04-4.97,18.07-7.45,27.11-2.31,8.42-4.09,17.31-8.16,25.11-3.06,5.86-9.71,11.94-9.02,19.02.2,2.03,2.45,2.54,3.65.99h0Z"/>
              <path class="cls-7" d="m85.42-4.66c-4.62,3.83-5.8,13.03-7.43,18.58-2.26,7.69-4.45,15.4-6.4,23.17s-3.61,14.96-5.24,22.48c-1.52,7.03-4.26,15.18-3.79,22.4.12,1.86,2.87,3.01,3.82,1.04,3.05-6.29,3.74-14.16,5.32-20.96,1.81-7.8,3.72-15.58,5.73-23.34s3.86-14.89,5.95-22.3c1.04-3.7,2.12-7.39,3.12-11.11.87-3.2,2.07-6.13,1.16-9.36-.29-1.04-1.49-1.22-2.25-.59h0Z"/>
              <path class="cls-7" d="m83.93,4.74c1.86.75,3.71,1.36,5.62,2.03,1.77.63,3.55,2.05,5.46,1.84,1.71-.18,2.55-1.66,1.85-3.23-.93-2.08-3.89-2.96-5.94-3.59-2.51-.77-4.48-.81-6.99-.24-1.75.4-1.37,2.63,0,3.18h0Z"/>
            </g>
          </g>
          <polygon class="cls-20" points="82.22 10.3 94.92 15.11 92.91 22.81 79.84 19.3 82.22 10.3"/>
          <path class="cls-23" d="m65.49,99.69c.34-1.26-.91-23.42-.91-23.42L84.75,1.27s10.88,5.59,12.05,5.43-20.41,75.89-20.41,75.89l-10.9,17.09Z"/>
        </g>
        <polygon class="cls-15" points="62.62 58.71 49.78 9.07 64.89 6.07 70.47 55.91 62.62 58.71"/>
        <polygon class="cls-19" points="65.89 58.71 103.86 29.23 105.2 34.61 80.67 55.66 65.89 58.71"/>
        <g>
          <path class="cls-18" d="m42.28,27.61c.52.9,14.36,12.93,14.36,12.93l31.15,53.45s-10.29,2.5-10.95,3.2-31.52-54.1-31.52-54.1l-3.04-15.48Z"/>
          <g>
            <path class="cls-12" d="m53.69,39.01c-.26-.49-.43-1.06-.72-1.53-.27-.44-.69-.81-1.03-1.19-.74-.84-1.51-1.81-2.5-2.37-1.25-.71-2.91-.35-3.65.92-.38.66-.43,1.45-.21,2.16.2.63.83,1.16.92,1.8l.22-1.7-.13.23.79-.79-.23.11,1.69-.22c.51.11-.09,0-.3-.08-.27-.08-.56-.16-.84-.16-.7,0-1.41.33-1.88.82s-.74,1.13-.74,1.82c0,.15-.03.72.09.82.27.22-1.27.82.5-.43l3.46,3.46c.65-1.32,1.13-2.66,1.34-4.12.11-.73.21-1.45.15-2.19-.04-.45-.08-.91-.21-1.34-.08-.26-.83-1.86-.28-.54l-4.56,3.51c-.54-.32-.92-.76-1.14-1.32v-1.61l-.04.14.77-1.32-.13.11c-1.24,1-1.05,3.18,0,4.21s1.82,1.41,3.32,1.35l-1.36-.78c.17.37.25.87.39,1.26l3.75-1.58c.14.22.02.32.06-.04.05-.45-.08-.9-.16-1.34-.13-.76-.47-1.42-.81-2.11l-5.76,4.45c.14.18.31.33.5.46,2.78,2.19,6.37.17,5.79-3.37-.02-.23-.07-.44-.16-.65-.67-2.09-2.87-3.26-4.95-2.38-1.87.79-3.04,3.37-1.75,5.21.67.96,1.34,1.75,2.42,2.25.81.37,1.77.26,2.51.55.94.37,2.08-.33,2.42-1.19.4-1,.02-1.96-.84-2.56-.16-.11-.58-.35-.7-.53v1.58c.92-1.56.86-2.64,0-4.18l-1.78,4.37c2.5-1.05,3.25-3.74,1.42-5.85-1.67-1.92-5.61-.47-5.3,2.2.08.7.22,1.15.49,1.79.17.39.21.38.24.68.12,1,0,1.98-.26,2.94-.64,2.38,2.46,4.33,4.23,2.46.67-.71,1.07-1.51,1.16-2.5.04-.44.02-.8-.05-1.26-.04-.23-.23-.6-.25-.74l-.31,1.14.12-.22-.8.8.22-.11-1.7.22c-.57-.11.11.01.43.1.34.09.67.11,1.01.07.8-.1,1.5-.58,1.91-1.27.37-.63.45-1.38.25-2.09-.18-.64-.75-1.16-.93-1.77v1.18l.07-.21-.57.98.16-.15-.98.57.22-.05h-1.18l.23.09-.98-.57c.88.7,1.62,1.48,2.41,2.27.99,1,2.05,1.21,3.41,1.3,1.04.06,1.57-1.15,1.13-1.97h0Z"/>
            <path class="cls-4" d="m85.83,90.46c-.07-.41-.15-.82-.22-1.24l-5.18,3.02c.06.14.12.28.19.42l4.59-4.59-.26-.17,1.22,1.22.05.28-6.45,2.72c.28.49.59.94.91,1.41l4.93-4.93c-.9-.68-2.07-.92-3.18-.87-.43.02-2.89.83-2.79.89.29-.07.58-.07.89,0l-.98-.13c-.76-.01-1.48.13-2.15.5l-.29.19c-.55.33-.99.77-1.32,1.32l1.06-.81c.9.02,1.02-.03.36-.15-3.98-.94-6.28,4.39-2.78,6.59,2.82,1.78,5.9.54,7.72-1.93l-1.32,1.32.29-.2-1.85.5c-1.01,0,.82.06,1.03.05.63-.02,1.22-.19,1.8-.41.4-.16.8-.33,1.17-.54.88-.52-.8.24-1.27-.09,2.87,2.05,7.04-2.06,4.93-4.93-.51-.7-1.02-1.4-1.59-2.05-1.26-1.43-3.7-1.29-4.99,0-1.45,1.45-1.23,3.53,0,4.99.58.69,1.42,1.16,2.29,1.36,3.16.72,5.77-3.19,3.27-5.61-.51-.49-1.06-.92-1.7-1.23-3.65-1.72-6.34,3-3.13,5.35.72.53,1.61.81,2.5.71,1.63-.19,2.53-1.34,2.27-2.97h0Z"/>
            <path class="cls-16" d="m56.65,40.53s-2.56,2.11-4.6-.55c0,0-1.14,4.3-3.9,1.8,0,0,1.91,3.74-1.57,2.19"/>
            <path class="cls-5" d="m45.52,32.54c-.04-.12-.09-.23-.17-.34-.05-.07-.1-.13-.16-.2.02.02.04.04.05.07v.4l.02-.05-.2.35.03-.03-.36.21h.04c-.36-.28-.72-.56-1.08-.83.08.59.06,1.26.36,1.77l2.86-1.67c-.09-.13-.17-.26-.23-.4l.18.43c-.08-.19-.13-.39-.17-.59l-3.2,1.86c.06.06.11.13.16.19l-.31-.4c.16.22.3.46.42.72l-.21-.5.03.08,3.82-1.61c-.19-.29-.38-.57-.59-.84-.14-.18-.26-.37-.4-.56-.24-.32-.52-.57-.87-.78-.5-.29-1.16-.38-1.73-.23-.52.14-1.08.54-1.34,1.03-.27.52-.41,1.15-.23,1.73.17.52.51,1.11,1.03,1.34.08.03.14.07.21.12l-.45-.35s.08.07.11.12l-.35-.45c.37.54.83.97,1.32,1.4.79.7,1.89.82,2.74.16.35-.27.65-.65.75-1.09.12-.51.12-1.17-.21-1.61-.46-.61-.92-1.11-1.59-1.49-.71-.41-1.75-.33-2.32.3s-.73,1.55-.3,2.32c.32.58.85,1.09,1.46,1.36.42.19.82.29,1.28.17.38-.11.8-.4.99-.76.42-.79.21-1.81-.59-2.27-.32-.18-.61-.27-.98-.28-.09,0-.17,0-.25-.01-.18-.02-.36-.05-.54-.07-.46-.06-.85.44-.85.85,0,.18.04.34.13.49l.12.16c-.08-.11-.05-.07.08.1.08.08.17.15.26.21.04.03.08.05.12.08-.04-.03-.04-.02.01.03.4.52,1.32-.04,1.1-.64h0Z"/>
          </g>
          <g>
            <path class="cls-13" d="m73.76,77.49c-5.17-10.32-10.88-20.45-17.06-30.33"/>
            <path class="cls-2" d="m74.23,77.22c-4.47-10.57-10.06-21.16-16.62-30.59-.77-1.11-2.51-.14-1.83,1.07,5.61,10.11,11.61,20.11,17.51,30.06.37.62,1.2.08.94-.55h0Z"/>
          </g>
          <g>
            <path class="cls-13" d="m69.88,78c-5.87-9.9-11.75-19.8-17.62-29.71"/>
            <path class="cls-2" d="m70.2,77.81c-5.5-10.11-11.34-20.04-17.17-29.97-.58-.99-2.14-.09-1.55.9,5.92,9.88,11.83,19.77,18.07,29.45.26.41.88.05.65-.38h0Z"/>
          </g>
          <path class="cls-12" d="m54.69,40.4c.67,0,.67-1.04,0-1.04s-.67,1.04,0,1.04h0Z"/>
          <g class="cls-27">
            <g class="cls-25">
              <path class="cls-6" d="m40.14,28.23c.39,6,.54,12.74,2.42,18.5,2.05,6.29,5.62,12.09,8.88,17.8,3.79,6.64,7.58,13.28,11.37,19.91,1.98,3.46,3.95,6.93,5.93,10.39,1.74,3.05,2.86,5.71,5.92,7.56,2.02,1.23,4.75-.35,4.72-2.71-.05-3.6-1.8-5.92-3.57-8.99-1.99-3.46-3.98-6.91-5.96-10.37-3.81-6.63-7.62-13.25-11.43-19.88-3.49-6.08-7.66-12.12-9.52-18.96-1.44-5.31-1.12-11.34-5.81-14.96-1.17-.9-3.03.32-2.95,1.69h0Z"/>
              <path class="cls-7" d="m90.93,98.07c.68-4.87-3.09-9.91-5.34-14.04-3.11-5.69-6.28-11.36-9.62-16.93s-6.53-10.55-9.93-15.73c-3.29-5.03-6.64-11.74-11.37-15.51-1.47-1.17-4.1-.15-3.43,2,1.67,5.34,5.82,10.15,8.8,14.87,3.47,5.51,6.87,11.06,10.2,16.65s6.33,10.62,9.38,16c2.43,4.29,4.74,11.22,9.33,13.5.68.34,1.85.12,1.97-.8h0Z"/>
              <path class="cls-7" d="m86.45,91.14c-.86.22-1.67.26-2.51.6-.92.37-1.79.79-2.72,1.12-1.83.64-3.87.7-4.98,2.46-.66,1.04-.15,2.28.77,2.94,1.85,1.31,4.62.04,6.49-.77.89-.39,1.84-.8,2.64-1.36,1.04-.73,1.48-1.56,2.18-2.56.86-1.24-.56-2.75-1.86-2.42h0Z"/>
            </g>
          </g>
          <polygon class="cls-20" points="84.06 87.52 73.06 91.41 69.83 85.95 80.3 81.13 84.06 87.52"/>
          <path class="cls-23" d="m42.24,27.63c.52.9,14.36,12.93,14.36,12.93l31.15,53.45s-10.29,2.5-10.95,3.2c-.66.7-31.52-54.1-31.52-54.1l-3.04-15.48Z"/>
        </g>
        <path class="cls-14" d="m61.35,16.34c1.2-.31,2.45-.49,3.69-.53,2.52-.07,2.5-4.08,0-3.91-1.82.12-3.36.54-4.98,1.38-1.71.89-.52,3.53,1.29,3.06h0Z"/>
        <path class="cls-14" d="m61.74,23.5c1.32-.23,5.46-.09,4.88-2.42-.29-1.17-1.74-1.3-2.72-1.21-1.16.11-2.2.54-3.27,1-.65.28-.85,1.21-.59,1.8.31.7.97.96,1.7.83h0Z"/>
        <path class="cls-14" d="m63.11,31.4c.71-.17,1.4-.24,2.13-.2.9.04,1.56.24,2.41-.19.92-.46.88-1.65.3-2.33-1.19-1.4-4.16-.84-5.71-.41-2.02.56-1.17,3.62.87,3.14h0Z"/>
        <path class="cls-14" d="m63.33,38.69c1.61.31,3.46.55,4.78-.62,1.07-.95.35-2.45-.76-2.89s-2.42,0-3.55.04c-.87.02-1.63.65-1.74,1.53-.1.81.39,1.77,1.27,1.94h0Z"/>
        <path class="cls-14" d="m64.79,46.05c1.32.33,2.52.36,3.86.1.84-.16,1.31-1.16,1.1-1.93-.25-.89-1.09-1.23-1.93-1.1s-1.78.27-2.67.33c-1.41.11-1.88,2.22-.35,2.59h0Z"/>
        <path class="cls-14" d="m66.69,53.39c1.12-.02,2.41.07,3.4-.53,1.32-.8,1.16-3.03-.45-3.4-1.16-.27-2.32.17-3.42.51-.83.26-1.37,1.05-1.25,1.91s.84,1.53,1.71,1.51h0Z"/>
      </g>
      <path class="cls-11" d="m64.7,102.5c1.79-.14,3.56-.5,5.26-1.1,5.13-1.81,3.09-9.75-2.27-8.24-.96.23-1.9.53-2.81.9-5.51,2-3.17,10.85,2.44,8.87,3.7-1.31,7.44-2.53,11.03-4.14s6.88-4.1,10.72-5.22l-4.51-7.74c-1.91,1.97-4.59,2.86-7.01,4.06l4.69,8.02c2.9-1.77,6.21-2.42,8.61-4.94,3.4-3.55-.87-8.85-5.14-6.67-2.66,1.36-5.58,2.06-8.16,3.58-5.19,3.06-.63,10.68,4.69,8.02,3.2-1.6,6.34-2.92,8.87-5.53,3.15-3.25.02-9.08-4.51-7.74-3.63,1.07-6.73,2.99-10.04,4.77-3.71,2-7.73,3.25-11.69,4.66l3.54,8.41c.89-.43,1.75-.93,2.56-1.5l-4.31-7.38c-1.82,1.25-3.63,2.05-4.75,4.05s.26,5.07,2.79,4.86h0Z"/>
      <path class="cls-8" d="m51.16,72.83c.81.35,1.65.83,2.49,1.06.95.26,1.99.31,2.97.44,2.34.3,4.98-1.97,5.48-4.17.54-2.38-.32-5.23-2.61-6.42-1.09-.57-2.23-1.09-3.28-1.74-2.69-1.67-6.32-.79-8.19,1.63s-1.81,6.14.5,8.33c2.06,1.96,4.77,2.98,7.61,2.18,3.25-.92,5.55-4.01,5.49-7.38-4.13,1.71-8.25,3.42-12.38,5.13,1.34,1.06,2.52,2.11,4.22,2.57.67.18,1.38.27,2.07.37,1.86.27,3.71.49,5.59.52,2.86.04,5.69-.32,8.51-.69,6.21-.82,12.35-1.91,18.42-3.46l-9.15-11.9c-.19.35-.38.65-.62.97l1.27-1.64c-.42.5-.89.93-1.4,1.34l1.64-1.27c-2.64,2.02-5.86,3.34-8.8,4.88s-6.2,2.94-9.3,4.4l-1.85,1.43c-.89.83-1.52,1.81-1.89,2.95-.77,1.82-1.09,4.03-.46,5.96,1.3,4.03,4.64,6.44,8.83,6.72,5.53.36,10.74-1,15.76-3.18,1.84-.8,3.69-3.46,4.12-5.36.46-2.01.35-3.93-.45-5.84-1.62-3.83-6.36-6.72-10.58-5.19-6,2.17-11.95,4.36-17.68,7.18-1.78.88-3.1,2.73-3.84,4.49-.79,1.86-1.11,4.13-.47,6.11.5,1.55,1.31,2.94,2.41,4.14,1.42,1.54,4.5,2.99,6.63,2.75,5-.57,9.76-1.62,14.42-3.54-2.42-5.75-4.85-11.49-7.27-17.24-4.6,2.25-9.2,4.49-13.8,6.74-1.95.95-3.86,3.55-4.33,5.64s-.37,4.14.48,6.14c1.71,4.05,6.68,7.05,11.13,5.46,3.02-1.08,6.01-2.23,8.98-3.45-2.42-5.75-4.85-11.49-7.27-17.24-3.75,1.8-7.5,3.61-11.25,5.41-1.94.94-3.86,3.57-4.33,5.64s-.37,4.14.48,6.14c1.82,4.32,6.53,6.66,11.13,5.46,9.14-2.38,17.95-6.36,25.72-11.73,2.02-1.39,3.6-3.12,4.27-5.55.61-2.22.34-5.18-.94-7.15-2.6-4.03-8.37-6.2-12.7-3.33-3.92,2.6-8.06,4.83-12.39,6.67l2.25-.95c-3.66,1.54-7.39,2.85-11.23,3.85,2.42,5.75,4.85,11.49,7.27,17.24,3.75-1.8,7.5-3.61,11.25-5.41,1.94-.94,3.86-3.57,4.33-5.64s.37-4.14-.48-6.14c-.76-1.81-2.07-3.57-3.86-4.51-2.08-1.1-4.98-1.9-7.27-.95-2.96,1.22-5.96,2.38-8.98,3.45,2.42,5.75,4.85,11.49,7.27,17.24,4.6-2.25,9.2-4.49,13.8-6.74,1.95-.95,3.86-3.55,4.33-5.64s.37-4.14-.48-6.14c-.76-1.81-2.07-3.57-3.86-4.51-2.09-1.1-4.98-1.89-7.27-.95-3.84,1.58-7.81,2.59-11.9,3.3,2.41,5.72,4.82,11.43,7.23,17.15,3.63-2.06,7.37-3.9,11.22-5.52l-2.15.91c1.29-.54,2.58-1.04,3.92-1.48-1.59-5.76-3.18-11.53-4.77-17.29-1.79.71-3.63,1.21-5.53,1.49l2.41-.32c-1.91.25-3.81.28-5.73.1,1.54,5.69,3.08,11.37,4.62,17.06,4.53-1.96,8.96-4.66,12.82-7.73l-1.76,1.36c2.15-1.62,4.27-3.27,6.32-5.02l-1.64,1.27c2.39-1.84,4.78-3.42,6.22-6.19,1.53-2.94,1.43-6.33-.63-9s-5.34-3.74-8.52-2.9c-5.74,1.52-11.56,2.67-17.44,3.47l2.13-.29c-4.19.55-8.47,1.15-12.69.58l2.05.28c-1.21-.2-2.32-.38-3.54-.22-.7.09-1.16.24-1.82.37-5.06,1.02-7.35,8.74-3.2,12.12l.18.15-1.84-3.15.07.23v-3.74l.53-1.19,2.44-2.44,2.38-.61v12.69c-1.73-.12.06,0,.45.06.55.08,1.1.16,1.65.25v-10.96c-1.42.29-2.67.84-3.95,1.52-2.89,1.54-3.27,6.72,0,8.14h0Z"/>
      <path class="cls-21" d="m35.93,60.01c.5.81,39.89-.13,57.92-8.68"/>
      <path class="cls-21" d="m97.3,47.08c1.75,2.34,24.83,29.72,6.43,41.59-14.85,9.58-53.72,22.08-68.15,26.55-4.24,1.31-8.77,1.32-13.02.04-10.62-3.19-27.76-12.21-18.78-36.34,2.95-7.93,9.65-13.89,18.17-18.38"/>
      <path class="cls-1" d="m52.1,10.96c2.17,8.67,4.11,17.57,6.74,26.1.18.59,1.14.51,1.11-.15-.37-8.91-3.76-17.92-6.55-26.31-.27-.82-1.51-.49-1.3.36h0Z"/>
      <path class="cls-1" d="m52.84,11.97c1.99-.18,3.99-.29,5.97-.58,1.5-.22,3.46-.42,4.52-1.61.5-.56.18-1.54-.63-1.53-1.48.02-3.02.7-4.5.92-1.89.28-3.75.55-5.58,1.13-.86.28-.77,1.76.23,1.67h0Z"/>
    </g>
  </g>
</svg>