<?xml version="1.0" encoding="UTF-8" standalone="no"?>
<svg
   id="Calque_2"
   data-name="Calque 2"
   viewBox="0 0 80.42 103.33"
   version="1.1"
   sodipodi:docname="phone_screen.svg"
   inkscape:version="1.4.2 (f4327f4, 2025-05-13)"
   xmlns:inkscape="http://www.inkscape.org/namespaces/inkscape"
   xmlns:sodipodi="http://sodipodi.sourceforge.net/DTD/sodipodi-0.dtd"
   xmlns="http://www.w3.org/2000/svg"
   xmlns:svg="http://www.w3.org/2000/svg">
  <sodipodi:namedview
     id="namedview19"
     pagecolor="#ffffff"
     bordercolor="#999999"
     borderopacity="1"
     inkscape:showpageshadow="2"
     inkscape:pageopacity="0"
     inkscape:pagecheckerboard="0"
     inkscape:deskcolor="#d1d1d1"
     inkscape:zoom="7.4808863"
     inkscape:cx="40.235874"
     inkscape:cy="51.665001"
     inkscape:window-width="1920"
     inkscape:window-height="991"
     inkscape:window-x="-9"
     inkscape:window-y="-9"
     inkscape:window-maximized="1"
     inkscape:current-layer="Calque_2" />
  <defs
     id="defs1">
    <style
       id="style1">
      .cls-1 {
        fill: #00c6ec;
      }

      .cls-1, .cls-2, .cls-3, .cls-4, .cls-5, .cls-6, .cls-7, .cls-8, .cls-9 {
        stroke-width: 0px;
      }

      .cls-2 {
        fill: #fc3352;
      }

      .cls-10, .cls-3, .cls-11 {
        fill: none;
      }

      .cls-10, .cls-12 {
        stroke: #053d58;
      }

      .cls-10, .cls-12, .cls-13, .cls-11 {
        stroke-linecap: round;
        stroke-linejoin: round;
        stroke-width: 2.51px;
      }

      .cls-4 {
        fill: #1093ff;
      }

      .cls-5 {
        fill: #231f20;
      }

      .cls-12 {
        fill: #e6f4fd;
      }

      .cls-14 {
        clip-path: url(#clippath);
      }

      .cls-13 {
        fill: #4e4d4c;
      }

      .cls-13, .cls-11 {
        stroke: #231f20;
      }

      .cls-6 {
        fill: #eafdf1;
      }

      .cls-15 {
        opacity: .36;
      }

      .cls-7 {
        fill: #82263e;
      }

      .cls-8 {
        fill: #ffcf50;
      }

      .cls-9 {
        fill: #00be00;
      }
    </style>
    <clipPath
       id="clippath">
      <path
         class="cls-3"
         d="m51.48,4.18c4.25,9.55,16.83,39.03,27.33,75.97.57,2.01-.23,4.16-2,5.32-6.81,4.44-24.07,14.98-36.97,16.57-2.04.25-4.02-.77-4.96-2.58C29.12,88.35,7.89,46.66,1.43,23.59c-.5-1.77.09-3.67,1.49-4.88C7.89,14.43,21.47,4.8,46.32,1.36c2.17-.3,4.28.85,5.16,2.83Z"
         id="path1" />
    </clipPath>
  </defs>
  <g
     id="Layer_1"
     data-name="Layer 1">
    <g
       id="g19">
      <path
         class="cls-12"
         d="m48.54,9.18c3.46,8.01,13.68,32.73,22.23,63.7.47,1.69-.19,3.49-1.62,4.46-5.54,3.72-19.58,12.56-30.07,13.9-1.66.21-3.27-.65-4.03-2.16-4.68-9.31-21.95-44.27-27.21-63.61-.4-1.49.07-3.08,1.21-4.09,4.04-3.59,15.09-11.67,35.3-14.55,1.76-.25,3.48.71,4.19,2.37Z"
         id="path3" />
      <g
         id="g11">
        <path
           class="cls-2"
           d="m19.15,32.22l.11-.07-.46.12h.17c-.7-.4-1.41-.81-2.11-1.21-.33-.77-.13-.24-.1-.03l-.1-.74c.02.16.01.32,0,.48l.11-.81c-.01.08-.03.15-.05.23l1.45-1.89-.16.1.84-.35h-.05c1.49,1.5,2.98,2.99,4.47,4.48.5-1.28-.12-2.66-.63-3.8l.4.95c-.08-.21-.15-.42-.19-.65l.14,1.07c0-.12,0-.22.01-.33l-.14,1.08c.01-.07.03-.14.06-.2l-.41.97.05-.08-.64.82.06-.07-.83.64.07-.05-.98.41.08-.03-1.09.15h.1c-.36-.05-.73-.1-1.09-.15l.13.03-.98-.41.11.07-.83-.64.09.1-.64-.83c.08.12.14.22.2.35l-.42-.99.04.13-.15-1.11c.01.13.01.26,0,.39l.15-1.13c-.02.18-.07.34-.13.5l.44-1.05c-.07.16-.16.3-.27.45l.71-.92c-.06.07-.12.13-.18.19l5.56-.72c-.06-.05-.13-.09-.19-.14l.93.72c-.06-.05-.12-.11-.17-.17l.72.93c-.07-.1-.13-.19-.18-.31l.46,1.1c-.34-.95-.6-1.76-1.37-2.5-.71-.68-1.57-1.09-2.54-1.22-.88-.12-2.09-.04-2.83.53-.5.39-.93.7-1.32,1.21s-.69,1.03-.86,1.64c-.24.87-.19,1.92.08,2.78.41,1.34,1.36,2.72,2.64,3.36s2.69.82,4.09.23,2.19-1.59,2.66-2.98c.56-1.64.23-3.53-.64-4.99-.48-.81-1.07-1.51-1.89-2-1.38-.82-3.18-.84-4.56-.02-1.87,1.11-2.68,3.56-1.95,5.59.33.93.76,1.79,1.48,2.48,1.07,1.02,2.65,1.62,4.1,1.17s2.41-1.57,2.6-3.02c.09-.66.01-1.26-.25-1.88-.29-.68-.8-1.4-1.49-1.74-.08-.04-.17-.08-.25-.13l.64.49c-.72-.9-1.89-1.37-3.02-1.42-1.21-.05-2.24.97-2.4,2.12s.56,2.39,1.75,2.68l.23.06-.64-.64.05.13c.19.47.69.76,1.17.48h0Z"
           id="path4" />
        <path
           class="cls-9"
           d="m31.39,26.54c-.5.46-.02-.06.19-.15.1-.1.04-.05-.2.15-.42.22-.85.27-1.29.16l-1.77-1.77c.08.4.23.76.42,1.12.04.07.12.28.19.32-.15-.1-.22-.65-.07-.12.04.13.1.57.03.02s-.02-.1-.02.02c0,.34-.14.74.18-.37.29-1.02.23-.68,0-.37l7.18.94c-.22-.77-.64-1.3-.96-1.99l.41.97c-.13-.31-.21-.63-.27-.96l.15,1.09c-.05-.4-.05-.79,0-1.19l-7.1,2.94c.09.08.18.16.26.25l-.65-.85c.11.15.2.29.28.45l-.42-1c.07.17.12.33.16.51l-.15-1.12c.02.18.03.35.02.53l.15-1.13c-.02.19-.06.34-.12.52l6.28-2.55-.15-.11.87.67c-.09-.08-.18-.17-.25-.26l.67.87c-.07-.1-.13-.2-.18-.32l.43,1.03c-.31-.86-.66-1.69-1.35-2.32-1-.91-2.15-1.32-3.49-1.14s-2.28.88-3.03,1.98c-1.67,2.43-.12,5.64,2.16,6.97s5.63.14,6.28-2.55c.28-1.16.33-2.44-.08-3.57-.55-1.48-1.37-2.46-2.64-3.4-1.16-.86-3.02-.69-4.2,0-1.31.76-2,2.11-2.06,3.59-.06,1.36.29,2.62.85,3.83.14.31.3.59.49.87.18.25.59.82.89,1.12.55.55,1.22.81,1.93,1.1.58.23,1.5.16,2.09,0,.83-.23,1.52-.74,2.04-1.41.98-1.26,1.08-2.96.31-4.36-.05-.1-.11-.19-.17-.28l.2.54c-.13-.37-.32-.82-.53-1.18-.31-.53-.72-1.06-1.17-1.48-1.15-1.05-2.49-1.74-4.08-1.35-.81.2-1.59.94-1.77,1.77-.2.98-.06,1.99.65,2.73.63.65,1.69.87,2.4.21h0Z"
           id="path5" />
        <path
           class="cls-1"
           d="m44.27,21.55l-.03-1.25-.93.25c.16.29.23.62.3.95l.38-.92-.35.16,2.66,1.53c.03-.6-.21-1.11-.31-1.68.06.39,0-.24,0-.27,0-.11.09-.93.01-.43l-4.18.55c.3.55-.08-.39.1.21.06.2.11.4.15.61-.09-.43-.04-.02-.02.19.05.52.1-.4,0,.16l4.71-.62c.36.86-.17-.47-.33-.7-.29-.43.1.49-.02-.06-.03-.09-.05-.19-.07-.28-.04-.21-.03-.13.03.26,0-.13,0-.26,0-.39-.07.42-.08.48-.02.17l-5.14.67c.12.18.23.36.34.54.27.44-.06-.31,0,0,.04.17.1.34.15.51.16.58-.03-.57,0,.07l4.36-2.5c-.49-.25-.95-.44-1.49-.56-.93-.21-1.87,0-2.56.68-.73.73-.82,1.6-.68,2.56s.87,1.93,1.8,2.34c.98.43,1.95.57,2.93,0,.8-.47,1.55-1.52,1.44-2.5-.21-1.77-.77-3.14-1.88-4.54-.69-.87-2.15-.97-3.07-.58-1.12.47-1.58,1.42-1.73,2.57-.26,1.95.66,4.3,2.4,5.27s3.87-.24,3.88-2.23c.01-1.75-.62-3.27-1.71-4.62-.56-.7-1.74-.79-2.5-.47s-1.47,1.19-1.4,2.09c.1,1.53.62,3.75,2.12,4.52.94.48,2.08.17,2.51-.85.37-.88-.08-2.22-1.15-2.39l-.38-.06.49.38c-.33-.42-.67-.71-1.11-1-.35-.23-.89.16-.73.56l.46,1.2c.11.28.56.27.55-.07h0Z"
           id="path6" />
        <path
           class="cls-1"
           d="m44.96,22.42c0-.12.02-.29.03-.4.07-.2.08-.23.01-.09.07-.12.12-.25.17-.38.06-.14.12-.28.17-.42-.08.18-.08.2-.01.07.33-.56-.22.18.11-.19l-4.32-.56c-.41-.97.18.45.35.7.32.48-.14-.59,0,0,.03.1.05.19.07.29.05.25.03.13-.04-.37.01.13.02.26.02.4.44-1.19.53-1.52.27-1l5.62-.72c-.11-.11-.22-.22-.34-.32-.84-.64-1.01-.78-.51-.4.28.23.33.26.13.07l.39.49c-.19-.33-.14-.18.16.45-.02-.16-.09-.33-.12-.49l.14,1.01c-.02-.17-.02-.33,0-.5l-.14,1.02c.03-.17.07-.32.12-.48l-7.02.92c.3.6.61,1.21.91,1.81l4.42-5.75c2.63,1.03,2.45,3.24,2.12,1.88l-5.68,4.37c.07.04.15.08.23.11,1.58.72,2.94.53,4.27-.55.07-.05.13-.11.19-.17,1.83-1.72,1.31-4.85-.78-6.07-.87-.51-2.01-.66-2.98-.39-1.43.39-2.16,1.41-2.7,2.7-.47,1.11-.14,2.58.45,3.56.64,1.06,1.64,1.75,2.81,2.12,1.5.46,3.19-.2,4.12-1.4s1.12-2.99.31-4.35c-.35-.58-.69-1.16-1.04-1.74-.79-1.33-2.31-2.04-3.83-1.83s-2.79,1.27-3.19,2.75c-.43,1.56-.21,3.23.61,4.63.9,1.53,2.6,2.81,4.44,2.67,1.16-.08,2.09-.48,2.81-1.41.65-.84,1.02-2.07.64-3.12-.07-.2-.15-.4-.24-.6-.25-.57-.23-.56.04.05.04-.1-.11-.39-.14-.48-.19-.55-.43-1.09-.76-1.57-.74-1.06-1.68-2.01-2.99-2.32-2.1-.5-3.84,1.31-3.38,3.38.35,1.57,1.27,2.73,2.7,3.43.62.3,1.42-.06,1.41-.81h0Z"
           id="path7" />
        <path
           class="cls-4"
           d="m40.03,42.74c-.47.32-.61.43-.41.33.24-.1.44-.25.61-.46.55-.7.58-.76.11-.15-.28.27-.61.46-.97.58l-4.04-3.08c.03.59.15,1.15.26,1.72l-.13-.95c.04.3.03.59,0,.89l.14-1.02c-.05.24-.11.46-.2.69l.41-.97c-.04.11-.1.21-.18.3l.65-.85-.11.12,7.13,1.88c-.13-.64-.49-1.2-.76-1.79l.44,1.05c-.18-.46-.3-.92-.37-1.4l.16,1.18c-.03-.35-.04-.69-.01-1.04l-7.69,3.18c.08.09.16.18.23.27l-.71-.91c.14.2.25.4.35.62l-.46-1.09c.09.23.15.45.19.69l-.16-1.22c.04.3.03.59,0,.89l.16-1.23c-.02.12-.05.23-.08.35l8.47-1.11c-.07-.14-.13-.28-.19-.42l.47,1.11c-.25-.64-.43-1.29-.53-1.97l-6.96,5.35.13.1-.96-.74c.09.07.16.15.23.24l-.74-.96c.06.09.12.19.15.29l-.47-1.13c.04.1.06.21.07.32.22,1.43,1.85,3.07,3.28,3.28.41.06.83.12,1.24.17l4.69-4.86c.08-.76-.21-1.46-.49-2.13-.51-1.21-1.29-1.98-2.35-2.76-.6-.44-1.66-.65-2.39-.65-1.06,0-2.05.38-2.87,1.02-1.53,1.18-2.15,3.1-1.7,4.98.29,1.19.78,2.37,1.39,3.43.93,1.61,2.81,2.46,4.62,2.21.83-.11,1.53-.4,2.19-.91.74-.57,1.49-1.46,1.66-2.41.24-1.32.34-2.65-.09-3.96-.41-1.22-1.04-2.38-2-3.26-1.35-1.24-3.2-1.66-4.92-.93-1.6.68-2.82,2.32-2.77,4.11.07,2.59,1.03,5.34,3.27,6.82,1.42.94,3.46.66,4.74-.33.6-.47,1.02-1.01,1.31-1.71.4-.94.39-1.77.22-2.78-.02-.11-.04-.21-.05-.32l.15,1.09c-.15-1.2-.33-2.3-1.02-3.34s-1.7-2.11-3-2.33c-1.72-.28-3.4.43-3.93,2.23-.34,1.16-.09,2.65.83,3.5,1.08.99,2.65,1.12,3.76.13h0Z"
           id="path8" />
        <path
           class="cls-8"
           d="m25.12,46.39c-.06-.34-.02.4-.04.49,0-.03-.21.57-.03.18l.73-.73-.37.18,3.9,1.02c.04.1.2.64.13.26-.02-.11-.05-.22-.08-.33-.1-.35-.23-.69-.39-1.02-.27-.56.19.67.07.24-.03-.12-.07-.26-.11-.38-.15-.4.07.85.04.42-.02-.31-.03-.59.01-.9l-.14,1.05c.02-.13.05-.26.09-.39l-5.86,2.39c.35.21.22.11-.38-.3.2.22.17.18-.09-.13-.24-.25-.4-.56-.47-.91.04.12.07.23.1.36l-.15-1.1c.02.19.03.36.02.55l.15-1.11c-.03.19-.08.35-.15.53l7.01-1.85c-.3-.3-.21-.16.28.41-.07-.11-.13-.23-.17-.35l.43,1.02c-.05-.12-.08-.25-.1-.38l.15,1.14c-.03-.2-.03-.38-.02-.58l-.15,1.15c.03-.2.08-.37.15-.56l-7.26,1.92c.15.15.28.29.41.45l-.68-.88c.12.17.22.34.31.53l-.44-1.04c.11.26.18.51.23.78l-.16-1.16c.07.65.11,1.31.21,1.96.13.89.88,1.73,1.55,2.24.73.56,1.67.97,2.62.93,2-.09,3.51-1.3,4.16-3.17.39-1.11.26-2.62-.13-3.71-.41-1.15-1.01-2.25-1.94-3.07-1.18-1.04-2.66-1.55-4.22-1.12-1.45.4-2.64,1.57-3.03,3.03-.31,1.16-.34,2.48.06,3.63.52,1.49,1.4,2.49,2.66,3.43,1.04.78,2.62.68,3.73.21,1.19-.5,2.07-1.45,2.43-2.72.89-3.18-.94-6.43-4.05-7.41-2.54-.8-4.99,1.35-5.05,3.85-.07,3.11,2.27,6.82,5.76,6.39,1.43-.18,2.6-.95,2.8-2.47s-.69-2.64-2.04-3.13l-.26-.09.9.53c-.79-.67-1.49-.98-2.51-1.09-.46-.05-.7.45-.63.83h0Z"
           id="path9" />
        <path
           class="cls-8"
           d="m56,54.83c.05-.15.12-.41.09-.49.03-.11.02-.1-.02.02-.17.23-.38.39-.64.48l-2.15-.57c-.43-.58-.38-.52.15.18.22.18.45.35.68.52l-1.02-1.02c-.13-.29-.21-.59-.24-.9.08-.52.09-.64.04-.38-.47,1.46,2.92-1.68,1.71-1.49l1.02-.14h-.15c.35.04.69.09,1.04.13l-.13-.04.95.4-.12-.07.82.63c-.06-.08-.13-.15-.21-.21l.64.83-.08-.13.42.99c-.1-.25-.15-.49-.19-.75l.15,1.11c-.04-.39-.04-.76,0-1.14l-.15,1.13c.04-.21.08-.4.14-.6l-.43,1.03c.04-.1.09-.2.16-.29l-.67.87.11-.1-.87.68.13-.06-2.19.59h.15c-.38-.06-.77-.11-1.15-.16l.13.05-1.92-1.12.11.09-.68-.88c.06.08.12.16.15.25l-.44-1.05c.21.53.44,1.07.57,1.63l-.16-1.19c.02.12.02.25,0,.37l.16-1.2-.04.15.46-1.09c-.04.1-.09.19-.17.27l.72-.93-.12.1.93-.72-.14.07,1.1-.47-.15.02h2.46c-.09-.01-.17-.03-.26-.06l1.11.47-.12-.06.93.72c-.63-.61-1.31-1.07-2.18-1.28-1.46-.35-3.31-.07-4.34,1.15l-.04.04c-.98,1.15-1.81,2.91-1.18,4.45.39.94.58,1.52,1.31,2.26.6.6,1.36,1.01,2.16,1.26,1.71.55,3.65-.15,4.9-1.34,1.02-.97,1.52-2.43,1.55-3.81.02-1.13-.44-2.18-.93-3.16-.37-.73-.73-1.43-1.31-2.03-1.19-1.23-2.91-1.75-4.58-1.33-2.48.63-3.82,3.07-3.72,5.52.08,2.07.79,4.34,2.7,5.43,2.78,1.59,6.61-.53,6.6-3.78,0-1.58-.71-3.74-2.23-4.53-.94-.5-2-.61-2.99-.19-1.45.61-1.83,1.94-1.61,3.36v-1.18c-.17.93-.09,1.88.6,2.6.46.48,1.06.79,1.72.86.45.04.85-.35.98-.75h0Z"
           id="path10" />
        <path
           class="cls-1"
           d="m44.84,60.15c.14-.14.24-.39.39-.51-.43.33-.03.13.22-.29.08-.1.14-.22.17-.35.16-.38.16-.39.01-.01-.03-.06.25-.42.28-.46l-1.81,1.39c.29-.1.64-.23.91-.39l.67-.52c-.55.51-1.19.77-1.91.8l-1.87-.51c-.67-.43-1.14-1.04-1.4-1.82.03.14.06.28.08.42l-.15-1.09c.07.63.08,1.28,0,1.91l.16-1.22c-.02.14-.05.28-.08.42l6.86-2.79-.14-.1.95.74c-.17-.15-.34-.29-.49-.46l.74.96c-.11-.14-.19-.28-.27-.44l.48,1.14c-.07-.17-.11-.32-.15-.49l.17,1.27c-.02-.18-.03-.33-.01-.51l-.17,1.27c.03-.18.07-.32.13-.49l-8.02,2.12c.16.15.29.29.43.46l-.75-.97c.17.23.3.46.42.72l-.49-1.15c.1.27.18.52.23.81l-.17-1.29v.15c.05-.43.11-.86.17-1.29l-.05.15.49-1.16-.08.13c-1.29,2.19-.57,5.43,1.74,6.65s5.38.65,6.65-1.74c.93-1.76.94-3.54.18-5.35-.46-1.09-1.08-2.11-1.99-2.89-1.33-1.14-2.92-1.72-4.67-1.23s-2.81,1.74-3.35,3.35c-1.1,3.3.99,7.37,4.41,8.2,1.63.4,3.34,0,4.55-1.2,1.28-1.28,1.48-2.85,1.2-4.55-.37-2.27-2.11-4.94-4.47-5.51-2.17-.53-4.27.74-4.92,2.85-.48,1.57.17,3.54,1.63,4.35l-1.09-1.09c.52.75,1.05,1.44,1.92,1.81.72.3,1.64.43,2.25-.19h0Z"
           id="path11" />
      </g>
      <g
         class="cls-15"
         id="g17">
        <g
           class="cls-14"
           clip-path="url(#clippath)"
           id="g16">
          <path
             class="cls-6"
             d="m10.99,19.91c9.03,4.79,17.71,10.8,26.32,16.33,7.92,5.09,16.25,12.39,25.37,15.07,1.67.49,2.55-1.54,1.58-2.71-6.04-7.28-16.54-11.76-24.76-16.1-9.2-4.86-18.77-8.75-28.1-13.29-.46-.22-.86.45-.4.69h0Z"
             id="path15" />
          <path
             class="cls-6"
             d="m16.62,34.24c15.38,11.58,31.71,25.05,50.25,31.12,1.47.48,2.21-1.61,1.01-2.4-8.18-5.39-17.26-9.33-25.83-14.06s-17.03-9.74-25.01-15.39c-.45-.32-.85.41-.43.73h0Z"
             id="path16" />
        </g>
      </g>
      <path
         class="cls-10"
         d="m48.35,9.23c3.46,8.01,13.68,32.73,22.23,63.7.47,1.69-.19,3.49-1.62,4.46-5.54,3.72-19.58,12.56-30.07,13.9-1.66.21-3.27-.65-4.03-2.16-4.68-9.31-21.95-44.27-27.21-63.61-.4-1.49.07-3.08,1.21-4.09,4.04-3.59,15.09-11.67,35.3-14.55,1.76-.25,3.48.71,4.19,2.37Z"
         id="path19" />
    </g>
  </g>
</svg>
