<?xml version="1.0" encoding="UTF-8" standalone="no"?>
<svg
   viewBox="0 0 29.000001 37.000001"
   version="1.1"
   id="svg53"
   sodipodi:docname="left-spiral.svg"
   width="29"
   height="37"
   inkscape:version="1.4.2 (2aeb623e1d, 2025-05-12)"
   xmlns:inkscape="http://www.inkscape.org/namespaces/inkscape"
   xmlns:sodipodi="http://sodipodi.sourceforge.net/DTD/sodipodi-0.dtd"
   xmlns="http://www.w3.org/2000/svg"
   xmlns:svg="http://www.w3.org/2000/svg">
  <sodipodi:namedview
     id="namedview53"
     pagecolor="#ffffff"
     bordercolor="#000000"
     borderopacity="0.25"
     inkscape:showpageshadow="2"
     inkscape:pageopacity="0.0"
     inkscape:pagecheckerboard="0"
     inkscape:deskcolor="#d1d1d1"
     inkscape:zoom="5.4884604"
     inkscape:cx="70.784878"
     inkscape:cy="54.386837"
     inkscape:window-width="1600"
     inkscape:window-height="836"
     inkscape:window-x="0"
     inkscape:window-y="27"
     inkscape:window-maximized="1"
     inkscape:current-layer="Calque_2" />
  <defs
     id="defs2">
    <style
       id="style1">.cls-1,.cls-12,.cls-17,.cls-9{fill:none;}.cls-2{fill:#38a9bf;}.cls-12,.cls-2,.cls-9{stroke:#004355;}.cls-12,.cls-13,.cls-2,.cls-24,.cls-9{stroke-miterlimit:10;}.cls-17,.cls-2,.cls-9{stroke-width:3px;}.cls-3{fill:#3bd9c6;}.cls-4{fill:#b779e7;}.cls-5{opacity:0.72;}.cls-6{fill:#329fbc;}.cls-7{opacity:0.64;}.cls-8{fill:#9d59dc;}.cls-10{fill:#fff;}.cls-11{fill:#dbbcf3;}.cls-12{stroke-width:3px;}.cls-13{fill:#fd9ee0;stroke:#fefdfe;}.cls-14{clip-path:url(#clip-path);}.cls-15{fill:#6b00d4;opacity:0.27;}.cls-16{opacity:0.52;}.cls-17{stroke:#431f52;stroke-linejoin:round;}.cls-18{fill:#9c59db;}.cls-19{clip-path:url(#clip-path-2);}.cls-20{fill:#58d4eb;}.cls-21{opacity:0.44;}.cls-22{opacity:0.53;}.cls-23{opacity:0.46;}.cls-24{fill:#a167c9;stroke:#412563;stroke-width:2px;}</style>
    <clipPath
       id="clip-path"
       transform="translate(0 4.63)">
      <path
         class="cls-1"
         d="m 98.09,27.41 c 0,0 -2.42,-23.72 -22.49,-25.7 C 55.53,-0.27 47.85,22.88 47.91,26.43 a 41.34,41.34 0 0 0 0.77,8 C 50,41 53.81,49.48 64.61,53.38 81.48,59.46 93.46,42.9 93.46,42.9 l 4.44,-8.42 c 0,0 29.88,16.94 31.77,21.09 0,0 0,-6.11 -2.21,-8.56 -2.21,-2.45 -29.37,-19.6 -29.37,-19.6 z"
         id="path1" />
    </clipPath>
    <clipPath
       id="clip-path-2"
       transform="translate(0 4.63)">
      <path
         class="cls-1"
         d="M 42.79,28 C 42.79,28 41.18,2 22.36,6.25 3.54,10.5 -8,44.16 13.48,54.65 34.96,65.14 43.87,48.73 42.79,28 Z"
         id="path2" />
    </clipPath>
  </defs>
  <g
     id="Calque_2"
     data-name="Calque 2">
    <path
       class="cls-20"
       d="m 27.596774,15.737753 a 9.52,9.52 0 0 0 -0.43,-5.07 21,21 0 0 0 -2.52,-4.6599997 12.5,12.5 0 0 0 -3.77,-3.89 c -1.73,-1 -3.8,-0.89 -5.73,-0.8 -3.73,0.19 -7.4200004,1.15 -9.7600004,4.28 -2.34,3.13 -3.11,7.2599997 -3.59,10.9099997 -0.909999,7 1.47,15.000004 8.4500004,18.090004 3.31,1.45 7.44,1.51 9.87,-1.53 2,-2.510004 2.35,-6.000004 2,-9.120004 -0.36,-3.64 -1.77,-7.92 -5.52,-9.35 a 4.25,4.25 0 0 0 -5.23,2.11 c -1.06,1.83 -1,4.23 -0.76,6.26 0.24,2.03 3.19,1.32 3.32,-0.45 a 11,11 0 0 1 1.15,-3.45 c 0.2,-0.5 0.21,-0.14 -0.17,-0.32 a 3.34,3.34 0 0 1 1.13,0.95 c 1.27,1.59 1.52,3.88 1.53,5.85 0,1.51 -0.11,3.85 -1.48,4.83 -1.37,0.980004 -4,-0.15 -5.24,-1.11 -3.9200004,-3 -4.6700004,-8.41 -3.8900004,-13 0.41,-2.44 1,-5.36 2.37,-7.4599997 1.2300004,-1.72 3.4700004,-2.2 5.4700004,-2.44 a 12.14,12.14 0 0 1 4.12,-0.05 6.19,6.19 0 0 1 3,2.33 21.4,21.4 0 0 1 2.41,3.6799997 c 0.71,1.29 1.58,2.42 2.35,3.67 a 0.52,0.52 0 0 0 1,-0.26 z"
       id="path48" />
  </g>
</svg>
