<?xml version="1.0" encoding="UTF-8"?>
<svg id="Calque_2" data-name="Calque 2" xmlns="http://www.w3.org/2000/svg" xmlns:xlink="http://www.w3.org/1999/xlink" viewBox="0 0 86.48 129.79">
  <defs>
    <style>
      .cls-1 {
        fill: #ffce62;
      }

      .cls-1, .cls-2, .cls-3, .cls-4 {
        stroke-linecap: round;
        stroke-linejoin: round;
        stroke-width: 2.51px;
      }

      .cls-1, .cls-3 {
        stroke: #733d00;
      }

      .cls-5, .cls-6, .cls-7, .cls-8, .cls-9 {
        stroke-width: 0px;
      }

      .cls-5, .cls-3 {
        fill: none;
      }

      .cls-6 {
        fill: #e74957;
      }

      .cls-10 {
        clip-path: url(#clippath);
      }

      .cls-2 {
        stroke: #4a4346;
      }

      .cls-2, .cls-4 {
        fill: #cccbcc;
      }

      .cls-7 {
        fill: #eafdf1;
      }

      .cls-8 {
        fill: #82263e;
      }

      .cls-9 {
        fill: #733d00;
      }

      .cls-11 {
        opacity: .46;
      }

      .cls-4 {
        stroke: #231f20;
      }
    </style>
    <clipPath id="clippath">
      <path class="cls-5" d="m76.57,3.67c-5.06-2.63-11.45-3.8-18.36.08-16.29,9.15-21.58,46.13-20.94,51.65.64,5.53-4.65,6.74-4.65,6.74,0,0-11.64-2.91-5.82,10.96.78,1.87,1.79,3.36,2.94,4.56L7.99,110.92l-6.69-2.97v18.45l3.91,2.09,15.41-11.23-6.76-3.08,21.67-33.06c4.39,1.28,9.18.48,12.27-.76,1.61-.65,2.67-4.73,1.95-6.32-1.55-3.4-3.43-7.33,5.45-6.92,9.25.42,23.02-27.82,28.96-43.33,2.93-7.66-.3-16.33-7.58-20.11Z"/>
    </clipPath>
  </defs>
  <g id="Layer_1" data-name="Layer 1">
    <g>
      <path class="cls-1" d="m49.7,74.09c.72,1.58-.33,5.67-1.95,6.32-5.56,2.24-16.68,3.06-21.01-7.25-5.82-13.87,5.82-10.96,5.82-10.96,0,0,5.29-1.21,4.65-6.74-.64-5.53,4.65-42.51,20.94-51.65,6.91-3.88,13.3-2.71,18.36-.08,7.28,3.78,10.51,12.45,7.58,20.11-5.93,15.52-19.71,43.75-28.96,43.33s-7,3.53-5.45,6.92Z"/>
      <path class="cls-4" d="m33.65,71.64L7.94,110.97l-6.69-2.97v18.45l3.91,2.09,15.41-11.23-6.76-3.08,25.44-38.81c.5-.76.34-1.76-.35-2.34l-2.28-1.89c-.93-.77-2.31-.56-2.97.45Z"/>
      <g>
        <path class="cls-6" d="m53.87,59.37c5.47-1.73,8.96-10.29,11.88-14.79,2.01-3.09,4.01-6.18,6.1-9.22,2.23-3.25,5.23-6.42,6.1-10.31.67-2.96-2.62-6.14-5.49-4.22-5.89,3.96-9.5,13.01-12.76,19.15-2.57,4.83-8.39,13.37-6.5,19.01.09.27.37.47.66.38h0Z"/>
        <path class="cls-6" d="m44.21,54.87c4.13-4.82,6.57-10.59,9.22-16.32,2.87-6.23,5.83-12.42,8.92-18.55,1.82-3.61-3.61-6.8-5.43-3.18-5.67,11.26-13.63,24.64-14.02,37.5-.02.64.88,1.06,1.32.55h0Z"/>
      </g>
      <g class="cls-11">
        <g class="cls-10">
          <path class="cls-9" d="m35.97,64.4c1.12-.2,2.78,1.05,3.7,1.6,1.22.72,2.28,1.67,3.39,2.54.23.18.63-.05.44-.34-.97-1.54-2.49-2.73-4.12-3.53-.96-.47-2.57-1.28-3.49-.39-.05.05,0,.13.07.12h0Z"/>
          <path class="cls-8" d="m28.03,71.63l.28.7c-.86,2.52,3.46,3.68,3.96,1.09l.08-.41c.34-1.77-.74-3.12-2.51-3.29l-.72-.07,1.92.79c-.35,1.17,0,1.87,1.03,2.1l.83.5c1,.65,1.87,1.38,2.58,2.35,1.22,1.67,2.05,3.61,2.59,5.59l4.05-5.32c-3.37-.1-6.4-3.84-8.53-6.07l-3.43,8.29c3.81-.25,8.1,1.04,10.14,4.54l-.67-2.46.07.68.67-2.46c-.87,1.89-1.17,3.35-.19,5.26,1.46,2.84,5.38,2.96,7.52.97,4.46-4.17-.38-9.57-3.92-12.22-3.91-2.92-8.75-4.34-13.62-4.02-4.14.28-6.47,5.13-3.43,8.29,4.27,4.43,8.99,7.92,15.4,7.61,2.53-.12,5.02-2.61,4.05-5.32-2.14-5.99-8.36-13.28-15.28-13.65-3.18-.17-5.6,2.35-5.5,5.49s2.2,4.28,4.9,4.34l-.55-4.03-1.54.1c-.42-.08-.57.48-.17.63h0Z"/>
          <path class="cls-8" d="m51.75,70.02c1.33-1.83.17-4.75-.45-6.6l-4.57,4.57c13.16,4.49,20.84-5.59,26.72-15.77,7.11-12.31,13.71-25.3,16.62-39.3,1.14-5.5-6.71-9.59-9.55-4.03-5.06,9.9-10.64,19.54-15.99,29.28-3.74,6.8-7.93,19.33-16.31,21.46-6.7,1.7-3.87,12,2.86,10.36,10.43-2.54,15.12-12.64,19.79-21.3,6.2-11.51,12.14-23.21,18.69-34.53l-9.55-4.03c-2.87,10.92-7.52,21.14-12.84,31.07-4.34,8.11-8.2,20.43-19.43,19.48-2.8-.24-4.64,3.33-3.21,5.59.89,1.4,5.18,6.57,7.24,3.74h0Z"/>
          <path class="cls-8" d="m17.53,115.22l1.62.7.58-1c-4.18.27-7.86,3.26-11.09,5.68-3.64,2.74-7.85,5.87-10.41,9.67-2.12,3.15,1.94,6.47,4.91,4.91,3.92-2.06,7.54-5.99,10.54-9.23,2.66-2.87,6-6.21,6.7-10.19.08-.44-.18-.82-.64-.84-1.8-.08-.89-.26-2.23.03-.15.03-.12.28.04.27h0Z"/>
          <path class="cls-7" d="m22.96,70.08c5.99-9.83,16.71-.11,23.72,3.49.81.41,1.63-.42,1.22-1.22-2.94-5.79-9.66-9.88-15.99-10.92-5.94-.98-8.34,3.42-9.9,8.26-.18.57.65.89.94.4h0Z"/>
          <path class="cls-7" d="m28.31,64.34l.54-.25c.59-.1.69-1.03.17-1.29-1.16-.58-2.54-.45-3.66.28-1.24.81-3.02,2.54-2.35,4.18.39.96,1.28,1.68,2.39,1.36,1.19-.35,1.61-1.4,2.23-2.35.4-.63,1.15-1.35,1.25-2.32l-.2.73c.24-.31.42-.57.59-.92l-1.29-.17-.04.45c-.13.22.19.5.37.28h0Z"/>
          <path class="cls-7" d="m38.81,56.01c3.98-12.08,7.03-24.91,12.73-36.34,2.55-5.12,5.82-11.82,11.14-14.57,5.81-3,12.15.67,17.73-1.92,1.63-.76,1.84-3.31.58-4.46-4.62-4.22-14.18-3.35-19.68-1.19C54.95.01,50.99,5.83,47.82,11.57c-7.6,13.72-10.96,28.77-9.93,44.32.03.53.75.64.92.12h0Z"/>
          <path class="cls-7" d="m47.63,52.66c4.23-6.74,8.86-13.16,12.88-20.06,3.59-6.17,8.43-12.82,10.1-19.83.34-1.41-1.44-2.58-2.51-1.46-5,5.22-7.91,12.81-11.17,19.2-3.64,7.14-6.52,14.55-9.9,21.8-.19.41.36.75.61.36h0Z"/>
          <path class="cls-7" d="m1.8,123.92c2.39.48,2.4-3.34,2.63-4.84.21-1.37.07-3.02.45-4.34.64-2.21-.38-1.4,1.84-1.96,1.32-.33,2.41.22,3.74-.68,1.61-1.09,2.56-3.22,3.6-4.79,2.09-3.16,4.17-6.34,6.26-9.51,3.33-5.05,8.47-10.66,10.08-16.51.44-1.61-1.45-2.42-2.59-1.51-4.1,3.28-6.75,9.1-9.63,13.47-1.57,2.37-3.14,4.75-4.7,7.12-1.15,1.73-3.38,6.9-5.2,7.93-2.44,1.38-5.01-.98-6.71,2.17-.74,1.39-.06,12.94.3,12.92-.28.02-.37.45-.07.51h0Z"/>
          <path class="cls-7" d="m2.05,118.11c.16.1.17.21.05.35-.13.37-.26.74-.39,1.12-.17.56-.32,1.15-.41,1.72-.19,1.23-.32,2.73-.12,3.96.41,2.55,3.18,2.21,3.41-.23.18-1.9.14-5.52-1.2-7.09-.46-.54-1.47-.84-1.57.11-.01.12.17.16.22.06h0Z"/>
        </g>
      </g>
      <path class="cls-3" d="m28.84,76.64c-.78-1-1.48-2.17-2.05-3.54-5.82-13.87,5.82-10.96,5.82-10.96,0,0,5.29-1.21,4.65-6.74-.64-5.53,4.65-42.51,20.94-51.65,6.91-3.88,13.3-2.71,18.36-.08,7.28,3.78,10.51,12.45,7.58,20.11-5.93,15.52-19.71,43.75-28.96,43.33-8.87-.4-7,3.53-5.45,6.92.72,1.58-.33,5.67-1.95,6.32-3,1.21-7.62,2.01-11.92.86"/>
      <path class="cls-2" d="m33.7,71.59L7.99,110.92l-6.69-2.97v18.45l3.91,2.09,15.41-11.23-6.76-3.08,25.44-38.81c.5-.76.34-1.76-.35-2.34l-2.28-1.89c-.93-.77-2.31-.56-2.97.45Z"/>
    </g>
  </g>
</svg>