<?xml version="1.0" encoding="UTF-8" standalone="no"?>
<svg
   viewBox="0 0 121.06999 204.44998"
   version="1.1"
   id="svg31"
   sodipodi:docname="sound-waves.svg"
   width="121.07"
   height="204.45"
   inkscape:version="1.4.2 (f4327f4, 2025-05-13)"
   xmlns:inkscape="http://www.inkscape.org/namespaces/inkscape"
   xmlns:sodipodi="http://sodipodi.sourceforge.net/DTD/sodipodi-0.dtd"
   xmlns="http://www.w3.org/2000/svg"
   xmlns:svg="http://www.w3.org/2000/svg">
  <sodipodi:namedview
     id="namedview31"
     pagecolor="#ffffff"
     bordercolor="#999999"
     borderopacity="1"
     inkscape:showpageshadow="2"
     inkscape:pageopacity="0"
     inkscape:pagecheckerboard="0"
     inkscape:deskcolor="#d1d1d1"
     inkscape:zoom="2.598756"
     inkscape:cx="136.21902"
     inkscape:cy="148.72501"
     inkscape:window-width="1920"
     inkscape:window-height="991"
     inkscape:window-x="-9"
     inkscape:window-y="-9"
     inkscape:window-maximized="1"
     inkscape:current-layer="Layer_5" />
  <defs
     id="defs4">
    <style
       id="style1">.cls-1,.cls-13,.cls-17,.cls-18{fill:none;}.cls-2{fill:#4e4d4c;}.cls-17,.cls-2,.cls-3,.cls-4,.cls-5{stroke:#221f20;}.cls-13,.cls-17,.cls-18,.cls-2,.cls-3,.cls-4,.cls-5{stroke-linecap:round;stroke-linejoin:round;stroke-width:5px;}.cls-3{fill:#e74856;}.cls-4{fill:#e2fafe;}.cls-5{fill:#da935b;}.cls-6{opacity:0.51;}.cls-7{clip-path:url(#clip-path);}.cls-8{fill:#ebfef3;}.cls-9{opacity:0.63;}.cls-10{clip-path:url(#clip-path-2);}.cls-11{opacity:0.55;}.cls-12{clip-path:url(#clip-path-3);}.cls-13{stroke:#4b271d;}.cls-14{opacity:0.37;}.cls-15{clip-path:url(#clip-path-4);}.cls-16{fill:#362559;}.cls-18{stroke:#201c42;}.cls-19{fill:#fff;}</style>
    <clipPath
       id="clip-path"
       transform="translate(1.14 12.68)">
      <path
         class="cls-1"
         d="m 153.37,83.77 c 0,0 21.23,-53.15 24.32,-73.28 3.09,-20.13 38.71,1.34 34.07,25.06 -4.64,23.72 -44,53.6 -44,53.6 z"
         id="path1" />
    </clipPath>
    <clipPath
       id="clip-path-2"
       transform="translate(1.14 12.68)">
      <path
         class="cls-1"
         d="m 182.77,106.05 c 0.34,-5 60.73,-54.42 75.44,-35.9 14.71,18.52 7.74,40.59 0,45.43 -7.74,4.84 -48.47,5.2 -60.24,9.67 -11.77,4.47 -15.2,-19.2 -15.2,-19.2 z"
         id="path2" />
    </clipPath>
    <clipPath
       id="clip-path-3"
       transform="translate(1.14 12.68)">
      <path
         class="cls-1"
         d="m 199.37,142.78 c 16,-0.68 47.65,-3.13 58.67,24.94 a 13.44,13.44 0 0 1 -0.11,10.07 c -3.94,9.39 -14,28.52 -27.59,20.14 -17.81,-10.93 -32.5,-34.54 -40.26,-38.8 -2.36,-1.29 -3.44,-0.87 -3.44,-3.42 a 13.16,13.16 0 0 1 12.73,-12.93 z"
         id="path3" />
    </clipPath>
    <clipPath
       id="clip-path-4"
       transform="translate(1.14 12.68)">
      <path
         class="cls-1"
         d="M 164.36,130 C 151.64,92.32 106.25,56.36 101.91,71.12 98.4,83.08 74.07,125 64.8,140.71 58.9,147.81 49.38,158.3 49.38,158.3 v 0 c -18.77,12.91 -46.57,23 -46.57,23 -3.87,36.69 29.42,50 29.42,50 6,-4.64 12.36,-9 18.75,-13.05 9.65,7.41 45.61,44.19 41.45,57.95 0,0 18.6,-5.37 19.07,-17.78 0.4,-10.38 -19,-43 -31.28,-55 6.42,-1.7 14.17,-3.41 16.24,-4.06 0.43,-0.13 0.22,-0.7 0.53,-1 a 3.52,3.52 0 0 0 0.46,-0.6 c 31.81,-6.33 50.24,-2.62 59.43,0.91 4,1.53 6.46,-1.75 8.74,-5.33 6.23,-9.71 8.03,-35.78 -1.26,-63.34 z"
         id="path4" />
    </clipPath>
  </defs>
  <g
     id="Calque_2"
     data-name="Calque 2">
    <g
       id="Layer_5"
       data-name="Layer 5">
      <path
         class="cls-5"
         d="m 4.1733962,84.696416 c 0,0 21.2299998,-53.14 24.3299998,-73.27 3.1,-20.1299999 38.71,1.34 34.06,25 -4.65,23.66 -44,53.61 -44,53.61 z"
         id="path9" />
      <path
         class="cls-5"
         d="m 33.583396,106.98642 c 0.34,-5 60.72,-54.430004 75.430004,-35.900004 14.71,18.53 7.74,40.590004 0,45.430004 -7.74,4.84 -48.460004,5.2 -60.230004,9.67 -11.77,4.47 -15.2,-19.2 -15.2,-19.2 z"
         id="path10" />
      <path
         class="cls-5"
         d="m 50.173396,143.71642 c 16,-0.69 47.65,-3.14 58.670004,24.94 a 13.39,13.39 0 0 1 -0.11,10.07 c -3.93,9.39 -13.940004,28.51 -27.590004,20.14 -17.8,-10.93 -32.46,-34.5 -40.26,-38.8 -2.36,-1.29 -3.44,-0.88 -3.44,-3.42 a 13.16,13.16 0 0 1 12.73,-12.93 z"
         id="path11" />
      <g
         class="cls-6"
         id="g14"
         transform="translate(-150.4566,-12.313584)">
        <g
           class="cls-7"
           clip-path="url(#clip-path)"
           id="g13">
          <path
             class="cls-8"
             d="m 161.53,75.27 c 7.17,-2.19 12,-9.94 15.63,-16.08 3.81,-6.45 6.58,-13.74 9,-20.79 a 112.4,112.4 0 0 0 4.87,-21 c 1.25,-8.4 2.27,-17.31 -1.58,-25.26 -3.18,-6.58 -13.72,-6.27 -17,0 -3.28,6.27 -3.45,13.77 -4.34,20.74 A 169.4,169.4 0 0 1 164,32.29 c -1.63,6.42 -4,12.53 -6.14,18.77 -2.14,6.24 -5.43,12.85 -4.38,19.67 0.53,3.41 4.95,5.48 8,4.54 z"
             transform="translate(1.14,12.68)"
             id="path13" />
        </g>
      </g>
      <g
         class="cls-9"
         id="g16"
         transform="translate(-150.4566,-12.313584)">
        <g
           class="cls-10"
           clip-path="url(#clip-path-2)"
           id="g15">
          <path
             class="cls-8"
             d="m 193.56,99.17 c 6.21,-1.2 12,-5.06 17.68,-7.66 6.26,-2.85 12.68,-5.37 19.19,-7.6 C 236.1,82 242,79.84 248,79.19 c 6,-0.65 12.27,1.7 18.19,0.42 4.68,-1 5.66,-6.2 4,-9.91 -3.09,-7.06 -13,-8.66 -19.78,-7.91 -7.66,0.84 -14.69,3.48 -21.71,6.53 a 227.79,227.79 0 0 0 -20.82,10.35 c -6.3,3.54 -14.17,7.22 -18.69,13 -2.73,3.51 -0.28,8.38 4.36,7.49 z"
             transform="translate(1.14,12.68)"
             id="path14" />
        </g>
      </g>
      <g
         class="cls-11"
         id="g18"
         transform="translate(-150.4566,-12.313584)">
        <g
           class="cls-12"
           clip-path="url(#clip-path-3)"
           id="g17">
          <path
             class="cls-8"
             d="m 191.32,149.39 c 3.8,0.31 7.27,2.67 10.91,3.85 4.07,1.33 8.1,2.69 12.14,4.11 a 80.21,80.21 0 0 1 18.25,9 c 5.14,3.37 8.93,7.59 13.62,12.18 6.16,6 17.72,9.14 21.1,-1.58 5.07,-16.06 -16.87,-30.36 -29.25,-35 a 72.46,72.46 0 0 0 -22.85,-4.52 74.46,74.46 0 0 0 -12.83,1 c -3.88,0.59 -7.19,2.6 -11.09,2.85 a 4.03,4.03 0 0 0 0,8.06 z"
             transform="translate(1.14,12.68)"
             id="path16" />
        </g>
      </g>
      <path
         class="cls-13"
         d="m 4.0533962,84.136416 c 0,0 21.2299998,-53.15 24.3199998,-73.28 3.09,-20.1299999 38.71,1.34 34.07,25.06 -4.64,23.72 -44,53.6 -44,53.6 z"
         id="path18" />
      <path
         class="cls-13"
         d="m 33.453396,106.41642 c 0.34,-5 60.73,-54.420004 75.440004,-35.900004 14.71,18.52 7.74,40.590004 0,45.430004 -7.74,4.84 -48.470004,5.2 -60.240004,9.67 -11.77,4.47 -15.2,-19.2 -15.2,-19.2 z"
         id="path19" />
      <path
         class="cls-13"
         d="m 50.053396,143.14642 c 16,-0.68 47.65,-3.13 58.670004,24.94 a 13.44,13.44 0 0 1 -0.11,10.07 c -3.94,9.39 -14.000004,28.52 -27.590004,20.14 -17.81,-10.93 -32.5,-34.54 -40.26,-38.8 -2.36,-1.29 -3.44,-0.87 -3.44,-3.42 a 13.16,13.16 0 0 1 12.73,-12.93 z"
         id="path20" />
      <g
         class="cls-14"
         id="g24"
         transform="translate(-150.4566,-12.313584)" />
    </g>
  </g>
</svg>
