<?xml version="1.0" encoding="UTF-8" standalone="no"?>
<svg
   viewBox="0 0 176.07 215.44998"
   version="1.1"
   id="svg31"
   sodipodi:docname="speaker.svg"
   width="176.07001"
   height="215.45"
   inkscape:version="1.4.2 (f4327f4, 2025-05-13)"
   xmlns:inkscape="http://www.inkscape.org/namespaces/inkscape"
   xmlns:sodipodi="http://sodipodi.sourceforge.net/DTD/sodipodi-0.dtd"
   xmlns="http://www.w3.org/2000/svg"
   xmlns:svg="http://www.w3.org/2000/svg">
  <sodipodi:namedview
     id="namedview31"
     pagecolor="#ffffff"
     bordercolor="#999999"
     borderopacity="1"
     inkscape:showpageshadow="2"
     inkscape:pageopacity="0"
     inkscape:pagecheckerboard="0"
     inkscape:deskcolor="#d1d1d1"
     inkscape:zoom="5.197512"
     inkscape:cx="142.37581"
     inkscape:cy="43.963343"
     inkscape:window-width="1920"
     inkscape:window-height="991"
     inkscape:window-x="-9"
     inkscape:window-y="-9"
     inkscape:window-maximized="1"
     inkscape:current-layer="g24" />
  <defs
     id="defs4">
    <style
       id="style1">.cls-1,.cls-13,.cls-17,.cls-18{fill:none;}.cls-2{fill:#4e4d4c;}.cls-17,.cls-2,.cls-3,.cls-4,.cls-5{stroke:#221f20;}.cls-13,.cls-17,.cls-18,.cls-2,.cls-3,.cls-4,.cls-5{stroke-linecap:round;stroke-linejoin:round;stroke-width:5px;}.cls-3{fill:#e74856;}.cls-4{fill:#e2fafe;}.cls-5{fill:#da935b;}.cls-6{opacity:0.51;}.cls-7{clip-path:url(#clip-path);}.cls-8{fill:#ebfef3;}.cls-9{opacity:0.63;}.cls-10{clip-path:url(#clip-path-2);}.cls-11{opacity:0.55;}.cls-12{clip-path:url(#clip-path-3);}.cls-13{stroke:#4b271d;}.cls-14{opacity:0.37;}.cls-15{clip-path:url(#clip-path-4);}.cls-16{fill:#362559;}.cls-18{stroke:#201c42;}.cls-19{fill:#fff;}</style>
    <clipPath
       id="clip-path"
       transform="translate(1.14 12.68)">
      <path
         class="cls-1"
         d="m 153.37,83.77 c 0,0 21.23,-53.15 24.32,-73.28 3.09,-20.13 38.71,1.34 34.07,25.06 -4.64,23.72 -44,53.6 -44,53.6 z"
         id="path1" />
    </clipPath>
    <clipPath
       id="clip-path-2"
       transform="translate(1.14 12.68)">
      <path
         class="cls-1"
         d="m 182.77,106.05 c 0.34,-5 60.73,-54.42 75.44,-35.9 14.71,18.52 7.74,40.59 0,45.43 -7.74,4.84 -48.47,5.2 -60.24,9.67 -11.77,4.47 -15.2,-19.2 -15.2,-19.2 z"
         id="path2" />
    </clipPath>
    <clipPath
       id="clip-path-3"
       transform="translate(1.14 12.68)">
      <path
         class="cls-1"
         d="m 199.37,142.78 c 16,-0.68 47.65,-3.13 58.67,24.94 a 13.44,13.44 0 0 1 -0.11,10.07 c -3.94,9.39 -14,28.52 -27.59,20.14 -17.81,-10.93 -32.5,-34.54 -40.26,-38.8 -2.36,-1.29 -3.44,-0.87 -3.44,-3.42 a 13.16,13.16 0 0 1 12.73,-12.93 z"
         id="path3" />
    </clipPath>
    <clipPath
       id="clip-path-4"
       transform="translate(1.14 12.68)">
      <path
         class="cls-1"
         d="M 164.36,130 C 151.64,92.32 106.25,56.36 101.91,71.12 98.4,83.08 74.07,125 64.8,140.71 58.9,147.81 49.38,158.3 49.38,158.3 v 0 c -18.77,12.91 -46.57,23 -46.57,23 -3.87,36.69 29.42,50 29.42,50 6,-4.64 12.36,-9 18.75,-13.05 9.65,7.41 45.61,44.19 41.45,57.95 0,0 18.6,-5.37 19.07,-17.78 0.4,-10.38 -19,-43 -31.28,-55 6.42,-1.7 14.17,-3.41 16.24,-4.06 0.43,-0.13 0.22,-0.7 0.53,-1 a 3.52,3.52 0 0 0 0.46,-0.6 c 31.81,-6.33 50.24,-2.62 59.43,0.91 4,1.53 6.46,-1.75 8.74,-5.33 6.23,-9.71 8.03,-35.78 -1.26,-63.34 z"
         id="path4" />
    </clipPath>
  </defs>
  <g
     id="Calque_2"
     data-name="Calque 2">
    <g
       id="Layer_5"
       data-name="Layer 5">
      <path
         class="cls-2"
         d="m 51.319599,152.8849 c 6.08,3.31 47.5,44.34 43.05,59 0,0 18.600001,-5.36 19.080001,-17.78 0.48,-12.42 -27.400001,-56.67 -37.470001,-59.32 -10.07,-2.65 -24.66,18.1 -24.66,18.1 z"
         id="path5" />
      <path
         class="cls-3"
         d="m 34.179599,167.0349 c 0,0 -33.27,-13.33 -29.42,-50.02 0,0 52.64,-19.2 61.93,-38.4 9.29,-19.2 15.7,-26.36 15.7,-26.36 0,0 40.000001,23.57 31.060001,71 0,0.05 -45.210001,17.46 -79.270001,43.78 z"
         id="path6" />
      <path
         class="cls-4"
         d="m 63.279599,90.1049 c -0.6,-4.73 1,-9.47 3.39,-13.57 9.24,-15.66 33.670001,-57.76 37.240001,-69.7100002 4.34,-14.76 49.72,21.2000002 62.45,58.8800002 9.29,27.52 7.48,53.59 1.25,63.37 -2.28,3.58 -4.78,6.86 -8.74,5.33 -10,-3.84 -30.86,-7.89 -68.000001,0.95 -23.23,5.53 -24.61,-22.05 -27.59,-45.25 z"
         id="path7" />
      <path
         class="cls-3"
         d="m 71.849599,68.9649 c 6.4,-11.68 10.5,-16.27 10.5,-16.27 0,0 41.560001,30.11 32.560001,77.59 a 50.84,50.84 0 0 0 -15.580001,3.65"
         id="path8" />
      <path
         class="cls-2"
         d="m 73.599599,141.9649 c 0,0 -13.39,-41.58 -22.28,-48 0,0 13.38,-14.74 18.26,-21.1 10.02,-13.09 37.330001,53.11 29.33,61.24 -0.32,0.32 -0.1,0.89 -0.53,1 -3.28,1 -20.94,4.77 -24.78,6.86 z"
         id="path12" />
      <g
         class="cls-9"
         id="g16"
         transform="translate(0.769599,-76.5751)" />
      <g
         class="cls-14"
         id="g24"
         transform="translate(0.769599,-76.5751)">
        <g
           class="cls-15"
           clip-path="url(#clip-path-4)"
           id="g23">
          <path
             class="cls-16"
             d="m 28.57,235.72 c 7,0.09 13.41,-3.35 19.55,-6.29 5.47,-2.63 10.65,-5.82 15.94,-8.79 5.29,-2.97 10.45,-6.07 15.72,-9 2.62,-1.48 5.22,-3 7.92,-4.31 1.23,-0.6 2.48,-1.15 3.71,-1.75 -4,1.94 0.81,-0.27 1.42,-0.49 a 79.29,79.29 0 0 1 7.86,-2.42 c 1.59,-0.41 3.2,-0.76 4.81,-1.06 1.18,-0.23 5.45,-1.75 1.22,-0.25 2.3,-0.82 5.77,-0.43 8.19,-0.47 3.3,0 6.56,0.18 9.85,0.3 3.92,0.15 -2,-0.46 0.41,0 1.34,0.25 2.7,0.45 4,0.73 a 84.38,84.38 0 0 1 8.74,2.29 c 1.31,0.42 2.58,0.91 3.88,1.35 q 3.15,1.25 -0.17,-0.12 l 4.72,2 a 43.56,43.56 0 0 0 12.55,2.81 c 13.06,1.39 23.39,-16.66 15.62,-27.23 -3.36,-4.58 -6.47,-8.1 -11.48,-11 a 82.45,82.45 0 0 0 -12.24,-5.31 102.16,102.16 0 0 0 -22.8,-5.12 93.18,93.18 0 0 0 -43.32,4.76 c -14.77,5.39 -27.38,13.24 -39.3,23.45 a 129.6,129.6 0 0 0 -14,14.06 c -4.88,5.71 -10.52,11.6 -12.75,18.92 -2,6.46 3.38,12.87 9.87,13 z"
             transform="translate(1.14,12.68)"
             id="path21" />
          <path
             class="cls-16"
             d="m 62.54,221.49 c 10.49,-6.8 21.55,6.44 27.85,13.41 1.63,1.8 4.45,4.9 5.26,6.1 0.15,0.22 1.67,3.08 1.46,2.61 0.79,1.77 0.5,1 0.51,2.87 0,6.14 -3.44,13 -5.81,19.69 -5.48,15.56 19.81,26.5 26.9,11.34 5,-10.64 8.6,-22.77 7,-34.6 -1.72,-13 -9.78,-21.83 -19.85,-29.39 C 97.81,207.46 88.72,202.9 78.36,203 a 26.86,26.86 0 0 0 -22.24,12.07 c -2.51,3.9 2.51,8.95 6.42,6.41 z"
             transform="translate(1.14,12.68)"
             id="path22" />
          <path
             class="cls-8"
             d="m 1.83,186.88 c 14.43,3 27.79,-0.39 39.82,-8.8 12.48,-8.72 22.23,-20.49 30.34,-33.29 8.5,-13.41 14.65,-28 21.09,-42.48 3.29,-7.39 6.68,-14.76 10.48,-21.9 1.76,-3.31 3.61,-6.57 5.58,-9.76 1.36,-2.21 3,-4.26 3.66,-6.81 0.87,-3.19 0.14,-6.13 -0.42,-9.26 -1.06,-6 -8,-8.57 -13.26,-7.53 C 89.67,48.92 85.79,57.77 81.59,65.56 78,72.18 74.84,79 71.77,85.85 65.55,99.75 59.92,114 52.71,127.43 a 126.77,126.77 0 0 1 -22.36,30 123.76,123.76 0 0 1 -29.51,21.91 c -3,1.6 -2.47,6.82 1,7.54 z"
             transform="translate(1.14,12.68)"
             id="path23" />
        </g>
      </g>
      <path
         class="cls-17"
         d="m 57.369599,156.6349 c 6.08,3.3 41.42,41 37,55.74 0,0 18.600001,-5.37 19.070001,-17.78 0.4,-10.38 -19.000001,-43 -31.270001,-55"
         id="path24" />
      <path
         class="cls-17"
         d="m 73.569599,142.4049 a 290,290 0 0 0 -39.43,25.07 c 0,0 -33.29,-13.37 -29.42,-50.02 0,0 27.81,-10.14 46.57,-23"
         id="path25" />
      <path
         class="cls-17"
         d="m 71.849599,68.9649 c 6.4,-11.68 10.5,-16.27 10.5,-16.27 0,0 41.560001,30.11 32.560001,77.59 a 50.84,50.84 0 0 0 -15.580001,3.65"
         id="path26" />
      <path
         class="cls-18"
         d="m 71.449599,68.7249 c 11,-18.89 29.360001,-51.23 32.370001,-61.4600002 4.34,-14.76 49.73,21.2000002 62.45,58.8800002 9.29,27.52 7.49,53.59 1.26,63.37 -2.28,3.58 -4.78,6.86 -8.74,5.33 -9.19,-3.53 -27.62,-7.25 -59.440001,-0.92"
         id="path27" />
      <path
         class="cls-17"
         d="m 73.569599,142.4049 c 0,0 -13.4,-41.58 -22.28,-48 0,0 13.38,-14.74 18.25,-21.1 10,-13.09 37.370001,53.1 29.36,61.23 -0.31,0.32 -0.1,0.89 -0.53,1 -3.3,1.05 -20.97,4.78 -24.8,6.87 z"
         id="path28" />
      <path
         class="cls-19"
         d="m 117.6396,29.2749 c 0.45,3.07 2.9,4.72 4.9,7 2.15,2.41 4.26,4.88 6.27,7.4 a 146.8,146.8 0 0 1 11.8,17.07 c 6.81,11.55 11.12,24.17 17.44,35.88 a 1.42,1.42 0 0 0 2.62,-0.71 c 0.34,-14.1 -6.09,-28.19 -13.29,-40.06 a 121.14,121.14 0 0 0 -12.47,-17.15 c -3.64,-4.16 -9.19,-12 -15,-12.34 -1.64,-0.1 -2.41,1.54 -2.21,2.91 z"
         id="path29" />
      <path
         class="cls-19"
         d="m 126.7096,66.7349 0.93,0.3 a 4.55,4.55 0 0 0 5.38,-2.65 4.29,4.29 0 0 0 0.23,-3 5.16,5.16 0 0 0 -2.09,-2.73 l -0.81,-0.57 a 4.63,4.63 0 0 0 -3.64,-0.48 4.53,4.53 0 0 0 -3,2.73 4.73,4.73 0 0 0 3,6.37 z"
         id="path30" />
      <path
         class="cls-19"
         d="m 104.9096,64.5449 c 2.35,3.28 5.56,5.84 7.93,9.17 2.18,3.07 3.61,7.3 6.35,9.84 a 2.37,2.37 0 0 0 4,-1.65 c 0.24,-4.22 -3.12,-8.92 -5.6,-12.1 -2.6,-3.34 -6,-7.09 -10,-8.7 -1.85,-0.75 -3.79,1.84 -2.65,3.44 z"
         id="path31" />
    </g>
  </g>
</svg>
