<svg xmlns="http://www.w3.org/2000/svg" xmlns:xlink="http://www.w3.org/1999/xlink" viewBox="0 0 272.07 297.45"><defs><style>.cls-1,.cls-13,.cls-17,.cls-18{fill:none;}.cls-2{fill:#4e4d4c;}.cls-17,.cls-2,.cls-3,.cls-4,.cls-5{stroke:#221f20;}.cls-13,.cls-17,.cls-18,.cls-2,.cls-3,.cls-4,.cls-5{stroke-linecap:round;stroke-linejoin:round;stroke-width:5px;}.cls-3{fill:#e74856;}.cls-4{fill:#e2fafe;}.cls-5{fill:#da935b;}.cls-6{opacity:0.51;}.cls-7{clip-path:url(#clip-path);}.cls-8{fill:#ebfef3;}.cls-9{opacity:0.63;}.cls-10{clip-path:url(#clip-path-2);}.cls-11{opacity:0.55;}.cls-12{clip-path:url(#clip-path-3);}.cls-13{stroke:#4b271d;}.cls-14{opacity:0.37;}.cls-15{clip-path:url(#clip-path-4);}.cls-16{fill:#362559;}.cls-18{stroke:#201c42;}.cls-19{fill:#fff;}</style><clipPath id="clip-path" transform="translate(1.14 12.68)"><path class="cls-1" d="M153.37,83.77s21.23-53.15,24.32-73.28,38.71,1.34,34.07,25.06-44,53.6-44,53.6Z"/></clipPath><clipPath id="clip-path-2" transform="translate(1.14 12.68)"><path class="cls-1" d="M182.77,106.05c.34-5,60.73-54.42,75.44-35.9s7.74,40.59,0,45.43-48.47,5.2-60.24,9.67S182.77,106.05,182.77,106.05Z"/></clipPath><clipPath id="clip-path-3" transform="translate(1.14 12.68)"><path class="cls-1" d="M199.37,142.78c16-.68,47.65-3.13,58.67,24.94a13.44,13.44,0,0,1-.11,10.07c-3.94,9.39-14,28.52-27.59,20.14-17.81-10.93-32.5-34.54-40.26-38.8-2.36-1.29-3.44-.87-3.44-3.42A13.16,13.16,0,0,1,199.37,142.78Z"/></clipPath><clipPath id="clip-path-4" transform="translate(1.14 12.68)"><path class="cls-1" d="M164.36,130c-12.72-37.68-58.11-73.64-62.45-58.88C98.4,83.08,74.07,125,64.8,140.71c-5.9,7.1-15.42,17.59-15.42,17.59h0c-18.77,12.91-46.57,23-46.57,23-3.87,36.69,29.42,50,29.42,50,6-4.64,12.36-9,18.75-13.05,9.65,7.41,45.61,44.19,41.45,57.95,0,0,18.6-5.37,19.07-17.78.4-10.38-19-43-31.28-55,6.42-1.7,14.17-3.41,16.24-4.06.43-.13.22-.7.53-1a3.52,3.52,0,0,0,.46-.6c31.81-6.33,50.24-2.62,59.43.91,4,1.53,6.46-1.75,8.74-5.33C171.85,183.63,173.65,157.56,164.36,130Z"/></clipPath></defs><g id="Calque_2" data-name="Calque 2"><g id="Layer_5" data-name="Layer 5"><path class="cls-2" d="M49.41,216.78c6.08,3.31,47.5,44.34,43.05,59,0,0,18.6-5.36,19.08-17.78s-27.4-56.67-37.47-59.32S49.41,216.78,49.41,216.78Z" transform="translate(1.14 12.68)"/><path class="cls-3" d="M32.27,230.93S-1,217.6,2.85,180.91c0,0,52.64-19.2,61.93-38.4s15.7-26.36,15.7-26.36,40,23.57,31.06,71C111.54,187.2,66.33,204.61,32.27,230.93Z" transform="translate(1.14 12.68)"/><path class="cls-4" d="M61.37,154c-.6-4.73,1-9.47,3.39-13.57C74,124.77,98.43,82.67,102,70.72c4.34-14.76,49.72,21.2,62.45,58.88,9.29,27.52,7.48,53.59,1.25,63.37-2.28,3.58-4.78,6.86-8.74,5.33-10-3.84-30.86-7.89-68,.95C65.73,204.78,64.35,177.2,61.37,154Z" transform="translate(1.14 12.68)"/><path class="cls-3" d="M69.94,132.86c6.4-11.68,10.5-16.27,10.5-16.27S122,146.7,113,194.18a50.84,50.84,0,0,0-15.58,3.65" transform="translate(1.14 12.68)"/><path class="cls-5" d="M153.49,84.33s21.23-53.14,24.33-73.27,38.71,1.34,34.06,25-44,53.61-44,53.61Z" transform="translate(1.14 12.68)"/><path class="cls-5" d="M182.9,106.62c.34-5,60.72-54.43,75.43-35.9s7.74,40.59,0,45.43-48.46,5.2-60.23,9.67S182.9,106.62,182.9,106.62Z" transform="translate(1.14 12.68)"/><path class="cls-5" d="M199.49,143.35c16-.69,47.65-3.14,58.67,24.94a13.39,13.39,0,0,1-.11,10.07c-3.93,9.39-13.94,28.51-27.59,20.14C212.66,187.57,198,164,190.2,159.7c-2.36-1.29-3.44-.88-3.44-3.42A13.16,13.16,0,0,1,199.49,143.35Z" transform="translate(1.14 12.68)"/><path class="cls-2" d="M71.69,205.86s-13.39-41.58-22.28-48c0,0,13.38-14.74,18.26-21.1C77.69,123.67,105,189.87,97,198c-.32.32-.1.89-.53,1C93.19,200,75.53,203.77,71.69,205.86Z" transform="translate(1.14 12.68)"/><g class="cls-6"><g class="cls-7"><path class="cls-8" d="M161.53,75.27c7.17-2.19,12-9.94,15.63-16.08,3.81-6.45,6.58-13.74,9-20.79a112.4,112.4,0,0,0,4.87-21C192.28,9,193.3.09,189.45-7.86c-3.18-6.58-13.72-6.27-17,0S169,5.91,168.11,12.88A169.4,169.4,0,0,1,164,32.29c-1.63,6.42-4,12.53-6.14,18.77s-5.43,12.85-4.38,19.67c.53,3.41,4.95,5.48,8,4.54Z" transform="translate(1.14 12.68)"/></g></g><g class="cls-9"><g class="cls-10"><path class="cls-8" d="M193.56,99.17c6.21-1.2,12-5.06,17.68-7.66,6.26-2.85,12.68-5.37,19.19-7.6C236.1,82,242,79.84,248,79.19s12.27,1.7,18.19.42c4.68-1,5.66-6.2,4-9.91-3.09-7.06-13-8.66-19.78-7.91-7.66.84-14.69,3.48-21.71,6.53a227.79,227.79,0,0,0-20.82,10.35c-6.3,3.54-14.17,7.22-18.69,13-2.73,3.51-.28,8.38,4.36,7.49Z" transform="translate(1.14 12.68)"/></g></g><g class="cls-11"><g class="cls-12"><path class="cls-8" d="M191.32,149.39c3.8.31,7.27,2.67,10.91,3.85,4.07,1.33,8.1,2.69,12.14,4.11a80.21,80.21,0,0,1,18.25,9c5.14,3.37,8.93,7.59,13.62,12.18,6.16,6,17.72,9.14,21.1-1.58,5.07-16.06-16.87-30.36-29.25-35a72.46,72.46,0,0,0-22.85-4.52,74.46,74.46,0,0,0-12.83,1c-3.88.59-7.19,2.6-11.09,2.85a4,4,0,0,0,0,8.06Z" transform="translate(1.14 12.68)"/></g></g><path class="cls-13" d="M153.37,83.77s21.23-53.15,24.32-73.28,38.71,1.34,34.07,25.06-44,53.6-44,53.6Z" transform="translate(1.14 12.68)"/><path class="cls-13" d="M182.77,106.05c.34-5,60.73-54.42,75.44-35.9s7.74,40.59,0,45.43-48.47,5.2-60.24,9.67S182.77,106.05,182.77,106.05Z" transform="translate(1.14 12.68)"/><path class="cls-13" d="M199.37,142.78c16-.68,47.65-3.13,58.67,24.94a13.44,13.44,0,0,1-.11,10.07c-3.94,9.39-14,28.52-27.59,20.14-17.81-10.93-32.5-34.54-40.26-38.8-2.36-1.29-3.44-.87-3.44-3.42A13.16,13.16,0,0,1,199.37,142.78Z" transform="translate(1.14 12.68)"/><g class="cls-14"><g class="cls-15"><path class="cls-16" d="M28.57,235.72c7,.09,13.41-3.35,19.55-6.29,5.47-2.63,10.65-5.82,15.94-8.79s10.45-6.07,15.72-9c2.62-1.48,5.22-3,7.92-4.31,1.23-.6,2.48-1.15,3.71-1.75-4,1.94.81-.27,1.42-.49a79.29,79.29,0,0,1,7.86-2.42c1.59-.41,3.2-.76,4.81-1.06,1.18-.23,5.45-1.75,1.22-.25,2.3-.82,5.77-.43,8.19-.47,3.3,0,6.56.18,9.85.3,3.92.15-2-.46.41,0,1.34.25,2.7.45,4,.73a84.38,84.38,0,0,1,8.74,2.29c1.31.42,2.58.91,3.88,1.35q3.15,1.25-.17-.12l4.72,2a43.56,43.56,0,0,0,12.55,2.81c13.06,1.39,23.39-16.66,15.62-27.23-3.36-4.58-6.47-8.1-11.48-11a82.45,82.45,0,0,0-12.24-5.31,102.16,102.16,0,0,0-22.8-5.12,93.18,93.18,0,0,0-43.32,4.76c-14.77,5.39-27.38,13.24-39.3,23.45a129.6,129.6,0,0,0-14,14.06c-4.88,5.71-10.52,11.6-12.75,18.92-2,6.46,3.38,12.87,9.87,13Z" transform="translate(1.14 12.68)"/><path class="cls-16" d="M62.54,221.49c10.49-6.8,21.55,6.44,27.85,13.41,1.63,1.8,4.45,4.9,5.26,6.1.15.22,1.67,3.08,1.46,2.61.79,1.77.5,1,.51,2.87,0,6.14-3.44,13-5.81,19.69-5.48,15.56,19.81,26.5,26.9,11.34,5-10.64,8.6-22.77,7-34.6-1.72-13-9.78-21.83-19.85-29.39C97.81,207.46,88.72,202.9,78.36,203a26.86,26.86,0,0,0-22.24,12.07c-2.51,3.9,2.51,8.95,6.42,6.41Z" transform="translate(1.14 12.68)"/><path class="cls-8" d="M1.83,186.88c14.43,3,27.79-.39,39.82-8.8,12.48-8.72,22.23-20.49,30.34-33.29,8.5-13.41,14.65-28,21.09-42.48,3.29-7.39,6.68-14.76,10.48-21.9,1.76-3.31,3.61-6.57,5.58-9.76,1.36-2.21,3-4.26,3.66-6.81.87-3.19.14-6.13-.42-9.26-1.06-6-8-8.57-13.26-7.53-9.45,1.87-13.33,10.72-17.53,18.51C78,72.18,74.84,79,71.77,85.85,65.55,99.75,59.92,114,52.71,127.43a126.77,126.77,0,0,1-22.36,30A123.76,123.76,0,0,1,.84,179.34c-3,1.6-2.47,6.82,1,7.54Z" transform="translate(1.14 12.68)"/></g></g><path class="cls-17" d="M55.46,220.53c6.08,3.3,41.42,41,37,55.74,0,0,18.6-5.37,19.07-17.78.4-10.38-19-43-31.27-55" transform="translate(1.14 12.68)"/><path class="cls-17" d="M71.66,206.3a290,290,0,0,0-39.43,25.07S-1.06,218,2.81,181.35c0,0,27.81-10.14,46.57-23" transform="translate(1.14 12.68)"/><path class="cls-17" d="M69.94,132.86c6.4-11.68,10.5-16.27,10.5-16.27S122,146.7,113,194.18a50.84,50.84,0,0,0-15.58,3.65" transform="translate(1.14 12.68)"/><path class="cls-18" d="M69.54,132.62c11-18.89,29.36-51.23,32.37-61.46,4.34-14.76,49.73,21.2,62.45,58.88,9.29,27.52,7.49,53.59,1.26,63.37-2.28,3.58-4.78,6.86-8.74,5.33-9.19-3.53-27.62-7.25-59.44-.92" transform="translate(1.14 12.68)"/><path class="cls-17" d="M71.66,206.3s-13.4-41.58-22.28-48c0,0,13.38-14.74,18.25-21.1,10-13.09,37.37,53.1,29.36,61.23-.31.32-.1.89-.53,1C93.16,200.48,75.49,204.21,71.66,206.3Z" transform="translate(1.14 12.68)"/><path class="cls-19" d="M115.73,93.17c.45,3.07,2.9,4.72,4.9,7,2.15,2.41,4.26,4.88,6.27,7.4a146.8,146.8,0,0,1,11.8,17.07c6.81,11.55,11.12,24.17,17.44,35.88a1.42,1.42,0,0,0,2.62-.71c.34-14.1-6.09-28.19-13.29-40.06A121.14,121.14,0,0,0,133,102.6c-3.64-4.16-9.19-12-15-12.34-1.64-.1-2.41,1.54-2.21,2.91Z" transform="translate(1.14 12.68)"/><path class="cls-19" d="M124.8,130.63l.93.3a4.55,4.55,0,0,0,5.38-2.65,4.29,4.29,0,0,0,.23-3,5.16,5.16,0,0,0-2.09-2.73l-.81-.57a4.63,4.63,0,0,0-3.64-.48,4.53,4.53,0,0,0-3,2.73,4.73,4.73,0,0,0,3,6.37Z" transform="translate(1.14 12.68)"/><path class="cls-19" d="M103,128.44c2.35,3.28,5.56,5.84,7.93,9.17,2.18,3.07,3.61,7.3,6.35,9.84a2.37,2.37,0,0,0,4-1.65c.24-4.22-3.12-8.92-5.6-12.1-2.6-3.34-6-7.09-10-8.7-1.85-.75-3.79,1.84-2.65,3.44Z" transform="translate(1.14 12.68)"/></g></g></svg>