<?xml version="1.0" encoding="UTF-8" standalone="no"?>
<svg
   viewBox="0 0 191.62 209.68"
   version="1.1"
   id="svg43"
   sodipodi:docname="red-mushroom-no-eyes.svg"
   inkscape:version="1.4.2 (2aeb623e1d, 2025-05-12)"
   xmlns:inkscape="http://www.inkscape.org/namespaces/inkscape"
   xmlns:sodipodi="http://sodipodi.sourceforge.net/DTD/sodipodi-0.dtd"
   xmlns="http://www.w3.org/2000/svg"
   xmlns:svg="http://www.w3.org/2000/svg">
  <sodipodi:namedview
     id="namedview43"
     pagecolor="#ffffff"
     bordercolor="#000000"
     borderopacity="0.25"
     inkscape:showpageshadow="2"
     inkscape:pageopacity="0.0"
     inkscape:pagecheckerboard="0"
     inkscape:deskcolor="#d1d1d1"
     showgrid="false"
     inkscape:zoom="3.0093477"
     inkscape:cx="95.701803"
     inkscape:cy="104.84"
     inkscape:window-width="1600"
     inkscape:window-height="836"
     inkscape:window-x="0"
     inkscape:window-y="27"
     inkscape:window-maximized="1"
     inkscape:current-layer="Layer_32" />
  <defs
     id="defs1">
    <style
       id="style1">.cls-1,.cls-13,.cls-6{fill:none;}.cls-2,.cls-4{fill:#b6281c;}.cls-11,.cls-2,.cls-3,.cls-6{stroke:#231f20;stroke-miterlimit:10;}.cls-11,.cls-13,.cls-2,.cls-3,.cls-6{stroke-width:5px;}.cls-3,.cls-5{fill:#ffd062;}.cls-7{opacity:0.51;}.cls-8{clip-path:url(#clip-path);}.cls-9{fill:#901a3d;}.cls-10{fill:#e6fff2;}.cls-11,.cls-14{fill:#ddfaff;}.cls-12{fill:#231f20;}.cls-13{stroke:#440003;stroke-linecap:round;stroke-linejoin:round;}</style>
    <clipPath
       id="clip-path">
      <path
         class="cls-1"
         d="M146.45,102.54c69.54-9.71,34.31-61.28,34.31-61.28S175.47,25.43,98.57,7.5c-46.34-10.81-70.83-1.14-83,8.25A29.79,29.79,0,0,0,4.24,42.54c1,9.8,5.17,23.56,18,38,5.62,6.32,15.2,10.9,26.62,14.2.87,6.34,1.47,10.82,1.47,10.82,1.74,12.88-7.15,39.32-10.22,43.92s-13.27,24-5.61,41.36S73.35,203.64,90,198a27.8,27.8,0,0,0,12.44-8.15,59.43,59.43,0,0,0,3.3,5.51c7,10.82,28.89,18.4,41.18-1.52a41.22,41.22,0,0,0,5.78-23,38.9,38.9,0,0,0,3.83-.93c36.75-17.36,9.71-42.38,9.71-42.38S156,113.77,135.06,114.28a28.91,28.91,0,0,0-20.71,9.63A138.41,138.41,0,0,1,120.89,103C135.93,103.13,146.45,102.54,146.45,102.54ZM109.94,151a41.37,41.37,0,0,0,3.15,5.6c-1.45,2.52-2.75,4.82-3.91,6.94h0a67.94,67.94,0,0,1,.45-13.29C109.73,150.49,109.83,150.75,109.94,151Z"
         id="path1" />
    </clipPath>
  </defs>
  <g
     id="Calque_2"
     data-name="Calque 2">
    <g
       id="Layer_32"
       data-name="Layer 32">
      <path
         class="cls-2"
         d="M145.89,102.31s-99.66,5.61-124.17-22c-12.87-14.48-17-28.24-18-38A29.78,29.78,0,0,1,15,15.52C27.17,6.13,51.67-3.54,98,7.26,174.91,25.2,180.19,41,180.19,41S215.43,92.6,145.89,102.31Z"
         id="path2" />
      <path
         class="cls-3"
         d="M49.8,105.37S44.19,63,42.14,54.31,53.89,33.88,63.59,34.39s46.4,7.66,49.75,10.72S136.6,59.41,136.86,63s-7.4,23.49-14.55,35.74-15.13,51-13.69,64.57S106,192.18,89.4,197.8,41.63,208,34,190.65s2.56-36.77,5.62-41.37S51.55,118.25,49.8,105.37Z"
         id="path3" />
      <path
         class="cls-3"
         d="M147.57,149.63c-3.67-.26-16.57-25.12-33.63,4.29S98.61,185,105.15,195.16c7,10.82,28.89,18.4,41.18-1.52S147.57,149.63,147.57,149.63Z"
         id="path4" />
      <path
         class="cls-2"
         d="M155.93,169.71s-20.72,6.6-35.22-4.6a38.14,38.14,0,0,1-11.33-14.34,24.5,24.5,0,0,1,4.24-26.91c4.62-5,11.42-9.58,20.87-9.81,20.94-.51,31.15,13.28,31.15,13.28S192.69,152.35,155.93,169.71Z"
         id="path5" />
      <path
         class="cls-4"
         d="M38.45,17.13c-2,1.79,0,35.73,0,35.73l17.36-7.61,34.73,3L139.81,65l15.27-12.13Z"
         id="path6" />
      <path
         class="cls-5"
         d="M167.51,33.24s-7.92,25.11-34.36,14.9-7.77-31-7.77-31S141,21.44,149,24.72C157.16,28.07,167.51,33.24,167.51,33.24Z"
         id="path7" />
      <path
         class="cls-5"
         d="M31.18,52.64s-11-4-6.91-14.16c2.1-5.25,6.89-8.32,11.05-10.06a13.79,13.79,0,0,1,14,2c5,4,9.2,10.59-1,18.11"
         id="path8" />
      <ellipse
         class="cls-5"
         cx="79.46"
         cy="22.46"
         rx="7.1"
         ry="5.34"
         id="ellipse8" />
      <path
         class="cls-5"
         d="M156.86,91.07c0,3.76-3.05,5.36-6.81,5.36s-6.81-1.6-6.81-5.36,3-5.14,6.81-5.14S156.86,87.31,156.86,91.07Z"
         id="path9" />
      <ellipse
         class="cls-5"
         cx="130.75"
         cy="133.46"
         rx="10.42"
         ry="8.17"
         id="ellipse9" />
      <path
         class="cls-6"
         d="M160.07,68.1c1.51,7.17-5.08,7.65-7.94,4.59s-27.26-15.32-64.54-24-59.23,7.66-61.28,7.15c0,0-6.64,3.06-8.68-6.13"
         id="path10" />
      <g
         class="cls-7"
         id="g23">
        <g
           class="cls-8"
           clip-path="url(#clip-path)"
           id="g22">
          <path
             class="cls-9"
             d="M44,58.08c4.56.66,9-.47,13.55-.83a95.9,95.9,0,0,1,14.58,0c10,.73,19.7,3.29,29.14,6.4,8.85,2.91,18.33,5.8,26.55,10.18,6.65,3.54,17.09,9,24.52,4.58a2.71,2.71,0,0,0,1-3.65c-4.45-8-16.68-8.9-24.45-11.35-9.92-3.13-19.32-7.87-29.18-11.22a124.25,124.25,0,0,0-29.37-6.43c-8.76-.74-21.18-.64-28.08,5.53C40.11,53.21,41,57.65,44,58.08Z"
             id="path11" />
          <path
             class="cls-9"
             d="M24.45,62.25c5.71,3,12.48,2.74,18.62,1.08,3.84-1,12.47-4.1,13.06-8.92.68-5.59-7.37-4.95-10.46-3.87-6.68,2.33-13.58,2.64-20.29,4.6-3.08.9-4,5.5-.93,7.11Z"
             id="path12" />
          <path
             class="cls-9"
             d="M31,54.82c-4.32-3.31-10.44-1.22-13.79,2.51-4.36,4.85-3.67,11.78,0,16.79,2.72,3.76,6.25,6.46,8.85,10.35,3.47,5.18,7.17,8.09,13.46,8.89,7.13.9,9.74-7.77,7.39-12.89-2.9-6.35-3-13.72-6.25-19.82-2.91-5.52-12.16-4.38-13.53,1.77-1.77,7.92,1.7,17.13,4.12,24.65L41.77,76.53c-1.49-.37-5.12-7.35-6.87-9-1-.88-4.29-2.62-4.55-3.94.26,1.35,1.79-2,2.27-2.67,1.56-2.11.14-4.78-1.6-6.12Z"
             id="path13" />
          <path
             class="cls-9"
             d="M139.19,73.83c-7.59,2.1-11.56,13.31-14.92,19.58-2.93,5.46,1.88,11.11,7.67,10A24.8,24.8,0,0,0,147,93.8a24.32,24.32,0,0,0,4.19-8.52c.17-.66.73-4.52.69-4.52l-2.89,3c1,.08,2,.21,3.06.37,3.61.47,7.2,1,10.81,1.47a31.77,31.77,0,0,0,4.95.55q4,1.62.8-5.29l-.76.33c-2.71-.41-8.4,2.94-10.92,3.89-3.32,1.25-7.66,3.51-11.33,2.89l1.78,13.64a75.23,75.23,0,0,1,13.09-7.16c8.66-3.43,5-17.56-3.92-14.2a71.52,71.52,0,0,0-16.7,8.47c-6.28,4.5-3.67,13,3.76,13.91,5.45.64,10.45-1.07,15.4-3.17s10.42-4,15-6.88c8.45-5.34,6.61-15.88-2.84-18.57-4.72-1.35-9.85-1.71-14.7-2.43-4.56-.68-9.67-2.13-13.76.72s-3.13,7.18-5,11.27c-1.79,3.92-5.27,6-9.36,6.76l7.67,10c3.08-6.34,10.25-16.67,7.57-24a3.63,3.63,0,0,0-4.38-2.48Z"
             id="path14" />
          <path
             class="cls-9"
             d="M119.27,120.7c-13.07,6.45-13.53,26.84-8,38.24,5.39,11,21.32,23.05,33.86,15.87a2.32,2.32,0,0,0,0-4c-3.87-2.83-8.43-4.44-12.18-7.47s-7.44-6.22-9.81-10.55c-5.49-10-2.47-19.28-.82-29.74a2.15,2.15,0,0,0-3.1-2.39Z"
             id="path15" />
          <path
             class="cls-9"
             d="M142.41,172l-.09-.34a3.8,3.8,0,0,0-2.64-2.64c-15.7-3.87-30.7,5.83-39,18.59l13.1,5.52c1.12-3.89,2.22-7.8,3.45-11.67.57-1.78,1.16-3.56,1.78-5.32.3-.89.62-1.77.94-2.65q2.52-4.91-5.08.22c4.3,2.39,8.87-.7,9.24-5.31.73-9.16-11.21-9.88-15.35-3.57-4.46,6.8-6.78,16.69-8.81,24.49s8.83,12.47,13.11,5.53c3.82-6.19,9.56-10.51,15.92-13.88,3.08-1.64,14.78-4.1,13.46-9Z"
             id="path16" />
          <path
             class="cls-9"
             d="M50.82,51.59C43,52.16,40.76,60.9,40.88,67.5c.15,8.76,2.2,18.28,4.19,26.8a70,70,0,0,1,2.18,13.54c.13,4-.28,8-.31,12-.08,8.66-2.92,16.82-4.8,25.24a1.66,1.66,0,0,0,2.75,1.6c11.65-10.78,14-28.74,15.14-43.69.75-9.53,1.08-18.26-.59-27.73-.7-4-1.49-8-2.53-11.91-.72-2.78-.72-5.78-1.8-8.44-.7-1.73-2.2-3.42-4.29-3.27Z"
             id="path17" />
          <path
             class="cls-10"
             d="M159.67,128.64a4,4,0,0,1-1,0l2.13.58c.8.53-.86-.74-1-.85s-.57-.31-.84-.48q.57.48.15.09c-.28-.3-.25-.22.11.23a4.49,4.49,0,0,1-.38-.62c-.21-.39-.16-.29.14.32-.16-.71-.15-.63,0,.23l-8.11,6.18c.18,0,1.64.41.73.14-1.29-.37,2.13,1.19,1,.44-.81-.53.44.34.61.44-.76-.5-.57-.3,0,.16s-.47-.9-.1-.16a5,5,0,0,1,.66,1.19l-.35-.74.15.52c0,1.86,0-1.71,0,.17l9.55-7.27c-.66-.2-.69-.17-.1.07s.55.26,0-.05l-.45-.29c.77.64.94.77.52.39-.26-.33-1.19-1.41,0,.13-.9-1.13.4,1.4,0-.1l-7.58,9.95c1.53-.08-1.37-.68,0-.08-1-.46-1.17-.55-.64-.27s.34.14-.49-.47c.27,0,1.73,2,.14,0l.26.48a3.06,3.06,0,0,1-.55-2l10.24-7.8a7,7,0,0,1-.79-.19c-.59-.18-.36-.07.67.33,0,.05-1.8-1.06-.54-.23s-.52-.5-.37-.46l.63.8a8.84,8.84,0,0,1-.53-1l-9.34,12.15c-1.65-.84-1.33-.74,1,.3q3.94.48.92.19c5.59,1.59,11.45-3.91,9.63-9.63-1.07-3.36-3.45-6.26-7.13-6.81-3.4-.52-6.47.08-8.7,3a8.34,8.34,0,0,0-.64,9.19,16.1,16.1,0,0,0,10.91,7.95c2.93.49,5.67.13,7.87-2.08s2.54-4.93,2.08-7.87c-1-6.56-8.07-11.91-14.65-11.27-4.88.47-9.18,4.66-7.58,9.95,1.88,6.2,6.84,9.87,13.17,10.49,2.31.23,4.59-1.25,5.93-3,1.6-2.07,1.69-4.08,1.35-6.58-1-7.1-8.51-13.7-15.79-12.75-2.09.28-3.69.8-5,2.53-1.12,1.45-1.9,3.76-1.14,5.58,1.3,3.18,3.16,5.65,6.4,7a10.47,10.47,0,0,0,4.17,1,9.12,9.12,0,0,0,3.75-1.24c1.85-.78,3.21-2.27,2.89-4.42a4,4,0,0,0-4-3.5Z"
             id="path18" />
          <path
             class="cls-10"
             d="M135.34,128.26a1.46,1.46,0,0,0,0,.2,3.84,3.84,0,0,0,1.79,2.29l.9.38a2.94,2.94,0,0,0,1.5.07,2,2,0,0,0,.95-.26,2.75,2.75,0,0,0,1.21-.78l.59-.76.38-.9a2.84,2.84,0,0,0,.07-1.5,2.93,2.93,0,0,0-.45-1.4,3.8,3.8,0,0,0-2.29-1.79l-.2,0a3.66,3.66,0,0,0-4.5,4.5Z"
             id="path19" />
          <path
             class="cls-10"
             d="M33.19,9.06c3.36,4.86,13.23,3.44,18.43,3.81,7.64.53,15.28,1,22.89,1.83,15.74,1.76,32,4.33,46.92,9.75,13.65,4.95,27.89,10,39.34,19.18a81.1,81.1,0,0,1,12.72,13.53c4.23,5.38,8.78,11,10.76,17.56.72,2.38,4.73,2.07,4.52-.61-.56-6.87-1.12-13.54-4.1-19.84-3.09-6.54-7.87-12.1-13.21-16.94C160,26.91,145.28,19.64,130.29,15.77,114,11.58,96.87,8.82,80.21,6.67A259.09,259.09,0,0,0,53.53,4.33C48,4.2,36.71,2.32,33.19,7.64a1.41,1.41,0,0,0,0,1.42Z"
             id="path20" />
          <path
             class="cls-10"
             d="M164.63,41.28a4.53,4.53,0,0,1,.75.89c0,.47,0,.32,0-.44,0-.93,0-.94,0,0l-9.81,5.57c.8.14,1.61.23,2.41.42a9.85,9.85,0,0,1,1,.28c-.82-.39-1-.44-.43-.16s.4.21-.41-.35a4.51,4.51,0,0,1-1.32-3.36A4.72,4.72,0,0,1,158,40.92c2-2.31,6.55-2.14,8.61,0,1.46,1.53,1.61,3.74,1.28,5.75-.65,3.92-5.23,5.78-8.55,4.87q2.51.74-2.64-1.71-3.44-3.93-1.19-9l3.72-3.73q8.17.09,5.07-.89c-.59-.21-.46-.14.41.21-.87-.36-1.73-.79-2.57-1.22s-1.64-1-2.49-1.36c-2.62-1.2,2,1.87,2.26,3.35v5.58l.1-.48-2.7,4.63.35-.4L155,49.21q-8.06-2-4.68-.2c-1.07-.9-1.16-1-.29-.2s.75.72-.11-.37a11.18,11.18,0,0,1,.82,1.32V39.12q7.8-5.16,3.32-3.08-3.67,1.45,2.41-.47c-1-.75-3.25.35-4.34.81a10.12,10.12,0,0,0-5.75,6.43c-1.61,4.47,1.2,8.67,4.56,11.2,6.16,4.63,14,1.43,18-4.25,2.11-3,1.8-7.6,0-10.64-2.67-4.55-7.3-9-12.58-10.32-10-2.45-18.51,7.65-13.57,17,2.76,5.21,8.68,7.6,13.83,9.74,7.2,3,15.54.79,18.14-7.24,2.23-6.87-2.53-14-9-16.08a13.73,13.73,0,0,0-15.64,5.65c-3.41,5.25-1.83,12.82,2.63,16.9a13.1,13.1,0,0,0,18-.28c5-4.77,5.41-13.33.63-18.36-4.13-4.35-10.1-5.16-15.76-4.25-4.22.67-6.68,6-5.57,9.81,1.68,5.74,6.22,8.65,11.79,9.9,6.69,1.49,9.49-8.39,2.85-10.31Z"
             id="path21" />
          <path
             class="cls-10"
             d="M106.28,24.87h0l-1.12.86-.86,1.11-.55,1.32-.2,1.46.2,1.46.55,1.32.86,1.11a4.1,4.1,0,0,0,1.77,1.14,2.73,2.73,0,0,0,1.39.37,2.62,2.62,0,0,0,1.47,0,2.67,2.67,0,0,0,1.38-.37,2.79,2.79,0,0,0,1.22-.71,2.66,2.66,0,0,0,1-1,2.62,2.62,0,0,0,.71-1.21,2.71,2.71,0,0,0,.38-1.39,4.18,4.18,0,0,0-.1-2.19v0a5.61,5.61,0,0,0-1.42-2.42,4.08,4.08,0,0,0-1.76-1.13,4.08,4.08,0,0,0-2.12-.48,5.61,5.61,0,0,0-2.77.75Z"
             id="path22" />
        </g>
      </g>
      <path
         class="cls-11"
         d="M63.26,45.89a8.24,8.24,0,0,0-8.9,7.49c-.72,8,.32,19.53,11.27,23.39C83,82.9,89,65,89,65l1-10.17a6.56,6.56,0,0,0-6-7.15Z"
         id="path23" />
      <path
         class="cls-11"
         d="M102.9,52.64s-4.08,12.9,0,19.54,15.33,5.87,15.33,5.87,8.67-5.1,8.17-17.74"
         id="path24" />
      <path
         class="cls-12"
         d="M83.66,51v.15a3,3,0,0,0,.85,2.06,2.3,2.3,0,0,0,.94.6,2.15,2.15,0,0,0,1.12.25,2.91,2.91,0,0,0,2.05-.85,3,3,0,0,0,.85-2.06V51A3,3,0,0,0,88.62,49a2.2,2.2,0,0,0-.93-.6,2.27,2.27,0,0,0-1.12-.25,3,3,0,0,0-2.06.85A3,3,0,0,0,83.66,51Z"
         id="path27" />
      <path
         class="cls-12"
         d="M123,59l-.08.15.45-.58-.15.12-.48.63-.32.75a2.38,2.38,0,0,0-.05,1.24,1.58,1.58,0,0,0,.21.79,1.52,1.52,0,0,0,.4.68,1.58,1.58,0,0,0,.56.56,1.5,1.5,0,0,0,.69.4,2.26,2.26,0,0,0,1.2.27l.82-.11.75-.32.63-.48.49-.63.31-.75a2.37,2.37,0,0,0,.06-1.24,1.64,1.64,0,0,0-.22-.78,2.36,2.36,0,0,0-.64-1l-.15-.12.46.58-.08-.15A2.82,2.82,0,0,0,123,59Z"
         id="path28" />
      <path
         class="cls-12"
         d="M87.5,91.05A7.91,7.91,0,0,0,97,96.94c3.73-.81,7.49-5.15,5.17-9a1.13,1.13,0,0,0-1.54-.4C97.52,89.82,93.75,93,90,89.6a1.51,1.51,0,0,0-2.51,1.45Z"
         id="path29" />
      <path
         class="cls-12"
         d="M153.4,139.08c-.44,4.24-.9,9.06.19,13.28,1,3.79,6.29,3.5,7.4,0,1.44-4.48.6-9.85-.68-14.21-1.17-4-6.51-2.87-6.91.93Z"
         id="path30" />
      <path
         class="cls-12"
         d="M140.24,156.25c3.08-1.9,3.48-5.71,3.73-9s1.1-7.84-1.84-10.37a3.55,3.55,0,0,0-4.87,0c-2.8,2.35-2.17,6.44-2.31,9.76-.14,3.14-.45,6.88,2,9.23a2.77,2.77,0,0,0,3.29.42Z"
         id="path31" />
      <path
         class="cls-13"
         d="M48.23,95.05c-12.57-4-21.26-8.65-26.51-14.7-12.71-14.62-18-28-19-37.8A29.78,29.78,0,0,1,14,15.76C26.17,6.37,50.66-3.3,97,7.51c76.9,17.93,82.18,33.76,82.18,33.76s35.24,51.57-34.3,61.28c0,0-10.43.58-25.37.45"
         id="path32" />
      <path
         class="cls-13"
         d="M48.23,95.05c-1.93-13-4.15-32.73-5.7-39-.44-1.77-1.52-3.6-.81-5.5"
         id="path33" />
      <path
         class="cls-13"
         d="M100.88,191.68a27.88,27.88,0,0,1-12.23,7.89c-16.62,5.61-47.77,10.21-55.43-7.15s2.55-36.77,5.62-41.36,12.71-31.22,11-44.09c0,0-.62-5-1.57-11.92"
         id="path34" />
      <path
         class="cls-13"
         d="M136.11,64.76c.26,3.57-7.4,23.49-14.55,35.74-2.55,4.37-5.2,12.11-7.5,20.87"
         id="path35" />
      <path
         class="cls-13"
         d="M107.87,165.08c-11.27,20.54-7.92,21.36-2.16,30.31,7,10.82,27.58,20,39.87,0,5-8.18,6.15-17.06,5.71-24.69"
         id="path36" />
      <path
         class="cls-13"
         d="M112,157.71c-2,3.5-2.65,4.59-4.17,7.37"
         id="path37" />
      <path
         class="cls-13"
         d="M155.93,169.71s-20.72,6.6-35.22-4.6a34.85,34.85,0,0,1-11-13.53c-4.16-9-3.61-18.69,3.13-26,4.62-5,11.42-9.58,20.87-9.81,20.94-.51,31.15,13.28,31.15,13.28S192.69,152.35,155.93,169.71Z"
         id="path38" />
      <path
         class="cls-13"
         d="M160.32,67.88c1.51,7.16-5.08,7.65-7.94,4.58s-27.27-15.32-64.54-24S28.6,56.12,26.56,55.61c0,0-6.64,3.06-8.68-6.13"
         id="path39" />
      <path
         class="cls-14"
         d="M77.47,57.84a3,3,0,0,0,0-1.8,3.56,3.56,0,0,0-.91-1.57,3.89,3.89,0,0,0-1.59-1,4.06,4.06,0,0,0-2,0h1.5a3,3,0,0,0-2.93.74,4.25,4.25,0,0,0-.66.87,4,4,0,0,0-.34,2.9A4.06,4.06,0,0,0,71.68,60a3.53,3.53,0,0,0,1.21.78,3,3,0,0,0,1.66.22,2.44,2.44,0,0,0,.6-.11,3.33,3.33,0,0,0,1.56-1.07,2.9,2.9,0,0,0,.65-1.83,3.72,3.72,0,0,0-.42-1.52A3.13,3.13,0,0,0,75.15,55l-.07,0,.73.31c-.34-.16-.69-.3-1-.44l.73.31-.17-.1.62.48a1.8,1.8,0,0,1-.2-.19l.48.61a1.14,1.14,0,0,1-.15-.23l.31.71a1.15,1.15,0,0,1-.1-.33l.11.8a1.22,1.22,0,0,1,0-.27l-.1.78a1.8,1.8,0,0,1,0-.19l-.29.71a3.19,3.19,0,0,0,.51-1.75l-.83,2a.47.47,0,0,1,.1-.1l-.56.44a.35.35,0,0,1,.12-.07l-.66.28.2-.07-.72.1h.29l-.71-.09a1.4,1.4,0,0,1,.35.1l-.61-.26a1.18,1.18,0,0,1,.19.11l-.51-.4a1.26,1.26,0,0,1,.2.2L73,58a1.62,1.62,0,0,1,.1.18l-.24-.57a1.46,1.46,0,0,1,0,.2l-.09-.62v.07a2.35,2.35,0,0,0,2,2.3,2.21,2.21,0,0,0,1.49-.28l.48-.36a2.37,2.37,0,0,0,.6-1Z"
         id="path40" />
      <path
         class="cls-14"
         d="M111.08,64.55a1.06,1.06,0,0,0,0-2.11,1.06,1.06,0,0,0,0,2.11Z"
         id="path41" />
      <path
         class="cls-14"
         d="M140.19,142.71c3.36,0,3.37-5.23,0-5.23s-3.38,5.23,0,5.23Z"
         id="path42" />
      <path
         class="cls-14"
         d="M157,142.52c3.11,0,3.12-4.85,0-4.85s-3.13,4.85,0,4.85Z"
         id="path43" />
    </g>
  </g>
</svg>
