<svg xmlns="http://www.w3.org/2000/svg" viewBox="0 0 184.35 175.21"><defs><style>.cls-1{fill:#b8e9f0;}.cls-1,.cls-3,.cls-8{stroke:#231f20;stroke-miterlimit:10;stroke-width:5px;}.cls-2{fill:#fff;}.cls-3{fill:#fdfc80;}.cls-4{fill:#684b3b;}.cls-5{opacity:0.5;}.cls-6{fill:#901a3d;}.cls-7{fill:#e6fff2;}.cls-8{fill:none;}.cls-9{fill:#ddfaff;}</style></defs><g id="Calque_2" data-name="Calque 2"><g id="Layer_33" data-name="Layer 33"><path class="cls-1" d="M109.28,56.27s9.7-26.05-7.66-43.41S71,5.2,71,5.2s-25.07,16.34-3.35,47S109.28,56.27,109.28,56.27Z"/><path class="cls-2" d="M94,43.3a97.26,97.26,0,0,1-6-10.44c-1.75-3.52-2.65-7.66-4.83-10.93A2.28,2.28,0,0,0,79,23.07C78.5,31.3,85,40.39,90.31,46.14c1.78,1.94,5.17-.61,3.68-2.84Z"/><path class="cls-3" d="M83.74,50.65c2.05-1,52.55-14.3,72.49,7.15a141.08,141.08,0,0,1,17.64,23.53,55.64,55.64,0,0,1,6.32,42.12c-.44,1.7-7.61,15.44-8.95,16.84C161,151,152.68,157.88,132,165.54c-35.7,13.24-62.6,5.89-80-4a49.63,49.63,0,0,1-25.24-46.82c.94-12.29,4.88-26.23,16.06-36.51C67.91,55.25,83.74,50.65,83.74,50.65Z"/><path class="cls-4" d="M102.64,46.05c-.51,1.62-16.34,31.81,0,70.08S145,160.88,145,160.88L98.09,172.2s-34.26-21.57-38.86-50.68c-3.08-19.5-.84-42.12,2.68-53.67a19.94,19.94,0,0,1,11.45-12.6Z"/><g class="cls-5"><path class="cls-6" d="M27.64,99.55A45.64,45.64,0,0,0,34,120.71a58.75,58.75,0,0,0,14.31,15.91c11.57,9,26.2,14.22,40.53,16.79a132.26,132.26,0,0,0,44.47.32c13.67-2.2,31.09-6.42,40.7-17l-7.14-7.14c-10.32,8.81-24.14,13.3-36.53,18.26l4,14.42q12.87-5.22,25.48-11.06l-7.93-13.57c-5.25,2.24-10.92,4-16.26,6.16a124.5,124.5,0,0,1-16.83,5.63c-11.09,2.72-21.5,3.1-32.59.06a126,126,0,0,1-30.2-12.56c-4.4-2.59-6.13-6.36-9.38-10-1.56-1.77-3.89-2.93-5.09-4.75-1.71-2.6-2.66-6.74-3.8-9.62-1.89-4.76-10.58-6.56-11.56,0-1,6.38-.62,12.3,3.32,17.68,5,6.85,16.55,0,11.41-6.67-1.62-2.11-3.58-5-3.17-7.82H26.11c1.32,3.3,3.46,7,4.21,10.47s-.76,7.15.13,10.88c1.61,6.76,6,12.22,11.47,16.22,5.3,3.86,11.57,6.44,17.55,9.07a158.87,158.87,0,0,0,20.11,7.62c13.7,3.92,28.48,4.68,42.29.79a115.66,115.66,0,0,0,19.73-8c6.55-3.25,12.09-7.55,18.15-11.5,8.51-5.54,1.11-18.11-7.93-13.57q-11.52,5.78-23.31,11c-3.73,1.63-4.51,7-2.68,10.22,2.19,3.85,6.54,4.29,10.23,2.69,13.67-5.95,24.63-15.82,36.88-24,4.9-3.27,1.73-10.22-3.89-9.23-6.46,1.13-12.52,4-18.78,6a146.75,146.75,0,0,1-18.47,4.87,111,111,0,0,1-38.26.19c-12.26-2.12-25-5.76-35.31-12.9-5.44-3.75-9.44-8.72-13.31-14-2-2.68-3.58-5.59-5.52-8.27-1.8-2.48-4.15-4.59-6.16-6.89-1.82-2.09-5.79-.47-5.6,2.32Z"/></g><g class="cls-5"><path class="cls-7" d="M86.57,59.39c7.16,3,15.57,2.37,23.24,2.5,7.87.13,16.09-.13,23.89,1.07,13,2,21.77,12.62,33.69,17A2.41,2.41,0,0,0,170.33,77c-4.71-13.33-17.51-23.89-31-27.56-8.53-2.31-17.85-1.87-26.61-2-8.43-.1-18.37-1-26.17,2.63-3.41,1.59-3.61,7.71,0,9.24Z"/></g><path class="cls-8" d="M83.74,50.65c2.05-1,52.55-14.3,72.49,7.15a141.08,141.08,0,0,1,17.64,23.53,55.64,55.64,0,0,1,6.32,42.12c-.44,1.7-7.61,15.44-8.95,16.84C161,151,152.68,157.88,132,165.54c-35.7,13.24-62.6,5.89-80-4a49.63,49.63,0,0,1-25.24-46.82c.94-12.29,4.88-26.23,16.06-36.51C67.91,55.25,83.74,50.65,83.74,50.65Z"/><path d="M132.6,66.33c-1.21,4,.45,7.81,2.24,11.38,2,4.05,4.23,7.89,9.18,8.27A5.57,5.57,0,0,0,149,83.14c2.27-4.42-.09-8.41-2.45-12.24-2.06-3.35-4.5-6.62-8.48-7.65a4.5,4.5,0,0,0-5.42,3.08Z"/><path d="M152.36,97.8c3.65,5.13,9.49,7.06,15.44,4.72s10.26-8.73,8.2-15.18a1.8,1.8,0,0,0-3.44,0c-1.32,3.76-3.4,8.38-7.38,9.94A13.9,13.9,0,0,1,154,96.19c-1-.55-2.31.61-1.61,1.61Z"/><path class="cls-1" d="M14.3,20c1.94-.82,49-12.76,75.06,48,0,0-33.95,28.09-65.23,4.6S1,25.63,14.3,20Z"/><path class="cls-2" d="M63.71,59.2c-2.05-2.35-5-3.29-7.8-4.58q-5.19-2.38-10.34-4.87c-6-2.91-12.23-8-18.74-9.5a2.79,2.79,0,0,0-2.7,4.62c4.4,5.44,13.36,8.69,19.62,11.49,5.48,2.45,13.22,6.53,19.32,5.27a1.47,1.47,0,0,0,.64-2.43Z"/><g class="cls-5"><path class="cls-7" d="M29.56,27.47a67.46,67.46,0,0,1,17.4,7c4.95,3,9.51,7,14.14,10.48.62.47,1.4-.3,1.24-.95-3.43-13.39-19-21.75-32.19-20.91-2.45.16-3.14,3.73-.59,4.42Z"/></g><g class="cls-5"><path class="cls-7" d="M79.27,10.62A54.09,54.09,0,0,1,94.21,20.86c3.22,3.1,6.29,9.8,10.85,10.7a1.88,1.88,0,0,0,2.25-1.27c1.78-5.38-5.19-11.62-8.72-14.89a51,51,0,0,0-17-10.17c-3.1-1.17-5.31,4-2.27,5.39Z"/></g><path class="cls-9" d="M137.33,68.46l-.29.87c-1.34,3.94,6.08,4,4.73,0l-.29-.87a2.17,2.17,0,0,0-4.15,0Z"/></g></g></svg>