<?xml version="1.0" encoding="UTF-8"?>
<svg id="Calque_2" data-name="Calque 2" xmlns="http://www.w3.org/2000/svg" xmlns:xlink="http://www.w3.org/1999/xlink" viewBox="0 0 107.4 206.62">
  <defs>
    <style>
      .cls-1 {
        fill: #cde2c3;
      }

      .cls-1, .cls-2, .cls-3, .cls-4, .cls-5 {
        stroke-width: 0px;
      }

      .cls-6 {
        fill: #bc63e9;
        stroke: #3f231d;
      }

      .cls-6, .cls-7, .cls-8, .cls-9, .cls-10, .cls-11, .cls-12, .cls-13, .cls-14 {
        stroke-width: 2.51px;
      }

      .cls-6, .cls-7, .cls-10, .cls-11, .cls-12, .cls-13, .cls-14 {
        stroke-linecap: round;
        stroke-linejoin: round;
      }

      .cls-7 {
        stroke: #451806;
      }

      .cls-7, .cls-2, .cls-9, .cls-11, .cls-12 {
        fill: none;
      }

      .cls-8 {
        fill: #9ef9ab;
      }

      .cls-8, .cls-9 {
        stroke-miterlimit: 10;
      }

      .cls-8, .cls-10, .cls-14 {
        stroke: #231f20;
      }

      .cls-15 {
        opacity: .52;
      }

      .cls-16 {
        opacity: .91;
      }

      .cls-17 {
        clip-path: url(#clippath-1);
      }

      .cls-9 {
        stroke: #183b0d;
      }

      .cls-10 {
        fill: #d737b8;
      }

      .cls-18 {
        opacity: .3;
      }

      .cls-11 {
        stroke: #641233;
      }

      .cls-3 {
        fill: #231f20;
      }

      .cls-12, .cls-13 {
        stroke: #6d002a;
      }

      .cls-19 {
        clip-path: url(#clippath);
      }

      .cls-13 {
        fill: #fc3352;
      }

      .cls-20 {
        opacity: .43;
      }

      .cls-21 {
        opacity: .41;
      }

      .cls-14 {
        fill: #9a673d;
      }

      .cls-4 {
        fill: #eafdf1;
      }

      .cls-5 {
        fill: #82263e;
      }
    </style>
    <clipPath id="clippath">
      <path class="cls-2" d="m62.86,99.37c0-.65-5.95-12.54-5.95-12.54l5.95-11.2s-15.65-14.48-19.91-9.19c-4.27,5.29-13.19,1.65-13.96,1.13,0,0-14.74,9.57-17.07,18.25-1.91,7.13,13.23,7.61,13.23,7.61,0,0-.95,12.16,3.84,19.15l-6.72,36.46s37.11,13.19,57.92-26.38l-17.33-23.27Z"/>
    </clipPath>
    <clipPath id="clippath-1">
      <path class="cls-2" d="m74.22,53.92s-12.45-9.72-14.18-20.93c2.93.42,6.02.42,9.02-.34,11.8-2.97-3.23-24.31-17.84-29.74-14.61-5.43-23.79,9.18-26.08,17.07-.36,1.25-.13,2.28.51,3.12-4.55,10.28-13.87,28.26-21.66,23.59-10.76-6.45,20.07,19.76,30.84,5.35,0,0,4.95,13.81,20.07,7.41,0,0-3.01-4.14-4.69-9.41,1.76,4.27,7.21,10.38,24.01,3.88Z"/>
    </clipPath>
  </defs>
  <g id="Layer_1" data-name="Layer 1">
    <g>
      <g>
        <path class="cls-3" d="m58.67,200.56c2.05,0,2.05-3.18,0-3.18s-2.05,3.18,0,3.18h0Z"/>
        <path class="cls-3" d="m59.09,199.79l.22-.65c.11-.32.03-.75-.14-1.03s-.48-.54-.8-.62c-.34-.08-.73-.06-1.03.14s-.53.46-.62.8l-.17.67c-.08.34-.04.71.13,1.01.16.27.47.53.79.6.34.08.71.06,1.01-.13s.49-.45.6-.79h0Z"/>
        <path class="cls-3" d="m60.23,199.92l.14-.06-4.36-2.5c.02.15.01.29.02.44.03.52.11-.49.19-.67.14-.29.17-.36.08-.2-.15.26-.03.11.35-.43l-.61.79c.39-.65.97-1.09,1.74-1.3l1.1-.15h-.17c.37.06.74.11,1.11.16l-.15-.04,1,.42c.44.28.79.64,1.07,1.08l.43,1.02c-.05-.11-.08-.22-.09-.33l.15,1.14v-.17c-.05.38-.1.76-.15,1.15.02-.15.07-.29.14-.42l-.44,1.04c.07-.13.16-.26.25-.38l-.68.88c.1-.12.2-.23.31-.34l-6.91-.89.12.21-.44-1.05c.08.23.14.44.19.68l-.16-1.2c.04.32.04.62.01.94l.17-1.24-.03.13.47-1.12-.06.12.74-.95-.1.08,3.35-1.39h-.13c.8.23,1.6.44,2.4.66l-.12-.06.96.75-.1-.11,1.23,2.1-.05-.14.17,1.27.02-.19-.65,2.4c.04-.12.11-.24.18-.34l-5.37,2.18.15.04-2.1-1.22.12.1-.74-.96.08.14-.48-1.13.04.16-.17-1.26v.16c.05-.42.11-.84.16-1.26l-.06.19.48-1.13-.11.17.74-.96c-.08.11-.18.21-.28.31l7.43.96-.08-.13.48,1.13-.05-.14.17,1.26c-.02-.1-.02-.2,0-.3l-.17,1.25.05-.14-.48,1.13.07-.13-.74.95.1-.11-.95.74.14-.06-2.39.65h.14c-1.38-.8-2.75-1.59-4.13-2.38l.08.14-.49-1.15c.05.1.07.21.08.32l-.18-1.3v.16c.06-.44.12-.88.18-1.32-.01.11-.04.21-.08.32l.51-1.2-.08.14.79-1.03c-.06.09-.14.17-.23.23l1.05-.81-.15.07,1.25-.53-.16.04,1.4-.19c-.11.02-.22.02-.33,0l1.42.19c-.17-.03-.32-.06-.49-.12l1.29.54-.14-.09,1.09.84-.12-.12.84,1.09c-.08-.1-.14-.2-.18-.32l.55,1.29-.05-.18.19,1.44c-.02-.13-.03-.25-.01-.38l-.19,1.44c.02-.13.05-.25.11-.37l-.55,1.3c.05-.12.12-.23.21-.33l-.85,1.1c.08-.1.18-.19.28-.26l-1.11.86c.11-.07.22-.13.34-.18l-1.31.55.18-.05-1.46.2c.13-.02.25-.02.38,0l-1.46-.2c.11.02.21.05.31.1l-1.32-.56.14.08-1.12-.86c.09.06.17.14.24.22l-.87-1.12c.07.08.13.18.18.28l-.56-1.33c.07.16.11.3.13.47l-.2-1.48c0,.11,0,.22-.02.32l.2-1.48-.05.16.56-1.33c-.04.1-.09.19-.16.27l.88-1.13-.11.11,1.13-.88c-.08.07-.16.12-.25.16l1.34-.57c-.15.06-.28.09-.44.12l1.49-.2c-.1,0-.2,0-.31-.01l1.5.2c-.1-.02-.2-.04-.29-.08l1.35.57c-.09-.04-.18-.09-.25-.16l1.14.88-.1-.11.88,1.14c-.07-.08-.12-.17-.15-.27l.57,1.35-.03-.15.2,1.5v-.16c-.07.5-.14,1-.2,1.5,0-.11.03-.21.07-.31l-.57,1.35c.04-.1.09-.19.16-.27l-.88,1.15.11-.11-1.15.89c.07-.07.16-.12.25-.16l-1.35.57.14-.04-1.51.2h.15c-.5-.07-1.01-.14-1.51-.21l.15.04-1.36-.57.13.07-1.15-.89c.08.05.15.12.2.2l-.89-1.15.07.13-.57-1.36c.04.09.06.19.07.29l-.2-1.51c.01.1,0,.21,0,.31l.2-1.51c-.02.1-.05.21-.09.3-.48,1.32-.12,3.21.57,4.39s2.05,2.31,3.41,2.62c3.12.71,6.03-.94,7.01-3.98.91-2.82-.33-6.06-2.84-7.6-2.96-1.82-6.97-.72-8.73,2.22-1.53,2.56-1.21,5.94.92,8.06s5.41,2.44,8.03,1.09c2.44-1.26,3.68-4.04,3.32-6.69s-2.27-4.87-4.89-5.67c-2.81-.86-6.14.62-7.56,3.14s-1.2,5.93.94,8.06c2.77,2.76,7.6,2.24,9.61-1.14,1.63-2.76.72-6.6-2.12-8.17-1.42-.79-3.42-.96-4.82,0-1.23.84-2.18,1.84-2.6,3.32s-.22,3.01.56,4.28c1.6,2.61,5.22,3.12,7.43.96,1.3-1.28,2.02-2.98,1.78-4.8-.28-2.1-1.71-3.81-3.79-4.39s-4.19.43-5.37,2.18-1.11,4.26.2,5.95c1.48,1.91,4.35,2.72,6.49,1.33,3.02-1.95,2.93-5.82.95-8.46-.96-1.28-2.11-2.18-3.8-2.18s-2.84.89-3.8,2.18c-1.28,1.72-1.53,4.19-.4,6.05,1.47,2.44,4.74,3.19,7.03,1.42,1.92-1.49,2.41-4.05,1.34-6.19-.26-.51-.61-.98-1.03-1.38-.81-.77-1.67-1.04-2.77-1.17-1.51-.18-2.95,1.47-2.89,2.89v.15c.05,1,.51,1.9,1.39,2.41.94.55,1.87.41,2.82,0h0Z"/>
        <path class="cls-3" d="m101.71,163.19l-.16-.28c-.26-.44-.74-.72-1.25-.72s-1,.28-1.25.72-.26,1.02,0,1.47.75.74,1.25.72h.33c.23-.01.44-.07.64-.18.19-.11.34-.26.45-.45.23-.39.23-.88,0-1.27h0Z"/>
        <path class="cls-3" d="m100.69,165.81c5.11,0,5.12-7.95,0-7.95s-5.12,7.95,0,7.95h0Z"/>
        <path class="cls-3" d="m101.47,167.86c5.99,0,6-9.32,0-9.32s-6,9.32,0,9.32h0Z"/>
        <path class="cls-3" d="m102.64,163.98c.95,0,.95-1.48,0-1.48s-.95,1.48,0,1.48h0Z"/>
        <path class="cls-3" d="m102.06,162.78l-.27-.37c-.19-.32-.44-.57-.76-.76l-.5-.21c-.37-.1-.75-.1-1.12,0-.27.07-.51.19-.72.38-.23.15-.41.35-.54.59-.15.24-.24.5-.25.78-.06.28-.05.56.04.84.1.36.28.67.54.93l.36.31c.19.2.41.34.66.42.24.13.51.19.79.18l.55-.07c.27-.06.5-.19.7-.37.15-.09.28-.21.37-.37.18-.2.3-.43.37-.7l.07-.55c0-.37-.09-.72-.28-1.04h0Z"/>
        <path class="cls-3" d="m96.96,162.39l-.08.66c-.03.72.12,1.4.45,2.03.21.65.57,1.22,1.09,1.69.48.51,1.04.88,1.69,1.09.63.33,1.3.48,2.03.45l1.4-.19c.89-.25,1.66-.7,2.32-1.35l.82-1.06c.48-.82.72-1.71.72-2.66l-.03-.66c.03-.72-.12-1.39-.45-2.01-.21-.65-.57-1.2-1.08-1.68-.47-.51-1.03-.87-1.68-1.08-.62-.33-1.29-.48-2.01-.45l-1.38.19c-.88.25-1.65.69-2.3,1.34l-.81,1.05c-.47.81-.71,1.69-.71,2.63h0Z"/>
      </g>
      <path class="cls-6" d="m105.35,144.95c-.1-8.48-10-13.08-16.57-7.72-3.56,2.91-7.72,7.17-12.42,13.41-22.4,29.75-46.55,22.13-43.44,43.89,3.1,21.75,34.12-.98,34.12-.98,0,0,37.46-28.61,38.25-45.27.05-1.15.07-2.26.06-3.33Z"/>
      <g class="cls-16">
        <path class="cls-1" d="m36.54,196.4c-.99-8.23,4.49-13.21,11.29-16.61,5.6-2.79,10.92-5.44,15.8-9.43,5.3-4.33,9.95-9.4,14.68-14.34s10.37-9.94,14.46-15.62c1.22-1.69-1.28-3.14-2.66-2.05-13.26,10.5-21.94,26.24-37.07,34.59-7.36,4.06-26.64,12.28-17.64,23.91.34.43,1.19.08,1.12-.46h0Z"/>
      </g>
      <g class="cls-21">
        <path class="cls-5" d="m41.22,193.02c.06,4.81,4.64,7.25,9.07,6.5,6.43-1.09,11.9-6.47,16.62-10.6,11.84-10.38,22.22-22.53,31.28-35.38,3.06-4.34-2.77-9.14-6.89-6.89-8.57,4.67-16.28,10.75-23.5,17.28-3.59,3.25-7.07,6.62-10.55,9.98s-7.25,8.27-11.91,10.05c-4.06,1.55-5.47,8.9,0,9.72,10.06,1.52,20.77-6.84,28.15-12.92,8.22-6.77,15.48-15.51,20-25.18l-7.66.99c-.8-.88-4.85,6.36-5.52,7.31-2.07,2.92-4.5,5.57-7.11,8.02-4.27,4.01-8.84,7.51-11.31,12.99-1.72,3.82,2.24,9.69,6.54,6.54,12.59-9.23,22.95-20.86,30.13-34.76l-9.26-3.9c-1.08,7.63-7.43,13.54-12.66,18.75-5.92,5.89-12.43,10.99-19.36,15.63l6.38,8.27c3.22-2.59,6.45-5.06,9.35-8.02,3.73-3.8-1.05-10.24-5.74-7.44-3.55,2.12-6.72,4.67-9.99,7.19-5.19,4-.56,12.86,5.32,9.1,8.48-5.43,16.31-11.93,23.22-19.26,6.27-6.65,12.22-13.54,13.43-22.87.65-5.02-7.29-6.84-9.44-2.56-6.24,12.44-14.98,23.33-26.21,31.62l6.54,6.54c3.4-7.59,11.82-12.4,16.82-18.99,4.29-5.67,11.01-14.28,5.77-21.05-1.95-2.52-6.26-1.47-7.66.99-4.2,7.39-8.9,14.12-15.16,19.94-3.11,2.9-6.47,5.48-10.06,7.75-2.71,1.71-8.49,6.12-11.83,5.61v9.72c9.26-3.58,16.01-12.55,23.06-19.24,7.75-7.35,15.81-14.11,25.31-19.1l-6.89-6.89c-6.93,9.37-14.47,18.33-22.66,26.62-3.93,3.98-8,7.85-12.08,11.68-3.36,3.15-7.99,7.75-13.15,5.98-.19-.06-.38.1-.38.29h0Z"/>
      </g>
      <g>
        <path class="cls-3" d="m16.86,86.15c-9.74-.86-18.11,12.44-16.7,21.17.72,4.44,3.9,8.38,8.5,9.04s9.65-2.25,10.55-7.16c.76-4.15-1.6-9.17-6.2-9.65-4.15-.43-9.31,2.93-10.02,7.1-.82,4.79,3.3,9.12,8.17,8.02s6.21-6.4,3.7-10.17c-1.28-1.92-3.62-2.17-5.34-.69-1.43,1.24-2.19,2.53-2.75,4.32-1.31,4.17,5.17,7.03,7.16,3.02.3-.6.6-1.21.89-1.81l-7.53-.98.13.96c.73,5.23,9.8,3.08,8.11-2.24l-.29-.92c-1.2-3.77-6.88-4.07-7.95,0-.17.66-.34,1.31-.52,1.97l7.69,1.04.4-1.24-5.34.69c.19-3.11,1.12-3.61,2.76-1.51,2.29.87,2.27,2.06-.06,3.56-1.66,1.02-3.9.44-5.34-.59-3.33-2.39-2.81-6.81-1.57-10.23,2.22-6.14,6.89-8.9,11.93-12.39.59-.41.35-1.25-.36-1.31h0Z"/>
        <path class="cls-3" d="m59.57,77.73c4.28.47,9.44,1.9,13.34,3.73,2.14,1,4.58,2.25,5.74,4.42.56,1.11.82,2.29.8,3.53-.57,2.61-.42,2.41.44-.59-4.84-1.25-6.85,6.06-2.06,7.47,8.98,2.65,11.41-11.17,2.42-11.87s-11.5,12.4-2.69,14.43c9.41,2.17,10.72-10.81,7-16.43-5.32-8.02-16.93-9.29-25.29-6.91-1.3.37-.91,2.08.3,2.21h0Z"/>
        <path class="cls-3" d="m35.61,48.27c-1.28,7.31-4.32,19.97,1.5,25.95.69.71,2.25.23,2.12-.88-.48-4.08-1.71-7.88-1.85-12.06s-.1-8.54-.34-12.82c-.04-.77-1.28-1.05-1.43-.19h0Z"/>
        <path class="cls-3" d="m41.19,146.98c-2.21,6.87-3.1,14.09-4.11,21.22-.84,5.88-1.95,11.97-.89,17.89.75,4.19,2.78,9.36,7.47,10.22,4.43.81,8.8-3.71,9.35-7.89,1.23-9.39-10.88-9.21-13.34-1.37-1.22,3.89.57,8.56,5.2,8.44,5.51-.15,7-6.11,6.13-10.55-.7-3.61-6.37-4.34-7.99-1.04-1.27,2.58-1.74,4.77-.58,7.52s4.98,4.78,7.37,1.95l.82-.97c2.18-2.59.69-6.17-2.67-6.45l-1.26-.11,4.25,3.24-.37-.76-7.99-1.04.66.23,3.16.41c1.77.95-1.58,2.19-2.97.68-1.09-1.18-1.43-5.31-1.5-6.76-.19-3.63.18-7.31.4-10.93.47-7.85,1.62-15.74,1.2-23.6-.07-1.32-1.89-1.6-2.31-.31h0Z"/>
        <path class="cls-3" d="m45.82,190.88c1.4-1.3,2.7-2.81,4.17-4.02.48-.39,1.06-.76,1.63-.99.35-.14.79-.27,1.16-.32.36-.04.86.29.36.09l-1.96-1.14.34.38-1.15-1.98c-.11-.33.05-.04-.42.46-.34.36-.66.73-1,1.08-.48.51-.96,1.01-1.46,1.48-.17.16-1.51.91-.88.77h2.36l-.4-.07,1.94,1.13-.29-.28,1.12,1.93-.08-.51v2.3c.54-1.97,2.11-3.14,2-5.4-.08-1.75-1.56-3.73-3.52-3.52-3.13.34-4.81,2.42-6.17,5.09-1.52,2.99-.7,6.8,2.84,7.81,2.97.85,5.41-.96,7.58-2.73s4.17-3.95,5.06-6.63.48-6.18-2.04-7.95-5.56-1.06-8.09.11c-2.36,1.09-4.08,2.97-5.11,5.34s-.82,4.53-.33,6.97c.22,1.07,1.6,1.27,2.32.61h0Z"/>
        <path class="cls-3" d="m68.15,128.65c2.17,1.75,4.27,2.41,7.08,2.76,3.27.41,8-.35,10.79,1.7l-1.54-2.69c0,1.69-1.99,4.43-2.75,5.89-1.17,2.23-2.46,4.4-3.66,6.61-2.11,3.9-4.4,8.41-4.5,12.95-.08,3.37,2.16,6.2,5.71,5.88,1.83-.17,3.44-1.25,4.81-2.39,1.74-1.45,3.68-5.16,6.17-5.22l-3.92-5.15c-.55,1.63-1.8,3.15-3.69,3.16l2.88,1.19-.88-.69,1.19,2.88c.6-.64,1.33-1.06,2.2-1.28l-2.89-1.2.49.57-1.2-2.89c.07,1.64-2.6,2.7-3.85,2.88l3.16.41-.71-.36,1.89,2.45-.34,1.13c4.09-.51,5.72-6.53,1.05-7.73-6.99-1.8-12.98,10.14-5.05,12.01,5.97,1.41,15.62-8.04,10.83-13.68-4.52-5.33-14.88,2.22-13.67,8.23.8,4,5.13,4.84,8.51,3.68,4.01-1.37,6.6-4.72,7.91-8.61.83-2.48-1.38-5.21-3.92-5.15s-4.6.74-6.61,2.3c-.97.75-4.61,5.98-5.76,5.84l3.22,1.85c-1.67-2.57,4.2-10.99,5.48-13.35,1.86-3.43,4.5-7.79,4.12-11.85-.7-7.55-17.12-5.43-21.97-4.36-.91.2-1.35,1.58-.58,2.2h0Z"/>
      </g>
      <path class="cls-14" d="m28.49,15.91S14.82,52.66,4.05,46.22c-10.76-6.45,20.07,19.76,30.84,5.35,0,0,4.95,13.81,20.07,7.41,0,0-4.36-6.01-5.53-12.75,0,0,.81,16.53,24.84,7.22,0,0-13.79-10.76-14.37-22.69-.58-11.93-31.42-14.84-31.42-14.84Z"/>
      <path class="cls-8" d="m29.04,112.08l-6.72,36.46s37.11,13.19,57.92-26.38l-17.33-23.27-33.87,13.19Z"/>
      <path class="cls-10" d="m29.04,67.08c.78.52,9.7,4.16,13.96-1.13s19.91,9.19,19.91,9.19l-5.95,11.2s5.95,11.9,5.95,12.54-29.09,20.18-33.87,13.19c-4.78-6.99-3.84-19.15-3.84-19.15,0,0-15.14-.47-13.23-7.61,2.33-8.68,17.07-18.25,17.07-18.25Z"/>
      <path class="cls-13" d="m44.29,26.48s-21.38.91-19.1-6.98S36.67-3,51.28,2.43c14.61,5.43,29.64,26.76,17.84,29.74-11.8,2.97-24.82-5.69-24.82-5.69Z"/>
      <g class="cls-20">
        <g class="cls-19">
          <path class="cls-5" d="m49.43,72.38c3.1,1.77,4.75,7.27,6.94,10.11s4.78,4.9,7.55,6.95l2.96-5.07c-4.86-3.45-9.28-7.51-12.92-12.25-2.09-2.72-6.91-1.33-5.89,2.48,5.35,19.9,11.1,41.13,28.13,54.43,1.75,1.36,3.8,1.9,5.84.75l.56-.32c2.66-1.49,3.71-5.3,2.07-7.91-2.42-3.86-6.66-6.49-9.75-9.86-3.28-3.58-6.17-7.41-8.72-11.55-5.16-8.38-8.88-17.95-11.93-27.28l-5.39,3.14c4.43,5.17,9.37,9.62,15.02,13.41,3.16,2.12,6.02-2.92,2.96-5.07-5.64-3.95-10.48-10.51-17.2-12.59-.36-.11-.58.42-.25.6h0Z"/>
          <path class="cls-5" d="m50.66,80.86c3.66,1.64,1.6,7.83,1.25,10.65-.5,4.03.16,8.76-2.94,11.86-5.31,5.31-13.09,9.16-20.17,11.21-1.57.46-.91,2.73.67,2.43,3.53-.68,32.83-6.4,31.95-9.78.93,3.57,6.65,3.79,7.45,0,.65-3.07-.32-5.6-3.38-6.85-3.89-1.58-7.05,1.22-10.08,3.29-8.05,5.51-17.04,9.14-26.61,10.9l.33,2.47c9.51-.95,24.53-2.3,28.57-12.75,2.05-5.29.63-12.16-.87-17.42-.88-3.11-2.54-5.94-5.85-6.84-.46-.13-.8.59-.34.8h0Z"/>
          <path class="cls-5" d="m43.51,125.7c1.2,8.14,2.14,16.21,4.25,24.18.25.92,1.85.77,1.72-.23-1.04-8.24-3.18-16.13-5.13-24.18-.14-.56-.93-.31-.85.23h0Z"/>
          <path class="cls-5" d="m56.84,120.18c3.9,2.83,4.99,8.2,7.8,11.93,2.34,3.11,5.09,5.58,8.39,7.61,1.07.66,1.94-.94.97-1.66-4.14-3.04-7.53-6.66-10.25-11.02-1.87-3-3.24-5.91-6.61-7.39-.35-.16-.62.29-.3.52h0Z"/>
          <path class="cls-5" d="m24.84,80.67c2.28,1.24-1.29,5.63-1.95,6.74-1.14,1.94-2.22,3.92-3.25,5.92l2.37,1.39c1.52-3.47,2.18-6.86,3.14-10.5.28-1.06-1.31-1.81-1.82-.77-.83,1.71-1.7,3.42-2.7,5.04s-2.29,3.06-3.05,4.84c-.4.94.63,1.88,1.46,1.13,2.77-2.49,4.45-6.68,6.01-10.01l-1.82-.77c-.84,3.36-2.46,6.74-3.73,9.97-.57,1.44,1.85,2.46,2.51,1.06,1.54-3.26,3.54-6.9,4.34-10.43.34-1.47.27-3.37-1.27-4.04-.28-.12-.53.27-.25.43h0Z"/>
          <path class="cls-4" d="m12.12,87.78c3.45-3.14,5.45-7.54,8.57-11.01,1.44-1.59,2.96-3.11,4.62-4.47,1.99-1.62,4.39-2.66,6.19-4.49,1.25-1.27-.05-3.05-1.62-2.79-4.26.72-8.39,4.88-11.02,8.1-1.47,1.8-2.62,3.77-3.57,5.89-1.23,2.73-1.56,6.02-3.64,8.3-.29.31.15.75.46.46h0Z"/>
          <path class="cls-4" d="m29,77.58c1.26,3.73-1.12,7.71-1.87,11.29-.58,2.79-.78,5.73-.7,8.58.15,4.86.94,11.2,4.64,14.68,1.08,1.01,2.75,0,2.43-1.42-.7-3.09-2.28-5.83-2.84-8.99s-.53-6.66-.37-9.96c.23-4.71,1.34-10.01-.83-14.38-.13-.26-.57-.08-.47.2h0Z"/>
          <path class="cls-4" d="m28.01,120.75c-.86,5.73-3.17,11.18-4.07,16.95-.8,5.11-2.43,11.59-.67,16.55.65,1.82,3.67,2.78,4.64.61,2.39-5.39,1.73-12.35,2.41-18.19s1.19-10.65-1.15-16.06c-.21-.48-1.08-.37-1.16.15h0Z"/>
        </g>
      </g>
      <g class="cls-15">
        <g class="cls-17">
          <path class="cls-12" d="m55.16,15.04c.57.44,14.98,15.96,4.75,18.71"/>
          <path class="cls-5" d="m50.18,35.81c1.14,3.17-1.15,7.57-.42,11.05.53,2.53,1.8,4.91,3.39,6.93,3.44,4.36,8.29,6.87,13.8,7.33,3.57.3,4.46-5.81.86-6.32-4.57-.64-8.73-2.73-11.05-6.89-1.09-1.96-1.48-4.2-2.29-6.27-.9-2.28-2.53-3.91-3.62-6.1-.18-.36-.79-.11-.65.27h0Z"/>
          <path class="cls-5" d="m5.76,47c3.46,3.8,4.34,7.61,9.79,9.27,3.94,1.2,8.01.79,11.82-.67,5.36-2.06,15.87-10.75,10.8-17.38-.69-.91-1.73-1.32-2.81-.74-2.04,1.09-2.96,3.19-4.37,4.96-1.72,2.16-3.7,4.12-6.21,5.33-2.79,1.35-5.77,1.51-8.78,1.1-2.83-.38-7.52-.8-9.88-2.34-.3-.19-.59.23-.37.47h0Z"/>
          <path class="cls-5" d="m42.7,25.17c3.99-.33,5.7,3.38,9.56.73,2.74-1.88,3.97-5.57,4.82-8.6l-4.5.59c1.12,2.52.88,5.04-.36,7.4l3.11-1.78-1.01-.17-2.89,6.86c2.95.52,5.91,1.05,8.86,1.57,3.38.6,6.15-2.6,4.46-5.81-1.52-2.9-3.13-5.74-4.75-8.58l-5.43,5.43c2.71,1.45,4.6,3.15,6.08,5.9.9,1.69,1.41,3.46,3.12,4.55,3.36,2.14,7.23.03,9.26-2.83,4.98-7.02,2.4-17.29-3.99-22.43-2.86-2.3-8.74-.28-7.03,4.09.36.91,2.91,6.67.33,6.82l2.96,7.15c2.51-2.15,4.42-4.63,5.81-7.64,1.84-3.99-3.42-9.2-6.65-5.13-.63.79-1.26,1.58-1.89,2.38-3.27,4.1,2.29,9.99,5.89,5.89.67-.76,1.33-1.52,2-2.27l-6.65-5.13c-1.12,2.41-2.44,4.24-4.42,5.99-2.64,2.34-.61,7.41,2.96,7.15,9.53-.68,10.25-10.12,7.78-17.43l-7.03,4.09c1.87,1.64,3.12,3.43,3.59,5.93.22,1.17.24,2.38.05,3.55-.04.51-.16,1-.37,1.47-.67,1.16-.02,1.52,1.97,1.08.5-.69-3.01-4.62-3.57-5.23-1.79-1.95-3.88-3.51-6.19-4.79-3.51-1.96-7.32,1.94-5.43,5.43,1.56,2.88,3.12,5.74,4.77,8.57l3.41-5.95c-2.97-.39-5.94-.79-8.91-1.18-3.85-.51-4.88,5.27-1.89,7,1.9,1.1,3.63,1.4,5.76.75,1.15-.35,2.25-1.28,2.51-2.51.99-4.66.36-8.52-1.97-12.66-1.01-1.79-4.03-1.5-4.5.59-.51,2.27-1.11,5.03-2.92,6.68-1.89,1.73-4.45,1.53-6.76,2.18-.17.05-.15.34.04.32h0Z"/>
          <path class="cls-5" d="m47.15,26.23c2.6-1.3,2.76,6.17,2.98,7.39.67,3.71,1.07,7.42,2.33,11,2.25,6.38,5.73,11.68,11.31,15.57,2.8,1.95,7.3.01,7.99-3.25,1.85-8.66-5.69-17.72-11.07-23.88l-6.06,7.86c2.79,1.6,5.25,3.62,8.16,1,1.42-1.29,1.92-4.12.74-5.74-.94-1.3-1.56-2.14-2.83-3.12-4.36-3.37-10.58.69-7.86,6.06,1.41,2.77,2.99,5.35,4.62,7.99.98,1.59,4.16,5.17,3.82,6.94l7.99-3.25c-6.95-4.64-8.96-13.8-13.03-20.66-2.04-3.43-5.22-7.46-9.35-4.24-.21.16.06.45.27.34h0Z"/>
          <path class="cls-5" d="m48.17,28.72l1.68.71-.19-1.44c-2.14,1.41-2.71,5.75-3.44,8.02-1.31,4.06-1.86,7.91-1.24,12.17.78,5.31,5.14,17.29,12.08,17.23,2.33-.02,4.02-1.91,3.66-4.22-.52-3.34-4.61-5.97-6.09-9.06-2.07-4.33-2-8.64-1.03-13.22.83-3.92,1.42-7.18-1.28-10.46-.51-.61-1.51-.8-2.24-.59-.63.18-1.27.35-1.91.51-.2.05-.16.3,0,.37h0Z"/>
          <path class="cls-4" d="m11.06,45.25c8.93-2.99,14.03-10.8,16.7-19.51.57-1.87-2.38-3.2-3.22-1.36-3.24,7.12-5.68,16.99-13.67,20.19-.41.16-.25.83.19.68h0Z"/>
          <path class="cls-4" d="m24.32,39.12c.39-.04.76-.12,1.14-.22.05-.01.71-.19.37-.15.24-.03.45.06.7-.01,1.01-.27,1.77-.95,2.32-1.8l-2.95-1.73c-.11.19-.2.4-.27.61-.07.22-.09.44-.06.66.06-.31.07-.35.02-.12.14-.29.16-.33.05-.12-.13.2-.1.16.1-.11-.18.17-.13.14.15-.1-.23.12-.16.1.21-.08.45-.04.54-.05.26-.04l2.62,2.62c0-.11.05-.48.02-.58-.05.36-.06.44-.01.24.02-.09.05-.19.08-.28.13-.51-.3.41.02-.06.1-.15.45-.62,0-.08l-4.34-3.35c-.73,1.01-1.45,2.02-2.18,3.04l4.96,2.9c.94-1.38,2.41-3.12,1.73-4.91-.37-.99-1.26-1.93-2.43-1.85-2.28.15-3.22,2.12-4.26,3.86-.77,1.29-.33,3.21,1.03,3.93s3.07.33,3.93-1.03c.67-1.05,1.33-2.1,2-3.14.78-1.22.3-3.1-.99-3.78-1.44-.76-2.87-.26-3.78.99-1.01,1.39-1.25,3.16-.91,4.81s2.45,2.32,3.85,1.57c1.13-.61,1.84-1.75,2.01-3s-.33-3.11-1.84-3.35c-.82-.13-1.96.2-2.1,1.19-.08.55-.19,1.15-.39,1.66-.07.19-.09.32-.15.52-.06.22.11-.06-.07.05-.32.2-.54.39-.91.53s-.35.78.1.74h0Z"/>
          <path class="cls-4" d="m41.2,38.84c.51-.45,1-.87,1.61-1.18l-1.2-1.55c-.82.98-1.59,2.77-.77,3.95.39.56.96.89,1.66.8.59-.08,1.28-.55,1.39-1.19.14-.85-.06-1.34-.4-2.09.04.11.03.08-.03-.1-.03-.1-.05-.21-.08-.32-.04-.2-.08-.41-.12-.61-.19-.94-1.72-.95-1.91,0-.13.68-.38,1.28-.67,1.9-.16.34.23.65.52.4h0Z"/>
          <path class="cls-4" d="m46.3,40.16c.44-.12.93-.32,1.38-.36l-.36-.15c.19.25.37.37.62.48.5.22,1.01.24,1.46-.1.41-.32.61-.87.47-1.39-.3-1.09-1.84-1.3-2.41-.31-.19.33-.29.58-.3.97l.25-.44c-.4.24-.9.37-1.34.53-.47.18-.29.91.21.77h0Z"/>
          <path class="cls-4" d="m27.59,20.21c1.76-5.33,7.66-11.79,12.98-13.83,2.44-.94,5.25-1.18,7.8-.55,2.28.57,4.04,1.81,6.45,1.8.95,0,1.42-.85,1.29-1.69-1.06-7.1-12.38-6.42-17.25-4.49-3.32,1.32-6.17,3.66-8.22,6.58-2.6,3.72-2.76,7.69-3.6,12.03-.07.35.43.5.54.15h0Z"/>
          <path class="cls-4" d="m38.28,10l.66-.66s-.02-.11-.07-.07l-.66.66s.02.11.07.07h0Z"/>
        </g>
      </g>
      <path class="cls-7" d="m25.71,22.83c-4.55,10.22-13.87,28.11-21.66,23.46-10.76-6.41,20.07,19.65,30.84,5.32,0,0,4.95,13.73,20.07,7.37,0,0-4.36-5.98-5.53-12.68,0,0,.81,16.44,24.84,7.18-1.48-1.15-11.36-8.5-14.23-20.49"/>
      <path class="cls-9" d="m28.8,113.59l-6.48,35.16s37.11,13.19,57.92-26.38l-17.33-23.27"/>
      <path class="cls-11" d="m29.04,67.08c.78.52,9.7,4.16,13.96-1.13,4.27-5.29,19.91,9.19,19.91,9.19l-5.95,11.2s5.95,11.9,5.95,12.54-29.09,20.18-33.87,13.19c-4.78-6.99-3.84-19.15-3.84-19.15,0,0-15.14-.47-13.23-7.61,2.33-8.68,17.07-18.25,17.07-18.25Z"/>
      <line class="cls-11" x1="25.2" y1="93.14" x2="26.45" y2="81.57"/>
      <line class="cls-11" x1="56.96" y1="86.55" x2="49.72" y2="75.35"/>
      <path class="cls-12" d="m44.79,26.69s-21.38.91-19.1-6.98S37.16-2.79,51.78,2.64c14.61,5.43,29.64,26.76,17.84,29.74-11.8,2.97-24.82-5.69-24.82-5.69Z"/>
      <path class="cls-1" d="m17.59,44.03c5.11-3.94,10.2-9.49,11.83-15.9.29-1.15-1.41-1.96-1.97-.83-2.95,5.96-5.5,11.29-10.51,15.89-.44.41.16,1.23.65.85h0Z"/>
      <path class="cls-1" d="m28.52,39.75s.06.01.09.03l-.43-.18s.03.02.05.03l-.36-.28.02.02-.28-.36s.02.03.03.05l-.18-.43s.02.04.02.06c.07.29.26.6.47.8.28.28.65.45,1.04.5.33.04.63,0,.94-.12.35-.15.69-.4.87-.74,0-.02.02-.03.03-.05l-.29.37.02-.02-.37.29h.02c-.15.05-.29.11-.44.17h.02c-.16.02-.33.04-.49.06.01,0,.03,0,.04,0l-.49-.07s.03,0,.05.02l-.44-.19s.03.02.05.03l-.38-.29s.06.05.08.08l-.29-.38s.03.05.04.07l-.19-.45s.01.03.01.05l-.07-.51s0,.03,0,.05l.07-.51v.02c.06-.15.12-.31.19-.46v.02c-.18.3-.27.62-.27.97,0,.35.09.67.26.97.27.42.66.75,1.15.89s1.05.06,1.48-.19c.29-.17.52-.4.69-.69.17-.3.26-.62.26-.97.03-.31-.06-.54-.17-.8-.12-.28-.18-.43-.43-.68-.28-.27-.61-.48-.99-.59-.51-.14-1.09-.08-1.56.19-.29.17-.52.41-.7.69-.21.33-.23.63-.27,1l3.39-.92c-.26-.39-.55-.66-.98-.84-.28-.12-.39-.16-.74-.17-.19,0-.37.04-.56.07l-.42.18c-.21.11-.37.26-.49.45-.23.3-.4.68-.38,1.07.01.31.09.61.24.89.19.35.66.73,1.05.81h0Z"/>
      <g class="cls-18">
        <path class="cls-1" d="m60.59,200.82s-.01,0-.02,0l.39.05s-.02,0-.02,0l.36.15s0,0-.01,0l.3.23s-.01,0-.01-.01l.23.3s0-.01-.01-.02l.15.36s0-.02,0-.03l.05.4s0-.02,0-.03l-.05.4s0-.02,0-.03l-.15.37s0-.01.01-.02l-.24.31s0-.01.01-.01l-.31.24s.01,0,.02-.01l-.37.16s0,0,.01,0c.26-.07.49-.21.68-.4.19-.19.32-.42.4-.68l.06-.41c0-.28-.07-.54-.21-.78-.1-.18-.23-.33-.4-.43-.15-.14-.33-.23-.53-.28-.53-.15-1.12,0-1.51.4,0,0,0,0,0,.01l-.24.31s0,.01,0,.02c.13-.24-.13.26-.16.38-.01.07-.02.14-.03.21-.01.07-.02.14-.03.21.01.32.07.55.23.84.07.12.16.24.26.33l.3.24s0,0,.01,0c.11.07.24.12.37.16.29.08.37.06.62.03.24-.03.35-.04.59-.19l.3-.23c.14-.13.25-.29.31-.48.07-.12.1-.24.1-.37.04-.2.04-.39-.03-.59l-.15-.35-.23-.3c-.13-.14-.29-.25-.48-.31-.18-.09-.37-.14-.57-.13h0Z"/>
      </g>
      <g class="cls-18">
        <path class="cls-1" d="m102.59,161.98c-.14.03-.27.09-.39.16-.18.1-.32.23-.43.39-.07.09-.12.16-.18.25-.22.36-.25.79-.16,1.19.07.26.21.49.4.68.14.15.31.26.5.32.18.1.38.14.6.13.21,0,.41-.04.6-.13.19-.06.36-.17.5-.32.19-.19.32-.42.4-.68.02-.11.03-.21.05-.31.05-.2.04-.41-.03-.61-.03-.14-.09-.27-.17-.39l-.23-.3c-.14-.15-.3-.25-.48-.31-.12-.07-.24-.1-.38-.1-.2-.04-.4-.04-.6.03h0Z"/>
      </g>
    </g>
  </g>
</svg>