<svg xmlns="http://www.w3.org/2000/svg" xmlns:xlink="http://www.w3.org/1999/xlink" viewBox="0 0 256.34 167.63"><defs><style>.cls-1,.cls-11,.cls-12{fill:none;}.cls-2{fill:#221f20;}.cls-3{fill:#e2fafe;}.cls-11,.cls-12,.cls-3,.cls-4{stroke:#221f20;stroke-width:5px;}.cls-11,.cls-3{stroke-linecap:round;stroke-linejoin:round;}.cls-4{fill:#5772d0;}.cls-12,.cls-4{stroke-miterlimit:10;}.cls-5{opacity:0.43;}.cls-6{clip-path:url(#clip-path);}.cls-7{fill:#84263d;}.cls-8{fill:#ebfef3;}.cls-9{opacity:0.46;}.cls-10{clip-path:url(#clip-path-2);}.cls-13{fill:#fff;}</style><clipPath id="clip-path" transform="translate(10.11 6.09)"><path class="cls-1" d="M47.25,24S-5.55,30.2,3.75,93.69s65,41.8,65,41.8,39.48-20.13,26.32-66.58S47.25,24,47.25,24Z"/></clipPath><clipPath id="clip-path-2" transform="translate(10.11 6.09)"><path class="cls-1" d="M163.38,2.33S110.58,8.52,119.87,72s65,41.8,65,41.8,39.48-20.12,26.32-66.58S163.38,2.33,163.38,2.33Z"/></clipPath></defs><g id="Calque_2" data-name="Calque 2"><g id="Warstwa_2" data-name="Warstwa 2"><path class="cls-2" d="M19.55,121.43,3.12,138.29c-5.35,5.49,3.06,13.92,8.42,8.42L28,129.85c5.35-5.49-3.06-13.92-8.42-8.42Z" transform="translate(10.11 6.09)"/><path class="cls-2" d="M28.65,131.11a59.51,59.51,0,0,0-5.46,24.69c0,7.66,11.9,7.67,11.91,0a45.29,45.29,0,0,1,3.83-18.68c3.12-6.93-7.14-13-10.28-6Z" transform="translate(10.11 6.09)"/><path class="cls-2" d="M188,112.94a94,94,0,0,1,12.73,10.68c5.43,5.41,13.86-3,8.42-8.42A110.78,110.78,0,0,0,194,102.66c-2.65-1.84-6.61-.49-8.15,2.13-1.73,3-.51,6.31,2.14,8.15Z" transform="translate(10.11 6.09)"/><path class="cls-2" d="M200.24,102.86a46.44,46.44,0,0,1,17,3.73c3,1.23,6.55-1.34,7.32-4.16.95-3.43-1.17-6.08-4.15-7.32A55.54,55.54,0,0,0,200.24,91c-7.66-.19-7.66,11.72,0,11.91Z" transform="translate(10.11 6.09)"/><path class="cls-3" d="M47.11,24.18S-5.69,30.38,3.6,93.86s65,41.81,65,41.81S108.11,115.54,95,69.09,47.11,24.18,47.11,24.18Z" transform="translate(10.11 6.09)"/><path class="cls-3" d="M163.23,2.51s-52.79,6.19-43.5,69.67,65,41.81,65,41.81,39.48-20.13,26.32-66.58S163.23,2.51,163.23,2.51Z" transform="translate(10.11 6.09)"/><path class="cls-4" d="M55.74,28.91S16,33.57,23,81.4s49,31.5,49,31.5,29.75-15.17,19.83-50.16S55.74,28.91,55.74,28.91Z" transform="translate(10.11 6.09)"/><path class="cls-4" d="M153.24,12.57s-39.78,4.67-32.78,52.5,49,31.5,49,31.5S199.2,81.4,189.28,46.41,153.24,12.57,153.24,12.57Z" transform="translate(10.11 6.09)"/><g class="cls-5"><g class="cls-6"><path class="cls-7" d="M-4.47,87.34c6.43,3.36,13,.46,18.89-2.58a59.3,59.3,0,0,0,8.61-6c-1.35,1-1.18.92.09,0,2.18-1.62,4.09-3.24,6.13-5,.81-.68,1.63-1.34,2.45-2-3,2.48-.14.16.54-.33,2.12-1.53,4.22-3.08,6.41-4.49S43.1,64.19,45.42,63c1.17-.6,2.35-1.14,3.53-1.71-2.34,1.14-1.6.64.37-.08a67,67,0,0,1,6.48-2c1.22-.29,2.49-.46,3.7-.77,2.48-.64-3.93.44,0,0a81.83,81.83,0,0,1,15-.37c1.23.08,2.45.09,3.68.16,1,.06,4.52.51.2-.12,2.43.36,4.85.78,7.25,1.35.94.22,1.86.49,2.8.67,4.51.57,5.7.73,3.55.5q-2.06-.23,1.27.19a17.78,17.78,0,0,0,7-.11c1.49-.37,6.63-2.07,2.52-.89,4.77-1.37,7.18-5.37,7.64-10-.41,4.17.27-1.93.26-2.76a17,17,0,0,0-2.55-8.35,30.28,30.28,0,0,0-7.84-8.57,56.91,56.91,0,0,0-19.14-9.84C67.8,16.53,52.31,18.1,39.55,22.93A93.89,93.89,0,0,0,3.93,46.22c-5.3,5.65-9.81,11.91-12.27,19.31C-10.53,72.16-12,83.4-4.47,87.34Z" transform="translate(10.11 6.09)"/><path class="cls-7" d="M63.59,69.51a5.18,5.18,0,0,1-.42-2.12L59.36,69h.14l-6.3-8.27c-.69,3.54-1.37,6.7-3.22,9.37l19.56,5.3a34.55,34.55,0,0,0-1.15-6.18c-.11-.42-.61-3.54-.45-1.6a20.45,20.45,0,0,1,0-3.5c-.18,2,.66-2.14.83-2.63L47.37,64.24c.19.29,1.61,3.16.83,1.06A16.73,16.73,0,0,1,49,68.5c-.32-2.19-.19.33-.24,1.15.14-2.19-.13,0-.42,1l21.09-5.57c1.72,2-.1-.4-.44-1-1.33-2.2.86,1.6-.4-1.45-.21-1-.2-.69,0,.8a12.52,12.52,0,0,1,0-1.62c0-1,0-.72-.21.8a15.23,15.23,0,0,1,.53-2.09L45,63.69c3.11,5.66,6,11.42,12.83,13.14a12.19,12.19,0,0,0,14.71-8.35c2.07-6.88-1.55-12.37-4.87-18-5.65-9.62-21.13-7.87-24,3.13-2.73,10.49,0,21.86,8,29.36,6.39,6,19.32,4.24,21.1-5.57,1.87-10.34-.53-19.07-6.94-27.31C60.25,43,48.15,47.39,46.19,55.22,44,63.87,44.41,76.39,51.62,82.78c5.75,5.09,15.44,3.38,17.54-4.63,1.85-7.06,1.11-15.56-5-20.35-3.26-2.54-8-2.61-10.26,1.33a6.61,6.61,0,0,0,3.9,9.6l.16,0L54.7,66.29A37.89,37.89,0,0,1,57.77,72c1.62,3.24,6.88,1,5.82-2.45Z" transform="translate(10.11 6.09)"/><path class="cls-8" d="M40.67,90.86a6.65,6.65,0,0,1-2.73,3.4c-3.54.57-4.53.87-3,.9l-2.46-.33-3.29-1.94L27.65,81a18.14,18.14,0,0,0-2.18,4.57l1.15-2.73a3.45,3.45,0,0,1-.48.86L28,81.28l-.27.28,2.4-1.85c-1,.77-2.05,1.57-3.07,2.37l2.44-1.88a2.68,2.68,0,0,1-.73.38l2.87-1.21-.39.08L34.43,79H34l3.21.43-.37-.09,2.89,1.22-.35-.19,2.45,1.89-.22-.23,1.89,2.45-.13-.28,1.22,2.9-.05-.31L45,90.05l0-.32L44.59,93l.08-.31-1.22,2.91a1.59,1.59,0,0,1,.32-.55l-1.91,2.47.23-.19L39.62,99.2l.25-.11-6.17,1.66H34l-3.25-.44.29.1L22,88.59l-.05.54.44-3.26A12.8,12.8,0,0,1,21.56,89l1.25-3c-.24.5-.53,1-.78,1.44a14.6,14.6,0,0,0-1.71,6.75,12.21,12.21,0,0,0,6,10.53,12.5,12.5,0,0,0,12.31,0c5.68-2.94,7.81-10.21,7.87-16.19,0-5.23-3.83-10.56-9-11.81A13.36,13.36,0,0,0,22.7,82.7a13.89,13.89,0,0,0-.25,13.78,13.35,13.35,0,0,0,12,6.67c5.75-.36,11.33-3.89,13-9.69a14,14,0,0,0-2-12.26c-3.07-4-8.05-6.36-13-4.28a11.45,11.45,0,0,0-6.44,6.28c-1.23,2.9-1.32,6.87.7,9.5s4.29,4.12,7.66,3.67a7.6,7.6,0,0,0,6.39-5.51Z" transform="translate(10.11 6.09)"/></g></g><g class="cls-9"><g class="cls-10"><path class="cls-7" d="M111.52,52.28c9.93-5.34,18.93-12.26,29.13-17.19.29-.14,4.72-1.91,1.59-.76,1.41-.52,2.81-1.07,4.23-1.54a81.84,81.84,0,0,1,8-2.18c1.23-.27,2.47-.48,3.7-.72,4.09-.8-2.41.08,1.37-.15,3-.18,6-.34,9.08-.24,1.54.06,3.07.21,4.61.31,3.53.22-1.61-.42.52.06,2.74.63,5.53,1,8.27,1.66,3,.73,5.9,1.69,8.82,2.69,4.73,1.62-3.21-1.64,1.3.5,1.39.65,2.78,1.31,4.14,2a81.69,81.69,0,0,1,7.25,4.34c1.07.71,2.11,1.45,3.14,2.21-3.25-2.39.38.38,1.06,1,2.32,2,4.45,4.23,6.82,6.2,6.37,5.32,11.17,6.69,19.24,5.51,5.71-.83,9.94-6.55,11.59-11.59,3.64-11.13-4.79-20.63-12.74-27.2A100.88,100.88,0,0,0,213.44,4.32c-14.18-7-29.7-11.16-45.61-10.29-27.71,1.51-64.59,16.59-71.51,46.56a10.48,10.48,0,0,0,15.2,11.69Z" transform="translate(10.11 6.09)"/><path class="cls-7" d="M159.06,54.25a21.78,21.78,0,0,1-1-3.8c-.26-1.36.77-2-.23-1.1l-3.91,2.28-.24.16L149,50.52l.94.65-3.39-3.4c1,1.45-1.15,4.48-2.26,6h21.37a39.52,39.52,0,0,1-2.9-4.38c.6,1.2,0-.14-.19-.62l-.33-1.29c.07,1,.08,1.07,0,.14,0-.22-.05-2.75-.13-1.58s.28-1.24.34-1.52c.43-2-.78,1.27.1-.54a18.85,18.85,0,0,1,1.78-2.79h-23s1.89,3.31,1.44,2.24c0,0,1.08,4,.86,2.36.07.52-.43,4.43,0,2.35-.09.49-1.45,4.27-.52,2.25h25.59a30.14,30.14,0,0,1-2.06-3.21c-.43-.79-.49-.9-.18-.32.41.8.34.42-.19-1.14-.12,1.69,0,0,.09-.64-.48,2.28.38-1.17.52-1.53l-3.77,6.46.6-.73-6.45,3.76,1.07-.27-11.25-1.47q-4.43-8-3.32-4.1c.24,1,.25,1,0-.27-.09,1.62-.06,2,.11,1s.13-.67-.22.92c-.66,2.6.78-.56-.88,1.79-.66.93-1.13,1.92-1.77,2.85l15.35-6.24-.4-.06,7.78,6-.15-.29-1.94,15,.17-.16a12.07,12.07,0,0,0,3.09-11.68l-.06-.25c-1.35-5.39-6.6-9-12-9.12-5.23-.14-8.94,2.76-11.86,6.76-3.43,4.72-1.9,12.62,2.13,16.47l.51.49c3.38,3.23,9.38,5.65,14.05,3.71,5.86-2.44,9.42-5.43,12-11.13A35.21,35.21,0,0,0,173,49.91c.46-9-2.88-19.38-11.23-23.79A16.28,16.28,0,0,0,143,28.65c-4.1,4-5.47,9.5-6,15-.82,9.24,2.47,17.82,8.36,24.8,7.21,8.56,22.27,3.72,24.77-6.54,2.77-11.38,1-24.38-5.87-34-5.88-8.24-17.19-8.83-23,0-9,13.7-5.92,33.26,7.35,42.94,6.6,4.81,16.2-.34,18.17-7.4,2.75-9.84,1-30.17-13.2-30.17a11.46,11.46,0,0,0-11.38,11.44c-.08,5.87,2.74,11.32,6.61,15.56s12.38-.18,10.18-5.93Z" transform="translate(10.11 6.09)"/><path class="cls-8" d="M152.83,78.15l0-.12.47,3.47v-.12l-.47,3.49,0-.1-1.34,3.16.07-.11-2.08,2.7.18-.18a13.47,13.47,0,0,0,0-19.09,10.22,10.22,0,0,0-4.34-2.79,10.21,10.21,0,0,0-5.2-1.16,13.5,13.5,0,0,0-6.82,1.84A13.68,13.68,0,0,0,128.49,74a13.5,13.5,0,0,0-1.84,6.82c.31,2.48.43,4.69,1.85,6.92a21,21,0,0,0,2.24,2.88l2.68,2.07a21,21,0,0,0,3.24,1.38,16.23,16.23,0,0,0,3.68.5,12.94,12.94,0,0,0,6.54-1.77,9.81,9.81,0,0,0,3.63-3.34,9.71,9.71,0,0,0,2.32-4.4,13,13,0,0,0,0-6.89Z" transform="translate(10.11 6.09)"/></g></g><path class="cls-11" d="M47.25,24.77S-5.55,31,3.75,94.44s65,41.81,65,41.81,39.48-20.13,26.32-66.58S47.25,24.77,47.25,24.77Z" transform="translate(10.11 6.09)"/><path class="cls-11" d="M163.38,3.09s-52.8,6.19-43.51,69.68,65,41.8,65,41.8S224.39,94.44,211.23,48,163.38,3.09,163.38,3.09Z" transform="translate(10.11 6.09)"/><path class="cls-12" d="M55.89,29.49S16.11,34.16,23.11,82s49,31.49,49,31.49,29.75-15.16,19.83-50.16S55.89,29.49,55.89,29.49Z" transform="translate(10.11 6.09)"/><path class="cls-12" d="M153.39,13.16s-39.78,4.66-32.78,52.49,49,31.5,49,31.5S199.35,82,189.43,47,153.39,13.16,153.39,13.16Z" transform="translate(10.11 6.09)"/><path class="cls-13" d="M37.76,74.59c.27-.14.53-.27.8-.39l-2.66.72c-1.09-.22-1.42-.26-1-.12a4.19,4.19,0,0,0,1.69.25,14.46,14.46,0,0,0,2.16-.33L37.09,75a1.45,1.45,0,0,1,.55,0l-3.27-.88.18.12L33.2,73.13c.18.2.39.36.56.57l-1.15-1.49a2.42,2.42,0,0,1,.21.39l-1.05-3.88v.16l.28-2.1c0,.14-.07.28-.11.42l.86-2a9.94,9.94,0,0,0-1.09,2.63l.89-2.12-.11.21,1.4-1.81a1.4,1.4,0,0,1-.42.42l1.84-1.42a2.73,2.73,0,0,1-.54.27L37,62.42a10.35,10.35,0,0,1-1.47.3l2.55-.34a6.91,6.91,0,0,1-.91,0l2.56.34a5.55,5.55,0,0,1-.87-.22l2.32,1-.27-.12,3.5,13.34a3.84,3.84,0,0,1,.32-.5l-1.53,2a6,6,0,0,1,.84-.83l-2,1.55a6.92,6.92,0,0,1,1-.59l-2.39,1A6.57,6.57,0,0,1,41.77,79l-2.68.36a5.46,5.46,0,0,1,.58,0L37,79a2.21,2.21,0,0,1,.54.16L30.27,66.4c-.07.17-.13.34-.19.51l1.05-2.49a1.87,1.87,0,0,1-.26.48l1.63-2.11a4,4,0,0,1-.57.59L34,61.74a2.78,2.78,0,0,1-.47.28L36.07,61a2,2,0,0,1-.53.15l5.58,20.23a13.47,13.47,0,0,0,3.92-2,11.53,11.53,0,0,0,2.79-3.07A10.16,10.16,0,0,0,48.46,67a10.32,10.32,0,0,0-6.69-6,14.67,14.67,0,0,0-3.09-.44c-2.13-.1-3.78.78-5.64,1.58-2.15.93-4.32,4.07-4.82,6.27a10.81,10.81,0,0,0,.53,6.83,10.47,10.47,0,0,0,12.37,6.07c5.32-1.54,9.63-6.47,9.5-12.19A10.27,10.27,0,0,0,46.53,61c-2.42-1.88-6-3-9-1.86-.88.33-1.72.59-2.6,1a13.75,13.75,0,0,0-4.25,2.65,14.85,14.85,0,0,0-4.09,6.42c-.84,2.11-.22,5.64,1,7.51a10,10,0,0,0,5.83,4.48c5.5,1.34,11.49-.56,14.37-5.66a10.09,10.09,0,0,0-1.26-11.83,9.08,9.08,0,0,0-9.08-2.36l2-.28c-3,.28-5.89,1.27-7.4,4.16l1-1.31a7.87,7.87,0,0,0-2.27,3.54L30.57,69c.07.58.15,1.15.23,1.73l-.07-2.25-.18.53a4.91,4.91,0,0,0,1.76,5.16,5,5,0,0,0,5.45.39Z" transform="translate(10.11 6.09)"/><path class="cls-13" d="M140,44.69l-.18-.18,2.06,5a2.81,2.81,0,0,1,0-.41l-.25,1.9a3.06,3.06,0,0,1,.22-.77L141.08,52a3.79,3.79,0,0,1,.43-.69l-1.2,1.55a4,4,0,0,1,.59-.58l-1.59,1.23a4.37,4.37,0,0,1,.89-.51l-1.94.82a4.36,4.36,0,0,1,.79-.2l-2.22.3h.6l-6-2.5a15.21,15.21,0,0,0,2.13,1.69l-1.82-1.4.12.12-1.42-11c-1.15,1.9-1.27,3.75-1.47,5.87l.34-2.49a4.65,4.65,0,0,1-.24,1l1-2.26a3.5,3.5,0,0,1-.37.62l1.48-1.92a1.38,1.38,0,0,1-.31.28l1.93-1.49a1.46,1.46,0,0,1-.3.16l2.27-1a1.32,1.32,0,0,1-.33.08l2.54-.34a2.26,2.26,0,0,1-.52,0l2.55.34a2,2,0,0,1-.33-.08l2.3,1a1.47,1.47,0,0,1-.42-.24l2,1.51-.11-.11,1.51,2a1,1,0,0,1-.16-.25l1,2.3a1,1,0,0,1-.07-.29l.35,2.57v-.17l-.34,2.58a1.09,1.09,0,0,1,.07-.3l-1,2.32a1.58,1.58,0,0,1,.15-.24l-1.52,2a.81.81,0,0,1,.19-.18l-2,1.52a2,2,0,0,1,.25-.14l-2.33,1a8.09,8.09,0,0,1,1.69-.37A13.91,13.91,0,0,0,144,54.43l-14.68-6a1.19,1.19,0,0,1,.11.41l-.36-2.67v.21l.36-2.68a4.1,4.1,0,0,1-.23.83l1-2.43a1.87,1.87,0,0,1-.22.39l1.59-2.06a2.73,2.73,0,0,1-.48.48l2.06-1.59a4.28,4.28,0,0,1-.7.38l2.43-1a12.79,12.79,0,0,0-5.15,3.1,10.06,10.06,0,0,0-2.62,9.55c1.51,5.49,7.84,8.6,13.18,7a14.05,14.05,0,0,0,5.19-3,4.25,4.25,0,0,0,.47-.48,15,15,0,0,0,1.82-2.45,11.8,11.8,0,0,0,1.5-5.78,12.92,12.92,0,0,0-.46-3.09l-1-2.41a1.38,1.38,0,0,0-.23-.36A10,10,0,0,0,144,37.17,7.39,7.39,0,0,0,140.31,36a7.53,7.53,0,0,0-4,.18,10,10,0,0,0-4.41,2.57,1.7,1.7,0,0,1-.24.22l2-1.56a2.6,2.6,0,0,1-.47.24l2.37-1c-.51.21-1.05.33-1.58.49a12.82,12.82,0,0,0-5.33,3,11.13,11.13,0,0,0-3.12,7.67A10.59,10.59,0,0,0,127,53.1a10.88,10.88,0,0,0,6.6,5,17.77,17.77,0,0,0,2.72.36,3.12,3.12,0,0,0,.43,0,11.73,11.73,0,0,0,7.64-3.25A12,12,0,0,0,147.69,47a10.93,10.93,0,0,0-3-8.09l-1.84-1.43a6.89,6.89,0,0,0-3.39-1.08,9,9,0,0,0-5.81,1.08,11.36,11.36,0,0,0-3.61,3.56L133.12,38c-5.17,2.62-7.66,10.07-4.39,15a7.43,7.43,0,0,0,4.21,3.23,7,7,0,0,0,7.95-10.34,9.35,9.35,0,0,0-.92-1.25Z" transform="translate(10.11 6.09)"/><path class="cls-13" d="M48,71.65l0-.17L47.78,73a16.28,16.28,0,0,0,.26-2l-.22,1.62a2.7,2.7,0,0,1,.14-.56l-.65,1.53a5.05,5.05,0,0,1,.28-.51l-1.05,1.36a1.86,1.86,0,0,1,.27-.29l-1.4,1.08A3,3,0,0,1,46,75l-1.71.72a3.74,3.74,0,0,1,.45-.12l-2,.27a4.39,4.39,0,0,1,1.2,0l-2.08-.28a6.35,6.35,0,0,1,1,.28l-2-.82a7.22,7.22,0,0,1,.81.55L40,74.24l.17.14-2.26-8.55-.08.23.9-2.13a4.65,4.65,0,0,1-.36.61l1.45-1.88c-.78,1-1.52,1.94-2.25,2.93l1.51-2a6,6,0,0,1-.56.57l2-1.51a4.65,4.65,0,0,1-.91.54l2.34-1a4.15,4.15,0,0,1-.77.2l2.63-.35a4.3,4.3,0,0,1-.8,0l9.56,7.28a4.91,4.91,0,0,1-.21-.75l.36,2.64a5.07,5.07,0,0,1,0-1l-.35,2.65a4.57,4.57,0,0,1,.35-1.25l-1,2.4a4.6,4.6,0,0,1,.39-.68l-1.58,2a5.11,5.11,0,0,1,.72-.75l-2.05,1.58c.14-.1.28-.2.43-.29L34.65,69.9a3.37,3.37,0,0,1,.19.69l-.36-2.7a4.18,4.18,0,0,1,0,.71l.37-2.71a4.26,4.26,0,0,1-.22.69l1-2.44a4.83,4.83,0,0,1-.37.62l1.6-2.08a4.1,4.1,0,0,1-.51.51l2.09-1.61a3.23,3.23,0,0,1-.62.36l2.47-1a2.64,2.64,0,0,1-.46.13l2.75-.37-.24,0,10,7.6a1.91,1.91,0,0,1-.11-.41l.36,2.68a1.41,1.41,0,0,1,0-.41c.28-3-1.61-6-3.87-7.72a9.42,9.42,0,0,0-8.57-1.76,11.18,11.18,0,0,0-5.13,3l-1.62,2.1a7.85,7.85,0,0,0-1.23,3.85,10,10,0,0,0,1.23,6.6A12.45,12.45,0,0,0,37.11,80c2.35,1.51,5.35,1.57,8,1a12.66,12.66,0,0,0,8.13-6.33,13.66,13.66,0,0,0,1.65-6.34,12.84,12.84,0,0,0-1.68-6.28,10.13,10.13,0,0,0-6.06-4.66c-2.5-.57-5.66-.57-7.82,1A15.07,15.07,0,0,0,34.76,63a14.65,14.65,0,0,0-1.6,3.7,12.47,12.47,0,0,0-.47,4.09A14.52,14.52,0,0,0,34.41,77c1.39,3,5.36,5,8.56,4.91a13.29,13.29,0,0,0,10.94-6.19c2.27-3.52,2.56-8.52.07-12a9.6,9.6,0,0,0-4.2-3.6,8.68,8.68,0,0,0-5.73-.44,21.49,21.49,0,0,0-3.11,1.25l2-.83A13,13,0,0,0,38,62.87a9.79,9.79,0,0,0-2.69,4.56c-1,3.92,1.17,8.83,5.41,9.74a5.78,5.78,0,0,0,5-1A6,6,0,0,0,48,71.65Z" transform="translate(10.11 6.09)"/><path class="cls-13" d="M74.08,85.54v0c0,.07.45,1.08.49,1.15v0a5.42,5.42,0,0,0,.75,1l1,.75,1.15.49a3.73,3.73,0,0,0,1.93.09,2.62,2.62,0,0,0,1.22-.33,3.68,3.68,0,0,0,1.55-1l.75-1,.49-1.15a3.72,3.72,0,0,0,.09-1.93,2.34,2.34,0,0,0-.33-1.21,3.71,3.71,0,0,0-1-1.56l-1-.75L80,79.64a3.59,3.59,0,0,0-1.92-.08,2.35,2.35,0,0,0-1.22.33,3.59,3.59,0,0,0-1.56,1l-.75,1L74.09,83h0l.48-1.14s0,0,0,0l.74-1c-.82,1-.6.64-1,1.52A2.35,2.35,0,0,0,74,83.66a3.54,3.54,0,0,0,.09,1.88Z" transform="translate(10.11 6.09)"/><path class="cls-13" d="M173.69,79.13a5,5,0,0,0,2.52-.57,5.84,5.84,0,0,0,3.44-3.44,5,5,0,0,0,.57-2.52L180,70.87A6.46,6.46,0,0,0,178.3,68L177,67a6.42,6.42,0,0,0-3.29-.89,6.3,6.3,0,0,0-6,4,4.82,4.82,0,0,0-.56,2.51l.23,1.74a6.57,6.57,0,0,0,1.68,2.88l1.32,1a6.55,6.55,0,0,0,3.29.89Z" transform="translate(10.11 6.09)"/></g></g></svg>