<?xml version="1.0" encoding="UTF-8" standalone="no"?>
<svg
   viewBox="0 0 232.3 192.87"
   version="1.1"
   id="svg25"
   sodipodi:docname="empty-eyes.svg"
   inkscape:version="1.4.2 (2aeb623e1d, 2025-05-12)"
   xmlns:inkscape="http://www.inkscape.org/namespaces/inkscape"
   xmlns:sodipodi="http://sodipodi.sourceforge.net/DTD/sodipodi-0.dtd"
   xmlns="http://www.w3.org/2000/svg"
   xmlns:svg="http://www.w3.org/2000/svg">
  <sodipodi:namedview
     id="namedview25"
     pagecolor="#ffffff"
     bordercolor="#000000"
     borderopacity="0.25"
     inkscape:showpageshadow="2"
     inkscape:pageopacity="0.0"
     inkscape:pagecheckerboard="0"
     inkscape:deskcolor="#d1d1d1"
     inkscape:zoom="3.2716338"
     inkscape:cx="116.30275"
     inkscape:cy="96.434998"
     inkscape:window-width="1600"
     inkscape:window-height="836"
     inkscape:window-x="0"
     inkscape:window-y="27"
     inkscape:window-maximized="1"
     inkscape:current-layer="Layer_30" />
  <defs
     id="defs3">
    <style
       id="style1">.cls-1,.cls-15{fill:none;}.cls-2,.cls-3{fill:#e2fafe;stroke-linecap:round;stroke-linejoin:round;}.cls-15,.cls-2,.cls-4,.cls-5{stroke:#221f20;}.cls-15,.cls-2,.cls-3,.cls-4,.cls-5{stroke-width:5px;}.cls-3{stroke:#005e71;}.cls-4{fill:#c54bb6;}.cls-15,.cls-4,.cls-5{stroke-miterlimit:10;}.cls-5{fill:#4e4c4c;}.cls-6{opacity:0.54;}.cls-7{clip-path:url(#clip-path);}.cls-8{fill:#84263d;}.cls-9{fill:#ebfef3;}.cls-10{fill:#702b68;}.cls-11{clip-path:url(#clip-path-2);}.cls-12{fill:#2c112b;}.cls-13{clip-path:url(#clip-path-3);}.cls-14{fill:#5a2258;}.cls-16{fill:#fff;}</style>
    <clipPath
       id="clip-path">
      <path
         class="cls-1"
         d="M210.54,125c.47-27.09-22.33-40.68-22.33-40.68s-46.82-16.22-60.39,43.58C117,175.64,148,185.4,148,185.4c20.33,10.37,38.71,0,55.74-34.53,4.62-9.37,6.59-17.75,6.83-25.14C210.53,125.48,210.54,125.22,210.54,125Z"
         id="path1" />
    </clipPath>
    <clipPath
       id="clip-path-2">
      <path
         class="cls-1"
         d="M153.39,49.41s-20-2.55-10-16.29,43.41-15.5,43.41-15.5,31-1.07,39.44,37.69c0,0-16.81-20.53-39.46-16.91S165.25,51.3,153.39,49.41Z"
         id="path2" />
    </clipPath>
    <clipPath
       id="clip-path-3">
      <path
         class="cls-1"
         d="M91.58,60.4c-10.29-9-14.88.6-38.94-9.69s-27.8-40.32-27.8-40.32c-8.85,24.49-2.5,40.78,4.48,50.2C19.56,66.72,10.38,78.39,5.5,99.91c-10.84,47.76,20.13,57.53,20.13,57.53,20.33,10.36,38.71,0,55.74-34.54,7.91-16,8.06-29.19,5-39.44a22.81,22.81,0,0,0,4.89-1.28C109.38,75.05,91.58,60.4,91.58,60.4Z"
         id="path3" />
    </clipPath>
  </defs>
  <g
     id="Calque_2"
     data-name="Calque 2">
    <g
       id="Layer_30"
       data-name="Layer 30">
      <path
         class="cls-2"
         d="M24.93,158.57S-6,148.81,4.8,101C18.37,41.23,65.19,57.45,65.19,57.45S102.53,79.72,80.67,124C63.64,158.57,45.26,168.94,24.93,158.57Z"
         id="path4" />
      <path
         class="cls-3"
         d="M147.25,186.54s-31-9.76-20.13-57.53c13.57-59.81,60.39-43.59,60.39-43.59S224.85,107.69,203,152C186,186.54,167.58,196.9,147.25,186.54Z"
         id="path5" />
      <path
         class="cls-5"
         d="M153.69,49.55s-20-2.55-10-16.29,43.41-15.5,43.41-15.5,31-1.07,39.44,37.69c0,0-16.81-20.54-39.47-16.92S165.55,51.44,153.69,49.55Z"
         id="path8" />
      <path
         class="cls-5"
         d="M90.89,61.53s17.79,14.65-.29,21.79S39.28,71.88,39.28,71.88,8.76,54.09,24.15,11.52c0,0,3.73,30,27.79,40.33S80.59,52.5,90.89,61.53Z"
         id="path9" />
      <g
         class="cls-6"
         id="g13">
        <g
           class="cls-7"
           clip-path="url(#clip-path)"
           id="g12">
          <path
             class="cls-10"
             d="m 127,105.6 c 5.14,0.29 9.64,0.6 14.85,-0.09 5.21,-0.69 10.17,-2.22 15.4,-2.43 9.68,-0.39 16,1.14 23.46,6.28 a 78.06,78.06 0 0 1 8.38,7.53 113.76,113.76 0 0 1 9,10 c 5.53,7 9.28,17.18 15.76,24.09 4.42,4.7 12.1,3.19 15.32,-2 7.69,-12.35 -0.2,-27.49 -8,-37.79 C 213.37,100.89 205,91.72 194,85.12 c -11.5,-6.87 -25.14,-10 -38.32,-7 a 64.31,64.31 0 0 0 -18.83,7.31 c -6,3.66 -9.47,8.5 -13.4,14 -2,2.72 0.72,6 3.56,6.21 z"
             id="path12"
             style="display:inline" />
        </g>
      </g>
      <g
         class="cls-6"
         id="g15">
        <g
           class="cls-11"
           clip-path="url(#clip-path-2)"
           id="g14">
          <path
             class="cls-12"
             d="M151.42,51.22c12-3.14,24.44-6.7,37-5.28a58,58,0,0,1,15.84,4.25c5.53,2.34,10.05,7.17,15.64,8.9,5.13,1.6,9.38-4.42,6.83-8.87-3.2-5.57-11.05-9-16.74-11.48a67.41,67.41,0,0,0-19.93-5.38c-14.77-1.68-29.75,1.71-41.77,10.49-3.52,2.58-1.58,8.6,3.11,7.37Z"
             id="path13" />
        </g>
      </g>
      <g
         class="cls-6"
         id="g18"
         style="display:inline">
        <g
           class="cls-13"
           clip-path="url(#clip-path-3)"
           id="g17">
          <path
             class="cls-14"
             d="M 22.45,43.48 A 79.29,79.29 0 0 0 28.39,65 c 3.11,6.72 8.12,12.36 13.36,17.49 5.93,5.82 13,10.67 21.07,13.14 8.38,2.58 19.19,3.42 27.07,-0.74 6.93,-3.67 5.24,-14.73 -2.17,-16.63 -6.37,-1.63 -13.13,-0.75 -19.62,-1.79 -6.49,-1.04 -13,-2.11 -18.91,-5 -11,-5.36 -20.75,-17.13 -24,-28.82 -0.5,-1.79 -3,-1 -2.71,0.75 z"
             id="path15" />
        </g>
      </g>
      <path
         class="cls-15"
         d="m 86.8,85.14 c 2.6,10 2.12,22.72 -5.43,38 -17,34.54 -35.41,44.9 -55.74,34.54 0,0 -31,-9.77 -20.13,-57.53 4.64,-20.48 13.18,-32 22.41,-38.4"
         id="path18"
         style="display:inline" />
      <path
         class="cls-15"
         d="m 147,185.67 c 0,0 -31.65,-9.92 -20.13,-57.53 14.02,-58.14 60.34,-43.59 60.34,-43.59 0,0 37.33,22.27 15.48,66.59 C 185.66,185.67 167.28,196 147,185.67 Z"
         id="path19"
         style="display:inline" />
      <path
         class="cls-15"
         d="M153.39,48.68s-20-2.55-10-16.29,43.41-15.5,43.41-15.5,31-1.07,39.44,37.69c0,0-16.81-20.53-39.46-16.92S165.25,50.57,153.39,48.68Z"
         id="path22" />
      <path
         class="cls-15"
         d="M91.58,60.67s17.8,14.65-.28,21.78S40,71,40,71,9.46,53.22,24.84,10.66c0,0,3.74,30,27.8,40.32S81.29,51.64,91.58,60.67Z"
         id="path23" />
    </g>
  </g>
</svg>
