<svg xmlns="http://www.w3.org/2000/svg" xmlns:xlink="http://www.w3.org/1999/xlink" viewBox="0 0 232.3 192.87"><defs><style>.cls-1,.cls-15{fill:none;}.cls-2,.cls-3{fill:#e2fafe;stroke-linecap:round;stroke-linejoin:round;}.cls-15,.cls-2,.cls-4,.cls-5{stroke:#221f20;}.cls-15,.cls-2,.cls-3,.cls-4,.cls-5{stroke-width:5px;}.cls-3{stroke:#005e71;}.cls-4{fill:#c54bb6;}.cls-15,.cls-4,.cls-5{stroke-miterlimit:10;}.cls-5{fill:#4e4c4c;}.cls-6{opacity:0.54;}.cls-7{clip-path:url(#clip-path);}.cls-8{fill:#84263d;}.cls-9{fill:#ebfef3;}.cls-10{fill:#702b68;}.cls-11{clip-path:url(#clip-path-2);}.cls-12{fill:#2c112b;}.cls-13{clip-path:url(#clip-path-3);}.cls-14{fill:#5a2258;}.cls-16{fill:#fff;}</style><clipPath id="clip-path"><path class="cls-1" d="M210.54,125c.47-27.09-22.33-40.68-22.33-40.68s-46.82-16.22-60.39,43.58C117,175.64,148,185.4,148,185.4c20.33,10.37,38.71,0,55.74-34.53,4.62-9.37,6.59-17.75,6.83-25.14C210.53,125.48,210.54,125.22,210.54,125Z"/></clipPath><clipPath id="clip-path-2"><path class="cls-1" d="M153.39,49.41s-20-2.55-10-16.29,43.41-15.5,43.41-15.5,31-1.07,39.44,37.69c0,0-16.81-20.53-39.46-16.91S165.25,51.3,153.39,49.41Z"/></clipPath><clipPath id="clip-path-3"><path class="cls-1" d="M91.58,60.4c-10.29-9-14.88.6-38.94-9.69s-27.8-40.32-27.8-40.32c-8.85,24.49-2.5,40.78,4.48,50.2C19.56,66.72,10.38,78.39,5.5,99.91c-10.84,47.76,20.13,57.53,20.13,57.53,20.33,10.36,38.71,0,55.74-34.54,7.91-16,8.06-29.19,5-39.44a22.81,22.81,0,0,0,4.89-1.28C109.38,75.05,91.58,60.4,91.58,60.4Z"/></clipPath></defs><g id="Calque_2" data-name="Calque 2"><g id="Layer_30" data-name="Layer 30"><path class="cls-2" d="M24.93,158.57S-6,148.81,4.8,101C18.37,41.23,65.19,57.45,65.19,57.45S102.53,79.72,80.67,124C63.64,158.57,45.26,168.94,24.93,158.57Z"/><path class="cls-3" d="M147.25,186.54s-31-9.76-20.13-57.53c13.57-59.81,60.39-43.59,60.39-43.59S224.85,107.69,203,152C186,186.54,167.58,196.9,147.25,186.54Z"/><path class="cls-4" d="M48,136.07s-19-6-12.37-35.35C44,64,72.73,73.94,72.73,73.94s22.94,13.68,9.51,40.91C71.78,136.07,60.49,142.43,48,136.07Z"/><path class="cls-4" d="M171.4,163.44s-19-6-12.37-35.35c8.34-36.74,37.1-26.78,37.1-26.78s22.94,13.68,9.51,40.91C195.18,163.44,183.89,169.81,171.4,163.44Z"/><path class="cls-5" d="M153.69,49.55s-20-2.55-10-16.29,43.41-15.5,43.41-15.5,31-1.07,39.44,37.69c0,0-16.81-20.54-39.47-16.92S165.55,51.44,153.69,49.55Z"/><path class="cls-5" d="M90.89,61.53s17.79,14.65-.29,21.79S39.28,71.88,39.28,71.88,8.76,54.09,24.15,11.52c0,0,3.73,30,27.79,40.33S80.59,52.5,90.89,61.53Z"/><g class="cls-6"><g class="cls-7"><path class="cls-8" d="M185.75,139.59a49.62,49.62,0,0,1,3.32-4.16l-10.14-5.91-2,5.7c-1.18,3.37,1.07,7.14,4.14,8.44a7.17,7.17,0,0,0,8.93-2.93c.86-1.47,1.87-2.87,2.72-4.34s1.51-3.07,2.38-4.55L178.87,125a24.1,24.1,0,0,0-1.18,5.27c-.28,2.08,1.21,5.16,2.7,6.53a9.49,9.49,0,0,0,5.3,2.54c4.32.58,9.13-2.11,10.12-6.61a24.92,24.92,0,0,0,.5-5.37,8.89,8.89,0,0,0-7.7-8.71c-4-.54-8.94,2-9.74,6.35-.31,1.71-.79,3.37-1.17,5.06a12.28,12.28,0,0,0-.39,2.56c-.07.83-.07,1,0,.49s.05-.34-.1.54l-.28,1.57,14,1.91-.12-6c-.06-3.17-2.74-6.22-6.07-6.07a6.21,6.21,0,0,0-6.07,6.07,50.19,50.19,0,0,1-.5,5.29c-.67,4.63,4.68,7.09,7.54,3.17Z"/><path class="cls-9" d="M181.37,156.19l.07-.85L179.93,159l.82-.68a7.36,7.36,0,0,0,2.17-5.22,7.83,7.83,0,0,0-2.17-5.23,2.69,2.69,0,0,0-.39-.36,7.1,7.1,0,0,0-11.87,3.13c-.18.8-.25,1.64-.35,2.46a7.31,7.31,0,0,0,2.17,5.22,7.78,7.78,0,0,0,5.22,2.16l.77,0-3.63-1.5.54.6a4.78,4.78,0,0,0,5.23,1,4.87,4.87,0,0,0,2.93-4.37Z"/><path class="cls-10" d="M127,105.6c5.14.29,9.64.6,14.85-.09s10.17-2.22,15.4-2.43c9.68-.39,16,1.14,23.46,6.28a78.06,78.06,0,0,1,8.38,7.53,113.76,113.76,0,0,1,9,10c5.53,7,9.28,17.18,15.76,24.09,4.42,4.7,12.1,3.19,15.32-2,7.69-12.35-.2-27.49-8-37.79S205,91.72,194,85.12c-11.5-6.87-25.14-10-38.32-7a64.31,64.31,0,0,0-18.83,7.31c-6,3.66-9.47,8.5-13.4,14-2,2.72.72,6,3.56,6.21Z"/></g></g><g class="cls-6"><g class="cls-11"><path class="cls-12" d="M151.42,51.22c12-3.14,24.44-6.7,37-5.28a58,58,0,0,1,15.84,4.25c5.53,2.34,10.05,7.17,15.64,8.9,5.13,1.6,9.38-4.42,6.83-8.87-3.2-5.57-11.05-9-16.74-11.48a67.41,67.41,0,0,0-19.93-5.38c-14.77-1.68-29.75,1.71-41.77,10.49-3.52,2.58-1.58,8.6,3.11,7.37Z"/></g></g><g class="cls-6"><g class="cls-13"><path class="cls-14" d="M22.45,43.48A79.29,79.29,0,0,0,28.39,65c3.11,6.72,8.12,12.36,13.36,17.49,5.93,5.82,13,10.67,21.07,13.14,8.38,2.58,19.19,3.42,27.07-.74,6.93-3.67,5.24-14.73-2.17-16.63-6.37-1.63-13.13-.75-19.62-1.79s-13-2.11-18.91-5c-11-5.36-20.75-17.13-24-28.82-.5-1.79-3-1-2.71.75Z"/><path class="cls-8" d="M63.35,99.7a8,8,0,0,1-.89,1.62l3.74-2.15a9.94,9.94,0,0,0-7,2.62l10.56,8.15L73,103c1.61-3.49,1-7.67-2.55-9.74a7.2,7.2,0,0,0-9.75,2.55,44.31,44.31,0,0,0-5.41,18.8H70a13.93,13.93,0,0,1,1-5.75c1-2.38,2.67-4.2,3.44-6.73,1.83-6-4.76-9.57-9.64-7.41-6.76,3-9.35,13.25-9.5,19.89a7.46,7.46,0,0,0,7.36,7.36c4.32,0,6.95-3.39,7.36-7.36A42.51,42.51,0,0,1,73,103l-13-5.49-2.48,7.28c-2.19,6.43,6.72,11.24,11.24,6.54l.66-.69c1.53-1.59,2.56-4.3,1.71-6.49l-.68-1.76v2.3a24.65,24.65,0,0,0,.3-3c.09-3.73-5.63-5.59-7.33-2Z"/><path class="cls-9" d="M51.55,131.61l1.08-1.11H45.38l.29.35-2.28-8.62A10.42,10.42,0,0,0,44.2,130a18.16,18.16,0,0,0,2.31,3.09A8.76,8.76,0,0,0,56.3,135c3.12-1.32,5.71-4.65,5.51-8.2a15.31,15.31,0,0,0-.59-3.92,10.65,10.65,0,0,0-4.82-5.9,9,9,0,0,0-10.73,1.38,10.71,10.71,0,0,0-2.28,3.91,8.82,8.82,0,0,0,.9,6.83l.29.4-.51-4L43.56,127a4.78,4.78,0,0,0,2.19,5.4,4.9,4.9,0,0,0,5.8-.75Z"/></g></g><path class="cls-15" d="M86.8,85.14c2.6,10,2.12,22.72-5.43,38-17,34.54-35.41,44.9-55.74,34.54,0,0-31-9.77-20.13-57.53,4.64-20.48,13.18-32,22.41-38.4"/><path class="cls-15" d="M147,185.67s-31.65-9.92-20.13-57.53C140.89,70,187.21,84.55,187.21,84.55s37.33,22.27,15.48,66.59C185.66,185.67,167.28,196,147,185.67Z"/><path class="cls-15" d="M83.55,86.83C86.7,93.56,87.87,103,81.94,115,71.47,136.2,60.18,142.57,47.69,136.2c0,0-19-6-12.36-35.34,2.6-11.49,7.2-18.41,12.29-22.5"/><path class="cls-15" d="M171.09,163.57s-19-6-12.36-35.34c8.33-36.75,37.09-26.78,37.09-26.78s22.94,13.68,9.52,40.9C194.87,163.57,183.58,169.94,171.09,163.57Z"/><path class="cls-15" d="M153.39,48.68s-20-2.55-10-16.29,43.41-15.5,43.41-15.5,31-1.07,39.44,37.69c0,0-16.81-20.53-39.46-16.92S165.25,50.57,153.39,48.68Z"/><path class="cls-15" d="M91.58,60.67s17.8,14.65-.28,21.78S40,71,40,71,9.46,53.22,24.84,10.66c0,0,3.74,30,27.8,40.32S81.29,51.64,91.58,60.67Z"/><path class="cls-16" d="M168,122.46l.05,0-1.51.64.08,0-1.75.24H165l-1.8-.25.08,0-1.67-.71a3.84,3.84,0,0,0,.88.38,5.38,5.38,0,0,0,2.74.61c.7,0,1.42-.19,2.11-.29l-1.91.26a.81.81,0,0,1,.22,0l-1.93-.26a1.11,1.11,0,0,1,.31.09l-1.76-.75.19.13-1.52-1.17a.85.85,0,0,1,.16.17L159.88,120a1.83,1.83,0,0,1,.18.3l-.77-1.84a2.13,2.13,0,0,1,.11.33l-.28-2.08a1.69,1.69,0,0,1,0,.23l.28-2.11a2.82,2.82,0,0,1-.07.31l10-5.69a12,12,0,0,0-2.61-.37l2.19.3a4.41,4.41,0,0,1-.71-.2l2,.83a3.14,3.14,0,0,1-.64-.37l1.69,1.31-.22-.19-1.69,13.16a3.74,3.74,0,0,1,.49-.32l-2,.85a1.43,1.43,0,0,1,.27-.09l-2.24.3a.7.7,0,0,1,.25,0l-2.25-.3.11,0-2-.85a.53.53,0,0,1,.21.11l-1.72-1.33.08.07-1.33-1.72a.72.72,0,0,1,.11.19l-.86-2,0,.1-.31-2.27v.11l.31-2.27,0,.08,2.2-3.78,0,.06,1.73-1.34a.25.25,0,0,1-.14.08,8.71,8.71,0,0,0-3.07,3.08A8.45,8.45,0,0,0,157.9,117v0l.3-2.24v0l.84-2a0,0,0,0,1,0,0l1.27-1.65L159,112.85A8.18,8.18,0,0,0,157.9,117a8.52,8.52,0,0,0,1.17,4.32,6.38,6.38,0,0,0,2.21,2.4,6.51,6.51,0,0,0,2.91,1.54l2.28.3a8.45,8.45,0,0,0,4.33-1.17,14,14,0,0,0,1.81-1.38,15.27,15.27,0,0,0,1.39-1.79,15.74,15.74,0,0,0,.9-2.11,15.4,15.4,0,0,0,.32-2.36v-.11l-.31-2.27,0-.1-.86-2-.06-.09-1.33-1.72a7.15,7.15,0,0,0-1.85-1.44c-.37-.2-.78-.34-1.17-.51a5,5,0,0,0-2.25-.61,9.77,9.77,0,0,0-1.3-.15,14.51,14.51,0,0,0-2.38.33,14.06,14.06,0,0,0-2.16.9,1.58,1.58,0,0,0-.24.15,12.87,12.87,0,0,0-2.09,1.67,8.34,8.34,0,0,0-2.15,3.7,6.32,6.32,0,0,0-.15,3.34,6.24,6.24,0,0,0,1,3.11,8.51,8.51,0,0,0,3,3,9.35,9.35,0,0,0,1.51.69,7.82,7.82,0,0,0,1.63.6c.71.13,1.62.25,2.35.32a2.17,2.17,0,0,0,.36,0l.3,0a6.14,6.14,0,0,0,3.16-.7,7.07,7.07,0,0,0,1.09-.48,8.2,8.2,0,0,0,2.93-2.92,9.24,9.24,0,0,0,.82-6.28,8.12,8.12,0,0,0-2.1-3.59,2.73,2.73,0,0,0-.25-.23,18.32,18.32,0,0,0-1.79-1.36l1.58,1.22a18.06,18.06,0,0,0-1.77-1.36,11.33,11.33,0,0,0-1.13-.49,9.92,9.92,0,0,0-1.13-.46l-1.12-.15a6.13,6.13,0,0,0-1.12-.14,8.3,8.3,0,0,0-4.07,1.07l-.29.17a11.28,11.28,0,0,0-1.58,1.25,9.81,9.81,0,0,0-1.21,1.59l-.72,1.7a5.34,5.34,0,0,0-.12,2.83,2,2,0,0,0,.14,1l.71,1.67c.24.45,2.4,2.64,1.1,1.44a7.92,7.92,0,0,0,3,1.75,6,6,0,0,0,4.87-.6Z"/><path class="cls-16" d="M45.76,91.82c0-.15-.09-.3-.13-.45l-1.19,4.51a3.78,3.78,0,0,0,1-1.6A2.56,2.56,0,0,0,45.82,93c0-.25.07-.5.09-.76l-.17,1.32a1.61,1.61,0,0,1,.1-.36l-.53,1.26a.8.8,0,0,1,.08-.16l-.85,1.1a.68.68,0,0,1,.12-.12l-1.13.87.15-.09H37.93a4.09,4.09,0,0,0,2.27.74,2.9,2.9,0,0,0,1.6,0,6.42,6.42,0,0,0,.88-.12l-1.6.21a1,1,0,0,1,.17,0l-1.63-.22.26.07-1.49-.63a1.14,1.14,0,0,1,.23.15l-1.28-1a.49.49,0,0,1,.12.13l-1-1.3a.6.6,0,0,1,.09.15l-.65-1.54a.55.55,0,0,1,.05.17l-.23-1.74a1.21,1.21,0,0,1,0,.19L36,89.61a1.13,1.13,0,0,1,0,.18l4.66-4.66a8.08,8.08,0,0,0-3.66,2.14l1.46-1.13a.59.59,0,0,1-.17.1L40,85.51a.76.76,0,0,1-.2.06l1.93-.26a1.2,1.2,0,0,1-.33,0l1.95.26a1.26,1.26,0,0,1-.33-.1l1.77.75a1.83,1.83,0,0,1-.3-.18L46,87.21a1.29,1.29,0,0,1-.17-.16L47,88.56a1.83,1.83,0,0,1-.18-.3l.76,1.8,0-.13.27,2a.57.57,0,0,1,0-.26l-.27,2,0-.12-.77,1.82.05-.07-1.19,1.55.06,0L44.13,98l.07,0-1.83.77a.32.32,0,0,1,.14,0l-2,.27h.08l-2-.27a1.27,1.27,0,0,1,.24.07L36.9,98a.56.56,0,0,1,.15.1l-1.56-1.22.13.13L34.4,95.44a.51.51,0,0,1,.09.16l-.79-1.87a.94.94,0,0,1,0,.16l-.29-2.09a.67.67,0,0,1,0,.2l.29-2.12a1.05,1.05,0,0,1-.05.19l.81-1.92a1,1,0,0,1-.1.17l1.26-1.64-.07.06,1.65-1.26L37,85.6,39,84.78l-.08,0L41,84.51H41l2.16.29a.29.29,0,0,1-.16,0l1.93.82a8.13,8.13,0,0,0-4.17-1.15l-2.12.29a6,6,0,0,0-2.72,1.43,4.05,4.05,0,0,0-1.44,1.44A5.91,5.91,0,0,0,33,90.31a4.36,4.36,0,0,0-.31,2.19L33,94.64a4.8,4.8,0,0,0,.85,2l1.27,1.63a7.59,7.59,0,0,0,1.76,1.36,14.71,14.71,0,0,0,2,.84l2.16.29a.43.43,0,0,0,.16,0l2.16-.29A8.43,8.43,0,0,0,47,98.32a8.54,8.54,0,0,0,2.13-3.68,14.13,14.13,0,0,0,.3-2.34,8.68,8.68,0,0,0-4.33-7.46,8.57,8.57,0,0,0-6.7-.92,8.41,8.41,0,0,0-4.75,3.65,7.08,7.08,0,0,0-.84,2l-.27,2a5.41,5.41,0,0,0,.26,2.14,8.64,8.64,0,0,0,5.87,6,3.37,3.37,0,0,0,.34.09l2,.26h.23a8.31,8.31,0,0,0,4.08-1.1,6.7,6.7,0,0,0,1-.71,4.94,4.94,0,0,0,1.44-1.44,9.3,9.3,0,0,0,.69-1,7.51,7.51,0,0,0,1-3.77,7.07,7.07,0,0,0-3.53-6.16l-.15-.09,2.4,2.39a7.21,7.21,0,0,0-9.82-2.74,7.93,7.93,0,0,0-2.5,2.46,6,6,0,0,0,0,6.06l.09.15-.57-1.34a9.19,9.19,0,0,0,.6,1.41,8.44,8.44,0,0,0,.52.7,4.37,4.37,0,0,0,.53.64,7.34,7.34,0,0,0,1.17.91,8,8,0,0,0,1.47.64,5.11,5.11,0,0,0,3.88-.48H38.83c.49.23,1,.45,1.51.64a4.42,4.42,0,0,0,5.42-5.42Z"/></g></g></svg>