<?xml version="1.0" encoding="UTF-8" standalone="no"?>
<svg
   viewBox="0 0 59.999999 73.000002"
   version="1.1"
   id="svg25"
   sodipodi:docname="left-eye.svg"
   width="60"
   height="73"
   inkscape:version="1.4.2 (2aeb623e1d, 2025-05-12)"
   xmlns:inkscape="http://www.inkscape.org/namespaces/inkscape"
   xmlns:sodipodi="http://sodipodi.sourceforge.net/DTD/sodipodi-0.dtd"
   xmlns="http://www.w3.org/2000/svg"
   xmlns:svg="http://www.w3.org/2000/svg">
  <sodipodi:namedview
     id="namedview25"
     pagecolor="#ffffff"
     bordercolor="#000000"
     borderopacity="0.25"
     inkscape:showpageshadow="2"
     inkscape:pageopacity="0.0"
     inkscape:pagecheckerboard="0"
     inkscape:deskcolor="#d1d1d1"
     inkscape:zoom="3.2716338"
     inkscape:cx="91.085988"
     inkscape:cy="82.374744"
     inkscape:window-width="1600"
     inkscape:window-height="836"
     inkscape:window-x="0"
     inkscape:window-y="27"
     inkscape:window-maximized="1"
     inkscape:current-layer="svg25" />
  <defs
     id="defs3">
    <style
       id="style1">.cls-1,.cls-15{fill:none;}.cls-2,.cls-3{fill:#e2fafe;stroke-linecap:round;stroke-linejoin:round;}.cls-15,.cls-2,.cls-4,.cls-5{stroke:#221f20;}.cls-15,.cls-2,.cls-3,.cls-4,.cls-5{stroke-width:5px;}.cls-3{stroke:#005e71;}.cls-4{fill:#c54bb6;}.cls-15,.cls-4,.cls-5{stroke-miterlimit:10;}.cls-5{fill:#4e4c4c;}.cls-6{opacity:0.54;}.cls-7{clip-path:url(#clip-path);}.cls-8{fill:#84263d;}.cls-9{fill:#ebfef3;}.cls-10{fill:#702b68;}.cls-11{clip-path:url(#clip-path-2);}.cls-12{fill:#2c112b;}.cls-13{clip-path:url(#clip-path-3);}.cls-14{fill:#5a2258;}.cls-16{fill:#fff;}</style>
    <clipPath
       id="clip-path">
      <path
         class="cls-1"
         d="m 210.54,125 c 0.47,-27.09 -22.33,-40.68 -22.33,-40.68 0,0 -46.82,-16.22 -60.39,43.58 -10.82,47.74 20.18,57.5 20.18,57.5 20.33,10.37 38.71,0 55.74,-34.53 4.62,-9.37 6.59,-17.75 6.83,-25.14 -0.04,-0.25 -0.03,-0.51 -0.03,-0.73 z"
         id="path1" />
    </clipPath>
    <clipPath
       id="clip-path-2">
      <path
         class="cls-1"
         d="m 153.39,49.41 c 0,0 -20,-2.55 -10,-16.29 10,-13.74 43.41,-15.5 43.41,-15.5 0,0 31,-1.07 39.44,37.69 0,0 -16.81,-20.53 -39.46,-16.91 -22.65,3.62 -21.53,12.9 -33.39,11.01 z"
         id="path2" />
    </clipPath>
    <clipPath
       id="clip-path-3">
      <path
         class="cls-1"
         d="M 91.58,60.4 C 81.29,51.4 76.7,61 52.64,50.71 28.58,40.42 24.84,10.39 24.84,10.39 c -8.85,24.49 -2.5,40.78 4.48,50.2 -9.76,6.13 -18.94,17.8 -23.82,39.32 -10.84,47.76 20.13,57.53 20.13,57.53 20.33,10.36 38.71,0 55.74,-34.54 7.91,-16 8.06,-29.19 5,-39.44 a 22.81,22.81 0 0 0 4.89,-1.28 C 109.38,75.05 91.58,60.4 91.58,60.4 Z"
         id="path3" />
    </clipPath>
  </defs>
  <g
     id="Calque_2"
     data-name="Calque 2"
     transform="translate(-29.954453,-69.078636)">
    <g
       id="Layer_30"
       data-name="Layer 30">
      <path
         class="cls-4"
         d="m 48,136.07 c 0,0 -19,-6 -12.37,-35.35 C 44,64 72.73,73.94 72.73,73.94 c 0,0 22.94,13.68 9.51,40.91 C 71.78,136.07 60.49,142.43 48,136.07 Z"
         id="path6" />
      <g
         class="cls-6"
         id="g13">
        <g
           class="cls-7"
           clip-path="url(#clip-path)"
           id="g12" />
      </g>
      <g
         class="cls-6"
         id="g15">
        <g
           class="cls-11"
           clip-path="url(#clip-path-2)"
           id="g14" />
      </g>
      <g
         class="cls-6"
         id="g18">
        <g
           class="cls-13"
           clip-path="url(#clip-path-3)"
           id="g17">
          <path
             class="cls-8"
             d="m 63.35,99.7 a 8,8 0 0 1 -0.89,1.62 l 3.74,-2.15 a 9.94,9.94 0 0 0 -7,2.62 L 69.76,109.94 73,103 c 1.61,-3.49 1,-7.67 -2.55,-9.74 a 7.2,7.2 0 0 0 -9.75,2.55 44.31,44.31 0 0 0 -5.41,18.8 H 70 a 13.93,13.93 0 0 1 1,-5.75 c 1,-2.38 2.67,-4.2 3.44,-6.73 1.83,-6 -4.76,-9.57 -9.64,-7.41 -6.76,3 -9.35,13.25 -9.5,19.89 a 7.46,7.46 0 0 0 7.36,7.36 c 4.32,0 6.95,-3.39 7.36,-7.36 A 42.51,42.51 0 0 1 73,103 l -13,-5.49 -2.48,7.28 c -2.19,6.43 6.72,11.24 11.24,6.54 l 0.66,-0.69 c 1.53,-1.59 2.56,-4.3 1.71,-6.49 l -0.68,-1.76 v 2.3 a 24.65,24.65 0 0 0 0.3,-3 c 0.09,-3.73 -5.63,-5.59 -7.33,-2 z"
             id="path16" />
          <path
             class="cls-9"
             d="m 51.55,131.61 1.08,-1.11 h -7.25 l 0.29,0.35 -2.28,-8.62 a 10.42,10.42 0 0 0 0.81,7.77 18.16,18.16 0 0 0 2.31,3.09 8.76,8.76 0 0 0 9.79,1.91 c 3.12,-1.32 5.71,-4.65 5.51,-8.2 a 15.31,15.31 0 0 0 -0.59,-3.92 10.65,10.65 0 0 0 -4.82,-5.9 9,9 0 0 0 -10.73,1.38 10.71,10.71 0 0 0 -2.28,3.91 8.82,8.82 0 0 0 0.9,6.83 l 0.29,0.4 -0.51,-4 -0.51,1.5 a 4.78,4.78 0 0 0 2.19,5.4 4.9,4.9 0 0 0 5.8,-0.75 z"
             id="path17" />
        </g>
      </g>
      <path
         class="cls-15"
         d="m 83.55,86.83 c 3.15,6.73 4.32,16.17 -1.61,28.17 -10.47,21.2 -21.76,27.57 -34.25,21.2 0,0 -19,-6 -12.36,-35.34 2.6,-11.49 7.2,-18.41 12.29,-22.5"
         id="path20" />
    </g>
  </g>
</svg>
