<?xml version="1.0" encoding="utf-8"?>
<!-- Generator: Adobe Illustrator 28.0.0, SVG Export Plug-In . SVG Version: 6.00 Build 0)  -->
<svg version="1.1" id="Calque_1" xmlns="http://www.w3.org/2000/svg" xmlns:xlink="http://www.w3.org/1999/xlink" x="0px" y="0px"
	 viewBox="0 0 1033 768" style="enable-background:new 0 0 1033 768;" xml:space="preserve">
<style type="text/css">
	.st0{fill:#C2F9FF;stroke:#78C9F1;stroke-width:20.8692;stroke-linecap:round;stroke-linejoin:round;stroke-miterlimit:10;}
	.st1{fill:#FD3351;stroke:#62090F;stroke-width:20.8692;stroke-miterlimit:10;}
	.st2{fill:#FFBBC8;}
	.st3{opacity:0.31;}
	.st4{clip-path:url(#SVGID_00000134249586086238163950000018189251399333555647_);}
	.st5{fill:#901A3D;}
	.st6{fill:#E6FFF2;}
	.st7{fill:none;stroke:#62090F;stroke-width:20.8692;stroke-miterlimit:10;}
</style>
<g>
	<ellipse class="st0" cx="471.47" cy="423.04" rx="172.17" ry="124.7"/>
	<path class="st1" d="M140.85,250.92c-4.23,7.39-118.3,286.25,223.93,406.66s477.43-171.12,477.43-171.12l-202.8-54.93
		c0,0-236.6,181.46-340.12-133.2L140.85,250.92z"/>
	<path class="st1" d="M509.38,176.71c6.71,26.41,31.62,44.79,58.73,41.96c1.21-0.13,2.45-0.29,3.7-0.49
		c40.14-6.34,135.2-65.49,200.69-12.68s44.36,120.41,44.36,120.41s-10.56,78.16,120.41,105.63s-76.05,84.5-82.39,82.39
		c-6.34-2.11-171.12,4.55-270.41-114.97s-215.48-45.58-215.48-45.58s-111.96,42.25-232.38-69.71S77.48,164.84,77.48,164.84
		s82.39,62.85,173.23,0S392.25,70.3,438.72,87.2C485.01,104.03,502.95,151.37,509.38,176.71z"/>
	<ellipse class="st2" cx="251.76" cy="468.52" rx="36.97" ry="45.48"/>
	<circle class="st2" cx="325.17" cy="560.94" r="13.2"/>
	<g class="st3">
		<defs>
			<path id="SVGID_1_" class="st3" d="M927.76,430.11c-130.98-27.46-120.42-105.63-120.42-105.63s21.13-67.6-44.36-120.41
				c-65.49-52.81-160.55,6.34-200.69,12.67c-1.25,0.2-2.49,0.36-3.7,0.49c-27.1,2.83-52.02-15.55-58.73-41.96
				c-6.43-25.34-24.37-72.67-70.66-89.51c-46.48-16.9-97.18,14.79-188.02,77.64c-90.84,62.85-173.23,0-173.23,0
				s-59.41,6.66,53.78,113.79c-20.86,74.6-47.36,280.13,233.53,378.96c278.6,98.03,419.99-76.93,462.94-145.39
				c15.71,1.23,25.7,1.25,27.17,1.74C851.71,514.61,1058.74,457.57,927.76,430.11z"/>
		</defs>
		<clipPath id="SVGID_00000109733025847812830650000010216884973080161940_">
			<use xlink:href="#SVGID_1_"  style="overflow:visible;"/>
		</clipPath>
		<g style="clip-path:url(#SVGID_00000109733025847812830650000010216884973080161940_);">
			<g>
				<path class="st5" d="M108.2,286.97c-1.03,3.09-1.65,1.27,0.74-1.89c-6.05,8.01-3.72,19.06,0,27.25
					c-0.36-0.79-2.09-5.83-1.35-2.38c0.25,1.15,0.73,2.24,1.01,3.39c0.49,2.03,0.69,4.15,1.03,6.21c-0.4-2.97-0.8-5.94-1.2-8.92
					c-0.35,7.09,1.98,14.71,5.98,20.46c1.27,1.83,2.63,3.65,3.83,5.54c3.91,6.19,7.82,12.1,12.71,17.62
					c8.15,9.21,17.73,16.61,27.87,23.55c17.62,12.05,37.56,21.64,57.85,28.18c22.6,7.29,46.54,10.9,70.19,12.47
					c25.49,1.69,50.66-0.91,75.86-4.74c12.41-1.89,24.73-4.39,36.92-7.39c12.71-3.13,25.16-7.31,38.13-9.25
					c-3.59,0.48-7.17,0.96-10.76,1.45c7.58-0.98,15.01-0.98,22.59-0.01c-3.54-0.48-7.08-0.95-10.62-1.43
					c12.64,1.87,24.2,6.08,36.03,10.74c11.86,4.67,23.68,9.45,35.43,14.4c-3.29-1.39-6.58-2.78-9.87-4.16
					c26.31,11.13,52.45,23.06,77.39,37c24.21,13.54,47.48,28.63,71.07,43.2c47.9,29.59,99.49,57.88,155.9,66.38
					c17.58,2.65,35.17,4.65,52.96,3.56c21.1-1.29,43.11-4.03,61.39-15.29c14.88-9.17,24.42-28.8,18.79-46.18
					c-2.18-6.75-5.72-12.82-10.52-18.04c-6.37-6.94-19.4-12.76-28.91-11.98c-8.37,0.69-16.6,1.45-24.8,3.39
					c-5.05,1.2-10.16,2.11-15.3,2.84c3.79-0.51,7.59-1.02,11.38-1.53c-16.69,2.18-33.48,1.91-50.17-0.21
					c3.79,0.51,7.57,1.02,11.36,1.53c-24.58-3.33-48.37-10.52-71.22-20.09c3.39,1.43,6.79,2.86,10.18,4.3
					c-50.96-21.66-95.84-54.66-143.8-81.86c-27.22-15.45-55.6-28.36-84.94-39.26c-13.08-4.86-26.28-9.37-39.55-13.67
					c-13.62-4.41-27.47-9.49-41.57-12.1c-10.9-2.02-22.13-3.5-33.21-2.48c-10.65,0.98-21.23,2.74-31.66,5.06
					c-16.06,3.57-32.08,7.04-48.39,9.3c3.71-0.5,7.42-1,11.13-1.5c-29.71,3.99-60.11,4.82-89.87,0.85
					c3.78,0.51,7.56,1.02,11.34,1.52c-22.12-3.11-43.63-9.24-64.26-17.8c3.35,1.41,6.7,2.83,10.05,4.24
					c-9.54-4.04-18.8-8.69-27.63-14.09c-4.16-2.55-8.16-5.31-12.39-7.73c-2.2-1.26-4.38-2.56-6.53-3.91
					c-4.83-3.04-9.33-5.05-14.86-7.32c3.01,1.27,6.02,2.54,9.03,3.81c-4.1-2.04-7.72-4.35-11.35-7.13c2.35,1.81,4.7,3.63,7.04,5.44
					c-8.17-7.09-15.9-10.66-26.68-11.2c2.97,0.4,5.94,0.8,8.92,1.2c-1.64-0.47-3.27-0.96-4.9-1.47c2.41,1.02,4.82,2.03,7.22,3.05
					c-2.33-1.2-8.12-5.67-1.87-0.25c-6.98-6.06-16.91-10.29-26.27-6.94c4.26-1.53,5.9-0.43,2.74-0.64
					C118.61,271.43,110.92,278.83,108.2,286.97L108.2,286.97z"/>
			</g>
		</g>
		<g style="clip-path:url(#SVGID_00000109733025847812830650000010216884973080161940_);">
			<g>
				<path class="st5" d="M36.48,135.22c-1.72,5.24-3.62,10.31-3.62,15.97c0,6.16,2.2,12.49,3.24,18.56
					c-0.38-2.81-0.75-5.61-1.13-8.42c0.11,2.41,0.23,4.82,0.36,7.22c0.41-3.07,0.83-6.14,1.24-9.22c-1.47,7.7-2.16,13.98,0.24,21.62
					c-0.43-3.18-0.85-6.35-1.28-9.53c0.75,6.21,0.71,13.06,2.29,19.02c0.93,3.51,2.19,6.98,3.18,10.49
					c2.98,10.53,6.89,20.51,11.34,30.53c2.99,6.74,5.96,13.7,9.58,20.12c3.58,6.34,8.01,12.38,12.28,18.26
					c10.75,14.83,22.11,29.59,35.59,42.07c13.43,12.44,28.27,23.9,44.04,33.22c65.36,38.62,143.67,42.97,217.64,39.46
					c21.08-1,42.14-2.46,63.23-3.41c19.97-0.91,40.24-1.98,60.13,0.6c-4.31-0.58-8.61-1.16-12.92-1.74
					c9.32,1.33,18.33,3.6,27.06,7.17c-3.87-1.63-7.74-3.27-11.61-4.9c11.47,4.91,21.88,11.65,31.75,19.22
					c-3.28-2.53-6.56-5.07-9.84-7.6c12.57,9.79,24.16,20.71,36.21,31.11c15.11,13.03,31.06,25.26,47.67,36.33
					c30.58,20.38,63.76,35.96,97.77,49.69c30.77,12.42,62.54,22.23,94.7,30.37c21.68,5.49,43.42,9.63,65.67,12.08
					c20.91,2.3,41.34,0.8,62.05-2.77c20.73-3.57,40.98-11.46,59.55-21.17c7.86-4.11,15.38-8.87,22.46-14.21
					c6.22-4.69,12.97-9.28,18.62-14.73c5.59-5.39,10.22-12.65,14.56-19.24c1.56-3.71,3.13-7.42,4.69-11.12
					c1.94-6.19,2.22-12.38,0.83-18.57c-1.31-9.77-5.33-19.87-12.81-26.74c-5.95-5.46-12.87-9.49-20.55-11.98
					c-10.52-3.4-26.62-1.52-35.88,4.69c-3.05,2.05-6.2,3.91-9.28,5.91c-6.15,4-11.54,9.25-17.31,13.79
					c3.29-2.54,6.57-5.08,9.86-7.62c-11.54,8.89-24.1,16.19-37.52,21.85c3.88-1.64,7.76-3.27,11.63-4.91
					c-12.97,5.32-26.46,9.02-40.34,10.98c4.32-0.58,8.63-1.16,12.95-1.74c-16.41,2.15-32.87,1.61-49.25-0.51
					c4.31,0.58,8.63,1.16,12.94,1.74c-26.56-3.65-52.73-10.65-78.43-18.17c-24.16-7.07-47.98-15.31-71.2-25.04
					c3.87,1.63,7.75,3.27,11.62,4.9c-35.63-15.06-69.68-33.76-100.38-57.37c3.28,2.53,6.56,5.07,9.84,7.6
					c-39.45-30.63-73.57-71.54-125.04-81.62c-27.92-5.47-55.93-4.67-84.16-3.29c-25.69,1.25-51.35,3.15-77.06,3.98
					c-27.09,0.87-54.22,0.47-81.13-3.03c4.3,0.58,8.6,1.16,12.91,1.73c-23.92-3.23-47.44-8.88-69.76-18.18
					c3.86,1.63,7.73,3.26,11.59,4.89c-15.87-6.76-30.75-15.31-44.45-25.8c3.27,2.53,6.55,5.06,9.82,7.59
					c-17.6-13.7-33.27-30.05-46.96-47.64c2.48,3.21,4.96,6.42,7.44,9.63c-8.2-10.66-16.23-21.41-24.48-32.03
					c2.39,3.09,4.78,6.19,7.17,9.28c-9-11.7-17.69-23.5-27.17-34.82c2.12,2.75,4.25,5.5,6.37,8.25c-1.47-1.91-2.98-3.8-4.37-5.75
					c-1.45-2.03-2.84-3.92-4.4-5.94c-3.49-4.51-7.52-7.45-12.05-10.89c2.59,2,5.18,4,7.77,6.01c-1.78-1.78-3.55-3.56-5.31-5.36
					c1.87,2.42,3.74,4.83,5.6,7.25c-4.1-6.2-8.15-11.13-14.81-14.73c2.34,1.81,4.68,3.61,7.02,5.42c-2.19-2.02-4.55-3.96-6.44-6.26
					c1.63,2.11,3.26,4.22,4.89,6.32c-4.1-5.47-7.8-11.67-13.21-15.85c-3.48-2.69-7.12-4.29-11.07-6.15
					C55.5,115.94,41.2,120.91,36.48,135.22L36.48,135.22z"/>
			</g>
		</g>
		<g style="clip-path:url(#SVGID_00000109733025847812830650000010216884973080161940_);">
			<g>
				<path class="st5" d="M746.73,190.5c0.68,0.98,1.4,1.96,2.01,2.99c0.24,0.41,1.99,2.93,0.74,1.03c-1.28-1.94,0.39,0.97,0.61,1.63
					c0.35,1.04,0.52,2.25,0.99,3.23c0.3,1.19,0.3,0.86,0.01-0.97c-0.29-2.63-0.22-2.17,0.23,1.36c0.28,2.08,0.76,3.69,1.23,5.65
					c0.22,0.91,0.36,1.85,0.53,2.77c-1.23-6.93-0.8-3.77-1.06-1.42c1.26-4.66,2.52-9.33,3.78-13.99c-2.55,4.75-4.32,9.8-4.32,15.29
					c0,4.66,0.94,6.75,1.84,10.49c0.69,2.87,1.13,5.82,1.55,8.75c-0.38-2.81-0.76-5.62-1.13-8.43c0.58,4.33,0.88,8.47,0.57,12.83
					c0.42-3.15,0.85-6.3,1.27-9.46c-1.92,13.77-1.08,27.26-1.96,41.07c-0.77,12.05-1.51,24.06-2.65,36.09
					c-1.25,13.13-1.04,26.51-0.7,39.7c0.44,16.78,2.19,33.66,5.75,50.07c6.4,29.48,20.99,55.84,40.76,78.38
					c19.03,21.7,43.58,36.54,70.02,47.28c28.86,11.72,59.83,12.18,90.35,8.9c-16.24-16.24-32.48-32.48-48.72-48.72
					c0.09,0.61,0.08,1.21-0.03,1.82c0.58-4.32,1.16-8.63,1.74-12.95c-0.08,0.25-0.16,0.51-0.24,0.76c1.64-3.88,3.27-7.76,4.91-11.64
					c-0.12,0.22-0.25,0.45-0.37,0.67c2.54-3.29,5.08-6.57,7.62-9.86c-0.3,0.42-0.66,0.78-1.09,1.06c3.29-2.54,6.57-5.08,9.86-7.62
					c-0.23,0.13-0.47,0.27-0.7,0.4c3.88-1.64,7.76-3.27,11.64-4.91c-0.88,0.35-1.65,0.55-2.58,0.71c4.32-0.58,8.63-1.16,12.95-1.74
					c-1.41,0.12-2.75,0.07-4.16-0.1c4.32,0.58,8.63,1.16,12.95,1.74c-1.87-0.33-3.61-0.84-5.35-1.58c3.88,1.64,7.76,3.27,11.64,4.91
					c-2.86-1.41-5.32-3.5-7.84-5.43c3.29,2.54,6.57,5.08,9.86,7.62c-15.74-12.22-30.7-25.34-46.72-37.22
					c-15.75-11.69-33.54-20.93-52.48-26.24c-12.14-3.4-26.68-1.45-37.54,4.91c-10.11,5.91-19.74,17.5-22.39,29.11
					c-2.84,12.47-2.23,26.47,4.91,37.54c7.22,11.19,16.64,17.73,29.11,22.39c38.99,14.56,79.1,22.95,120.33,28.07
					c-15.66-11.92-31.32-23.84-46.98-35.77c0.22,0.97,0.48,1.93,0.67,2.91c-0.54-4.04-1.08-8.07-1.63-12.11
					c0.2,1.71,0.25,3.34,0.03,5.04c0.48-3.55,0.95-7.1,1.43-10.65c-0.16,1.13-0.47,1.94-0.9,2.99c1.24-2.94,2.48-5.89,3.73-8.83
					c-0.31,0.7-0.66,1.38-1.05,2.05c-4.26,7.71-6.31,18.34-3.52,26.94c2.61,8.08,7.93,17.33,16.07,20.89
					c13.96,6.11,30.03,10.25,45.11,4.8c11.58-4.18,23.11-11.02,29.11-22.39c5.2-9.84,7.27-19.98,5.78-31.06
					c-1.37-10.22-5.57-20.79-13.4-27.97c-3.29-2.54-6.57-5.08-9.86-7.62c-7.6-4.41-15.79-6.62-24.59-6.65
					c-1.86-0.23-3.73-0.47-5.59-0.72c4.32,0.58,8.63,1.16,12.95,1.74c-34.78-4.75-68.9-13.34-101.79-25.62
					c-8.63,31.32-17.27,62.64-25.9,93.95c4.05,1.13,7.99,2.51,11.87,4.12c-3.88-1.64-7.76-3.27-11.64-4.91
					c12.1,5.23,23,12.56,33.41,20.58c-3.29-2.54-6.57-5.08-9.86-7.62c15.7,12.22,30.45,25.73,46.72,37.22
					c12.55,8.86,29.09,11.53,43.98,9.53c12.14-1.63,22.92-6.07,31.86-15c9.73-9.72,16.28-24.34,15.4-38.27
					c-0.79-12.4-4.75-25.71-14.27-34.45c-8.93-8.2-21.85-15.62-34.45-14.27c-15.56,1.67-31.14,3.15-46.74,1.15
					c4.32,0.58,8.63,1.16,12.95,1.74c-11.04-1.55-21.72-4.56-31.99-8.87c3.88,1.64,7.76,3.27,11.64,4.91
					c-10.24-4.44-19.82-10.08-28.7-16.85c3.29,2.54,6.57,5.08,9.86,7.62c-8.8-6.86-16.68-14.69-23.55-23.49
					c2.54,3.29,5.08,6.57,7.62,9.86c-6.47-8.47-11.84-17.62-15.99-27.44c1.64,3.88,3.27,7.76,4.91,11.64
					c-4.93-12.07-7.87-24.73-9.65-37.62c0.58,4.32,1.16,8.63,1.74,12.95c-0.79-6.13-1.63-12.25-2.46-18.37
					c0.58,4.31,1.16,8.62,1.74,12.93c-1.47-11.58-2.16-23.22-2.6-34.88c-0.58-15.61-2.16-30.77-4.43-46.26
					c-3.52-24.02-10.65-49.92-26.43-68.78c1.85,2.4,3.71,4.8,5.56,7.2c-2.64-3.5-5.32-6.97-8.03-10.41
					c1.77,2.29,3.54,4.58,5.31,6.88c-3.84-5.7-7.82-11.15-12.09-16.57c-0.58-0.74-1.16-1.47-1.76-2.2c-2.97-3.61,0.52,0.81,1.4,2
					c-3.05-4.1-6.04-7.59-10.39-10.39c-4.67-3.01-9.99-3.54-15.32-4.02c4.66,1.26,9.33,2.52,13.99,3.78
					c-2.02-0.94-3.84-1.88-5.7-3.09c-1.51-1.05-1.47-0.99,0.1,0.19c2.72,2.11,1.6,1.25-3.35-2.58c-1.79-0.76-3.58-1.51-5.37-2.27
					c3.06,1.31,3.83,1.56,2.31,0.75c-4.07-2.73-8.97-4.71-13.3-7.02c-6.02-3.2-14.35-2.81-19.2,2.48
					C744.7,176.21,742.64,184.62,746.73,190.5L746.73,190.5z"/>
			</g>
		</g>
		<g style="clip-path:url(#SVGID_00000109733025847812830650000010216884973080161940_);">
			<g>
				<path class="st5" d="M567.93,360.97c-0.19,7.41-0.86,14.59,1.44,21.82c3.14,9.88,9.23,19.27,15.97,27.05
					c-1.69-2.18-3.37-4.37-5.06-6.55c2.95,4.19,5.92,8.39,9.28,12.25c-1.8-2.33-3.61-4.67-5.41-7c2.63,3.46,5.28,6.92,8,10.32
					c-1.88-2.43-3.76-4.87-5.64-7.3c5.09,6.63,7.29,9.05,13.89,14.12c0.76,0.58,1.52,1.17,2.28,1.75c2.1,1.58,4.24,3.1,6.43,4.54
					c4.13,2.71,8.28,5.47,12.66,7.75c11.59,6.03,24.31,9.78,37.2,11.68c13.46,1.99,26.4,3.28,39.94,1.77
					c17.88-1.99,32.76-6.81,49.17-14.08c21.37-9.47,41.36-24.89,56.24-42.9c18.21-22.04,31.86-48.08,37.2-76.36
					c3.4-17.97,5.06-36.27,4.58-54.55c-0.4-15.01-1.95-29.95-3.51-44.87c-31.72,4.29-63.44,8.59-95.16,12.88
					c3.92,16.25,7.01,32.66,9.26,49.22c-0.58-4.3-1.15-8.59-1.73-12.89c5.01,38.01,6.19,77.27,1.19,115.35
					c0.58-4.31,1.16-8.61,1.74-12.92c-1.23,8.73-3.09,17.29-6.38,25.5c1.63-3.87,3.27-7.74,4.9-11.61
					c-2.12,4.95-4.7,9.58-7.99,13.86c2.53-3.28,5.07-6.56,7.6-9.84c-2.4,2.92-5.06,5.47-8.05,7.78c3.28-2.53,6.56-5.07,9.84-7.6
					c-3.06,2.22-6.26,4.05-9.74,5.54c3.87-1.63,7.75-3.27,11.62-4.9c-3.03,1.18-6.05,2.02-9.26,2.53c4.31-0.58,8.62-1.16,12.93-1.74
					c-2.7,0.32-5.33,0.38-8.04,0.13c4.31,0.58,8.62,1.16,12.93,1.74c-2.7-0.37-5.23-1.02-7.77-2.02c3.87,1.64,7.75,3.27,11.62,4.91
					c-0.84-0.36-1.67-0.75-2.47-1.19c-12.5,29.65-25,59.3-37.5,88.95c13.23,4.83,26.44,9.72,39.69,14.5
					c2.06,0.74,4.07,1.41,6.21,1.83c5.98,1.19,12.64,2.44,18.84,2.17c5.65-0.25,11.82-0.95,17.28-2.41
					c12.28-3.28,25.74-12.25,31.32-23.85c4.36-7.52,6.55-15.62,6.58-24.32c-0.03-8.7-2.22-16.8-6.58-24.32
					c-9.08-15.51-24.29-22.55-41.61-23.87c-10.19-0.77-17.38,2.99-26.29,6.99c3.88-1.64,7.76-3.27,11.64-4.91
					c-1.02,0.35-1.98,0.59-3.04,0.79c4.32-0.58,8.63-1.16,12.95-1.74c-2.35,0.29-4.62,0.25-6.97-0.02
					c4.32,0.58,8.63,1.16,12.95,1.74c-7.49-1.18-14.73-4.68-21.83-7.26c-8.42-3.06-16.85-6.12-25.27-9.18
					c-10.84-3.94-27.94-1.26-37.5,4.91c-9.04,5.83-15.71,13.32-19.91,23.27c-8.93,21.16-1.74,49.66,19.91,60.77
					c6.19,3.18,12.95,6.54,19.88,7.8c7.26,1.32,14.87,2.71,22.28,1.97c14.92-1.49,29.13-4.81,41.9-13.2
					c22.96-15.1,38.22-38.12,44.62-64.8c5.14-21.43,6.37-44.34,6.89-66.34c0.47-19.91-0.33-39.85-2.36-59.66
					c-2.67-26.03-6.71-51.96-12.9-77.4c-2.7-11.12-12.09-23.58-22.26-28.95c-9.78-5.17-19.87-7.23-30.89-5.75
					c-10.17,1.37-20.67,5.54-27.82,13.32c-8.16,8.89-15.53,21.72-14.19,34.26c2.78,26,5.42,52.23,2.12,78.31
					c0.58-4.29,1.15-8.57,1.73-12.86c-1.64,11.94-4.54,23.53-9.16,34.68c1.62-3.85,3.25-7.7,4.87-11.55
					c-4.96,11.6-11.6,22.24-19.21,32.28c2.5-3.24,5.01-6.48,7.51-9.72c-6.82,8.79-14.61,16.67-23.37,23.54
					c3.16-2.44,6.33-4.89,9.49-7.33c-8.04,6.15-16.68,11.31-25.95,15.36c3.65-1.54,7.3-3.08,10.95-4.62
					c-10.1,4.26-20.84,7.25-31.68,8.85c3.91-0.53,7.82-1.05,11.73-1.58c-10.43,1.39-20.9,1.38-31.34,0c3.7,0.5,7.4,0.99,11.11,1.49
					c-7.86-1.14-15.66-2.49-23.55-3.54c3.58,0.48,7.17,0.96,10.75,1.44c-7.56-1.1-14.71-3-21.83-5.79c2.93,1.24,5.86,2.47,8.78,3.71
					c-4.97-2.1-9.62-3.84-14.76-5.21c-2.38-0.63-4.73-1.32-7.06-2.12c2.58,1.09,5.16,2.18,7.73,3.26
					c-3.24-1.59-6.72-3.23-10.19-4.22c2.51,1.06,5.02,2.12,7.53,3.18c-6.66-2.82-12.94-6.17-19.71-8.78
					c-3.64-1.41-7.87-0.89-11.34-2.27c1.67,0.66,5.77,1.27,1.7,0.03c-0.99-0.3-4.3-1.74-0.19,0.02c-5.53-2.36-10.9-3.22-16.39,0
					C570.94,349.89,568.08,355.2,567.93,360.97L567.93,360.97z"/>
			</g>
		</g>
		<g style="clip-path:url(#SVGID_00000109733025847812830650000010216884973080161940_);">
			<g>
				<path class="st5" d="M595.45,437.99c0.2,2.15-0.41,3.07,0.78-1.32c-1.43,5.26-0.8,12.21,2.21,16.88
					c1.56,2.42,3.57,4.51,5.56,6.57c1.42,1.47,2.85,4.87,0.16-0.1c-1.08-3.99-2.16-7.99-3.24-11.98c-0.36,2.77-0.16,1.26,0.61-4.54
					c-0.39,2.77-0.77,5.55-1.12,8.33c-0.14,6.53,1.51,11.95,4.85,17.49c2,3.32,4.13,6.55,6.12,9.88c-1.17-2.76-2.33-5.53-3.5-8.29
					c3.02,7.34,5.25,12.02,10.63,17.97c-1.85-2.4-3.71-4.8-5.56-7.2c6.85,9.06,12.41,18.93,19.51,27.76
					c-2.11-2.72-4.21-5.45-6.32-8.17c5.89,7.92,10.97,16.26,14.92,25.31c-1.45-3.43-2.89-6.86-4.34-10.29
					c3.37,8.01,5.85,16.34,7.1,24.95c-0.54-4.01-1.08-8.02-1.62-12.04c0.94,7.34,0.92,14.62,0.01,21.96
					c0.56-4.16,1.12-8.33,1.68-12.49c-0.98,5.76-1.62,11.57-2.29,17.38c0.56-4.18,1.12-8.36,1.69-12.54
					c-1.25,9.28-3.82,18.21-7.37,26.87c1.6-3.78,3.19-7.56,4.79-11.35c-5.74,13.51-13.57,25.9-22.46,37.55c2.5-3.24,5-6.48,7.5-9.71
					c-18.75,24.21-41.27,45.88-65.46,64.59c3.27-2.53,6.54-5.06,9.82-7.58c-12.24,9.38-25.03,17.98-38.34,25.78
					c-20.89,12.24-29.12,38.54-19.83,60.53c3.93,9.31,10.64,18.32,19.83,23.18c10.95,5.79,25.27,9.39,37.35,4.89
					c43.55-16.22,87.42-36.23,125.02-63.92c10.96-8.07,21.87-16.42,31.67-25.91c9.56-9.26,17.87-19.74,25.62-30.53
					c13.02-18.1,22.32-40.18,25.5-62.28c1.28-8.89,2.69-17.82,2.57-26.83c-0.12-8.9-1.47-17.93-2.97-26.64
					c-0.91-5.27-2.33-10.46-4.3-15.43c-3.33-8.42-6.69-16.87-11.58-24.51c-25.3,19.52-50.6,39.04-75.9,58.56
					c0.72,0.9,1.43,1.8,2.13,2.71c-2.52-3.26-5.04-6.52-7.56-9.78c12.66,16.45,23.13,34.38,31.27,53.47
					c-1.62-3.85-3.25-7.7-4.87-11.54c2.66,6.37,5.07,12.84,7.21,19.4c6.05,18.52,20.57,31.98,40.18,34.62
					c18.4,2.47,39.03-6.04,48.15-23.07c6.65-12.42,13.3-24.85,19.95-37.27c-25.3,3.26-50.6,6.52-75.9,9.78
					c0.68,0.67,1.3,1.39,1.86,2.17c-2.52-3.26-5.04-6.52-7.56-9.78c0.81,1.23,1.46,2.39,2.07,3.73c-1.62-3.85-3.25-7.7-4.87-11.54
					c0.67,1.83,1.11,3.6,1.37,5.53c-0.58-4.28-1.15-8.56-1.73-12.85c0.44,7.11,1.75,13.75,3.24,20.57
					c-0.54-4.05-1.09-8.09-1.63-12.14c0.15,0.85,0.22,1.72,0.23,2.58c0.78,15.8,7.94,30.01,21.9,38.18
					c13.36,7.82,31.31,8.29,44.63,0c17.02-10.59,29.51-28.2,28.28-49.19c-1.04-17.6-7.4-32.68-19.45-45.61
					c-20.72-22.24-61.52-17.08-75.9,9.78c-6.65,12.42-13.3,24.85-19.95,37.27c29.44,3.85,58.88,7.7,88.33,11.54
					c-5.74-17.57-13-34.88-21.76-51.17c-8.82-16.39-19.74-31.17-31.28-45.73c-6.88-8.68-23.48-14.63-34.17-14.15
					c-10.91,0.49-20.59,3.67-29.28,10.38c-18.27,14.12-25.52,41.92-12.45,62.34c2.23,3.48,4.15,7.07,5.83,10.85
					c-1.62-3.85-3.25-7.7-4.87-11.55c2.78,6.63,4.6,13.47,5.62,20.59c-0.58-4.28-1.15-8.57-1.73-12.85
					c1.03,8.25,0.94,16.48-0.09,24.73c0.58-4.28,1.15-8.57,1.73-12.85c-1.32,9.39-3.82,18.46-7.4,27.23
					c1.63-3.85,3.25-7.7,4.88-11.55c-4.18,9.84-9.69,18.88-16.19,27.36c2.52-3.26,5.04-6.53,7.57-9.79
					c-9.4,11.98-20.47,22.37-32.48,31.7c3.27-2.52,6.53-5.05,9.8-7.57c-28.95,22.17-62.13,39.27-95.6,53.47
					c3.86-1.63,7.72-3.26,11.58-4.89c-7.43,3.12-14.93,6.09-22.49,8.89c12.45,29.53,24.9,59.07,37.35,88.6
					c48.83-28.54,92.26-67.17,124.36-113.87c8.82-12.83,15.3-26.41,21.21-40.79c5.91-14.38,9.57-30.36,9.97-45.91
					c0.23-8.93-1.45-18.42-3.03-27.03c-1.02-5.55-2.66-10.93-4.74-16.18c-3.09-7.79-6.24-15.67-10.67-22.82
					c-4.44-7.18-9.78-13.9-15.13-20.4c-3.75-4.57-7.79-8.87-12.01-13c-6.26-6.1-13.98-10.93-21.35-15.66
					c-2.53-1.62-5.08-3.2-7.67-4.71c-4.69-2.74-9.91-4.37-14.94-6.4c-9.44-3.81-18.5-5.41-28.35-1.44c4.21,0,8.41,0,12.62,0
					c5.11,1.25,2.17,0.98,0.1-0.12c-2.52-1.34-5.11-3.05-7.88-3.68c-5.83-1.33-11.58-0.73-16.88,2.21c1.56-0.86,3.84-1.51,0.79-0.87
					C600.84,424.03,594.84,431.45,595.45,437.99L595.45,437.99z"/>
			</g>
		</g>
		<g style="clip-path:url(#SVGID_00000109733025847812830650000010216884973080161940_);">
			<g>
				<path class="st5" d="M436.48,86.91c0.05,7.78,2.8,14.37,4.07,21.79c-0.39-2.88-0.78-5.77-1.16-8.65
					c0.86,9.95,3.62,19.24,5.03,29.07c-0.44-3.31-0.89-6.62-1.33-9.93c0.48,4.43,0.27,8.81,0.09,13.25
					c-0.29,7.3,0.41,14.47,1.83,21.68c1.88,9.53,6.72,18.96,12.52,26.76c12.5,16.81,28.82,31.24,47.49,40.96
					c13.07,6.81,25.87,10.87,40.62,11.6c15.06,0.75,33.86-3.98,44.61-15.1c6.06-6.27,11.74-14.15,14.1-22.72
					c5.56-20.19-6.35-41.63-26.38-47.44c-9.06-2.63-17.67-1.11-26.53,0.89c-3.71,0.84-7.22,2.28-11.02,2.91
					c3.67-0.49,7.34-0.99,11-1.48c-3.4,0.42-6.69,0.43-10.09,0.03c3.65,0.49,7.3,0.98,10.96,1.47c-4.65-0.73-9.02-2.07-13.35-3.88
					c3.26,1.38,6.53,2.75,9.79,4.13c-8.61-3.86-16.6-9.07-24.05-14.82c2.73,2.11,5.46,4.22,8.19,6.33
					c-4.82-3.83-9.27-7.98-13.16-12.77c2.09,2.71,4.19,5.42,6.28,8.13c-2.76-3.57-5.06-7.33-6.85-11.47
					c1.34,3.18,2.68,6.36,4.03,9.54c-2.29-5.86-3.62-11.47-4.55-17.7c-1.31-8.75-4.01-17.22-8.51-24.92
					c-5.52-9.44-12.54-16.82-21.75-22.64c-6.16-3.89-12.36-8.25-19.76-9.5c-8.29-1.41-15.32-0.71-22.12,4.54
					C440.25,71.8,436.43,78.87,436.48,86.91L436.48,86.91z"/>
			</g>
		</g>
		<g style="clip-path:url(#SVGID_00000109733025847812830650000010216884973080161940_);">
			<g>
				<path class="st6" d="M118.75,331.83c-22.41,9.08-21.6,40.75-21.24,61.3c0.16,9.02,0.86,18.02,2,26.97
					c1.38,10.81,2.61,22.06,5.56,32.6c10.28,36.61,28.69,71.88,51.52,102.17c25.74,34.14,55.68,63.54,90.62,88.3
					c33.92,24.03,71.18,42.31,109.43,58.31c19.91,8.33,40.8,15.74,61.74,21.06c13.26,3.37,26.82,6.22,40.42,7.62
					c5.24,0.54,10.49,1.05,15.74,1.52c9.72,0.87,18.18-0.3,27.09-4.49c12.53-5.89,17.92-26.23,9.82-37.46
					c-5.85-8.11-12.77-13.18-21.7-17.35c-5.29-2.47-10.54-5.03-15.81-7.53c-12.96-6.14-27.03-11.26-40.6-15.99
					c-22.71-7.92-45.18-16.73-67.34-26.07c3.05,1.29,6.11,2.58,9.16,3.87c-40.84-17.36-79.69-39.14-114.96-66.16
					c2.49,1.92,4.98,3.84,7.46,5.77c-23.74-18.35-45.12-39.49-63.52-63.21c1.81,2.35,3.62,4.69,5.44,7.04
					c-16.8-21.88-31.29-45.53-42.15-70.92c1.08,2.56,2.16,5.12,3.24,7.68c-3.5-8.31-6.79-16.71-10.32-25.01
					c1.05,2.48,2.09,4.95,3.14,7.43c-6.43-15.4-11.54-31.34-14.85-47.71c-0.82-4.04-1.47-8.1-2.14-12.16
					c-0.38-2.66-0.3-2.03,0.23,1.88c-0.13-1.05-0.26-2.09-0.38-3.14c-0.39-3.66-0.76-7.3-1.64-10.87
					c-1.62-6.57-2.57-12.69-7.36-17.96c1.89,2.45,2.23,2.76,1.02,0.94c-1.58-2.68-3.72-4.81-6.39-6.39
					C128.36,331.65,122.9,330.14,118.75,331.83L118.75,331.83z"/>
			</g>
		</g>
		<g style="clip-path:url(#SVGID_00000109733025847812830650000010216884973080161940_);">
			<g>
				<path class="st6" d="M127.63,190.28c1.77,12.11,8.64,22.7,16.51,31.75c8.94,10.28,22.15,16.66,35.54,18.73
					c7.68,1.19,15.64,2.55,23.44,1.79c8.22-0.79,16.54-2.05,24.53-4.21c10.05-2.72,19.76-6.61,29.41-10.46
					c21.58-8.62,43.01-17.69,61.9-31.44c18.52-13.48,34.69-28.83,50.23-45.57c14.58-15.71,28.93-31.66,45.88-44.88
					c-3,2.32-6,4.64-9.01,6.96c9.54-7.31,19.69-13.66,30.75-18.41c-3.56,1.5-7.13,3.01-10.69,4.51c7.73-3.18,15.84-5.68,23.1-9.87
					c8.95-5.17,16.05-13.04,21.84-21.46c4.62-6.71,5.45-15.96,4.41-23.7c-1-7.44-4.16-16.39-10.22-21.34
					c-7.54-6.15-14.08-10.51-23.69-13.18c-10.54-2.93-20.35-1.88-30.92,0.25c-7.09,1.43-13.98,5.22-20.48,8.17
					c-3.44,1.56-6.81,3.31-10.08,5.19c-16.03,9.2-30.77,21.29-44.01,34.15c-23.39,22.74-42.71,49.49-68.67,69.56
					c2.95-2.28,5.89-4.55,8.84-6.83c-20.95,15.85-45.49,27.47-69.56,37.74c3.35-1.42,6.71-2.83,10.06-4.25
					c-10.82,4.51-21.88,7.83-33.51,9.45c3.59-0.48,7.19-0.97,10.78-1.45c-4.65,0.52-9.2,0.59-13.85-0.02
					c3.47,0.47,6.94,0.93,10.4,1.4c-7.42-1.19-14.83-1.51-22.24-2.43c3.14,0.42,6.29,0.84,9.43,1.27
					c-3.84-0.59-7.54-1.49-11.17-2.87c2.43,1.03,4.87,2.05,7.3,3.08c-1.95-0.83-3.8-1.77-5.6-2.89c-9.43-5.89-22.25-4.41-30.76,2.17
					c-3.91,3.02-6.61,6.53-8.53,11.08C126.41,178.45,126.65,183.62,127.63,190.28L127.63,190.28z"/>
			</g>
		</g>
		<g style="clip-path:url(#SVGID_00000109733025847812830650000010216884973080161940_);">
			<g>
				<path class="st6" d="M555.52,222.85c-1.44,12.27,7.32,23.94,18.28,28.83c7.8,3.48,12.64,4.62,21.23,5.45
					c3.05,0.3,6.11,0.43,9.17,0.44c16.98,0.02,34.26-2.08,50.78-5.9c16.96-3.91,33.81-10.32,48.34-19.98
					c12.55-8.34,23.9-18.29,37.87-24.3c-2.99,1.26-5.98,2.52-8.97,3.79c11.82-4.8,23.91-7.72,36.53-9.48
					c-3.36,0.45-6.72,0.9-10.08,1.35c10.92-1.45,23.25-1.04,32.53-7.49c12.5-8.69,19.82-21.35,17.72-36.98
					c-0.9-6.68-3.19-12.22-7.31-17.56c-5.35-6.92-11.19-9.93-19.28-13.3c-9.11-3.8-20.96-0.87-30.3,0.41
					c-4.58,0.63-9.16,1.31-13.7,2.21c-11.11,2.2-21.77,5.79-32.01,10.68c-18.33,8.76-32.32,24-48.16,36.32
					c2.39-1.85,4.79-3.7,7.18-5.55c-7.46,5.64-15.47,10.12-24.08,13.76c2.73-1.15,5.46-2.3,8.19-3.46
					c-10.68,4.35-21.84,7.02-32.73,10.74c-9.62,3.28-19.26,6.52-29.35,7.97c2.54-0.34,5.08-0.68,7.62-1.02
					C579.83,201.64,557.77,203.61,555.52,222.85L555.52,222.85z"/>
			</g>
		</g>
		<g style="clip-path:url(#SVGID_00000109733025847812830650000010216884973080161940_);">
			<g>
				<path class="st6" d="M216.57,195.12c-4.56-6.41-10.31-11.79-18.27-13.45c5.76,4.43,11.52,8.86,17.27,13.28
					c-0.21-0.23-0.37-0.5-0.47-0.79c-4.59-9.82-17.07-15.82-27.45-15.75c-2.05,0.02-4.05-0.1-6.09-0.35
					c2.9,0.39,5.79,0.78,8.69,1.17c-3.58-0.58-6.93-1.56-10.29-2.95c2.73,1.15,5.45,2.3,8.18,3.45c-5.14-2.34-10.21-5.44-14.76-8.79
					c2.4,1.85,4.79,3.7,7.19,5.56c-5.11-3.98-9.49-8.6-13.48-13.69c1.87,2.42,3.73,4.83,5.6,7.25c-4.37-5.77-8.23-11.9-11.57-18.32
					c-4.63-8.9-9.4-16.24-15.67-24.27c1.75,2.27,3.51,4.54,5.26,6.81c-3.28-4.31-6.43-8.73-9.94-12.86c1.6,2.07,3.2,4.14,4.8,6.22
					c-0.33-0.44-0.66-0.89-1-1.33c1.01,2.4,2.02,4.79,3.03,7.19c-4.24-10.15-7.46-21.47-15.48-29.49
					c-7.62-7.62-20.58-9.93-29.83-3.85c-6.96,4.57-10.8,11.2-12.81,19.18c-1.42,5.63-2.06,11.42-1.54,17.19
					c0.36,4.01,0.09,7.5,0.02,11.5c-0.22,12.96,2.9,24.91,8.81,36.38c7.76,15.08,18.31,30.24,31.62,40.9
					c9.63,7.71,19.36,14.53,31.82,16.76c12.08,2.16,24,2.41,35.89-1.21c13.74-4.19,22.94-16.35,23.34-30.66c0-0.1,0.01-0.2,0.01-0.3
					c-0.36,2.69-0.72,5.37-1.08,8.06c0.04-0.25,0.08-0.49,0.12-0.74c-2.48,4.25-4.96,8.5-7.43,12.75
					C219.4,221.6,224.22,205.88,216.57,195.12L216.57,195.12z"/>
			</g>
		</g>
	</g>
	<path class="st7" d="M624.08,440.45c0,0-187.78,145.43-299.97-81.95"/>
	<path class="st7" d="M129.96,281.92c-20.53,78.25-40.29,277.43,234.82,374.23c278.58,98.02,419.98-76.92,462.94-145.39"/>
	<path class="st7" d="M509.38,175.27c6.71,26.41,31.62,44.79,58.73,41.96c1.21-0.13,2.45-0.29,3.7-0.49
		c40.14-6.34,135.2-65.49,200.69-12.68s44.36,120.41,44.36,120.41s-10.56,78.16,120.41,105.63s-76.05,84.5-82.39,82.39
		c-6.34-2.11-171.12,4.55-270.41-114.97s-215.48-45.58-215.48-45.58s-111.96,42.25-232.38-69.71S77.48,163.4,77.48,163.4
		s82.39,62.85,173.23,0s141.54-94.54,188.02-77.64C485.01,102.6,502.95,149.94,509.38,175.27z"/>
</g>
</svg>
