<?xml version="1.0" encoding="UTF-8" standalone="no"?>
<svg
   viewBox="0 0 59.999999 72.000002"
   version="1.1"
   id="svg25"
   sodipodi:docname="right-eye.svg"
   width="60"
   height="72"
   inkscape:version="1.4.2 (2aeb623e1d, 2025-05-12)"
   xmlns:inkscape="http://www.inkscape.org/namespaces/inkscape"
   xmlns:sodipodi="http://sodipodi.sourceforge.net/DTD/sodipodi-0.dtd"
   xmlns="http://www.w3.org/2000/svg"
   xmlns:svg="http://www.w3.org/2000/svg">
  <sodipodi:namedview
     id="namedview25"
     pagecolor="#ffffff"
     bordercolor="#000000"
     borderopacity="0.25"
     inkscape:showpageshadow="2"
     inkscape:pageopacity="0.0"
     inkscape:pagecheckerboard="0"
     inkscape:deskcolor="#d1d1d1"
     inkscape:zoom="3.2716338"
     inkscape:cx="110.95374"
     inkscape:cy="93.989736"
     inkscape:window-width="1600"
     inkscape:window-height="836"
     inkscape:window-x="0"
     inkscape:window-y="27"
     inkscape:window-maximized="1"
     inkscape:current-layer="Layer_30" />
  <defs
     id="defs3">
    <style
       id="style1">.cls-1,.cls-15{fill:none;}.cls-2,.cls-3{fill:#e2fafe;stroke-linecap:round;stroke-linejoin:round;}.cls-15,.cls-2,.cls-4,.cls-5{stroke:#221f20;}.cls-15,.cls-2,.cls-3,.cls-4,.cls-5{stroke-width:5px;}.cls-3{stroke:#005e71;}.cls-4{fill:#c54bb6;}.cls-15,.cls-4,.cls-5{stroke-miterlimit:10;}.cls-5{fill:#4e4c4c;}.cls-6{opacity:0.54;}.cls-7{clip-path:url(#clip-path);}.cls-8{fill:#84263d;}.cls-9{fill:#ebfef3;}.cls-10{fill:#702b68;}.cls-11{clip-path:url(#clip-path-2);}.cls-12{fill:#2c112b;}.cls-13{clip-path:url(#clip-path-3);}.cls-14{fill:#5a2258;}.cls-16{fill:#fff;}</style>
    <clipPath
       id="clip-path">
      <path
         class="cls-1"
         d="m 210.54,125 c 0.47,-27.09 -22.33,-40.68 -22.33,-40.68 0,0 -46.82,-16.22 -60.39,43.58 -10.82,47.74 20.18,57.5 20.18,57.5 20.33,10.37 38.71,0 55.74,-34.53 4.62,-9.37 6.59,-17.75 6.83,-25.14 -0.04,-0.25 -0.03,-0.51 -0.03,-0.73 z"
         id="path1" />
    </clipPath>
    <clipPath
       id="clip-path-2">
      <path
         class="cls-1"
         d="m 153.39,49.41 c 0,0 -20,-2.55 -10,-16.29 10,-13.74 43.41,-15.5 43.41,-15.5 0,0 31,-1.07 39.44,37.69 0,0 -16.81,-20.53 -39.46,-16.91 -22.65,3.62 -21.53,12.9 -33.39,11.01 z"
         id="path2" />
    </clipPath>
    <clipPath
       id="clip-path-3">
      <path
         class="cls-1"
         d="M 91.58,60.4 C 81.29,51.4 76.7,61 52.64,50.71 28.58,40.42 24.84,10.39 24.84,10.39 c -8.85,24.49 -2.5,40.78 4.48,50.2 -9.76,6.13 -18.94,17.8 -23.82,39.32 -10.84,47.76 20.13,57.53 20.13,57.53 20.33,10.36 38.71,0 55.74,-34.54 7.91,-16 8.06,-29.19 5,-39.44 a 22.81,22.81 0 0 0 4.89,-1.28 C 109.38,75.05 91.58,60.4 91.58,60.4 Z"
         id="path3" />
    </clipPath>
  </defs>
  <g
     id="Calque_2"
     data-name="Calque 2">
    <g
       id="Layer_30"
       data-name="Layer 30">
      <path
         class="cls-4"
         d="m 17.34853,66.240858 c 0,0 -19,-6 -12.37,-35.35 8.34,-36.7399998 37.1,-26.7799998 37.1,-26.7799998 0,0 22.94,13.6799998 9.51,40.9099998 -10.46,21.22 -21.75,27.59 -34.24,21.22 z"
         id="path7" />
      <g
         class="cls-6"
         id="g13"
         transform="translate(-154.05147,-97.199142)">
        <g
           class="cls-7"
           clip-path="url(#clip-path)"
           id="g12">
          <path
             class="cls-8"
             d="m 185.75,139.59 a 49.62,49.62 0 0 1 3.32,-4.16 l -10.14,-5.91 -2,5.7 c -1.18,3.37 1.07,7.14 4.14,8.44 a 7.17,7.17 0 0 0 8.93,-2.93 c 0.86,-1.47 1.87,-2.87 2.72,-4.34 0.85,-1.47 1.51,-3.07 2.38,-4.55 L 178.87,125 a 24.1,24.1 0 0 0 -1.18,5.27 c -0.28,2.08 1.21,5.16 2.7,6.53 a 9.49,9.49 0 0 0 5.3,2.54 c 4.32,0.58 9.13,-2.11 10.12,-6.61 a 24.92,24.92 0 0 0 0.5,-5.37 8.89,8.89 0 0 0 -7.7,-8.71 c -4,-0.54 -8.94,2 -9.74,6.35 -0.31,1.71 -0.79,3.37 -1.17,5.06 a 12.28,12.28 0 0 0 -0.39,2.56 c -0.07,0.83 -0.07,1 0,0.49 0.07,-0.51 0.05,-0.34 -0.1,0.54 l -0.28,1.57 14,1.91 -0.12,-6 c -0.06,-3.17 -2.74,-6.22 -6.07,-6.07 a 6.21,6.21 0 0 0 -6.07,6.07 50.19,50.19 0 0 1 -0.5,5.29 c -0.67,4.63 4.68,7.09 7.54,3.17 z"
             id="path10" />
          <path
             class="cls-9"
             d="m 181.37,156.19 0.07,-0.85 -1.51,3.66 0.82,-0.68 a 7.36,7.36 0 0 0 2.17,-5.22 7.83,7.83 0 0 0 -2.17,-5.23 2.69,2.69 0 0 0 -0.39,-0.36 7.1,7.1 0 0 0 -11.87,3.13 c -0.18,0.8 -0.25,1.64 -0.35,2.46 a 7.31,7.31 0 0 0 2.17,5.22 7.78,7.78 0 0 0 5.22,2.16 h 0.77 l -3.63,-1.5 0.54,0.6 a 4.78,4.78 0 0 0 5.23,1 4.87,4.87 0 0 0 2.93,-4.37 z"
             id="path11" />
        </g>
      </g>
      <path
         class="cls-15"
         d="m 17.03853,66.370858 c 0,0 -19,-6 -12.36,-35.34 8.33,-36.7499998 37.09,-26.7799998 37.09,-26.7799998 0,0 22.94,13.6799998 9.52,40.8999998 -10.47,21.22 -21.76,27.59 -34.25,21.22 z"
         id="path21" />
    </g>
  </g>
</svg>
