<?xml version="1.0" encoding="UTF-8"?>
<svg id="Calque_2" data-name="Calque 2" xmlns="http://www.w3.org/2000/svg" xmlns:xlink="http://www.w3.org/1999/xlink" viewBox="0 0 71.74 77.56">
  <defs>
    <style>
      .cls-1 {
        fill: #ffce62;
      }

      .cls-1, .cls-2, .cls-3 {
        stroke-width: 2.51px;
      }

      .cls-1, .cls-3 {
        stroke: #733d00;
        stroke-linecap: round;
        stroke-linejoin: round;
      }

      .cls-4 {
        fill: #272325;
      }

      .cls-4, .cls-5, .cls-6, .cls-7, .cls-8, .cls-9, .cls-10 {
        stroke-width: 0px;
      }

      .cls-6, .cls-3 {
        fill: none;
      }

      .cls-11 {
        opacity: .34;
      }

      .cls-7 {
        fill: #eafdf2;
      }

      .cls-2 {
        fill: #fff;
        stroke: #2f2629;
        stroke-miterlimit: 10;
      }

      .cls-12 {
        clip-path: url(#clippath);
      }

      .cls-8 {
        fill: #eafdf1;
      }

      .cls-9 {
        fill: #82263e;
      }

      .cls-10 {
        fill: #f7f1eb;
      }
    </style>
    <clipPath id="clippath">
      <ellipse class="cls-6" cx="35.87" cy="38.78" rx="34.62" ry="37.53"/>
    </clipPath>
  </defs>
  <g id="Layer_1" data-name="Layer 1">
    <g>
      <ellipse class="cls-1" cx="35.87" cy="38.78" rx="34.62" ry="37.53"/>
      <path class="cls-2" d="m23.13,47.53c-2.61.99-5.56.03-7.17-2.24-3.02-4.27-6.88-12.44,2.33-18.11,12.97-7.98,10.09,13.96,10.09,13.96,0,0-.68,4.66-5.24,6.39Z"/>
      <path class="cls-2" d="m49.35,45.53c2.61.99,5.56.03,7.17-2.24,3.02-4.27,6.88-12.44-2.33-18.11-12.97-7.98-10.09,13.96-10.09,13.96,0,0,.68,4.66,5.24,6.39Z"/>
      <path class="cls-4" d="m23.69,28.1c-.36,4,.44,8.12.88,12.1.21,1.92,2.73,1.9,2.97,0,.48-3.76.3-7.46.62-11.2h-4.44c-.47,4.24.1,8.41-.65,12.69h6.43c-.86-4.59-1.55-9.2-2.05-13.85-.44-3.99-6.7-4.1-6.34,0,.48,5.6.75,11.26,1.58,16.82.53,3.55,6.35,2.68,6.23-.84-.18-5.33-.95-10.67-1.47-15.97h-6.34c.52,5.22,1.19,10.43,1.97,15.62.49,3.28,5.78,3.08,6.43,0,1.05-4.89,1.3-11.25-1.65-15.58-1.36-2-4.81-.82-4.06,1.71.96,3.26.88,7.23.77,10.61l2.92-.4c-.63-3.95-.96-8.14-2.37-11.9-.29-.78-1.35-.64-1.43.19h0Z"/>
      <path class="cls-4" d="m51.4,25.23c-1.41,5.91-.52,12.57.55,18.48.39,2.17,3.61,1.92,4.15,0,1.43-5.09,1.95-10.27,1.5-15.54l-4.66.63c.69,3.15.49,6.41.27,9.6-.22,3.37,4.82,3.85,5.74.78.43-1.44.82-2.89,1.22-4.34l-5.85-.79c.16.96.11,1.92-.14,2.87h5.79l-.16-.82c-.58-2.95-4.4-2.24-5.3,0l-.33.82c-1.43,3.56,5.04,5.45,5.79,1.6.3-1.53.44-2.9.3-4.46-.28-3.19-4.95-4.24-5.85-.79-.38,1.45-.77,2.91-1.11,4.37l5.74.78c.03-3.79-.11-7.32-1.55-10.86-.9-2.22-4.99-2.28-4.66.63.56,4.89.28,9.62-.91,14.4h4.15c-1.21-5.75-1.39-11.61-2.53-17.34-.22-1.1-1.92-1.05-2.17,0h0Z"/>
      <path class="cls-5" d="m31,54.03c-.97,3.95,3.75,7.2,7.26,7.63,4.24.52,8.12-3.92,8.55-7.85.08-.75-1-1.14-1.48-.61-2.01,2.2-2.38,5.52-5.78,6.26s-7.47-2.07-8.14-5.43c-.04-.21-.36-.2-.41,0h0Z"/>
      <g>
        <g class="cls-11">
          <g class="cls-12">
            <path class="cls-9" d="m1.25,22.15c-.3,2.3-2.06,5.29-2.67,7.57-.53,2.01-1,3.99-1.09,6.06-.2,4.29.34,8.79,1.74,12.85,2.75,8.01,7.66,15.4,14.24,20.76,13.13,10.7,33.26,12.84,47.41,2.76,7.5-5.34,13.49-13.43,16.79-22.01,1.42-3.7,2.71-8.48,1.01-12.26-1.3-2.89-4.31-4.88-7.29-2.98-3.64,2.31-3.45,7.78-4.82,11.39-1.73,4.55-4.71,8.88-8.04,12.4-6.11,6.47-14.83,9.4-23.66,8.39-9.57-1.09-17.84-6.94-22.88-15.02-2.65-4.25-4.45-8.99-5.92-13.76-.7-2.26-1.12-4.59-1.76-6.87-.71-2.53-2.38-6.62-2.39-9.28,0-.44-.61-.41-.66,0h0Z"/>
            <path class="cls-8" d="m15.95,6.82c4.91-1.36,12.33.03,17.37.68,5.92.76,11.82,2.13,17.12,4.94,9.78,5.18,14.43,14.08,19.03,23.64.59,1.23,1.98,1.77,3.24,1.86.71.05,1.26-.23,1.9-.51,1.2-.53,1.82-2.03,1.86-3.24.44-12.73-9.78-24.22-20.39-29.95C50.12,1.01,43.21-.96,36.4-.88c-3.35.03-6.83.45-10.06,1.4-4.03,1.19-6.81,3.84-10.63,5.44-.51.21-.33,1.02.24.86h0Z"/>
          </g>
        </g>
        <path class="cls-10" d="m38.6,10.13c.26,0,.51-.04.74-.16.24-.08.44-.21.62-.4.19-.17.32-.38.4-.62.12-.23.17-.47.16-.74l-.07-.51c-.09-.32-.25-.61-.49-.84l-.39-.3c-.3-.17-.62-.26-.97-.26-.26,0-.51.04-.74.16-.24.08-.44.21-.62.4-.19.17-.32.38-.4.62-.12.23-.17.47-.16.74l.07.51c.09.32.25.61.49.84l.39.3c.3.17.62.26.97.26h0Z"/>
        <path class="cls-10" d="m50.4,13.93c4.85,2.42,7.71,6.77,10.12,11.43.69,1.34,2.79.41,2.4-1.01-1.58-5.82-6.59-9.64-11.98-11.7-.74-.28-1.25.93-.54,1.29h0Z"/>
        <ellipse class="cls-3" cx="35.87" cy="38.78" rx="34.62" ry="37.53"/>
      </g>
      <path class="cls-7" d="m21.81,36.42c-.06-.23,0-.39.22-.5.08-.17.2-.24.36-.23-.1,0,.2.04.12.02-.06-.02.2.1.11.05.02.01.17.16.1.07v1.17c.15-.13.22-.29.28-.48l-.1.23.02-.03-.15.2s.03-.04.05-.05l-.2.16s.04-.03.06-.04l-.25.1c.12-.05.24-.09.36-.15l-.26.11c.07-.03.13-.04.2-.05l-.3.04c.26-.03.55,0,.81.03l-.33-.04c.21.03.43.07.63.14l-.32-.14c.09.04.17.08.25.12l.34-2.59-.05.02.38-.05h-.04c.13.02.26.03.39.05-.51-.16-.99.02-1.45.21l.37-.16c-.32.13-.66.23-1,.27l.43-.06c-.35.04-.69.05-1.04,0l.45.06c-.26-.04-.51-.1-.76-.18l.76,2.89c.11-.11.22-.21.34-.3l-.35.27c.12-.09.25-.17.38-.23l-.42.18c.09-.04.18-.06.28-.08l-.46.06c.08,0,.15-.01.23,0l-.47-.06c.06.01.11.03.17.05l-.42-.18c.07.03.13.06.19.11l-.36-.27c.06.05.11.09.15.15l-.28-.36s.06.09.08.14l-.18-.42s.03.08.03.12l-.06-.47s0,.08,0,.12l.06-.47s-.01.08-.03.12l.18-.42s-.02.05-.04.07l.28-.36s-.03.04-.05.06l.36-.28s-.06.04-.09.05l.42-.18s-.07.02-.11.03l.47-.06s-.09,0-.14,0l.47.06c-.06,0-.11-.02-.16-.04-.18-.06-.39-.07-.58-.09l.46.06s-.03,0-.04,0c-.3-.08-.6-.08-.91,0-.29.08-.54.23-.75.44-.21.21-.36.46-.44.75-.08.3-.08.6,0,.91,0,.03.01.05.02.08.09.3.25.58.47.79.25.25.56.42.9.51.41.11.84.1,1.25,0,.62-.17,1.1-.62,1.34-1.2.27-.65.23-1.33-.1-1.95-.21-.39-.56-.75-.95-.96-.21-.11-.43-.22-.67-.27-.45-.1-.7-.08-1.15,0-.7.12-1.32.6-1.8,1.1-.43.45-.61,1.08-.45,1.68s.63,1.06,1.21,1.21c.27.07.56.1.84.12.14.01.28.02.41.02.42,0,.85-.06,1.27-.15s.77-.24,1.15-.41c.13-.06.25-.12.37-.19.39-.23.81-.66.89-1.11l-.15.35.02-.04-.22.29.03-.04c.39-.43.52-1.01.29-1.55-.21-.5-.73-.89-1.29-.87-.59.02-1.22.04-1.79.23-.35.12-.65.26-.92.51-.35.33-.44.84-.33,1.29.11.49.7.82,1.17.67-.18.02-.23.02-.15.02.08,0,.16-.02.23-.03.09-.02.17-.06.25-.1.12-.07.22-.16.3-.27.28-.36.2-.9-.22-1.13-.5-.27-1.07.17-.94.72h0Z"/>
      <path class="cls-7" d="m51.9,33.01s-.04.02-.05.03c-.03.02-.11.04-.01.01.03-.02.06-.03.1-.02.06,0,.07,0,.04,0-.02,0-.05,0-.07,0l.19.03s-.08-.02-.12-.03l.19.08c-.19-.1-.36-.11-.56-.13l.23.03s-.08-.01-.12-.03l.22.09c-.08-.05-.15-.09-.23-.14l.21.16-.02-.02.27.47c-.02-.07-.04-.11-.07-.19-.11-.26-.27-.4-.49-.57l.23.18c-.06-.05-.11-.1-.16-.15l.19.25-.02-.02-.19,1.48s.04-.04.07-.06l-.25.2s.06-.04.09-.06l-.31.13c.15-.06.3-.11.43-.19.05-.03.1-.05.15-.08l-.32.14c.1-.04.2-.07.3-.08l-.37.05c.12-.02.25-.02.37,0l-.38-.05c.13.02.26.06.38.11l-.35-.15c.1.04.18.09.27.16l-.3-.24c.07.05.13.11.18.18l-.24-.31s.05.08.08.12l.55-2.11c-.22.17-.46.31-.72.42l.39-.16c-.2.08-.4.17-.61.26l.39-.16c-.27.11-.56.19-.85.23l.44-.06c-.24.03-.48.04-.72.02l1.59,2.09s.01-.03.02-.05l-.17.39c.03-.06.06-.11.1-.17l-.26.33c.05-.06.11-.12.17-.17l-.34.26c.07-.05.14-.09.21-.12l-.4.17c.09-.04.19-.07.29-.08l-.44.06c.1-.01.2-.01.3,0l-.44-.06c.09.01.18.04.26.07l-.4-.17c.07.03.13.06.19.11l-.34-.26c.05.04.1.08.14.13v-2.38s-.09.09-.14.13l.34-.26c-.07.05-.14.09-.22.13l.4-.17c-.11.05-.22.08-.34.09l.45-.06c-.11.01-.22.01-.33,0l.45.06c-.11-.02-.21-.04-.31-.08l.41.17c-.1-.04-.19-.09-.28-.16l.34.27s-.05-.04-.08-.06l-.75,2.84c.15-.06.31-.12.46-.17.07-.03.15-.05.22-.08.31-.12.53-.23.77-.46.18-.18.3-.39.37-.63.06-.19.07-.38.03-.57,0-.19-.06-.37-.17-.53-.13-.21-.3-.38-.51-.51-.35-.23-.77-.25-1.17-.32l-.45-.06c-.23,0-.45.04-.65.15-.14.04-.27.11-.37.22-.18.12-.33.28-.44.48-.14.27-.22.56-.23.86-.02.43.2.9.5,1.2.52.53,1.32.85,2.06.8s1.52-.31,2.02-.88c.28-.32.51-.74.49-1.19l-.06-.45c-.08-.28-.22-.53-.43-.74-.03-.03-.06-.07-.1-.1-.13-.11-.28-.23-.43-.33-.1-.06-.21-.1-.32-.15s-.21-.09-.32-.12-.23-.04-.34-.06-.23-.04-.35-.04c-.23,0-.48.04-.71.08-.46.09-.83.34-1.18.63s-.58.72-.72,1.14c-.08.29-.08.58,0,.88.05.21.15.4.3.56.12.18.27.32.46.42.26.15.53.22.83.23.37.02.73-.03,1.1-.09.23-.03.46-.09.68-.18.33-.12.67-.25.96-.46s.58-.43.83-.7c.26-.29.47-.69.45-1.09l-.06-.41c-.07-.26-.21-.49-.4-.68-.14-.17-.33-.3-.5-.42s-.4-.21-.59-.28c-.3-.11-.64-.15-.95-.12-.44.05-.82.13-1.21.35-.18.1-.34.23-.49.37-.11.1-.21.22-.28.35-.08.13-.12.29-.18.43l.13-.3c-.06.14-.13.28-.17.43-.08.29-.04.69.12.94l.19.25c.15.15.33.26.54.31.17.06.35.08.52.1.36.04.65-.14.9-.36l-.47.27c.16-.06.32-.1.47-.19.08-.05.17-.09.25-.15.17-.11.3-.27.38-.46.02-.04.04-.09.06-.13.04-.09.04-.1.01-.03-.03.06-.03.07,0,.03.03-.04.06-.09.08-.14.1-.22.11-.5-.09-.68-.18-.16-.47-.23-.68-.09h0Z"/>
    </g>
  </g>
</svg>