<?xml version="1.0" encoding="UTF-8" standalone="no"?>
<svg
   id="Calque_2"
   data-name="Calque 2"
   viewBox="0 0 71.74 77.56"
   version="1.1"
   sodipodi:docname="smiling_emoji_without_eyes.svg"
   inkscape:version="1.4.2 (f4327f4, 2025-05-13)"
   xmlns:inkscape="http://www.inkscape.org/namespaces/inkscape"
   xmlns:sodipodi="http://sodipodi.sourceforge.net/DTD/sodipodi-0.dtd"
   xmlns="http://www.w3.org/2000/svg"
   xmlns:svg="http://www.w3.org/2000/svg">
  <sodipodi:namedview
     id="namedview12"
     pagecolor="#ffffff"
     bordercolor="#999999"
     borderopacity="1"
     inkscape:showpageshadow="2"
     inkscape:pageopacity="0"
     inkscape:pagecheckerboard="0"
     inkscape:deskcolor="#d1d1d1"
     inkscape:zoom="9.9664779"
     inkscape:cx="35.820076"
     inkscape:cy="38.779999"
     inkscape:window-width="1920"
     inkscape:window-height="991"
     inkscape:window-x="-9"
     inkscape:window-y="-9"
     inkscape:window-maximized="1"
     inkscape:current-layer="Calque_2" />
  <defs
     id="defs1">
    <style
       id="style1">
      .cls-1 {
        fill: #ffce62;
      }

      .cls-1, .cls-2, .cls-3 {
        stroke-width: 2.51px;
      }

      .cls-1, .cls-3 {
        stroke: #733d00;
        stroke-linecap: round;
        stroke-linejoin: round;
      }

      .cls-4 {
        fill: #272325;
      }

      .cls-4, .cls-5, .cls-6, .cls-7, .cls-8, .cls-9, .cls-10 {
        stroke-width: 0px;
      }

      .cls-6, .cls-3 {
        fill: none;
      }

      .cls-11 {
        opacity: .34;
      }

      .cls-7 {
        fill: #eafdf2;
      }

      .cls-2 {
        fill: #fff;
        stroke: #2f2629;
        stroke-miterlimit: 10;
      }

      .cls-12 {
        clip-path: url(#clippath);
      }

      .cls-8 {
        fill: #eafdf1;
      }

      .cls-9 {
        fill: #82263e;
      }

      .cls-10 {
        fill: #f7f1eb;
      }
    </style>
    <clipPath
       id="clippath">
      <ellipse
         class="cls-6"
         cx="35.87"
         cy="38.78"
         rx="34.62"
         ry="37.53"
         id="ellipse1" />
    </clipPath>
  </defs>
  <g
     id="Layer_1"
     data-name="Layer 1">
    <g
       id="g12">
      <ellipse
         class="cls-1"
         cx="35.87"
         cy="38.78"
         rx="34.62"
         ry="37.53"
         id="ellipse2" />
      <path
         class="cls-5"
         d="m31,54.03c-.97,3.95,3.75,7.2,7.26,7.63,4.24.52,8.12-3.92,8.55-7.85.08-.75-1-1.14-1.48-.61-2.01,2.2-2.38,5.52-5.78,6.26s-7.47-2.07-8.14-5.43c-.04-.21-.36-.2-.41,0h0Z"
         id="path6" />
      <g
         id="g10">
        <g
           class="cls-11"
           id="g9">
          <g
             class="cls-12"
             clip-path="url(#clippath)"
             id="g8">
            <path
               class="cls-9"
               d="m1.25,22.15c-.3,2.3-2.06,5.29-2.67,7.57-.53,2.01-1,3.99-1.09,6.06-.2,4.29.34,8.79,1.74,12.85,2.75,8.01,7.66,15.4,14.24,20.76,13.13,10.7,33.26,12.84,47.41,2.76,7.5-5.34,13.49-13.43,16.79-22.01,1.42-3.7,2.71-8.48,1.01-12.26-1.3-2.89-4.31-4.88-7.29-2.98-3.64,2.31-3.45,7.78-4.82,11.39-1.73,4.55-4.71,8.88-8.04,12.4-6.11,6.47-14.83,9.4-23.66,8.39-9.57-1.09-17.84-6.94-22.88-15.02-2.65-4.25-4.45-8.99-5.92-13.76-.7-2.26-1.12-4.59-1.76-6.87-.71-2.53-2.38-6.62-2.39-9.28,0-.44-.61-.41-.66,0h0Z"
               id="path7" />
            <path
               class="cls-8"
               d="m15.95,6.82c4.91-1.36,12.33.03,17.37.68,5.92.76,11.82,2.13,17.12,4.94,9.78,5.18,14.43,14.08,19.03,23.64.59,1.23,1.98,1.77,3.24,1.86.71.05,1.26-.23,1.9-.51,1.2-.53,1.82-2.03,1.86-3.24.44-12.73-9.78-24.22-20.39-29.95C50.12,1.01,43.21-.96,36.4-.88c-3.35.03-6.83.45-10.06,1.4-4.03,1.19-6.81,3.84-10.63,5.44-.51.21-.33,1.02.24.86h0Z"
               id="path8" />
          </g>
        </g>
        <path
           class="cls-10"
           d="m38.6,10.13c.26,0,.51-.04.74-.16.24-.08.44-.21.62-.4.19-.17.32-.38.4-.62.12-.23.17-.47.16-.74l-.07-.51c-.09-.32-.25-.61-.49-.84l-.39-.3c-.3-.17-.62-.26-.97-.26-.26,0-.51.04-.74.16-.24.08-.44.21-.62.4-.19.17-.32.38-.4.62-.12.23-.17.47-.16.74l.07.51c.09.32.25.61.49.84l.39.3c.3.17.62.26.97.26h0Z"
           id="path9" />
        <path
           class="cls-10"
           d="m50.4,13.93c4.85,2.42,7.71,6.77,10.12,11.43.69,1.34,2.79.41,2.4-1.01-1.58-5.82-6.59-9.64-11.98-11.7-.74-.28-1.25.93-.54,1.29h0Z"
           id="path10" />
        <ellipse
           class="cls-3"
           cx="35.87"
           cy="38.78"
           rx="34.62"
           ry="37.53"
           id="ellipse10" />
      </g>
    </g>
  </g>
</svg>
