<?xml version="1.0" encoding="UTF-8" standalone="no"?>
<svg
   id="Calque_2"
   data-name="Calque 2"
   viewBox="0 0 50.740004 27.560002"
   version="1.1"
   sodipodi:docname="smiling_emoji_eyes.svg"
   width="50.740002"
   height="27.559999"
   inkscape:version="1.4.2 (f4327f4, 2025-05-13)"
   xmlns:inkscape="http://www.inkscape.org/namespaces/inkscape"
   xmlns:sodipodi="http://sodipodi.sourceforge.net/DTD/sodipodi-0.dtd"
   xmlns="http://www.w3.org/2000/svg"
   xmlns:svg="http://www.w3.org/2000/svg">
  <sodipodi:namedview
     id="namedview12"
     pagecolor="#ffffff"
     bordercolor="#999999"
     borderopacity="1"
     inkscape:showpageshadow="2"
     inkscape:pageopacity="0"
     inkscape:pagecheckerboard="0"
     inkscape:deskcolor="#d1d1d1"
     inkscape:zoom="9.9664779"
     inkscape:cx="35.820076"
     inkscape:cy="38.779999"
     inkscape:window-width="1920"
     inkscape:window-height="991"
     inkscape:window-x="-9"
     inkscape:window-y="-9"
     inkscape:window-maximized="1"
     inkscape:current-layer="Calque_2" />
  <defs
     id="defs1">
    <style
       id="style1">
      .cls-1 {
        fill: #ffce62;
      }

      .cls-1, .cls-2, .cls-3 {
        stroke-width: 2.51px;
      }

      .cls-1, .cls-3 {
        stroke: #733d00;
        stroke-linecap: round;
        stroke-linejoin: round;
      }

      .cls-4 {
        fill: #272325;
      }

      .cls-4, .cls-5, .cls-6, .cls-7, .cls-8, .cls-9, .cls-10 {
        stroke-width: 0px;
      }

      .cls-6, .cls-3 {
        fill: none;
      }

      .cls-11 {
        opacity: .34;
      }

      .cls-7 {
        fill: #eafdf2;
      }

      .cls-2 {
        fill: #fff;
        stroke: #2f2629;
        stroke-miterlimit: 10;
      }

      .cls-12 {
        clip-path: url(#clippath);
      }

      .cls-8 {
        fill: #eafdf1;
      }

      .cls-9 {
        fill: #82263e;
      }

      .cls-10 {
        fill: #f7f1eb;
      }
    </style>
    <clipPath
       id="clippath">
      <ellipse
         class="cls-6"
         cx="35.869999"
         cy="38.779999"
         rx="34.619999"
         ry="37.529999"
         id="ellipse1" />
    </clipPath>
  </defs>
  <g
     id="Layer_1"
     data-name="Layer 1"
     transform="translate(-11.237671,-21.873324)">
    <g
       id="g12">
      <path
         class="cls-2"
         d="m 23.13,47.53 c -2.61,0.99 -5.56,0.03 -7.17,-2.24 -3.02,-4.27 -6.88,-12.44 2.33,-18.11 12.97,-7.98 10.09,13.96 10.09,13.96 0,0 -0.68,4.66 -5.24,6.39 z"
         id="path2" />
      <path
         class="cls-2"
         d="m 49.35,45.53 c 2.61,0.99 5.56,0.03 7.17,-2.24 C 59.54,39.02 63.4,30.85 54.19,25.18 41.22,17.2 44.1,39.14 44.1,39.14 c 0,0 0.68,4.66 5.24,6.39 z"
         id="path3" />
      <path
         class="cls-4"
         d="m 23.69,28.1 c -0.36,4 0.44,8.12 0.88,12.1 0.21,1.92 2.73,1.9 2.97,0 0.48,-3.76 0.3,-7.46 0.62,-11.2 h -4.44 c -0.47,4.24 0.1,8.41 -0.65,12.69 h 6.43 c -0.86,-4.59 -1.55,-9.2 -2.05,-13.85 -0.44,-3.99 -6.7,-4.1 -6.34,0 0.48,5.6 0.75,11.26 1.58,16.82 0.53,3.55 6.35,2.68 6.23,-0.84 -0.18,-5.33 -0.95,-10.67 -1.47,-15.97 h -6.34 c 0.52,5.22 1.19,10.43 1.97,15.62 0.49,3.28 5.78,3.08 6.43,0 1.05,-4.89 1.3,-11.25 -1.65,-15.58 -1.36,-2 -4.81,-0.82 -4.06,1.71 0.96,3.26 0.88,7.23 0.77,10.61 l 2.92,-0.4 c -0.63,-3.95 -0.96,-8.14 -2.37,-11.9 -0.29,-0.78 -1.35,-0.64 -1.43,0.19 z"
         id="path4" />
      <path
         class="cls-4"
         d="m 51.4,25.23 c -1.41,5.91 -0.52,12.57 0.55,18.48 0.39,2.17 3.61,1.92 4.15,0 1.43,-5.09 1.95,-10.27 1.5,-15.54 l -4.66,0.63 c 0.69,3.15 0.49,6.41 0.27,9.6 -0.22,3.37 4.82,3.85 5.74,0.78 0.43,-1.44 0.82,-2.89 1.22,-4.34 l -5.85,-0.79 c 0.16,0.96 0.11,1.92 -0.14,2.87 h 5.79 L 59.81,36.1 c -0.58,-2.95 -4.4,-2.24 -5.3,0 l -0.33,0.82 c -1.43,3.56 5.04,5.45 5.79,1.6 0.3,-1.53 0.44,-2.9 0.3,-4.46 -0.28,-3.19 -4.95,-4.24 -5.85,-0.79 -0.38,1.45 -0.77,2.91 -1.11,4.37 l 5.74,0.78 c 0.03,-3.79 -0.11,-7.32 -1.55,-10.86 -0.9,-2.22 -4.99,-2.28 -4.66,0.63 0.56,4.89 0.28,9.62 -0.91,14.4 h 4.15 c -1.21,-5.75 -1.39,-11.61 -2.53,-17.34 -0.22,-1.1 -1.92,-1.05 -2.17,0 v 0 z"
         id="path5" />
      <g
         id="g10">
        <g
           class="cls-11"
           id="g9">
          <g
             class="cls-12"
             clip-path="url(#clippath)"
             id="g8" />
        </g>
      </g>
      <path
         class="cls-7"
         d="m 21.81,36.42 c -0.06,-0.23 0,-0.39 0.22,-0.5 0.08,-0.17 0.2,-0.24 0.36,-0.23 -0.1,0 0.2,0.04 0.12,0.02 -0.06,-0.02 0.2,0.1 0.11,0.05 0.02,0.01 0.17,0.16 0.1,0.07 V 37 c 0.15,-0.13 0.22,-0.29 0.28,-0.48 l -0.1,0.23 0.02,-0.03 -0.15,0.2 c 0,0 0.03,-0.04 0.05,-0.05 l -0.2,0.16 c 0,0 0.04,-0.03 0.06,-0.04 l -0.25,0.1 c 0.12,-0.05 0.24,-0.09 0.36,-0.15 l -0.26,0.11 c 0.07,-0.03 0.13,-0.04 0.2,-0.05 l -0.3,0.04 c 0.26,-0.03 0.55,0 0.81,0.03 l -0.33,-0.04 c 0.21,0.03 0.43,0.07 0.63,0.14 l -0.32,-0.14 c 0.09,0.04 0.17,0.08 0.25,0.12 l 0.34,-2.59 -0.05,0.02 0.38,-0.05 H 24.1 c 0.13,0.02 0.26,0.03 0.39,0.05 -0.51,-0.16 -0.99,0.02 -1.45,0.21 l 0.37,-0.16 c -0.32,0.13 -0.66,0.23 -1,0.27 l 0.43,-0.06 c -0.35,0.04 -0.69,0.05 -1.04,0 l 0.45,0.06 c -0.26,-0.04 -0.51,-0.1 -0.76,-0.18 l 0.76,2.89 c 0.11,-0.11 0.22,-0.21 0.34,-0.3 l -0.35,0.27 c 0.12,-0.09 0.25,-0.17 0.38,-0.23 l -0.42,0.18 c 0.09,-0.04 0.18,-0.06 0.28,-0.08 l -0.46,0.06 c 0.08,0 0.15,-0.01 0.23,0 l -0.47,-0.06 c 0.06,0.01 0.11,0.03 0.17,0.05 l -0.42,-0.18 c 0.07,0.03 0.13,0.06 0.19,0.11 l -0.36,-0.27 c 0.06,0.05 0.11,0.09 0.15,0.15 l -0.28,-0.36 c 0,0 0.06,0.09 0.08,0.14 l -0.18,-0.42 c 0,0 0.03,0.08 0.03,0.12 L 21.1,36.32 c 0,0 0,0.08 0,0.12 l 0.06,-0.47 c 0,0 -0.01,0.08 -0.03,0.12 l 0.18,-0.42 c 0,0 -0.02,0.05 -0.04,0.07 l 0.28,-0.36 c 0,0 -0.03,0.04 -0.05,0.06 l 0.36,-0.28 c 0,0 -0.06,0.04 -0.09,0.05 l 0.42,-0.18 c 0,0 -0.07,0.02 -0.11,0.03 L 22.55,35 c 0,0 -0.09,0 -0.14,0 l 0.47,0.06 c -0.06,0 -0.11,-0.02 -0.16,-0.04 -0.18,-0.06 -0.39,-0.07 -0.58,-0.09 l 0.46,0.06 c 0,0 -0.03,0 -0.04,0 -0.3,-0.08 -0.6,-0.08 -0.91,0 -0.29,0.08 -0.54,0.23 -0.75,0.44 -0.21,0.21 -0.36,0.46 -0.44,0.75 -0.08,0.3 -0.08,0.6 0,0.91 0,0.03 0.01,0.05 0.02,0.08 0.09,0.3 0.25,0.58 0.47,0.79 0.25,0.25 0.56,0.42 0.9,0.51 0.41,0.11 0.84,0.1 1.25,0 0.62,-0.17 1.1,-0.62 1.34,-1.2 0.27,-0.65 0.23,-1.33 -0.1,-1.95 -0.21,-0.39 -0.56,-0.75 -0.95,-0.96 -0.21,-0.11 -0.43,-0.22 -0.67,-0.27 -0.45,-0.1 -0.7,-0.08 -1.15,0 -0.7,0.12 -1.32,0.6 -1.8,1.1 -0.43,0.45 -0.61,1.08 -0.45,1.68 0.16,0.6 0.63,1.06 1.21,1.21 0.27,0.07 0.56,0.1 0.84,0.12 0.14,0.01 0.28,0.02 0.41,0.02 0.42,0 0.85,-0.06 1.27,-0.15 0.42,-0.09 0.77,-0.24 1.15,-0.41 0.13,-0.06 0.25,-0.12 0.37,-0.19 0.39,-0.23 0.81,-0.66 0.89,-1.11 l -0.15,0.35 0.02,-0.04 -0.22,0.29 0.03,-0.04 c 0.39,-0.43 0.52,-1.01 0.29,-1.55 -0.21,-0.5 -0.73,-0.89 -1.29,-0.87 -0.59,0.02 -1.22,0.04 -1.79,0.23 -0.35,0.12 -0.65,0.26 -0.92,0.51 -0.35,0.33 -0.44,0.84 -0.33,1.29 0.11,0.49 0.7,0.82 1.17,0.67 -0.18,0.02 -0.23,0.02 -0.15,0.02 0.08,0 0.16,-0.02 0.23,-0.03 0.09,-0.02 0.17,-0.06 0.25,-0.1 0.12,-0.07 0.22,-0.16 0.3,-0.27 0.28,-0.36 0.2,-0.9 -0.22,-1.13 -0.5,-0.27 -1.07,0.17 -0.94,0.72 v 0 z"
         id="path11" />
      <path
         class="cls-7"
         d="m 51.9,33.01 c 0,0 -0.04,0.02 -0.05,0.03 -0.03,0.02 -0.11,0.04 -0.01,0.01 0.03,-0.02 0.06,-0.03 0.1,-0.02 0.06,0 0.07,0 0.04,0 -0.02,0 -0.05,0 -0.07,0 l 0.19,0.03 c 0,0 -0.08,-0.02 -0.12,-0.03 l 0.19,0.08 C 51.98,33.01 51.81,33 51.61,32.98 l 0.23,0.03 c 0,0 -0.08,-0.01 -0.12,-0.03 l 0.22,0.09 c -0.08,-0.05 -0.15,-0.09 -0.23,-0.14 l 0.21,0.16 -0.02,-0.02 0.27,0.47 c -0.02,-0.07 -0.04,-0.11 -0.07,-0.19 -0.11,-0.26 -0.27,-0.4 -0.49,-0.57 l 0.23,0.18 c -0.06,-0.05 -0.11,-0.1 -0.16,-0.15 l 0.19,0.25 -0.02,-0.02 -0.19,1.48 c 0,0 0.04,-0.04 0.07,-0.06 l -0.25,0.2 c 0,0 0.06,-0.04 0.09,-0.06 l -0.31,0.13 c 0.15,-0.06 0.3,-0.11 0.43,-0.19 0.05,-0.03 0.1,-0.05 0.15,-0.08 l -0.32,0.14 c 0.1,-0.04 0.2,-0.07 0.3,-0.08 l -0.37,0.05 c 0.12,-0.02 0.25,-0.02 0.37,0 l -0.38,-0.05 c 0.13,0.02 0.26,0.06 0.38,0.11 l -0.35,-0.15 c 0.1,0.04 0.18,0.09 0.27,0.16 l -0.3,-0.24 c 0.07,0.05 0.13,0.11 0.18,0.18 l -0.24,-0.31 c 0,0 0.05,0.08 0.08,0.12 l 0.55,-2.11 c -0.22,0.17 -0.46,0.31 -0.72,0.42 l 0.39,-0.16 c -0.2,0.08 -0.4,0.17 -0.61,0.26 l 0.39,-0.16 c -0.27,0.11 -0.56,0.19 -0.85,0.23 l 0.44,-0.06 c -0.24,0.03 -0.48,0.04 -0.72,0.02 l 1.59,2.09 c 0,0 0.01,-0.03 0.02,-0.05 l -0.17,0.39 c 0.03,-0.06 0.06,-0.11 0.1,-0.17 l -0.26,0.33 c 0.05,-0.06 0.11,-0.12 0.17,-0.17 l -0.34,0.26 c 0.07,-0.05 0.14,-0.09 0.21,-0.12 l -0.4,0.17 c 0.09,-0.04 0.19,-0.07 0.29,-0.08 l -0.44,0.06 c 0.1,-0.01 0.2,-0.01 0.3,0 l -0.44,-0.06 c 0.09,0.01 0.18,0.04 0.26,0.07 l -0.4,-0.17 c 0.07,0.03 0.13,0.06 0.19,0.11 l -0.34,-0.26 c 0.05,0.04 0.1,0.08 0.14,0.13 v -2.38 c 0,0 -0.09,0.09 -0.14,0.13 l 0.34,-0.26 c -0.07,0.05 -0.14,0.09 -0.22,0.13 l 0.4,-0.17 c -0.11,0.05 -0.22,0.08 -0.34,0.09 l 0.45,-0.06 c -0.11,0.01 -0.22,0.01 -0.33,0 l 0.45,0.06 c -0.11,-0.02 -0.21,-0.04 -0.31,-0.08 l 0.41,0.17 c -0.1,-0.04 -0.19,-0.09 -0.28,-0.16 l 0.34,0.27 c 0,0 -0.05,-0.04 -0.08,-0.06 l -0.75,2.84 c 0.15,-0.06 0.31,-0.12 0.46,-0.17 0.07,-0.03 0.15,-0.05 0.22,-0.08 0.31,-0.12 0.53,-0.23 0.77,-0.46 0.18,-0.18 0.3,-0.39 0.37,-0.63 0.06,-0.19 0.07,-0.38 0.03,-0.57 0,-0.19 -0.06,-0.37 -0.17,-0.53 -0.13,-0.21 -0.3,-0.38 -0.51,-0.51 -0.35,-0.23 -0.77,-0.25 -1.17,-0.32 L 50.3,32.55 c -0.23,0 -0.45,0.04 -0.65,0.15 -0.14,0.04 -0.27,0.11 -0.37,0.22 -0.18,0.12 -0.33,0.28 -0.44,0.48 -0.14,0.27 -0.22,0.56 -0.23,0.86 -0.02,0.43 0.2,0.9 0.5,1.2 0.52,0.53 1.32,0.85 2.06,0.8 0.74,-0.05 1.52,-0.31 2.02,-0.88 0.28,-0.32 0.51,-0.74 0.49,-1.19 L 53.62,33.74 C 53.54,33.46 53.4,33.21 53.19,33 c -0.03,-0.03 -0.06,-0.07 -0.1,-0.1 -0.13,-0.11 -0.28,-0.23 -0.43,-0.33 -0.1,-0.06 -0.21,-0.1 -0.32,-0.15 -0.11,-0.05 -0.21,-0.09 -0.32,-0.12 -0.11,-0.03 -0.23,-0.04 -0.34,-0.06 -0.11,-0.02 -0.23,-0.04 -0.35,-0.04 -0.23,0 -0.48,0.04 -0.71,0.08 -0.46,0.09 -0.83,0.34 -1.18,0.63 -0.35,0.29 -0.58,0.72 -0.72,1.14 -0.08,0.29 -0.08,0.58 0,0.88 0.05,0.21 0.15,0.4 0.3,0.56 0.12,0.18 0.27,0.32 0.46,0.42 0.26,0.15 0.53,0.22 0.83,0.23 0.37,0.02 0.73,-0.03 1.1,-0.09 0.23,-0.03 0.46,-0.09 0.68,-0.18 0.33,-0.12 0.67,-0.25 0.96,-0.46 0.29,-0.21 0.58,-0.43 0.83,-0.7 0.26,-0.29 0.47,-0.69 0.45,-1.09 l -0.06,-0.41 c -0.07,-0.26 -0.21,-0.49 -0.4,-0.68 -0.14,-0.17 -0.33,-0.3 -0.5,-0.42 -0.17,-0.12 -0.4,-0.21 -0.59,-0.28 -0.3,-0.11 -0.64,-0.15 -0.95,-0.12 -0.44,0.05 -0.82,0.13 -1.21,0.35 -0.18,0.1 -0.34,0.23 -0.49,0.37 -0.11,0.1 -0.21,0.22 -0.28,0.35 -0.08,0.13 -0.12,0.29 -0.18,0.43 l 0.13,-0.3 c -0.06,0.14 -0.13,0.28 -0.17,0.43 -0.08,0.29 -0.04,0.69 0.12,0.94 l 0.19,0.25 c 0.15,0.15 0.33,0.26 0.54,0.31 0.17,0.06 0.35,0.08 0.52,0.1 0.36,0.04 0.65,-0.14 0.9,-0.36 l -0.47,0.27 c 0.16,-0.06 0.32,-0.1 0.47,-0.19 0.08,-0.05 0.17,-0.09 0.25,-0.15 0.17,-0.11 0.3,-0.27 0.38,-0.46 0.02,-0.04 0.04,-0.09 0.06,-0.13 0.04,-0.09 0.04,-0.1 0.01,-0.03 -0.03,0.06 -0.03,0.07 0,0.03 0.03,-0.04 0.06,-0.09 0.08,-0.14 0.1,-0.22 0.11,-0.5 -0.09,-0.68 -0.18,-0.16 -0.47,-0.23 -0.68,-0.09 v 0 z"
         id="path12" />
    </g>
  </g>
</svg>
