<?xml version="1.0" encoding="UTF-8"?>
<svg xmlns="http://www.w3.org/2000/svg" xmlns:xlink="http://www.w3.org/1999/xlink" viewBox="0 0 303.3 160.11" style="fill: rgb(0, 0, 0);" original_string_length="11737" width="84.02181592029837px" height="44.302412030702776px"><defs><clipPath id="__id9_sirgy15ajn" transform="translate(4.04 0.29)"><path d="M289,9.57c-1.63-5.43-14.38-9.08-22.22-5.86A10.28,10.28,0,0,0,262,7.08c-6,8,1.62,39.2,1.62,39.2L227.94,61c0-.21,0-22.28-1.32-29.55s-7.3-17.92-21.9-13.93a12.61,12.61,0,0,0-1.39.47c-7.8,2.86-10,13-10.42,21-1.2-7.28-3-14.9-5.94-18.2-4.24-4.73-10.42-4.45-18.14-1.43a91.06,91.06,0,0,0-11.39,5.51c-9,5,0,23.57,0,23.57,6.11,16.56,6.45,17.42,4,28.13a7.43,7.43,0,0,1-4.62,5.3c-7.26,2.58-19.53-2.82-20.1-17.17-.28-7.1,4-16.08,4.48-21.42.94-10.11-15.19-17.12-24.8-13.46a10.49,10.49,0,0,0-5.47,4.07c-2.48,3.73-4.91,12.93-6.75,21-.34-.94-.68-1.87-1-2.75A34.84,34.84,0,0,0,79.07,30.87c-10.83-2.7-25.42-4.16-39.41,1.33a50.53,50.53,0,0,0-9.69,5C.77,56.42,2.1,64.07,2.1,64.07l4.64,78s3.32,17.92,31.19,12.61c14.86-2.83,28.64-2.46,40.62-7.22,10.66-4.12,19.91-12.21,27.24-30.1q1-2.5,1.81-5a39,39,0,0,0,5.09,8.33s15.85,20.7,51.78,15a38.3,38.3,0,0,0,7.71-2c9-3.28,15-9.58,19-17.25a15.61,15.61,0,0,0,12,14.75,20.45,20.45,0,0,0,12.44-.83,27.65,27.65,0,0,0,9-5.86c9.24-8.58,7.32-41.45,7.3-41.79l33.67-11.8s-9.83,37.16-9.17,44.46,9.59,13.94,20.21,12a5.08,5.08,0,0,0,1.16-.38C288,123.17,295.65,85.55,296.3,72,297,58,291,16.21,289,9.57ZM39,114.24a.66.66,0,0,1-.17.14l-.24,0h0c-.75-.38-.64-5.17-.71-6.74L33.7,70.79a101.8,101.8,0,0,1,11.53-5.34c12-4.64,29.37-8.52,33.18,5.5,4.67,17.16-8.84,33.16-25.45,40A45.27,45.27,0,0,1,39,114.24Z" style="fill: none;"/></clipPath></defs><g data-name="Calque 2"><g data-name="Warstwa 5"><path d="M289.41,9.65C287.42,3,268.84-1,262.86,7s1.63,39.2,1.63,39.2L228.36,61.11s0-22.26-1.33-29.56-7.3-17.91-21.9-13.93c-9.38,2.56-11.31,15-11.49,23.54-1.19-7.85-3-16.64-6.26-20.25-6.09-6.79-16.2-3.26-29.11,3.93-9,5,0,23.56,0,23.56,6.11,16.56,6.45,17.42,4,28.13s-24.37,7.58-25.13-11.7c-.28-7.11,4-16.09,4.48-21.43,1.14-12.28-22.91-20-29.86-9.55-2.56,3.86-5.08,13.55-6.92,21.83-.42-1.18-.84-2.31-1.26-3.4A34.85,34.85,0,0,0,79.49,31c-13.27-3.31-32.16-4.76-48.7,6.14C1.59,56.34,2.92,64,2.92,64l4.65,77.95s3.31,17.92,31.18,12.61,52,.66,67.45-37.16c.77-1.88,1.43-3.76,2-5.65a39.88,39.88,0,0,0,5.31,8.79s15.86,20.7,51.79,15c13.48-2.14,21.74-9.94,26.68-19.88A15.64,15.64,0,0,0,204,131c7.84,1.75,14.36-.35,21-6.52,9.29-8.63,7.3-41.81,7.3-41.81l34.09-12s-9.84,37.17-9.17,44.47,9.59,13.93,20.2,11.94S296,86,296.71,72,291.4,16.29,289.41,9.65Zm-250,104.67c-1.21,1.36-1.05-4.76-1.13-6.57L34.11,70.87s39.15-22,45.12,0S61.39,112.91,39.42,114.32Z" stroke="#622736" stroke-linecap="round" stroke-linejoin="round" stroke-width="5" transform="translate(4.04 0.29)" style="fill: rgb(126, 217, 87);"/><g opacity=".52"><g clip-path="url(#__id9_sirgy15ajn)"><path d="M107.42,83.55c-7.12,11.8-1.26,29.34,6.38,39.69a49.05,49.05,0,0,0,37.84,19.61c14.15.41,28.84-5.3,38.05-16.23A44.93,44.93,0,0,0,200,105.41c1.18-6.89,2.5-17.41-1.89-23.49-1.48-2-4.39-2.83-6.34-.81-3.83,4-5.33,10.79-7.16,15.88-1.95,5.39-4.38,11.09-7.74,15.76-5.62,7.83-15.12,11.61-24.56,11.54-10.54-.08-19-4.92-25.89-12.63a52,52,0,0,1-8.27-12.88c-2.3-5-3.51-10.36-6-15.23-1-1.9-3.76-1.69-4.78,0Z" transform="translate(4.04 0.29)" style="fill: rgb(144, 26, 61);"/><path d="M194.68,101.12c-2,8.35-4.1,17.21.75,25,5.28,8.52,15.15,11.37,24.09,6.73,7.72-4,14.13-12.38,18.1-19.94,3.75-7.16,9.2-20.18,3.57-27.55-2.69-3.53-7.45-4.88-11-1.42-4.25,4.2-4.52,10.92-6.5,16.32a39.92,39.92,0,0,1-7.56,12.86c-2.53,2.83-5.75,7.51-9.73,4.87-4.73-3.14-5-11-5.22-16-.16-3.62-5.61-4.68-6.53-.88Z" transform="translate(4.04 0.29)" style="fill: rgb(144, 26, 61);"/><path d="M233.36,82.29l1,0a.38.38,0,0,0,0-.75l-1,0a.33.33,0,0,0,0,.65Z" transform="translate(4.04 0.29)" style="fill: rgb(144, 26, 61);"/><path d="M239.38,91.94a6.83,6.83,0,0,0,1.24-3.53c0-.62-.77-3.59-.43-4.16.74-1.22,4-1.6,5.19-1.91,7.17-2,14.27-4.28,21.39-6.44l-9.41-7.17c1.09,11-2.2,21.36-4.79,31.9-2.45,10-5.49,22.74-1.38,32.65,1.48,3.55,4.36,6.15,8.48,5.53,3.5-.53,7-3.71,6.69-7.58-.48-5.35-1.29-10.31-.75-15.72a116.72,116.72,0,0,1,2.89-14.79c2.45-10.48,4.92-21.16,3.73-32-.51-4.55-4.37-8.75-9.41-7.16-6.18,1.94-12.37,3.85-18.53,5.83-4.91,1.58-10.19,3.24-13.79,7.13a12.36,12.36,0,0,0-1.72,14.66c1.93,3.39,7.61,7.32,10.6,2.75Z" transform="translate(4.04 0.29)" style="fill: rgb(144, 26, 61);"/><path d="M104.21,88.2c-2.12,4.08-2.94,8.48-4.79,12.62a99.72,99.72,0,0,1-6.57,11.72A53.93,53.93,0,0,1,73.2,131.86a62,62,0,0,1-26.93,7.79,60.85,60.85,0,0,1-13.15-.37c-4.95-.83-8.9-3.18-13.49-4.89-5.74-2.14-13,4.66-10.56,10.55C14.57,158.13,30.3,160,43,159.8a85.52,85.52,0,0,0,38.87-9.9,65.82,65.82,0,0,0,26.64-26.43c5.13-9.74,8.24-25.43,1.86-35.27-1.38-2.13-4.86-2.49-6.15,0Z" transform="translate(4.04 0.29)" style="fill: rgb(144, 26, 61);"/><path d="M20.08,144.08c-1-2.82-1.44-5.53-2.78-8.26s-2.64-5.15-3.84-7.77c-2.47-5.42-3.93-11.24-6-16.81-2.34-6.24-10.61-5-11.32,1.53-.83,7.54,1.55,14.92,5.1,21.52a35.28,35.28,0,0,0,6.54,8.89c2.62,2.52,5.31,3.29,8.57,4.65,2.12.87,4.48-1.71,3.75-3.75Z" transform="translate(4.04 0.29)" style="fill: rgb(144, 26, 61);"/><path d="M42.52,72.57C44.11,67,51.35,66.65,56,66.14c4.34-.47,10.1-1,14,1.38C80.58,74,64.21,87.73,59.67,92.2c-4.83,4.77,1.38,13,7.27,9.43,8.44-5,16.26-11.61,18.94-21.51,2.5-9.23-.45-19.4-9-24.35-12.68-7.33-43.77-3-39.05,16.8.57,2.39,4.06,2.25,4.7,0Z" transform="translate(4.04 0.29)" style="fill: rgb(144, 26, 61);"/><path d="M153,25.85c2.25,8.27,4.51,17.15,4.53,25.79,0,9.33-3.66,16.7-7,25.12-2.4,6,6,9.4,10,5.83,8.37-7.44,11.41-21,11.18-31.69a43.84,43.84,0,0,0-3.51-16.24c-2.47-5.68-5.6-9-10.66-12.3-2.3-1.52-5.22,1-4.54,3.49Z" transform="translate(4.04 0.29)" style="fill: rgb(144, 26, 61);"/><path d="M192.55,50.35a.24.24,0,0,0,0-.47.24.24,0,0,0,0,.47Z" transform="translate(4.04 0.29)" style="fill: rgb(144, 26, 61);"/><path d="M266.68,45c3.42-6.06,3.54-14,3.13-20.8s-.61-15-5.08-20.41C262.37.93,257.06,2.47,256.34,6c-1.26,6.21,1.43,12.89,2,19.15s.08,13,1.88,19c.86,2.87,5,3.58,6.51.85Z" transform="translate(4.04 0.29)" style="fill: rgb(144, 26, 61);"/><path d="M111.48,65.77c1.24-8.63,3.61-19.84,9.35-26.72,2.76-3.3,5.33.93,7.66,3.16,3.62,3.48,6.61,7,11.34,8.92,4.14,1.66,8.28-3.21,7.09-7.09-2.07-6.76-9.09-12.43-14.62-16.53s-12.27-5-17.76-.57c-10.67,8.51-10.21,26.74-8.31,38.83.41,2.58,4.87,2.61,5.25,0Z" transform="translate(4.04 0.29)" style="fill: rgb(230, 255, 242);"/><path d="M6.59,96.81c.35-6.11.89-12.41,1.71-18.48.79-5.87,2.33-11.68,5.71-16.62C20.67,52,34,45.48,45,42.29,56.34,39,68.93,38.9,79.88,43.64a35.94,35.94,0,0,1,11.76,8.27c4,4.15,5.67,9.48,9.22,13.82,3.87,4.74,11.61.69,11.62-4.81,0-7-5.22-14.13-9.65-19.2A58.69,58.69,0,0,0,86.15,28.79C72,21.41,55.51,21,40.42,25.63c-14.59,4.45-31.08,13.23-38,27.53s-4.52,29.71-1,44.34c.72,3,5,2.17,5.16-.69Z" transform="translate(4.04 0.29)" style="fill: rgb(230, 255, 242);"/><path d="M173.17,22.35c5.6-3.86,8.22,6.36,9.46,9.7,1.79,4.86,3.75,9.63,5.73,14.42,2.22,5.35,10,4.87,10.36-1.41a21,21,0,0,1,9.58-16c5.85-3.61,11.9-2,18.22-3.45,3.4-.78,4.93-5.79,2.15-8.14-7.7-6.52-20.19-3.4-27.78,2-8.53,6-12.73,15.36-12.71,25.67L198,42.4c-3.53-7.58-6.67-17.1-12.89-22.95-4.16-3.91-10.44-5.21-14.33-.19-1.24,1.59.36,4.49,2.39,3.09Z" transform="translate(4.04 0.29)" style="fill: rgb(230, 255, 242);"/><path d="M274.2,6.83c7.84,3.2,9.51,14,9.89,21.37.49,9.4.73,18.82.82,28.24q.15,14.36-.32,28.72c-.32,9.86-1,19.85,0,29.68.55,5.18,8.18,7.08,9.66,1.31,2.83-11,3.05-22.66,3.28-34q.36-17.84-.22-35.66c-.56-17.07.45-44.28-22.16-46.79-4.4-.49-4.37,5.7-1,7.09Z" transform="translate(4.04 0.29)" style="fill: rgb(230, 255, 242);"/></g></g><path d="M203.62,130.9a15.67,15.67,0,0,1-12.06-15.47,96.86,96.86,0,0,1,2-17.6c4.51-23.23,0-48.44,0-48.44s-3.45-27.87,11.15-31.85,20.57,6.63,21.9,13.93S227.94,61,227.94,61l36.13-14.91s-7.59-31.24-1.62-39.2S287,2.94,289,9.57,297,58,296.3,72,287.67,125,277.05,127s-19.54-4.65-20.21-12S266,70.62,266,70.62L231.93,82.57s2,33.18-7.3,41.8C218,130.55,211.46,132.64,203.62,130.9Z" stroke="#622736" stroke-linecap="round" stroke-linejoin="round" stroke-width="5" transform="translate(4.04 0.29)" style="fill: none;"/><path d="M104.82,55.68c1.87-8.66,3.74-17.74,6.51-21.91,7-10.46,31-2.73,29.86,9.55-.49,5.34-4.76,14.32-4.48,21.42.76,19.29,22.67,22.42,25.13,11.71s2.12-11.57-4-28.13c0,0-9-18.57,0-23.57,12.92-7.18,23-10.71,29.12-3.92s7.15,31.77,8.53,34.63,14.32,72.84-30.61,80c-35.93,5.71-51.79-15-51.79-15a39.07,39.07,0,0,1-5-8.24" stroke="#622736" stroke-linecap="round" stroke-linejoin="round" stroke-width="5" transform="translate(4.04 0.29)" style="fill: none;"/><path d="M103.15,52.2A34.84,34.84,0,0,0,79.07,30.87C65.81,27.56,46.92,26.11,30.38,37,1.18,56.26,2.51,63.91,2.51,63.91l4.64,78s3.32,17.92,31.19,12.61,52,.66,67.45-37.16C115.53,93.54,109.2,67.94,103.15,52.2ZM39,114.24h0c-1.21,1.36-1-4.76-1.13-6.58L33.7,70.79s39.15-22,45.12,0S61,112.82,39,114.24Z" stroke="#622736" stroke-linecap="round" stroke-linejoin="round" stroke-width="5" transform="translate(4.04 0.29)" style="fill: none;"/><path d="M24.12,69.67C22.45,81.8,22.77,93.61,27,105.23c.46,1.3,2.69,1.22,2.57-.35C28.68,93.26,27.21,81.66,26.7,70c-.06-1.39-2.37-1.88-2.58-.35Z" transform="translate(4.04 0.29)" style="fill: rgb(230, 255, 242);"/><path d="M78,37.37h-.1l1,.14a1,1,0,0,1-.24-.07l1,.42a5.17,5.17,0,0,0-2.26-.59l-.25,0,1.16.16-.22,0,3.29,4.32v-.12l-.17,1.31a.11.11,0,0,1,0-.06L80.75,44l0-.06L80,45s0,0,0,0a3.86,3.86,0,0,0,1.09-1.7,2.58,2.58,0,0,0,.36-1.33,4,4,0,0,0-.09-2.1l-.53-1.26L80,37.46a4,4,0,0,0-1.7-1.09A2.58,2.58,0,0,0,77,36a4,4,0,0,0-2.1.1l-1.26.53-1.07.82a4.11,4.11,0,0,0-1.09,1.7,2.79,2.79,0,0,0-.36,1.33,4.06,4.06,0,0,0,.1,2.1l.53,1.26.82,1.07a5.44,5.44,0,0,0,2.33,1.36,4.08,4.08,0,0,0,2.18.11,4.58,4.58,0,0,0,.73-.11,5,5,0,0,0,3-2.35l-1.61,1.61a5.39,5.39,0,0,0,1.13-.83,3.89,3.89,0,0,0,1.08-1.57,4.52,4.52,0,0,0,.38-1.79,3.93,3.93,0,0,0-.17-1.23,4,4,0,0,0-1.34-1.95,3.93,3.93,0,0,0-2.27-.8Z" transform="translate(4.04 0.29)" style="fill: rgb(230, 255, 242);"/><path d="M60.16,46c3.62,0,3.63-5.63,0-5.63S56.54,46,60.16,46Z" transform="translate(4.04 0.29)" style="fill: rgb(230, 255, 242);"/><path d="M126.62,46.45l1.47-.82-1,.26a4.85,4.85,0,0,1,.66,0l-1.25-4.59-.24.1a2.86,2.86,0,0,0-.71.58l-.13.14c-.27.23-.19.18.23-.16a5.48,5.48,0,0,0-1.18.7h4.22a6.94,6.94,0,0,0-2.93-.84,5.29,5.29,0,0,0-3.68,1.52,5.21,5.21,0,0,0,6.31,8.17,5.32,5.32,0,0,0,2.22-6.36v2.22a6.56,6.56,0,0,0,.11-3.35,4.25,4.25,0,0,0-.2-.72,3.83,3.83,0,0,0-.58-1.16c-.14-.18-1.31-1.2-.45-.46a2.5,2.5,0,0,0-2.69-.51,2.54,2.54,0,0,0-1.52,2.26q0,.35,0,0l.49-.84-1.09,1.31a1.6,1.6,0,0,0,1.94,2.51Z" transform="translate(4.04 0.29)" style="fill: rgb(230, 255, 242);"/><path d="M122.11,65.8l.18,1,.27.64a2,2,0,0,0,.68.75,1.41,1.41,0,0,0,.59.34,2,2,0,0,0,1,.23,3.16,3.16,0,0,0,1.35-.36,2.07,2.07,0,0,0,.75-.69,2,2,0,0,0,.48-.91l.18-1a2.8,2.8,0,0,0,0-1.52,2.89,2.89,0,0,0-.74-1.26,2.85,2.85,0,0,0-4,0,2.87,2.87,0,0,0-.73,1.26,2.8,2.8,0,0,0,0,1.52Z" transform="translate(4.04 0.29)" style="fill: rgb(230, 255, 242);"/><path d="M179.88,45.61c2.86,15.08.75,29.93-7.35,43.1-1.81,2.93,2.81,5.62,4.61,2.69,8.48-13.77,11.23-31.23,6-46.69a1.69,1.69,0,0,0-3.26.9Z" transform="translate(4.04 0.29)" style="fill: rgb(230, 255, 242);"/><path d="M210.47,34.33c5.3,0,5.31-8.25,0-8.25s-5.32,8.25,0,8.25Z" transform="translate(4.04 0.29)" style="fill: rgb(230, 255, 242);"/><path d="M216.44,44.54c3.07,0,3.08-4.78,0-4.78s-3.08,4.78,0,4.78Z" transform="translate(4.04 0.29)" style="fill: rgb(230, 255, 242);"/><path d="M270.78,22.45l.09.67.45,1.06a3.38,3.38,0,0,0,1.15,1.25,2.12,2.12,0,0,0,1,.57,3.38,3.38,0,0,0,1.72.39l1.18-.16,1.06-.45a3.3,3.3,0,0,0,1.25-1.15,3.4,3.4,0,0,0,.8-1.51l.09-.67a4.48,4.48,0,0,0,0-2.41,4.64,4.64,0,0,0-1.17-2l-.92-.71a4.5,4.5,0,0,0-2.29-.62,3.55,3.55,0,0,0-1.76.39A3.41,3.41,0,0,0,272,18a4.54,4.54,0,0,0-1.17,4.42Z" transform="translate(4.04 0.29)" style="fill: rgb(230, 255, 242);"/></g></g></svg>