<?xml version="1.0" encoding="UTF-8" standalone="no"?>
<svg
   viewBox="0 0 115.59224 133.71891"
   style="fill:#000000"
   original_string_length="11737"
   width="32.021999"
   height="37"
   version="1.1"
   id="svg29"
   sodipodi:docname="duh-d.svg"
   inkscape:version="1.4.2 (f4327f4, 2025-05-13)"
   xmlns:inkscape="http://www.inkscape.org/namespaces/inkscape"
   xmlns:sodipodi="http://sodipodi.sourceforge.net/DTD/sodipodi-0.dtd"
   xmlns="http://www.w3.org/2000/svg"
   xmlns:svg="http://www.w3.org/2000/svg">
  <sodipodi:namedview
     id="namedview29"
     pagecolor="#ffffff"
     bordercolor="#999999"
     borderopacity="1"
     inkscape:showpageshadow="2"
     inkscape:pageopacity="0"
     inkscape:pagecheckerboard="0"
     inkscape:deskcolor="#d1d1d1"
     inkscape:zoom="12.337783"
     inkscape:cx="50.333192"
     inkscape:cy="19.898226"
     inkscape:window-width="1902"
     inkscape:window-height="973"
     inkscape:window-x="64"
     inkscape:window-y="0"
     inkscape:window-maximized="0"
     inkscape:current-layer="svg29" />
  <defs
     id="defs1">
    <inkscape:path-effect
       effect="powerstroke"
       message=""
       id="path-effect91"
       is_visible="true"
       lpeversion="1.3"
       scale_width="1"
       interpolator_type="CentripetalCatmullRom"
       interpolator_beta="0.75"
       start_linecap_type="round"
       end_linecap_type="round"
       offset_points="7.9565576,3.1032694"
       linejoin_type="spiro"
       miter_limit="4"
       not_jump="true"
       sort_points="true" />
    <inkscape:path-effect
       effect="simplify"
       id="path-effect90"
       is_visible="true"
       lpeversion="1.3"
       threshold="0.014201184"
       steps="1"
       smooth_angles="0"
       helper_size="0"
       simplify_individual_paths="false"
       simplify_just_coalesce="false"
       step="1" />
    <inkscape:path-effect
       effect="powerstroke"
       message=""
       id="path-effect89"
       is_visible="true"
       lpeversion="1.3"
       scale_width="1"
       interpolator_type="CentripetalCatmullRom"
       interpolator_beta="0.75"
       start_linecap_type="round"
       end_linecap_type="round"
       offset_points="7.1836869,3.1032694"
       linejoin_type="spiro"
       miter_limit="4"
       not_jump="true"
       sort_points="true" />
    <inkscape:path-effect
       effect="simplify"
       id="path-effect88"
       is_visible="true"
       lpeversion="1.3"
       threshold="0.014201184"
       steps="1"
       smooth_angles="0"
       helper_size="0"
       simplify_individual_paths="false"
       simplify_just_coalesce="false"
       step="1" />
    <inkscape:path-effect
       effect="powerstroke"
       message=""
       id="path-effect87"
       is_visible="true"
       lpeversion="1.3"
       scale_width="1"
       interpolator_type="CentripetalCatmullRom"
       interpolator_beta="0.75"
       start_linecap_type="round"
       end_linecap_type="round"
       offset_points="5.8017298,3.1032694"
       linejoin_type="spiro"
       miter_limit="4"
       not_jump="true"
       sort_points="true" />
    <inkscape:path-effect
       effect="simplify"
       id="path-effect86"
       is_visible="true"
       lpeversion="1.3"
       threshold="0.014201184"
       steps="1"
       smooth_angles="0"
       helper_size="0"
       simplify_individual_paths="false"
       simplify_just_coalesce="false"
       step="1" />
    <inkscape:path-effect
       effect="powerstroke"
       message=""
       id="path-effect85"
       is_visible="true"
       lpeversion="1.3"
       scale_width="1"
       interpolator_type="CentripetalCatmullRom"
       interpolator_beta="0.75"
       start_linecap_type="round"
       end_linecap_type="round"
       offset_points="5.8032417,3.1032694"
       linejoin_type="spiro"
       miter_limit="4"
       not_jump="true"
       sort_points="true" />
    <inkscape:path-effect
       effect="simplify"
       id="path-effect84"
       is_visible="true"
       lpeversion="1.3"
       threshold="0.014201184"
       steps="1"
       smooth_angles="0"
       helper_size="0"
       simplify_individual_paths="false"
       simplify_just_coalesce="false"
       step="1" />
    <inkscape:path-effect
       effect="powerstroke"
       message=""
       id="path-effect83"
       is_visible="true"
       lpeversion="1.3"
       scale_width="1"
       interpolator_type="CentripetalCatmullRom"
       interpolator_beta="0.75"
       start_linecap_type="round"
       end_linecap_type="round"
       offset_points="6.9203513,3.1032694"
       linejoin_type="spiro"
       miter_limit="4"
       not_jump="true"
       sort_points="true" />
    <inkscape:path-effect
       effect="simplify"
       id="path-effect82"
       is_visible="true"
       lpeversion="1.3"
       threshold="0.014201184"
       steps="1"
       smooth_angles="0"
       helper_size="0"
       simplify_individual_paths="false"
       simplify_just_coalesce="false"
       step="1" />
    <inkscape:path-effect
       effect="bspline"
       id="path-effect81"
       is_visible="true"
       lpeversion="1.3"
       weight="33.333333"
       steps="2"
       helper_size="0"
       apply_no_weight="true"
       apply_with_weight="true"
       only_selected="false"
       uniform="false" />
    <inkscape:path-effect
       effect="powerstroke"
       message=""
       id="path-effect80"
       is_visible="true"
       lpeversion="1.3"
       scale_width="1"
       interpolator_type="CentripetalCatmullRom"
       interpolator_beta="0.75"
       start_linecap_type="round"
       end_linecap_type="round"
       offset_points="0.92508826,3.1032694"
       linejoin_type="spiro"
       miter_limit="4"
       not_jump="true"
       sort_points="true" />
    <inkscape:path-effect
       effect="simplify"
       id="path-effect79"
       is_visible="true"
       lpeversion="1.3"
       threshold="0.014201184"
       steps="1"
       smooth_angles="0"
       helper_size="0"
       simplify_individual_paths="false"
       simplify_just_coalesce="false"
       step="1" />
    <inkscape:path-effect
       effect="powerstroke"
       message=""
       id="path-effect78"
       is_visible="true"
       lpeversion="1.3"
       scale_width="1"
       interpolator_type="CentripetalCatmullRom"
       interpolator_beta="0.75"
       start_linecap_type="round"
       end_linecap_type="round"
       offset_points="3.9091651,0"
       linejoin_type="spiro"
       miter_limit="4"
       not_jump="true"
       sort_points="true" />
    <inkscape:path-effect
       effect="simplify"
       id="path-effect77"
       is_visible="true"
       lpeversion="1.3"
       threshold="0.014201184"
       steps="1"
       smooth_angles="0"
       helper_size="0"
       simplify_individual_paths="false"
       simplify_just_coalesce="false"
       step="1" />
    <inkscape:path-effect
       effect="powerstroke"
       message=""
       id="path-effect76"
       is_visible="true"
       lpeversion="1.3"
       scale_width="1"
       interpolator_type="CentripetalCatmullRom"
       interpolator_beta="0.75"
       start_linecap_type="round"
       end_linecap_type="round"
       offset_points="175.8461,3.1032694"
       linejoin_type="spiro"
       miter_limit="4"
       not_jump="true"
       sort_points="true" />
    <inkscape:path-effect
       effect="simplify"
       id="path-effect75"
       is_visible="true"
       lpeversion="1.3"
       threshold="0.014201184"
       steps="1"
       smooth_angles="0"
       helper_size="0"
       simplify_individual_paths="false"
       simplify_just_coalesce="false"
       step="1" />
    <inkscape:path-effect
       effect="powerstroke"
       message=""
       id="path-effect74"
       is_visible="true"
       lpeversion="1.3"
       scale_width="1"
       interpolator_type="CentripetalCatmullRom"
       interpolator_beta="0.75"
       start_linecap_type="round"
       end_linecap_type="round"
       offset_points="151.34421,3.1032694"
       linejoin_type="spiro"
       miter_limit="4"
       not_jump="true"
       sort_points="true" />
    <inkscape:path-effect
       effect="simplify"
       id="path-effect73"
       is_visible="true"
       lpeversion="1.3"
       threshold="0.014201184"
       steps="1"
       smooth_angles="0"
       helper_size="0"
       simplify_individual_paths="false"
       simplify_just_coalesce="false"
       step="1" />
    <inkscape:path-effect
       effect="powerstroke"
       message=""
       id="path-effect72"
       is_visible="true"
       lpeversion="1.3"
       scale_width="1"
       interpolator_type="CentripetalCatmullRom"
       interpolator_beta="0.75"
       start_linecap_type="round"
       end_linecap_type="round"
       offset_points="2.8877222,3.1032694"
       linejoin_type="spiro"
       miter_limit="4"
       not_jump="true"
       sort_points="true" />
    <inkscape:path-effect
       effect="simplify"
       id="path-effect71"
       is_visible="true"
       lpeversion="1.3"
       threshold="0.014201184"
       steps="1"
       smooth_angles="0"
       helper_size="0"
       simplify_individual_paths="false"
       simplify_just_coalesce="false"
       step="1" />
    <inkscape:path-effect
       effect="powerstroke"
       message=""
       id="path-effect70"
       is_visible="true"
       lpeversion="1.3"
       scale_width="1"
       interpolator_type="CentripetalCatmullRom"
       interpolator_beta="0.75"
       start_linecap_type="round"
       end_linecap_type="round"
       offset_points="6.8001423,3.1032694"
       linejoin_type="spiro"
       miter_limit="4"
       not_jump="true"
       sort_points="true" />
    <inkscape:path-effect
       effect="simplify"
       id="path-effect69"
       is_visible="true"
       lpeversion="1.3"
       threshold="0.014201184"
       steps="1"
       smooth_angles="0"
       helper_size="0"
       simplify_individual_paths="false"
       simplify_just_coalesce="false"
       step="1" />
    <inkscape:path-effect
       effect="powerstroke"
       message=""
       id="path-effect68"
       is_visible="true"
       lpeversion="1.3"
       scale_width="1"
       interpolator_type="CentripetalCatmullRom"
       interpolator_beta="0.75"
       start_linecap_type="round"
       end_linecap_type="round"
       offset_points="2.1379043,3.1032694"
       linejoin_type="spiro"
       miter_limit="4"
       not_jump="true"
       sort_points="true" />
    <inkscape:path-effect
       effect="simplify"
       id="path-effect67"
       is_visible="true"
       lpeversion="1.3"
       threshold="0.014201184"
       steps="1"
       smooth_angles="0"
       helper_size="0"
       simplify_individual_paths="false"
       simplify_just_coalesce="false"
       step="1" />
    <inkscape:path-effect
       effect="powerstroke"
       message=""
       id="path-effect66"
       is_visible="true"
       lpeversion="1.3"
       scale_width="1"
       interpolator_type="CentripetalCatmullRom"
       interpolator_beta="0.75"
       start_linecap_type="round"
       end_linecap_type="round"
       offset_points="3.2776203,3.1032694"
       linejoin_type="spiro"
       miter_limit="4"
       not_jump="true"
       sort_points="true" />
    <inkscape:path-effect
       effect="simplify"
       id="path-effect65"
       is_visible="true"
       lpeversion="1.3"
       threshold="0.014201184"
       steps="1"
       smooth_angles="0"
       helper_size="0"
       simplify_individual_paths="false"
       simplify_just_coalesce="false"
       step="1" />
    <inkscape:path-effect
       effect="powerstroke"
       message=""
       id="path-effect64"
       is_visible="true"
       lpeversion="1.3"
       scale_width="1"
       interpolator_type="CentripetalCatmullRom"
       interpolator_beta="0.75"
       start_linecap_type="round"
       end_linecap_type="round"
       offset_points="7.6591396,3.1032694"
       linejoin_type="spiro"
       miter_limit="4"
       not_jump="true"
       sort_points="true" />
    <inkscape:path-effect
       effect="simplify"
       id="path-effect63"
       is_visible="true"
       lpeversion="1.3"
       threshold="0.014201184"
       steps="1"
       smooth_angles="0"
       helper_size="0"
       simplify_individual_paths="false"
       simplify_just_coalesce="false"
       step="1" />
    <inkscape:path-effect
       effect="powerstroke"
       message=""
       id="path-effect62"
       is_visible="true"
       lpeversion="1.3"
       scale_width="1"
       interpolator_type="CentripetalCatmullRom"
       interpolator_beta="0.75"
       start_linecap_type="round"
       end_linecap_type="round"
       offset_points="2.9025797,3.1032694"
       linejoin_type="spiro"
       miter_limit="4"
       not_jump="true"
       sort_points="true" />
    <inkscape:path-effect
       effect="simplify"
       id="path-effect61"
       is_visible="true"
       lpeversion="1.3"
       threshold="0.014201184"
       steps="1"
       smooth_angles="0"
       helper_size="0"
       simplify_individual_paths="false"
       simplify_just_coalesce="false"
       step="1" />
    <inkscape:path-effect
       effect="bspline"
       id="path-effect60"
       is_visible="true"
       lpeversion="1.3"
       weight="33.333333"
       steps="2"
       helper_size="0"
       apply_no_weight="true"
       apply_with_weight="true"
       only_selected="false"
       uniform="false" />
    <inkscape:path-effect
       effect="powerstroke"
       message=""
       id="path-effect59"
       is_visible="true"
       lpeversion="1.3"
       scale_width="1"
       interpolator_type="CentripetalCatmullRom"
       interpolator_beta="0.75"
       start_linecap_type="round"
       end_linecap_type="round"
       offset_points="6.0925835,3.1032694"
       linejoin_type="spiro"
       miter_limit="4"
       not_jump="true"
       sort_points="true" />
    <inkscape:path-effect
       effect="simplify"
       id="path-effect58"
       is_visible="true"
       lpeversion="1.3"
       threshold="0.014201184"
       steps="1"
       smooth_angles="0"
       helper_size="0"
       simplify_individual_paths="false"
       simplify_just_coalesce="false"
       step="1" />
    <inkscape:path-effect
       effect="powerstroke"
       message=""
       id="path-effect57"
       is_visible="true"
       lpeversion="1.3"
       scale_width="1"
       interpolator_type="CentripetalCatmullRom"
       interpolator_beta="0.75"
       start_linecap_type="round"
       end_linecap_type="round"
       offset_points="0.61880094,3.1032694"
       linejoin_type="spiro"
       miter_limit="4"
       not_jump="true"
       sort_points="true" />
    <inkscape:path-effect
       effect="simplify"
       id="path-effect56"
       is_visible="true"
       lpeversion="1.3"
       threshold="0.014201184"
       steps="1"
       smooth_angles="0"
       helper_size="0"
       simplify_individual_paths="false"
       simplify_just_coalesce="false"
       step="1" />
    <inkscape:path-effect
       effect="powerstroke"
       message=""
       id="path-effect55"
       is_visible="true"
       lpeversion="1.3"
       scale_width="1"
       interpolator_type="CentripetalCatmullRom"
       interpolator_beta="0.75"
       start_linecap_type="round"
       end_linecap_type="round"
       offset_points="7.7601689,3.1032694"
       linejoin_type="spiro"
       miter_limit="4"
       not_jump="true"
       sort_points="true" />
    <inkscape:path-effect
       effect="simplify"
       id="path-effect54"
       is_visible="true"
       lpeversion="1.3"
       threshold="0.014201184"
       steps="1"
       smooth_angles="0"
       helper_size="0"
       simplify_individual_paths="false"
       simplify_just_coalesce="false"
       step="1" />
    <inkscape:path-effect
       effect="powerstroke"
       message=""
       id="path-effect53"
       is_visible="true"
       lpeversion="1.3"
       scale_width="1"
       interpolator_type="CentripetalCatmullRom"
       interpolator_beta="0.75"
       start_linecap_type="round"
       end_linecap_type="round"
       offset_points="2.7517138,3.1032694"
       linejoin_type="spiro"
       miter_limit="4"
       not_jump="true"
       sort_points="true" />
    <inkscape:path-effect
       effect="simplify"
       id="path-effect52"
       is_visible="true"
       lpeversion="1.3"
       threshold="0.014201184"
       steps="1"
       smooth_angles="0"
       helper_size="0"
       simplify_individual_paths="false"
       simplify_just_coalesce="false"
       step="1" />
    <inkscape:path-effect
       effect="powerstroke"
       message=""
       id="path-effect51"
       is_visible="true"
       lpeversion="1.3"
       scale_width="1"
       interpolator_type="CentripetalCatmullRom"
       interpolator_beta="0.75"
       start_linecap_type="round"
       end_linecap_type="round"
       offset_points="19,3.1032694"
       linejoin_type="spiro"
       miter_limit="4"
       not_jump="true"
       sort_points="true" />
    <inkscape:path-effect
       effect="simplify"
       id="path-effect50"
       is_visible="true"
       lpeversion="1.3"
       threshold="0.014201184"
       steps="1"
       smooth_angles="0"
       helper_size="0"
       simplify_individual_paths="false"
       simplify_just_coalesce="false"
       step="1" />
    <inkscape:path-effect
       effect="powerstroke"
       message=""
       id="path-effect49"
       is_visible="true"
       lpeversion="1.3"
       scale_width="1"
       interpolator_type="CentripetalCatmullRom"
       interpolator_beta="0.75"
       start_linecap_type="round"
       end_linecap_type="round"
       offset_points="33.583335,3.1032694"
       linejoin_type="spiro"
       miter_limit="4"
       not_jump="true"
       sort_points="true" />
    <inkscape:path-effect
       effect="simplify"
       id="path-effect48"
       is_visible="true"
       lpeversion="1.3"
       threshold="0.014201184"
       steps="1"
       smooth_angles="0"
       helper_size="0"
       simplify_individual_paths="false"
       simplify_just_coalesce="false"
       step="1" />
    <inkscape:path-effect
       effect="powerstroke"
       message=""
       id="path-effect47"
       is_visible="true"
       lpeversion="1.3"
       scale_width="1"
       interpolator_type="CentripetalCatmullRom"
       interpolator_beta="0.75"
       start_linecap_type="round"
       end_linecap_type="round"
       offset_points="4.9690485,0"
       linejoin_type="spiro"
       miter_limit="4"
       not_jump="true"
       sort_points="true" />
    <inkscape:path-effect
       effect="simplify"
       id="path-effect46"
       is_visible="true"
       lpeversion="1.3"
       threshold="0.014201184"
       steps="1"
       smooth_angles="0"
       helper_size="0"
       simplify_individual_paths="false"
       simplify_just_coalesce="false"
       step="1" />
    <inkscape:path-effect
       effect="powerstroke"
       message=""
       id="path-effect45"
       is_visible="true"
       lpeversion="1.3"
       scale_width="1"
       interpolator_type="CentripetalCatmullRom"
       interpolator_beta="0.75"
       start_linecap_type="round"
       end_linecap_type="round"
       offset_points="4.4392635,3.1032694"
       linejoin_type="spiro"
       miter_limit="4"
       not_jump="true"
       sort_points="true" />
    <inkscape:path-effect
       effect="simplify"
       id="path-effect44"
       is_visible="true"
       lpeversion="1.3"
       threshold="0.014201184"
       steps="1"
       smooth_angles="0"
       helper_size="0"
       simplify_individual_paths="false"
       simplify_just_coalesce="false"
       step="1" />
    <inkscape:path-effect
       effect="powerstroke"
       message=""
       id="path-effect43"
       is_visible="true"
       lpeversion="1.3"
       scale_width="1"
       interpolator_type="CentripetalCatmullRom"
       interpolator_beta="0.75"
       start_linecap_type="round"
       end_linecap_type="round"
       offset_points="6.3192219,3.1032694"
       linejoin_type="spiro"
       miter_limit="4"
       not_jump="true"
       sort_points="true" />
    <inkscape:path-effect
       effect="simplify"
       id="path-effect42"
       is_visible="true"
       lpeversion="1.3"
       threshold="0.014201184"
       steps="1"
       smooth_angles="0"
       helper_size="0"
       simplify_individual_paths="false"
       simplify_just_coalesce="false"
       step="1" />
    <inkscape:path-effect
       effect="bspline"
       id="path-effect41"
       is_visible="true"
       lpeversion="1.3"
       weight="33.333333"
       steps="2"
       helper_size="0"
       apply_no_weight="true"
       apply_with_weight="true"
       only_selected="false"
       uniform="false" />
    <inkscape:path-effect
       effect="powerstroke"
       message=""
       id="path-effect40"
       is_visible="true"
       lpeversion="1.3"
       scale_width="1"
       interpolator_type="CentripetalCatmullRom"
       interpolator_beta="0.75"
       start_linecap_type="round"
       end_linecap_type="round"
       offset_points="4.5756946,3.1032694"
       linejoin_type="spiro"
       miter_limit="4"
       not_jump="true"
       sort_points="true" />
    <inkscape:path-effect
       effect="simplify"
       id="path-effect39"
       is_visible="true"
       lpeversion="1.3"
       threshold="0.014201184"
       steps="1"
       smooth_angles="0"
       helper_size="0"
       simplify_individual_paths="false"
       simplify_just_coalesce="false"
       step="1" />
    <inkscape:path-effect
       effect="powerstroke"
       message=""
       id="path-effect38"
       is_visible="true"
       lpeversion="1.3"
       scale_width="1"
       interpolator_type="CentripetalCatmullRom"
       interpolator_beta="0.75"
       start_linecap_type="round"
       end_linecap_type="round"
       offset_points="6.0861451,3.1032694"
       linejoin_type="spiro"
       miter_limit="4"
       not_jump="true"
       sort_points="true" />
    <inkscape:path-effect
       effect="simplify"
       id="path-effect37"
       is_visible="true"
       lpeversion="1.3"
       threshold="0.014201184"
       steps="1"
       smooth_angles="0"
       helper_size="0"
       simplify_individual_paths="false"
       simplify_just_coalesce="false"
       step="1" />
    <inkscape:path-effect
       effect="powerstroke"
       message=""
       id="path-effect36"
       is_visible="true"
       lpeversion="1.3"
       scale_width="1"
       interpolator_type="CentripetalCatmullRom"
       interpolator_beta="0.75"
       start_linecap_type="round"
       end_linecap_type="round"
       offset_points="6.4156264,3.1032694"
       linejoin_type="spiro"
       miter_limit="4"
       not_jump="true"
       sort_points="true" />
    <inkscape:path-effect
       effect="simplify"
       id="path-effect35"
       is_visible="true"
       lpeversion="1.3"
       threshold="0.014201184"
       steps="1"
       smooth_angles="0"
       helper_size="0"
       simplify_individual_paths="false"
       simplify_just_coalesce="false"
       step="1" />
    <inkscape:path-effect
       effect="powerstroke"
       message=""
       id="path-effect34"
       is_visible="true"
       lpeversion="1.3"
       scale_width="1"
       interpolator_type="CentripetalCatmullRom"
       interpolator_beta="0.75"
       start_linecap_type="round"
       end_linecap_type="round"
       offset_points="8.3079939,3.1032694"
       linejoin_type="spiro"
       miter_limit="4"
       not_jump="true"
       sort_points="true" />
    <inkscape:path-effect
       effect="simplify"
       id="path-effect33"
       is_visible="true"
       lpeversion="1.3"
       threshold="0.014201184"
       steps="1"
       smooth_angles="0"
       helper_size="0"
       simplify_individual_paths="false"
       simplify_just_coalesce="false"
       step="1" />
    <inkscape:path-effect
       effect="bspline"
       id="path-effect32"
       is_visible="true"
       lpeversion="1.3"
       weight="33.333333"
       steps="2"
       helper_size="0"
       apply_no_weight="true"
       apply_with_weight="true"
       only_selected="false"
       uniform="false" />
    <inkscape:path-effect
       effect="bspline"
       id="path-effect31"
       is_visible="true"
       lpeversion="1.3"
       weight="33.333333"
       steps="2"
       helper_size="0"
       apply_no_weight="true"
       apply_with_weight="true"
       only_selected="false"
       uniform="false" />
    <clipPath
       id="__id9_sirgy15ajn"
       transform="translate(4.04 0.29)">
      <path
         d="M 289,9.57 C 287.37,4.14 274.62,0.49 266.78,3.71 A 10.28,10.28 0 0 0 262,7.08 c -6,8 1.62,39.2 1.62,39.2 L 227.94,61 c 0,-0.21 0,-22.28 -1.32,-29.55 -1.32,-7.27 -7.3,-17.92 -21.9,-13.93 a 12.61,12.61 0 0 0 -1.39,0.47 c -7.8,2.86 -10,13 -10.42,21 -1.2,-7.28 -3,-14.9 -5.94,-18.2 -4.24,-4.73 -10.42,-4.45 -18.14,-1.43 a 91.06,91.06 0 0 0 -11.39,5.51 c -9,5 0,23.57 0,23.57 6.11,16.56 6.45,17.42 4,28.13 a 7.43,7.43 0 0 1 -4.62,5.3 c -7.26,2.58 -19.53,-2.82 -20.1,-17.17 -0.28,-7.1 4,-16.08 4.48,-21.42 0.94,-10.11 -15.19,-17.12 -24.8,-13.46 a 10.49,10.49 0 0 0 -5.47,4.07 c -2.48,3.73 -4.91,12.93 -6.75,21 -0.34,-0.94 -0.68,-1.87 -1,-2.75 A 34.84,34.84 0 0 0 79.07,30.87 C 68.24,28.17 53.65,26.71 39.66,32.2 a 50.53,50.53 0 0 0 -9.69,5 C 0.77,56.42 2.1,64.07 2.1,64.07 l 4.64,78 c 0,0 3.32,17.92 31.19,12.61 14.86,-2.83 28.64,-2.46 40.62,-7.22 10.66,-4.12 19.91,-12.21 27.24,-30.1 q 1,-2.5 1.81,-5 a 39,39 0 0 0 5.09,8.33 c 0,0 15.85,20.7 51.78,15 a 38.3,38.3 0 0 0 7.71,-2 c 9,-3.28 15,-9.58 19,-17.25 a 15.61,15.61 0 0 0 12,14.75 20.45,20.45 0 0 0 12.44,-0.83 27.65,27.65 0 0 0 9,-5.86 c 9.24,-8.58 7.32,-41.45 7.3,-41.79 l 33.67,-11.8 c 0,0 -9.83,37.16 -9.17,44.46 0.66,7.3 9.59,13.94 20.21,12 a 5.08,5.08 0 0 0 1.16,-0.38 C 288,123.17 295.65,85.55 296.3,72 297,58 291,16.21 289,9.57 Z M 39,114.24 a 0.66,0.66 0 0 1 -0.17,0.14 h -0.24 v 0 C 37.84,114 37.95,109.21 37.88,107.64 L 33.7,70.79 a 101.8,101.8 0 0 1 11.53,-5.34 c 12,-4.64 29.37,-8.52 33.18,5.5 4.67,17.16 -8.84,33.16 -25.45,40 A 45.27,45.27 0 0 1 39,114.24 Z"
         style="fill:none"
         id="path1" />
    </clipPath>
  </defs>
  <g
     data-name="Calque 2"
     id="g29"
     transform="translate(-2.899793,-26.305265)">
    <g
       data-name="Warstwa 5"
       id="g28">
      <path
         d="M 103.58,52.28 C 99.49591,41.68596 90.507038,33.745603 79.49,31 66.22,27.69 47.33,26.24 30.79,37.14 1.59,56.34 2.92,64 2.92,64 l 4.65,77.95 c 0,0 3.31,17.92 31.18,12.61 27.87,-5.31 52,0.66 67.45,-37.16 0.77,-1.88 4.35923,-15.47693 4.92923,-17.36693 C 111.31651,98.430229 109.65866,57.549435 103.58,52.28 Z m -64.17,62.04 c -1.21,1.36 -1.05,-4.76 -1.13,-6.57 L 34.11,70.87 c 0,0 39.15,-22 45.12,0 5.97,22 -17.84,42.04 -39.81,43.45 z"
         stroke="#622736"
         stroke-linecap="round"
         stroke-linejoin="round"
         stroke-width="5"
         transform="translate(4.04,0.29)"
         style="fill:#ef413e;fill-opacity:1"
         id="path2"
         sodipodi:nodetypes="cccccsccccccscc" />
      <g
         opacity="0.52"
         id="g17">
        <g
           clip-path="url(#__id9_sirgy15ajn)"
           id="g16">
          <path
             d="m 233.36,82.29 h 1 a 0.38,0.38 0 0 0 0,-0.75 h -1 a 0.33,0.33 0 0 0 0,0.65 z"
             transform="translate(4.04,0.29)"
             style="fill:#901a3d"
             id="path5" />
          <path
             d="m 104.21,88.2 c -2.12,4.08 -2.94,8.48 -4.79,12.62 a 99.72,99.72 0 0 1 -6.57,11.72 53.93,53.93 0 0 1 -19.65,19.32 62,62 0 0 1 -26.93,7.79 60.85,60.85 0 0 1 -13.15,-0.37 c -4.95,-0.83 -8.9,-3.18 -13.49,-4.89 -5.74,-2.14 -13,4.66 -10.56,10.55 C 14.57,158.13 30.3,160 43,159.8 a 85.52,85.52 0 0 0 38.87,-9.9 65.82,65.82 0 0 0 26.64,-26.43 c 5.13,-9.74 8.24,-25.43 1.86,-35.27 -1.38,-2.13 -4.86,-2.49 -6.15,0 z"
             transform="translate(4.04,0.29)"
             style="fill:#901a3d"
             id="path7" />
          <path
             d="m 20.08,144.08 c -1,-2.82 -1.44,-5.53 -2.78,-8.26 -1.34,-2.73 -2.64,-5.15 -3.84,-7.77 -2.47,-5.42 -3.93,-11.24 -6,-16.81 -2.34,-6.24 -10.61,-5 -11.32,1.53 -0.83,7.54 1.55,14.92 5.1,21.52 a 35.28,35.28 0 0 0 6.54,8.89 c 2.62,2.52 5.31,3.29 8.57,4.65 2.12,0.87 4.48,-1.71 3.75,-3.75 z"
             transform="translate(4.04,0.29)"
             style="fill:#901a3d"
             id="path8" />
          <path
             d="M 42.52,72.57 C 44.11,67 51.35,66.65 56,66.14 c 4.34,-0.47 10.1,-1 14,1.38 10.58,6.48 -5.79,20.21 -10.33,24.68 -4.83,4.77 1.38,13 7.27,9.43 8.44,-5 16.26,-11.61 18.94,-21.51 2.5,-9.23 -0.45,-19.4 -9,-24.35 -12.68,-7.33 -43.77,-3 -39.05,16.8 0.57,2.39 4.06,2.25 4.7,0 z"
             transform="translate(4.04,0.29)"
             style="fill:#901a3d"
             id="path9" />
          <path
             d="m 192.55,50.35 a 0.24,0.24 0 0 0 0,-0.47 0.24,0.24 0 0 0 0,0.47 z"
             transform="translate(4.04,0.29)"
             style="fill:#901a3d"
             id="path11" />
          <path
             d="M 6.59,96.81 C 6.94,90.7 7.48,84.4 8.3,78.33 9.09,72.46 10.63,66.65 14.01,61.71 20.67,52 34,45.48 45,42.29 56.34,39 68.93,38.9 79.88,43.64 a 35.94,35.94 0 0 1 11.76,8.27 c 4,4.15 5.67,9.48 9.22,13.82 3.87,4.74 11.61,0.69 11.62,-4.81 0,-7 -5.22,-14.13 -9.65,-19.2 A 58.69,58.69 0 0 0 86.15,28.79 C 72,21.41 55.51,21 40.42,25.63 25.83,30.08 9.34,38.86 2.42,53.16 c -6.92,14.3 -4.52,29.71 -1,44.34 0.72,3 5,2.17 5.16,-0.69 z"
             transform="translate(4.04,0.29)"
             style="fill:#e6fff2"
             id="path14" />
        </g>
      </g>
      <path
         d="M 103.15,52.2 A 34.84,34.84 0 0 0 79.07,30.87 C 65.81,27.56 46.92,26.11 30.38,37 1.18,56.26 2.51,63.91 2.51,63.91 l 4.64,78 c 0,0 3.32,17.92 31.19,12.61 27.87,-5.31 52,0.66 67.45,-37.16 9.74,-23.82 3.41,-49.42 -2.64,-65.16 z M 39,114.24 v 0 c -1.21,1.36 -1,-4.76 -1.13,-6.58 L 33.7,70.79 c 0,0 39.15,-22 45.12,0 5.97,22 -17.82,42.03 -39.82,43.45 z"
         stroke="#622736"
         stroke-linecap="round"
         stroke-linejoin="round"
         stroke-width="5"
         transform="translate(4.04,0.29)"
         style="fill:none"
         id="path19" />
      <path
         d="m 24.12,69.67 c -1.67,12.13 -1.35,23.94 2.88,35.56 0.46,1.3 2.69,1.22 2.57,-0.35 C 28.68,93.26 27.21,81.66 26.7,70 26.64,68.61 24.33,68.12 24.12,69.65 Z"
         transform="translate(4.04,0.29)"
         style="fill:#e6fff2"
         id="path20" />
      <path
         d="m 78,37.37 h -0.1 l 1,0.14 a 1,1 0 0 1 -0.24,-0.07 l 1,0.42 A 5.17,5.17 0 0 0 77.4,37.27 h -0.25 l 1.16,0.16 h -0.22 l 3.29,4.32 v -0.12 l -0.17,1.31 a 0.11,0.11 0 0 1 0,-0.06 L 80.75,44 V 43.94 L 80,45 c 0,0 0,0 0,0 a 3.86,3.86 0 0 0 1.09,-1.7 2.58,2.58 0 0 0 0.36,-1.33 4,4 0 0 0 -0.09,-2.1 L 80.83,38.61 80,37.46 A 4,4 0 0 0 78.3,36.37 2.58,2.58 0 0 0 77,36 4,4 0 0 0 74.9,36.1 l -1.26,0.53 -1.07,0.82 a 4.11,4.11 0 0 0 -1.09,1.7 2.79,2.79 0 0 0 -0.36,1.33 4.06,4.06 0 0 0 0.1,2.1 l 0.53,1.26 0.82,1.07 a 5.44,5.44 0 0 0 2.33,1.36 4.08,4.08 0 0 0 2.18,0.11 4.58,4.58 0 0 0 0.73,-0.11 5,5 0 0 0 3,-2.35 l -1.61,1.61 a 5.39,5.39 0 0 0 1.13,-0.83 3.89,3.89 0 0 0 1.08,-1.57 4.52,4.52 0 0 0 0.38,-1.79 3.93,3.93 0 0 0 -0.17,-1.23 4,4 0 0 0 -1.34,-1.95 3.93,3.93 0 0 0 -2.27,-0.8 z"
         transform="translate(4.04,0.29)"
         style="fill:#e6fff2"
         id="path21" />
      <path
         d="m 60.16,46 c 3.62,0 3.63,-5.63 0,-5.63 -3.63,0 -3.62,5.63 0,5.63 z"
         transform="translate(4.04,0.29)"
         style="fill:#e6fff2"
         id="path22" />
    </g>
  </g>
  <path
     style="fill:#ffffff;fill-opacity:1;stroke:none"
     d="m 39.545489,5.0434827 c 0,0 -8.138347,11.5770853 -8.138347,11.5770853"
     id="path40"
     transform="translate(-2.899793,-26.305265)"
     inkscape:original-d="M 39.545489,5.0434827 31.407142,16.620568"
     inkscape:path-effect="#path-effect41" />
  <path
     d="m 115.19189,64.623959 c 0.0416,0.124802 0.11437,0.340881 0.19982,0.577711 0.064,0.177187 0.13947,0.378552 0.22479,0.585185 0.0233,0.05647 0.0472,0.113061 0.0725,0.172161 0.0167,0.03916 0.0328,0.07657 0.0484,0.114883 0.0148,0.03645 0.0275,0.06937 0.0381,0.1027 0.009,0.02823 0.0159,0.05546 0.0212,0.08449 0.008,0.04254 0.0116,0.0859 0.0138,0.130219 0.002,0.04339 0.003,0.08684 0.003,0.128047 4.7e-4,0.06291 1.9e-4,0.130774 6e-5,0.183375 -2.9e-4,0.09355 -3.9e-4,0.145254 -3.9e-4,0.199641 a 0,0 0 0 0 0,0 c 0,-0.05439 1e-4,-0.106088 3.9e-4,-0.199641 1.3e-4,-0.0526 4.1e-4,-0.120463 -6e-5,-0.183375 -3.5e-4,-0.04121 -9.8e-4,-0.08465 -0.003,-0.128047 -0.002,-0.04432 -0.006,-0.08768 -0.0138,-0.130219 -0.005,-0.02902 -0.0124,-0.05625 -0.0202,-0.08115 -0.0116,-0.03667 -0.0243,-0.06959 -0.0391,-0.106039 -0.0157,-0.03831 -0.0318,-0.07573 -0.0484,-0.114883 -0.0253,-0.0591 -0.0492,-0.115695 -0.0725,-0.172161 -0.0853,-0.206633 -0.16082,-0.407998 -0.22479,-0.585185 -0.0855,-0.23683 -0.15821,-0.452909 -0.19982,-0.577711 z"
     id="path-1-4"
     style="fill:#ffffff;fill-opacity:1;fill-rule:nonzero;stroke:none"
     transform="translate(-2.899793,-26.305265)"
     inkscape:original-d="m 115.19189,64.623959 c 0.66505,1.995152 0.62138,1.209156 0.62138,2.278408"
     inkscape:path-effect="#path-effect46;#path-effect47" />
  <path
     style="fill:#ffffff;fill-opacity:1;stroke:none"
     d="m 32.897262,27.509905 c 0,0 -1.203559,5.272732 -1.203559,5.272732"
     id="path59"
     transform="translate(-2.899793,-26.305265)"
     inkscape:original-d="m 32.897262,27.509905 -1.203559,5.272732"
     inkscape:path-effect="#path-effect60" />
  <path
     style="fill:#ffffff;fill-opacity:1;stroke:none"
     d="m 32.6107,10.258902 c 0,0 1.719369,3.324114 1.719369,3.324114"
     id="path80"
     inkscape:original-d="m 32.6107,10.258902 1.719369,3.324114"
     inkscape:path-effect="#path-effect81" />
</svg>
