<?xml version="1.0" encoding="UTF-8" standalone="no"?>
<svg
   viewBox="0 0 101.15311 126.49089"
   style="fill:#000000"
   original_string_length="11737"
   width="28.021999"
   height="35"
   version="1.1"
   id="svg29"
   sodipodi:docname="duh-u.svg"
   inkscape:version="1.4.2 (f4327f4, 2025-05-13)"
   xmlns:inkscape="http://www.inkscape.org/namespaces/inkscape"
   xmlns:sodipodi="http://sodipodi.sourceforge.net/DTD/sodipodi-0.dtd"
   xmlns="http://www.w3.org/2000/svg"
   xmlns:svg="http://www.w3.org/2000/svg">
  <sodipodi:namedview
     id="namedview29"
     pagecolor="#ffffff"
     bordercolor="#999999"
     borderopacity="1"
     inkscape:showpageshadow="2"
     inkscape:pageopacity="0"
     inkscape:pagecheckerboard="0"
     inkscape:deskcolor="#d1d1d1"
     inkscape:zoom="17.448261"
     inkscape:cx="18.454561"
     inkscape:cy="19.170965"
     inkscape:window-width="1920"
     inkscape:window-height="991"
     inkscape:window-x="-9"
     inkscape:window-y="-9"
     inkscape:window-maximized="1"
     inkscape:current-layer="svg29" />
  <defs
     id="defs1">
    <clipPath
       id="__id9_sirgy15ajn"
       transform="translate(4.04 0.29)">
      <path
         d="M 289,9.57 C 287.37,4.14 274.62,0.49 266.78,3.71 A 10.28,10.28 0 0 0 262,7.08 c -6,8 1.62,39.2 1.62,39.2 L 227.94,61 c 0,-0.21 0,-22.28 -1.32,-29.55 -1.32,-7.27 -7.3,-17.92 -21.9,-13.93 a 12.61,12.61 0 0 0 -1.39,0.47 c -7.8,2.86 -10,13 -10.42,21 -1.2,-7.28 -3,-14.9 -5.94,-18.2 -4.24,-4.73 -10.42,-4.45 -18.14,-1.43 a 91.06,91.06 0 0 0 -11.39,5.51 c -9,5 0,23.57 0,23.57 6.11,16.56 6.45,17.42 4,28.13 a 7.43,7.43 0 0 1 -4.62,5.3 c -7.26,2.58 -19.53,-2.82 -20.1,-17.17 -0.28,-7.1 4,-16.08 4.48,-21.42 0.94,-10.11 -15.19,-17.12 -24.8,-13.46 a 10.49,10.49 0 0 0 -5.47,4.07 c -2.48,3.73 -4.91,12.93 -6.75,21 -0.34,-0.94 -0.68,-1.87 -1,-2.75 A 34.84,34.84 0 0 0 79.07,30.87 C 68.24,28.17 53.65,26.71 39.66,32.2 a 50.53,50.53 0 0 0 -9.69,5 C 0.77,56.42 2.1,64.07 2.1,64.07 l 4.64,78 c 0,0 3.32,17.92 31.19,12.61 14.86,-2.83 28.64,-2.46 40.62,-7.22 10.66,-4.12 19.91,-12.21 27.24,-30.1 q 1,-2.5 1.81,-5 a 39,39 0 0 0 5.09,8.33 c 0,0 15.85,20.7 51.78,15 a 38.3,38.3 0 0 0 7.71,-2 c 9,-3.28 15,-9.58 19,-17.25 a 15.61,15.61 0 0 0 12,14.75 20.45,20.45 0 0 0 12.44,-0.83 27.65,27.65 0 0 0 9,-5.86 c 9.24,-8.58 7.32,-41.45 7.3,-41.79 l 33.67,-11.8 c 0,0 -9.83,37.16 -9.17,44.46 0.66,7.3 9.59,13.94 20.21,12 a 5.08,5.08 0 0 0 1.16,-0.38 C 288,123.17 295.65,85.55 296.3,72 297,58 291,16.21 289,9.57 Z M 39,114.24 a 0.66,0.66 0 0 1 -0.17,0.14 h -0.24 v 0 C 37.84,114 37.95,109.21 37.88,107.64 L 33.7,70.79 a 101.8,101.8 0 0 1 11.53,-5.34 c 12,-4.64 29.37,-8.52 33.18,5.5 4.67,17.16 -8.84,33.16 -25.45,40 A 45.27,45.27 0 0 1 39,114.24 Z"
         style="fill:none"
         id="path1" />
    </clipPath>
  </defs>
  <g
     data-name="Calque 2"
     id="g29"
     transform="translate(-106.2567,-14.91322)">
    <g
       data-name="Warstwa 5"
       id="g28">
      <path
         d="M 194.05425,47.373844 C 192.86425,39.523844 190.64,24.52 187.38,20.91 c -6.09,-6.79 -16.2,-3.26 -29.11,3.93 -9,5 0,23.56 0,23.56 6.11,16.56 6.45,17.42 4,28.13 -2.45,10.71 -24.37,7.58 -25.13,-11.7 -0.28,-7.11 4,-16.09 4.48,-21.43 1.14,-12.28 -22.91,-20 -29.86,-9.55 -2.56,3.86 -5.08,13.55 -6.92,21.83 -0.42,-1.18 -3.94692,51.95755 2.05405,54.80299 8.34359,17.16112 24.41722,17.09163 3.04378,10.20347 -7.73513,-16.17635 -6.48476,-12.66552 3.57217,-0.14646 0,0 15.86,20.7 51.79,15 13.48,-2.14 20.91149,-9.11149 25.85149,-19.05149 4.05678,-8.06843 6.72242,-21.931489 5.72329,-41.283054 -0.86272,-16.709522 -0.74801,-17.548608 -2.82053,-27.831612 z"
         stroke="#622736"
         stroke-linecap="round"
         stroke-linejoin="round"
         stroke-width="5"
         transform="translate(4.04,0.29)"
         style="fill:#ef413e;stroke:#632736;stroke-opacity:1;fill-opacity:1"
         id="path2"
         sodipodi:nodetypes="ccccscccccccccsc" />
      <g
         opacity="0.52"
         id="g17">
        <g
           clip-path="url(#__id9_sirgy15ajn)"
           id="g16">
          <path
             d="m 107.42,83.55 c -7.12,11.8 -1.26,29.34 6.38,39.69 8.96612,11.9613 22.89744,19.181 37.84,19.61 14.15,0.41 26.76872,-7.16415 35.97872,-18.09415 5.26392,-6.02587 4.05926,-14.38375 8.23872,-20.17436 C 197.03744,97.691488 202.5,88 198.11,81.92 c -1.48,-2 -4.39,-2.83 -6.34,-0.81 -3.83,4 -5.33,10.79 -7.16,15.88 -1.95,5.39 -4.38,11.09 -7.74,15.76 -5.62,7.83 -15.12,11.61 -24.56,11.54 -10.54,-0.08 -19,-4.92 -25.89,-12.63 -3.37692,-3.86189 -6.16377,-8.20223 -8.27,-12.88 -2.3,-5 -3.51,-10.36 -6,-15.23 -1,-1.9 -3.76,-1.69 -4.78,0 z"
             transform="translate(4.04,0.29)"
             style="fill:#901a3d"
             id="path3"
             sodipodi:nodetypes="ccccccccccccccc" />
          <path
             d="m 233.36,82.29 h 1 a 0.38,0.38 0 0 0 0,-0.75 h -1 a 0.33,0.33 0 0 0 0,0.65 z"
             transform="translate(4.04,0.29)"
             style="fill:#901a3d"
             id="path5" />
          <path
             d="m 153,25.85 c 2.25,8.27 4.51,17.15 4.53,25.79 0,9.33 -3.66,16.7 -7,25.12 -2.4,6 6,9.4 10,5.83 8.37,-7.44 11.41,-21 11.18,-31.69 A 43.84,43.84 0 0 0 168.2,34.66 c -2.47,-5.68 -5.6,-9 -10.66,-12.3 -2.3,-1.52 -5.22,1 -4.54,3.49 z"
             transform="translate(4.04,0.29)"
             style="fill:#901a3d"
             id="path10" />
          <path
             d="m 192.55,50.35 a 0.24,0.24 0 0 0 0,-0.47 0.24,0.24 0 0 0 0,0.47 z"
             transform="translate(4.04,0.29)"
             style="fill:#901a3d"
             id="path11" />
          <path
             d="m 111.48,65.77 c 1.24,-8.63 3.61,-19.84 9.35,-26.72 2.76,-3.3 5.33,0.93 7.66,3.16 3.62,3.48 6.61,7 11.34,8.92 4.14,1.66 8.28,-3.21 7.09,-7.09 -2.07,-6.76 -9.09,-12.43 -14.62,-16.53 -5.53,-4.1 -12.27,-5 -17.76,-0.57 -10.67,8.51 -10.21,26.74 -8.31,38.83 0.41,2.58 4.87,2.61 5.25,0 z"
             transform="translate(4.04,0.29)"
             style="fill:#e6fff2"
             id="path13" />
          <path
             d="m 173.17,22.35 c 5.6,-3.86 8.22,6.36 9.46,9.7 1.79,4.86 3.75,9.63 5.73,14.42 2.22,5.35 10,4.87 10.36,-1.41 0.52023,-6.536499 -10.64227,-9.762153 -5.1261,-13.307334 5.85,-3.61 -5.0845,1.728306 1.2355,0.278306 3.4,-0.78 -2.52661,-6.204257 -5.30661,-8.554257 -7.7,-6.52 8.6008,-6.506921 1.0108,-1.106921 -8.53,6 -2.37359,12.460206 -2.35359,22.770206 L 198,42.4 c -3.53,-7.58 -6.67,-17.1 -12.89,-22.95 -4.16,-3.91 -10.44,-5.21 -14.33,-0.19 -1.24,1.59 0.36,4.49 2.39,3.09 z"
             transform="translate(4.04,0.29)"
             style="fill:#e6fff2"
             id="path15"
             sodipodi:nodetypes="ccccccccccccc" />
        </g>
      </g>
      <path
         d="m 104.82,55.68 c 1.87,-8.66 3.74,-17.74 6.51,-21.91 7,-10.46 31,-2.73 29.86,9.55 -0.49,5.34 -4.76,14.32 -4.48,21.42 0.76,19.29 22.67,22.42 25.13,11.71 2.46,-10.71 2.12,-11.57 -4,-28.13 0,0 -9,-18.57 0,-23.57 12.92,-7.18 23,-10.71 29.12,-3.92 6.12,6.79 7.15,34.255537 8.53,37.115537 1.38,2.86 14.32,70.354463 -30.61,77.514463 -35.93,5.71 -51.79,-15 -51.79,-15 -2.00037,-2.52977 -3.67981,-5.29749 -5,-8.24"
         stroke="#622736"
         stroke-linecap="round"
         stroke-linejoin="round"
         stroke-width="5"
         transform="translate(4.04,0.29)"
         style="fill:none;stroke:#622736;stroke-opacity:1"
         id="path18"
         sodipodi:nodetypes="ccccsccssccc" />
      <path
         d="m 24.12,69.67 c -1.67,12.13 -1.35,23.94 2.88,35.56 0.46,1.3 2.69,1.22 2.57,-0.35 C 28.68,93.26 27.21,81.66 26.7,70 26.64,68.61 24.33,68.12 24.12,69.65 Z"
         transform="translate(4.04,0.29)"
         style="fill:#e6fff2"
         id="path20" />
      <path
         d="m 126.62,46.45 1.47,-0.82 -1,0.26 a 4.85,4.85 0 0 1 0.66,0 l -1.25,-4.59 -0.24,0.1 a 2.86,2.86 0 0 0 -0.71,0.58 l -0.13,0.14 c -0.27,0.23 -0.19,0.18 0.23,-0.16 a 5.48,5.48 0 0 0 -1.18,0.7 h 4.22 a 6.94,6.94 0 0 0 -2.93,-0.84 5.29,5.29 0 0 0 -3.68,1.52 5.21,5.21 0 0 0 6.31,8.17 5.32,5.32 0 0 0 2.22,-6.36 v 2.22 a 6.56,6.56 0 0 0 0.11,-3.35 4.25,4.25 0 0 0 -0.2,-0.72 3.83,3.83 0 0 0 -0.58,-1.16 c -0.14,-0.18 -1.31,-1.2 -0.45,-0.46 a 2.5,2.5 0 0 0 -2.69,-0.51 2.54,2.54 0 0 0 -1.52,2.26 q 0,0.35 0,0 l 0.49,-0.84 -1.09,1.31 a 1.6,1.6 0 0 0 1.94,2.51 z"
         transform="translate(4.04,0.29)"
         style="fill:#e6fff2"
         id="path23" />
      <path
         d="m 122.11,65.8 0.18,1 0.27,0.64 a 2,2 0 0 0 0.68,0.75 1.41,1.41 0 0 0 0.59,0.34 2,2 0 0 0 1,0.23 3.16,3.16 0 0 0 1.35,-0.36 2.07,2.07 0 0 0 0.75,-0.69 2,2 0 0 0 0.48,-0.91 l 0.18,-1 a 2.8,2.8 0 0 0 0,-1.52 2.89,2.89 0 0 0 -0.74,-1.26 2.85,2.85 0 0 0 -4,0 2.87,2.87 0 0 0 -0.73,1.26 2.8,2.8 0 0 0 0,1.52 z"
         transform="translate(4.04,0.29)"
         style="fill:#e6fff2"
         id="path24" />
      <path
         d="m 179.88,45.61 c 2.86,15.08 0.75,29.93 -7.35,43.1 -1.81,2.93 2.81,5.62 4.61,2.69 8.48,-13.77 11.23,-31.23 6,-46.69 a 1.690976,1.690976 0 0 0 -3.26,0.9 z"
         transform="translate(4.04,0.29)"
         style="fill:#e6fff2"
         id="path25" />
    </g>
  </g>
</svg>
