<?xml version="1.0" encoding="UTF-8" standalone="no"?>
<svg
   viewBox="0 0 111.98243 134.81034"
   style="fill:#000000"
   original_string_length="11737"
   width="31.021999"
   height="37.301998"
   version="1.1"
   id="svg29"
   sodipodi:docname="duh-green-h.svg"
   inkscape:version="1.4.2 (f4327f4, 2025-05-13)"
   xmlns:inkscape="http://www.inkscape.org/namespaces/inkscape"
   xmlns:sodipodi="http://sodipodi.sourceforge.net/DTD/sodipodi-0.dtd"
   xmlns="http://www.w3.org/2000/svg"
   xmlns:svg="http://www.w3.org/2000/svg">
  <sodipodi:namedview
     id="namedview29"
     pagecolor="#ffffff"
     bordercolor="#999999"
     borderopacity="1"
     inkscape:showpageshadow="2"
     inkscape:pageopacity="0"
     inkscape:pagecheckerboard="0"
     inkscape:deskcolor="#d1d1d1"
     inkscape:zoom="17.448261"
     inkscape:cx="31.693703"
     inkscape:cy="19.686776"
     inkscape:window-width="1920"
     inkscape:window-height="991"
     inkscape:window-x="-9"
     inkscape:window-y="-9"
     inkscape:window-maximized="1"
     inkscape:current-layer="svg29" />
  <defs
     id="defs1">
    <clipPath
       id="__id9_sirgy15ajn"
       transform="translate(4.04 0.29)">
      <path
         d="M 289,9.57 C 287.37,4.14 274.62,0.49 266.78,3.71 A 10.28,10.28 0 0 0 262,7.08 c -6,8 1.62,39.2 1.62,39.2 L 227.94,61 c 0,-0.21 0,-22.28 -1.32,-29.55 -1.32,-7.27 -7.3,-17.92 -21.9,-13.93 a 12.61,12.61 0 0 0 -1.39,0.47 c -7.8,2.86 -10,13 -10.42,21 -1.2,-7.28 -3,-14.9 -5.94,-18.2 -4.24,-4.73 -10.42,-4.45 -18.14,-1.43 a 91.06,91.06 0 0 0 -11.39,5.51 c -9,5 0,23.57 0,23.57 6.11,16.56 6.45,17.42 4,28.13 a 7.43,7.43 0 0 1 -4.62,5.3 c -7.26,2.58 -19.53,-2.82 -20.1,-17.17 -0.28,-7.1 4,-16.08 4.48,-21.42 0.94,-10.11 -15.19,-17.12 -24.8,-13.46 a 10.49,10.49 0 0 0 -5.47,4.07 c -2.48,3.73 -4.91,12.93 -6.75,21 -0.34,-0.94 -0.68,-1.87 -1,-2.75 A 34.84,34.84 0 0 0 79.07,30.87 C 68.24,28.17 53.65,26.71 39.66,32.2 a 50.53,50.53 0 0 0 -9.69,5 C 0.77,56.42 2.1,64.07 2.1,64.07 l 4.64,78 c 0,0 3.32,17.92 31.19,12.61 14.86,-2.83 28.64,-2.46 40.62,-7.22 10.66,-4.12 19.91,-12.21 27.24,-30.1 q 1,-2.5 1.81,-5 a 39,39 0 0 0 5.09,8.33 c 0,0 15.85,20.7 51.78,15 a 38.3,38.3 0 0 0 7.71,-2 c 9,-3.28 15,-9.58 19,-17.25 a 15.61,15.61 0 0 0 12,14.75 20.45,20.45 0 0 0 12.44,-0.83 27.65,27.65 0 0 0 9,-5.86 c 9.24,-8.58 7.32,-41.45 7.3,-41.79 l 33.67,-11.8 c 0,0 -9.83,37.16 -9.17,44.46 0.66,7.3 9.59,13.94 20.21,12 a 5.08,5.08 0 0 0 1.16,-0.38 C 288,123.17 295.65,85.55 296.3,72 297,58 291,16.21 289,9.57 Z M 39,114.24 a 0.66,0.66 0 0 1 -0.17,0.14 h -0.24 v 0 C 37.84,114 37.95,109.21 37.88,107.64 L 33.7,70.79 a 101.8,101.8 0 0 1 11.53,-5.34 c 12,-4.64 29.37,-8.52 33.18,5.5 4.67,17.16 -8.84,33.16 -25.45,40 A 45.27,45.27 0 0 1 39,114.24 Z"
         style="fill:none"
         id="path1" />
    </clipPath>
  </defs>
  <g
     data-name="Calque 2"
     id="g29"
     inkscape:transform-center-x="2.4610455"
     inkscape:transform-center-y="3.0245055"
     transform="translate(-192.62911,-0.20712808)">
    <g
       data-name="Warstwa 5"
       id="g28">
      <path
         d="M 289.41,9.65 C 287.42,3 268.84,-1 262.86,7 c -5.98,8 1.63,39.2 1.63,39.2 l -36.13,14.91 c 0,0 0,-22.26 -1.33,-29.56 -1.33,-7.3 -7.3,-17.91 -21.9,-13.93 -9.38,2.56 -11.51713,15.621384 -11.69713,24.161384 2.9552,14.958166 0.78676,55.508838 -1.45287,73.878616 -0.0581,7.28977 4.9279,13.6529 12.02,15.34 7.84,1.75 14.36,-0.35 21,-6.52 9.29,-8.63 7.3,-41.81 7.3,-41.81 l 34.09,-12 c 0,0 -9.84,37.17 -9.17,44.47 0.67,7.3 9.59,13.93 20.2,11.94 C 288.03,125.09 296,86 296.71,72 297.42,58 291.4,16.29 289.41,9.65 Z"
         stroke="#622736"
         stroke-linecap="round"
         stroke-linejoin="round"
         stroke-width="5"
         transform="translate(4.04,0.29)"
         style="fill:#7ed957;stroke:#632736;stroke-opacity:1"
         id="path2"
         sodipodi:nodetypes="csccscccccccsssc" />
      <g
         opacity="0.52"
         id="g17">
        <g
           clip-path="url(#__id9_sirgy15ajn)"
           id="g16">
          <path
             d="m 197.72784,84.58564 c -3.82436,9.045916 3.29985,47.85234 -0.58123,42.44862 5.26393,-6.02587 1.36659,-13.76236 2.85339,-21.62426 1.18,-6.89 2.5,-17.41 -1.89,-23.49 -1.48,-2 -2.11159,-0.137335 -4.06159,1.882665 -3.83,4 1.2981,4.36903 -0.5319,9.45903 -1.95,5.39 1.41958,7.983075 -1.94042,12.653075 5.2689,9.85837 6.15175,-21.32913 6.15175,-21.32913 z"
             transform="translate(4.04,0.29)"
             style="fill:#901a3d"
             id="path3"
             sodipodi:nodetypes="cccccccc" />
          <path
             d="m 194.68,101.12 c -2,8.35 -4.1,17.21 0.75,25 5.28,8.52 15.15,11.37 24.09,6.73 7.72,-4 14.13,-12.38 18.1,-19.94 3.75,-7.16 9.2,-20.18 3.57,-27.55 -2.69,-3.53 -7.45,-4.88 -11,-1.42 -4.25,4.2 -4.52,10.92 -6.5,16.32 a 39.92,39.92 0 0 1 -7.56,12.86 c -2.53,2.83 -5.75,7.51 -9.73,4.87 -4.73,-3.14 -5,-11 -5.22,-16 -0.16,-3.62 -5.61,-4.68 -6.53,-0.88 z"
             transform="translate(4.04,0.29)"
             style="fill:#901a3d"
             id="path4" />
          <path
             d="m 233.36,82.29 h 1 a 0.38,0.38 0 0 0 0,-0.75 h -1 a 0.33,0.33 0 0 0 0,0.65 z"
             transform="translate(4.04,0.29)"
             style="fill:#901a3d"
             id="path5" />
          <path
             d="m 239.38,91.94 a 6.83,6.83 0 0 0 1.24,-3.53 c 0,-0.62 -0.77,-3.59 -0.43,-4.16 0.74,-1.22 4,-1.6 5.19,-1.91 7.17,-2 14.27,-4.28 21.39,-6.44 l -9.41,-7.17 c 1.09,11 -2.2,21.36 -4.79,31.9 -2.45,10 -5.49,22.74 -1.38,32.65 1.48,3.55 4.36,6.15 8.48,5.53 3.5,-0.53 7,-3.71 6.69,-7.58 -0.48,-5.35 -1.29,-10.31 -0.75,-15.72 a 116.72,116.72 0 0 1 2.89,-14.79 c 2.45,-10.48 4.92,-21.16 3.73,-32 -0.51,-4.55 -4.37,-8.75 -9.41,-7.16 -6.18,1.94 -12.37,3.85 -18.53,5.83 -4.91,1.58 -10.19,3.24 -13.79,7.13 a 12.36,12.36 0 0 0 -1.72,14.66 c 1.93,3.39 7.61,7.32 10.6,2.75 z"
             transform="translate(4.04,0.29)"
             style="fill:#901a3d"
             id="path6" />
          <path
             d="m 192.55,50.35 a 0.24,0.24 0 0 0 0,-0.47 0.24,0.24 0 0 0 0,0.47 z"
             transform="translate(4.04,0.29)"
             style="fill:#901a3d"
             id="path11" />
          <path
             d="m 266.68,45 c 3.42,-6.06 3.54,-14 3.13,-20.8 -0.41,-6.8 -0.61,-15 -5.08,-20.41 -2.36,-2.86 -7.67,-1.32 -8.39,2.21 -1.26,6.21 1.43,12.89 2,19.15 0.57,6.26 0.08,13 1.88,19 0.86,2.87 5,3.58 6.51,0.85 z"
             transform="translate(4.04,0.29)"
             style="fill:#901a3d"
             id="path12" />
          <path
             d="m 173.17,22.35 c 5.6,-3.86 8.22,6.36 9.46,9.7 1.79,4.86 3.75,9.63 5.73,14.42 2.22,5.35 10,4.87 10.36,-1.41 a 21,21 0 0 1 9.58,-16 c 5.85,-3.61 11.9,-2 18.22,-3.45 3.4,-0.78 4.93,-5.79 2.15,-8.14 -7.7,-6.52 -20.19,-3.4 -27.78,2 -8.53,6 -12.73,15.36 -12.71,25.67 L 198,42.4 c -3.53,-7.58 -6.67,-17.1 -12.89,-22.95 -4.16,-3.91 -10.44,-5.21 -14.33,-0.19 -1.24,1.59 0.36,4.49 2.39,3.09 z"
             transform="translate(4.04,0.29)"
             style="fill:#e6fff2"
             id="path15" />
          <path
             d="m 274.2,6.83 c 7.84,3.2 9.51,14 9.89,21.37 0.49,9.4 0.73,18.82 0.82,28.24 q 0.15,14.36 -0.32,28.72 c -0.32,9.86 -1,19.85 0,29.68 0.55,5.18 8.18,7.08 9.66,1.31 2.83,-11 3.05,-22.66 3.28,-34 q 0.36,-17.84 -0.22,-35.66 c -0.56,-17.07 0.45,-44.28 -22.16,-46.79 -4.4,-0.49 -4.37,5.7 -1,7.09 z"
             transform="translate(4.04,0.29)"
             style="fill:#e6fff2"
             id="path16" />
        </g>
      </g>
      <path
         d="m 203.62,130.9 a 15.67,15.67 0 0 1 -12.06,-15.47 96.86,96.86 0 0 1 2,-17.6 c 4.51,-23.23 0,-48.44 0,-48.44 0,0 -3.45,-27.87 11.15,-31.85 14.6,-3.98 20.57,6.63 21.9,13.93 1.33,7.3 1.33,29.53 1.33,29.53 l 36.13,-14.91 c 0,0 -7.59,-31.24 -1.62,-39.2 5.97,-7.96 24.55,-3.95 26.55,2.68 2,6.63 8,48.43 7.3,62.43 -0.7,14 -8.63,53 -19.25,55 -10.62,2 -19.54,-4.65 -20.21,-12 -0.67,-7.35 9.16,-44.38 9.16,-44.38 l -34.07,11.95 c 0,0 2,33.18 -7.3,41.8 -6.63,6.18 -13.17,8.27 -21.01,6.53 z"
         stroke="#622736"
         stroke-linecap="round"
         stroke-linejoin="round"
         stroke-width="5"
         transform="translate(4.04,0.29)"
         style="fill:none"
         id="path17" />
      <path
         d="m 210.47,34.33 c 5.3,0 5.31,-8.25 0,-8.25 -5.31,0 -5.32,8.25 0,8.25 z"
         transform="translate(4.04,0.29)"
         style="fill:#e6fff2"
         id="path26" />
      <path
         d="m 216.44,44.54 c 3.07,0 3.08,-4.78 0,-4.78 -3.08,0 -3.08,4.78 0,4.78 z"
         transform="translate(4.04,0.29)"
         style="fill:#e6fff2"
         id="path27" />
      <path
         d="m 270.78,22.45 0.09,0.67 0.45,1.06 a 3.38,3.38 0 0 0 1.15,1.25 2.12,2.12 0 0 0 1,0.57 3.38,3.38 0 0 0 1.72,0.39 l 1.18,-0.16 1.06,-0.45 a 3.3,3.3 0 0 0 1.25,-1.15 3.4,3.4 0 0 0 0.8,-1.51 l 0.09,-0.67 a 4.48,4.48 0 0 0 0,-2.41 4.64,4.64 0 0 0 -1.17,-2 l -0.92,-0.71 a 4.5,4.5 0 0 0 -2.29,-0.62 3.55,3.55 0 0 0 -1.76,0.39 3.41,3.41 0 0 0 -1.43,0.9 4.54,4.54 0 0 0 -1.17,4.42 z"
         transform="translate(4.04,0.29)"
         style="fill:#e6fff2"
         id="path28" />
    </g>
  </g>
</svg>
