<?xml version="1.0" encoding="UTF-8"?>
<svg id="Calque_2" data-name="Calque 2" xmlns="http://www.w3.org/2000/svg" xmlns:xlink="http://www.w3.org/1999/xlink" viewBox="0 0 168.47 64.71">
  <defs>
    <style>
      .cls-1 {
        fill: #782e3f;
      }

      .cls-1, .cls-2, .cls-3, .cls-4, .cls-5, .cls-6 {
        stroke-width: 0px;
      }

      .cls-2, .cls-7 {
        fill: none;
      }

      .cls-3 {
        fill: #fff;
      }

      .cls-8 {
        fill: #ffe366;
      }

      .cls-8, .cls-7 {
        stroke: #5f4600;
        stroke-linecap: round;
        stroke-linejoin: round;
        stroke-width: 2.52px;
      }

      .cls-4 {
        fill: #e16969;
      }

      .cls-9 {
        clip-path: url(#clippath);
      }

      .cls-10 {
        opacity: .49;
      }

      .cls-11 {
        opacity: .21;
      }

      .cls-5 {
        fill: #effdf3;
      }

      .cls-6 {
        fill: #f400ac;
      }
    </style>
    <clipPath id="clippath">
      <path class="cls-2" d="m14.22,57.07c-2.63.58-15.47-5.85-12.24-36.3C5.14-9.03,123.49,5,123.49,5c0,0,46.44-1.46,43.82,19.28-2.63,20.74-2.63,39.8-51.99,39.62-49.37-.18-101.09-6.83-101.09-6.83Z"/>
    </clipPath>
  </defs>
  <g id="Layer_1" data-name="Layer 1">
    <g>
      <path class="cls-8" d="m14.02,56.63c-2.63.58-15.47-5.85-12.24-36.3C4.94-9.47,123.29,4.56,123.29,4.56c0,0,46.44-1.46,43.82,19.28s-2.63,39.8-51.99,39.62-101.09-6.83-101.09-6.83Z"/>
      <g class="cls-11">
        <g class="cls-9">
          <path class="cls-5" d="m10.07,53.23c-.79-7.65-1.42-15.58-.71-23.26.62-6.71,1.31-14.9,9.04-16.53s16.63-1.73,24.72-2.22c8.78-.53,17.58-.79,26.38-.86,16.95-.13,33.9.67,50.76,2.39,8.26.84,16.55,1.81,24.73,3.26,3.44.61,6.94,1.33,10.23,2.56s6.49,3.27,9.91,4.58c4.14,1.58,7.96-3.88,5.7-7.41-4.61-7.2-13.94-9.55-21.88-11.03-9.14-1.7-18.47-2.76-27.72-3.72-20.08-2.08-40.34-2.92-60.53-2.3-9.77.3-19.54.91-29.28,1.83-8.35.79-18.87.59-25.22,7C.93,12.83-.29,21.03-.53,28.16c-.31,9.32,1.49,18.19,6.15,26.28,1.11,1.92,4.69,1.23,4.44-1.2h0Z"/>
          <path class="cls-1" d="m16.94,50.19c11.97,3.49,25.43,3,37.81,3.37,13.38.39,26.77.56,40.16.78,11.7.19,24.65,1.65,36.01-1.87,8.86-2.75,18.32-9.81,19.07-19.74.41-5.46-7.76-7.45-10.24-2.77-2.07,3.9-3.41,7-7.35,9.41s-8.64,3.28-13.21,3.58c-11.28.75-22.76.12-34.07.11s-22.85.02-34.28.16c-11.11.14-23.11-.25-33.89,2.7-2.13.58-2.08,3.67,0,4.27h0Z"/>
        </g>
      </g>
      <g>
        <path class="cls-6" d="m9.5,18.62c4.37.18,8.62-.94,12.94-1.46s8.7-.53,13.12-.33c2.88.13,2.88-4.37,0-4.48-8.39-.33-18.93,1.17-26.35,5.22-.51.28-.25,1.03.29,1.05h0Z"/>
        <path class="cls-6" d="m20.44,14.49c-2.05,5.1-3.06,10.59-4.27,15.94-1.05,4.63-2.98,8.83-4.22,13.36-.61,2.24,2,3.35,3.59,2.09,3.77-3,4.66-8.67,5.55-13.14,1.17-5.84,2.22-11.97,1.62-17.94-.13-1.33-1.78-1.53-2.27-.31h0Z"/>
        <path class="cls-6" d="m20.56,31.27c1.4-.36,2.85-.6,4.27-.9s2.96-.32,4.33-.82c1.86-.68,1.89-3.14,0-3.82-3.5-1.25-7.59.85-9.79,3.49-.76.91-.06,2.37,1.19,2.05h0Z"/>
        <path class="cls-6" d="m38.36,42.18c-2.88-3.8-4.07-8.7-2.46-13.31,1.29-3.69,6.33-8.16,9.3-3.07,1.28,2.18,1.37,5.33.84,7.69-.44,1.99-1.74,5.29-3.91,6.02-3.44,1.15-4.15-3.06-4.31-5.41-.33-5.01,1.39-10.65,6.93-11.63,2.27-.4,1.48-3.57-.51-3.75-10.1-.94-14.96,12.97-12.34,20.82,1.48,4.45,5.39,8.12,10.36,6.69,4.51-1.3,7.34-5.82,8.17-10.2,1.28-6.7-2.81-21.05-12.27-15.4-7.95,4.75-6.84,16.73-1.09,22.56.64.65,1.88-.24,1.3-1h0Z"/>
        <path class="cls-6" d="m58.97,14.11c-2.77,1.68-3.45,5.85-4.36,8.71-1.51,4.71-3.29,9.97-3.62,14.94-.58,8.76,8.99,9.75,15.31,6.93,2.18-.97,1.56-4.61-.66-5.09-1.96-.42-4.64.33-6.41-.28-2.85-.98-.96-6.33-.57-8.78.79-4.93,1.1-10.07,2.33-14.9.29-1.13-.97-2.17-2.01-1.54h0Z"/>
        <path class="cls-6" d="m74.56,15.67c-2.58,3.06-3.19,7.2-3.93,11.05-.87,4.54-2.02,9.96-1.51,14.56.72,6.51,11.37,6.65,15.5,3.67,1.38-1,1.47-3.54-.52-3.97-2.47-.53-5.15.42-7.51-.29s-1.74-1.63-1.77-3.87c-.02-1.57.19-3.17.31-4.73.38-5.07,1.97-11.17.62-16.11-.13-.48-.83-.73-1.18-.31h0Z"/>
        <path class="cls-6" d="m96.12,22.96c.15,0,.15-.24,0-.24s-.15.24,0,.24h0Z"/>
        <path class="cls-6" d="m44.94,20.58c.12.51.38.73.68,1.16.37.54.55,1.11.64,1.75l1.57-.91c-.62-.61-.97-1.24-1.13-2.09l-1.72.73c.54.99,1.05,1.99,1.52,3.02s.78,2.12,1.38,3.06c.38.61,1.6.44,1.49-.4-.29-2.3-1.66-4.62-2.76-6.63-.54-.99-1.91-.28-1.72.73.21,1.14.76,2.13,1.62,2.92.7.64,1.77.01,1.57-.91-.27-1.25-1.1-3.09-2.56-3.16-.4-.02-.65.39-.57.75h0Z"/>
        <path class="cls-6" d="m96.98,22.61c-6.75-1.46-10.41,7.15-11.47,12.46-1.28,6.39,3.52,14.52,10.89,11.3,6.79-2.97,7.46-13.03,5.75-19.2-.72-2.61-2.25-5.62-5.25-6.03-2.73-.37-4.86,1.57-4.93,4.23-.05,1.89,2.22,2.55,3.5,1.45.23-.2,1.22,6.16,1.11,7.21-.18,1.71-1.71,8.39-4.43,5.31-1.48-1.68-.1-5.81.44-7.68.81-2.75,2.02-5.94,4.59-7.5.6-.36.53-1.39-.2-1.55h0Z"/>
        <path class="cls-6" d="m113.57,21.11c-5.71,3.98-8.62,12.27-8.8,19.02-.07,2.72.85,5.69,3.68,6.69,1.13.4,2.36.35,3.46-.09,1.69-.66,2.6-3.11,4.08-3.61,1.85-.62-.49-.9.8.16.36.29.72,1.15,1.07,1.53.88.95,2.01,1.69,3.32,1.86,2.97.38,4.34-1.73,5.35-4.15,2.47-5.9,4.81-16.72.07-22.02-.87-.97-2.56-.44-2.88.76-.59,2.22-.13,4.22,0,6.47.17,3.08-.08,6.14-.85,9.12-.09.35-1.22,4.45-1.5,4.4.22.03-1.03-2.45-1.2-2.69-.81-1.14-2.12-2.36-3.65-2.3-1.62.07-2.63,1.41-3.67,2.47-.72.73-1.93,2.65-2.63,2.27-.65-.35.05-3.05.15-3.63.9-5.29,3.44-9.89,4.85-14.99.25-.9-.83-1.86-1.66-1.28h0Z"/>
        <path class="cls-4" d="m136.07,46.93c1.67-8.32,6.91-17.39,15.52-19.78.86-.24,1.21-1.21.8-1.97-2.98-5.65-10.54,1.43-12.97,4.25-4.22,4.9-6.24,10.72-5.91,17.16.07,1.39,2.25,1.85,2.55.34h0Z"/>
        <path class="cls-4" d="m136.8,22.2c7.16-.38,14.24-1.61,21.42-1.95l-1.88-1.88c-.22,6.88-5.37,13.26-3.51,20.14.26.97,1.56.86,1.86,0,2.28-6.36,5.02-13.33,5.4-20.14.06-1.02-.91-1.88-1.88-1.88-7.32-.03-15.2.79-21.9,3.91-.87.41-.44,1.85.49,1.8h0Z"/>
        <path class="cls-4" d="m136.12,22.07c3.13,1.99,6.29,3.21,8.89,6.03,2.73,2.97,4.7,6.53,6.49,10.12,1,2.01,4.41.61,3.66-1.54-1.85-5.32-4.6-10.28-7.67-14.99l-3.54,4.61c1.41.48,2.43,1.19,3.29,2.42l5.17-3.99c-1.12-.99-1.81-1.87-2.29-3.32l-5,3.85c2.26,1.22,3.32,2.83,3.73,5.36l6.89-1.9c-.37-1.13-1.41-3.29-1.24-4.47l-2.61,2.61.49-.17-2.89-.38c-.78.19-.77.72.01,1.6,1.25,3.97,7.75,3.47,7.53-1.02-.11-2.18-.37-4.32-.74-6.47l-6.47,3.77.32.55c1.62,3.38,5.96,1.81,7.09-.93.41-.79.67-1.62.79-2.5l-5.73,2.33,1.77,1.21c4.15,2.85,8.14-3.97,3.95-6.76l-1.78-1.19c-2.01-1.34-5.24-.05-5.73,2.33-.1.88-.35,1.72-.75,2.51l7.09-.93c-.42-.85-.88-1.43-1.55-2.1-2.88-2.93-7.15.15-6.47,3.77.28,1.48.45,2.91.54,4.41l7.53-1.02c-.99-3.01-2.75-7.93-6.99-6.24-1.68.67-2.59,1.8-2.75,3.61-.21,2.42.84,5.16,1.7,7.37,1.65,4.23,7.87,2.68,6.89-1.9-.88-4.11-3.42-7.46-7.18-9.34-2.42-1.21-6.09.84-5,3.85.91,2.52,2.1,4.47,4.21,6.16,2.62,2.11,7.65-.77,5.17-3.99-1.97-2.55-4.18-4.24-7.3-5.15s-5.26,3.05-3.05,5.24c3.69,3.65,7.37,7.07,8.73,12.25l3.66-1.54c-3.2-6.66-9.49-16.98-18.16-16.63-1.34.05-1.81,1.78-.68,2.5h0Z"/>
      </g>
      <path class="cls-7" d="m14.02,56.63c-2.63.58-15.47-5.85-12.24-36.3C4.94-9.47,123.29,4.56,123.29,4.56c0,0,46.44-1.46,43.82,19.28s-2.63,39.8-51.99,39.62-101.09-6.83-101.09-6.83Z"/>
      <g class="cls-10">
        <path class="cls-3" d="m17.71,19c5.59,1.02,11.54-1.47,17.04-2.38,6.72-1.1,13.5-1.09,20.26-1.78,3.65-.37,5.23-6.21.95-6.99-6.91-1.26-13.83-.72-20.71.52-5.98,1.08-14.34,2.34-18.41,7.32-.85,1.04-.73,3.02.87,3.31h0Z"/>
      </g>
      <g class="cls-10">
        <path class="cls-3" d="m74.37,13c3.79-.22,7.58.19,11.35-.14,1.68-.15,2.38-2.91.43-3.2-3.95-.58-7.84-.02-11.78.41-1.83.2-1.91,3.03,0,2.92h0Z"/>
      </g>
      <g class="cls-10">
        <path class="cls-3" d="m121.45,55.86c11.36.37,26.37-2.48,32.81-13.13,1.35-2.23-1.4-5.19-3.68-3.68-4.3,2.86-7.84,6.6-12.47,9.05-4.97,2.63-11.03,4.48-16.67,4.6-2.04.04-2.03,3.09,0,3.16h0Z"/>
      </g>
    </g>
  </g>
</svg>