<svg xmlns="http://www.w3.org/2000/svg" xmlns:xlink="http://www.w3.org/1999/xlink" viewBox="0 0 412.08 206.84"><defs><style>.cls-1,.cls-11,.cls-7{fill:none;}.cls-12,.cls-2{fill:#f391bc;}.cls-2,.cls-8{stroke:#563822;}.cls-11,.cls-12,.cls-15,.cls-2,.cls-7,.cls-8{stroke-linecap:round;stroke-linejoin:round;stroke-width:5px;}.cls-3{opacity:0.38;}.cls-4{clip-path:url(#clip-path);}.cls-5{fill:#901a3d;}.cls-6{fill:#e6fff2;}.cls-12,.cls-7{stroke:#522438;}.cls-15,.cls-8{fill:#3cc6f4;}.cls-9{opacity:0.39;}.cls-10{clip-path:url(#clip-path-2);}.cls-11,.cls-15{stroke:#1c3026;}.cls-13{opacity:0.45;}.cls-14{clip-path:url(#clip-path-3);}.cls-16{clip-path:url(#clip-path-4);}.cls-17{opacity:0.43;}.cls-18{clip-path:url(#clip-path-5);}</style><clipPath id="clip-path" transform="translate(0 5.35)"><path class="cls-1" d="M368.8,71.72C341.44,66.3,320,97.89,315,107.6c-1.28,2.47-5.83,10.62-8,15.72-9.69,23.07-10.42,29.93-9.63,40.66a31.57,31.57,0,0,0,18.06,25.73c10.21,4.79,23.23,9.79,41.78,6,32.36-6.69,43-57.53,44.48-68,.15-1,.31-2,.5-3C403.44,117.78,406.49,79.19,368.8,71.72ZM362.6,158c-8.27,7.45-12.64,7.33-16.31,6.76-15-2.33-18.37-4.61-19.83-17.54-.73-6.54,1.42-11.59,3-16.48,4.26-13.34,14.28-25.17,23.23-29.57,7.66-3.77,19.52-1.2,24,14.12,3.34,11.51-3.25,25.58-7.47,33.57A33.14,33.14,0,0,1,362.6,158Z"/></clipPath><clipPath id="clip-path-2" transform="translate(0 5.35)"><path class="cls-1" d="M277.21,52.88s15.92-10,17.25,3.32-26.64,86.93-26.64,86.93,44.56,3.68,48.54,9.14,13.27,28-6.64,30.68-67-4-73.65-13.94,0-35.83,0-35.83S253.32,72.13,277.21,52.88Z"/></clipPath><clipPath id="clip-path-3" transform="translate(0 5.35)"><path class="cls-1" d="M209.4,35.18s15.92-10,17.25,3.31S200,125.42,200,125.42s44.56,3.68,48.54,9.14,13.27,28-6.64,30.68-67-4-73.65-13.94,0-35.83,0-35.83S185.51,54.42,209.4,35.18Z"/></clipPath><clipPath id="clip-path-4" transform="translate(0 5.35)"><path class="cls-1" d="M180.37,53.21a13.9,13.9,0,0,0,6.87,0c4.92-1.19,11.64-4,10.11-10.3-1.61-6.64-9.82-11.54-14.86-14a21.9,21.9,0,0,0-8.11-2.12c-12-.8-47.48-.57-64.29,27.22-20.45,33.79-29.88,60-13.37,78.69s64.47,21,72.33,4.49,6.29-23.2.79-23.2-22.8,8.24-35.38,1.5-6.29-14.22-6.29-14.22,2-6,14.76-3.74,36.34,6.73,37.91-6-2.35-18.71-8.64-17.21c-9.65,2.29-23.95,2.24-29.27-1.5s1.75-12,4.11-13.47C149.22,58,170.91,50.67,180.37,53.21Z"/></clipPath><clipPath id="clip-path-5" transform="translate(0 5.35)"><path class="cls-1" d="M24.53,123.88c-4.17,1.25-22,4.05-22-13.28,0-23.89,27.21-90.91,27.21-90.91s5-22.41,21.9-13.58c12.14,6.33-5.8,46.1-5.8,46.1s16.38,9.52,22.8,8C77.9,57.92,80.4,35.38,87.44,22.81c7.62-13.61,12.74-25,26-18.36S116,34.16,116,34.16,98.89,67.84,95.06,98.71s-4.73,38.39-18.9,36.91C54.22,133.35,68.61,88,68.61,88s-28.95-5-30.94-8.82S35.88,120.47,24.53,123.88Z"/></clipPath></defs><g id="Calque_2" data-name="Calque 2"><g id="Warstwa_13" data-name="Warstwa 13"><path class="cls-2" d="M368.8,73.46C341.44,68,320,99.62,315,109.33c-1.28,2.48-5.83,10.62-8,15.73-9.69,23.06-10.42,29.92-9.63,40.65a31.57,31.57,0,0,0,18.06,25.73c10.21,4.79,23.23,9.79,41.78,6,32.36-6.69,43-57.52,44.48-68,.15-1,.31-2,.5-3C403.44,119.52,406.49,80.93,368.8,73.46Zm-6.2,86.29c-8.27,7.45-12.64,7.34-16.31,6.77-15-2.33-18.37-4.62-19.83-17.55-.73-6.54,1.42-11.58,3-16.48,4.26-13.34,14.28-25.16,23.23-29.57,7.66-3.77,19.52-1.2,24,14.12,3.34,11.51-3.25,25.58-7.47,33.58A33.1,33.1,0,0,1,362.6,159.75Z" transform="translate(0 5.35)"/><g class="cls-3"><g class="cls-4"><path class="cls-5" d="M314.75,107.87c-2.11,4.17-5.51,7.63-7.82,11.72a69.84,69.84,0,0,0-5.4,12.35,59.88,59.88,0,0,0-2.64,25.86c1.95,16.11,10.65,31.63,25.72,38.81,15.35,7.3,33.22,6.19,48.09-1.82,14.47-7.8,28-23.56,30.25-40.18.47-3.56-2.93-7.16-6.12-8-3.78-1-7.27.78-9.43,3.83-3.64,5.15-6.07,11.07-10,16.09a49,49,0,0,1-12.77,11.56c-9.83,6.09-22.4,7.72-33.27,3.37-11.41-4.55-17.77-16-19.66-27.64-1.09-6.74-.63-13.69.31-20.41.51-3.63,1.33-7.16,2.1-10.74.93-4.31,1.35-9.16,3.35-13.15.91-1.83-1.83-3.44-2.75-1.61Z" transform="translate(0 5.35)"/><path class="cls-5" d="M335.37,132.38c6.52-10.49,10.19-22.8,22.19-28.53,14.07-6.71,10,13.49,7.75,20.52s7.7,10.64,11.4,4.81c8.62-13.61,6-42.51-15.76-39.79-18.93,2.37-29.62,24.81-29.25,42a2,2,0,0,0,3.67,1Z" transform="translate(0 5.35)"/><path class="cls-6" d="M324,101.84c5-6.93,15.17-11.68,23-14.62,8.19-3.06,17.76-4.86,26.32-2.27,7.8,2.36,13.55,9,17.28,16a64.79,64.79,0,0,1,5.05,13.28c1.41,5,2.18,10.82,6.4,14.34,2.48,2.08,6.78,2.26,8.46-1.09,3.06-6.07,1-12.84-.75-19a74.53,74.53,0,0,0-7.49-17.86c-5.93-9.82-15.11-17.91-26.52-20.45-11.9-2.67-23.74.34-34.27,6.12a51.63,51.63,0,0,0-13.78,10.46,36,36,0,0,0-7.42,13.58c-.76,2.32,2.43,3.28,3.68,1.55Z" transform="translate(0 5.35)"/><path class="cls-6" d="M329.75,163.19c3.34,9.81,13.48,13.63,23.17,11.57,10.87-2.31,20.12-12.59,23.84-22.69,1.48-4,1.43-10.11-4.21-10.29-5.42-.18-8.66,7-11.22,10.81-5.65,8.45-18,17.84-27,7.95-1.8-2-5.42.08-4.55,2.65Z" transform="translate(0 5.35)"/></g></g><path class="cls-7" d="M368.8,72.46C341.44,67,320,98.62,315,108.33c-1.28,2.48-5.83,10.62-8,15.73-9.69,23.06-10.42,29.92-9.63,40.65a31.57,31.57,0,0,0,18.06,25.73c10.21,4.79,23.23,9.79,41.78,6,32.36-6.69,43-57.52,44.48-68,.15-1,.31-2,.5-3C403.44,118.52,406.49,79.93,368.8,72.46Zm-6.2,86.29c-8.27,7.45-12.64,7.34-16.31,6.77-15-2.33-18.37-4.62-19.83-17.55-.73-6.54,1.42-11.58,3-16.48,4.26-13.34,14.28-25.16,23.23-29.57,7.66-3.77,19.52-1.2,24,14.12,3.34,11.51-3.25,25.58-7.47,33.58A33.1,33.1,0,0,1,362.6,158.75Z" transform="translate(0 5.35)"/><path class="cls-8" d="M277.21,53.4s15.92-9.95,17.25,3.32-26.64,86.93-26.64,86.93,44.56,3.67,48.54,9.13,13.27,28-6.64,30.68-67-4-73.65-13.93,0-35.84,0-35.84S253.32,72.64,277.21,53.4Z" transform="translate(0 5.35)"/><g class="cls-9"><g class="cls-10"><path class="cls-5" d="M236.83,170.48c8.54,6.54,18.51,9.9,28.77,12.89a170.3,170.3,0,0,0,33.14,6c9.86.83,21.05.11,28.15-7.74A25.94,25.94,0,0,0,331.13,153c-2.91-6.14-11.43-4.87-14.66,0a39.74,39.74,0,0,0-4.29,9.82c-.66,1.93-1.1,3.44-2.93,4.14-2.17.83-5.38.4-7.7.32-4.05-.14-8.1-.25-12.14-.45-16.81-.85-33.44-5.1-50.22-5.1-5.06,0-5.83,6.09-2.36,8.73Z" transform="translate(0 5.35)"/><path class="cls-5" d="M272.13,138.3c6.34-13.31,10.06-27.54,14.61-41.53,4.63-14.24,10.33-28.32,14.32-42.74,1.9-6.83-8.78-11.85-11.82-5C283.11,62.9,279,78,275,92.54s-8.08,29.1-8.58,44.22c-.09,2.91,4.36,4.3,5.68,1.54Z" transform="translate(0 5.35)"/><path class="cls-6" d="M245.92,127.74c4.41-4.8,6.11-11.41,8.29-17.47,2.28-6.33,4.64-12.57,7.28-18.75a219.35,219.35,0,0,1,19.61-36A6.89,6.89,0,0,0,277,45.4a7.12,7.12,0,0,0-7.78,3.16,223.14,223.14,0,0,0-20.14,37.72,168,168,0,0,0-6.78,19.8c-1.77,6.4-3.7,13.78-1.68,20.25.68,2.2,3.64,3.24,5.32,1.41Z" transform="translate(0 5.35)"/></g></g><path class="cls-11" d="M277.21,53.15s15.92-9.95,17.25,3.32-26.64,86.93-26.64,86.93,44.56,3.67,48.54,9.14,13.27,28-6.64,30.68-67-4-73.65-13.94,0-35.83,0-35.83S253.32,72.4,277.21,53.15Z" transform="translate(0 5.35)"/><path class="cls-12" d="M209.48,34.69s15.93-10,17.26,3.32-26.64,86.93-26.64,86.93,44.55,3.67,48.54,9.13,13.27,28-6.64,30.68-67-4-73.66-13.93,0-35.84,0-35.84S185.6,53.93,209.48,34.69Z" transform="translate(0 5.35)"/><g class="cls-13"><g class="cls-14"><path class="cls-6" d="M218.92,29.87c-8.06,2.1-12.9,8.32-17.6,14.79A137.75,137.75,0,0,0,188.44,67a182,182,0,0,0-9.21,23.54c-2.58,8.25-5.21,17.66-4.87,26.38a3.63,3.63,0,0,0,7.09,1c2.72-7.46,4-15.57,6.29-23.21A166,166,0,0,1,196,72.44a217.42,217.42,0,0,1,11-20.44c3.91-6.56,7.78-14,13.63-19.07,1.44-1.24-.1-3.49-1.77-3.06Z" transform="translate(0 5.35)"/><path class="cls-5" d="M227.21,29.72c-5.37,4.67-8.42,13.14-11.06,19.62-3.1,7.62-5.81,15.39-8.6,23.12-5.4,14.93-12.6,30.37-13.91,46.33-.85,10.43,15.61,10.47,16.32,0,.5-7.45,3.39-14.61,5.64-21.67,2.39-7.49,4.57-15.06,6.84-22.59s4.74-15,6.54-22.68c1.52-6.46,3.76-14.46,2.31-21-.42-1.91-2.78-2.21-4.08-1.08Z" transform="translate(0 5.35)"/><path class="cls-5" d="M167.17,151.58c4.63,5.41,12.38,7.36,19,9.28a202.48,202.48,0,0,0,21.38,4.78q11,1.92,22.05,3.14c7,.75,16.58,3.57,22-2,1.94-2,2.93-6,1.09-8.4-2.77-3.66-5.3-4.76-9.8-5.16-3.49-.3-7-.56-10.46-.91-7.18-.72-14.35-1.57-21.49-2.62-6.95-1-13.88-2.15-20.82-3.2s-14.72-3-21.45-.61a3.47,3.47,0,0,0-1.51,5.72Z" transform="translate(0 5.35)"/><path class="cls-5" d="M249.62,159.21c3.48-3.63,4.88-9.2,4.7-14.17-.17-4.41-1.45-10.61-5.36-13.07a3.21,3.21,0,0,0-4.68,1.9c-.86,3.62.71,7.42.67,11.17,0,4-.88,7.87-1,11.84a3.34,3.34,0,0,0,5.63,2.33Z" transform="translate(0 5.35)"/></g></g><path class="cls-7" d="M209.48,34.69s15.93-10,17.26,3.32-26.64,86.93-26.64,86.93,44.55,3.67,48.54,9.13,13.27,28-6.64,30.68-67-4-73.66-13.93,0-35.84,0-35.84S185.6,53.93,209.48,34.69Z" transform="translate(0 5.35)"/><path class="cls-15" d="M179.88,53.3a13.86,13.86,0,0,0,6.86,0c4.92-1.19,11.65-4,10.12-10.3C195.25,36.36,187,31.46,182,29a21.8,21.8,0,0,0-8.11-2.12c-12-.8-47.48-.57-64.29,27.22-20.44,33.79-29.88,60-13.37,78.69s64.47,21,72.33,4.49,6.29-23.2.79-23.2-22.8,8.23-35.38,1.5-6.29-14.22-6.29-14.22,2-6,14.76-3.75,36.35,6.74,37.92-6S178,72.94,171.7,74.43c-9.65,2.3-23.95,2.25-29.27-1.49s1.75-12,4.11-13.47C148.72,58.08,170.41,50.75,179.88,53.3Z" transform="translate(0 5.35)"/><g class="cls-3"><g class="cls-16"><path class="cls-5" d="M147.68,65.08c.14-2,2.94-4.92,4.36-6,2.64-2.1,6.31-2.93,9.56-3.37,7.47-1,15.35.27,22.75,1.37,3.88.57,7.71-1,8.88-5,1-3.42-1.2-8.29-5-8.88-12-1.86-24.4-3.51-36,1-9.74,3.8-17,12.73-10.61,22.6a3.31,3.31,0,0,0,6.11-1.65Z" transform="translate(0 5.35)"/><path class="cls-5" d="M135,102.15c-2.95-4.71,14.6-2.19,16.19-1.79,6.24,1.54,12.52,4.54,19,4.57,7.43,0,7.93-9.82,1.65-12.25-5.41-2.08-11.59-3.39-17.26-4.69s-12.06-2-17.78,0c-4.11,1.47-8.55,4.11-9.74,8.63a8.16,8.16,0,0,0,4.07,9.36c2.39,1.23,5.42-1.34,3.85-3.85Z" transform="translate(0 5.35)"/><path class="cls-5" d="M92.84,120.16c-1.46,15.86,16.1,24.43,28.89,28.27,15.13,4.53,33.33,4.31,47.68-2.73,7.48-3.67,2.24-15.71-5.63-13.37-12.33,3.68-23.85,5.78-36.65,2.72-10.52-2.52-22.32-8.35-29.17-17-1.79-2.26-4.91-.15-5.12,2.12Z" transform="translate(0 5.35)"/><path class="cls-6" d="M115,55.37A68.64,68.64,0,0,1,149.5,37.22a76.92,76.92,0,0,1,22.72-.62,94,94,0,0,1,11.31,1.91c3.06.71,6,2.28,9.05,2.7,3.63.49,6.8-2.74,4.87-6.34-3.57-6.65-14-7.14-20.6-8a91.89,91.89,0,0,0-28.19.35c-15.38,2.71-30.26,11-37.22,25.44-1.08,2.24,1.61,4.58,3.53,2.73Z" transform="translate(0 5.35)"/><path class="cls-6" d="M140.79,76.34c6.68,1.43,13.16,3,20,4,5.4.78,12.06,3,17.12.57,2.24-1.1,1.62-3.94,0-5.18-4.29-3.27-11.93-2.25-17.14-2.53-6.58-.36-13-.06-19.53,0-1.75,0-2.23,2.74-.42,3.13Z" transform="translate(0 5.35)"/><path class="cls-6" d="M124.41,115.43c4.74,6.68,13.39,7.48,21,7.77,7,.27,20.22.38,24.48-6.14a3.27,3.27,0,0,0-1.93-4.75c-3.17-1-5.66.26-8.78,1A71.17,71.17,0,0,1,149,115.05c-5.88.54-15.78,1.4-20.5-2.74-2.06-1.81-5.85.59-4.05,3.12Z" transform="translate(0 5.35)"/></g></g><path class="cls-11" d="M179.88,53.21a13.86,13.86,0,0,0,6.86,0c4.92-1.19,11.65-4,10.12-10.3-1.61-6.64-9.82-11.54-14.87-14a21.8,21.8,0,0,0-8.11-2.12c-12-.8-47.48-.57-64.29,27.22-20.44,33.79-29.88,60-13.37,78.69s64.47,21,72.33,4.49,6.29-23.2.79-23.2-22.8,8.24-35.38,1.5-6.29-14.22-6.29-14.22,2-6,14.76-3.74,36.35,6.73,37.92-6S178,72.85,171.7,74.35c-9.65,2.29-23.95,2.24-29.27-1.5s1.75-12,4.11-13.47C148.72,58,170.41,50.67,179.88,53.21Z" transform="translate(0 5.35)"/><path class="cls-12" d="M24.53,123.88c-4.17,1.25-22,4.05-22-13.28,0-23.89,27.21-90.91,27.21-90.91s5-22.41,21.9-13.58c12.14,6.33-5.8,46.1-5.8,46.1s16.38,9.52,22.8,8C77.9,57.92,80.4,35.38,87.44,22.81c7.62-13.61,12.74-25,26-18.36S116,34.16,116,34.16,98.89,67.84,95.06,98.71s-4.73,38.39-18.9,36.91C54.22,133.35,68.61,88,68.61,88s-28.95-5-30.94-8.82S35.88,120.47,24.53,123.88Z" transform="translate(0 5.35)"/><g class="cls-17"><g class="cls-18"><path class="cls-5" d="M38.4,76.69c.32,5.67,9.81,7.77,14.14,9,3,.84,6.45,1.4,9.15,3.11,2,1.24,3,3.07,5.24,3.9,4.78,1.71,8.14-3.33,7.45-7.45C72.7,75,38,68.93,38.4,76.69Z" transform="translate(0 5.35)"/><path class="cls-5" d="M121.63,8.26c-4.34,3.33-6.4,9.25-8.84,14-3,5.75-5.78,11.55-8.64,17.34-5.57,11.24-10.59,22.58-14,34.68s-4.85,24.28-7.23,36.53c-1.1,5.62-2.54,10.07-6.56,14.17-3.71,3.77-8.73,4.18-12.66,7.48-3.35,2.8-1.66,7.57,1.25,9.72C70,145.94,77,143.3,81.6,140c4.93-3.54,7.72-7.83,9.94-13.42,4.91-12.4,5-26.25,8.14-39.15,3.2-13.1,7.48-26,11.6-38.83,2.06-6.44,4.38-12.78,6.8-19.09,2.24-5.87,6.76-13.3,6.38-19.64-.08-1.25-1.61-2.56-2.83-1.62Z" transform="translate(0 5.35)"/><path class="cls-5" d="M34.3,74.35c-3.84,2.44-4.87,6.17-6.51,10.22Q25.09,91.25,23,98.13c-2.68,8.91-4.46,18.3-7.89,27-1.33,3.35.87,7.92,3.9,9.57a13.77,13.77,0,0,0,2,.86c4.64,1.55,8.88-1.84,10.44-5.92,3.31-8.74,4.58-18.25,6.13-27.43.79-4.68,1.44-9.4,1.84-14.12.37-4.42,1.21-8.69-1.19-12.65a3,3,0,0,0-4-1Z" transform="translate(0 5.35)"/><path class="cls-5" d="M49.32,49.16c5.82-3.23,7.21-12.9,9.15-18.7,1.15-3.46,2.41-6.9,3.67-10.32,1.49-4,3.64-7.79,3.72-12.16C66,1.82,58.27-1,54,3.07c-5.6,5.35-7.8,16.17-9.47,23.56-1.46,6.41-4.21,16.63.85,22a3.3,3.3,0,0,0,3.92.51Z" transform="translate(0 5.35)"/><path class="cls-6" d="M77.39,60.8c10.85-6,13.36-17.75,17.87-28.37A74.28,74.28,0,0,1,104,17.07c3.82-5.13,9.48-8.89,12.89-14.21,2.42-3.78-1.65-9.56-6.09-7.92-5.87,2.17-10.42,7.5-14.3,12.27a72.47,72.47,0,0,0-9.94,15.55c-5,11.06-7.85,23-13.27,33.94a3,3,0,0,0,4.1,4.1Z" transform="translate(0 5.35)"/><path class="cls-6" d="M38.92.75C26.49,18.28,19.54,39.52,13.52,60A304.45,304.45,0,0,0,5.81,90.73c-1,5.31-1.72,10.66-2.41,16-.72,5.56-1.66,11.17-.2,16.68,1,3.85,7.35,5.26,9.17,1.19,2.05-4.59,2.47-9.31,3-14.27.62-5.46,1.45-10.88,2.34-16.3,1.71-10.5,3.5-20.89,6.14-31.2C29.15,42.32,37.82,23.1,44.15,3c1-3.27-3.45-4.72-5.23-2.21Z" transform="translate(0 5.35)"/></g></g><path class="cls-7" d="M24.53,123.88c-4.17,1.25-22,4.05-22-13.28,0-23.89,27.21-90.91,27.21-90.91s5-22.41,21.9-13.58c12.14,6.33-5.8,46.1-5.8,46.1s16.38,9.52,22.8,8C77.9,57.92,80.4,35.38,87.44,22.81c7.62-13.61,12.74-25,26-18.36S116,34.16,116,34.16,98.89,67.84,95.06,98.71s-4.73,38.39-18.9,36.91C54.22,133.35,68.61,88,68.61,88s-28.95-5-30.94-8.82S35.88,120.47,24.53,123.88Z" transform="translate(0 5.35)"/><path class="cls-6" d="M43,11.37c-4.82,5.46-6.91,14.32-9.41,21A195.16,195.16,0,0,0,25.74,57c-.77,3.36,3.83,4.48,5.06,1.39,3.08-7.72,5.5-15.67,8.16-23.54,2.36-7,6.7-14.89,6.92-22.29A1.71,1.71,0,0,0,43,11.37Z" transform="translate(0 5.35)"/><path class="cls-6" d="M19.74,75v.67a3,3,0,0,0,.78,1.88,2,2,0,0,0,.86.56,2.13,2.13,0,0,0,1,.23l.71-.1a2.67,2.67,0,0,0,1.18-.69,2.75,2.75,0,0,0,.78-1.88V75a3,3,0,0,0-.78-1.89,2,2,0,0,0-.86-.55,2,2,0,0,0-1-.23l-.71.1a2.55,2.55,0,0,0-1.18.68A2.78,2.78,0,0,0,19.74,75Z" transform="translate(0 5.35)"/><path class="cls-6" d="M101.69,13.63A178.08,178.08,0,0,0,86.32,48.44c-1,3.23,3.78,4.39,5,1.37,4.5-11.43,8.92-22.93,13.72-34.24.94-2.21-2.06-4.16-3.32-1.94Z" transform="translate(0 5.35)"/><path class="cls-6" d="M81.87,64.37l0,.46a1.71,1.71,0,0,0,.2.89,1.77,1.77,0,0,0,.47.74,1.71,1.71,0,0,0,.74.47,1.78,1.78,0,0,0,.88.2,2.31,2.31,0,0,0,1.62-.67L86.1,66a2.35,2.35,0,0,0,.32-1.16l0-.46a1.7,1.7,0,0,0-.19-.86,1.73,1.73,0,0,0-.47-.73,1.62,1.62,0,0,0-.72-.46,1.74,1.74,0,0,0-.87-.2,2.31,2.31,0,0,0-1.59.66l-.35.46a2.26,2.26,0,0,0-.31,1.13Z" transform="translate(0 5.35)"/><path class="cls-6" d="M130.18,49.19c6.54-1.89,12.4-5.35,19.12-6.87a87.17,87.17,0,0,1,21.19-1.85c2.94.06,3.46-4.25.69-5.06-13.54-3.93-34.16-1-43,11.23-.91,1.26.59,3,2,2.55Z" transform="translate(0 5.35)"/><path class="cls-6" d="M120,61c4.22,0,4.23-6.56,0-6.56S115.73,61,120,61Z" transform="translate(0 5.35)"/><path class="cls-6" d="M197.23,132.11c3.15.82,5.85,2.6,8.92,3.63,3.32,1.12,6.74,1.92,10.13,2.85,6.05,1.67,12.17,3.95,18.48,4.25,2.83.13,3.76-3.89,1.42-5.25-5.73-3.31-12.6-4.48-19-5.87-2.77-.6-5.56-1.25-8.37-1.63-3.78-.52-7.5.13-11.25-.38-1.38-.18-1.63,2.06-.33,2.4Z" transform="translate(0 5.35)"/><path class="cls-6" d="M273.11,152.43c4.25,4.31,12.94,4.79,18.64,5.95s13.83,3.89,19.41,1.33a2.83,2.83,0,0,0,.57-4.42c-4.46-4.16-13.1-4-18.93-4.67s-14.09-2.87-19.44-.11a1.24,1.24,0,0,0-.25,1.92Z" transform="translate(0 5.35)"/><path class="cls-6" d="M185.88,115.23C188,103,193,90.83,197.93,79.46c2.41-5.52,5.21-10.81,8.08-16.1,2.74-5,6.87-10.15,8.13-15.8.4-1.81-1.57-3.66-3.31-2.54-4.89,3.15-7.87,9-10.74,13.89A132.53,132.53,0,0,0,192,76c-5.08,12.49-7,25.16-9.07,38.39-.3,1.93,2.63,2.79,3,.82Z" transform="translate(0 5.35)"/><path class="cls-6" d="M251.52,122.71c6.64-16.22,17.53-30.61,23.73-47,1-2.62-2.9-4.79-4.7-2.73-11.95,13.65-17.06,31.94-23.19,48.59-1,2.63,3.13,3.65,4.16,1.14Z" transform="translate(0 5.35)"/><path class="cls-6" d="M361.15,77.8a8.59,8.59,0,0,0-1.88.31,4.59,4.59,0,0,0-3,2.21A4.21,4.21,0,0,0,361,86.47c1.88-.44,3.15-2.28,3.69-4.07a3.67,3.67,0,0,0-3.51-4.6Z" transform="translate(0 5.35)"/><path class="cls-6" d="M353.56,175.77c19.15-1.08,32.29-22.19,36.71-38.84,1.11-4.2-5.42-7.33-7.29-3.07-3.56,8.13-6.53,16.56-12.08,23.62-5,6.37-11.34,10.64-18.38,14.45-1.76.95-1,4,1,3.84Z" transform="translate(0 5.35)"/><path class="cls-6" d="M342.92,94.85c5.91,0,5.92-9.19,0-9.19s-5.92,9.19,0,9.19Z" transform="translate(0 5.35)"/></g></g></svg>