<?xml version="1.0" encoding="UTF-8" standalone="no"?>
<svg
   viewBox="0 0 107.62563 137.38762"
   style="fill:#000000"
   original_string_length="10136"
   width="39.514999"
   height="50.287998"
   version="1.1"
   id="svg28"
   sodipodi:docname="lol-purple-o.svg"
   inkscape:version="1.4.2 (f4327f4, 2025-05-13)"
   xmlns:inkscape="http://www.inkscape.org/namespaces/inkscape"
   xmlns:sodipodi="http://sodipodi.sourceforge.net/DTD/sodipodi-0.dtd"
   xmlns="http://www.w3.org/2000/svg"
   xmlns:svg="http://www.w3.org/2000/svg">
  <sodipodi:namedview
     id="namedview28"
     pagecolor="#ffffff"
     bordercolor="#999999"
     borderopacity="1"
     inkscape:showpageshadow="2"
     inkscape:pageopacity="0"
     inkscape:pagecheckerboard="0"
     inkscape:deskcolor="#d1d1d1"
     inkscape:zoom="9.5094092"
     inkscape:cx="54.262046"
     inkscape:cy="40.643955"
     inkscape:window-width="1920"
     inkscape:window-height="991"
     inkscape:window-x="-9"
     inkscape:window-y="-9"
     inkscape:window-maximized="1"
     inkscape:current-layer="svg28" />
  <defs
     id="defs3">
    <clipPath
       id="__id18_sirgy15ajn">
      <path
         d="M 15.29,156.4 C 13.56,146.19 7.62,123.13 5.52,113 -3.25,70.66 8.11,69.47 26.34,65.81 c 18.88,-3.79 27.46,41.7 30,65.08 A 139.44,139.44 0 0 0 59,146.24 136.63,136.63 0 0 1 61.84,164 l 0.46,5 c 0,0 45.82,-27.13 57.54,-11.87 15.59,20.27 4.31,29.9 -3,33.63 -4.43,2.27 -8.83,4.6 -13.09,7.17 -15.06,9.06 -47.09,26 -63.49,17 C 25,206.63 19.74,182.63 15.29,156.4 Z"
         style="fill:none"
         id="path1" />
    </clipPath>
    <clipPath
       id="__id19_sirgy15ajn">
      <path
         d="M 93.24,59.56 C 70.3,75.41 78,112.81 81.48,123.18 c 0.88,2.64 3.56,11.58 5.73,16.67 9.8,23 14.21,28.33 22.46,35.23 a 31.56,31.56 0 0 0 31,5 c 10.55,-4 23.2,-9.84 33.38,-25.82 17.74,-27.87 -11.35,-70.9 -17.8,-79.27 -0.61,-0.8 -1.2,-1.6 -1.78,-2.42 -4.05,-5.78 -29.61,-34.85 -61.23,-13.01 z m 57.6,64.56 c -0.41,11.12 -3.54,14.17 -6.5,16.41 -12.11,9.12 -16.11,10 -26.4,2 -5.21,-4 -7.33,-9.08 -9.75,-13.61 -6.61,-12.35 -8.11,-27.78 -5,-37.27 2.63,-8.12 12.74,-14.83 26.83,-7.36 10.59,5.62 16.09,20.15 18.88,28.75 a 32.81,32.81 0 0 1 1.94,11.08 z"
         style="fill:none"
         id="path2" />
    </clipPath>
    <clipPath
       id="__id20_sirgy15ajn">
      <path
         d="M 163.65,93.73 C 161.92,83.52 155.98,60.46 153.88,50.32 145.1,8 156.47,6.8 174.69,3.14 c 18.89,-3.79 27.47,41.7 30,65.08 a 139.35,139.35 0 0 0 2.58,15.35 135,135 0 0 1 2.9,17.76 l 0.45,5 c 0,0 45.82,-27.13 57.55,-11.87 15.53,20.2 4.39,29.83 -2.92,33.59 -4.47,2.31 -8.92,4.66 -13.24,7.25 -15.08,9.07 -47,25.92 -63.41,17 C 173.38,144 168.1,120 163.65,93.73 Z"
         style="fill:none"
         id="path3" />
    </clipPath>
  </defs>
  <g
     data-name="Calque 2"
     id="g28"
     transform="translate(-74.409728,-47.978473)">
    <g
       data-name="Warstwa 12"
       id="g27">
      <path
         d="M 93.24,59.14 C 70.3,75 78,112.39 81.48,122.76 c 0.88,2.64 3.56,11.58 5.73,16.67 9.8,23 14.21,28.33 22.46,35.23 a 31.56,31.56 0 0 0 31,5 c 10.55,-4 23.2,-9.84 33.38,-25.82 17.74,-27.87 -11.35,-70.89 -17.8,-79.27 -0.61,-0.8 -1.2,-1.6 -1.78,-2.42 C 150.42,66.37 124.86,37.3 93.24,59.14 Z m 57.6,64.56 c -0.41,11.12 -3.54,14.17 -6.5,16.41 -12.11,9.12 -16.11,10 -26.4,2 -5.21,-4 -7.33,-9.08 -9.75,-13.61 -6.61,-12.35 -8.11,-27.78 -5,-37.27 2.63,-8.11 12.74,-14.83 26.83,-7.36 10.59,5.62 16.09,20.15 18.88,28.75 a 32.85,32.85 0 0 1 1.94,11.08 z"
         stroke="#563821"
         stroke-linecap="round"
         stroke-linejoin="round"
         stroke-width="5"
         style="fill:#edd633"
         id="path5" />
      <g
         opacity="0.55"
         id="g9">
        <g
           clip-path="url(#__id18_sirgy15ajn)"
           id="g8" />
      </g>
      <g
         opacity="0.55"
         id="g13">
        <g
           clip-path="url(#__id19_sirgy15ajn)"
           id="g12">
          <path
             d="m 85.89,139.31 c 3.47,11.8 10.71,22.62 18.79,31.81 9.07,10.32 21.19,17.13 35.27,14.92 12.17,-1.91 25.36,-8.08 34.11,-16.85 4.57,-4.58 8.7,-10.42 8.84,-17.14 0.13,-6.23 -2,-12.46 -7.33,-15.91 a 5.18,5.18 0 0 0 -7,1.83 c -1.88,3.15 -2.13,6.67 -3.73,9.85 a 29.18,29.18 0 0 1 -7.3,9.35 51.79,51.79 0 0 1 -24.3,11.27 c -9.11,1.42 -16.59,-4.49 -23.33,-9.86 -7.81,-6.22 -14.24,-13.74 -21,-21.05 a 1.84,1.84 0 0 0 -3.06,1.78 z"
             style="fill:#901a3d"
             id="path9" />
          <path
             d="m 111.87,98.22 c -2.27,-5.93 -2.24,-13.38 4,-16.91 5.61,-3.19 11.15,2 13.8,6.6 3.5,6 5.52,13.24 7.16,20 1.51,6.27 1,15.21 5.79,19.94 2.5,2.48 6,1.58 7.95,-1 3.18,-4.37 1.71,-10.37 0.86,-15.32 a 110.46,110.46 0 0 0 -4.32,-16.92 c -3.23,-9.45 -7.76,-19.76 -17.16,-24.53 -8.23,-4.17 -18.48,-2.62 -24,5.21 -5.4,7.61 -3.95,17.71 1.47,24.81 1.5,2 5.53,1 4.45,-1.88 z"
             style="fill:#901a3d"
             id="path10" />
          <path
             d="m 87.58,124.21 c -1.46,-19.49 -6,-39.57 8.67,-55.46 5.15,-5.59 12.3,-10.24 20.07,-10.68 8.7,-0.5 18.34,3.65 25.75,7.9 4.71,2.69 9.13,-2.55 7,-7 -2.58,-5.44 -7.21,-8 -12.56,-10.28 -5.79,-2.45 -11.7,-4.43 -18.05,-4.55 -11.2,-0.22 -22,5.07 -29.5,13.22 -16.16,17.54 -16.92,47.85 -5.14,67.89 1,1.64 3.91,1 3.75,-1 z"
             style="fill:#e6fff2"
             id="path11" />
          <path
             d="m 132.12,149.33 c 5.54,0.84 11.41,0.1 16.2,-3 4.79,-3.1 9.54,-8.31 9.62,-14.12 0.06,-3.82 -4.77,-4.6 -6.72,-1.82 -2.39,3.39 -3.53,7 -6.71,10 a 21.38,21.38 0 0 1 -12,5.91 c -1.55,0.2 -2.31,2.76 -0.41,3 z"
             style="fill:#e6fff2"
             id="path12" />
        </g>
      </g>
      <g
         opacity="0.55"
         id="g16">
        <g
           clip-path="url(#__id20_sirgy15ajn)"
           id="g15" />
      </g>
      <path
         d="m 159.21,79 c -1.19,-1.74 -2.2,-3.11 -2.92,-4 -0.72,-0.89 -1.2,-1.6 -1.78,-2.42 -4.09,-5.74 -29.65,-34.81 -61.27,-13 -22.94,15.83 -15.24,53.23 -11.76,63.6 0.88,2.64 3.56,11.58 5.73,16.67 9.8,23 14.21,28.33 22.46,35.23 a 31.56,31.56 0 0 0 31,5 c 10.55,-4 23.2,-9.84 33.38,-25.82 a 35.27,35.27 0 0 0 4.59,-11.06 m -27.84,-19 c -0.41,11.12 -3.54,14.17 -6.5,16.41 -12.11,9.12 -16.11,10 -26.4,2 -5.21,-4 -7.33,-9.08 -9.75,-13.61 -6.61,-12.35 -8.11,-27.78 -5,-37.27 2.63,-8.12 12.74,-14.83 26.83,-7.36 10.59,5.62 16.09,20.15 18.88,28.75 a 32.81,32.81 0 0 1 1.98,11 z"
         stroke="#563821"
         stroke-linecap="round"
         stroke-linejoin="round"
         stroke-width="5"
         style="fill:none"
         id="path17" />
      <path
         d="m 94.58,65.91 h -0.07 a 3.49,3.49 0 0 0 -1.3,1.2 3.61,3.61 0 0 0 -0.84,1.58 L 92.21,70 a 4.63,4.63 0 0 0 0.63,2.35 3.93,3.93 0 0 0 1.59,1.65 5,5 0 0 0 2.22,0.59 h 0.21 l 1.24,-0.17 a 3.45,3.45 0 0 0 1.58,-0.83 2.41,2.41 0 0 0 0.84,-0.84 3.5,3.5 0 0 0 0.83,-1.58 v -0.08 l 0.17,-1.23 -0.17,-1.23 -0.46,-1.11 a 3.57,3.57 0 0 0 -1.2,-1.3 2.38,2.38 0 0 0 -1,-0.59 2.29,2.29 0 0 0 -1.17,-0.32 2.33,2.33 0 0 0 -1.23,0 3.46,3.46 0 0 0 -1.72,0.55 z"
         style="fill:#e6fff2"
         id="path21" />
      <path
         d="m 85.82,86.45 v 0.26 0.1 0 a 2.6,2.6 0 0 0 0.3,1.35 1.82,1.82 0 0 0 0.46,0.78 0.94,0.94 0 0 0 0.3,0.38 l 0.7,0.54 0.83,0.35 a 2.88,2.88 0 0 0 0.93,0.14 c 0.09,0 0.8,-0.1 0.88,-0.13 v 0 a 2.47,2.47 0 0 0 0.42,-0.17 2.64,2.64 0 0 0 1.12,-0.72 v 0 l 0.55,-0.72 a 4,4 0 0 0 0.5,-1.92 V 86.43 A 2.58,2.58 0 0 0 92.5,85.06 2.76,2.76 0 0 0 91.77,83.91 2.66,2.66 0 0 0 90.62,83.18 2.58,2.58 0 0 0 89.25,82.87 L 88.3,83 a 3.56,3.56 0 0 0 -1.57,0.91 l -0.56,0.72 a 3.57,3.57 0 0 0 -0.48,1.8 z"
         style="fill:#e6fff2"
         id="path22" />
    </g>
  </g>
</svg>
