<?xml version="1.0" encoding="UTF-8" standalone="no"?>
<svg
   viewBox="0 0 130.73597 158.45696"
   style="fill:#000000"
   original_string_length="10136"
   width="48"
   height="58"
   version="1.1"
   id="svg28"
   sodipodi:docname="lol-purple-l.svg"
   inkscape:version="1.4.2 (f4327f4, 2025-05-13)"
   xmlns:inkscape="http://www.inkscape.org/namespaces/inkscape"
   xmlns:sodipodi="http://sodipodi.sourceforge.net/DTD/sodipodi-0.dtd"
   xmlns="http://www.w3.org/2000/svg"
   xmlns:svg="http://www.w3.org/2000/svg">
  <sodipodi:namedview
     id="namedview28"
     pagecolor="#ffffff"
     bordercolor="#999999"
     borderopacity="1"
     inkscape:showpageshadow="2"
     inkscape:pageopacity="0"
     inkscape:pagecheckerboard="0"
     inkscape:deskcolor="#d1d1d1"
     inkscape:zoom="9.5094092"
     inkscape:cx="54.262046"
     inkscape:cy="40.643955"
     inkscape:window-width="1920"
     inkscape:window-height="991"
     inkscape:window-x="-9"
     inkscape:window-y="-9"
     inkscape:window-maximized="1"
     inkscape:current-layer="svg28" />
  <defs
     id="defs3">
    <clipPath
       id="__id18_sirgy15ajn">
      <path
         d="M 15.29,156.4 C 13.56,146.19 7.62,123.13 5.52,113 -3.25,70.66 8.11,69.47 26.34,65.81 c 18.88,-3.79 27.46,41.7 30,65.08 A 139.44,139.44 0 0 0 59,146.24 136.63,136.63 0 0 1 61.84,164 l 0.46,5 c 0,0 45.82,-27.13 57.54,-11.87 15.59,20.27 4.31,29.9 -3,33.63 -4.43,2.27 -8.83,4.6 -13.09,7.17 -15.06,9.06 -47.09,26 -63.49,17 C 25,206.63 19.74,182.63 15.29,156.4 Z"
         style="fill:none"
         id="path1" />
    </clipPath>
    <clipPath
       id="__id19_sirgy15ajn">
      <path
         d="M 93.24,59.56 C 70.3,75.41 78,112.81 81.48,123.18 c 0.88,2.64 3.56,11.58 5.73,16.67 9.8,23 14.21,28.33 22.46,35.23 a 31.56,31.56 0 0 0 31,5 c 10.55,-4 23.2,-9.84 33.38,-25.82 17.74,-27.87 -11.35,-70.9 -17.8,-79.27 -0.61,-0.8 -1.2,-1.6 -1.78,-2.42 -4.05,-5.78 -29.61,-34.85 -61.23,-13.01 z m 57.6,64.56 c -0.41,11.12 -3.54,14.17 -6.5,16.41 -12.11,9.12 -16.11,10 -26.4,2 -5.21,-4 -7.33,-9.08 -9.75,-13.61 -6.61,-12.35 -8.11,-27.78 -5,-37.27 2.63,-8.12 12.74,-14.83 26.83,-7.36 10.59,5.62 16.09,20.15 18.88,28.75 a 32.81,32.81 0 0 1 1.94,11.08 z"
         style="fill:none"
         id="path2" />
    </clipPath>
    <clipPath
       id="__id20_sirgy15ajn">
      <path
         d="M 163.65,93.73 C 161.92,83.52 155.98,60.46 153.88,50.32 145.1,8 156.47,6.8 174.69,3.14 c 18.89,-3.79 27.47,41.7 30,65.08 a 139.35,139.35 0 0 0 2.58,15.35 135,135 0 0 1 2.9,17.76 l 0.45,5 c 0,0 45.82,-27.13 57.55,-11.87 15.53,20.2 4.39,29.83 -2.92,33.59 -4.47,2.31 -8.92,4.66 -13.24,7.25 -15.08,9.07 -47,25.92 -63.41,17 C 173.38,144 168.1,120 163.65,93.73 Z"
         style="fill:none"
         id="path3" />
    </clipPath>
  </defs>
  <g
     data-name="Calque 2"
     id="g28"
     transform="translate(-148.24486,0.5745925)">
    <g
       data-name="Warstwa 12"
       id="g27">
      <path
         d="M 163.65,93.31 C 161.92,83.1 156,60 153.88,49.9 145.1,7.58 156.47,6.38 174.69,2.72 c 18.89,-3.79 27.47,41.7 30,65.09 a 139.58,139.58 0 0 0 2.58,15.34 135,135 0 0 1 2.9,17.76 l 0.45,5 c 0,0 45.85,-27.14 57.58,-11.91 15.53,20.2 4.39,29.83 -2.92,33.6 -4.47,2.3 -8.92,4.65 -13.24,7.24 -15.08,9.07 -47,25.92 -63.41,17 -15.25,-8.3 -20.53,-32.3 -24.98,-58.53 z"
         stroke="#1c3026"
         stroke-linecap="round"
         stroke-linejoin="round"
         stroke-width="5"
         style="fill:#8c52ff"
         id="path6" />
      <g
         opacity="0.55"
         id="g9">
        <g
           clip-path="url(#__id18_sirgy15ajn)"
           id="g8" />
      </g>
      <g
         opacity="0.55"
         id="g13">
        <g
           clip-path="url(#__id19_sirgy15ajn)"
           id="g12" />
      </g>
      <g
         opacity="0.55"
         id="g16">
        <g
           clip-path="url(#__id20_sirgy15ajn)"
           id="g15">
          <path
             d="m 151.57,10.3 c -1.82,17.7 0.48,35.74 4,53.11 a 444.63,444.63 0 0 0 14.36,51.9 c 2.79,8.35 5.53,16.77 8.91,24.91 3.05,7.35 8.17,13.57 16.68,14.13 7.91,0.51 16.94,-2.28 24.68,-3.79 7.74,-1.51 15.62,-3.48 23.27,-5.75 17.92,-5.33 34.6,-13.07 49.21,-24.81 4.16,-3.35 3.49,-10.5 0,-14 -4.09,-4.09 -9.85,-3.4 -14,0 -21.52,17.65 -49.74,23.79 -76.15,30.11 -1.81,0.44 -5.42,2.07 -7,1.1 -1.75,-1.07 -2.91,-5.29 -3.69,-7.06 -3.21,-7.32 -6.23,-14.75 -8.9,-22.29 a 460.15,460.15 0 0 1 -13.51,-45.4 c -4.27,-17.62 -8,-35.52 -13.82,-52.72 a 2.08,2.08 0 0 0 -4.06,0.55 z"
             style="fill:#901a3d"
             id="path13" />
          <path
             d="m 162.54,11.05 c 3.62,-0.36 6.64,-1.45 10.26,-0.14 a 15.77,15.77 0 0 1 7.77,6.17 c 4.61,6.74 6.58,15.28 8.75,23 4.83,17.29 3.59,36.42 11.78,52.61 3.12,6.19 11.64,1.61 10.53,-4.44 -2,-11.1 -2.93,-22.37 -4.45,-33.55 A 135.8,135.8 0 0 0 198.8,23.28 C 195.3,14.39 190.34,5.91 181.1,2.1 174.31,-0.67 163,-0.34 160,7.67 a 2.69,2.69 0 0 0 2.58,3.38 z"
             style="fill:#e6fff2"
             id="path14" />
          <path
             d="m 223.22,103.42 c 8.84,-2.19 18,-4.06 27.15,-4.38 a 54.86,54.86 0 0 1 11.52,0.76 c 4.08,0.73 7.07,2.82 10.95,3.91 5.24,1.46 9.52,-4.39 6.93,-9 -5.17,-9.24 -18.56,-7.53 -27.22,-6 -11.09,1.9 -21.31,5.21 -30.74,11.43 a 1.84,1.84 0 0 0 1.41,3.34 z"
             style="fill:#e6fff2"
             id="path15" />
        </g>
      </g>
      <path
         d="M 163.65,93.73 C 161.92,83.52 155.98,60.46 153.88,50.32 145.1,8 156.47,6.8 174.69,3.14 c 18.89,-3.79 27.47,41.7 30,65.08 a 139.35,139.35 0 0 0 2.58,15.35 135,135 0 0 1 2.9,17.76 l 0.45,5 c 0,0 45.82,-27.13 57.55,-11.87 15.53,20.2 4.39,29.83 -2.92,33.59 -4.47,2.31 -8.92,4.66 -13.24,7.25 -15.08,9.07 -47,25.92 -63.41,17 C 173.38,144 168.1,120 163.65,93.73 Z"
         stroke="#1c3026"
         stroke-linecap="round"
         stroke-linejoin="round"
         stroke-width="5"
         style="fill:none"
         id="path18" />
      <path
         d="m 172.59,15.33 0.18,0.61 0.44,1 a 3.32,3.32 0 0 0 1.12,1.23 2.22,2.22 0 0 0 1,0.56 3.24,3.24 0 0 0 1.68,0.37 l 1.16,-0.15 1,-0.44 a 3.34,3.34 0 0 0 1.23,-1.13 3.36,3.36 0 0 0 0.78,-1.48 l 0.18,-0.61 a 4.73,4.73 0 0 0 0,-2.42 4.64,4.64 0 0 0 -1.17,-2 l -0.92,-0.71 a 4.64,4.64 0 0 0 -2.3,-0.62 3.51,3.51 0 0 0 -1.75,0.39 3.5,3.5 0 0 0 -1.46,0.94 4.57,4.57 0 0 0 -1.17,4.43 z"
         style="fill:#e6fff2"
         id="path23" />
      <path
         d="m 182.94,36.45 c 4.83,0 4.84,-7.5 0,-7.5 -4.84,0 -4.83,7.5 0,7.5 z"
         style="fill:#e6fff2"
         id="path24" />
      <path
         d="m 254.61,104.9 c 4.1,0 4.11,-6.37 0,-6.37 -4.11,0 -4.11,6.37 0,6.37 z"
         style="fill:#e6fff2"
         id="path25" />
      <path
         d="m 221.68,109.89 c 4.68,-1.38 9.45,-2.59 14,-4.26 3.68,-1.35 8.17,-2.45 10.89,-5.35 a 1.9,1.9 0 0 0 -1.32,-3.2 c -4,0 -7.9,2.4 -11.43,4.12 -4.39,2.14 -8.57,4.74 -12.82,7.15 a 0.85,0.85 0 0 0 0.65,1.54 z"
         style="fill:#e6fff2"
         id="path27" />
    </g>
  </g>
</svg>
