<?xml version="1.0" encoding="UTF-8"?>

<svg xmlns="http://www.w3.org/2000/svg" xmlns:xlink="http://www.w3.org/1999/xlink" viewBox="0 0 295.56 222.08" style="fill: rgb(0, 0, 0);" original_string_length="10136" width="53.09210103625211px" height="39.77081023079249px"><defs><clipPath id="__id14_sk9scs3tel"><path d="M15.29,156.4C13.56,146.19,7.62,123.13,5.52,113-3.25,70.66,8.11,69.47,26.34,65.81c18.88-3.79,27.46,41.7,30,65.08A139.44,139.44,0,0,0,59,146.24,136.63,136.63,0,0,1,61.84,164l.46,5s45.82-27.13,57.54-11.87c15.59,20.27,4.31,29.9-3,33.63-4.43,2.27-8.83,4.6-13.09,7.17-15.06,9.06-47.09,26-63.49,17C25,206.63,19.74,182.63,15.29,156.4Z" style="fill: none;"/></clipPath><clipPath id="__id15_sk9scs3tel"><path d="M93.24,59.56C70.3,75.41,78,112.81,81.48,123.18c.88,2.64,3.56,11.58,5.73,16.67,9.8,23,14.21,28.33,22.46,35.23a31.56,31.56,0,0,0,31,5c10.55-4,23.2-9.84,33.38-25.82,17.74-27.87-11.35-70.9-17.8-79.27-.61-.8-1.2-1.6-1.78-2.42C150.42,66.79,124.86,37.72,93.24,59.56Zm57.6,64.56c-.41,11.12-3.54,14.17-6.5,16.41-12.11,9.12-16.11,10-26.4,2-5.21-4-7.33-9.08-9.75-13.61-6.61-12.35-8.11-27.78-5-37.27,2.63-8.12,12.74-14.83,26.83-7.36,10.59,5.62,16.09,20.15,18.88,28.75A32.81,32.81,0,0,1,150.84,124.12Z" style="fill: none;"/></clipPath><clipPath id="__id16_sk9scs3tel"><path d="M163.65,93.73c-1.73-10.21-7.67-33.27-9.77-43.41C145.1,8,156.47,6.8,174.69,3.14c18.89-3.79,27.47,41.7,30,65.08a139.35,139.35,0,0,0,2.58,15.35,135,135,0,0,1,2.9,17.76l.45,5s45.82-27.13,57.55-11.87c15.53,20.2,4.39,29.83-2.92,33.59-4.47,2.31-8.92,4.66-13.24,7.25-15.08,9.07-47,25.92-63.41,17C173.38,144,168.1,120,163.65,93.73Z" style="fill: none;"/></clipPath></defs><g data-name="Calque 2"><g data-name="Warstwa 12"><path d="M15.29,156c-1.73-10.21-7.67-33.27-9.77-43.41C-3.25,70.25,8.11,69.05,26.34,65.39c18.88-3.79,27.46,41.7,30,65.09A139.68,139.68,0,0,0,59,145.82a136.63,136.63,0,0,1,2.89,17.76l.46,5s45.82-27.13,57.54-11.87c15.59,20.27,4.31,29.9-3,33.64-4.43,2.26-8.83,4.59-13.09,7.16-15.06,9.06-47.09,26-63.49,17C25,206.21,19.74,182.21,15.29,156Z" stroke="#1c3026" stroke-linecap="round" stroke-linejoin="round" stroke-width="5" style="fill: rgb(121, 255, 163);"/><path d="M93.24,59.14C70.3,75,78,112.39,81.48,122.76c.88,2.64,3.56,11.58,5.73,16.67,9.8,23,14.21,28.33,22.46,35.23a31.56,31.56,0,0,0,31,5c10.55-4,23.2-9.84,33.38-25.82,17.74-27.87-11.35-70.89-17.8-79.27-.61-.8-1.2-1.6-1.78-2.42C150.42,66.37,124.86,37.3,93.24,59.14Zm57.6,64.56c-.41,11.12-3.54,14.17-6.5,16.41-12.11,9.12-16.11,10-26.4,2-5.21-4-7.33-9.08-9.75-13.61-6.61-12.35-8.11-27.78-5-37.27,2.63-8.11,12.74-14.83,26.83-7.36,10.59,5.62,16.09,20.15,18.88,28.75A32.85,32.85,0,0,1,150.84,123.7Z" stroke="#563821" stroke-linecap="round" stroke-linejoin="round" stroke-width="5" style="fill: rgb(255, 222, 89);"/><path d="M163.65,93.31C161.92,83.1,156,60,153.88,49.9,145.1,7.58,156.47,6.38,174.69,2.72c18.89-3.79,27.47,41.7,30,65.09a139.58,139.58,0,0,0,2.58,15.34,135,135,0,0,1,2.9,17.76l.45,5S256.47,78.77,268.2,94c15.53,20.2,4.39,29.83-2.92,33.6-4.47,2.3-8.92,4.65-13.24,7.24-15.08,9.07-47,25.92-63.41,17C173.38,143.54,168.1,119.54,163.65,93.31Z" stroke="#1c3026" stroke-linecap="round" stroke-linejoin="round" stroke-width="5" style="fill: rgb(121, 255, 163);"/><g opacity=".55"><g clip-path="url(#__id14_sk9scs3tel)"><path d="M5.12,86.51c-.47,20,2.12,39.81,6.11,59.37,3.79,18.55,8.2,37.75,16.17,55,3.26,7.09,8.2,13.87,15.08,17.83,9.39,5.39,19.85,3.26,29.72.58,19.31-5.25,38.63-12.21,56.17-21.94,4.85-2.68,6.44-9.33,3.69-14-3.06-5.22-9-5.94-14-3.68-15.67,6.95-31.33,13.6-47.79,18.5-5.8,1.73-14.2,5.77-19.6,1.47-4.22-3.37-6.73-9.46-8.64-14.35C29.19,152.6,22.44,117.75,8.09,85.7c-.68-1.52-2.94-.65-3,.81Z" style="fill: rgb(144, 26, 61);"/><path d="M6,79.89c5.16-2.68,12-3.51,17.76-4.22,2.36-.28,5.69-.62,7.81.71s3,4.13,4,6.17Q45,101.08,54.2,119.72c2.8,5.68,11.36,1.63,9.93-4.19A174.11,174.11,0,0,0,55.4,88.6C52.33,81.34,49.27,72.73,43.62,67,32.11,55.34,10.93,63.54,2.06,74.73c-2.25,2.84.48,7,4,5.16Z" style="fill: rgb(230, 255, 242);"/></g></g><g opacity=".55"><g clip-path="url(#__id15_sk9scs3tel)"><path d="M85.89,139.31c3.47,11.8,10.71,22.62,18.79,31.81,9.07,10.32,21.19,17.13,35.27,14.92,12.17-1.91,25.36-8.08,34.11-16.85,4.57-4.58,8.7-10.42,8.84-17.14.13-6.23-2-12.46-7.33-15.91a5.18,5.18,0,0,0-7,1.83c-1.88,3.15-2.13,6.67-3.73,9.85a29.18,29.18,0,0,1-7.3,9.35,51.79,51.79,0,0,1-24.3,11.27c-9.11,1.42-16.59-4.49-23.33-9.86-7.81-6.22-14.24-13.74-21-21.05a1.84,1.84,0,0,0-3.06,1.78Z" style="fill: rgb(144, 26, 61);"/><path d="M111.87,98.22c-2.27-5.93-2.24-13.38,4-16.91,5.61-3.19,11.15,2,13.8,6.6,3.5,6,5.52,13.24,7.16,20,1.51,6.27,1,15.21,5.79,19.94,2.5,2.48,6,1.58,7.95-1,3.18-4.37,1.71-10.37.86-15.32a110.46,110.46,0,0,0-4.32-16.92c-3.23-9.45-7.76-19.76-17.16-24.53-8.23-4.17-18.48-2.62-24,5.21C100.55,82.9,102,93,107.42,100.1c1.5,2,5.53,1,4.45-1.88Z" style="fill: rgb(144, 26, 61);"/><path d="M87.58,124.21c-1.46-19.49-6-39.57,8.67-55.46,5.15-5.59,12.3-10.24,20.07-10.68,8.7-.5,18.34,3.65,25.75,7.9,4.71,2.69,9.13-2.55,7-7-2.58-5.44-7.21-8-12.56-10.28-5.79-2.45-11.7-4.43-18.05-4.55-11.2-.22-22,5.07-29.5,13.22-16.16,17.54-16.92,47.85-5.14,67.89,1,1.64,3.91,1,3.75-1Z" style="fill: rgb(230, 255, 242);"/><path d="M132.12,149.33c5.54.84,11.41.1,16.2-3s9.54-8.31,9.62-14.12c.06-3.82-4.77-4.6-6.72-1.82-2.39,3.39-3.53,7-6.71,10a21.38,21.38,0,0,1-12,5.91c-1.55.2-2.31,2.76-.41,3Z" style="fill: rgb(230, 255, 242);"/></g></g><g opacity=".55"><g clip-path="url(#__id16_sk9scs3tel)"><path d="M151.57,10.3c-1.82,17.7.48,35.74,4,53.11a444.63,444.63,0,0,0,14.36,51.9c2.79,8.35,5.53,16.77,8.91,24.91,3.05,7.35,8.17,13.57,16.68,14.13,7.91.51,16.94-2.28,24.68-3.79s15.62-3.48,23.27-5.75c17.92-5.33,34.6-13.07,49.21-24.81,4.16-3.35,3.49-10.5,0-14-4.09-4.09-9.85-3.4-14,0-21.52,17.65-49.74,23.79-76.15,30.11-1.81.44-5.42,2.07-7,1.1-1.75-1.07-2.91-5.29-3.69-7.06-3.21-7.32-6.23-14.75-8.9-22.29a460.15,460.15,0,0,1-13.51-45.4c-4.27-17.62-8-35.52-13.82-52.72a2.08,2.08,0,0,0-4.06.55Z" style="fill: rgb(144, 26, 61);"/><path d="M162.54,11.05c3.62-.36,6.64-1.45,10.26-.14a15.77,15.77,0,0,1,7.77,6.17c4.61,6.74,6.58,15.28,8.75,23,4.83,17.29,3.59,36.42,11.78,52.61,3.12,6.19,11.64,1.61,10.53-4.44-2-11.1-2.93-22.37-4.45-33.55a135.8,135.8,0,0,0-8.38-31.42c-3.5-8.89-8.46-17.37-17.7-21.18C174.31-.67,163-.34,160,7.67a2.69,2.69,0,0,0,2.58,3.38Z" style="fill: rgb(230, 255, 242);"/><path d="M223.22,103.42c8.84-2.19,18-4.06,27.15-4.38a54.86,54.86,0,0,1,11.52.76c4.08.73,7.07,2.82,10.95,3.91,5.24,1.46,9.52-4.39,6.93-9-5.17-9.24-18.56-7.53-27.22-6-11.09,1.9-21.31,5.21-30.74,11.43a1.84,1.84,0,0,0,1.41,3.34Z" style="fill: rgb(230, 255, 242);"/></g></g><path d="M126.41,181.49c-2.06,4.62-6.22,7.56-9.56,9.26-4.43,2.27-8.83,4.6-13.09,7.17-15.06,9.06-47.09,26-63.49,17-15.25-8.31-20.53-32.31-25-58.54C13.56,146.19,7.62,123.13,5.52,113-3.25,70.66,8.11,69.47,26.34,65.81c18.88-3.79,27.46,41.7,30,65.08A139.44,139.44,0,0,0,59,146.24,136.63,136.63,0,0,1,61.84,164l.46,5s15.38-9.11,30.61-13.81" stroke="#1c3026" stroke-linecap="round" stroke-linejoin="round" stroke-width="5" style="fill: none;"/><path d="M159.21,79c-1.19-1.74-2.2-3.11-2.92-4s-1.2-1.6-1.78-2.42c-4.09-5.74-29.65-34.81-61.27-13C70.3,75.41,78,112.81,81.48,123.18c.88,2.64,3.56,11.58,5.73,16.67,9.8,23,14.21,28.33,22.46,35.23a31.56,31.56,0,0,0,31,5c10.55-4,23.2-9.84,33.38-25.82a35.27,35.27,0,0,0,4.59-11.06m-27.84-19c-.41,11.12-3.54,14.17-6.5,16.41-12.11,9.12-16.11,10-26.4,2-5.21-4-7.33-9.08-9.75-13.61-6.61-12.35-8.11-27.78-5-37.27,2.63-8.12,12.74-14.83,26.83-7.36,10.59,5.62,16.09,20.15,18.88,28.75A32.81,32.81,0,0,1,150.84,124.12Z" stroke="#563821" stroke-linecap="round" stroke-linejoin="round" stroke-width="5" style="fill: none;"/><path d="M163.65,93.73c-1.73-10.21-7.67-33.27-9.77-43.41C145.1,8,156.47,6.8,174.69,3.14c18.89-3.79,27.47,41.7,30,65.08a139.35,139.35,0,0,0,2.58,15.35,135,135,0,0,1,2.9,17.76l.45,5s45.82-27.13,57.55-11.87c15.53,20.2,4.39,29.83-2.92,33.59-4.47,2.31-8.92,4.66-13.24,7.25-15.08,9.07-47,25.92-63.41,17C173.38,144,168.1,120,163.65,93.73Z" stroke="#1c3026" stroke-linecap="round" stroke-linejoin="round" stroke-width="5" style="fill: none;"/><path d="M27.72,79.76l0,.09a4.13,4.13,0,0,0,1.05,4l.11.1a4.08,4.08,0,0,0,2.79,1.15l1-.14a4,4,0,0,0,1.74-1l.11-.1a4.13,4.13,0,0,0,1.05-4l0-.09-.41-1a3.2,3.2,0,0,0-1-1.14,2,2,0,0,0-.9-.52,3.08,3.08,0,0,0-1.56-.35l-1.09.14-1,.41a3.2,3.2,0,0,0-1.14,1.05,3.16,3.16,0,0,0-.73,1.39Z" style="fill: rgb(230, 255, 242);"/><path d="M36.29,95.24c3.62,0,3.63-5.63,0-5.63s-3.62,5.63,0,5.63Z" style="fill: rgb(230, 255, 242);"/><path d="M94.58,65.91l-.07,0a3.49,3.49,0,0,0-1.3,1.2,3.61,3.61,0,0,0-.84,1.58L92.21,70a4.63,4.63,0,0,0,.63,2.35A3.93,3.93,0,0,0,94.43,74a5,5,0,0,0,2.22.59l.21,0,1.24-.17a3.45,3.45,0,0,0,1.58-.83,2.41,2.41,0,0,0,.84-.84,3.5,3.5,0,0,0,.83-1.58l0-.08.17-1.23-.17-1.23-.46-1.11a3.57,3.57,0,0,0-1.2-1.3,2.38,2.38,0,0,0-1-.59,2.29,2.29,0,0,0-1.17-.32,2.33,2.33,0,0,0-1.23,0,3.46,3.46,0,0,0-1.72.55Z" style="fill: rgb(230, 255, 242);"/><path d="M85.82,86.45l0,.26,0,.1v0a2.6,2.6,0,0,0,.3,1.35,1.82,1.82,0,0,0,.46.78.94.94,0,0,0,.3.38l.7.54.83.35a2.88,2.88,0,0,0,.93.14c.09,0,.8-.1.88-.13h0a2.47,2.47,0,0,0,.42-.17,2.64,2.64,0,0,0,1.12-.72l0,0,.55-.72a4,4,0,0,0,.5-1.92l0-.26a2.58,2.58,0,0,0-.31-1.37,2.76,2.76,0,0,0-.73-1.15,2.66,2.66,0,0,0-1.15-.73,2.58,2.58,0,0,0-1.37-.31l-.95.13a3.56,3.56,0,0,0-1.57.91l-.56.72a3.57,3.57,0,0,0-.48,1.8Z" style="fill: rgb(230, 255, 242);"/><path d="M172.59,15.33l.18.61.44,1a3.32,3.32,0,0,0,1.12,1.23,2.22,2.22,0,0,0,1,.56,3.24,3.24,0,0,0,1.68.37l1.16-.15,1-.44a3.34,3.34,0,0,0,1.23-1.13,3.36,3.36,0,0,0,.78-1.48l.18-.61a4.73,4.73,0,0,0,0-2.42,4.64,4.64,0,0,0-1.17-2l-.92-.71a4.64,4.64,0,0,0-2.3-.62,3.51,3.51,0,0,0-1.75.39,3.5,3.5,0,0,0-1.46.94,4.57,4.57,0,0,0-1.17,4.43Z" style="fill: rgb(230, 255, 242);"/><path d="M182.94,36.45c4.83,0,4.84-7.5,0-7.5s-4.83,7.5,0,7.5Z" style="fill: rgb(230, 255, 242);"/><path d="M254.61,104.9c4.1,0,4.11-6.37,0-6.37s-4.11,6.37,0,6.37Z" style="fill: rgb(230, 255, 242);"/><path d="M70,174c7.31-1.09,14.21-2.53,20.34-6.89a1.89,1.89,0,0,0-1.45-3.43c-7.1,1-13.35,3.88-19.94,6.52a2,2,0,0,0,1,3.8Z" style="fill: rgb(230, 255, 242);"/><path d="M221.68,109.89c4.68-1.38,9.45-2.59,14-4.26,3.68-1.35,8.17-2.45,10.89-5.35a1.9,1.9,0,0,0-1.32-3.2c-4,0-7.9,2.4-11.43,4.12-4.39,2.14-8.57,4.74-12.82,7.15a.85.85,0,0,0,.65,1.54Z" style="fill: rgb(230, 255, 242);"/></g></g></svg>