<?xml version="1.0" encoding="UTF-8" standalone="no"?>
<svg
   data-name="Calque 2"
   viewBox="0 0 122.88 51.23"
   style="fill: rgb(0, 0, 0);"
   original_string_length="4993"
   width="290.02654131257646px"
   height="120.22918439866805px"
   version="1.1"
   id="svg15"
   sodipodi:docname="seo_blue_without_lletters.svg"
   inkscape:version="1.4.2 (f4327f4, 2025-05-13)"
   xmlns:inkscape="http://www.inkscape.org/namespaces/inkscape"
   xmlns:sodipodi="http://sodipodi.sourceforge.net/DTD/sodipodi-0.dtd"
   xmlns="http://www.w3.org/2000/svg"
   xmlns:svg="http://www.w3.org/2000/svg">
  <sodipodi:namedview
     id="namedview15"
     pagecolor="#ffffff"
     bordercolor="#999999"
     borderopacity="1"
     inkscape:showpageshadow="2"
     inkscape:pageopacity="0"
     inkscape:pagecheckerboard="0"
     inkscape:deskcolor="#d1d1d1"
     inkscape:zoom="2.1613544"
     inkscape:cx="119.3696"
     inkscape:cy="55.289406"
     inkscape:window-width="1188"
     inkscape:window-height="981"
     inkscape:window-x="0"
     inkscape:window-y="0"
     inkscape:window-maximized="0"
     inkscape:current-layer="g14" />
  <defs
     id="defs1">
    <clipPath
       id="__id13_shkjcn6lqwb">
      <path
         d="m121.1,38.17l-7.47-15.35c-.7-1.44-2.03-2.47-3.59-2.78l-.1-.02c-.54-.34-1.15-.59-1.81-.72L17.93,1.36c-2.42-.48-4.86.73-5.94,2.94L1.82,25.03c-1.59,3.25.37,7.11,3.92,7.75l95.39,17.11c2.8.5,5.51-1.24,6.22-3.99l9.33-.36c3.7-.14,6.04-4.04,4.42-7.37Z"
         stroke-width="0"
         style="fill: none;"
         id="path1" />
    </clipPath>
  </defs>
  <g
     data-name="Layer 1"
     id="g15">
    <g
       id="g14">
      <path
         d="m121.1,38.17l-7.47-15.35c-.7-1.44-2.03-2.47-3.59-2.78l-10.88-2.2c-3.39-.69-6.47,2.11-6.12,5.55l1.86,18.18c.28,2.69,2.59,4.71,5.3,4.6l16.49-.63c3.7-.14,6.04-4.04,4.42-7.37Z"
         stroke="#000068"
         stroke-linecap="round"
         stroke-linejoin="round"
         stroke-width="2.52"
         style="fill: rgb(93, 114, 201);"
         id="path2" />
      <path
         d="m107.37,45.86l4.98-19.91c.75-3.02-1.17-6.05-4.22-6.65L17.93,1.36c-2.42-.48-4.86.73-5.94,2.94L1.82,25.03c-1.59,3.25.37,7.11,3.92,7.75l95.39,17.11c2.82.51,5.54-1.26,6.24-4.03Z"
         stroke="#000068"
         stroke-linecap="round"
         stroke-linejoin="round"
         stroke-width="2.52"
         style="fill: rgb(93, 114, 201);"
         id="path3" />
      <g
         opacity=".31"
         id="g6">
        <g
           clip-path="url(#__id13_shkjcn6lqwb)"
           id="g5">
          <path
             d="m.32,29.19c4.09,3.79,10.08,5.37,15.24,7.24,5.66,2.05,11.47,3.6,17.31,5.08,11.97,3.02,24.14,5.17,36.37,6.82,5.83.78,11.68,1.45,17.55,1.95,5.29.46,11.43,1.66,16.71.61,10.86-2.15,11.83-18.06,12.88-26.84l-9.9,4.1c3.33,4.05,2.39,11.14,4.23,15.96s5.28,9.16,10.88,9.29c4.74.11,6.28-5.49,3.6-8.7-3.02-3.61-4.21-6.06-4.95-10.82-.83-5.33-2.07-9.72-5.55-13.94s-9.4-.31-9.9,4.1c-.28,2.48-.69,4.93-1.22,7.38-.39,1.8-.69,5.53-1.85,6.98.03.91-.35,1.35-1.16,1.32-1.11-.02-2.22-.06-3.33-.13-2.53-.12-5.06-.28-7.58-.47-9.92-.72-19.8-1.84-29.62-3.43-9.69-1.56-19.33-3.5-28.88-5.74-4.94-1.15-9.85-2.36-14.81-3.46-4.52-1-9.3-2.75-13.95-2.27-2.32.24-4.05,3.1-2.05,4.95H.32Z"
             style="fill: rgb(120, 45, 62);"
             id="path4" />
          <path
             d="m6.24,20.91c3.33-2.2,5.86-5.42,8.58-8.32,1.5-1.61,3.07-4.22,5.33-4.66,1.39-.27,4.1,1.07,5.6,1.43,9.04,2.19,18.21,3.96,27.35,5.68,17.49,3.29,35.84,6.57,53.67,6.96,4.06.09,5.05-6.29.97-7.18-20-4.35-40.55-6.65-60.68-10.42-5.06-.95-10.09-1.98-15.14-2.98-4.11-.82-9.02-2.54-13.22-1.95s-5.91,4.34-7.93,7.58c-2.42,3.88-5.4,7.73-6.85,12.08-.43,1.28,1.19,2.53,2.32,1.78h0Z"
             style="fill: rgb(239, 253, 243);"
             id="path5" />
        </g>
      </g>
      <path
         d="m107.31,45.9l9.37-.36c3.7-.14,6.04-4.04,4.42-7.37l-7.47-15.35"
         stroke="#000068"
         stroke-linecap="round"
         stroke-linejoin="round"
         stroke-width="2.52"
         style="fill: none;"
         id="path6" />
      <path
         d="m107.37,45.86l4.98-19.91c.75-3.02-1.17-6.05-4.22-6.65L17.93,1.36c-2.42-.48-4.86.73-5.94,2.94L1.82,25.03c-1.59,3.25.37,7.11,3.92,7.75l95.39,17.11c2.82.51,5.54-1.26,6.24-4.03Z"
         stroke="#000068"
         stroke-linecap="round"
         stroke-linejoin="round"
         stroke-width="2.52"
         style="fill: none;"
         id="path7" />
      <path
         d="m10.78,24.91c2.43-5.28,5.82-9.69,8.79-14.63.97-1.61-1.32-3.44-2.63-2.03-3.92,4.23-6.5,9.9-8.73,15.16-.73,1.72,1.76,3.26,2.57,1.5h0Z"
         style="fill: rgb(255, 255, 255);"
         id="path12" />
      <path
         d="m23.17,9.88c.27.01.52-.05.75-.17.24-.08.45-.21.63-.4.19-.18.33-.39.4-.63.12-.23.18-.48.17-.75l-.07-.52c-.09-.33-.26-.62-.5-.86l-.4-.31c-.31-.18-.63-.27-.99-.27-.27-.01-.52.05-.75.17-.24.08-.45.21-.63.4-.19.18-.33.39-.4.63-.12.23-.18.48-.17.75l.07.52c.09.33.26.62.5.86l.4.31c.31.18.63.27.99.27h0Z"
         style="fill: rgb(255, 255, 255);"
         id="path13" />
      <path
         d="m104.08,26.82c-1.13,1.71-1.63,3.47-2.21,5.43s-1.53,4.07-1.85,6.15c-.26,1.74,2,3.01,3.02,1.27,1.07-1.84,1.55-4.04,2.11-6.07.59-2.14,1.06-4.07.77-6.28-.13-.95-1.27-1.38-1.85-.5h0Z"
         style="fill: rgb(255, 255, 255);"
         id="path14" />
    </g>
  </g>
</svg>
