<?xml version="1.0" encoding="UTF-8" standalone="no"?>
<svg
   data-name="Calque 2"
   viewBox="0 0 68.93702 32.088681"
   style="fill:#000000"
   original_string_length="4993"
   width="142.02699"
   height="66.11042"
   version="1.1"
   id="svg15"
   sodipodi:docname="seo_blue_letters.svg"
   inkscape:version="1.4.2 (f4327f4, 2025-05-13)"
   xmlns:inkscape="http://www.inkscape.org/namespaces/inkscape"
   xmlns:sodipodi="http://sodipodi.sourceforge.net/DTD/sodipodi-0.dtd"
   xmlns="http://www.w3.org/2000/svg"
   xmlns:svg="http://www.w3.org/2000/svg">
  <sodipodi:namedview
     id="namedview15"
     pagecolor="#ffffff"
     bordercolor="#999999"
     borderopacity="1"
     inkscape:showpageshadow="2"
     inkscape:pageopacity="0"
     inkscape:pagecheckerboard="0"
     inkscape:deskcolor="#d1d1d1"
     inkscape:zoom="2.1613544"
     inkscape:cx="102.2507"
     inkscape:cy="55.289406"
     inkscape:window-width="1188"
     inkscape:window-height="981"
     inkscape:window-x="0"
     inkscape:window-y="0"
     inkscape:window-maximized="0"
     inkscape:current-layer="g14" />
  <defs
     id="defs1">
    <clipPath
       id="__id13_shkjcn6lqwb">
      <path
         d="m 121.1,38.17 -7.47,-15.35 c -0.7,-1.44 -2.03,-2.47 -3.59,-2.78 l -0.1,-0.02 c -0.54,-0.34 -1.15,-0.59 -1.81,-0.72 L 17.93,1.36 C 15.51,0.88 13.07,2.09 11.99,4.3 L 1.82,25.03 c -1.59,3.25 0.37,7.11 3.92,7.75 l 95.39,17.11 c 2.8,0.5 5.51,-1.24 6.22,-3.99 l 9.33,-0.36 c 3.7,-0.14 6.04,-4.04 4.42,-7.37 z"
         stroke-width="0"
         style="fill:none"
         id="path1" />
    </clipPath>
  </defs>
  <g
     data-name="Layer 1"
     id="g15">
    <g
       id="g14">
      <g
         opacity="0.31"
         id="g6"
         transform="translate(-23.804645,-8.7583127)">
        <g
           clip-path="url(#__id13_shkjcn6lqwb)"
           id="g5" />
      </g>
      <path
         d="m 16.395355,5.5716873 0.55,-0.21 c 1.11,-0.43 1.69,-1.82 0.73,-2.76 -2.28,-2.21000002 -7.06,-2.14000002 -10.01,-1.79000002 C 4.2653552,1.2116873 0.95535518,3.5616873 1.1853552,7.3316873 c 0.23,3.9399997 3.8799998,5.9199997 7.3799998,6.4299997 1.54,0.23 6.34,0.34 3.17,2.29 -2.03,1.25 -4.42,1.63 -6.43,0.26 -2.7399998,-1.88 -5.33999982,2.11 -3.3699998,4.37 4.3699998,5 17.1499998,1.34 17.1299998,-5.81 -0.01,-3.8 -3.77,-5.7699997 -7.01,-6.3199997 -1.71,-0.29 -7.28,-0.62 -3.72,-2.8 0.82,-0.5 6.62,-1.25 7.42,-0.35 0.14,0.16 0.44,0.25 0.64,0.17 z"
         style="fill:#b60044;fill-opacity:1"
         id="path8" />
      <path
         d="m 42.985355,7.8316873 c -1.23,-1.08 -2.41,-1.61 -4.06,-1.83 -2.13,-0.29 -4.5,-0.48 -6.62,-0.62 -4.08,-0.27 -4.4,5.8299997 -5.13,8.6699997 -0.73,2.84 -1.53,5.62 -2,8.45 -0.27,1.61 -0.5,2.85 0.76,4.07 2.88,2.78 9.5,2.86 13.02,1.7 2.43,-0.8 1.9,-4.16 -0.59,-4.35 -2.99,-0.23 -7.01,0.31 -9.62,-1.53 l 1.26,2.19 c -0.07,-2.77 1.08,-5.85 1.7,-8.53 0.33,-1.41 0.67,-2.82 1.03,-4.22 0.14,-0.56 1.1,-3.0099997 0.6,-2.5199997 l -2.29,0.61 c 1.77,0.2499997 3.33,0.6699997 5.15,0.5799997 1.95,-0.1 3.77,-0.38 5.73,-0.13 1.28,0.17 1.96,-1.7399997 1.05,-2.5399997 v 0 z"
         style="fill:#b80043;fill-opacity:1"
         id="path9" />
      <path
         d="m 30.245355,18.151687 c 2.41,0.13 4.63,0.92 6.98,1.35 2.2,0.41 3.85,-2.64 1.62,-3.84 -2.65,-1.41 -5.67,-1.54 -8.6,-1.24 -2.36,0.24 -2.43,3.59 0,3.73 z"
         style="fill:#b80043;fill-opacity:1"
         id="path10" />
      <path
         d="m 54.275355,27.211687 c -0.86,-3.39 -0.37,-9.65 2.68,-12.08 4.25,-3.4 7.08,3.12 5.76,6.52 -0.61,1.58 -2.14,3.52 -3.87,3.96 -2.46,0.62 -3.13,-1.26 -3.16,-3.35 -0.04,-3.53 3.08,-13.4599997 7.2,-6.68 0.71,1.17 2.53,0.11 1.83,-1.07 -1.73,-2.9 -5.12,-5.4799997 -8.55,-3.99 -3.43,1.49 -5.55,5.84 -6.1,9.43 -0.6,3.93 -0.07,9.39 4.14,11.12 3.76,1.54 8.13,-0.39 10.72,-3.22 5.01,-5.47 4.43,-16.69 -4.37,-17.82 -8.8,-1.1299997 -10.91,11.61 -8.93,17.9 0.52,1.68 3.07,0.99 2.64,-0.73 v 0 z"
         style="fill:#b80043;fill-opacity:1"
         id="path11" />
    </g>
  </g>
</svg>
