<?xml version="1.0" encoding="UTF-8" standalone="no"?>
<svg
   data-name="Calque 2"
   viewBox="0 0 122.88 51.23"
   style="fill: rgb(0, 0, 0);"
   original_string_length="4993"
   version="1.1"
   id="svg15"
   sodipodi:docname="seo_red_letters.svg"
   inkscape:version="1.4.2 (f4327f4, 2025-05-13)"
   xmlns:inkscape="http://www.inkscape.org/namespaces/inkscape"
   xmlns:sodipodi="http://sodipodi.sourceforge.net/DTD/sodipodi-0.dtd"
   xmlns="http://www.w3.org/2000/svg"
   xmlns:svg="http://www.w3.org/2000/svg">
  <sodipodi:namedview
     id="namedview15"
     pagecolor="#ffffff"
     bordercolor="#999999"
     borderopacity="1"
     inkscape:showpageshadow="2"
     inkscape:pageopacity="0"
     inkscape:pagecheckerboard="0"
     inkscape:deskcolor="#d1d1d1"
     inkscape:zoom="14.428711"
     inkscape:cx="61.474652"
     inkscape:cy="25.608663"
     inkscape:window-width="1920"
     inkscape:window-height="991"
     inkscape:window-x="-9"
     inkscape:window-y="-9"
     inkscape:window-maximized="1"
     inkscape:current-layer="svg15" />
  <defs
     id="defs1">
    <clipPath
       id="__id85_smrkmvuini">
      <path
         d="m121.1,38.17l-7.47-15.35c-.7-1.44-2.03-2.47-3.59-2.78l-.1-.02c-.54-.34-1.15-.59-1.81-.72L17.93,1.36c-2.42-.48-4.86.73-5.94,2.94L1.82,25.03c-1.59,3.25.37,7.11,3.92,7.75l95.39,17.11c2.8.5,5.51-1.24,6.22-3.99l9.33-.36c3.7-.14,6.04-4.04,4.42-7.37Z"
         stroke-width="0"
         style="fill: none;"
         id="path1" />
    </clipPath>
  </defs>
  <g
     data-name="Layer 1"
     id="g15">
    <g
       id="g14">
      <g
         opacity=".31"
         id="g6">
        <g
           clip-path="url(#__id85_smrkmvuini)"
           id="g5" />
      </g>
      <path
         d="m107.31,45.9l9.37-.36c3.7-.14,6.04-4.04,4.42-7.37l-7.47-15.35"
         stroke="#000068"
         stroke-linecap="round"
         stroke-linejoin="round"
         stroke-width="2.52"
         style="fill: none;"
         id="path6" />
      <path
         d="m40.2,14.33l.55-.21c1.11-.43,1.69-1.82.73-2.76-2.28-2.21-7.06-2.14-10.01-1.79-3.4.4-6.71,2.75-6.48,6.52.23,3.94,3.88,5.92,7.38,6.43,1.54.23,6.34.34,3.17,2.29-2.03,1.25-4.42,1.63-6.43.26-2.74-1.88-5.34,2.11-3.37,4.37,4.37,5,17.15,1.34,17.13-5.81-.01-3.8-3.77-5.77-7.01-6.32-1.71-.29-7.28-.62-3.72-2.8.82-.5,6.62-1.25,7.42-.35.14.16.44.25.64.17h0Z"
         style="fill: rgb(254, 222, 0);"
         id="path8" />
      <path
         d="m66.79,16.59c-1.23-1.08-2.41-1.61-4.06-1.83-2.13-.29-4.5-.48-6.62-.62-4.08-.27-4.4,5.83-5.13,8.67s-1.53,5.62-2,8.45c-.27,1.61-.5,2.85.76,4.07,2.88,2.78,9.5,2.86,13.02,1.7,2.43-.8,1.9-4.16-.59-4.35-2.99-.23-7.01.31-9.62-1.53l1.26,2.19c-.07-2.77,1.08-5.85,1.7-8.53.33-1.41.67-2.82,1.03-4.22.14-.56,1.1-3.01.6-2.52l-2.29.61c1.77.25,3.33.67,5.15.58,1.95-.1,3.77-.38,5.73-.13,1.28.17,1.96-1.74,1.05-2.54h0Z"
         style="fill: rgb(254, 222, 0);"
         id="path9" />
      <path
         d="m54.05,26.91c2.41.13,4.63.92,6.98,1.35,2.2.41,3.85-2.64,1.62-3.84-2.65-1.41-5.67-1.54-8.6-1.24-2.36.24-2.43,3.59,0,3.73h0Z"
         style="fill: rgb(254, 222, 0);"
         id="path10" />
      <path
         d="m78.08,35.97c-.86-3.39-.37-9.65,2.68-12.08,4.25-3.4,7.08,3.12,5.76,6.52-.61,1.58-2.14,3.52-3.87,3.96-2.46.62-3.13-1.26-3.16-3.35-.04-3.53,3.08-13.46,7.2-6.68.71,1.17,2.53.11,1.83-1.07-1.73-2.9-5.12-5.48-8.55-3.99s-5.55,5.84-6.1,9.43c-.6,3.93-.07,9.39,4.14,11.12,3.76,1.54,8.13-.39,10.72-3.22,5.01-5.47,4.43-16.69-4.37-17.82s-10.91,11.61-8.93,17.9c.52,1.68,3.07.99,2.64-.73h0Z"
         style="fill: rgb(254, 222, 0);"
         id="path11" />
      <path
         d="m10.78,24.91c2.43-5.28,5.82-9.69,8.79-14.63.97-1.61-1.32-3.44-2.63-2.03-3.92,4.23-6.5,9.9-8.73,15.16-.73,1.72,1.76,3.26,2.57,1.5h0Z"
         style="fill: rgb(255, 255, 255);"
         id="path12" />
      <path
         d="m23.17,9.88c.27.01.52-.05.75-.17.24-.08.45-.21.63-.4.19-.18.33-.39.4-.63.12-.23.18-.48.17-.75l-.07-.52c-.09-.33-.26-.62-.5-.86l-.4-.31c-.31-.18-.63-.27-.99-.27-.27-.01-.52.05-.75.17-.24.08-.45.21-.63.4-.19.18-.33.39-.4.63-.12.23-.18.48-.17.75l.07.52c.09.33.26.62.5.86l.4.31c.31.18.63.27.99.27h0Z"
         style="fill: rgb(255, 255, 255);"
         id="path13" />
      <path
         d="m104.08,26.82c-1.13,1.71-1.63,3.47-2.21,5.43s-1.53,4.07-1.85,6.15c-.26,1.74,2,3.01,3.02,1.27,1.07-1.84,1.55-4.04,2.11-6.07.59-2.14,1.06-4.07.77-6.28-.13-.95-1.27-1.38-1.85-.5h0Z"
         style="fill: rgb(255, 255, 255);"
         id="path14" />
    </g>
  </g>
</svg>
