<?xml version="1.0" encoding="UTF-8" standalone="no"?>
<svg
   id="Calque_2"
   data-name="Calque 2"
   viewBox="0 0 175.5 67.25"
   version="1.1"
   sodipodi:docname="subscribe-without-text.svg"
   inkscape:version="1.4.2 (f4327f4, 2025-05-13)"
   xmlns:inkscape="http://www.inkscape.org/namespaces/inkscape"
   xmlns:sodipodi="http://sodipodi.sourceforge.net/DTD/sodipodi-0.dtd"
   xmlns="http://www.w3.org/2000/svg"
   xmlns:svg="http://www.w3.org/2000/svg">
  <sodipodi:namedview
     id="namedview24"
     pagecolor="#ffffff"
     bordercolor="#999999"
     borderopacity="1"
     inkscape:showpageshadow="2"
     inkscape:pageopacity="0"
     inkscape:pagecheckerboard="0"
     inkscape:deskcolor="#d1d1d1"
     inkscape:zoom="7.1435916"
     inkscape:cx="73.632429"
     inkscape:cy="34.926409"
     inkscape:window-width="1920"
     inkscape:window-height="991"
     inkscape:window-x="-9"
     inkscape:window-y="-9"
     inkscape:window-maximized="1"
     inkscape:current-layer="Calque_2" />
  <defs
     id="defs1">
    <style
       id="style1">
      .cls-1, .cls-2 {
        stroke: #3d0a0a;
        stroke-linecap: round;
        stroke-linejoin: round;
        stroke-width: 2.52px;
      }

      .cls-1, .cls-3 {
        fill: none;
      }

      .cls-2 {
        fill: #e16969;
      }

      .cls-4 {
        fill: #782e3f;
      }

      .cls-4, .cls-3, .cls-5, .cls-6, .cls-7 {
        stroke-width: 0px;
      }

      .cls-5 {
        fill: #fff;
      }

      .cls-8 {
        clip-path: url(#clippath);
      }

      .cls-9 {
        opacity: .49;
      }

      .cls-6 {
        fill: #ffe76a;
      }

      .cls-7 {
        fill: #effdf3;
      }

      .cls-10 {
        opacity: .27;
      }
    </style>
    <clipPath
       id="clippath">
      <path
         class="cls-3"
         d="m59.56,55.81c-4.6-.7-9.62-1.19-14.24-1.74-14.53-1.72-47.4.22-43.78-22.4,1.84-11.45,4.07-18.63,5.97-23.06,1.75-4.08,5.92-6.56,10.33-6.14,23.82,2.26,108.3,13.05,125.08,16.95,17.91,4.17,33.34,1.49,30.43,25.11-1.24,10.03-5.74,17.66-11.41,21.13-4.56,2.8-14.5.53-19.79-.27l-82.58-9.58Z"
         id="path1" />
    </clipPath>
  </defs>
  <g
     id="Layer_1"
     data-name="Layer 1">
    <g
       id="g24">
      <path
         class="cls-2"
         d="m60.11,54.79c-4.6-.7-9.62-1.19-14.24-1.74-14.53-1.72-47.4.22-43.78-22.4,1.84-11.45,4.07-18.63,5.97-23.06,1.75-4.08,5.92-6.56,10.33-6.14,23.82,2.26,108.3,13.05,125.08,16.95,17.91,4.17,33.34,1.49,30.43,25.11-1.24,10.03-5.74,17.66-11.41,21.13-4.56,2.8-14.5.53-19.79-.27l-82.58-9.58Z"
         id="path2" />
      <g
         class="cls-10"
         id="g5">
        <g
           class="cls-8"
           clip-path="url(#clippath)"
           id="g4">
          <path
             class="cls-7"
             d="m7.62,44.62c3.21-7.4,3.72-15.88,6.05-23.63.79-2.64,1.6-8.51,4.11-9.98,2.16-1.27,7.21.19,9.61.4,17.35,1.51,34.64,3.64,51.8,6.58,34,5.83,66.72,15.17,99.5,25.71,5.13,1.65,9.75-5.72,5.43-9.33-11.11-9.29-26.77-20.11-42.12-17.66-3.56.57-4.39,6.51-1.04,7.97,6.05,2.64,12.63,3.51,18.67,6.25s11.97,6.49,16.59,11.33l5.43-9.33c-35.6-13.79-73.77-22.59-111.45-28.26-9.23-1.39-18.5-2.6-27.78-3.57-5-.52-10.02-.94-15.04-1.31-3.69-.27-7.75-.94-11.41-.13C7.91,1.45,5.57,9.24,3.73,16.33c-2.17,8.36-4.26,19.4-.98,27.65.73,1.84,3.85,2.98,4.87.64h0Z"
             id="path3" />
          <path
             class="cls-4"
             d="m16.83,42.21c5.01,2.63,10.82,2.95,16.37,3.6,6.08.71,12.17,1.21,18.27,1.72,12.56,1.06,25.13,1.88,37.67,3.23,12.35,1.33,24.59,3.25,36.73,5.84,11.79,2.52,23.25,4.83,35.31,2.96,1.46-.23,3.14-1.89,3.36-3.36.39-2.63.96-5.24.82-7.9-.26-5.12-6.79-5.66-8.57-1.16-.83,2.1-1.12,4.28-1.52,6.5l4.63-3.53c-11.93,1.43-23.37-1.61-34.95-4.03s-23.81-4-35.82-5.16-23.82-1.96-35.74-2.62c-6.09-.34-12.17-.75-18.27-.89s-12.19-.8-17.83,1.22c-1.48.53-2.06,2.74-.47,3.58h0Z"
             id="path4" />
        </g>
      </g>
      <g
         id="g18" />
      <path
         class="cls-1"
         d="m59.56,54.64c-4.6-.7-9.62-1.19-14.24-1.74-14.53-1.72-47.4.22-43.78-22.4C3.37,19.05,5.6,11.87,7.5,7.44,9.25,3.37,13.42.88,17.83,1.3c23.82,2.26,108.3,13.05,125.08,16.95,17.91,4.17,33.34,1.49,30.43,25.11-1.24,10.03-5.74,17.66-11.41,21.13-4.56,2.8-14.5.53-19.79-.27l-82.58-9.58Z"
         id="path19" />
      <g
         class="cls-9"
         id="g20">
        <path
           class="cls-5"
           d="m16.91,11.85c9.33-.3,18.19,1.64,27.38,2.69,1.81.21,2.57-2.72.94-3.47-8.98-4.15-19.2-3.8-28.69-2-1.57.3-1.2,2.83.38,2.78h0Z"
           id="path20" />
      </g>
      <g
         class="cls-9"
         id="g21">
        <path
           class="cls-5"
           d="m56.66,14.75h1.34c.76,0,1.5-.67,1.46-1.46s-.64-1.46-1.46-1.46h-1.34c-.76,0-1.5.67-1.46,1.46s.64,1.46,1.46,1.46h0Z"
           id="path21" />
      </g>
      <g
         class="cls-9"
         id="g22">
        <path
           class="cls-5"
           d="m134.42,58.97c6.07,1.17,12.2,1.93,18.39,2.09,4.16.11,9.46.54,12.02-3.28.69-1.03-.23-2.35-1.36-2.38-4.36-.11-8.88,1.52-13.37,1.64-5.12.14-10.22-.14-15.31-.71-1.5-.17-1.84,2.35-.36,2.64h0Z"
           id="path22" />
      </g>
      <g
         class="cls-9"
         id="g23">
        <path
           class="cls-5"
           d="m119.38,56.03l1.66.37c.71.16,1.54-.21,1.71-.97.16-.69-.21-1.56-.97-1.71l-1.67-.32c-.7-.14-1.51.2-1.68.96-.16.69.21,1.52.96,1.68h0Z"
           id="path23" />
      </g>
    </g>
  </g>
</svg>
