<?xml version="1.0" encoding="UTF-8" standalone="no"?>
<svg
   id="Calque_2"
   data-name="Calque 2"
   viewBox="0 0 175.5 67.25"
   version="1.1"
   sodipodi:docname="subscribe-text.svg"
   inkscape:version="1.4.2 (f4327f4, 2025-05-13)"
   xmlns:inkscape="http://www.inkscape.org/namespaces/inkscape"
   xmlns:sodipodi="http://sodipodi.sourceforge.net/DTD/sodipodi-0.dtd"
   xmlns="http://www.w3.org/2000/svg"
   xmlns:svg="http://www.w3.org/2000/svg">
  <sodipodi:namedview
     id="namedview24"
     pagecolor="#ffffff"
     bordercolor="#999999"
     borderopacity="1"
     inkscape:showpageshadow="2"
     inkscape:pageopacity="0"
     inkscape:pagecheckerboard="0"
     inkscape:deskcolor="#d1d1d1"
     inkscape:zoom="10.102564"
     inkscape:cx="61.469543"
     inkscape:cy="33.60533"
     inkscape:window-width="1920"
     inkscape:window-height="991"
     inkscape:window-x="-9"
     inkscape:window-y="-9"
     inkscape:window-maximized="1"
     inkscape:current-layer="Calque_2" />
  <defs
     id="defs1">
    <style
       id="style1">
      .cls-1, .cls-2 {
        stroke: #3d0a0a;
        stroke-linecap: round;
        stroke-linejoin: round;
        stroke-width: 2.52px;
      }

      .cls-1, .cls-3 {
        fill: none;
      }

      .cls-2 {
        fill: #e16969;
      }

      .cls-4 {
        fill: #782e3f;
      }

      .cls-4, .cls-3, .cls-5, .cls-6, .cls-7 {
        stroke-width: 0px;
      }

      .cls-5 {
        fill: #fff;
      }

      .cls-8 {
        clip-path: url(#clippath);
      }

      .cls-9 {
        opacity: .49;
      }

      .cls-6 {
        fill: #ffe76a;
      }

      .cls-7 {
        fill: #effdf3;
      }

      .cls-10 {
        opacity: .27;
      }
    </style>
    <clipPath
       id="clippath">
      <path
         class="cls-3"
         d="m59.56,55.81c-4.6-.7-9.62-1.19-14.24-1.74-14.53-1.72-47.4.22-43.78-22.4,1.84-11.45,4.07-18.63,5.97-23.06,1.75-4.08,5.92-6.56,10.33-6.14,23.82,2.26,108.3,13.05,125.08,16.95,17.91,4.17,33.34,1.49,30.43,25.11-1.24,10.03-5.74,17.66-11.41,21.13-4.56,2.8-14.5.53-19.79-.27l-82.58-9.58Z"
         id="path1" />
    </clipPath>
  </defs>
  <g
     id="Layer_1"
     data-name="Layer 1">
    <g
       id="g24">
      <g
         class="cls-10"
         id="g5">
        <g
           class="cls-8"
           clip-path="url(#clippath)"
           id="g4">
          <path
             class="cls-7"
             d="m7.62,44.62c3.21-7.4,3.72-15.88,6.05-23.63.79-2.64,1.6-8.51,4.11-9.98,2.16-1.27,7.21.19,9.61.4,17.35,1.51,34.64,3.64,51.8,6.58,34,5.83,66.72,15.17,99.5,25.71,5.13,1.65,9.75-5.72,5.43-9.33-11.11-9.29-26.77-20.11-42.12-17.66-3.56.57-4.39,6.51-1.04,7.97,6.05,2.64,12.63,3.51,18.67,6.25s11.97,6.49,16.59,11.33l5.43-9.33c-35.6-13.79-73.77-22.59-111.45-28.26-9.23-1.39-18.5-2.6-27.78-3.57-5-.52-10.02-.94-15.04-1.31-3.69-.27-7.75-.94-11.41-.13C7.91,1.45,5.57,9.24,3.73,16.33c-2.17,8.36-4.26,19.4-.98,27.65.73,1.84,3.85,2.98,4.87.64h0Z"
             id="path3" />
        </g>
      </g>
      <g
         id="g18">
        <path
           class="cls-6"
           d="m28.07,17.09c-1.36-2.87-4.27-4.98-7.56-4.54-3.51.46-5.81,3.72-7.23,6.69-1.26,2.64-1.68,5.83.62,8.01,1.14,1.08,2.44,1.39,3.95,1.56.68.07,2.25-.31,2.84.04l1.11,2.89c-1.03,2.16-2.83,2.45-5.41.86-.64-2.27-3.44-1.88-4.23,0-1.48,3.55,1.67,6.95,5.25,7.25,4.12.34,8.25-3.16,9.58-6.87,1.21-3.39.03-7.41-3.43-8.88-1.39-.59-5.59,0-5.83-1.6-.11-.75,1.44-2.87,1.94-3.34,1.87-1.76,3.96-.62,5.72.6s3.43-1.08,2.68-2.68h0Z"
           id="path5" />
        <path
           class="cls-6"
           d="m34.69,17.58c-4.01,2.62-5.33,9.48-5.53,13.95-.17,3.76,1.59,9.82,6.27,10,4.19.16,7.63-4.75,9.05-8.07,1.96-4.59,2.67-11.21.71-15.84-.81-1.91-3.68-1.17-4.18.55-1.6,5.52.84,11.37-3.54,16.19-4.43,4.87-3.62-5.97-3.38-7.63.41-2.82,1.27-5.46,1.79-8.24.12-.64-.54-1.32-1.18-.91h0Z"
           id="path6" />
        <path
           class="cls-6"
           d="m50.63,19.21c-2.02,6.44-3.12,13.08-4.58,19.66l4.96.67c.42-4.41.96-8.74,2.03-13.05.12-.5.96-4.78,1.5-4.98,2.7-1.02,4.99,7.96-.06,7.98l.68,4.99c1.97-.87,2.98-.31,3.03,1.67,1.15,1.44.83,2.38-.96,2.81-2.05,1.42-4.82.73-6.05-1.45-.91-1.61-3.56-1.31-4.01.52-2.23,9.19,11.15,8.1,15.46,3.72,6.23-6.33-1.71-14.1-8.83-12.18-2.73.74-2.24,5.1.68,4.99,8.78-.31,10.61-14.25,3.09-17.88-10.31-4.98-11.4,17.48-11.61,22.84-.11,2.78,4.52,3.52,4.96.67,1.06-6.88,2.15-13.73,1.9-20.71-.05-1.25-1.8-1.5-2.18-.29h0Z"
           id="path7" />
        <path
           class="cls-6"
           d="m76.18,21.67c-5.34-2.98-12.17.12-11.67,6.84.22,2.95,2.47,4.25,4.99,5.31,1.47.62,4.78,1.25,4.73,3.33-.05,1.96-3.47,3.61-4.92,2.39-1.69-1.42-4.25-.5-4.35,1.8-.17,3.82,2.97,5.96,6.6,5.53s6.97-3.22,8.37-6.55.7-6.95-2.15-9.18c-1.27-.99-2.77-1.49-4.32-1.9-.4-.11-3.04-.46-3.27-.82l.13-3.51c1.34-1.47,3.07-2.02,5.18-1.65.93.19,1.58-1.09.67-1.59h0Z"
           id="path8" />
        <path
           class="cls-6"
           d="m69.11,24.25c.91-.77,2.35-1.1,3.52-.82,1.34.32,1.38,1.38,2.09,2.33,1.1,1.46,4.3,1.3,4-1.08-.33-2.67-3-4.53-5.62-4.73s-4.37,1.31-5.25,3.57c-.3.77.75,1.16,1.26.73h0Z"
           id="path9" />
        <path
           class="cls-6"
           d="m96.07,23.23c-6.85-7.25-12.77,10.48-12.88,15.04-.09,4.03,2.15,7.86,6.56,7.9,3.96.03,8.45-2.84,9.51-6.69.58-2.09-1.96-4.41-3.91-3.01-1.26.9-2.23,2.12-3.51,2.98-3.22,2.15-3.48-.76-3.05-3.31.37-2.16,2.78-11.88,6.2-11.05,1.08.26,1.84-1.04,1.08-1.85h0Z"
           id="path10" />
        <path
           class="cls-6"
           d="m104.14,23.41c-.81,3.89-1.52,7.8-2.28,11.7-.7,3.57-1.86,7.12-2.04,10.76-.09,1.86,2.7,2.64,3.56.96,3.37-6.61,3.81-15.82,3.27-23.09-.1-1.34-2.19-1.83-2.5-.34h0Z"
           id="path11" />
        <path
           class="cls-6"
           d="m105.97,26.97l3.6-2.4c1.52,1.25,2.1,2.68,1.74,4.3-.54,1.92-2.31,3.54-4.37,2.77-1.87-.7-3.94,1.45-3.29,3.29,1.55,4.42,3.56,9.03,6.5,12.7,1.14,1.43,3.4-.13,2.96-1.72-1.16-4.17-2.92-8.28-4.29-12.41l-3.29,3.29c7.66,3,12.96-6.69,9.15-12.89-3.3-5.37-13.2-3.22-10.06,3.44.33.7,1.33.3,1.36-.37h0Z"
           id="path12" />
        <path
           class="cls-6"
           d="m119.79,26.68c-1.6,7.12-3.63,14.22-4.65,21.46-.4,2.85,3.89,4.15,4.41,1.22,1.3-7.38,1.58-14.95,2.28-22.4.11-1.17-1.78-1.41-2.04-.28h0Z"
           id="path13" />
        <path
           class="cls-6"
           d="m128.33,28.69c-1.92,6.59-4.04,13.13-5.64,19.82-.8,3.34,4.51,4.71,5.09,1.4,1.23-6.93,1.93-13.94,2.81-20.92.17-1.32-1.92-1.51-2.27-.31h0Z"
           id="path14" />
        <path
           class="cls-6"
           d="m128.45,37.61c.26-.96.51-1.92.76-2.88.03-2.48,1.16-3.18,3.4-2.12,2.99-.51,3.47.5,1.43,3.04-1.4,1.2-2.9,1.48-4.51.84l-.77,5.71c2.56-.14,10.34-.31,7.63,4.39-2.06,3.57-6.42,3.34-8.01-.46-1.14-2.72-4.76-2.32-5.1.69-1.1,9.87,12.34,9.85,16.96,3.88,2.21-2.85,3.21-7.03,1.41-10.34-2.45-4.51-8.5-4.18-12.9-3.97-3.21.15-4.02,4.79-.77,5.71,8.11,2.28,17.38-7.1,10.86-14.59-2.28-2.62-6.31-2.72-9.05-.77-3.55,2.53-3.82,6.95-2.99,10.88.18.84,1.43.78,1.64,0h0Z"
           id="path15" />
        <path
           class="cls-6"
           d="m157.5,32.45c-2.36-1.36-6.62-4.79-9.04-2.11-1.21,1.34-1.75,3.96-2.3,5.62-.96,2.93-1.75,5.9-2.36,8.92-.68,3.36-1.65,7.39,1.58,9.74s9.31,2.17,13.22,1.95,3.7-6.13,0-5.8c-2.06.18-4.14.33-6.21.28-.84-.02-2.86.21-3.54-.24-1.51-1-.71-3.34-.48-4.68.75-4.26,1.41-10.18,3.61-13.96l-1.69.97c2.02,0,4.34.95,6.35,1.28,1.15.19,1.98-1.33.84-1.98h0Z"
           id="path16" />
        <path
           class="cls-6"
           d="m148.15,42.62c1.35,1.01,3.04,1.56,4.66,1.96s3.55.94,5.09-.15c.98-.7,1.39-2.15.4-3.07-1.43-1.33-3.06-1.16-4.88-1.24-1.66-.07-3.29-.19-4.95.05-1.29.18-1.12,1.86-.32,2.46h0Z"
           id="path17" />
        <path
           class="cls-6"
           d="m148.73,31.26c-.09,2.28,2.69,3.08,4.44,3.67,2.01.68,5,1.89,7.05,1.03,1.52-.64,2.36-2.5,1.01-3.82-1.73-1.7-5.04-1.89-7.35-2.39-1.57-.34-5.05-1.11-5.14,1.51h0Z"
           id="path18" />
      </g>
      <g
         class="cls-9"
         id="g20">
        <path
           class="cls-5"
           d="m16.91,11.85c9.33-.3,18.19,1.64,27.38,2.69,1.81.21,2.57-2.72.94-3.47-8.98-4.15-19.2-3.8-28.69-2-1.57.3-1.2,2.83.38,2.78h0Z"
           id="path20" />
      </g>
      <g
         class="cls-9"
         id="g21">
        <path
           class="cls-5"
           d="m56.66,14.75h1.34c.76,0,1.5-.67,1.46-1.46s-.64-1.46-1.46-1.46h-1.34c-.76,0-1.5.67-1.46,1.46s.64,1.46,1.46,1.46h0Z"
           id="path21" />
      </g>
      <g
         class="cls-9"
         id="g22">
        <path
           class="cls-5"
           d="m134.42,58.97c6.07,1.17,12.2,1.93,18.39,2.09,4.16.11,9.46.54,12.02-3.28.69-1.03-.23-2.35-1.36-2.38-4.36-.11-8.88,1.52-13.37,1.64-5.12.14-10.22-.14-15.31-.71-1.5-.17-1.84,2.35-.36,2.64h0Z"
           id="path22" />
      </g>
      <g
         class="cls-9"
         id="g23">
        <path
           class="cls-5"
           d="m119.38,56.03l1.66.37c.71.16,1.54-.21,1.71-.97.16-.69-.21-1.56-.97-1.71l-1.67-.32c-.7-.14-1.51.2-1.68.96-.16.69.21,1.52.96,1.68h0Z"
           id="path23" />
      </g>
    </g>
  </g>
</svg>
