<?xml version="1.0" encoding="UTF-8" standalone="no"?>
<svg
   viewBox="0 0 80.25 153.46"
   version="1.1"
   id="svg35"
   sodipodi:docname="up-!.svg"
   width="80.25"
   height="153.46001"
   inkscape:version="1.4.2 (f4327f4, 2025-05-13)"
   xmlns:inkscape="http://www.inkscape.org/namespaces/inkscape"
   xmlns:sodipodi="http://sodipodi.sourceforge.net/DTD/sodipodi-0.dtd"
   xmlns="http://www.w3.org/2000/svg"
   xmlns:svg="http://www.w3.org/2000/svg">
  <sodipodi:namedview
     id="namedview35"
     pagecolor="#ffffff"
     bordercolor="#999999"
     borderopacity="1"
     inkscape:showpageshadow="2"
     inkscape:pageopacity="0"
     inkscape:pagecheckerboard="0"
     inkscape:deskcolor="#d1d1d1"
     inkscape:zoom="4.2365448"
     inkscape:cx="132.65527"
     inkscape:cy="91.230003"
     inkscape:window-width="1920"
     inkscape:window-height="991"
     inkscape:window-x="-9"
     inkscape:window-y="-9"
     inkscape:window-maximized="1"
     inkscape:current-layer="Warstwa_4" />
  <defs
     id="defs4">
    <style
       id="style1">.cls-1,.cls-11,.cls-12{fill:none;}.cls-2{fill:#ff899b;}.cls-11,.cls-2{stroke:#592539;}.cls-11,.cls-12,.cls-2,.cls-3{stroke-linecap:round;stroke-linejoin:round;stroke-width:5px;}.cls-3{fill:#edd633;}.cls-12,.cls-3{stroke:#563821;}.cls-4{opacity:0.41;}.cls-5{clip-path:url(#clip-path);}.cls-6{fill:#901a3d;}.cls-7{fill:#e6fff2;}.cls-8{clip-path:url(#clip-path-2);}.cls-9{clip-path:url(#clip-path-3);}.cls-10{clip-path:url(#clip-path-4);}</style>
    <clipPath
       id="clip-path"
       transform="translate(5.95 1.53)">
      <path
         class="cls-1"
         d="m 195.26,104.05 c 0,0 -11.92,0.15 -13.43,-22.56 -2.14,-32 -3,-69.53 -3,-69.53 0,0 -2.74,-10.43 15.93,-9.16 18.67,1.27 47.24,3.25 47.61,14.7 0.37,11.45 -18.88,65.8 -26,80.79 -2.37,5.01 -2.8,10.14 -21.11,5.76 z"
         id="path1" />
    </clipPath>
    <clipPath
       id="clip-path-2"
       transform="translate(5.95 1.53)">
      <path
         class="cls-1"
         d="m 191.18,114.91 a 16,16 0 0 1 2.26,0.41 c 5.36,1.35 24.4,7.53 14.08,25.12 -8.06,13.73 -21.25,8.94 -29,4.37 a 17.16,17.16 0 0 1 -8.31,-12.7 c -0.98,-8.24 1.17,-19.33 20.97,-17.2 z"
         id="path2" />
    </clipPath>
    <clipPath
       id="clip-path-3"
       transform="translate(5.95 1.53)">
      <path
         class="cls-1"
         d="m 166.77,19.58 c -36.43,-18.25 -59.41,5.73 -59.41,5.73 0,0 -19.9,24.56 -12.6,34.51 7.3,9.95 14.6,33.09 14.6,33.09 L 126,136.13 c 0,0 12.6,8 23.22,0 10.62,-8 0,-38.48 0,-38.48 5.25,1.93 11.08,-0.4 16.1,-3.77 a 44.92,44.92 0 0 0 16.87,-21.77 c 5.99,-16.3 7.6,-41.01 -15.42,-52.53 z m -13,32.28 c -7.3,15.26 -19.25,12.61 -19.25,12.61 l -2.6,-15.27 c 0,0 29.2,-12.61 21.9,2.66 z"
         id="path3" />
    </clipPath>
    <clipPath
       id="clip-path-4"
       transform="translate(5.95 1.53)">
      <path
         class="cls-1"
         d="m 54.89,113.22 c 13.41,2.58 15.46,-11.5 11.17,-20.56 -3.79,-8 -8.7,-24.21 -4.37,-33 C 68.33,46.22 88.9,49.4 88.9,49.4 c 0,0 21.23,5.42 20.57,46.6 -0.66,41.18 -9.68,61.64 -41.81,67.69 -10.45,2 -43.8,2.43 -57.07,-29.64 C 2.46,114.35 2.08,94.3 3,81.72 A 27.94,27.94 0 0 1 16,60.06 c 7.37,-4.6 16.44,-8 21.09,-1.08 7,10.37 3.23,23 1.38,33.64 a 17.45,17.45 0 0 0 13.81,20.1 z"
         id="path4" />
    </clipPath>
  </defs>
  <g
     id="Calque_2"
     data-name="Calque 2">
    <g
       id="Warstwa_4"
       data-name="Warstwa 4">
      <path
         class="cls-2"
         d="m 29.549774,104.43583 c 0,0 -11.91,0.15 -13.42,-22.559996 -2.14,-32 -3,-69.52 -3,-69.52 0,0 -2.73,-10.4299996 15.94,-9.1599996 18.67,1.27 47.2,3.25 47.57,14.6999996 0.37,11.45 -18.85,65.79 -26,80.78 -2.35,5.009996 -2.77,10.139996 -21.09,5.759996 z"
         id="path5" />
      <path
         class="cls-3"
         d="m 25.479774,115.29583 a 17.61,17.61 0 0 1 2.26,0.42 c 5.36,1.35 24.39,7.52 14.07,25.11 -8,13.74 -21.24,8.95 -29,4.37 a 17.14,17.14 0 0 1 -8.3100003,-12.69 c -0.97,-8.24 1.14,-19.33 20.9800003,-17.21 z"
         id="path6" />
      <g
         class="cls-4"
         id="g11"
         transform="translate(-172.31023,-0.94416562)">
        <g
           class="cls-5"
           clip-path="url(#clip-path)"
           id="g10">
          <path
             class="cls-6"
             d="m 187.24,102.66 1.7,0.54 -2.85,-3.75 c -0.16,5 6.56,7.79 10.57,8.61 6.16,1.27 12.94,-0.31 18.51,-3 9.94,-4.86 16.31,-14.92 21,-24.54 a 289.6,289.6 0 0 0 14,-35.61 c 2,-6 3.84,-12 5.59,-18.07 1.92,-6.61 5,-14.39 2.7,-21.2 A 10,10 0 0 0 241.91,1.27 c -4.46,4 -5.8,10.26 -7.37,15.8 -1.57,5.54 -3.18,10.89 -4.91,16.3 -3.24,10.15 -6.85,20.18 -11,30 -3.18,7.56 -6.4,15.27 -12,21.35 -3,3.23 -5.92,4.73 -10,6.32 -3.42,1.34 -9.65,3.23 -10.43,7.4 l 3.8,-2.88 -1.8,0.11 a 3.58,3.58 0 0 0 -0.94,7 z"
             transform="translate(5.95,1.53)"
             id="path9" />
          <path
             class="cls-7"
             d="m 190.76,89.55 c 2.91,-4.63 2.8,-10.77 3.1,-16.08 0.35,-6.18 0.31,-12.32 0.27,-18.51 -0.07,-12.34 -0.29,-24.69 0,-37 a 27.4,27.4 0 0 0 0.07,-3.9 q -3.32,1.26 -1.94,1.7 a 1.22,1.22 0 0 0 0.71,0 c 1.89,1 6.18,0.28 8.4,0.34 6.16,0.16 12.32,0.25 18.48,0.31 a 159.37,159.37 0 0 1 18.4,1.2 c 6.13,0.76 12.19,1.22 18.15,-0.86 2.14,-0.75 3.37,-3.68 1.42,-5.4 C 252.43,6.65 246,5 239.1,3.85 232.2,2.7 225.1,1.46 218.1,0.41 a 127.75,127.75 0 0 0 -22.61,-1.5 c -5.8,0.17 -12.19,1 -15.43,6.5 -3.42,5.83 -1.26,14 -0.9,20.32 0.4,7.14 0.7,14.29 1,21.44 0.3,7.15 0.49,14.32 1.12,21.43 0.59,6.59 0.52,15.38 4.44,21 a 2.93,2.93 0 0 0 5,0 z"
             transform="translate(5.95,1.53)"
             id="path10" />
        </g>
      </g>
      <g
         class="cls-4"
         id="g13"
         transform="translate(-172.31023,-0.94416562)">
        <g
           class="cls-8"
           clip-path="url(#clip-path-2)"
           id="g12">
          <path
             class="cls-6"
             d="m 171.67,144.4 c 3.59,4.62 5.92,8.44 12.06,10 a 23.59,23.59 0 0 0 18.27,-3.13 32.25,32.25 0 0 0 12,-14.78 c 2.77,-6.65 5.88,-15.7 0.64,-21.67 a 6.44,6.44 0 0 0 -6.44,-1.7 c -9.54,3.37 -7.29,15.94 -13.35,22.95 a 17.78,17.78 0 0 1 -8.49,5.66 c -3,0.88 -8.76,1.75 -11.3,-0.73 -2.28,-2.23 -5.25,1 -3.4,3.4 z"
             transform="translate(5.95,1.53)"
             id="path11" />
          <path
             class="cls-7"
             d="m 189,114 c -5.21,-1.49 -11.22,1.43 -14.15,5.82 -4.12,6.16 0.66,13.58 7.79,13.3 6.58,-0.25 13.21,-8.36 11,-14.83 a 9.53,9.53 0 0 0 -9,-6.54 9.11,9.11 0 0 0 -9,8.7 c -0.39,5.62 7.59,8.88 11.3,4.68 0.05,-0.06 0.67,-0.74 0.66,-0.76 l -1.71,0.89 -3.2,-0.5 -1.78,-2.42 v -1.86 c 0,-0.65 0.34,-0.4 -0.18,0 0.46,-0.37 0.31,-0.36 -0.08,0 a 8.83,8.83 0 0 1 -0.82,0.8 c 0.57,-0.45 0.33,-0.18 -0.1,-0.06 a 2.8,2.8 0 0 1 2,-0.1 1.61,1.61 0 0 1 1.48,1.07 1.27,1.27 0 0 1 0.69,1.43 c 0.32,1 -0.09,0.38 0.12,0 a 15,15 0 0 1 0.94,-1.55 5.56,5.56 0 0 1 3.31,-2.36 c 3.14,-0.35 4.2,-4.82 0.78,-5.8 z"
             transform="translate(5.95,1.53)"
             id="path12" />
        </g>
      </g>
      <path
         class="cls-11"
         d="m 13.769774,28.375834 c -0.31,-9.58 -0.46,-15.83 -0.46,-15.83 0,0 -2.73,-10.4299996 15.94,-9.1599996 18.67,1.27 47.2,3.25 47.61,14.6999996 0.41,11.45 -18.88,65.8 -26,80.79 -2.38,4.999996 -2.8,10.139996 -21.12,5.759996 0,0 -15.81,-5.059996 -14.11,-31.939996"
         id="path24" />
      <path
         class="cls-12"
         d="m 24.639774,115.49583 a 15.62,15.62 0 0 1 2.25,0.41 c 5.37,1.35 24.4,7.53 14.08,25.12 -8.05,13.73 -21.24,8.94 -29,4.37 a 17.16,17.16 0 0 1 -8.3100003,-12.7 c -0.94,-8.24 1.21,-19.33 20.9800003,-17.2 z"
         id="path25" />
      <path
         class="cls-7"
         d="m 33.089774,21.205834 a 3.52,3.52 0 0 0 1.83,-0.41 3.57,3.57 0 0 0 1.53,-1 3.59,3.59 0 0 0 1,-1.54 3.52,3.52 0 0 0 0.41,-1.83 l -0.22,-1.25 a 4.67,4.67 0 0 0 -1.23,-2.1 l -1,-0.75 a 4.7,4.7 0 0 0 -2.4,-0.65 3.63,3.63 0 0 0 -1.84,0.41 3.5,3.5 0 0 0 -1.53,1 3.5,3.5 0 0 0 -1,1.53 3.63,3.63 0 0 0 -0.41,1.84 l 0.17,1.26 a 4.85,4.85 0 0 0 1.23,2.11 l 1,0.74 a 4.74,4.74 0 0 0 2.41,0.65 z"
         id="path32" />
      <path
         class="cls-7"
         d="m 26.639774,30.095834 0.16,0.34 a 2.91,2.91 0 0 0 1.06,1.06 2.91,2.91 0 0 0 3,0 2.84,2.84 0 0 0 1.06,-1.06 l 0.16,-0.34 a 3.06,3.06 0 0 0 0.43,-1.59 3,3 0 0 0 -0.43,-1.58 3.1481145,3.1481145 0 1 0 -5.44,3.17 z"
         id="path33" />
      <path
         class="cls-7"
         d="m 16.539774,125.70583 a 1.64,1.64 0 0 0 0,-3.28 1.64,1.64 0 0 0 0,3.28 z"
         id="path34" />
    </g>
  </g>
</svg>
