<?xml version="1.0" encoding="UTF-8" standalone="no"?>
<svg
   viewBox="0 0 99.25 133.46"
   version="1.1"
   id="svg35"
   sodipodi:docname="up-p.svg"
   width="99.25"
   height="133.46001"
   inkscape:version="1.4.2 (f4327f4, 2025-05-13)"
   xmlns:inkscape="http://www.inkscape.org/namespaces/inkscape"
   xmlns:sodipodi="http://sodipodi.sourceforge.net/DTD/sodipodi-0.dtd"
   xmlns="http://www.w3.org/2000/svg"
   xmlns:svg="http://www.w3.org/2000/svg">
  <sodipodi:namedview
     id="namedview35"
     pagecolor="#ffffff"
     bordercolor="#999999"
     borderopacity="1"
     inkscape:showpageshadow="2"
     inkscape:pageopacity="0"
     inkscape:pagecheckerboard="0"
     inkscape:deskcolor="#d1d1d1"
     inkscape:zoom="4.2365448"
     inkscape:cx="132.65527"
     inkscape:cy="91.230003"
     inkscape:window-width="1920"
     inkscape:window-height="991"
     inkscape:window-x="-9"
     inkscape:window-y="-9"
     inkscape:window-maximized="1"
     inkscape:current-layer="Warstwa_4" />
  <defs
     id="defs4">
    <style
       id="style1">.cls-1,.cls-11,.cls-12{fill:none;}.cls-2{fill:#ff899b;}.cls-11,.cls-2{stroke:#592539;}.cls-11,.cls-12,.cls-2,.cls-3{stroke-linecap:round;stroke-linejoin:round;stroke-width:5px;}.cls-3{fill:#edd633;}.cls-12,.cls-3{stroke:#563821;}.cls-4{opacity:0.41;}.cls-5{clip-path:url(#clip-path);}.cls-6{fill:#901a3d;}.cls-7{fill:#e6fff2;}.cls-8{clip-path:url(#clip-path-2);}.cls-9{clip-path:url(#clip-path-3);}.cls-10{clip-path:url(#clip-path-4);}</style>
    <clipPath
       id="clip-path"
       transform="translate(5.95 1.53)">
      <path
         class="cls-1"
         d="m 195.26,104.05 c 0,0 -11.92,0.15 -13.43,-22.56 -2.14,-32 -3,-69.53 -3,-69.53 0,0 -2.74,-10.43 15.93,-9.16 18.67,1.27 47.24,3.25 47.61,14.7 0.37,11.45 -18.88,65.8 -26,80.79 -2.37,5.01 -2.8,10.14 -21.11,5.76 z"
         id="path1" />
    </clipPath>
    <clipPath
       id="clip-path-2"
       transform="translate(5.95 1.53)">
      <path
         class="cls-1"
         d="m 191.18,114.91 a 16,16 0 0 1 2.26,0.41 c 5.36,1.35 24.4,7.53 14.08,25.12 -8.06,13.73 -21.25,8.94 -29,4.37 a 17.16,17.16 0 0 1 -8.31,-12.7 c -0.98,-8.24 1.17,-19.33 20.97,-17.2 z"
         id="path2" />
    </clipPath>
    <clipPath
       id="clip-path-3"
       transform="translate(5.95 1.53)">
      <path
         class="cls-1"
         d="m 166.77,19.58 c -36.43,-18.25 -59.41,5.73 -59.41,5.73 0,0 -19.9,24.56 -12.6,34.51 7.3,9.95 14.6,33.09 14.6,33.09 L 126,136.13 c 0,0 12.6,8 23.22,0 10.62,-8 0,-38.48 0,-38.48 5.25,1.93 11.08,-0.4 16.1,-3.77 a 44.92,44.92 0 0 0 16.87,-21.77 c 5.99,-16.3 7.6,-41.01 -15.42,-52.53 z m -13,32.28 c -7.3,15.26 -19.25,12.61 -19.25,12.61 l -2.6,-15.27 c 0,0 29.2,-12.61 21.9,2.66 z"
         id="path3" />
    </clipPath>
    <clipPath
       id="clip-path-4"
       transform="translate(5.95 1.53)">
      <path
         class="cls-1"
         d="m 54.89,113.22 c 13.41,2.58 15.46,-11.5 11.17,-20.56 -3.79,-8 -8.7,-24.21 -4.37,-33 C 68.33,46.22 88.9,49.4 88.9,49.4 c 0,0 21.23,5.42 20.57,46.6 -0.66,41.18 -9.68,61.64 -41.81,67.69 -10.45,2 -43.8,2.43 -57.07,-29.64 C 2.46,114.35 2.08,94.3 3,81.72 A 27.94,27.94 0 0 1 16,60.06 c 7.37,-4.6 16.44,-8 21.09,-1.08 7,10.37 3.23,23 1.38,33.64 a 17.45,17.45 0 0 0 13.81,20.1 z"
         id="path4" />
    </clipPath>
  </defs>
  <g
     id="Calque_2"
     data-name="Calque 2">
    <g
       id="Warstwa_4"
       data-name="Warstwa 4">
      <path
         class="cls-3"
         d="m 77.075106,10.062095 c -36.43,-18.2499997 -59.43,5.73 -59.43,5.73 0,0 -19.8999996,24.55 -12.5999996,34.51 7.2999996,9.96 14.5999996,33.08 14.5999996,33.08 l 16.59,43.230005 c 0,0 12.61,8 23.23,0 10.62,-8 0,-38.490005 0,-38.490005 5.25,1.94 11.08,-0.39 16.1,-3.76 a 45,45 0 0 0 16.88,-21.77 c 6.04,-16.31 7.640004,-41.01 -15.37,-52.53 z m -13,32.27 c -7.3,15.27 -19.25,12.61 -19.25,12.61 l -2.6,-15.27 c 0,0 29.2,-12.6 21.9,2.66 z"
         id="path7" />
      <g
         class="cls-4"
         id="g19"
         transform="translate(-96.304894,-10.857905)">
        <g
           class="cls-9"
           clip-path="url(#clip-path-3)"
           id="g18">
          <path
             class="cls-6"
             d="m 139.19,50.7 a 14.08,14.08 0 0 1 4.55,-4.11 27.88,27.88 0 0 1 3,-1.25 c 0.62,-0.21 3,-0.45 3.4,-0.86 h 0.6 c -0.64,-1.74 -1.14,-2.08 -1.51,-1 -0.62,0.31 -1.35,2.08 -1.77,2.62 -1.55,2 -3.45,3.75 -5,5.74 -1.55,1.99 -2,4.35 -0.39,6.42 a 4.85,4.85 0 0 0 6.31,1.26 c 4.31,-2.91 8.75,-8 10.57,-13 1.82,-5 -0.37,-10.52 -5.95,-11.77 -4.84,-1.06 -11,1.23 -14.92,4 -4.05,2.94 -7.65,9.37 -1.5,12.24 a 2.17,2.17 0 0 0 2.58,-0.34 z"
             transform="translate(5.95,1.53)"
             id="path13" />
          <path
             class="cls-6"
             d="m 184.79,58.22 c -2.73,3.21 -3.82,6.81 -6,10.46 a 45.11,45.11 0 0 1 -8.55,10 45.14,45.14 0 0 1 -11.24,7.74 c -4.1,2 -8.72,2.2 -12.77,4.07 -9.42,4.35 -6.08,17.26 -6.36,25.68 a 63,63 0 0 1 -1.7,13.75 c -1.4,5.41 -4.35,10.37 -4.89,15.92 -0.8,8.31 9.62,10.28 14.78,6.12 7.37,-5.94 8.66,-19.63 9,-28.42 a 73.85,73.85 0 0 0 -1,-14.47 c -0.34,-2.13 -0.69,-4.3 -1.22,-6.4 a 37,37 0 0 0 -1.23,-3.87 c -0.18,-0.54 -0.39,-1.07 -0.62,-1.59 -0.47,-1.29 -0.51,-1.07 -0.13,0.66 l -2.61,3.4 c 2.15,-1.52 5.21,-1.77 7.68,-2.72 a 50.76,50.76 0 0 0 6.44,-3 47,47 0 0 0 12.5,-10.25 c 5.45,-6.29 12.4,-18.26 9.47,-26.67 a 0.94,0.94 0 0 0 -1.55,-0.41 z"
             transform="translate(5.95,1.53)"
             id="path14" />
          <path
             class="cls-6"
             d="m 149.73,118.26 c -4.67,0 -7.93,4.81 -12,6.33 -2.34,0.86 -5.18,0.21 -7.65,0.22 -4.17,0 -7.22,0.67 -10.4,3.5 -2.07,1.85 -2.78,6 -1.07,8.35 6.57,9 22.1,7.46 29.63,0.26 a 17.42,17.42 0 0 0 5.8,-11.65 c 0.14,-2.66 -0.85,-7 -4.27,-7 z"
             transform="translate(5.95,1.53)"
             id="path15" />
          <path
             class="cls-7"
             d="m 104,52 c 8.83,-10.41 16.78,-20.21 30.1,-25 7.17,-2.57 15,-3.79 22.57,-2.38 a 29.79,29.79 0 0 1 9.47,3.71 c 3.1,1.77 5.75,4.53 9.55,4.34 a 3.57,3.57 0 0 0 3.11,-1.79 c 4,-9.07 -8.15,-17.11 -15.18,-20 -10.33,-4.31 -21.71,-3.51 -32.19,-0.06 -16.3,5.33 -36.82,20.12 -33.43,39.6 0.45,2.56 4.29,3.52 6,1.57 z"
             transform="translate(5.95,1.53)"
             id="path16" />
        </g>
      </g>
      <g
         class="cls-4"
         id="g24"
         transform="translate(-96.304894,-10.857905)" />
      <path
         class="cls-12"
         d="m 20.905106,88.922095 14.53,37.880005 c 0,0 12.61,8 23.23,0 10.62,-8 0,-38.480005 0,-38.480005 5.25,1.93 11.08,-0.4 16.1,-3.77 a 45,45 0 0 0 16.88,-21.77 c 6,-16.3 7.64,-41 -15.37,-52.53 -36.43,-18.2499997 -59.41,5.73 -59.41,5.73 0,0 -10.3999996,12.82 -13.4099996,23.69 m 0,0 c -0.21,0.74 -0.38,1.47 -0.51,2.18 m 60.3599996,0.68 c -7.3,15.26 -19.24,12.61 -19.24,12.61 l -2.65,-15.27 c 0,0 29.23,-12.61 21.89,2.66 z"
         id="path26" />
      <path
         class="cls-7"
         d="m 27.265106,17.882095 h -0.05 a 3.38,3.38 0 0 0 -1.72,0.39 3.27,3.27 0 0 0 -1.43,0.92 4.45,4.45 0 0 0 -1.31,3.15 v 0.07 a 4.35,4.35 0 0 0 0.6,2.22 3.26,3.26 0 0 0 1.13,1.23 3.31,3.31 0 0 0 1.49,0.79 4.42,4.42 0 0 0 2.34,0 h 0.07 a 3.43,3.43 0 0 0 1.52,-0.8 3.38,3.38 0 0 0 1.15,-1.25 l 0.44,-1.07 a 4.3,4.3 0 0 0 0,-2.36 v -0.06 l -0.45,-1.05 a 3.26,3.26 0 0 0 -1.13,-1.23 2.11,2.11 0 0 0 -1,-0.56 3.26,3.26 0 0 0 -1.69,-0.38 z"
         id="path30" />
      <path
         class="cls-7"
         d="m 22.205106,34.512095 c 2.84,0 2.84,-4.41 0,-4.41 -2.84,0 -2.84,4.41 0,4.41 z"
         id="path31" />
    </g>
  </g>
</svg>
