<?xml version="1.0" encoding="UTF-8" standalone="no"?>
<svg
   viewBox="0 0 114.25 121.45999"
   version="1.1"
   id="svg35"
   sodipodi:docname="up-u.svg"
   width="114.25"
   height="121.46"
   inkscape:version="1.4.2 (f4327f4, 2025-05-13)"
   xmlns:inkscape="http://www.inkscape.org/namespaces/inkscape"
   xmlns:sodipodi="http://sodipodi.sourceforge.net/DTD/sodipodi-0.dtd"
   xmlns="http://www.w3.org/2000/svg"
   xmlns:svg="http://www.w3.org/2000/svg">
  <sodipodi:namedview
     id="namedview35"
     pagecolor="#ffffff"
     bordercolor="#999999"
     borderopacity="1"
     inkscape:showpageshadow="2"
     inkscape:pageopacity="0"
     inkscape:pagecheckerboard="0"
     inkscape:deskcolor="#d1d1d1"
     inkscape:zoom="4.2365448"
     inkscape:cx="132.65527"
     inkscape:cy="103.97624"
     inkscape:window-width="1920"
     inkscape:window-height="991"
     inkscape:window-x="-9"
     inkscape:window-y="-9"
     inkscape:window-maximized="1"
     inkscape:current-layer="Warstwa_4" />
  <defs
     id="defs4">
    <style
       id="style1">.cls-1,.cls-11,.cls-12{fill:none;}.cls-2{fill:#ff899b;}.cls-11,.cls-2{stroke:#592539;}.cls-11,.cls-12,.cls-2,.cls-3{stroke-linecap:round;stroke-linejoin:round;stroke-width:5px;}.cls-3{fill:#edd633;}.cls-12,.cls-3{stroke:#563821;}.cls-4{opacity:0.41;}.cls-5{clip-path:url(#clip-path);}.cls-6{fill:#901a3d;}.cls-7{fill:#e6fff2;}.cls-8{clip-path:url(#clip-path-2);}.cls-9{clip-path:url(#clip-path-3);}.cls-10{clip-path:url(#clip-path-4);}</style>
    <clipPath
       id="clip-path"
       transform="translate(5.95 1.53)">
      <path
         class="cls-1"
         d="m 195.26,104.05 c 0,0 -11.92,0.15 -13.43,-22.56 -2.14,-32 -3,-69.53 -3,-69.53 0,0 -2.74,-10.43 15.93,-9.16 18.67,1.27 47.24,3.25 47.61,14.7 0.37,11.45 -18.88,65.8 -26,80.79 -2.37,5.01 -2.8,10.14 -21.11,5.76 z"
         id="path1" />
    </clipPath>
    <clipPath
       id="clip-path-2"
       transform="translate(5.95 1.53)">
      <path
         class="cls-1"
         d="m 191.18,114.91 a 16,16 0 0 1 2.26,0.41 c 5.36,1.35 24.4,7.53 14.08,25.12 -8.06,13.73 -21.25,8.94 -29,4.37 a 17.16,17.16 0 0 1 -8.31,-12.7 c -0.98,-8.24 1.17,-19.33 20.97,-17.2 z"
         id="path2" />
    </clipPath>
    <clipPath
       id="clip-path-3"
       transform="translate(5.95 1.53)">
      <path
         class="cls-1"
         d="m 166.77,19.58 c -36.43,-18.25 -59.41,5.73 -59.41,5.73 0,0 -19.9,24.56 -12.6,34.51 7.3,9.95 14.6,33.09 14.6,33.09 L 126,136.13 c 0,0 12.6,8 23.22,0 10.62,-8 0,-38.48 0,-38.48 5.25,1.93 11.08,-0.4 16.1,-3.77 a 44.92,44.92 0 0 0 16.87,-21.77 c 5.99,-16.3 7.6,-41.01 -15.42,-52.53 z m -13,32.28 c -7.3,15.26 -19.25,12.61 -19.25,12.61 l -2.6,-15.27 c 0,0 29.2,-12.61 21.9,2.66 z"
         id="path3" />
    </clipPath>
    <clipPath
       id="clip-path-4"
       transform="translate(5.95 1.53)">
      <path
         class="cls-1"
         d="m 54.89,113.22 c 13.41,2.58 15.46,-11.5 11.17,-20.56 -3.79,-8 -8.7,-24.21 -4.37,-33 C 68.33,46.22 88.9,49.4 88.9,49.4 c 0,0 21.23,5.42 20.57,46.6 -0.66,41.18 -9.68,61.64 -41.81,67.69 -10.45,2 -43.8,2.43 -57.07,-29.64 C 2.46,114.35 2.08,94.3 3,81.72 A 27.94,27.94 0 0 1 16,60.06 c 7.37,-4.6 16.44,-8 21.09,-1.08 7,10.37 3.23,23 1.38,33.64 a 17.45,17.45 0 0 0 13.81,20.1 z"
         id="path4" />
    </clipPath>
  </defs>
  <g
     id="Calque_2"
     data-name="Calque 2">
    <g
       id="Warstwa_4"
       data-name="Warstwa 4">
      <path
         class="cls-2"
         d="m 57.005213,66.849636 c 13.46,2.6 15.46,-11.48 11.18,-20.54 -3.79,-8 -8.7,-24.21 -4.37,-33 6.65,-13.45999998 27.21,-10.26 27.21,-10.26 0,0 21.229997,5.42 20.569997,46.57 -0.66,41.15 -9.68,61.640004 -41.809997,67.680004 -10.45,2 -43.8,2.44 -57.07,-29.640004 -8.1299997,-19.66 -8.5099997,-39.71 -7.5899997,-52.28 a 28,28 0 0 1 13.0499997,-21.66 c 7.37,-4.61 16.44,-8 21.09,-1.09 7,10.38 3.23,23 1.38,33.65 a 17.44,17.44 0 0 0 13.82,20.09 z"
         id="path8" />
      <g
         class="cls-4"
         id="g24"
         transform="translate(-4.4847867,-47.680364)">
        <g
           class="cls-10"
           clip-path="url(#clip-path-4)"
           id="g23">
          <path
             class="cls-6"
             d="m 104.89,72.57 c -2.09,14.64 -2.84,29 -7.82,43.08 -4.36,12.32 -11.2,23.63 -21.29,32.1 -8.56,7.19 -19.22,11.36 -30,10.45 a 37.17,37.17 0 0 1 -13.1,-4 c -5.4,-2.78 -10.69,-9.73 -17.15,-9 a 9.21,9.21 0 0 0 -8.33,6.3 c -3.5,8.71 6.59,17.12 12.89,21.44 6.74,4.61 14.84,6.77 22.86,7.67 16.16,1.82 31.41,-4.38 43.73,-14.54 12.55,-10.37 20.06,-25.81 23.43,-41.49 3.52,-16.35 3.6,-36.14 -1.74,-52 -0.51,-1.51 -3.21,-1.91 -3.48,0 z"
             transform="translate(5.95,1.53)"
             id="path19" />
          <path
             class="cls-6"
             d="m 36.58,56.62 c 2.31,17.38 -12.75,35.91 -2.17,52.67 4.38,6.95 13.08,11.19 21.22,9.21 7.65,-1.86 17.23,-10.26 13.84,-19 -1.63,-4.21 -6.62,-7.41 -11,-4.48 -2.69,1.8 -5.09,7.67 -9,6.65 -4.58,-1.2 -3,-10.56 -2.79,-13.94 0.46,-6.27 1.79,-12.38 0.87,-18.66 a 22.59,22.59 0 0 0 -7.12,-14 c -1.24,-1.24 -4.1,-0.43 -3.83,1.58 z"
             transform="translate(5.95,1.53)"
             id="path20" />
          <path
             class="cls-7"
             d="m 33.7,54.53 c -8,-4.75 -16.86,-2.06 -23.9,3.5 -8.41,6.65 -12.75,17 -14.45,27.38 A 100.77,100.77 0 0 0 -4.6,118 c 1.6,10.28 4.95,21.59 12.49,29.14 2.8,2.8 8.18,0.8 8,-3.33 -0.31,-8.59 -3,-16.89 -4.06,-25.39 A 119.38,119.38 0 0 1 11.32,93.71 c 0.6,-7.55 2.3,-15.53 6.31,-22 3.69,-6 9.82,-10.58 16,-13.74 a 2,2 0 0 0 0,-3.4 z"
             transform="translate(5.95,1.53)"
             id="path21" />
          <path
             class="cls-7"
             d="m 66.92,85 c 0.31,-7.65 2.22,-15.79 8.57,-20.82 5.6,-4.43 11.27,-3.08 17.79,-1.77 a 5.68,5.68 0 0 0 6.33,-8.24 v 5.67 c 1.25,-1.63 0.81,-4 0,-5.67 -6.1,-12.64 -24.18,-10.63 -33.14,-2.45 -9.82,9 -11.12,23.33 -5,34.74 1.43,2.64 5.29,1.29 5.41,-1.46 z"
             transform="translate(5.95,1.53)"
             id="path22" />
          <path
             class="cls-7"
             d="m 53.38,121.09 c 5.37,3 12.55,-0.37 17.43,-3.11 6.77,-3.8 10.39,-10.93 10.72,-18.58 0.38,-8.54 -4.18,-14.1 -8,-21.18 -4.68,-8.75 2.41,-16.92 6,-24.6 2.08,-4.41 -3.08,-8.82 -6.87,-5.3 -5.75,5.31 -10.12,12 -11.42,19.89 -1.18,7.12 1,13 4.83,18.86 4,6.15 6.11,12.26 3,19.43 -1.45,3.39 -3.47,6.72 -6.76,8.55 -2.88,1.6 -6.17,1.76 -9,3.3 a 1.6,1.6 0 0 0 0,2.74 z"
             transform="translate(5.95,1.53)"
             id="path23" />
        </g>
      </g>
      <path
         class="cls-11"
         d="m 56.195213,67.069636 c 13.42,2.58 15.47,-11.5 11.18,-20.56 -3.8,-8 -8.71,-24.21 -4.37,-33 6.63,-13.43999998 27.21,-10.26 27.21,-10.26 0,0 21.249997,5.42 20.569997,46.6 -0.68,41.18 -9.68,61.640004 -41.809997,67.690004 -10.45,2 -43.8,2.43 -57.07,-29.640004 -8.1299997,-19.7 -8.5099997,-39.75 -7.5899997,-52.33 a 28,28 0 0 1 13.0499997,-21.66 c 7.37,-4.6 16.43,-8 21.08,-1.08 7,10.37 3.24,23 1.39,33.64 a 17.45,17.45 0 0 0 13.81,20.1 z"
         id="path27" />
      <path
         class="cls-7"
         d="m 20.735213,20.489636 v 0.06 l 0.31,-0.73 -0.09,0.14 0.5,-0.65 a 0.38,0.38 0 0 1 -0.09,0.09 l 0.65,-0.5 v 0 l 4,0.52 a 4.27,4.27 0 0 0 -1.65,-1 3.65,3.65 0 0 0 -4.49,2.56 3.55,3.55 0 0 0 0,1.94 2.7,2.7 0 0 0 0.59,1.27 3.25,3.25 0 0 0 2.39,1.38 2.66,2.66 0 0 0 1.45,-0.07 2.78,2.78 0 0 0 1.24,-0.65 2.74,2.74 0 0 0 0.92,-1 2.66,2.66 0 0 0 0.43,-1.36 2.75,2.75 0 0 0 -0.06,-1.45 4.2,4.2 0 0 0 -0.4,-0.92 l 0.45,1.65 a 3.87,3.87 0 0 0 -0.48,-1.8 3.16,3.16 0 0 0 -3.57,-1.57 3,3 0 0 0 -2.12,2.12 z"
         id="path28" />
      <path
         class="cls-7"
         d="m 18.915213,33.619636 c 4.1,0 4.1,-6.37 0,-6.37 -4.1,0 -4.11,6.37 0,6.37 z"
         id="path29" />
      <path
         class="cls-7"
         d="m 75.095213,24.059636 c 4.89,0 4.89,-7.6 0,-7.6 -4.89,0 -4.89,7.6 0,7.6 z"
         id="path35" />
    </g>
  </g>
</svg>
