<svg xmlns="http://www.w3.org/2000/svg" xmlns:xlink="http://www.w3.org/1999/xlink" viewBox="0 0 265.25 182.46"><defs><style>.cls-1,.cls-11,.cls-12{fill:none;}.cls-2{fill:#ff899b;}.cls-11,.cls-2{stroke:#592539;}.cls-11,.cls-12,.cls-2,.cls-3{stroke-linecap:round;stroke-linejoin:round;stroke-width:5px;}.cls-3{fill:#edd633;}.cls-12,.cls-3{stroke:#563821;}.cls-4{opacity:0.41;}.cls-5{clip-path:url(#clip-path);}.cls-6{fill:#901a3d;}.cls-7{fill:#e6fff2;}.cls-8{clip-path:url(#clip-path-2);}.cls-9{clip-path:url(#clip-path-3);}.cls-10{clip-path:url(#clip-path-4);}</style><clipPath id="clip-path" transform="translate(5.95 1.53)"><path class="cls-1" d="M195.26,104.05s-11.92.15-13.43-22.56c-2.14-32-3-69.53-3-69.53S176.09,1.53,194.76,2.8,242,6.05,242.37,17.5s-18.88,65.8-26,80.79C214,103.3,213.57,108.43,195.26,104.05Z"/></clipPath><clipPath id="clip-path-2" transform="translate(5.95 1.53)"><path class="cls-1" d="M191.18,114.91a16,16,0,0,1,2.26.41c5.36,1.35,24.4,7.53,14.08,25.12-8.06,13.73-21.25,8.94-29,4.37a17.16,17.16,0,0,1-8.31-12.7C169.23,123.87,171.38,112.78,191.18,114.91Z"/></clipPath><clipPath id="clip-path-3" transform="translate(5.95 1.53)"><path class="cls-1" d="M166.77,19.58c-36.43-18.25-59.41,5.73-59.41,5.73s-19.9,24.56-12.6,34.51,14.6,33.09,14.6,33.09L126,136.13s12.6,8,23.22,0,0-38.48,0-38.48c5.25,1.93,11.08-.4,16.1-3.77a44.92,44.92,0,0,0,16.87-21.77C188.18,55.81,189.79,31.1,166.77,19.58Zm-13,32.28c-7.3,15.26-19.25,12.61-19.25,12.61L131.92,49.2S161.12,36.59,153.82,51.86Z"/></clipPath><clipPath id="clip-path-4" transform="translate(5.95 1.53)"><path class="cls-1" d="M54.89,113.22c13.41,2.58,15.46-11.5,11.17-20.56-3.79-8-8.7-24.21-4.37-33C68.33,46.22,88.9,49.4,88.9,49.4S110.13,54.82,109.47,96s-9.68,61.64-41.81,67.69c-10.45,2-43.8,2.43-57.07-29.64C2.46,114.35,2.08,94.3,3,81.72a27.94,27.94,0,0,1,13-21.66c7.37-4.6,16.44-8,21.09-1.08,7,10.37,3.23,23,1.38,33.64a17.45,17.45,0,0,0,13.81,20.1Z"/></clipPath></defs><g id="Calque_2" data-name="Calque 2"><g id="Warstwa_4" data-name="Warstwa 4"><path class="cls-2" d="M195.91,103.85S184,104,182.49,81.29c-2.14-32-3-69.52-3-69.52s-2.73-10.43,15.94-9.16S242.63,5.86,243,17.31,224.15,83.1,217,98.09C214.65,103.1,214.23,108.23,195.91,103.85Z" transform="translate(5.95 1.53)"/><path class="cls-3" d="M191.84,114.71a17.61,17.61,0,0,1,2.26.42c5.36,1.35,24.39,7.52,14.07,25.11-8,13.74-21.24,8.95-29,4.37a17.14,17.14,0,0,1-8.31-12.69C169.89,123.68,172,112.59,191.84,114.71Z" transform="translate(5.95 1.53)"/><path class="cls-3" d="M167.43,19.39C131,1.14,108,25.12,108,25.12s-19.9,24.55-12.6,34.51S110,92.71,110,92.71l16.59,43.23s12.61,8,23.23,0,0-38.49,0-38.49c5.25,1.94,11.08-.39,16.1-3.76A45,45,0,0,0,182.8,71.92C188.84,55.61,190.44,30.91,167.43,19.39Zm-13,32.27c-7.3,15.27-19.25,12.61-19.25,12.61L132.58,49S161.78,36.4,154.48,51.66Z" transform="translate(5.95 1.53)"/><path class="cls-2" d="M55.54,113C69,115.6,71,101.52,66.72,92.46c-3.79-8-8.7-24.21-4.37-33C69,46,89.56,49.2,89.56,49.2s21.23,5.42,20.57,46.57-9.68,61.64-41.81,67.68c-10.45,2-43.8,2.44-57.07-29.64C3.12,114.15,2.74,94.1,3.66,81.53A28,28,0,0,1,16.71,59.87c7.37-4.61,16.44-8,21.09-1.09,7,10.38,3.23,23,1.38,33.65A17.44,17.44,0,0,0,53,112.52Z" transform="translate(5.95 1.53)"/><g class="cls-4"><g class="cls-5"><path class="cls-6" d="M187.24,102.66l1.7.54-2.85-3.75c-.16,5,6.56,7.79,10.57,8.61,6.16,1.27,12.94-.31,18.51-3,9.94-4.86,16.31-14.92,21-24.54a289.6,289.6,0,0,0,14-35.61c2-6,3.84-12,5.59-18.07,1.92-6.61,5-14.39,2.7-21.2a10,10,0,0,0-16.55-4.37c-4.46,4-5.8,10.26-7.37,15.8s-3.18,10.89-4.91,16.3c-3.24,10.15-6.85,20.18-11,30-3.18,7.56-6.4,15.27-12,21.35-3,3.23-5.92,4.73-10,6.32-3.42,1.34-9.65,3.23-10.43,7.4L190,95.56l-1.8.11a3.58,3.58,0,0,0-.94,7Z" transform="translate(5.95 1.53)"/><path class="cls-7" d="M190.76,89.55c2.91-4.63,2.8-10.77,3.1-16.08.35-6.18.31-12.32.27-18.51-.07-12.34-.29-24.69,0-37a27.4,27.4,0,0,0,.07-3.9q-3.32,1.26-1.94,1.7a1.22,1.22,0,0,0,.71,0c1.89,1,6.18.28,8.4.34,6.16.16,12.32.25,18.48.31a159.37,159.37,0,0,1,18.4,1.2c6.13.76,12.19,1.22,18.15-.86,2.14-.75,3.37-3.68,1.42-5.4C252.43,6.65,246,5,239.1,3.85s-14-2.39-21-3.44a127.75,127.75,0,0,0-22.61-1.5c-5.8.17-12.19,1-15.43,6.5-3.42,5.83-1.26,14-.9,20.32.4,7.14.7,14.29,1,21.44s.49,14.32,1.12,21.43c.59,6.59.52,15.38,4.44,21a2.93,2.93,0,0,0,5,0Z" transform="translate(5.95 1.53)"/></g></g><g class="cls-4"><g class="cls-8"><path class="cls-6" d="M171.67,144.4c3.59,4.62,5.92,8.44,12.06,10A23.59,23.59,0,0,0,202,151.27a32.25,32.25,0,0,0,12-14.78c2.77-6.65,5.88-15.7.64-21.67a6.44,6.44,0,0,0-6.44-1.7c-9.54,3.37-7.29,15.94-13.35,22.95a17.78,17.78,0,0,1-8.49,5.66c-3,.88-8.76,1.75-11.3-.73-2.28-2.23-5.25,1-3.4,3.4Z" transform="translate(5.95 1.53)"/><path class="cls-7" d="M189,114c-5.21-1.49-11.22,1.43-14.15,5.82-4.12,6.16.66,13.58,7.79,13.3,6.58-.25,13.21-8.36,11-14.83a9.53,9.53,0,0,0-9-6.54,9.11,9.11,0,0,0-9,8.7c-.39,5.62,7.59,8.88,11.3,4.68.05-.06.67-.74.66-.76l-1.71.89-3.2-.5-1.78-2.42,0-1.86c0-.65.34-.4-.18,0,.46-.37.31-.36-.08,0a8.83,8.83,0,0,1-.82.8c.57-.45.33-.18-.1-.06a2.8,2.8,0,0,1,2-.1,1.61,1.61,0,0,1,1.48,1.07,1.27,1.27,0,0,1,.69,1.43c.32,1-.09.38.12,0a15,15,0,0,1,.94-1.55,5.56,5.56,0,0,1,3.31-2.36c3.14-.35,4.2-4.82.78-5.8Z" transform="translate(5.95 1.53)"/></g></g><g class="cls-4"><g class="cls-9"><path class="cls-6" d="M139.19,50.7a14.08,14.08,0,0,1,4.55-4.11,27.88,27.88,0,0,1,3-1.25c.62-.21,3-.45,3.4-.86l.6,0c-.64-1.74-1.14-2.08-1.51-1-.62.31-1.35,2.08-1.77,2.62-1.55,2-3.45,3.75-5,5.74s-2,4.35-.39,6.42a4.85,4.85,0,0,0,6.31,1.26c4.31-2.91,8.75-8,10.57-13S158.58,36,153,34.75c-4.84-1.06-11,1.23-14.92,4-4.05,2.94-7.65,9.37-1.5,12.24a2.17,2.17,0,0,0,2.58-.34Z" transform="translate(5.95 1.53)"/><path class="cls-6" d="M184.79,58.22c-2.73,3.21-3.82,6.81-6,10.46a45.11,45.11,0,0,1-8.55,10A45.14,45.14,0,0,1,159,86.42c-4.1,2-8.72,2.2-12.77,4.07-9.42,4.35-6.08,17.26-6.36,25.68a63,63,0,0,1-1.7,13.75c-1.4,5.41-4.35,10.37-4.89,15.92-.8,8.31,9.62,10.28,14.78,6.12,7.37-5.94,8.66-19.63,9-28.42a73.85,73.85,0,0,0-1-14.47c-.34-2.13-.69-4.3-1.22-6.4a37,37,0,0,0-1.23-3.87c-.18-.54-.39-1.07-.62-1.59-.47-1.29-.51-1.07-.13.66l-2.61,3.4c2.15-1.52,5.21-1.77,7.68-2.72a50.76,50.76,0,0,0,6.44-3A47,47,0,0,0,176.87,85.3c5.45-6.29,12.4-18.26,9.47-26.67a.94.94,0,0,0-1.55-.41Z" transform="translate(5.95 1.53)"/><path class="cls-6" d="M149.73,118.26c-4.67,0-7.93,4.81-12,6.33-2.34.86-5.18.21-7.65.22-4.17,0-7.22.67-10.4,3.5-2.07,1.85-2.78,6-1.07,8.35,6.57,9,22.1,7.46,29.63.26a17.42,17.42,0,0,0,5.8-11.65c.14-2.66-.85-7-4.27-7Z" transform="translate(5.95 1.53)"/><path class="cls-7" d="M104,52c8.83-10.41,16.78-20.21,30.1-25,7.17-2.57,15-3.79,22.57-2.38a29.79,29.79,0,0,1,9.47,3.71c3.1,1.77,5.75,4.53,9.55,4.34a3.57,3.57,0,0,0,3.11-1.79c4-9.07-8.15-17.11-15.18-20-10.33-4.31-21.71-3.51-32.19-.06C115.13,16.15,94.61,30.94,98,50.42c.45,2.56,4.29,3.52,6,1.57Z" transform="translate(5.95 1.53)"/><path class="cls-7" d="M93.3,58.18c.64.79,1.16,1.63,1.74,2.46s1.56,1.71,2.31,2.59c1.57,1.82,2.75,3.93,5.37,4.16a2.68,2.68,0,0,0,2.58-2c.77-2.8-1.68-5.25-3.62-6.91a12.18,12.18,0,0,0-3.27-2.26,25.19,25.19,0,0,0-3.41-1,1.77,1.77,0,0,0-1.7,2.93Z" transform="translate(5.95 1.53)"/><path class="cls-7" d="M90.54,61.59a76.24,76.24,0,0,1,8.13,6c2.11,1.93,3.94,5.92,6.89,6.47A2.4,2.4,0,0,0,108.21,73c1.9-4.13-2.4-8.38-5.4-10.77a14.64,14.64,0,0,0-11.9-3.43c-1.43.21-1.33,2.14-.37,2.8Z" transform="translate(5.95 1.53)"/></g></g><g class="cls-4"><g class="cls-10"><path class="cls-6" d="M104.89,72.57c-2.09,14.64-2.84,29-7.82,43.08-4.36,12.32-11.2,23.63-21.29,32.1-8.56,7.19-19.22,11.36-30,10.45a37.17,37.17,0,0,1-13.1-4c-5.4-2.78-10.69-9.73-17.15-9A9.21,9.21,0,0,0,7.2,151.5c-3.5,8.71,6.59,17.12,12.89,21.44,6.74,4.61,14.84,6.77,22.86,7.67,16.16,1.82,31.41-4.38,43.73-14.54,12.55-10.37,20.06-25.81,23.43-41.49,3.52-16.35,3.6-36.14-1.74-52-.51-1.51-3.21-1.91-3.48,0Z" transform="translate(5.95 1.53)"/><path class="cls-6" d="M36.58,56.62C38.89,74,23.83,92.53,34.41,109.29c4.38,6.95,13.08,11.19,21.22,9.21,7.65-1.86,17.23-10.26,13.84-19-1.63-4.21-6.62-7.41-11-4.48-2.69,1.8-5.09,7.67-9,6.65-4.58-1.2-3-10.56-2.79-13.94.46-6.27,1.79-12.38.87-18.66a22.59,22.59,0,0,0-7.12-14c-1.24-1.24-4.1-.43-3.83,1.58Z" transform="translate(5.95 1.53)"/><path class="cls-7" d="M33.7,54.53c-8-4.75-16.86-2.06-23.9,3.5-8.41,6.65-12.75,17-14.45,27.38A100.77,100.77,0,0,0-4.6,118C-3,128.28.35,139.59,7.89,147.14c2.8,2.8,8.18.8,8-3.33-.31-8.59-3-16.89-4.06-25.39a119.38,119.38,0,0,1-.51-24.71c.6-7.55,2.3-15.53,6.31-22,3.69-6,9.82-10.58,16-13.74a2,2,0,0,0,0-3.4Z" transform="translate(5.95 1.53)"/><path class="cls-7" d="M66.92,85c.31-7.65,2.22-15.79,8.57-20.82,5.6-4.43,11.27-3.08,17.79-1.77a5.68,5.68,0,0,0,6.33-8.24v5.67c1.25-1.63.81-4,0-5.67-6.1-12.64-24.18-10.63-33.14-2.45-9.82,9-11.12,23.33-5,34.74,1.43,2.64,5.29,1.29,5.41-1.46Z" transform="translate(5.95 1.53)"/><path class="cls-7" d="M53.38,121.09c5.37,3,12.55-.37,17.43-3.11,6.77-3.8,10.39-10.93,10.72-18.58.38-8.54-4.18-14.1-8-21.18-4.68-8.75,2.41-16.92,6-24.6,2.08-4.41-3.08-8.82-6.87-5.3-5.75,5.31-10.12,12-11.42,19.89-1.18,7.12,1,13,4.83,18.86,4,6.15,6.11,12.26,3,19.43-1.45,3.39-3.47,6.72-6.76,8.55-2.88,1.6-6.17,1.76-9,3.3a1.6,1.6,0,0,0,0,2.74Z" transform="translate(5.95 1.53)"/></g></g><path class="cls-11" d="M180.13,27.79c-.31-9.58-.46-15.83-.46-15.83S176.94,1.53,195.61,2.8s47.2,3.25,47.61,14.7-18.88,65.8-26,80.79c-2.38,5-2.8,10.14-21.12,5.76,0,0-15.81-5.06-14.11-31.94" transform="translate(5.95 1.53)"/><path class="cls-12" d="M191,114.91a15.62,15.62,0,0,1,2.25.41c5.37,1.35,24.4,7.53,14.08,25.12-8.05,13.73-21.24,8.94-29,4.37a17.16,17.16,0,0,1-8.31-12.7C169.08,123.87,171.23,112.78,191,114.91Z" transform="translate(5.95 1.53)"/><path class="cls-12" d="M111.26,98.25l14.53,37.88s12.61,8,23.23,0,0-38.48,0-38.48c5.25,1.93,11.08-.4,16.1-3.77A45,45,0,0,0,182,72.11c6-16.3,7.64-41-15.37-52.53-36.43-18.25-59.41,5.73-59.41,5.73S96.82,38.13,93.81,49m0,0c-.21.74-.38,1.47-.51,2.18m60.36.68c-7.3,15.26-19.24,12.61-19.24,12.61L131.77,49.2S161,36.59,153.66,51.86Z" transform="translate(5.95 1.53)"/><path class="cls-11" d="M54.73,113.22c13.42,2.58,15.47-11.5,11.18-20.56-3.8-8-8.71-24.21-4.37-33C68.17,46.22,88.75,49.4,88.75,49.4S110,54.82,109.32,96s-9.68,61.64-41.81,67.69c-10.45,2-43.8,2.43-57.07-29.64C2.31,114.35,1.93,94.3,2.85,81.72A28,28,0,0,1,15.9,60.06c7.37-4.6,16.43-8,21.08-1.08,7,10.37,3.24,23,1.39,33.64a17.45,17.45,0,0,0,13.81,20.1Z" transform="translate(5.95 1.53)"/><path class="cls-7" d="M19.27,66.64l0,.06.31-.73-.09.14.5-.65a.38.38,0,0,1-.09.09l.65-.5h0l4,.52a4.27,4.27,0,0,0-1.65-1,3.65,3.65,0,0,0-4.49,2.56,3.55,3.55,0,0,0,0,1.94A2.7,2.7,0,0,0,19,70.34a3.25,3.25,0,0,0,2.39,1.38,2.66,2.66,0,0,0,1.45-.07A2.78,2.78,0,0,0,24.08,71,2.74,2.74,0,0,0,25,70a2.66,2.66,0,0,0,.43-1.36,2.75,2.75,0,0,0-.06-1.45,4.2,4.2,0,0,0-.4-.92l.45,1.65a3.87,3.87,0,0,0-.48-1.8,3.16,3.16,0,0,0-3.57-1.57,3,3,0,0,0-2.12,2.12Z" transform="translate(5.95 1.53)"/><path class="cls-7" d="M17.45,79.77c4.1,0,4.1-6.37,0-6.37s-4.11,6.37,0,6.37Z" transform="translate(5.95 1.53)"/><path class="cls-7" d="M117.62,27.21h-.05a3.38,3.38,0,0,0-1.72.39,3.27,3.27,0,0,0-1.43.92,4.45,4.45,0,0,0-1.31,3.15v.07a4.35,4.35,0,0,0,.6,2.22,3.26,3.26,0,0,0,1.13,1.23,3.31,3.31,0,0,0,1.49.79,4.42,4.42,0,0,0,2.34,0h.07a3.43,3.43,0,0,0,1.52-.8,3.38,3.38,0,0,0,1.15-1.25l.44-1.07a4.3,4.3,0,0,0,0-2.36v-.06l-.45-1.05a3.26,3.26,0,0,0-1.13-1.23,2.11,2.11,0,0,0-1-.56,3.26,3.26,0,0,0-1.69-.38Z" transform="translate(5.95 1.53)"/><path class="cls-7" d="M112.56,43.84c2.84,0,2.84-4.41,0-4.41s-2.84,4.41,0,4.41Z" transform="translate(5.95 1.53)"/><path class="cls-7" d="M199.45,20.62a3.52,3.52,0,0,0,1.83-.41,3.57,3.57,0,0,0,1.53-1,3.59,3.59,0,0,0,1-1.54,3.52,3.52,0,0,0,.41-1.83L204,14.59a4.67,4.67,0,0,0-1.23-2.1l-1-.75a4.7,4.7,0,0,0-2.4-.65,3.63,3.63,0,0,0-1.84.41,3.5,3.5,0,0,0-1.53,1,3.5,3.5,0,0,0-1,1.53,3.63,3.63,0,0,0-.41,1.84l.17,1.26a4.85,4.85,0,0,0,1.23,2.11l1,.74a4.74,4.74,0,0,0,2.41.65Z" transform="translate(5.95 1.53)"/><path class="cls-7" d="M193,29.51l.16.34a2.91,2.91,0,0,0,1.06,1.06,2.91,2.91,0,0,0,3,0,2.84,2.84,0,0,0,1.06-1.06l.16-.34a3.06,3.06,0,0,0,.43-1.59,3,3,0,0,0-.43-1.58A3.14,3.14,0,1,0,193,29.51Z" transform="translate(5.95 1.53)"/><path class="cls-7" d="M182.9,125.12a1.64,1.64,0,0,0,0-3.28,1.64,1.64,0,0,0,0,3.28Z" transform="translate(5.95 1.53)"/><path class="cls-7" d="M73.63,70.21c4.89,0,4.89-7.6,0-7.6s-4.89,7.6,0,7.6Z" transform="translate(5.95 1.53)"/></g></g></svg>