<?xml version="1.0" encoding="UTF-8" standalone="no"?>
<svg
   viewBox="0 0 92.138108 119.95984"
   style="fill:#000000"
   original_string_length="11385"
   width="28.836"
   height="37.512001"
   version="1.1"
   id="svg29"
   sodipodi:docname="yes-pink-s.svg"
   inkscape:version="1.4.2 (f4327f4, 2025-05-13)"
   xmlns:inkscape="http://www.inkscape.org/namespaces/inkscape"
   xmlns:sodipodi="http://sodipodi.sourceforge.net/DTD/sodipodi-0.dtd"
   xmlns="http://www.w3.org/2000/svg"
   xmlns:svg="http://www.w3.org/2000/svg">
  <sodipodi:namedview
     id="namedview29"
     pagecolor="#ffffff"
     bordercolor="#999999"
     borderopacity="1"
     inkscape:showpageshadow="2"
     inkscape:pageopacity="0"
     inkscape:pagecheckerboard="0"
     inkscape:deskcolor="#d1d1d1"
     inkscape:zoom="14.326159"
     inkscape:cx="34.482377"
     inkscape:cy="26.978621"
     inkscape:window-width="1920"
     inkscape:window-height="991"
     inkscape:window-x="-9"
     inkscape:window-y="-9"
     inkscape:window-maximized="1"
     inkscape:current-layer="svg29" />
  <defs
     id="defs3">
    <clipPath
       id="__id3_sirgy15ajn"
       transform="translate(1.14 1.27)">
      <path
         d="m 30.13,2.36 c 0,0 15.26,-2.65 14.59,11.29 -0.67,13.94 0,33.18 0,33.18 0,0 2.63,7.29 9.93,-6 C 61.95,27.54 70.6,11 83.21,17 c 12.61,6 6,25.22 6,25.22 0,0 -39.21,87.55 -65.72,86.23 -11.95,-0.6 -17.31,-5.5 -19.59,-10.7 A 14.24,14.24 0 0 1 9,100.47 C 18.3,94 34.69,81.58 32.78,75.36 30.13,66.73 12.87,74 14.2,48.82 c 1.33,-25.18 4,-36.5 4,-36.5 0,0 -0.02,-7.32 11.93,-9.96 z"
         style="fill:none"
         id="path1" />
    </clipPath>
    <clipPath
       id="__id4_sirgy15ajn"
       transform="translate(1.14 1.27)">
      <path
         d="m 199.92,72.94 c 0,0 -5.89,7.1 -12,3.4 A 19,19 0 0 0 178,74 a 6.77,6.77 0 0 0 -6.73,7.46 c 0.66,5.06 6.07,12 26.9,18.08 17.34,5 8.11,29.84 -3.91,44.27 a 51.62,51.62 0 0 1 -37.9,18.85 c -13.34,0.4 -36.16,-7.13 -34.62,-28 1.14,-15.47 14,-18.23 23.44,-9.39 a 20,20 0 0 0 17.07,5.23 c 8.17,-1.42 17.1,-5 12.23,-13.82 -8.27,-15 -28.14,-21 -28.14,-21 0,0 -17.58,-11.65 -6.91,-27.37 10.67,-15.72 31.72,-17 31.72,-17 0,0 37.85,-5.11 28.77,21.63 z"
         style="fill:none"
         id="path2" />
    </clipPath>
    <clipPath
       id="__id5_sirgy15ajn"
       transform="translate(1.14 1.27)">
      <path
         d="m 132.69,64.58 a 11.08,11.08 0 0 0 5.8,0 c 4.15,-1 9.83,-3.54 8.54,-9.13 -1.36,-5.89 -8.29,-10.23 -12.55,-12.4 a 18,18 0 0 0 -6.84,-1.88 c -10.17,-0.7 -40.08,-0.5 -54.27,24.14 -17.25,30 -25.22,53.18 -11.28,69.77 13.94,16.59 54.41,18.58 61.05,4 6.64,-14.58 5.31,-20.57 0.66,-20.57 -4.65,0 -19.24,7.3 -29.86,1.33 -10.62,-5.97 -5.31,-12.61 -5.31,-12.61 0,0 1.69,-5.31 12.46,-3.32 10.77,1.99 30.68,6 32,-5.3 1.32,-11.3 -2,-16.59 -7.3,-15.27 -8.14,2 -20.21,2 -24.7,-1.32 -4.49,-3.32 1.48,-10.62 3.47,-12 1.84,-1.2 20.15,-7.69 28.13,-5.44 z"
         style="fill:none"
         id="path3" />
    </clipPath>
  </defs>
  <g
     data-name="Calque 2"
     id="g29"
     transform="translate(-120.76268,-48.885446)">
    <g
       data-name="Warstwa 3"
       id="g28">
      <path
         d="m 197.94,100.15 c -20.83,-6 -26.24,-13 -26.89,-18.08 -0.40874,-3.983538 2.71555,-7.44722 6.72,-7.45 3.44465,-0.148802 6.86448,0.646508 9.89,2.3 6.11,3.7 12,-3.39 12,-3.39 C 208.78,46.78 170.93,52 170.93,52 c 0,0 -21.05,1.23 -31.72,17 -10.67,15.77 6.91,27.37 6.91,27.37 0,0 19.86,6 28.14,21 4.87,8.84 -4.06,12.39 -12.23,13.82 -6.19536,0.99983 -12.50079,-0.96622 -17.03,-5.31 -5.72,-5.38 -12.72,-6.45 -17.6,-3 -5.89958,7.61275 -4.30182,-1.20708 -5.57,17.42389 2.88,16.21 22.38,23.32611 34.32,22.96611 14.73008,-0.58809 28.50525,-7.44839 37.85,-18.85 12.06,-14.42 21.29,-39.25 3.94,-44.27 z"
         stroke="#1c3026"
         stroke-linecap="round"
         stroke-linejoin="round"
         stroke-width="5"
         transform="translate(1.14,1.27)"
         style="fill:#ff2262"
         id="path4"
         sodipodi:nodetypes="ccccccsccccccccc" />
      <g
         opacity="0.41"
         id="g11">
        <g
           clip-path="url(#__id3_sirgy15ajn)"
           id="g10" />
      </g>
      <g
         opacity="0.41"
         id="g16">
        <g
           clip-path="url(#__id4_sirgy15ajn)"
           id="g15">
          <path
             d="m 123,132.66 c -2.36,4.64 -2.78,8.24 -2.05,13.39 a 24.79,24.79 0 0 0 7.2,14.09 c 8.15,8.3 20,11.55 31.41,11.11 11.56,-0.45 22.65,-3.94 33.15,-8.6 9.58,-4.25 23.16,-11.15 26.28,-21.93 2,-6.89 -4.38,-11.35 -10.49,-10.49 -4.71,0.66 -8.57,3.81 -12.42,6.37 a 101.35,101.35 0 0 1 -10.23,6 77.55,77.55 0 0 1 -22.24,7.64 c -6.71,1.13 -14.11,0.86 -20,-2.89 -2.67,-1.7 -4.55,-3.95 -6.68,-6.22 a 15.86,15.86 0 0 1 -2.59,-3.43 7,7 0 0 0 -1.81,-3.12 c 0.49,1.05 0.43,0.83 -0.19,-0.66 -1.44,-3.76 -7.16,-5.49 -9.34,-1.22 z"
             transform="translate(1.14,1.27)"
             style="fill:#901a3d"
             id="path11" />
          <path
             d="m 171.45,126 c 8.12,0.72 13.84,-7.66 11.69,-15.11 -2.38,-8.24 -10.07,-14.66 -17,-19 -5.32,-3.34 -15.18,-6.7 -16.86,-13.58 -1.76,-7.2 4.85,-13.75 4.6,-20.76 -0.07,-1.89 -1.65,-3.85 -3.71,-3.7 -6.67,0.49 -13.32,7.09 -16.25,12.74 a 23.26,23.26 0 0 0 1.5,24.17 c 4.69,6.88 11.6,10.94 18.75,14.83 a 42,42 0 0 1 9,6 26.06,26.06 0 0 1 3.79,3.93 5.62,5.62 0 0 1 0.68,1.06 q 0.74,3.51 2.3,-1.74 c -6.41,1.87 -4.69,10.59 1.51,11.15 z"
             transform="translate(1.14,1.27)"
             style="fill:#901a3d"
             id="path12" />
          <path
             d="m 180.93,75.05 -0.39,-0.71 -4.16,7.24 c 3.88,-0.25 7.41,-1.6 11.27,-0.28 4.53,1.56 7.24,6.17 12,7.06 5.54,1 9.43,-3.13 8.56,-8.56 -1.28,-8 -12.17,-13.66 -19.47,-14.52 -7.48,-0.88 -16.83,3 -17.22,11.49 -0.15,3.2 3.19,5.38 6.09,4.64 l 0.56,0.06 c 4.11,1 5.77,-4.09 2.71,-6.42 z"
             transform="translate(1.14,1.27)"
             style="fill:#901a3d"
             id="path13" />
          <path
             d="m 162,60 c 7.5,0.12 14.84,0.1 22.23,1.62 a 69.5,69.5 0 0 1 10.09,2.88 c 3.06,1.12 5.74,2.05 8.64,0.14 a 3.34,3.34 0 0 0 1.46,-3.6 c -1.26,-7 -13.59,-8.05 -19.15,-8.82 -8,-1.11 -16.43,-1 -24.1,1.61 -3.31,1.1 -2.81,6.11 0.83,6.17 z"
             transform="translate(1.14,1.27)"
             style="fill:#e6fff2"
             id="path14" />
          <path
             d="m 183.89,101 c 4.33,2.61 8.85,5.76 11.53,10.14 2.68,4.38 2.44,9.65 2.75,14.61 a 2.71,2.71 0 0 0 4.56,1.89 c 6.1,-5.25 4.82,-14.11 0.92,-20.45 -4.08,-6.63 -10.86,-10.26 -18.48,-10.91 -2.6,-0.22 -3.3,3.5 -1.28,4.72 z"
             transform="translate(1.14,1.27)"
             style="fill:#e6fff2"
             id="path15" />
        </g>
      </g>
      <g
         opacity="0.41"
         id="g21">
        <g
           clip-path="url(#__id5_sirgy15ajn)"
           id="g20" />
      </g>
      <path
         d="m 127.65,122.6 c 4.87,-3.42 11.86,-2.33 17.57,3 a 20,20 0 0 0 17.07,5.23 c 8.17,-1.42 17.1,-5 12.23,-13.82 -8.27,-15 -28.14,-21 -28.14,-21 0,0 -17.58,-11.61 -6.91,-27.34 10.67,-15.73 31.72,-17 31.72,-17 0,0 37.81,-5.13 28.73,21.61 0,0 -5.89,7.1 -12,3.4 a 18.8,18.8 0 0 0 -9.92,-2.31 6.77,6.77 0 0 0 -6.73,7.46 c 0.39,3 2.49,6.74 8.56,10.53"
         stroke="#1c3026"
         stroke-linecap="round"
         stroke-linejoin="round"
         stroke-width="5"
         transform="translate(1.14,1.27)"
         style="fill:none"
         id="path22" />
      <path
         d="m 179.87,92.36 c 4.08,2.54 10,5.12 18.34,7.54 17.34,5 8.11,29.85 -3.91,44.28 A 51.62,51.62 0 0 1 156.4,163 c -11.23,0.34 -29.18,-4.95 -33.66,-19.08"
         stroke="#1c3026"
         stroke-linecap="round"
         stroke-linejoin="round"
         stroke-width="5"
         transform="translate(1.14,1.27)"
         style="fill:none"
         id="path23" />
      <path
         d="m 140.86,136.83 0.53,-0.22 A 4.33,4.33 0 0 0 143,135 a 4.4,4.4 0 0 0 0,-4.47 4.38,4.38 0 0 0 -1.59,-1.58 l -0.53,-0.23 a 4.69,4.69 0 0 0 -4.73,0 4.69,4.69 0 0 0 0,8.09 4.69,4.69 0 0 0 4.73,0 z"
         transform="translate(1.14,1.27)"
         style="fill:#e6fff2"
         id="path27" />
      <path
         d="m 147.89,143.52 c 3.74,0 3.74,-5.81 0,-5.81 -3.74,0 -3.75,5.81 0,5.81 z"
         transform="translate(1.14,1.27)"
         style="fill:#e6fff2"
         id="path28" />
    </g>
  </g>
</svg>
