<?xml version="1.0" encoding="UTF-8" standalone="no"?>
<svg
   viewBox="0 0 95.90528 134.17443"
   style="fill:#000000"
   original_string_length="11385"
   width="30.014999"
   height="41.957001"
   version="1.1"
   id="svg29"
   sodipodi:docname="yes-pink-y.svg"
   inkscape:version="1.4.2 (f4327f4, 2025-05-13)"
   xmlns:inkscape="http://www.inkscape.org/namespaces/inkscape"
   xmlns:sodipodi="http://sodipodi.sourceforge.net/DTD/sodipodi-0.dtd"
   xmlns="http://www.w3.org/2000/svg"
   xmlns:svg="http://www.w3.org/2000/svg">
  <sodipodi:namedview
     id="namedview29"
     pagecolor="#ffffff"
     bordercolor="#999999"
     borderopacity="1"
     inkscape:showpageshadow="2"
     inkscape:pageopacity="0"
     inkscape:pagecheckerboard="0"
     inkscape:deskcolor="#d1d1d1"
     inkscape:zoom="10.130124"
     inkscape:cx="2.5666023"
     inkscape:cy="35.093351"
     inkscape:window-width="1920"
     inkscape:window-height="991"
     inkscape:window-x="-9"
     inkscape:window-y="-9"
     inkscape:window-maximized="1"
     inkscape:current-layer="svg29" />
  <defs
     id="defs3">
    <clipPath
       id="__id3_sirgy15ajn"
       transform="translate(1.14 1.27)">
      <path
         d="m 30.13,2.36 c 0,0 15.26,-2.65 14.59,11.29 -0.67,13.94 0,33.18 0,33.18 0,0 2.63,7.29 9.93,-6 C 61.95,27.54 70.6,11 83.21,17 c 12.61,6 6,25.22 6,25.22 0,0 -39.21,87.55 -65.72,86.23 -11.95,-0.6 -17.31,-5.5 -19.59,-10.7 A 14.24,14.24 0 0 1 9,100.47 C 18.3,94 34.69,81.58 32.78,75.36 30.13,66.73 12.87,74 14.2,48.82 c 1.33,-25.18 4,-36.5 4,-36.5 0,0 -0.02,-7.32 11.93,-9.96 z"
         style="fill:none"
         id="path1" />
    </clipPath>
    <clipPath
       id="__id4_sirgy15ajn"
       transform="translate(1.14 1.27)">
      <path
         d="m 199.92,72.94 c 0,0 -5.89,7.1 -12,3.4 A 19,19 0 0 0 178,74 a 6.77,6.77 0 0 0 -6.73,7.46 c 0.66,5.06 6.07,12 26.9,18.08 17.34,5 8.11,29.84 -3.91,44.27 a 51.62,51.62 0 0 1 -37.9,18.85 c -13.34,0.4 -36.16,-7.13 -34.62,-28 1.14,-15.47 14,-18.23 23.44,-9.39 a 20,20 0 0 0 17.07,5.23 c 8.17,-1.42 17.1,-5 12.23,-13.82 -8.27,-15 -28.14,-21 -28.14,-21 0,0 -17.58,-11.65 -6.91,-27.37 10.67,-15.72 31.72,-17 31.72,-17 0,0 37.85,-5.11 28.77,21.63 z"
         style="fill:none"
         id="path2" />
    </clipPath>
    <clipPath
       id="__id5_sirgy15ajn"
       transform="translate(1.14 1.27)">
      <path
         d="m 132.69,64.58 a 11.08,11.08 0 0 0 5.8,0 c 4.15,-1 9.83,-3.54 8.54,-9.13 -1.36,-5.89 -8.29,-10.23 -12.55,-12.4 a 18,18 0 0 0 -6.84,-1.88 c -10.17,-0.7 -40.08,-0.5 -54.27,24.14 -17.25,30 -25.22,53.18 -11.28,69.77 13.94,16.59 54.41,18.58 61.05,4 6.64,-14.58 5.31,-20.57 0.66,-20.57 -4.65,0 -19.24,7.3 -29.86,1.33 -10.62,-5.97 -5.31,-12.61 -5.31,-12.61 0,0 1.69,-5.31 12.46,-3.32 10.77,1.99 30.68,6 32,-5.3 1.32,-11.3 -2,-16.59 -7.3,-15.27 -8.14,2 -20.21,2 -24.7,-1.32 -4.49,-3.32 1.48,-10.62 3.47,-12 1.84,-1.2 20.15,-7.69 28.13,-5.44 z"
         style="fill:none"
         id="path3" />
    </clipPath>
  </defs>
  <g
     data-name="Calque 2"
     id="g29">
    <g
       data-name="Warstwa 3"
       id="g28">
      <path
         d="m 78.213338,65.691151 c 7.982241,-18.782368 6.299585,-19.192076 10.282082,-17.545963 1.896329,0.50985 -3.893914,-4.107769 0.370033,-6.827397 3.039206,-8.38719 0.150569,-3.988634 -6.839218,-8.015967 -2.135788,-1.075452 -50.224805,-6.625427 1.855628,1.69154 -51.528137,-0.773222 16.570667,3.449683 1.39067,15.509683 C 88.422533,44.093047 88.98,42.7 88.98,42.7 c 0,0 6.64,-19.24 -6,-25.22 -12.64,-5.98 -21.27,10.68 -28.57,23.95 -7.3,13.27 -9.93,6 -9.93,6 0,0 -0.68,-19.25 0,-33.18 C 45.16,0.32 29.86,3 29.86,3 17.92,5.65 17.92,13 17.92,13 c 0,0 -2.66,11.28 -4,36.5 -1.34,25.22 15.94,17.81 18.6,26.44 1.91,6.23 -14.52,18.67 -23.76,25.12 -5.6000105,3.80399 -7.7418443,11.0285 -5.12,17.27 2.28,5.2 7.64,10.1 19.59,10.7 10.43,0.52 37.974104,-30.888849 54.983338,-63.338849 z"
         stroke="#1c3026"
         stroke-linecap="round"
         stroke-linejoin="round"
         stroke-width="5"
         transform="translate(1.14,1.27)"
         style="fill:#ff2262;stroke:#1c3026;stroke-opacity:0"
         id="path4"
         sodipodi:nodetypes="cccccccsscsccsccccc" />
      <g
         opacity="0.41"
         id="g11">
        <g
           clip-path="url(#__id3_sirgy15ajn)"
           id="g10">
          <path
             d="m 85.35,19.05 c -8,7.84 -11.61,20 -16.33,30 a 327,327 0 0 1 -17.24,31.76 294,294 0 0 1 -20,28.64 C 28.7,113.32 25.39,117.6 21,120 c -4.68,2.54 -7.71,1.32 -12.37,-0.35 -7.75,-2.76 -12.84,7.83 -7.69,13.17 9.68,10 26,4.15 34.83,-3.83 9.7,-8.81 17.24,-21.15 24.3,-32.09 A 318.84,318.84 0 0 0 79.83,61.46 c 5.55,-11.63 13.76,-26.42 12,-39.73 -0.41,-3.12 -3.91,-5.19 -6.48,-2.68 z"
             transform="translate(1.14,1.27)"
             style="fill:#901a3d"
             id="path5" />
          <path
             d="m 34.82,66.35 c -2.41,-2.59 -5.79,-3.52 -8.32,-6 A 35.4,35.4 0 0 1 20,50.75 c -1.82,-3.58 -2.72,-7.38 -3.82,-11.21 -1.1,-3.83 -1.9,-8.55 -5,-11.19 a 5.09,5.09 0 0 0 -7,0 C -0.37,32.11 0,40.13 1,45.42 a 47.84,47.84 0 0 0 7.33,17.85 c 3.56,5.18 7.75,9.82 13.89,11.84 5.41,1.78 11.46,0.93 13.62,-4.89 a 4,4 0 0 0 -1,-3.87 z"
             transform="translate(1.14,1.27)"
             style="fill:#901a3d"
             id="path6" />
          <path
             d="m 24.51,13.43 c 1.36,-0.81 4.09,-2.82 5.8,-2.32 1.21,0.36 -0.19,-0.34 0.21,0.91 a 16.06,16.06 0 0 1 0.21,3.68 c 0.3,5.57 0.48,11.17 0.92,16.74 0.62,7.78 2.49,18.32 12.22,18.63 4.58,0.14 7.43,-5.2 5.18,-9 C 43.3,32.26 47.05,19.48 44.32,8.72 42.93,3.27 38.73,-0.82 33,-1.23 27,-1.67 22.72,1.87 18.65,5.85 c -3.92,3.82 1.11,10.4 5.85,7.58 z"
             transform="translate(1.14,1.27)"
             style="fill:#e6fff2"
             id="path7" />
          <path
             d="m 38.47,31 c -4.14,7.25 -6.58,15.24 -0.2,22.19 6,6.5 15.61,6 21.57,-0.15 5.51,-5.69 8.8,-14.39 13,-21.06 C 77.21,25 84.15,17.34 84.32,8.79 a 5.58,5.58 0 0 0 -7,-5.34 c -10,3.06 -16.23,15.6 -21.35,24 C 53.48,31.5 50,36 48.4,40.5 a 14.27,14.27 0 0 1 -0.82,1.26 h 1.89 c 0,0.28 -0.32,-0.52 -0.33,-0.47 0.11,-0.57 -1.16,-2.8 -1.34,-3.5 A 20.69,20.69 0 0 1 47,33.28 c -0.23,-4.4 -6.21,-6.43 -8.56,-2.32 z"
             transform="translate(1.14,1.27)"
             style="fill:#e6fff2"
             id="path8" />
          <path
             d="m 6.3,112.18 c 5.12,-3.83 10.21,-7.63 15.12,-11.72 C 25.84,96.77 31.53,93.24 33.63,87.69 34.5,85.38 31.96,83.59 29.94,84 24.57,85.07 20,90.23 16,93.71 c -4.81,4.17 -9.39,8.53 -14,13 -2.79,2.69 1,8 4.26,5.52 z"
             transform="translate(1.14,1.27)"
             style="fill:#e6fff2"
             id="path9" />
          <path
             d="m 27.42,93 c 3.77,-3.08 6.33,-7.28 8.57,-11.57 2.11,-4.05 -4.17,-7.61 -6.07,-3.55 -1.9,4.06 -4.52,7.88 -6.69,11.88 -1.52,2.79 1.9,5.12 4.19,3.24 z"
             transform="translate(1.14,1.27)"
             style="fill:#e6fff2"
             id="path10" />
        </g>
      </g>
      <g
         opacity="0.41"
         id="g16">
        <g
           clip-path="url(#__id4_sirgy15ajn)"
           id="g15">
          <path
             d="m 123,132.66 c -2.36,4.64 -2.78,8.24 -2.05,13.39 a 24.79,24.79 0 0 0 7.2,14.09 c 8.15,8.3 20,11.55 31.41,11.11 11.56,-0.45 22.65,-3.94 33.15,-8.6 9.58,-4.25 23.16,-11.15 26.28,-21.93 2,-6.89 -4.38,-11.35 -10.49,-10.49 -4.71,0.66 -8.57,3.81 -12.42,6.37 a 101.35,101.35 0 0 1 -10.23,6 77.55,77.55 0 0 1 -22.24,7.64 c -6.71,1.13 -14.11,0.86 -20,-2.89 -2.67,-1.7 -4.55,-3.95 -6.68,-6.22 a 15.86,15.86 0 0 1 -2.59,-3.43 7,7 0 0 0 -1.81,-3.12 c 0.49,1.05 0.43,0.83 -0.19,-0.66 -1.44,-3.76 -7.16,-5.49 -9.34,-1.22 z"
             transform="translate(1.14,1.27)"
             style="fill:#901a3d"
             id="path11" />
          <path
             d="m 171.45,126 c 8.12,0.72 13.84,-7.66 11.69,-15.11 -2.38,-8.24 -10.07,-14.66 -17,-19 -5.32,-3.34 -15.18,-6.7 -16.86,-13.58 -1.76,-7.2 4.85,-13.75 4.6,-20.76 -0.07,-1.89 -1.65,-3.85 -3.71,-3.7 -6.67,0.49 -13.32,7.09 -16.25,12.74 a 23.26,23.26 0 0 0 1.5,24.17 c 4.69,6.88 11.6,10.94 18.75,14.83 a 42,42 0 0 1 9,6 26.06,26.06 0 0 1 3.79,3.93 5.62,5.62 0 0 1 0.68,1.06 q 0.74,3.51 2.3,-1.74 c -6.41,1.87 -4.69,10.59 1.51,11.15 z"
             transform="translate(1.14,1.27)"
             style="fill:#901a3d"
             id="path12" />
          <path
             d="m 180.93,75.05 -0.39,-0.71 -4.16,7.24 c 3.88,-0.25 7.41,-1.6 11.27,-0.28 4.53,1.56 7.24,6.17 12,7.06 5.54,1 9.43,-3.13 8.56,-8.56 -1.28,-8 -12.17,-13.66 -19.47,-14.52 -7.48,-0.88 -16.83,3 -17.22,11.49 -0.15,3.2 3.19,5.38 6.09,4.64 l 0.56,0.06 c 4.11,1 5.77,-4.09 2.71,-6.42 z"
             transform="translate(1.14,1.27)"
             style="fill:#901a3d"
             id="path13" />
          <path
             d="m 162,60 c 7.5,0.12 14.84,0.1 22.23,1.62 a 69.5,69.5 0 0 1 10.09,2.88 c 3.06,1.12 5.74,2.05 8.64,0.14 a 3.34,3.34 0 0 0 1.46,-3.6 c -1.26,-7 -13.59,-8.05 -19.15,-8.82 -8,-1.11 -16.43,-1 -24.1,1.61 -3.31,1.1 -2.81,6.11 0.83,6.17 z"
             transform="translate(1.14,1.27)"
             style="fill:#e6fff2"
             id="path14" />
          <path
             d="m 183.89,101 c 4.33,2.61 8.85,5.76 11.53,10.14 2.68,4.38 2.44,9.65 2.75,14.61 a 2.71,2.71 0 0 0 4.56,1.89 c 6.1,-5.25 4.82,-14.11 0.92,-20.45 -4.08,-6.63 -10.86,-10.26 -18.48,-10.91 -2.6,-0.22 -3.3,3.5 -1.28,4.72 z"
             transform="translate(1.14,1.27)"
             style="fill:#e6fff2"
             id="path15" />
        </g>
      </g>
      <g
         opacity="0.41"
         id="g21">
        <g
           clip-path="url(#__id5_sirgy15ajn)"
           id="g20" />
      </g>
      <path
         d="m 30.13,2.7 c 0,0 15.26,-2.65 14.59,11.3 -0.67,13.95 0,33.18 0,33.18 0,0 2.63,7.3 9.93,-6 7.3,-13.3 15.95,-29.85 28.56,-23.88 12.61,5.97 6,25.22 6,25.22 0,0 -39.21,87.59 -65.72,86.26 C 11.54,128.19 6.18,123.29 3.9,118.08 A 14.23,14.23 0 0 1 9,100.81 C 18.3,94.36 34.69,81.92 32.78,75.7 30.13,67.07 12.87,74.37 14.2,49.15 c 1.33,-25.22 4,-36.49 4,-36.49 0,0 -0.02,-7.3 11.93,-9.96 z"
         stroke="#1c3026"
         stroke-linecap="round"
         stroke-linejoin="round"
         stroke-width="5"
         transform="translate(1.14,1.27)"
         style="fill:none"
         id="path21" />
      <path
         d="m 127.65,122.6 c 4.87,-3.42 11.86,-2.33 17.57,3 a 20,20 0 0 0 17.07,5.23 c 8.17,-1.42 17.1,-5 12.23,-13.82 -8.27,-15 -28.14,-21 -28.14,-21 0,0 -17.58,-11.61 -6.91,-27.34 10.67,-15.73 31.72,-17 31.72,-17 0,0 37.81,-5.13 28.73,21.61 0,0 -5.89,7.1 -12,3.4 a 18.8,18.8 0 0 0 -9.92,-2.31 6.77,6.77 0 0 0 -6.73,7.46 c 0.39,3 2.49,6.74 8.56,10.53"
         stroke="#1c3026"
         stroke-linecap="round"
         stroke-linejoin="round"
         stroke-width="5"
         transform="translate(1.14,1.27)"
         style="fill:none"
         id="path22" />
      <path
         d="m 33.77,11.6 a 2.94,2.94 0 0 0 -0.71,-0.55 3.77,3.77 0 0 0 -1.77,-0.47 3.21,3.21 0 0 0 -1,0.13 4.11,4.11 0 0 0 -0.89,0.38 3.82,3.82 0 0 0 -1.4,1.34 l 0.58,-0.75 c -0.2,0.24 -0.4,0.49 -0.58,0.75 a 3.72,3.72 0 0 0 -0.5,1.87 l 0.13,1 v 0 c 0,0.06 0.35,0.86 0.39,0.91 a 2.8,2.8 0 0 0 1,1.05 2.65,2.65 0 0 0 1.27,0.67 l 1,0.14 a 3.67,3.67 0 0 0 1.89,-0.51 l 0.39,-0.3 a 2.7,2.7 0 0 0 1,-1.05 l 0.38,-0.89 a 3.76,3.76 0 0 0 0.13,-1 2.87,2.87 0 0 0 -0.32,-1.44 2.72,2.72 0 0 0 -0.78,-1.2 l -0.76,-0.59 a 3.67,3.67 0 0 0 -1.89,-0.51 v 0 l 1,0.13 h -0.06 l 0.89,0.37 c -0.32,-0.16 1.1,0.07 -0.91,-0.38 l -1,-0.13 a 4.63,4.63 0 0 0 -1,0.13 l 1,-0.13 v 0 l 1,0.13 v 0 l 0.87,0.37 v 0 l 0.73,0.56 v 0 l 0.55,0.7 a 0.05,0.05 0 0 1 0,-0.05 l 0.34,0.81 a 0.19,0.19 0 0 1 0,-0.07 l 0.11,0.86 V 13.8 l -0.11,0.84 v 0 a 3.08,3.08 0 0 0 0,-1.65 3,3 0 0 0 -0.79,-1.36 z"
         transform="translate(1.14,1.27)"
         style="fill:#e6fff2"
         id="path25" />
      <path
         d="m 32.85,27 c 3.86,0 3.86,-6 0,-6 -3.86,0 -3.87,6 0,6 z"
         transform="translate(1.14,1.27)"
         style="fill:#e6fff2"
         id="path26" />
      <path
         d="m 140.86,136.83 0.53,-0.22 A 4.33,4.33 0 0 0 143,135 a 4.4,4.4 0 0 0 0,-4.47 4.38,4.38 0 0 0 -1.59,-1.58 l -0.53,-0.23 a 4.69,4.69 0 0 0 -4.73,0 4.69,4.69 0 0 0 0,8.09 4.69,4.69 0 0 0 4.73,0 z"
         transform="translate(1.14,1.27)"
         style="fill:#e6fff2"
         id="path27" />
      <path
         d="m 147.89,143.52 c 3.74,0 3.74,-5.81 0,-5.81 -3.74,0 -3.75,5.81 0,5.81 z"
         transform="translate(1.14,1.27)"
         style="fill:#e6fff2"
         id="path28" />
    </g>
  </g>
</svg>
