<?xml version="1.0" encoding="UTF-8" standalone="no"?>
<svg
   viewBox="0 0 99.100525 114.98703"
   style="fill:#000000"
   original_string_length="11385"
   width="31.014999"
   height="35.957001"
   version="1.1"
   id="svg29"
   sodipodi:docname="yes-pink-e.svg"
   inkscape:version="1.4.2 (f4327f4, 2025-05-13)"
   xmlns:inkscape="http://www.inkscape.org/namespaces/inkscape"
   xmlns:sodipodi="http://sodipodi.sourceforge.net/DTD/sodipodi-0.dtd"
   xmlns="http://www.w3.org/2000/svg"
   xmlns:svg="http://www.w3.org/2000/svg">
  <sodipodi:namedview
     id="namedview29"
     pagecolor="#ffffff"
     bordercolor="#999999"
     borderopacity="1"
     inkscape:showpageshadow="2"
     inkscape:pageopacity="0"
     inkscape:pagecheckerboard="0"
     inkscape:deskcolor="#d1d1d1"
     inkscape:zoom="14.326159"
     inkscape:cx="29.107593"
     inkscape:cy="18.951347"
     inkscape:window-width="1920"
     inkscape:window-height="991"
     inkscape:window-x="-9"
     inkscape:window-y="-9"
     inkscape:window-maximized="1"
     inkscape:current-layer="g28" />
  <defs
     id="defs3">
    <clipPath
       id="__id3_sirgy15ajn"
       transform="translate(1.14 1.27)">
      <path
         d="m 30.13,2.36 c 0,0 15.26,-2.65 14.59,11.29 -0.67,13.94 0,33.18 0,33.18 0,0 2.63,7.29 9.93,-6 C 61.95,27.54 70.6,11 83.21,17 c 12.61,6 6,25.22 6,25.22 0,0 -39.21,87.55 -65.72,86.23 -11.95,-0.6 -17.31,-5.5 -19.59,-10.7 A 14.24,14.24 0 0 1 9,100.47 C 18.3,94 34.69,81.58 32.78,75.36 30.13,66.73 12.87,74 14.2,48.82 c 1.33,-25.18 4,-36.5 4,-36.5 0,0 -0.02,-7.32 11.93,-9.96 z"
         style="fill:none"
         id="path1" />
    </clipPath>
    <clipPath
       id="__id4_sirgy15ajn"
       transform="translate(1.14 1.27)">
      <path
         d="m 199.92,72.94 c 0,0 -5.89,7.1 -12,3.4 A 19,19 0 0 0 178,74 a 6.77,6.77 0 0 0 -6.73,7.46 c 0.66,5.06 6.07,12 26.9,18.08 17.34,5 8.11,29.84 -3.91,44.27 a 51.62,51.62 0 0 1 -37.9,18.85 c -13.34,0.4 -36.16,-7.13 -34.62,-28 1.14,-15.47 14,-18.23 23.44,-9.39 a 20,20 0 0 0 17.07,5.23 c 8.17,-1.42 17.1,-5 12.23,-13.82 -8.27,-15 -28.14,-21 -28.14,-21 0,0 -17.58,-11.65 -6.91,-27.37 10.67,-15.72 31.72,-17 31.72,-17 0,0 37.85,-5.11 28.77,21.63 z"
         style="fill:none"
         id="path2" />
    </clipPath>
    <clipPath
       id="__id5_sirgy15ajn"
       transform="translate(1.14 1.27)">
      <path
         d="m 132.69,64.58 a 11.08,11.08 0 0 0 5.8,0 c 4.15,-1 9.83,-3.54 8.54,-9.13 -1.36,-5.89 -8.29,-10.23 -12.55,-12.4 a 18,18 0 0 0 -6.84,-1.88 c -10.17,-0.7 -40.08,-0.5 -54.27,24.14 -17.25,30 -25.22,53.18 -11.28,69.77 13.94,16.59 54.41,18.58 61.05,4 6.64,-14.58 5.31,-20.57 0.66,-20.57 -4.65,0 -19.24,7.3 -29.86,1.33 -10.62,-5.97 -5.31,-12.61 -5.31,-12.61 0,0 1.69,-5.31 12.46,-3.32 10.77,1.99 30.68,6 32,-5.3 1.32,-11.3 -2,-16.59 -7.3,-15.27 -8.14,2 -20.21,2 -24.7,-1.32 -4.49,-3.32 1.48,-10.62 3.47,-12 1.84,-1.2 20.15,-7.69 28.13,-5.44 z"
         style="fill:none"
         id="path3" />
    </clipPath>
  </defs>
  <g
     data-name="Calque 2"
     id="g29">
    <g
       data-name="Warstwa 3"
       id="g28"
       transform="translate(-52.456986,-3.3483182)">
      <path
         d="m 122.70177,96.791914 c -5.72,-5.38 9.3789,-12.03053 4.4989,-8.58053 -0.34,-2.61 -1.74,-3.81 -3.81,-3.81 -4.65,0 -19.25,7.3 -29.859998,1.33 -10.61,-5.97 -5.31,-12.61 -5.31,-12.61 0,0 1.69,-5.31 12.449998,-3.31 10.76,2 30.68,6 32,-5.31 1.32,-11.31 -2,-16.59 -7.3,-15.27 -8.14,2 -20.21,2 -24.71,-1.32 -4.499998,-3.32 1.48,-10.62 3.47,-12 1.99,-1.38 20.15,-7.72 28.14,-5.47 1.89633,0.50985 3.89367,0.50985 5.79,0 4.16,-1.06 9.83,-3.55 8.54,-9.14 -1.36,-5.89 -8.29,-10.23 -12.54,-12.4000002 -2.13579,-1.075452 -4.46446,-1.714561 -6.85,-1.88 -8,-0.55 -28.25,-0.53 -43.429998,11.5300002 3.15,-6.41 -5.714618,4.882264 -5.714618,4.882264 -21.835734,33.371466 -28.99531,27.504011 -16.435382,77.557732 13.34,15.88 50.999998,18.38 59.999998,5.76 2.88,16.21 -11.54962,-19.085916 -23.494293,-12.972506 -0.544066,-5.08331 28.644763,5.89122 24.565393,3.01304 z"
         stroke="#1c3026"
         stroke-linecap="round"
         stroke-linejoin="round"
         stroke-width="5"
         style="fill:#ff2262;stroke:#1c3026;stroke-opacity:0"
         id="path4"
         sodipodi:nodetypes="ccsscsscssccccccccccc" />
      <g
         opacity="0.41"
         id="g11"
         transform="translate(-1.3393273,-35.938616)">
        <g
           clip-path="url(#__id3_sirgy15ajn)"
           id="g10" />
      </g>
      <g
         opacity="0.41"
         id="g16"
         transform="translate(42.41203,-39.956597)">
        <g
           clip-path="url(#__id4_sirgy15ajn)"
           id="g15" />
      </g>
      <g
         opacity="0.41"
         id="g21"
         transform="translate(-1.3393273,-35.938616)">
        <g
           clip-path="url(#__id5_sirgy15ajn)"
           id="g20">
          <path
             d="m 139.67,59.65 c -9,-8 -23.6,-4.88 -33.14,0.64 -4.89,2.83 -9.66,6.79 -10.77,12.61 -1.2,6.21 2.46,12 8.86,12.47 3.21,0.25 6.74,-3.14 6.4,-6.4 -0.34,-3.26 -1.7,-3.09 0.48,-4.59 a 36.27,36.27 0 0 1 8,-4.23 c 6,-2.24 12.41,-2 18.44,-4.07 2.58,-0.87 4,-4.39 1.7,-6.43 z"
             transform="translate(1.14,1.27)"
             style="fill:#901a3d"
             id="path16" />
          <path
             d="m 129.37,98 c -5.7,-1.91 -11.44,-1.07 -17.32,-0.87 -5.88,0.2 -12,0 -18,-0.2 -3.13,-0.13 -7,2.49 -7.51,5.72 a 19.26,19.26 0 0 0 0,6.73 7.48,7.48 0 0 0 5.46,5.38 l 0.89,0.13 c 2.89,0.4 6,-0.25 7.57,-3.08 1.57,-2.83 1.36,-4.9 0.92,-7.92 V 108 l 0.24,-1.28 -7.52,5.72 a 127.59,127.59 0 0 0 19,-0.52 c 6.17,-0.61 12.42,-1.13 17.56,-4.92 3.43,-2.55 3.1,-7.65 -1.19,-9.08 z"
             transform="translate(1.14,1.27)"
             style="fill:#901a3d"
             id="path17" />
          <path
             d="m 53.26,99.7 c -13.95,16.24 -1.7,38.37 14.05,48 a 55.08,55.08 0 0 0 29.09,7.78 c 5.81,-0.14 10.88,-1.76 16.26,-3.78 4.74,-1.77 10.49,-2.82 12,-8.25 a 5,5 0 0 0 -1.27,-4.79 c -3.38,-3.35 -6.56,-2.3 -10.91,-2.17 -3.83,0.11 -7.53,-0.53 -11.34,-0.8 C 94.21,135.2 87.52,135 81,132.2 69,127.13 63,115.49 61.42,103.08 60.94,99.45 56.28,96.18 53.26,99.7 Z"
             transform="translate(1.14,1.27)"
             style="fill:#901a3d"
             id="path18" />
          <path
             d="m 89.94,57.64 c 8.29,-2.58 17.62,-5.16 26.3,-5.94 a 35.88,35.88 0 0 1 11.09,0.52 c 4.12,0.94 7.6,3.3 11.87,3.45 4.27,0.15 6.38,-4.58 4.59,-8 -4.37,-8.35 -18.48,-9.31 -26.75,-8.49 -11.47,1.14 -20.16,6.4 -29.67,12.38 -3.09,1.95 -1.16,7.24 2.57,6.08 z"
             transform="translate(1.14,1.27)"
             style="fill:#e6fff2"
             id="path19" />
          <path
             d="m 95.44,93.92 a 151.13,151.13 0 0 0 29.75,1.75 c 7.63,-0.34 7.67,-12.25 0,-11.91 A 135.15,135.15 0 0 1 98.6,82.44 C 91.11,81.29 87.88,92.76 95.44,93.92 Z"
             transform="translate(1.14,1.27)"
             style="fill:#e6fff2"
             id="path20" />
        </g>
      </g>
      <path
         d="m 58.249327,57.042341 c -2,11.000003 -3.058655,35.739043 3.641345,43.709039 13.91,16.58 54.409998,18.58 61.049998,3.98 6.64,-14.599996 5.31,-20.569996 0.66,-20.569996 -4.65,0 -19.24,7.3 -29.859998,1.33 -10.62,-5.97 -5.31,-12.61 -5.31,-12.61 0,0 1.69,-5.31 12.459998,-3.32 10.77,1.99 30.68,6 32,-5.31 1.32,-11.31 -2,-16.59 -7.3,-15.26 -8.14,2 -20.21,2 -24.7,-1.33 -4.489998,-3.33 1.48,-10.61 3.47,-11.94 1.84,-1.23 20.15,-7.73 28.13,-5.47 1.89967,0.510223 3.90033,0.510223 5.8,0 4.15,-1.06 9.83,-3.54 8.54,-9.13 -1.36,-5.89 -8.29,-10.24 -12.55,-12.4000002 -2.13048,-1.080003 -4.45682,-1.719407 -6.84,-1.88 -8.25,-0.57 -26.84135,0.119664 -44.819998,12.6700002"
         stroke="#1c3026"
         stroke-linecap="round"
         stroke-linejoin="round"
         stroke-width="5"
         style="fill:none"
         id="path24"
         sodipodi:nodetypes="ccssscsscsccccccc" />
      <path
         d="m 131.63062,86.523744 c 1.86952,3.32563 2.68226,-5.11068 -2.19774,-1.66068 -0.34,-2.61 -3.52577,-0.6849 -5.59577,-0.6849 -4.65,0 -19.25,7.3 -29.859995,1.33 -10.61,-5.97 -5.31,-12.61 -5.31,-12.61 0,0 1.69,-5.31 12.449995,-3.31 10.76,2 30.68,6 32,-5.31 1.32,-11.310001 -2,-16.590001 -7.3,-15.270001 -8.14,2 -20.21,2 -24.71,-1.32 -4.499995,-3.32 1.48,-10.62 3.47,-12 1.99,-1.38 20.15,-7.72 28.14,-5.47 1.89633,0.50985 3.89367,0.50985 5.79,0 4.16,-1.06 9.83,-3.55 8.54,-9.14 -1.36,-5.89 -8.29,-10.23 -12.54,-12.4000002 -2.13579,-1.075452 -4.46446,-1.714561 -6.85,-1.88 -8,-0.55 -28.25,-0.53 -43.429995,11.5300002 3.596442,-7.079664 -14.420245,13.36467 -14.420245,13.36467 -14.246213,23.326511 -20.066462,39.334741 -7.729755,69.075327 13.34,15.88 50.999995,18.38 59.999995,5.76 7.25124,-1.70527 17.03053,-30.140666 9.55351,-20.004416 z"
         stroke="#1c3026"
         stroke-linecap="round"
         stroke-linejoin="round"
         stroke-width="5"
         style="fill:#ff2262"
         id="path29"
         sodipodi:nodetypes="ccsscsscsscccccccccc" />
      <path
         d="m 120.23483,68.120334 2.27263,-0.5764 a 18.566788,11.344506 0 0 0 6.90357,-4.218162 18.866943,11.527905 0 0 0 0,-11.711303 18.781184,11.475505 0 0 0 -6.8178,-4.139565 l -2.27264,-0.602594 a 20.110446,12.287698 0 0 0 -20.28194,0 20.110446,12.287698 0 0 0 0,21.195624 20.110446,12.287698 0 0 0 20.28194,0 z"
         style="fill:#e6fff2;fill-opacity:0.17931;stroke-width:3.35175"
         id="path27" />
      <path
         d="m 103.29718,28.30864 -0.58744,-0.341104 -6.093663,6.350108 c 5.759153,-1.537949 10.985753,-3.694099 16.733493,-4.16634 6.7455,-0.546876 10.82367,1.605194 17.90296,0.525365 8.23893,-1.280939 13.96781,-5.438694 12.61262,-8.793081 -1.99397,-4.942631 -18.23223,-4.915727 -29.08324,-2.919227 -11.11856,2.046545 -24.95882,7.962727 -25.439226,13.825158 -0.185532,2.210692 4.799969,2.501875 9.098066,0.979388 l 0.83231,-0.157174 c 6.11528,-0.776256 8.5213,-4.794291 3.94986,-5.285438 z"
         style="fill:#901a3d;fill-opacity:0.517241;stroke-width:1.00274"
         id="path13" />
      <path
         d="m 59.661965,85.806334 c -1.949186,3.58325 -2.296075,6.36335 -1.693149,10.34044 0.657784,4.136996 2.746444,7.958756 5.946669,10.881006 6.731299,6.40967 16.518525,8.91949 25.942344,8.5797 9.547701,-0.34752 18.707231,-3.04267 27.379451,-6.64136 7.91237,-3.28206 13.99436,-11.512466 16.57125,-19.837326 1.65185,-5.3208 1.51653,-5.86316 -3.52987,-5.19903 -3.89012,0.50969 -7.07819,2.94228 -10.25801,4.91924 -2.71726,1.69738 -5.5385,3.24453 -8.44922,4.6335 -5.76651,2.82828 -11.96058,4.81781 -18.368597,5.9 -5.541969,0.872636 -11.653823,0.664126 -16.518527,-2.23181 -2.205225,-1.31282 -3.757965,-3.05039 -5.517189,-4.8034 -0.83829,-0.78808 -1.557945,-1.67921 -2.139148,-2.64881 -0.264643,-0.91146 -0.780071,-1.74218 -1.494927,-2.40943 0.404704,0.81087 0.355147,0.64097 -0.156926,-0.50968 -1.189334,-2.90366 -5.913632,-4.23966 -7.714151,-0.94215 z"
         style="fill:#901a3d;fill-opacity:0.462069;stroke-width:0.798638"
         id="path11"
         sodipodi:nodetypes="ccccccccccccccccc" />
    </g>
  </g>
</svg>
