<svg xmlns="http://www.w3.org/2000/svg" xmlns:xlink="http://www.w3.org/1999/xlink" viewBox="0 0 220.52 172.55"><defs><style>.cls-1,.cls-9{fill:none;}.cls-2{fill:#57d753;}.cls-2,.cls-9{stroke:#1c3026;stroke-linecap:round;stroke-linejoin:round;stroke-width:5px;}.cls-3{opacity:0.41;}.cls-4{clip-path:url(#clip-path);}.cls-5{fill:#901a3d;}.cls-6{fill:#e6fff2;}.cls-7{clip-path:url(#clip-path-2);}.cls-8{clip-path:url(#clip-path-3);}</style><clipPath id="clip-path" transform="translate(1.14 1.27)"><path class="cls-1" d="M30.13,2.36S45.39-.29,44.72,13.65s0,33.18,0,33.18,2.63,7.29,9.93-6S70.6,11,83.21,17s6,25.22,6,25.22S50,129.77,23.49,128.45c-11.95-.6-17.31-5.5-19.59-10.7A14.24,14.24,0,0,1,9,100.47C18.3,94,34.69,81.58,32.78,75.36,30.13,66.73,12.87,74,14.2,48.82s4-36.5,4-36.5S18.18,5,30.13,2.36Z"/></clipPath><clipPath id="clip-path-2" transform="translate(1.14 1.27)"><path class="cls-1" d="M199.92,72.94s-5.89,7.1-12,3.4A19,19,0,0,0,178,74a6.77,6.77,0,0,0-6.73,7.46c.66,5.06,6.07,12,26.9,18.08,17.34,5,8.11,29.84-3.91,44.27a51.62,51.62,0,0,1-37.9,18.85c-13.34.4-36.16-7.13-34.62-28,1.14-15.47,14-18.23,23.44-9.39a20,20,0,0,0,17.07,5.23c8.17-1.42,17.1-5,12.23-13.82-8.27-15-28.14-21-28.14-21s-17.58-11.65-6.91-27.37,31.72-17,31.72-17S209,46.2,199.92,72.94Z"/></clipPath><clipPath id="clip-path-3" transform="translate(1.14 1.27)"><path class="cls-1" d="M132.69,64.58a11.08,11.08,0,0,0,5.8,0c4.15-1,9.83-3.54,8.54-9.13-1.36-5.89-8.29-10.23-12.55-12.4a18,18,0,0,0-6.84-1.88c-10.17-.7-40.08-.5-54.27,24.14-17.25,30-25.22,53.18-11.28,69.77s54.41,18.58,61.05,4,5.31-20.57.66-20.57-19.24,7.3-29.86,1.33-5.31-12.61-5.31-12.61,1.69-5.31,12.46-3.32,30.68,6,32-5.3-2-16.59-7.3-15.27c-8.14,2-20.21,2-24.7-1.32s1.48-10.62,3.47-12C106.4,68.82,124.71,62.33,132.69,64.58Z"/></clipPath></defs><g id="Calque_2" data-name="Calque 2"><g id="Warstwa_3" data-name="Warstwa 3"><path class="cls-2" d="M197.94,100.15c-20.83-6-26.24-13-26.89-18.08a6.76,6.76,0,0,1,6.72-7.45,18.92,18.92,0,0,1,9.89,2.3c6.11,3.7,12-3.39,12-3.39C208.78,46.78,170.93,52,170.93,52s-21.05,1.23-31.72,17,6.91,27.37,6.91,27.37,19.86,6,28.14,21c4.87,8.84-4.06,12.39-12.23,13.82A20,20,0,0,1,145,125.88c-5.72-5.38-12.72-6.45-17.6-3-.34-2.61-1.74-3.81-3.81-3.81-4.65,0-19.25,7.3-29.86,1.33s-5.31-12.61-5.31-12.61,1.69-5.31,12.45-3.31,30.68,6,32-5.31-2-16.59-7.3-15.27c-8.14,2-20.21,2-24.71-1.32s1.48-10.62,3.47-12,20.15-7.72,28.14-5.47a11.15,11.15,0,0,0,5.79,0c4.16-1.06,9.83-3.55,8.54-9.14-1.36-5.89-8.29-10.23-12.54-12.4a18,18,0,0,0-6.85-1.88c-8-.55-28.25-.53-43.43,11.53,3.15-6.41,5-10.52,5-10.52s6.64-19.24-6-25.22S61.71,28.16,54.41,41.43s-9.93,6-9.93,6-.68-19.25,0-33.18S29.86,3,29.86,3c-11.94,2.65-11.94,10-11.94,10s-2.66,11.28-4,36.5S29.86,67.31,32.52,75.94C34.43,82.17,18,94.61,8.76,101.06a14.22,14.22,0,0,0-5.12,17.27c2.28,5.2,7.64,10.1,19.59,10.7,10.43.52,22.8-12.69,34-28.93-4.18,14.1-3.47,26,4.6,35.56,13.34,15.88,51,18.38,60,5.76,2.88,16.21,22.38,22.21,34.32,21.85A51.6,51.6,0,0,0,194,144.42C206.06,130,215.29,105.17,197.94,100.15Z" transform="translate(1.14 1.27)"/><g class="cls-3"><g class="cls-4"><path class="cls-5" d="M85.35,19.05c-8,7.84-11.61,20-16.33,30A327,327,0,0,1,51.78,80.81a294,294,0,0,1-20,28.64C28.7,113.32,25.39,117.6,21,120c-4.68,2.54-7.71,1.32-12.37-.35C.88,116.89-4.21,127.48.94,132.82c9.68,10,26,4.15,34.83-3.83,9.7-8.81,17.24-21.15,24.3-32.09A318.84,318.84,0,0,0,79.83,61.46c5.55-11.63,13.76-26.42,12-39.73-.41-3.12-3.91-5.19-6.48-2.68Z" transform="translate(1.14 1.27)"/><path class="cls-5" d="M34.82,66.35c-2.41-2.59-5.79-3.52-8.32-6A35.4,35.4,0,0,1,20,50.75c-1.82-3.58-2.72-7.38-3.82-11.21s-1.9-8.55-5-11.19a5.09,5.09,0,0,0-7,0C-.37,32.11,0,40.13,1,45.42A47.84,47.84,0,0,0,8.33,63.27c3.56,5.18,7.75,9.82,13.89,11.84,5.41,1.78,11.46.93,13.62-4.89a4,4,0,0,0-1-3.87Z" transform="translate(1.14 1.27)"/><path class="cls-6" d="M24.51,13.43c1.36-.81,4.09-2.82,5.8-2.32,1.21.36-.19-.34.21.91a16.06,16.06,0,0,1,.21,3.68c.3,5.57.48,11.17.92,16.74.62,7.78,2.49,18.32,12.22,18.63,4.58.14,7.43-5.2,5.18-9-5.75-9.81-2-22.59-4.73-33.35C42.93,3.27,38.73-.82,33-1.23c-6-.44-10.28,3.1-14.35,7.08-3.92,3.82,1.11,10.4,5.85,7.58Z" transform="translate(1.14 1.27)"/><path class="cls-6" d="M38.47,31c-4.14,7.25-6.58,15.24-.2,22.19,6,6.5,15.61,6,21.57-.15,5.51-5.69,8.8-14.39,13-21.06C77.21,25,84.15,17.34,84.32,8.79a5.58,5.58,0,0,0-7-5.34c-10,3.06-16.23,15.6-21.35,24C53.48,31.5,50,36,48.4,40.5a14.27,14.27,0,0,1-.82,1.26l1.89,0c0,.28-.32-.52-.33-.47.11-.57-1.16-2.8-1.34-3.5A20.69,20.69,0,0,1,47,33.28c-.23-4.4-6.21-6.43-8.56-2.32Z" transform="translate(1.14 1.27)"/><path class="cls-6" d="M6.3,112.18c5.12-3.83,10.21-7.63,15.12-11.72,4.42-3.69,10.11-7.22,12.21-12.77.87-2.31-1.67-4.1-3.69-3.69C24.57,85.07,20,90.23,16,93.71c-4.81,4.17-9.39,8.53-14,13-2.79,2.69,1,8,4.26,5.52Z" transform="translate(1.14 1.27)"/><path class="cls-6" d="M27.42,93c3.77-3.08,6.33-7.28,8.57-11.57,2.11-4.05-4.17-7.61-6.07-3.55s-4.52,7.88-6.69,11.88c-1.52,2.79,1.9,5.12,4.19,3.24Z" transform="translate(1.14 1.27)"/></g></g><g class="cls-3"><g class="cls-7"><path class="cls-5" d="M123,132.66c-2.36,4.64-2.78,8.24-2.05,13.39a24.79,24.79,0,0,0,7.2,14.09c8.15,8.3,20,11.55,31.41,11.11,11.56-.45,22.65-3.94,33.15-8.6,9.58-4.25,23.16-11.15,26.28-21.93,2-6.89-4.38-11.35-10.49-10.49-4.71.66-8.57,3.81-12.42,6.37a101.35,101.35,0,0,1-10.23,6,77.55,77.55,0,0,1-22.24,7.64c-6.71,1.13-14.11.86-20-2.89-2.67-1.7-4.55-3.95-6.68-6.22a15.86,15.86,0,0,1-2.59-3.43,7,7,0,0,0-1.81-3.12c.49,1.05.43.83-.19-.66-1.44-3.76-7.16-5.49-9.34-1.22Z" transform="translate(1.14 1.27)"/><path class="cls-5" d="M171.45,126c8.12.72,13.84-7.66,11.69-15.11-2.38-8.24-10.07-14.66-17-19-5.32-3.34-15.18-6.7-16.86-13.58-1.76-7.2,4.85-13.75,4.6-20.76-.07-1.89-1.65-3.85-3.71-3.7-6.67.49-13.32,7.09-16.25,12.74a23.26,23.26,0,0,0,1.5,24.17c4.69,6.88,11.6,10.94,18.75,14.83a42,42,0,0,1,9,6,26.06,26.06,0,0,1,3.79,3.93,5.62,5.62,0,0,1,.68,1.06q.74,3.51,2.3-1.74c-6.41,1.87-4.69,10.59,1.51,11.15Z" transform="translate(1.14 1.27)"/><path class="cls-5" d="M180.93,75.05l-.39-.71-4.16,7.24c3.88-.25,7.41-1.6,11.27-.28,4.53,1.56,7.24,6.17,12,7.06,5.54,1,9.43-3.13,8.56-8.56-1.28-8-12.17-13.66-19.47-14.52-7.48-.88-16.83,3-17.22,11.49-.15,3.2,3.19,5.38,6.09,4.64l.56.06c4.11,1,5.77-4.09,2.71-6.42Z" transform="translate(1.14 1.27)"/><path class="cls-6" d="M162,60c7.5.12,14.84.1,22.23,1.62a69.5,69.5,0,0,1,10.09,2.88c3.06,1.12,5.74,2.05,8.64.14a3.34,3.34,0,0,0,1.46-3.6c-1.26-7-13.59-8.05-19.15-8.82-8-1.11-16.43-1-24.1,1.61-3.31,1.1-2.81,6.11.83,6.17Z" transform="translate(1.14 1.27)"/><path class="cls-6" d="M183.89,101c4.33,2.61,8.85,5.76,11.53,10.14s2.44,9.65,2.75,14.61a2.71,2.71,0,0,0,4.56,1.89c6.1-5.25,4.82-14.11.92-20.45-4.08-6.63-10.86-10.26-18.48-10.91-2.6-.22-3.3,3.5-1.28,4.72Z" transform="translate(1.14 1.27)"/></g></g><g class="cls-3"><g class="cls-8"><path class="cls-5" d="M139.67,59.65c-9-8-23.6-4.88-33.14.64-4.89,2.83-9.66,6.79-10.77,12.61-1.2,6.21,2.46,12,8.86,12.47,3.21.25,6.74-3.14,6.4-6.4s-1.7-3.09.48-4.59a36.27,36.27,0,0,1,8-4.23c6-2.24,12.41-2,18.44-4.07,2.58-.87,4-4.39,1.7-6.43Z" transform="translate(1.14 1.27)"/><path class="cls-5" d="M129.37,98c-5.7-1.91-11.44-1.07-17.32-.87s-12,0-18-.2c-3.13-.13-7,2.49-7.51,5.72a19.26,19.26,0,0,0,0,6.73A7.48,7.48,0,0,0,92,114.76l.89.13c2.89.4,6-.25,7.57-3.08s1.36-4.9.92-7.92V108l.24-1.28-7.52,5.72a127.59,127.59,0,0,0,19-.52c6.17-.61,12.42-1.13,17.56-4.92,3.43-2.55,3.1-7.65-1.19-9.08Z" transform="translate(1.14 1.27)"/><path class="cls-5" d="M53.26,99.7c-13.95,16.24-1.7,38.37,14.05,48a55.08,55.08,0,0,0,29.09,7.78c5.81-.14,10.88-1.76,16.26-3.78,4.74-1.77,10.49-2.82,12-8.25a5,5,0,0,0-1.27-4.79c-3.38-3.35-6.56-2.3-10.91-2.17-3.83.11-7.53-.53-11.34-.8C94.21,135.2,87.52,135,81,132.2c-12-5.07-18-16.71-19.58-29.12-.48-3.63-5.14-6.9-8.16-3.38Z" transform="translate(1.14 1.27)"/><path class="cls-6" d="M89.94,57.64c8.29-2.58,17.62-5.16,26.3-5.94a35.88,35.88,0,0,1,11.09.52c4.12.94,7.6,3.3,11.87,3.45s6.38-4.58,4.59-8c-4.37-8.35-18.48-9.31-26.75-8.49-11.47,1.14-20.16,6.4-29.67,12.38-3.09,1.95-1.16,7.24,2.57,6.08Z" transform="translate(1.14 1.27)"/><path class="cls-6" d="M95.44,93.92a151.13,151.13,0,0,0,29.75,1.75c7.63-.34,7.67-12.25,0-11.91A135.15,135.15,0,0,1,98.6,82.44c-7.49-1.15-10.72,10.32-3.16,11.48Z" transform="translate(1.14 1.27)"/></g></g><path class="cls-9" d="M30.13,2.7S45.39.05,44.72,14s0,33.18,0,33.18,2.63,7.3,9.93-6S70.6,11.33,83.21,17.3s6,25.22,6,25.22S50,130.11,23.49,128.78c-11.95-.59-17.31-5.49-19.59-10.7A14.23,14.23,0,0,1,9,100.81C18.3,94.36,34.69,81.92,32.78,75.7c-2.65-8.63-19.91-1.33-18.58-26.55s4-36.49,4-36.49S18.18,5.36,30.13,2.7Z" transform="translate(1.14 1.27)"/><path class="cls-9" d="M127.65,122.6c4.87-3.42,11.86-2.33,17.57,3a20,20,0,0,0,17.07,5.23c8.17-1.42,17.1-5,12.23-13.82-8.27-15-28.14-21-28.14-21S128.8,84.4,139.47,68.67s31.72-17,31.72-17S209,46.54,199.92,73.28c0,0-5.89,7.1-12,3.4A18.8,18.8,0,0,0,178,74.37a6.77,6.77,0,0,0-6.73,7.46c.39,3,2.49,6.74,8.56,10.53" transform="translate(1.14 1.27)"/><path class="cls-9" d="M179.87,92.36c4.08,2.54,10,5.12,18.34,7.54,17.34,5,8.11,29.85-3.91,44.28A51.62,51.62,0,0,1,156.4,163c-11.23.34-29.18-4.95-33.66-19.08" transform="translate(1.14 1.27)"/><path class="cls-9" d="M55.77,106.89c-2,11-.38,20.56,6.32,28.53C76,152,116.5,154,123.14,139.4s5.31-20.57.66-20.57-19.24,7.3-29.86,1.33-5.31-12.61-5.31-12.61,1.69-5.31,12.46-3.32,30.68,6,32-5.31-2-16.59-7.3-15.26c-8.14,2-20.21,2-24.7-1.33s1.48-10.61,3.47-11.94c1.84-1.23,20.15-7.73,28.13-5.47a11.18,11.18,0,0,0,5.8,0c4.15-1.06,9.83-3.54,8.54-9.13-1.36-5.89-8.29-10.24-12.55-12.4a17.77,17.77,0,0,0-6.84-1.88c-8.25-.57-29.52-.55-44.82,12.67" transform="translate(1.14 1.27)"/><path class="cls-6" d="M33.77,11.6a2.94,2.94,0,0,0-.71-.55,3.77,3.77,0,0,0-1.77-.47,3.21,3.21,0,0,0-1,.13,4.11,4.11,0,0,0-.89.38A3.82,3.82,0,0,0,28,12.43l.58-.75c-.2.24-.4.49-.58.75a3.72,3.72,0,0,0-.5,1.87l.13,1v0c0,.06.35.86.39.91a.05.05,0,0,0,0,0,2.8,2.8,0,0,0,1,1.05,2.65,2.65,0,0,0,1.27.67l1,.14a3.67,3.67,0,0,0,1.89-.51l.39-.3a2.7,2.7,0,0,0,1-1.05l.38-.89a3.76,3.76,0,0,0,.13-1,2.87,2.87,0,0,0-.32-1.44,2.72,2.72,0,0,0-.78-1.2l-.76-.59a3.67,3.67,0,0,0-1.89-.51h0l1,.13h-.06l.89.37c-.32-.16,1.1.07-.91-.38l-1-.13a4.63,4.63,0,0,0-1,.13l1-.13h0l1,.13h0l.87.37,0,0,.73.56,0,0,.55.7a.05.05,0,0,1,0-.05l.34.81a.19.19,0,0,1,0-.07l.11.86V13.8l-.11.84v0a3.08,3.08,0,0,0,0-1.65,3,3,0,0,0-.79-1.36Z" transform="translate(1.14 1.27)"/><path class="cls-6" d="M32.85,27c3.86,0,3.86-6,0-6s-3.87,6,0,6Z" transform="translate(1.14 1.27)"/><path class="cls-6" d="M140.86,136.83l.53-.22A4.33,4.33,0,0,0,143,135a4.4,4.4,0,0,0,0-4.47,4.38,4.38,0,0,0-1.59-1.58l-.53-.23a4.69,4.69,0,0,0-4.73,0,4.69,4.69,0,0,0,0,8.09,4.69,4.69,0,0,0,4.73,0Z" transform="translate(1.14 1.27)"/><path class="cls-6" d="M147.89,143.52c3.74,0,3.74-5.81,0-5.81s-3.75,5.81,0,5.81Z" transform="translate(1.14 1.27)"/></g></g></svg>