<svg xmlns="http://www.w3.org/2000/svg" xmlns:xlink="http://www.w3.org/1999/xlink" viewBox="0 0 147.08 136.6"><defs><style>.cls-1,.cls-8{fill:none;}.cls-2{fill:#ddf1f3;}.cls-2,.cls-8{stroke:#016673;stroke-linecap:round;stroke-linejoin:round;stroke-width:5px;}.cls-3{fill:#597abb;}.cls-4{opacity:0.36;}.cls-5{clip-path:url(#clip-path);}.cls-6{fill:#901a3d;}.cls-7{fill:#e6fff2;}</style><clipPath id="clip-path" transform="translate(12.07)"><circle class="cls-1" cx="60.46" cy="60.18" r="57.57"/></clipPath></defs><g id="Calque_2" data-name="Calque 2"><g id="Layer_24" data-name="Layer 24"><circle class="cls-2" cx="72.14" cy="60.12" r="57.57"/><path class="cls-3" d="M65.58,102.8c2.1-7.51,1-16.15.78-23.87s0-15.15,0-22.72c0-6.62-.42-13.4.24-20,.11-1.16-.11-3,1-3.79,2-1.51,6,.78,8,1.11,5.76.94,11.53-6,6.27-10.77-6.49-5.83-16.73-7.59-24-2.3-6.41,4.64-9,12.92-10,20.4A203,203,0,0,0,46.19,73c.21,10.3-.08,22.32,4.43,31.76,3.14,6.55,13.18,4.43,15-2Z" transform="translate(12.07)"/><path class="cls-3" d="M33.24,62.47c5.32,3.1,12.65,2.57,18.63,3,3.2.26,6.38.56,9.59.67,3.62.12,7.94-.46,11.45.49l2-14.55c-11.78.38-23.45-.35-35.19-1-8.35-.45-10.29,13-2,14.7A113.47,113.47,0,0,0,74.88,67c10.93-1.36,8.11-17.61-2-14.55-3.25,1-7.12.63-10.49.83-3.54.21-7,.61-10.55,1-5.93.65-13.43.32-18.63,3.55a2.75,2.75,0,0,0,0,4.7Z" transform="translate(12.07)"/><g class="cls-4"><g class="cls-5"><path class="cls-6" d="M111.14,30.85c2.12,6.37.11,13.52-.84,20a76.86,76.86,0,0,1-5.33,17,73,73,0,0,1-6.18,10c1.94-2.64-.92,1.05-1.11,1.27-1.27,1.48-2.54,3-3.84,4.43s-2.68,2.87-4.11,4.21c-.38.35-4.31,3.77-2.72,2.46S84.45,92,84,92.26c-1.68,1.08-3.4,2-5.16,3s-3.6,1.92-5.49,2.73c3.57-1.53-.66.14-1.47.4C70,99,68,99.58,66,100c-.79.19-7.23,1.23-2.83.7a69.78,69.78,0,0,1-10.72.46c-2-.06-4.09-.22-6.12-.46,4.39.52-2-.5-2.84-.68a65.18,65.18,0,0,1-10.22-3.22c3.77,1.56-2-1.13-2.68-1.48-1.8-1-3.51-2.1-5.23-3.21-1.34-.86-2.68-1.71-4-2.59q-2.41-1.74-.31-.21l-2.5-2c-2.24-1.91-4.13-4.17-6.67-5.74A35.15,35.15,0,0,0,7,79.41q2.19,1-.1-.16c-6.49-3.4-16.53-.84-18.08,7.36-1.13,6-1.5,11.07,1.23,16.83a45.31,45.31,0,0,0,8.53,11.79c6.81,7,15,11.51,23.88,15.22C38,137,55.14,138,71.68,135.07a76.93,76.93,0,0,0,42.93-23.5c11.47-12.45,17.77-28,19.88-44.67,1.84-14.54-.44-39.46-19.21-41.47-2.72-.3-5,3-4.14,5.42Z" transform="translate(12.07)"/><path class="cls-7" d="M39.05,38.54c.71-.33.84-.4.37-.23.83-.21.86-.26.1-.15q-9.27-3.07-1.43-12.42c-.37.22-.74.44-1.11.64q-1.65.8.9-.33a12.43,12.43,0,0,1-1.22.4A18.28,18.28,0,0,1,34,27l3.54-.48a4.44,4.44,0,0,1-1.26-.08l7.09,26.2A20.27,20.27,0,0,0,49,47.13c.37-.57.69-1.16,1.08-1.71l-2.31,3A17.46,17.46,0,0,1,50.05,46l-3.11,2.41a15.78,15.78,0,0,1,3.46-2L46.56,48a11.65,11.65,0,0,1,1.74-.53l-4.36.58a6.53,6.53,0,0,1,1.53,0L41,47.5l.47.13-4-1.69a2.34,2.34,0,0,1,.76.46l-3.43-2.64.26.32-4.37-7.5.13.38-.61-4.54v.43l.61-4.56-.2.59,1.74-4.13-.35.53,2.72-3.53a17.13,17.13,0,0,1-2.71,2.74l3.64-2.81A15.18,15.18,0,0,1,33.47,23l4.37-1.84a14.53,14.53,0,0,1-3.11.88l5-.67a13.91,13.91,0,0,1-2.58,0L53.58,50.07A27.51,27.51,0,0,1,56,46.27l-3.06,4A12.66,12.66,0,0,1,55.19,48l-4,3.07a11.3,11.3,0,0,1,1.59-.89l-4.72,2a10,10,0,0,1,1.76-.47l-5.27.71a4.82,4.82,0,0,1,1.2,0l-5.28-.71.54.17-8.78-5.13.43.35-5.13-8.8.21.52L27,33.5l0,.58.71-5.31-.21.58,2-4.78a5.85,5.85,0,0,1-.71,1.07L32,21.58a14.14,14.14,0,0,1-1.86,1.85l4.09-3.16a13.55,13.55,0,0,1-2.25,1.35l4.85-2a10.69,10.69,0,0,1-1.23.46l25,25.05.23-.62-2.05,4.88a13,13,0,0,1,1.65-2.78l-3.21,4.15a15.9,15.9,0,0,1,1.86-1.81l-4.18,3.23a14.22,14.22,0,0,1,2.23-1.32L26.64,27.37a9.68,9.68,0,0,1-.5,2.06l2.11-5c-1.14,2.48-2.31,4.93-3.3,7.48L27,27l-.32.61a21.38,21.38,0,0,0-2.42,13A19.48,19.48,0,0,0,29.9,52.34a21.19,21.19,0,0,0,24.72,3.18C63.12,51.06,67,42,67.42,32.89c.34-7.21-4.2-14.37-10.28-17.93a20.91,20.91,0,0,0-21,0,32.52,32.52,0,0,0-14.84,19.3,20.45,20.45,0,0,0,7.3,21.4,19.3,19.3,0,0,0,9.63,4,10.14,10.14,0,0,0,5.41,0,15.15,15.15,0,0,0,7.58-2.42c5.12-2.25,9.81-7.11,12.57-11.91a21.8,21.8,0,0,0,1.42-19.53,20.91,20.91,0,0,0-14.2-12.47c-14.78-3.8-29.22,8-32.29,22.05-1.47,6.74-.1,13.53,4.9,18.53s11.67,6.14,18.54,4.9C49.9,57.44,56.07,52.17,60.52,46c6.56-9,5.06-23.16-5.18-28.84-8.5-4.71-19-2-25.37,4.89A29.54,29.54,0,0,0,24.21,31c-1.73,4.12-3.07,8.82-1.48,13.24,1.94,5.37,5.83,9.28,11.69,10.07a14.05,14.05,0,0,0,14-6.71C52.08,41.26,56.85,32.31,50.1,26a11.6,11.6,0,0,0-11.37-2.65c-3.6,1.16-6,3.88-7.67,7.18a5.89,5.89,0,0,0,8,8Z" transform="translate(12.07)"/></g></g><circle class="cls-8" cx="72.53" cy="60.07" r="57.57"/></g></g></svg>