<svg xmlns="http://www.w3.org/2000/svg" xmlns:xlink="http://www.w3.org/1999/xlink" viewBox="0 0 147.08 136.6"><defs><style>.cls-1,.cls-8{fill:none;}.cls-2{fill:#ddf1f3;}.cls-2,.cls-8{stroke:#016673;stroke-linecap:round;stroke-linejoin:round;stroke-width:5px;}.cls-3{fill:#ed297a;}.cls-4{opacity:0.36;}.cls-5{clip-path:url(#clip-path);}.cls-6{fill:#901a3d;}.cls-7{fill:#e6fff2;}</style><clipPath id="clip-path" transform="translate(12.46)"><circle class="cls-1" cx="60.07" cy="60.18" r="57.57"/></clipPath></defs><g id="Calque_2" data-name="Calque 2"><g id="Layer_20" data-name="Layer 20"><circle class="cls-2" cx="72.53" cy="60.18" r="57.57"/><path class="cls-3" d="M82.88,41.55l.26-.23a2.23,2.23,0,0,0,0-3.13L82.88,38c-5.19-4.52-5.2,8.1,0,3.58Z" transform="translate(12.46)"/><path class="cls-3" d="M81.07,43.6a3,3,0,0,0,1.54-.35,3,3,0,0,0,1.28-.82,3.09,3.09,0,0,0,.83-1.28,3.13,3.13,0,0,0,.34-1.54l-.14-1.06a3.9,3.9,0,0,0-1-1.75l-.8-.63a4,4,0,0,0-2-.54,3,3,0,0,0-1.53.34,3.66,3.66,0,0,0-2.11,2.11,3,3,0,0,0-.34,1.53l.14,1.06a3.93,3.93,0,0,0,1,1.76l.8.62a3.94,3.94,0,0,0,2,.55Z" transform="translate(12.46)"/><path class="cls-3" d="M59.33,41.4c-6.64-.31-11.61.7-16.25,6a23.63,23.63,0,0,0-6,17.78c1.5,15.52,18.22,21.44,31.71,17.1C81.89,78.09,87.1,62.48,80.07,50.83c-3.29-5.45-9-10.07-15.32-11.3-5.89-1.15-12.93,1.09-11.93,8.18a3.54,3.54,0,0,0,3.43,2.62c3.45-.3,5.69-1.78,9.08-.08A15.14,15.14,0,0,1,72.48,58c2.94,7.44-2,14.47-9.6,15.52-8,1.11-16.68-1.74-16.16-11.29a16.41,16.41,0,0,1,3.76-9.34c2.2-2.71,6-6.62,9.34-7.86a1.84,1.84,0,0,0-.49-3.59Z" transform="translate(12.46)"/><path class="cls-3" d="M32.26,29.93c2.32-.24,4.4.46,6.65.52,1.88.05,3.84-.23,5.72-.33,4.47-.22,8.93-.41,13.4-.42,8.63,0,18.36-.57,26.82,1.29s6.33,14.49,6.49,21.11c.2,8.26,1.14,16.65.8,24.91S86.58,88.08,79,88.85A148.88,148.88,0,0,1,52.6,89q-6.54-.49-13-1.61c-3.68-.63-8.37-.81-10.22-4.56-3.06-6.21-1.17-16-1-22.72.14-8-1.88-20.78,4.06-27.14,3.36-3.6,8.12-2.53,12.48-2,3.83.5,7.25.53,10.87-1,4.18-1.73,2.71-7.75-1.89-6.87-9.07,1.73-17.76-4.24-25.94,2.57-7.67,6.38-7.76,16.75-8,25.91l-.44,16c-.14,5.13-.63,10.48.47,15.53,2.2,10.14,10.77,12.64,19.91,14.13a145.22,145.22,0,0,0,33.89,1.83c8.48-.63,18.19-1.64,23.77-8.89,5.81-7.56,3.87-18.46,3.44-27.27-.28-5.58-.64-11.15-1-16.73-.33-4.88-.37-10-2.34-14.61-4.52-10.4-17.58-9.4-27.1-9.52a168.45,168.45,0,0,0-19.18,1c-3.14.32-6.28.72-9.4,1.24a33.8,33.8,0,0,0-3.75.66c-2.21.65-3.9,1.89-6.26,2.38-1.42.3-1.13,2.73.35,2.58Z" transform="translate(12.46)"/><g class="cls-4"><g class="cls-5"><path class="cls-6" d="M110.75,30.85c2.12,6.37.1,13.52-.84,20a76.86,76.86,0,0,1-5.34,17,72,72,0,0,1-6.17,10c1.94-2.64-.92,1.05-1.11,1.27-1.27,1.48-2.54,3-3.84,4.43s-2.68,2.87-4.12,4.21c-.37.35-4.3,3.77-2.71,2.46s-2.56,1.77-3,2.07c-1.67,1.08-3.4,2-5.15,3S74.84,97.17,73,98c3.56-1.53-.66.14-1.47.4q-2.91,1-5.89,1.66c-.79.19-7.23,1.23-2.83.7a69.83,69.83,0,0,1-10.72.46c-2-.06-4.09-.22-6.12-.46,4.38.52-2-.5-2.84-.68a65.18,65.18,0,0,1-10.22-3.22c3.77,1.56-2-1.13-2.69-1.48-1.8-1-3.5-2.1-5.23-3.21-1.34-.86-2.67-1.71-4-2.59-1.61-1.16-1.72-1.23-.31-.21l-2.5-2c-2.24-1.91-4.13-4.17-6.68-5.74a34.52,34.52,0,0,0-4.89-2.18q2.19,1-.1-.16c-6.5-3.4-16.53-.84-18.08,7.36-1.13,6-1.5,11.07,1.23,16.83a45.5,45.5,0,0,0,8.52,11.79c6.81,7,15,11.51,23.89,15.22,15.61,6.5,32.72,7.5,49.26,4.62a76.93,76.93,0,0,0,42.93-23.5c11.47-12.45,17.77-28,19.88-44.67,1.84-14.54-.44-39.46-19.21-41.47-2.72-.3-5,3-4.14,5.42Z" transform="translate(12.46)"/><path class="cls-7" d="M38.65,38.54c.72-.33.85-.4.38-.23q1.23-.31.09-.15-9.27-3.07-1.42-12.42c-.37.22-.74.44-1.12.64q-1.63.8.91-.33c-.4.15-.81.29-1.22.4a18.28,18.28,0,0,1-2.65.53l3.54-.48a4.53,4.53,0,0,1-1.27-.08L43,52.62a20.27,20.27,0,0,0,5.59-5.49c.37-.57.69-1.16,1.08-1.71l-2.32,3A18.14,18.14,0,0,1,49.66,46l-3.11,2.41a16,16,0,0,1,3.45-2L46.17,48a11.65,11.65,0,0,1,1.74-.53l-4.36.58a6.43,6.43,0,0,1,1.52,0l-4.42-.59.47.13-4-1.69a2.41,2.41,0,0,1,.75.46l-3.42-2.64.26.32-4.37-7.5.13.38-.61-4.54v.43l.61-4.56-.2.59L32,24.75l-.36.53,2.73-3.53a17.56,17.56,0,0,1-2.71,2.74l3.64-2.81A15.18,15.18,0,0,1,33.08,23l4.37-1.84a14.53,14.53,0,0,1-3.11.88l5-.67a13.91,13.91,0,0,1-2.58,0L53.19,50.07a27.44,27.44,0,0,1,2.42-3.8l-3,4A12.66,12.66,0,0,1,54.8,48l-4,3.07a11.3,11.3,0,0,1,1.59-.89l-4.72,2a10,10,0,0,1,1.76-.47l-5.27.71a4.82,4.82,0,0,1,1.2,0l-5.29-.71.55.17-8.79-5.13.43.35-5.12-8.8.21.52-.71-5.31,0,.58.72-5.31-.21.58,2-4.78a6.41,6.41,0,0,1-.71,1.07l3.14-4.06a14.14,14.14,0,0,1-1.86,1.85l4.09-3.16a13.55,13.55,0,0,1-2.25,1.35l4.85-2a10.69,10.69,0,0,1-1.23.46l25,25.05.23-.62-2.06,4.88a13.46,13.46,0,0,1,1.66-2.78l-3.21,4.15a15.16,15.16,0,0,1,1.86-1.81l-4.18,3.23a14.22,14.22,0,0,1,2.23-1.32L26.25,27.37a9.68,9.68,0,0,1-.5,2.06l2.11-5c-1.14,2.48-2.31,4.93-3.3,7.48L26.63,27l-.31.61a21.38,21.38,0,0,0-2.42,13c.58,4.27,2.33,8.7,5.61,11.71a21.19,21.19,0,0,0,24.72,3.18C62.73,51.06,66.59,42,67,32.89c.34-7.21-4.2-14.37-10.28-17.93a20.91,20.91,0,0,0-21,0A32.52,32.52,0,0,0,21,34.26a20.44,20.44,0,0,0,7.3,21.4,19.27,19.27,0,0,0,9.63,4,10.14,10.14,0,0,0,5.41,0,15.09,15.09,0,0,0,7.57-2.42C56,55,60.67,50.14,63.44,45.34a21.8,21.8,0,0,0,1.42-19.53,20.91,20.91,0,0,0-14.2-12.47c-14.78-3.8-29.22,8-32.29,22.05-1.48,6.74-.11,13.53,4.9,18.53s11.67,6.14,18.53,4.9C49.51,57.44,55.67,52.17,60.12,46,66.69,37,65.19,22.88,55,17.2c-8.51-4.71-19-2-25.37,4.89A29.54,29.54,0,0,0,23.82,31c-1.74,4.12-3.07,8.82-1.48,13.24C24.27,49.59,28.17,53.5,34,54.29a14.06,14.06,0,0,0,14-6.71c3.66-6.32,8.43-15.27,1.68-21.56a11.61,11.61,0,0,0-11.37-2.65c-3.6,1.16-6,3.88-7.68,7.18a5.89,5.89,0,0,0,8,8Z" transform="translate(12.46)"/></g></g><circle class="cls-8" cx="72.53" cy="60.07" r="57.57"/></g></g></svg>