<?xml version="1.0" encoding="UTF-8" standalone="no"?>
<!-- Generator: Adobe Illustrator 28.0.0, SVG Export Plug-In . SVG Version: 6.00 Build 0)  -->

<svg
   version="1.1"
   id="Calque_1"
   x="0px"
   y="0px"
   viewBox="0 0 1000 1000"
   style="enable-background:new 0 0 1000 1000;"
   xml:space="preserve"
   sodipodi:docname="linkedin.svg"
   inkscape:version="1.4.2 (2aeb623e1d, 2025-05-12)"
   xmlns:inkscape="http://www.inkscape.org/namespaces/inkscape"
   xmlns:sodipodi="http://sodipodi.sourceforge.net/DTD/sodipodi-0.dtd"
   xmlns:xlink="http://www.w3.org/1999/xlink"
   xmlns="http://www.w3.org/2000/svg"
   xmlns:svg="http://www.w3.org/2000/svg"><defs
   id="defs10" /><sodipodi:namedview
   id="namedview10"
   pagecolor="#ffffff"
   bordercolor="#000000"
   borderopacity="0.25"
   inkscape:showpageshadow="2"
   inkscape:pageopacity="0.0"
   inkscape:pagecheckerboard="0"
   inkscape:deskcolor="#d1d1d1"
   showgrid="false"
   inkscape:zoom="0.602"
   inkscape:cx="500"
   inkscape:cy="499.16944"
   inkscape:window-width="1600"
   inkscape:window-height="836"
   inkscape:window-x="0"
   inkscape:window-y="27"
   inkscape:window-maximized="1"
   inkscape:current-layer="Calque_1" />
<style
   type="text/css"
   id="style1">
	.st0{fill:#DDF1F3;stroke:#016673;stroke-width:34.2198;stroke-linecap:round;stroke-linejoin:round;stroke-miterlimit:10;}
	.st1{opacity:0.36;}
	.st2{clip-path:url(#SVGID_00000065793430658832239130000008914393094152737975_);}
	.st3{fill:#901A3D;}
	.st4{fill:none;stroke:#016673;stroke-width:34.2198;stroke-linecap:round;stroke-linejoin:round;stroke-miterlimit:10;}
	.st5{fill:#0B67C3;stroke:#0B67C3;stroke-width:18.4837;stroke-miterlimit:10;}
	.st6{opacity:0.25;}
	.st7{fill:#E6FFF2;}
</style>
<g
   id="g10"
   transform="translate(0,-82)">
	<g
   id="g7">
		<circle
   class="st0"
   cx="498.66"
   cy="500"
   r="393.98001"
   id="circle1" />
		<g
   class="st1"
   id="g3">
			<defs
   id="defs1">
				<circle
   id="SVGID_1_"
   class="st1"
   cx="501.34"
   cy="500.37"
   r="393.98001" />
			</defs>
			<clipPath
   id="SVGID_00000146499428412267389440000009195239488309364140_">
				<use
   xlink:href="#SVGID_1_"
   style="overflow:visible"
   id="use1" />
			</clipPath>
			<g
   clip-path="url(#SVGID_00000146499428412267389440000009195239488309364140_)"
   id="g2">
				<g
   id="g1">
					<path
   class="st3"
   d="m 848.22,299.7 c 0.79,2.02 1.51,4.06 2.11,6.14 1.44,4.93 3.13,9.36 5.22,14.22 -1.25,-2.96 -2.49,-5.91 -3.74,-8.87 1.83,5.45 3.07,11.02 3.89,16.71 -0.54,-4.01 -1.08,-8.02 -1.62,-12.02 0.16,1.22 0.3,2.44 0.43,3.67 0.56,-4.18 1.12,-8.35 1.68,-12.53 -2.14,9.03 -3.15,18.95 0.27,27.88 -0.58,-4.28 -1.15,-8.57 -1.73,-12.85 1.29,11.43 0.69,22.91 -0.82,34.3 0.75,-5.56 1.49,-11.12 2.24,-16.67 -1.52,10.77 -4.52,21.17 -4.99,32.1 -0.25,5.71 -0.95,11.4 -1.69,17.07 0.87,-6.49 1.74,-12.98 2.62,-19.46 -2.08,15.17 -5.47,30.08 -6.57,45.4 -0.65,9.19 -1.62,18.35 -2.83,27.49 0.99,-7.33 1.97,-14.67 2.96,-22 -5.88,43.21 -17.94,85.99 -34.81,126.19 3.28,-7.77 6.56,-15.55 9.84,-23.32 -16.38,38.67 -37.83,75.01 -63.49,108.24 5.76,-7.46 11.53,-14.92 17.29,-22.38 -7.8,10.04 -15.97,19.78 -24.54,29.18 -8.48,9.29 -16.22,19.25 -24.79,28.49 -17.36,18.72 -36.24,35.97 -56.43,51.58 7.99,-6.17 15.98,-12.34 23.97,-18.52 -33.12,25.45 -70.14,46.53 -108.59,62.8 9.61,-4.06 19.23,-8.11 28.84,-12.17 -37.73,15.81 -77.42,26.43 -117.94,31.97 10.69,-1.44 21.38,-2.87 32.07,-4.31 -43.18,5.76 -86.98,5.74 -130.16,-0.01 10.68,1.43 21.36,2.87 32.03,4.3 -41.56,-5.67 -82.28,-16.62 -120.95,-32.91 9.59,4.05 19.17,8.09 28.76,12.14 -20.71,-8.81 -40.77,-19.08 -59.92,-30.9 -19.63,-12.12 -39.41,-24.56 -57.73,-38.59 7.89,6.09 15.78,12.19 23.67,18.28 -14.21,-10.99 -28.03,-22.38 -42.31,-33.33 7.75,5.99 15.5,11.97 23.25,17.96 -8.95,-6.94 -17.56,-14.3 -25.68,-22.2 -1.9,-1.86 -3.78,-3.74 -5.63,-5.65 -0.92,-0.95 -1.82,-1.92 -2.73,-2.88 -0.54,-0.58 -1.09,-1.15 -1.66,-1.7 -7.27,-5.62 -14.54,-11.24 -21.82,-16.85 -4.55,-2.32 -9.25,-4.34 -14.08,-6.05 -4.44,-2.5 -9.09,-4.41 -13.95,-5.72 -0.96,-0.29 -1.93,-0.56 -2.89,-0.85 -0.95,-0.29 -1.89,-0.62 -2.84,-0.88 -8.92,-1.2 -17.85,-2.4 -26.77,-3.6 -9.52,-0.63 -18.59,0.62 -27.19,3.75 32.15,8.5 64.3,17 96.45,25.49 -0.39,-0.35 -0.78,-0.7 -1.16,-1.05 -6.66,-5.14 -13.31,-10.28 -19.97,-15.43 -1.06,-0.5 -2.17,-0.93 -3.25,-1.4 -1.91,-0.84 -3.82,-1.71 -5.7,-2.61 -3.66,-1.74 -7.26,-3.6 -10.81,-5.55 -12.98,-7.53 -26.99,-11.32 -42.02,-11.37 -11.46,-0.43 -22.15,1.96 -32.07,7.17 -10.32,3.36 -19.25,9.1 -26.79,17.21 -10.32,10.39 -17.45,22.63 -21.41,36.74 -0.79,3.75 -1.46,7.52 -2.01,11.32 -1.43,9.81 -2.79,19.65 -3.93,29.5 -0.11,0.93 -0.23,1.86 -0.31,2.79 -0.6,4.85 -0.06,9.69 1.62,14.5 0.18,4.98 0.89,9.85 2.14,14.62 8.5,-32.15 17,-64.3 25.49,-96.45 -1.21,1.11 -15.05,19.12 -16.03,20.64 C -9.93,722.88 11.3,692.95 8.32,704.15 5.68,714.1 5.4,725 4.14,735.41 4,736.57 4.02,737.6 4.02,738.76 c 0.64,4.78 1.28,9.55 1.93,14.33 0.65,14.35 4.91,27.7 12.79,40.08 1.15,2.43 2.33,4.83 3.58,7.21 4.21,8.01 8.83,15.8 13.81,23.36 15.52,23.55 33.44,45.25 54.03,64.48 34.03,31.77 72.82,57.66 115.16,76.89 42.15,19.14 85,35.69 130.47,44.75 27.8,5.54 56.08,9.3 84.31,11.79 18.07,1.59 36.22,2.18 54.35,1.75 28.51,-0.67 56.46,-4.57 84.71,-8.41 17.95,-2.44 35.76,-5.79 53.33,-10.23 17.54,-4.42 34.83,-9.87 51.72,-16.34 26.08,-9.98 52.13,-20.87 76.87,-33.92 15.62,-8.24 30.34,-18.15 44.49,-28.7 21.59,-16.1 43.07,-32.55 62.72,-51.02 12.62,-11.87 24.56,-24.48 35.77,-37.69 11.51,-13.57 22.22,-27.83 33.03,-41.95 5.42,-7.09 10.58,-14.22 15.05,-21.95 8.71,-15.03 16.6,-30.53 23.66,-46.4 10.55,-23.72 20.78,-47.77 28.82,-72.49 13.2,-40.57 20.21,-82.66 24.52,-125.04 0.84,-8.27 1.44,-16.55 1.84,-24.85 -1.08,8.02 -2.15,16.04 -3.23,24.06 1.42,-10.48 3.27,-20.84 3.36,-31.41 0.02,-2.7 0.02,-5.4 0,-8.1 -0.05,-5.67 -0.21,-11.33 -0.48,-16.99 -0.54,-11.41 -1.51,-22.79 -2.91,-34.12 -1.49,-12.09 -3.05,-24.19 -4.96,-36.22 -0.93,-5.85 -1.95,-11.42 -3.88,-17.02 -5.47,-15.94 -11.94,-31.6 -19.01,-46.89 2.32,5.5 4.64,10.99 6.96,16.49 -4.73,-13.65 -8.88,-22.24 -19.06,-32.68 3.54,4.59 7.09,9.17 10.63,13.76 -7.77,-11.45 -16.14,-22.69 -25.49,-32.91 -10.34,-11.3 -24.28,-24.24 -38.74,-28.22 3.75,1.58 7.5,3.17 11.25,4.75 -8.67,-5.62 -18.26,-9.78 -27.94,-13.33 2.96,1.25 5.91,2.49 8.87,3.74 -3.34,-1.42 -6.69,-2.83 -10.03,-4.24 -3.58,-0.56 -7.16,-1.04 -10.76,-1.42 3.16,0.42 6.32,0.85 9.49,1.27 -6.11,-1.1 -12.29,-2.01 -18.49,-2.35 -17.7,-1.01 -35.16,19.73 -28.34,37.12 z"
   id="path1" />
				</g>
			</g>
		</g>
		<circle
   class="st4"
   cx="501.34"
   cy="499.63"
   r="393.98001"
   id="circle3" />
		<g
   id="g6">
			<g
   id="g5">
				<path
   class="st5"
   d="m 651.57,557.93 c -3.28,-29.9 -12.39,-52.22 -19.17,-65.78 -7.88,-15.76 -16.54,-32.69 -35.46,-47.58 -27.81,-21.89 -59.11,-27.89 -90.81,-12.13 -19.92,9.91 -36.97,25.67 -55,39.23 -2.07,1.56 -3.14,5.84 -2.97,8.76 2.08,35.26 4.02,70.53 6.91,105.73 3.27,39.82 7.47,79.56 11.28,119.34 0.32,3.31 0.71,6.62 1.19,9.92 2.66,18.41 -4.62,31.13 -19.55,34.13 -18.58,3.73 -36.24,-5.67 -39.6,-23.08 -3.27,-16.93 -4.27,-34.31 -5.99,-51.52 -3.9,-39.11 -8.86,-78.16 -11.13,-117.37 -3.22,-55.56 -4.85,-111.23 -6.2,-166.87 -0.45,-18.49 8.91,-29 24.82,-32.81 18.83,-4.51 35.06,6.59 37.5,25.72 0.45,3.52 0.59,7.08 0.79,9.54 19.17,-8.01 37.56,-17.74 57.13,-23.51 62.8,-18.51 123.11,4.25 163.87,60.15 26.41,36.22 40.28,77.68 44.94,121.36 6.26,58.62 9.12,117.6 13,176.46 0.94,14.24 -7.43,23.71 -20.94,26.18 -17.69,3.24 -35.22,-5.28 -39.33,-21.1 -2.97,-11.46 -3.25,-23.68 -4.11,-35.61 0,0 0.95,-64.99 -8.23,-119.73 -0.05,-0.27 -0.44,-2.57 -0.94,-5.74 -0.83,-5.4 -1.5,-10.05 -2,-13.69 z"
   id="path3" />
				<path
   class="st5"
   d="m 287.78,478.26 c 0,-29.66 0.04,-59.32 -0.01,-88.99 -0.04,-20.65 10.47,-32.26 29.49,-32.41 19.54,-0.15 32.31,12.5 32.99,32.29 3.36,97.29 6.73,194.58 10.29,291.86 0.71,19.32 2.37,38.59 3.37,57.9 0.99,19.26 -7.9,30.96 -24.5,32.71 -18.97,2 -35.77,-9.64 -37.36,-27.84 -2.59,-29.54 -4.2,-59.18 -5.47,-88.8 -2.54,-58.89 -4.57,-117.8 -6.82,-176.71 -0.67,0 -1.33,0 -1.98,-0.01 z"
   id="path4" />
				<path
   class="st5"
   d="m 320.98,228.36 c 17.92,0.03 30.96,5.67 38.34,20.26 7.62,15.08 5.09,29.74 -4.28,43.33 -17.97,26.08 -52.06,31.01 -72.6,10.64 -16.83,-16.7 -16.38,-40.3 1,-56.45 11.22,-10.42 23.01,-19.49 37.54,-17.78 z"
   id="path5" />
			</g>
		</g>
	</g>
	<g
   class="st6"
   id="g9">
		<g
   id="g8">
			<path
   class="st7"
   d="m 345.36,388.89 c 3.21,-1.62 6.43,-3.19 9.73,-4.62 -3.46,1.46 -6.93,2.92 -10.39,4.38 4.09,-1.7 8.23,-3.03 12.61,-3.76 -4.25,0.57 -8.5,1.14 -12.75,1.71 2.93,-0.37 5.75,-0.39 8.69,-0.05 -4.51,-0.61 -9.02,-1.21 -13.53,-1.82 1.62,0.29 3.13,0.72 4.67,1.31 -4.18,-1.76 -8.36,-3.53 -12.55,-5.29 1.13,0.5 2.08,1.17 3.15,1.78 -3.64,-2.81 -7.27,-5.62 -10.91,-8.43 0.86,0.81 1.63,1.62 2.39,2.52 -2.9,-3.76 -5.81,-7.52 -8.71,-11.28 1.16,1.5 2.06,3.05 2.85,4.77 -1.97,-4.68 -3.95,-9.35 -5.92,-14.03 0.52,1.38 0.88,2.72 1.11,4.17 -0.73,-5.41 -1.45,-10.82 -2.18,-16.23 0.09,1.08 0.09,2.05 0.01,3.13 0.75,-5.56 1.49,-11.12 2.24,-16.68 -0.17,1.07 -0.42,1.99 -0.78,3.02 2.17,-5.13 4.33,-10.26 6.5,-15.39 -0.52,1.13 -1.09,2.02 -1.82,3.04 3.46,-4.48 6.92,-8.95 10.37,-13.43 -0.94,1.06 -1.88,1.93 -2.99,2.82 4.62,-3.57 9.24,-7.14 13.87,-10.71 -6.49,4.56 -13.64,8.31 -20.91,11.45 6.25,-2.64 12.51,-5.28 18.76,-7.92 -8.88,3.7 -18.13,6.14 -27.64,7.54 7.98,-1.07 15.96,-2.14 23.93,-3.22 -2.48,0.33 -4.75,0.05 -7.21,-0.28 8.34,1.12 16.67,2.24 25.01,3.36 -0.41,-0.06 -0.82,-0.12 -1.23,-0.18 13.97,52.92 27.94,105.84 41.92,158.76 0.66,-0.57 1.33,-1.14 2.01,-1.69 -6.52,5.04 -13.04,10.08 -19.56,15.11 16.92,-7.73 29.18,-24.6 38.56,-40.05 1.68,-2.76 3.51,-5.41 5.45,-8 -5.22,6.76 -10.45,13.52 -15.67,20.28 5.13,-6.64 11.06,-12.48 17.69,-17.62 -7.05,5.45 -14.1,10.89 -21.15,16.34 6.32,-4.74 13.12,-8.63 20.39,-11.73 -8.64,3.65 -17.28,7.29 -25.93,10.94 4.17,-1.7 8.47,-3.29 12.92,-4.05 -9.82,1.32 -19.65,2.64 -29.47,3.96 3.11,-0.41 6.16,-0.4 9.27,0.02 -9.97,-1.34 -19.93,-2.68 -29.9,-4.02 1.82,0.32 3.62,0.79 5.33,1.5 -9.04,-3.81 -18.07,-7.63 -27.11,-11.44 1.24,0.6 2.35,1.27 3.45,2.1 -7.71,-5.96 -15.42,-11.92 -23.13,-17.87 0.73,0.65 1.32,1.28 1.93,2.05 -5.99,-7.75 -11.98,-15.5 -17.96,-23.25 0.35,0.5 0.65,1.03 0.9,1.59 -3.87,-9.18 -7.75,-18.36 -11.62,-27.53 0.24,0.57 0.42,1.15 0.53,1.76 -1.38,-10.25 -2.75,-20.5 -4.13,-30.74 0.14,1.04 0.14,1.93 0.05,2.98 1.38,-10.3 2.77,-20.61 4.15,-30.91 -0.17,1.14 -0.5,2.22 -1.01,3.25 3.93,-9.31 7.86,-18.63 11.79,-27.94 -0.85,1.57 -1.76,2.94 -2.83,4.37 6.15,-7.96 12.31,-15.93 18.46,-23.89 -7.76,9.85 -15.62,19.56 -23.21,29.6 6.23,-8.06 12.45,-16.12 18.68,-24.17 -3.73,4.52 -7.88,8.54 -12.47,12.18 8.21,-6.34 16.41,-12.68 24.62,-19.02 -5.83,4.46 -12.1,8.05 -18.86,10.91 9.91,-4.18 19.81,-8.36 29.72,-12.54 -6.35,2.55 -12.87,4.29 -19.64,5.27 11.25,-1.51 22.5,-3.02 33.75,-4.54 -5.8,0.72 -11.56,0.82 -17.38,0.27 37.18,64.79 74.36,129.58 111.53,194.36 4.52,-9.3 10.37,-17.73 16.58,-25.96 -6.91,8.94 -13.81,17.88 -20.72,26.82 4.17,-5.34 8.81,-10.15 14.17,-14.3 -9,6.95 -18,13.9 -26.99,20.86 3.76,-2.78 7.71,-5.11 12,-6.97 -10.67,4.5 -21.34,9.01 -32.01,13.51 3.91,-1.56 7.88,-2.63 12.04,-3.21 -11.92,1.6 -23.84,3.2 -35.77,4.81 2.77,-0.3 5.47,-0.42 8.24,-0.1 -11.95,-1.61 -23.91,-3.21 -35.86,-4.82 1.35,0.26 2.48,0.58 3.75,1.11 -10.76,-4.54 -21.51,-9.08 -32.27,-13.62 0.37,0.21 0.73,0.42 1.1,0.63 -9.12,-7.04 -18.23,-14.09 -27.35,-21.13 0.71,0.48 1.33,1.05 1.85,1.74 -7.05,-9.12 -14.1,-18.25 -21.15,-27.37 0.25,0.41 0.51,0.82 0.76,1.24 -4.55,-10.77 -9.09,-21.55 -13.64,-32.32 0.41,0.85 0.66,1.75 0.75,2.69 -1.61,-12 -3.23,-24 -4.84,-36 0.09,0.97 0.05,1.93 -0.12,2.88 1.61,-12.01 3.23,-24.02 4.84,-36.04 -0.35,1.56 -0.8,2.9 -1.41,4.37 4.56,-10.81 9.12,-21.62 13.69,-32.43 -1.4,2.8 -3.16,5.3 -5.07,7.78 7.1,-9.19 14.19,-18.37 21.29,-27.56 -3.91,4.86 -8.29,9.16 -13.2,13 9.24,-7.14 18.48,-14.28 27.72,-21.42 -4.99,3.74 -10.29,6.83 -16,9.34 10.97,-4.63 21.94,-9.26 32.92,-13.89 -2.38,0.99 -4.78,1.86 -7.24,2.64 56.64,56.64 113.28,113.28 169.92,169.92 0.5,-1.44 1.04,-2.86 1.6,-4.28 -4.65,11.02 -9.3,22.03 -13.95,33.05 2.57,-6.1 5.85,-11.74 9.81,-17.04 -7.26,9.39 -14.51,18.78 -21.77,28.17 4.07,-5.22 8.67,-9.86 13.85,-13.98 -9.45,7.3 -18.9,14.6 -28.35,21.9 4.85,-3.7 10.01,-6.8 15.58,-9.32 -70.65,-40.54 -141.31,-81.09 -211.96,-121.63 -0.09,1.04 -0.21,2.07 -0.36,3.1 1.68,-12.49 3.36,-24.99 5.04,-37.48 -0.69,4.13 -1.81,8.06 -3.39,11.93 4.76,-11.27 9.51,-22.54 14.27,-33.81 -1.26,2.86 -2.73,5.56 -4.41,8.19 -8.01,12.54 -11.76,27 -17.18,40.69 4.71,-11.17 9.43,-22.33 14.14,-33.5 -0.81,1.86 -1.69,3.66 -2.67,5.44 -4.65,11.02 -9.3,22.03 -13.95,33.05 -5.77,18.39 -6.59,36.78 -2.47,55.17 0.04,12.49 3.19,24.12 9.44,34.91 5.58,17.15 15.11,31.99 28.61,44.52 9.33,7.21 18.67,14.42 28,21.63 11.02,4.65 22.03,9.3 33.05,13.95 18.39,5.77 36.78,6.59 55.17,2.47 18.41,-0.84 35.56,-6.31 51.44,-16.42 3.14,-1.51 5.99,-3.3 8.81,-5.34 22.41,-16.19 39.44,-27.98 52.77,-53.29 3.57,-6.77 6.27,-14.22 9.19,-21.14 3.5,-8.28 8.27,-17.39 10.18,-26.54 3.25,-15.59 5.87,-31.6 6.07,-47.55 0.63,-49.47 -27.34,-96.81 -69.77,-121.63 -44.02,-25.76 -98.11,-24.83 -142.2,0 -2.43,1.37 -4.8,2.83 -7.07,4.44 -11.5,8.16 -23.06,16.95 -33.79,26.14 -12.48,10.7 -23.33,27.26 -32.29,39.21 -3.35,4.47 -6.35,9.1 -8.76,14.15 -5.97,12.51 -11.44,25.74 -16.37,38.7 -1.08,2.84 -1.95,5.73 -2.7,8.68 -12.22,48.05 0.17,99.05 35.52,134.4 17.24,17.12 37.55,28.96 60.95,35.52 24.48,6.58 48.96,6.58 73.44,0 13.91,-5.78 29.36,-10.85 42.67,-18.7 13.08,-7.71 25.41,-18.3 36.69,-27.64 14.41,-11.92 25.68,-28.37 36,-43.45 23.77,-34.73 30.72,-82.47 19.44,-122.66 C 520.06,281.61 495.7,250.24 463.31,232 442.01,220.01 412.69,210.75 388,212.86 c -33.6,2.88 -55.78,7.31 -85.64,23.99 -12.59,7.03 -24.71,17.62 -35.05,26.39 -2.71,2.3 -5.25,4.75 -7.6,7.42 -9.53,10.87 -18.37,22.42 -26.54,34.34 -2.24,3.27 -4.21,6.63 -5.88,10.22 -7.63,16.41 -15.88,34.26 -19.6,52.39 -6.15,22.89 -6.15,45.78 0,68.68 6.14,21.88 17.21,40.88 33.22,57 16.12,16.01 35.12,27.08 57,33.22 22.89,6.15 45.78,6.15 68.68,0 5.52,-0.87 10.9,-2.29 16.1,-4.33 14,-5.49 30.53,-11.19 43.84,-19.69 13.18,-8.41 25.81,-18.07 37.18,-28.82 11.17,-10.56 20.31,-23.91 29.09,-36.13 3.13,-4.36 5.66,-9.03 7.93,-13.88 4.75,-10.16 11.32,-23.42 14.01,-35.68 1.05,-5.74 1.85,-11.51 2.4,-17.33 1,-5.73 1.75,-11.49 2.25,-17.27 0.45,-11.5 -1.46,-23.29 -4.53,-34.35 -6.13,-22.13 -10.66,-27.52 -22.54,-42.89 -10.8,-13.98 -17.52,-22.56 -35.21,-31.88 -7.16,-3.77 -21.42,-9.76 -29.13,-12.22 -8.31,-2.65 -60.43,-6.49 -32.23,-4.48 -11.87,-0.85 -23.55,2.15 -35.31,4.03 10,-1.34 20,-2.69 30,-4.03 -12.48,1.52 -26.71,1.63 -38.9,6.43 -12.07,4.75 -24.7,8.77 -35.1,16.64 -10.42,7.89 -21.64,15.48 -30.84,24.92 -9.02,9.26 -16.62,20.11 -24.26,30.41 -10.06,13.56 -16,29.85 -22.16,45.37 -1.62,4.08 -2.99,8.24 -4.03,12.51 -0.53,2.17 -0.94,4.36 -1.35,6.56 -1.54,8.3 -3.43,19 -3.81,27.45 -0.51,13.46 2.3,26.02 8.42,37.67 1.28,4.45 3.09,8.63 5.43,12.54 -3.25,-7.7 -6.5,-15.39 -9.74,-23.09 0.24,0.81 0.5,1.62 0.77,2.43 3.19,7.56 6.38,15.13 9.58,22.69 4.95,6.41 9.9,12.82 14.85,19.22 6.41,4.95 12.82,9.9 19.22,14.85 10.9,6.94 22.68,10.7 35.32,11.27 8.42,2.26 16.83,2.26 25.25,0 8.57,-0.03 16.56,-2.19 23.97,-6.48 8.05,-2.26 15.03,-6.33 20.96,-12.21 10.34,-6.7 18.5,-15.58 24.47,-26.65 1.17,-1.95 2.19,-4.01 3.5,-5.87 -4.72,6.11 -9.45,12.23 -14.17,18.34 9.91,-12.21 20.36,-24.68 27.41,-38.9 4.67,-9.42 8.74,-19.23 12.41,-29.08 1.55,-4.16 2.89,-8.44 3.83,-12.78 3.2,-14.83 4.01,-30.84 -0.71,-45.51 -2.05,-6.37 -4.72,-13.52 -8.57,-19.12 -3.58,-5.21 -7.44,-10.96 -12.33,-15.1 -7.86,-6.66 -13.56,-10.49 -22.62,-14.31 -4.24,-1.79 -7.23,-3.37 -11.45,-4.15 -13.69,-2.55 -24.19,-2.79 -37.92,0.4 4.78,-0.64 9.55,-1.28 14.33,-1.92 -12.87,1.23 -22.02,3.17 -33.57,9.08 -1.69,0.87 -3.24,1.88 -4.78,2.99 -4.69,3.38 -9.67,6.86 -13.69,11.09 -8.15,8.57 -14.3,18.42 -19.47,28.93 -4.07,8.26 -5.99,16.23 -4.74,25.48 1.13,8.39 4.57,17.05 10.99,22.95 13.69,12.61 31.92,14.58 48.42,6.28 z"
   id="path7" />
		</g>
	</g>
</g>
</svg>
