<svg xmlns="http://www.w3.org/2000/svg" xmlns:xlink="http://www.w3.org/1999/xlink" viewBox="0 0 147.08 131.81"><defs><style>.cls-1,.cls-8{fill:none;}.cls-2{fill:#ddf1f3;}.cls-2,.cls-8{stroke:#016673;stroke-linecap:round;stroke-linejoin:round;stroke-width:5px;}.cls-3{fill:#231f20;}.cls-4{opacity:0.36;}.cls-5{clip-path:url(#clip-path);}.cls-6{fill:#901a3d;}.cls-7{fill:#e6fff2;}</style><clipPath id="clip-path" transform="translate(16.87)"><circle class="cls-1" cx="60.07" cy="60.07" r="57.57"/></clipPath></defs><g id="Calque_2" data-name="Calque 2"><g id="Layer_21" data-name="Layer 21"><circle class="cls-2" cx="76.94" cy="60.07" r="57.57"/><path class="cls-3" d="M53.2,52.11C41.32,44.92,27,58.18,25.34,69.65,23.29,83.45,35.9,95.9,48.87,98.32,64,101.13,74,88.41,76,74.75c2.38-16.29,1.32-33.44,1-49.82L65.75,26.46C68.44,39.65,79,56.4,95,51.17c6.17-2,5.46-12.08-1.6-11.79-9.88.41-14-7.54-16.57-16C74.91,17,66,18.54,65.54,24.93c-.77,11-1.4,21.93-1.68,33-.2,8.09,1.34,21.28-6.51,26.58C51,88.78,39.74,81.4,38.1,74.74c-2.45-10,9.2-12.23,15.1-16.4a3.65,3.65,0,0,0,0-6.23Z" transform="translate(16.87)"/><g class="cls-4"><g class="cls-5"><path class="cls-6" d="M106.34,26.07c2.13,6.36.11,13.51-.84,20a76.86,76.86,0,0,1-5.33,17A73.43,73.43,0,0,1,94,73c1.93-2.65-.93,1-1.12,1.26-1.27,1.48-2.53,3-3.84,4.43s-2.68,2.87-4.11,4.21c-.38.35-4.31,3.77-2.72,2.47s-2.56,1.77-3,2.06c-1.68,1.08-3.4,2-5.15,3s-3.61,1.93-5.49,2.73c3.56-1.53-.67.14-1.47.41q-2.91,1-5.9,1.66c-.79.18-7.23,1.23-2.82.69a70,70,0,0,1-10.73.46c-2-.06-4.09-.21-6.12-.46,4.39.53-2.05-.49-2.84-.68a65.47,65.47,0,0,1-10.22-3.21c3.77,1.55-2-1.14-2.68-1.49-1.8-1-3.51-2.1-5.23-3.21q-2-1.27-4-2.59-2.41-1.74-.31-.21l-2.49-2c-2.25-1.92-4.14-4.18-6.68-5.74a36.42,36.42,0,0,0-4.9-2.19q2.19,1-.1-.16c-6.49-3.39-16.53-.84-18.07,7.36-1.14,6-1.51,11.07,1.23,16.83a45.27,45.27,0,0,0,8.52,11.79c6.81,7,15,11.52,23.88,15.22,15.61,6.5,32.72,7.5,49.26,4.63a77,77,0,0,0,42.93-23.5c11.47-12.45,17.77-28,19.88-44.68,1.84-14.54-.43-39.45-19.21-41.47-2.72-.29-5,3-4.14,5.43Z" transform="translate(16.87)"/><path class="cls-7" d="M43.11,49.93c.29-.35.58-.69.9-1,.68-.67.65-.65-.11.06l.58-.31c1-.45.81-.39-.48.19a11.3,11.3,0,0,0,1.86-.52c1.24-.23.87-.19-1.1.12a10.49,10.49,0,0,1-8.83-5.35l-2-7.36V36l.54-4-.09.27,1.56-3.68-.17.25,2.48-3.21c-.41.38-.79.79-1.2,1.17l3.51-2.71c-2,1.56-4.05,3.12-6,4.77L38.27,26a18,18,0,0,1-3.68,2.14l4.63-1.95a22.65,22.65,0,0,1-4.12,1.21l5.37-.72-.71.06,5.4.72-.67-.17,9,5.25-.35-.3,3.21,4.15-.2-.4L59,46.39a2.08,2.08,0,0,1,0-1l-.74,5.51.15-.51-2.1,5a22.83,22.83,0,0,1,2.81-4.76l-3.3,4.27a22.2,22.2,0,0,1,3-3.11l-4.3,3.33a12.28,12.28,0,0,1,1.63-1L51,56.32a8.26,8.26,0,0,1,1.75-.48l-5.69.76h.57L42,55.83a2.7,2.7,0,0,1,1,.26L37.9,53.93l.46.28L34,50.86l.4.4-3.36-4.34.32.51-2.17-5.14.18.55-.77-5.72a3.07,3.07,0,0,1,0,1.17l.77-5.74a4.51,4.51,0,0,1-.4,1.19l2.18-5.16a7,7,0,0,1-.68,1.11l3.38-4.38a10.89,10.89,0,0,1-1.44,1.44l4.39-3.4a16,16,0,0,1-3.25,1.9L38.8,23a16.26,16.26,0,0,1-2.91.79l5.84-.78a4.24,4.24,0,0,1-1.18,0l5.85.78-.53-.17,9.72,5.66L55.17,29l5.67,9.73-.24-.57L61.39,44l0-.62-3,11.15a3.13,3.13,0,0,1,.7-1.19l-3.46,4.48.51-.48-4.49,3.47a17.07,17.07,0,0,1,3.13-1.92l-5.33,2.24a22.49,22.49,0,0,1,4.77-1.6l-5.87.79.6.08-11.12-3a2,2,0,0,1,.77.44l-7.78-7.78.26.39L29,45.32a2.56,2.56,0,0,1,.24.94l-.75-5.58c0,.33,0,.67,0,1-.33,6.35,3.2,12.28,8,16,4.67,3.6,11.93,6,17.78,3.65,4.17-1.68,7.27-2.74,10.38-6.19a24.72,24.72,0,0,0,5.9-10.28,22.79,22.79,0,0,0-2.36-17.44C64.2,20.75,56.3,16,48.39,16.16,37.48,16.4,26.06,21.83,20.5,31.6c-6.08,10.69-3.12,25.74,8,32A25.2,25.2,0,0,0,49.73,65.5C61.78,61,71,51.68,71.75,38.29c.44-8.21-4.58-17.17-11.73-21.13C52,12.72,43.2,13,35.18,17.09c-6.43,3.3-11.75,9.68-14.65,16.22-1.93,4.35-3.08,6.91-3,11.86a24.4,24.4,0,0,0,3.14,11.6A21.63,21.63,0,0,0,33.42,66.6c5.84,1.64,11.58.5,16.91-2.15C58,60.65,63.7,53,66.09,44.88,68.42,37,64.7,27.36,57.6,23.26c-6.23-3.6-15.07-2.84-20,2.72a21.31,21.31,0,0,0-2.35,3.17c-.51,1.09-1,2.21-1.4,3.33-.32.83-.08.26.72-1.72A11.46,11.46,0,0,0,33,33.64a32,32,0,0,0-2.54,9c-.45,3.25.27,6.83,3.47,8.52,2.79,1.48,7,1.43,9.14-1.18Z" transform="translate(16.87)"/></g></g><circle class="cls-8" cx="76.94" cy="60.07" r="57.57"/></g></g></svg>