<svg xmlns="http://www.w3.org/2000/svg" xmlns:xlink="http://www.w3.org/1999/xlink" viewBox="0 0 147.08 136.6"><defs><style>.cls-1,.cls-8{fill:none;}.cls-2{fill:#ddf1f3;}.cls-2,.cls-8{stroke:#016673;stroke-linecap:round;stroke-linejoin:round;stroke-width:5px;}.cls-3{fill:#66bd6a;}.cls-4{opacity:0.36;}.cls-5{clip-path:url(#clip-path);}.cls-6{fill:#901a3d;}.cls-7{fill:#e6fff2;}</style><clipPath id="clip-path" transform="translate(12.46)"><circle class="cls-1" cx="60.07" cy="60.18" r="57.57"/></clipPath></defs><g id="Calque_2" data-name="Calque 2"><g id="Layer_23" data-name="Layer 23"><circle class="cls-2" cx="72.53" cy="60.18" r="57.57"/><path class="cls-3" d="M28.81,96.63c3.95-6,8.44-14.85,5.23-22-1.57-3.5-3.62-6.46-4.6-10.24a32.33,32.33,0,0,1-.8-11.51c1.67-15.21,15.44-26,30.52-25.66,13.58.33,30.31,11.61,33.61,25.19a27.44,27.44,0,0,1-19.9,33.39,32.7,32.7,0,0,1-11.19.92c-4.39-.4-8.53-2.12-12.9-2.58-4.1-.44-8.61-.77-12.65.33-4.68,1.28-8.34,4.5-11.77,7.76-4.22,4,2.13,10.31,6.36,6.36s8.49-6.71,14.58-5.09c4.77,1.27,9.43,2.82,14.36,3.45A43.16,43.16,0,0,0,82.58,93.5C98.74,86.32,106,68.33,103,51.33s-20.52-30.62-36.73-34c-16.4-3.4-34.22,4-42.27,19a40.86,40.86,0,0,0-4.16,27.6C20.93,69,23.37,73,25.69,77.53c1.55,3,.35,5.73-.48,8.81a40.39,40.39,0,0,0-1.38,8.94c-.13,2.8,3.61,3.44,5,1.35Z" transform="translate(12.46)"/><path class="cls-3" d="M51.84,44.2l.09.4-5.2,4,.68.21-2.53-2,.3.66V43.16l-.41.58,3.72-2.13h-.72L52,44.8l.16-.24-8.72-1.18L43.19,45l8.91,1.2.11-1.6c1.41-6-6.71-7.84-9-2.47-2,4.68-2.94,9.74-.62,14.49,2.19,4.5,4.49,9.23,8.3,12.63a23,23,0,0,0,11.58,5.71,12,12,0,0,0,5.89-.37c.95-.33,4.92-2.3,3.57-3.15l-1.64-2.13.16.87.37-2.81-.48.76,3.2-1.84.92,3.16H68.85l.05-1.91,6.58.85h-.11l-7.92,1c-.3.24-.31.61,0,1.09.14,3.06,3,4.38,5.65,3.24l1-.44a4.31,4.31,0,0,0,2.2-3.83A7.46,7.46,0,0,0,74.93,65c-1.82-2.72-7.35-3-7.92,1-.35,2.49-.3,4.41,1.23,6.52s4.52,2.91,6.58.85c3.25-3.25,2.51-7.75-1.13-10.28-1.85-1.28-4.33-.24-5.46,1.43-2.75,4.06.44,10.12,5.58,9.15,4.61-.88,5.11-7.61.53-9-2.11-.64-3.85.09-5.58,1.25-2.51,1.69-3,2.86-6.24,2.25a15,15,0,0,1-4.68-1.89c-3.75-2.2-7.55-6.14-7.36-10.75a40.62,40.62,0,0,1,1.73-11l-9-2.47A13.59,13.59,0,0,0,43,46.16c.53,4.6,8,6.72,8.92,1.21a16.26,16.26,0,0,0,.32-4C52,38.47,45,37.25,43.55,42.2a7.2,7.2,0,0,0,0,4.91c.54,1.69,2.25,3.36,4.18,3.18,2.26-.2,3.61-.82,4.81-2.81a4.21,4.21,0,0,0,0-4.32c-1.2-1.82-2.5-2.78-4.76-2.66a4.15,4.15,0,0,0-4,5.19l.13.41a4.08,4.08,0,0,0,7.36,1,3.41,3.41,0,0,0,.49-2.87Z" transform="translate(12.46)"/><g class="cls-4"><g class="cls-5"><path class="cls-6" d="M110.75,30.85c2.12,6.37.1,13.52-.84,20a76.86,76.86,0,0,1-5.34,17,72,72,0,0,1-6.17,10c1.94-2.64-.92,1.05-1.11,1.27-1.27,1.48-2.54,3-3.84,4.43s-2.68,2.87-4.12,4.21c-.37.35-4.3,3.77-2.71,2.46s-2.56,1.77-3,2.07c-1.67,1.08-3.4,2-5.15,3S74.84,97.17,73,98c3.56-1.53-.66.14-1.47.4q-2.91,1-5.89,1.66c-.79.19-7.23,1.23-2.83.7a69.83,69.83,0,0,1-10.72.46c-2-.06-4.09-.22-6.12-.46,4.38.52-2-.5-2.84-.68a65.18,65.18,0,0,1-10.22-3.22c3.77,1.56-2-1.13-2.69-1.48-1.8-1-3.5-2.1-5.23-3.21-1.34-.86-2.67-1.71-4-2.59-1.61-1.16-1.72-1.23-.31-.21l-2.5-2c-2.24-1.91-4.13-4.17-6.68-5.74a34.52,34.52,0,0,0-4.89-2.18q2.19,1-.1-.16c-6.5-3.4-16.53-.84-18.08,7.36-1.13,6-1.5,11.07,1.23,16.83a45.5,45.5,0,0,0,8.52,11.79c6.81,7,15,11.51,23.89,15.22,15.61,6.5,32.72,7.5,49.26,4.62a76.93,76.93,0,0,0,42.93-23.5c11.47-12.45,17.77-28,19.88-44.67,1.84-14.54-.44-39.46-19.21-41.47-2.72-.3-5,3-4.14,5.42Z" transform="translate(12.46)"/><path class="cls-7" d="M38.65,38.54c.72-.33.85-.4.38-.23q1.23-.31.09-.15-9.27-3.07-1.42-12.42c-.37.22-.74.44-1.12.64q-1.63.8.91-.33c-.4.15-.81.29-1.22.4a18.28,18.28,0,0,1-2.65.53l3.54-.48a4.53,4.53,0,0,1-1.27-.08L43,52.62a20.27,20.27,0,0,0,5.59-5.49c.37-.57.69-1.16,1.08-1.71l-2.32,3A18.14,18.14,0,0,1,49.66,46l-3.11,2.41a16,16,0,0,1,3.45-2L46.17,48a11.65,11.65,0,0,1,1.74-.53l-4.36.58a6.43,6.43,0,0,1,1.52,0l-4.42-.59.47.13-4-1.69a2.41,2.41,0,0,1,.75.46l-3.42-2.64.26.32-4.37-7.5.13.38-.61-4.54v.43l.61-4.56-.2.59L32,24.75l-.36.53,2.73-3.53a17.56,17.56,0,0,1-2.71,2.74l3.64-2.81A15.18,15.18,0,0,1,33.08,23l4.37-1.84a14.53,14.53,0,0,1-3.11.88l5-.67a13.91,13.91,0,0,1-2.58,0L53.19,50.07a27.44,27.44,0,0,1,2.42-3.8l-3,4A12.66,12.66,0,0,1,54.8,48l-4,3.07a11.3,11.3,0,0,1,1.59-.89l-4.72,2a10,10,0,0,1,1.76-.47l-5.27.71a4.82,4.82,0,0,1,1.2,0l-5.29-.71.55.17-8.79-5.13.43.35-5.12-8.8.21.52-.71-5.31,0,.58.72-5.31-.21.58,2-4.78a6.41,6.41,0,0,1-.71,1.07l3.14-4.06a14.14,14.14,0,0,1-1.86,1.85l4.09-3.16a13.55,13.55,0,0,1-2.25,1.35l4.85-2a10.69,10.69,0,0,1-1.23.46l25,25.05.23-.62-2.06,4.88a13.46,13.46,0,0,1,1.66-2.78l-3.21,4.15a15.16,15.16,0,0,1,1.86-1.81l-4.18,3.23a14.22,14.22,0,0,1,2.23-1.32L26.25,27.37a9.68,9.68,0,0,1-.5,2.06l2.11-5c-1.14,2.48-2.31,4.93-3.3,7.48L26.63,27l-.31.61a21.38,21.38,0,0,0-2.42,13c.58,4.27,2.33,8.7,5.61,11.71a21.19,21.19,0,0,0,24.72,3.18C62.73,51.06,66.59,42,67,32.89c.34-7.21-4.2-14.37-10.28-17.93a20.91,20.91,0,0,0-21,0A32.52,32.52,0,0,0,21,34.26a20.44,20.44,0,0,0,7.3,21.4,19.27,19.27,0,0,0,9.63,4,10.14,10.14,0,0,0,5.41,0,15.09,15.09,0,0,0,7.57-2.42C56,55,60.67,50.14,63.44,45.34a21.8,21.8,0,0,0,1.42-19.53,20.91,20.91,0,0,0-14.2-12.47c-14.78-3.8-29.22,8-32.29,22.05-1.48,6.74-.11,13.53,4.9,18.53s11.67,6.14,18.53,4.9C49.51,57.44,55.67,52.17,60.12,46,66.69,37,65.19,22.88,55,17.2c-8.51-4.71-19-2-25.37,4.89A29.54,29.54,0,0,0,23.82,31c-1.74,4.12-3.07,8.82-1.48,13.24C24.27,49.59,28.17,53.5,34,54.29a14.06,14.06,0,0,0,14-6.71c3.66-6.32,8.43-15.27,1.68-21.56a11.61,11.61,0,0,0-11.37-2.65c-3.6,1.16-6,3.88-7.68,7.18a5.89,5.89,0,0,0,8,8Z" transform="translate(12.46)"/></g></g><circle class="cls-8" cx="72.53" cy="60.07" r="57.57"/></g></g></svg>