<svg xmlns="http://www.w3.org/2000/svg" xmlns:xlink="http://www.w3.org/1999/xlink" viewBox="0 0 68.85 160.52"><defs><style>.cls-1,.cls-7{fill:none;}.cls-2{fill:#f98435;}.cls-2,.cls-7{stroke:#c93f28;stroke-linecap:round;stroke-linejoin:round;stroke-width:5px;}.cls-3{opacity:0.37;}.cls-4{clip-path:url(#clip-path);}.cls-5{fill:#901a3d;}.cls-6{fill:#e6fff2;}</style><clipPath id="clip-path" transform="translate(0 0.21)"><path class="cls-1" d="M53.52,78.3c-6-1.4-13,.63-17.05,1.47C32.81,71.39,30.52,65,31.18,64.2c2.24-2.8,14.82-17.26,13-29.64C43.4,28.71,36,13.1,27.11,7.57,21.45,4.05,9.51-.83,4.2,4.47s3.54,35.4,3.54,35.4L16,60.74C12.36,64.18,4.21,78.35,3.53,85.43c-.88,9.24,1.55,23.89,16.15,28.76a45.57,45.57,0,0,0,21.24,1.57l.09.2s8.44,24.33,6.67,27.87-11.88-7.52-11.88-7.52c-1.73-2.34-3.81,1.23-6.17,4-5.46,6.4,1.86,14.49,15.49,16.81,12.16,2.08,16.15-5.53,15.26-15-.38-4-6.89-24.86-8.86-29.88,5.2-2.86,13.73-9,14.61-15.69C67.19,88.51,64.58,80.87,53.52,78.3ZM16.14,20c8.41,0,14.6,7.08,15.36,14.6s-6.07,14.6-6.07,14.6S14.81,20,16.14,20ZM31.5,102.69s-13.15-1.61-12.26-13.41a34.76,34.76,0,0,1,3.39-12.7L27.7,87.46c-1.51,2.51-1.78,5.32,1.16,7.94a8.56,8.56,0,0,0,3.5,2L35,103.14A31.77,31.77,0,0,1,31.5,102.69ZM54,95.37c-.79,3.13-5.15,4.89-7.52,6.09-1.59-3.33-3.43-7.24-5.28-11.25C46.4,88.78,55.74,88.27,54,95.37Z"/></clipPath></defs><g id="Calque_2" data-name="Calque 2"><g id="Warstwa_11" data-name="Warstwa 11"><path class="cls-2" d="M66.13,96.86c1.06-8-1.55-15.62-12.61-18.19-6-1.4-13,.63-17.05,1.47-3.66-8.38-5.95-14.74-5.29-15.57,2.24-2.8,14.82-17.26,13-29.64-.83-5.85-8.23-21.46-17.12-27C21.45,4.42,9.51-.46,4.2,4.84s3.54,35.4,3.54,35.4L16,61.11C12.36,64.55,4.21,78.72,3.53,85.8,2.65,95,5.08,109.69,19.68,114.56a45.57,45.57,0,0,0,21.24,1.57l.09.2s8.44,24.33,6.67,27.87-11.88-7.52-11.88-7.52c-1.73-2.34-3.82,1.23-6.17,4-5.46,6.4,1.86,14.49,15.49,16.81,12.16,2.08,16.15-5.53,15.26-15-.38-4-6.89-24.86-8.86-29.88C56.72,109.69,65.25,103.51,66.13,96.86Zm-50-76.53c8.41,0,14.6,7.08,15.36,14.6s-6.07,14.6-6.07,14.6S14.81,20.33,16.14,20.33ZM31.5,103.06s-13.15-1.61-12.26-13.41A34.76,34.76,0,0,1,22.63,77L35,103.51A31.77,31.77,0,0,1,31.5,103.06ZM54,95.74c-.79,3.13-5.15,4.89-7.52,6.09C44.86,98.5,43,94.59,41.17,90.58,46.4,89.15,55.74,88.64,54,95.74Z" transform="translate(0 0.21)"/><path class="cls-2" d="M36.47,80.14S20.9,88.7,28.86,95.77s12.31-5.19,12.31-5.19" transform="translate(0 0.21)"/><line class="cls-2" x1="16.03" y1="61.31" x2="25.43" y2="49.73"/><line class="cls-2" x1="22.63" y1="77.16" x2="31.18" y2="64.78"/><path class="cls-2" d="M35,103.51s7.68.26,11.42-1.68" transform="translate(0 0.21)"/><path class="cls-2" d="M40.92,116.13s7.43-1.57,10.6-3.58" transform="translate(0 0.21)"/><g class="cls-3"><g class="cls-4"><path class="cls-5" d="M4.23,23.54c.23,8.82,2.71,17.09,4.84,25.63C11.51,59,27.12,54.71,24.2,45c-2.53-8.4-4.62-16.78-8.93-24.45-2.85-5.07-11.19-2.89-11,3Z" transform="translate(0 0.21)"/><path class="cls-5" d="M14,51.18c-.23.55-.5,1.1-.73,1.66l-.18,1.32a3.77,3.77,0,0,0,.43,1.9,4.67,4.67,0,0,0,2,2.36,5.75,5.75,0,0,0,2.49.67,3.69,3.69,0,0,0,1.91-.42,3.66,3.66,0,0,0,1.58-1c.17-.2.32-.4.48-.61a3.73,3.73,0,0,0,.88-1.68A2.52,2.52,0,0,0,23,55a5,5,0,0,0-2.85-5.81,4.83,4.83,0,0,0-6.15,2Z" transform="translate(0 0.21)"/><path class="cls-5" d="M26.28,70.79l-.21.16,4.25-1.75a7,7,0,0,0-3.9,1.36,11.63,11.63,0,0,0-1.21,1.11l1.35-1a5.31,5.31,0,0,1-.66.43l9.78,9.78c.58-1.18,1-2.44,1.53-3.66a7.2,7.2,0,0,0-.73-5.59,7.53,7.53,0,0,0-3.47-3,6.94,6.94,0,0,0-4.71-.37L26.57,69A7.25,7.25,0,0,0,24,71.58a9.62,9.62,0,0,0-1.4,3A8.46,8.46,0,0,0,23.4,81a7.09,7.09,0,0,0,12.25,0,11.54,11.54,0,0,0,1-2.36,6.87,6.87,0,0,1,.29-1l-.73,1.74a3.1,3.1,0,0,1,.29-.5L23.24,73.32c-.22.66-.46,1.32-.62,2a7.16,7.16,0,0,0,5.94,8.92c4,.54,8.3-2.67,8.09-7,0-.52,0-1-.1-1.57a7.07,7.07,0,0,0-.88-3.33A8.61,8.61,0,0,0,33.35,70l2.15,2.15L35.41,72a5.5,5.5,0,0,0-4.25-2.77,6,6,0,0,0-4.88,1.6Z" transform="translate(0 0.21)"/><path class="cls-5" d="M41.47,103.49l.16-.08-1.1.46.26-.07-1.25.17a.74.74,0,0,1,.21,0l-1.27-.17a6.08,6.08,0,0,0,1.33.18l.66-.09a3.56,3.56,0,0,0,1.77-.57c.37-.24.7-.55,1-.82l-.94.73.07,0-1.08.46.06,0,1.07-.45A3.37,3.37,0,0,0,43.71,102a2.15,2.15,0,0,0,.57-1,3.38,3.38,0,0,0,.39-1.72A9.1,9.1,0,0,0,44.49,98c0-.1-.43-1-.48-1.13l0-.06c-.08-.14-.64-.85-.75-1a3.5,3.5,0,0,0-1.56-1,2.4,2.4,0,0,0-1.2-.32,2.5,2.5,0,0,0-.66-.09,3.51,3.51,0,0,0-.65.09,3.66,3.66,0,0,0-1.78.56l-.14.09a10.76,10.76,0,0,0-1,.77l-.06.06-.07.09a10,10,0,0,0-.75,1,1.28,1.28,0,0,0-.11.2l-.46,1.08a3.42,3.42,0,0,0-.08,1.82,2.23,2.23,0,0,0,.31,1.15,3.41,3.41,0,0,0,.94,1.47l.92.71L38,104a3.48,3.48,0,0,0,1.81.08,3.48,3.48,0,0,0,1.7-.54Z" transform="translate(0 0.21)"/><path class="cls-5" d="M42.36,124.24a10.56,10.56,0,0,0,10.84,0,5.86,5.86,0,1,0-5.91-10.11q-.26.16-.51.3c-.39.2-.23.13.49-.2-.19-.06-1,.31-1.13.36l-.37.13c-.6.13-.49.14.31,0-.16.16-1,0-1.15,0-5.15-.35-6.78,7.07-2.57,9.49Z" transform="translate(0 0.21)"/><path class="cls-5" d="M44,99.72c1.81-2,2.93-4.45,4.78-6.41a9,9,0,0,1,2.86-2.17A1.91,1.91,0,0,1,53,90.7c1.5-.26,1-1.38-1.36-3.34l1.67-2.87,3.06-.37c-3.18-.51-6.35.55-7.63,3.74-1.14,2.84-.27,6.59,2.64,8.08a9,9,0,0,0,12.94-5.49c1.54-5.39-2.28-10.79-7.59-12s-9.65,2.1-13,5.88C40.59,87.87,37.31,92,37.24,96.9c-.06,3.35,4.46,5.39,6.8,2.82Z" transform="translate(0 0.21)"/><path class="cls-6" d="M17.6,59.69c-4.34,1.21-6.86,6.45-8.87,10.21a56.2,56.2,0,0,0-5.22,14C1.07,94.7,1.16,104.11,7.9,113.37c1.5,2.06,4.08,3.63,6.73,2.74a6.36,6.36,0,0,0,3.55-2.74,5.82,5.82,0,0,0,0-6C13.38,100,11.28,92.73,13,84a51.07,51.07,0,0,1,3.6-11.38C18.12,69.17,21,66.16,21,62.31a2.74,2.74,0,0,0-3.44-2.62Z" transform="translate(0 0.21)"/><path class="cls-6" d="M4.89,7c3,1.11,6.39.85,9.51,1.7a37.16,37.16,0,0,1,9.3,4.1,34.52,34.52,0,0,1,7.86,6.39c2.12,2.31,3.12,4.69,6.18,5.81a3.17,3.17,0,0,0,3.86-2.19c2.06-7.25-8.12-15.6-13.66-18.68C21.82.7,10.59-2.36,4.21,1.82A2.85,2.85,0,0,0,4.89,7Z" transform="translate(0 0.21)"/><path class="cls-6" d="M29.36,141.59c-.83,4,1.45,7.19,3.89,10.09a22.74,22.74,0,0,0,7.75,6c2.5,1.14,5.48.71,7-1.83a5.17,5.17,0,0,0-1.82-7,28.28,28.28,0,0,1-5.45-4.22c-1.77-1.85-3-4.41-5.41-5.54-2.19-1-5.35-.33-5.92,2.41Z" transform="translate(0 0.21)"/><path class="cls-6" d="M33.37,92.76c1.6-2.07,3.6-3.84,4.69-6.3a3.27,3.27,0,0,0-5.65-3.3c-1.62,2.13-2.21,4.74-3.25,7.14a2.44,2.44,0,0,0,4.21,2.46Z" transform="translate(0 0.21)"/></g></g><path class="cls-7" d="M66.13,96.86c1.06-8-1.55-15.62-12.61-18.19-6-1.4-13,.63-17.05,1.47-3.66-8.38-5.95-14.74-5.29-15.57,2.24-2.8,14.82-17.26,13-29.64-.83-5.85-8.23-21.46-17.12-27C21.45,4.42,9.51-.46,4.2,4.84s3.54,35.4,3.54,35.4L16,61.11C12.36,64.55,4.21,78.72,3.53,85.8,2.65,95,5.08,109.69,19.68,114.56a45.57,45.57,0,0,0,21.24,1.57l.09.2s8.44,24.33,6.67,27.87-11.88-7.52-11.88-7.52c-1.73-2.34-3.82,1.23-6.17,4-5.46,6.4,1.86,14.49,15.49,16.81,12.16,2.08,16.15-5.53,15.26-15-.38-4-6.89-24.86-8.86-29.88C56.72,109.69,65.25,103.51,66.13,96.86Zm-50-76.53c8.41,0,14.6,7.08,15.36,14.6s-6.07,14.6-6.07,14.6S14.81,20.33,16.14,20.33ZM32.81,98.77,35,103.51a31.77,31.77,0,0,1-3.53-.45s-13.15-1.61-12.26-13.41A34.76,34.76,0,0,1,22.63,77l5,10.67M54,95.74c-.79,3.13-5.15,4.89-7.52,6.09C44.86,98.5,43,94.59,41.17,90.58,46.4,89.15,55.74,88.64,54,95.74Z" transform="translate(0 0.21)"/><path class="cls-7" d="M36.47,80.14S20.9,88.7,28.86,95.77s12.31-5.19,12.31-5.19" transform="translate(0 0.21)"/><line class="cls-7" x1="16.03" y1="61.31" x2="25.43" y2="49.73"/><line class="cls-7" x1="22.63" y1="77.16" x2="31.18" y2="64.78"/><path class="cls-7" d="M35,103.51s7.68.26,11.42-1.68" transform="translate(0 0.21)"/><path class="cls-7" d="M40.92,116.13s7.43-1.57,10.6-3.58" transform="translate(0 0.21)"/></g></g></svg>