<?xml version="1.0" encoding="UTF-8"?>
<svg xmlns="http://www.w3.org/2000/svg" xmlns:xlink="http://www.w3.org/1999/xlink" viewBox="0 0 139.49 150.24" style="fill: rgb(0, 0, 0);" original_string_length="6682" width="44.2538161287701px" height="47.818465365075745px"><defs><clipPath id="__id11_sirgy15ajn" transform="translate(0 4.09)"><path d="M111.23,76.65l3-32.39S63.39,17,53.1,7.89s-7.87-4.55-7.87-4.55L41.17,84.4,40.73,84s-24-10.8-33.65,0,8.48,24.44,8.48,24.44,14.53,10.79,28.46,0c3.45-2.68,5-5.53,5.34-8.3h0l-.7,2.58a41,41,0,0,0,.68-5.34c0-11.77.13-57.12,4.35-53.16,3.54,3.32,32.58,19.06,48,27.31L96.46,114c-5.69-2.23-23.79-8.32-31.9.72-4.31,4.8-3.11,10.16-.45,14.63a26.9,26.9,0,0,0,23.68,13.08,34.74,34.74,0,0,0,13.71-3.27c3.47-1.6,6.21-10.74,4-15.35l5.33-47.37Z" style="fill: none;"/></clipPath></defs><g data-name="Calque 2"><g data-name="Warstwa 9"><path d="M109.5,77l3-32.4S61.66,17.28,51.36,8.18s-7.87-4.54-7.87-4.54L39.44,84.7c-.28-.24-.44-.36-.44-.36s-24-10.8-33.66,0,8.48,24.43,8.48,24.43,14.53,10.8,28.46,0c3.45-2.67,5-5.52,5.35-8.3h0l-.69,2.58a41.27,41.27,0,0,0,.68-5.34c0-11.77.13-57.13,4.35-53.17,3.54,3.33,32.57,19.06,48,27.32l-5.23,42.44c-5.69-2.22-23.8-8.31-31.9.73-4.31,4.8-3.11,10.16-.46,14.63a26.89,26.89,0,0,0,23.69,13.07,34.31,34.31,0,0,0,13.7-3.27c3.47-1.6,6.22-10.73,4-15.35l5.33-47.36Z" stroke="#ac4097" stroke-miterlimit="10" stroke-width="5" transform="translate(0 4.09)" style="fill: rgb(242, 255, 0);"/><g opacity=".33"><g clip-path="url(#__id11_sirgy15ajn)"><path d="M59.76,130.94c3.72,5.37,7.53,10.42,13.89,12.77a30,30,0,0,0,20,.24c11-3.82,27.48-19,17.83-31.28-1.88-2.4-5.42-2.1-7.83-1-3.86,1.73-5.55,6.11-7.94,9.34A19.75,19.75,0,0,1,88,127.53c-6.36,2.84-17,1.92-22.49-2.29-3.31-2.55-8,2.4-5.7,5.7Z" transform="translate(0 4.09)" style="fill: rgb(144, 26, 61);"/><path d="M2.55,99.43C8,109.27,16.56,116,28.3,116.06c10.78.08,24-6.2,27.28-17.21C57.13,93.61,50.7,88,45.89,91.4c-5.83,4.06-10.1,9.17-17.59,10.08C21.58,102.3,13,99.9,8.15,95.11c-2.89-2.88-7.56.78-5.6,4.32Z" transform="translate(0 4.09)" style="fill: rgb(144, 26, 61);"/><path d="M40.21,41.3c.76,5.87,4.87,10.54,9.09,14.44,2.93,2.71,10.22,8.32,14.19,4.4,3.56-3.51-1.83-8.61-4.45-10.88-4.14-3.6-8-8.78-12.76-11.44-2.39-1.32-6.48.28-6.07,3.48Z" transform="translate(0 4.09)" style="fill: rgb(144, 26, 61);"/><path d="M90.72,75.85c4.32,2.59,8.22,5.69,12.75,7.93s9.2,5,13.89,2.08a5.57,5.57,0,0,0,2.47-6.09c-1.27-5.34-6.58-6.66-11.22-8.18-4.82-1.57-9.8-2.1-14.71-3.28-4.5-1.08-7.26,5.09-3.18,7.54Z" transform="translate(0 4.09)" style="fill: rgb(144, 26, 61);"/><path d="M37.7,42c2.71,6,9.6,10.79,14.68,14.79A176.49,176.49,0,0,0,70.49,69.11C83.09,76.74,96.11,84,109.8,89.5c5.35,2.15,11.9-1.92,13.87-6.81,2.09-5.2.45-11.9-4.81-14.68-12.44-6.57-25.44-12.16-38-18.48-6.27-3.15-12.49-6.32-18.94-9.08C55.86,37.86,49,34,42.27,34c-4.33,0-6.18,4.4-4.57,8Z" transform="translate(0 4.09)" style="fill: rgb(144, 26, 61);"/><path d="M103.23,77.83c-6.76,2.27-8,10.63-8.71,16.86a40.91,40.91,0,0,0,3.4,21.39c4.07,8.73,17.41,2.45,15.16-6.39-1.29-5.07-2.8-9.72-3-15-.21-4.61,1.43-10.74-1.47-14.69-1.2-1.63-3.24-2.88-5.35-2.17Z" transform="translate(0 4.09)" style="fill: rgb(144, 26, 61);"/><path d="M53.59,90C55.06,83.92,55,77.61,55,71.42s1.31-13.19-.23-19.17c-1.68-6.53-12.61-9-15.59-2-2.8,6.54-2.48,14.16-2.07,21.21s1.43,13.92,4.78,20.09c2.59,4.78,10.4,3.76,11.69-1.53Z" transform="translate(0 4.09)" style="fill: rgb(144, 26, 61);"/><path d="M44.7,31.3c.76-3.66,2.33-7.09,3.44-10.66.56-1.79,1.12-3.59,1.64-5.4.43-1.48.56-4,1.47-5.2L38.34,8.38C44.13,16.43,53.16,22.16,61,28c7.19,5.36,14.37,10.77,22.4,14.83C92,47.19,101.11,50.6,110.08,54c7.4,2.76,21.59,10.41,27.62,1.85,7.16-10.17-9-15.9-15.81-18.69-8.57-3.53-17.44-6.48-25.85-10.38C87.88,23,80.58,17.88,73.35,12.59,65.35,6.74,57.12-.49,47.62-3.69,41.41-5.78,36.16.66,37.51,6.42c.83,3.52-.39,8.18-.29,11.81.11,4.17,1.2,8.14,1.59,12.28.29,3.12,5.15,4.35,5.89.79Z" transform="translate(0 4.09)" style="fill: rgb(230, 255, 242);"/><path d="M9.22,89.79l0,0a4.6,4.6,0,0,0,5.23-.67c.17-.14.23-.14.66-.28s.67-.17,1-.23c-.46.07-.49.1-.11.08a6.6,6.6,0,0,1,.77,0q-1-.15,0,.06-1-.45-.09.06c.28.21.55.42.84.62L16.24,79.06c-.55.7.21-.08.48-.23l.91-.38c-.57.17-.52.2.12.09,1.62.32-1-.46.62,0a4.23,4.23,0,0,1,3.13,2.14l-4.28,10.5c1.32-.43-.69-.06.17-.11.42,0,.4,0-.06,0a2.54,2.54,0,0,1-2-1l3.29-12.46c-.34.14-.69.26-1,.41-1.19.52.79.18.09,0a10.21,10.21,0,0,0-3.79.46c-5.44,1.07-6.44,8.14-3.1,11.75s9.68,4,13.57,1c2.45-1.89,4-4.15,3.56-7.42s-2.51-5-5.34-6.2a12.34,12.34,0,0,0-9.12-.16c-2.39,1-4.27,2.36-5,5a7.37,7.37,0,0,0,1.84,7,10.28,10.28,0,0,0,9.88,3,9.59,9.59,0,0,0,7.17-6.8c1-3.15-1.15-7.6-4.63-8.15a15.86,15.86,0,0,0-2.74-.31c-.67,0-3.18.39-1.54.17a15.3,15.3,0,0,0-5.08,1.39,12.72,12.72,0,0,0-5.59,5.3,4.43,4.43,0,0,0,.67,5.23,3.73,3.73,0,0,0,.82.65Z" transform="translate(0 4.09)" style="fill: rgb(230, 255, 242);"/><path d="M71.86,119a14.63,14.63,0,0,0,1.76.26l-3.85-2.21.18.31a6,6,0,0,0,5.23,3l.45-.05-5.93-7.78a2.09,2.09,0,0,1-.13.35l.65-1.52a4.6,4.6,0,0,1-.37.6l1.07-1.39c-.15.18-.34.33-.49.51l3.24-1.89-.17,0,2-.26a3.09,3.09,0,0,1-.68,0l2,.27a3.66,3.66,0,0,1-.65-.17l1.84.77a5.4,5.4,0,0,1-1-.6l1.6,1.24-.14-.12L74.9,123.6a5,5,0,0,1,1.14-.34l-2.13.28a2.09,2.09,0,0,1,.56,0l-2.14-.29a1.3,1.3,0,0,1,.35.11l-1.93-.81.17.1-1.64-1.27a.81.81,0,0,1,.16.16l-1.27-1.64,0,.09-.82-1.94a.57.57,0,0,1,.07.22l-.29-2.17c.09.87.18,1.75.32,2.61l-.29-2.15a.74.74,0,0,1,0,.21l.29-2.14a9.83,9.83,0,0,0-.32,2.4,6,6,0,0,0,.68,3,5.82,5.82,0,0,0,1.64,2.54A7.86,7.86,0,0,0,75.09,125a8.72,8.72,0,0,0,1.13-.14,4,4,0,0,0,2-.55,7.07,7.07,0,0,0,2.65-1.72,9,9,0,0,0,1.49-2,8.85,8.85,0,0,0-1.4-10.4,9.26,9.26,0,0,0-6.59-2.73,10.85,10.85,0,0,0-5.59,1.68,7.92,7.92,0,0,0,0,13.68,3.5,3.5,0,0,0,.47.25,14,14,0,0,0,2,.85l1.22.17a8.17,8.17,0,0,0,1.21.15l.43,0a10.18,10.18,0,0,0,5.17-1.58A7.37,7.37,0,0,0,82,120a7.22,7.22,0,0,0,1-3.71c-.08-.71-.18-1.42-.28-2.13L82,112.41a3.63,3.63,0,0,0-.28-.51,8.47,8.47,0,0,0-1.7-2.07l-1.24-1a4.62,4.62,0,0,0-2.29-.73,6.31,6.31,0,0,0-3.92.73l-.4.22a5.92,5.92,0,0,0-3,5.23l0,.49,1.31-3.16a6.09,6.09,0,0,0-.44.44,4.3,4.3,0,0,0-1.06,4A4.17,4.17,0,0,0,71.86,119Z" transform="translate(0 4.09)" style="fill: rgb(230, 255, 242);"/></g></g><path d="M109.5,77.84l3-32.39S61.66,18.17,51.36,9.08s-7.87-4.55-7.87-4.55L39.44,85.6,39,85.23s-24-10.8-33.66,0,8.48,24.44,8.48,24.44,14.53,10.79,28.46,0c3.45-2.68,5-5.53,5.35-8.3h0L46.94,104a41,41,0,0,0,.68-5.34c0-11.77.13-57.12,4.35-53.16,3.54,3.32,32.57,19.06,48,27.31l-5.23,42.45c-5.69-2.23-23.8-8.32-31.9.72-4.31,4.8-3.11,10.16-.46,14.63a26.9,26.9,0,0,0,23.69,13.08,34.48,34.48,0,0,0,13.7-3.27c3.47-1.6,6.22-10.74,4-15.35l5.33-47.37Z" stroke="#ac4097" stroke-miterlimit="10" stroke-width="5" transform="translate(0 4.09)" style="fill: none;"/></g></g></svg>