<svg xmlns="http://www.w3.org/2000/svg" xmlns:xlink="http://www.w3.org/1999/xlink" viewBox="0 0 65.81 114.63"><defs><style>.cls-1,.cls-7{fill:none;}.cls-2{fill:#e028d3;}.cls-2,.cls-7{stroke:#892780;stroke-miterlimit:10;stroke-width:5px;}.cls-3{opacity:0.46;}.cls-4{clip-path:url(#clip-path);}.cls-5{fill:#901a3d;}.cls-6{fill:#e6fff2;}</style><clipPath id="clip-path"><path class="cls-1" d="M11.68,4.34,8.76,7.48c-.18.24-1.68,2.55-1.57,2.84L33.24,77.27c.25.67,1.16,2.74.46,2.6s-1.41-.28-2.07-.4a29.26,29.26,0,0,0-12.22.22c-20,4.8-16.82,19.6-16.58,20.58l0,.1c.38.87,6.08,13.34,25.62,7.15C44,102.6,45.74,92.94,44.53,87.67L44.2,86c-.18-.75-.39-1.8-.64-2.54l-24-67.09a.9.9,0,0,1,1.26-1.1A63.64,63.64,0,0,1,54,53.9a.88.88,0,0,0,1.3.53c6.87-4.33,7.3-22.74-15.11-39.92C27.06,4.49,18.41,2.45,14.33,2.62l1.15,0C14,2.13,12.61,3.1,11.68,4.34Z"/></clipPath></defs><g id="Calque_2" data-name="Calque 2"><g id="Warstwa_6" data-name="Warstwa 6"><path class="cls-2" d="M11.68,4.34,8.76,7.48c-.18.24-1.68,2.55-1.57,2.84L33.24,77.27c.25.67,1.16,2.74.46,2.6s-1.41-.28-2.07-.4a29.26,29.26,0,0,0-12.22.22c-20,4.8-16.82,19.6-16.58,20.58l0,.1c.38.87,6.08,13.34,25.62,7.15C44,102.6,45.74,92.94,44.53,87.67L44.2,86c-.18-.75-.39-1.8-.64-2.54l-24-67.09a.9.9,0,0,1,1.26-1.1A63.64,63.64,0,0,1,54,53.9a.88.88,0,0,0,1.3.53c6.87-4.33,7.3-22.74-15.11-39.92C27.06,4.49,18.41,2.45,14.33,2.62l1.15,0C14,2.13,12.61,3.1,11.68,4.34Z"/><g class="cls-3"><g class="cls-4"><path class="cls-5" d="M16.92,113.18c4.8.87,8.74,2.18,13.69.95A28.14,28.14,0,0,0,44.47,106c8.4-9.35,10.28-23.29,5.19-34.74-2.82-6.34-13.76-4.71-15,2-1.36,7.26.47,15.12-4,21.61a34.79,34.79,0,0,1-6.41,6.7c-2.61,2.19-5,5.23-8,6.88-1.86,1-1.64,4.39.63,4.8Z"/><path class="cls-5" d="M22.07,20.13c3.09,1.88,5.1,5.1,7.85,7.47,3.18,2.72,6.56,5.22,9.61,8.09,6,5.64,9.56,13.29,13,20.67,1.64,3.57,6.73,4.39,9.88,2.59,3.7-2.1,4.15-6.33,2.59-9.87-3.85-8.7-8.27-16.93-15.7-23.12a78.88,78.88,0,0,0-11.09-7.65c-4.46-2.56-8.6-3.15-13.54-4.26-3.64-.82-5.86,4.07-2.56,6.08Z"/><path class="cls-6" d="M12.91,94.9a9.05,9.05,0,0,1,1.41-.75H9a5.61,5.61,0,0,0,4.81.45,10.09,10.09,0,0,1,1.73-.39l-1.7.23a10.45,10.45,0,0,1,1.25,0L11.65,81.61c-.56.42-1.11.84-1.65,1.27S9.12,84,8.71,84.56L9.8,83.15a7.67,7.67,0,0,1-.94.95L10.29,83a7.44,7.44,0,0,1-1.43.86l1.69-.72a6.5,6.5,0,0,1-.62.22l8.77,8.77.1-.3-.72,1.71a5.67,5.67,0,0,1,.45-.84L17.4,94.15a7.18,7.18,0,0,1,.65-.7l-1.46,1.13a5.19,5.19,0,0,1,.81-.5l-1.73.74.26-.1L14,95l.28,0-1.93-.26.2.06-3.2-1.86.14.12L8.36,91.54l.09.17L7.72,90l0,.2-.25-1.93a1.76,1.76,0,0,1,0,.46l.26-1.92a2,2,0,0,1-.15.47l.73-1.73a5.5,5.5,0,0,1-.54.79l1.13-1.45a9.82,9.82,0,0,1-1,1l1.45-1.12a8,8,0,0,1-.9.62l10.73,6.16c0-.22,0-.44.07-.66L19,92.78a5.6,5.6,0,0,1,.33-1.28l-.71,1.69a2.18,2.18,0,0,1,.33-.54l-1.1,1.43.22-.23L16.65,95a1.29,1.29,0,0,1,.39-.23l-1.68.71.22-.06-1.87.25a1.75,1.75,0,0,1,.46,0l-1.87-.25a1.65,1.65,0,0,1,.44.1l-1.67-.71a1.36,1.36,0,0,1,.37.21L10,93.85l.14.15L9.07,92.58l.11.17-.71-1.67.07.19-.25-1.86,0,.22.24-1.86,0,.25.7-1.66-.1.22,1.09-1.41a1.14,1.14,0,0,1-.34.35l1.41-1.08a2.73,2.73,0,0,1-.48.25l1.66-.7a5.73,5.73,0,0,1-.84.21L13.46,84l-.28,0,6.69,8.77.1-.3-.7,1.66a4.27,4.27,0,0,1,.48-.83l-1.08,1.4a4.85,4.85,0,0,1,.69-.67L18,95.09a4.37,4.37,0,0,1,.55-.32l-1.65.7a5.12,5.12,0,0,1,.92-.28L10,92l.11.25-.7-1.65,0,.27L9.2,89.06v.27l.25-1.83-.06.27.69-1.65a1.52,1.52,0,0,1-.27.48l1.08-1.4A22,22,0,0,0,9.49,87c-1.39,1.88-1.12,4.9,0,6.81a6.63,6.63,0,0,0,5.82,3.34,7.73,7.73,0,0,0,6.61-3.93,7.84,7.84,0,0,0,.68-6.51,7.43,7.43,0,0,0-3.17-4.13,7.83,7.83,0,0,0-5.32-.69c-3.75.65-6.41,3.77-7.61,7.19-1.4,4,2.35,9.21,6.68,8.77,3.28-.32,6.08-1.3,8-4.22C23.51,90,22,85,18.43,82.79a8.67,8.67,0,0,0-8.8-.08,9.64,9.64,0,0,0-4.44,6.94,9.13,9.13,0,0,0,0,3.79,7.1,7.1,0,0,0,2.55,3.71,7.22,7.22,0,0,0,7.92.55c4.93-2.72,8.63-9.07,4.65-14.21A7.89,7.89,0,0,0,9.67,81.81a11.08,11.08,0,0,0-4.73,6.52,7.27,7.27,0,0,0,1.84,6.94c1.64,1.65,4.65,2.75,6.94,1.84a15.5,15.5,0,0,0,5-2.94,9.19,9.19,0,0,0,3-4.81,7.67,7.67,0,0,0-.34-4.47,6.58,6.58,0,0,0-2.81-3.28,8.24,8.24,0,0,0-3.46-.94,7.26,7.26,0,0,0-4.85,2C7.5,85,5.2,88.78,7.13,92.26V87a22.11,22.11,0,0,0-1,2.7c-1,3.78,3.35,7.46,6.82,5.24Z"/><path class="cls-6" d="M11.43,14.78a38.31,38.31,0,0,0,3.67-2.69,15.06,15.06,0,0,0,4.19-4.52c1.62-3-1.12-7.55-4.78-6.22C10.07,3,7.16,7.56,6.92,12.19a3,3,0,0,0,4.51,2.59Z"/></g></g><path class="cls-7" d="M11.68,6.05,8.76,9.19c-.18.24-1.68,2.55-1.57,2.84L33.24,79c.25.66,1.16,2.74.46,2.6s-1.41-.28-2.07-.4a29.26,29.26,0,0,0-12.22.22C-.62,86.2,2.59,101,2.83,102l0,.1c.38.87,6.08,13.34,25.62,7.15C44,104.31,45.74,94.65,44.53,89.38l-.33-1.65c-.18-.75-.39-1.8-.64-2.54L19.6,18.1A.9.9,0,0,1,20.86,17,63.64,63.64,0,0,1,54,55.61a.88.88,0,0,0,1.3.53c6.87-4.33,7.3-22.74-15.11-39.92C27.06,6.2,18.41,4.16,14.33,4.33l1.15,0C14,3.84,12.61,4.81,11.68,6.05Z"/></g></g></svg>