<?xml version="1.0" encoding="UTF-8" standalone="no"?>
<svg
   id="Calque_2"
   data-name="Calque 2"
   viewBox="0 0 42.490004 24.600002"
   version="1.1"
   sodipodi:docname="calculator-numbers.svg"
   width="42.490002"
   height="24.6"
   inkscape:version="1.4.2 (f4327f4, 2025-05-13)"
   xmlns:inkscape="http://www.inkscape.org/namespaces/inkscape"
   xmlns:sodipodi="http://sodipodi.sourceforge.net/DTD/sodipodi-0.dtd"
   xmlns="http://www.w3.org/2000/svg"
   xmlns:svg="http://www.w3.org/2000/svg">
  <sodipodi:namedview
     id="namedview29"
     pagecolor="#ffffff"
     bordercolor="#999999"
     borderopacity="1"
     inkscape:showpageshadow="2"
     inkscape:pageopacity="0"
     inkscape:pagecheckerboard="0"
     inkscape:deskcolor="#d1d1d1"
     inkscape:zoom="7.4613901"
     inkscape:cx="49.186545"
     inkscape:cy="51.799999"
     inkscape:window-width="1920"
     inkscape:window-height="991"
     inkscape:window-x="-9"
     inkscape:window-y="-9"
     inkscape:window-maximized="1"
     inkscape:current-layer="g29" />
  <defs
     id="defs1">
    <style
       id="style1">
      .cls-1, .cls-2 {
        fill: none;
      }

      .cls-1, .cls-3, .cls-4, .cls-5 {
        stroke-width: 0px;
      }

      .cls-6 {
        fill: #d737b8;
      }

      .cls-6, .cls-7, .cls-2, .cls-8 {
        stroke-width: 2.51px;
      }

      .cls-6, .cls-7, .cls-8 {
        stroke: #231f20;
      }

      .cls-6, .cls-2, .cls-8 {
        stroke-linecap: round;
        stroke-linejoin: round;
      }

      .cls-7 {
        fill: #5270d5;
        stroke-miterlimit: 10;
      }

      .cls-2 {
        stroke: #641233;
      }

      .cls-8 {
        fill: #ff8799;
      }

      .cls-9 {
        clip-path: url(#clippath);
      }

      .cls-3 {
        fill: #eafdf1;
      }

      .cls-10 {
        opacity: .42;
      }

      .cls-4 {
        fill: #82263e;
      }

      .cls-5 {
        fill: #1d3e83;
      }
    </style>
    <clipPath
       id="clippath">
      <path
         class="cls-1"
         d="M 26.83,94.52 C 20.77,79.93 9.8,54.8 3.46,40.36 0.7,34.08 3.36,26.73 9.5,23.67 25.56,15.66 54.85,2.1 65.79,3.86 77.47,5.74 89.32,50.12 94.38,71.51 95.9,77.93 92.33,84.45 86.1,86.63 l -43.13,15.1 c -6.44,2.26 -13.53,-0.9 -16.15,-7.21 z"
         id="path1" />
    </clipPath>
  </defs>
  <g
     id="Layer_1"
     data-name="Layer 1">
    <g
       id="g29">
      <path
         class="cls-5"
         d="m 1.220065,22.357322 c 1.78,-2.43 3.01,-4.96 3.97,-7.81 h -2.05 c 0.41,1.72 0.81,3.45 1.2,5.17 0.33,1.45 0.4,3.01 1.49,4.09 0.49,0.49 1.34,0.26 1.53,-0.4 0.42,-1.48 -0.28,-2.9 -0.7,-4.33 -0.5,-1.7 -0.99,-3.39 -1.47,-5.1 -0.29,-1.02 -1.76,-1 -2.05,0 -0.78,2.65 -1.79,5.27 -2.92999998,7.78 -0.31,0.69 0.57,1.21 1.00999998,0.59 v 0 z"
         id="path6" />
      <path
         class="cls-5"
         d="m 9.050065,17.387322 c 1.91,-0.01 4.02,-0.2 5.58,-1.38 0.28,-0.21 0.12,-0.61 -0.24,-0.56 -1.82,0.28 -3.49,0.91 -5.35,1 -0.6,0.03 -0.61,0.94 0,0.94 v 0 z"
         id="path7" />
      <path
         class="cls-5"
         d="m 10.440065,13.397322 c 0.04,2.15 0.33,6.13 2.72,7.01 0.26,0.09 0.45,-0.14 0.48,-0.36 0.14,-1.08 -0.44,-2 -0.81,-2.99 -0.45,-1.19 -0.8,-2.39 -0.97,-3.65 -0.11,-0.87 -1.42,-0.94 -1.41,0 v 0 z"
         id="path8" />
      <path
         class="cls-5"
         d="m 28.230065,9.3273223 c 0.75,-0.26 1.5,-0.5 2.25,-0.75 0.69,-0.23 1.33,-0.43 1.83,-0.97 0.29,-0.32 0.08,-0.82 -0.35,-0.84 -0.74,-0.03 -1.34,0.28 -1.99,0.6 -0.71,0.35 -1.41,0.71 -2.12,1.06 -0.5,0.24 -0.15,1.08 0.38,0.9 z"
         id="path9" />
      <path
         class="cls-5"
         d="m 28.830065,11.247322 c 0.84,0 1.64,-0.14 2.46,-0.29 0.82,-0.15 1.59,-0.33 2.02,-1.0599997 0.26,-0.43 -0.07,-1.04 -0.59,-1.02 -0.68,0.02 -1.14,0.4 -1.71,0.72 -0.68,0.37 -1.42,0.5099997 -2.18,0.5699997 -0.68,0.05 -0.7,1.08 0,1.08 z"
         id="path10" />
      <path
         class="cls-5"
         d="m 34.610065,3.2973223 c 0.12,-1.06 1.91,-2.03 2.52,-0.89 0.27,0.51 0.17,1.07 -0.15,1.52 -0.5,0.71 0.46,1.54 1.14,1.14 1.37,-0.8 1.75,1.17 1.08,2.01 -0.47,0.58 -1.55,1.25 -2.21,1.6 -0.57,0.3 -0.47,1.28 0.19,1.4199997 1.4,0.29 2.51,0.19 3.61,-0.8199997 0.92,-0.85 1.49,-2.05 1.29,-3.32 -0.32,-2.05 -3.01,-3.54 -4.79,-2.32 l 1.14,1.14 c 0.85,-1.41 0.42,-3.48 -1.19,-4.14999995 -1.84,-0.77 -3.64,0.80999995 -3.52,2.67999995 0.04,0.58 0.83,0.56 0.89,0 v 0 z"
         id="path11" />
      <path
         class="cls-5"
         d="m 17.880065,10.997322 c -0.16,-0.9999997 0.52,-2.7199997 1.68,-2.9399997 2.34,-0.44 1.11,1.89 0.81,2.7199997 -0.67,1.91 -1.53,3.75 -2.48,5.53 -0.4,0.76 0.08,1.88 1.05,1.82 2.48,-0.16 5.22,-1.14 6.6,-3.33 0.78,-1.23 -0.88,-2.22 -1.87,-1.44 -1.53,1.2 -2.69,2.2 -4.74,2.35 l 1.05,1.82 c 1.19,-2.3 2.15,-4.68 2.77,-7.2 0.41,-1.6499997 0.34,-3.2899997 -1.47,-3.9899997 -3,-1.16 -5.75,2.32 -4.26,5.0099997 0.28,0.5 0.94,0.13 0.86,-0.36 v 0 z"
         id="path12" />
      <g
         class="cls-10"
         id="g21"
         transform="translate(-22.649935,-15.412678)" />
    </g>
  </g>
</svg>
