<svg xmlns="http://www.w3.org/2000/svg" xmlns:xlink="http://www.w3.org/1999/xlink" viewBox="0 0 91.66 165.63"><defs><style>.cls-1,.cls-11{fill:none;}.cls-2{fill:#98e6f3;stroke:#221f20;}.cls-11,.cls-2{stroke-linecap:round;stroke-linejoin:round;stroke-width:5px;}.cls-3{opacity:0.67;}.cls-4{clip-path:url(#clip-path);}.cls-5{opacity:0.48;}.cls-6{fill:#31509d;}.cls-7{fill:#ebfef3;}.cls-8{clip-path:url(#clip-path-2);}.cls-9{clip-path:url(#clip-path-3);}.cls-10{clip-path:url(#clip-path-4);}.cls-11{stroke:#292e73;}</style><clipPath id="clip-path" transform="translate(2.28 4.32)"><path class="cls-1" d="M72.61,149.4S20,153.66,6,85.14C-1.22,49.49,5.15,35.84,12.94,31A13.7,13.7,0,0,1,33,38.34c2.85,8.36,5.81,23.73,4.7,50.62,0,0,1.47-27,14-20.85s-1.9,28.83-.78,43.36C52.09,126.43,54.42,139.72,72.61,149.4Z"/></clipPath><clipPath id="clip-path-2" transform="translate(2.28 4.32)"><path class="cls-1" d="M50.16,51.27S40.09,2.69,63.32,3.08C80.74,3.37,72,17.5,66.59,24.55a93.12,93.12,0,0,0-7,10.39Z"/></clipPath><clipPath id="clip-path-3" transform="translate(2.28 4.32)"><path class="cls-1" d="M77.7,61.85a7.65,7.65,0,0,1-13.1-3.54c-1.1-5-.4-11,9-11.88C84.32,45.43,83,55.92,77.7,61.85Z"/></clipPath><clipPath id="clip-path-4" transform="translate(2.28 4.32)"><path class="cls-1" d="M78,123.9s-23.36-21.27-6.58-37.85c9.49-9.39,14.56-4,15.28,0a10.66,10.66,0,0,1-3.18,9.41C79.18,99.71,72.17,109.42,78,123.9Z"/></clipPath></defs><g id="Calque_2" data-name="Calque 2"><g id="Layer_33" data-name="Layer 33"><path class="cls-2" d="M72.26,148.82S19.61,153.08,5.68,84.57c-7.25-35.66-.88-49.3,6.91-54.18a13.69,13.69,0,0,1,20.09,7.37c2.86,8.37,5.81,23.74,4.7,50.62,0,0,1.47-27,14-20.85s-1.9,28.83-.78,43.36C51.74,125.86,54.07,139.15,72.26,148.82Z" transform="translate(2.28 4.32)"/><path class="cls-2" d="M49.81,50.7S39.74,2.12,63,2.5c17.42.29,8.71,14.42,3.27,21.47a93.12,93.12,0,0,0-7,10.39Z" transform="translate(2.28 4.32)"/><path class="cls-2" d="M77.35,61.28a7.65,7.65,0,0,1-13.1-3.55c-1.1-4.95-.4-11,9-11.87C84,44.85,82.6,55.34,77.35,61.28Z" transform="translate(2.28 4.32)"/><path class="cls-2" d="M77.68,123.32S54.32,102.06,71.1,85.47c9.49-9.38,14.56-4,15.28,0a10.66,10.66,0,0,1-3.18,9.41C78.83,99.13,71.82,108.85,77.68,123.32Z" transform="translate(2.28 4.32)"/><g class="cls-3"><g class="cls-4"><g class="cls-5"><path class="cls-6" d="M-2.28,44.38c0,12.8.12,25.78,3.31,38.27a165.92,165.92,0,0,0,14,36.34c5.76,10.91,13,22.12,22.56,30.1A54,54,0,0,0,54.7,159c6.68,2.31,15.48,3.82,21.75-.11A8.82,8.82,0,0,0,74.37,143c-5.11-1.53-10.37-.43-15.54-2.1a35.09,35.09,0,0,1-12.5-7.58c-8.09-7.33-14.2-16.69-19.67-26.06A155.33,155.33,0,0,1,13.39,77.46C9.81,66.62,6.11,55.76,4.85,44.38c-.49-4.45-7.12-4.7-7.13,0Z" transform="translate(2.28 4.32)"/></g><path class="cls-7" d="M26.51,32.44h0L23.58,31.2A9.24,9.24,0,0,0,18.72,31a6,6,0,0,0-3.07.84A6.09,6.09,0,0,0,13,33.38,9.15,9.15,0,0,0,9.82,36.8L8.59,39.71,8.15,43a9.25,9.25,0,0,0,1,4.7,6.16,6.16,0,0,0,1.57,2.69A6.1,6.1,0,0,0,13,52.52a9.17,9.17,0,0,0,4.14,2.19l3.24.43,3.24-.43,2.91-1.23a9.23,9.23,0,0,0,3.42-3.14,9.09,9.09,0,0,0,2.18-4.15v0l.43-3.23a9.13,9.13,0,0,0-1-4.69,6,6,0,0,0-1.57-2.68,9.17,9.17,0,0,0-3.41-3.13Z" transform="translate(2.28 4.32)"/><path class="cls-7" d="M23.37,39.55C28.56,54.48,31.84,71,31.53,86.81c0,2.19,3.22,2.14,3.38,0,.58-7.91,1-16.35.11-24.25-.91-8.3-3.62-16.64-6.59-24.4-1.18-3.11-6.18-1.84-5.06,1.39Z" transform="translate(2.28 4.32)"/><path class="cls-7" d="M49.63,70.72l-1.25.84a5.19,5.19,0,0,0-2.5,4.35,5,5,0,1,0,10.09,0l-.06-1.58a4.24,4.24,0,0,0-2.07-3.61,4.13,4.13,0,0,0-4.21,0Z" transform="translate(2.28 4.32)"/><path class="cls-7" d="M20.1,72.75c4.1,0,4.11-6.37,0-6.37s-4.11,6.37,0,6.37Z" transform="translate(2.28 4.32)"/></g></g><g class="cls-3"><g class="cls-8"><path class="cls-7" d="M55.74,29.36a35.48,35.48,0,0,1,6.35-14.25c3-4.29,7.21-7.25,10.22-11.47,2.81-3.95-1.83-8.89-6-7.81C60.1-2.56,54.93,3.75,52.13,9.29c-2.93,5.8-3.78,12.74-3.2,19.14.32,3.6,6,5.06,6.81.93Z" transform="translate(2.28 4.32)"/></g></g><g class="cls-3"><g class="cls-9"><path class="cls-7" d="M72.33,54.06a6.41,6.41,0,0,0,1.42-1A3,3,0,0,0,74.61,51a3.24,3.24,0,0,0-.86-2.1,6.41,6.41,0,0,0-1.42-1,3.56,3.56,0,1,0,0,6.15Z" transform="translate(2.28 4.32)"/></g></g><g class="cls-3"><g class="cls-10"><path class="cls-7" d="M72.91,98.1a25,25,0,0,1,3.36-6.28c1.39-1.88,3.49-3.3,4.51-5.42a3.42,3.42,0,0,0-4.64-4.64c-2.59,1.2-4.27,4.31-5.51,6.76a31.62,31.62,0,0,0-2.78,8.18,2.63,2.63,0,0,0,5.06,1.4Z" transform="translate(2.28 4.32)"/></g></g><path class="cls-11" d="M72.61,149.4S20,153.66,6,85.14C-1.22,49.49,5.15,35.84,12.94,31A13.7,13.7,0,0,1,33,38.34c2.85,8.36,5.81,23.73,4.7,50.62,0,0,1.47-27,14-20.85s-1.9,28.83-.78,43.36C52.09,126.43,54.42,139.72,72.61,149.4Z" transform="translate(2.28 4.32)"/><path class="cls-11" d="M50.16,51.27S40.09,2.69,63.32,3.08C80.74,3.37,72,17.5,66.59,24.55a93.12,93.12,0,0,0-7,10.39Z" transform="translate(2.28 4.32)"/><path class="cls-11" d="M77.7,61.85a7.65,7.65,0,0,1-13.1-3.54c-1.1-5-.4-11,9-11.88C84.32,45.43,83,55.92,77.7,61.85Z" transform="translate(2.28 4.32)"/><path class="cls-11" d="M78,123.9s-23.36-21.27-6.58-37.85c9.49-9.39,14.56-4,15.28,0a10.66,10.66,0,0,1-3.18,9.41C79.18,99.71,72.17,109.42,78,123.9Z" transform="translate(2.28 4.32)"/></g></g></svg>