<svg xmlns="http://www.w3.org/2000/svg" xmlns:xlink="http://www.w3.org/1999/xlink" viewBox="0 0 409.79 418.05"><defs><style>.cls-1,.cls-31,.cls-43,.cls-5,.cls-7,.cls-85{fill:none;}.cls-2{fill:#9ba037;}.cls-3{fill:#b4d93a;}.cls-4{fill:#c2e942;}.cls-5{stroke:#2b470a;}.cls-31,.cls-43,.cls-5,.cls-7{stroke-miterlimit:10;}.cls-31,.cls-43,.cls-5,.cls-7,.cls-85{stroke-width:3px;}.cls-6{fill:#57ebda;}.cls-7{stroke:#0e3f54;}.cls-8{fill:#55ebd9;}.cls-9{fill:#5df4eb;}.cls-10{fill:#5cf4eb;}.cls-11{fill:#58eada;}.cls-12{fill:#329f62;}.cls-13{fill:#3ad967;}.cls-14{fill:#3feb77;}.cls-15{fill:#40d76d;}.cls-16{fill:#3ad9a4;}.cls-17{fill:#aaeedf;}.cls-18{fill:#3febbd;}.cls-19{fill:#329f9c;}.cls-20{fill:#b8f6ee;}.cls-21{fill:#92afd4;}.cls-22{fill:#32a09c;}.cls-23{fill:#aa6e8b;}.cls-24{fill:#3eddab;}.cls-25{fill:#77f0dc;}.cls-26{fill:#9fd2da;}.cls-27{fill:#92b0d4;}.cls-28{fill:#a7eede;}.cls-29{fill:#81e6c9;}.cls-30{fill:#abf5eb;}.cls-31{stroke:#0c4434;}.cls-32{fill:#0c4434;}.cls-33{fill:#54acd2;}.cls-34{fill:#4e5eb6;}.cls-35{fill:#559deb;}.cls-36{fill:#4345ad;}.cls-37{fill:#5ccdf4;}.cls-38{fill:#4974e0;}.cls-39{fill:#61c7ef;}.cls-40{fill:#4e5eb7;}.cls-41{fill:#5293e7;}.cls-42{fill:#444ab3;}.cls-43{stroke:#12113f;}.cls-44{fill:#498ce0;}.cls-45{fill:#55beeb;}.cls-46{fill:#549eeb;}.cls-47{fill:#5cddf4;}.cls-48{fill:#4975e0;}.cls-49{fill:#4978e0;}.cls-50{fill:#3febe1;}.cls-51{clip-path:url(#clip-path);}.cls-52{fill:#b7f6ee;}.cls-53{opacity:0.28;}.cls-54{fill:#3ad9c6;}.cls-55{fill:#329fbc;}.cls-56{fill:#32a0bc;}.cls-57{fill:#55d7eb;}.cls-58{fill:#def7fe;}.cls-59{fill:#eefafe;}.cls-60{fill:#499ee0;}.cls-61{fill:#beb6f2;}.cls-62{fill:#499fe0;}.cls-63{fill:#5ceaf4;}.cls-64{fill:#bfb7f2;}.cls-65{fill:#cebbf3;}.cls-66{fill:#9ff2f9;}.cls-67{fill:#61a7e4;}.cls-68{fill:#3dd6df;}.cls-69{fill:#6adfe8;}.cls-70{fill:#40ea77;}.cls-71{fill:#afeef3;}.cls-72{fill:#def7fa;}.cls-73{fill:#dcf5fe;}.cls-74{fill:#d9f6fd;}.cls-75{fill:#d5ebfb;}.cls-76{fill:#59daed;}.cls-77{fill:#bde3f8;}.cls-78{fill:#d1f4fc;}.cls-79{fill:#c1f1fa;}.cls-80{fill:#d0f3fc;}.cls-81{fill:#caf2f9;}.cls-82{fill:#a2b8e6;}.cls-83{fill:#53d0dc;}.cls-84{fill:#aeb2ef;}.cls-85{stroke:#08324a;stroke-linecap:round;stroke-linejoin:round;}</style><clipPath id="clip-path"><path class="cls-1" d="M48.81,112.33s-15.82-3-27.93-14.89S6.73,71.74,13.06,68,24.42,73.6,24.42,73.6s-7.82-26.06,9.87-29,18.8,12.66,14.52,25.88S38.76,93.53,48.81,112.33Z"/></clipPath></defs><g id="Calque_2" data-name="Calque 2"><g id="Shapes"><path class="cls-2" d="M119.33,395.91c.6.34,1.21.68,1.12.64-4.33,5.47-7.6,7.73-9.74,14.86-3,4.46-7.11,6.26-10.23,4.6-3.91-2.09-5.37-6.69-3.7-11.63,4.09,3.94,8.59,3.91,11.83-.1C111.73,400.91,114.44,397,119.33,395.91Z"/><path class="cls-3" d="M119.33,395.91c-4.89,1.11-7.6,5-10.72,8.37-.39-5.91-2.89-7.12-9.24-4.47C104.11,393.38,112.2,391.8,119.33,395.91Z"/><path class="cls-4" d="M99.37,399.81c6.35-2.65,8.85-1.44,9.24,4.47-3.24,4-7.74,4-11.83.1Z"/><path class="cls-5" d="M124,397.39s-15.6-8.94-24.63,4.22S103.2,421,110.59,413,105.11,404.59,124,397.39Z"/><path class="cls-6" d="M123.2,193.34l.06-.08-1.61.94.1,0-3.57-6.13,0,0,3.58-.94h-.07l2.2,1.69,0-.06v3.72a.56.56,0,0,1,.1-.15l-.56.73.33-.33L122,188.57h0a2.54,2.54,0,0,0-2.45,1.87,2.65,2.65,0,0,0,1.17,2.87l.13.09-1.21-1.57.08.33,3.32-4.36a3.64,3.64,0,0,1-.66,0l.92.12a4.19,4.19,0,0,0-3.1.37,3.39,3.39,0,0,0-1.19,4.56,3.82,3.82,0,0,0,3.2,1.87,7,7,0,0,0,1.75-.15,3.42,3.42,0,0,0,1.79-5.41,3.45,3.45,0,0,0-5.69.35l-.16.29,1-.94-.13.06,3.08.4,0,0,.71,1.73,0-.49a3.61,3.61,0,0,0-1.79-3.12l-.08-.05a3.72,3.72,0,0,0-5,1.33l0,.09a3.91,3.91,0,0,0-.43,2.35,3.86,3.86,0,0,0,1,2.11,3.66,3.66,0,0,0,2.71,1.13,3.9,3.9,0,0,0,3.21-1.87,3.69,3.69,0,0,0-4.15-5.39,4.17,4.17,0,0,0-2.35,1.81,3.67,3.67,0,0,0,1,4.72,3.48,3.48,0,0,0,2.21.79,3.56,3.56,0,0,0,2.59-1.08Z"/><path class="cls-7" d="M118.28,194.09a4.74,4.74,0,0,1-1.77-4.87c.32-1.54,1.39-3.24,4.95-2.9,6.05.59,8.68,7.89,2.39,8.81A7.32,7.32,0,0,1,118.28,194.09Z"/><path class="cls-8" d="M129.57,170.14c.94.83,1.84,1.72,2.7,2.64a22.52,22.52,0,0,1,.67-7.7,1.76,1.76,0,0,1,.43-.77c.12-.81.26-1.62.43-2.41,0-.11,0-.21.07-.31l-1.84.68L127.21,161a22.91,22.91,0,0,0,.58,8.58A2.18,2.18,0,0,1,129.57,170.14Z"/><path class="cls-9" d="M135.77,158.14c.33-.76-.69-2.82-.27-3.52l-2.49-1.2c-4.72-.27-6.71,3-7,8.22l4.83,1.24c.41-.15,2.58-.57,3.36-.86C134.56,160.17,135,159.88,135.77,158.14Z"/><path class="cls-7" d="M131.24,174.76s-12.46-16-1.47-22.27a4.19,4.19,0,0,1,6.09,2.23c.47,1.49.29,3.54-1.45,6.26C129.75,168.24,131.24,174.76,131.24,174.76Z"/><path class="cls-10" d="M197.15,27a19.46,19.46,0,0,0-.71-6.56c-3.06-1.08-9.14,4.32-9.81,8.22-.42,2.46.22,5.11.38,7.67C190.48,35.68,195.79,29.79,197.15,27Z"/><path class="cls-11" d="M190.19,44A17.64,17.64,0,0,1,192,35.78c.26-.48,4-4.56,4.52-4.65l.27-.52c.17-1.21.29-2.42.35-3.63-1.36,2.81-6.67,8.7-10.14,9.33,1.06,2.69,2.12,5.39,3.19,8.08C190.2,44.27,190.19,44.14,190.19,44Z"/><path class="cls-7" d="M192.94,20.52c5.33-.49,8.19,4.84,2.85,11.05s-6,14.9-6,14.9S180.9,21.27,192.94,20.52Z"/><path class="cls-12" d="M130.4,372.84c1.32,3.81,5.68,5.38,7.11,9.53-5.5-.76-13.3.32-18,.28a135.58,135.58,0,0,0-20,1.23c-6.27.88-12.15.84-17.64-2.6-6.14-3.85-7.52-9.61-3.9-15.94L81,367.58l6,3.8c3.28.19,6.73,1.14,9.8.45A67.6,67.6,0,0,1,130.4,372.84Z"/><path class="cls-13" d="M130.4,372.84a67.6,67.6,0,0,0-33.7-1c-3.07.69-6.52-.26-9.8-.45H91c4.87,0,7.54-2.64,8.78-7.3.93-3.48.14-3.41-1.64-6.22,13.42,0,24.88,1.09,31.83,13.61A7.19,7.19,0,0,1,130.4,372.84Z"/><path class="cls-14" d="M98.12,357.85c1.78,2.81,2.57,2.74,1.64,6.22-1.24,4.66-3.91,7.26-8.78,7.3H86.9l-6-3.8c-.29-1.81-.57-3.61-.85-5.42C86.9,360.22,91.11,358.8,98.12,357.85Z"/><path class="cls-15" d="M80.1,362.16c.28,1.81.56,3.61.85,5.42l-3.07-2.24Z"/><path class="cls-5" d="M136.34,384s-8.49-34.51-43-25.82-14,32.27,5.75,25.82A61.94,61.94,0,0,1,136.34,384Z"/><path class="cls-16" d="M17.93,168.89c9.83-15.91,21.51-22.23,39.68-25.06a28,28,0,0,1,6.86-.23c.24.2,2.73-.95,3-.75l0,0c0,.24,0,.48,0,.72-1.71.74-3.48,1.36-5.12,2.23-9.06,4.82-18.89,24.26-16.07,35,3.52,13.4,9.6,24.55,22.44,30.62,3.68,1.74,8.35,2.12,12.52,1.93,6.59-.3,11-4.72,14.45-10,2.48-3.83,4.63-7.87,6.93-11.82-1.35,6.37-3.13,12.68-3.92,19.12-1.07,8.6-1.69,17.35,4,25,.5,4.55.65,9.17,1.58,13.63,1.81,8.67,6.25,15.66,14.34,19.87a18.06,18.06,0,0,0,3.87,1l.58-1a22.49,22.49,0,0,0-2.34-3c-8-7.37-11.58-16.22-9.4-27.15.15-.73,1-2.53.39-3.41,3-15.18,14-24.13,29.12-22.3l.06.66c-2.3,1.23-4.52,2.64-6.91,3.66-8.53,3.65-14.12,13.54-12.51,22.37,2,11,16.84,24.6,27.88,25.68,1.67.16,3.33.49,5,.75-4.6,10.73-2.69,20.61,3.69,30,1.94,2.87,3.9,5.94,4.8,9.2a9.31,9.31,0,0,1-1.36,7.12c-1.76,2.31-5,2.24-7.53.59a104.48,104.48,0,0,1-11.16-8.07c-11.87-10.21-25.3-15.86-41.14-14.11-8.49.94-16.29,3.68-20.79,11.9-.22,0-.44.06-.67.1L57.61,287.38a2.46,2.46,0,0,0-.06-.66,28.53,28.53,0,0,0-7.36-28.31c-5.56-5.54-9.13-6-15.72-1.82-3-6-6.77-11.71-8.91-18-3.18-9.34-5.08-19.11-7.8-28.62-2.8-9.8-2-19.59-.7-29.45C17.55,176.68,17.65,172.77,17.93,168.89ZM77.82,277.42c-.45-3.16-1.91-5.8-5.34-5.41a5.94,5.94,0,0,0-4.06,3.81,4.71,4.71,0,0,0,3.79,5.59C75.4,282.12,77.12,280.41,77.82,277.42Z"/><path class="cls-17" d="M80.84,303.15c4.5-8.22,12.3-11,20.79-11.9,15.84-1.75,29.27,3.9,41.14,14.11a104.48,104.48,0,0,0,11.16,8.07c2.52,1.65,5.77,1.72,7.53-.59a9.31,9.31,0,0,0,1.36-7.12c-.9-3.26-2.86-6.33-4.8-9.2-6.38-9.43-8.29-19.31-3.69-30,.46-.54.93-1.07,1.4-1.6a16.13,16.13,0,0,0,1.92,2.26c6.63,5.49,10.63,12.58,13.21,20.7,4,12.51,4.85,25.33,4.4,38.33-.25,6.9.13,13.66,3.81,19.8-3.42,8.32-7.63,16.08-15.67,21.72-2.54-9.94-8.34-17.18-15.84-23.22l-.78-.8,0,0-1.48-2.3c-.8-.95-1.68-1.84-2.38-2.86-10.27-14.75-24.73-22.87-41.81-27.38C94.15,309.31,87.59,305.86,80.84,303.15ZM163,348.42l.41.31.15-.23Z"/><path class="cls-18" d="M102.6,191.57c-2.3,4-4.45,8-6.93,11.82-3.42,5.28-7.86,9.7-14.45,10-4.17.19-8.84-.19-12.52-1.93-12.84-6.07-18.92-17.22-22.44-30.62-2.82-10.75,7-30.19,16.07-35,1.64-.87,3.41-1.49,5.12-2.23l1.65-.14V143l-1.64-.14,0,0,0-.53,10.33,2.1c3.16,3.46,6.43,6.77,11.34,7.63,7.38,6.22,13.78,14.28,15.51,23.39C105.62,180.57,102.37,186.3,102.6,191.57Zm-32.09-11.1c1,2.76,1.73,5.69,3.15,8.23,2,3.55,6.53,5.14,9.61,3.92,3.44-1.38,6.08-5.6,4.92-9.47a24.55,24.55,0,0,0-5-8.86,6.5,6.5,0,0,0-8.22-1.5C72,174.37,70.85,177,70.51,180.47Z"/><path class="cls-19" d="M57.61,287.38l22.56,15.87c-1.57,4.85-2.85,9.73-1.6,14.89-6.22-1.73-9.71-4.74-15.93-6.47C45,301.76,27.43,284.28,16.69,271.08,8.83,254.41,3.41,237,2.57,218.43c-.46-10.22-1.47-18.37,2.14-27.92.53-1.46,2.21-7.55,2.74-9,3-5.19,6.28-9.56,10.48-12.61-.28,3.88-.38,7.79-.87,11.64-1.27,9.86-2.1,19.65.7,29.45,2.72,9.51,4.62,19.28,7.8,28.62,2.14,6.28,5.88,12,8.91,18l.05.25c-.78,2-2.24,4-2.24,5.93,0,11.13,6.4,18.58,14.91,24.6A8.54,8.54,0,0,0,57.61,287.38Z"/><path class="cls-20" d="M155.73,264.88c5.87-9.56,17.23-12.18,28.57-6.61l0-.06c.23.24.47.48.7.73,4.27,13.07,5.34,26.55,4.47,40.14-1,15.52-3.67,30.77-9.36,45.35a8.81,8.81,0,0,1-1,1.54c-3.68-6.14-4.06-12.9-3.81-19.8.45-13-.42-25.82-4.4-38.33-2.58-8.12-6.58-15.21-13.21-20.7A16.13,16.13,0,0,1,155.73,264.88Zm17.57,11-.56-.05Z"/><path class="cls-21" d="M78.57,318.14c-1.25-5.16,0-10,1.6-14.89.23,0,.45-.08.67-.1,6.75,2.71,13.31,6.16,20.29,8,17.08,4.51,31.54,12.63,41.81,27.38.7,1,1.58,1.91,2.38,2.86V343c-13.67-7.22-27.63-13.76-42.67-17.65-7.92-2.05-15.91-3.88-23.87-5.8C78.7,319.09,78.63,318.61,78.57,318.14Z"/><path class="cls-22" d="M109.55,236.45c.62.88,1.9,1.89,1.75,2.62-2.18,10.93,1.36,19.78,9.4,27.15a22.49,22.49,0,0,1,2.34,3l-.58,1a18.06,18.06,0,0,1-3.87-1c-8.09-4.21-12.53-11.2-14.34-19.87-.93-4.46-1.08-9.08-1.58-13.63,1.94,1.39,2.72,4.77,6.32,3.57Z"/><path class="cls-18" d="M180.16,243.51a62.5,62.5,0,0,0-27.22-26.64l-12.13-3.51.06.66c-2.3,1.23-4.52,2.64-6.91,3.66-8.53,3.65-14.12,13.54-12.51,22.37,2,11,16.84,24.6,27.88,25.68,1.67.16,3.33.49,5,.75.46-.54.93-1.07,1.4-1.6,5.87-9.56,19.93-8.91,31.27-3.34C184.92,256.29,182.71,248.53,180.16,243.51Zm-37.88,3.43c-5.93-.06-11.22-5.86-11.19-12.25,0-5.47,5.29-10.75,10.78-10.84,6.34-.11,11.79,5.48,11.71,12A11.57,11.57,0,0,1,142.28,246.94Z"/><path class="cls-23" d="M9.05,184.44c-.53,1.46-1.06,2.92-1.6,4.38C8,187.36,8.52,185.9,9.05,184.44Z"/><path class="cls-21" d="M145.31,343V341.4l1.48,2.3Z"/><path class="cls-24" d="M67.46,142.32l0,.53-.72-.6Z"/><path class="cls-25" d="M185,258.94c-.23-.25-.47-.49-.7-.73C184.49,258.45,184.73,258.69,185,258.94Z"/><path class="cls-26" d="M146.78,343.67l.78.8Z"/><path class="cls-17" d="M34.47,256.59c6.59-4.15,10.16-3.72,15.72,1.82a28.53,28.53,0,0,1,7.36,28.31,30.1,30.1,0,0,1-3.24-2.31c-8.44-7.86-14.31-17.58-19.79-27.57Z"/><path class="cls-27" d="M34.52,256.84c5.48,10,11.35,19.71,19.79,27.57a30.1,30.1,0,0,0,3.24,2.31,2.46,2.46,0,0,1,.06.66,8.54,8.54,0,0,1-10.42,0c-8.51-6-14.93-13.47-14.91-24.6C32.28,260.79,33.74,258.81,34.52,256.84Z"/><path class="cls-28" d="M77.82,277.42c-.7,3-2.42,4.7-5.61,4a4.71,4.71,0,0,1-3.79-5.59A5.94,5.94,0,0,1,72.48,272C75.91,271.62,77.37,274.26,77.82,277.42Z"/><path class="cls-24" d="M67.46,142.88l1.64.14v.44l-1.65.14C67.45,143.36,67.45,143.12,67.46,142.88Z"/><path class="cls-29" d="M163,348.42l.56.08-.15.23Z"/><path class="cls-20" d="M70.51,180.47c.34-3.5,1.5-6.1,4.47-7.68a6.5,6.5,0,0,1,8.22,1.5,24.55,24.55,0,0,1,5,8.86c1.16,3.87-1.48,8.09-4.92,9.47-3.08,1.22-7.63-.37-9.61-3.92C72.24,186.16,71.53,183.23,70.51,180.47Z"/><path class="cls-20" d="M131.09,234.69c0-5.47,5.29-10.75,10.78-10.84,6.34-.11,11.79,5.48,11.71,12a11.57,11.57,0,0,1-11.3,11.1C136.35,246.88,131.06,241.08,131.09,234.69Z"/><path class="cls-30" d="M173.3,275.87l-.56-.05Z"/><path class="cls-31" d="M165.84,368.12s-14.46-34-62.92-43.26C83.68,321.18,67.71,315,54.25,307c-35.39-21.23-55.79-60.45-52.38-101,1.13-13.43,5.27-26.3,14.68-37.68,21.49-26,55.1-34.7,77.77-11.76,15,15.13,8.88,35.18,4.54,50.79A32.22,32.22,0,0,0,109.75,241l.2.16s11.34-54.08,55.89-15.73S183.43,354.32,165.84,368.12Z"/><path class="cls-32" d="M133.16,276.47a38.79,38.79,0,0,1-6.71-3,61.51,61.51,0,0,1-5.58-4.76,42.67,42.67,0,0,1-8.79-11.82A28.7,28.7,0,0,1,110.53,235a30.73,30.73,0,0,1,3.93-6.26,48.54,48.54,0,0,0-1.77,7,27,27,0,0,0-1.3,6.78,24.26,24.26,0,0,0,.49,6.85,26.87,26.87,0,0,0,2.25,6.53,40.45,40.45,0,0,0,8.32,11.18,53.33,53.33,0,0,0,5.38,4.56C129.52,273.29,131.3,274.9,133.16,276.47Z"/><path class="cls-33" d="M388,64l6.76,6.77c.19,1.7.38,3.4.58,5.25l3-.59c4.69,6,8.07,12.53,9.05,20.17a7.61,7.61,0,0,0-.89,1.16c-5.37,10.28-18,14.18-28.13,11.77-14.64-3.49-24-15.58-24.2-30.72a7.82,7.82,0,0,0-1.2-4.52C346.74,65.54,338.4,61.18,328.8,59l0-.76a7.41,7.41,0,0,0,2-1c9-8.58,23.24-6.06,29.88,3.86,3.25,4.85,6,10,9.31,14.82a28.79,28.79,0,0,0,16.67,11.68,30.23,30.23,0,0,0,.16-4.07C386.05,77,383.89,70.32,388,64Z"/><path class="cls-34" d="M328.8,59c9.6,2.15,17.94,6.51,24.16,14.29a7.82,7.82,0,0,1,1.2,4.52c.16,15.14,9.56,27.23,24.2,30.72,10.13,2.41,22.76-1.49,28.13-11.77a7.61,7.61,0,0,1,.89-1.16l.12,15.05a26.24,26.24,0,0,0-2.8.93c-12.74,5.72-25.52,8.59-39,2.07-9-4.36-18.57-7.75-26.43-14.26,1.34.21,2.67.49,4,.62,2.78.25,5.49.2,7.3-3.21a36.64,36.64,0,0,0-4.28-4.35c-3.49-2.57-7.2-4.85-10.78-7.31C325.65,78.38,321.42,69,328.8,59Z"/><path class="cls-35" d="M346.29,92.48c-3.49-2.57-7.2-4.85-10.78-7.31-9.94-6.84-14.16-16.36-6.52-26.39l-.22-.51c-8-.52-16-1.18-24-1.5-3.56-.14-7.14.51-10.71.63-1,0-2.12,1.2-3.18.92-.5.12-1.31.58-1.81.71-2.75,1-4.43,1.91-7.17,3l-1.86.38c-3.75,1.73-6.6,1.62-9.82,4.22-.7.56-1.36,2.65-2.11,2.19.25,1.91-3.11,2-3.13,2,.46,2.47,3.31-1.28,3.77,1.19l3.42.65c-.15.26-.26.44-.38.63l2.37.55,1.5.06,6.72.8,15,3,2.25.76h0l1.5.73h1.54l1.46-.73h0l-1.5-.73a4.44,4.44,0,0,1-.63-.39c-2.23-2-5.21-3.87-3.56-7.36,1.71-3.64,4.93-1.6,7.6-1.19,4.4.67,8.38,2,8.84,7.31.18,2.14.46,4.59-2.49,5.42,2.69,1.83,5.35,3.68,8.06,5.47q9.44,6.21,18.88,12.38v.08c1.34.21,2.67.49,4,.62,2.78.25,5.49.2,7.3-3.21A36.64,36.64,0,0,0,346.29,92.48Z"/><path class="cls-36" d="M339.25,99.42c7.86,6.51,17.39,9.9,26.43,14.26,13.5,6.52,26.28,3.65,39-2.07a26.24,26.24,0,0,1,2.8-.93c-.9,14.1-16.4,25.87-30.81,23.73-16.35-2.44-29.41-10.83-41-22-3.14-3-6.18-6.12-9.26-9.18,1.51-1.29,2.84-3.28,4.56-3.7,2.63-.64,5.53-.21,8.31-.23Zm11,12.24-.14.29.72.4.18-.4Z"/><path class="cls-37" d="M388,64c-2-2-4.2-1.6-6.37-3.25-.56.25-1.19-2-1.78-2.22-.89-.38-1.76-.8-2.64-1.22q-3.1-1.5-6.18-3.07c-.66-.34-1.33-.68-2-1.05a3.31,3.31,0,0,1-.72-.5,2,2,0,0,1-.51-1.91c0-.07-1.55.45-1.53.38-7.81-3.27-14.45-3.76-23.53-4-16.56-.39-28.82,3.59-44.41,8-.25.07-1.32,1-1.57,1-.21.58-3.17-.05-3.79,0s-1.42.26-2.13.42a11.35,11.35,0,0,0,3.18.66c3.57-.12,7.15-.77,10.71-.63,8,.32,16,1,24,1.5a7.41,7.41,0,0,0,2-1c9-8.58,23.24-6.06,29.88,3.86,3.25,4.85,6,10,9.31,14.82a28.79,28.79,0,0,0,16.67,11.68,30.23,30.23,0,0,0,.16-4.07C386.05,77,383.89,70.32,388,64Z"/><path class="cls-38" d="M339.26,99.34c-2.78,0-5.68-.41-8.31.23-1.72.42-3.05,2.41-4.56,3.7-14.1-12-29.58-21.65-47-28v-.6h3l15,3,2.25.76h0l1.5.73,1.49,0,5.24.76,4.53,1.54c2.69,1.83,5.35,3.68,8.06,5.47Q329.82,93.17,339.26,99.34Z"/><path class="cls-39" d="M398.33,75.46l-3,.59c-.2-1.85-.39-3.55-.58-5.25C395.94,72.36,397.14,73.91,398.33,75.46Z"/><path class="cls-40" d="M312.32,81.49,307.79,80l-3.73-1.52h0l-1.5-.73a4.44,4.44,0,0,1-.63-.39c-2.23-2-5.21-3.87-3.56-7.36,1.71-3.64,4.93-1.6,7.6-1.19,4.4.67,8.38,2,8.84,7.31C315,78.21,315.27,80.66,312.32,81.49Z"/><path class="cls-41" d="M304.06,78.43,307.79,80l-5.24-.76Z"/><path class="cls-42" d="M350.26,111.66l.76.29-.18.4-.72-.4Z"/><path class="cls-43" d="M260.65,73a.24.24,0,0,1-.18-.44c10.82-6,69.6-37.14,105.94-20.48,40.16,18.4,49,51.63,36.77,71.57S357.81,132.81,345,120C332.54,107.53,289.61,65.93,260.65,73Z"/><path class="cls-44" d="M240.41,33.46l6-2.25.76,0c1.18,1,2.34,2.77,3.55,2.8,1.61,0,3.34-1.12,4.8-2.1.26-.17-.55-1.94-.87-3l1.52-.74,8.21-1.5.77,0c1.64,4.94,6,7.74,10.92,6.41,6.3-1.72,12.48-3.87,19.58-6.11l2.22.43c-3.4,5.43-8.88,8.19-14.6,9.65a231.77,231.77,0,0,1-29.92,5.93c-14.52,1.73-27.09,7-37.53,17.26a27.67,27.67,0,0,1-2.88,2.08c-.4-6.73,2.15-11.87,4.78-17L235.93,35"/><path class="cls-45" d="M235.93,35,217.7,45.4q4.11-6.76,8.24-13.53a14.13,14.13,0,0,0,3.1-1c6.07-3.81,12.08-7.71,18.11-11.59l2.25-1.49c.83.5,1.8,1.55,2.47,1.39a58.67,58.67,0,0,0,9.79-2.91c4.74-2,9.3-4.47,13.94-6.73l6.74-.75L285,10.24c-2.2,1.23-3.8,2.31-5.55,3.06-6.5,2.83-14.6,3.8-15,13.42l-8.21,1.5c-2.8-3.37-5.62-1.66-8.43-.18-.48,1.14-.9,2.16-1.33,3.17l-6,2.25Z"/><path class="cls-46" d="M264.36,26.66c.47-9.56,8.55-10.53,15-13.36,1.73-.75,2.44-2.44,2.94-4.55,0,0,2.58,1.47,2.55,1.46l-1.16-.12c.54-1.33,1.45-.87,2-2.2l13.58,3.5.08,7.55c-7.17,2-14.32,4.1-21.55,5.85-4.34,1.05-8.86,1.35-13.28,2Z"/><path class="cls-38" d="M264.36,26.72c4.24-.63,8.56-.95,12.7-1.95,7.77-1.89,15.44-4.17,23.14-6.29l-3.12,9a2.33,2.33,0,0,0-1.9.77c-7.11,2.23-13.31,5.14-20,5.81C270.19,34.55,266,31.65,264.36,26.72Z"/><path class="cls-47" d="M247.15,19.24c-6,3.88-12,7.78-18.11,11.59a14.13,14.13,0,0,1-3.1,1q8.34-9,16.69-17.92Z"/><path class="cls-37" d="M288,3c-1.62,0-16-1.35-17.65-1.34h-.06l-1.68.8,1.68-.8a1.55,1.55,0,0,1-.31,0l-4.29-.07a52.94,52.94,0,0,0-23,12.36c.31,3.41,1.84,4.53,4.52,5.29.75-.5,3.42-1.38,4.17-1.88,8.23-3,14.54-4.86,22.77-7.87a113,113,0,0,1,12-1.5l11.76,3Z"/><path class="cls-46" d="M275.6,9.5c-4.64,2.26-9.2,4.71-13.94,6.73a58.67,58.67,0,0,1-9.79,2.91c-.67.16-3.89.6-4.72.1,7.49-4.26,18.71-7.5,26.94-10.5Z"/><path class="cls-46" d="M275.6,9.5l-1.51-.76,12-.75c-1.25.25-.54,6.12-3.76.76Z"/><path class="cls-48" d="M256.15,28.22c.32,1,1.13,2.8.87,3-1.46,1-4.71,2.89-6.32,2.84-1.21,0-3.13-1.82-4.31-2.82C248.88,30.46,253.65,29,256.15,28.22Z"/><path class="cls-46" d="M254.63,29l-7.48,2.27-.76,0c.43-1,.85-2,1.33-3.17,2.81-1.48,5.63-3.19,8.43.18Z"/><path class="cls-49" d="M238,34.3l.24-.08a2.09,2.09,0,0,1,2.72,1.48v0a2.09,2.09,0,0,1-1.21,2.4l-.23.1a2.09,2.09,0,0,1-2.77-1.16l0-.06A2.08,2.08,0,0,1,238,34.3Z"/><path class="cls-43" d="M211.75,62.29a.32.32,0,0,1-.53-.34c4-9.83,25.07-58.37,55.79-60.28,34.19-2.13,38.85,16.76,28.49,28.2s-31.13,12.25-40,13C246.76,43.69,228.28,43.71,211.75,62.29Z"/><path class="cls-50" d="M49.47,112.33s-15.83-3-27.93-14.89S7.39,71.74,13.72,68,25.08,73.6,25.08,73.6s-7.82-26.06,9.87-29,18.8,12.66,14.52,25.88S39.42,93.53,49.47,112.33Z"/><g class="cls-51"><circle class="cls-52" cx="36.69" cy="60.55" r="6.79"/><ellipse class="cls-52" cx="23.1" cy="83.72" rx="3.64" ry="4.52" transform="translate(-43.07 27.48) rotate(-34.21)"/><circle class="cls-52" cx="31.48" cy="91.64" r="2.47"/><g class="cls-53"><path class="cls-54" d="M34.22,41.1c-4.66,2.7-6.38,8.44-8,13.3a43.55,43.55,0,0,0-2,18.66,57.73,57.73,0,0,0,5.05,17.81,36.93,36.93,0,0,0,3.91,6.72c1.71,2.3,4,4.12,5.23,6.73L45,97.8c-5.22-3.59-11.68-7.2-15.87-12-4-4.56-5.43-10.73-6.93-16.43-1.19-4.53-8.4-6-10.58-1.38C10,71.36,10,74.82,13,77.42c5.69,4.94,14-3.56,8.25-8.26l.55,1.06-.59,4.47.37-.86L11,72.45c2.13,7,4.49,14.22,9.42,19.86,5.2,6,13.19,9.51,19.73,13.72,4.29,2.77,8.48-2.52,6.52-6.52s-5.72-6.66-7.89-10.58A47,47,0,0,1,33.6,73.59C32,62.87,36.32,53.44,37.61,43c.22-1.76-2-2.72-3.39-1.94Z"/></g></g><path class="cls-55" d="M45,99.44q2.3,6.41,4.6,12.8l-1.48.76c-13.33-4.79-25.33-11.47-33.16-23.86-3-4.76-5.51-9.83-4.47-15.72.3-1.71,1.46-3.27,2.23-4.9L20.32,80c0,.47-.8,1.58-.81,2-.37,1.5.09,2.64,1.48,4.35,2.44,1.91,3.57,1,4.66,1.09C27,88.9,27.7,90.2,29,91.64c0,2.59,2.47,2.47,3.89,2.38C37.13,96.26,40.74,97.21,45,99.44Z"/><path class="cls-56" d="M21.9,62c.77-9.47,5.82-15.49,14.53-18.72a6.35,6.35,0,0,1,1.46-.2c-.26.68-.2,1.66-.81,2a17.93,17.93,0,0,0-6.94,9C29.56,56.43,29,57.24,29,59c-.5,2.62-1.57,5.41-1.92,8.8-.3,3,.13,6.24-.26,9.56"/><path class="cls-7" d="M49.06,112.33s-15.83-3-27.93-14.89S7,71.74,13.31,68,24.67,73.6,24.67,73.6s-7.82-26.06,9.87-29,18.8,12.66,14.52,25.88S39,93.53,49.06,112.33Z"/><path class="cls-57" d="M217,177.43c-6.94-.34-13.88-1-20.82-.92-12.73.21-24.45,3.75-34.39,12.13a23.27,23.27,0,0,1,.2-3.35c3-14.9,12.88-24.73,24.48-33.3a2.14,2.14,0,0,1,.64-.23,57.6,57.6,0,0,1,4.43-4.67c5-4.21,10-8.29,15.06-12.42.48,4.33,3.08,6.5,6.16,4.66,2.6-1.55,4.63-4,6.92-6.1l-.28-1.67-5.27-2.18,6.84-6.76,2.23-.83,3.83-1.31,7.36-.09c3.69,1.7,7.56,3.48,7.41,8.33s-4.2,6.7-8,8.37c-3,1.3-6,2.32-9,3.64a9.65,9.65,0,0,0-6.18,8.06c1.08.76,2.25,2.18,3.62,2.4a50.27,50.27,0,0,0,11,.87c5.72-.32,11.11-.05,17.25,5-2.16,1.43-4,2.7-5.88,3.9-2.1,1.33-4.57,2.27-6.26,4-1.5,1.52-3.22,4.09-2.88,5.8s2.92,3.39,4.88,4.28c1.51.69,3.59.25,5.41.12,2.46-.18,4.9-.54,7.35-.83v1.47c-7.68,1.83-15.39,1.81-23.23,1C225.68,176.39,221.33,177.19,217,177.43Z"/><path class="cls-58" d="M253.14,174.35c-2.45.29-4.89.65-7.35.83-1.82.13-3.9.57-5.41-.12-2-.89-4.53-2.55-4.88-4.28s1.38-4.28,2.88-5.8c1.69-1.72,4.16-2.66,6.26-4,1.88-1.2,3.72-2.47,5.88-3.9-6.14-5.08-11.53-5.35-17.25-5a50.27,50.27,0,0,1-11-.87c-1.37-.22-2.54-1.64-3.62-2.4a9.65,9.65,0,0,1,6.18-8.06c2.94-1.32,6-2.34,9-3.64,3.81-1.67,7.85-3.43,8-8.37s-3.72-6.63-7.41-8.33l-6.74-1.5c2.89-1.7,5.62-3.75,8.68-5,9-3.75,13.84-7.73,25.72-8.47h2a54.43,54.43,0,0,1,6.33,3.39c8.17,4.71,8.82,13.15,1.43,19.09-.1.07-.29.17-.28.2a5.44,5.44,0,0,0,.27.54l-1.65.87c1.81-7.61-1.69-11.65-8.27-10.19-5.16,1.15-8.43,4.16-9.35,9.28-1,5.5,1.83,9.66,5.95,12.8,7.4,5.64,17.5,2.44,23.76-3.35,1.93-1.79,3.8-3.65,6.37-6.13.21,2.09.31,3.16.42,4.22l-4.42,5.25c-1.24,0-2.73-.39-3.69.15-8.22,4.59-16.92,5-26.22,3.08L249.37,140c3,9.33,9.73,16,19.13,14.86a45.94,45.94,0,0,1,4.84-.09c-.25,1.32-.44,2.66-.78,4-1.3,5-3.1,9.58-8,12.21-2.14,1.14-4.09,2.64-6.12,4l-2.3-.52Z"/><path class="cls-59" d="M271.86,127.88c7.39-5.94,6.74-14.38-1.43-19.09-2.33-1.34-5.48-2.07-8.35-3.39,2.23-1,7.49-4.24,9.73-5.22l12,5.22.75.74h0l.77.76,0,0,.8.79,0,0c.26.27.53.53.8.8l-.05-.06,0,.77,1.31.71c5.85,4.34,6.2,10.56,5,16.82-.61,3.29-2.71,6.31-4.13,9.46-.11-1.06-.21-2.13-.42-4.22-2.57,2.48-4.44,4.34-6.37,6.13-6.26,5.79-16.36,9-23.76,3.35-4.12-3.14-6.93-7.3-5.95-12.8.92-5.12,4.19-8.13,9.35-9.28,6.58-1.46,10.08,2.58,8.27,10.19l1.66-.87Zm-8.79,3.18c.4.44.62.86.8.85s.56-.35,1.27-.85Z"/><path class="cls-60" d="M181.9,148.2l-.62-.15-3,.83h0l-.72.67-.69.15-3.79-.18-2.4-3.14c-.33,1.65-3.17,2.63-3.5,4.28-5.23,6.37-7.74,13.68-11.79,20.86-2,3.62-2.34,8.22-3.42,12.38.68,3.91-1.44,8.74-.76,12.65,1.17-1,4-4.22,5.23-5.19a21.53,21.53,0,0,1,3.37-2.73l2.07-1.12a10.33,10.33,0,0,1,.14-2.23c3-14.9,12.88-24.73,24.48-33.3C183.7,152.27,182.41,150.71,181.9,148.2Z"/><path class="cls-61" d="M266.2,102.64c.32.89-2.2,2.65-3.13,2.76-8.79,1.12-17.61,4.88-26.16,8.43-3,1.27-5.79,3.32-8.67,5l-2.31,1.49-2.2,1.44c-1.2.09-3.8,5.09-5,5.18-.83.23-2.22-4.11-2.4-4.2-1.07-.5,2.14-2.88,2.9-3.78,1.92-2.26,3.59-4.24,5.26-6.22l.71-.67,0,0,.75-.71h0l.67-.74a3.07,3.07,0,0,0,.14-.67l0-.69a1.82,1.82,0,0,1,.69-1.47c6.95-5.38,15.12-7.66,23.62-9.11a1.63,1.63,0,0,1,.66,0c3.94.78,7.89,1.52,11.8,2.43A19.79,19.79,0,0,1,266.2,102.64Z"/><path class="cls-59" d="M258.4,175c2-1.34,4-2.84,6.12-4,4.94-2.63,6.74-7.24,8-12.21.34-1.3.53-2.64.78-4,1.27-.26,2.86-2.86,4.12-3.12,2.34-.49,5.87,2.33,3.36,4.92l.77.48.16,1,.61-.25.72,3c-.49,1-1,2-1.46,3l.72,1.45c-3.59,8.89-9.28,17-19.38,18.86C263.22,180.71,260.85,176.64,258.4,175Z"/><path class="cls-62" d="M224.42,113.63c-2,2.43-3.93,4.1-6.43,7.06-.08.1-.27,1-.15,1.1l0,1.08c.27,3.19.23.76.51,3.95-3.76,2.64-8,5.65-11.74,8.29h0c-5,4.13-8.72,8.63-13.67,13.36-6.42,6.12-8.11,3.57-9.84,4.86a.35.35,0,0,1-.5-.1c-1-1.84-11.47-2.61-13.75-4.05a.2.2,0,0,1,0-.3c1.12-1.27,9.11-8.95,9.1-9.17,2.73-3,4.15-4.41,6.88-7.37,1.5-1.76,7.82-5.38,9.32-7.14,4.27-3.8,9.8-6.89,14.06-10.7,2.7-2.4,9.32-4.15,12-6.55a.13.13,0,0,1,.1,0c1-.06,2.45-1.24,3.45-1.3a.17.17,0,0,0,.1,0c.38-.31,2.38-1.36,2.62-1.6s1.21.24,1.47,0,1.67-.34,1.93-.59,3.55-.47,3.81-.68"/><path class="cls-63" d="M258.4,175c2.45,1.68,4.82,5.75,4.56,9.22-7.1,2.48-14.38.71-21.71-.93-8.1-1.81-16.14-3.87-24.21-5.82,4.29-.24,8.64-1,12.87-.6,7.84.8,15.55.82,23.23-1l3-1.38Z"/><path class="cls-64" d="M276.33,153.49c-1.27.26-1.72,1.06-3,1.32a45.94,45.94,0,0,0-4.84.09c-9.4,1.18-16.92-6.06-19.95-15.39,1.9,1.6,3.79,3.21,5.38,4.56,9.3,2,18,1.51,26.22-3.08,1-.54,2.45-.12,3.69-.15-3.07,2-7.74,3.14-11.46,5.55,1.37,1.71,4.52,4.5,6.07,6.42Z"/><path class="cls-65" d="M263.63,103.12c-.21-.69-.29-1.07-.63-1.15-4-.93-8.08-1.69-12.13-2.5,4.94.11,9.89.12,14.82.38a43.39,43.39,0,0,1,6.12,1.16l-6.7,2.95C264.62,104,264.12,103.12,263.63,103.12Z"/><path class="cls-66" d="M281.59,157.09l-2.31-1.43"/><path class="cls-67" d="M225.46,109.17l.74-.8"/><path class="cls-67" d="M223,111.21l.22.22"/><line class="cls-67" x1="223.23" y1="111.43" x2="223.01" y2="111.21"/><line class="cls-67" x1="224.77" y1="109.98" x2="224.66" y2="109.86"/><path class="cls-68" d="M286.87,108.42c-.27-.27-.54-.53-.8-.8C286.33,107.89,286.6,108.15,286.87,108.42Z"/><path class="cls-69" d="M286.11,107.66l-.8-.79Z"/><path class="cls-70" d="M220.27,107.48l.49-.53Z"/><path class="cls-71" d="M285.35,106.9l-.77-.76Z"/><path class="cls-70" d="M221,106.72l.6-.54Z"/><path class="cls-72" d="M284.59,106.14l-.75-.74Z"/><path class="cls-70" d="M221.73,106.07l.83-.61Z"/><path class="cls-70" d="M224,104.42a.84.84,0,0,1,.43-.46Z"/><path class="cls-73" d="M206.63,134.67l7.55-5.31c2.86-.05,2.86-.05,5.14.9l.74,2.52c-1.31,2.9-4.67,5-7.27,6.55C209.71,141.17,207.11,139,206.63,134.67Z"/><path class="cls-74" d="M206.36,152.13c-.18,1.25-.64,1.93-1.52,2.21a2.43,2.43,0,0,1-3-2.87,4.3,4.3,0,0,1,.68-1.67,1.35,1.35,0,0,1,.71-.45A2.47,2.47,0,0,1,206.36,152.13Z"/><path class="cls-75" d="M225.38,120.38l2.3-1.49,6.74,1.5-7.36.09Z"/><path class="cls-76" d="M256.1,174.44l-3,1.38v-1.47Z"/><path class="cls-77" d="M225.38,120.38l1.68.1-3.83,1.31Z"/><path class="cls-78" d="M246.57,144.13h-1.1v-.3h1.1Z"/><path class="cls-79" d="M251.45,123.91l-1.25,1.72"/><path class="cls-80" d="M271.86,127.88v.74a4,4,0,0,1-.28-.54S271.76,128,271.86,127.88Z"/><path class="cls-81" d="M263.07,131.06h2.07c-.71.5-1,.82-1.27.85S263.47,131.5,263.07,131.06Z"/><path class="cls-82" d="M176.7,149.51l.17.2"/><path class="cls-83" d="M177.56,149.56l.72-.67Z"/><path class="cls-67" d="M223.94,112.79l.71-.66Z"/><path class="cls-67" d="M224.67,112.1l.75-.71Z"/><path class="cls-67" d="M225.43,111.38l.67-.74Z"/><path class="cls-84" d="M268.29,148.63h-1.11v-.3h1.11Z"/><path class="cls-85" d="M263.36,129c14,14,15.18-17.38-4.28-11.59-25.3,11.19-7.78,38.35,21.36,25,28.62-13.1,11.2-60-53.94-37.86a47.22,47.22,0,0,0-7,3c-71,37.78-68.95,86.19-69.32,90,0,.05.06.08.09,0,2.27-2.89,29.06-35.09,80-17,53.32,19,56-21.37,50.16-27.36s-9.63-6.65-16.91-7.4"/></g></g></svg>