<svg xmlns="http://www.w3.org/2000/svg" xmlns:xlink="http://www.w3.org/1999/xlink" viewBox="0 0 184.37 273.11"><defs><style>.cls-1,.cls-10{fill:none;}.cls-2{fill:#d838b9;stroke:#221f20;}.cls-10,.cls-2{stroke-linecap:round;stroke-linejoin:round;stroke-width:5px;}.cls-3{opacity:0.4;}.cls-4{clip-path:url(#clip-path);}.cls-5{fill:#84263d;}.cls-6{fill:#ebfef3;}.cls-7{clip-path:url(#clip-path-2);}.cls-8{clip-path:url(#clip-path-3);}.cls-9{clip-path:url(#clip-path-4);}.cls-10{stroke:#5b1a33;}.cls-11{fill:#fff;}</style><clipPath id="clip-path" transform="translate(7.24 5.33)"><path class="cls-1" d="M3.87,54.47a92.92,92.92,0,0,1,6.32-31c3.18-8,7.74-16,13.93-19.22C38.25-3.14,40.18,16.92,40.18,16.92S34.38,104.08,137,161.38c0,0,43,21.29,24,38.7s-69.29-5-76.65-28.64c0,0,4.39,36-28.58,28.64s-21-70.68-21-70.68.46-27.21,0-19.9c-.49,7.88-5.83,18.21-16.49,12.65C9.8,117.74,1.71,115.78,3.87,54.47Z"/></clipPath><clipPath id="clip-path-2" transform="translate(7.24 5.33)"><path class="cls-1" d="M121.74,253.26C81,245.38,89.46,200.08,89.46,200.08s3.37,15.1,35.89,27.1c17.88,6.6,17.47,14.14,13.48,19.58A17.14,17.14,0,0,1,121.74,253.26Z"/></clipPath><clipPath id="clip-path-3" transform="translate(7.24 5.33)"><path class="cls-1" d="M67.28,211.7s-8.46,25.93,7,30.19S67.28,211.7,67.28,211.7Z"/></clipPath><clipPath id="clip-path-4" transform="translate(7.24 5.33)"><path class="cls-1" d="M16.18,145.89c.45-2.21-21.29,37.55-10.83,48s15.48-4.64,15.48-4.64S13.47,159.44,16.18,145.89Z"/></clipPath></defs><g id="Calque_2" data-name="Calque 2"><g id="Layer_34" data-name="Layer 34"><path class="cls-2" d="M4.23,54.38a93.11,93.11,0,0,1,6.32-31c3.18-8,7.75-16,13.93-19.22C38.61-3.23,40.55,16.83,40.55,16.83S34.74,104,137.32,161.28c0,0,43,21.29,24,38.71S92,195,84.67,171.35c0,0,4.39,36-28.58,28.64s-21-70.68-21-70.68.46-27.22,0-19.9c-.49,7.87-5.83,18.21-16.49,12.65C10.17,117.65,2.07,115.68,4.23,54.38Z" transform="translate(7.24 5.33)"/><path class="cls-2" d="M122.1,253.17C81.34,245.29,89.82,200,89.82,200s3.37,15.1,35.89,27.1c17.88,6.6,17.47,14.14,13.48,19.58A17.14,17.14,0,0,1,122.1,253.17Z" transform="translate(7.24 5.33)"/><path class="cls-2" d="M67.64,211.6s-8.46,25.94,7,30.2S67.64,211.6,67.64,211.6Z" transform="translate(7.24 5.33)"/><path class="cls-2" d="M16.55,145.8c.44-2.22-21.29,37.55-10.84,48s15.48-4.65,15.48-4.65S13.84,159.35,16.55,145.8Z" transform="translate(7.24 5.33)"/><g class="cls-3"><g class="cls-4"><path class="cls-5" d="M-.28,44.4c-3.65,23-4.61,49.92,5.72,71.44,4.87,10.13,16.76,15.45,25.78,6.73,7.61-7.36,10.94-21.74,9.09-31.89L30.56,92c-.36,4.5-2.63,9.09-3.66,13.49s-1.83,8.72-2.44,13.11A161,161,0,0,0,23,143c.23,15.25,3.44,31.6,12.37,44.23,9.2,13,26.66,24.38,42.34,14.46,15.08-9.54,11-30.17,3.11-43.14a6.78,6.78,0,0,0-9.11-2.39c-6,3.51-7.35,9.08-8.11,15.58-.14,1.2-.25,2.41-.38,3.61-.06.52-.59,3.13-.22,1.53a14,14,0,0,1-.49,1.9c-.28.91-.25.83.11-.26.13,1.66-1.23.67.51.38,1.31-.22,1.89-.35.26-.26,1,0,3.42.22.87-.4l-1.3-.4q1.29.57,0-.06c-1-.56-2.06-1.16-3.05-1.81-2.39-1.55-6-6.37-8.44-10.12A69.14,69.14,0,0,1,40.33,136a163.28,163.28,0,0,1-.69-21.1c0-3.19.24-6.37.29-9.56,0-3.89-.54-8.21.38-12,1.31-5.44-6.1-8.69-9.07-3.82-2,3.26-3.64,6.88-5.44,10.27-1.7,3.22-4.31,6.81-5.57,10.16A10.4,10.4,0,0,1,19,111.28c1-.77,1.9-.81,2.59-.14,0,0-1.87-2.4-2.06-2.74-2-3.65-3.25-7.84-4.7-11.74A197.41,197.41,0,0,1,7.17,72.21,108.19,108.19,0,0,1,4.88,45.1c.06-2.88-4.69-3.67-5.16-.7Z" transform="translate(7.24 5.33)"/><path class="cls-5" d="M79.38,165c9.1,19.13,20.5,35.81,40.84,44.09,10.72,4.37,23.28,7,34.64,3.42a31,31,0,0,0,22.21-26.66c.67-5.84-5.08-11.15-10.4-11.78a12,12,0,0,0-13.17,8.59,11.92,11.92,0,0,1-4.3,6.15,18.07,18.07,0,0,1-7,2.49c-7.24,1-14.87-1.14-21.73-3.23-14.42-4.4-29.88-11.86-38.81-24.4A1.32,1.32,0,0,0,79.38,165Z" transform="translate(7.24 5.33)"/><path class="cls-6" d="M32.49-3.22C31.09-1,28.83.15,27.38,2.35a64.1,64.1,0,0,0-4.18,8.17,80.55,80.55,0,0,0-5.51,17.91c-1.16,5.9-2.11,11.84-2.92,17.81s-1.64,11.84-.1,17.81c3,11.38,15.08,18.58,25.67,11.43a23.4,23.4,0,0,0,6.13-6.6,12,12,0,0,0,1.64-2.46c.88-2.63-1,3.57-1.08.84,0,1.35,1.08,3.32,1.24,4.95l7.36-9.67a16.47,16.47,0,0,1-1.82.41h4.27c-3-.48-4.92-7.74-5.76-10.49a21.24,21.24,0,0,1-.42-12.3H33.21c5.27,14,8.57,28.87,11.5,43.5,1.52,7.61,2.76,15.26,4,22.92,1.17,7.48,1.6,15.42,4.93,22.32C57.26,136.47,65.22,142,73.86,140a18.18,18.18,0,0,0,5.84-2.43c.32-.2,3-2.37,3-2.32s-.5.38-.6.33-3,.09-3,.13c-.23.15-1.08-1.3.15,0,.92,1,1.84,1.21,2.76,2.13C86.65,142.54,89.83,149,94.39,154a48.64,48.64,0,0,0,19,12.84c8.47,3.14,19.57,3.2,27.54-1.49,10.66-6.27,7.2-22.63,3.09-31.74-3.06-6.78-12.91-8.41-18.85-4.94-6.22,3.64-9,12.58-5,18.86,1.92,3,1.9,3.33,1.53,6.82l6.32-11c-3.35,1.59-9.05-.44-12.88-3.33-4.68-3.52-7.94-8.54-11.43-13.14-4.7-6.18-10.4-12.41-18.18-14.55a20,20,0,0,0-12.86.77c-1.34.54-4.12,1.45-4.91,2.8.68-1.16,8.88,1.12,8.41,2.06.29.84.3.85,0,0-.21-.62-.39-1.24-.55-1.87-.38-1.56-.59-3.15-.86-4.73-.71-4.1-1.39-8.21-2.09-12.32-1.29-7.63-2.63-15.26-4.26-22.83C65.11,60.65,59.63,46,50.92,32.7a9.78,9.78,0,0,0-18.06,4.89,45.78,45.78,0,0,0,4.22,22.8,27.05,27.05,0,0,0,6.59,8.85c3.12,2.8,4.22,2.58,5,5.64,2.77,11.5,18.93,8.18,19.7-2.67.79-11.14-6-22.71-17.14-25.64a20.1,20.1,0,0,0-17.37,3.48,27.89,27.89,0,0,0-5.17,5.67c-.26.34-1.39,2.41-1.24,1.68a.79.79,0,0,1,.46-.45q3.48-2.49,8.32.93c.15,0,.93,1.21.87,1.25s-.25-1.32-.24-1.16a43.88,43.88,0,0,1,.49-6.77C37.86,45.58,38.5,40,39.4,34.41c1-6.24,2-12.52,2.5-18.83a76.7,76.7,0,0,0,.29-9.22c-.14-2.63-1.36-4.7-1.32-7.31.08-4.62-6-5.92-8.38-2.27Z" transform="translate(7.24 5.33)"/></g></g><g class="cls-3"><g class="cls-7"><path class="cls-5" d="M85.65,211a51,51,0,0,0,9.63,35.93c8,10.68,20.25,20.13,34,20.87,10.84.58,11.78-14.79,2.44-18-4.42-1.54-8.8-2.51-12.93-4.81a44.65,44.65,0,0,1-11.1-8.5C101.19,229.5,96.21,220.54,95.4,211a4.88,4.88,0,0,0-9.75,0Z" transform="translate(7.24 5.33)"/><path class="cls-6" d="M129.5,240.53a8.77,8.77,0,0,0,6-2.5,9.38,9.38,0,0,0,2.5-6,8.58,8.58,0,0,0-2.5-6,8.52,8.52,0,0,0-12.06,0,6.43,6.43,0,0,0-1.77,2.74A6.51,6.51,0,0,0,121,232a8.6,8.6,0,0,0,2.5,6,8.88,8.88,0,0,0,6,2.5Z" transform="translate(7.24 5.33)"/></g></g><g class="cls-3"><g class="cls-8"><path class="cls-5" d="M58.78,219.21c-2.91,10.62,2.63,21.8,11.7,27.58,6,3.82,12.79-5,7.61-9.87a46.59,46.59,0,0,1-11.54-17.71c-1.36-3.52-6.64-4.13-7.77,0Z" transform="translate(7.24 5.33)"/></g></g><g class="cls-3"><g class="cls-9"><path class="cls-5" d="M-7.06,172.5c-2,16.49,12.68,35.15,30.17,33.29,6.76-.72,9.6-11.28,1.74-12.89-10.58-2.17-20.7-8.6-21.79-20.4-.6-6.58-9.34-6.43-10.12,0Z" transform="translate(7.24 5.33)"/></g></g><path class="cls-10" d="M3.87,54.47a92.92,92.92,0,0,1,6.32-31c3.18-8,7.74-16,13.93-19.22C38.25-3.14,40.18,16.92,40.18,16.92S34.38,104.08,137,161.38c0,0,43,21.29,24,38.7s-69.29-5-76.65-28.64c0,0,4.39,36-28.58,28.64s-21-70.68-21-70.68.46-27.21,0-19.9c-.49,7.88-5.83,18.21-16.49,12.65C9.8,117.74,1.71,115.78,3.87,54.47Z" transform="translate(7.24 5.33)"/><path class="cls-10" d="M121.74,253.26C81,245.38,89.46,200.08,89.46,200.08s3.37,15.1,35.89,27.1c17.88,6.6,17.47,14.14,13.48,19.58A17.14,17.14,0,0,1,121.74,253.26Z" transform="translate(7.24 5.33)"/><path class="cls-10" d="M67.28,211.7s-8.46,25.93,7,30.19S67.28,211.7,67.28,211.7Z" transform="translate(7.24 5.33)"/><path class="cls-10" d="M16.18,145.89c.45-2.21-21.29,37.55-10.83,48s15.48-4.64,15.48-4.64S13.47,159.44,16.18,145.89Z" transform="translate(7.24 5.33)"/><path class="cls-11" d="M28.33,17.78a8.52,8.52,0,0,1-.78,1.8A5.92,5.92,0,0,0,27,22h4.57l.17-1.44L31,22.33A4.76,4.76,0,0,0,32.46,20L26,19.16c0,.43,0,.46,0,.09-.05.22-.11.43-.18.65-.19-.14.85-1.07-.09-.19l7.58,2c-.13-.38-.19-1.14-.1.05-.07-.88-.3.94,0,.06l-8,2.1a3.84,3.84,0,0,1-.94-3.55c-.19.8.69-1.25.2-.51a5.47,5.47,0,0,0,1.95,7.44c2.41,1.28,6.14.8,7.44-1.95a6.55,6.55,0,0,0,0-6.43,6.24,6.24,0,0,0-4-3,5,5,0,0,0-4.15.85,4.83,4.83,0,0,0-1.87,3.74A7.82,7.82,0,0,0,25,25.21a4.53,4.53,0,0,0,8.45-2.29,15,15,0,0,0-1.29-5.43A3.31,3.31,0,0,0,26.08,20a4.82,4.82,0,0,0,1.45,2.29l-.71-1.73L27,22a2.36,2.36,0,0,0,2.29,2.29A2.3,2.3,0,0,0,31.54,22,6.07,6.07,0,0,0,31,19.58a9.33,9.33,0,0,1-.7-1.8,1,1,0,0,0-2,0Z" transform="translate(7.24 5.33)"/><path class="cls-11" d="M27.39,36.25l0,.21.45-1.68a8,8,0,0,0-.39.91l-.12,1a2.7,2.7,0,0,0,.3,1.37,2.78,2.78,0,0,0,.74,1.15,2.64,2.64,0,0,0,1.15.73,3.18,3.18,0,0,0,2.74,0,2.76,2.76,0,0,0,1.15-.73l.55-.73a3.42,3.42,0,0,0,.49-1.79l-.13-1a3.56,3.56,0,0,0-.91-1.57l-.72-.56a2.64,2.64,0,0,0-1.33-.42,2.64,2.64,0,0,0-1.42.06,7.19,7.19,0,0,0-.9.39l1.68-.46-.22,0a2.33,2.33,0,0,0-1.19.26,2.42,2.42,0,0,0-1,.64l-.48.63a3,3,0,0,0-.42,1.56Z" transform="translate(7.24 5.33)"/><path class="cls-11" d="M121.33,162c7.21,5.21,14.84,9.76,22.1,14.88,2.87,2,8.22,5.32,9.27,9.05,1.77,6.33-7.37,7.08-10.78,9.65a1.47,1.47,0,0,0,.35,2.66c9.57,2.55,19.73-7.94,13.67-16.91-3.19-4.71-8.63-8.05-13.43-10.86-6.5-3.8-13-7.55-19.71-11a1.46,1.46,0,0,0-1.47,2.51Z" transform="translate(7.24 5.33)"/><path class="cls-11" d="M54.42,187.07c5.1,6,13.4,5.77,18.75.06s6.64-17.19,1.39-23.52c-1.34-1.61-3.49-.12-3.68,1.53-.63,5.44,1.56,11.07-1.65,16.15-2.42,3.81-9.24,6.55-13.11,3.58-1.34-1-2.66,1.07-1.7,2.2Z" transform="translate(7.24 5.33)"/><path class="cls-11" d="M25.68,112.42c5.77-2.25,8.28-12,3.79-16.47a1.62,1.62,0,0,0-2.67.71c-.65,2.18-.71,4.58-1.2,6.81s-1.71,4.43-2.17,6.7c-.25,1.22.85,2.79,2.25,2.25Z" transform="translate(7.24 5.33)"/><path class="cls-11" d="M118.64,232.26a10.63,10.63,0,0,1,3.74,2.11c1.39,1.13,3.09,1.75,4.5,2.87a9.59,9.59,0,0,1,2.69,3.21c.75,1.57.65,2.94,2,4.23a2.75,2.75,0,0,0,4.27-.55c2.08-3.67-1.52-7.95-4.37-10.12a17.58,17.58,0,0,0-5.35-2.77c-2.3-.72-4.65-.15-7-.61a.85.85,0,0,0-.45,1.63Z" transform="translate(7.24 5.33)"/><path class="cls-11" d="M74,234.3l.3.44-.21-1.63a1.21,1.21,0,0,0-.15.6,2,2,0,0,0,0,1l.27.63a1.94,1.94,0,0,0,.68.74,2,2,0,0,0,.89.47l.7.09a2,2,0,0,0,1-.23,1.9,1.9,0,0,0,.84-.54l.41-.53a1.92,1.92,0,0,0,.31-1,1.94,1.94,0,0,0,0-1l-.27-.63a2.07,2.07,0,0,0-.67-.74,2.1,2.1,0,0,0-.9-.47l-.69-.09a1.91,1.91,0,0,0-1,.2l1.63.21-.44-.3-.48-.2a1.49,1.49,0,0,0-.81,0,1,1,0,0,0-.51.14,1.43,1.43,0,0,0-.64.42,2.28,2.28,0,0,0-.52.89,2.22,2.22,0,0,0,.2,1.55Z" transform="translate(7.24 5.33)"/><path class="cls-11" d="M12.37,191.18a4.25,4.25,0,0,0,2.14.59l1.05-.14.94-.39.79-.62.62-.8.4-.94.14-1-.14-1.05a3.05,3.05,0,0,0-.71-1.34,2,2,0,0,0-.7-.7,1.93,1.93,0,0,0-.87-.51,2,2,0,0,0-1-.27,2,2,0,0,0-1,0,2,2,0,0,0-1,.27,1.85,1.85,0,0,0-.86.51,2,2,0,0,0-.71.7,2.93,2.93,0,0,0-.7,1.34h0l.4-.93,0,.06.6-.78-.07.06a3.85,3.85,0,0,0-1,1.68,2.87,2.87,0,0,0-.07,1.51,2.8,2.8,0,0,0,.45,1.42,3.85,3.85,0,0,0,1.36,1.36Z" transform="translate(7.24 5.33)"/></g></g></svg>