<?xml version="1.0" encoding="UTF-8" standalone="no"?>
<svg
   viewBox="0 0 226.99999 138"
   version="1.1"
   id="svg106"
   sodipodi:docname="splash-stroke-half-3.svg"
   inkscape:version="1.4.2 (2aeb623e1d, 2025-05-12)"
   width="227"
   height="138"
   xmlns:inkscape="http://www.inkscape.org/namespaces/inkscape"
   xmlns:sodipodi="http://sodipodi.sourceforge.net/DTD/sodipodi-0.dtd"
   xmlns="http://www.w3.org/2000/svg"
   xmlns:svg="http://www.w3.org/2000/svg">
  <sodipodi:namedview
     id="namedview106"
     pagecolor="#ffffff"
     bordercolor="#000000"
     borderopacity="0.25"
     inkscape:showpageshadow="2"
     inkscape:pageopacity="0.0"
     inkscape:pagecheckerboard="0"
     inkscape:deskcolor="#d1d1d1"
     showgrid="false"
     inkscape:zoom="1.4690451"
     inkscape:cx="165.41357"
     inkscape:cy="190.94036"
     inkscape:window-width="1600"
     inkscape:window-height="836"
     inkscape:window-x="0"
     inkscape:window-y="27"
     inkscape:window-maximized="1"
     inkscape:current-layer="Shapes" />
  <defs
     id="defs1">
    <style
       id="style1">.cls-1,.cls-31,.cls-43,.cls-5,.cls-7,.cls-85{fill:none;}.cls-2{fill:#9ba037;}.cls-3{fill:#b4d93a;}.cls-4{fill:#c2e942;}.cls-5{stroke:#2b470a;}.cls-31,.cls-43,.cls-5,.cls-7{stroke-miterlimit:10;}.cls-31,.cls-43,.cls-5,.cls-7,.cls-85{stroke-width:3px;}.cls-6{fill:#57ebda;}.cls-7{stroke:#0e3f54;}.cls-8{fill:#55ebd9;}.cls-9{fill:#5df4eb;}.cls-10{fill:#5cf4eb;}.cls-11{fill:#58eada;}.cls-12{fill:#329f62;}.cls-13{fill:#3ad967;}.cls-14{fill:#3feb77;}.cls-15{fill:#40d76d;}.cls-16{fill:#3ad9a4;}.cls-17{fill:#aaeedf;}.cls-18{fill:#3febbd;}.cls-19{fill:#329f9c;}.cls-20{fill:#b8f6ee;}.cls-21{fill:#92afd4;}.cls-22{fill:#32a09c;}.cls-23{fill:#aa6e8b;}.cls-24{fill:#3eddab;}.cls-25{fill:#77f0dc;}.cls-26{fill:#9fd2da;}.cls-27{fill:#92b0d4;}.cls-28{fill:#a7eede;}.cls-29{fill:#81e6c9;}.cls-30{fill:#abf5eb;}.cls-31{stroke:#0c4434;}.cls-32{fill:#0c4434;}.cls-33{fill:#54acd2;}.cls-34{fill:#4e5eb6;}.cls-35{fill:#559deb;}.cls-36{fill:#4345ad;}.cls-37{fill:#5ccdf4;}.cls-38{fill:#4974e0;}.cls-39{fill:#61c7ef;}.cls-40{fill:#4e5eb7;}.cls-41{fill:#5293e7;}.cls-42{fill:#444ab3;}.cls-43{stroke:#12113f;}.cls-44{fill:#498ce0;}.cls-45{fill:#55beeb;}.cls-46{fill:#549eeb;}.cls-47{fill:#5cddf4;}.cls-48{fill:#4975e0;}.cls-49{fill:#4978e0;}.cls-50{fill:#3febe1;}.cls-51{clip-path:url(#clip-path);}.cls-52{fill:#b7f6ee;}.cls-53{opacity:0.28;}.cls-54{fill:#3ad9c6;}.cls-55{fill:#329fbc;}.cls-56{fill:#32a0bc;}.cls-57{fill:#55d7eb;}.cls-58{fill:#def7fe;}.cls-59{fill:#eefafe;}.cls-60{fill:#499ee0;}.cls-61{fill:#beb6f2;}.cls-62{fill:#499fe0;}.cls-63{fill:#5ceaf4;}.cls-64{fill:#bfb7f2;}.cls-65{fill:#cebbf3;}.cls-66{fill:#9ff2f9;}.cls-67{fill:#61a7e4;}.cls-68{fill:#3dd6df;}.cls-69{fill:#6adfe8;}.cls-70{fill:#40ea77;}.cls-71{fill:#afeef3;}.cls-72{fill:#def7fa;}.cls-73{fill:#dcf5fe;}.cls-74{fill:#d9f6fd;}.cls-75{fill:#d5ebfb;}.cls-76{fill:#59daed;}.cls-77{fill:#bde3f8;}.cls-78{fill:#d1f4fc;}.cls-79{fill:#c1f1fa;}.cls-80{fill:#d0f3fc;}.cls-81{fill:#caf2f9;}.cls-82{fill:#a2b8e6;}.cls-83{fill:#53d0dc;}.cls-84{fill:#aeb2ef;}.cls-85{stroke:#08324a;stroke-linecap:round;stroke-linejoin:round;}</style>
    <clipPath
       id="clip-path">
      <path
         class="cls-1"
         d="m 48.81,112.33 c 0,0 -15.82,-3 -27.93,-14.89 C 8.77,85.55 6.73,71.74 13.06,68 c 6.33,-3.74 11.36,5.6 11.36,5.6 0,0 -7.82,-26.06 9.87,-29 17.69,-2.94 18.8,12.66 14.52,25.88 -4.28,13.22 -10.05,23.05 0,41.85 z"
         id="path1" />
    </clipPath>
  </defs>
  <g
     id="Calque_2"
     data-name="Calque 2">
    <g
       id="Shapes">
      <path
         class="cls-10"
         d="m 13.357139,27.680714 a 19.46,19.46 0 0 0 -0.71,-6.56 c -3.06,-1.08 -9.14,4.32 -9.81,8.22 -0.42,2.46 0.22,5.11 0.38,7.67 3.47,-0.65 8.78,-6.54 10.14,-9.33 z"
         id="path11" />
      <path
         class="cls-11"
         d="m 6.397139,44.680714 a 17.64,17.64 0 0 1 1.81,-8.22 c 0.26,-0.48 4,-4.56 4.52,-4.65 l 0.27,-0.52 c 0.17,-1.21 0.29,-2.42 0.35,-3.63 -1.36,2.81 -6.67,8.7 -10.14,9.33 1.06,2.69 2.12,5.39 3.19,8.08 0.01,-0.12 0,-0.25 0,-0.39 z"
         id="path12" />
      <path
         class="cls-7"
         d="m 9.147139,21.200714 c 5.33,-0.49 8.19,4.84 2.85,11.05 -5.34,6.21 -6,14.9 -6,14.9 0,0 -8.89,-25.2 3.15,-25.95 z"
         id="path13"
         style="stroke-width:1.48913;stroke-dasharray:none" />
      <path
         class="cls-33"
         d="m 204.20714,64.680714 6.76,6.77 c 0.19,1.7 0.38,3.4 0.58,5.25 l 3,-0.59 c 4.69,6 8.07,12.53 9.05,20.17 a 7.61,7.61 0 0 0 -0.89,1.16 c -5.37,10.279996 -18,14.179996 -28.13,11.769996 -14.64,-3.49 -24,-15.579996 -24.2,-30.719996 a 7.82,7.82 0 0 0 -1.2,-4.52 c -6.23,-7.75 -14.57,-12.11 -24.17,-14.29 v -0.76 a 7.41,7.41 0 0 0 2,-1 c 9,-8.58 23.24,-6.06 29.88,3.86 3.25,4.85 6,10 9.31,14.82 a 28.79,28.79 0 0 0 16.67,11.68 30.23,30.23 0 0 0 0.16,-4.07 c -0.77,-6.53 -2.93,-13.21 1.18,-19.53 z"
         id="path42" />
      <path
         class="cls-34"
         d="m 145.00714,59.680714 c 9.6,2.15 17.94,6.51 24.16,14.29 a 7.82,7.82 0 0 1 1.2,4.52 c 0.16,15.14 9.56,27.229996 24.2,30.719996 10.13,2.41 22.76,-1.49 28.13,-11.769996 a 7.61,7.61 0 0 1 0.89,-1.16 l 0.12,15.049996 a 26.24,26.24 0 0 0 -2.8,0.93 c -12.74,5.72 -25.52,8.59 -39,2.07 -9,-4.36 -18.57,-7.75 -26.43,-14.26 1.34,0.21 2.67,0.49 4,0.62 2.78,0.25 5.49,0.2 7.3,-3.209996 a 36.64,36.64 0 0 0 -4.28,-4.35 c -3.49,-2.57 -7.2,-4.85 -10.78,-7.31 -9.86,-6.76 -14.09,-16.14 -6.71,-26.14 z"
         id="path43" />
      <path
         class="cls-35"
         d="m 162.49714,93.160714 c -3.49,-2.57 -7.2,-4.85 -10.78,-7.31 -9.94,-6.84 -14.16,-16.36 -6.52,-26.39 l -0.22,-0.51 c -8,-0.52 -16,-1.18 -24,-1.5 -3.56,-0.14 -7.14,0.51 -10.71,0.63 -1,0 -2.12,1.2 -3.18,0.92 -0.5,0.12 -1.31,0.58 -1.81,0.71 -2.75,1 -4.43,1.91 -7.170001,3 l -1.86,0.38 c -3.75,1.73 -6.6,1.62 -9.82,4.22 -0.7,0.56 -1.36,2.65 -2.11,2.19 0.25,1.91 -3.11,2 -3.13,2 0.46,2.47 3.31,-1.28 3.77,1.19 l 3.42,0.65 c -0.15,0.26 -0.26,0.44 -0.38,0.63 l 2.37,0.55 1.5,0.06 6.72,0.8 15.000001,3 2.25,0.76 v 0 l 1.5,0.73 h 1.54 l 1.46,-0.73 v 0 l -1.5,-0.73 a 4.44,4.44 0 0 1 -0.63,-0.39 c -2.23,-2 -5.21,-3.87 -3.56,-7.36 1.71,-3.64 4.93,-1.6 7.6,-1.19 4.4,0.67 8.38,2 8.84,7.31 0.18,2.14 0.46,4.59 -2.49,5.42 2.69,1.83 5.35,3.68 8.06,5.47 q 9.44,6.21 18.88,12.379996 v 0.08 c 1.34,0.21 2.67,0.49 4,0.62 2.78,0.25 5.49,0.2 7.3,-3.209996 a 36.64,36.64 0 0 0 -4.34,-4.38 z"
         id="path44" />
      <path
         class="cls-36"
         d="m 155.45714,100.10071 c 7.86,6.51 17.39,9.9 26.43,14.26 13.5,6.52 26.28,3.65 39,-2.07 a 26.24,26.24 0 0 1 2.8,-0.93 c -0.9,14.1 -16.4,25.87 -30.81,23.73 -16.35,-2.44 -29.41,-10.83 -41,-22 -3.14,-3 -6.18,-6.12 -9.26,-9.18 1.51,-1.29 2.84,-3.28 4.56,-3.7 2.63,-0.639996 5.53,-0.21 8.31,-0.229996 z m 11,12.24 -0.14,0.29 0.72,0.4 0.18,-0.4 z"
         id="path45" />
      <path
         class="cls-37"
         d="m 204.20714,64.680714 c -2,-2 -4.2,-1.6 -6.37,-3.25 -0.56,0.25 -1.19,-2 -1.78,-2.22 -0.89,-0.38 -1.76,-0.8 -2.64,-1.22 q -3.1,-1.5 -6.18,-3.07 c -0.66,-0.34 -1.33,-0.68 -2,-1.05 a 3.31,3.31 0 0 1 -0.72,-0.5 2,2 0 0 1 -0.51,-1.91 c 0,-0.07 -1.55,0.45 -1.53,0.38 -7.81,-3.27 -14.45,-3.76 -23.53,-4 -16.56,-0.39 -28.82,3.59 -44.41,8 -0.25,0.07 -1.32,1 -1.57,1 -0.21,0.58 -3.17,-0.05 -3.79,0 -0.62,0.05 -1.42,0.26 -2.13,0.42 a 11.35,11.35 0 0 0 3.18,0.66 c 3.57,-0.12 7.15,-0.77 10.71,-0.63 8,0.32 16,1 24,1.5 a 7.41,7.41 0 0 0 2,-1 c 9,-8.58 23.24,-6.06 29.88,3.86 3.25,4.85 6,10 9.31,14.82 a 28.79,28.79 0 0 0 16.67,11.68 30.23,30.23 0 0 0 0.16,-4.07 c -0.7,-6.4 -2.86,-13.08 1.25,-19.4 z"
         id="path46" />
      <path
         class="cls-38"
         d="m 155.46714,100.02071 c -2.78,0 -5.68,-0.409996 -8.31,0.23 -1.72,0.42 -3.05,2.41 -4.56,3.7 -14.1,-11.999996 -29.58,-21.649996 -47.000001,-27.999996 v -0.6 h 3 l 15.000001,3 2.25,0.76 v 0 l 1.5,0.73 h 1.49 l 5.24,0.76 4.53,1.54 c 2.69,1.83 5.35,3.68 8.06,5.47 q 9.36,6.24 18.8,12.409996 z"
         id="path47" />
      <path
         class="cls-39"
         d="m 214.53714,76.140714 -3,0.59 c -0.2,-1.85 -0.39,-3.55 -0.58,-5.25 1.19,1.56 2.39,3.11 3.58,4.66 z"
         id="path48" />
      <path
         class="cls-40"
         d="m 128.52714,82.170714 -4.53,-1.49 -3.73,-1.52 v 0 l -1.5,-0.73 a 4.44,4.44 0 0 1 -0.63,-0.39 c -2.23,-2 -5.21,-3.87 -3.56,-7.36 1.71,-3.64 4.93,-1.6 7.6,-1.19 4.4,0.67 8.38,2 8.84,7.31 0.19,2.09 0.46,4.54 -2.49,5.37 z"
         id="path49" />
      <path
         class="cls-41"
         d="m 120.26714,79.110714 3.73,1.57 -5.24,-0.76 z"
         id="path50" />
      <path
         class="cls-42"
         d="m 166.46714,112.34071 0.76,0.29 -0.18,0.4 -0.72,-0.4 z"
         id="path51" />
      <path
         class="cls-43"
         d="m 76.857139,73.680714 a 0.24,0.24 0 0 1 -0.18,-0.44 c 10.82,-6 69.600001,-37.14 105.940001,-20.48 40.16,18.4 49,51.629996 36.77,71.569996 -12.23,19.94 -45.37,9.16 -58.18,-3.65 -12.46,-12.47 -55.39,-54.069996 -84.350001,-46.999996 z"
         id="path52"
         style="stroke-width:1.48913;stroke-dasharray:none" />
      <path
         class="cls-44"
         d="m 56.617139,34.140714 6,-2.25 h 0.76 c 1.18,1 2.34,2.77 3.55,2.8 1.61,0 3.34,-1.12 4.8,-2.1 0.26,-0.17 -0.55,-1.94 -0.87,-3 l 1.52,-0.74 8.21,-1.5 h 0.77 c 1.64,4.94 6,7.74 10.92,6.41 6.3,-1.72 12.480001,-3.87 19.580001,-6.11 l 2.22,0.43 c -3.4,5.43 -8.88,8.19 -14.600001,9.65 a 231.77,231.77 0 0 1 -29.92,5.93 c -14.52,1.73 -27.09,7 -37.53,17.26 a 27.67,27.67 0 0 1 -2.88,2.08 c -0.4,-6.73 2.15,-11.87 4.78,-17 l 18.21,-10.32"
         id="path53" />
      <path
         class="cls-45"
         d="m 52.137139,35.680714 -18.23,10.4 q 4.11,-6.76 8.24,-13.53 a 14.13,14.13 0 0 0 3.1,-1 c 6.07,-3.81 12.08,-7.71 18.11,-11.59 l 2.25,-1.49 c 0.83,0.5 1.8,1.55 2.47,1.39 a 58.67,58.67 0 0 0 9.79,-2.91 c 4.74,-2 9.3,-4.47 13.94,-6.73 l 6.74,-0.7499997 2.660001,1.4499997 c -2.200001,1.23 -3.800001,2.31 -5.550001,3.06 -6.5,2.83 -14.6,3.8 -15,13.42 l -8.21,1.5 c -2.8,-3.37 -5.62,-1.66 -8.43,-0.18 -0.48,1.14 -0.9,2.16 -1.33,3.17 l -6,2.25 z"
         id="path54" />
      <path
         class="cls-46"
         d="m 80.567139,27.340714 c 0.47,-9.56 8.55,-10.53 15,-13.36 1.73,-0.75 2.44,-2.44 2.94,-4.5499997 0,0 2.580001,1.4699997 2.550001,1.4599997 l -1.160001,-0.12 c 0.540001,-1.3299997 1.450001,-0.8699997 2.000001,-2.1999997 l 13.58,3.4999997 0.08,7.55 c -7.17,2 -14.32,4.1 -21.550001,5.85 -4.34,1.05 -8.86,1.35 -13.28,2 z"
         id="path55" />
      <path
         class="cls-38"
         d="m 80.567139,27.400714 c 4.24,-0.63 8.56,-0.95 12.7,-1.95 7.770001,-1.89 15.440001,-4.17 23.140001,-6.29 l -3.12,9 a 2.33,2.33 0 0 0 -1.9,0.77 c -7.11,2.23 -13.310001,5.14 -20.000001,5.81 -4.99,0.49 -9.18,-2.41 -10.82,-7.34 z"
         id="path56" />
      <path
         class="cls-47"
         d="m 63.357139,19.920714 c -6,3.88 -12,7.78 -18.11,11.59 a 14.13,14.13 0 0 1 -3.1,1 q 8.34,-9 16.69,-17.92 z"
         id="path57" />
      <path
         class="cls-37"
         d="m 104.20714,3.6807143 c -1.62,0 -16.000001,-1.35 -17.650001,-1.34 h -0.06 l -1.68,0.8 1.68,-0.8 a 1.55,1.55 0 0 1 -0.31,0 l -4.29,-0.07 a 52.94,52.94 0 0 0 -23,12.3599997 c 0.31,3.41 1.84,4.53 4.52,5.29 0.75,-0.5 3.42,-1.38 4.17,-1.88 8.23,-3 14.54,-4.86 22.77,-7.87 A 113,113 0 0 1 102.35714,8.6707143 l 11.76,2.9999997 z"
         id="path58" />
      <path
         class="cls-46"
         d="m 91.807139,10.180714 c -4.64,2.26 -9.2,4.71 -13.94,6.73 a 58.67,58.67 0 0 1 -9.79,2.91 c -0.67,0.16 -3.89,0.6 -4.72,0.1 7.49,-4.26 18.71,-7.5 26.94,-10.4999997 z"
         id="path59" />
      <path
         class="cls-46"
         d="m 91.807139,10.180714 -1.51,-0.7599997 12.000001,-0.75 c -1.25,0.25 -0.54,6.1199997 -3.760001,0.76 z"
         id="path60" />
      <path
         class="cls-48"
         d="m 72.357139,28.900714 c 0.32,1 1.13,2.8 0.87,3 -1.46,1 -4.71,2.89 -6.32,2.84 -1.21,0 -3.13,-1.82 -4.31,-2.82 2.49,-0.78 7.26,-2.24 9.76,-3.02 z"
         id="path61" />
      <path
         class="cls-46"
         d="m 70.837139,29.680714 -7.48,2.27 h -0.76 c 0.43,-1 0.85,-2 1.33,-3.17 2.81,-1.48 5.63,-3.19 8.43,0.18 z"
         id="path62" />
      <path
         class="cls-43"
         d="m 27.957139,62.970714 a 0.32,0.32 0 0 1 -0.53,-0.34 c 4,-9.83 25.07,-58.3699997 55.79,-60.2799997 34.190001,-2.13 38.850001,16.7599997 28.490001,28.1999997 -10.36,11.44 -31.130001,12.25 -40.000001,13 -8.74,0.82 -27.22,0.84 -43.75,19.42 z"
         id="path64"
         style="stroke-width:1.48913;stroke-dasharray:none" />
    </g>
  </g>
</svg>
