<?xml version="1.0" encoding="UTF-8" standalone="no"?>
<svg
   viewBox="0 0 288.99999 160"
   version="1.1"
   id="svg106"
   sodipodi:docname="splash-stroke-half-2.svg"
   inkscape:version="1.4.2 (2aeb623e1d, 2025-05-12)"
   width="289"
   height="160"
   xmlns:inkscape="http://www.inkscape.org/namespaces/inkscape"
   xmlns:sodipodi="http://sodipodi.sourceforge.net/DTD/sodipodi-0.dtd"
   xmlns="http://www.w3.org/2000/svg"
   xmlns:svg="http://www.w3.org/2000/svg">
  <sodipodi:namedview
     id="namedview106"
     pagecolor="#ffffff"
     bordercolor="#000000"
     borderopacity="0.25"
     inkscape:showpageshadow="2"
     inkscape:pageopacity="0.0"
     inkscape:pagecheckerboard="0"
     inkscape:deskcolor="#d1d1d1"
     showgrid="false"
     inkscape:zoom="1.4690451"
     inkscape:cx="158.60643"
     inkscape:cy="205.23536"
     inkscape:window-width="1600"
     inkscape:window-height="836"
     inkscape:window-x="0"
     inkscape:window-y="27"
     inkscape:window-maximized="1"
     inkscape:current-layer="Shapes" />
  <defs
     id="defs1">
    <style
       id="style1">.cls-1,.cls-31,.cls-43,.cls-5,.cls-7,.cls-85{fill:none;}.cls-2{fill:#9ba037;}.cls-3{fill:#b4d93a;}.cls-4{fill:#c2e942;}.cls-5{stroke:#2b470a;}.cls-31,.cls-43,.cls-5,.cls-7{stroke-miterlimit:10;}.cls-31,.cls-43,.cls-5,.cls-7,.cls-85{stroke-width:3px;}.cls-6{fill:#57ebda;}.cls-7{stroke:#0e3f54;}.cls-8{fill:#55ebd9;}.cls-9{fill:#5df4eb;}.cls-10{fill:#5cf4eb;}.cls-11{fill:#58eada;}.cls-12{fill:#329f62;}.cls-13{fill:#3ad967;}.cls-14{fill:#3feb77;}.cls-15{fill:#40d76d;}.cls-16{fill:#3ad9a4;}.cls-17{fill:#aaeedf;}.cls-18{fill:#3febbd;}.cls-19{fill:#329f9c;}.cls-20{fill:#b8f6ee;}.cls-21{fill:#92afd4;}.cls-22{fill:#32a09c;}.cls-23{fill:#aa6e8b;}.cls-24{fill:#3eddab;}.cls-25{fill:#77f0dc;}.cls-26{fill:#9fd2da;}.cls-27{fill:#92b0d4;}.cls-28{fill:#a7eede;}.cls-29{fill:#81e6c9;}.cls-30{fill:#abf5eb;}.cls-31{stroke:#0c4434;}.cls-32{fill:#0c4434;}.cls-33{fill:#54acd2;}.cls-34{fill:#4e5eb6;}.cls-35{fill:#559deb;}.cls-36{fill:#4345ad;}.cls-37{fill:#5ccdf4;}.cls-38{fill:#4974e0;}.cls-39{fill:#61c7ef;}.cls-40{fill:#4e5eb7;}.cls-41{fill:#5293e7;}.cls-42{fill:#444ab3;}.cls-43{stroke:#12113f;}.cls-44{fill:#498ce0;}.cls-45{fill:#55beeb;}.cls-46{fill:#549eeb;}.cls-47{fill:#5cddf4;}.cls-48{fill:#4975e0;}.cls-49{fill:#4978e0;}.cls-50{fill:#3febe1;}.cls-51{clip-path:url(#clip-path);}.cls-52{fill:#b7f6ee;}.cls-53{opacity:0.28;}.cls-54{fill:#3ad9c6;}.cls-55{fill:#329fbc;}.cls-56{fill:#32a0bc;}.cls-57{fill:#55d7eb;}.cls-58{fill:#def7fe;}.cls-59{fill:#eefafe;}.cls-60{fill:#499ee0;}.cls-61{fill:#beb6f2;}.cls-62{fill:#499fe0;}.cls-63{fill:#5ceaf4;}.cls-64{fill:#bfb7f2;}.cls-65{fill:#cebbf3;}.cls-66{fill:#9ff2f9;}.cls-67{fill:#61a7e4;}.cls-68{fill:#3dd6df;}.cls-69{fill:#6adfe8;}.cls-70{fill:#40ea77;}.cls-71{fill:#afeef3;}.cls-72{fill:#def7fa;}.cls-73{fill:#dcf5fe;}.cls-74{fill:#d9f6fd;}.cls-75{fill:#d5ebfb;}.cls-76{fill:#59daed;}.cls-77{fill:#bde3f8;}.cls-78{fill:#d1f4fc;}.cls-79{fill:#c1f1fa;}.cls-80{fill:#d0f3fc;}.cls-81{fill:#caf2f9;}.cls-82{fill:#a2b8e6;}.cls-83{fill:#53d0dc;}.cls-84{fill:#aeb2ef;}.cls-85{stroke:#08324a;stroke-linecap:round;stroke-linejoin:round;}</style>
    <clipPath
       id="clip-path">
      <path
         class="cls-1"
         d="m 48.81,112.33 c 0,0 -15.82,-3 -27.93,-14.89 C 8.77,85.55 6.73,71.74 13.06,68 c 6.33,-3.74 11.36,5.6 11.36,5.6 0,0 -7.82,-26.06 9.87,-29 17.69,-2.94 18.8,12.66 14.52,25.88 -4.28,13.22 -10.05,23.05 0,41.85 z"
         id="path1" />
    </clipPath>
  </defs>
  <g
     id="Calque_2"
     data-name="Calque 2">
    <g
       id="Shapes">
      <path
         class="cls-6"
         d="m 116.39286,152.49714 0.06,-0.08 -1.61,0.94 h 0.1 l -3.57,-6.13 v 0 l 3.58,-0.94 h -0.07 l 2.2,1.69 v -0.06 3.72 a 0.56,0.56 0 0 1 0.1,-0.15 l -0.56,0.73 0.33,-0.33 -1.76,-4.16 v 0 a 2.54,2.54 0 0 0 -2.45,1.87 2.65,2.65 0 0 0 1.17,2.87 l 0.13,0.09 -1.21,-1.57 0.08,0.33 3.32,-4.36 a 3.64,3.64 0 0 1 -0.66,0 l 0.92,0.12 a 4.19,4.19 0 0 0 -3.1,0.37 3.39,3.39 0 0 0 -1.19,4.56 3.82,3.82 0 0 0 3.2,1.87 7,7 0 0 0 1.75,-0.15 3.42,3.42 0 0 0 1.79,-5.41 3.45,3.45 0 0 0 -5.69,0.35 l -0.16,0.29 1,-0.94 -0.13,0.06 3.08,0.4 v 0 l 0.71,1.73 v -0.49 a 3.61,3.61 0 0 0 -1.79,-3.12 l -0.08,-0.05 a 3.72,3.72 0 0 0 -5,1.33 v 0.09 a 3.91,3.91 0 0 0 -0.43,2.35 3.86,3.86 0 0 0 1,2.11 3.66,3.66 0 0 0 2.71,1.13 3.9,3.9 0 0 0 3.21,-1.87 3.69,3.69 0 0 0 -4.15,-5.39 4.17,4.17 0 0 0 -2.35,1.81 3.67,3.67 0 0 0 1,4.72 3.48,3.48 0 0 0 2.21,0.79 3.56,3.56 0 0 0 2.59,-1.08 z"
         id="path6" />
      <path
         class="cls-7"
         d="m 111.47286,153.24714 a 4.74,4.74 0 0 1 -1.77,-4.87 c 0.32,-1.54 1.39,-3.24 4.95,-2.9 6.05,0.59 8.68,7.89 2.39,8.81 a 7.32,7.32 0 0 1 -5.57,-1.04 z"
         id="path7"
         style="stroke-width:1.48913;stroke-dasharray:none" />
      <path
         class="cls-8"
         d="m 122.76286,129.29714 c 0.94,0.83 1.84,1.72 2.7,2.64 a 22.52,22.52 0 0 1 0.67,-7.7 1.76,1.76 0 0 1 0.43,-0.77 c 0.12,-0.81 0.26,-1.62 0.43,-2.41 0,-0.11 0,-0.21 0.07,-0.31 l -1.84,0.68 -4.82,-1.27 a 22.91,22.91 0 0 0 0.58,8.58 2.18,2.18 0 0 1 1.78,0.56 z"
         id="path8" />
      <path
         class="cls-9"
         d="m 128.96286,117.29714 c 0.33,-0.76 -0.69,-2.82 -0.27,-3.52 l -2.49,-1.2 c -4.72,-0.27 -6.71,3 -7,8.22 l 4.83,1.24 c 0.41,-0.15 2.58,-0.57 3.36,-0.86 0.36,-1.85 0.8,-2.14 1.57,-3.88 z"
         id="path9" />
      <path
         class="cls-7"
         d="m 124.43286,133.91714 c 0,0 -12.46,-16 -1.47,-22.27 a 4.19,4.19 0 0 1 6.09,2.23 c 0.47,1.49 0.29,3.54 -1.45,6.26 -4.66,7.26 -3.17,13.78 -3.17,13.78 z"
         id="path10"
         style="stroke-width:1.48913;stroke-dasharray:none" />
      <path
         class="cls-24"
         d="m 67.46,142.32 v 0.53 l -0.72,-0.6 z"
         id="path29" />
      <path
         class="cls-24"
         d="m 67.46,142.88 1.64,0.14 v 0.44 l -1.65,0.14 c 0,-0.24 0,-0.48 0.01,-0.72 z"
         id="path35" />
      <path
         class="cls-50"
         d="m 42.662857,71.487142 c 0,0 -15.83,-3 -27.93,-14.89 -12.1,-11.89 -14.14999995,-25.7 -7.82,-29.44 6.33,-3.74 11.36,5.6 11.36,5.6 0,0 -7.82,-26.0599997 9.87,-28.9999997 17.69,-2.94000002 18.8,12.6599997 14.52,25.8799997 -4.28,13.22 -10.05,23.05 0,41.85 z"
         id="path65" />
      <g
         class="cls-51"
         clip-path="url(#clip-path)"
         id="g67"
         transform="translate(-6.807143,-40.842858)">
        <circle
           class="cls-52"
           cx="36.689999"
           cy="60.549999"
           r="6.79"
           id="circle65" />
        <ellipse
           class="cls-52"
           cx="23.1"
           cy="83.720001"
           rx="3.6400001"
           ry="4.52"
           transform="rotate(-34.21,23.113704,83.718882)"
           id="ellipse65" />
        <circle
           class="cls-52"
           cx="31.48"
           cy="91.639999"
           r="2.47"
           id="circle66" />
        <g
           class="cls-53"
           id="g66">
          <path
             class="cls-54"
             d="m 34.22,41.1 c -4.66,2.7 -6.38,8.44 -8,13.3 a 43.55,43.55 0 0 0 -2,18.66 57.73,57.73 0 0 0 5.05,17.81 36.93,36.93 0 0 0 3.91,6.72 c 1.71,2.3 4,4.12 5.23,6.73 L 45,97.8 C 39.78,94.21 33.32,90.6 29.13,85.8 25.13,81.24 23.7,75.07 22.2,69.37 21.01,64.84 13.8,63.37 11.62,67.99 10,71.36 10,74.82 13,77.42 c 5.69,4.94 14,-3.56 8.25,-8.26 l 0.55,1.06 -0.59,4.47 0.37,-0.86 L 11,72.45 c 2.13,7 4.49,14.22 9.42,19.86 5.2,6 13.19,9.51 19.73,13.72 4.29,2.77 8.48,-2.52 6.52,-6.52 -1.96,-4 -5.72,-6.66 -7.89,-10.58 A 47,47 0 0 1 33.6,73.59 C 32,62.87 36.32,53.44 37.61,43 c 0.22,-1.76 -2,-2.72 -3.39,-1.94 z"
             id="path66" />
        </g>
      </g>
      <path
         class="cls-55"
         d="m 38.192857,58.597142 q 2.3,6.41 4.6,12.8 l -1.48,0.76 c -13.33,-4.79 -25.33,-11.47 -33.16,-23.86 -3,-4.76 -5.51,-9.83 -4.47,-15.72 0.3,-1.71 1.46,-3.27 2.23,-4.9 l 7.6,11.48 c 0,0.47 -0.8,1.58 -0.81,2 -0.37,1.5 0.09,2.64 1.48,4.35 2.44,1.91 3.57,1 4.66,1.09 1.35,1.46 2.05,2.76 3.35,4.2 0,2.59 2.47,2.47 3.89,2.38 4.24,2.24 7.85,3.19 12.11,5.42 z"
         id="path67" />
      <path
         class="cls-56"
         d="m 15.092857,21.157142 c 0.77,-9.47 5.82,-15.4899997 14.53,-18.7199997 a 6.35,6.35 0 0 1 1.46,-0.2 c -0.26,0.68 -0.2,1.66 -0.81,2 a 17.93,17.93 0 0 0 -6.94,8.9999997 c -0.58,2.35 -1.14,3.16 -1.14,4.92 -0.5,2.62 -1.57,5.41 -1.92,8.8 -0.3,3 0.13,6.24 -0.26,9.56"
         id="path68" />
      <path
         class="cls-7"
         d="m 42.252857,71.487142 c 0,0 -15.83,-3 -27.93,-14.89 -12.1,-11.89 -14.12999995,-25.7 -7.82,-29.44 6.31,-3.74 11.36,5.6 11.36,5.6 0,0 -7.82,-26.0599997 9.87,-28.9999997 17.69,-2.94000002 18.8,12.6599997 14.52,25.8799997 -4.28,13.22 -10.06,23.05 0,41.85 z"
         id="path69"
         style="stroke-width:1.48913;stroke-dasharray:none" />
      <path
         class="cls-57"
         d="m 210.19286,136.58714 c -6.94,-0.34 -13.88,-1 -20.82,-0.92 -12.73,0.21 -24.45,3.75 -34.39,12.13 a 23.27,23.27 0 0 1 0.2,-3.35 c 3,-14.9 12.88,-24.73 24.48,-33.3 a 2.14,2.14 0 0 1 0.64,-0.23 57.6,57.6 0 0 1 4.43,-4.67 c 5,-4.21 10,-8.289998 15.06,-12.419998 0.48,4.33 3.08,6.499998 6.16,4.66 2.6,-1.55 4.63,-4 6.92,-6.1 l -0.28,-1.67 -5.27,-2.18 6.84,-6.76 2.23,-0.83 3.83,-1.31 7.36,-0.09 c 3.69,1.7 7.56,3.48 7.41,8.33 -0.15,4.85 -4.2,6.7 -8,8.37 -3,1.3 -6,2.32 -9,3.64 a 9.65,9.65 0 0 0 -6.18,8.059998 c 1.08,0.76 2.25,2.18 3.62,2.4 a 50.27,50.27 0 0 0 11,0.87 c 5.72,-0.32 11.11,-0.05 17.25,5 -2.16,1.43 -4,2.7 -5.88,3.9 -2.1,1.33 -4.57,2.27 -6.26,4 -1.5,1.52 -3.22,4.09 -2.88,5.8 0.34,1.71 2.92,3.39 4.88,4.28 1.51,0.69 3.59,0.25 5.41,0.12 2.46,-0.18 4.9,-0.54 7.35,-0.83 v 1.47 c -7.68,1.83 -15.39,1.81 -23.23,1 -4.2,-0.41 -8.55,0.39 -12.88,0.63 z"
         id="path70" />
      <path
         class="cls-58"
         d="m 246.33286,133.50714 c -2.45,0.29 -4.89,0.65 -7.35,0.83 -1.82,0.13 -3.9,0.57 -5.41,-0.12 -2,-0.89 -4.53,-2.55 -4.88,-4.28 -0.35,-1.73 1.38,-4.28 2.88,-5.8 1.69,-1.72 4.16,-2.66 6.26,-4 1.88,-1.2 3.72,-2.47 5.88,-3.9 -6.14,-5.08 -11.53,-5.35 -17.25,-5 a 50.27,50.27 0 0 1 -11,-0.87 c -1.37,-0.22 -2.54,-1.64 -3.62,-2.4 a 9.65,9.65 0 0 1 6.18,-8.059998 c 2.94,-1.32 6,-2.34 9,-3.64 3.81,-1.67 7.85,-3.43 8,-8.37 0.15,-4.94 -3.72,-6.63 -7.41,-8.33 l -6.74,-1.5 c 2.89,-1.7 5.62,-3.75 8.68,-5 9,-3.75 13.84,-7.73 25.72,-8.47 h 2 a 54.43,54.43 0 0 1 6.33,3.39 c 8.17,4.71 8.82,13.15 1.43,19.09 -0.1,0.07 -0.29,0.17 -0.28,0.2 a 5.44,5.44 0 0 0 0.27,0.54 l -1.65,0.87 c 1.81,-7.61 -1.69,-11.65 -8.27,-10.19 -5.16,1.15 -8.43,4.16 -9.35,9.28 -1,5.5 1.83,9.66 5.95,12.799998 7.4,5.64 17.5,2.44 23.76,-3.349998 1.93,-1.79 3.8,-3.65 6.37,-6.13 0.21,2.09 0.31,3.16 0.42,4.22 l -4.42,5.249998 c -1.24,0 -2.73,-0.39 -3.69,0.15 -8.22,4.59 -16.92,5 -26.22,3.08 l -5.36,-4.639998 c 3,9.329998 9.73,15.999998 19.13,14.859998 a 45.94,45.94 0 0 1 4.84,-0.09 c -0.25,1.32 -0.44,2.66 -0.78,4 -1.3,5 -3.1,9.58 -8,12.21 -2.14,1.14 -4.09,2.64 -6.12,4 l -2.3,-0.52 z"
         id="path71" />
      <path
         class="cls-59"
         d="m 265.05286,87.037142 c 7.39,-5.94 6.74,-14.38 -1.43,-19.09 -2.33,-1.34 -5.48,-2.07 -8.35,-3.39 2.23,-1 7.49,-4.24 9.73,-5.22 l 12,5.22 0.75,0.74 v 0 l 0.77,0.76 v 0 l 0.8,0.79 v 0 c 0.26,0.27 0.53,0.53 0.8,0.8 l -0.05,-0.06 v 0.77 l 1.31,0.71 c 5.85,4.34 6.2,10.56 5,16.82 -0.61,3.29 -2.71,6.31 -4.13,9.46 -0.11,-1.06 -0.21,-2.13 -0.42,-4.22 -2.57,2.48 -4.44,4.34 -6.37,6.13 -6.26,5.789998 -16.36,8.999998 -23.76,3.349998 -4.12,-3.139998 -6.93,-7.299998 -5.95,-12.799998 0.92,-5.12 4.19,-8.13 9.35,-9.28 6.58,-1.46 10.08,2.58 8.27,10.19 l 1.66,-0.87 z m -8.79,3.18 c 0.4,0.44 0.62,0.86 0.8,0.85 0.18,-0.01 0.56,-0.35 1.27,-0.85 z"
         id="path72" />
      <path
         class="cls-60"
         d="m 175.09286,107.35714 -0.62,-0.15 -3,0.83 v 0 l -0.72,0.67 -0.69,0.15 -3.79,-0.18 -2.4,-3.14 c -0.33,1.65 -3.17,2.63 -3.5,4.28 -5.23,6.37 -7.74,13.68 -11.79,20.86 -2,3.62 -2.34,8.22 -3.42,12.38 0.68,3.91 -1.44,8.74 -0.76,12.65 1.17,-1 4,-4.22 5.23,-5.19 a 21.53,21.53 0 0 1 3.37,-2.73 l 2.07,-1.12 a 10.33,10.33 0 0 1 0.14,-2.23 c 3,-14.9 12.88,-24.73 24.48,-33.3 -2.8,0.29 -4.09,-1.27 -4.6,-3.78 z"
         id="path73" />
      <path
         class="cls-61"
         d="m 259.39286,61.797142 c 0.32,0.89 -2.2,2.65 -3.13,2.76 -8.79,1.12 -17.61,4.88 -26.16,8.43 -3,1.27 -5.79,3.32 -8.67,5 l -2.31,1.49 -2.2,1.44 c -1.2,0.09 -3.8,5.09 -5,5.18 -0.83,0.23 -2.22,-4.11 -2.4,-4.2 -1.07,-0.5 2.14,-2.88 2.9,-3.78 1.92,-2.26 3.59,-4.24 5.26,-6.22 l 0.71,-0.67 v 0 l 0.75,-0.71 v 0 l 0.67,-0.74 a 3.07,3.07 0 0 0 0.14,-0.67 v -0.69 a 1.82,1.82 0 0 1 0.69,-1.47 c 6.95,-5.38 15.12,-7.66 23.62,-9.11 a 1.63,1.63 0 0 1 0.66,0 c 3.94,0.78 7.89,1.52 11.8,2.43 a 19.79,19.79 0 0 1 2.67,1.53 z"
         id="path74" />
      <path
         class="cls-59"
         d="m 251.59286,134.15714 c 2,-1.34 4,-2.84 6.12,-4 4.94,-2.63 6.74,-7.24 8,-12.21 0.34,-1.3 0.53,-2.64 0.78,-4 1.27,-0.26 2.86,-2.86 4.12,-3.12 2.34,-0.49 5.87,2.33 3.36,4.92 l 0.77,0.48 0.16,1 0.61,-0.25 0.72,3 c -0.49,1 -1,2 -1.46,3 l 0.72,1.45 c -3.59,8.89 -9.28,17 -19.38,18.86 0.3,-3.42 -2.07,-7.49 -4.52,-9.13 z"
         id="path75" />
      <path
         class="cls-62"
         d="m 217.61286,72.787142 c -2,2.43 -3.93,4.1 -6.43,7.06 -0.08,0.1 -0.27,1 -0.15,1.1 v 1.08 c 0.27,3.19 0.23,0.76 0.51,3.95 -3.76,2.64 -8,5.65 -11.74,8.29 v 0 c -5,4.13 -8.72,8.629998 -13.67,13.359998 -6.42,6.12 -8.11,3.57 -9.84,4.86 a 0.35,0.35 0 0 1 -0.5,-0.1 c -1,-1.84 -11.47,-2.61 -13.75,-4.05 a 0.2,0.2 0 0 1 0,-0.3 c 1.12,-1.27 9.11,-8.949998 9.1,-9.169998 2.73,-3 4.15,-4.41 6.88,-7.37 1.5,-1.76 7.82,-5.38 9.32,-7.14 4.27,-3.8 9.8,-6.89 14.06,-10.7 2.7,-2.4 9.32,-4.15 12,-6.55 a 0.13,0.13 0 0 1 0.1,0 c 1,-0.06 2.45,-1.24 3.45,-1.3 a 0.17,0.17 0 0 0 0.1,0 c 0.38,-0.31 2.38,-1.36 2.62,-1.6 0.24,-0.24 1.21,0.24 1.47,0 0.26,-0.24 1.67,-0.34 1.93,-0.59 0.26,-0.25 3.55,-0.47 3.81,-0.68"
         id="path76" />
      <path
         class="cls-63"
         d="m 251.59286,134.15714 c 2.45,1.68 4.82,5.75 4.56,9.22 -7.1,2.48 -14.38,0.71 -21.71,-0.93 -8.1,-1.81 -16.14,-3.87 -24.21,-5.82 4.29,-0.24 8.64,-1 12.87,-0.6 7.84,0.8 15.55,0.82 23.23,-1 l 3,-1.38 z"
         id="path77" />
      <path
         class="cls-64"
         d="m 269.52286,112.64714 c -1.27,0.26 -1.72,1.06 -3,1.32 a 45.94,45.94 0 0 0 -4.84,0.09 c -9.4,1.18 -16.92,-6.06 -19.95,-15.389998 1.9,1.599998 3.79,3.209998 5.38,4.559998 9.3,2 18,1.51 26.22,-3.08 1,-0.539998 2.45,-0.12 3.69,-0.149998 -3.07,1.999998 -7.74,3.139998 -11.46,5.549998 1.37,1.71 4.52,4.5 6.07,6.42 z"
         id="path78" />
      <path
         class="cls-65"
         d="m 256.82286,62.277142 c -0.21,-0.69 -0.29,-1.07 -0.63,-1.15 -4,-0.93 -8.08,-1.69 -12.13,-2.5 4.94,0.11 9.89,0.12 14.82,0.38 a 43.39,43.39 0 0 1 6.12,1.16 l -6.7,2.95 c -0.49,0.04 -0.99,-0.84 -1.48,-0.84 z"
         id="path79" />
      <path
         class="cls-66"
         d="m 274.78286,116.24714 -2.31,-1.43"
         id="path80" />
      <path
         class="cls-67"
         d="m 218.65286,68.327142 0.74,-0.8"
         id="path81" />
      <path
         class="cls-67"
         d="m 216.19286,70.367142 0.22,0.22"
         id="path82" />
      <line
         class="cls-67"
         x1="216.42285"
         y1="70.587143"
         x2="216.20285"
         y2="70.367142"
         id="line82" />
      <line
         class="cls-67"
         x1="217.96286"
         y1="69.137146"
         x2="217.85286"
         y2="69.017143"
         id="line83" />
      <path
         class="cls-70"
         d="m 213.46286,66.637142 0.49,-0.53 z"
         id="path85" />
      <path
         class="cls-70"
         d="m 214.19286,65.877142 0.6,-0.54 z"
         id="path87" />
      <path
         class="cls-70"
         d="m 214.92286,65.227142 0.83,-0.61 z"
         id="path89" />
      <path
         class="cls-70"
         d="m 217.19286,63.577142 a 0.84,0.84 0 0 1 0.43,-0.46 z"
         id="path90" />
      <path
         class="cls-73"
         d="m 199.82286,93.827142 7.55,-5.31 c 2.86,-0.05 2.86,-0.05 5.14,0.9 l 0.74,2.52 c -1.31,2.9 -4.67,5 -7.27,6.55 -3.08,1.839998 -5.68,-0.33 -6.16,-4.66 z"
         id="path91" />
      <path
         class="cls-74"
         d="m 199.55286,111.28714 c -0.18,1.25 -0.64,1.93 -1.52,2.21 a 2.43,2.43 0 0 1 -3,-2.87 4.3,4.3 0 0 1 0.68,-1.67 1.35,1.35 0 0 1 0.71,-0.45 2.47,2.47 0 0 1 3.13,2.78 z"
         id="path92" />
      <path
         class="cls-75"
         d="m 218.57286,79.537142 2.3,-1.49 6.74,1.5 -7.36,0.09 z"
         id="path93" />
      <path
         class="cls-76"
         d="m 249.29286,133.59714 -3,1.38 v -1.47 z"
         id="path94" />
      <path
         class="cls-77"
         d="m 218.57286,79.537142 1.68,0.1 -3.83,1.31 z"
         id="path95" />
      <path
         class="cls-78"
         d="m 239.76286,103.28714 h -1.1 v -0.3 h 1.1 z"
         id="path96" />
      <path
         class="cls-79"
         d="m 244.64286,83.067142 -1.25,1.72"
         id="path97" />
      <path
         class="cls-80"
         d="m 265.05286,87.037142 v 0.74 a 4,4 0 0 1 -0.28,-0.54 c 0,0 0.18,-0.08 0.28,-0.2 z"
         id="path98" />
      <path
         class="cls-81"
         d="m 256.26286,90.217142 h 2.07 c -0.71,0.5 -1,0.82 -1.27,0.85 -0.27,0.03 -0.4,-0.41 -0.8,-0.85 z"
         id="path99" />
      <path
         class="cls-82"
         d="m 169.89286,108.66714 0.17,0.2"
         id="path100" />
      <path
         class="cls-83"
         d="m 170.75286,108.71714 0.72,-0.67 z"
         id="path101" />
      <path
         class="cls-67"
         d="m 217.13286,71.947142 0.71,-0.66 z"
         id="path102" />
      <path
         class="cls-67"
         d="m 217.86286,71.257142 0.75,-0.71 z"
         id="path103" />
      <path
         class="cls-67"
         d="m 218.62286,70.537142 0.67,-0.74 z"
         id="path104" />
      <path
         class="cls-84"
         d="m 261.48286,107.78714 h -1.11 v -0.3 h 1.11 z"
         id="path105" />
      <path
         class="cls-85"
         d="m 256.55286,88.157142 c 14,13.999998 15.18,-17.38 -4.28,-11.59 -25.3,11.19 -7.78,38.349998 21.36,24.999998 28.62,-13.099998 11.2,-59.999998 -53.94,-37.859998 a 47.22,47.22 0 0 0 -7,3 c -71,37.779998 -68.95,86.189998 -69.32,89.999998 0,0.05 0.06,0.08 0.09,0 2.27,-2.89 29.06,-35.09 80,-17 53.32,19 56,-21.37 50.16,-27.36 -5.84,-5.99 -9.63,-6.65 -16.91,-7.4"
         id="path106"
         style="stroke-width:1.48913;stroke-dasharray:none" />
    </g>
  </g>
</svg>
