<?xml version="1.0" encoding="UTF-8" standalone="no"?>
<svg
   viewBox="0 0 195 280.00001"
   version="1.1"
   id="svg106"
   sodipodi:docname="splash-stroke-half-1.svg"
   inkscape:version="1.4.2 (2aeb623e1d, 2025-05-12)"
   width="195"
   height="280"
   xmlns:inkscape="http://www.inkscape.org/namespaces/inkscape"
   xmlns:sodipodi="http://sodipodi.sourceforge.net/DTD/sodipodi-0.dtd"
   xmlns="http://www.w3.org/2000/svg"
   xmlns:svg="http://www.w3.org/2000/svg">
  <sodipodi:namedview
     id="namedview106"
     pagecolor="#ffffff"
     bordercolor="#000000"
     borderopacity="0.25"
     inkscape:showpageshadow="2"
     inkscape:pageopacity="0.0"
     inkscape:pagecheckerboard="0"
     inkscape:deskcolor="#d1d1d1"
     showgrid="false"
     inkscape:zoom="1.4690451"
     inkscape:cx="204.895"
     inkscape:cy="209.31965"
     inkscape:window-width="1600"
     inkscape:window-height="836"
     inkscape:window-x="0"
     inkscape:window-y="27"
     inkscape:window-maximized="1"
     inkscape:current-layer="Shapes" />
  <defs
     id="defs1">
    <style
       id="style1">.cls-1,.cls-31,.cls-43,.cls-5,.cls-7,.cls-85{fill:none;}.cls-2{fill:#9ba037;}.cls-3{fill:#b4d93a;}.cls-4{fill:#c2e942;}.cls-5{stroke:#2b470a;}.cls-31,.cls-43,.cls-5,.cls-7{stroke-miterlimit:10;}.cls-31,.cls-43,.cls-5,.cls-7,.cls-85{stroke-width:3px;}.cls-6{fill:#57ebda;}.cls-7{stroke:#0e3f54;}.cls-8{fill:#55ebd9;}.cls-9{fill:#5df4eb;}.cls-10{fill:#5cf4eb;}.cls-11{fill:#58eada;}.cls-12{fill:#329f62;}.cls-13{fill:#3ad967;}.cls-14{fill:#3feb77;}.cls-15{fill:#40d76d;}.cls-16{fill:#3ad9a4;}.cls-17{fill:#aaeedf;}.cls-18{fill:#3febbd;}.cls-19{fill:#329f9c;}.cls-20{fill:#b8f6ee;}.cls-21{fill:#92afd4;}.cls-22{fill:#32a09c;}.cls-23{fill:#aa6e8b;}.cls-24{fill:#3eddab;}.cls-25{fill:#77f0dc;}.cls-26{fill:#9fd2da;}.cls-27{fill:#92b0d4;}.cls-28{fill:#a7eede;}.cls-29{fill:#81e6c9;}.cls-30{fill:#abf5eb;}.cls-31{stroke:#0c4434;}.cls-32{fill:#0c4434;}.cls-33{fill:#54acd2;}.cls-34{fill:#4e5eb6;}.cls-35{fill:#559deb;}.cls-36{fill:#4345ad;}.cls-37{fill:#5ccdf4;}.cls-38{fill:#4974e0;}.cls-39{fill:#61c7ef;}.cls-40{fill:#4e5eb7;}.cls-41{fill:#5293e7;}.cls-42{fill:#444ab3;}.cls-43{stroke:#12113f;}.cls-44{fill:#498ce0;}.cls-45{fill:#55beeb;}.cls-46{fill:#549eeb;}.cls-47{fill:#5cddf4;}.cls-48{fill:#4975e0;}.cls-49{fill:#4978e0;}.cls-50{fill:#3febe1;}.cls-51{clip-path:url(#clip-path);}.cls-52{fill:#b7f6ee;}.cls-53{opacity:0.28;}.cls-54{fill:#3ad9c6;}.cls-55{fill:#329fbc;}.cls-56{fill:#32a0bc;}.cls-57{fill:#55d7eb;}.cls-58{fill:#def7fe;}.cls-59{fill:#eefafe;}.cls-60{fill:#499ee0;}.cls-61{fill:#beb6f2;}.cls-62{fill:#499fe0;}.cls-63{fill:#5ceaf4;}.cls-64{fill:#bfb7f2;}.cls-65{fill:#cebbf3;}.cls-66{fill:#9ff2f9;}.cls-67{fill:#61a7e4;}.cls-68{fill:#3dd6df;}.cls-69{fill:#6adfe8;}.cls-70{fill:#40ea77;}.cls-71{fill:#afeef3;}.cls-72{fill:#def7fa;}.cls-73{fill:#dcf5fe;}.cls-74{fill:#d9f6fd;}.cls-75{fill:#d5ebfb;}.cls-76{fill:#59daed;}.cls-77{fill:#bde3f8;}.cls-78{fill:#d1f4fc;}.cls-79{fill:#c1f1fa;}.cls-80{fill:#d0f3fc;}.cls-81{fill:#caf2f9;}.cls-82{fill:#a2b8e6;}.cls-83{fill:#53d0dc;}.cls-84{fill:#aeb2ef;}.cls-85{stroke:#08324a;stroke-linecap:round;stroke-linejoin:round;}</style>
    <clipPath
       id="clip-path">
      <path
         class="cls-1"
         d="m 48.81,112.33 c 0,0 -15.82,-3 -27.93,-14.89 C 8.77,85.55 6.73,71.74 13.06,68 c 6.33,-3.74 11.36,5.6 11.36,5.6 0,0 -7.82,-26.06 9.87,-29 17.69,-2.94 18.8,12.66 14.52,25.88 -4.28,13.22 -10.05,23.05 0,41.85 z"
         id="path1" />
    </clipPath>
  </defs>
  <g
     id="Calque_2"
     data-name="Calque 2">
    <g
       id="Shapes">
      <path
         class="cls-2"
         d="m 120.69143,255.68286 c 0.6,0.34 1.21,0.68 1.12,0.64 -4.33,5.47 -7.6,7.73 -9.74,14.86 -3,4.46 -7.11,6.26 -10.23,4.6 -3.910001,-2.09 -5.370001,-6.69 -3.700001,-11.63 4.090001,3.94 8.590001,3.91 11.830001,-0.1 3.12,-3.37 5.83,-7.28 10.72,-8.37 z"
         id="path2" />
      <path
         class="cls-3"
         d="m 120.69143,255.68286 c -4.89,1.11 -7.6,5 -10.72,8.37 -0.39,-5.91 -2.89,-7.12 -9.24,-4.47 4.74,-6.43 12.83,-8.01 19.96,-3.9 z"
         id="path3" />
      <path
         class="cls-4"
         d="m 100.73143,259.58286 c 6.35,-2.65 8.85,-1.44 9.24,4.47 -3.24,4 -7.74,4 -11.830001,0.1 z"
         id="path4" />
      <path
         class="cls-5"
         d="m 125.36143,257.16286 c 0,0 -15.6,-8.94 -24.63,4.22 -9.030001,13.16 3.83,19.39 11.22,11.39 7.39,-8 -5.48,-8.41 13.41,-15.61 z"
         id="path5"
         style="stroke-width:1.48913;stroke-dasharray:none" />
      <path
         class="cls-12"
         d="m 131.76143,232.61286 c 1.32,3.81 5.68,5.38 7.11,9.53 -5.5,-0.76 -13.3,0.32 -18,0.28 a 135.58,135.58 0 0 0 -20,1.23 c -6.270001,0.88 -12.150001,0.84 -17.640001,-2.6 -6.14,-3.85 -7.52,-9.61 -3.9,-15.94 l 3.03,2.24 6,3.8 c 3.28,0.19 6.73,1.14 9.8,0.45 a 67.6,67.6 0 0 1 33.600001,1.01 z"
         id="path14" />
      <path
         class="cls-13"
         d="m 131.76143,232.61286 a 67.6,67.6 0 0 0 -33.700001,-1 c -3.07,0.69 -6.52,-0.26 -9.8,-0.45 h 4.1 c 4.87,0 7.54,-2.64 8.780001,-7.3 0.93,-3.48 0.14,-3.41 -1.640001,-6.22 13.420001,0 24.880001,1.09 31.830001,13.61 a 7.19,7.19 0 0 1 0.43,1.36 z"
         id="path15" />
      <path
         class="cls-14"
         d="m 99.481429,217.62286 c 1.780001,2.81 2.570001,2.74 1.640001,6.22 -1.240001,4.66 -3.910001,7.26 -8.780001,7.3 h -4.08 l -6,-3.8 c -0.29,-1.81 -0.57,-3.61 -0.85,-5.42 6.85,-1.93 11.06,-3.35 18.07,-4.3 z"
         id="path16" />
      <path
         class="cls-15"
         d="m 81.461429,221.93286 c 0.28,1.81 0.56,3.61 0.85,5.42 l -3.07,-2.24 z"
         id="path17" />
      <path
         class="cls-5"
         d="m 137.70143,243.77286 c 0,0 -8.49,-34.51 -43.000001,-25.82 -34.51,8.69 -14,32.27 5.750001,25.82 a 61.94,61.94 0 0 1 37.25,0 z"
         id="path18"
         style="stroke-width:1.48913;stroke-dasharray:none" />
      <path
         class="cls-16"
         d="m 19.291429,28.662855 c 9.83,-15.91 21.51,-22.2299998 39.68,-25.0599998 a 28,28 0 0 1 6.86,-0.23 c 0.24,0.2 2.73,-0.95 3,-0.75 v 0 c 0,0.24 0,0.48 0,0.72 -1.71,0.74 -3.48,1.36 -5.12,2.23 -9.06,4.8199998 -18.89,24.2599998 -16.07,34.9999998 3.52,13.4 9.6,24.55 22.44,30.62 3.68,1.74 8.35,2.12 12.52,1.93 6.59,-0.3 11,-4.72 14.45,-10 2.48,-3.83 4.630001,-7.87 6.930001,-11.82 -1.35,6.37 -3.13,12.68 -3.92,19.12 -1.070001,8.6 -1.690001,17.35 4,25 0.5,4.55 0.65,9.170005 1.58,13.630005 1.81,8.67 6.25,15.66 14.34,19.87 a 18.06,18.06 0 0 0 3.87,1 l 0.58,-1 a 22.49,22.49 0 0 0 -2.34,-3 c -8,-7.37 -11.58,-16.22 -9.4,-27.150005 0.15,-0.73 1,-2.53 0.39,-3.41 3,-15.18 14,-24.13 29.12,-22.3 l 0.06,0.66 c -2.3,1.23 -4.52,2.64 -6.91,3.66 -8.53,3.65 -14.12,13.54 -12.51,22.37 2,11.000005 16.84,24.600005 27.88,25.680005 1.67,0.16 3.33,0.49 5,0.75 -4.6,10.73 -2.69,20.61 3.69,30 1.94,2.87 3.9,5.94 4.8,9.2 a 9.31,9.31 0 0 1 -1.36,7.12 c -1.76,2.31 -5,2.24 -7.53,0.59 a 104.48,104.48 0 0 1 -11.16,-8.07 c -11.87,-10.21 -25.3,-15.86 -41.14,-14.11 -8.490001,0.94 -16.290001,3.68 -20.790001,11.9 -0.22,0 -0.44,0.06 -0.67,0.1 l -22.59,-15.76 a 2.46,2.46 0 0 0 -0.06,-0.66 28.53,28.53 0 0 0 -7.36,-28.31 c -5.56,-5.54 -9.13,-6 -15.72,-1.82 -3,-6 -6.77,-11.71 -8.91,-18.000005 -3.18,-9.34 -5.08,-19.11 -7.8,-28.62 -2.8,-9.8 -2,-19.59 -0.7,-29.45 0.49,-3.84 0.59,-7.75 0.87,-11.63 z m 59.89,108.530005 c -0.45,-3.16 -1.91,-5.8 -5.34,-5.41 a 5.94,5.94 0 0 0 -4.06,3.81 4.71,4.71 0 0 0 3.79,5.59 c 3.19,0.71 4.91,-1 5.61,-3.99 z"
         id="path19" />
      <path
         class="cls-17"
         d="m 82.201429,162.92286 c 4.5,-8.22 12.3,-11 20.790001,-11.9 15.84,-1.75 29.27,3.9 41.14,14.11 a 104.48,104.48 0 0 0 11.16,8.07 c 2.52,1.65 5.77,1.72 7.53,-0.59 a 9.31,9.31 0 0 0 1.36,-7.12 c -0.9,-3.26 -2.86,-6.33 -4.8,-9.2 -6.38,-9.43 -8.29,-19.31 -3.69,-30 0.46,-0.54 0.93,-1.07 1.4,-1.6 a 16.13,16.13 0 0 0 1.92,2.26 c 6.63,5.49 10.63,12.58 13.21,20.7 4,12.51 4.85,25.33 4.4,38.33 -0.25,6.9 0.13,13.66 3.81,19.8 -3.42,8.32 -7.63,16.08 -15.67,21.72 -2.54,-9.94 -8.34,-17.18 -15.84,-23.22 l -0.78,-0.8 v 0 l -1.48,-2.3 c -0.8,-0.95 -1.68,-1.84 -2.38,-2.86 -10.27,-14.75 -24.73,-22.87 -41.81,-27.38 -6.960001,-1.86 -13.520001,-5.31 -20.270001,-8.02 z m 82.160001,45.27 0.41,0.31 0.15,-0.23 z"
         id="path20" />
      <path
         class="cls-18"
         d="m 103.96143,51.342855 c -2.3,4 -4.450001,8 -6.930001,11.82 -3.42,5.28 -7.86,9.7 -14.45,10 -4.17,0.19 -8.84,-0.19 -12.52,-1.93 -12.84,-6.07 -18.92,-17.22 -22.44,-30.62 -2.82,-10.75 7,-30.19 16.07,-34.9999998 1.64,-0.87 3.41,-1.49 5.12,-2.23 l 1.65,-0.14 v -0.47 l -1.64,-0.14 v 0 -0.53 l 10.33,2.1 c 3.16,3.46 6.43,6.7699998 11.34,7.6299998 7.38,6.22 13.780001,14.28 15.510001,23.39 0.98,5.12 -2.27,10.85 -2.04,16.12 z m -32.090001,-11.1 c 1,2.76 1.73,5.69 3.15,8.23 2,3.55 6.53,5.14 9.61,3.92 3.44,-1.38 6.08,-5.6 4.92,-9.47 a 24.55,24.55 0 0 0 -5,-8.86 6.5,6.5 0 0 0 -8.22,-1.5 c -2.97,1.58 -4.12,4.21 -4.46,7.68 z"
         id="path21" />
      <path
         class="cls-19"
         d="m 58.971429,147.15286 22.56,15.87 c -1.57,4.85 -2.85,9.73 -1.6,14.89 -6.22,-1.73 -9.71,-4.74 -15.93,-6.47 -17.64,-9.91 -35.21,-27.39 -45.95,-40.59 -7.86,-16.67 -13.2800004,-34.080005 -14.1200004,-52.650005 -0.46,-10.22 -1.47,-18.37 2.14,-27.92 0.53,-1.46 2.21,-7.55 2.74,-9 3.0000004,-5.19 6.2800004,-9.56 10.4800004,-12.61 -0.28,3.88 -0.38,7.79 -0.87,11.64 -1.27,9.86 -2.1,19.65 0.7,29.45 2.72,9.51 4.62,19.28 7.8,28.62 2.14,6.280005 5.88,12.000005 8.91,18.000005 l 0.05,0.25 c -0.78,2 -2.24,4 -2.24,5.93 0,11.13 6.4,18.58 14.91,24.6 a 8.54,8.54 0 0 0 10.42,-0.01 z"
         id="path22" />
      <path
         class="cls-20"
         d="m 157.09143,124.65286 c 5.87,-9.56 17.23,-12.18 28.57,-6.61 v -0.06 c 0.23,0.24 0.47,0.48 0.7,0.73 4.27,13.07 5.34,26.55 4.47,40.14 -1,15.52 -3.67,30.77 -9.36,45.35 a 8.81,8.81 0 0 1 -1,1.54 c -3.68,-6.14 -4.06,-12.9 -3.81,-19.8 0.45,-13 -0.42,-25.82 -4.4,-38.33 -2.58,-8.12 -6.58,-15.21 -13.21,-20.7 a 16.13,16.13 0 0 1 -1.96,-2.26 z m 17.57,11 -0.56,-0.05 z"
         id="path23" />
      <path
         class="cls-21"
         d="m 79.931429,177.91286 c -1.25,-5.16 0,-10 1.6,-14.89 0.23,0 0.45,-0.08 0.67,-0.1 6.75,2.71 13.31,6.16 20.290001,8 17.08,4.51 31.54,12.63 41.81,27.38 0.7,1 1.58,1.91 2.38,2.86 v 1.61 c -13.67,-7.22 -27.63,-13.76 -42.67,-17.65 -7.920001,-2.05 -15.910001,-3.88 -23.870001,-5.8 -0.08,-0.46 -0.15,-0.94 -0.21,-1.41 z"
         id="path24" />
      <path
         class="cls-22"
         d="m 110.91143,96.222855 c 0.62,0.88 1.9,1.89 1.75,2.62 -2.18,10.930005 1.36,19.780005 9.4,27.150005 a 22.49,22.49 0 0 1 2.34,3 l -0.58,1 a 18.06,18.06 0 0 1 -3.87,-1 c -8.09,-4.21 -12.53,-11.2 -14.34,-19.87 -0.93,-4.46 -1.08,-9.08 -1.58,-13.630005 1.94,1.39 2.72,4.770005 6.32,3.57 z"
         id="path25" />
      <path
         class="cls-18"
         d="m 181.52143,103.28286 a 62.5,62.5 0 0 0 -27.22,-26.640005 l -12.13,-3.51 0.06,0.66 c -2.3,1.23 -4.52,2.64 -6.91,3.66 -8.53,3.65 -14.12,13.54 -12.51,22.37 2,11.000005 16.84,24.600005 27.88,25.680005 1.67,0.16 3.33,0.49 5,0.75 0.46,-0.54 0.93,-1.07 1.4,-1.6 5.87,-9.56 19.93,-8.91 31.27,-3.34 -2.08,-5.25 -4.29,-13.01 -6.84,-18.03 z m -37.88,3.43 c -5.93,-0.06 -11.22,-5.86 -11.19,-12.250005 0,-5.47 5.29,-10.75 10.78,-10.84 6.34,-0.11 11.79,5.48 11.71,12 a 11.57,11.57 0 0 1 -11.3,11.090005 z"
         id="path26" />
      <path
         class="cls-23"
         d="m 10.411429,44.212855 c -0.5300004,1.46 -1.0600004,2.92 -1.6000004,4.38 0.55,-1.46 1.07,-2.92 1.6000004,-4.38 z"
         id="path27" />
      <path
         class="cls-21"
         d="m 146.67143,202.77286 v -1.6 l 1.48,2.3 z"
         id="path28" />
      <path
         class="cls-24"
         d="m 68.821429,2.0928552 v 0.53 l -0.72,-0.6 z"
         id="path29" />
      <path
         class="cls-25"
         d="m 186.36143,118.71286 c -0.23,-0.25 -0.47,-0.49 -0.7,-0.73 0.19,0.24 0.43,0.48 0.7,0.73 z"
         id="path30" />
      <path
         class="cls-26"
         d="m 148.14143,203.44286 0.78,0.8 z"
         id="path31" />
      <path
         class="cls-17"
         d="m 35.831429,116.36286 c 6.59,-4.15 10.16,-3.72 15.72,1.82 a 28.53,28.53 0 0 1 7.36,28.31 30.1,30.1 0 0 1 -3.24,-2.31 c -8.44,-7.86 -14.31,-17.58 -19.79,-27.57 z"
         id="path32" />
      <path
         class="cls-27"
         d="m 35.881429,116.61286 c 5.48,10 11.35,19.71 19.79,27.57 a 30.1,30.1 0 0 0 3.24,2.31 2.46,2.46 0 0 1 0.06,0.66 8.54,8.54 0 0 1 -10.42,0 c -8.51,-6 -14.93,-13.47 -14.91,-24.6 0,-1.99 1.46,-3.97 2.24,-5.94 z"
         id="path33" />
      <path
         class="cls-28"
         d="m 79.181429,137.19286 c -0.7,3 -2.42,4.7 -5.61,4 a 4.71,4.71 0 0 1 -3.79,-5.59 5.94,5.94 0 0 1 4.06,-3.83 c 3.43,-0.38 4.89,2.26 5.34,5.42 z"
         id="path34" />
      <path
         class="cls-24"
         d="m 68.821429,2.6528552 1.64,0.14 v 0.44 l -1.65,0.14 c 0,-0.24 0,-0.48 0.01,-0.72 z"
         id="path35" />
      <path
         class="cls-29"
         d="m 164.36143,208.19286 0.56,0.08 -0.15,0.23 z"
         id="path36" />
      <path
         class="cls-20"
         d="m 71.871429,40.242855 c 0.34,-3.5 1.5,-6.1 4.47,-7.68 a 6.5,6.5 0 0 1 8.22,1.5 24.55,24.55 0 0 1 5,8.86 c 1.16,3.87 -1.48,8.09 -4.92,9.47 -3.08,1.22 -7.63,-0.37 -9.61,-3.92 -1.43,-2.54 -2.14,-5.47 -3.16,-8.23 z"
         id="path37" />
      <path
         class="cls-20"
         d="m 132.45143,94.462855 c 0,-5.47 5.29,-10.75 10.78,-10.84 6.34,-0.11 11.79,5.48 11.71,12 a 11.57,11.57 0 0 1 -11.3,11.100005 c -5.93,-0.07 -11.22,-5.87 -11.19,-12.260005 z"
         id="path38" />
      <path
         class="cls-30"
         d="m 174.66143,135.64286 -0.56,-0.05 z"
         id="path39" />
      <path
         class="cls-31"
         d="m 167.20143,227.89286 c 0,0 -14.46,-34 -62.92,-43.26 -19.240001,-3.68 -35.210001,-9.86 -48.670001,-17.86 -35.39,-21.23 -55.79000041,-60.45 -52.3800004,-101.000005 1.13,-13.43 5.27,-26.3 14.6800004,-37.68 21.49,-25.9999998 55.1,-34.6999998 77.77,-11.76 15.000001,15.13 8.880001,35.18 4.540001,50.79 a 32.22,32.22 0 0 0 10.89,33.650005 l 0.2,0.16 c 0,0 11.34,-54.080005 55.89,-15.730005 44.55,38.350005 17.59,128.890005 0,142.690005 z"
         id="path40"
         style="stroke-width:1.48913;stroke-dasharray:none" />
      <path
         class="cls-32"
         d="m 134.52143,136.24286 a 38.79,38.79 0 0 1 -6.71,-3 61.51,61.51 0 0 1 -5.58,-4.76 42.67,42.67 0 0 1 -8.79,-11.82 28.7,28.7 0 0 1 -1.55,-21.890005 30.73,30.73 0 0 1 3.93,-6.26 48.54,48.54 0 0 0 -1.77,7 27,27 0 0 0 -1.3,6.780005 24.26,24.26 0 0 0 0.49,6.85 26.87,26.87 0 0 0 2.25,6.53 40.45,40.45 0 0 0 8.32,11.18 53.33,53.33 0 0 0 5.38,4.56 c 1.69,1.65 3.47,3.26 5.33,4.83 z"
         id="path41" />
    </g>
  </g>
</svg>
