<svg xmlns="http://www.w3.org/2000/svg" xmlns:xlink="http://www.w3.org/1999/xlink" viewBox="0 0 98.54 211.46"><defs><style>.cls-1,.cls-7{fill:none;}.cls-2{fill:#98e6f3;stroke:#221f20;}.cls-2,.cls-7{stroke-linecap:round;stroke-linejoin:round;stroke-width:5px;}.cls-3{opacity:0.3;}.cls-4{clip-path:url(#clip-path);}.cls-5{fill:#362559;}.cls-6{fill:#ebfef3;}.cls-7{stroke:#292e73;}.cls-8{fill:#fff;}</style><clipPath id="clip-path" transform="translate(1.45)"><path class="cls-1" d="M13.49,2.66S29,41.08,7.29,126.92s40.26,92,61.94,73.46S95.55,129,78.52,102.74,13.49,2.66,13.49,2.66Z"/></clipPath></defs><g id="Calque_2" data-name="Calque 2"><g id="Layer_25" data-name="Layer 25"><path class="cls-2" d="M13.23,2.5S28.71,40.92,7,126.76s40.26,92,61.94,73.46,26.32-71.41,9.29-97.64S13.23,2.5,13.23,2.5Z" transform="translate(1.45)"/><g class="cls-3"><g class="cls-4"><path class="cls-5" d="M36.64,90.07c-2.49,14.73-9.28,28.26-10.75,43.29-1.28,13-2.12,29.37,3,41.59,3.85,9.26,12.54,15.24,22.76,10.93,8.64-3.65,13.92-15.48,8.07-23.93a28.94,28.94,0,0,1-2.49-4c1,2,0-.48-.28-1.37-.35-1.3-.64-2.61-.9-3.94.49,2.49-.27-2.33-.28-2.39-.68-7.13-.68-14.51-2.28-21.51C50.4,115.35,44,103.33,41,90.07c-.47-2.07-4-2.22-4.33,0Z" transform="translate(1.45)"/><path class="cls-6" d="M20.71,20.88c2.88,6,3.44,12.49,5.41,18.75a153.23,153.23,0,0,0,6.52,18.15C37.58,68.6,44.29,78.51,50.7,88.51a276.57,276.57,0,0,1,16.35,28.32,83.91,83.91,0,0,1,5.25,13.54c1.54,5.36,1.54,11.07,3.09,16.34,2.87,9.74,19.1,11.14,21.16,0,2.22-12-2.69-25.39-7.42-36.33C84.48,99.65,78,89.87,71.33,80.27c-6.84-9.94-13.35-20.06-20-30.09-3.71-5.56-7.73-10.83-11.65-16.24-4.15-5.74-9-10.58-12.12-17-2.19-4.57-9-.58-6.8,4Z" transform="translate(1.45)"/><path class="cls-6" d="M68,137.18c0,.74,0,.41.17-1-.25.79-.09.41.49-1.14-.34.19-.57,1-.75,1.27a7.45,7.45,0,0,1-.46.77,7.1,7.1,0,0,1,2.88-2.84q4.82-2-.81.38a9.12,9.12,0,0,1-.82.56h13q5.17,6.27,3.57,3.39l1.35,3.18a5.47,5.47,0,0,1-.32-1.25l.49,3.62v-.44l-.49,3.65.12-.39-3.58,6.15a3.12,3.12,0,0,1,.44-.45l-3,2.28c1.3-1,2.62-1.92,3.87-3l-3.12,2.41a2.67,2.67,0,0,1,.66-.37l-3.79,1.6a37.64,37.64,0,0,0,5-2l-24-9.77c1.83,6.72,3.73,13.75,10.51,17.25a16.21,16.21,0,0,0,14.34.82c4.92-2.08,7.43-5.59,9.33-10.45,2.76-7-1.32-14.06-4.29-20.22-3.55-7.37-15.67-10.84-22.38-5.87a33.58,33.58,0,0,0-3.66,2.82,17.94,17.94,0,0,0-4.2,7.2,18.33,18.33,0,0,0-.78,5.5c.09,4.43,1.84,9.3,5.3,12.24l-2.17-2.82c2.79,3.79,5.8,7.58,10.81,8.46,5.67,1,11.52-.65,14.55-5.92a15.67,15.67,0,0,0-1.38-17.55c-2.77-3.58-7.83-5.77-12.33-4.15A6.51,6.51,0,0,0,68,137.18Z" transform="translate(1.45)"/><path class="cls-6" d="M-1.4,142.41c.19,11.86-1.07,23.28,2.92,34.69a53.55,53.55,0,0,0,17.14,24.52c7.66,6,17,9.75,26.9,8.67,9.25-1,20.11-5.09,22.81-14.92.9-3.31-2.42-7.37-6-6-6.14,2.36-11.39,5.79-18.2,5.63a28.26,28.26,0,0,1-18.65-7.62c-5.58-5.16-9.71-12-12.59-19-3.6-8.8-7.3-17.27-9.17-26.63-.58-2.93-5.2-2.23-5.16.69Z" transform="translate(1.45)"/></g></g><path class="cls-7" d="M13.66,2.66s15.48,38.42-6.2,124.26,40.26,92,61.94,73.46S95.72,129,78.69,102.74,13.66,2.66,13.66,2.66Z" transform="translate(1.45)"/><path class="cls-8" d="M51.47,145.38l-.09.3,1.51-3.59a1.74,1.74,0,0,1-.15.26l2.39-3.1a2.83,2.83,0,0,1-.24.25c-2.49,2.51-2.82,3.86-4.12,7.08l1.58-3.74a1.09,1.09,0,0,1-.14.23l2.46-3.18-.09.11,15.28-4a.73.73,0,0,1-.24-.07l3.76,1.58-.11-.06,3.19,2.46a1,1,0,0,1-.18-.17l2.46,3.18a.88.88,0,0,1-.12-.21l1.59,3.77a1.21,1.21,0,0,1-.08-.25l.57,4.2a1.21,1.21,0,0,1,0-.38l-.57,4.21a.75.75,0,0,1,.08-.24l-1.6,3.79.06-.1-2.48,3.21a.77.77,0,0,1,.18-.18H53.91a3.17,3.17,0,0,1,.37.36l-2.49-3.22a3,3,0,0,1,.27.45l-1.61-3.82a2.66,2.66,0,0,1,.18.67,12,12,0,0,0,2.87,5.45,12,12,0,0,0,4.5,4.13,11.85,11.85,0,0,0,6,1.9,12.12,12.12,0,0,0,6.4-.28l3.82-1.62A16,16,0,0,0,79.92,159l1.62-3.83a16.2,16.2,0,0,0,0-8.52,2.19,2.19,0,0,0-.12-.33l-1.61-3.82a15.37,15.37,0,0,0-1.52-2.06,14.84,14.84,0,0,0-5.13-4.65l-3.79-1.6a12,12,0,0,0-6.34-.29A8,8,0,0,0,59,135a11.88,11.88,0,0,0-5.11,3.28c-2.27,2.57-2.35,2.76-3.43,5.31a9.11,9.11,0,0,0-1.15,4.23,12.2,12.2,0,0,0,.28,6.56,13.54,13.54,0,0,0,1.65,4,13.8,13.8,0,0,0,2.83,3.7,17.81,17.81,0,0,0,3.3,2.52l3.76,1.59a17.71,17.71,0,0,0,4.54.64c5.49.22,10.82-3.16,13.56-7.78A18,18,0,0,0,81,154.78a11.94,11.94,0,0,0,.28-6.24,7.7,7.7,0,0,0-.32-2.2l-1.57-3.73c-.41-.56-.84-1.11-1.28-1.65a12,12,0,0,0-4.55-4.19l-.23-.12-3.57-1.51-.18-.06a11.1,11.1,0,0,0-5.88-.26,10.85,10.85,0,0,0-5.48,1.75l-3,2.3a14.7,14.7,0,0,0-3.79,6.51Z" transform="translate(1.45)"/><path class="cls-8" d="M33,56.75c5.4,11.43,11,22.46,17.27,33.42,3.17,5.53,5.3,11.71,7.34,17.74.93,2.74,1.63,5.68,2.77,8.35s3.16,4.24,5,6.33a.71.71,0,0,0,1.2-.5c0-2.65.36-5.26-.53-7.81a59.06,59.06,0,0,0-3.67-7.39c-3.21-6.23-6.7-12.4-9.27-18.94a148.35,148.35,0,0,0-18-32.46A1.25,1.25,0,0,0,33,56.75Z" transform="translate(1.45)"/><path class="cls-8" d="M42.59,182.42l2-.49,1.22-.52a3.81,3.81,0,0,0,1.44-1.32,4.84,4.84,0,0,0,1.1-3.1,6.18,6.18,0,0,0-.7-2.58,5.2,5.2,0,0,0-3.06-2.35l-2-.49A5.66,5.66,0,0,0,37.12,173a5.61,5.61,0,0,0,0,7.95,5.72,5.72,0,0,0,5.47,1.45Z" transform="translate(1.45)"/></g></g></svg>