<?xml version="1.0" encoding="UTF-8" standalone="no"?>
<!-- Uploaded to: SVG Repo, www.svgrepo.com, Generator: SVG Repo Mixer Tools -->

<svg
   width="800px"
   height="800px"
   viewBox="0 0 24 24"
   fill="none"
   version="1.1"
   id="svg1"
   sodipodi:docname="play.svg"
   inkscape:version="1.4.2 (2aeb623e1d, 2025-05-12)"
   xmlns:inkscape="http://www.inkscape.org/namespaces/inkscape"
   xmlns:sodipodi="http://sodipodi.sourceforge.net/DTD/sodipodi-0.dtd"
   xmlns="http://www.w3.org/2000/svg"
   xmlns:svg="http://www.w3.org/2000/svg">
  <defs
     id="defs1" />
  <sodipodi:namedview
     id="namedview1"
     pagecolor="#0fedf8"
     bordercolor="#000000"
     borderopacity="0.25"
     inkscape:showpageshadow="2"
     inkscape:pageopacity="0.0"
     inkscape:pagecheckerboard="0"
     inkscape:deskcolor="#d1d1d1"
     showgrid="false"
     inkscape:zoom="0.7525"
     inkscape:cx="400"
     inkscape:cy="399.33555"
     inkscape:window-width="1600"
     inkscape:window-height="836"
     inkscape:window-x="0"
     inkscape:window-y="27"
     inkscape:window-maximized="1"
     inkscape:current-layer="svg1" />
  <path
     d="M16.6582 9.28638C18.098 10.1862 18.8178 10.6361 19.0647 11.2122C19.2803 11.7152 19.2803 12.2847 19.0647 12.7878C18.8178 13.3638 18.098 13.8137 16.6582 14.7136L9.896 18.94C8.29805 19.9387 7.49907 20.4381 6.83973 20.385C6.26501 20.3388 5.73818 20.0469 5.3944 19.584C5 19.053 5 18.1108 5 16.2264V7.77357C5 5.88919 5 4.94701 5.3944 4.41598C5.73818 3.9531 6.26501 3.66111 6.83973 3.6149C7.49907 3.5619 8.29805 4.06126 9.896 5.05998L16.6582 9.28638Z"
     stroke="#000000"
     stroke-width="2"
     stroke-linejoin="round"
     id="path1"
     style="stroke:#ffffff;stroke-opacity:1" />
</svg>
