<?xml version="1.0" encoding="UTF-8"?>
<svg id="Calque_2" data-name="Calque 2" xmlns="http://www.w3.org/2000/svg" xmlns:xlink="http://www.w3.org/1999/xlink" viewBox="0 0 97.93 96.45">
  <defs>
    <style>
      .cls-1 {
        fill: #eefdf4;
      }

      .cls-1, .cls-2, .cls-3, .cls-4 {
        stroke-width: 0px;
      }

      .cls-2 {
        fill: #effdf4;
      }

      .cls-3, .cls-5 {
        fill: none;
      }

      .cls-4 {
        fill: #792e3f;
      }

      .cls-6 {
        fill: #ffe366;
      }

      .cls-6, .cls-5 {
        stroke: #5f4600;
        stroke-linecap: round;
        stroke-linejoin: round;
        stroke-width: 2.52px;
      }

      .cls-7 {
        clip-path: url(#clippath);
      }

      .cls-8 {
        opacity: .43;
      }
    </style>
    <clipPath id="clippath">
      <path class="cls-3" d="m92.6,62.7s-24.06,27.51-51.05,18.83c-26.99-8.68-26.66-28.34-26.66-34.15,0-10.75,1.9-28.15,24.6-30.94,28.02-3.45,37.87,8.35,39.73,18.36,1.86,10.01-3.29,21.37-6.66,20.7-3.37-.67-6.97-10.68-2.75-25.37v-1.57s-8.54-4.46-8.42,0c.02.82-.29,2.62-.69,4.99-2.1-3.12-4.67-5.46-7.08-6.58-5.67-2.64-12.27-2.26-17.48,1.2-5.94,3.94-14.25,14.35-7.72,28.27,5.46,11.65,20.63,11.12,27.77,7.22,1.74-.95,3.27-2.18,4.56-3.6,1.59,3.22,4.39,5.24,9.06,4.94,17.96-1.14,32.08-24.51,18.33-41.87C74.4,5.75,30.29-16.95,6.45,25.45c-23.42,41.64,27.69,86.88,69.87,63.22,1.58-.89,3.15-1.77,4.77-2.6,5.23-2.69,14.58-11,14.86-14.89.37-5.01-3.34-8.48-3.34-8.48Zm-36.58-13.21c-.33,3.62-2.43,6.82-5.55,8.56-4.45,2.49-13.89,2.82-17.29-4.6-4.07-8.87,1.11-15.5,4.81-18.01,3.24-2.2,7.35-2.44,10.88-.76,3.61,1.72,7.77,7.9,7.15,14.82Z"/>
    </clipPath>
  </defs>
  <g id="Layer_1" data-name="Layer 1">
    <g>
      <path class="cls-6" d="m93.31,62.7s-24.06,27.51-51.05,18.83c-26.99-8.68-26.66-28.34-26.66-34.15,0-10.75,1.9-28.15,24.6-30.94,28.02-3.45,37.87,8.35,39.73,18.36,1.86,10.01-3.29,21.37-6.66,20.7-3.37-.67-6.97-10.68-2.75-25.37v-1.57s-8.54-4.46-8.42,0c.02.82-.29,2.62-.69,4.99-2.1-3.12-4.67-5.46-7.08-6.58-5.67-2.64-12.27-2.26-17.48,1.2-5.94,3.94-14.25,14.35-7.72,28.27,5.46,11.65,20.63,11.12,27.77,7.22,1.74-.95,3.27-2.18,4.56-3.6,1.59,3.22,4.39,5.24,9.06,4.94,17.96-1.14,32.08-24.51,18.33-41.87C75.1,5.75,30.99-16.95,7.15,25.45c-23.42,41.64,27.69,86.88,69.87,63.22,1.58-.89,3.15-1.77,4.77-2.6,5.23-2.69,14.58-11,14.86-14.89.37-5.01-3.34-8.48-3.34-8.48Zm-36.58-13.21c-.33,3.62-2.43,6.82-5.55,8.56-4.45,2.49-13.89,2.82-17.29-4.6-4.07-8.87,1.11-15.5,4.81-18.01,3.24-2.2,7.35-2.44,10.88-.76,3.61,1.72,7.77,7.9,7.15,14.82Z"/>
      <g class="cls-8">
        <g class="cls-7">
          <path class="cls-1" d="m18.69,82.78c-14.55-16.05-14.86-46.29-2.54-63.69,7.4-10.44,20.15-13.61,32.34-12.84s24.66,3.41,33.87,10.87c1.98,1.61,5.65.19,4.69-2.73-2.02-6.14-7.03-8.82-12.89-10.83-7.29-2.5-15.26-4.1-22.96-4.5-13.52-.69-28.61,3.22-37.72,13.86C4.95,22.86,1.58,37.85,1.95,50.7c.38,13.32,5.19,24.83,14.57,34.24,1.4,1.41,3.49-.71,2.17-2.17h0Z"/>
          <path class="cls-1" d="m28.02,47.58c1.33-5.32,5.93-9.67,10.6-12.26,5.11-2.84,9.45-2.29,14.98-2.52,2.44-.1,3.7-3.58,1.31-4.83-5.78-3.04-13.92-.93-19.22,2.34-6.18,3.81-9.19,9.53-10.72,16.44-.44,1.98,2.55,2.82,3.05.84h0Z"/>
          <path class="cls-1" d="m37.29,55.16c-.7,7.36,9.12,9.37,14.56,7.95,6.83-1.79,13.17-8.63,12.52-15.96-.27-3.07-4.63-3.98-5.56-.75-1.24,4.31-3.06,8.1-7.32,10.12s-8.46,1.08-11.66-2.41c-.95-1.03-2.42-.14-2.54,1.05h0Z"/>
          <path class="cls-4" d="m26.71,74.81c6.97,12.37,19.96,16.75,33.71,14.8,7.64-1.08,14.93-4.35,21.52-8.29,3.39-2.02,6.61-4.28,9.76-6.65,3.41-2.56,7.43-4.96,9.6-8.69,2.28-3.92-1.51-9.22-6.02-7.83-6.06,1.87-11.2,7.61-16.5,11.11s-11.04,6.59-17.29,8.28c-9.92,2.69-23.49,1.95-31.52-5.25-1.72-1.55-4.45.4-3.26,2.51h0Z"/>
          <path class="cls-4" d="m70.88,46.22c-1.84,2.81-3.34,6-1.47,9.25,2.21,3.86,7.06,3.86,10.3,1.41,8.03-6.06,10.22-17.42,6.25-26.31-4.42-9.89-14.54-14.45-24.74-15.95-10.83-1.59-24.25-2.02-33.67,4.4-3.14,2.14-1.31,7.78,2.73,6.47,11.56-3.76,26.34-5.58,37.65.12,4.85,2.45,9.39,7.34,10.22,12.89.39,2.6-.22,4.91-1.51,7.16-.64,1.12-1.58,2.69-2.48,3.62l.82.3c-.42-.53-.55-1.13-.39-1.78.48-2.25-2.42-3.52-3.71-1.56h0Z"/>
        </g>
      </g>
      <path class="cls-5" d="m93.31,62.7s-24.06,27.51-51.05,18.83c-26.99-8.68-26.66-28.34-26.66-34.15,0-10.75,1.9-28.15,24.6-30.94,28.02-3.45,37.87,8.35,39.73,18.36,1.86,10.01-3.29,21.37-6.66,20.7-3.37-.67-6.97-10.68-2.75-25.37v-1.57s-8.54-4.46-8.42,0c.02.82-.29,2.62-.69,4.99-2.1-3.12-4.67-5.46-7.08-6.58-5.67-2.64-12.27-2.26-17.48,1.2-5.94,3.94-14.25,14.35-7.72,28.27,5.46,11.65,20.63,11.12,27.77,7.22,1.74-.95,3.27-2.18,4.56-3.6,1.59,3.22,4.39,5.24,9.06,4.94,17.96-1.14,32.08-24.51,18.33-41.87C75.1,5.75,30.99-16.95,7.15,25.45c-23.42,41.64,27.69,86.88,69.87,63.22,1.58-.89,3.15-1.77,4.77-2.6,5.23-2.69,14.58-11,14.86-14.89.37-5.01-3.34-8.48-3.34-8.48Zm-36.58-13.21c-.33,3.62-2.43,6.82-5.55,8.56-4.45,2.49-13.89,2.82-17.29-4.6-4.07-8.87,1.11-15.5,4.81-18.01,3.24-2.2,7.35-2.44,10.88-.76,3.61,1.72,7.77,7.9,7.15,14.82Z"/>
      <path class="cls-2" d="m64.23,29.45c-.79,1.68-1.15,3.88-.28,5.61.32.64,1.22.4,1.42-.19.56-1.6.3-3.65-.02-5.27-.1-.5-.9-.62-1.12-.15h0Z"/>
      <path class="cls-2" d="m41.23,29.52c2.66.18,5.27.55,7.74,1.61,2.21.95,3.77,2.5,5.65,3.93,1.66,1.27,3.36-1.1,2.61-2.61-2.96-6.04-10.51-5.22-16-4.54-1.01.12-1.05,1.53,0,1.6h0Z"/>
      <path class="cls-2" d="m59.84,38.71c.17,0,.33-.03.48-.11.15-.05.29-.14.4-.26.12-.11.21-.25.26-.4.08-.15.11-.31.11-.48l-.04-.33c-.06-.21-.17-.39-.32-.55l-.25-.19c-.19-.11-.4-.17-.63-.17-.17,0-.33.03-.48.11-.15.05-.29.14-.4.26-.12.11-.21.25-.26.4-.08.15-.11.31-.11.48l.04.33c.06.21.17.39.32.55l.25.19c.19.11.4.17.63.17h0Z"/>
      <path class="cls-2" d="m7.89,56.92c-.18-9.4,1.36-17.57,4.38-26.41.41-1.2-1.41-1.93-2.03-.85-4.69,8.15-5.95,18.38-3.83,27.47.19.83,1.5.65,1.48-.2h0Z"/>
      <path class="cls-2" d="m14.77,24.73c1.62-2.86,3.74-5.49,6.19-7.69s5.49-3.56,8.11-5.55c.74-.56.64-2.07-.54-1.98-7.43.58-13.26,7.97-15.7,14.4-.43,1.14,1.36,1.85,1.94.82h0Z"/>
      <path class="cls-2" d="m39.97,8.03c-.08.33-.3.53-.68.59-.62.22-.78.33-.48.33l-.46-.06c.17.04.34.08.5.14l-.44-.19c.55.25,1.08.5,1.71.47,1.16-.06,2.06-1,1.9-2.19-.15-1.12-1.29-1.94-2.41-1.61-.06.02-.12.04-.19.04l.51-.07c-.1,0-.19,0-.29-.02l.5.07c-.33-.06-.67-.14-1.01-.14-.56,0-1.13.2-1.53.59-.69.67-.81,1.55-.39,2.39.27.54.96.8,1.51.73.61-.08,1.07-.5,1.26-1.09h0Z"/>
      <path class="cls-2" d="m88.06,35.77c.57,2.68.24,5.27-.36,7.91-.36,1.61,1.93,2.23,2.46.68,1.02-3,.63-6.11-.55-9.02-.38-.94-1.76-.61-1.55.43h0Z"/>
    </g>
  </g>
</svg>