<svg xmlns="http://www.w3.org/2000/svg" xmlns:xlink="http://www.w3.org/1999/xlink" viewBox="0 0 143.68 231.02"><defs><style>.cls-1,.cls-7{fill:none;}.cls-2{fill:#57d753;}.cls-2,.cls-7{stroke:#1c3026;stroke-linecap:round;stroke-linejoin:round;stroke-width:5px;}.cls-3{opacity:0.45;}.cls-4{clip-path:url(#clip-path);}.cls-5{fill:#901a3d;}.cls-6{fill:#e6fff2;}.cls-8{fill:#e6fef1;}</style><clipPath id="clip-path" transform="translate(0 4.25)"><path class="cls-1" d="M126.15,123.66c-1.8-8-15.74-23.89-37-27.21A52.83,52.83,0,0,0,77.81,96c-2.81-14.1-5.6-28-8.15-40.45,2.19-.15,12.92-.46,12.92-.46s-.45,21.61,10.6,20.95,13.93-19.62,13.93-19.62L98.94,32.84s-19.91-.26-34,0C61.9,18.36,59.64,8.32,58.82,6.2,55-3.75,47.37,9.52,47.37,9.52s1.94,9.37,5,24.12c-2.54.29-5,.65-7.45,1.12-3-14.2-5.22-24-6-26.11C35.11-1.3,27.46,12,27.46,12S29.61,22.36,33,38.48a26,26,0,0,0-2.86,1.57C12.2,51.33-5,69.72,4.9,90.38c7.46,15.49,17.79,26.45,45.3,29.44,3.55,16.49,7.11,32.83,10.35,47.33-14.81-1.93-19.82-20.27-19.82-20.27s-25.54,1.19-24.33,7.7c2.91,15.67,5.16,26.13,25,33.45,8.61,3.17,17.15,3.76,24.84,4.06,3.46,14.77,6.41,28.89,7.81,30,4,3.26,7.92.74,8.53-1.16,1.24-3.84-4.92-21.1-6.44-29.14a55.36,55.36,0,0,0,10.07-1.9c3.43,14.62,6,24.45,7,26,4.64,7.3,9.31.07,8.92-1.88-.83-4.17-4.75-17.88-6.63-27.78a49.42,49.42,0,0,0,15-12.29C126.34,154.85,128.73,135.11,126.15,123.66Zm-69-67.23c2.63,12.47,5.59,26.52,8.68,41-2.74.39-5.39.73-8,.9C55,83.86,52.14,69.65,49.54,57ZM36.5,90.38c-9.79-10.8-3.94-22.26,1.4-28.45,2.26,10.76,4.76,22.58,7.35,34.76A23.79,23.79,0,0,1,36.5,90.38ZM71.15,165.9c-2.59-13.38-5.66-29.09-8.86-45.32,2.7.06,5.54.07,8.52,0,3.07,14.28,6.14,28.36,9,41.15A41.87,41.87,0,0,1,71.15,165.9Zm18.19-11.32c-2.08-10.66-4.38-22.4-6.76-34.48L84.1,120S113.67,132.64,89.34,154.58Z"/></clipPath></defs><g id="Calque_2" data-name="Calque 2"><g id="Warstwa_7" data-name="Warstwa 7"><path class="cls-2" d="M126.67,124.23c-1.8-8-15.74-23.89-37-27.21a52.83,52.83,0,0,0-11.37-.44c-2.81-14.09-5.6-28-8.15-40.44,2.19-.16,12.92-.46,12.92-.46s-.45,21.61,10.6,20.94S107.63,57,107.63,57L99.46,33.42s-19.91-.27-34,0c-3.06-14.5-5.32-24.54-6.14-26.66-3.8-9.95-11.45,3.32-11.45,3.32s1.94,9.38,5,24.13c-2.54.28-5,.65-7.45,1.12-3-14.21-5.22-24-6-26.12C35.63-.73,28,12.54,28,12.54s2.15,10.39,5.52,26.51a29.8,29.8,0,0,0-2.86,1.57C12.72,51.9-4.53,70.29,5.42,91c7.46,15.48,17.79,26.45,45.3,29.43,3.55,16.5,7.11,32.84,10.35,47.33-14.81-1.93-19.82-20.26-19.82-20.26s-25.54,1.19-24.33,7.7c2.91,15.66,5.16,26.13,25,33.44,8.61,3.18,17.15,3.76,24.84,4.06,3.46,14.78,6.41,28.9,7.81,30.05,4,3.25,7.92.73,8.53-1.16,1.24-3.85-4.92-21.11-6.44-29.15a56.23,56.23,0,0,0,10.07-1.89c3.43,14.61,6,24.44,7,26,4.64,7.3,9.31.08,8.92-1.87-.83-4.18-4.75-17.89-6.63-27.78a49.61,49.61,0,0,0,15-12.3C126.86,155.42,129.25,135.68,126.67,124.23ZM57.68,57c2.63,12.47,5.59,26.51,8.68,41-2.74.38-5.39.73-8,.89-2.87-14.45-5.73-28.65-8.33-41.36ZM37,91c-9.79-10.8-3.94-22.26,1.4-28.46,2.26,10.76,4.76,22.58,7.35,34.76A23.64,23.64,0,0,1,37,91Zm34.65,75.52c-2.59-13.39-5.66-29.1-8.86-45.33,2.7.07,5.54.07,8.52,0,3.07,14.28,6.14,28.36,9,41.14A42.47,42.47,0,0,1,71.67,166.48Zm18.19-11.32c-2.08-10.67-4.38-22.41-6.76-34.48l1.52-.1S114.19,133.21,89.86,155.16Z" transform="translate(0 4.25)"/><g class="cls-3"><g class="cls-4"><path class="cls-5" d="M37.4,77c.9-8.33,9.15-13.28,16.41-14.86,7.95-1.73,16.51-1.16,24.61-1.27l3.84-.06L80,58.69s1.46,6.14,1.58,6.66c.83,3.69,1.9,7.38,4.11,10.5,3.89,5.52,11.76,10.07,18.11,5.7,3.91-2.69,3.82-9.47-1.4-10.71-3.94-.93-5.68-1.66-6.89-5.79-1.34-4.55-1.27-9.64-4-13.69C88.75,47.1,84,46.89,79.38,47.05c-5.14.17-10.35.14-15.47.62-8.66.79-17.43,3-23.83,9.22-6,5.85-8.36,12.66-5.62,20.52A1.5,1.5,0,0,0,37.4,77Z" transform="translate(0 4.25)"/><path class="cls-5" d="M12.18,106.72c9.64,11.69,28.68,13.7,42.67,16.06,7.69,1.3,15.58,2.07,23.14,4,3.41.88,7.06,2.07,9.46,4.79s1.89,5.19,2.2,8.55c.52,5.76,7.15,7.45,10.53,2.85,4.85-6.61-.05-16.84-5.54-21.46-7.12-6-16.72-7-25.59-8.22-9.39-1.26-18.87-1.92-28.21-3.54s-18.16-4.82-27.44-6c-1.66-.21-2.05,1.95-1.22,3Z" transform="translate(0 4.25)"/><path class="cls-5" d="M19.44,177.27c17.39,22.24,52.31,26.13,77.34,16.06a77.76,77.76,0,0,0,31.95-24.15,81,81,0,0,0,10.55-17.24,52.9,52.9,0,0,0,3.56-10.22,31.26,31.26,0,0,0,.75-4.92,8.57,8.57,0,0,0-.17-3.38c-.64-2.1-.88-2.39-.71-.89-.69-5.29-7.79-8.55-10.92-3,1.29-2.31-1.56,1.5-1.92,2.08a30.09,30.09,0,0,0-1.88,4.47c-1,2.72-2,5.49-3.13,8.17a67.06,67.06,0,0,1-8.08,13.84,68.41,68.41,0,0,1-25.47,20.36c-22.51,10.67-47.31,4.8-68.86-5.12a2.5,2.5,0,0,0-3,3.9Z" transform="translate(0 4.25)"/><path class="cls-6" d="M9.09,90.87c-2.8-16.11,4.11-33.24,19-40.6,7.53-3.71,12-8.25,10.55-17.18-1-5.84-2-11.55-2.59-17.46-.48-4.73-.17-10.74-3-14.72a2.67,2.67,0,0,0-4.54,0c-2.91,4-2.33,10-2,14.72A126.08,126.08,0,0,0,29,32c.54,2.68,1.6,5.3-.38,7.5-1.21,1.35-3.43,2.1-5,2.93a40.79,40.79,0,0,0-10.08,7.14C2.13,60.76-2.34,78.12,5.23,92.5c1.19,2.25,4.24.59,3.86-1.63Z" transform="translate(0 4.25)"/><path class="cls-6" d="M58,29.05c-.37-6.46-.94-12.86-1.66-19.29C55.8,5,56.27-.76,52.22-3.89,51.15-4.72,49.61-4,49-3c-2.81,4.06-.21,10.2.72,14.67,1.26,6,2.62,12,4.18,18,.59,2.26,4.28,1.86,4.15-.56Z" transform="translate(0 4.25)"/><path class="cls-6" d="M75,37.56c6.13-.16,12.65-.48,18.67.82a19.65,19.65,0,0,1,7.06,2.74c2.29,1.55,3.7,3.3,6.46,4a4.41,4.41,0,0,0,5.51-4.21c-.14-7.19-8.59-11.15-14.7-12.58-8.27-1.95-16,.35-23.84,3-3.21,1.1-2.87,6.27.84,6.17Z" transform="translate(0 4.25)"/><path class="cls-6" d="M83.11,100.52c10.74,3.24,22.79,9.63,30.15,18.25,3.78,4.43,4.69,10,7.9,14.6,2.12,3,6.21,2.89,7.82-.53,2-4.19-1.2-10.53-3.21-14.16a41.07,41.07,0,0,0-10.1-12c-9.71-7.74-19.91-9.67-32-10.4-2.49-.15-2.84,3.55-.58,4.24Z" transform="translate(0 4.25)"/><path class="cls-6" d="M23.65,164.63c-1.24-5,6.41-6.22,9.81-6.41,5.17-.29,10.1.89,13.63-3.63a2.64,2.64,0,0,0,.39-3c-2.37-4.72-6.56-5.16-11.47-4.94-4.52.21-9.51.72-13.43,3.14-5.74,3.53-7.9,12.15-2.53,16.95a2.17,2.17,0,0,0,3.6-2.1Z" transform="translate(0 4.25)"/></g></g><path class="cls-7" d="M126.67,123.66c-1.8-8-15.74-23.89-37-27.21A52.83,52.83,0,0,0,78.33,96c-2.81-14.1-5.6-28-8.15-40.45,2.19-.15,12.92-.46,12.92-.46s-.45,21.61,10.6,20.95,13.93-19.62,13.93-19.62L99.46,32.84s-19.91-.26-34,0C62.42,18.36,60.16,8.32,59.34,6.2c-3.8-9.95-11.45,3.32-11.45,3.32s1.94,9.37,5,24.12c-2.54.29-5,.65-7.45,1.12-3-14.2-5.22-24-6-26.11C35.63-1.3,28,12,28,12s2.15,10.39,5.52,26.51a26,26,0,0,0-2.86,1.57C12.72,51.33-4.53,69.72,5.42,90.38c7.46,15.49,17.79,26.45,45.3,29.44,3.55,16.49,7.11,32.83,10.35,47.33-14.81-1.93-19.82-20.27-19.82-20.27s-25.54,1.19-24.33,7.7c2.91,15.67,5.16,26.13,25,33.45,8.61,3.17,17.15,3.76,24.84,4.06,3.46,14.77,6.41,28.89,7.81,30,4,3.26,7.92.74,8.53-1.16,1.24-3.84-4.92-21.1-6.44-29.14a55.36,55.36,0,0,0,10.07-1.9c3.43,14.62,6,24.45,7,26,4.64,7.3,9.31.07,8.92-1.88-.83-4.17-4.75-17.88-6.63-27.78a49.42,49.42,0,0,0,15-12.29C126.86,154.85,129.25,135.11,126.67,123.66Zm-69-67.23c2.63,12.47,5.59,26.52,8.68,41-2.74.39-5.39.73-8,.9C55.52,83.86,52.66,69.65,50.06,57ZM37,90.38c-9.79-10.8-3.94-22.26,1.4-28.45,2.26,10.76,4.76,22.58,7.35,34.76A23.79,23.79,0,0,1,37,90.38ZM71.67,165.9c-2.59-13.38-5.66-29.09-8.86-45.32,2.7.06,5.54.07,8.52,0,3.07,14.28,6.14,28.36,9,41.15A41.87,41.87,0,0,1,71.67,165.9Zm18.19-11.32c-2.08-10.66-4.38-22.4-6.76-34.48l1.52-.09S114.19,132.64,89.86,154.58Z" transform="translate(0 4.25)"/><path class="cls-8" d="M24.26,55.74C14.31,61.34,7,72.46,10.73,84.18a1.37,1.37,0,0,0,2.67-.36C13.27,73.65,16,62.74,24.68,56.47c.43-.31.06-1-.42-.73Z" transform="translate(0 4.25)"/><path class="cls-8" d="M33.29,53.58c3.44,0,3.45-5.35,0-5.35s-3.44,5.35,0,5.35Z" transform="translate(0 4.25)"/><path class="cls-8" d="M33.29,163.43c5.19,0,5.2-8.06,0-8.06s-5.2,8.06,0,8.06Z" transform="translate(0 4.25)"/><path class="cls-8" d="M42.25,168.57c2.84,0,2.84-4.4,0-4.4s-2.84,4.4,0,4.4Z" transform="translate(0 4.25)"/><path class="cls-8" d="M96.33,108.76c6.4,3.68,11.08,9.57,14.83,15.82,1.1,1.83,4.16.65,3.51-1.48-2.56-8.4-9.19-14-17.26-16.91-1.51-.56-2.44,1.79-1.08,2.57Z" transform="translate(0 4.25)"/><path class="cls-8" d="M45.53,68.82A73.67,73.67,0,0,0,50.1,93.3,2,2,0,0,0,54,92.22c-1.87-7.9-3.61-15.87-5.15-23.85-.36-1.88-3.35-1.43-3.31.45Z" transform="translate(0 4.25)"/><path class="cls-8" d="M63.93,66.17c2.1,8.7,4.13,17.38,6.7,26a1.55,1.55,0,0,0,3-.82c-2.15-8.69-4.82-17.19-7.43-25.75a1.17,1.17,0,0,0-2.26.62Z" transform="translate(0 4.25)"/><path class="cls-8" d="M59.46,132.55c.66,9,1.92,17.81,4.84,26.36a1.83,1.83,0,0,0,3.52-1c-2-8.57-4.1-17.09-5.42-25.79-.25-1.66-3.07-1.28-2.94.4Z" transform="translate(0 4.25)"/><path class="cls-8" d="M77.57,133.92c1.19,7,1.88,14.13,3.36,21.08.54,2.56,4.32,1.45,3.88-1.07-1.21-7-3.21-13.81-4.7-20.71-.37-1.67-2.81-.94-2.54.7Z" transform="translate(0 4.25)"/><path class="cls-8" d="M74.24,202.41l1.83,13c.16,1.11,1.93.66,1.72-.48l-2.37-12.85c-.15-.78-1.29-.43-1.18.33Z" transform="translate(0 4.25)"/><path class="cls-8" d="M93.45,198.65c.9,5.23,1.13,11.32,3.62,16.07.59,1.13,2.07.47,2.18-.59.55-5.34-1.54-11.17-2.64-16.35-.44-2.09-3.51-1.18-3.16.87Z" transform="translate(0 4.25)"/><path class="cls-8" d="M34.75,16.06a81.79,81.79,0,0,0,.71,10.49c.32,2.28,4.27,1.76,4-.55a80.66,80.66,0,0,0-1.72-10.35c-.38-1.71-3.06-1.32-3,.41Z" transform="translate(0 4.25)"/><path class="cls-8" d="M53.83,16.06a28.42,28.42,0,0,0,3.84,11.81c.78,1.24,3.06.46,2.48-1A63.42,63.42,0,0,1,56.6,15.68c-.29-1.53-3-1.2-2.77.38Z" transform="translate(0 4.25)"/><path class="cls-8" d="M92.84,56.2c.55,2.94.68,6.59,2.16,9.21a1.14,1.14,0,0,0,2.1-.56c.23-3-1.24-6.39-2-9.27-.38-1.48-2.53-.84-2.26.62Z" transform="translate(0 4.25)"/></g></g></svg>