
<svg xmlns="http://www.w3.org/2000/svg" xmlns:xlink="http://www.w3.org/1999/xlink" viewBox="0 0 143.58 140.68" style="fill: rgb(0, 0, 0);" original_string_length="7284" width="82.95531884196487px" height="81.14538461268562px"><defs><clipPath id="__id0_sttqt6uzqh" transform="translate(8.84 5.44)"><path d="M112.49,97.77c-7.63-1.2-11,6.18-37,6.21-6.5,0-16.54-4.66-20.77-8.89C50.62,91,52,82.16,51.2,80.24c9.7.81,22.57,4.28,26.73,4.42,13.27.47,8.63-12.41,8.63-12.41L50.29,67.68a68.29,68.29,0,0,1-1.52-7.87c12.48,1.19,24,1.88,29.16,2.06,13.27.47,8.63-12.41,8.63-12.41L49.61,44.81A21.12,21.12,0,0,1,56,34.68c15.26-13.27,56.5,2.49,56.5,2.49S127.81,18,111.22,12.72,40.77-13.93,25.5,38.25c-.33,1.15-.63,2.28-.9,3.41L4.27,39.09s-4,4.4,0,11.4c1.35,2.37,8.69,4.38,18.34,6A58.86,58.86,0,0,0,23,64.24L4.27,61.88s-4,4.4,0,11.4c1.55,2.72,6.79,4.3,18.59,6.07-.08,6.26,1.69,20.29,8.7,31.81,8.77,14.39,24.75,19.75,44,19.78,24.19,0,41.51-11.13,45.61-16.12C121.14,114.82,118.32,98.68,112.49,97.77Z" style="fill: none;"/></clipPath></defs><g data-name="Calque 2"><g data-name="Warstwa 6"><path d="M112.49,96.37c-7.63-1.19-11,6.19-37,6.21-6.5,0-16.54-4.66-20.77-8.88C50.62,89.64,52,80.77,51.2,78.84c9.7.81,22.57,4.28,26.73,4.42,13.27.47,8.63-12.41,8.63-12.41L50.29,66.29a68.87,68.87,0,0,1-1.52-7.88c12.48,1.19,24,1.88,29.16,2.06,13.27.47,8.63-12.41,8.63-12.41L49.61,43.41A21.12,21.12,0,0,1,56,33.28c15.26-13.27,56.5,2.49,56.5,2.49s15.28-19.14-1.31-24.45S40.77-15.32,25.5,36.85c-.33,1.15-.63,2.28-.9,3.41L4.27,37.7s-4,4.39,0,11.39c1.35,2.37,8.69,4.38,18.34,6A58.86,58.86,0,0,0,23,62.84L4.27,60.49s-4,4.39,0,11.39c1.55,2.73,6.79,4.31,18.59,6.07-.08,6.26,1.69,20.29,8.7,31.81,8.77,14.39,24.75,19.75,44,19.78,24.19,0,41.51-11.13,45.61-16.12C121.14,113.42,118.32,97.28,112.49,96.37Z" stroke="#563821" stroke-linecap="round" stroke-linejoin="round" stroke-width="5" transform="translate(8.84 5.44)" style="fill: rgb(255, 34, 98);"/><g opacity=".43"><g clip-path="url(#__id0_sttqt6uzqh)"><path d="M48.29,39.08c5.07-.65,9.4-3.07,14.27-4.53A57.1,57.1,0,0,1,79.07,32a53.72,53.72,0,0,1,30.24,9.65c2.41,1.64,5.6,1.24,8,0,2.87-1.46,3.58-3.9,4-6.88.34-2.79-1.79-5.48-4-6.88a59.5,59.5,0,0,0-38.28-9C68.13,20,50.94,23.92,46,35.13c-.68,1.56.06,4.23,2.27,3.95Z" transform="translate(8.84 5.44)" style="fill: rgb(144, 26, 61);"/><path d="M51,57.19A113.51,113.51,0,0,0,71,61c5.78.67,13.45,2.92,18.84.29A2.77,2.77,0,0,0,90.4,57c-4.51-3.61-11.85-3.23-17.46-3.84a119.59,119.59,0,0,0-21.31-.82c-2.74.2-3.44,4-.66,4.88Z" transform="translate(8.84 5.44)" style="fill: rgb(144, 26, 61);"/><path d="M52.87,78.45a157.91,157.91,0,0,0,21.18,5.69c5.46,1,12.9,3.44,17.55-.24,1.38-1.09.94-3.15,0-4.31-3.48-4.27-12.21-3.59-17.33-4.2-6.88-.81-13.78-1.6-20.66-2.47-3.29-.41-3.58,4.57-.74,5.53Z" transform="translate(8.84 5.44)" style="fill: rgb(144, 26, 61);"/><path d="M21.27,48c-4.25-2.28-8.88-3.25-13.6-4.13C3.23,43.05-1.71,41.6-6.11,43A3.9,3.9,0,0,0-7,50c3.78,2.61,9,2.63,13.44,3.15,4.78.56,9.43,1,14.18.06,2.42-.47,2.77-4.11.68-5.23Z" transform="translate(8.84 5.44)" style="fill: rgb(144, 26, 61);"/><path d="M23.37,70.11c-7-3.55-15.52-4-23.18-5.2-7-1.08-8.43,8.74-1.31,9.67,7.71,1,16,2.9,23.72,1.44,2.7-.51,3.18-4.69.77-5.91Z" transform="translate(8.84 5.44)" style="fill: rgb(144, 26, 61);"/><path d="M21.17,93.32c4.89,21.08,23,36.75,44,40.77a62.43,62.43,0,0,0,34.25-3A115.9,115.9,0,0,0,116.6,123c5.48-3.19,11.7-6.62,15.83-11.51,6.31-7.47-1.43-17.32-10.24-13.27-4.68,2.15-8.71,5.61-13.11,8.29s-8.71,5.13-13.25,7.32a54,54,0,0,1-26.95,5.5c-18-1.17-33.3-13.21-42.4-28.28a2.92,2.92,0,0,0-5.31,2.24Z" transform="translate(8.84 5.44)" style="fill: rgb(144, 26, 61);"/><path d="M31.64,32.73c2.78-7.2,8.07-14.21,14.7-18.25,7.16-4.35,15.6-5.25,23.82-5.28a102.59,102.59,0,0,1,26.36,2.91,96.31,96.31,0,0,1,12.91,4.31c4.28,1.78,8.34,4.57,12.84,5.69,6.92,1.71,12-6.8,7-12-4-4.13-10.16-6.39-15.46-8.47A99.63,99.63,0,0,0,98-3.1,97.83,97.83,0,0,0,64-4.57C44.4-1.81,27.74,11.44,25.83,32c-.33,3.56,4.7,3.65,5.81.78Z" transform="translate(8.84 5.44)" style="fill: rgb(230, 255, 242);"/><path d="M1.62,35.87c-2.66.82-1.28,3.84.54,4.81C4.93,42.16,8.8,42.44,11.87,43a79.65,79.65,0,0,0,10.88,1.24c5.64.18,5.42-8.09,0-8.63a70.51,70.51,0,0,0-10.68-.15c-1.64.08-3.29.11-4.93.26-1.23.1-4,1.06-5,.44L2.35,38l.32-.35a1.08,1.08,0,0,0-1-1.8Z" transform="translate(8.84 5.44)" style="fill: rgb(230, 255, 242);"/><path d="M1.45,63.86c6.21,1.8,12.87,4,19.32,4.67,4.41.44,4.77-6.07,1-7.37C15.52,59,7.82,59.53,1.45,60.78c-1.6.32-1.43,2.66,0,3.08Z" transform="translate(8.84 5.44)" style="fill: rgb(230, 255, 242);"/><path d="M50.93,46.73a264.23,264.23,0,0,0,42.52,5.16c4.66.17,5.86-7.42,1.12-8.28a161.61,161.61,0,0,0-43-1.86c-2.63.25-3.68,4.37-.67,5Z" transform="translate(8.84 5.44)" style="fill: rgb(230, 255, 242);"/><path d="M53.08,70.45c6,.88,12,1.86,18,2.63,6.22.8,13.13,1.89,19.37,1.08,3.59-.47,5-5.74.92-6.82C85.51,65.82,79,66,73,65.9c-6.45-.09-12.93.26-19.37.41-2.27,0-3,3.78-.56,4.14Z" transform="translate(8.84 5.44)" style="fill: rgb(230, 255, 242);"/><path d="M62.69,97.71c6.85,10.68,19.38,13.42,31.2,10.89a92.8,92.8,0,0,0,19.33-6.84c5.68-2.65,11.18-6.3,11.63-13.05.21-3.2-3.9-5.58-6.56-3.77-3.42,2.35-6.21,5.09-10,6.85A126.28,126.28,0,0,1,93.63,97.6c-8.79,2.77-20,4.08-27.33-2.67-1.85-1.7-5.07.5-3.61,2.78Z" transform="translate(8.84 5.44)" style="fill: rgb(230, 255, 242);"/><path d="M33.92,17.34C24.41,25,22,41.77,21.68,53.21a69.77,69.77,0,0,0,2.49,19.71c1.52,5.61,3.8,12.88,8,17.08a2.88,2.88,0,0,0,4.78-2.79c-1.34-5.52-4.42-10.59-5.82-16.2a70.19,70.19,0,0,1-2-17.8A65.91,65.91,0,0,1,31.72,35.5c1.59-5.5,4.46-10.58,5.57-16.2a2,2,0,0,0-3.37-2Z" transform="translate(8.84 5.44)" style="fill: rgb(230, 255, 242);"/></g></g><path d="M112.5,96.77c-7.64-1.2-11,6.18-37,6.21-6.5,0-16.55-4.66-20.78-8.89C50.63,90,52,81.16,51.21,79.24c9.69.81,22.56,4.28,26.72,4.42,13.27.47,8.63-12.41,8.63-12.41L50.3,66.68a64.28,64.28,0,0,1-1.52-7.87c12.48,1.19,24,1.88,29.15,2.06,13.27.47,8.63-12.41,8.63-12.41L49.61,43.81A21.27,21.27,0,0,1,56,33.68c15.27-13.27,56.51,2.49,56.51,2.49S127.82,17,111.23,11.72,40.77-14.93,25.51,37.25c-.34,1.15-.63,2.28-.91,3.41L4.27,38.09s-4,4.4,0,11.4c1.35,2.37,8.7,4.38,18.34,6A58.83,58.83,0,0,0,23,63.24L4.27,60.88s-4,4.4,0,11.4c1.55,2.72,6.79,4.3,18.59,6.07-.08,6.26,1.69,20.29,8.71,31.81,8.76,14.39,24.75,19.75,44,19.78,24.19,0,41.51-11.13,45.61-16.12C121.14,113.82,118.33,97.68,112.5,96.77Z" stroke="#563821" stroke-linecap="round" stroke-linejoin="round" stroke-width="5" transform="translate(8.84 5.44)" style="fill: none;"/><path d="M40.41,30.42a39,39,0,0,1,12.7-12.37c5.26-3.09,10.49-2.8,16-4.48a2.32,2.32,0,0,0,0-4.43C63.06,7.18,55,10.7,49.89,14A27.34,27.34,0,0,0,38.18,29.48c-.42,1.35,1.5,2.07,2.23.94Z" transform="translate(8.84 5.44)" style="fill: rgb(230, 255, 242);"/><path d="M80.51,114.7c9.21.31,18.17-1.08,26-6.15,2.23-1.45.85-5.1-1.85-4.37-8.23,2.23-16.3,5.14-24.69,6.75-2.2.42-1.58,3.7.51,3.77Z" transform="translate(8.84 5.44)" style="fill: rgb(230, 255, 242);"/><path d="M80.64,14.1l1,.18a3.4,3.4,0,0,0,1.79,0,3.36,3.36,0,0,0,1.49-.87,3.48,3.48,0,0,0,1-2.38,2.51,2.51,0,0,0-.29-1.3,2.59,2.59,0,0,0-.7-1.09,3.36,3.36,0,0,0-1.49-.87,3.4,3.4,0,0,0-1.79,0l-1,.18-.76.33a2.45,2.45,0,0,0-.9.82,1.71,1.71,0,0,0-.41.7A2.47,2.47,0,0,0,78.3,11l.11.85.33.76a2.34,2.34,0,0,0,.82.89,2.4,2.4,0,0,0,1.08.57Z" transform="translate(8.84 5.44)" style="fill: rgb(230, 255, 242);"/></g></g></svg>