
<svg xmlns="http://www.w3.org/2000/svg" xmlns:xlink="http://www.w3.org/1999/xlink" data-name="Calque 2" viewBox="0 0 109.72 98.21" style="fill: rgb(0, 0, 0);" original_string_length="9921" width="80.79216404416489px" height="71.97847342116508px"><defs><clipPath id="__id85_smgfsgcgic"><path d="m56.42,34.46c-1.05-1.47-6.82-1.15-14.26.2-.92-9.25-1.15-15.58-1.15-15.58,0,0-.87-7.87-5.26-7.22s-3.95,10.84-3.95,10.84c0,0,.69,5.71,1.83,13.78-4.15,1-8.43,2.2-12.47,3.49-.09-9.19.23-15.43.23-15.43,0,0-.17-7.92-4.6-7.66-4.43.26-4.9,10.45-4.9,10.45,0,0,.21,6.61.7,15.7-5.5,2.22-9.62,4.5-10.78,6.46-4.38,7.44,6.64,5.51,7.45,4.93,1.26-.91,2.55-1.76,3.86-2.55.27,4.14.6,8.48.98,12.74-5.23,2.15-9.12,4.34-10.24,6.24-4.38,7.44,6.64,5.51,7.45,4.93,1.2-.86,2.43-1.68,3.67-2.44,1.07,9.26,2.45,17.09,4.23,20.11,5.55,9.46,7.97-2.35,7.97-2.35-1.99-6.77-3.35-14.38-4.26-21.96,5.27-2.38,10.52-4.04,15.17-5.18,2.1,10.95,4.49,20.66,6.84,23.95,6.37,8.93,7.74-3.04,7.74-3.04-2.71-6.88-4.8-14.74-6.41-22.56,4.86-.78,7.98-.9,7.98-.9,0,0,7.42-1.13,4.23-5.59-1.01-1.41-6.4-1.17-13.44.06-.9-5.13-1.61-10.12-2.16-14.7,5.62-.98,9.31-1.12,9.31-1.12,0,0,7.42-1.13,4.23-5.59Zm-19.5,23.09c-4.88,1.15-10.02,2.57-14.77,4.13-.42-4.91-.68-9.68-.83-14.08,4.57-2.03,9.11-3.52,13.25-4.61.69,4.61,1.48,9.61,2.35,14.56Z" stroke-width="0" style="fill: none;"/></clipPath><clipPath id="__id86_smgfsgcgic"><path d="m80.99,45.63c-1.16,2.62-2.9,4.96-5.16,6.71-2.21,1.71-4.59,2.26-7.27,1.2-10.47-4.13-4.86-13.71-.52-22.71.74-1.53,16.68-42.27,27.42-25.57,10.74,16.7,20.59,71.26,4.63,73.61-15.96,2.35-13.47-45.89-13.47-45.89l-5.62,12.65Z" stroke-width="0" style="fill: none;"/></clipPath></defs><g data-name="Layer 1"><g><path d="m56.9,34.27c-1.05-1.47-6.82-1.15-14.26.2-.92-9.25-1.15-15.58-1.15-15.58,0,0-.87-7.87-5.26-7.22-4.39.65-3.95,10.84-3.95,10.84,0,0,.69,5.71,1.83,13.78-4.15,1-8.43,2.2-12.47,3.49-.09-9.19.23-15.43.23-15.43,0,0-.17-7.92-4.6-7.66-4.43.26-4.9,10.45-4.9,10.45,0,0,.21,6.61.7,15.7-5.5,2.22-9.62,4.5-10.78,6.46-4.38,7.44,6.64,5.51,7.45,4.93,1.26-.91,2.55-1.76,3.86-2.55.27,4.14.6,8.48.98,12.74-5.23,2.15-9.12,4.34-10.24,6.24-4.38,7.44,6.64,5.51,7.45,4.93,1.2-.86,2.43-1.68,3.67-2.44,1.07,9.26,2.45,17.09,4.23,20.11,5.55,9.46,7.97-2.35,7.97-2.35-1.99-6.77-3.35-14.38-4.26-21.96,5.27-2.38,10.52-4.04,15.17-5.18,2.1,10.95,4.49,20.66,6.84,23.95,6.37,8.93,7.74-3.04,7.74-3.04-2.71-6.88-4.8-14.74-6.41-22.56,4.86-.78,7.98-.9,7.98-.9,0,0,7.42-1.13,4.23-5.59-1.01-1.41-6.4-1.17-13.44.06-.9-5.13-1.61-10.12-2.16-14.7,5.62-.98,9.31-1.12,9.31-1.12,0,0,7.42-1.13,4.23-5.59Zm-19.5,23.09c-4.88,1.15-10.02,2.57-14.77,4.13-.42-4.91-.68-9.68-.83-14.08,4.57-2.03,9.11-3.52,13.25-4.61.69,4.61,1.48,9.61,2.35,14.56Z" stroke="#231f20" stroke-linecap="round" stroke-linejoin="round" stroke-width="2.51" style="fill: rgb(255, 137, 155);"/><g opacity=".44"><g clip-path="url(#__id85_smgfsgcgic)"><path d="m7.5,78.13c1.11-.54,2.31-.47,3.46-.89s2.54-.8,3.63-1.46c1.16-.7,1.67-2.18,1.12-3.43-.59-1.34-1.85-1.82-3.24-1.59s-2.85,1.05-3.98,1.8-1.95,2.01-3.04,2.92c-1.56,1.29.43,3.44,2.05,2.66h0Z" style="fill: rgb(67, 36, 67);"/><path d="m30.26,94.33c-.38-5.28-1.92-10.19-2.97-15.37-.75-3.7-1.26-6.4,2.68-8.57,2.41-1.33,5.26-2.14,7.82-3.12,4.05-1.55,2.29-8.14-1.81-6.57-5.29,2.02-15.72,4.04-15.91,11.06-.2,7.48,2.81,17.37,7.08,23.41.87,1.23,3.24.96,3.11-.84h0Z" style="fill: rgb(67, 36, 67);"/><path d="m44.94,66.29c2.15.74,4.25.13,6.38-.44s4.4-.94,6.61-1.44c3.74-.84,2.71-6.29-.87-6.46-2.5-.11-5.16.72-7.47,1.63s-4.43,1.77-5.8,3.88c-.72,1.1.03,2.45,1.15,2.83h0Z" style="fill: rgb(67, 36, 67);"/><path d="m42.19,44.78c1.76-.47,3.89-.48,5.72-.8s3.77-.25,5.7-.28c3.57-.05,4.7-5.93.88-6.5-2.64-.4-5.31-.19-7.9.46-1.16.29-2.4.72-3.43,1.33-1.15.69-1.85,1.75-2.83,2.62-1.47,1.29.1,3.65,1.85,3.18h0Z" style="fill: rgb(67, 36, 67);"/><path d="m20.97,50.18c1.74.15,3.46-.36,5.16-.72s3.49-.56,5.13-1.11c3.53-1.18,3.16-6.97-.92-6.78-3.6.17-8.62,1.61-11.15,4.3-1.58,1.68-.36,4.12,1.78,4.3h0Z" style="fill: rgb(67, 36, 67);"/><path d="m3.62,57.55c1.65.75,3.09.98,4.89.56,1.61-.37,3.05-1.39,4.12-2.62s1.2-3.05,0-4.25c-1.09-1.09-3.18-1.23-4.25,0s-2.6,1.95-4.25,2.36-2.24,3.16-.52,3.95h0Z" style="fill: rgb(67, 36, 67);"/><path d="m22.9,40.22c2.03-2.07,1.91-4.86,2.1-7.61.25-3.62.8-7.2,1.5-10.76.87-4.41-5.83-6.33-6.79-1.87-.81,3.72-1.34,7.44-1.52,11.24-.14,3.08-.47,6.77,1.99,9,.77.69,1.96.77,2.72,0h0Z" style="fill: rgb(67, 36, 67);"/><path d="m25.76,60.42c.1-.46.08-.88.09-1.33.02-1.35-.13,1-.03-.57.07-1.15.28-2.29.37-3.44.2-2.55.65-4.84-.42-7.24-1.13-2.55-5.05-2.2-6.29,0-1.3,2.31-.93,5.37-.91,7.97s.49,4.85,2.86,6.24c.87.51,2.14.59,3,0,.6-.41,1.17-.88,1.33-1.63h0Z" style="fill: rgb(67, 36, 67);"/><path d="m46.55,34c1.24-3.87.32-7.3.06-11.29s.99-8.1-1.12-11.43c-1.23-1.93-3.85-2.33-5.53-.71-3.47,3.34-2.48,9.09-1.84,13.45.66,4.52,1.84,8.55,5.85,11.03,1,.62,2.25,0,2.59-1.05h0Z" style="fill: rgb(67, 36, 67);"/><path d="m44.08,41.7c-3.4,2.32-3.16,7.38-2.42,10.94l7.48-2.06c-.74-2.07-1.31-4.29-1.52-6.48s-1.65-3.9-3.9-3.9c-2.04,0-4,1.79-3.9,3.9.16,3.41.91,6.35,2.23,9.47.74,1.75,3.27,2.28,4.84,1.59,1.75-.77,2.76-2.67,2.25-4.58-.33-1.22-.57-2.47-.67-3.73-.12-1.46-.16-2.95-.92-4.24-.66-1.12-2.33-1.68-3.47-.91h0Z" style="fill: rgb(67, 36, 67);"/><path d="m50.48,65.21l.33-.54c.88-1.44-.25-3.43-1.95-3.39-10.61.25.19,21.96,2.06,26.18,2.05,4.62,9.44,1.32,8.07-3.4-2.07-7.15-4.75-15.05-8.19-21.66l-1.95,3.39c.59-.06,1.26,0,1.61-.57h0Z" style="fill: rgb(67, 36, 67);"/><path d="m15.2,44.7c1.06-4.2.71-8.61.82-12.91.12-4.73.58-9.58.21-14.3-.19-2.45-4.12-3.41-4.61-.62-.82,4.58-.78,9.33-.86,13.97s-.49,9.41.72,13.87c.49,1.81,3.24,1.86,3.71,0h0Z" style="fill: rgb(228, 253, 240);"/><path d="m2.61,52.79c3.16-2.21,6.84-3.72,10.08-5.83,2.39-1.56.32-4.79-2.18-3.73-1.87.79-3.62,2.09-5.25,3.3s-2.79,2.82-4.16,4.31c-.91.99.3,2.8,1.51,1.95h0Z" style="fill: rgb(228, 253, 240);"/><path d="m3.84,72.96c1.98-.7,3.99-1.19,5.95-1.99s3.82-1.38,5.01-3.12c1.07-1.57-.4-3.32-1.99-3.46-1.9-.17-3.74,1.08-5.38,1.96-1.76.95-3.33,2.15-5.04,3.18s-.62,4.17,1.45,3.43h0Z" style="fill: rgb(228, 253, 240);"/><path d="m34.97,35.78c.94-8.17,2.09-15.82.44-24.05-.41-2.06-3.47-1.88-3.99,0-2.33,8.47-.83,16.13,1.38,24.34.34,1.28,2.03.88,2.17-.29h0Z" style="fill: rgb(228, 253, 240);"/><path d="m35.49,45.53c-.22,1.62.29,3.39.54,5,.28,1.8.54,3.6,1.06,5.36.43,1.47,2.9,1.26,2.77-.37-.14-1.82-.5-3.61-.88-5.39s-.54-3.6-1.38-5.16c-.59-1.09-1.97-.44-2.1.57h0Z" style="fill: rgb(228, 253, 240);"/><path d="m40.01,69.96c-1.53,4.29.29,10.05,1.37,14.32,1.31,5.17,3.28,10.19,5.53,15.02,1.08,2.31,5.14.65,4.16-1.76-1.93-4.78-3.57-9.6-4.96-14.57-1.19-4.25-1.38-9.65-3.88-13.31-.61-.89-1.87-.72-2.23.29h0Z" style="fill: rgb(228, 253, 240);"/><path d="m13.24,75.39c-.22,4.82.13,9.77.73,14.56.51,4.07,1.02,8.36,3.87,11.48,2.07,2.27,4.98-.23,4.63-2.7-.64-4.48-2-8.8-2.57-13.34-.48-3.82-.92-7.6-2.56-11.12-.98-2.12-4.02-.9-4.11,1.11h0Z" style="fill: rgb(228, 253, 240);"/></g></g><path d="m56.89,34.28c-1.05-1.47-6.82-1.15-14.26.2-.98-9.84-.94-9.84-1.15-15.58,0,0-.87-7.87-5.26-7.22s-3.95,10.84-3.95,10.84c0,0,.69,5.71,1.83,13.78-4.15,1-8.43,2.2-12.47,3.49-.09-9.19.23-15.43.23-15.43,0,0-.17-7.92-4.6-7.66-4.43.26-4.9,10.45-4.9,10.45,0,0,.21,6.61.7,15.7-5.5,2.22-9.62,4.5-10.78,6.46-4.38,7.44,6.64,5.51,7.45,4.93,1.26-.91,2.55-1.76,3.86-2.55.27,4.14.6,8.48.98,12.74-5.23,2.15-9.12,4.34-10.24,6.24-4.38,7.44,6.64,5.51,7.45,4.93,1.2-.86,2.43-1.68,3.67-2.44,1.07,9.26,2.45,17.09,4.23,20.11,5.55,9.46,7.97-2.35,7.97-2.35-1.99-6.77-3.35-14.38-4.26-21.96,5.27-2.38,10.52-4.04,15.17-5.18,2.1,10.95,4.49,20.66,6.84,23.95,6.37,8.93,7.74-3.04,7.74-3.04-2.71-6.88-4.8-14.74-6.41-22.56,4.86-.78,7.98-.9,7.98-.9,0,0,7.42-1.13,4.23-5.59-1.01-1.41-6.4-1.17-13.44.06-.9-5.13-1.61-10.12-2.16-14.7,5.62-.98,9.31-1.12,9.31-1.12,0,0,7.42-1.13,4.23-5.59Zm-19.5,23.09c-4.88,1.15-10.02,2.57-14.77,4.13-.42-4.91-.68-9.68-.83-14.08,4.57-2.03,9.11-3.52,13.25-4.61.69,4.61,1.48,9.61,2.35,14.56Z" stroke="#731d38" stroke-linecap="round" stroke-linejoin="round" stroke-width="2.51" style="fill: none;"/><path d="m80.99,45.63c-1.16,2.62-2.9,4.96-5.16,6.71-2.21,1.71-4.59,2.26-7.27,1.2-10.47-4.13-4.86-13.71-.52-22.71.74-1.53,16.68-42.27,27.42-25.57,10.74,16.7,20.59,71.26,4.63,73.61-15.96,2.35-13.47-45.89-13.47-45.89l-5.62,12.65Z" stroke="#231f20" stroke-linecap="round" stroke-linejoin="round" stroke-width="2.51" style="fill: rgb(255, 137, 155);"/><g opacity=".45"><g clip-path="url(#__id86_smgfsgcgic)"><path d="m83.81,29.43c.79.14.13-.46-.63.42-.7.81-1.23,1.75-1.79,2.65-1.63,2.64-3.02,5.43-4.59,8.11-1.45,2.45-2.97,4.84-4.66,7.13-1.92,2.62-3.71,4.12-3.68,7.48.02,2.16,1.96,3.34,3.92,2.99,4.86-.86,7.85-7.39,10.07-11.34,2.65-4.73,4.71-9.72,5.28-15.14.1-.91-.58-1.85-1.32-2.3-.88-.53-1.65-.71-2.59-.37-.16.06-.2.33,0,.36h0Z" style="fill: rgb(130, 38, 62);"/><path d="m97.12,4.78c3.12,4.19,2.53,9.47,2.86,14.39.3,4.51.86,9,1.16,13.51.61,8.9,1.11,17.97.27,26.87-.36,3.87-1.08,7.91-2.72,11.47-.39.84-1.76,3.88-2.63,4.25-.77.33-1.44-.31-2.2-.19-5.46.86-3.62,8.18.69,9.57,6.78,2.18,11.47-6.34,13.4-11.41,2.65-6.95,2.76-14.71,2.44-22.05-.67-15.8-1.9-34.38-12.84-46.74-.21-.24-.64.08-.44.34h0Z" style="fill: rgb(130, 38, 62);"/><path d="m65.53,50.2c-.53-9.64,6.78-20.35,12.11-27.86,2.88-4.06,5.92-8.02,9.08-11.87,1.23-1.49,2.87-4.04,4.96-3.89,1.29.1,2.44,1.4,3.69,1.85.81.29,1.81-.05,2.4-.63l.41-.41c.85-.86,1.19-2.13.87-3.3-1.38-5.01-6.81-6.59-11.33-4.72-5.67,2.35-9.58,9.34-13.07,14.07-7.76,10.54-16,23.97-9.68,36.9.13.27.59.14.57-.15h0Z" style="fill: rgb(234, 253, 241);"/><path d="m93.39,73.32c-1.22-8.76-1.79-17.96-2.36-26.79-.5-7.64,1.12-16.5-1.32-23.81-.27-.82-1.43-1.05-1.89-.25-3.98,7.01-2.73,17.27-2.06,25,.82,9.4,3.36,17.41,7,26.03.17.39.69.25.63-.17h0Z" style="fill: rgb(234, 253, 241);"/></g></g><path d="m80.99,45.63c-1.16,2.62-2.9,4.96-5.16,6.71-2.21,1.71-4.59,2.26-7.27,1.2-10.47-4.13-4.86-13.71-.52-22.71.74-1.53,16.68-42.27,27.42-25.57,10.74,16.7,20.59,71.26,4.63,73.61-15.96,2.35-13.47-45.89-13.47-45.89l-5.62,12.65Z" stroke="#731d38" stroke-linecap="round" stroke-linejoin="round" stroke-width="2.51" style="fill: none;"/></g></g></svg>