<?xml version="1.0" encoding="UTF-8"?>
<svg id="Calque_2" data-name="Calque 2" xmlns="http://www.w3.org/2000/svg" xmlns:xlink="http://www.w3.org/1999/xlink" viewBox="0 0 67.19 90.41">
  <defs>
    <style>
      .cls-1, .cls-2 {
        stroke: #3d0a0a;
        stroke-linecap: round;
        stroke-linejoin: round;
        stroke-width: 2.52px;
      }

      .cls-1, .cls-3 {
        fill: none;
      }

      .cls-2 {
        fill: #e16969;
      }

      .cls-3, .cls-4, .cls-5, .cls-6, .cls-7 {
        stroke-width: 0px;
      }

      .cls-4 {
        fill: #792e3f;
      }

      .cls-8 {
        opacity: .4;
      }

      .cls-5 {
        fill: #fff;
      }

      .cls-9 {
        clip-path: url(#clippath);
      }

      .cls-6 {
        fill: #4c0f0f;
      }

      .cls-7 {
        fill: #effdf3;
      }
    </style>
    <clipPath id="clippath">
      <path class="cls-3" d="m50.25,2.45c-.36-.15-.78-.14-1.17-.22C44.01,1.23,14.82-3.35,3.15,21.68c-12.81,27.46,43.77,67.48,43.77,67.48C74.99,29.56,68.37,10.03,50.25,2.45Zm-13.15,43.35c-9.35,1.02-17.67-4.98-18.59-13.41-.92-8.42,5.92-16.08,15.26-17.1,9.35-1.02,17.67,4.98,18.59,13.41.92,8.42-5.92,16.08-15.26,17.1Z"/>
    </clipPath>
  </defs>
  <g id="Layer_1" data-name="Layer 1">
    <g>
      <path class="cls-2" d="m50.25,2.45c-.36-.15-.78-.14-1.17-.22C44.01,1.23,14.82-3.35,3.15,21.68c-12.81,27.46,43.77,67.48,43.77,67.48C74.99,29.56,68.37,10.03,50.25,2.45Zm-13.15,43.35c-9.35,1.02-17.67-4.98-18.59-13.41-.92-8.42,5.92-16.08,15.26-17.1,9.35-1.02,17.67,4.98,18.59,13.41.92,8.42-5.92,16.08-15.26,17.1Z"/>
      <g>
        <path class="cls-6" d="m25.57,24.64c-.31,2.1.66,4.93,2.08,6.48.95,1.05,2.41.13,2.54-1.05s-.19-2.13-.52-3.2-.73-2.15-1.49-2.93-2.43-.51-2.6.69h0Z"/>
        <path class="cls-6" d="m35.89,22.04c.19,2.21.45,4.7,1.77,6.57,1.2,1.7,3.93.71,3.43-1.45-.45-1.91-1.49-3.67-2.09-5.54-.52-1.61-3.27-1.44-3.1.42h0Z"/>
        <path class="cls-6" d="m30.56,36.29c.76,3.18,4.03,5.22,7.24,4.28,2.53-.74,5.98-4.44,3.86-7.04-.43-.52-1.29-.42-1.73,0-1.21,1.15-.96,2.95-2.75,3.7s-3.73-.29-4.68-1.76c-.65-1-2.23-.38-1.94.82h0Z"/>
      </g>
      <g class="cls-8">
        <g class="cls-9">
          <path class="cls-4" d="m2.28,49.86c8.35,19.87,24.92,36.65,43.79,47.08,5.23,2.89,10.85-2.87,8.06-8.06l-.41-.76c-1.91-3.56-7.41-3.48-9.35,0l-.42.76,8.06-2.11c-8.47-5.71-16.55-11.42-24.08-18.37s-14.44-13.9-21.45-20.99c-1.64-1.66-5.24.03-4.22,2.45h0Z"/>
          <path class="cls-4" d="m7.69,53.39c4.68,7.19,9.78,13.9,16.14,19.7,5.77,5.27,13.09,12.63,21.55,9.7,14.61-5.07,17.58-23.43,26.55-34.05l-9.19-5.35c-3.86,9.86-8.41,19.44-13.43,28.76-3.15,5.85-9.98,15.6-1.48,20.33,4.61,2.57,9.63-3.59,5.72-7.41.2,1.09.37,1,.49-.28l.53-1.04c.75-1.65,1.88-3.2,2.78-4.78,1.97-3.47,3.87-6.98,5.7-10.53,3.51-6.82,6.71-13.79,9.76-20.83,2.27-5.25-4.06-11.71-8.64-6.66-7.82,8.62-10.26,21.37-18.86,29.18-1.07.97-2.15,2.08-3.62,2.39-2.03.43-3.76-.89-5.61-1.87-2.92-1.55-5.75-3.27-8.47-5.14-6.09-4.18-11.82-9.05-16.68-14.62-1.53-1.75-4.49.54-3.22,2.49h0Z"/>
          <path class="cls-7" d="m.95,41.53c1.65-3.35,2.06-7.19,3.4-10.69,1.52-3.98,3.25-7.84,5.77-11.3,4.96-6.82,12.38-11.71,20.57-13.66s16.05-.77,23.08,3.36,10.43,10.23,14.26,17.08c1.79,3.2,7.02,1.81,6.94-1.88-.2-9.64-7.12-18.24-14.65-23.63-8.86-6.35-20.44-8-30.96-5.74C18.59-2.62,9.38,3.79,3.09,12.76c-5.21,7.42-10.27,19.91-5.97,28.77.71,1.45,3.12,1.44,3.83,0h0Z"/>
          <path class="cls-7" d="m21.65,42.56c3.87,5.27,9.21,9.5,16.07,9.44,5.82-.05,11.92-3.34,13.03-9.36.22-1.2-1.38-2.57-2.33-1.35-6.97,9.03-17.38,7.72-24.66-.35-1-1.11-3.02.39-2.11,1.63h0Z"/>
        </g>
      </g>
      <path class="cls-1" d="m50.25,2.45c-.36-.15-.78-.14-1.17-.22C44.01,1.23,14.82-3.35,3.15,21.68c-12.81,27.46,43.77,67.48,43.77,67.48C74.99,29.56,68.37,10.03,50.25,2.45Zm-13.15,43.35c-9.35,1.02-17.67-4.98-18.59-13.41-.92-8.42,5.92-16.08,15.26-17.1,9.35-1.02,17.67,4.98,18.59,13.41.92,8.42-5.92,16.08-15.26,17.1Z"/>
      <path class="cls-5" d="m25.89,26.21c.04.12.07.25.14.36.1.16.22.29.38.38.17.1.35.15.54.15l.28-.04c.18-.05.34-.14.47-.27.1-.1.18-.21.22-.34.07-.13.1-.26.09-.41,0-.19-.05-.37-.15-.54-.1-.16-.22-.29-.38-.38-.11-.07-.23-.11-.36-.14-.35-.1-.74,0-.99.26s-.36.64-.26.99h0Z"/>
      <path class="cls-5" d="m37.69,22.89h0c.05.04.1.08.16.12,0,0-.02-.01-.02-.02l.12.15s0-.01,0-.02l.08.18s0-.01,0-.02l-1.23.71.02.02-.13-.17s.01.02.02.03l-.09-.22s0,.02,0,.03l-.04-.26c.01.11-.09-.1.04.29.05.17.14.33.27.46.14.14.15.11.23.17l-.21-.16s.01,0,.01.01l-.16-.21s0,.01.01.02l-.1-.25s0,.01,0,.02l-.04-.27s0,.01,0,.02l.04-.27c-.02.1-.04.2-.04.3l.04.27.1.24.16.21c.09.1.2.17.33.21.08.05.17.07.26.07.09.02.18.02.27,0,.09,0,.18-.02.26-.07.13-.04.24-.11.33-.21.12-.12.23-.3.27-.47.01-.06.01-.08.02-.16.02-.17.03-.26-.02-.45-.16-.55-.74-.92-1.31-.76-.2.06-.22.08-.36.19-.02.01-.08.05-.11.09,0,0,0,0-.01.01-.03.03-.14.17-.15.2-.13.23-.18.47-.1.74l.19-.71c-.18.15-.23.39-.25.61-.02.27.16.54.39.67.24.14.55.14.79,0s.39-.4.39-.67c0-.14-.04-.27-.11-.39-.07-.12-.16-.21-.28-.28h0Z"/>
      <path class="cls-5" d="m10.35,20.73c-.33.21-.69.43-1.1.37l.69,1.21c.21-.68.46-1.31.95-1.83.33-.36.93-.92,1.46-.93l-.82-.22v-.03c-.15-.25-.29-.49-.43-.74.12.3.08.52-.08.84-.03.06-.26.4-.26.39-.19.37-.24.08-.02.1l1.08.29-.16-.11.77.77c.15.21.17.41.07.59.08-.26.09-.33.03-.19.13-.25.16-.3.11-.16-.12.09-.06.07.18-.08l-3.34-1.36c-.07-.31.02.24,0,.34.06-.34-.24.2-.02-.03-.31.34.17-.06-.2.29.26-.25-.34.17.05.02l2.93,1.67c-.16-.48-.01.24-.27.54l-2.95.38c.61.39,1.18.63,1.92.63,1.82,0,2.78-1.94,2-3.48-.33-.65-.85-1.01-1.45-1.36-1.25-.72-2.52-.18-3.33.87-.76.99-.96,2.52-.5,3.68.61,1.52,1.99,2.13,3.5,1.43,2.28-1.05,3.38-3.82,2.72-6.18-.39-1.4-2.07-2.11-3.34-1.36-2.05,1.22-3.7,5.11-1.04,6.69s5.1-1.52,5.3-3.85c.08-1.01-.16-2.24-.9-2.99-.93-.93-2.27-.65-3.26,0-1.63,1.08-2.88,3.11-2.63,5.11.08.62.57,1.14,1.25.95.76-.22,1.43-.54,1.98-1.12s-.17-1.62-.89-1.15h0Z"/>
      <path class="cls-5" d="m15.36,21.5l-.09.17c-.11.19-.16.39-.16.6,0,.21.05.42.16.6.21.36.61.59,1.03.59s.82-.23,1.03-.59c.11-.19.16-.39.16-.6,0-.21-.05-.42-.16-.6l-.09-.17c-.18-.33-.56-.54-.94-.54s-.76.2-.94.54h0Z"/>
      <path class="cls-5" d="m57.76,26.44s-.03-.1-.04-.15c.01.13.01.14,0,.03.04-.21-.07.18,0-.04,0-.04.02-.07.03-.11.05-.13,0-.05-.13.22.03-.04.07-.07.11-.1-.12.09-.14.11-.04.04l-1.66-.68c.04.12.04.07,0-.13,0,.13,0,.08.02-.15-.04.21.15-.29.03-.09.06-.11.14-.2.24-.26.12-.08.14-.1.05-.05.37-.22.28-.11.08-.08l1.61.42-.03-.03.26.34-.02-.04.17.4s-.02-.05-.02-.08l.06.46v-.04c-.02.15-.04.31-.06.46,0-.03.01-.06.02-.08l-.18.42s.03-.05.05-.08l-.28.37s.04-.05.06-.06l-.37.29s.05-.03.07-.05l-.45.19s.05-.02.08-.02l-.51.07h.04c-.17-.02-.34-.04-.51-.07h.04c-.16-.06-.31-.12-.47-.19l.04.02-.4-.31s.05.04.06.06l-.31-.41.02.04-.2-.48s.02.09.03.13l-.07-.55s0,.06,0,.1l.07-.55s-.01.06-.02.09l.21-.5s-.03.06-.04.08l.33-.43s-.04.05-.06.07l.43-.33c-.19.12-.36.26-.52.42l.42-.33-.04.02c-.72.42-1.09,1.25-.99,2.06.05.37.18.68.41.98.29.38.62.56,1.07.74.51.2,1.3.09,1.75-.2s.74-.65.94-1.13c.33-.79.23-1.7-.29-2.38-.66-.85-1.87-1.13-2.82-.58-.69.39-1.06,1.11-1.08,1.88-.02.69.38,1.45.99,1.79.37.2.77.29,1.19.23.57-.08.98-.41,1.27-.89s.31-1.09.2-1.61c-.05-.21-.13-.41-.24-.59-.07-.12-.17-.24-.27-.34s-.48-.38-.15-.12c-.3-.23-.57-.36-.95-.31-.35.05-.64.23-.83.54-.44.72-.48,1.64-.11,2.39.21.42.77.56,1.18.39s.7-.67.55-1.11h0Z"/>
      <path class="cls-5" d="m61.03,29.31c1.05,0,1.05-1.63,0-1.63s-1.05,1.63,0,1.63h0Z"/>
    </g>
  </g>
</svg>