<?xml version="1.0" encoding="UTF-8"?>
<svg id="Calque_2" data-name="Calque 2" xmlns="http://www.w3.org/2000/svg" xmlns:xlink="http://www.w3.org/1999/xlink" viewBox="0 0 92.19 79.54">
  <defs>
    <style>
      .cls-1, .cls-2 {
        fill: none;
      }

      .cls-1, .cls-3 {
        stroke: #131e3e;
        stroke-linecap: round;
        stroke-linejoin: round;
        stroke-width: 2.01px;
      }

      .cls-4 {
        fill: #782d3e;
      }

      .cls-4, .cls-2 {
        stroke-width: 0px;
      }

      .cls-5 {
        clip-path: url(#clippath-1);
      }

      .cls-6 {
        opacity: .44;
      }

      .cls-7 {
        clip-path: url(#clippath);
      }

      .cls-8 {
        opacity: .49;
      }

      .cls-3 {
        fill: #fff;
      }
    </style>
    <clipPath id="clippath">
      <polygon class="cls-2" points="71.09 39.28 69.09 70.09 38.15 55.62 11.16 12.44 27.91 15.34 71.09 39.28"/>
    </clipPath>
    <clipPath id="clippath-1">
      <path class="cls-2" d="m1.22,3.01c2.92-1.17,37.39,76.53,37.39,76.53l22.2-26L1.22,3.01Z"/>
    </clipPath>
  </defs>
  <g id="Layer_1" data-name="Layer 1">
    <g>
      <polyline class="cls-3" points="19.22 13.84 27.91 15.34 71.09 39.28 69.09 70.09 38.15 55.62 11.16 12.44 19.22 13.84"/>
      <g class="cls-7">
        <g class="cls-8">
          <path class="cls-4" d="m20.12,17.06c14.38,13.42,29.95,25.79,46.84,35.94l2.21-3.78c-2.8-1.59-5.98-2.37-8.7-4.04l-2.12,5.03c3.9,1.64,5.83,5.65,4.46,9.58h7.81c-1.44-3.87-3.69-6.32-8.01-5.54l2.06,7.49c5.1-1.88,5.78-10.11-.31-11.15-3.25-.56-6.08,2.53-4.36,5.67l.38,1.71,1.13-2.72,1.33-.32,2.3,1.77-.35-.73c-.9-1.87-3.58-2.37-5.26-1.38-2.63,1.55-4.52,3.44-6.14,6.02-2.43,3.9,2.87,7.41,6.06,4.68,1.39-1.19,2.69.53,2.88,1.69l7.1-2.99c-.82-1.53-1.64-3.07-2.46-4.6l-6.12,4.72c1.51,1.17,2.62,1.83,4.41,2.52,3.08,1.18,5.22-2.2,4.8-4.8-.25-1.34.01-2.56.8-3.66,2.42-4.39-4.15-8.24-6.72-3.93-1.86,3.13-2.2,6.12-1.61,9.67l4.8-4.8-1.76-1.11c-3.3-2.54-7.01,2.22-5.33,5.33.83,1.53,1.65,3.06,2.48,4.59,2.23,4.12,7.79,1.1,7.1-2.99-1.26-7.46-10.49-9.69-15.83-5.08l6.06,4.68c.98-1.58,1.77-2.33,3.36-3.28l-5.26-1.38c1.4,2.95,5.13,3.67,7.77,1.83,3.28-2.28,2.36-6.34.74-9.32l-4.36,5.67.29-3.77c-3.93,1.27-3.54,8.13,1.03,7.63l-.83.07c1.31,4.43,7.77,3.49,7.95-1.08.3-7.28-3.86-13.89-10.94-15.96-2.92-.86-5,3.68-2.12,5.03s6.38,1.57,9.27,3.07c2.49,1.29,4.68-2.4,2.21-3.78-16.81-9.33-32.23-22.04-47.25-33.96-1.25-.99-3.03.66-1.8,1.8h0Z"/>
        </g>
      </g>
      <path class="cls-3" d="m1.22,1.02C4.14-.15,38.6,77.55,38.6,77.55l22.2-26L1.22,1.02Z"/>
      <g class="cls-6">
        <g class="cls-5">
          <path class="cls-4" d="m2.09,5.47c7.04,17.4,15.52,34.31,23.7,51.2,4.06,8.38,8.12,16.76,12.18,25.14,1.19,2.45,2.35,6.26,5.5,6.88,2.43.48,4.21-1.2,4.8-3.4.26-.98.04-2.33-.79-3.01l-.54-.44c-3.02-2.46-6.74,1.24-4.27,4.27l.44.54-.79-3.01.42-.64h3.14c-2.5-1.37-3.96-7.14-5.22-9.68-1.47-2.98-2.94-5.96-4.42-8.94-3.39-6.85-6.73-13.73-10.19-20.54C19.3,30.53,12.86,17,5.36,4.09c-.98-1.69-4.06-.55-3.28,1.38h0Z"/>
          <path class="cls-4" d="m35.99,82.95c4.58-4.49,8.27-9.43,11.84-14.76,3.93-5.86,8-10.31,13.5-14.67,2.67-2.11-.73-5.56-3.37-4.37-12.43,5.6-15.6,22.27-24.1,31.66-1.3,1.43.74,3.5,2.13,2.13h0Z"/>
        </g>
      </g>
      <polyline class="cls-1" points="18.57 14.11 27.71 15.68 70.88 39.62 68.88 70.43 52.62 62.83"/>
      <polygon class="cls-3" points="91.18 39.28 68.4 48.92 1.22 1.02 91.18 39.28"/>
      <line class="cls-3" x1="60.8" y1="51.55" x2="69.09" y2="70.09"/>
      <path class="cls-1" d="m1.01,1.36C3.93.2,38.4,77.9,38.4,77.9l22.2-26L1.01,1.36Z"/>
    </g>
  </g>
</svg>