<?xml version="1.0" encoding="UTF-8" standalone="no"?>
<svg
   id="Calque_2"
   data-name="Calque 2"
   viewBox="0 0 99.19 66.54"
   version="1.1"
   sodipodi:docname="plane1_rotated.svg"
   width="99.190002"
   height="66.540001"
   inkscape:version="1.4.2 (f4327f4, 2025-05-13)"
   xmlns:inkscape="http://www.inkscape.org/namespaces/inkscape"
   xmlns:sodipodi="http://sodipodi.sourceforge.net/DTD/sodipodi-0.dtd"
   xmlns="http://www.w3.org/2000/svg"
   xmlns:svg="http://www.w3.org/2000/svg">
  <sodipodi:namedview
     id="namedview7"
     pagecolor="#ffffff"
     bordercolor="#999999"
     borderopacity="1"
     inkscape:showpageshadow="2"
     inkscape:pageopacity="0"
     inkscape:pagecheckerboard="0"
     inkscape:deskcolor="#d1d1d1"
     inkscape:zoom="9.7183806"
     inkscape:cx="46.098215"
     inkscape:cy="35.036702"
     inkscape:window-width="1920"
     inkscape:window-height="991"
     inkscape:window-x="-9"
     inkscape:window-y="-9"
     inkscape:window-maximized="1"
     inkscape:current-layer="Layer_1" />
  <defs
     id="defs1">
    <style
       id="style1">
      .cls-1, .cls-2 {
        fill: none;
      }

      .cls-1, .cls-3 {
        stroke: #131e3e;
        stroke-linecap: round;
        stroke-linejoin: round;
        stroke-width: 2.01px;
      }

      .cls-4 {
        fill: #782d3e;
      }

      .cls-4, .cls-2 {
        stroke-width: 0px;
      }

      .cls-5 {
        clip-path: url(#clippath-1);
      }

      .cls-6 {
        opacity: .44;
      }

      .cls-7 {
        clip-path: url(#clippath);
      }

      .cls-8 {
        opacity: .49;
      }

      .cls-3 {
        fill: #fff;
      }
    </style>
    <clipPath
       id="clippath">
      <polygon
         class="cls-2"
         points="69.09,70.09 38.15,55.62 11.16,12.44 27.91,15.34 71.09,39.28 "
         id="polygon1" />
    </clipPath>
    <clipPath
       id="clippath-1">
      <path
         class="cls-2"
         d="M 1.22,3.01 C 4.14,1.84 38.61,79.54 38.61,79.54 l 22.2,-26 z"
         id="path1" />
    </clipPath>
  </defs>
  <g
     id="Layer_1"
     data-name="Layer 1">
    <g
       id="g7"
       transform="rotate(138.27361,43.145671,35.755033)">
      <polyline
         class="cls-3"
         points="19.22 13.84 27.91 15.34 71.09 39.28 69.09 70.09 38.15 55.62 11.16 12.44 19.22 13.84"
         id="polyline1" />
      <g
         class="cls-7"
         clip-path="url(#clippath)"
         id="g3">
        <g
           class="cls-8"
           id="g2">
          <path
             class="cls-4"
             d="M 20.12,17.06 C 34.5,30.48 50.07,42.85 66.96,53 l 2.21,-3.78 c -2.8,-1.59 -5.98,-2.37 -8.7,-4.04 l -2.12,5.03 c 3.9,1.64 5.83,5.65 4.46,9.58 h 7.81 c -1.44,-3.87 -3.69,-6.32 -8.01,-5.54 l 2.06,7.49 c 5.1,-1.88 5.78,-10.11 -0.31,-11.15 -3.25,-0.56 -6.08,2.53 -4.36,5.67 l 0.38,1.71 1.13,-2.72 1.33,-0.32 2.3,1.77 -0.35,-0.73 c -0.9,-1.87 -3.58,-2.37 -5.26,-1.38 -2.63,1.55 -4.52,3.44 -6.14,6.02 -2.43,3.9 2.87,7.41 6.06,4.68 1.39,-1.19 2.69,0.53 2.88,1.69 l 7.1,-2.99 c -0.82,-1.53 -1.64,-3.07 -2.46,-4.6 l -6.12,4.72 c 1.51,1.17 2.62,1.83 4.41,2.52 3.08,1.18 5.22,-2.2 4.8,-4.8 -0.25,-1.34 0.01,-2.56 0.8,-3.66 2.42,-4.39 -4.15,-8.24 -6.72,-3.93 -1.86,3.13 -2.2,6.12 -1.61,9.67 l 4.8,-4.8 L 65.57,58 c -3.3,-2.54 -7.01,2.22 -5.33,5.33 0.83,1.53 1.65,3.06 2.48,4.59 2.23,4.12 7.79,1.1 7.1,-2.99 -1.26,-7.46 -10.49,-9.69 -15.83,-5.08 l 6.06,4.68 c 0.98,-1.58 1.77,-2.33 3.36,-3.28 l -5.26,-1.38 c 1.4,2.95 5.13,3.67 7.77,1.83 3.28,-2.28 2.36,-6.34 0.74,-9.32 l -4.36,5.67 0.29,-3.77 c -3.93,1.27 -3.54,8.13 1.03,7.63 l -0.83,0.07 c 1.31,4.43 7.77,3.49 7.95,-1.08 0.3,-7.28 -3.86,-13.89 -10.94,-15.96 -2.92,-0.86 -5,3.68 -2.12,5.03 2.88,1.35 6.38,1.57 9.27,3.07 2.49,1.29 4.68,-2.4 2.21,-3.78 C 52.35,39.93 36.93,27.22 21.91,15.3 c -1.25,-0.99 -3.03,0.66 -1.8,1.8 v 0 z"
             id="path2" />
        </g>
      </g>
      <path
         class="cls-3"
         d="M 1.22,1.02 C 4.14,-0.15 38.6,77.55 38.6,77.55 l 22.2,-26 z"
         id="path3" />
      <g
         class="cls-6"
         id="g6">
        <g
           class="cls-5"
           clip-path="url(#clippath-1)"
           id="g5">
          <path
             class="cls-4"
             d="m 2.09,5.47 c 7.04,17.4 15.52,34.31 23.7,51.2 4.06,8.38 8.12,16.76 12.18,25.14 1.19,2.45 2.35,6.26 5.5,6.88 2.43,0.48 4.21,-1.2 4.8,-3.4 0.26,-0.98 0.04,-2.33 -0.79,-3.01 l -0.54,-0.44 c -3.02,-2.46 -6.74,1.24 -4.27,4.27 l 0.44,0.54 -0.79,-3.01 0.42,-0.64 h 3.14 C 43.38,81.63 41.92,75.86 40.66,73.32 39.19,70.34 37.72,67.36 36.24,64.38 32.85,57.53 29.51,50.65 26.05,43.84 19.3,30.53 12.86,17 5.36,4.09 4.38,2.4 1.3,3.54 2.08,5.47 v 0 z"
             id="path4" />
          <path
             class="cls-4"
             d="m 35.99,82.95 c 4.58,-4.49 8.27,-9.43 11.84,-14.76 3.93,-5.86 8,-10.31 13.5,-14.67 2.67,-2.11 -0.73,-5.56 -3.37,-4.37 -12.43,5.6 -15.6,22.27 -24.1,31.66 -1.3,1.43 0.74,3.5 2.13,2.13 v 0 z"
             id="path5" />
        </g>
      </g>
      <polyline
         class="cls-1"
         points="18.57 14.11 27.71 15.68 70.88 39.62 68.88 70.43 52.62 62.83"
         id="polyline6" />
      <polygon
         class="cls-3"
         points="1.22,1.02 91.18,39.28 68.4,48.92 "
         id="polygon6" />
      <line
         class="cls-3"
         x1="60.799999"
         y1="51.549999"
         x2="69.089996"
         y2="70.089996"
         id="line6" />
      <path
         class="cls-1"
         d="M 1.01,1.36 C 3.93,0.2 38.4,77.9 38.4,77.9 l 22.2,-26 z"
         id="path6" />
    </g>
  </g>
</svg>
