<?xml version="1.0" encoding="UTF-8" standalone="no"?>
<svg
   id="Calque_2"
   data-name="Calque 2"
   viewBox="0 0 90.72 57.520004"
   version="1.1"
   sodipodi:docname="plane2.svg"
   width="90.720001"
   height="57.52"
   inkscape:version="1.4.2 (f4327f4, 2025-05-13)"
   xmlns:inkscape="http://www.inkscape.org/namespaces/inkscape"
   xmlns:sodipodi="http://sodipodi.sourceforge.net/DTD/sodipodi-0.dtd"
   xmlns="http://www.w3.org/2000/svg"
   xmlns:svg="http://www.w3.org/2000/svg">
  <sodipodi:namedview
     id="namedview9"
     pagecolor="#ffffff"
     bordercolor="#999999"
     borderopacity="1"
     inkscape:showpageshadow="2"
     inkscape:pageopacity="0"
     inkscape:pagecheckerboard="0"
     inkscape:deskcolor="#d1d1d1"
     inkscape:zoom="9.1457647"
     inkscape:cx="28.86582"
     inkscape:cy="29.029831"
     inkscape:window-width="1920"
     inkscape:window-height="991"
     inkscape:window-x="-9"
     inkscape:window-y="-9"
     inkscape:window-maximized="1"
     inkscape:current-layer="Calque_2" />
  <defs
     id="defs1">
    <style
       id="style1">
      .cls-1 {
        fill: #5f4600;
      }

      .cls-1, .cls-2, .cls-3, .cls-4 {
        stroke-width: 0px;
      }

      .cls-2 {
        fill: #782e3f;
      }

      .cls-3, .cls-5 {
        fill: none;
      }

      .cls-6 {
        opacity: .32;
      }

      .cls-7 {
        fill: #ffe366;
      }

      .cls-7, .cls-5 {
        stroke: #5f4600;
        stroke-linecap: round;
        stroke-linejoin: round;
        stroke-width: 2.52px;
      }

      .cls-8 {
        clip-path: url(#clippath);
      }

      .cls-4 {
        fill: #effdf3;
      }
    </style>
    <clipPath
       id="clippath">
      <path
         class="cls-3"
         d="M 3.3,82.43 C 3.89,77.98 1.26,1.26 1.26,1.26 l 55.21,67.96 c 0,0 -16.94,-0.58 -20.74,-3.51 -3.8,-2.92 -3.8,17.09 -4.67,16.72 C 30.19,82.06 17.92,69.8 17.92,69.8 L 3.31,82.43 Z"
         id="path1" />
    </clipPath>
  </defs>
  <g
     id="Layer_1"
     data-name="Layer 1"
     transform="rotate(112.017,35.198311,45.173286)"
     inkscape:transform-center-x="7.5197192"
     inkscape:transform-center-y="1.0912921">
    <g
       id="g9">
      <path
         class="cls-7"
         d="M 3.3,82.43 C 3.89,77.98 1.26,1.26 1.26,1.26 l 55.21,67.96 c 0,0 -16.94,-0.58 -20.74,-3.51 -3.8,-2.92 -3.8,17.09 -4.67,16.72 C 30.19,82.06 17.92,69.8 17.92,69.8 L 3.31,82.43 Z"
         id="path2" />
      <g
         class="cls-6"
         id="g7">
        <g
           class="cls-8"
           clip-path="url(#clippath)"
           id="g6">
          <path
             class="cls-2"
             d="M 2.75,85.54 C 8.21,80.39 10.9,72.68 16.35,67.63 l -2.61,1.08 0.91,-0.02 -2.77,-1.15 c 3.63,3.16 6.52,8.13 9.53,11.88 3.34,4.17 6.5,8.67 10.25,12.47 3.17,3.21 8.95,-0.99 6.37,-4.92 C 34.9,82.21 30.92,77.91 27.32,73.5 24,69.43 20.8,64.59 16.63,61.38 c -1.08,-0.83 -2.85,-0.63 -3.96,0 -3.32,1.89 -4.53,6.59 -6.18,9.85 -2.14,4.23 -4.65,8.48 -5.88,13.07 -0.34,1.25 1.21,2.1 2.13,1.24 v 0 z"
             id="path3" />
          <path
             class="cls-2"
             d="M 34.23,84.33 C 33.48,75.92 33.7,67.62 34.67,59.23 l -4.52,2.59 c 5.11,3.04 10.3,5.83 15.75,8.23 4.11,1.81 9.81,5.61 14.25,3.81 1.6,-0.65 2.54,-2.3 1.61,-3.95 -2.33,-4.1 -8.04,-4.68 -12.18,-6.29 -5.53,-2.14 -11.02,-4.49 -16.39,-7 -2.06,-0.96 -4.45,0.18 -4.52,2.59 -0.25,8.59 0.58,17.12 2.23,25.55 0.36,1.86 3.51,1.46 3.34,-0.45 v 0 z"
             id="path4" />
          <path
             class="cls-4"
             d="M 2.94,73.79 C 4.98,61.45 6.46,49.27 6.87,36.75 7.07,30.65 7.13,24.53 6.98,18.43 6.9,15.22 6.73,12.01 6.54,8.8 6.44,7.2 6.33,5.59 6.21,3.99 L 6.06,2.07 C 6.28,-0.4 5.82,-0.5 4.67,1.78 l -3.09,0.4 0.52,0.14 -2.65,-2.64 0.12,0.43 c 0.79,2.82 5.24,3.78 6.64,0.87 1.3,-2.71 0.25,-6.05 -3.02,-6.6 -1.89,-0.32 -3.69,0.22 -4.72,1.92 -2.61,4.27 -0.21,11.64 0.15,16.36 0.51,6.74 0.96,13.49 1.18,20.24 0.44,13.42 0.43,27.03 -0.23,40.44 -0.09,1.9 3.06,2.39 3.38,0.46 v 0 z"
             id="path5" />
          <path
             class="cls-4"
             d="m 4.02,9.46 c 3.44,8.73 10.78,15.98 16.79,23.04 6.18,7.25 12.57,16.45 20.93,21.28 1.46,0.84 3.84,-0.6 3.12,-2.4 C 41.37,42.75 33.69,35.35 27.61,28.46 21.53,21.57 14.89,12.43 6.41,7.62 5.28,6.98 3.47,8.07 4.02,9.46 Z"
             id="path6" />
        </g>
      </g>
      <path
         class="cls-5"
         d="M 3.3,83.26 C 3.89,78.8 1.26,2.08 1.26,2.08 l 55.21,67.96 c 0,0 -16.94,-0.58 -20.74,-3.51 -3.8,-2.92 -3.8,17.09 -4.67,16.72 C 30.19,82.88 17.92,70.62 17.92,70.62 L 3.31,83.25 Z"
         id="path7" />
      <path
         class="cls-1"
         d="m 9.73,39.78 c 0.4,8.73 -0.4,17.79 1.13,26.43 0.28,1.57 2.74,1.17 2.73,-0.37 -0.03,-8.7 -2.05,-17.36 -2.45,-26.06 -0.04,-0.91 -1.46,-0.91 -1.41,0 z"
         id="path8" />
      <path
         class="cls-1"
         d="m 16.8,36.9 c 3.94,8.2 8.01,16.51 14.14,23.32 0.93,1.03 2.44,-0.28 1.85,-1.43 C 28.66,50.8 23.33,43.5 18.95,35.64 18.16,34.22 16.1,35.47 16.79,36.9 v 0 z"
         id="path9" />
    </g>
  </g>
</svg>
